
<svg xmlns="http://www.w3.org/2000/svg" version="1.1" xmlns:xlink="http://www.w3.org/1999/xlink" preserveAspectRatio="none" x="0px" y="0px" width="334px" height="447px" viewBox="0 0 334 447">
<defs>
<g id="Layer0_0_MEMBER_0_FILL">
<path fill="#414956" stroke="none" d="
M -713.7 390.85
L -756.1 390.85 -756.1 492.85 -713.7 492.85 -713.7 390.85
M -648.25 390.85
L -690.65 390.85 -690.65 492.85 -648.25 492.85 -648.25 390.85
M -517.35 390.85
L -559.75 390.85 -559.75 492.85 -517.35 492.85 -517.35 390.85
M -582.8 390.85
L -625.2 390.85 -625.2 492.85 -582.8 492.85 -582.8 390.85 Z"/>
</g>

<g id="Layer0_0_MEMBER_1_FILL">
<path fill="#000000" fill-opacity="0.30196078431372547" stroke="none" d="
M -713.7 492.85
L -713.7 489.7 -756.1 489.7 -756.1 492.85 -713.7 492.85
M -690.65 489.7
L -690.65 492.85 -648.25 492.85 -648.25 489.7 -690.65 489.7
M -625.2 489.7
L -625.2 492.85 -582.8 492.85 -582.8 489.7 -625.2 489.7
M -559.75 489.7
L -559.75 492.85 -517.35 492.85 -517.35 489.7 -559.75 489.7 Z"/>

<path fill="#ADADAD" stroke="none" d="
M -559.75 489.7
L -559.75 468.5 -582.8 468.5 -582.8 489.7 -582.8 492.85 -625.2 492.85 -625.2 489.7 -625.2 468.5 -648.25 468.5 -648.25 489.7 -648.25 492.85 -690.65 492.85 -690.65 489.7 -690.65 468.5 -713.7 468.5 -713.7 489.7 -713.7 492.85 -756.1 492.85 -756.1 489.7 -756.1 468.5 -777.8 468.5 -777.8 519.15 -496.35 519.15 -496.35 468.5 -517.35 468.5 -517.35 489.7 -517.35 492.85 -559.75 492.85 -559.75 489.7
M -496.35 343
L -496.35 336.05 -777.8 336.05 -777.8 343 -496.35 343 Z"/>

<path fill="#575F83" stroke="none" d="
M -496.35 336.05
L -490.85 336.05 -490.85 324.55 -783.3 324.55 -783.3 336.05 -777.8 336.05 -496.35 336.05 Z"/>

<path fill="#CCCCCC" stroke="none" d="
M -625.2 390.85
L -582.8 390.85 -582.8 468.5 -559.75 468.5 -559.75 390.85 -517.35 390.85 -517.35 468.5 -496.35 468.5 -496.35 343 -777.8 343 -777.8 468.5 -756.1 468.5 -756.1 390.85 -713.7 390.85 -713.7 468.5 -690.65 468.5 -690.65 390.85 -648.25 390.85 -648.25 468.5 -625.2 468.5 -625.2 390.85 Z"/>
</g>

<g id="Layer0_0_MEMBER_1_MEMBER_0_FILL">
<path fill="#FFFFFF" fill-opacity="0.30196078431372547" stroke="none" d="
M -713.7 395.9
L -713.7 390.85 -756.1 390.85 -756.1 438.3 -713.7 395.9 Z"/>
</g>

<g id="Layer0_0_MEMBER_1_MEMBER_1_FILL">
<path fill="#FFFFFF" fill-opacity="0.30196078431372547" stroke="none" d="
M -648.25 395.9
L -648.25 390.85 -690.65 390.85 -690.65 438.3 -648.25 395.9 Z"/>
</g>

<g id="Layer0_0_MEMBER_1_MEMBER_2_FILL">
<path fill="#FFFFFF" fill-opacity="0.30196078431372547" stroke="none" d="
M -582.8 395.9
L -582.8 390.85 -625.2 390.85 -625.2 438.3 -582.8 395.9 Z"/>
</g>

<g id="Layer0_0_MEMBER_1_MEMBER_3_FILL">
<path fill="#FFFFFF" fill-opacity="0.30196078431372547" stroke="none" d="
M -517.35 395.9
L -517.35 390.85 -559.75 390.85 -559.75 438.3 -517.35 395.9 Z"/>
</g>

<g id="Layer0_0_MEMBER_1_MEMBER_4_MEMBER_0_FILL">
<path fill="#666666" stroke="none" d="
M -636.5 289.5
Q -637 289.05 -637.65 289.05 -638.3 289.05 -638.7 289.5 -638.85 289.65 -638.9 289.85
L -639.05 289.95 -657.95 324.55 -654.55 324.55 -639.1 296.45 -639.1 324.55 -636.1 324.55 -636.1 296.7 -620.85 324.55 -617.4 324.55 -636.1 290.45
Q -636.15 289.85 -636.5 289.5 Z"/>
</g>

<g id="Layer0_0_MEMBER_1_MEMBER_4_MEMBER_1_FILL">
<path fill="#FFFFFF" stroke="none" d="
M -637.55 258.85
Q -639.1 259 -640.8 259.3 -650.05 261.2 -657.85 269 -665.75 276.9 -667.65 286.15 -669.5 295.3 -664.35 300.6 -660.6 304.25 -654.85 304.4 -652.6 304.4 -649.85 303.9 -649.5 303.85 -649.15 303.75 -648.05 303.5 -647.15 303.15 -643 301.95 -639.1 299.3 -639.1 299.4 -639.05 299.3 -637 298 -635.05 296.3 -634.2 295.5 -633.25 294.6 -633 294.4 -632.85 294.1
L -632.55 293.9
Q -632.5 293.8 -632.3 293.7 -630.95 292.25 -629.8 290.85
L -629.4 290.3
Q -624.45 284.1 -623.1 277.1 -621.2 267.9 -626.45 262.65 -630.65 258.45 -637.55 258.85
M -638.3 296.15
L -638.35 296.1
Q -640.8 297.75 -643.5 298.6 -644.5 298.9 -645.25 299.1 -647.1 299.4 -648.55 299.4 -652.35 299.4 -654.75 297 -658.1 293.45 -656.9 287.5 -655.7 281.5 -650.55 276.4 -645.45 271.25 -639.45 270.05 -633.4 268.85 -630.05 272.25 -626.65 275.65 -627.85 281.6 -628.75 286.2 -632 290.25
L -632.3 290.65
Q -633 291.55 -633.9 292.5 -634.05 292.5 -634.05 292.55
L -634.2 292.75
Q -634.4 292.9 -634.55 293.05 -635.1 293.6 -635.65 294.1 -636.95 295.25 -638.3 296.15 Z"/>

<path fill="#E9E9E9" stroke="none" d="
M -638.35 296.1
L -638.3 296.15
Q -636.95 295.25 -635.65 294.1 -635.1 293.6 -634.55 293.05 -634.4 292.9 -634.2 292.75
L -634.05 292.55
Q -634.05 292.5 -633.9 292.5 -633 291.55 -632.3 290.65
L -632 290.25
Q -628.75 286.2 -627.85 281.6 -626.65 275.65 -630.05 272.25 -633.4 268.85 -639.45 270.05 -645.45 271.25 -650.55 276.4 -655.7 281.5 -656.9 287.5 -658.1 293.45 -654.75 297 -652.35 299.4 -648.55 299.4 -647.1 299.4 -645.25 299.1 -644.5 298.9 -643.5 298.6 -640.8 297.75 -638.35 296.1
M -637.65 282.25
Q -635.15 281.75 -633.75 283.1 -632.4 284.5 -633 287 -633.35 288.8 -634.6 290.45
L -634.75 290.6
Q -635.05 290.95 -635.4 291.35
L -635.45 291.35 -635.55 291.4
Q -635.6 291.55 -635.65 291.55 -635.9 291.8 -636.1 292 -636.65 292.5 -637.15 292.85 -638.2 293.45 -639.35 293.9 -639.6 293.95 -639.95 294.05 -640.75 294.15 -641.4 294.15 -642.85 294.1 -643.85 293.2 -645.2 291.8 -644.7 289.3 -644.2 286.85 -642.15 284.8 -640.05 282.75 -637.65 282.25 Z"/>

<path fill="#CCCCCC" stroke="none" d="
M -633.75 283.1
Q -635.15 281.75 -637.65 282.25 -640.05 282.75 -642.15 284.8 -644.2 286.85 -644.7 289.3 -645.2 291.8 -643.85 293.2 -642.85 294.1 -641.4 294.15 -640.75 294.15 -639.95 294.05 -639.6 293.95 -639.35 293.9 -638.2 293.45 -637.15 292.85 -636.65 292.5 -636.1 292 -635.9 291.8 -635.65 291.55 -635.6 291.55 -635.55 291.4
L -635.45 291.35 -635.4 291.35
Q -635.05 290.95 -634.75 290.6
L -634.6 290.45
Q -633.35 288.8 -633 287 -632.4 284.5 -633.75 283.1 Z"/>
</g>

<g id="Layer0_0_MEMBER_1_MEMBER_4_MEMBER_1_MEMBER_0_FILL">
<path fill="#666666" stroke="none" d="
M -637.55 288.45
Q -637.5 288.05 -637.7 287.75
L -648.85 276.7
Q -648.65 276.05 -648.65 275.5 -648.65 274.3 -649.5 273.45 -650.35 272.6 -651.6 272.55 -652.75 272.6 -653.55 273.45 -654.4 274.3 -654.5 275.5 -654.5 276.7 -653.65 277.55 -652.75 278.45 -651.6 278.4 -650.95 278.4 -650.35 278.15
L -639.2 289.25
Q -639 289.5 -638.55 289.45 -638.2 289.45 -637.85 289.15 -637.55 288.8 -637.55 288.45 Z"/>
</g>

<g id="Layer0_0_MEMBER_1_MEMBER_5_FILL">
<path fill="#575F83" stroke="none" d="
M -720.1 120.55
L -725.1 120.55 -725.1 138.5 -720.1 138.5 -720.1 120.55
M -738.9 73.05
L -742.9 73.05 -742.9 138.5 -738.9 138.5 -738.9 73.05 Z"/>
</g>

<g id="Layer0_0_MEMBER_1_MEMBER_5_MEMBER_0_FILL">
<path fill="#999999" stroke="none" d="
M -722.7 324.55
L -722.7 204 -741.2 204 -741.2 324.55 -722.7 324.55 Z"/>

<path fill="#CCCCCC" stroke="none" d="
M -741.2 204
L -755.4 204 -755.4 324.55 -741.2 324.55 -741.2 204 Z"/>

<path fill="#666666" stroke="none" d="
M -708.8 204
L -722.7 204 -722.7 324.55 -708.8 324.55 -708.8 204 Z"/>
</g>

<g id="Layer0_0_MEMBER_1_MEMBER_5_MEMBER_1_FILL">
<path fill="#666666" stroke="none" d="
M -708.8 138.5
L -722.7 138.5 -722.7 147.65 -708.8 147.65 -708.8 138.5 Z"/>

<path fill="#999999" stroke="none" d="
M -741.2 138.5
L -741.2 147.65 -722.7 147.65 -722.7 138.5 -741.2 138.5 Z"/>

<path fill="#CCCCCC" stroke="none" d="
M -755.4 147.65
L -741.2 147.65 -741.2 138.5 -755.4 138.5 -755.4 147.65 Z"/>
</g>

<g id="Layer0_0_MEMBER_1_MEMBER_5_MEMBER_2_FILL">
<path fill="#58B7D7" stroke="none" d="
M -688.85 157.7
L -705.65 174.5 -709.05 198 -698.95 198 -688.85 157.7
M -729.2 198
L -714.75 198 -712.55 181.35 -729.2 198 Z"/>

<path fill="#92E0FA" stroke="none" d="
M -702.65 153.5
L -705.65 174.5 -688.85 157.7 -687.8 153.5 -702.65 153.5
M -747.9 180.75
L -765.15 197.95 -765.15 198 -746.6 198 -747.9 180.75
M -708.8 153.5
L -720.7 153.5 -742.55 175.35 -741.15 198 -729.2 198 -712.55 181.35 -708.8 153.5 Z"/>

<path fill="#FFFFFF" stroke="none" d="
M -747.9 180.75
L -750 153.5 -776.3 153.5 -765.15 197.95 -747.9 180.75
M -743.9 153.5
L -742.55 175.35 -720.7 153.5 -743.9 153.5 Z"/>

<path fill="#575F83" stroke="none" d="
M -771.65 147.5
L -777.8 147.5 -776.3 153.5 -750 153.5 -747.9 180.75 -746.6 198 -765.15 198 -763.65 204 -700.6 204 -700.5 204.15 -698.95 198 -709.05 198 -705.65 174.5 -702.65 153.5 -687.8 153.5 -686.3 147.5 -692.5 147.5 -692.5 147.65 -771.65 147.65 -771.65 147.5
M -742.55 175.35
L -743.9 153.5 -720.7 153.5 -708.8 153.5 -712.55 181.35 -714.75 198 -729.2 198 -741.15 198 -742.55 175.35 Z"/>
</g>

<g id="Layer0_0_MEMBER_1_MEMBER_6_FILL">
<path fill="#911616" stroke="none" d="
M -633.65 419.6
Q -632.5 418.45 -632.3 416.9
L -641.7 416.9
Q -641.5 418.45 -640.35 419.6 -638.95 421 -637 421 -635.05 421 -633.65 419.6 Z"/>

<path fill="#A12C2C" stroke="none" d="
M -632.25 395.75
Q -632.25 395.6 -632.25 395.5
L -641.75 416.3
Q -641.75 416.6 -641.7 416.9
L -632.3 416.9
Q -632.25 416.6 -632.25 416.25
L -632.25 395.75 Z"/>

<path fill="#B84F4F" stroke="none" d="
M -632.3 394.9
L -641.65 394.9
Q -641.75 395.3 -641.75 395.75
L -641.75 416.3 -632.25 395.5
Q -632.25 395.2 -632.3 394.9 Z"/>

<path fill="#D96F6F" stroke="none" d="
M -640.35 392.4
Q -641.45 393.5 -641.65 394.9
L -632.3 394.9
Q -632.55 393.5 -633.65 392.4 -635.05 391 -637 391 -638.95 391 -640.35 392.4 Z"/>
</g>

<g id="Layer0_0_MEMBER_1_MEMBER_7_FILL">
<path fill="#0F6674" stroke="none" d="
M -762.95 419.6
Q -761.8 418.45 -761.6 416.9
L -771 416.9
Q -770.8 418.45 -769.65 419.6 -768.25 421 -766.3 421 -764.35 421 -762.95 419.6 Z"/>

<path fill="#23829A" stroke="none" d="
M -761.55 395.75
Q -761.55 395.6 -761.55 395.5
L -771.05 416.3
Q -771.05 416.6 -771 416.9
L -761.6 416.9
Q -761.55 416.6 -761.55 416.25
L -761.55 395.75 Z"/>

<path fill="#3BA9C4" stroke="none" d="
M -770.95 394.9
Q -771.05 395.3 -771.05 395.75
L -771.05 416.3 -761.55 395.5
Q -761.55 395.2 -761.6 394.9
L -770.95 394.9 Z"/>

<path fill="#56C1DB" stroke="none" d="
M -769.65 392.4
Q -770.75 393.5 -770.95 394.9
L -761.6 394.9
Q -761.85 393.5 -762.95 392.4 -764.35 391 -766.3 391 -768.25 391 -769.65 392.4 Z"/>
</g>

<g id="Layer0_0_MEMBER_1_MEMBER_8_FILL">
<path fill="#0F6674" stroke="none" d="
M -696.95 416.9
L -706.35 416.9
Q -706.15 418.45 -705 419.6 -703.6 421 -701.65 421 -699.7 421 -698.3 419.6 -697.15 418.45 -696.95 416.9 Z"/>

<path fill="#23829A" stroke="none" d="
M -696.9 395.75
Q -696.9 395.6 -696.9 395.5
L -706.4 416.3
Q -706.4 416.6 -706.35 416.9
L -696.95 416.9
Q -696.9 416.6 -696.9 416.25
L -696.9 395.75 Z"/>

<path fill="#3BA9C4" stroke="none" d="
M -696.95 394.9
L -706.3 394.9
Q -706.4 395.3 -706.4 395.75
L -706.4 416.3 -696.9 395.5
Q -696.9 395.2 -696.95 394.9 Z"/>

<path fill="#56C1DB" stroke="none" d="
M -706.3 394.9
L -696.95 394.9
Q -697.2 393.5 -698.3 392.4 -699.7 391 -701.65 391 -703.6 391 -705 392.4 -706.1 393.5 -706.3 394.9 Z"/>
</g>

<g id="Layer0_0_MEMBER_1_MEMBER_9_FILL">
<path fill="#911616" stroke="none" d="
M -569 419.6
Q -567.85 418.45 -567.65 416.9
L -577.05 416.9
Q -576.85 418.45 -575.7 419.6 -574.3 421 -572.35 421 -570.4 421 -569 419.6 Z"/>

<path fill="#A12C2C" stroke="none" d="
M -567.6 395.75
Q -567.6 395.6 -567.6 395.5
L -577.1 416.3
Q -577.1 416.6 -577.05 416.9
L -567.65 416.9
Q -567.6 416.6 -567.6 416.25
L -567.6 395.75 Z"/>

<path fill="#B84F4F" stroke="none" d="
M -567.65 394.9
L -577 394.9
Q -577.1 395.3 -577.1 395.75
L -577.1 416.3 -567.6 395.5
Q -567.6 395.2 -567.65 394.9 Z"/>

<path fill="#D96F6F" stroke="none" d="
M -575.7 392.4
Q -576.8 393.5 -577 394.9
L -567.65 394.9
Q -567.9 393.5 -569 392.4 -570.4 391 -572.35 391 -574.3 391 -575.7 392.4 Z"/>
</g>

<g id="Layer0_0_MEMBER_1_MEMBER_10_FILL">
<path fill="#911616" stroke="none" d="
M -504.2 419.6
Q -503.05 418.45 -502.85 416.9
L -512.25 416.9
Q -512.05 418.45 -510.9 419.6 -509.5 421 -507.55 421 -505.6 421 -504.2 419.6 Z"/>

<path fill="#A12C2C" stroke="none" d="
M -502.8 395.75
Q -502.8 395.6 -502.8 395.5
L -512.3 416.3
Q -512.3 416.6 -512.25 416.9
L -502.85 416.9
Q -502.8 416.6 -502.8 416.25
L -502.8 395.75 Z"/>

<path fill="#B84F4F" stroke="none" d="
M -502.85 394.9
L -512.2 394.9
Q -512.3 395.3 -512.3 395.75
L -512.3 416.3 -502.8 395.5
Q -502.8 395.2 -502.85 394.9 Z"/>

<path fill="#D96F6F" stroke="none" d="
M -510.9 392.4
Q -512 393.5 -512.2 394.9
L -502.85 394.9
Q -503.1 393.5 -504.2 392.4 -505.6 391 -507.55 391 -509.5 391 -510.9 392.4 Z"/>
</g>

<g id="Layer0_0_MEMBER_1_MEMBER_11_FILL">
<path fill="#333333" stroke="none" d="
M -794.05 371.5
L -794.05 377 -777.8 377 -777.8 371.5 -794.05 371.5
M -777.8 361
L -777.8 355.5 -794.05 355.5 -794.05 361 -777.8 361 Z"/>

<path fill="#575F83" stroke="none" d="
M -824.55 351
L -824.55 381.5 -794.05 381.5 -794.05 377 -794.05 371.5 -794.05 361 -794.05 355.5 -794.05 351 -824.55 351 Z"/>
</g>

<g id="Layer0_0_MEMBER_1_MEMBER_11_MEMBER_0_FILL">
<path fill="#FFFFFF" stroke="none" d="
M -816.8 356.15
L -819.3 358.6 -816.9 360.95
Q -818.05 362.55 -818.35 364.45
L -821.7 364.45 -821.7 367.9 -818.35 367.9
Q -818 369.85 -816.85 371.45
L -819.25 373.85 -816.8 376.25 -814.4 373.9
Q -812.85 375 -810.9 375.35
L -810.9 378.65 -807.45 378.65 -807.45 375.35
Q -805.55 375 -803.95 373.9
L -801.6 376.25 -799.1 373.8 -801.5 371.4
Q -800.35 369.85 -800 367.9
L -796.7 367.9 -796.7 364.45 -800 364.45
Q -800.35 362.55 -801.45 360.95
L -799.1 358.55 -801.55 356.15 -803.9 358.45
Q -805.5 357.35 -807.45 357
L -807.45 353.65 -810.9 353.65 -810.9 357
Q -812.85 357.35 -814.5 358.45
L -816.8 356.15
M -812.85 363.7
Q -812.6 363.35 -812.3 363.05 -812 362.75 -811.7 362.5 -810.95 362 -810 361.85 -809.6 361.75 -809.2 361.75 -808.8 361.75 -808.4 361.85 -807.45 362 -806.7 362.5 -806.4 362.75 -806.1 363.05 -805.8 363.35 -805.55 363.7 -805.05 364.45 -804.9 365.35 -804.8 365.75 -804.8 366.15 -804.8 366.55 -804.9 366.95 -805.05 367.85 -805.55 368.65 -805.8 368.95 -806.1 369.25 -806.4 369.55 -806.75 369.8 -807.45 370.3 -808.4 370.45 -808.8 370.55 -809.2 370.55 -809.6 370.55 -810 370.45 -810.95 370.3 -811.65 369.8 -812 369.55 -812.3 369.25 -812.6 368.95 -812.8 368.65 -813.35 367.85 -813.5 366.95 -813.6 366.55 -813.6 366.15 -813.6 365.75 -813.5 365.35 -813.35 364.45 -812.85 363.7 Z"/>
</g>
</defs>

<g transform="matrix( 1, 0, 0, 1, 824.55,-72.15) ">
<use xlink:href="#Layer0_0_MEMBER_0_FILL"/>
</g>

<g transform="matrix( 1, 0, 0, 1, 824.55,-72.15) ">
<use xlink:href="#Layer0_0_MEMBER_1_FILL"/>
</g>

<g transform="matrix( 1, 0, 0, 1, 824.55,-72.15) ">
<use xlink:href="#Layer0_0_MEMBER_1_MEMBER_0_FILL"/>
</g>

<g transform="matrix( 1, 0, 0, 1, 824.55,-72.15) ">
<use xlink:href="#Layer0_0_MEMBER_1_MEMBER_1_FILL"/>
</g>

<g transform="matrix( 1, 0, 0, 1, 824.55,-72.15) ">
<use xlink:href="#Layer0_0_MEMBER_1_MEMBER_2_FILL"/>
</g>

<g transform="matrix( 1, 0, 0, 1, 824.55,-72.15) ">
<use xlink:href="#Layer0_0_MEMBER_1_MEMBER_3_FILL"/>
</g>

<g transform="matrix( 1, 0, 0, 1, 824.55,-72.15) ">
<use xlink:href="#Layer0_0_MEMBER_1_MEMBER_4_MEMBER_0_FILL"/>
</g>

<g transform="matrix( 1, 0, 0, 1, 824.55,-72.15) ">
<use xlink:href="#Layer0_0_MEMBER_1_MEMBER_4_MEMBER_1_FILL"/>
</g>

<g transform="matrix( 1, 0, 0, 1, 824.55,-72.15) ">
<use xlink:href="#Layer0_0_MEMBER_1_MEMBER_4_MEMBER_1_MEMBER_0_FILL"/>
</g>

<g transform="matrix( 1, 0, 0, 1, 824.55,-72.15) ">
<use xlink:href="#Layer0_0_MEMBER_1_MEMBER_5_FILL"/>
</g>

<g transform="matrix( 1, 0, 0, 1, 824.55,-72.15) ">
<use xlink:href="#Layer0_0_MEMBER_1_MEMBER_5_MEMBER_0_FILL"/>
</g>

<g transform="matrix( 1, 0, 0, 1, 824.55,-72.15) ">
<use xlink:href="#Layer0_0_MEMBER_1_MEMBER_5_MEMBER_1_FILL"/>
</g>

<g transform="matrix( 1, 0, 0, 1, 824.55,-72.15) ">
<use xlink:href="#Layer0_0_MEMBER_1_MEMBER_5_MEMBER_2_FILL"/>
</g>

<g transform="matrix( 1, 0, 0, 1, 824.55,-72.15) ">
<use xlink:href="#Layer0_0_MEMBER_1_MEMBER_6_FILL"/>
</g>

<g transform="matrix( 1, 0, 0, 1, 824.55,-72.15) ">
<use xlink:href="#Layer0_0_MEMBER_1_MEMBER_7_FILL"/>
</g>

<g transform="matrix( 1, 0, 0, 1, 824.55,-72.15) ">
<use xlink:href="#Layer0_0_MEMBER_1_MEMBER_8_FILL"/>
</g>

<g transform="matrix( 1, 0, 0, 1, 824.55,-72.15) ">
<use xlink:href="#Layer0_0_MEMBER_1_MEMBER_9_FILL"/>
</g>

<g transform="matrix( 1, 0, 0, 1, 824.55,-72.15) ">
<use xlink:href="#Layer0_0_MEMBER_1_MEMBER_10_FILL"/>
</g>

<g transform="matrix( 1, 0, 0, 1, 824.55,-72.15) ">
<use xlink:href="#Layer0_0_MEMBER_1_MEMBER_11_FILL"/>
</g>

<g transform="matrix( 1, 0, 0, 1, 824.55,-72.15) ">
<use xlink:href="#Layer0_0_MEMBER_1_MEMBER_11_MEMBER_0_FILL"/>
</g>
</svg>
