
<svg xmlns="http://www.w3.org/2000/svg" version="1.1" xmlns:xlink="http://www.w3.org/1999/xlink" preserveAspectRatio="none" x="0px" y="0px" width="150px" height="30px" viewBox="0 0 150 30">
<defs>
<g id="Layer0_0_FILL">
<path fill="#FFFFFF" stroke="none" d="
M 39.45 8.75
L 39.45 5.85
Q 38.05 5.3 36.15 5.2
L 36.15 7.55
Q 37.8 7.8 39.45 8.75
M 42.85 14.2
L 42.85 4.5 40 4.5 40 9.1
Q 38.4 10 35.9 10.5
L 35.9 13.35
Q 38.25 12.55 40 11.7
L 40 14.2 42.85 14.2
M 53.75 7.65
L 53.75 5.45 48.55 5.45
Q 48.65 5.3 48.8 5 48.9 4.75 48.95 4.6
L 45.85 4.6
Q 45.05 6.85 43.1 7.65
L 43.1 9.2
Q 43.95 9.1 44.65 8.9
L 44.65 10.3
Q 45.85 10.5 47.1 11 46.15 11.6 43.9 12.15
L 43.9 13.9 43.05 13.9 43.05 14.35
Q 43.05 14.65 43.05 15
L 36.15 15 36.15 17.15 42.5 17.15
Q 41.15 20 35.9 20.6
L 35.9 22.5
Q 42.4 22 44.9 19.2 47.85 21.85 53.9 22.5
L 53.9 20.6
Q 48.5 19.8 47.3 17.15
L 53.8 17.15 53.8 15 46.8 15
Q 46.8 14.65 46.8 14.35
L 46.8 13.9 44.8 13.9
Q 51.3 12.95 53.75 7.65
M 50.3 7.65
Q 49.1 9.45 48.2 10.3
L 48.2 8.9
Q 47.15 8.5 45.9 8.4 46.6 8.1 47.15 7.65
L 50.3 7.65
M 61.95 7.8
L 61.95 5.6 55.9 5.6 55.9 7.8 57.4 7.8 57.4 17.5
Q 57.15 17.55 56.6 17.55 56.05 17.65 55.85 17.65
L 55.85 20.45
Q 59.9 19.8 62.15 18.8
L 62.15 16.45
Q 61.3 16.7 60.6 16.85
L 60.6 7.8 61.95 7.8
M 69.6 12
L 66.4 12 66.4 15.15
Q 66.55 19.05 61.8 20.5
L 61.8 22.5
Q 66.25 21.95 68.05 19.45 69.9 21.85 73.95 22.5
L 73.95 20.45
Q 69.45 19.05 69.6 15.15
L 69.6 12
M 73.95 7.25
L 73.95 5.05 62.3 5.05 62.3 7.25 66.05 7.25
Q 66 8.1 65.85 8.8
L 62.5 8.8 62.5 17.95 65.35 17.95 65.35 11 70.6 11 70.6 17.95 73.5 17.95 73.5 8.8 69.05 8.8
Q 69.3 8.1 69.35 7.25
L 73.95 7.25
M 90.6 11.75
L 90.6 13.25 93.8 13.25 93.8 9.6 76.05 9.6 76.05 13.25 79.3 13.25 79.3 11.75 90.6 11.75
M 86.7 12.3
L 83.2 12.3 83.2 13.8 76.85 13.8 76.85 16 79.2 16
Q 78.75 18.65 76.15 20.2
L 76.15 22
Q 81.6 20.5 82.55 16
L 83.2 16 83.2 22.5 86.7 22.5 86.7 16 87.25 16
Q 88.35 20.6 93.65 22
L 93.65 20.2
Q 91.25 18.55 90.6 16
L 93.05 16 93.05 13.8 86.7 13.8 86.7 12.3
M 97.3 4.45
Q 97.95 5.35 98.2 6.4
L 101.4 6.4
Q 101 5.3 100.3 4.45
L 97.3 4.45
M 93.35 7.95
L 93.35 5.7 89.75 5.7 89.75 4.5 86.45 4.5 86.45 5.7 83.35 5.7 83.35 4.5 80.05 4.5 80.05 5.7 76.55 5.7 76.55 7.95 80.05 7.95 80.05 9.1 83.35 9.1 83.35 7.95 86.45 7.95 86.45 9.1 89.75 9.1 89.75 7.95 93.35 7.95
M 111.6 16.7
L 111.6 15.15 98.2 15.15 98.2 16.7 111.6 16.7
M 112.5 19.75
L 112.5 17.4 97.3 17.4 97.3 22.15 110 22.15
Q 112.55 22.25 112.5 19.75
M 109.35 19.2
L 109.35 19.75
Q 109.45 20.6 108.55 20.5
L 100.45 20.5 100.45 19.2 109.35 19.2
M 105.6 4.45
L 102.7 4.45
Q 103.35 5.3 103.75 6.4
L 106.8 6.4
Q 106.45 5.3 105.6 4.45
M 113.75 8.95
L 113.75 6.75 111.3 6.75
Q 111.8 6.25 112.5 4.6 112.55 4.5 112.55 4.45
L 109.2 4.45
Q 108.75 5.85 108.1 6.75
L 96.05 6.75 96.05 8.95 99.75 8.95
Q 98.55 10.85 95.75 11.85
L 95.75 13.65
Q 95.9 13.55 96.3 13.5 97.65 13.2 98.2 12.95
L 98.2 14.45 111.6 14.45 111.6 12.95
Q 112.7 13.25 113.95 13.65
L 113.95 11.75
Q 111.15 10.7 110.05 8.95
L 113.75 8.95
M 103.35 9.6
L 103.35 10.6 102.15 10.6
Q 102.85 9.9 103.35 8.95
L 106.45 8.95
Q 106.95 9.9 107.65 10.6
L 106.45 10.6 106.45 9.6 103.35 9.6
M 110.2 12.4
Q 110.45 12.5 110.75 12.65 111.15 12.8 111.3 12.85
L 98.5 12.85
Q 99.05 12.65 99.5 12.4
L 110.2 12.4 Z"/>
</g>
</defs>

<g transform="matrix( 1, 0, 0, 1, 0,0) ">
<use xlink:href="#Layer0_0_FILL"/>
</g>
</svg>
