
<svg xmlns="http://www.w3.org/2000/svg" version="1.1" xmlns:xlink="http://www.w3.org/1999/xlink" preserveAspectRatio="none" x="0px" y="0px" width="150px" height="30px" viewBox="0 0 150 30">
<defs>
<g id="Layer0_0_FILL">
<path fill="#FFFFFF" stroke="none" d="
M 15.55 10.6
Q 15 10.55 14.15 10.55
L 9.55 10.55 7.4 20.55 13.55 20.55
Q 15.4 20.55 16.4 19.6 17.4 18.6 17.4 17.45 17.4 15.8 15.8 15.3 16.75 15 17.2 14.3 17.65 13.65 17.65 12.9 17.65 12.3 17.35 11.8 17.1 11.3 16.6 11 16.1 10.7 15.55 10.6
M 13.9 14.35
Q 13.55 14.45 12.85 14.45
L 11.8 14.45 12.2 12.55 13.5 12.55
Q 14.25 12.55 14.5 12.75 14.75 12.95 14.75 13.35 14.75 13.65 14.5 13.95 14.3 14.25 13.9 14.35
M 10.95 18.4
L 11.4 16.35 13.1 16.35
Q 13.85 16.35 14.1 16.6 14.35 16.8 14.35 17.25 14.35 18.4 12.6 18.4
L 10.95 18.4
M 40.4 13.3
L 37.6 13.3 36.05 20.55 38.85 20.55 40.4 13.3
M 26.75 15.25
Q 26.75 14.2 26.05 13.65 25.25 13.15 23.15 13.15 21.25 13.15 20.35 13.7 19.45 14.25 19.2 15.3
L 21.8 15.55
Q 22 15.05 22.3 14.9 22.6 14.75 23.1 14.75 23.55 14.75 23.85 14.95 24.1 15.1 24.1 15.35 24.1 15.55 24 15.85 23.6 16 22.4 16.1 21.05 16.25 20.25 16.45 19.45 16.6 18.95 17.1 18.4 17.6 18.4 18.6 18.4 19.45 19 20.1 19.6 20.7 20.95 20.7 22.3 20.7 23.4 19.7 23.4 20.1 23.5 20.55
L 26.2 20.55
Q 26.05 20.05 26.05 19.55 26.05 18.95 26.4 17.5 26.75 15.9 26.75 15.25
M 21.1 18.45
Q 21.1 18.1 21.45 17.85 21.8 17.6 23.7 17.3 23.55 18.35 23 18.8 22.5 19.2 21.95 19.2 21.6 19.2 21.35 19 21.1 18.8 21.1 18.45
M 30.15 18.3
L 27.4 18.55
Q 27.5 19.7 28.35 20.2 29.15 20.7 30.85 20.7 33 20.7 34.05 19.95 35.1 19.15 35.1 18 35.1 17.2 34.55 16.75 34 16.25 32.4 16 31.4 15.85 31.2 15.7 30.95 15.55 30.95 15.25 30.95 15.05 31.2 14.85 31.45 14.65 32 14.65 32.85 14.65 32.95 15.3
L 35.55 15.05
Q 35.35 14 34.6 13.55 33.8 13.15 32.35 13.15 31.1 13.15 30.2 13.5 29.35 13.85 28.9 14.45 28.5 15.05 28.5 15.7 28.5 16.45 29.05 17 29.65 17.5 31.25 17.75 31.95 17.85 32.2 17.95 32.45 18.1 32.45 18.4 32.45 18.8 32.1 19 31.75 19.2 31.3 19.2 30.3 19.2 30.15 18.3
M 40.55 12.45
L 40.95 10.55 38.2 10.55 37.8 12.45 40.55 12.45
M 49.65 15.8
Q 49.5 14.5 48.5 13.8 47.55 13.15 45.9 13.15 43.6 13.15 42.3 14.45 41.05 15.75 41.05 17.6 41.05 20.7 44.9 20.7 48.3 20.7 49.25 17.9
L 46.65 17.6
Q 46.1 18.85 45 18.85 44.55 18.85 44.15 18.55 43.75 18.2 43.75 17.6 43.75 16.65 44.3 15.85 44.85 15 45.9 15 47 15 47.15 15.95
L 49.65 15.8
M 60.2 10.55
L 57.05 10.55 54.9 20.55 58.05 20.55 60.2 10.55
M 68.3 13.65
Q 67.8 13.15 66.8 13.15 65.15 13.15 64 14.4
L 64.25 13.3 61.65 13.3 60.05 20.55 62.85 20.55 63.55 17.4
Q 63.8 16.3 64.25 15.75 64.7 15.15 65.3 15.15 65.85 15.15 65.85 15.75 65.85 15.95 65.6 17.2
L 64.9 20.55 67.7 20.55 68.5 16.6
Q 68.8 15.3 68.8 14.85 68.8 14.15 68.3 13.65
M 76.35 10.65
Q 74.95 10.35 74 10.35 73.35 10.35 72.9 10.5 72.4 10.65 72.1 10.95 71.8 11.3 71.65 11.65 71.55 12.05 71.3 13.3
L 70.25 13.3 69.85 15.3 70.85 15.3 69.7 20.55 72.55 20.55 73.65 15.3 74.95 15.3 75.35 13.3 74.05 13.3
Q 74.25 12.45 74.45 12.3 74.6 12.15 74.9 12.15 75.35 12.15 75.9 12.3
L 76.35 10.65
M 82.95 18.45
Q 83.45 17.45 83.45 16.4 83.45 15.1 82.55 14.1 81.65 13.15 79.7 13.15 78.3 13.15 77.25 13.7 76.2 14.3 75.65 15.3 75.15 16.35 75.15 17.45 75.15 18.85 76.05 19.8 76.95 20.7 78.85 20.7 80.35 20.7 81.4 20.1 82.4 19.5 82.95 18.45
M 78.2 18.45
Q 77.85 18.05 77.85 17.45 77.85 16.6 78.3 15.8 78.7 15 79.6 15 80.05 15 80.4 15.3 80.75 15.55 80.75 16.3 80.75 17.25 80.25 18.05 79.8 18.85 79.05 18.85 78.55 18.85 78.2 18.45
M 91.1 13.35
Q 90.6 13.15 90.15 13.15 89.55 13.15 89.05 13.45 88.55 13.8 87.9 14.75
L 88.2 13.3 85.6 13.3 84.05 20.55 86.85 20.55 87.45 17.85
Q 87.7 16.55 88.2 16 88.7 15.4 89.5 15.4 89.75 15.4 90.1 15.5
L 91.1 13.35
M 104 15.8
Q 104.1 15.35 104.1 14.9 104.1 14.2 103.6 13.65 103.1 13.15 102.1 13.15 101.4 13.15 100.75 13.4 100.1 13.65 99.3 14.35 99.1 13.8 98.6 13.45 98.05 13.15 97.35 13.15 95.9 13.15 94.7 14.35
L 94.65 14.35 94.9 13.3 92.3 13.3 90.75 20.55 93.55 20.55 94.3 17.05
Q 94.5 16.05 95 15.6 95.45 15.15 95.85 15.15 96.45 15.15 96.45 15.7 96.45 15.85 96.4 16.05 96.35 16.3 96.1 17.5
L 95.45 20.55 98.25 20.55 98.95 17.3
Q 99.2 16.2 99.6 15.7 100 15.15 100.6 15.15 101.15 15.15 101.15 15.75 101.15 15.8 101.1 16.05 101.1 16.25 100.85 17.45
L 100.15 20.55 102.95 20.55 104 15.8
M 110.45 14.95
Q 110.7 15.1 110.7 15.35 110.7 15.55 110.6 15.85 110.2 16 109 16.1 107.65 16.25 106.85 16.45 106.05 16.6 105.55 17.1 105 17.6 105 18.6 105 19.45 105.6 20.1 106.2 20.7 107.55 20.7 108.9 20.7 110 19.7 110 20.1 110.1 20.55
L 112.8 20.55
Q 112.65 20.05 112.65 19.55 112.65 18.95 113 17.5 113.35 15.9 113.35 15.25 113.35 14.2 112.65 13.65 111.85 13.15 109.75 13.15 107.85 13.15 106.95 13.7 106.05 14.25 105.8 15.3
L 108.4 15.55
Q 108.6 15.05 108.9 14.9 109.2 14.75 109.7 14.75 110.15 14.75 110.45 14.95
M 107.7 18.45
Q 107.7 18.1 108.05 17.85 108.4 17.6 110.3 17.3 110.15 18.35 109.6 18.8 109.1 19.2 108.55 19.2 108.2 19.2 107.95 19 107.7 18.8 107.7 18.45
M 119.25 10.6
L 116.15 12.15 115.9 13.3 114.9 13.3 114.5 15.3 115.5 15.3 114.95 17.75
Q 114.75 18.7 114.75 18.95 114.75 19.6 115.25 20.15 115.75 20.7 116.9 20.7 117.5 20.7 118.75 20.55
L 119.2 18.55
Q 118.5 18.7 118.3 18.7 117.65 18.7 117.65 18.2 117.65 18 117.7 17.85
L 118.25 15.3 119.7 15.3 120.15 13.3 118.7 13.3 119.25 10.6
M 124.55 13.3
L 121.75 13.3 120.2 20.55 123 20.55 124.55 13.3
M 129.75 13.15
Q 128.35 13.15 127.3 13.7 126.25 14.3 125.7 15.3 125.2 16.35 125.2 17.45 125.2 18.85 126.1 19.8 127 20.7 128.9 20.7 130.4 20.7 131.45 20.1 132.45 19.5 133 18.45 133.5 17.45 133.5 16.4 133.5 15.1 132.6 14.1 131.7 13.15 129.75 13.15
M 130.8 16.3
Q 130.8 17.25 130.3 18.05 129.85 18.85 129.1 18.85 128.6 18.85 128.25 18.45 127.9 18.05 127.9 17.45 127.9 16.6 128.35 15.8 128.75 15 129.65 15 130.1 15 130.45 15.3 130.8 15.55 130.8 16.3
M 125.1 10.55
L 122.35 10.55 121.95 12.45 124.7 12.45 125.1 10.55
M 142.85 14.85
Q 142.85 14.15 142.35 13.65 141.85 13.15 140.85 13.15 139.2 13.15 138.05 14.4
L 138.3 13.3 135.7 13.3 134.1 20.55 136.9 20.55 137.6 17.4
Q 137.85 16.3 138.3 15.75 138.75 15.15 139.35 15.15 139.9 15.15 139.9 15.75 139.9 15.95 139.65 17.2
L 138.95 20.55 141.75 20.55 142.55 16.6
Q 142.85 15.3 142.85 14.85 Z"/>
</g>
</defs>

<g transform="matrix( 1, 0, 0, 1, 0,0) ">
<use xlink:href="#Layer0_0_FILL"/>
</g>
</svg>
