
<svg xmlns="http://www.w3.org/2000/svg" version="1.1" xmlns:xlink="http://www.w3.org/1999/xlink" preserveAspectRatio="none" x="0px" y="0px" width="150px" height="30px" viewBox="0 0 150 30">
<defs>
<g id="Layer0_0_FILL">
<path fill="#FFFFFF" stroke="none" d="
M 51.05 7.4
L 53.35 7.4 53.35 5.35 51.05 5.35 51.05 4.45 47.8 4.45 47.8 5.35 42 5.35 42 4.45 38.65 4.45 38.65 5.35 36.6 5.35 36.6 7.4 38.65 7.4 38.65 13.2 36.05 13.2 36.05 15.15 39.6 15.15
Q 38.4 16.6 36 17.65
L 36 19.45
Q 38.55 18.9 40.15 17.95
L 40.15 18.9 43.25 18.9 43.25 20.05 37.4 20.05 37.4 21.95 52.55 21.95 52.55 20.05 46.55 20.05 46.55 18.9 49.65 18.9 49.65 17.95
Q 51.3 18.9 53.8 19.45
L 53.8 17.65
Q 51.25 16.55 50.2 15.15
L 53.8 15.15 53.8 13.2 51.05 13.2 51.05 7.4
M 42 10.7
L 42 9.9 47.8 9.9 47.8 10.7 42 10.7
M 42 8.2
L 42 7.4 47.8 7.4 47.8 8.2 42 8.2
M 42 12.3
L 47.8 12.3 47.8 13.2 42 13.2 42 12.3
M 46.55 15.15
Q 47.25 16.05 48.25 17
L 46.55 17 46.55 15.85 43.25 15.85 43.25 17 41.55 17
Q 42.55 16.05 43.25 15.15
L 46.55 15.15
M 73.4 9.35
L 73.4 7 66.6 7 66.6 4.5 63.1 4.5 63.1 7 56.45 7 56.45 9.35 59.45 9.35
Q 59.05 14.45 55.9 17.7
L 55.9 20.15
Q 62.4 16.25 62.65 9.35
L 63.1 9.35 63.1 17.15 60.05 17.15 60.05 19.5 63.1 19.5 63.1 22.5 66.6 22.5 66.6 19.5 69.75 19.5 69.75 17.15 66.6 17.15 66.6 9.35 67.15 9.35
Q 67.4 16.25 73.9 20.15
L 73.9 17.7
Q 70.75 14.45 70.35 9.35
L 73.4 9.35
M 81.8 14.25
L 93.1 14.25 93.1 12.15 81.8 12.15 81.8 14.25
M 97.15 16.45
Q 96.8 19.35 95.75 21.6
L 98.65 21.6
Q 99.6 19.2 99.8 16.45
L 97.15 16.45
M 81.6 22
L 90.35 22
Q 93.25 22.1 93.2 19.05
L 93.2 15.45 81.6 15.45 81.6 22
M 84.75 17.65
L 90.15 17.65 90.15 18.95
Q 90.15 20 89.2 20
L 84.75 20 84.75 17.65
M 93.1 11.05
L 93.1 9.05 81.8 9.05 81.8 11.05 93.1 11.05
M 93.95 8
L 93.95 5.85 89.45 5.85 89.45 4.6 85.7 4.6 85.7 5.85 81.25 5.85
Q 81.3 5.6 81.4 5.2 81.55 4.8 81.55 4.65
L 78.35 4.65
Q 77.7 8.25 75.75 9.6
L 75.75 11.7
Q 76.6 11.45 77.25 11.15
L 77.25 22.5 80.35 22.5 80.35 8.2
Q 80.45 8 80.6 7.7 81 6.85 81.15 6.3
L 81.15 8 93.95 8
M 107.8 16.45
L 104.8 16.45
Q 105.55 17.8 105.6 19.05
L 108.75 19.05
Q 108.4 17.85 107.8 16.45
M 109.8 16.45
Q 110.75 19.2 111.05 21.6
L 114.05 21.6
Q 113.55 19.1 112.5 16.45
L 109.8 16.45
M 104.45 20.2
Q 103.25 20.3 103.35 19.05
L 103.35 16.45 100.15 16.45 100.15 20
Q 100.15 22.25 102.7 22.25
L 108.2 22.25
Q 110.45 22.25 110.45 20.15
L 110.45 19.25 107.85 19.25 107.85 19.45
Q 107.85 20.2 107.15 20.2
L 104.45 20.2
M 106.15 5.6
Q 106.4 5.15 106.45 4.5
L 102.8 4.5
Q 102.7 5.15 102.55 5.6
L 97.5 5.6 97.5 15.9 109.6 15.9
Q 112.65 16 112.5 12.95
L 112.5 5.6 106.15 5.6
M 109.05 10.2
L 109.05 11.15 100.9 11.15 100.9 10.2 109.05 10.2
M 109.05 7.65
L 109.05 8.5 100.9 8.5 100.9 7.65 109.05 7.65
M 109.05 12.85
Q 109.1 13.9 108.1 13.8
L 100.9 13.8 100.9 12.85 109.05 12.85 Z"/>
</g>
</defs>

<g transform="matrix( 1, 0, 0, 1, 0,0) ">
<use xlink:href="#Layer0_0_FILL"/>
</g>
</svg>
