
<svg xmlns="http://www.w3.org/2000/svg" version="1.1" xmlns:xlink="http://www.w3.org/1999/xlink" preserveAspectRatio="none" x="0px" y="0px" width="920px" height="293px" viewBox="0 0 920 293">
<defs>
<g id="Layer0_0_FILL">
<path fill="#536072" stroke="none" d="
M 845.7 91.05
L 845.7 77.7 840.8 77.7 840.8 94.15 824.8 103.45 824.8 159.4 791.1 139.85 772.45 150.95 772.45 135.85 767.1 135.85 767.1 154.05 757.35 159.4 757.35 204.2 736.95 204.2 736.95 126.1 740.05 126.1 740.05 119.9 731.6 119.9 731.6 90.15 726.3 90.15 726.3 119.9 719.2 119.9 719.2 109.25 700.1 109.25 700.1 91.9 694.75 91.9 694.75 109.25 678.8 109.25 678.8 119.9 655.25 119.9 655.25 126.1 658.4 126.1 658.4 223.75 638.85 223.75 638.85 233.95 634.4 233.95 634.4 183.8 636.65 183.8 636.65 180.25 627.3 156.7 627.3 151.85 629.1 151.85 629.1 148.75 621.1 148.75 621.1 151.85 622.85 151.85 622.85 156.7 616.2 156.7 616.2 151.85 617.55 151.85 617.55 148.75 610 148.75 610 151.85 611.35 151.85 611.35 156.7 605.1 156.7 605.1 151.85 606.45 151.85 606.45 148.75 598.9 148.75 598.9 151.85 600.25 151.85 600.25 156.7 593.6 156.7 593.6 151.85 594.9 151.85 594.9 148.75 587.35 148.75 587.35 151.85 588.7 151.85 588.7 156.7 582.5 156.7 582.5 151.85 583.8 151.85 583.8 148.75 576.25 148.75 576.25 151.85 577.6 151.85 577.6 157.6 568.7 180.25 568.7 183.8 570.5 183.8 570.5 258.45 552 258.45 552 152.3 545.8 152.3 545.8 157.6 540 157.6 540 152.3 533.8 152.3 533.8 157.6 528.05 157.6 528.05 152.3 521.8 152.3 521.8 157.6 516.05 157.6 516.05 152.3 509.85 152.3 509.85 157.6 504.05 157.6 504.05 152.3 498.3 152.3 498.3 155.4 461.9 155.4 461.9 99 446.35 99 446.35 86.6 421.5 86.6 421.5 99 383.35 99 383.35 74.15 378 74.15 378 99 355.8 99 355.8 171.35 339.4 155.4 305.2 189.55 307.45 189.55 307.45 220.2 293.7 220.2 293.7 233.95 275.95 233.95 275.95 139.85 253.3 139.85 253.3 116.35 247.95 116.35 247.95 139.85 229.75 139.85 229.75 59.95 196.95 59.95 196.95 49.75 177.4 49.75 177.4 59.95 163.2 59.95 163.2 233.95 163 233.95 163 277 147.5 277 147.5 226 147.65 226 147.65 204.2 135.7 204.2 135.7 139.85 122.8 139.85 122.8 125.2 112.6 125.2 112.6 139.85 69.1 139.85 69.1 149.6 51.8 159.4 51.8 233.95 40.25 233.95 40.25 211.3 14.05 211.3 14.05 233.95 0 233.95 0 293 563.95 293 564 290.25 564 293 921.55 293 921.55 213.1 904.25 213.1 904.25 197.1 892.3 197.1 892.3 103.45 858.55 83.95 845.7 91.05 Z"/>
</g>
</defs>

<g transform="matrix( 1, 0, 0, 1, 0,0) ">
<use xlink:href="#Layer0_0_FILL"/>
</g>
</svg>
