
<svg xmlns="http://www.w3.org/2000/svg" version="1.1" xmlns:xlink="http://www.w3.org/1999/xlink" preserveAspectRatio="none" x="0px" y="0px" width="1823px" height="293px" viewBox="0 0 1823 293">
<defs>
<g id="Layer0_0_FILL">
<path fill="#394658" stroke="none" d="
M 1651.8 42.2
L 1653.6 42.2 1653.6 31.1 1642.95 31.1 1642.95 0.5 1637.6 0.5 1637.6 31.1 1599.9 31.1 1599.9 42.2 1601.65 42.2 1601.65 181.6 1569.25 181.6 1569.25 107.45 1559.95 107.45 1559.95 115 1551.05 115 1551.05 107.45 1541.75 107.45 1541.75 115 1532.85 115 1532.85 107.45 1524 107.45 1524 115 1515.1 115 1515.1 107.45 1506.25 107.45 1506.25 115 1496.9 115 1496.9 107.45 1488.05 107.45 1488.05 111.9 1480.5 111.9 1480.5 73.75 1446.75 54.2 1413.05 73.75 1413.05 111.9 1405.05 111.9 1405.05 107.45 1395.7 107.45 1395.7 115 1387.3 115 1387.3 107.45 1377.95 107.45 1377.95 115 1369.1 115 1369.1 107.45 1359.75 107.45 1359.75 115 1350.9 115 1350.9 107.45 1342 107.45 1342 115 1333.15 115 1333.15 107.45 1324.25 107.45 1324.25 278 1299.85 278 1299.85 170.5 1302.05 170.5 1302.05 166.05 1291 137.65 1291 131.4 1292.75 131.4 1292.75 127.45 1283.45 127.45 1283.45 131.4 1285.2 131.4 1285.2 137.65 1229.75 137.65 1229.75 138.1 1218.65 166.05 1218.65 170.5 1221.3 170.5 1221.3 220.2 1200 220.2 1200 233.95 1185.8 233.95 1185.8 150.05 1152.05 174.9 1152.05 150.05 1117.9 174.9 1117.9 150.05 1084.15 174.9 1084.15 267 1075.7 267 1075.7 92.2 1078.4 92.2 1078.4 74.9 1057.5 74.9 1057.5 92.2 1061.5 92.2 1061.5 267 1053.5 267 1053.5 150.05 1019.8 174.9 1019.8 150.05 985.6 174.9 985.6 150.05 951.9 174.9 951.9 293 1779.45 293 1779.45 233.95 1763.65 233.95 1763.65 170.5 1766.35 170.5 1766.35 166.05 1754.8 137.65 1754.8 131.4 1756.55 131.4 1756.55 127.45 1747.25 127.45 1747.25 131.4 1749 131.4 1749 137.65 1741.05 137.65 1741.05 131.4 1742.8 131.4 1742.8 127.45 1733.5 127.45 1733.5 131.4 1735.25 131.4 1735.25 137.65 1727.25 137.65 1727.25 131.4 1729.05 131.4 1729.05 127.45 1719.75 127.45 1719.75 131.4 1721.5 131.4 1721.5 137.65 1713.5 137.65 1713.5 131.4 1714.85 131.4 1714.85 127.45 1705.5 127.45 1705.5 131.4 1707.3 131.4 1707.3 137.65 1699.75 137.65 1699.75 131.4 1701.1 131.4 1701.1 127.45 1691.75 127.45 1691.75 131.4 1693.55 131.4 1693.55 138.1 1682.45 166.05 1682.45 170.5 1685.1 170.5 1685.1 211.3 1651.8 211.3 1651.8 42.2
M 1601.65 198.9
L 1601.65 233.95 1569.25 233.95 1569.25 198.9 1601.65 198.9
M 871.55 83.95
L 858.7 91.05 858.7 77.7 853.8 77.7 853.8 94.15 837.8 103.45 837.8 159.4 804.1 139.85 785.45 150.95 785.45 135.85 780.1 135.85 780.1 154.05 770.35 159.4 770.35 204.2 749.95 204.2 749.95 126.1 753.05 126.1 753.05 119.9 744.6 119.9 744.6 90.15 739.3 90.15 739.3 119.9 732.2 119.9 732.2 109.25 713.1 109.25 713.1 91.9 707.75 91.9 707.75 109.25 691.8 109.25 691.8 119.9 668.25 119.9 668.25 126.1 671.4 126.1 671.4 223.75 651.85 223.75 651.85 233.95 647.4 233.95 647.4 183.8 649.65 183.8 649.65 180.25 640.3 156.7 640.3 151.85 642.1 151.85 642.1 148.75 634.1 148.75 634.1 151.85 635.85 151.85 635.85 156.7 629.2 156.7 629.2 151.85 630.55 151.85 630.55 148.75 623 148.75 623 151.85 624.35 151.85 624.35 156.7 618.1 156.7 618.1 151.85 619.45 151.85 619.45 148.75 611.9 148.75 611.9 151.85 613.25 151.85 613.25 156.7 606.6 156.7 606.6 151.85 607.9 151.85 607.9 148.75 600.35 148.75 600.35 151.85 601.7 151.85 601.7 156.7 595.5 156.7 595.5 151.85 596.8 151.85 596.8 148.75 589.25 148.75 589.25 151.85 590.6 151.85 590.6 157.6 581.7 180.25 581.7 183.8 583.5 183.8 583.5 258.45 565 258.45 565 152.3 558.8 152.3 558.8 157.6 553 157.6 553 152.3 546.8 152.3 546.8 157.6 541.05 157.6 541.05 152.3 534.8 152.3 534.8 157.6 529.05 157.6 529.05 152.3 522.85 152.3 522.85 157.6 517.05 157.6 517.05 152.3 511.3 152.3 511.3 155.4 474.9 155.4 474.9 99 459.35 99 459.35 86.6 434.5 86.6 434.5 99 396.35 99 396.35 74.15 391 74.15 391 99 368.8 99 368.8 171.35 352.4 155.4 318.2 189.55 320.45 189.55 320.45 220.2 306.7 220.2 306.7 233.95 288.95 233.95 288.95 139.85 266.3 139.85 266.3 116.35 260.95 116.35 260.95 139.85 242.75 139.85 242.75 59.95 209.95 59.95 209.95 49.75 190.4 49.75 190.4 59.95 176.2 59.95 176.2 233.95 176 233.95 176 277 160.5 277 160.5 226 160.65 226 160.65 204.2 148.7 204.2 148.7 139.85 135.8 139.85 135.8 125.2 125.6 125.2 125.6 139.85 82.1 139.85 82.1 149.6 64.8 159.4 64.8 233.95 53.25 233.95 53.25 211.3 27.05 211.3 27.05 233.95 13 233.95 13 293 576.95 293 577 290.25 577 293 934.55 293 934.55 213.1 917.25 213.1 917.25 197.1 905.3 197.1 905.3 103.45 871.55 83.95 Z"/>
</g>
</defs>

<g transform="matrix( 1, 0, 0, 1, 0,0) ">
<use xlink:href="#Layer0_0_FILL"/>
</g>
</svg>
