
<svg xmlns="http://www.w3.org/2000/svg" version="1.1" xmlns:xlink="http://www.w3.org/1999/xlink" preserveAspectRatio="none" x="0px" y="0px" width="171px" height="367px" viewBox="0 0 171 367">
<defs>
<g id="Layer0_0_FILL">
<path fill="#99D6E5" stroke="none" d="
M 1342.05 442.75
L 1342.05 194.1 1183.5 194.1 1183.5 442.75 1342.05 442.75 Z"/>

<path fill="#1A7D8D" stroke="none" d="
M 1342.05 461.95
L 1342.05 442.75 1183.5 442.75 1183.5 461.95 1342.05 461.95
M 1347.95 194.1
L 1347.95 181.1 1177.55 181.1 1177.55 194.1 1183.5 194.1 1342.05 194.1 1347.95 194.1 Z"/>
</g>

<g id="Layer0_0_MEMBER_0_FILL">
<path fill="#4CA3B8" stroke="none" d="
M 1291.25 390.4
L 1234.1 390.4 1234.1 452.35 1291.25 452.35 1291.25 390.4
M 1236.4 392.2
L 1251.3 392.2 1260.5 392.2 1260.5 394.4 1260.5 397.3 1260.5 413.75 1260.5 417.05 1260.5 428.7 1260.5 437.4 1260.5 450.4 1247.5 450.4 1236.4 450.4 1236.4 437.8 1236.4 428.7 1236.4 421.4 1236.4 417.05 1236.4 407.1 1236.4 394.4 1236.4 392.2
M 1289.05 392.2
L 1289.05 394.4 1289.05 397.3 1289.05 413.75 1289.05 417.05 1289.05 428.7 1289.05 437.4 1289.05 450.4 1276.05 450.4 1264.95 450.4 1264.95 437.8 1264.95 428.7 1264.95 421.4 1264.95 417.05 1264.95 407.1 1264.95 394.4 1264.95 392.2 1279.85 392.2 1289.05 392.2
M 1268.85 424.4
Q 1269.85 425.35 1271.2 425.35
L 1277.4 425.35 1282.7 425.35
Q 1284.05 425.35 1285 424.4 1286 423.45 1286 422.1
L 1286 421.55 1283.6 421.55 1283.6 421.75
Q 1283.6 422.5 1282.9 422.95 1282.2 423.45 1281.2 423.45
L 1279.3 423.45 1272.65 423.45
Q 1271.6 423.45 1270.9 422.95 1270.15 422.5 1270.15 421.75
L 1270.15 421.55 1267.9 421.55 1267.9 422.1
Q 1267.9 423.45 1268.85 424.4
M 1256.45 424.4
Q 1257.4 423.45 1257.4 422.1
L 1257.4 421.55 1255.05 421.55 1255.05 421.75
Q 1255.05 422.5 1254.35 422.95 1253.65 423.45 1252.6 423.45
L 1250.75 423.45 1244.1 423.45
Q 1243.05 423.45 1242.35 422.95 1241.6 422.5 1241.6 421.75
L 1241.6 421.55 1239.35 421.55 1239.35 422.1
Q 1239.35 423.45 1240.3 424.4 1241.3 425.35 1242.65 425.35
L 1248.85 425.35 1254.15 425.35
Q 1255.5 425.35 1256.45 424.4 Z"/>

<path fill="#DAE9F3" stroke="none" d="
M 1276.05 450.4
L 1289.05 450.4 1289.05 437.4 1276.05 450.4
M 1264.95 428.7
L 1264.95 437.8 1274.05 428.7 1264.95 428.7
M 1285.7 417.05
L 1289.05 413.75 1289.05 397.3 1269.3 417.05 1285.7 417.05
M 1277.65 394.4
L 1264.95 394.4 1264.95 407.1 1277.65 394.4
M 1247.5 450.4
L 1260.5 450.4 1260.5 437.4 1247.5 450.4
M 1245.5 428.7
L 1236.4 428.7 1236.4 437.8 1245.5 428.7
M 1260.5 413.75
L 1260.5 397.3 1240.75 417.05 1257.15 417.05 1260.5 413.75
M 1249.05 394.4
L 1236.4 394.4 1236.4 407.1 1249.05 394.4 Z"/>

<path fill="#FFFFFF" stroke="none" d="
M 1274.05 428.7
L 1264.95 437.8 1264.95 450.4 1276.05 450.4 1289.05 437.4 1289.05 428.7 1274.05 428.7
M 1289.05 413.75
L 1285.7 417.05 1289.05 417.05 1289.05 413.75
M 1289.05 394.4
L 1277.65 394.4 1264.95 407.1 1264.95 417.05 1269.3 417.05 1289.05 397.3 1289.05 394.4
M 1260.5 437.4
L 1260.5 428.7 1245.5 428.7 1236.4 437.8 1236.4 450.4 1247.5 450.4 1260.5 437.4
M 1260.5 413.75
L 1257.15 417.05 1260.5 417.05 1260.5 413.75
M 1260.5 394.4
L 1249.05 394.4 1236.4 407.1 1236.4 417.05 1240.75 417.05 1260.5 397.3 1260.5 394.4 Z"/>

<path fill="#C3E2E9" stroke="none" d="
M 1271.2 425.35
Q 1269.85 425.35 1268.85 424.4 1267.9 423.45 1267.9 422.1
L 1267.9 421.55 1270.15 421.55 1270.15 421.75
Q 1270.15 422.5 1270.9 422.95 1271.6 423.45 1272.65 423.45
L 1279.3 423.45 1285.7 417.05 1269.3 417.05 1264.95 421.4 1264.95 428.7 1274.05 428.7 1277.4 425.35 1271.2 425.35
M 1245.5 428.7
L 1248.85 425.35 1242.65 425.35
Q 1241.3 425.35 1240.3 424.4 1239.35 423.45 1239.35 422.1
L 1239.35 421.55 1241.6 421.55 1241.6 421.75
Q 1241.6 422.5 1242.35 422.95 1243.05 423.45 1244.1 423.45
L 1250.75 423.45 1257.15 417.05 1240.75 417.05 1236.4 421.4 1236.4 428.7 1245.5 428.7 Z"/>

<path fill="#E9E9E9" stroke="none" d="
M 1269.3 417.05
L 1264.95 417.05 1264.95 421.4 1269.3 417.05
M 1289.05 417.05
L 1285.7 417.05 1279.3 423.45 1281.2 423.45
Q 1282.2 423.45 1282.9 422.95 1283.6 422.5 1283.6 421.75
L 1283.6 421.55 1286 421.55 1286 422.1
Q 1286 423.45 1285 424.4 1284.05 425.35 1282.7 425.35
L 1277.4 425.35 1274.05 428.7 1289.05 428.7 1289.05 417.05
M 1240.75 417.05
L 1236.4 417.05 1236.4 421.4 1240.75 417.05
M 1260.5 417.05
L 1257.15 417.05 1250.75 423.45 1252.6 423.45
Q 1253.65 423.45 1254.35 422.95 1255.05 422.5 1255.05 421.75
L 1255.05 421.55 1257.4 421.55 1257.4 422.1
Q 1257.4 423.45 1256.45 424.4 1255.5 425.35 1254.15 425.35
L 1248.85 425.35 1245.5 428.7 1260.5 428.7 1260.5 417.05 Z"/>

<path fill="#B1C7D7" stroke="none" d="
M 1279.85 392.2
L 1264.95 392.2 1264.95 394.4 1277.65 394.4 1279.85 392.2
M 1249.05 394.4
L 1251.3 392.2 1236.4 392.2 1236.4 394.4 1249.05 394.4 Z"/>

<path fill="#CCCCCC" stroke="none" d="
M 1289.05 394.4
L 1289.05 392.2 1279.85 392.2 1277.65 394.4 1289.05 394.4
M 1251.3 392.2
L 1249.05 394.4 1260.5 394.4 1260.5 392.2 1251.3 392.2 Z"/>

<path fill="#99D6E5" stroke="none" d="
M 1300.45 461.95
L 1300.45 457.15 1295.2 457.15 1295.2 452.35 1291.25 452.35 1234.1 452.35 1230.3 452.35 1230.3 457.15 1225.05 457.15 1225.05 461.95 1300.45 461.95 Z"/>
</g>

<g id="Layer0_0_MEMBER_0_MEMBER_0_FILL">
<path fill="#1A7D8D" stroke="none" d="
M 1230.3 385.6
L 1230.3 390.4 1295.2 390.4 1295.2 385.6 1230.3 385.6 Z"/>
</g>

<g id="Layer0_0_MEMBER_1_FILL">
<path fill="#FFFFFF" stroke="none" d="
M 1324.6 362.35
Q 1322.3 360.1 1319.15 360.1
L 1205.45 360.1
Q 1202.3 360.1 1200 362.35 1197.75 364.6 1197.75 367.8 1197.75 371 1200 373.25 1202.3 375.5 1205.45 375.5
L 1319.15 375.5
Q 1322.3 375.5 1324.6 373.25 1326.85 371 1326.85 367.8 1326.85 364.6 1324.6 362.35
M 1299.15 362.95
L 1298.8 364.75 1296.25 364.75 1296.6 362.95 1299.15 362.95
M 1299.25 369.55
Q 1299.25 367.85 1300.15 366.6 1301.05 365.35 1302.45 365.35 1303.8 365.35 1304.55 366.4
L 1305.25 362.95 1307.8 362.95 1305.8 372.15 1303.5 372.15 1303.6 371.5 1303.6 371.45
Q 1303.05 371.95 1302.6 372.1 1302.2 372.3 1301.6 372.3 1300.45 372.3 1299.9 371.55 1299.25 370.8 1299.25 369.55
M 1296.05 365.5
L 1298.65 365.5 1297.2 372.15 1294.65 372.15 1296.05 365.5
M 1307.75 369.25
Q 1307.75 368.35 1308.15 367.55 1308.55 366.8 1309.2 366.25 1309.85 365.75 1310.5 365.55 1311.15 365.35 1312.05 365.35 1313.85 365.35 1314.7 366.15 1315.5 367 1315.5 368.15 1315.5 368.5 1315.3 369.45
L 1310.25 369.45
Q 1310.35 370.8 1311.45 370.8 1312.2 370.8 1312.6 370.2
L 1315.1 370.45
Q 1314.55 371.4 1313.65 371.85 1312.7 372.3 1311.4 372.3 1309.45 372.3 1308.6 371.4 1307.75 370.55 1307.75 369.25
M 1210.75 365.75
Q 1211.3 364.4 1212.55 363.6 1213.7 362.85 1215.4 362.85 1217.1 362.85 1218.1 363.7 1219.1 364.55 1219.25 366
L 1216.65 366.3 1216.65 366.2
Q 1216.65 365.55 1216.3 365.25 1215.9 364.9 1215.4 364.9 1214.75 364.9 1214.2 365.35 1213.6 365.85 1213.2 366.8 1212.85 367.7 1212.85 368.6 1212.85 369.3 1213.2 369.75 1213.6 370.2 1214.3 370.2 1214.95 370.2 1215.45 369.8 1215.85 369.4 1216.2 368.5
L 1218.85 368.95
Q 1218.4 370.35 1217.25 371.3 1216.05 372.3 1214.2 372.3 1212.15 372.3 1211.15 371.25 1210.1 370.2 1210.1 368.4 1210.1 367.1 1210.75 365.75
M 1242.6 362.95
L 1245.15 362.95 1243.2 372.15 1240.65 372.15 1242.6 362.95
M 1238.35 362.95
L 1240.9 362.95 1240.55 364.75 1237.95 364.75 1238.35 362.95
M 1235.9 368.15
Q 1235.9 368.5 1235.75 369.45
L 1230.65 369.45
Q 1230.75 370.8 1231.9 370.8 1232.6 370.8 1233.05 370.2
L 1235.5 370.45
Q 1234.95 371.4 1234.05 371.85 1233.15 372.3 1231.8 372.3 1229.85 372.3 1229.05 371.4 1228.2 370.55 1228.2 369.25 1228.2 368.35 1228.55 367.55 1228.95 366.8 1229.6 366.25 1230.3 365.75 1230.95 365.55 1231.55 365.35 1232.45 365.35 1234.3 365.35 1235.1 366.15 1235.9 367 1235.9 368.15
M 1237.8 365.5
L 1240.35 365.5 1238.9 372.15 1236.4 372.15 1237.8 365.5
M 1250.95 365
Q 1251.45 364.2 1252.25 363.7 1253.05 363.15 1253.85 363 1254.6 362.85 1255.4 362.85 1257.5 362.85 1258.45 363.95 1259.45 365.05 1259.45 366.7 1259.45 367.35 1259.25 368.15 1259.1 368.95 1258.55 369.8 1258.05 370.7 1257.2 371.3 1256.4 371.85 1255.65 372.1 1254.85 372.3 1254 372.3 1252.05 372.3 1250.95 371.3 1249.85 370.3 1249.85 368.5 1249.85 367.55 1250.15 366.7 1250.4 365.8 1250.95 365
M 1221.25 362.95
L 1223.8 362.95 1223.1 366.3
Q 1224.05 365.35 1225.5 365.35 1226.35 365.35 1226.85 365.85 1227.25 366.3 1227.25 366.95 1227.25 367.35 1227 368.5
L 1226.25 372.15 1223.7 372.15 1224.35 369.05
Q 1224.6 367.95 1224.6 367.75 1224.6 367.2 1224.1 367.2 1223.5 367.2 1223.1 367.75 1222.7 368.25 1222.5 369.3
L 1221.85 372.15 1219.3 372.15 1221.25 362.95
M 1280.4 366.5
L 1280.4 366.55
Q 1281.45 365.35 1283 365.35 1283.9 365.35 1284.35 365.85 1284.8 366.3 1284.8 366.95 1284.8 367.35 1284.55 368.5
L 1283.75 372.15 1281.25 372.15 1281.9 369.05
Q 1282.15 367.95 1282.15 367.75 1282.15 367.2 1281.65 367.2 1281.05 367.2 1280.65 367.75 1280.25 368.25 1280.05 369.3
L 1279.4 372.15 1276.85 372.15 1278.25 365.5 1280.6 365.5 1280.4 366.5
M 1276.4 368.15
Q 1276.4 368.5 1276.25 369.45
L 1271.2 369.45
Q 1271.3 370.8 1272.4 370.8 1273.15 370.8 1273.55 370.2
L 1276 370.45
Q 1275.45 371.4 1274.55 371.85 1273.65 372.3 1272.3 372.3 1270.35 372.3 1269.55 371.4 1268.7 370.55 1268.7 369.25 1268.7 368.35 1269.1 367.55 1269.5 366.8 1270.15 366.25 1270.8 365.75 1271.45 365.55 1272.1 365.35 1272.95 365.35 1274.8 365.35 1275.6 366.15 1276.4 367 1276.4 368.15
M 1295.45 362.95
L 1295 365.25 1292 365.25 1290.5 372.15 1287.7 372.15 1289.15 365.25 1286.35 365.25 1286.8 362.95 1295.45 362.95
M 1263.4 366.2
L 1263.45 366.2
Q 1264 365.7 1264.4 365.55 1264.85 365.35 1265.45 365.35 1266.55 365.35 1267.2 366.1 1267.75 366.85 1267.75 368.1 1267.75 369.8 1266.9 371.05 1265.95 372.3 1264.6 372.3 1263.2 372.3 1262.5 371.25
L 1261.75 374.65 1259.25 374.65 1261.2 365.5 1263.55 365.5 1263.4 366.2
M 1265.25 368.15
Q 1265.25 367.55 1265 367.3 1264.8 367 1264.4 367 1263.7 367 1263.35 367.8 1262.95 368.6 1262.95 369.45 1262.95 370 1263.25 370.3 1263.55 370.6 1263.95 370.6 1264.5 370.6 1264.9 369.85 1265.25 369.2 1265.25 368.15
M 1273.95 367.85
Q 1273.95 367.35 1273.65 367.1 1273.3 366.85 1272.9 366.85 1272.4 366.85 1272 367.2 1271.65 367.55 1271.4 368.25
L 1273.9 368.25
Q 1273.95 368.1 1273.95 367.85
M 1253.05 369.75
Q 1253.45 370.2 1254.2 370.2 1255 370.2 1255.6 369.55 1256.15 369 1256.4 368.05 1256.65 367.1 1256.65 366.7 1256.65 365.8 1256.25 365.35 1255.8 364.9 1255.1 364.9 1254.35 364.9 1253.75 365.45 1253.2 366.05 1252.9 367 1252.6 367.95 1252.6 368.6 1252.6 369.3 1253.05 369.75
M 1233.45 367.85
Q 1233.45 367.35 1233.15 367.1 1232.8 366.85 1232.4 366.85 1231.9 366.85 1231.5 367.2 1231.15 367.55 1230.9 368.25
L 1233.35 368.25
Q 1233.45 368.1 1233.45 367.85
M 1311.1 367.2
Q 1310.7 367.55 1310.5 368.25
L 1312.95 368.25
Q 1313 368.1 1313 367.85 1313 367.35 1312.7 367.1 1312.4 366.85 1311.95 366.85 1311.45 366.85 1311.1 367.2
M 1303.1 367.05
Q 1302.55 367.05 1302.15 367.75 1301.75 368.5 1301.75 369.45 1301.75 370.05 1302 370.35 1302.2 370.6 1302.6 370.6 1303.35 370.6 1303.7 369.85 1304.1 369.05 1304.1 368.25 1304.1 367.65 1303.8 367.35 1303.5 367.05 1303.1 367.05 Z"/>

<path fill="#666666" stroke="none" d="
M 1263.45 366.2
L 1263.4 366.2 1263.55 365.5 1261.2 365.5 1259.25 374.65 1261.75 374.65 1262.5 371.25
Q 1263.2 372.3 1264.6 372.3 1265.95 372.3 1266.9 371.05 1267.75 369.8 1267.75 368.1 1267.75 366.85 1267.2 366.1 1266.55 365.35 1265.45 365.35 1264.85 365.35 1264.4 365.55 1264 365.7 1263.45 366.2
M 1265 367.3
Q 1265.25 367.55 1265.25 368.15 1265.25 369.2 1264.9 369.85 1264.5 370.6 1263.95 370.6 1263.55 370.6 1263.25 370.3 1262.95 370 1262.95 369.45 1262.95 368.6 1263.35 367.8 1263.7 367 1264.4 367 1264.8 367 1265 367.3
M 1295 365.25
L 1295.45 362.95 1286.8 362.95 1286.35 365.25 1289.15 365.25 1287.7 372.15 1290.5 372.15 1292 365.25 1295 365.25
M 1276.25 369.45
Q 1276.4 368.5 1276.4 368.15 1276.4 367 1275.6 366.15 1274.8 365.35 1272.95 365.35 1272.1 365.35 1271.45 365.55 1270.8 365.75 1270.15 366.25 1269.5 366.8 1269.1 367.55 1268.7 368.35 1268.7 369.25 1268.7 370.55 1269.55 371.4 1270.35 372.3 1272.3 372.3 1273.65 372.3 1274.55 371.85 1275.45 371.4 1276 370.45
L 1273.55 370.2
Q 1273.15 370.8 1272.4 370.8 1271.3 370.8 1271.2 369.45
L 1276.25 369.45
M 1273.65 367.1
Q 1273.95 367.35 1273.95 367.85 1273.95 368.1 1273.9 368.25
L 1271.4 368.25
Q 1271.65 367.55 1272 367.2 1272.4 366.85 1272.9 366.85 1273.3 366.85 1273.65 367.1
M 1280.4 366.55
L 1280.4 366.5 1280.6 365.5 1278.25 365.5 1276.85 372.15 1279.4 372.15 1280.05 369.3
Q 1280.25 368.25 1280.65 367.75 1281.05 367.2 1281.65 367.2 1282.15 367.2 1282.15 367.75 1282.15 367.95 1281.9 369.05
L 1281.25 372.15 1283.75 372.15 1284.55 368.5
Q 1284.8 367.35 1284.8 366.95 1284.8 366.3 1284.35 365.85 1283.9 365.35 1283 365.35 1281.45 365.35 1280.4 366.55
M 1223.8 362.95
L 1221.25 362.95 1219.3 372.15 1221.85 372.15 1222.5 369.3
Q 1222.7 368.25 1223.1 367.75 1223.5 367.2 1224.1 367.2 1224.6 367.2 1224.6 367.75 1224.6 367.95 1224.35 369.05
L 1223.7 372.15 1226.25 372.15 1227 368.5
Q 1227.25 367.35 1227.25 366.95 1227.25 366.3 1226.85 365.85 1226.35 365.35 1225.5 365.35 1224.05 365.35 1223.1 366.3
L 1223.8 362.95
M 1252.25 363.7
Q 1251.45 364.2 1250.95 365 1250.4 365.8 1250.15 366.7 1249.85 367.55 1249.85 368.5 1249.85 370.3 1250.95 371.3 1252.05 372.3 1254 372.3 1254.85 372.3 1255.65 372.1 1256.4 371.85 1257.2 371.3 1258.05 370.7 1258.55 369.8 1259.1 368.95 1259.25 368.15 1259.45 367.35 1259.45 366.7 1259.45 365.05 1258.45 363.95 1257.5 362.85 1255.4 362.85 1254.6 362.85 1253.85 363 1253.05 363.15 1252.25 363.7
M 1254.2 370.2
Q 1253.45 370.2 1253.05 369.75 1252.6 369.3 1252.6 368.6 1252.6 367.95 1252.9 367 1253.2 366.05 1253.75 365.45 1254.35 364.9 1255.1 364.9 1255.8 364.9 1256.25 365.35 1256.65 365.8 1256.65 366.7 1256.65 367.1 1256.4 368.05 1256.15 369 1255.6 369.55 1255 370.2 1254.2 370.2
M 1240.35 365.5
L 1237.8 365.5 1236.4 372.15 1238.9 372.15 1240.35 365.5
M 1235.75 369.45
Q 1235.9 368.5 1235.9 368.15 1235.9 367 1235.1 366.15 1234.3 365.35 1232.45 365.35 1231.55 365.35 1230.95 365.55 1230.3 365.75 1229.6 366.25 1228.95 366.8 1228.55 367.55 1228.2 368.35 1228.2 369.25 1228.2 370.55 1229.05 371.4 1229.85 372.3 1231.8 372.3 1233.15 372.3 1234.05 371.85 1234.95 371.4 1235.5 370.45
L 1233.05 370.2
Q 1232.6 370.8 1231.9 370.8 1230.75 370.8 1230.65 369.45
L 1235.75 369.45
M 1233.15 367.1
Q 1233.45 367.35 1233.45 367.85 1233.45 368.1 1233.35 368.25
L 1230.9 368.25
Q 1231.15 367.55 1231.5 367.2 1231.9 366.85 1232.4 366.85 1232.8 366.85 1233.15 367.1
M 1240.9 362.95
L 1238.35 362.95 1237.95 364.75 1240.55 364.75 1240.9 362.95
M 1245.15 362.95
L 1242.6 362.95 1240.65 372.15 1243.2 372.15 1245.15 362.95
M 1212.55 363.6
Q 1211.3 364.4 1210.75 365.75 1210.1 367.1 1210.1 368.4 1210.1 370.2 1211.15 371.25 1212.15 372.3 1214.2 372.3 1216.05 372.3 1217.25 371.3 1218.4 370.35 1218.85 368.95
L 1216.2 368.5
Q 1215.85 369.4 1215.45 369.8 1214.95 370.2 1214.3 370.2 1213.6 370.2 1213.2 369.75 1212.85 369.3 1212.85 368.6 1212.85 367.7 1213.2 366.8 1213.6 365.85 1214.2 365.35 1214.75 364.9 1215.4 364.9 1215.9 364.9 1216.3 365.25 1216.65 365.55 1216.65 366.2
L 1216.65 366.3 1219.25 366
Q 1219.1 364.55 1218.1 363.7 1217.1 362.85 1215.4 362.85 1213.7 362.85 1212.55 363.6
M 1308.15 367.55
Q 1307.75 368.35 1307.75 369.25 1307.75 370.55 1308.6 371.4 1309.45 372.3 1311.4 372.3 1312.7 372.3 1313.65 371.85 1314.55 371.4 1315.1 370.45
L 1312.6 370.2
Q 1312.2 370.8 1311.45 370.8 1310.35 370.8 1310.25 369.45
L 1315.3 369.45
Q 1315.5 368.5 1315.5 368.15 1315.5 367 1314.7 366.15 1313.85 365.35 1312.05 365.35 1311.15 365.35 1310.5 365.55 1309.85 365.75 1309.2 366.25 1308.55 366.8 1308.15 367.55
M 1310.5 368.25
Q 1310.7 367.55 1311.1 367.2 1311.45 366.85 1311.95 366.85 1312.4 366.85 1312.7 367.1 1313 367.35 1313 367.85 1313 368.1 1312.95 368.25
L 1310.5 368.25
M 1298.65 365.5
L 1296.05 365.5 1294.65 372.15 1297.2 372.15 1298.65 365.5
M 1300.15 366.6
Q 1299.25 367.85 1299.25 369.55 1299.25 370.8 1299.9 371.55 1300.45 372.3 1301.6 372.3 1302.2 372.3 1302.6 372.1 1303.05 371.95 1303.6 371.45
L 1303.6 371.5 1303.5 372.15 1305.8 372.15 1307.8 362.95 1305.25 362.95 1304.55 366.4
Q 1303.8 365.35 1302.45 365.35 1301.05 365.35 1300.15 366.6
M 1302.15 367.75
Q 1302.55 367.05 1303.1 367.05 1303.5 367.05 1303.8 367.35 1304.1 367.65 1304.1 368.25 1304.1 369.05 1303.7 369.85 1303.35 370.6 1302.6 370.6 1302.2 370.6 1302 370.35 1301.75 370.05 1301.75 369.45 1301.75 368.5 1302.15 367.75
M 1298.8 364.75
L 1299.15 362.95 1296.6 362.95 1296.25 364.75 1298.8 364.75 Z"/>
</g>

<g id="Layer0_0_MEMBER_2_FILL">
<path fill="#DAE9F3" stroke="none" d="
M 1213.15 412.85
L 1196.35 412.85 1196.35 427.65 1213.15 427.65 1213.15 412.85
M 1213.15 392.8
L 1196.35 392.8 1196.35 408 1213.15 408 1213.15 392.8
M 1329.15 427.65
L 1329.15 412.85 1312.4 412.85 1312.4 427.65 1329.15 427.65
M 1329.15 392.8
L 1312.4 392.8 1312.4 408 1329.15 408 1329.15 392.8 Z"/>

<path fill="#B1C7D7" stroke="none" d="
M 1213.15 412.85
L 1213.15 410.05 1196.35 410.05 1196.35 412.85 1213.15 412.85
M 1196.35 392.8
L 1213.15 392.8 1213.15 390.4 1196.35 390.4 1196.35 392.8
M 1329.15 412.85
L 1329.15 410.05 1312.4 410.05 1312.4 412.85 1329.15 412.85
M 1312.4 390.4
L 1312.4 392.8 1329.15 392.8 1329.15 390.4 1312.4 390.4 Z"/>

<path fill="#4CA3B8" stroke="none" d="
M 1218.25 427.65
L 1215.15 427.65 1213.15 427.65 1196.35 427.65 1194 427.65 1191.2 427.65 1191.2 432.45 1218.25 432.45 1218.25 427.65
M 1196.35 390.4
L 1213.15 390.4 1215.15 390.4 1218.25 390.4 1218.25 385.6 1191.2 385.6 1191.2 390.4 1194 390.4 1196.35 390.4
M 1312.4 427.65
L 1310.05 427.65 1307.25 427.65 1307.25 432.45 1334.3 432.45 1334.3 427.65 1331.2 427.65 1329.15 427.65 1312.4 427.65
M 1310.05 390.4
L 1312.4 390.4 1329.15 390.4 1331.2 390.4 1334.3 390.4 1334.3 385.6 1307.25 385.6 1307.25 390.4 1310.05 390.4 Z"/>

<path fill="#FFFFFF" stroke="none" d="
M 1213.15 390.4
L 1213.15 392.8 1213.15 408 1196.35 408 1196.35 392.8 1196.35 390.4 1194 390.4 1194 427.65 1196.35 427.65 1196.35 412.85 1196.35 410.05 1213.15 410.05 1213.15 412.85 1213.15 427.65 1215.15 427.65 1215.15 390.4 1213.15 390.4
M 1312.4 390.4
L 1310.05 390.4 1310.05 427.65 1312.4 427.65 1312.4 412.85 1312.4 410.05 1329.15 410.05 1329.15 412.85 1329.15 427.65 1331.2 427.65 1331.2 390.4 1329.15 390.4 1329.15 392.8 1329.15 408 1312.4 408 1312.4 392.8 1312.4 390.4 Z"/>
</g>

<g id="Layer0_0_MEMBER_3_FILL">
<path fill="#B1C7D7" stroke="none" d="
M 1196.35 231.75
L 1213.15 231.75 1213.15 228.95 1196.35 228.95 1196.35 231.75
M 1196.35 209.3
L 1196.35 211.7 1213.15 211.7 1213.15 209.3 1196.35 209.3
M 1235.05 228.95
L 1235.05 231.75 1251.8 231.75 1251.8 228.95 1235.05 228.95
M 1251.8 211.7
L 1251.8 209.3 1235.05 209.3 1235.05 211.7 1251.8 211.7
M 1273.7 228.95
L 1273.7 231.75 1290.5 231.75 1290.5 228.95 1273.7 228.95
M 1290.5 211.7
L 1290.5 209.3 1273.7 209.3 1273.7 211.7 1290.5 211.7
M 1312.4 228.95
L 1312.4 231.75 1329.15 231.75 1329.15 228.95 1312.4 228.95
M 1329.15 211.7
L 1329.15 209.3 1312.4 209.3 1312.4 211.7 1329.15 211.7 Z"/>

<path fill="#DAE9F3" stroke="none" d="
M 1196.35 231.75
L 1196.35 246.5 1213.15 246.5 1213.15 231.75 1196.35 231.75
M 1213.15 211.7
L 1196.35 211.7 1196.35 226.85 1213.15 226.85 1213.15 211.7
M 1235.05 211.7
L 1235.05 226.85 1251.8 226.85 1251.8 211.7 1235.05 211.7
M 1235.05 231.75
L 1235.05 246.5 1251.8 246.5 1251.8 231.75 1235.05 231.75
M 1273.7 211.7
L 1273.7 226.85 1290.5 226.85 1290.5 211.7 1273.7 211.7
M 1273.7 231.75
L 1273.7 246.5 1290.5 246.5 1290.5 231.75 1273.7 231.75
M 1312.4 211.7
L 1312.4 226.85 1329.15 226.85 1329.15 211.7 1312.4 211.7
M 1312.4 231.75
L 1312.4 246.5 1329.15 246.5 1329.15 231.75 1312.4 231.75 Z"/>

<path fill="#FFFFFF" stroke="none" d="
M 1215.15 246.5
L 1215.15 209.3 1213.15 209.3 1213.15 211.7 1213.15 226.85 1196.35 226.85 1196.35 211.7 1196.35 209.3 1194 209.3 1194 246.5 1196.35 246.5 1196.35 231.75 1196.35 228.95 1213.15 228.95 1213.15 231.75 1213.15 246.5 1215.15 246.5
M 1251.8 209.3
L 1251.8 211.7 1251.8 226.85 1235.05 226.85 1235.05 211.7 1235.05 209.3 1232.7 209.3 1232.7 246.5 1235.05 246.5 1235.05 231.75 1235.05 228.95 1251.8 228.95 1251.8 231.75 1251.8 246.5 1253.85 246.5 1253.85 209.3 1251.8 209.3
M 1290.5 209.3
L 1290.5 211.7 1290.5 226.85 1273.7 226.85 1273.7 211.7 1273.7 209.3 1271.35 209.3 1271.35 246.5 1273.7 246.5 1273.7 231.75 1273.7 228.95 1290.5 228.95 1290.5 231.75 1290.5 246.5 1292.5 246.5 1292.5 209.3 1290.5 209.3
M 1329.15 209.3
L 1329.15 211.7 1329.15 226.85 1312.4 226.85 1312.4 211.7 1312.4 209.3 1310.05 209.3 1310.05 246.5 1312.4 246.5 1312.4 231.75 1312.4 228.95 1329.15 228.95 1329.15 231.75 1329.15 246.5 1331.2 246.5 1331.2 209.3 1329.15 209.3 Z"/>

<path fill="#4CA3B8" stroke="none" d="
M 1218.25 246.5
L 1215.15 246.5 1213.15 246.5 1196.35 246.5 1194 246.5 1191.2 246.5 1191.2 251.3 1218.25 251.3 1218.25 246.5
M 1215.15 209.3
L 1218.25 209.3 1218.25 204.5 1191.2 204.5 1191.2 209.3 1194 209.3 1196.35 209.3 1213.15 209.3 1215.15 209.3
M 1235.05 246.5
L 1232.7 246.5 1229.9 246.5 1229.9 251.3 1256.95 251.3 1256.95 246.5 1253.85 246.5 1251.8 246.5 1235.05 246.5
M 1256.95 209.3
L 1256.95 204.5 1229.9 204.5 1229.9 209.3 1232.7 209.3 1235.05 209.3 1251.8 209.3 1253.85 209.3 1256.95 209.3
M 1271.35 246.5
L 1268.55 246.5 1268.55 251.3 1295.6 251.3 1295.6 246.5 1292.5 246.5 1290.5 246.5 1273.7 246.5 1271.35 246.5
M 1292.5 209.3
L 1295.6 209.3 1295.6 204.5 1268.55 204.5 1268.55 209.3 1271.35 209.3 1273.7 209.3 1290.5 209.3 1292.5 209.3
M 1310.05 246.5
L 1307.25 246.5 1307.25 251.3 1334.3 251.3 1334.3 246.5 1331.2 246.5 1329.15 246.5 1312.4 246.5 1310.05 246.5
M 1331.2 209.3
L 1334.3 209.3 1334.3 204.5 1307.25 204.5 1307.25 209.3 1310.05 209.3 1312.4 209.3 1329.15 209.3 1331.2 209.3 Z"/>
</g>

<g id="Layer0_0_MEMBER_4_FILL">
<path fill="#666666" stroke="none" d="
M 1312.6 97.45
L 1311.8 97.45 1311.8 99.15 1312.6 99.15 1312.6 108.85 1315.3 108.85 1315.3 99.15 1316.15 99.15 1316.15 97.45 1315.3 97.45 1315.3 95.5 1312.6 95.5 1312.6 97.45 Z"/>
</g>

<g id="Layer0_0_MEMBER_4_MEMBER_0_FILL">
<path fill="#333333" stroke="none" d="
M 1323.9 162.45
L 1323.35 160.6 1302.2 166.45 1281.1 160.6 1280.55 162.45 1298.65 167.5 1288.25 170.35 1281.1 168.35 1280.55 170.2 1284.65 171.35 1280.5 172.45 1281 174.35 1288.25 172.35 1298.65 175.25 1280.5 180.25 1280.7 180.9 1285.45 180.9 1302.2 176.2 1319.05 180.9 1323.75 180.9 1323.95 180.25 1305.8 175.25 1316.25 172.35 1323.4 174.35 1323.95 172.45 1319.8 171.35 1323.9 170.2 1323.35 168.35 1316.25 170.35 1305.8 167.5 1323.9 162.45
M 1302.2 168.45
L 1312.65 171.35 1302.2 174.25 1291.85 171.35 1302.2 168.45 Z"/>
</g>

<g id="Layer0_0_MEMBER_4_MEMBER_0_MEMBER_0_FILL">
<path fill="#4F4F4F" stroke="none" d="
M 1285.4 157.15
L 1279.05 157.15 1279.05 181.1 1285.4 181.1 1285.4 157.15
M 1326.6 157.15
L 1320.3 157.15 1320.3 181.1 1326.6 181.1 1326.6 157.15 Z"/>
</g>

<g id="Layer0_0_MEMBER_4_MEMBER_1_FILL">
<path fill="#E2E0E0" stroke="none" d="
M 1294.7 112.05
L 1271.05 112.05 1271.05 162.5 1294.7 162.5 1294.7 112.05
M 1302.65 102.7
L 1302.35 102.8 1295.35 112.05 1334.3 112.05 1334.3 112 1302.65 102.7 Z"/>

<path fill="#FFFFFF" stroke="none" d="
M 1271.05 112
L 1271.05 112.05 1294.7 112.05 1295.35 112.05 1302.35 102.8 1271.05 112 Z"/>

<path fill="#CCCCCC" stroke="none" d="
M 1334.3 162.5
L 1334.3 112.05 1295.35 112.05 1294.7 112.05 1294.7 162.5 1334.3 162.5 Z"/>
</g>

<g id="Layer0_0_MEMBER_4_MEMBER_2_FILL">
<path fill="#666666" stroke="none" d="
M 1280.8 158.65
L 1280.8 156.95 1279.55 156.95 1279.55 155 1281.85 155 1281.85 153.7 1275.85 153.7 1275.85 155 1278.15 155 1278.15 156.95 1276.9 156.95 1276.9 158.65 1276.85 158.65
Q 1272 158.65 1272 163.5
L 1272 164 1271.2 164 1271.2 165.25 1272 165.25 1272 166.55 1274.1 166.55 1274.1 165.25 1274.85 165.25 1274.85 164.6
Q 1274.85 164.3 1274.95 164
L 1274.15 164
Q 1274.4 160.75 1277.9 160.75
L 1282.9 160.75
Q 1284.05 159.7 1282.9 158.65
L 1280.8 158.65 Z"/>
</g>

<g id="Layer0_0_MEMBER_5_MEMBER_0_FILL">
<path fill="#666666" stroke="none" d="
M 1205 181.1
L 1207.4 181.1 1218.35 161.15 1218.35 181.1 1220.5 181.1 1220.5 161.35 1231.3 181.1 1233.75 181.1 1220.5 156.9
Q 1220.45 156.5 1220.2 156.25 1219.85 155.9 1219.4 155.9 1218.95 155.9 1218.65 156.25 1218.55 156.35 1218.5 156.5
L 1218.4 156.55 1205 181.1 Z"/>
</g>

<g id="Layer0_0_MEMBER_5_MEMBER_1_FILL">
<path fill="#FFFFFF" stroke="none" d="
M 1211.25 166.35
Q 1212 166.15 1212.65 165.9 1215.6 165.05 1218.35 163.2 1218.35 163.25 1218.4 163.2 1219.85 162.25 1221.25 161.05 1221.85 160.5 1222.5 159.85 1222.7 159.7 1222.8 159.5
L 1223 159.35
Q 1223.05 159.3 1223.2 159.2 1224.15 158.2 1224.95 157.2
L 1225.25 156.8
Q 1228.75 152.4 1229.7 147.45 1231.05 140.9 1227.35 137.2 1224.35 134.2 1219.45 134.5 1218.35 134.6 1217.15 134.8 1210.6 136.15 1205.05 141.7 1199.45 147.3 1198.1 153.85 1196.8 160.35 1200.45 164.1 1203.1 166.7 1207.2 166.8 1208.8 166.8 1210.75 166.45 1211 166.4 1211.25 166.35
M 1214 163.05
Q 1212.7 163.25 1211.65 163.25 1208.95 163.25 1207.25 161.55 1204.9 159.05 1205.75 154.8 1206.6 150.55 1210.25 146.95 1213.85 143.3 1218.1 142.45 1222.4 141.6 1224.8 144 1227.2 146.4 1226.35 150.65 1225.7 153.9 1223.4 156.75
L 1223.2 157.05
Q 1222.7 157.7 1222.05 158.35 1221.95 158.35 1221.95 158.4
L 1221.85 158.55
Q 1221.7 158.65 1221.6 158.75 1221.2 159.15 1220.8 159.5 1219.9 160.3 1218.95 160.95
L 1218.9 160.9
Q 1217.15 162.1 1215.25 162.7 1214.55 162.9 1214 163.05 Z"/>

<path fill="#E9E9E9" stroke="none" d="
M 1211.65 163.25
Q 1212.7 163.25 1214 163.05 1214.55 162.9 1215.25 162.7 1217.15 162.1 1218.9 160.9
L 1218.95 160.95
Q 1219.9 160.3 1220.8 159.5 1221.2 159.15 1221.6 158.75 1221.7 158.65 1221.85 158.55
L 1221.95 158.4
Q 1221.95 158.35 1222.05 158.35 1222.7 157.7 1223.2 157.05
L 1223.4 156.75
Q 1225.7 153.9 1226.35 150.65 1227.2 146.4 1224.8 144 1222.4 141.6 1218.1 142.45 1213.85 143.3 1210.25 146.95 1206.6 150.55 1205.75 154.8 1204.9 159.05 1207.25 161.55 1208.95 163.25 1211.65 163.25
M 1222.15 151.7
Q 1223.1 152.7 1222.7 154.45 1222.45 155.75 1221.55 156.9
L 1221.45 157
Q 1221.25 157.25 1221 157.55
L 1220.95 157.55 1220.9 157.6
Q 1220.85 157.7 1220.8 157.7 1220.65 157.85 1220.5 158 1220.1 158.35 1219.75 158.6 1219 159.05 1218.2 159.35 1218 159.4 1217.75 159.45 1217.2 159.55 1216.75 159.55 1215.7 159.5 1215 158.85 1214.05 157.85 1214.4 156.1 1214.75 154.35 1216.2 152.9 1217.7 151.45 1219.4 151.1 1221.15 150.75 1222.15 151.7 Z"/>

<path fill="#CCCCCC" stroke="none" d="
M 1222.7 154.45
Q 1223.1 152.7 1222.15 151.7 1221.15 150.75 1219.4 151.1 1217.7 151.45 1216.2 152.9 1214.75 154.35 1214.4 156.1 1214.05 157.85 1215 158.85 1215.7 159.5 1216.75 159.55 1217.2 159.55 1217.75 159.45 1218 159.4 1218.2 159.35 1219 159.05 1219.75 158.6 1220.1 158.35 1220.5 158 1220.65 157.85 1220.8 157.7 1220.85 157.7 1220.9 157.6
L 1220.95 157.55 1221 157.55
Q 1221.25 157.25 1221.45 157
L 1221.55 156.9
Q 1222.45 155.75 1222.7 154.45 Z"/>
</g>

<g id="Layer0_0_MEMBER_5_MEMBER_1_MEMBER_0_FILL">
<path fill="#666666" stroke="none" d="
M 1209.5 148.35
Q 1209.95 148.35 1210.4 148.2
L 1218.3 156.05
Q 1218.45 156.25 1218.75 156.2 1219 156.2 1219.25 156 1219.45 155.75 1219.45 155.5 1219.5 155.2 1219.35 155
L 1211.45 147.15
Q 1211.6 146.7 1211.6 146.3 1211.6 145.45 1211 144.85 1210.4 144.25 1209.5 144.2 1208.7 144.25 1208.1 144.85 1207.5 145.45 1207.45 146.3 1207.45 147.15 1208.05 147.75 1208.7 148.4 1209.5 148.35 Z"/>
</g>

<g id="Layer0_0_MEMBER_6_FILL">
<path fill="#3B83C4" stroke="none" d="
M 1273 166.65
Q 1272.55 168.85 1271.75 170.3 1271.05 171.65 1270.75 172.4 1270.4 173.15 1270.55 174.1 1270.75 175.1 1271.55 175.65 1272 175.95 1272.45 176.1 1272.75 176.15 1273 176.2 1273.8 176.1 1274.45 175.65 1275.3 175.1 1275.45 174.1 1275.6 173.15 1275.25 172.4 1274.95 171.65 1274.3 170.3 1273.5 168.85 1273 166.65 Z"/>
</g>

<g id="Layer0_0_MEMBER_6_MEMBER_0_FILL">
<path fill="#FFFFFF" stroke="none" d="
M 1271.4 172.45
Q 1271.15 173.05 1271.15 173.5 1271.15 174 1271.25 174.3 1271.4 174.55 1271.6 174.85 1271.8 175.1 1271.95 175.15 1272.05 175.15 1272.15 175.3 1271.65 173.4 1272.15 171.1 1271.6 171.9 1271.4 172.45 Z"/>
</g>

<g id="Layer0_0_MEMBER_7_FILL">
<path fill="#FFFFFF" stroke="none" d="
M 1309.45 303.45
Q 1309.45 303.15 1309.45 302.95 1308.65 285.25 1295.85 272.5 1282.35 258.95 1263.15 258.95 1243.95 258.95 1230.35 272.5 1216.8 286.1 1216.8 305.25 1216.8 320.1 1224.9 331.55 1226.45 333.75 1228.35 335.85 1229.3 336.95 1230.35 338 1243.95 351.6 1263.15 351.6 1282.35 351.6 1295.85 338 1296.9 336.95 1297.9 335.85 1299.8 333.75 1301.4 331.55 1308.95 320.8 1309.45 307.15 1309.45 306.2 1309.45 305.25 1309.45 304.3 1309.45 303.45
M 1300.8 287.65
L 1301.75 289.85
Q 1304.65 296.85 1304.75 304.25
L 1304.75 305.1
Q 1304.75 305.15 1304.75 305.25
L 1304.35 310.6
Q 1304.15 311.95 1303.9 313.3 1303.75 314 1303.6 314.65 1303.3 315.9 1302.95 317.05 1302.75 317.55 1302.6 318.05 1300.35 325.15 1296.05 330.65
L 1289.9 337.05 1288.45 338.2
Q 1288.1 338.45 1287.75 338.75
L 1287.6 338.9
Q 1287.3 339.1 1287 339.3
L 1284.7 340.75
Q 1283.9037109375 341.23125 1283.1 341.7
L 1281.5 342.5
Q 1274.35 346.1 1266.8 346.7
L 1258 346.5
Q 1256.65 346.3 1255.3 346.05
L 1253.3 345.6
Q 1252.85 345.5 1252.4 345.35 1246.95 343.9 1242.4 341.25 1240.8 340.4 1239.35 339.4 1237.45 338.05 1235.75 336.5
L 1234.6 335.45 1230.6 331.15
Q 1227.85 327.65 1225.85 323.45 1222.05 315.75 1221.6 307.6 1221.5 306.35 1221.5 305.15 1221.45 297.85 1224.25 290.65 1224.4 290.3 1224.55 289.95 1225.8 286.6 1227.6 283.65
L 1230 280.05 1234.3 275.25
Q 1236.6 272.95 1239.3 271.15 1242.65 268.85 1246.5 267.2 1250.25 265.5 1254.15 264.6
L 1262.45 263.6
Q 1270.85 263.35 1279.05 266.9
L 1282.35 268.4
Q 1283.2 268.8 1283.95 269.2 1285.6 270.15 1287.05 271.15 1287.6 271.5 1288.1 271.9
L 1289.05 272.65 1294.6 277.95
Q 1298.35 282.25 1300.8 287.65 Z"/>

<path fill="#1A7D8D" stroke="none" d="
M 1246.5 267.2
Q 1244.45 268.15 1242.45 269.3 1237.9 271.9 1234.3 275.25
L 1230 280.05 1227.6 283.65
Q 1225.8 286.6 1224.55 289.95 1224.4 290.3 1224.25 290.65 1223.9 291.65 1223.55 292.75 1223.3 293.6 1223.05 294.5 1221.6 299.95 1221.55 305.25
L 1263.2 305.25 1287.05 271.2 1287.05 271.15
Q 1285.6 270.15 1283.95 269.2 1283.2 268.8 1282.35 268.4
L 1279.05 266.9
Q 1276.6 265.9 1273.9 265.2 1272.95 264.9 1272.05 264.7 1267.2 263.6 1262.45 263.6
L 1254.15 264.6
Q 1250.25 265.5 1246.5 267.2 Z"/>

<path fill="#3BA9C4" stroke="none" d="
M 1302.6 318.05
Q 1302.75 317.55 1302.95 317.05 1303.05 316.55 1303.2 316 1303.4 315.35 1303.6 314.65 1303.75 314 1303.9 313.3 1304.15 311.95 1304.35 310.6
L 1304.75 305.25 1263.2 305.25 1221.55 305.25
Q 1221.55 306.4 1221.6 307.6 1222.05 315.75 1225.85 323.45 1226.5 324.7 1227.2 326
L 1227.25 326
Q 1228.8 328.75 1230.6 331.15
L 1234.6 335.45 1235.75 336.5
Q 1237.45 338.05 1239.35 339.4 1240.8 340.4 1242.4 341.25 1246.95 343.9 1252.4 345.35 1252.85 345.5 1253.3 345.6
L 1255.3 346.05
Q 1256.65 346.3 1258 346.5
L 1266.8 346.7
Q 1274.35 346.1 1281.5 342.5
L 1283.1 341.7
Q 1283.5 341.4 1283.9 341.2 1284.3 340.975 1284.7 340.75
L 1287 339.3
Q 1287.3 339.1 1287.6 338.9
L 1287.75 338.75
Q 1288.1 338.45 1288.45 338.2
L 1289.9 337.05 1296.05 330.65
Q 1300.35 325.15 1302.6 318.05 Z"/>

<path fill="#99D6E5" stroke="none" d="
M 1301.75 289.85
L 1300.8 287.65
Q 1298.35 282.25 1294.6 277.95
L 1289.05 272.65 1288.1 271.9
Q 1287.6 271.5 1287.05 271.15
L 1287.05 271.2 1263.2 305.25 1304.75 305.25
Q 1304.75 305.15 1304.75 305.1
L 1304.75 304.25
Q 1304.65 296.85 1301.75 289.85 Z"/>
</g>

<g id="Layer0_0_MEMBER_7_MEMBER_0_FILL">
<path fill="#FFFFFF" stroke="none" d="
M 1295.45 295.35
Q 1295.45 294.45 1294.9 293.95 1294.35 293.5 1293.4 293.5 1292.15 293.5 1291.45 294.3 1290.75 295.1 1290.75 296.25 1290.75 297.15 1291.3 297.65 1291.85 298.15 1292.8 298.15 1294.1 298.15 1294.75 297.35 1295.45 296.45 1295.45 295.35
M 1292.85 294.75
Q 1293.15 294.5 1293.4 294.5 1293.6 294.5 1293.75 294.65 1293.9 294.75 1293.9 295.05 1293.9 295.8 1293.6 296.45 1293.35 297.15 1292.8 297.15 1292.6 297.15 1292.45 297 1292.3 296.85 1292.3 296.5 1292.3 296.25 1292.45 295.6 1292.6 294.95 1292.85 294.75
M 1291.75 284.85
L 1291.3 286.8
Q 1290.9 286.2 1290.1 286.2 1289.3 286.2 1288.75 286.95 1288.25 287.65 1288.25 288.65 1288.25 289.35 1288.6 289.85 1288.95 290.25 1289.6 290.25 1289.95 290.25 1290.2 290.15 1290.45 290.05 1290.75 289.75
L 1290.7 290.15 1292.1 290.15 1293.25 284.85 1291.75 284.85
M 1289.9 287.65
Q 1290.15 287.2 1290.45 287.2 1290.7 287.2 1290.85 287.35 1291.05 287.55 1291.05 287.9 1291.05 288.35 1290.85 288.8 1290.6 289.25 1290.2 289.25 1290 289.25 1289.85 289.1 1289.7 288.95 1289.7 288.6 1289.7 288.05 1289.9 287.65
M 1284.3 294.25
Q 1283.3 295.05 1282.75 296.45 1282.2 297.8 1282.2 299.05 1282.2 300.85 1283.05 301.75 1283.9 302.7 1285.3 302.7 1286.65 302.7 1287.7 301.9 1288.7 301.1 1289.3 299.7 1289.85 298.3 1289.85 296.9 1289.85 295.2 1288.9 294.35 1287.9 293.5 1286.55 293.5 1285.3 293.5 1284.3 294.25
M 1287.2 295.5
Q 1287.5 295.8 1287.5 296.35 1287.5 297.15 1287.2 298.35 1287 299.55 1286.55 300.3 1286.1 301.05 1285.55 301.05 1284.6 301.05 1284.6 299.7 1284.6 298.95 1284.8 297.8 1285.05 296.6 1285.5 295.9 1285.95 295.15 1286.55 295.15 1287 295.15 1287.2 295.5
M 1278.3 293.5
Q 1276.7 293.5 1275.75 294.15 1274.8 294.85 1274.55 296.1
L 1277 296.5
Q 1277.25 295.15 1278.15 295.15 1278.5 295.15 1278.75 295.4 1279.05 295.6 1279.05 296.1 1279.05 296.4 1278.85 296.75 1278.55 297.1 1278 297.5
L 1277.1 298.2
Q 1275.6 299.25 1274.8 300.2 1273.95 301.15 1273.75 302.55
L 1280.55 302.55 1280.95 300.5 1277.45 300.5
Q 1277.85 300.1 1278.1 299.9 1278.4 299.7 1279.25 299.1 1280.45 298.25 1280.95 297.5 1281.5 296.75 1281.5 295.95 1281.5 294.9 1280.7 294.15 1279.9 293.5 1278.3 293.5
M 1281.55 286.75
L 1283.1 286.6
Q 1283 285.75 1282.4 285.25 1281.8 284.75 1280.8 284.75 1279.8 284.75 1279.15 285.2 1278.45 285.65 1278.1 286.45 1277.7 287.25 1277.7 288 1277.7 289 1278.35 289.65 1278.95 290.25 1280.1 290.25 1281.2 290.25 1281.9 289.7 1282.6 289.15 1282.8 288.3
L 1281.25 288.05
Q 1281.05 288.55 1280.8 288.8 1280.55 289.05 1280.2 289.05 1279.75 289.05 1279.55 288.8 1279.35 288.5 1279.35 288.1 1279.35 287.6 1279.55 287.05 1279.75 286.5 1280.1 286.2 1280.45 285.95 1280.8 285.95 1281.05 285.95 1281.35 286.15 1281.55 286.35 1281.55 286.75
M 1284.4 286.55
Q 1283.85 286.85 1283.55 287.35 1283.25 287.95 1283.25 288.5 1283.25 289.25 1283.75 289.75 1284.25 290.25 1285.3 290.25 1286.05 290.25 1286.65 289.95 1287.15 289.6 1287.4 289.05 1287.7 288.5 1287.7 287.95 1287.7 287.25 1287.2 286.75 1286.75 286.2 1285.7 286.2 1284.95 286.2 1284.4 286.55
M 1284.95 287.65
Q 1285.2 287.2 1285.65 287.2 1285.9 287.2 1286.05 287.35 1286.25 287.55 1286.25 287.9 1286.25 288.4 1286 288.85 1285.75 289.25 1285.35 289.25 1285.1 289.25 1284.9 289.05 1284.7 288.8 1284.7 288.5 1284.7 288.05 1284.95 287.65
M 1301.7 300.2
Q 1301.7 299.35 1301.1 298.85 1300.55 298.35 1299.55 298.35 1298.35 298.35 1297.65 299.15 1296.95 299.95 1296.95 301.1 1296.95 302 1297.5 302.5 1298.05 303 1299 303 1300.3 303 1301 302.2 1301.7 301.35 1301.7 300.2
M 1299.6 299.35
Q 1299.8 299.35 1299.95 299.5 1300.15 299.65 1300.15 299.9 1300.15 300.7 1299.85 301.35 1299.55 302 1299 302 1298.8 302 1298.65 301.85 1298.5 301.7 1298.5 301.35 1298.5 301.1 1298.65 300.45 1298.8 299.8 1299.05 299.6 1299.3 299.35 1299.6 299.35
M 1296.6 290
Q 1297.15 289.75 1297.45 289.2
L 1296 289.05
Q 1295.8 289.35 1295.35 289.35 1294.75 289.35 1294.7 288.6
L 1297.6 288.6
Q 1297.7 288.05 1297.7 287.85 1297.7 287.15 1297.25 286.7 1296.75 286.2 1295.7 286.2 1295.15 286.2 1294.8 286.3 1294.45 286.45 1294.05 286.75 1293.65 287.05 1293.45 287.5 1293.25 287.95 1293.25 288.5 1293.25 289.25 1293.7 289.75 1294.2 290.25 1295.35 290.25 1296.1 290.25 1296.6 290
M 1296.25 287.65
Q 1296.25 287.85 1296.2 287.9
L 1294.8 287.9
Q 1294.9 287.5 1295.15 287.3 1295.35 287.05 1295.65 287.05 1295.9 287.05 1296.1 287.25 1296.25 287.4 1296.25 287.65
M 1300.8 293.5
L 1299.4 293.5 1291.65 303 1293.05 303 1300.8 293.5 Z"/>
</g>

<g id="Layer0_0_MEMBER_7_MEMBER_1_FILL">
<path fill="#FFFFFF" stroke="none" d="
M 1257.95 291.6
Q 1257.2 292.4 1257.2 293.55 1257.2 294.45 1257.75 294.95 1258.35 295.45 1259.25 295.45 1260.55 295.45 1261.25 294.65 1261.95 293.8 1261.95 292.65 1261.95 291.75 1261.4 291.3 1260.8 290.8 1259.85 290.8 1258.65 290.8 1257.95 291.6
M 1260.4 292.35
Q 1260.4 293.1 1260.1 293.8 1259.8 294.45 1259.3 294.45 1259.05 294.45 1258.9 294.3 1258.8 294.15 1258.8 293.8 1258.8 293.55 1258.9 292.9 1259.1 292.25 1259.3 292.05 1259.6 291.8 1259.9 291.8 1260.05 291.8 1260.25 291.95 1260.4 292.05 1260.4 292.35
M 1257.1 278.75
L 1255.6 278.75 1254.8 282.6 1256.25 282.6 1257.1 278.75
M 1260.55 279.3
Q 1260.1 278.65 1259.4 278.65 1258.55 278.65 1258 279.35 1257.5 280 1257.5 280.95 1257.5 281.6 1257.8 282.05 1258.15 282.45 1258.75 282.45 1259.4 282.45 1259.9 281.95
L 1259.9 282 1259.8 282.55
Q 1259.7 282.9 1259.5 283.1 1259.35 283.3 1259.1 283.3 1258.65 283.3 1258.65 282.9
L 1257.25 282.7
Q 1257.25 282.75 1257.25 282.85 1257.25 283.25 1257.5 283.6 1257.75 283.95 1258.15 284.05 1258.5 284.15 1259.15 284.15 1260.05 284.15 1260.55 283.8 1261.05 283.45 1261.3 282.35
L 1262.1 278.75 1260.7 278.75 1260.55 279.3
M 1259.75 279.65
Q 1259.95 279.65 1260.1 279.8 1260.25 279.95 1260.25 280.2 1260.25 280.6 1260.05 281.05 1259.85 281.45 1259.4 281.45 1259.2 281.45 1259.05 281.3 1258.9 281.15 1258.9 280.9 1258.9 280.4 1259.15 280.05 1259.4 279.65 1259.75 279.65
M 1257.4 277.3
L 1255.95 277.3 1255.7 278.3 1257.2 278.3 1257.4 277.3
M 1266.6 278.9
Q 1266.3 278.65 1265.8 278.65 1264.9 278.65 1264.3 279.35
L 1264.4 278.75 1263.05 278.75 1262.2 282.6 1263.7 282.6 1264.05 280.95
Q 1264.2 280.35 1264.4 280.05 1264.7 279.75 1265 279.75 1265.25 279.75 1265.25 280.05 1265.25 280.15 1265.15 280.85
L 1264.75 282.6 1266.25 282.6 1266.7 280.5
Q 1266.85 279.8 1266.85 279.6 1266.85 279.2 1266.6 278.9
M 1251.95 295.45
L 1253.3 295.45 1261.05 285.9 1259.65 285.9 1251.95 295.45
M 1255.2 286.4
Q 1254.6 285.9 1253.65 285.9 1252.4 285.9 1251.75 286.75 1251.05 287.55 1251.05 288.7 1251.05 289.6 1251.6 290.1 1252.1 290.6 1253.1 290.6 1254.35 290.6 1255.05 289.75 1255.75 288.9 1255.75 287.8 1255.75 286.9 1255.2 286.4
M 1253.15 287.15
Q 1253.4 286.95 1253.65 286.95 1253.85 286.95 1254.05 287.05 1254.2 287.2 1254.2 287.5 1254.2 288.25 1253.9 288.9 1253.65 289.6 1253.1 289.6 1252.9 289.6 1252.7 289.45 1252.6 289.25 1252.6 288.95 1252.6 288.7 1252.75 288.05 1252.9 287.35 1253.15 287.15
M 1244.55 286.7
Q 1243.6 287.5 1243 288.9 1242.45 290.25 1242.45 291.5 1242.45 293.3 1243.3 294.2 1244.15 295.15 1245.55 295.15 1246.95 295.15 1247.95 294.35 1248.95 293.55 1249.55 292.15 1250.1 290.75 1250.1 289.35 1250.1 287.65 1249.15 286.8 1248.2 285.9 1246.85 285.9 1245.55 285.9 1244.55 286.7
M 1244.85 292.15
Q 1244.85 291.4 1245.1 290.25 1245.3 289.05 1245.75 288.3 1246.2 287.6 1246.8 287.6 1247.25 287.6 1247.5 287.95 1247.75 288.25 1247.75 288.8 1247.75 289.55 1247.5 290.8 1247.25 292 1246.85 292.75 1246.35 293.5 1245.8 293.5 1244.85 293.5 1244.85 292.15
M 1242.85 277.3
L 1240.65 277.3 1239.55 282.6 1242.35 282.6
Q 1242.9 282.6 1243.55 282.35 1244.15 282.1 1244.65 281.3 1245.1 280.45 1245.1 279.5 1245.1 278.55 1244.55 277.9 1244 277.3 1242.85 277.3
M 1243.3 278.7
Q 1243.45 278.9 1243.45 279.35 1243.45 280.05 1243.1 280.75 1242.8 281.4 1242.15 281.4
L 1241.45 281.4 1242.05 278.45 1242.6 278.45
Q 1243.1 278.45 1243.3 278.7
M 1254.5 279.7
Q 1254.4 279.1 1254 278.9 1253.55 278.65 1252.8 278.65 1252.1 278.65 1251.65 278.85 1251.2 279.05 1250.95 279.35 1250.75 279.7 1250.75 280 1250.75 280.45 1251.05 280.7 1251.35 281 1252.2 281.15 1252.6 281.15 1252.7 281.2 1252.85 281.3 1252.85 281.5 1252.85 281.7 1252.7 281.8 1252.5 281.9 1252.25 281.9 1251.75 281.9 1251.65 281.4
L 1250.15 281.55
Q 1250.25 282.15 1250.7 282.45 1251.1 282.7 1252 282.7 1253.15 282.7 1253.7 282.3 1254.25 281.85 1254.25 281.25 1254.25 280.85 1253.95 280.55 1253.7 280.3 1252.85 280.2 1252.3 280.1 1252.2 280.05 1252.05 279.95 1252.05 279.8 1252.05 279.7 1252.2 279.6 1252.3 279.5 1252.6 279.5 1253.1 279.5 1253.1 279.8
L 1254.5 279.7
M 1249.5 279.1
Q 1249 278.65 1247.95 278.65 1247.4 278.65 1247.05 278.75 1246.7 278.9 1246.3 279.2 1245.9 279.5 1245.7 279.95 1245.5 280.4 1245.5 280.95 1245.5 281.7 1245.95 282.2 1246.45 282.7 1247.6 282.7 1248.35 282.7 1248.85 282.45 1249.4 282.2 1249.7 281.6
L 1248.3 281.5
Q 1248.05 281.8 1247.6 281.8 1247 281.8 1246.95 281.05
L 1249.85 281.05
Q 1249.95 280.5 1249.95 280.25 1249.95 279.6 1249.5 279.1
M 1248.5 280.1
Q 1248.5 280.25 1248.5 280.35
L 1247.05 280.35
Q 1247.15 279.95 1247.4 279.75 1247.6 279.5 1247.9 279.5 1248.15 279.5 1248.35 279.7 1248.5 279.85 1248.5 280.1
M 1233.9 292.65
Q 1234 293.8 1234.85 294.45 1235.75 295.15 1237.3 295.15 1238.8 295.15 1239.6 294.65 1240.4 294.1 1240.8 293.5 1241.15 292.9 1241.15 292.25 1241.15 291 1239.95 290.4 1241.65 289.65 1241.65 288.2 1241.65 287.3 1240.85 286.6 1240.1 285.9 1238.6 285.9 1237.15 285.9 1236.25 286.45 1235.35 287 1234.95 288.2
L 1237.2 288.65
Q 1237.45 287.45 1238.35 287.45 1239.25 287.45 1239.25 288.3 1239.25 289.65 1237.75 289.65
L 1237.55 289.65 1237.25 291.25
Q 1237.6 291.2 1237.75 291.2 1238.2 291.2 1238.5 291.5 1238.8 291.85 1238.8 292.3 1238.8 292.8 1238.4 293.2 1238.1 293.6 1237.55 293.6 1236.5 293.6 1236.3 292.35
L 1233.9 292.65 Z"/>
</g>

<g id="Layer0_0_MEMBER_7_MEMBER_2_FILL">
<path fill="#FFFFFF" stroke="none" d="
M 1247.55 315.45
L 1246.15 315.45 1245.35 319.3 1246.8 319.3 1247.2 317.6
Q 1247.3 317.05 1247.55 316.7 1247.8 316.45 1248.15 316.45 1248.4 316.45 1248.4 316.75 1248.4 316.85 1248.25 317.5
L 1247.9 319.3 1249.4 319.3 1249.8 317.2
Q 1249.95 316.5 1249.95 316.25 1249.95 315.85 1249.7 315.6 1249.45 315.35 1248.9 315.35 1248.05 315.35 1247.45 316.05
L 1247.4 316.05 1247.55 315.45
M 1252.95 313.95
L 1251.5 313.95 1251.25 315 1252.75 315 1252.95 313.95
M 1252.65 315.45
L 1251.15 315.45 1250.35 319.3 1251.8 319.3 1252.65 315.45
M 1243.95 313.95
L 1242.2 313.95 1239.2 319.3 1240.95 319.3 1241.4 318.4 1243.15 318.4 1243.2 319.3 1244.8 319.3 1243.95 313.95
M 1243 317.3
L 1241.9 317.3 1242.85 315.35 1243 317.3
M 1278.35 332.05
Q 1278.9 332.55 1279.85 332.55 1281.15 332.55 1281.85 331.75 1282.55 330.9 1282.55 329.75 1282.55 328.9 1281.95 328.4 1281.4 327.9 1280.45 327.9 1279.2 327.9 1278.5 328.7 1277.8 329.5 1277.8 330.65 1277.8 331.6 1278.35 332.05
M 1280.45 328.9
Q 1280.65 328.9 1280.8 329.05 1281 329.2 1281 329.45 1281 330.25 1280.7 330.9 1280.4 331.6 1279.85 331.6 1279.65 331.6 1279.5 331.4 1279.4 331.25 1279.4 330.9 1279.4 330.65 1279.5 330 1279.65 329.35 1279.9 329.15 1280.15 328.9 1280.45 328.9
M 1262.1 325.05
L 1262.5 323.2 1256.5 323.2 1255.2 327.85 1257.45 328.2
Q 1258 327.6 1258.7 327.6 1259.65 327.6 1259.65 328.75 1259.65 329.55 1259.2 330.15 1258.75 330.7 1258.1 330.7 1257.6 330.7 1257.3 330.4 1257 330.05 1257 329.45
L 1257 329.4 1254.55 329.7
Q 1254.75 331.05 1255.5 331.65 1256.25 332.25 1257.75 332.25 1259.35 332.25 1260.3 331.7 1261.2 331.1 1261.65 330.35 1262.05 329.55 1262.05 328.55 1262.05 327.35 1261.35 326.7 1260.7 326.1 1259.6 326.1 1259.25 326.1 1258.85 326.2 1258.55 326.25 1257.85 326.5
L 1258.3 325.05 1262.1 325.05
M 1272.5 332.55
L 1273.9 332.55 1281.65 323.05 1280.25 323.05 1272.5 332.55
M 1269.75 323.9
Q 1268.75 323.05 1267.4 323.05 1266.15 323.05 1265.15 323.8 1264.15 324.6 1263.6 326 1263.05 327.35 1263.05 328.6 1263.05 330.4 1263.9 331.3 1264.75 332.25 1266.15 332.25 1267.5 332.25 1268.55 331.45 1269.55 330.65 1270.15 329.3 1270.7 327.85 1270.7 326.45 1270.7 324.75 1269.75 323.9
M 1268.35 325.9
Q 1268.35 326.7 1268.05 327.9 1267.85 329.1 1267.4 329.85 1266.95 330.6 1266.4 330.6 1265.45 330.6 1265.45 329.3
L 1265.45 329.25
Q 1265.45 328.5 1265.7 327.35 1265.9 326.15 1266.35 325.45 1266.8 324.7 1267.4 324.7 1267.85 324.7 1268.05 325.05 1268.35 325.35 1268.35 325.9
M 1271.6 325.8
Q 1271.6 326.7 1272.2 327.2 1272.7 327.7 1273.65 327.7 1274.95 327.7 1275.65 326.9 1276.3 326 1276.3 324.9 1276.3 324 1275.75 323.55 1275.2 323.05 1274.25 323.05 1273 323.05 1272.3 323.85 1271.6 324.65 1271.6 325.8
M 1274.6 324.2
Q 1274.8 324.3 1274.8 324.6 1274.8 325.35 1274.5 326 1274.2 326.7 1273.65 326.7 1273.45 326.7 1273.3 326.55 1273.15 326.4 1273.15 326.05 1273.15 325.8 1273.35 325.15 1273.45 324.5 1273.75 324.3 1274 324.05 1274.25 324.05 1274.45 324.05 1274.6 324.2
M 1275.55 317.1
Q 1275.55 316.4 1275.05 315.85 1274.6 315.35 1273.55 315.35 1272.75 315.35 1272.25 315.65 1271.7 315.95 1271.4 316.5 1271.1 317.05 1271.1 317.65 1271.1 318.35 1271.6 318.9 1272.1 319.4 1273.1 319.4 1273.9 319.4 1274.45 319.05 1274.95 318.75 1275.25 318.15 1275.55 317.65 1275.55 317.1
M 1273.5 316.35
Q 1273.75 316.35 1273.9 316.5 1274.1 316.65 1274.1 317 1274.1 317.55 1273.8 317.95 1273.6 318.35 1273.15 318.35 1272.9 318.35 1272.75 318.15 1272.55 317.95 1272.55 317.65 1272.55 317.2 1272.75 316.75 1273 316.35 1273.5 316.35
M 1268.45 319.3
L 1269.9 319.3 1270.75 315.45 1269.25 315.45 1268.45 319.3
M 1270.85 315
L 1271.05 313.95 1269.6 313.95 1269.35 315 1270.85 315
M 1265.6 315.45
L 1265.4 316.5 1265.9 316.5 1265.65 317.8
Q 1265.55 318.3 1265.55 318.45 1265.55 318.8 1265.75 319.1 1266.05 319.4 1266.65 319.4 1267 319.4 1267.65 319.3
L 1267.9 318.25
Q 1267.5 318.3 1267.4 318.3 1267.05 318.3 1267.05 318.05 1267.05 317.95 1267.1 317.85
L 1267.4 316.5 1268.15 316.5 1268.35 315.45 1267.6 315.45 1267.9 314 1266.25 314.85 1266.15 315.45 1265.6 315.45
M 1263.25 316.3
Q 1263.4 316.4 1263.4 316.55 1263.4 316.65 1263.35 316.8 1263.15 316.85 1262.5 316.9 1261.75 317 1261.35 317.1 1260.95 317.2 1260.65 317.5 1260.35 317.75 1260.35 318.25 1260.35 318.7 1260.7 319 1261 319.4 1261.75 319.4 1262.45 319.4 1263 318.85 1263 319.05 1263.1 319.3
L 1264.55 319.3
Q 1264.45 319 1264.45 318.75 1264.45 318.45 1264.6 317.65 1264.8 316.8 1264.8 316.45 1264.8 315.95 1264.45 315.65 1264 315.35 1262.9 315.35 1261.85 315.35 1261.4 315.65 1260.9 315.95 1260.8 316.5
L 1262.15 316.65
Q 1262.3 316.4 1262.45 316.3 1262.6 316.25 1262.85 316.25 1263.1 316.25 1263.25 316.3
M 1262.25 318.55
Q 1262.05 318.55 1261.95 318.45 1261.8 318.35 1261.8 318.15 1261.8 318 1262 317.85 1262.15 317.75 1263.2 317.6 1263.1 318.1 1262.8 318.35 1262.55 318.55 1262.25 318.55
M 1258.8 315.35
Q 1258.4 315.35 1258.1 315.5 1257.7 315.65 1257.3 316 1257.2 315.7 1256.95 315.5 1256.65 315.35 1256.3 315.35 1255.5 315.35 1254.85 316
L 1254.95 315.45 1253.6 315.45 1252.75 319.3 1254.25 319.3 1254.65 317.45
Q 1254.75 316.9 1255.05 316.65 1255.25 316.45 1255.5 316.45 1255.8 316.45 1255.8 316.7 1255.8 316.8 1255.8 316.9 1255.75 317 1255.6 317.7
L 1255.25 319.3 1256.75 319.3 1257.15 317.6
Q 1257.25 317 1257.45 316.7 1257.7 316.45 1258 316.45 1258.3 316.45 1258.3 316.7 1258.3 316.8 1258.3 316.9 1258.25 317 1258.1 317.65
L 1257.75 319.3 1259.25 319.3 1259.8 316.75
Q 1259.85 316.55 1259.85 316.3 1259.85 315.9 1259.6 315.65 1259.35 315.35 1258.8 315.35
M 1278.05 315.45
L 1276.65 315.45 1275.85 319.3 1277.3 319.3 1277.65 317.6
Q 1277.8 317.05 1278.05 316.7 1278.3 316.45 1278.6 316.45 1278.9 316.45 1278.9 316.75 1278.9 316.85 1278.75 317.5
L 1278.4 319.3 1279.85 319.3 1280.3 317.2
Q 1280.45 316.5 1280.45 316.25 1280.45 315.85 1280.2 315.6 1279.95 315.35 1279.4 315.35 1278.5 315.35 1277.95 316.05
L 1277.9 316.05 1278.05 315.45 Z"/>
</g>
</defs>

<g transform="matrix( 1, 0, 0, 1, -1177.55,-94.95) ">
<use xlink:href="#Layer0_0_FILL"/>
</g>

<g transform="matrix( 1, 0, 0, 1, -1177.55,-94.95) ">
<use xlink:href="#Layer0_0_MEMBER_0_FILL"/>
</g>

<g transform="matrix( 1, 0, 0, 1, -1177.55,-94.95) ">
<use xlink:href="#Layer0_0_MEMBER_0_MEMBER_0_FILL"/>
</g>

<g transform="matrix( 1, 0, 0, 1, -1177.55,-94.95) ">
<use xlink:href="#Layer0_0_MEMBER_1_FILL"/>
</g>

<g transform="matrix( 1, 0, 0, 1, -1177.55,-94.95) ">
<use xlink:href="#Layer0_0_MEMBER_2_FILL"/>
</g>

<g transform="matrix( 1, 0, 0, 1, -1177.55,-94.95) ">
<use xlink:href="#Layer0_0_MEMBER_3_FILL"/>
</g>

<g transform="matrix( 1, 0, 0, 1, -1177.55,-94.95) ">
<use xlink:href="#Layer0_0_MEMBER_4_FILL"/>
</g>

<g transform="matrix( 1, 0, 0, 1, -1177.55,-94.95) ">
<use xlink:href="#Layer0_0_MEMBER_4_MEMBER_0_FILL"/>
</g>

<g transform="matrix( 1, 0, 0, 1, -1177.55,-94.95) ">
<use xlink:href="#Layer0_0_MEMBER_4_MEMBER_0_MEMBER_0_FILL"/>
</g>

<g transform="matrix( 1, 0, 0, 1, -1177.55,-94.95) ">
<use xlink:href="#Layer0_0_MEMBER_4_MEMBER_1_FILL"/>
</g>

<g transform="matrix( 1, 0, 0, 1, -1177.55,-94.95) ">
<use xlink:href="#Layer0_0_MEMBER_4_MEMBER_2_FILL"/>
</g>

<g transform="matrix( 1, 0, 0, 1, -1177.55,-94.95) ">
<use xlink:href="#Layer0_0_MEMBER_5_MEMBER_0_FILL"/>
</g>

<g transform="matrix( 1, 0, 0, 1, -1177.55,-94.95) ">
<use xlink:href="#Layer0_0_MEMBER_5_MEMBER_1_FILL"/>
</g>

<g transform="matrix( 1, 0, 0, 1, -1177.55,-94.95) ">
<use xlink:href="#Layer0_0_MEMBER_5_MEMBER_1_MEMBER_0_FILL"/>
</g>

<g transform="matrix( 1, 0, 0, 1, -1177.55,-94.95) ">
<use xlink:href="#Layer0_0_MEMBER_6_FILL"/>
</g>

<g transform="matrix( 1, 0, 0, 1, -1177.55,-94.95) ">
<use xlink:href="#Layer0_0_MEMBER_6_MEMBER_0_FILL"/>
</g>

<g transform="matrix( 1, 0, 0, 1, -1177.55,-94.95) ">
<use xlink:href="#Layer0_0_MEMBER_7_FILL"/>
</g>

<g transform="matrix( 1, 0, 0, 1, -1177.55,-94.95) ">
<use xlink:href="#Layer0_0_MEMBER_7_MEMBER_0_FILL"/>
</g>

<g transform="matrix( 1, 0, 0, 1, -1177.55,-94.95) ">
<use xlink:href="#Layer0_0_MEMBER_7_MEMBER_1_FILL"/>
</g>

<g transform="matrix( 1, 0, 0, 1, -1177.55,-94.95) ">
<use xlink:href="#Layer0_0_MEMBER_7_MEMBER_2_FILL"/>
</g>
</svg>
