
<svg xmlns="http://www.w3.org/2000/svg" version="1.1" xmlns:xlink="http://www.w3.org/1999/xlink" preserveAspectRatio="none" x="0px" y="0px" width="171px" height="367px" viewBox="0 0 171 367">
<defs>
<g id="Layer1_0_FILL">
<path fill="#99D6E5" stroke="none" d="
M 164.5 347.8
L 164.5 99.15 5.95 99.15 5.95 347.8 164.5 347.8 Z"/>

<path fill="#1A7D8D" stroke="none" d="
M 5.95 347.8
L 5.95 367 164.5 367 164.5 347.8 5.95 347.8
M 164.5 99.15
L 170.4 99.15 170.4 86.15 0 86.15 0 99.15 5.95 99.15 164.5 99.15 Z"/>
</g>

<g id="Layer1_1_FILL">
<path fill="#4CA3B8" stroke="none" d="
M 56.55 295.45
L 56.55 357.4 113.7 357.4 113.7 295.45 56.55 295.45
M 58.85 299.45
L 58.85 297.25 73.75 297.25 82.95 297.25 82.95 299.45 82.95 302.35 82.95 318.8 82.95 322.1 82.95 333.75 82.95 342.45 82.95 355.45 69.95 355.45 58.85 355.45 58.85 342.85 58.85 333.75 58.85 326.45 58.85 322.1 58.85 312.15 58.85 299.45
M 102.3 297.25
L 111.5 297.25 111.5 299.45 111.5 302.35 111.5 318.8 111.5 322.1 111.5 333.75 111.5 342.45 111.5 355.45 98.5 355.45 87.4 355.45 87.4 342.85 87.4 333.75 87.4 326.45 87.4 322.1 87.4 312.15 87.4 299.45 87.4 297.25 102.3 297.25
M 91.3 329.45
Q 92.3 330.4 93.65 330.4
L 99.85 330.4 105.15 330.4
Q 106.5 330.4 107.45 329.45 108.45 328.5 108.45 327.15
L 108.45 326.6 106.05 326.6 106.05 326.8
Q 106.05 327.55 105.35 328 104.65 328.5 103.65 328.5
L 101.75 328.5 95.1 328.5
Q 94.05 328.5 93.35 328 92.6 327.55 92.6 326.8
L 92.6 326.6 90.35 326.6 90.35 327.15
Q 90.35 328.5 91.3 329.45
M 79.85 327.15
L 79.85 326.6 77.5 326.6 77.5 326.8
Q 77.5 327.55 76.8 328 76.1 328.5 75.05 328.5
L 73.2 328.5 66.55 328.5
Q 65.5 328.5 64.8 328 64.05 327.55 64.05 326.8
L 64.05 326.6 61.8 326.6 61.8 327.15
Q 61.8 328.5 62.75 329.45 63.75 330.4 65.1 330.4
L 71.3 330.4 76.6 330.4
Q 77.95 330.4 78.9 329.45 79.85 328.5 79.85 327.15 Z"/>

<path fill="#DAE9F3" stroke="none" d="
M 98.5 355.45
L 111.5 355.45 111.5 342.45 98.5 355.45
M 87.4 342.85
L 96.5 333.75 87.4 333.75 87.4 342.85
M 87.4 312.15
L 100.1 299.45 87.4 299.45 87.4 312.15
M 111.5 318.8
L 111.5 302.35 91.75 322.1 108.15 322.1 111.5 318.8
M 82.95 355.45
L 82.95 342.45 69.95 355.45 82.95 355.45
M 63.2 322.1
L 79.6 322.1 82.95 318.8 82.95 302.35 63.2 322.1
M 58.85 333.75
L 58.85 342.85 67.95 333.75 58.85 333.75
M 58.85 299.45
L 58.85 312.15 71.5 299.45 58.85 299.45 Z"/>

<path fill="#FFFFFF" stroke="none" d="
M 108.15 322.1
L 111.5 322.1 111.5 318.8 108.15 322.1
M 96.5 333.75
L 87.4 342.85 87.4 355.45 98.5 355.45 111.5 342.45 111.5 333.75 96.5 333.75
M 111.5 302.35
L 111.5 299.45 100.1 299.45 87.4 312.15 87.4 322.1 91.75 322.1 111.5 302.35
M 82.95 322.1
L 82.95 318.8 79.6 322.1 82.95 322.1
M 67.95 333.75
L 58.85 342.85 58.85 355.45 69.95 355.45 82.95 342.45 82.95 333.75 67.95 333.75
M 71.5 299.45
L 58.85 312.15 58.85 322.1 63.2 322.1 82.95 302.35 82.95 299.45 71.5 299.45 Z"/>

<path fill="#E9E9E9" stroke="none" d="
M 87.4 322.1
L 87.4 326.45 91.75 322.1 87.4 322.1
M 99.85 330.4
L 96.5 333.75 111.5 333.75 111.5 322.1 108.15 322.1 101.75 328.5 103.65 328.5
Q 104.65 328.5 105.35 328 106.05 327.55 106.05 326.8
L 106.05 326.6 108.45 326.6 108.45 327.15
Q 108.45 328.5 107.45 329.45 106.5 330.4 105.15 330.4
L 99.85 330.4
M 79.85 326.6
L 79.85 327.15
Q 79.85 328.5 78.9 329.45 77.95 330.4 76.6 330.4
L 71.3 330.4 67.95 333.75 82.95 333.75 82.95 322.1 79.6 322.1 73.2 328.5 75.05 328.5
Q 76.1 328.5 76.8 328 77.5 327.55 77.5 326.8
L 77.5 326.6 79.85 326.6
M 58.85 322.1
L 58.85 326.45 63.2 322.1 58.85 322.1 Z"/>

<path fill="#C3E2E9" stroke="none" d="
M 93.65 330.4
Q 92.3 330.4 91.3 329.45 90.35 328.5 90.35 327.15
L 90.35 326.6 92.6 326.6 92.6 326.8
Q 92.6 327.55 93.35 328 94.05 328.5 95.1 328.5
L 101.75 328.5 108.15 322.1 91.75 322.1 87.4 326.45 87.4 333.75 96.5 333.75 99.85 330.4 93.65 330.4
M 58.85 326.45
L 58.85 333.75 67.95 333.75 71.3 330.4 65.1 330.4
Q 63.75 330.4 62.75 329.45 61.8 328.5 61.8 327.15
L 61.8 326.6 64.05 326.6 64.05 326.8
Q 64.05 327.55 64.8 328 65.5 328.5 66.55 328.5
L 73.2 328.5 79.6 322.1 63.2 322.1 58.85 326.45 Z"/>

<path fill="#B1C7D7" stroke="none" d="
M 87.4 299.45
L 100.1 299.45 102.3 297.25 87.4 297.25 87.4 299.45
M 71.5 299.45
L 73.75 297.25 58.85 297.25 58.85 299.45 71.5 299.45 Z"/>

<path fill="#CCCCCC" stroke="none" d="
M 111.5 297.25
L 102.3 297.25 100.1 299.45 111.5 299.45 111.5 297.25
M 73.75 297.25
L 71.5 299.45 82.95 299.45 82.95 297.25 73.75 297.25 Z"/>

<path fill="#99D6E5" stroke="none" d="
M 56.55 357.4
L 52.75 357.4 52.75 362.2 47.5 362.2 47.5 367 122.9 367 122.9 362.2 117.65 362.2 117.65 357.4 113.7 357.4 56.55 357.4 Z"/>
</g>

<g id="Layer1_1_MEMBER_0_FILL">
<path fill="#1A7D8D" stroke="none" d="
M 117.65 295.45
L 117.65 290.65 52.75 290.65 52.75 295.45 117.65 295.45 Z"/>
</g>

<g id="Layer1_2_FILL">
<path fill="#FFFFFF" stroke="none" d="
M 147.05 278.3
Q 149.3 276.05 149.3 272.85 149.3 269.65 147.05 267.4 144.75 265.15 141.6 265.15
L 27.9 265.15
Q 24.75 265.15 22.45 267.4 20.2 269.65 20.2 272.85 20.2 276.05 22.45 278.3 24.75 280.55 27.9 280.55
L 141.6 280.55
Q 144.75 280.55 147.05 278.3
M 103.05 270.55
L 102.85 271.55 102.85 271.6
Q 103.9 270.4 105.45 270.4 106.35 270.4 106.8 270.9 107.25 271.35 107.25 272 107.25 272.4 107 273.55
L 106.2 277.2 103.7 277.2 104.35 274.1
Q 104.6 273 104.6 272.8 104.6 272.25 104.1 272.25 103.5 272.25 103.1 272.8 102.7 273.3 102.5 274.35
L 101.85 277.2 99.3 277.2 100.7 270.55 103.05 270.55
M 108.8 270.3
L 109.25 268 117.9 268 117.45 270.3 114.45 270.3 112.95 277.2 110.15 277.2 111.6 270.3 108.8 270.3
M 118.5 270.55
L 121.1 270.55 119.65 277.2 117.1 277.2 118.5 270.55
M 118.7 269.8
L 119.05 268 121.6 268 121.25 269.8 118.7 269.8
M 86.85 270.6
Q 87.3 270.4 87.9 270.4 89 270.4 89.65 271.15 90.2 271.9 90.2 273.15 90.2 274.85 89.35 276.1 88.4 277.35 87.05 277.35 85.65 277.35 84.95 276.3
L 84.2 279.7 81.7 279.7 83.65 270.55 86 270.55 85.85 271.25 85.9 271.25
Q 86.45 270.75 86.85 270.6
M 93.9 270.6
Q 94.55 270.4 95.4 270.4 97.25 270.4 98.05 271.2 98.85 272.05 98.85 273.2 98.85 273.55 98.7 274.5
L 93.65 274.5
Q 93.75 275.85 94.85 275.85 95.6 275.85 96 275.25
L 98.45 275.5
Q 97.9 276.45 97 276.9 96.1 277.35 94.75 277.35 92.8 277.35 92 276.45 91.15 275.6 91.15 274.3 91.15 273.4 91.55 272.6 91.95 271.85 92.6 271.3 93.25 270.8 93.9 270.6
M 81.7 273.2
Q 81.55 274 81 274.85 80.5 275.75 79.65 276.35 78.85 276.9 78.1 277.15 77.3 277.35 76.45 277.35 74.5 277.35 73.4 276.35 72.3 275.35 72.3 273.55 72.3 272.6 72.6 271.75 72.85 270.85 73.4 270.05 73.9 269.25 74.7 268.75 75.5 268.2 76.3 268.05 77.05 267.9 77.85 267.9 79.95 267.9 80.9 269 81.9 270.1 81.9 271.75 81.9 272.4 81.7 273.2
M 124.9 270.4
Q 126.25 270.4 127 271.45
L 127.7 268 130.25 268 128.25 277.2 125.95 277.2 126.05 276.55 126.05 276.5
Q 125.5 277 125.05 277.15 124.65 277.35 124.05 277.35 122.9 277.35 122.35 276.6 121.7 275.85 121.7 274.6 121.7 272.9 122.6 271.65 123.5 270.4 124.9 270.4
M 131.65 271.3
Q 132.3 270.8 132.95 270.6 133.6 270.4 134.5 270.4 136.3 270.4 137.15 271.2 137.95 272.05 137.95 273.2 137.95 273.55 137.75 274.5
L 132.7 274.5
Q 132.8 275.85 133.9 275.85 134.65 275.85 135.05 275.25
L 137.55 275.5
Q 137 276.45 136.1 276.9 135.15 277.35 133.85 277.35 131.9 277.35 131.05 276.45 130.2 275.6 130.2 274.3 130.2 273.4 130.6 272.6 131 271.85 131.65 271.3
M 33.2 270.8
Q 33.75 269.45 35 268.65 36.15 267.9 37.85 267.9 39.55 267.9 40.55 268.75 41.55 269.6 41.7 271.05
L 39.1 271.35 39.1 271.25
Q 39.1 270.6 38.75 270.3 38.35 269.95 37.85 269.95 37.2 269.95 36.65 270.4 36.05 270.9 35.65 271.85 35.3 272.75 35.3 273.65 35.3 274.35 35.65 274.8 36.05 275.25 36.75 275.25 37.4 275.25 37.9 274.85 38.3 274.45 38.65 273.55
L 41.3 274
Q 40.85 275.4 39.7 276.35 38.5 277.35 36.65 277.35 34.6 277.35 33.6 276.3 32.55 275.25 32.55 273.45 32.55 272.15 33.2 270.8
M 60.8 268
L 63.35 268 63 269.8 60.4 269.8 60.8 268
M 65.05 268
L 67.6 268 65.65 277.2 63.1 277.2 65.05 268
M 43.7 268
L 46.25 268 45.55 271.35
Q 46.5 270.4 47.95 270.4 48.8 270.4 49.3 270.9 49.7 271.35 49.7 272 49.7 272.4 49.45 273.55
L 48.7 277.2 46.15 277.2 46.8 274.1
Q 47.05 273 47.05 272.8 47.05 272.25 46.55 272.25 45.95 272.25 45.55 272.8 45.15 273.3 44.95 274.35
L 44.3 277.2 41.75 277.2 43.7 268
M 53.4 270.6
Q 54 270.4 54.9 270.4 56.75 270.4 57.55 271.2 58.35 272.05 58.35 273.2 58.35 273.55 58.2 274.5
L 53.1 274.5
Q 53.2 275.85 54.35 275.85 55.05 275.85 55.5 275.25
L 57.95 275.5
Q 57.4 276.45 56.5 276.9 55.6 277.35 54.25 277.35 52.3 277.35 51.5 276.45 50.65 275.6 50.65 274.3 50.65 273.4 51 272.6 51.4 271.85 52.05 271.3 52.75 270.8 53.4 270.6
M 62.8 270.55
L 61.35 277.2 58.85 277.2 60.25 270.55 62.8 270.55
M 55.6 272.15
Q 55.25 271.9 54.85 271.9 54.35 271.9 53.95 272.25 53.6 272.6 53.35 273.3
L 55.8 273.3
Q 55.9 273.15 55.9 272.9 55.9 272.4 55.6 272.15
M 135.15 272.15
Q 134.85 271.9 134.4 271.9 133.9 271.9 133.55 272.25 133.15 272.6 132.95 273.3
L 135.4 273.3
Q 135.45 273.15 135.45 272.9 135.45 272.4 135.15 272.15
M 126.55 273.3
Q 126.55 272.7 126.25 272.4 125.95 272.1 125.55 272.1 125 272.1 124.6 272.8 124.2 273.55 124.2 274.5 124.2 275.1 124.45 275.4 124.65 275.65 125.05 275.65 125.8 275.65 126.15 274.9 126.55 274.1 126.55 273.3
M 77.55 269.95
Q 76.8 269.95 76.2 270.5 75.65 271.1 75.35 272.05 75.05 273 75.05 273.65 75.05 274.35 75.5 274.8 75.9 275.25 76.65 275.25 77.45 275.25 78.05 274.6 78.6 274.05 78.85 273.1 79.1 272.15 79.1 271.75 79.1 270.85 78.7 270.4 78.25 269.95 77.55 269.95
M 96.1 272.15
Q 95.75 271.9 95.35 271.9 94.85 271.9 94.45 272.25 94.1 272.6 93.85 273.3
L 96.35 273.3
Q 96.4 273.15 96.4 272.9 96.4 272.4 96.1 272.15
M 87.7 273.2
Q 87.7 272.6 87.45 272.35 87.25 272.05 86.85 272.05 86.15 272.05 85.8 272.85 85.4 273.65 85.4 274.5 85.4 275.05 85.7 275.35 86 275.65 86.4 275.65 86.95 275.65 87.35 274.9 87.7 274.25 87.7 273.2 Z"/>

<path fill="#666666" stroke="none" d="
M 61.35 277.2
L 62.8 270.55 60.25 270.55 58.85 277.2 61.35 277.2
M 54.9 270.4
Q 54 270.4 53.4 270.6 52.75 270.8 52.05 271.3 51.4 271.85 51 272.6 50.65 273.4 50.65 274.3 50.65 275.6 51.5 276.45 52.3 277.35 54.25 277.35 55.6 277.35 56.5 276.9 57.4 276.45 57.95 275.5
L 55.5 275.25
Q 55.05 275.85 54.35 275.85 53.2 275.85 53.1 274.5
L 58.2 274.5
Q 58.35 273.55 58.35 273.2 58.35 272.05 57.55 271.2 56.75 270.4 54.9 270.4
M 54.85 271.9
Q 55.25 271.9 55.6 272.15 55.9 272.4 55.9 272.9 55.9 273.15 55.8 273.3
L 53.35 273.3
Q 53.6 272.6 53.95 272.25 54.35 271.9 54.85 271.9
M 46.25 268
L 43.7 268 41.75 277.2 44.3 277.2 44.95 274.35
Q 45.15 273.3 45.55 272.8 45.95 272.25 46.55 272.25 47.05 272.25 47.05 272.8 47.05 273 46.8 274.1
L 46.15 277.2 48.7 277.2 49.45 273.55
Q 49.7 272.4 49.7 272 49.7 271.35 49.3 270.9 48.8 270.4 47.95 270.4 46.5 270.4 45.55 271.35
L 46.25 268
M 67.6 268
L 65.05 268 63.1 277.2 65.65 277.2 67.6 268
M 63.35 268
L 60.8 268 60.4 269.8 63 269.8 63.35 268
M 35 268.65
Q 33.75 269.45 33.2 270.8 32.55 272.15 32.55 273.45 32.55 275.25 33.6 276.3 34.6 277.35 36.65 277.35 38.5 277.35 39.7 276.35 40.85 275.4 41.3 274
L 38.65 273.55
Q 38.3 274.45 37.9 274.85 37.4 275.25 36.75 275.25 36.05 275.25 35.65 274.8 35.3 274.35 35.3 273.65 35.3 272.75 35.65 271.85 36.05 270.9 36.65 270.4 37.2 269.95 37.85 269.95 38.35 269.95 38.75 270.3 39.1 270.6 39.1 271.25
L 39.1 271.35 41.7 271.05
Q 41.55 269.6 40.55 268.75 39.55 267.9 37.85 267.9 36.15 267.9 35 268.65
M 132.95 270.6
Q 132.3 270.8 131.65 271.3 131 271.85 130.6 272.6 130.2 273.4 130.2 274.3 130.2 275.6 131.05 276.45 131.9 277.35 133.85 277.35 135.15 277.35 136.1 276.9 137 276.45 137.55 275.5
L 135.05 275.25
Q 134.65 275.85 133.9 275.85 132.8 275.85 132.7 274.5
L 137.75 274.5
Q 137.95 273.55 137.95 273.2 137.95 272.05 137.15 271.2 136.3 270.4 134.5 270.4 133.6 270.4 132.95 270.6
M 134.4 271.9
Q 134.85 271.9 135.15 272.15 135.45 272.4 135.45 272.9 135.45 273.15 135.4 273.3
L 132.95 273.3
Q 133.15 272.6 133.55 272.25 133.9 271.9 134.4 271.9
M 127 271.45
Q 126.25 270.4 124.9 270.4 123.5 270.4 122.6 271.65 121.7 272.9 121.7 274.6 121.7 275.85 122.35 276.6 122.9 277.35 124.05 277.35 124.65 277.35 125.05 277.15 125.5 277 126.05 276.5
L 126.05 276.55 125.95 277.2 128.25 277.2 130.25 268 127.7 268 127 271.45
M 126.25 272.4
Q 126.55 272.7 126.55 273.3 126.55 274.1 126.15 274.9 125.8 275.65 125.05 275.65 124.65 275.65 124.45 275.4 124.2 275.1 124.2 274.5 124.2 273.55 124.6 272.8 125 272.1 125.55 272.1 125.95 272.1 126.25 272.4
M 81 274.85
Q 81.55 274 81.7 273.2 81.9 272.4 81.9 271.75 81.9 270.1 80.9 269 79.95 267.9 77.85 267.9 77.05 267.9 76.3 268.05 75.5 268.2 74.7 268.75 73.9 269.25 73.4 270.05 72.85 270.85 72.6 271.75 72.3 272.6 72.3 273.55 72.3 275.35 73.4 276.35 74.5 277.35 76.45 277.35 77.3 277.35 78.1 277.15 78.85 276.9 79.65 276.35 80.5 275.75 81 274.85
M 76.2 270.5
Q 76.8 269.95 77.55 269.95 78.25 269.95 78.7 270.4 79.1 270.85 79.1 271.75 79.1 272.15 78.85 273.1 78.6 274.05 78.05 274.6 77.45 275.25 76.65 275.25 75.9 275.25 75.5 274.8 75.05 274.35 75.05 273.65 75.05 273 75.35 272.05 75.65 271.1 76.2 270.5
M 95.4 270.4
Q 94.55 270.4 93.9 270.6 93.25 270.8 92.6 271.3 91.95 271.85 91.55 272.6 91.15 273.4 91.15 274.3 91.15 275.6 92 276.45 92.8 277.35 94.75 277.35 96.1 277.35 97 276.9 97.9 276.45 98.45 275.5
L 96 275.25
Q 95.6 275.85 94.85 275.85 93.75 275.85 93.65 274.5
L 98.7 274.5
Q 98.85 273.55 98.85 273.2 98.85 272.05 98.05 271.2 97.25 270.4 95.4 270.4
M 95.35 271.9
Q 95.75 271.9 96.1 272.15 96.4 272.4 96.4 272.9 96.4 273.15 96.35 273.3
L 93.85 273.3
Q 94.1 272.6 94.45 272.25 94.85 271.9 95.35 271.9
M 87.9 270.4
Q 87.3 270.4 86.85 270.6 86.45 270.75 85.9 271.25
L 85.85 271.25 86 270.55 83.65 270.55 81.7 279.7 84.2 279.7 84.95 276.3
Q 85.65 277.35 87.05 277.35 88.4 277.35 89.35 276.1 90.2 274.85 90.2 273.15 90.2 271.9 89.65 271.15 89 270.4 87.9 270.4
M 87.45 272.35
Q 87.7 272.6 87.7 273.2 87.7 274.25 87.35 274.9 86.95 275.65 86.4 275.65 86 275.65 85.7 275.35 85.4 275.05 85.4 274.5 85.4 273.65 85.8 272.85 86.15 272.05 86.85 272.05 87.25 272.05 87.45 272.35
M 119.05 268
L 118.7 269.8 121.25 269.8 121.6 268 119.05 268
M 121.1 270.55
L 118.5 270.55 117.1 277.2 119.65 277.2 121.1 270.55
M 109.25 268
L 108.8 270.3 111.6 270.3 110.15 277.2 112.95 277.2 114.45 270.3 117.45 270.3 117.9 268 109.25 268
M 102.85 271.55
L 103.05 270.55 100.7 270.55 99.3 277.2 101.85 277.2 102.5 274.35
Q 102.7 273.3 103.1 272.8 103.5 272.25 104.1 272.25 104.6 272.25 104.6 272.8 104.6 273 104.35 274.1
L 103.7 277.2 106.2 277.2 107 273.55
Q 107.25 272.4 107.25 272 107.25 271.35 106.8 270.9 106.35 270.4 105.45 270.4 103.9 270.4 102.85 271.6
L 102.85 271.55 Z"/>
</g>

<g id="Layer1_3_FILL">
<path fill="#DAE9F3" stroke="none" d="
M 18.8 332.7
L 35.6 332.7 35.6 317.9 18.8 317.9 18.8 332.7
M 35.6 313.05
L 35.6 297.85 18.8 297.85 18.8 313.05 35.6 313.05
M 134.85 317.9
L 134.85 332.7 151.6 332.7 151.6 317.9 134.85 317.9
M 151.6 313.05
L 151.6 297.85 134.85 297.85 134.85 313.05 151.6 313.05 Z"/>

<path fill="#B1C7D7" stroke="none" d="
M 35.6 317.9
L 35.6 315.1 18.8 315.1 18.8 317.9 35.6 317.9
M 35.6 295.45
L 18.8 295.45 18.8 297.85 35.6 297.85 35.6 295.45
M 151.6 317.9
L 151.6 315.1 134.85 315.1 134.85 317.9 151.6 317.9
M 151.6 295.45
L 134.85 295.45 134.85 297.85 151.6 297.85 151.6 295.45 Z"/>

<path fill="#4CA3B8" stroke="none" d="
M 40.7 337.5
L 40.7 332.7 37.6 332.7 35.6 332.7 18.8 332.7 16.45 332.7 13.65 332.7 13.65 337.5 40.7 337.5
M 35.6 295.45
L 37.6 295.45 40.7 295.45 40.7 290.65 13.65 290.65 13.65 295.45 16.45 295.45 18.8 295.45 35.6 295.45
M 134.85 332.7
L 132.5 332.7 129.7 332.7 129.7 337.5 156.75 337.5 156.75 332.7 153.65 332.7 151.6 332.7 134.85 332.7
M 156.75 290.65
L 129.7 290.65 129.7 295.45 132.5 295.45 134.85 295.45 151.6 295.45 153.65 295.45 156.75 295.45 156.75 290.65 Z"/>

<path fill="#FFFFFF" stroke="none" d="
M 37.6 295.45
L 35.6 295.45 35.6 297.85 35.6 313.05 18.8 313.05 18.8 297.85 18.8 295.45 16.45 295.45 16.45 332.7 18.8 332.7 18.8 317.9 18.8 315.1 35.6 315.1 35.6 317.9 35.6 332.7 37.6 332.7 37.6 295.45
M 153.65 295.45
L 151.6 295.45 151.6 297.85 151.6 313.05 134.85 313.05 134.85 297.85 134.85 295.45 132.5 295.45 132.5 332.7 134.85 332.7 134.85 317.9 134.85 315.1 151.6 315.1 151.6 317.9 151.6 332.7 153.65 332.7 153.65 295.45 Z"/>
</g>

<g id="Layer1_4_FILL">
<path fill="#4CA3B8" stroke="none" d="
M 118.05 156.35
L 118.05 151.55 114.95 151.55 112.95 151.55 96.15 151.55 93.8 151.55 91 151.55 91 156.35 118.05 156.35
M 114.95 114.35
L 118.05 114.35 118.05 109.55 91 109.55 91 114.35 93.8 114.35 96.15 114.35 112.95 114.35 114.95 114.35
M 156.75 156.35
L 156.75 151.55 153.65 151.55 151.6 151.55 134.85 151.55 132.5 151.55 129.7 151.55 129.7 156.35 156.75 156.35
M 153.65 114.35
L 156.75 114.35 156.75 109.55 129.7 109.55 129.7 114.35 132.5 114.35 134.85 114.35 151.6 114.35 153.65 114.35
M 37.6 151.55
L 35.6 151.55 18.8 151.55 16.45 151.55 13.65 151.55 13.65 156.35 40.7 156.35 40.7 151.55 37.6 151.55
M 40.7 114.35
L 40.7 109.55 13.65 109.55 13.65 114.35 16.45 114.35 18.8 114.35 35.6 114.35 37.6 114.35 40.7 114.35
M 79.4 151.55
L 76.3 151.55 74.25 151.55 57.5 151.55 55.15 151.55 52.35 151.55 52.35 156.35 79.4 156.35 79.4 151.55
M 79.4 114.35
L 79.4 109.55 52.35 109.55 52.35 114.35 55.15 114.35 57.5 114.35 74.25 114.35 76.3 114.35 79.4 114.35 Z"/>

<path fill="#DAE9F3" stroke="none" d="
M 112.95 136.8
L 96.15 136.8 96.15 151.55 112.95 151.55 112.95 136.8
M 112.95 116.75
L 96.15 116.75 96.15 131.9 112.95 131.9 112.95 116.75
M 151.6 136.8
L 134.85 136.8 134.85 151.55 151.6 151.55 151.6 136.8
M 151.6 116.75
L 134.85 116.75 134.85 131.9 151.6 131.9 151.6 116.75
M 18.8 131.9
L 35.6 131.9 35.6 116.75 18.8 116.75 18.8 131.9
M 35.6 136.8
L 18.8 136.8 18.8 151.55 35.6 151.55 35.6 136.8
M 74.25 136.8
L 57.5 136.8 57.5 151.55 74.25 151.55 74.25 136.8
M 74.25 116.75
L 57.5 116.75 57.5 131.9 74.25 131.9 74.25 116.75 Z"/>

<path fill="#B1C7D7" stroke="none" d="
M 96.15 134
L 96.15 136.8 112.95 136.8 112.95 134 96.15 134
M 112.95 116.75
L 112.95 114.35 96.15 114.35 96.15 116.75 112.95 116.75
M 134.85 134
L 134.85 136.8 151.6 136.8 151.6 134 134.85 134
M 151.6 116.75
L 151.6 114.35 134.85 114.35 134.85 116.75 151.6 116.75
M 18.8 134
L 18.8 136.8 35.6 136.8 35.6 134 18.8 134
M 35.6 116.75
L 35.6 114.35 18.8 114.35 18.8 116.75 35.6 116.75
M 57.5 134
L 57.5 136.8 74.25 136.8 74.25 134 57.5 134
M 74.25 116.75
L 74.25 114.35 57.5 114.35 57.5 116.75 74.25 116.75 Z"/>

<path fill="#FFFFFF" stroke="none" d="
M 112.95 114.35
L 112.95 116.75 112.95 131.9 96.15 131.9 96.15 116.75 96.15 114.35 93.8 114.35 93.8 151.55 96.15 151.55 96.15 136.8 96.15 134 112.95 134 112.95 136.8 112.95 151.55 114.95 151.55 114.95 114.35 112.95 114.35
M 151.6 114.35
L 151.6 116.75 151.6 131.9 134.85 131.9 134.85 116.75 134.85 114.35 132.5 114.35 132.5 151.55 134.85 151.55 134.85 136.8 134.85 134 151.6 134 151.6 136.8 151.6 151.55 153.65 151.55 153.65 114.35 151.6 114.35
M 35.6 114.35
L 35.6 116.75 35.6 131.9 18.8 131.9 18.8 116.75 18.8 114.35 16.45 114.35 16.45 151.55 18.8 151.55 18.8 136.8 18.8 134 35.6 134 35.6 136.8 35.6 151.55 37.6 151.55 37.6 114.35 35.6 114.35
M 74.25 114.35
L 74.25 116.75 74.25 131.9 57.5 131.9 57.5 116.75 57.5 114.35 55.15 114.35 55.15 151.55 57.5 151.55 57.5 136.8 57.5 134 74.25 134 74.25 136.8 74.25 151.55 76.3 151.55 76.3 114.35 74.25 114.35 Z"/>
</g>

<g id="Layer1_5_FILL">
<path fill="#666666" stroke="none" d="
M 138.6 4.2
L 138.6 2.5 137.75 2.5 137.75 0.55 135.05 0.55 135.05 2.5 134.25 2.5 134.25 4.2 135.05 4.2 135.05 13.9 137.75 13.9 137.75 4.2 138.6 4.2 Z"/>
</g>

<g id="Layer1_5_MEMBER_0_FILL">
<path fill="#333333" stroke="none" d="
M 103 67.5
L 121.1 72.55 110.7 75.4 103.55 73.4 103 75.25 107.1 76.4 102.95 77.5 103.45 79.4 110.7 77.4 121.1 80.3 102.95 85.3 103.15 85.95 107.9 85.95 124.65 81.25 141.5 85.95 146.2 85.95 146.4 85.3 128.25 80.3 138.7 77.4 145.85 79.4 146.4 77.5 142.25 76.4 146.35 75.25 145.8 73.4 138.7 75.4 128.25 72.55 146.35 67.5 145.8 65.65 124.65 71.5 103.55 65.65 103 67.5
M 135.1 76.4
L 124.65 79.3 114.3 76.4 124.65 73.5 135.1 76.4 Z"/>
</g>

<g id="Layer1_5_MEMBER_0_MEMBER_0_FILL">
<path fill="#4F4F4F" stroke="none" d="
M 149.05 62.2
L 142.75 62.2 142.75 86.15 149.05 86.15 149.05 62.2
M 107.85 62.2
L 101.5 62.2 101.5 86.15 107.85 86.15 107.85 62.2 Z"/>
</g>

<g id="Layer1_5_MEMBER_1_FILL">
<path fill="#CCCCCC" stroke="none" d="
M 117.8 17.1
L 117.15 17.1 117.15 67.55 156.75 67.55 156.75 17.1 117.8 17.1 Z"/>

<path fill="#E2E0E0" stroke="none" d="
M 117.15 17.1
L 93.5 17.1 93.5 67.55 117.15 67.55 117.15 17.1
M 125.1 7.75
L 124.8 7.85 117.8 17.1 156.75 17.1 156.75 17.05 125.1 7.75 Z"/>

<path fill="#FFFFFF" stroke="none" d="
M 93.5 17.05
L 93.5 17.1 117.15 17.1 117.8 17.1 124.8 7.85 93.5 17.05 Z"/>
</g>

<g id="Layer1_5_MEMBER_2_FILL">
<path fill="#666666" stroke="none" d="
M 103.25 63.7
L 103.25 62 102 62 102 60.05 104.3 60.05 104.3 58.75 98.3 58.75 98.3 60.05 100.6 60.05 100.6 62 99.35 62 99.35 63.7 99.3 63.7
Q 94.45 63.7 94.45 68.55
L 94.45 69.05 93.65 69.05 93.65 70.3 94.45 70.3 94.45 71.6 96.55 71.6 96.55 70.3 97.3 70.3 97.3 69.65
Q 97.3 69.35 97.4 69.05
L 96.6 69.05
Q 96.85 65.8 100.35 65.8
L 105.35 65.8
Q 106.5 64.75 105.35 63.7
L 103.25 63.7 Z"/>
</g>

<g id="Layer1_6_MEMBER_0_FILL">
<path fill="#666666" stroke="none" d="
M 27.45 86.15
L 29.85 86.15 40.8 66.2 40.8 86.15 42.95 86.15 42.95 66.4 53.75 86.15 56.2 86.15 42.95 61.95
Q 42.9 61.55 42.65 61.3 42.3 60.95 41.85 60.95 41.4 60.95 41.1 61.3 41 61.4 40.95 61.55
L 40.85 61.6 27.45 86.15 Z"/>
</g>

<g id="Layer1_6_MEMBER_1_FILL">
<path fill="#FFFFFF" stroke="none" d="
M 49.8 42.25
Q 46.8 39.25 41.9 39.55 40.8 39.65 39.6 39.85 33.05 41.2 27.5 46.75 21.9 52.35 20.55 58.9 19.25 65.4 22.9 69.15 25.55 71.75 29.65 71.85 31.25 71.85 33.2 71.5 33.45 71.45 33.7 71.4 34.45 71.2 35.1 70.95 38.05 70.1 40.8 68.25 40.8 68.3 40.85 68.25 42.3 67.3 43.7 66.1 44.3 65.55 44.95 64.9 45.15 64.75 45.25 64.55
L 45.45 64.4
Q 45.5 64.35 45.65 64.25 46.6 63.25 47.4 62.25
L 47.7 61.85
Q 51.2 57.45 52.15 52.5 53.5 45.95 49.8 42.25
M 40.55 47.5
Q 44.85 46.65 47.25 49.05 49.65 51.45 48.8 55.7 48.15 58.95 45.85 61.8
L 45.65 62.1
Q 45.15 62.75 44.5 63.4 44.4 63.4 44.4 63.45
L 44.3 63.6
Q 44.15 63.7 44.05 63.8 43.65 64.2 43.25 64.55 42.35 65.35 41.4 66
L 41.35 65.95
Q 39.6 67.15 37.7 67.75 37 67.95 36.45 68.1 35.15 68.3 34.1 68.3 31.4 68.3 29.7 66.6 27.35 64.1 28.2 59.85 29.05 55.6 32.7 52 36.3 48.35 40.55 47.5 Z"/>

<path fill="#E9E9E9" stroke="none" d="
M 47.25 49.05
Q 44.85 46.65 40.55 47.5 36.3 48.35 32.7 52 29.05 55.6 28.2 59.85 27.35 64.1 29.7 66.6 31.4 68.3 34.1 68.3 35.15 68.3 36.45 68.1 37 67.95 37.7 67.75 39.6 67.15 41.35 65.95
L 41.4 66
Q 42.35 65.35 43.25 64.55 43.65 64.2 44.05 63.8 44.15 63.7 44.3 63.6
L 44.4 63.45
Q 44.4 63.4 44.5 63.4 45.15 62.75 45.65 62.1
L 45.85 61.8
Q 48.15 58.95 48.8 55.7 49.65 51.45 47.25 49.05
M 36.85 61.15
Q 37.2 59.4 38.65 57.95 40.15 56.5 41.85 56.15 43.6 55.8 44.6 56.75 45.55 57.75 45.15 59.5 44.9 60.8 44 61.95
L 43.9 62.05
Q 43.7 62.3 43.45 62.6
L 43.4 62.6 43.35 62.65
Q 43.3 62.75 43.25 62.75 43.1 62.9 42.95 63.05 42.55 63.4 42.2 63.65 41.45 64.1 40.65 64.4 40.45 64.45 40.2 64.5 39.65 64.6 39.2 64.6 38.15 64.55 37.45 63.9 36.5 62.9 36.85 61.15 Z"/>

<path fill="#CCCCCC" stroke="none" d="
M 38.65 57.95
Q 37.2 59.4 36.85 61.15 36.5 62.9 37.45 63.9 38.15 64.55 39.2 64.6 39.65 64.6 40.2 64.5 40.45 64.45 40.65 64.4 41.45 64.1 42.2 63.65 42.55 63.4 42.95 63.05 43.1 62.9 43.25 62.75 43.3 62.75 43.35 62.65
L 43.4 62.6 43.45 62.6
Q 43.7 62.3 43.9 62.05
L 44 61.95
Q 44.9 60.8 45.15 59.5 45.55 57.75 44.6 56.75 43.6 55.8 41.85 56.15 40.15 56.5 38.65 57.95 Z"/>
</g>

<g id="Layer1_6_MEMBER_1_MEMBER_0_FILL">
<path fill="#666666" stroke="none" d="
M 31.95 53.4
Q 32.4 53.4 32.85 53.25
L 40.75 61.1
Q 40.9 61.3 41.2 61.25 41.45 61.25 41.7 61.05 41.9 60.8 41.9 60.55 41.95 60.25 41.8 60.05
L 33.9 52.2
Q 34.05 51.75 34.05 51.35 34.05 50.5 33.45 49.9 32.85 49.3 31.95 49.25 31.15 49.3 30.55 49.9 29.95 50.5 29.9 51.35 29.9 52.2 30.5 52.8 31.15 53.45 31.95 53.4 Z"/>
</g>

<g id="Layer1_7_FILL">
<path fill="#3B83C4" stroke="none" d="
M 97.9 79.15
Q 98.05 78.2 97.7 77.45 97.4 76.7 96.75 75.35 95.95 73.9 95.45 71.7 95 73.9 94.2 75.35 93.5 76.7 93.2 77.45 92.85 78.2 93 79.15 93.2 80.15 94 80.7 94.45 81 94.9 81.15 95.2 81.2 95.45 81.25 96.25 81.15 96.9 80.7 97.75 80.15 97.9 79.15 Z"/>
</g>

<g id="Layer1_7_MEMBER_0_FILL">
<path fill="#FFFFFF" stroke="none" d="
M 93.85 77.5
Q 93.6 78.1 93.6 78.55 93.6 79.05 93.7 79.35 93.85 79.6 94.05 79.9 94.25 80.15 94.4 80.2 94.5 80.2 94.6 80.35 94.1 78.45 94.6 76.15 94.05 76.95 93.85 77.5 Z"/>
</g>
</defs>

<g transform="matrix( 1, 0, 0, 1, 0,0) ">
<use xlink:href="#Layer1_0_FILL"/>
</g>

<g transform="matrix( 1, 0, 0, 1, 0,0) ">
<use xlink:href="#Layer1_1_FILL"/>
</g>

<g transform="matrix( 1, 0, 0, 1, 0,0) ">
<use xlink:href="#Layer1_1_MEMBER_0_FILL"/>
</g>

<g transform="matrix( 1, 0, 0, 1, 0,0) ">
<use xlink:href="#Layer1_2_FILL"/>
</g>

<g transform="matrix( 1, 0, 0, 1, 0,0) ">
<use xlink:href="#Layer1_3_FILL"/>
</g>

<g transform="matrix( 1, 0, 0, 1, 0,0) ">
<use xlink:href="#Layer1_4_FILL"/>
</g>

<g transform="matrix( 1, 0, 0, 1, 0,0) ">
<use xlink:href="#Layer1_5_FILL"/>
</g>

<g transform="matrix( 1, 0, 0, 1, 0,0) ">
<use xlink:href="#Layer1_5_MEMBER_0_FILL"/>
</g>

<g transform="matrix( 1, 0, 0, 1, 0,0) ">
<use xlink:href="#Layer1_5_MEMBER_0_MEMBER_0_FILL"/>
</g>

<g transform="matrix( 1, 0, 0, 1, 0,0) ">
<use xlink:href="#Layer1_5_MEMBER_1_FILL"/>
</g>

<g transform="matrix( 1, 0, 0, 1, 0,0) ">
<use xlink:href="#Layer1_5_MEMBER_2_FILL"/>
</g>

<g transform="matrix( 1, 0, 0, 1, 0,0) ">
<use xlink:href="#Layer1_6_MEMBER_0_FILL"/>
</g>

<g transform="matrix( 1, 0, 0, 1, 0,0) ">
<use xlink:href="#Layer1_6_MEMBER_1_FILL"/>
</g>

<g transform="matrix( 1, 0, 0, 1, 0,0) ">
<use xlink:href="#Layer1_6_MEMBER_1_MEMBER_0_FILL"/>
</g>

<g transform="matrix( 1, 0, 0, 1, 0,0) ">
<use xlink:href="#Layer1_7_FILL"/>
</g>

<g transform="matrix( 1, 0, 0, 1, 0,0) ">
<use xlink:href="#Layer1_7_MEMBER_0_FILL"/>
</g>
</svg>
