
<svg xmlns="http://www.w3.org/2000/svg" version="1.1" xmlns:xlink="http://www.w3.org/1999/xlink" preserveAspectRatio="none" x="0px" y="0px" width="127px" height="52px" viewBox="0 0 127 52">
<defs>
<g id="Layer0_0_FILL">
<path fill="#FFFFFF" stroke="none" d="
M -901.5 144.55
Q -909.2 136.85 -920.05 136.85 -927.5 136.85 -933.45 140.45 -933.65 140.25 -933.8 140.05 -942.95 130.95 -955.9 130.95 -968.85 130.95 -977.95 140.05 -985.7 147.8 -986.85 158.3 -991.75 159.85 -995.7 163.75 -1002.2 170.3 -1002.2 179.55 -1002.2 181.25 -1002 182.85
L -876.35 182.85
Q -876.05 180.95 -876.05 178.9 -876.05 170.45 -882 164.5 -887.15 159.35 -894.1 158.65 -895.45 150.6 -901.5 144.55 Z"/>
</g>
</defs>

<g transform="matrix( 1, 0, 0, 1, 1002.2,-130.95) ">
<use xlink:href="#Layer0_0_FILL"/>
</g>
</svg>
