
<svg xmlns="http://www.w3.org/2000/svg" version="1.1" xmlns:xlink="http://www.w3.org/1999/xlink" preserveAspectRatio="none" x="0px" y="0px" width="152px" height="280px" viewBox="0 0 152 280">
<defs>
<g id="Layer0_0_FILL">
<path fill="#437259" stroke="none" d="
M 147.7 280
L 147.7 265.95 18.25 265.95 18.25 280 147.7 280
M 18.25 165.8
L 18.25 168.35 18.25 181.45 147.7 181.45 147.7 156.5 117.45 156.5
Q 116.45 157.6 115.4 158.65 101.85 172.25 82.65 172.25 63.45 172.25 49.85 158.65 48.8 157.6 47.85 156.5
L 18.25 156.5 18.25 165.8
M 95.6 86.4
L 92.95 85.6
Q 85.45 83.6 77.55 84.65 74.75 85.05 71.95 85.8 66.2 87.35 61.4 90.15 54.15 94.35 49.1 101.45
L 47.55 103.7
Q 47.436328125 103.874609375 47.3 104.05 47 104.5875 46.7 105.15
L 82.6 125.9 124.2 125.9
Q 124.2 122.95 123.75 119.95
L 123.4 117.95
Q 123.1 116.5 122.75 115.1 122.1 112.8 121.35 110.65
L 119.45 106.5
Q 116.15 100.1 110.75 95.3
L 108.05 93
Q 105.85 91.4 103.35 89.95 99.5 87.75 95.6 86.4
M 121.15 39.25
L 82.8 0.9 13.95 69.7 18.25 69.7 147.7 69.7 151.65 69.7 138 56.05 121.15 39.25
M 92 34.65
Q 95.75 38.4 96.05 43.5
L 96.1 43.5 96.1 55.8 96.1 61.2 68.05 61.2 68.05 55.8 68.05 43.5 68.1 43.5
Q 68.45 38.4 72.15 34.65 76.3 30.6 82.1 30.6 87.9 30.6 92 34.65
M 138 29.55
L 138 25.5 121.15 25.5 121.15 29.55 138 29.55 Z"/>

<path fill="#DEDFD4" stroke="none" d="
M 147.7 190.65
L 18.25 190.65 18.25 265.95 147.7 265.95 147.7 190.65
M 8.55 141.9
L 6.65 141.9 1.5 141.9 3.95 152.9 11.7 152.9 14 141.9 8.55 141.9
M 82.65 79.6
Q 101.85 79.6 115.4 93.1 129 106.7 129 125.9 129 143.6 117.45 156.5
L 147.7 156.5 147.7 73.35 18.25 73.35 18.25 152.9 18.25 156.5 47.85 156.5
Q 36.35 143.6 36.35 125.9 36.35 106.7 49.85 93.1 63.45 79.6 82.65 79.6
M 138 25.5
L 141.5 25.5 141.5 14.35 117.7 14.35 117.7 25.5 121.15 25.5 138 25.5 Z"/>

<path fill="#77AD90" stroke="none" d="
M 14.3 190.65
L 18.25 190.65 147.7 190.65 151.65 190.65 151.65 181.45 147.7 181.45 18.25 181.45 14.3 181.45 14.3 190.65
M 18.25 152.9
L 11.7 152.9 3.95 152.9 0 152.9 0 156.5 6.4 156.5 18.25 168.35 18.25 165.8 8.95 156.5 18.25 156.5 18.25 152.9
M 147.7 73.35
L 147.7 69.7 18.25 69.7 18.25 73.35 147.7 73.35
M 46.7 105.15
Q 46 106.4 45.35 107.6
L 44.2 110.05 42.45 115.15 41.85 117.75
Q 41 121.7 41.05 125.85 41.05 128 41.3 130.2 41.7 133.35 42.55 136.65 42.8 137.55 43.15 138.45 44.5 142.85 46.6 146.65 50.8 154.15 58.05 159.35 59.85 160.6 61.9 161.8 66.55 164.5 71.35 165.9 80.45 168.55 90.1 166.75 90.85 166.6 91.6 166.45 92.5 166.2 93.35 165.95 96.6 165.1 99.5 163.9
L 105.05 160.95 107.95 158.9
Q 111.6 156.1 114.55 152.5 116.7 149.75 118.55 146.6 120.75 142.8 122.15 138.85
L 122.9 136.2
Q 124.25 131.15 124.2 125.9
L 82.6 125.9 46.7 105.15
M 96.1 61.2
L 96.1 55.8 68.05 55.8 68.05 61.2 96.1 61.2
M 121.15 29.55
L 121.15 39.25 138 56.05 138 29.55 121.15 29.55 Z"/>

<path fill="#597700" stroke="none" d="
M 14.3 134.4
Q 12.95 133.9 11.6 134.1 10.25 134.25 9.6 134.85 8.9 135.4 8.55 135.95
L 7.55 127.2 6.65 137.05
Q 6.6 136.95 6.55 136.9 6.25 136.45 5.7 135.85 5.15 135.2 4.05 134.7 2.95 134.25 2 134.25 1 134.15 0.95 134.15 0.7 134.2 0.4 134.25 0.85 136.45 2.05 137.7 3.4 139.1 5.45 139.1 6.25 139.1 6.4 139 6.5 139 6.65 138.9
L 6.65 141.9 8.55 141.9 8.55 137.75
Q 9.05 137.95 9.3 137.95 9.4 138 10.1 138 12.2 138 13.15 136.8 13.8 136 14.3 134.4 Z"/>

<path fill="#FFFFFF" stroke="none" d="
M 115.4 93.1
Q 101.85 79.6 82.65 79.6 63.45 79.6 49.85 93.1 36.35 106.7 36.35 125.9 36.35 143.6 47.85 156.5 48.8 157.6 49.85 158.65 63.45 172.25 82.65 172.25 101.85 172.25 115.4 158.65 116.45 157.6 117.45 156.5 129 143.6 129 125.9 129 106.7 115.4 93.1
M 92.95 85.6
L 95.6 86.4
Q 102.3 88.5 108.05 93
L 110.75 95.3
Q 116.15 100.1 119.45 106.5
L 121.35 110.65
Q 122.7 114.1 123.4 117.95
L 123.75 119.95
Q 124.2 122.95 124.2 125.9 124.25 131.15 122.9 136.2
L 122.15 138.85
Q 119.8 146.25 114.55 152.5 111.6 156.1 107.95 158.9
L 105.05 160.95 99.5 163.9
Q 95.05 165.9 90.1 166.75 80.45 168.55 71.35 165.9 64.15 163.95 58.05 159.35 50.8 154.15 46.6 146.65 42.2 139.15 41.3 130.2 41.05 128 41.05 125.85 41 121.7 41.85 117.75
L 42.45 115.15 44.2 110.05 45.35 107.6
Q 46.2126953125 105.78359375 47.3 104.05 47.436328125 103.874609375 47.55 103.7
L 49.1 101.45
Q 54.15 94.35 61.4 90.15 68.75 85.65 77.55 84.65 85.45 83.6 92.95 85.6
M 96.05 43.5
Q 95.75 38.4 92 34.65 87.9 30.6 82.1 30.6 76.3 30.6 72.15 34.65 68.45 38.4 68.1 43.5
L 68.05 43.5 68.05 55.8 96.1 55.8 96.1 43.5 96.05 43.5
M 89.9 36.45
Q 92.9 39.4 93.15 43.45
L 93.2 43.45 93.2 44.1 93.2 53.15 71 53.15 71 44.1 71 43.45 71.05 43.45
Q 71.3 39.4 74.2 36.45 77.5 33.2 82.1 33.2 86.75 33.2 89.9 36.45 Z"/>

<path fill="#508C9C" stroke="none" d="
M 93.2 53.15
L 93.2 44.1
Q 82.45 32 71 44.1
L 71 53.15 93.2 53.15 Z"/>

<path fill="#275764" stroke="none" d="
M 93.15 43.45
Q 92.9 39.4 89.9 36.45 86.75 33.2 82.1 33.2 77.5 33.2 74.2 36.45 71.3 39.4 71.05 43.45
L 71 43.45 71 44.1
Q 82.45 32 93.2 44.1
L 93.2 43.45 93.15 43.45 Z"/>
</g>

<g id="Layer0_0_MEMBER_0_FILL">
<path fill="#508C9C" stroke="none" d="
M 766.85 417.6
L 750.05 417.6 750.05 432.45 766.85 432.45 766.85 417.6
M 750.05 397.55
L 750.05 412.8 766.85 412.8 766.85 397.55 750.05 397.55
M 785.6 432.45
L 785.6 417.6 768.85 417.6 768.85 432.45 785.6 432.45
M 785.6 412.8
L 785.6 397.55 768.85 397.55 768.85 412.8 785.6 412.8
M 726.95 430.25
L 711.3 430.25 711.3 455.15 726.95 455.15 726.95 430.25
M 709 430.25
L 693.3 430.25 693.3 455.15 709 455.15 709 430.25
M 726.95 399.85
L 711.3 399.85 711.3 424.95 726.95 424.95 726.95 399.85
M 693.3 399.85
L 693.3 424.95 709 424.95 709 399.85 693.3 399.85 Z"/>

<path fill="#275764" stroke="none" d="
M 750.05 414.85
L 750.05 417.6 766.85 417.6 766.85 414.85 750.05 414.85
M 785.6 417.6
L 785.6 414.85 768.85 414.85 768.85 417.6 785.6 417.6
M 785.6 395.2
L 768.85 395.2 768.85 397.55 785.6 397.55 785.6 395.2
M 766.85 395.2
L 750.05 395.2 750.05 397.55 766.85 397.55 766.85 395.2
M 726.95 430.25
L 726.95 427.25 711.3 427.25 711.3 430.25 726.95 430.25
M 693.3 427.25
L 693.3 430.25 709 430.25 709 427.25 693.3 427.25
M 726.95 399.85
L 726.95 397 711.3 397 711.3 399.85 726.95 399.85
M 709 399.85
L 709 397 693.3 397 693.3 399.85 709 399.85 Z"/>

<path fill="#437259" stroke="none" d="
M 790.7 432.45
L 787.9 432.45 785.6 432.45 768.85 432.45 766.85 432.45 750.05 432.45 747.7 432.45 744.9 432.45 744.9 437.25 790.7 437.25 790.7 432.45
M 766.85 395.2
L 768.85 395.2 785.6 395.2 787.9 395.2 790.7 395.2 790.7 390.4 744.9 390.4 744.9 395.2 747.7 395.2 750.05 395.2 766.85 395.2
M 687.25 390.4
L 687.25 395.2 691.05 395.2 729.15 395.2 733.05 395.2 733.05 390.4 687.25 390.4 Z"/>

<path fill="#FDFDFF" stroke="none" d="
M 768.85 395.2
L 766.85 395.2 766.85 397.55 766.85 412.8 750.05 412.8 750.05 397.55 750.05 395.2 747.7 395.2 747.7 432.45 750.05 432.45 750.05 417.6 750.05 414.85 766.85 414.85 766.85 417.6 766.85 432.45 768.85 432.45 768.85 417.6 768.85 414.85 785.6 414.85 785.6 417.6 785.6 432.45 787.9 432.45 787.9 395.2 785.6 395.2 785.6 397.55 785.6 412.8 768.85 412.8 768.85 397.55 768.85 395.2
M 729.15 395.2
L 691.05 395.2 691.05 457.15 729.15 457.15 729.15 395.2
M 709 397
L 709 399.85 709 424.95 693.3 424.95 693.3 399.85 693.3 397 709 397
M 726.95 397
L 726.95 399.85 726.95 424.95 711.3 424.95 711.3 399.85 711.3 397 726.95 397
M 693.3 430.25
L 693.3 427.25 709 427.25 709 430.25 709 455.15 693.3 455.15 693.3 430.25
M 726.95 427.25
L 726.95 430.25 726.95 455.15 711.3 455.15 711.3 430.25 711.3 427.25 726.95 427.25 Z"/>

<path fill="#DEDFD4" stroke="none" d="
M 733.05 461.95
L 733.05 457.15 729.15 457.15 691.05 457.15 687.25 457.15 687.25 461.95 733.05 461.95 Z"/>
</g>

<g id="Layer0_0_MEMBER_0_MEMBER_0_FILL">
<path fill="#CCCCCC" stroke="none" d="
M 725.4 427.85
Q 726.2 427.1 726.2 426.05 726.2 425 725.4 424.25 724.65 423.5 723.6 423.5 722.55 423.5 721.8 424.25 721.05 425 721.05 426.05 721.05 427.1 721.8 427.85 722.55 428.6 723.6 428.6 724.65 428.6 725.4 427.85 Z"/>
</g>

<g id="Layer0_0_MEMBER_0_MEMBER_0_MEMBER_0_FILL">
<path fill="#FFFFFF" stroke="none" d="
M 724.35 426.8
Q 724.85 426.3 724.85 425.55 724.85 424.8 724.35 424.3 723.8 423.75 723.05 423.75 722.35 423.75 721.8 424.3 721.25 424.8 721.25 425.55 721.25 426.3 721.8 426.8 722.35 427.35 723.05 427.35 723.8 427.35 724.35 426.8 Z"/>
</g>

<g id="Layer0_0_MEMBER_1_FILL">
<path fill="#333333" stroke="none" d="
M 800.3 184.3
Q 800.1 184.1 799.9 183.9 800.5 185.15 800.5 186.75 800.5 189.5 798.6 191.4 798.45 191.55 798.35 191.65 799.45 191.35 800.3 190.5 801.65 189.2 801.65 187.4 801.65 185.6 800.3 184.3
M 787.45 186.75
Q 787.45 186.85 787.45 186.95
L 787.45 187.05 785.45 189.05 787.85 189.05
Q 788.3 190.35 789.35 191.4 790.8 192.8 792.6 193.2
L 793.35 196.3 793.7 193.3
Q 793.85 193.3 794 193.3 796.5 193.3 798.35 191.65 797.8 191.8 797.2 191.8 795.4 191.8 794.1 190.5 792.8 189.2 792.7 187.55
L 792.7 187.4
Q 792.7 187.15 792.7 186.95 792.7 185.8 791.95 185.05 791.2 184.3 790.1 184.3 789 184.3 788.2 185.05 787.55 185.8 787.45 186.75
M 789 187.05
Q 789 186.6 789.15 186.2 789.25 185.9 789.45 185.9 789.65 185.9 789.75 186.2 789.95 186.6 789.95 187.05 789.95 187.6 789.75 187.9 789.65 188.3 789.45 188.3 789.25 188.3 789.15 187.9 789 187.6 789 187.05 Z"/>

<path fill="#FFFFFF" stroke="none" d="
M 789.15 186.2
Q 789 186.6 789 187.05 789 187.6 789.15 187.9 789.25 188.3 789.45 188.3 789.65 188.3 789.75 187.9 789.95 187.6 789.95 187.05 789.95 186.6 789.75 186.2 789.65 185.9 789.45 185.9 789.25 185.9 789.15 186.2 Z"/>
</g>

<g id="Layer0_0_MEMBER_2_MEMBER_0_FILL">
<path fill="#437259" stroke="none" d="
M -1257.95 230.05
Q -1257.95 225.05 -1262.95 225.05
L -1420.9 225.05
Q -1425.9 225.05 -1425.9 230.05
L -1425.9 247.55
Q -1425.9 252.55 -1420.9 252.55
L -1262.95 252.55
Q -1257.95 252.55 -1257.95 247.55
L -1257.95 230.05 Z"/>
</g>

<g id="Layer0_0_MEMBER_2_MEMBER_1_FILL">
<path fill="#FFFFFF" stroke="none" d="
M 128.65 191.2
Q 127.75 191.2 127.1 191.35 126.45 191.55 125.8 192.1 125.15 192.6 124.75 193.4 124.35 194.2 124.35 195.1 124.35 196.35 125.2 197.25 126.05 198.15 127.95 198.15 129.3 198.15 130.25 197.7 131.15 197.25 131.7 196.25
L 129.2 196.05
Q 128.8 196.65 128.05 196.65 126.95 196.65 126.85 195.3
L 131.9 195.3
Q 132.1 194.35 132.1 194 132.1 192.8 131.3 192 130.45 191.2 128.65 191.2
M 129.6 193.7
Q 129.6 193.95 129.55 194.1
L 127.1 194.1
Q 127.3 193.35 127.7 193.05 128.05 192.7 128.55 192.7 129 192.7 129.3 192.95 129.6 193.2 129.6 193.7
M 116.4 191.35
L 113.85 191.35 112.45 197.95 114.95 197.95 116.4 191.35
M 119.6 191.35
L 117.2 191.35 118.5 197.95 120.75 197.95 124.9 191.35 122.2 191.35 120 195.55 119.6 191.35
M 116.55 190.6
L 116.95 188.8 114.35 188.8 114 190.6 116.55 190.6
M 108.5 191.35
L 107.55 191.35 107.2 193.2 108.1 193.2 107.65 195.45
Q 107.45 196.3 107.45 196.5 107.45 197.1 107.9 197.6 108.35 198.15 109.4 198.15 109.95 198.15 111.1 197.95
L 111.5 196.15
Q 110.9 196.25 110.7 196.25 110.1 196.25 110.1 195.85 110.1 195.65 110.15 195.5
L 110.6 193.2 111.95 193.2 112.35 191.35 111 191.35 111.55 188.9 108.7 190.3 108.5 191.35
M 100.25 194.25
Q 99.5 194.4 99 194.85 98.55 195.3 98.55 196.15 98.55 196.95 99.1 197.55 99.65 198.15 100.9 198.15 102.1 198.15 103.15 197.2 103.15 197.6 103.25 197.95
L 105.7 197.95
Q 105.55 197.5 105.55 197.05 105.55 196.55 105.85 195.2 106.2 193.75 106.2 193.1 106.2 192.2 105.5 191.7 104.85 191.2 102.85 191.2 101.15 191.2 100.35 191.7 99.5 192.2 99.3 193.2
L 101.65 193.4
Q 101.85 193 102.1 192.85 102.4 192.7 102.85 192.7 103.25 192.7 103.5 192.85 103.75 193 103.75 193.25 103.75 193.4 103.7 193.7 103.3 193.8 102.2 193.95 100.95 194.05 100.25 194.25
M 101.8 196.75
Q 101.45 196.75 101.25 196.55 101.05 196.35 101.05 196.05 101.05 195.75 101.3 195.55 101.65 195.3 103.4 195 103.25 195.95 102.75 196.35 102.3 196.75 101.8 196.75
M 90.5 193.4
Q 90.1 194.2 90.1 195.1 90.1 196.35 90.95 197.25 91.8 198.15 93.75 198.15 95.1 198.15 96 197.7 96.9 197.25 97.45 196.25
L 95 196.05
Q 94.55 196.65 93.85 196.65 92.7 196.65 92.6 195.3
L 97.7 195.3
Q 97.85 194.35 97.85 194 97.85 192.8 97.05 192 96.25 191.2 94.4 191.2 93.5 191.2 92.9 191.35 92.2 191.55 91.55 192.1 90.9 192.6 90.5 193.4
M 92.85 194.1
Q 93.1 193.35 93.45 193.05 93.85 192.7 94.3 192.7 94.75 192.7 95.1 192.95 95.4 193.2 95.4 193.7 95.4 193.95 95.3 194.1
L 92.85 194.1
M 90.4 191.4
Q 89.9 191.2 89.55 191.2 88.95 191.2 88.55 191.5 88.1 191.8 87.5 192.7
L 87.45 192.65 87.75 191.35 85.4 191.35 83.95 197.95 86.5 197.95 87.05 195.5
Q 87.3 194.35 87.75 193.8 88.2 193.25 88.95 193.25 89.15 193.25 89.45 193.35
L 90.4 191.4
M 78.9 191.2
Q 79.45 190.75 80.1 190.75 80.6 190.75 81 191.05 81.4 191.4 81.4 192.05
L 81.4 192.1 83.95 191.85
Q 83.8 190.4 82.8 189.55 81.8 188.65 80.1 188.65 78.4 188.65 77.25 189.45 76 190.2 75.45 191.55 74.8 192.9 74.8 194.25 74.8 196.05 75.85 197.1 76.9 198.15 78.9 198.15 80.75 198.15 81.95 197.15 83.1 196.2 83.55 194.8
L 80.9 194.35
Q 80.55 195.2 80.15 195.65 79.65 196.05 79 196.05 78.3 196.05 77.95 195.55 77.55 195.1 77.55 194.45 77.55 193.55 77.95 192.6 78.3 191.65 78.9 191.2
M 66.9 191.2
Q 66.3 191.2 65.85 191.35 65.45 191.55 64.9 192.05
L 64.85 192.05 65 191.35 62.65 191.35 60.7 200.5 63.2 200.5 63.95 197.1
Q 64.65 198.15 66.05 198.15 67.4 198.15 68.35 196.9 69.2 195.65 69.2 193.95 69.2 192.7 68.65 191.95 68 191.2 66.9 191.2
M 64.7 196.15
Q 64.4 195.85 64.4 195.3 64.4 194.4 64.8 193.65 65.15 192.85 65.85 192.85 66.25 192.85 66.45 193.15 66.7 193.4 66.7 194 66.7 195 66.35 195.7 65.95 196.45 65.4 196.45 65 196.45 64.7 196.15
M 53.2 193.4
Q 52.8 194.2 52.8 195.1 52.8 196.35 53.65 197.25 54.45 198.15 56.4 198.15 57.75 198.15 58.65 197.7 59.55 197.25 60.1 196.25
L 57.65 196.05
Q 57.25 196.65 56.5 196.65 55.4 196.65 55.3 195.3
L 60.35 195.3
Q 60.5 194.35 60.5 194 60.5 192.8 59.7 192 58.9 191.2 57.05 191.2 56.15 191.2 55.55 191.35 54.9 191.55 54.25 192.1 53.6 192.6 53.2 193.4
M 58.05 193.7
Q 58.05 193.95 58 194.1
L 55.5 194.1
Q 55.75 193.35 56.1 193.05 56.5 192.7 57 192.7 57.4 192.7 57.75 192.95 58.05 193.2 58.05 193.7
M 48.55 191.2
Q 47.65 191.2 47.05 191.35 46.4 191.55 45.75 192.1 45.05 192.6 44.65 193.4 44.3 194.2 44.3 195.1 44.3 196.35 45.15 197.25 45.95 198.15 47.9 198.15 49.25 198.15 50.15 197.7 51.05 197.25 51.6 196.25
L 49.15 196.05
Q 48.7 196.65 48 196.65 46.9 196.65 46.8 195.3
L 51.85 195.3
Q 52 194.35 52 194 52 192.8 51.2 192 50.4 191.2 48.55 191.2
M 48.5 192.7
Q 48.9 192.7 49.25 192.95 49.55 193.2 49.55 193.7 49.55 193.95 49.45 194.1
L 47 194.1
Q 47.25 193.35 47.6 193.05 48 192.7 48.5 192.7
M 39.8 188.8
L 36 188.8 34.1 197.95 38.9 197.95
Q 39.9 197.95 40.95 197.55 42.05 197.1 42.85 195.65 43.6 194.3 43.6 192.65 43.6 190.95 42.7 189.9 41.8 188.8 39.8 188.8
M 38.45 190.85
L 39.3 190.85
Q 40.15 190.85 40.5 191.25 40.85 191.65 40.85 192.35 40.85 193.55 40.25 194.75 39.7 195.95 38.55 195.95
L 37.4 195.95 38.45 190.85 Z"/>
</g>

<g id="Layer0_0_MEMBER_3_FILL">
<path fill="#FFFFFF" stroke="none" d="
M 84.8 112.75
L 84.4 114.85 88.9 114.85 88.55 116.5 90.65 116.5 91 114.85 92.15 114.85 92.55 112.9 91.4 112.9 92.65 107.4 90.5 107.4 84.8 112.75
M 89.9 110.1
L 89.95 110.1 89.3 112.9 86.9 112.9 89.9 110.1
M 85.95 99.65
Q 85.55 99.4 84.8 99.4 84.1 99.4 83.65 99.6 83.15 99.8 82.95 100.1 82.7 100.45 82.7 100.75 82.7 101.2 83 101.45 83.35 101.75 84.2 101.9 84.55 101.9 84.7 102 84.8 102.05 84.8 102.25 84.8 102.45 84.65 102.55 84.45 102.65 84.2 102.65 83.7 102.65 83.6 102.2
L 82.1 102.3
Q 82.2 102.9 82.65 103.2 83.05 103.45 84 103.45 85.1 103.45 85.65 103.05 86.2 102.6 86.2 102 86.2 101.6 85.95 101.35 85.65 101.05 84.8 100.95 84.25 100.85 84.15 100.8 84 100.7 84 100.55 84 100.45 84.15 100.35 84.3 100.25 84.6 100.25 85.05 100.25 85.05 100.55
L 86.45 100.45
Q 86.35 99.9 85.95 99.65
M 86.75 103.35
L 88.25 103.35 89.05 99.5 87.55 99.5 86.75 103.35
M 95.4 108.2
Q 94.45 109 93.9 110.35 93.3 111.75 93.3 113 93.3 114.75 94.15 115.7 95.05 116.65 96.4 116.65 97.8 116.65 98.8 115.8 99.85 115.05 100.4 113.65 101 112.25 101 110.85 101 109.15 100 108.3 99.05 107.4 97.7 107.4 96.4 107.4 95.4 108.2
M 96.6 109.8
Q 97.05 109.1 97.65 109.1 98.1 109.1 98.35 109.4 98.6 109.75 98.6 110.3 98.6 111.05 98.35 112.25 98.1 113.5 97.7 114.25 97.25 114.95 96.65 114.95 95.7 114.95 95.7 113.65
L 95.7 113.6
Q 95.7 112.9 95.95 111.7 96.2 110.55 96.6 109.8
M 92.65 99.5
L 92.55 100.05
Q 92.05 99.4 91.4 99.4 90.55 99.4 89.95 100.1 89.45 100.75 89.45 101.7 89.45 102.4 89.75 102.8 90.15 103.25 90.7 103.25 91.4 103.25 91.85 102.7
L 91.85 102.75 91.75 103.3
Q 91.7 103.65 91.5 103.85 91.3 104.05 91.05 104.05 90.6 104.05 90.6 103.65
L 89.2 103.45
Q 89.2 103.5 89.2 103.65 89.2 104 89.45 104.4 89.7 104.7 90.1 104.8 90.45 104.9 91.1 104.9 92.05 104.9 92.55 104.6 93 104.2 93.25 103.15
L 94.05 99.5 92.65 99.5
M 92.2 100.95
Q 92.2 101.35 92 101.8 91.8 102.2 91.4 102.2 91.15 102.2 91 102.1 90.85 101.9 90.85 101.65 90.85 101.15 91.1 100.8 91.4 100.4 91.7 100.4 91.9 100.4 92.05 100.55 92.2 100.7 92.2 100.95
M 96.3 100.1
L 96.25 100.1 96.35 99.5 95 99.5 94.15 103.35 95.65 103.35 96 101.7
Q 96.15 101.15 96.35 100.8 96.65 100.5 96.95 100.5 97.25 100.5 97.25 100.85 97.25 100.95 97.1 101.6
L 96.75 103.35 98.2 103.35 98.65 101.25
Q 98.8 100.55 98.8 100.35 98.8 99.95 98.55 99.7 98.3 99.4 97.75 99.4 96.85 99.4 96.3 100.1
M 102.8 116.95
L 104.15 116.95 111.9 107.4 110.5 107.4 102.8 116.95
M 108.05 115.05
Q 108.05 115.95 108.65 116.45 109.2 116.95 110.1 116.95 111.4 116.95 112.1 116.1 112.8 115.25 112.8 114.15 112.8 113.25 112.25 112.75 111.65 112.25 110.7 112.25 109.5 112.25 108.8 113.1 108.05 113.9 108.05 115.05
M 109.8 114.35
Q 109.95 113.75 110.2 113.5 110.45 113.3 110.75 113.3 110.95 113.3 111.1 113.4 111.25 113.55 111.25 113.85 111.25 114.6 110.95 115.3 110.65 115.95 110.15 115.95 109.9 115.95 109.8 115.8 109.65 115.6 109.65 115.3 109.65 115.05 109.8 114.35
M 106.05 107.9
Q 105.5 107.4 104.5 107.4 103.3 107.4 102.6 108.25 101.9 109 101.9 110.15 101.9 111.1 102.45 111.6 103 112.05 103.95 112.05 105.2 112.05 105.9 111.25 106.6 110.4 106.6 109.3 106.6 108.4 106.05 107.9
M 103.45 110.45
Q 103.45 110.15 103.6 109.5 103.75 108.85 104 108.65 104.25 108.45 104.5 108.45 104.7 108.45 104.9 108.55 105.05 108.7 105.05 109 105.05 109.75 104.75 110.4 104.5 111.1 103.95 111.1 103.75 111.1 103.55 110.9 103.45 110.75 103.45 110.45
M 79.9 99.4
Q 79.4 99.4 79.05 99.5 78.65 99.65 78.25 99.95 77.85 100.25 77.65 100.7 77.45 101.15 77.45 101.7 77.45 102.45 77.9 102.95 78.4 103.45 79.55 103.45 80.3 103.45 80.85 103.2 81.35 102.95 81.7 102.4
L 80.25 102.25
Q 80 102.6 79.6 102.6 78.95 102.6 78.9 101.8
L 81.8 101.8
Q 81.9 101.25 81.9 101.05 81.9 100.4 81.45 99.9 80.95 99.4 79.9 99.4
M 80.45 101.1
L 79.05 101.1
Q 79.1 100.7 79.35 100.5 79.6 100.3 79.9 100.3 80.1 100.3 80.3 100.45 80.45 100.6 80.45 100.85 80.45 101.05 80.45 101.1
M 76.5 98.65
Q 75.95 98.05 74.8 98.05
L 72.6 98.05 71.5 103.35 74.35 103.35
Q 74.9 103.35 75.5 103.1 76.15 102.85 76.6 102.05 77.05 101.25 77.05 100.3 77.05 99.3 76.5 98.65
M 75.25 99.45
Q 75.4 99.7 75.4 100.1 75.4 100.8 75.1 101.5 74.75 102.2 74.1 102.2
L 73.4 102.2 74.05 99.25 74.55 99.25
Q 75.05 99.25 75.25 99.45
M 89.4 98.05
L 87.9 98.05 87.65 99.05 89.15 99.05 89.4 98.05 Z"/>
</g>

<g id="Layer0_0_MEMBER_4_FILL">
<path fill="#FFFFFF" stroke="none" d="
M 757.95 332.35
Q 757.35 331.85 756.4 331.85 755.2 331.85 754.5 332.65 753.8 333.45 753.8 334.6 753.8 335.55 754.35 336 754.9 336.5 755.8 336.5 757.15 336.5 757.8 335.7 758.5 334.85 758.5 333.7 758.5 332.85 757.95 332.35
M 756.8 333
Q 756.95 333.15 756.95 333.45 756.95 334.2 756.65 334.85 756.4 335.55 755.85 335.55 755.6 335.55 755.5 335.35 755.35 335.2 755.35 334.85 755.35 334.6 755.5 333.95 755.65 333.35 755.9 333.1 756.15 332.85 756.45 332.85 756.65 332.85 756.8 333
M 757.65 327
L 756.2 327 748.5 336.5 749.85 336.5 757.65 327
M 737.35 327.55
Q 736.55 327 735.3 327 733.85 327 732.8 327.8 731.75 328.55 731.25 329.95 730.75 331.3 730.75 332.65 730.75 334.3 731.65 335.25 732.55 336.2 734.15 336.2 735.85 336.2 736.85 335.15 737.85 334.05 737.85 332.7 737.85 331.55 737.1 330.85 736.4 330.1 735.35 330.1 734.35 330.1 733.5 330.75
L 733.45 330.75
Q 733.8 329.55 734.15 329 734.55 328.5 735.1 328.5 735.8 328.5 735.95 329.4
L 738.35 329.15
Q 738.15 328.05 737.35 327.55
M 733.1 333.45
Q 733.1 332.6 733.5 332.1 733.95 331.6 734.45 331.6 734.95 331.6 735.2 331.9 735.5 332.2 735.5 332.55 735.5 333.7 735.05 334.2 734.6 334.7 734.15 334.7 733.65 334.7 733.4 334.4 733.1 334.05 733.1 333.45
M 747.6 329.75
Q 747.6 330.65 748.15 331.15 748.7 331.65 749.65 331.65 750.9 331.65 751.6 330.85 752.3 330 752.3 328.85 752.3 327.95 751.75 327.5 751.2 327 750.25 327 749 327 748.3 327.8 747.6 328.6 747.6 329.75
M 750.45 330
Q 750.2 330.65 749.65 330.65 749.45 330.65 749.3 330.5 749.15 330.35 749.15 330 749.15 329.75 749.3 329.1 749.45 328.45 749.7 328.25 749.95 328 750.25 328 750.45 328 750.6 328.15 750.75 328.25 750.75 328.55 750.75 329.3 750.45 330
M 743.4 327
Q 742.1 327 741.15 327.8 740.15 328.55 739.6 329.95 739.05 331.3 739.05 332.55 739.05 334.35 739.9 335.25 740.75 336.2 742.1 336.2 743.5 336.2 744.5 335.4 745.55 334.6 746.15 333.25 746.7 331.8 746.7 330.4 746.7 328.75 745.75 327.85 744.75 327 743.4 327
M 744.05 331.85
Q 743.85 333.05 743.4 333.8 742.95 334.55 742.4 334.55 741.45 334.55 741.45 333.25
L 741.45 333.2
Q 741.45 332.45 741.65 331.3 741.9 330.1 742.3 329.4 742.75 328.65 743.35 328.65 743.85 328.65 744.05 329 744.3 329.3 744.3 329.9 744.3 330.65 744.05 331.85
M 746.7 319.4
L 745.25 319.4 744.4 323.25 745.9 323.25 746.7 319.4
M 746.8 318.95
L 747.05 317.9 745.55 317.9 745.35 318.95 746.8 318.95
M 741.6 319.4
L 741.35 320.45 741.9 320.45 741.6 321.75
Q 741.55 322.25 741.55 322.4 741.55 322.75 741.75 323.05 742 323.35 742.65 323.35 742.95 323.35 743.65 323.25
L 743.85 322.2
Q 743.5 322.25 743.4 322.25 743.05 322.25 743.05 322 743.05 321.9 743.05 321.8
L 743.35 320.45 744.1 320.45 744.35 319.4 743.6 319.4 743.9 317.95 742.25 318.8 742.1 319.4 741.6 319.4
M 738.45 320.85
Q 737.75 320.95 737.3 321.05 736.95 321.15 736.65 321.45 736.35 321.7 736.35 322.2 736.35 322.65 736.65 323 737 323.35 737.7 323.35 738.45 323.35 739 322.8 739 323 739.05 323.25
L 740.5 323.25
Q 740.4 323 740.4 322.7 740.4 322.4 740.55 321.6 740.8 320.8 740.8 320.4 740.8 319.9 740.4 319.6 740 319.3 738.85 319.3 737.85 319.3 737.4 319.6 736.9 319.9 736.75 320.45
L 738.15 320.6
Q 738.25 320.35 738.45 320.25 738.55 320.2 738.85 320.2 739.05 320.2 739.25 320.25 739.35 320.35 739.35 320.5 739.35 320.6 739.3 320.75 739.15 320.8 738.45 320.85
M 738.8 322.3
Q 738.55 322.5 738.25 322.5 738.05 322.5 737.9 322.4 737.8 322.3 737.8 322.1 737.8 321.95 738 321.85 738.15 321.7 739.15 321.55 739.05 322.05 738.8 322.3
M 730.85 319.95
L 730.8 319.95 730.95 319.4 729.55 319.4 728.75 323.25 730.2 323.25 730.6 321.4
Q 730.75 320.85 731 320.6 731.25 320.4 731.45 320.4 731.75 320.4 731.75 320.7 731.75 320.75 731.75 320.85 731.75 320.95 731.6 321.65
L 731.25 323.25 732.7 323.25 733.1 321.55
Q 733.2 320.95 733.45 320.65 733.65 320.4 734 320.4 734.25 320.4 734.25 320.7 734.25 320.75 734.25 320.85 734.25 320.95 734.1 321.6
L 733.75 323.25 735.25 323.25 735.8 320.7
Q 735.85 320.5 735.85 320.25 735.85 319.85 735.6 319.6 735.3 319.3 734.8 319.3 734.4 319.3 734.05 319.45 733.7 319.6 733.3 319.95 733.2 319.65 732.9 319.45 732.6 319.3 732.25 319.3 731.45 319.3 730.85 319.95
M 753.9 320
L 754 319.4 752.65 319.4 751.8 323.25 753.3 323.25 753.65 321.55
Q 753.8 321 754 320.7 754.3 320.4 754.6 320.4 754.85 320.4 754.85 320.7 754.85 320.8 754.75 321.45
L 754.35 323.25 755.85 323.25 756.3 321.15
Q 756.45 320.45 756.45 320.2 756.45 319.8 756.2 319.55 755.9 319.3 755.4 319.3 754.5 319.3 753.9 320
M 751.5 321.05
Q 751.5 320.35 751 319.8 750.55 319.3 749.5 319.3 748.75 319.3 748.25 319.65 747.65 319.9 747.35 320.45 747.1 321 747.1 321.6 747.1 322.3 747.55 322.85 748.05 323.35 749.1 323.35 749.85 323.35 750.45 323 750.95 322.7 751.2 322.1 751.5 321.6 751.5 321.05
M 749.5 320.3
Q 749.7 320.3 749.85 320.45 750.05 320.6 750.05 320.95 750.05 321.5 749.8 321.95 749.6 322.3 749.15 322.3 748.9 322.3 748.7 322.1 748.5 321.9 748.5 321.6 748.5 321.15 748.75 320.7 749 320.3 749.5 320.3
M 719.95 317.9
L 718.2 317.9 715.15 323.25 716.95 323.25 717.35 322.35 719.1 322.35 719.2 323.25 720.8 323.25 719.95 317.9
M 717.9 321.25
L 718.8 319.3 719 321.25 717.9 321.25
M 728.6 319.4
L 727.15 319.4 726.3 323.25 727.8 323.25 728.6 319.4
M 728.95 317.9
L 727.45 317.9 727.25 318.95 728.7 318.95 728.95 317.9
M 723.4 320
L 723.5 319.4 722.15 319.4 721.3 323.25 722.8 323.25 723.15 321.55
Q 723.3 321 723.5 320.7 723.8 320.4 724.1 320.4 724.35 320.4 724.35 320.7 724.35 320.8 724.25 321.45
L 723.9 323.25 725.35 323.25 725.8 321.15
Q 725.95 320.45 725.95 320.2 725.95 319.8 725.7 319.55 725.4 319.3 724.9 319.3 724 319.3 723.4 320 Z"/>
</g>
</defs>

<g transform="matrix( 1, 0, 0, 1, 0,0) ">
<use xlink:href="#Layer0_0_FILL"/>
</g>

<g transform="matrix( 1, 0, 0, 1, -655.35,-181.95) ">
<use xlink:href="#Layer0_0_MEMBER_0_FILL"/>
</g>

<g transform="matrix( 1, 0, 0, 1, -655.35,-181.95) ">
<use xlink:href="#Layer0_0_MEMBER_0_MEMBER_0_FILL"/>
</g>

<g transform="matrix( 1, 0, 0, 1, -655.35,-181.95) ">
<use xlink:href="#Layer0_0_MEMBER_0_MEMBER_0_MEMBER_0_FILL"/>
</g>

<g transform="matrix( 1, 0, 0, 1, -655.35,-181.95) ">
<use xlink:href="#Layer0_0_MEMBER_1_FILL"/>
</g>

<g transform="matrix( 0.657196044921875, 0, 0, 0.657196044921875, 964.95,36.15) ">
<use xlink:href="#Layer0_0_MEMBER_2_MEMBER_0_FILL"/>
</g>

<g transform="matrix( 1, 0, 0, 1, 0,0) ">
<use xlink:href="#Layer0_0_MEMBER_2_MEMBER_1_FILL"/>
</g>

<g transform="matrix( 1, 0, 0, 1, 0,0) ">
<use xlink:href="#Layer0_0_MEMBER_3_FILL"/>
</g>

<g transform="matrix( 1, 0, 0, 1, -655.35,-181.95) ">
<use xlink:href="#Layer0_0_MEMBER_4_FILL"/>
</g>
</svg>
