
<svg xmlns="http://www.w3.org/2000/svg" version="1.1" xmlns:xlink="http://www.w3.org/1999/xlink" preserveAspectRatio="none" x="0px" y="0px" width="152px" height="280px" viewBox="0 0 152 280">
<defs>
<g id="Layer1_0_FILL">
<path fill="#77AD90" stroke="none" d="
M 14.3 190.65
L 18.25 190.65 147.7 190.65 151.65 190.65 151.65 181.45 147.7 181.45 18.25 181.45 14.3 181.45 14.3 190.65
M 18.25 156.5
L 18.25 152.9 11.7 152.9 3.95 152.9 0 152.9 0 156.5 6.4 156.5 18.25 168.35 18.25 165.8 8.95 156.5 18.25 156.5
M 147.7 73.35
L 147.7 69.7 18.25 69.7 18.25 73.35 147.7 73.35
M 96.1 61.2
L 96.1 55.8 68.05 55.8 68.05 61.2 96.1 61.2
M 121.15 29.55
L 121.15 39.25 138 56.05 138 29.55 121.15 29.55 Z"/>

<path fill="#437259" stroke="none" d="
M 18.25 165.8
L 18.25 168.35 18.25 181.45 147.7 181.45 147.7 156.5 18.25 156.5 18.25 165.8
M 147.7 280
L 147.7 265.95 18.25 265.95 18.25 280 147.7 280
M 121.15 39.25
L 82.8 0.9 13.95 69.7 18.25 69.7 147.7 69.7 151.65 69.7 138 56.05 121.15 39.25
M 82.1 30.6
Q 87.9 30.6 92 34.65 95.75 38.4 96.05 43.5
L 96.1 43.5 96.1 55.8 96.1 61.2 68.05 61.2 68.05 55.8 68.05 43.5 68.1 43.5
Q 68.45 38.4 72.15 34.65 76.3 30.6 82.1 30.6
M 138 29.55
L 138 25.5 121.15 25.5 121.15 29.55 138 29.55 Z"/>

<path fill="#DEDFD4" stroke="none" d="
M 18.25 152.9
L 18.25 156.5 147.7 156.5 147.7 73.35 18.25 73.35 18.25 152.9
M 147.7 190.65
L 18.25 190.65 18.25 265.95 147.7 265.95 147.7 190.65
M 8.55 141.9
L 6.65 141.9 1.5 141.9 3.95 152.9 11.7 152.9 14 141.9 8.55 141.9
M 138 25.5
L 141.5 25.5 141.5 14.35 117.7 14.35 117.7 25.5 121.15 25.5 138 25.5 Z"/>

<path fill="#597700" stroke="none" d="
M 14.3 134.4
Q 12.95 133.9 11.6 134.1 10.25 134.25 9.6 134.85 8.9 135.4 8.55 135.95
L 7.55 127.2 6.65 137.05
Q 6.6 136.95 6.55 136.9 6.25 136.45 5.7 135.85 5.15 135.2 4.05 134.7 2.95 134.25 2 134.25 1 134.15 0.95 134.15 0.7 134.2 0.4 134.25 0.85 136.45 2.05 137.7 3.4 139.1 5.45 139.1 6.25 139.1 6.4 139 6.5 139 6.65 138.9
L 6.65 141.9 8.55 141.9 8.55 137.75
Q 9.05 137.95 9.3 137.95 9.4 138 10.1 138 12.2 138 13.15 136.8 13.8 136 14.3 134.4 Z"/>

<path fill="#FFFFFF" stroke="none" d="
M 92 34.65
Q 87.9 30.6 82.1 30.6 76.3 30.6 72.15 34.65 68.45 38.4 68.1 43.5
L 68.05 43.5 68.05 55.8 96.1 55.8 96.1 43.5 96.05 43.5
Q 95.75 38.4 92 34.65
M 82.1 33.2
Q 86.75 33.2 89.9 36.45 92.9 39.4 93.15 43.45
L 93.2 43.45 93.2 44.1 93.2 53.15 71 53.15 71 44.1 71 43.45 71.05 43.45
Q 71.3 39.4 74.2 36.45 77.5 33.2 82.1 33.2 Z"/>

<path fill="#508C9C" stroke="none" d="
M 93.2 53.15
L 93.2 44.1
Q 82.45 32 71 44.1
L 71 53.15 93.2 53.15 Z"/>

<path fill="#275764" stroke="none" d="
M 89.9 36.45
Q 86.75 33.2 82.1 33.2 77.5 33.2 74.2 36.45 71.3 39.4 71.05 43.45
L 71 43.45 71 44.1
Q 82.45 32 93.2 44.1
L 93.2 43.45 93.15 43.45
Q 92.9 39.4 89.9 36.45 Z"/>
</g>

<g id="Layer1_1_FILL">
<path fill="#FDFDFF" stroke="none" d="
M 73.8 275.2
L 73.8 213.25 35.7 213.25 35.7 275.2 73.8 275.2
M 71.6 215.05
L 71.6 217.9 71.6 243 55.95 243 55.95 217.9 55.95 215.05 71.6 215.05
M 53.65 215.05
L 53.65 217.9 53.65 243 37.95 243 37.95 217.9 37.95 215.05 53.65 215.05
M 55.95 245.3
L 71.6 245.3 71.6 248.3 71.6 273.2 55.95 273.2 55.95 248.3 55.95 245.3
M 37.95 273.2
L 37.95 248.3 37.95 245.3 53.65 245.3 53.65 248.3 53.65 273.2 37.95 273.2
M 130.25 213.25
L 130.25 215.6 130.25 230.85 113.5 230.85 113.5 215.6 113.5 213.25 111.5 213.25 111.5 215.6 111.5 230.85 94.7 230.85 94.7 215.6 94.7 213.25 92.35 213.25 92.35 250.5 94.7 250.5 94.7 235.65 94.7 232.9 111.5 232.9 111.5 235.65 111.5 250.5 113.5 250.5 113.5 235.65 113.5 232.9 130.25 232.9 130.25 235.65 130.25 250.5 132.55 250.5 132.55 213.25 130.25 213.25 Z"/>

<path fill="#275764" stroke="none" d="
M 53.65 245.3
L 37.95 245.3 37.95 248.3 53.65 248.3 53.65 245.3
M 71.6 245.3
L 55.95 245.3 55.95 248.3 71.6 248.3 71.6 245.3
M 53.65 217.9
L 53.65 215.05 37.95 215.05 37.95 217.9 53.65 217.9
M 71.6 217.9
L 71.6 215.05 55.95 215.05 55.95 217.9 71.6 217.9
M 94.7 232.9
L 94.7 235.65 111.5 235.65 111.5 232.9 94.7 232.9
M 111.5 215.6
L 111.5 213.25 94.7 213.25 94.7 215.6 111.5 215.6
M 130.25 235.65
L 130.25 232.9 113.5 232.9 113.5 235.65 130.25 235.65
M 130.25 215.6
L 130.25 213.25 113.5 213.25 113.5 215.6 130.25 215.6 Z"/>

<path fill="#508C9C" stroke="none" d="
M 37.95 248.3
L 37.95 273.2 53.65 273.2 53.65 248.3 37.95 248.3
M 55.95 248.3
L 55.95 273.2 71.6 273.2 71.6 248.3 55.95 248.3
M 53.65 243
L 53.65 217.9 37.95 217.9 37.95 243 53.65 243
M 71.6 217.9
L 55.95 217.9 55.95 243 71.6 243 71.6 217.9
M 113.5 250.5
L 130.25 250.5 130.25 235.65 113.5 235.65 113.5 250.5
M 111.5 235.65
L 94.7 235.65 94.7 250.5 111.5 250.5 111.5 235.65
M 94.7 230.85
L 111.5 230.85 111.5 215.6 94.7 215.6 94.7 230.85
M 130.25 230.85
L 130.25 215.6 113.5 215.6 113.5 230.85 130.25 230.85 Z"/>

<path fill="#DEDFD4" stroke="none" d="
M 35.7 275.2
L 31.9 275.2 31.9 280 77.7 280 77.7 275.2 73.8 275.2 35.7 275.2 Z"/>

<path fill="#437259" stroke="none" d="
M 77.7 213.25
L 77.7 208.45 31.9 208.45 31.9 213.25 35.7 213.25 73.8 213.25 77.7 213.25
M 94.7 250.5
L 92.35 250.5 89.55 250.5 89.55 255.3 135.35 255.3 135.35 250.5 132.55 250.5 130.25 250.5 113.5 250.5 111.5 250.5 94.7 250.5
M 135.35 213.25
L 135.35 208.45 89.55 208.45 89.55 213.25 92.35 213.25 94.7 213.25 111.5 213.25 113.5 213.25 130.25 213.25 132.55 213.25 135.35 213.25 Z"/>
</g>

<g id="Layer1_1_MEMBER_0_FILL">
<path fill="#CCCCCC" stroke="none" d="
M 70.05 245.9
Q 70.85 245.15 70.85 244.1 70.85 243.05 70.05 242.3 69.3 241.55 68.25 241.55 67.2 241.55 66.45 242.3 65.7 243.05 65.7 244.1 65.7 245.15 66.45 245.9 67.2 246.65 68.25 246.65 69.3 246.65 70.05 245.9 Z"/>
</g>

<g id="Layer1_1_MEMBER_0_MEMBER_0_FILL">
<path fill="#FFFFFF" stroke="none" d="
M 69 244.85
Q 69.5 244.35 69.5 243.6 69.5 242.85 69 242.35 68.45 241.8 67.7 241.8 67 241.8 66.45 242.35 65.9 242.85 65.9 243.6 65.9 244.35 66.45 244.85 67 245.4 67.7 245.4 68.45 245.4 69 244.85 Z"/>
</g>

<g id="Layer1_2_FILL">
<path fill="#333333" stroke="none" d="
M 143 9.7
Q 142.45 9.85 141.85 9.85 140.05 9.85 138.75 8.55 137.45 7.25 137.35 5.6
L 137.35 5.45
Q 137.35 5.2 137.35 5 137.35 3.85 136.6 3.1 135.85 2.35 134.75 2.35 133.65 2.35 132.85 3.1 132.2 3.85 132.1 4.8 132.1 4.9 132.1 5
L 132.1 5.1 130.1 7.1 132.5 7.1
Q 132.95 8.4 134 9.45 135.45 10.85 137.25 11.25
L 138 14.35 138.35 11.35
Q 138.5 11.35 138.65 11.35 141.15 11.35 143 9.7
M 133.8 4.25
Q 133.9 3.95 134.1 3.95 134.3 3.95 134.4 4.25 134.6 4.65 134.6 5.1 134.6 5.65 134.4 5.95 134.3 6.35 134.1 6.35 133.9 6.35 133.8 5.95 133.65 5.65 133.65 5.1 133.65 4.65 133.8 4.25
M 144.95 2.35
Q 144.75 2.15 144.55 1.95 145.15 3.2 145.15 4.8 145.15 7.55 143.25 9.45 143.1 9.6 143 9.7 144.1 9.4 144.95 8.55 146.3 7.25 146.3 5.45 146.3 3.65 144.95 2.35 Z"/>

<path fill="#FFFFFF" stroke="none" d="
M 134.1 3.95
Q 133.9 3.95 133.8 4.25 133.65 4.65 133.65 5.1 133.65 5.65 133.8 5.95 133.9 6.35 134.1 6.35 134.3 6.35 134.4 5.95 134.6 5.65 134.6 5.1 134.6 4.65 134.4 4.25 134.3 3.95 134.1 3.95 Z"/>
</g>

<g id="Layer1_3_MEMBER_0_FILL">
<path fill="#437259" stroke="none" d="
M -1257.95 230.05
Q -1257.95 225.05 -1262.95 225.05
L -1420.9 225.05
Q -1425.9 225.05 -1425.9 230.05
L -1425.9 247.55
Q -1425.9 252.55 -1420.9 252.55
L -1262.95 252.55
Q -1257.95 252.55 -1257.95 247.55
L -1257.95 230.05 Z"/>
</g>

<g id="Layer1_3_MEMBER_1_FILL">
<path fill="#FFFFFF" stroke="none" d="
M 128.65 191.2
Q 127.75 191.2 127.1 191.35 126.45 191.55 125.8 192.1 125.15 192.6 124.75 193.4 124.35 194.2 124.35 195.1 124.35 196.35 125.2 197.25 126.05 198.15 127.95 198.15 129.3 198.15 130.25 197.7 131.15 197.25 131.7 196.25
L 129.2 196.05
Q 128.8 196.65 128.05 196.65 126.95 196.65 126.85 195.3
L 131.9 195.3
Q 132.1 194.35 132.1 194 132.1 192.8 131.3 192 130.45 191.2 128.65 191.2
M 129.6 193.7
Q 129.6 193.95 129.55 194.1
L 127.1 194.1
Q 127.3 193.35 127.7 193.05 128.05 192.7 128.55 192.7 129 192.7 129.3 192.95 129.6 193.2 129.6 193.7
M 116.4 191.35
L 113.85 191.35 112.45 197.95 114.95 197.95 116.4 191.35
M 119.6 191.35
L 117.2 191.35 118.5 197.95 120.75 197.95 124.9 191.35 122.2 191.35 120 195.55 119.6 191.35
M 116.55 190.6
L 116.95 188.8 114.35 188.8 114 190.6 116.55 190.6
M 108.5 191.35
L 107.55 191.35 107.2 193.2 108.1 193.2 107.65 195.45
Q 107.45 196.3 107.45 196.5 107.45 197.1 107.9 197.6 108.35 198.15 109.4 198.15 109.95 198.15 111.1 197.95
L 111.5 196.15
Q 110.9 196.25 110.7 196.25 110.1 196.25 110.1 195.85 110.1 195.65 110.15 195.5
L 110.6 193.2 111.95 193.2 112.35 191.35 111 191.35 111.55 188.9 108.7 190.3 108.5 191.35
M 98.55 196.15
Q 98.55 196.95 99.1 197.55 99.65 198.15 100.9 198.15 102.1 198.15 103.15 197.2 103.15 197.6 103.25 197.95
L 105.7 197.95
Q 105.55 197.5 105.55 197.05 105.55 196.55 105.85 195.2 106.2 193.75 106.2 193.1 106.2 192.2 105.5 191.7 104.85 191.2 102.85 191.2 101.15 191.2 100.35 191.7 99.5 192.2 99.3 193.2
L 101.65 193.4
Q 101.85 193 102.1 192.85 102.4 192.7 102.85 192.7 103.25 192.7 103.5 192.85 103.75 193 103.75 193.25 103.75 193.4 103.7 193.7 103.3 193.8 102.2 193.95 100.95 194.05 100.25 194.25 99.5 194.4 99 194.85 98.55 195.3 98.55 196.15
M 101.3 195.55
Q 101.65 195.3 103.4 195 103.25 195.95 102.75 196.35 102.3 196.75 101.8 196.75 101.45 196.75 101.25 196.55 101.05 196.35 101.05 196.05 101.05 195.75 101.3 195.55
M 90.5 193.4
Q 90.1 194.2 90.1 195.1 90.1 196.35 90.95 197.25 91.8 198.15 93.75 198.15 95.1 198.15 96 197.7 96.9 197.25 97.45 196.25
L 95 196.05
Q 94.55 196.65 93.85 196.65 92.7 196.65 92.6 195.3
L 97.7 195.3
Q 97.85 194.35 97.85 194 97.85 192.8 97.05 192 96.25 191.2 94.4 191.2 93.5 191.2 92.9 191.35 92.2 191.55 91.55 192.1 90.9 192.6 90.5 193.4
M 95.3 194.1
L 92.85 194.1
Q 93.1 193.35 93.45 193.05 93.85 192.7 94.3 192.7 94.75 192.7 95.1 192.95 95.4 193.2 95.4 193.7 95.4 193.95 95.3 194.1
M 90.4 191.4
Q 89.9 191.2 89.55 191.2 88.95 191.2 88.55 191.5 88.1 191.8 87.5 192.7
L 87.45 192.65 87.75 191.35 85.4 191.35 83.95 197.95 86.5 197.95 87.05 195.5
Q 87.3 194.35 87.75 193.8 88.2 193.25 88.95 193.25 89.15 193.25 89.45 193.35
L 90.4 191.4
M 80.1 188.65
Q 78.4 188.65 77.25 189.45 76 190.2 75.45 191.55 74.8 192.9 74.8 194.25 74.8 196.05 75.85 197.1 76.9 198.15 78.9 198.15 80.75 198.15 81.95 197.15 83.1 196.2 83.55 194.8
L 80.9 194.35
Q 80.55 195.2 80.15 195.65 79.65 196.05 79 196.05 78.3 196.05 77.95 195.55 77.55 195.1 77.55 194.45 77.55 193.55 77.95 192.6 78.3 191.65 78.9 191.2 79.45 190.75 80.1 190.75 80.6 190.75 81 191.05 81.4 191.4 81.4 192.05
L 81.4 192.1 83.95 191.85
Q 83.8 190.4 82.8 189.55 81.8 188.65 80.1 188.65
M 66.9 191.2
Q 66.3 191.2 65.85 191.35 65.45 191.55 64.9 192.05
L 64.85 192.05 65 191.35 62.65 191.35 60.7 200.5 63.2 200.5 63.95 197.1
Q 64.65 198.15 66.05 198.15 67.4 198.15 68.35 196.9 69.2 195.65 69.2 193.95 69.2 192.7 68.65 191.95 68 191.2 66.9 191.2
M 64.4 195.3
Q 64.4 194.4 64.8 193.65 65.15 192.85 65.85 192.85 66.25 192.85 66.45 193.15 66.7 193.4 66.7 194 66.7 195 66.35 195.7 65.95 196.45 65.4 196.45 65 196.45 64.7 196.15 64.4 195.85 64.4 195.3
M 52.8 195.1
Q 52.8 196.35 53.65 197.25 54.45 198.15 56.4 198.15 57.75 198.15 58.65 197.7 59.55 197.25 60.1 196.25
L 57.65 196.05
Q 57.25 196.65 56.5 196.65 55.4 196.65 55.3 195.3
L 60.35 195.3
Q 60.5 194.35 60.5 194 60.5 192.8 59.7 192 58.9 191.2 57.05 191.2 56.15 191.2 55.55 191.35 54.9 191.55 54.25 192.1 53.6 192.6 53.2 193.4 52.8 194.2 52.8 195.1
M 57 192.7
Q 57.4 192.7 57.75 192.95 58.05 193.2 58.05 193.7 58.05 193.95 58 194.1
L 55.5 194.1
Q 55.75 193.35 56.1 193.05 56.5 192.7 57 192.7
M 48.55 191.2
Q 47.65 191.2 47.05 191.35 46.4 191.55 45.75 192.1 45.05 192.6 44.65 193.4 44.3 194.2 44.3 195.1 44.3 196.35 45.15 197.25 45.95 198.15 47.9 198.15 49.25 198.15 50.15 197.7 51.05 197.25 51.6 196.25
L 49.15 196.05
Q 48.7 196.65 48 196.65 46.9 196.65 46.8 195.3
L 51.85 195.3
Q 52 194.35 52 194 52 192.8 51.2 192 50.4 191.2 48.55 191.2
M 49.55 193.7
Q 49.55 193.95 49.45 194.1
L 47 194.1
Q 47.25 193.35 47.6 193.05 48 192.7 48.5 192.7 48.9 192.7 49.25 192.95 49.55 193.2 49.55 193.7
M 39.8 188.8
L 36 188.8 34.1 197.95 38.9 197.95
Q 39.9 197.95 40.95 197.55 42.05 197.1 42.85 195.65 43.6 194.3 43.6 192.65 43.6 190.95 42.7 189.9 41.8 188.8 39.8 188.8
M 38.55 195.95
L 37.4 195.95 38.45 190.85 39.3 190.85
Q 40.15 190.85 40.5 191.25 40.85 191.65 40.85 192.35 40.85 193.55 40.25 194.75 39.7 195.95 38.55 195.95 Z"/>
</g>
</defs>

<g transform="matrix( 1, 0, 0, 1, 0,0) ">
<use xlink:href="#Layer1_0_FILL"/>
</g>

<g transform="matrix( 1, 0, 0, 1, 0,0) ">
<use xlink:href="#Layer1_1_FILL"/>
</g>

<g transform="matrix( 1, 0, 0, 1, 0,0) ">
<use xlink:href="#Layer1_1_MEMBER_0_FILL"/>
</g>

<g transform="matrix( 1, 0, 0, 1, 0,0) ">
<use xlink:href="#Layer1_1_MEMBER_0_MEMBER_0_FILL"/>
</g>

<g transform="matrix( 1, 0, 0, 1, 0,0) ">
<use xlink:href="#Layer1_2_FILL"/>
</g>

<g transform="matrix( 0.657196044921875, 0, 0, 0.657196044921875, 964.95,36.15) ">
<use xlink:href="#Layer1_3_MEMBER_0_FILL"/>
</g>

<g transform="matrix( 1, 0, 0, 1, 0,0) ">
<use xlink:href="#Layer1_3_MEMBER_1_FILL"/>
</g>
</svg>
