
<svg xmlns="http://www.w3.org/2000/svg" version="1.1" xmlns:xlink="http://www.w3.org/1999/xlink" preserveAspectRatio="none" x="0px" y="0px" width="426px" height="406px" viewBox="0 0 426 406">
<defs>
<g id="Layer0_0_FILL">
<path fill="#C9B98F" stroke="none" d="
M 98 244.6
L 98 406 425.6 406
Q 295.0623046875 267.1052734375 98 244.6 Z"/>
</g>

<g id="Layer0_1_FILL">
<path fill="#414956" stroke="none" d="
M 241.7 223.95
L 199.3 223.95 199.3 325.95 241.7 325.95 241.7 223.95
M 307.15 223.95
L 264.75 223.95 264.75 325.95 307.15 325.95 307.15 223.95
M 110.8 325.95
L 110.8 223.95 68.4 223.95 68.4 325.95 110.8 325.95
M 133.85 223.95
L 133.85 325.95 176.25 325.95 176.25 223.95 133.85 223.95 Z"/>
</g>

<g id="Layer0_2_FILL">
<path fill="#000000" fill-opacity="0.30196078431372547" stroke="none" d="
M 307.2 326.25
L 307.2 323.1 264.8 323.1 264.8 326.25 307.2 326.25
M 241.75 326.25
L 241.75 323.1 199.35 323.1 199.35 326.25 241.75 326.25
M 133.9 323.1
L 133.9 326.25 176.3 326.25 176.3 323.1 133.9 323.1
M 68.45 323.1
L 68.45 326.25 110.85 326.25 110.85 323.1 68.45 323.1 Z"/>

<path fill="#CCCCCC" stroke="none" d="
M 328.2 301.9
L 328.2 176.9 46.75 176.9 46.75 301.9 68.45 301.9 68.45 224.25 110.85 224.25 110.85 301.9 133.9 301.9 133.9 224.25 176.3 224.25 176.3 301.9 199.35 301.9 199.35 224.25 241.75 224.25 241.75 301.9 264.8 301.9 264.8 224.25 307.2 224.25 307.2 301.9 328.2 301.9 Z"/>

<path fill="#ADADAD" stroke="none" d="
M 328.2 315.1
L 328.2 301.9 307.2 301.9 307.2 323.1 307.2 326.25 264.8 326.25 264.8 323.1 264.8 301.9 241.75 301.9 241.75 323.1 241.75 326.25 199.35 326.25 199.35 323.1 199.35 301.9 176.3 301.9 176.3 323.1 176.3 326.25 133.9 326.25 133.9 323.1 133.9 301.9 110.85 301.9 110.85 323.1 110.85 326.25 68.45 326.25 68.45 323.1 68.45 301.9 46.75 301.9 46.75 352.55 328.2 352.55 328.2 325.6 328.2 315.1
M 328.2 176.9
L 328.2 169.95 46.75 169.95 46.75 176.9 328.2 176.9 Z"/>

<path fill="#5D3012" stroke="none" d="
M 399.15 325.6
L 388.65 325.6 388.65 405.4 399.15 405.4 399.15 325.6 Z"/>

<path fill="#824B26" stroke="none" d="
M 388.65 325.6
L 399.15 325.6 405.15 325.6 405.15 405.4 415.65 405.4 415.65 325.6 425.6 325.6 425.6 315.1 328.2 315.1 328.2 325.6 388.65 325.6 Z"/>

<path fill="#575F83" stroke="none" d="
M 333.7 169.95
L 333.7 158.45 41.25 158.45 41.25 169.95 46.75 169.95 328.2 169.95 333.7 169.95 Z"/>
</g>

<g id="Layer0_2_MEMBER_0_FILL">
<path fill="#FFFFFF" fill-opacity="0.30196078431372547" stroke="none" d="
M 110.85 229.3
L 110.85 224.25 68.45 224.25 68.45 271.7 110.85 229.3 Z"/>
</g>

<g id="Layer0_2_MEMBER_1_FILL">
<path fill="#FFFFFF" fill-opacity="0.30196078431372547" stroke="none" d="
M 133.9 224.25
L 133.9 271.7 176.3 229.3 176.3 224.25 133.9 224.25 Z"/>
</g>

<g id="Layer0_2_MEMBER_2_FILL">
<path fill="#FFFFFF" fill-opacity="0.30196078431372547" stroke="none" d="
M 241.75 229.3
L 241.75 224.25 199.35 224.25 199.35 271.7 241.75 229.3 Z"/>
</g>

<g id="Layer0_2_MEMBER_3_FILL">
<path fill="#FFFFFF" fill-opacity="0.30196078431372547" stroke="none" d="
M 307.2 229.3
L 307.2 224.25 264.8 224.25 264.8 271.7 307.2 229.3 Z"/>
</g>

<g id="Layer0_2_MEMBER_4_FILL">
<path fill="#999999" stroke="none" d="
M 267.05 98.5
L 169.55 98.5 169.55 109.5 267.05 109.5 267.05 98.5 Z"/>
</g>

<g id="Layer0_2_MEMBER_5_FILL">
<path fill="#333333" stroke="none" d="
M 231.65 17.7
Q 231.65 17.1 231.2 16.65 230.75 16.2 230.15 16.2
L 181.65 16.2
Q 181.6 16.2 181.55 16.2
L 128.05 16.2 125.1 2.15
Q 124.95 1.65 124.6 1.3 124.2 0.95 123.7 0.95
L 100.7 0
Q 100.25 0 99.9 0.2 99.5 0.35 99.3 0.75 99.1 1.1 99.1 1.5
L 99.1 40.6
Q 99.1 40.75 99.1 40.95
L 99.1 135.6
Q 99.1 136.2 99.55 136.65 100 137.1 100.6 137.1 101.2 137.1 101.65 136.65 102.1 136.2 102.1 135.6
L 102.1 126.15 129.95 137.7
Q 130.5 137.9 131.1 137.7 131.65 137.45 131.9 136.9 132.1 136.3 131.9 135.75 131.65 135.15 131.1 134.95
L 102.8 123.2 141.95 96.8 151.75 143.55 141.65 139.35
Q 141.05 139.1 140.5 139.35 139.9 139.55 139.7 140.15 139.45 140.7 139.7 141.3 139.9 141.85 140.5 142.1
L 151.6 146.7
Q 152.15 146.9 152.75 146.7 153.3 146.45 153.55 145.9 153.6 145.7 153.65 145.5
L 153.7 145.5
Q 154.3 145.35 154.65 144.85 155 144.3 154.9 143.7
L 132.75 38.7 216.85 29.3 216.85 109.3
Q 216.85 109.9 217.3 110.35 217.75 110.8 218.35 110.8 218.95 110.8 219.4 110.35 219.85 109.9 219.85 109.3
L 219.85 28.95 230.35 27.8
Q 230.9 27.75 231.3 27.3 231.65 26.85 231.65 26.3
L 231.65 17.7
M 228.65 19.2
L 228.65 23.9 221.5 19.2 228.65 19.2
M 216.85 26.25
L 207.1 27.35 216.85 20.85 216.85 26.25
M 213.9 19.2
L 202.55 26.8 187.75 19.2 213.9 19.2
M 225.35 25.35
L 219.85 25.95 219.85 21.75 225.35 25.35
M 179.7 19.2
L 181.25 19.2 198.95 28.25 161.7 32.4 179.7 19.2
M 122.4 3.9
L 124.45 13.75 105.85 3.25 122.4 3.9
M 157.5 31.75
L 132.8 19.2 174.65 19.2 157.5 31.75
M 128.95 20.6
L 153.9 33.3 132.15 35.7 128.95 20.6
M 125.9 20.7
L 129.15 36.05 104.9 38.75 125.9 20.7
M 102.1 37.15
L 102.1 19.2 123.05 19.2 102.1 37.15
M 102.1 16.2
L 102.1 4.6 122.65 16.2 102.1 16.2
M 133.95 58.85
L 141 92.35 104.4 79.1 133.95 58.85
M 102.1 42.15
L 131.35 57 102.1 77.05 102.1 42.15
M 102.1 81.45
L 139.4 94.9 102.1 120.05 102.1 81.45
M 129.8 39
L 133.05 54.55 107.5 41.5 129.8 39 Z"/>
</g>

<g id="Layer0_2_MEMBER_6_FILL">
<path fill="#999999" stroke="none" d="
M 140 157.4
L 141.05 156.35 141.05 129.95 112.55 158.45 139.55 158.45
Q 139.55 157.85 140 157.4
M 81.95 158.45
L 108.95 158.45
Q 108.95 157.85 109.4 157.4
L 110.45 156.35 110.45 129.95 81.95 158.45
M 51.35 158.45
L 78.35 158.45
Q 78.35 157.85 78.8 157.4
L 79.85 156.35 79.85 129.95 51.35 158.45
M 293 157.4
L 294.05 156.35 294.05 129.95 265.55 158.45 292.55 158.45
Q 292.55 157.85 293 157.4
M 262.4 157.4
L 263.45 156.35 263.45 129.95 234.95 158.45 261.95 158.45
Q 261.95 157.85 262.4 157.4
M 204.35 158.45
L 231.35 158.45
Q 231.35 157.85 231.8 157.4
L 232.85 156.35 232.85 129.95 204.35 158.45
M 170.6 157.4
L 171.65 156.35 171.65 129.95 143.15 158.45 170.15 158.45
Q 170.15 157.85 170.6 157.4
M 173.75 158.45
L 200.75 158.45
Q 200.75 157.85 201.2 157.4
L 202.25 156.35 202.25 129.95 173.75 158.45
M 324.65 158.45
L 324.65 129.95 296.15 158.45 324.65 158.45 Z"/>

<path fill="#FFFFFF" stroke="none" d="
M 141.05 129.95
L 142.1 128.9
Q 142.55 128.45 142.55 127.85 142.55 127.25 142.1 126.8 141.65 126.35 141.05 126.35 140.45 126.35 140 126.8
L 110.45 156.35 109.4 157.4
Q 108.95 157.85 108.95 158.45
L 112.55 158.45 141.05 129.95
M 79.85 156.35
L 78.8 157.4
Q 78.35 157.85 78.35 158.45
L 81.95 158.45 110.45 129.95 111.5 128.9
Q 111.65 128.75 111.8 128.55 111.95 128.2 111.95 127.85 111.95 127.25 111.5 126.8 111.05 126.35 110.45 126.35 109.85 126.35 109.4 126.8
L 79.85 156.35
M 79.85 129.95
L 80.9 128.9
Q 81.35 128.45 81.35 127.85 81.35 127.25 80.9 126.8 80.45 126.35 79.85 126.35 79.25 126.35 78.8 126.8
L 48.2 157.4
Q 47.75 157.85 47.75 158.45
L 51.35 158.45 79.85 129.95
M 294.05 129.95
L 295.1 128.9
Q 295.55 128.45 295.55 127.85 295.55 127.25 295.1 126.8 294.65 126.35 294.05 126.35 293.45 126.35 293 126.8
L 263.45 156.35 262.4 157.4
Q 261.95 157.85 261.95 158.45
L 265.55 158.45 294.05 129.95
M 232.85 156.35
L 231.8 157.4
Q 231.35 157.85 231.35 158.45
L 234.95 158.45 263.45 129.95 264.5 128.9
Q 264.95 128.45 264.95 127.85 264.95 127.25 264.5 126.8 264.05 126.35 263.45 126.35 262.85 126.35 262.4 126.8
L 232.85 156.35
M 171.65 129.95
L 172.7 128.9
Q 173.15 128.45 173.15 127.85 173.15 127.25 172.7 126.8 172.25 126.35 171.65 126.35 171.05 126.35 170.6 126.8
L 141.05 156.35 140 157.4
Q 139.55 157.85 139.55 158.45
L 143.15 158.45 171.65 129.95
M 203.3 128.9
Q 203.75 128.45 203.75 127.85 203.75 127.25 203.3 126.8 202.85 126.35 202.25 126.35 201.65 126.35 201.2 126.8
L 171.65 156.35 170.6 157.4
Q 170.15 157.85 170.15 158.45
L 173.75 158.45 202.25 129.95 203.3 128.9
M 232.85 129.95
L 233.9 128.9
Q 234.35 128.45 234.35 127.85 234.35 127.25 233.9 126.8 233.45 126.35 232.85 126.35 232.25 126.35 231.8 126.8
L 202.25 156.35 201.2 157.4
Q 200.75 157.85 200.75 158.45
L 204.35 158.45 232.85 129.95
M 324.65 129.95
L 325.7 128.9
Q 326.15 128.45 326.15 127.85 326.15 127.25 325.7 126.8 325.25 126.35 324.65 126.35 324.05 126.35 323.6 126.8
L 294.05 156.35 293 157.4
Q 292.55 157.85 292.55 158.45
L 296.15 158.45 324.65 129.95 Z"/>
</g>

<g id="Layer0_2_MEMBER_7_FILL">
<path fill="#575F83" stroke="none" d="
M 235.2 20.55
Q 232.3 17.65 228.15 17.65 224 17.65 221.05 20.55 218.15 23.5 218.15 27.65 218.15 31.8 221.05 34.7 224 37.65 228.15 37.65 232.3 37.65 235.2 34.7 238.15 31.8 238.15 27.65 238.15 23.5 235.2 20.55
M 225.1 24.65
Q 226.35 23.4 228.15 23.4 229.9 23.4 231.1 24.65 232.4 25.9 232.4 27.65 232.4 29.4 231.1 30.65 229.9 31.9 228.15 31.9 226.35 31.9 225.1 30.65 223.9 29.4 223.9 27.65 223.9 25.9 225.1 24.65 Z"/>

<path fill="#CCCCCC" stroke="none" d="
M 228.15 23.4
Q 226.35 23.4 225.1 24.65 223.9 25.9 223.9 27.65 223.9 29.4 225.1 30.65 226.35 31.9 228.15 31.9 229.9 31.9 231.1 30.65 232.4 29.4 232.4 27.65 232.4 25.9 231.1 24.65 229.9 23.4 228.15 23.4 Z"/>
</g>

<g id="Layer0_2_MEMBER_8_FILL">
<path fill="#575F83" stroke="none" d="
M 125.55 39.65
Q 130.05 35.25 130.05 28.9 130.05 22.6 125.55 18.1 121.1 13.7 114.8 13.7 108.5 13.7 104 18.1 99.6 22.6 99.6 28.9 99.6 35.25 104 39.65 108.5 44.15 114.8 44.15 121.1 44.15 125.55 39.65
M 114.8 21.7
Q 117.8 21.7 119.9 23.8 122.05 25.9 122.05 28.9 122.05 31.95 119.9 34.05 117.8 36.15 114.8 36.15 111.8 36.15 109.65 34.05 107.6 31.95 107.6 28.9 107.6 25.9 109.65 23.8 111.8 21.7 114.8 21.7 Z"/>

<path fill="#CCCCCC" stroke="none" d="
M 119.9 23.8
Q 117.8 21.7 114.8 21.7 111.8 21.7 109.65 23.8 107.6 25.9 107.6 28.9 107.6 31.95 109.65 34.05 111.8 36.15 114.8 36.15 117.8 36.15 119.9 34.05 122.05 31.95 122.05 28.9 122.05 25.9 119.9 23.8 Z"/>
</g>

<g id="Layer0_2_MEMBER_9_FILL">
<path fill="#333333" stroke="none" d="
M 46.75 210.05
L 46.75 204.55 30.5 204.55 30.5 210.05 46.75 210.05
M 30.5 188.55
L 30.5 194.05 46.75 194.05 46.75 188.55 30.5 188.55 Z"/>

<path fill="#575F83" stroke="none" d="
M 30.5 184.05
L 0 184.05 0 214.55 30.5 214.55 30.5 210.05 30.5 204.55 30.5 194.05 30.5 188.55 30.5 184.05 Z"/>
</g>

<g id="Layer0_2_MEMBER_9_MEMBER_0_FILL">
<path fill="#FFFFFF" stroke="none" d="
M 17.15 189.95
Q 14.65 187.55 11.3 187.55 10.05 187.55 8.85 187.85
L 14.5 193.5 13.4 197.8 9.05 198.9 3.45 193.25
Q 3.1 194.5 3.1 195.8 3.1 199.2 5.5 201.6 7.9 204 11.3 204.05 12.6 204.05 13.8 203.55
L 17.15 206.9
Q 17.35 207.15 17.6 207.35
L 21.6 211.45 25.9 210.35 27.05 206 19.2 198.2
Q 19.5 197 19.6 195.8 19.5 192.4 17.15 189.95
M 21.1 208.4
Q 20.5 207.85 20.5 207 20.45 206.15 21.05 205.55 21.65 205 22.5 205 23.35 205 23.95 205.55 24.55 206.1 24.55 207 24.55 207.85 23.95 208.4 23.35 209 22.55 209 21.7 208.95 21.1 208.4 Z"/>
</g>

<g id="Layer0_2_MEMBER_10_FILL">
<path fill="#911616" stroke="none" d="
M 190.9 252.85
Q 192.05 251.7 192.25 250.15
L 182.85 250.15
Q 183.05 251.7 184.2 252.85 185.6 254.25 187.55 254.25 189.5 254.25 190.9 252.85 Z"/>

<path fill="#A12C2C" stroke="none" d="
M 192.3 229
Q 192.3 228.85 192.3 228.75
L 182.8 249.55
Q 182.8 249.85 182.85 250.15
L 192.25 250.15
Q 192.3 249.85 192.3 249.5
L 192.3 229 Z"/>

<path fill="#B84F4F" stroke="none" d="
M 192.25 228.15
L 182.9 228.15
Q 182.8 228.55 182.8 229
L 182.8 249.55 192.3 228.75
Q 192.3 228.45 192.25 228.15 Z"/>

<path fill="#D96F6F" stroke="none" d="
M 184.2 225.65
Q 183.1 226.75 182.9 228.15
L 192.25 228.15
Q 192 226.75 190.9 225.65 189.5 224.25 187.55 224.25 185.6 224.25 184.2 225.65 Z"/>
</g>

<g id="Layer0_2_MEMBER_11_FILL">
<path fill="#0F6674" stroke="none" d="
M 62.95 250.15
L 53.55 250.15
Q 53.75 251.7 54.9 252.85 56.3 254.25 58.25 254.25 60.2 254.25 61.6 252.85 62.75 251.7 62.95 250.15 Z"/>

<path fill="#23829A" stroke="none" d="
M 63 229
Q 63 228.85 63 228.75
L 53.5 249.55
Q 53.5 249.85 53.55 250.15
L 62.95 250.15
Q 63 249.85 63 249.5
L 63 229 Z"/>

<path fill="#3BA9C4" stroke="none" d="
M 62.95 228.15
L 53.6 228.15
Q 53.5 228.55 53.5 229
L 53.5 249.55 63 228.75
Q 63 228.45 62.95 228.15 Z"/>

<path fill="#56C1DB" stroke="none" d="
M 53.6 228.15
L 62.95 228.15
Q 62.7 226.75 61.6 225.65 60.2 224.25 58.25 224.25 56.3 224.25 54.9 225.65 53.8 226.75 53.6 228.15 Z"/>
</g>

<g id="Layer0_2_MEMBER_12_FILL">
<path fill="#0F6674" stroke="none" d="
M 118.2 250.15
Q 118.4 251.7 119.55 252.85 120.95 254.25 122.9 254.25 124.85 254.25 126.25 252.85 127.4 251.7 127.6 250.15
L 118.2 250.15 Z"/>

<path fill="#23829A" stroke="none" d="
M 127.65 229
Q 127.65 228.85 127.65 228.75
L 118.15 249.55
Q 118.15 249.85 118.2 250.15
L 127.6 250.15
Q 127.65 249.85 127.65 249.5
L 127.65 229 Z"/>

<path fill="#3BA9C4" stroke="none" d="
M 127.65 228.75
Q 127.65 228.45 127.6 228.15
L 118.25 228.15
Q 118.15 228.55 118.15 229
L 118.15 249.55 127.65 228.75 Z"/>

<path fill="#56C1DB" stroke="none" d="
M 126.25 225.65
Q 124.85 224.25 122.9 224.25 120.95 224.25 119.55 225.65 118.45 226.75 118.25 228.15
L 127.6 228.15
Q 127.35 226.75 126.25 225.65 Z"/>
</g>

<g id="Layer0_2_MEMBER_13_FILL">
<path fill="#911616" stroke="none" d="
M 255.55 252.85
Q 256.7 251.7 256.9 250.15
L 247.5 250.15
Q 247.7 251.7 248.85 252.85 250.25 254.25 252.2 254.25 254.15 254.25 255.55 252.85 Z"/>

<path fill="#A12C2C" stroke="none" d="
M 256.95 229
Q 256.95 228.85 256.95 228.75
L 247.45 249.55
Q 247.45 249.85 247.5 250.15
L 256.9 250.15
Q 256.95 249.85 256.95 249.5
L 256.95 229 Z"/>

<path fill="#B84F4F" stroke="none" d="
M 256.9 228.15
L 247.55 228.15
Q 247.45 228.55 247.45 229
L 247.45 249.55 256.95 228.75
Q 256.95 228.45 256.9 228.15 Z"/>

<path fill="#D96F6F" stroke="none" d="
M 248.85 225.65
Q 247.75 226.75 247.55 228.15
L 256.9 228.15
Q 256.65 226.75 255.55 225.65 254.15 224.25 252.2 224.25 250.25 224.25 248.85 225.65 Z"/>
</g>

<g id="Layer0_2_MEMBER_14_FILL">
<path fill="#911616" stroke="none" d="
M 320.35 252.85
Q 321.5 251.7 321.7 250.15
L 312.3 250.15
Q 312.5 251.7 313.65 252.85 315.05 254.25 317 254.25 318.95 254.25 320.35 252.85 Z"/>

<path fill="#A12C2C" stroke="none" d="
M 321.75 229
Q 321.75 228.85 321.75 228.75
L 312.25 249.55
Q 312.25 249.85 312.3 250.15
L 321.7 250.15
Q 321.75 249.85 321.75 249.5
L 321.75 229 Z"/>

<path fill="#B84F4F" stroke="none" d="
M 321.7 228.15
L 312.35 228.15
Q 312.25 228.55 312.25 229
L 312.25 249.55 321.75 228.75
Q 321.75 228.45 321.7 228.15 Z"/>

<path fill="#D96F6F" stroke="none" d="
M 313.65 225.65
Q 312.55 226.75 312.35 228.15
L 321.7 228.15
Q 321.45 226.75 320.35 225.65 318.95 224.25 317 224.25 315.05 224.25 313.65 225.65 Z"/>
</g>

<path id="Layer0_2_1_STROKES" stroke="#FFFFFF" stroke-width="3" stroke-linejoin="round" stroke-linecap="round" fill="none" d="
M 152.15 145.3
L 152.65 145.5"/>

<path id="Layer0_2_MEMBER_7_1_STROKES" stroke="#333333" stroke-width="3" stroke-linejoin="round" stroke-linecap="round" fill="none" d="
M 238.15 27.65
Q 238.15 31.8 235.2 34.7 232.3 37.65 228.15 37.65 224 37.65 221.05 34.7 218.15 31.8 218.15 27.65 218.15 23.5 221.05 20.55 224 17.65 228.15 17.65 232.3 17.65 235.2 20.55 238.15 23.5 238.15 27.65 Z"/>

<path id="Layer0_2_MEMBER_8_1_STROKES" stroke="#333333" stroke-width="3" stroke-linejoin="round" stroke-linecap="round" fill="none" d="
M 130.05 28.9
Q 130.05 35.25 125.55 39.65 121.1 44.15 114.8 44.15 108.5 44.15 104 39.65 99.6 35.25 99.6 28.9 99.6 22.6 104 18.1 108.5 13.7 114.8 13.7 121.1 13.7 125.55 18.1 130.05 22.6 130.05 28.9 Z"/>
</defs>

<g transform="matrix( 1, 0, 0, 1, 0,0) ">
<use xlink:href="#Layer0_0_FILL"/>
</g>

<g transform="matrix( 1, 0, 0, 1, 0,0) ">
<use xlink:href="#Layer0_1_FILL"/>
</g>

<g transform="matrix( 1, 0, 0, 1, 0,0) ">
<use xlink:href="#Layer0_2_FILL"/>

<use xlink:href="#Layer0_2_1_STROKES"/>
</g>

<g transform="matrix( 1, 0, 0, 1, 0,0) ">
<use xlink:href="#Layer0_2_MEMBER_0_FILL"/>
</g>

<g transform="matrix( 1, 0, 0, 1, 0,0) ">
<use xlink:href="#Layer0_2_MEMBER_1_FILL"/>
</g>

<g transform="matrix( 1, 0, 0, 1, 0,0) ">
<use xlink:href="#Layer0_2_MEMBER_2_FILL"/>
</g>

<g transform="matrix( 1, 0, 0, 1, 0,0) ">
<use xlink:href="#Layer0_2_MEMBER_3_FILL"/>
</g>

<g transform="matrix( 1, 0, 0, 1, 0,0) ">
<use xlink:href="#Layer0_2_MEMBER_4_FILL"/>
</g>

<g transform="matrix( 1, 0, 0, 1, 0,0) ">
<use xlink:href="#Layer0_2_MEMBER_5_FILL"/>
</g>

<g transform="matrix( 1, 0, 0, 1, 0,0) ">
<use xlink:href="#Layer0_2_MEMBER_6_FILL"/>
</g>

<g transform="matrix( 1, 0, 0, 1, 0,0) ">
<use xlink:href="#Layer0_2_MEMBER_7_FILL"/>

<use xlink:href="#Layer0_2_MEMBER_7_1_STROKES"/>
</g>

<g transform="matrix( 1, 0, 0, 1, 0,0) ">
<use xlink:href="#Layer0_2_MEMBER_8_FILL"/>

<use xlink:href="#Layer0_2_MEMBER_8_1_STROKES"/>
</g>

<g transform="matrix( 1, 0, 0, 1, 0,0) ">
<use xlink:href="#Layer0_2_MEMBER_9_FILL"/>
</g>

<g transform="matrix( 1, 0, 0, 1, 0,0) ">
<use xlink:href="#Layer0_2_MEMBER_9_MEMBER_0_FILL"/>
</g>

<g transform="matrix( 1, 0, 0, 1, 0,0) ">
<use xlink:href="#Layer0_2_MEMBER_10_FILL"/>
</g>

<g transform="matrix( 1, 0, 0, 1, 0,0) ">
<use xlink:href="#Layer0_2_MEMBER_11_FILL"/>
</g>

<g transform="matrix( 1, 0, 0, 1, 0,0) ">
<use xlink:href="#Layer0_2_MEMBER_12_FILL"/>
</g>

<g transform="matrix( 1, 0, 0, 1, 0,0) ">
<use xlink:href="#Layer0_2_MEMBER_13_FILL"/>
</g>

<g transform="matrix( 1, 0, 0, 1, 0,0) ">
<use xlink:href="#Layer0_2_MEMBER_14_FILL"/>
</g>
</svg>
