
<svg xmlns="http://www.w3.org/2000/svg" version="1.1" xmlns:xlink="http://www.w3.org/1999/xlink" preserveAspectRatio="none" x="0px" y="0px" width="362px" height="393px" viewBox="0 0 362 393">
<defs>
<g id="Layer0_0_FILL">
<path fill="#878787" stroke="none" d="
M 207.9 440.2
L 207.9 461.9 541.05 461.9 541.05 440.2 207.9 440.2
M 537.25 285.8
L 541.05 285.8 486.45 191.2 435.15 279.9 313.75 279.9 262.55 191.2 207.9 285.8 211.7 285.8 262.55 197.75 311.9 283.2 437.1 283.2 486.45 197.75 537.25 285.8 Z"/>

<path fill="#C5C9C3" stroke="none" d="
M 541.05 285.8
L 537.25 285.8 486.45 197.75 437.1 283.2 311.9 283.2 262.55 197.75 211.7 285.8 207.9 285.8 207.9 440.2 541.05 440.2 541.05 285.8 Z"/>

<path fill="#285764" stroke="none" d="
M 541.05 285.8
L 546.3 282.2 486.45 179.35 473.5 201.7 275.45 201.7 262.55 179.35 202.6 282.55 207.9 285.8 262.55 191.2 313.75 279.9 435.15 279.9 486.45 191.2 541.05 285.8
M 468.2 210.9
L 462.9 220.1 286.1 220.1 280.75 210.9 468.2 210.9
M 455.95 232.15
L 450.6 241.35 298.35 241.35 293.05 232.15 455.95 232.15
M 443.65 253.4
L 438.35 262.6 310.65 262.6 305.3 253.4 443.65 253.4 Z"/>

<path fill="#1A7D8D" stroke="none" d="
M 438.35 262.6
L 443.65 253.4 305.3 253.4 310.65 262.6 438.35 262.6
M 450.6 241.35
L 455.95 232.15 293.05 232.15 298.35 241.35 450.6 241.35
M 462.9 220.1
L 468.2 210.9 280.75 210.9 286.1 220.1 462.9 220.1 Z"/>
</g>

<g id="Layer0_0_MEMBER_0_FILL">
<path fill="#FFFFFF" stroke="none" d="
M 471.6 243.3
L 471.6 275.8 501.5 275.8 501.5 243.3 499.7 243.3 499.7 243.35 487.6 243.35 487.6 243.3 471.6 243.3
M 473.45 245.25
L 485.55 245.25 485.55 258.5 473.45 258.5 473.45 245.25
M 473.45 260.3
L 485.55 260.3 485.55 273.6 473.45 273.6 473.45 260.3
M 487.55 245.25
L 499.6 245.25 499.6 258.5 487.55 258.5 487.55 245.25
M 487.55 260.3
L 499.6 260.3 499.6 273.6 487.55 273.6 487.55 260.3 Z"/>

<path fill="#23545F" stroke="none" d="
M 499.6 260.3
L 487.55 260.3 487.55 273.6 499.6 273.6 499.6 260.3
M 499.6 245.25
L 487.55 245.25 487.55 258.5 499.6 258.5 499.6 245.25
M 485.55 260.3
L 473.45 260.3 473.45 273.6 485.55 273.6 485.55 260.3
M 485.55 245.25
L 473.45 245.25 473.45 258.5 485.55 258.5 485.55 245.25 Z"/>

<path fill="#666666" stroke="none" d="
M 471.6 275.8
L 471.6 278.05 501.5 278.05 501.5 275.8 471.6 275.8 Z"/>
</g>

<g id="Layer0_0_MEMBER_1_FILL">
<path fill="#FFFFFF" stroke="none" d="
M 224.8 306.3
L 224.8 354.5 254.7 354.5 254.7 306.3 224.8 306.3
M 226.8 308.7
L 238.85 308.7 238.85 322 226.8 322 226.8 308.7
M 226.7 339
L 238.75 339 238.75 352.3 226.7 352.3 226.7 339
M 226.7 323.9
L 238.75 323.9 238.75 337.2 226.7 337.2 226.7 323.9
M 240.75 337.2
L 240.75 323.9 252.85 323.9 252.85 337.2 240.75 337.2
M 240.8 322
L 240.8 308.7 252.9 308.7 252.9 322 240.8 322
M 240.75 352.3
L 240.75 339 252.85 339 252.85 352.3 240.75 352.3 Z"/>

<path fill="#23545F" stroke="none" d="
M 240.75 339
L 240.75 352.3 252.85 352.3 252.85 339 240.75 339
M 240.8 308.7
L 240.8 322 252.9 322 252.9 308.7 240.8 308.7
M 240.75 323.9
L 240.75 337.2 252.85 337.2 252.85 323.9 240.75 323.9
M 238.75 323.9
L 226.7 323.9 226.7 337.2 238.75 337.2 238.75 323.9
M 238.75 339
L 226.7 339 226.7 352.3 238.75 352.3 238.75 339
M 238.85 308.7
L 226.8 308.7 226.8 322 238.85 322 238.85 308.7 Z"/>

<path fill="#666666" stroke="none" d="
M 224.8 354.5
L 224.8 356.7 254.7 356.7 254.7 354.5 224.8 354.5 Z"/>
</g>

<g id="Layer0_0_MEMBER_2_FILL">
<path fill="#FFFFFF" stroke="none" d="
M 300.15 354.5
L 300.15 306.3 270.25 306.3 270.25 354.5 300.15 354.5
M 286.25 308.7
L 298.35 308.7 298.35 322 286.25 322 286.25 308.7
M 286.2 339
L 298.3 339 298.3 352.3 286.2 352.3 286.2 339
M 286.2 323.9
L 298.3 323.9 298.3 337.2 286.2 337.2 286.2 323.9
M 284.2 323.9
L 284.2 337.2 272.1 337.2 272.1 323.9 284.2 323.9
M 284.3 308.7
L 284.3 322 272.2 322 272.2 308.7 284.3 308.7
M 272.1 339
L 284.2 339 284.2 352.3 272.1 352.3 272.1 339 Z"/>

<path fill="#23545F" stroke="none" d="
M 284.2 339
L 272.1 339 272.1 352.3 284.2 352.3 284.2 339
M 284.3 322
L 284.3 308.7 272.2 308.7 272.2 322 284.3 322
M 284.2 337.2
L 284.2 323.9 272.1 323.9 272.1 337.2 284.2 337.2
M 298.3 323.9
L 286.2 323.9 286.2 337.2 298.3 337.2 298.3 323.9
M 298.3 339
L 286.2 339 286.2 352.3 298.3 352.3 298.3 339
M 298.35 308.7
L 286.25 308.7 286.25 322 298.35 322 298.35 308.7 Z"/>

<path fill="#666666" stroke="none" d="
M 270.25 354.5
L 270.25 356.7 300.15 356.7 300.15 354.5 270.25 354.5 Z"/>
</g>

<g id="Layer0_0_MEMBER_3_FILL">
<path fill="#666666" stroke="none" d="
M 478.65 356.7
L 478.65 354.5 448.75 354.5 448.75 356.7 478.65 356.7 Z"/>

<path fill="#FFFFFF" stroke="none" d="
M 478.65 306.3
L 448.75 306.3 448.75 354.5 478.65 354.5 478.65 306.3
M 450.7 308.7
L 462.8 308.7 462.8 322 450.7 322 450.7 308.7
M 450.6 337.2
L 450.6 323.9 462.7 323.9 462.7 337.2 450.6 337.2
M 464.7 337.2
L 464.7 323.9 476.75 323.9 476.75 337.2 464.7 337.2
M 450.6 339
L 462.7 339 462.7 352.3 450.6 352.3 450.6 339
M 464.75 308.7
L 476.85 308.7 476.85 322 464.75 322 464.75 308.7
M 464.7 339
L 476.75 339 476.75 352.3 464.7 352.3 464.7 339 Z"/>

<path fill="#23545F" stroke="none" d="
M 476.75 339
L 464.7 339 464.7 352.3 476.75 352.3 476.75 339
M 476.85 308.7
L 464.75 308.7 464.75 322 476.85 322 476.85 308.7
M 462.7 339
L 450.6 339 450.6 352.3 462.7 352.3 462.7 339
M 464.7 323.9
L 464.7 337.2 476.75 337.2 476.75 323.9 464.7 323.9
M 450.6 323.9
L 450.6 337.2 462.7 337.2 462.7 323.9 450.6 323.9
M 462.8 308.7
L 450.7 308.7 450.7 322 462.8 322 462.8 308.7 Z"/>
</g>

<g id="Layer0_0_MEMBER_4_FILL">
<path fill="#666666" stroke="none" d="
M 524.15 356.7
L 524.15 354.5 494.25 354.5 494.25 356.7 524.15 356.7 Z"/>

<path fill="#FFFFFF" stroke="none" d="
M 524.15 306.3
L 494.25 306.3 494.25 354.5 524.15 354.5 524.15 306.3
M 510.25 308.7
L 522.35 308.7 522.35 322 510.25 322 510.25 308.7
M 496.15 337.2
L 496.15 323.9 508.2 323.9 508.2 337.2 496.15 337.2
M 510.2 337.2
L 510.2 323.9 522.3 323.9 522.3 337.2 510.2 337.2
M 510.2 339
L 522.3 339 522.3 352.3 510.2 352.3 510.2 339
M 496.25 308.7
L 508.3 308.7 508.3 322 496.25 322 496.25 308.7
M 496.15 339
L 508.2 339 508.2 352.3 496.15 352.3 496.15 339 Z"/>

<path fill="#23545F" stroke="none" d="
M 508.2 339
L 496.15 339 496.15 352.3 508.2 352.3 508.2 339
M 508.3 308.7
L 496.25 308.7 496.25 322 508.3 322 508.3 308.7
M 522.3 339
L 510.2 339 510.2 352.3 522.3 352.3 522.3 339
M 510.2 323.9
L 510.2 337.2 522.3 337.2 522.3 323.9 510.2 323.9
M 496.15 323.9
L 496.15 337.2 508.2 337.2 508.2 323.9 496.15 323.9
M 522.35 308.7
L 510.25 308.7 510.25 322 522.35 322 522.35 308.7 Z"/>
</g>

<g id="Layer0_0_MEMBER_5_FILL">
<path fill="#666666" stroke="none" d="
M 254.7 429.5
L 254.7 427.3 224.8 427.3 224.8 429.5 254.7 429.5 Z"/>

<path fill="#FFFFFF" stroke="none" d="
M 254.7 379.1
L 224.8 379.1 224.8 427.3 254.7 427.3 254.7 379.1
M 226.8 381.45
L 238.85 381.45 238.85 394.8 226.8 394.8 226.8 381.45
M 240.8 394.8
L 240.8 381.5 252.9 381.5 252.9 394.8 240.8 394.8
M 252.85 396.7
L 252.85 410 240.75 410 240.75 396.7 252.85 396.7
M 252.85 411.8
L 252.85 425.1 240.75 425.1 240.75 411.8 252.85 411.8
M 226.7 396.7
L 238.75 396.7 238.75 410 226.7 410 226.7 396.7
M 226.7 411.8
L 238.75 411.8 238.75 425.1 226.7 425.1 226.7 411.8 Z"/>

<path fill="#23545F" stroke="none" d="
M 238.75 411.8
L 226.7 411.8 226.7 425.1 238.75 425.1 238.75 411.8
M 238.75 396.7
L 226.7 396.7 226.7 410 238.75 410 238.75 396.7
M 252.85 425.1
L 252.85 411.8 240.75 411.8 240.75 425.1 252.85 425.1
M 252.85 410
L 252.85 396.7 240.75 396.7 240.75 410 252.85 410
M 240.8 381.5
L 240.8 394.8 252.9 394.8 252.9 381.5 240.8 381.5
M 238.85 381.45
L 226.8 381.45 226.8 394.8 238.85 394.8 238.85 381.45 Z"/>
</g>

<g id="Layer0_0_MEMBER_6_FILL">
<path fill="#666666" stroke="none" d="
M 300.15 429.5
L 300.15 427.3 270.25 427.3 270.25 429.5 300.15 429.5 Z"/>

<path fill="#FFFFFF" stroke="none" d="
M 300.15 379.1
L 270.25 379.1 270.25 427.3 300.15 427.3 300.15 379.1
M 272.2 394.8
L 272.2 381.45 284.3 381.45 284.3 394.8 272.2 394.8
M 286.25 381.5
L 298.35 381.5 298.35 394.8 286.25 394.8 286.25 381.5
M 284.2 396.7
L 284.2 410 272.1 410 272.1 396.7 284.2 396.7
M 286.2 411.8
L 298.3 411.8 298.3 425.1 286.2 425.1 286.2 411.8
M 286.2 396.7
L 298.3 396.7 298.3 410 286.2 410 286.2 396.7
M 284.2 411.8
L 284.2 425.1 272.1 425.1 272.1 411.8 284.2 411.8 Z"/>

<path fill="#23545F" stroke="none" d="
M 284.2 425.1
L 284.2 411.8 272.1 411.8 272.1 425.1 284.2 425.1
M 298.3 396.7
L 286.2 396.7 286.2 410 298.3 410 298.3 396.7
M 298.3 411.8
L 286.2 411.8 286.2 425.1 298.3 425.1 298.3 411.8
M 284.2 410
L 284.2 396.7 272.1 396.7 272.1 410 284.2 410
M 298.35 381.5
L 286.25 381.5 286.25 394.8 298.35 394.8 298.35 381.5
M 272.2 381.45
L 272.2 394.8 284.3 394.8 284.3 381.45 272.2 381.45 Z"/>
</g>

<g id="Layer0_0_MEMBER_7_FILL">
<path fill="#666666" stroke="none" d="
M 448.75 427.3
L 448.75 429.5 478.65 429.5 478.65 427.3 448.75 427.3 Z"/>

<path fill="#FFFFFF" stroke="none" d="
M 478.65 379.1
L 448.75 379.1 448.75 427.3 478.65 427.3 478.65 379.1
M 450.7 381.45
L 462.8 381.45 462.8 394.8 450.7 394.8 450.7 381.45
M 464.75 394.8
L 464.75 381.5 476.85 381.5 476.85 394.8 464.75 394.8
M 476.75 396.7
L 476.75 410 464.7 410 464.7 396.7 476.75 396.7
M 450.6 396.7
L 462.7 396.7 462.7 410 450.6 410 450.6 396.7
M 450.6 411.8
L 462.7 411.8 462.7 425.1 450.6 425.1 450.6 411.8
M 464.7 411.8
L 476.75 411.8 476.75 425.1 464.7 425.1 464.7 411.8 Z"/>

<path fill="#23545F" stroke="none" d="
M 476.75 411.8
L 464.7 411.8 464.7 425.1 476.75 425.1 476.75 411.8
M 462.7 411.8
L 450.6 411.8 450.6 425.1 462.7 425.1 462.7 411.8
M 462.7 396.7
L 450.6 396.7 450.6 410 462.7 410 462.7 396.7
M 476.75 410
L 476.75 396.7 464.7 396.7 464.7 410 476.75 410
M 464.75 381.5
L 464.75 394.8 476.85 394.8 476.85 381.5 464.75 381.5
M 462.8 381.45
L 450.7 381.45 450.7 394.8 462.8 394.8 462.8 381.45 Z"/>
</g>

<g id="Layer0_0_MEMBER_8_FILL">
<path fill="#666666" stroke="none" d="
M 494.25 427.3
L 494.25 429.5 524.15 429.5 524.15 427.3 494.25 427.3 Z"/>

<path fill="#FFFFFF" stroke="none" d="
M 524.15 379.1
L 494.25 379.1 494.25 427.3 524.15 427.3 524.15 379.1
M 496.25 394.8
L 496.25 381.45 508.3 381.45 508.3 394.8 496.25 394.8
M 510.25 381.5
L 522.35 381.5 522.35 394.8 510.25 394.8 510.25 381.5
M 508.2 396.7
L 508.2 410 496.15 410 496.15 396.7 508.2 396.7
M 510.2 396.7
L 522.3 396.7 522.3 410 510.2 410 510.2 396.7
M 510.2 411.8
L 522.3 411.8 522.3 425.1 510.2 425.1 510.2 411.8
M 496.15 411.8
L 508.2 411.8 508.2 425.1 496.15 425.1 496.15 411.8 Z"/>

<path fill="#23545F" stroke="none" d="
M 508.2 411.8
L 496.15 411.8 496.15 425.1 508.2 425.1 508.2 411.8
M 522.3 411.8
L 510.2 411.8 510.2 425.1 522.3 425.1 522.3 411.8
M 522.3 396.7
L 510.2 396.7 510.2 410 522.3 410 522.3 396.7
M 508.2 410
L 508.2 396.7 496.15 396.7 496.15 410 508.2 410
M 522.35 381.5
L 510.25 381.5 510.25 394.8 522.35 394.8 522.35 381.5
M 496.25 381.45
L 496.25 394.8 508.3 394.8 508.3 381.45 496.25 381.45 Z"/>
</g>

<g id="Layer0_0_MEMBER_9_FILL">
<path fill="#666666" stroke="none" d="
M 247.6 275.8
L 247.6 278.05 277.5 278.05 277.5 275.8 247.6 275.8 Z"/>

<path fill="#FFFFFF" stroke="none" d="
M 277.5 243.3
L 275.65 243.3 275.65 243.35 263.6 243.35 263.6 243.3 247.6 243.3 247.6 275.8 277.5 275.8 277.5 243.3
M 263.55 245.25
L 275.6 245.25 275.6 258.5 263.55 258.5 263.55 245.25
M 249.45 245.25
L 261.55 245.25 261.55 258.5 249.45 258.5 249.45 245.25
M 263.55 260.3
L 275.6 260.3 275.6 273.6 263.55 273.6 263.55 260.3
M 249.45 260.3
L 261.55 260.3 261.55 273.6 249.45 273.6 249.45 260.3 Z"/>

<path fill="#23545F" stroke="none" d="
M 261.55 260.3
L 249.45 260.3 249.45 273.6 261.55 273.6 261.55 260.3
M 275.6 260.3
L 263.55 260.3 263.55 273.6 275.6 273.6 275.6 260.3
M 261.55 245.25
L 249.45 245.25 249.45 258.5 261.55 258.5 261.55 245.25
M 275.6 245.25
L 263.55 245.25 263.55 258.5 275.6 258.5 275.6 245.25 Z"/>
</g>

<g id="Layer0_0_MEMBER_10_FILL">
<path fill="#C5C9C3" stroke="none" d="
M 417.25 461.95
L 417.25 456.5 411.3 456.5 411.3 451.05 337.5 451.05 337.5 456.5 331.5 456.5 331.5 461.95 417.25 461.95 Z"/>

<path fill="#FFFFFF" stroke="none" d="
M 374.3 380.3
L 374.3 380.55 374.3 450.75 406.8 450.75 406.8 380.55 406.8 380.3 374.3 380.3
M 376.9 384.85
L 376.9 382.3 404.3 382.3 404.3 384.85 404.3 448.5 376.9 448.5 376.9 384.85
M 341.8 380.3
L 341.8 380.55 341.8 450.75 374.25 450.75 374.25 380.55 374.25 380.3 341.8 380.3
M 344.3 384.85
L 344.3 382.3 371.7 382.3 371.7 384.85 371.7 448.5 344.3 448.5 344.3 384.85 Z"/>

<path fill="#23545F" stroke="none" d="
M 404.3 384.85
L 376.9 384.85 376.9 448.5 404.3 448.5 404.3 384.85
M 381.65 391.8
L 384.35 390.9 385.25 388.2 386.1 390.9 388.75 391.8 386.1 392.65 385.25 395.35 384.35 392.65 381.65 391.8
M 395.55 390.9
L 396.45 388.2 397.3 390.9 400 391.8 397.3 392.65 396.45 395.35 395.55 392.65 392.85 391.8 395.55 390.9
M 396.45 407.4
L 395.55 404.7 392.85 403.85 395.55 402.95 396.45 400.25 397.3 402.95 400 403.85 397.3 404.7 396.45 407.4
M 385.25 400.25
L 386.1 402.95 388.75 403.85 386.1 404.7 385.25 407.4 384.35 404.7 381.65 403.85 384.35 402.95 385.25 400.25
M 385.25 412.3
L 386.1 415 388.75 415.85 386.1 416.75 385.25 419.4 384.35 416.75 381.65 415.85 384.35 415 385.25 412.3
M 396.45 419.4
L 395.55 416.75 392.85 415.85 395.55 415 396.45 412.3 397.3 415 400 415.85 397.3 416.75 396.45 419.4
M 384.35 440.8
L 381.65 439.95 384.35 439.05 385.25 436.35 386.1 439.05 388.75 439.95 386.1 440.8 385.25 443.5 384.35 440.8
M 384.35 428.75
L 381.65 427.9 384.35 427 385.25 424.3 386.1 427 388.75 427.9 386.1 428.75 385.25 431.45 384.35 428.75
M 397.3 428.75
L 396.45 431.45 395.55 428.75 392.85 427.9 395.55 427 396.45 424.3 397.3 427 400 427.9 397.3 428.75
M 396.45 443.5
L 395.55 440.8 392.85 439.95 395.55 439.05 396.45 436.35 397.3 439.05 400 439.95 397.3 440.8 396.45 443.5
M 371.7 384.85
L 344.3 384.85 344.3 448.5 371.7 448.5 371.7 384.85
M 352.15 395.35
L 351.3 392.65 348.6 391.8 351.3 390.9 352.15 388.2 353 390.9 355.7 391.8 353 392.65 352.15 395.35
M 364.25 392.65
L 363.35 395.35 362.5 392.65 359.8 391.8 362.5 390.9 363.35 388.2 364.25 390.9 366.9 391.8 364.25 392.65
M 364.25 404.7
L 363.35 407.4 362.5 404.7 359.8 403.85 362.5 402.95 363.35 400.25 364.25 402.95 366.9 403.85 364.25 404.7
M 353 404.7
L 352.15 407.4 351.3 404.7 348.6 403.85 351.3 402.95 352.15 400.25 353 402.95 355.7 403.85 353 404.7
M 353 416.75
L 352.15 419.4 351.3 416.75 348.6 415.85 351.3 415 352.15 412.3 353 415 355.7 415.85 353 416.75
M 364.25 416.75
L 363.35 419.4 362.5 416.75 359.8 415.85 362.5 415 363.35 412.3 364.25 415 366.9 415.85 364.25 416.75
M 364.25 428.75
L 363.35 431.45 362.5 428.75 359.8 427.9 362.5 427 363.35 424.3 364.25 427 366.9 427.9 364.25 428.75
M 353 428.75
L 352.15 431.45 351.3 428.75 348.6 427.9 351.3 427 352.15 424.3 353 427 355.7 427.9 353 428.75
M 353 440.8
L 352.15 443.5 351.3 440.8 348.6 439.95 351.3 439.05 352.15 436.35 353 439.05 355.7 439.95 353 440.8
M 364.25 440.8
L 363.35 443.5 362.5 440.8 359.8 439.95 362.5 439.05 363.35 436.35 364.25 439.05 366.9 439.95 364.25 440.8 Z"/>

<path fill="#427E8C" stroke="none" d="
M 395.55 440.8
L 396.45 443.5 397.3 440.8 400 439.95 397.3 439.05 396.45 436.35 395.55 439.05 392.85 439.95 395.55 440.8
M 396.45 431.45
L 397.3 428.75 400 427.9 397.3 427 396.45 424.3 395.55 427 392.85 427.9 395.55 428.75 396.45 431.45
M 381.65 427.9
L 384.35 428.75 385.25 431.45 386.1 428.75 388.75 427.9 386.1 427 385.25 424.3 384.35 427 381.65 427.9
M 381.65 439.95
L 384.35 440.8 385.25 443.5 386.1 440.8 388.75 439.95 386.1 439.05 385.25 436.35 384.35 439.05 381.65 439.95
M 395.55 416.75
L 396.45 419.4 397.3 416.75 400 415.85 397.3 415 396.45 412.3 395.55 415 392.85 415.85 395.55 416.75
M 386.1 415
L 385.25 412.3 384.35 415 381.65 415.85 384.35 416.75 385.25 419.4 386.1 416.75 388.75 415.85 386.1 415
M 386.1 402.95
L 385.25 400.25 384.35 402.95 381.65 403.85 384.35 404.7 385.25 407.4 386.1 404.7 388.75 403.85 386.1 402.95
M 395.55 404.7
L 396.45 407.4 397.3 404.7 400 403.85 397.3 402.95 396.45 400.25 395.55 402.95 392.85 403.85 395.55 404.7
M 396.45 388.2
L 395.55 390.9 392.85 391.8 395.55 392.65 396.45 395.35 397.3 392.65 400 391.8 397.3 390.9 396.45 388.2
M 384.35 390.9
L 381.65 391.8 384.35 392.65 385.25 395.35 386.1 392.65 388.75 391.8 386.1 390.9 385.25 388.2 384.35 390.9
M 363.35 443.5
L 364.25 440.8 366.9 439.95 364.25 439.05 363.35 436.35 362.5 439.05 359.8 439.95 362.5 440.8 363.35 443.5
M 352.15 443.5
L 353 440.8 355.7 439.95 353 439.05 352.15 436.35 351.3 439.05 348.6 439.95 351.3 440.8 352.15 443.5
M 352.15 431.45
L 353 428.75 355.7 427.9 353 427 352.15 424.3 351.3 427 348.6 427.9 351.3 428.75 352.15 431.45
M 363.35 431.45
L 364.25 428.75 366.9 427.9 364.25 427 363.35 424.3 362.5 427 359.8 427.9 362.5 428.75 363.35 431.45
M 363.35 419.4
L 364.25 416.75 366.9 415.85 364.25 415 363.35 412.3 362.5 415 359.8 415.85 362.5 416.75 363.35 419.4
M 352.15 419.4
L 353 416.75 355.7 415.85 353 415 352.15 412.3 351.3 415 348.6 415.85 351.3 416.75 352.15 419.4
M 352.15 407.4
L 353 404.7 355.7 403.85 353 402.95 352.15 400.25 351.3 402.95 348.6 403.85 351.3 404.7 352.15 407.4
M 363.35 407.4
L 364.25 404.7 366.9 403.85 364.25 402.95 363.35 400.25 362.5 402.95 359.8 403.85 362.5 404.7 363.35 407.4
M 363.35 395.35
L 364.25 392.65 366.9 391.8 364.25 390.9 363.35 388.2 362.5 390.9 359.8 391.8 362.5 392.65 363.35 395.35
M 351.3 392.65
L 352.15 395.35 353 392.65 355.7 391.8 353 390.9 352.15 388.2 351.3 390.9 348.6 391.8 351.3 392.65 Z"/>

<path fill="#17414A" stroke="none" d="
M 376.9 382.3
L 376.9 384.85 404.3 384.85 404.3 382.3 376.9 382.3
M 344.3 382.3
L 344.3 384.85 371.7 384.85 371.7 382.3 344.3 382.3 Z"/>

<path fill="#878787" stroke="none" d="
M 341.8 380.55
L 341.8 380.3 374.25 380.3 374.25 380.55 374.3 380.55 374.3 380.3 406.8 380.3 406.8 380.55 411.3 380.55 411.3 375.1 337.5 375.1 337.5 380.55 341.8 380.55 Z"/>
</g>

<g id="Layer0_0_MEMBER_10_MEMBER_0_FILL">
<path fill="#CCCCCC" stroke="none" d="
M 380.9 406.3
L 380.35 406.3 380.35 409 380.55 409
Q 381.4 409 381.95 409.85 382.5 410.6 382.5 411.75
L 382.5 421.5
Q 382.5 422.65 381.95 423.45 381.4 424.3 380.55 424.3
L 380.35 424.3 380.35 426.85 380.9 426.85
Q 382.45 426.85 383.55 425.75 384.65 424.65 384.65 423.15
L 384.65 410
Q 384.65 408.5 383.55 407.45 382.45 406.3 380.9 406.3 Z"/>
</g>

<g id="Layer0_0_MEMBER_10_MEMBER_1_FILL">
<path fill="#CCCCCC" stroke="none" d="
M 368.25 406.3
L 367.65 406.3
Q 366.1 406.3 365 407.45 363.9 408.5 363.9 410
L 363.9 423.15
Q 363.9 424.65 365 425.75 366.1 426.85 367.65 426.85
L 368.25 426.85 368.25 424.3 368 424.3
Q 367.2 424.3 366.65 423.45 366.05 422.65 366.05 421.5
L 366.05 411.75
Q 366.05 410.6 366.65 409.85 367.2 409 368 409
L 368.25 409 368.25 406.3 Z"/>
</g>

<g id="Layer0_0_MEMBER_11_FILL">
<path fill="#464646" stroke="none" d="
M 322.45 400.1
L 321 400.1 321 406.6
Q 320.5 406.75 320.05 407.15 319.4 407.85 319.4 408.8 319.4 409.75 320.05 410.4 320.75 411.1 321.7 411.1 322.65 411.1 323.3 410.4 324 409.75 324 408.8 324 407.85 323.3 407.15 322.9 406.75 322.45 406.65
L 322.45 400.1 Z"/>
</g>

<g id="Layer0_0_MEMBER_11_MEMBER_0_FILL">
<path fill="#666666" stroke="none" d="
M 325.5 389
L 327.85 389 321.7 385.25 315.55 389 317.95 389 317.95 399.65 315.55 399.65 321.7 403.5 327.85 399.65 325.5 399.65 325.5 389 Z"/>
</g>

<g id="Layer0_0_MEMBER_11_MEMBER_0_MEMBER_0_FILL">
<path fill="#DAE9F3" stroke="none" d="
M 318.9 397.6
L 318.9 398.8 324.55 398.8 324.55 392 318.9 397.6 Z"/>

<path fill="#FFFFFF" stroke="none" d="
M 324.55 392
L 324.55 389.7 318.9 389.7 318.9 397.6 324.55 392 Z"/>
</g>

<g id="Layer0_0_MEMBER_12_FILL">
<path fill="#464646" stroke="none" d="
M 426.3 400.1
L 426.3 406.6
Q 425.8 406.75 425.4 407.15 424.7 407.85 424.7 408.8 424.7 409.75 425.4 410.4 426.05 411.1 427 411.1 428 411.1 428.65 410.4 429.3 409.75 429.3 408.8 429.3 407.85 428.65 407.15 428.25 406.75 427.8 406.65
L 427.8 400.1 426.3 400.1 Z"/>
</g>

<g id="Layer0_0_MEMBER_12_MEMBER_0_FILL">
<path fill="#666666" stroke="none" d="
M 433.15 389
L 427 385.25 420.9 389 423.3 389 423.3 399.65 420.9 399.65 427 403.5 433.15 399.65 430.8 399.65 430.8 389 433.15 389 Z"/>
</g>

<g id="Layer0_0_MEMBER_12_MEMBER_0_MEMBER_0_FILL">
<path fill="#DAE9F3" stroke="none" d="
M 424.25 398.8
L 429.85 398.8 429.85 392 424.25 397.6 424.25 398.8 Z"/>

<path fill="#FFFFFF" stroke="none" d="
M 429.85 389.7
L 424.25 389.7 424.25 397.6 429.85 392 429.85 389.7 Z"/>
</g>

<g id="Layer0_0_MEMBER_13_FILL">
<path fill="#464646" stroke="none" d="
M 549.85 405.7
L 549.85 400.75 548.45 400.75 548.45 404.95
Q 548.45 407.55 545.85 407.55
L 542.25 407.55 542.25 407.25
Q 542.25 406.75 541.9 406.4 541.55 406.1 541.1 406.1
L 541.05 406.1 541.05 410.6 541.1 410.6
Q 541.55 410.6 541.9 410.3 542.25 409.95 542.25 409.45
L 542.25 408.95 546.55 408.95
Q 549.85 408.95 549.85 405.7 Z"/>
</g>

<g id="Layer0_0_MEMBER_13_MEMBER_0_FILL">
<path fill="#666666" stroke="none" d="
M 549.15 385.25
L 543 389 545.35 389 545.35 399.65 543 399.65 549.15 403.5 555.3 399.65 552.9 399.65 552.9 389 555.3 389 549.15 385.25 Z"/>
</g>

<g id="Layer0_0_MEMBER_13_MEMBER_0_MEMBER_0_FILL">
<path fill="#DAE9F3" stroke="none" d="
M 546.3 398.8
L 551.9 398.8 551.9 397.6 546.3 392 546.3 398.8 Z"/>

<path fill="#FFFFFF" stroke="none" d="
M 551.9 389.7
L 546.3 389.7 546.3 392 551.9 397.6 551.9 389.7 Z"/>
</g>

<g id="Layer0_0_MEMBER_14_FILL">
<path fill="#464646" stroke="none" d="
M 206.7 407.55
L 203.1 407.55
Q 200.5 407.55 200.5 404.95
L 200.5 400.75 199.1 400.75 199.1 405.7
Q 199.1 408.95 202.35 408.95
L 206.7 408.95 206.7 409.45
Q 206.7 409.95 207.05 410.3 207.35 410.6 207.85 410.6
L 207.9 410.6 207.9 406.1 207.85 406.1
Q 207.35 406.1 207.05 406.4 206.7 406.75 206.7 407.25
L 206.7 407.55 Z"/>
</g>

<g id="Layer0_0_MEMBER_14_MEMBER_0_FILL">
<path fill="#666666" stroke="none" d="
M 193.65 389
L 196.05 389 196.05 399.65 193.65 399.65 199.8 403.5 205.95 399.65 203.6 399.65 203.6 389 205.95 389 199.8 385.25 193.65 389 Z"/>
</g>

<g id="Layer0_0_MEMBER_14_MEMBER_0_MEMBER_0_FILL">
<path fill="#DAE9F3" stroke="none" d="
M 197 397.6
L 197 398.8 202.6 398.8 202.6 392 197 397.6 Z"/>

<path fill="#FFFFFF" stroke="none" d="
M 202.6 392
L 202.6 389.7 197 389.7 197 397.6 202.6 392 Z"/>
</g>

<g id="Layer0_0_MEMBER_15_FILL">
<path fill="#285764" stroke="none" d="
M 375.35 111.45
L 375.35 111.35 429.9 205.85 435.15 202.2 375.35 99.55 375.35 99.6 315.55 202.55 320.8 205.85 375.35 111.45
M 364.25 163.95
L 364.25 164.65
Q 375.7 152.55 386.45 164.65
L 386.45 163.95
Q 386.15 159.95 383.2 156.95 380 153.75 375.35 153.75 370.75 153.75 367.5 156.95 364.55 159.95 364.3 163.95
L 364.25 163.95 Z"/>

<path fill="#878787" stroke="none" d="
M 375.35 118
L 375.35 117.95 426.1 205.85 429.75 205.85 429.9 205.85 375.35 111.35 375.35 111.45 320.8 205.85 320.9 205.85 324.65 205.85 375.35 118
M 361.35 176.3
L 361.35 181.75 389.35 181.75 389.35 176.3 361.35 176.3 Z"/>

<path fill="#C5C9C3" stroke="none" d="
M 375.35 117.95
L 375.35 118 324.65 205.85 320.9 205.85 320.9 337.75 429.75 337.75 429.75 205.85 426.1 205.85 375.35 117.95
M 361.35 181.75
L 361.35 176.3 361.35 164.05
Q 361.75 158.95 365.4 155.15 369.55 151.1 375.35 151.1 381.2 151.1 385.25 155.15 389 158.95 389.35 164.05
L 389.35 176.3 389.35 181.75 361.35 181.75 Z"/>

<path fill="#FFFFFF" stroke="none" d="
M 361.35 164.05
L 361.35 176.3 389.35 176.3 389.35 164.05
Q 389 158.95 385.25 155.15 381.2 151.1 375.35 151.1 369.55 151.1 365.4 155.15 361.75 158.95 361.35 164.05
M 364.25 164.65
L 364.25 163.95 364.3 163.95
Q 364.55 159.95 367.5 156.95 370.75 153.75 375.35 153.75 380 153.75 383.2 156.95 386.15 159.95 386.45 163.95
L 386.45 164.65 386.45 173.7 364.25 173.7 364.25 164.65 Z"/>

<path fill="#1A7D8D" stroke="none" d="
M 364.25 164.65
L 364.25 173.7 386.45 173.7 386.45 164.65
Q 375.7 152.55 364.25 164.65 Z"/>
</g>

<g id="Layer0_0_MEMBER_16_FILL">
<path fill="#FFFFFF" stroke="none" d="
M 421.5 241.6
Q 421.55 240.65 421.55 239.7 421.55 238.75 421.5 237.85 421.5 237.6 421.5 237.4 420.7 219.7 407.95 206.9 394.4 193.4 375.2 193.4 356 193.4 342.4 206.9 328.85 220.5 328.85 239.7 328.85 254.55 336.95 265.95 338.55 268.2 340.4 270.3 341.35 271.4 342.4 272.45 356 286.05 375.2 286.05 394.4 286.05 407.95 272.45 409 271.4 409.95 270.3 411.9 268.2 413.45 265.95 421 255.25 421.5 241.6
M 406.65 212.4
Q 410.11953125 216.3783203125 412.45 221.3
L 413.8 224.3
Q 416.7 231.3 416.8 238.7
L 416.8 239.55
Q 416.8 239.6 416.8 239.7
L 416.4 245.05
Q 416.2 246.4 415.95 247.75 415.8 248.45 415.65 249.1 415.39453125 250.1220703125 415.1 251.1
L 415.05 251.35
Q 415.020703125 251.4306640625 415 251.5 414.85 252 414.65 252.5 412.45 259.6 408.15 265.1
L 402 271.5 400.55 272.65
Q 400.2 272.9 399.8 273.2
L 399.6 273.3
Q 399.35 273.5125 399.05 273.7 398.5630859375 274.0421875 398.05 274.35
L 396.55 275.3
Q 395.874609375 275.711328125 395.15 276.1
L 393.55 276.95
Q 386.4 280.5 378.85 281.15
L 370.1 280.95
Q 368.75 280.75 367.4 280.5
L 365.4 280.05
Q 364.9 279.95 364.45 279.8 359.05 278.3 354.45 275.7 352.85 274.85 351.4 273.8 349.5 272.5 347.8 270.95
L 346.65 269.9 342.65 265.55
Q 340.10859375 262.3615234375 338.25 258.5
L 337.95 257.9
Q 334.1 250.2 333.65 242.05 333.55 240.8 333.55 239.6 333.55 233.3658203125 335.6 227.2 335.6994140625 226.9130859375 335.8 226.6 336.053125 225.8634765625 336.35 225.1 336.45 224.75 336.6 224.4 337.9 221.05 339.65 218.1
L 342.1 214.45 346.4 209.7
Q 348.65 207.4 351.35 205.55 354.7 203.3 358.55 201.65 362.3 199.9 366.25 199.05
L 374.5 198.05
Q 382.9 197.8 391.15 201.35
L 394.45 202.85
Q 395.25 203.25 396.05 203.65 397.65 204.6 399.15 205.6 399.65 205.95 400.15 206.35
L 401.15 207.1 406.65 212.4
M 366.7 259.15
Q 366.25 259.25 365.8 259.6 365.4 260 365.1 260.5 364.85 261.05 364.85 261.65 364.85 262.5 365.4 263.1 365.95 263.7 367.3 263.7 368.2 263.7 368.85 263.4 369.4 263.1 369.8 262.45
L 368.15 262.3
Q 367.85 262.7 367.35 262.7 366.6 262.7 366.55 261.8
L 369.95 261.8
Q 370.1 261.15 370.1 260.9 370.1 260.1 369.5 259.55 369 259 367.7 259 367.15 259 366.7 259.15
M 367.1 260.25
Q 367.35 260 367.7 260 367.95 260 368.2 260.2 368.4 260.35 368.4 260.7 368.4 260.85 368.35 260.95
L 366.7 260.95
Q 366.8 260.5 367.1 260.25
M 376.2 259.1
L 374.65 259.1 374.5 259.75
Q 373.95 259 373.15 259 372.15 259 371.5 259.8 370.85 260.6 370.85 261.65 370.85 262.45 371.25 262.95 371.7 263.45 372.4 263.45 373.15 263.45 373.7 262.85
L 373.75 262.85 373.55 263.55
Q 373.45 263.95 373.25 264.2 373.05 264.4 372.75 264.4 372.3 264.4 372.25 263.95
L 370.6 263.7
Q 370.6 263.75 370.6 263.95 370.6 264.4 370.9 264.8 371.2 265.2 371.6 265.3 372.05 265.4 372.8 265.4 373.9 265.4 374.5 265 375.05 264.6 375.35 263.35
L 376.2 259.1
M 373.95 260.35
Q 374.1 260.5 374.1 260.75 374.1 261.25 373.85 261.75 373.65 262.3 373.15 262.3 372.85 262.3 372.7 262.1 372.55 261.9 372.55 261.6 372.55 261.05 372.85 260.6 373.15 260.15 373.55 260.15 373.75 260.15 373.95 260.35
M 379.05 259.1
L 377.45 259.1 376.5 263.6 378.2 263.6 378.55 261.9
Q 378.7 261.15 379.05 260.75 379.35 260.4 379.85 260.4 380 260.4 380.2 260.5
L 380.8 259.15
Q 380.55 259 380.25 259 379.85 259 379.55 259.2 379.3 259.45 378.9 260
L 378.85 260 379.05 259.1
M 385.8 261.8
Q 385.9 261.15 385.9 260.9 385.9 260.1 385.35 259.55 384.85 259 383.55 259 383 259 382.55 259.15 382.1 259.25 381.65 259.6 381.2 260 380.95 260.5 380.7 261.05 380.7 261.65 380.7 262.5 381.25 263.1 381.8 263.7 383.1 263.7 384.05 263.7 384.65 263.4 385.25 263.1 385.65 262.45
L 384 262.3
Q 383.7 262.7 383.2 262.7 382.45 262.7 382.35 261.8
L 385.8 261.8
M 384.05 260.2
Q 384.25 260.35 384.25 260.7 384.25 260.85 384.2 260.95
L 382.55 260.95
Q 382.65 260.5 382.95 260.25 383.2 260 383.5 260 383.8 260 384.05 260.2
M 389.35 259
Q 388.75 259 388.3 259.15 387.9 259.25 387.45 259.6 387 260 386.75 260.5 386.45 261.05 386.45 261.65 386.45 262.5 387.05 263.1 387.6 263.7 388.9 263.7 389.85 263.7 390.45 263.4 391.05 263.1 391.45 262.45
L 389.75 262.3
Q 389.45 262.7 388.95 262.7 388.2 262.7 388.15 261.8
L 391.55 261.8
Q 391.7 261.15 391.7 260.9 391.7 260.1 391.15 259.55 390.6 259 389.35 259
M 389.85 260.2
Q 390 260.35 390 260.7 390 260.85 390 260.95
L 388.3 260.95
Q 388.45 260.5 388.7 260.25 388.95 260 389.3 260 389.6 260 389.85 260.2
M 361.2 259
Q 360.3 259 359.65 259.85 359.05 260.7 359.05 261.85 359.05 262.7 359.45 263.2 359.85 263.7 360.65 263.7 361.05 263.7 361.35 263.6 361.65 263.45 362 263.15
L 362.05 263.15 361.95 263.6 363.55 263.6 364.85 257.4 363.15 257.4 362.65 259.7
Q 362.15 259 361.2 259
M 362.15 260.35
Q 362.3 260.55 362.3 260.95 362.3 261.5 362.05 262.05 361.8 262.6 361.35 262.6 361.05 262.6 360.9 262.4 360.75 262.2 360.75 261.8 360.75 261.15 361 260.65 361.25 260.15 361.65 260.15 361.95 260.15 362.15 260.35
M 358.55 245.9
Q 358 246.2 357.8 246.85
L 359.45 247.05
Q 359.55 246.75 359.75 246.65 359.9 246.55 360.25 246.55 360.5 246.55 360.7 246.65 360.9 246.75 360.9 246.9 360.9 247.05 360.8 247.25 360.55 247.3 359.85 247.35 358.95 247.45 358.5 247.55 358 247.7 357.65 248 357.35 248.3 357.35 248.9 357.35 249.45 357.7 249.85 358.1 250.25 358.95 250.25 359.75 250.25 360.45 249.6 360.45 249.85 360.5 250.15
L 362.2 250.15
Q 362.05 249.8 362.05 249.5 362.05 249.15 362.3 248.2 362.5 247.25 362.5 246.85 362.5 246.2 362.05 245.85 361.6 245.55 360.25 245.55 359.1 245.55 358.55 245.9
M 360.6 248.1
Q 360.5 248.8 360.2 249.05 359.85 249.3 359.55 249.3 359.3 249.3 359.15 249.15 359 249.05 359 248.8 359 248.6 359.25 248.45 359.45 248.3 360.6 248.1
M 356.2 244.2
Q 355.9 244 355.6 244 355.25 243.9 354.7 243.9
L 351.85 243.9 350.55 250.15 354.35 250.15
Q 355.5 250.15 356.1 249.55 356.7 248.95 356.7 248.2 356.7 247.15 355.7 246.85 356.35 246.7 356.6 246.3 356.85 245.85 356.85 245.35 356.85 245 356.7 244.7 356.55 244.4 356.2 244.2
M 353.9 246.35
L 353.25 246.35 353.5 245.15 354.3 245.15
Q 354.75 245.15 354.95 245.3 355.1 245.45 355.1 245.65 355.1 245.85 354.95 246.05 354.8 246.2 354.55 246.3 354.35 246.35 353.9 246.35
M 354.7 247.65
Q 354.85 247.85 354.85 248.1 354.85 248.8 353.8 248.8
L 352.75 248.8 353 247.55 354.05 247.55
Q 354.55 247.55 354.7 247.65
M 358.85 221.65
L 355.75 221.65 356.75 216.95 354.85 216.95 353.5 223.2 358.5 223.2 358.85 221.65
M 396.85 245.75
Q 396.3 245.95 396.05 246.35 395.75 246.7 395.75 247.1 395.75 247.6 396.15 247.95 396.5 248.2 397.5 248.4 397.9 248.45 398.05 248.5 398.25 248.6 398.25 248.8 398.25 249.05 398 249.15 397.8 249.25 397.5 249.25 396.9 249.25 396.8 248.75
L 395.1 248.9
Q 395.2 249.6 395.7 249.95 396.15 250.25 397.25 250.25 398.55 250.25 399.2 249.75 399.85 249.25 399.85 248.55 399.85 248.05 399.5 247.75 399.2 247.45 398.2 247.3 397.6 247.25 397.45 247.15 397.3 247 397.3 246.85 397.3 246.7 397.45 246.6 397.6 246.5 397.95 246.5 398.45 246.5 398.55 246.85
L 400.15 246.7
Q 400.05 246.05 399.55 245.8 399.05 245.55 398.15 245.55 397.4 245.55 396.85 245.75
M 393.5 244.95
L 393.55 246.2 394.75 246.2 395.05 245.4
Q 395.25 244.95 395.25 244.85
L 395.45 243.9 393.75 243.9 393.5 244.95
M 391.3 246.55
L 391.25 246.5 391.45 245.65 389.85 245.65 388.9 250.15 390.6 250.15 391 248.45
Q 391.15 247.65 391.45 247.3 391.75 246.95 392.25 246.95 392.4 246.95 392.6 247
L 393.25 245.65
Q 392.95 245.55 392.65 245.55 392.3 245.55 392 245.7 391.7 245.95 391.3 246.55
M 387.9 233.65
Q 388.15 233.3 388.55 233.3 388.85 233.3 388.85 233.7 388.85 233.8 388.7 234.55
L 388.3 236.65 390 236.65 390.5 234.2
Q 390.7 233.4 390.7 233.15 390.7 232.7 390.4 232.4 390.1 232.05 389.45 232.05 388.45 232.05 387.7 232.85
L 387.85 232.15 386.25 232.15 385.3 236.65 387.05 236.65 387.45 234.7
Q 387.6 234.05 387.9 233.65
M 364.5 236.65
L 365.8 230.45 364.1 230.45 363.6 232.75
Q 363.1 232.05 362.15 232.05 361.25 232.05 360.6 232.9 360 233.75 360 234.9 360 235.75 360.4 236.25 360.8 236.75 361.6 236.75 362 236.75 362.3 236.65 362.6 236.5 362.95 236.2
L 363 236.2 362.9 236.65 364.5 236.65
M 361.7 234.85
Q 361.7 234.2 361.95 233.7 362.2 233.2 362.6 233.2 362.9 233.2 363.1 233.4 363.3 233.6 363.3 234 363.3 234.55 363 235.1 362.75 235.65 362.3 235.65 362.05 235.65 361.85 235.45 361.7 235.25 361.7 234.85
M 383.3 243.9
L 381.6 243.9 380.25 250.15 382 250.15 383.3 243.9
M 384.7 245.9
Q 384.05 246.25 383.7 246.85 383.4 247.55 383.4 248.2 383.4 249.1 383.95 249.65 384.5 250.25 385.7 250.25 386.6 250.25 387.25 249.85 387.9 249.45 388.2 248.85 388.5 248.2 388.5 247.55 388.5 246.75 387.95 246.15 387.45 245.55 386.2 245.55 385.3 245.55 384.7 245.9
M 386.65 246.85
Q 386.85 247.05 386.85 247.45 386.85 248.1 386.55 248.6 386.3 249.1 385.8 249.1 385.5 249.1 385.25 248.8 385.05 248.6 385.05 248.2 385.05 247.7 385.3 247.2 385.6 246.7 386.15 246.7 386.4 246.7 386.65 246.85
M 375.65 246.15
Q 375.25 246.5 374.95 247.05 374.7 247.55 374.7 248.15 374.7 249.05 375.25 249.65 375.85 250.25 377.15 250.25 378.05 250.25 378.7 249.95 379.3 249.65 379.65 249
L 378 248.8
Q 377.7 249.25 377.2 249.25 376.45 249.25 376.4 248.3
L 379.8 248.3
Q 379.95 247.7 379.95 247.45 379.95 246.6 379.4 246.1 378.85 245.55 377.55 245.55 377 245.55 376.55 245.65 376.1 245.8 375.65 246.15
M 378.05 246.7
Q 378.25 246.85 378.25 247.25 378.25 247.4 378.25 247.5
L 376.55 247.5
Q 376.7 247 376.95 246.8 377.2 246.55 377.55 246.55 377.85 246.55 378.05 246.7
M 372.85 245.55
Q 371.9 245.55 371.25 246.2
L 371.25 246.15 371.7 243.9 370 243.9 368.65 250.15 370.4 250.15 370.85 248.2
Q 370.95 247.5 371.25 247.15 371.5 246.8 371.9 246.8 372.25 246.8 372.25 247.15 372.25 247.25 372.1 248
L 371.65 250.15 373.35 250.15 373.9 247.65
Q 374.05 246.85 374.05 246.6 374.05 246.15 373.75 245.85 373.45 245.55 372.85 245.55
M 367 247.25
L 368.55 247.2
Q 368.45 246.4 367.85 245.95 367.2 245.55 366.2 245.55 364.8 245.55 364 246.35 363.2 247.15 363.2 248.3 363.2 250.25 365.6 250.25 367.7 250.25 368.3 248.5
L 366.7 248.3
Q 366.35 249.1 365.65 249.1 365.4 249.1 365.15 248.9 364.9 248.7 364.9 248.3 364.9 247.75 365.25 247.2 365.6 246.7 366.2 246.7 366.9 246.7 367 247.25
M 366.75 232.7
Q 366.35 233.05 366.05 233.55 365.8 234.1 365.8 234.7 365.8 235.55 366.35 236.15 366.9 236.75 368.25 236.75 369.15 236.75 369.8 236.45 370.35 236.15 370.75 235.5
L 369.1 235.35
Q 368.8 235.75 368.3 235.75 367.55 235.75 367.5 234.85
L 370.9 234.85
Q 371.05 234.2 371.05 233.95 371.05 233.15 370.45 232.6 369.95 232.05 368.65 232.05 368.1 232.05 367.65 232.2 367.2 232.3 366.75 232.7
M 368.65 233.05
Q 368.95 233.05 369.15 233.25 369.35 233.4 369.35 233.75 369.35 233.95 369.3 234.05
L 367.65 234.05
Q 367.8 233.55 368.05 233.3 368.3 233.05 368.65 233.05
M 380.35 232.85
Q 379.75 233.65 379.75 234.7 379.75 235.5 380.15 236 380.55 236.5 381.25 236.5 382 236.5 382.55 235.9
L 382.6 235.9 382.45 236.6
Q 382.35 237 382.15 237.25 381.95 237.45 381.6 237.45 381.15 237.45 381.1 237
L 379.5 236.75
Q 379.5 236.8 379.5 237 379.5 237.45 379.75 237.85 380.05 238.25 380.5 238.35 380.9 238.45 381.7 238.45 382.8 238.45 383.35 238.05 383.95 237.65 384.2 236.4
L 385.1 232.15 383.5 232.15 383.35 232.8
Q 382.85 232.05 382 232.05 381 232.05 380.35 232.85
M 381.4 234.65
Q 381.4 234.1 381.7 233.65 382 233.2 382.4 233.2 382.65 233.2 382.85 233.4 383 233.55 383 233.85 383 234.3 382.75 234.8 382.5 235.35 382.05 235.35 381.75 235.35 381.6 235.15 381.4 235 381.4 234.65
M 379.35 232.15
L 377.65 232.15 376.65 236.65 378.4 236.65 379.35 232.15
M 377.75 231.65
L 379.5 231.65 379.7 230.45 378 230.45 377.75 231.65
M 376.35 233.25
Q 376.25 232.6 375.75 232.3 375.25 232.05 374.4 232.05 373.6 232.05 373.05 232.3 372.5 232.5 372.25 232.9 372 233.25 372 233.65 372 234.1 372.35 234.45 372.7 234.75 373.7 234.9 374.1 235 374.3 235.05 374.45 235.15 374.45 235.35 374.45 235.55 374.2 235.7 374 235.8 373.75 235.8 373.1 235.8 373 235.25
L 371.3 235.4
Q 371.4 236.15 371.9 236.45 372.4 236.75 373.45 236.75 374.8 236.75 375.45 236.25 376.05 235.75 376.05 235.1 376.05 234.6 375.75 234.3 375.4 234 374.4 233.85 373.8 233.75 373.65 233.65 373.55 233.55 373.55 233.4 373.55 233.25 373.65 233.1 373.8 233 374.15 233 374.7 233 374.75 233.4
L 376.35 233.25
M 377.35 219.35
L 377.45 218.7 375.85 218.7 374.9 223.2 376.65 223.2 377.1 221.25
Q 377.2 220.55 377.5 220.2 377.75 219.85 378.15 219.85 378.5 219.85 378.5 220.2 378.5 220.3 378.35 221.1
L 377.9 223.2 379.6 223.2 380.15 220.7
Q 380.3 219.95 380.3 219.65 380.3 219.2 380 218.9 379.7 218.6 379.1 218.6 378.05 218.6 377.35 219.35
M 374.55 218.6
Q 374.2 218.6 373.9 218.8 373.6 219 373.2 219.6
L 373.15 219.55 373.35 218.7 371.75 218.7 370.8 223.2 372.5 223.2 372.85 221.5
Q 373.05 220.7 373.35 220.35 373.65 220 374.15 220 374.3 220 374.5 220.05
L 375.15 218.7
Q 374.85 218.6 374.55 218.6
M 366.3 220.6
Q 365.8 220.75 365.5 221.05 365.15 221.4 365.15 221.95 365.15 222.5 365.5 222.9 365.9 223.3 366.75 223.3 367.6 223.3 368.25 222.65 368.25 222.9 368.35 223.2
L 370 223.2
Q 369.9 222.85 369.9 222.55 369.9 222.2 370.1 221.3 370.35 220.3 370.35 219.9 370.35 219.25 369.9 218.9 369.4 218.6 368.05 218.6 366.9 218.6 366.35 218.95 365.8 219.25 365.65 219.95
L 367.25 220.1
Q 367.4 219.8 367.6 219.7 367.75 219.6 368.05 219.6 368.35 219.6 368.5 219.7 368.7 219.8 368.7 219.95 368.7 220.1 368.65 220.3 368.35 220.35 367.65 220.4 366.8 220.5 366.3 220.6
M 367 222.25
Q 366.8 222.1 366.8 221.85 366.8 221.65 367.05 221.5 367.25 221.4 368.45 221.2 368.35 221.85 368 222.1 367.7 222.35 367.4 222.35 367.1 222.35 367 222.25
M 364.55 221.4
Q 364.7 220.75 364.7 220.5 364.7 219.65 364.15 219.15 363.6 218.6 362.3 218.6 361.75 218.6 361.3 218.7 360.9 218.85 360.4 219.2 360 219.55 359.75 220.1 359.45 220.6 359.45 221.2 359.45 222.1 360 222.7 360.6 223.3 361.9 223.3 362.8 223.3 363.45 223 364.05 222.7 364.45 222.05
L 362.75 221.85
Q 362.45 222.3 361.95 222.3 361.2 222.3 361.15 221.4
L 364.55 221.4
M 361.3 220.55
Q 361.45 220.05 361.7 219.85 361.95 219.6 362.3 219.6 362.6 219.6 362.8 219.75 363 219.95 363 220.3 363 220.45 363 220.55
L 361.3 220.55
M 393.7 218.7
Q 393.4 218.6 393.1 218.6 392.75 218.6 392.45 218.8 392.15 219 391.75 219.6
L 391.75 219.55 391.95 218.7 390.3 218.7 389.35 223.2 391.1 223.2 391.45 221.5
Q 391.6 220.7 391.95 220.35 392.25 220 392.7 220 392.9 220 393.1 220.05
L 393.7 218.7
M 394.8 218.7
L 394.15 218.7 393.95 219.95 394.55 219.95 394.25 221.45
Q 394.1 222.05 394.1 222.2 394.1 222.6 394.4 222.95 394.7 223.3 395.4 223.3 395.75 223.3 396.55 223.2
L 396.85 221.95
Q 396.45 222.05 396.3 222.05 395.9 222.05 395.9 221.75 395.9 221.6 395.95 221.5
L 396.25 219.95 397.15 219.95 397.4 218.7 396.55 218.7 396.9 217.05 394.95 218 394.8 218.7
M 386.65 218.6
Q 385.5 218.6 384.95 218.95 384.4 219.25 384.25 219.95
L 385.85 220.1
Q 386 219.8 386.2 219.7 386.35 219.6 386.65 219.6 386.95 219.6 387.1 219.7 387.3 219.8 387.3 219.95 387.3 220.1 387.25 220.3 386.95 220.35 386.25 220.4 385.4 220.5 384.9 220.6 384.4 220.75 384.1 221.05 383.75 221.4 383.75 221.95 383.75 222.5 384.1 222.9 384.5 223.3 385.35 223.3 386.2 223.3 386.85 222.65 386.85 222.9 386.95 223.2
L 388.6 223.2
Q 388.5 222.85 388.5 222.55 388.5 222.2 388.7 221.3 388.95 220.3 388.95 219.9 388.95 219.25 388.5 218.9 388 218.6 386.65 218.6
M 385.4 221.85
Q 385.4 221.65 385.65 221.5 385.85 221.4 387.05 221.2 386.95 221.85 386.6 222.1 386.3 222.35 386 222.35 385.7 222.35 385.6 222.25 385.4 222.1 385.4 221.85 Z"/>

<path fill="#1A7D8D" stroke="none" d="
M 412.45 221.3
Q 411.875 220.1125 411.2 218.95
L 411.15 218.95
Q 409.1 215.4 406.65 212.4
L 401.15 207.1 400.15 206.35
Q 399.65 205.95 399.15 205.6 397.65 204.6 396.05 203.65 395.25 203.25 394.45 202.85
L 391.15 201.35
Q 388.65 200.35 385.95 199.6 385 199.35 384.1 199.15 379.25 198.05 374.5 198.05
L 366.25 199.05
Q 362.3 199.9 358.55 201.65 356.5 202.6 354.5 203.75 349.95 206.35 346.4 209.7
L 342.1 214.45 339.65 218.1
Q 337.9 221.05 336.6 224.4 336.45 224.75 336.35 225.1 336.053125 225.8634765625 335.8 226.6 335.6994140625 226.9130859375 335.6 227.2 335.35 228.05 335.1 228.95 333.65 234.4 333.6 239.7 333.6 240.85 333.65 242.05 334.1 250.2 337.95 257.9
L 338.25 258.5
Q 338.7375 259.475 339.3 260.45 340.85 263.15 342.65 265.55
L 346.65 269.9 347.8 270.95
Q 349.5 272.5 351.4 273.8 352.85 274.85 354.45 275.7 359.05 278.3 364.45 279.8 364.9 279.95 365.4 280.05
L 367.4 280.5
Q 368.75 280.75 370.1 280.95
L 378.85 281.15
Q 386.4 280.5 393.55 276.95
L 395.15 276.1
Q 395.55 275.85 395.95 275.65 396.263671875 275.4740234375 396.55 275.3
L 398.05 274.35
Q 398.5630859375 274.0421875 399.05 273.7 399.35 273.5125 399.6 273.3
L 399.8 273.2
Q 400.2 272.9 400.55 272.65
L 402 271.5 408.15 265.1
Q 412.45 259.6 414.65 252.5 414.85 252 415 251.5 415.020703125 251.4306640625 415.05 251.35
L 415.1 251.1
Q 415.1853515625 250.80546875 415.25 250.45 415.45 249.8 415.65 249.1 415.8 248.45 415.95 247.75 416.2 246.4 416.4 245.05
L 416.8 239.7
Q 416.8 239.6 416.8 239.55
L 416.8 238.7
Q 416.7 231.3 413.8 224.3
L 412.45 221.3
M 384.95 218.95
Q 385.5 218.6 386.65 218.6 388 218.6 388.5 218.9 388.95 219.25 388.95 219.9 388.95 220.3 388.7 221.3 388.5 222.2 388.5 222.55 388.5 222.85 388.6 223.2
L 386.95 223.2
Q 386.85 222.9 386.85 222.65 386.2 223.3 385.35 223.3 384.5 223.3 384.1 222.9 383.75 222.5 383.75 221.95 383.75 221.4 384.1 221.05 384.4 220.75 384.9 220.6 385.4 220.5 386.25 220.4 386.95 220.35 387.25 220.3 387.3 220.1 387.3 219.95 387.3 219.8 387.1 219.7 386.95 219.6 386.65 219.6 386.35 219.6 386.2 219.7 386 219.8 385.85 220.1
L 384.25 219.95
Q 384.4 219.25 384.95 218.95
M 394.15 218.7
L 394.8 218.7 394.95 218 396.9 217.05 396.55 218.7 397.4 218.7 397.15 219.95 396.25 219.95 395.95 221.5
Q 395.9 221.6 395.9 221.75 395.9 222.05 396.3 222.05 396.45 222.05 396.85 221.95
L 396.55 223.2
Q 395.75 223.3 395.4 223.3 394.7 223.3 394.4 222.95 394.1 222.6 394.1 222.2 394.1 222.05 394.25 221.45
L 394.55 219.95 393.95 219.95 394.15 218.7
M 393.1 218.6
Q 393.4 218.6 393.7 218.7
L 393.1 220.05
Q 392.9 220 392.7 220 392.25 220 391.95 220.35 391.6 220.7 391.45 221.5
L 391.1 223.2 389.35 223.2 390.3 218.7 391.95 218.7 391.75 219.55 391.75 219.6
Q 392.15 219 392.45 218.8 392.75 218.6 393.1 218.6
M 364.7 220.5
Q 364.7 220.75 364.55 221.4
L 361.15 221.4
Q 361.2 222.3 361.95 222.3 362.45 222.3 362.75 221.85
L 364.45 222.05
Q 364.05 222.7 363.45 223 362.8 223.3 361.9 223.3 360.6 223.3 360 222.7 359.45 222.1 359.45 221.2 359.45 220.6 359.75 220.1 360 219.55 360.4 219.2 360.9 218.85 361.3 218.7 361.75 218.6 362.3 218.6 363.6 218.6 364.15 219.15 364.7 219.65 364.7 220.5
M 365.5 221.05
Q 365.8 220.75 366.3 220.6 366.8 220.5 367.65 220.4 368.35 220.35 368.65 220.3 368.7 220.1 368.7 219.95 368.7 219.8 368.5 219.7 368.35 219.6 368.05 219.6 367.75 219.6 367.6 219.7 367.4 219.8 367.25 220.1
L 365.65 219.95
Q 365.8 219.25 366.35 218.95 366.9 218.6 368.05 218.6 369.4 218.6 369.9 218.9 370.35 219.25 370.35 219.9 370.35 220.3 370.1 221.3 369.9 222.2 369.9 222.55 369.9 222.85 370 223.2
L 368.35 223.2
Q 368.25 222.9 368.25 222.65 367.6 223.3 366.75 223.3 365.9 223.3 365.5 222.9 365.15 222.5 365.15 221.95 365.15 221.4 365.5 221.05
M 373.9 218.8
Q 374.2 218.6 374.55 218.6 374.85 218.6 375.15 218.7
L 374.5 220.05
Q 374.3 220 374.15 220 373.65 220 373.35 220.35 373.05 220.7 372.85 221.5
L 372.5 223.2 370.8 223.2 371.75 218.7 373.35 218.7 373.15 219.55 373.2 219.6
Q 373.6 219 373.9 218.8
M 377.45 218.7
L 377.35 219.35
Q 378.05 218.6 379.1 218.6 379.7 218.6 380 218.9 380.3 219.2 380.3 219.65 380.3 219.95 380.15 220.7
L 379.6 223.2 377.9 223.2 378.35 221.1
Q 378.5 220.3 378.5 220.2 378.5 219.85 378.15 219.85 377.75 219.85 377.5 220.2 377.2 220.55 377.1 221.25
L 376.65 223.2 374.9 223.2 375.85 218.7 377.45 218.7
M 375.75 232.3
Q 376.25 232.6 376.35 233.25
L 374.75 233.4
Q 374.7 233 374.15 233 373.8 233 373.65 233.1 373.55 233.25 373.55 233.4 373.55 233.55 373.65 233.65 373.8 233.75 374.4 233.85 375.4 234 375.75 234.3 376.05 234.6 376.05 235.1 376.05 235.75 375.45 236.25 374.8 236.75 373.45 236.75 372.4 236.75 371.9 236.45 371.4 236.15 371.3 235.4
L 373 235.25
Q 373.1 235.8 373.75 235.8 374 235.8 374.2 235.7 374.45 235.55 374.45 235.35 374.45 235.15 374.3 235.05 374.1 235 373.7 234.9 372.7 234.75 372.35 234.45 372 234.1 372 233.65 372 233.25 372.25 232.9 372.5 232.5 373.05 232.3 373.6 232.05 374.4 232.05 375.25 232.05 375.75 232.3
M 379.5 231.65
L 377.75 231.65 378 230.45 379.7 230.45 379.5 231.65
M 377.65 232.15
L 379.35 232.15 378.4 236.65 376.65 236.65 377.65 232.15
M 379.75 234.7
Q 379.75 233.65 380.35 232.85 381 232.05 382 232.05 382.85 232.05 383.35 232.8
L 383.5 232.15 385.1 232.15 384.2 236.4
Q 383.95 237.65 383.35 238.05 382.8 238.45 381.7 238.45 380.9 238.45 380.5 238.35 380.05 238.25 379.75 237.85 379.5 237.45 379.5 237 379.5 236.8 379.5 236.75
L 381.1 237
Q 381.15 237.45 381.6 237.45 381.95 237.45 382.15 237.25 382.35 237 382.45 236.6
L 382.6 235.9 382.55 235.9
Q 382 236.5 381.25 236.5 380.55 236.5 380.15 236 379.75 235.5 379.75 234.7
M 366.05 233.55
Q 366.35 233.05 366.75 232.7 367.2 232.3 367.65 232.2 368.1 232.05 368.65 232.05 369.95 232.05 370.45 232.6 371.05 233.15 371.05 233.95 371.05 234.2 370.9 234.85
L 367.5 234.85
Q 367.55 235.75 368.3 235.75 368.8 235.75 369.1 235.35
L 370.75 235.5
Q 370.35 236.15 369.8 236.45 369.15 236.75 368.25 236.75 366.9 236.75 366.35 236.15 365.8 235.55 365.8 234.7 365.8 234.1 366.05 233.55
M 368.55 247.2
L 367 247.25
Q 366.9 246.7 366.2 246.7 365.6 246.7 365.25 247.2 364.9 247.75 364.9 248.3 364.9 248.7 365.15 248.9 365.4 249.1 365.65 249.1 366.35 249.1 366.7 248.3
L 368.3 248.5
Q 367.7 250.25 365.6 250.25 363.2 250.25 363.2 248.3 363.2 247.15 364 246.35 364.8 245.55 366.2 245.55 367.2 245.55 367.85 245.95 368.45 246.4 368.55 247.2
M 371.25 246.2
Q 371.9 245.55 372.85 245.55 373.45 245.55 373.75 245.85 374.05 246.15 374.05 246.6 374.05 246.85 373.9 247.65
L 373.35 250.15 371.65 250.15 372.1 248
Q 372.25 247.25 372.25 247.15 372.25 246.8 371.9 246.8 371.5 246.8 371.25 247.15 370.95 247.5 370.85 248.2
L 370.4 250.15 368.65 250.15 370 243.9 371.7 243.9 371.25 246.15 371.25 246.2
M 374.95 247.05
Q 375.25 246.5 375.65 246.15 376.1 245.8 376.55 245.65 377 245.55 377.55 245.55 378.85 245.55 379.4 246.1 379.95 246.6 379.95 247.45 379.95 247.7 379.8 248.3
L 376.4 248.3
Q 376.45 249.25 377.2 249.25 377.7 249.25 378 248.8
L 379.65 249
Q 379.3 249.65 378.7 249.95 378.05 250.25 377.15 250.25 375.85 250.25 375.25 249.65 374.7 249.05 374.7 248.15 374.7 247.55 374.95 247.05
M 383.7 246.85
Q 384.05 246.25 384.7 245.9 385.3 245.55 386.2 245.55 387.45 245.55 387.95 246.15 388.5 246.75 388.5 247.55 388.5 248.2 388.2 248.85 387.9 249.45 387.25 249.85 386.6 250.25 385.7 250.25 384.5 250.25 383.95 249.65 383.4 249.1 383.4 248.2 383.4 247.55 383.7 246.85
M 381.6 243.9
L 383.3 243.9 382 250.15 380.25 250.15 381.6 243.9
M 365.8 230.45
L 364.5 236.65 362.9 236.65 363 236.2 362.95 236.2
Q 362.6 236.5 362.3 236.65 362 236.75 361.6 236.75 360.8 236.75 360.4 236.25 360 235.75 360 234.9 360 233.75 360.6 232.9 361.25 232.05 362.15 232.05 363.1 232.05 363.6 232.75
L 364.1 230.45 365.8 230.45
M 388.55 233.3
Q 388.15 233.3 387.9 233.65 387.6 234.05 387.45 234.7
L 387.05 236.65 385.3 236.65 386.25 232.15 387.85 232.15 387.7 232.85
Q 388.45 232.05 389.45 232.05 390.1 232.05 390.4 232.4 390.7 232.7 390.7 233.15 390.7 233.4 390.5 234.2
L 390 236.65 388.3 236.65 388.7 234.55
Q 388.85 233.8 388.85 233.7 388.85 233.3 388.55 233.3
M 391.25 246.5
L 391.3 246.55
Q 391.7 245.95 392 245.7 392.3 245.55 392.65 245.55 392.95 245.55 393.25 245.65
L 392.6 247
Q 392.4 246.95 392.25 246.95 391.75 246.95 391.45 247.3 391.15 247.65 391 248.45
L 390.6 250.15 388.9 250.15 389.85 245.65 391.45 245.65 391.25 246.5
M 393.55 246.2
L 393.5 244.95 393.75 243.9 395.45 243.9 395.25 244.85
Q 395.25 244.95 395.05 245.4
L 394.75 246.2 393.55 246.2
M 396.05 246.35
Q 396.3 245.95 396.85 245.75 397.4 245.55 398.15 245.55 399.05 245.55 399.55 245.8 400.05 246.05 400.15 246.7
L 398.55 246.85
Q 398.45 246.5 397.95 246.5 397.6 246.5 397.45 246.6 397.3 246.7 397.3 246.85 397.3 247 397.45 247.15 397.6 247.25 398.2 247.3 399.2 247.45 399.5 247.75 399.85 248.05 399.85 248.55 399.85 249.25 399.2 249.75 398.55 250.25 397.25 250.25 396.15 250.25 395.7 249.95 395.2 249.6 395.1 248.9
L 396.8 248.75
Q 396.9 249.25 397.5 249.25 397.8 249.25 398 249.15 398.25 249.05 398.25 248.8 398.25 248.6 398.05 248.5 397.9 248.45 397.5 248.4 396.5 248.2 396.15 247.95 395.75 247.6 395.75 247.1 395.75 246.7 396.05 246.35
M 355.75 221.65
L 358.85 221.65 358.5 223.2 353.5 223.2 354.85 216.95 356.75 216.95 355.75 221.65
M 355.6 244
Q 355.9 244 356.2 244.2 356.55 244.4 356.7 244.7 356.85 245 356.85 245.35 356.85 245.85 356.6 246.3 356.35 246.7 355.7 246.85 356.7 247.15 356.7 248.2 356.7 248.95 356.1 249.55 355.5 250.15 354.35 250.15
L 350.55 250.15 351.85 243.9 354.7 243.9
Q 355.25 243.9 355.6 244
M 357.8 246.85
Q 358 246.2 358.55 245.9 359.1 245.55 360.25 245.55 361.6 245.55 362.05 245.85 362.5 246.2 362.5 246.85 362.5 247.25 362.3 248.2 362.05 249.15 362.05 249.5 362.05 249.8 362.2 250.15
L 360.5 250.15
Q 360.45 249.85 360.45 249.6 359.75 250.25 358.95 250.25 358.1 250.25 357.7 249.85 357.35 249.45 357.35 248.9 357.35 248.3 357.65 248 358 247.7 358.5 247.55 358.95 247.45 359.85 247.35 360.55 247.3 360.8 247.25 360.9 247.05 360.9 246.9 360.9 246.75 360.7 246.65 360.5 246.55 360.25 246.55 359.9 246.55 359.75 246.65 359.55 246.75 359.45 247.05
L 357.8 246.85
M 359.65 259.85
Q 360.3 259 361.2 259 362.15 259 362.65 259.7
L 363.15 257.4 364.85 257.4 363.55 263.6 361.95 263.6 362.05 263.15 362 263.15
Q 361.65 263.45 361.35 263.6 361.05 263.7 360.65 263.7 359.85 263.7 359.45 263.2 359.05 262.7 359.05 261.85 359.05 260.7 359.65 259.85
M 388.3 259.15
Q 388.75 259 389.35 259 390.6 259 391.15 259.55 391.7 260.1 391.7 260.9 391.7 261.15 391.55 261.8
L 388.15 261.8
Q 388.2 262.7 388.95 262.7 389.45 262.7 389.75 262.3
L 391.45 262.45
Q 391.05 263.1 390.45 263.4 389.85 263.7 388.9 263.7 387.6 263.7 387.05 263.1 386.45 262.5 386.45 261.65 386.45 261.05 386.75 260.5 387 260 387.45 259.6 387.9 259.25 388.3 259.15
M 385.9 260.9
Q 385.9 261.15 385.8 261.8
L 382.35 261.8
Q 382.45 262.7 383.2 262.7 383.7 262.7 384 262.3
L 385.65 262.45
Q 385.25 263.1 384.65 263.4 384.05 263.7 383.1 263.7 381.8 263.7 381.25 263.1 380.7 262.5 380.7 261.65 380.7 261.05 380.95 260.5 381.2 260 381.65 259.6 382.1 259.25 382.55 259.15 383 259 383.55 259 384.85 259 385.35 259.55 385.9 260.1 385.9 260.9
M 377.45 259.1
L 379.05 259.1 378.85 260 378.9 260
Q 379.3 259.45 379.55 259.2 379.85 259 380.25 259 380.55 259 380.8 259.15
L 380.2 260.5
Q 380 260.4 379.85 260.4 379.35 260.4 379.05 260.75 378.7 261.15 378.55 261.9
L 378.2 263.6 376.5 263.6 377.45 259.1
M 374.65 259.1
L 376.2 259.1 375.35 263.35
Q 375.05 264.6 374.5 265 373.9 265.4 372.8 265.4 372.05 265.4 371.6 265.3 371.2 265.2 370.9 264.8 370.6 264.4 370.6 263.95 370.6 263.75 370.6 263.7
L 372.25 263.95
Q 372.3 264.4 372.75 264.4 373.05 264.4 373.25 264.2 373.45 263.95 373.55 263.55
L 373.75 262.85 373.7 262.85
Q 373.15 263.45 372.4 263.45 371.7 263.45 371.25 262.95 370.85 262.45 370.85 261.65 370.85 260.6 371.5 259.8 372.15 259 373.15 259 373.95 259 374.5 259.75
L 374.65 259.1
M 365.8 259.6
Q 366.25 259.25 366.7 259.15 367.15 259 367.7 259 369 259 369.5 259.55 370.1 260.1 370.1 260.9 370.1 261.15 369.95 261.8
L 366.55 261.8
Q 366.6 262.7 367.35 262.7 367.85 262.7 368.15 262.3
L 369.8 262.45
Q 369.4 263.1 368.85 263.4 368.2 263.7 367.3 263.7 365.95 263.7 365.4 263.1 364.85 262.5 364.85 261.65 364.85 261.05 365.1 260.5 365.4 260 365.8 259.6
M 367.7 260
Q 367.35 260 367.1 260.25 366.8 260.5 366.7 260.95
L 368.35 260.95
Q 368.4 260.85 368.4 260.7 368.4 260.35 368.2 260.2 367.95 260 367.7 260
M 374.1 260.75
Q 374.1 260.5 373.95 260.35 373.75 260.15 373.55 260.15 373.15 260.15 372.85 260.6 372.55 261.05 372.55 261.6 372.55 261.9 372.7 262.1 372.85 262.3 373.15 262.3 373.65 262.3 373.85 261.75 374.1 261.25 374.1 260.75
M 384.25 260.7
Q 384.25 260.35 384.05 260.2 383.8 260 383.5 260 383.2 260 382.95 260.25 382.65 260.5 382.55 260.95
L 384.2 260.95
Q 384.25 260.85 384.25 260.7
M 390 260.7
Q 390 260.35 389.85 260.2 389.6 260 389.3 260 388.95 260 388.7 260.25 388.45 260.5 388.3 260.95
L 390 260.95
Q 390 260.85 390 260.7
M 362.3 260.95
Q 362.3 260.55 362.15 260.35 361.95 260.15 361.65 260.15 361.25 260.15 361 260.65 360.75 261.15 360.75 261.8 360.75 262.2 360.9 262.4 361.05 262.6 361.35 262.6 361.8 262.6 362.05 262.05 362.3 261.5 362.3 260.95
M 360.2 249.05
Q 360.5 248.8 360.6 248.1 359.45 248.3 359.25 248.45 359 248.6 359 248.8 359 249.05 359.15 249.15 359.3 249.3 359.55 249.3 359.85 249.3 360.2 249.05
M 354.85 248.1
Q 354.85 247.85 354.7 247.65 354.55 247.55 354.05 247.55
L 353 247.55 352.75 248.8 353.8 248.8
Q 354.85 248.8 354.85 248.1
M 353.25 246.35
L 353.9 246.35
Q 354.35 246.35 354.55 246.3 354.8 246.2 354.95 246.05 355.1 245.85 355.1 245.65 355.1 245.45 354.95 245.3 354.75 245.15 354.3 245.15
L 353.5 245.15 353.25 246.35
M 361.95 233.7
Q 361.7 234.2 361.7 234.85 361.7 235.25 361.85 235.45 362.05 235.65 362.3 235.65 362.75 235.65 363 235.1 363.3 234.55 363.3 234 363.3 233.6 363.1 233.4 362.9 233.2 362.6 233.2 362.2 233.2 361.95 233.7
M 386.85 247.45
Q 386.85 247.05 386.65 246.85 386.4 246.7 386.15 246.7 385.6 246.7 385.3 247.2 385.05 247.7 385.05 248.2 385.05 248.6 385.25 248.8 385.5 249.1 385.8 249.1 386.3 249.1 386.55 248.6 386.85 248.1 386.85 247.45
M 378.25 247.25
Q 378.25 246.85 378.05 246.7 377.85 246.55 377.55 246.55 377.2 246.55 376.95 246.8 376.7 247 376.55 247.5
L 378.25 247.5
Q 378.25 247.4 378.25 247.25
M 369.15 233.25
Q 368.95 233.05 368.65 233.05 368.3 233.05 368.05 233.3 367.8 233.55 367.65 234.05
L 369.3 234.05
Q 369.35 233.95 369.35 233.75 369.35 233.4 369.15 233.25
M 381.7 233.65
Q 381.4 234.1 381.4 234.65 381.4 235 381.6 235.15 381.75 235.35 382.05 235.35 382.5 235.35 382.75 234.8 383 234.3 383 233.85 383 233.55 382.85 233.4 382.65 233.2 382.4 233.2 382 233.2 381.7 233.65
M 366.8 221.85
Q 366.8 222.1 367 222.25 367.1 222.35 367.4 222.35 367.7 222.35 368 222.1 368.35 221.85 368.45 221.2 367.25 221.4 367.05 221.5 366.8 221.65 366.8 221.85
M 361.7 219.85
Q 361.45 220.05 361.3 220.55
L 363 220.55
Q 363 220.45 363 220.3 363 219.95 362.8 219.75 362.6 219.6 362.3 219.6 361.95 219.6 361.7 219.85
M 385.65 221.5
Q 385.4 221.65 385.4 221.85 385.4 222.1 385.6 222.25 385.7 222.35 386 222.35 386.3 222.35 386.6 222.1 386.95 221.85 387.05 221.2 385.85 221.4 385.65 221.5 Z"/>
</g>

<g id="Layer0_0_MEMBER_17_FILL">
<path fill="#FFFFFF" stroke="none" d="
M 366.7 354.5
L 366.7 306.3 336.8 306.3 336.8 354.5 366.7 354.5
M 364.9 308.7
L 364.9 322 352.8 322 352.8 308.7 364.9 308.7
M 364.8 323.9
L 364.8 337.2 352.75 337.2 352.75 323.9 364.8 323.9
M 338.65 337.2
L 338.65 323.9 350.75 323.9 350.75 337.2 338.65 337.2
M 350.85 322
L 338.75 322 338.75 308.7 350.85 308.7 350.85 322
M 338.65 339
L 350.75 339 350.75 352.3 338.65 352.3 338.65 339
M 352.75 339
L 364.8 339 364.8 352.3 352.75 352.3 352.75 339 Z"/>

<path fill="#23545F" stroke="none" d="
M 364.8 339
L 352.75 339 352.75 352.3 364.8 352.3 364.8 339
M 350.75 339
L 338.65 339 338.65 352.3 350.75 352.3 350.75 339
M 338.75 322
L 350.85 322 350.85 308.7 338.75 308.7 338.75 322
M 338.65 323.9
L 338.65 337.2 350.75 337.2 350.75 323.9 338.65 323.9
M 364.8 337.2
L 364.8 323.9 352.75 323.9 352.75 337.2 364.8 337.2
M 364.9 322
L 364.9 308.7 352.8 308.7 352.8 322 364.9 322 Z"/>

<path fill="#666666" stroke="none" d="
M 336.8 354.5
L 336.8 356.7 366.7 356.7 366.7 354.5 336.8 354.5 Z"/>
</g>

<g id="Layer0_0_MEMBER_18_FILL">
<path fill="#FFFFFF" stroke="none" d="
M 382.25 306.3
L 382.25 354.5 412.15 354.5 412.15 306.3 382.25 306.3
M 384.1 337.2
L 384.1 323.9 396.2 323.9 396.2 337.2 384.1 337.2
M 398.2 337.2
L 398.2 323.9 410.25 323.9 410.25 337.2 398.2 337.2
M 384.2 322
L 384.2 308.7 396.3 308.7 396.3 322 384.2 322
M 384.1 339
L 396.2 339 396.2 352.3 384.1 352.3 384.1 339
M 398.25 322
L 398.25 308.7 410.35 308.7 410.35 322 398.25 322
M 398.2 352.3
L 398.2 339 410.25 339 410.25 352.3 398.2 352.3 Z"/>

<path fill="#23545F" stroke="none" d="
M 398.2 339
L 398.2 352.3 410.25 352.3 410.25 339 398.2 339
M 398.25 308.7
L 398.25 322 410.35 322 410.35 308.7 398.25 308.7
M 396.2 339
L 384.1 339 384.1 352.3 396.2 352.3 396.2 339
M 384.2 308.7
L 384.2 322 396.3 322 396.3 308.7 384.2 308.7
M 398.2 323.9
L 398.2 337.2 410.25 337.2 410.25 323.9 398.2 323.9
M 384.1 323.9
L 384.1 337.2 396.2 337.2 396.2 323.9 384.1 323.9 Z"/>

<path fill="#666666" stroke="none" d="
M 382.25 354.5
L 382.25 356.7 412.15 356.7 412.15 354.5 382.25 354.5 Z"/>
</g>

<g id="Layer0_0_MEMBER_19_MEMBER_0_FILL">
<path fill="#B84F4F" stroke="none" d="
M 394.7 74.7
L 375.95 74.7 375.95 86.9 394.7 86.9 394.7 74.7 Z"/>
</g>

<g id="Layer0_0_MEMBER_19_MEMBER_1_FILL">
<path fill="#CCCCCC" stroke="none" d="
M 373.6 73.55
Q 374.05 74.05 374.65 74.25
L 374.65 101.95 376.3 101.95 376.3 74.25
Q 376.85 74.05 377.3 73.55 378.1 72.8 378.1 71.75 378.1 70.65 377.3 69.85 376.55 69.1 375.45 69.1 374.4 69.1 373.6 69.85 372.85 70.65 372.85 71.75 372.85 72.8 373.6 73.55 Z"/>
</g>

<g id="Layer0_0_MEMBER_20_MEMBER_0_FILL">
<path fill="#B84F4F" stroke="none" d="
M 281.4 153.4
L 262.7 153.4 262.7 165.6 281.4 165.6 281.4 153.4 Z"/>
</g>

<g id="Layer0_0_MEMBER_20_MEMBER_1_FILL">
<path fill="#CCCCCC" stroke="none" d="
M 264.85 150.45
Q 264.85 149.35 264.05 148.55 263.3 147.8 262.2 147.8 261.1 147.8 260.35 148.55 259.55 149.35 259.55 150.45 259.55 151.5 260.35 152.25 260.8 152.75 261.4 152.95
L 261.4 180.65 263 180.65 263 152.95
Q 263.6 152.75 264.05 152.25 264.85 151.5 264.85 150.45 Z"/>
</g>

<g id="Layer0_0_MEMBER_21_MEMBER_0_FILL">
<path fill="#B84F4F" stroke="none" d="
M 505.55 153.4
L 486.8 153.4 486.8 165.6 505.55 165.6 505.55 153.4 Z"/>
</g>

<g id="Layer0_0_MEMBER_21_MEMBER_1_FILL">
<path fill="#CCCCCC" stroke="none" d="
M 488.95 150.45
Q 488.95 149.35 488.15 148.55 487.4 147.8 486.3 147.8 485.2 147.8 484.45 148.55 483.65 149.35 483.65 150.45 483.65 151.5 484.45 152.25 484.9 152.75 485.5 152.95
L 485.5 180.65 487.1 180.65 487.1 152.95
Q 487.7 152.75 488.15 152.25 488.95 151.5 488.95 150.45 Z"/>
</g>
</defs>

<g transform="matrix( 1, 0, 0, 1, -193.45,-68.95) ">
<use xlink:href="#Layer0_0_FILL"/>
</g>

<g transform="matrix( 1, 0, 0, 1, -193.45,-68.95) ">
<use xlink:href="#Layer0_0_MEMBER_0_FILL"/>
</g>

<g transform="matrix( 1, 0, 0, 1, -193.45,-68.95) ">
<use xlink:href="#Layer0_0_MEMBER_1_FILL"/>
</g>

<g transform="matrix( 1, 0, 0, 1, -193.45,-68.95) ">
<use xlink:href="#Layer0_0_MEMBER_2_FILL"/>
</g>

<g transform="matrix( 1, 0, 0, 1, -193.45,-68.95) ">
<use xlink:href="#Layer0_0_MEMBER_3_FILL"/>
</g>

<g transform="matrix( 1, 0, 0, 1, -193.45,-68.95) ">
<use xlink:href="#Layer0_0_MEMBER_4_FILL"/>
</g>

<g transform="matrix( 1, 0, 0, 1, -193.45,-68.95) ">
<use xlink:href="#Layer0_0_MEMBER_5_FILL"/>
</g>

<g transform="matrix( 1, 0, 0, 1, -193.45,-68.95) ">
<use xlink:href="#Layer0_0_MEMBER_6_FILL"/>
</g>

<g transform="matrix( 1, 0, 0, 1, -193.45,-68.95) ">
<use xlink:href="#Layer0_0_MEMBER_7_FILL"/>
</g>

<g transform="matrix( 1, 0, 0, 1, -193.45,-68.95) ">
<use xlink:href="#Layer0_0_MEMBER_8_FILL"/>
</g>

<g transform="matrix( 1, 0, 0, 1, -193.45,-68.95) ">
<use xlink:href="#Layer0_0_MEMBER_9_FILL"/>
</g>

<g transform="matrix( 1, 0, 0, 1, -193.45,-68.95) ">
<use xlink:href="#Layer0_0_MEMBER_10_FILL"/>
</g>

<g transform="matrix( 1, 0, 0, 1, -193.45,-68.95) ">
<use xlink:href="#Layer0_0_MEMBER_10_MEMBER_0_FILL"/>
</g>

<g transform="matrix( 1, 0, 0, 1, -193.45,-68.95) ">
<use xlink:href="#Layer0_0_MEMBER_10_MEMBER_1_FILL"/>
</g>

<g transform="matrix( 1, 0, 0, 1, -193.45,-68.95) ">
<use xlink:href="#Layer0_0_MEMBER_11_FILL"/>
</g>

<g transform="matrix( 1, 0, 0, 1, -193.45,-68.95) ">
<use xlink:href="#Layer0_0_MEMBER_11_MEMBER_0_FILL"/>
</g>

<g transform="matrix( 1, 0, 0, 1, -193.45,-68.95) ">
<use xlink:href="#Layer0_0_MEMBER_11_MEMBER_0_MEMBER_0_FILL"/>
</g>

<g transform="matrix( 1, 0, 0, 1, -193.45,-68.95) ">
<use xlink:href="#Layer0_0_MEMBER_12_FILL"/>
</g>

<g transform="matrix( 1, 0, 0, 1, -193.45,-68.95) ">
<use xlink:href="#Layer0_0_MEMBER_12_MEMBER_0_FILL"/>
</g>

<g transform="matrix( 1, 0, 0, 1, -193.45,-68.95) ">
<use xlink:href="#Layer0_0_MEMBER_12_MEMBER_0_MEMBER_0_FILL"/>
</g>

<g transform="matrix( 1, 0, 0, 1, -193.45,-68.95) ">
<use xlink:href="#Layer0_0_MEMBER_13_FILL"/>
</g>

<g transform="matrix( 1, 0, 0, 1, -193.45,-68.95) ">
<use xlink:href="#Layer0_0_MEMBER_13_MEMBER_0_FILL"/>
</g>

<g transform="matrix( 1, 0, 0, 1, -193.45,-68.95) ">
<use xlink:href="#Layer0_0_MEMBER_13_MEMBER_0_MEMBER_0_FILL"/>
</g>

<g transform="matrix( 1, 0, 0, 1, -193.45,-68.95) ">
<use xlink:href="#Layer0_0_MEMBER_14_FILL"/>
</g>

<g transform="matrix( 1, 0, 0, 1, -193.45,-68.95) ">
<use xlink:href="#Layer0_0_MEMBER_14_MEMBER_0_FILL"/>
</g>

<g transform="matrix( 1, 0, 0, 1, -193.45,-68.95) ">
<use xlink:href="#Layer0_0_MEMBER_14_MEMBER_0_MEMBER_0_FILL"/>
</g>

<g transform="matrix( 1, 0, 0, 1, -193.45,-68.95) ">
<use xlink:href="#Layer0_0_MEMBER_15_FILL"/>
</g>

<g transform="matrix( 1, 0, 0, 1, -193.45,-68.95) ">
<use xlink:href="#Layer0_0_MEMBER_16_FILL"/>
</g>

<g transform="matrix( 1, 0, 0, 1, -193.45,-68.95) ">
<use xlink:href="#Layer0_0_MEMBER_17_FILL"/>
</g>

<g transform="matrix( 1, 0, 0, 1, -193.45,-68.95) ">
<use xlink:href="#Layer0_0_MEMBER_18_FILL"/>
</g>

<g transform="matrix( 1, 0, 0, 1, -193.45,-68.95) ">
<use xlink:href="#Layer0_0_MEMBER_19_MEMBER_0_FILL"/>
</g>

<g transform="matrix( 1, 0, 0, 1, -193.45,-68.95) ">
<use xlink:href="#Layer0_0_MEMBER_19_MEMBER_1_FILL"/>
</g>

<g transform="matrix( 1, 0, 0, 1, -193.45,-68.95) ">
<use xlink:href="#Layer0_0_MEMBER_20_MEMBER_0_FILL"/>
</g>

<g transform="matrix( 1, 0, 0, 1, -193.45,-68.95) ">
<use xlink:href="#Layer0_0_MEMBER_20_MEMBER_1_FILL"/>
</g>

<g transform="matrix( 1, 0, 0, 1, -193.45,-68.95) ">
<use xlink:href="#Layer0_0_MEMBER_21_MEMBER_0_FILL"/>
</g>

<g transform="matrix( 1, 0, 0, 1, -193.45,-68.95) ">
<use xlink:href="#Layer0_0_MEMBER_21_MEMBER_1_FILL"/>
</g>
</svg>
