
<svg xmlns="http://www.w3.org/2000/svg" version="1.1" xmlns:xlink="http://www.w3.org/1999/xlink" preserveAspectRatio="none" x="0px" y="0px" width="368px" height="292px" viewBox="0 0 368 292">
<defs>
<g id="Layer0_0_FILL">
<path fill="#7A503F" stroke="none" d="
M -154.8 461.95
L -154.8 440.25 -263.65 440.25 -263.65 451.05 -270.95 451.05 -270.95 456.5 -276.95 456.5 -276.95 461.95 -154.8 461.95
M -128.55 451.05
L -135.85 451.05 -135.85 461.95 -122.55 461.95 -122.55 456.5 -128.55 456.5 -128.55 451.05
M -62.25 451.05
L -69.55 451.05 -69.55 456.5 -75.5 456.5 -75.5 461.95 -62.25 461.95 -62.25 451.05
M -154.9 356.65
L -154.9 365.35 -43.25 365.35 -43.25 356.65 -154.9 356.65
M -148.65 262.7
L -148.65 262.65 -154.9 262.65 -154.9 262.7 -148.65 262.7
M -49.5 262.65
L -49.5 262.7 -43.25 262.7 -43.25 262.65 -49.5 262.65
M -67.65 219.45
L -73.15 214.15 -74.15 213.4
Q -74.65 213 -75.2 212.65 -76.65 211.6 -78.25 210.7 -79.05 210.25 -79.9 209.85
L -83.15 208.35
Q -85.65 207.4 -88.35 206.65 -89.3 206.4 -90.2 206.2 -95.05 205.1 -99.8 205.1
L -102.95 205.25 -108.05 206.1
Q -112 206.95 -115.75 208.7
L -117.8 209.65
Q -118.8 210.2 -119.8 210.75 -124.35 213.35 -127.9 216.7
L -132.2 221.5 -134.65 225.1
Q -136.45 228.1 -137.7 231.45 -137.85 231.75 -137.95 232.1 -138.35 233.15 -138.7 234.2 -138.95 235.1 -139.2 235.95 -140.65 241.4 -140.7 246.7 -140.7 247.9 -140.65 249.1 -140.2 257.25 -136.35 264.95
L -136.05 265.6
Q -135.55 266.55 -135 267.5 -133.45 270.2 -131.65 272.6
L -127.65 276.95 -126.5 278
Q -124.8 279.55 -122.9 280.85 -121.45 281.85 -119.85 282.7 -115.25 285.35 -109.85 286.85 -109.4 286.95 -108.9 287.05
L -106.9 287.5
Q -105.55 287.8 -104.25 288
L -95.45 288.2
Q -87.9 287.55 -80.75 283.95
L -79.15 283.15
Q -78.75 282.9 -78.35 282.65 -76.75 281.75 -75.25 280.75 -74.85 280.5 -74.5 280.25 -74.15 279.95 -73.75 279.65
L -72.3 278.5 -66.15 272.15
Q -61.85 266.6 -59.65 259.55 -59.45 259.05 -59.3 258.55 -59.15 258 -59.05 257.5 -58.85 256.85 -58.65 256.15 -58.5 255.5 -58.35 254.8 -58.1 253.4 -57.9 252.05
L -57.5 246.7
Q -57.5 246.65 -57.5 246.6
L -57.5 245.7
Q -57.6 238.35 -60.5 231.35
L -61.8 228.35
Q -61.95 228.05 -62.1 227.75
L -62.35 227.3
Q -62.6875 226.6375 -63.1 226
L -63.15 226
Q -65.2 222.45 -67.65 219.45
M -80.15 232.75
Q -80.15 232.35 -80.45 232.35 -80.85 232.35 -81.15 232.7 -81.4 233.05 -81.55 233.75
L -82 235.7 -83.7 235.7 -82.75 231.2 -81.15 231.2 -81.3 231.9
Q -80.55 231.1 -79.55 231.1 -78.9 231.1 -78.65 231.45 -78.35 231.75 -78.35 232.2 -78.35 232.45 -78.5 233.25
L -79 235.7 -80.75 235.7 -80.3 233.6
Q -80.15 232.85 -80.15 232.75
M -77.25 235.05
Q -77.65 234.55 -77.65 233.75 -77.65 232.7 -77 231.9 -76.35 231.1 -75.35 231.1 -74.55 231.1 -74.05 231.85
L -73.85 231.2 -72.3 231.2 -73.15 235.45
Q -73.45 236.7 -74.05 237.1 -74.6 237.5 -75.7 237.5 -76.45 237.5 -76.9 237.4 -77.3 237.3 -77.6 236.9 -77.9 236.5 -77.9 236.05 -77.9 235.85 -77.9 235.8
L -76.25 236.05
Q -76.25 236.5 -75.75 236.5 -75.45 236.5 -75.25 236.3 -75.05 236.05 -74.95 235.65
L -74.8 234.95
Q -75.35 235.55 -76.15 235.55 -76.8 235.55 -77.25 235.05
M -98 219.45
Q -97.3 219.4 -97.05 219.35 -96.95 219.15 -96.95 219 -96.95 218.85 -97.15 218.75 -97.35 218.65 -97.6 218.65 -97.9 218.65 -98.1 218.75 -98.3 218.85 -98.4 219.15
L -100 219
Q -99.85 218.3 -99.3 218 -98.75 217.65 -97.6 217.65 -96.25 217.65 -95.8 217.95 -95.3 218.3 -95.3 218.95 -95.3 219.35 -95.55 220.3 -95.8 221.25 -95.8 221.6 -95.8 221.9 -95.65 222.25
L -97.35 222.25
Q -97.4 221.95 -97.4 221.7 -98.1 222.35 -98.9 222.35 -99.75 222.35 -100.15 221.95 -100.5 221.55 -100.5 221 -100.5 220.4 -100.2 220.1 -99.85 219.8 -99.35 219.65 -98.85 219.55 -98 219.45
M -100.95 219.55
Q -100.95 219.8 -101.1 220.4
L -104.5 220.4
Q -104.45 221.35 -103.7 221.35 -103.2 221.35 -102.9 220.9
L -101.25 221.1
Q -101.65 221.75 -102.2 222.05 -102.85 222.35 -103.75 222.35 -105.1 222.35 -105.65 221.75 -106.2 221.15 -106.2 220.25 -106.2 219.65 -105.95 219.15 -105.65 218.6 -105.25 218.25 -104.8 217.9 -104.35 217.75 -103.9 217.65 -103.35 217.65 -102.05 217.65 -101.55 218.2 -100.95 218.7 -100.95 219.55
M -91.8 217.85
Q -91.5 217.65 -91.15 217.65 -90.85 217.65 -90.55 217.75
L -91.2 219.1
Q -91.4 219.05 -91.55 219.05 -92.05 219.05 -92.35 219.4 -92.65 219.75 -92.8 220.55
L -93.2 222.25 -94.9 222.25 -93.95 217.75 -92.35 217.75 -92.55 218.6 -92.5 218.65
Q -92.1 218.05 -91.8 217.85
M -87.55 218.9
Q -87.95 218.9 -88.2 219.25 -88.5 219.6 -88.6 220.3
L -89.05 222.25 -90.8 222.25 -89.85 217.75 -88.2 217.75 -88.35 218.4
Q -87.65 217.65 -86.6 217.65 -86 217.65 -85.7 217.95 -85.4 218.25 -85.4 218.7 -85.4 219 -85.55 219.75
L -86.1 222.25 -87.8 222.25 -87.35 220.15
Q -87.2 219.35 -87.2 219.25 -87.2 218.9 -87.55 218.9
M -110.85 216
L -108.9 216 -109.95 220.7 -106.85 220.7 -107.2 222.25 -112.2 222.25 -110.85 216
M -108.3 233.75
Q -108.3 233.15 -108.05 232.6 -107.75 232.1 -107.35 231.75 -106.9 231.35 -106.45 231.25 -106 231.1 -105.45 231.1 -104.15 231.1 -103.65 231.65 -103.1 232.2 -103.1 233 -103.1 233.25 -103.2 233.9
L -106.6 233.9
Q -106.55 234.8 -105.8 234.8 -105.3 234.8 -105 234.4
L -103.35 234.55
Q -103.75 235.2 -104.3 235.5 -104.95 235.8 -105.85 235.8 -107.2 235.8 -107.75 235.2 -108.3 234.6 -108.3 233.75
M -111.3 234.05
L -111.25 234.05 -109.8 231.2 -107.95 231.2 -110.75 235.7 -112.3 235.7 -113.15 231.2 -111.55 231.2 -111.3 234.05
M -118.5 231.95
Q -117.85 231.1 -116.95 231.1 -116 231.1 -115.5 231.8
L -115 229.5 -113.3 229.5 -114.6 235.7 -116.2 235.7 -116.1 235.25 -116.15 235.25
Q -116.5 235.55 -116.8 235.7 -117.1 235.8 -117.5 235.8 -118.3 235.8 -118.7 235.3 -119.1 234.8 -119.1 233.95 -119.1 232.8 -118.5 231.95
M -121.5 232.8
Q -121.45 232.6 -121.45 232.5 -121.45 232.3 -121.65 232.2 -121.8 232.1 -122.05 232.1 -122.4 232.1 -122.55 232.2 -122.75 232.3 -122.9 232.6
L -124.5 232.45
Q -124.35 231.8 -123.8 231.45 -123.2 231.1 -122.05 231.1 -120.7 231.1 -120.25 231.45 -119.8 231.75 -119.8 232.4 -119.8 232.85 -120.05 233.8 -120.25 234.7 -120.25 235.1 -120.25 235.35 -120.15 235.7
L -121.8 235.7
Q -121.85 235.45 -121.85 235.2 -122.55 235.8 -123.4 235.8 -124.25 235.8 -124.65 235.4 -125 235 -125 234.5 -125 233.9 -124.65 233.55 -124.35 233.25 -123.85 233.15 -123.35 233.05 -122.5 232.95 -121.75 232.9 -121.5 232.8
M -114 247.4
Q -114 246.3 -113.45 245.45 -112.8 244.55 -111.9 244.55 -110.95 244.55 -110.45 245.25
L -109.95 242.95 -108.25 242.95 -109.55 249.15 -111.15 249.15 -111.05 248.7 -111.1 248.7
Q -111.45 249.05 -111.75 249.15 -112.05 249.25 -112.45 249.25 -113.25 249.25 -113.6 248.8 -114 248.25 -114 247.4
M -108.25 247.2
Q -108.25 246.6 -107.95 246.1 -107.7 245.55 -107.3 245.2 -106.8 244.85 -106.4 244.7 -105.95 244.55 -105.4 244.55 -104.1 244.55 -103.55 245.15 -103 245.65 -103 246.5 -103 246.75 -103.15 247.35
L -106.55 247.35
Q -106.5 248.3 -105.75 248.3 -105.25 248.3 -104.95 247.85
L -103.25 248
Q -103.65 248.7 -104.25 249 -104.9 249.25 -105.8 249.25 -107.1 249.25 -107.7 248.7 -108.25 248.1 -108.25 247.2
M -101.7 246.95
Q -102.05 246.65 -102.05 246.15 -102.05 245.75 -101.8 245.4 -101.55 245 -100.95 244.8 -100.45 244.55 -99.65 244.55 -98.75 244.55 -98.3 244.85 -97.8 245.1 -97.7 245.75
L -99.3 245.9
Q -99.35 245.55 -99.9 245.55 -100.2 245.55 -100.4 245.65 -100.5 245.75 -100.5 245.9 -100.5 246.05 -100.4 246.2 -100.25 246.3 -99.65 246.35 -98.65 246.5 -98.3 246.8 -98 247.1 -98 247.6 -98 248.3 -98.6 248.8 -99.25 249.25 -100.6 249.25 -101.65 249.25 -102.15 249 -102.65 248.65 -102.75 247.95
L -101.05 247.8
Q -100.95 248.3 -100.3 248.3 -100 248.3 -99.8 248.2 -99.6 248.1 -99.6 247.85 -99.6 247.65 -99.75 247.55 -99.9 247.5 -100.35 247.45 -101.35 247.25 -101.7 246.95
M -102.8 235.7
L -101.85 231.2 -100.2 231.2 -100.4 232.1
Q -100 231.55 -99.7 231.3 -99.4 231.1 -99.05 231.1 -98.75 231.1 -98.45 231.25
L -99.05 232.6
Q -99.25 232.5 -99.45 232.5 -99.9 232.5 -100.2 232.9 -100.55 233.25 -100.7 234.05
L -101.05 235.7 -102.8 235.7
M -90.15 231.35
Q -89.65 231.1 -88.85 231.1 -87.95 231.1 -87.45 231.35 -86.95 231.65 -86.9 232.3
L -88.5 232.45
Q -88.55 232.05 -89.1 232.05 -89.4 232.05 -89.55 232.15 -89.7 232.3 -89.7 232.45 -89.7 232.6 -89.55 232.7 -89.45 232.8 -88.8 232.9 -87.85 233.05 -87.5 233.35 -87.15 233.65 -87.15 234.1 -87.15 234.8 -87.8 235.3 -88.45 235.8 -89.75 235.8 -90.85 235.8 -91.35 235.5 -91.85 235.2 -91.95 234.45
L -90.25 234.3
Q -90.15 234.85 -89.5 234.85 -89.2 234.85 -89 234.75 -88.8 234.6 -88.8 234.4 -88.8 234.2 -88.95 234.1 -89.1 234.05 -89.55 233.95 -90.5 233.8 -90.9 233.5 -91.25 233.15 -91.25 232.7 -91.25 232.3 -91 231.9 -90.7 231.55 -90.15 231.35
M -85.55 231.2
L -83.85 231.2 -84.8 235.7 -86.55 235.7 -85.55 231.2
M -83.5 229.5
L -83.7 230.65 -85.45 230.65 -85.2 229.5 -83.5 229.5
M -98 231.2
L -97.35 231.2 -97.2 230.5 -95.25 229.55 -95.6 231.2 -94.75 231.2 -95 232.45 -95.9 232.45 -96.2 234.05
Q -96.25 234.1 -96.25 234.25 -96.25 234.55 -95.85 234.55 -95.7 234.55 -95.3 234.5
L -95.6 235.7
Q -96.35 235.8 -96.75 235.8 -97.45 235.8 -97.75 235.45 -98.05 235.1 -98.05 234.7 -98.05 234.55 -97.9 234
L -97.6 232.45 -98.2 232.45 -98 231.2
M -91.65 229.5
L -91.85 230.65 -93.6 230.65 -93.35 229.5 -91.65 229.5
M -93.7 231.2
L -92 231.2 -92.95 235.7 -94.7 235.7 -93.7 231.2
M -94.3 247.25
Q -94.3 246.15 -93.7 245.35 -93 244.55 -92.05 244.55 -91.2 244.55 -90.7 245.35
L -90.5 244.65 -88.95 244.65 -89.85 248.9
Q -90.1 250.15 -90.7 250.6 -91.25 251 -92.35 251 -93.1 251 -93.55 250.9 -93.95 250.75 -94.25 250.35 -94.55 249.95 -94.55 249.5 -94.55 249.35 -94.55 249.25
L -92.9 249.5
Q -92.9 249.95 -92.45 249.95 -92.1 249.95 -91.9 249.75 -91.7 249.55 -91.6 249.1
L -91.45 248.4 -91.5 248.4
Q -92.05 249 -92.8 249 -93.5 249 -93.9 248.5 -94.3 248 -94.3 247.25
M -94.35 242.95
L -94.55 244.15 -96.3 244.15 -96.05 242.95 -94.35 242.95
M -96.4 244.65
L -94.7 244.65 -95.65 249.15 -97.4 249.15 -96.4 244.65
M -86.2 244.65
L -86.3 245.35
Q -85.6 244.55 -84.6 244.55 -83.95 244.55 -83.65 244.9 -83.35 245.2 -83.35 245.65 -83.35 245.9 -83.5 246.7
L -84.05 249.15 -85.75 249.15 -85.35 247.05
Q -85.15 246.3 -85.15 246.2 -85.15 245.8 -85.5 245.8 -85.9 245.8 -86.15 246.2 -86.45 246.55 -86.6 247.25
L -87 249.15 -88.75 249.15 -87.8 244.65 -86.2 244.65
M -89.65 258.05
Q -88.85 258.05 -88.3 258.8
L -88.15 258.15 -86.6 258.15 -87.45 262.4
Q -87.75 263.65 -88.3 264.05 -88.9 264.45 -90 264.45 -90.75 264.45 -91.2 264.35 -91.6 264.2 -91.9 263.85 -92.2 263.45 -92.2 263 -92.2 262.8 -92.2 262.75
L -90.55 263
Q -90.5 263.45 -90.05 263.45 -89.75 263.45 -89.55 263.25 -89.35 263 -89.25 262.6
L -89.1 261.9
Q -89.65 262.5 -90.4 262.5 -91.1 262.5 -91.55 262 -91.95 261.5 -91.95 260.7 -91.95 259.6 -91.3 258.85 -90.65 258.05 -89.65 258.05
M -86 259.55
Q -85.75 259.05 -85.35 258.65 -84.85 258.3 -84.45 258.2 -84 258.05 -83.45 258.05 -82.15 258.05 -81.6 258.6 -81.05 259.15 -81.05 259.95 -81.05 260.2 -81.2 260.85
L -84.6 260.85
Q -84.55 261.75 -83.8 261.75 -83.3 261.75 -83 261.35
L -81.3 261.5
Q -81.7 262.15 -82.3 262.45 -82.95 262.75 -83.85 262.75 -85.15 262.75 -85.75 262.15 -86.3 261.55 -86.3 260.7 -86.3 260.1 -86 259.55
M -97.7 259.55
Q -97.4 259.05 -97 258.65 -96.55 258.3 -96.1 258.2 -95.65 258.05 -95.1 258.05 -93.8 258.05 -93.3 258.6 -92.7 259.15 -92.7 259.95 -92.7 260.2 -92.85 260.85
L -96.25 260.85
Q -96.2 261.75 -95.45 261.75 -94.95 261.75 -94.65 261.35
L -93 261.5
Q -93.4 262.15 -93.95 262.45 -94.6 262.75 -95.5 262.75 -96.85 262.75 -97.4 262.15 -97.95 261.55 -97.95 260.7 -97.95 260.1 -97.7 259.55
M -99.7 256.45
L -98 256.45 -99.3 262.65 -101.05 262.65 -99.7 256.45
M -99.4 271.6
L -97.8 271.6 -98.7 275.85
Q -98.95 277.1 -99.55 277.55 -100.1 277.95 -101.25 277.95 -102 277.95 -102.4 277.85 -102.85 277.7 -103.15 277.3 -103.45 276.9 -103.45 276.45 -103.45 276.3 -103.45 276.2
L -101.8 276.45
Q -101.75 276.9 -101.3 276.9 -100.95 276.9 -100.8 276.7 -100.6 276.5 -100.5 276.05
L -100.3 275.35 -100.35 275.35
Q -100.9 275.95 -101.65 275.95 -102.35 275.95 -102.8 275.45 -103.15 274.95 -103.15 274.2 -103.15 273.1 -102.55 272.3 -101.9 271.5 -100.9 271.5 -100.1 271.5 -99.55 272.25
L -99.4 271.6
M -94.45 271.7
Q -94.15 271.5 -93.8 271.5 -93.5 271.5 -93.2 271.65
L -93.85 273
Q -94.05 272.95 -94.2 272.95 -94.7 272.95 -95 273.3 -95.3 273.65 -95.5 274.45
L -95.85 276.1 -97.55 276.1 -96.6 271.6 -95 271.6 -95.2 272.5 -95.15 272.55
Q -94.75 271.95 -94.45 271.7
M -92.4 272.15
Q -91.95 271.8 -91.5 271.65 -91.05 271.5 -90.5 271.5 -89.2 271.5 -88.7 272.1 -88.1 272.6 -88.1 273.45 -88.1 273.7 -88.25 274.3
L -91.65 274.3
Q -91.6 275.25 -90.85 275.25 -90.35 275.25 -90.05 274.8
L -88.4 274.95
Q -88.8 275.65 -89.35 275.9 -90 276.2 -90.9 276.2 -92.25 276.2 -92.8 275.65 -93.35 275.05 -93.35 274.15 -93.35 273.55 -93.1 273.05 -92.8 272.5 -92.4 272.15
M -85.75 271.65
Q -85.25 271.5 -84.7 271.5 -83.45 271.5 -82.9 272.1 -82.35 272.6 -82.35 273.45 -82.35 273.7 -82.45 274.3
L -85.9 274.3
Q -85.8 275.25 -85.05 275.25 -84.6 275.25 -84.3 274.8
L -82.6 274.95
Q -83 275.65 -83.6 275.9 -84.2 276.2 -85.15 276.2 -86.45 276.2 -87 275.65 -87.55 275.05 -87.55 274.15 -87.55 273.55 -87.3 273.05 -87.05 272.5 -86.6 272.15 -86.15 271.8 -85.75 271.65
M -109.15 259.4
Q -108.85 258.75 -108.15 258.4 -107.55 258.05 -106.65 258.05 -105.45 258.05 -104.9 258.65 -104.35 259.25 -104.35 260.1 -104.35 260.7 -104.65 261.35 -105 262 -105.6 262.4 -106.25 262.75 -107.2 262.75 -108.35 262.75 -108.9 262.2 -109.5 261.6 -109.5 260.7 -109.5 260.05 -109.15 259.4
M -110.55 256.95
Q -109.9 257.5 -109.8 258.45
L -111.55 258.65
Q -111.55 258.2 -111.8 258 -112.1 257.75 -112.4 257.75 -112.85 257.75 -113.25 258.05 -113.6 258.4 -113.9 259 -114.1 259.65 -114.1 260.25 -114.1 260.7 -113.9 261.05 -113.6 261.35 -113.15 261.35 -112.7 261.35 -112.4 261.05 -112.1 260.75 -111.9 260.2
L -110.05 260.5
Q -110.35 261.45 -111.15 262.1 -111.95 262.75 -113.25 262.75 -114.6 262.75 -115.3 262 -116 261.35 -116 260.1 -116 259.25 -115.6 258.3 -115.15 257.4 -114.35 256.85 -113.55 256.35 -112.4 256.35 -111.25 256.35 -110.55 256.95
M -112.85 271.5
Q -111.9 271.5 -111.4 272.2
L -110.9 269.9 -109.2 269.9 -110.5 276.1 -112.1 276.1 -112 275.65 -112.05 275.65
Q -112.4 276 -112.7 276.1 -113 276.2 -113.4 276.2 -114.2 276.2 -114.6 275.75 -114.95 275.2 -114.95 274.35 -114.95 273.25 -114.4 272.35 -113.75 271.5 -112.85 271.5
M -102.2 262.65
L -103.95 262.65 -102.6 256.45 -100.85 256.45 -102.2 262.65
M -108.25 272.15
Q -107.75 271.8 -107.35 271.65 -106.9 271.5 -106.35 271.5 -105.05 271.5 -104.5 272.1 -103.95 272.6 -103.95 273.45 -103.95 273.7 -104.1 274.3
L -107.5 274.3
Q -107.45 275.25 -106.7 275.25 -106.2 275.25 -105.9 274.8
L -104.25 274.95
Q -104.6 275.65 -105.2 275.9 -105.85 276.2 -106.75 276.2 -108.05 276.2 -108.65 275.65 -109.2 275.05 -109.2 274.15 -109.2 273.55 -108.9 273.05 -108.65 272.5 -108.25 272.15
M -105.65 273.25
Q -105.65 272.85 -105.85 272.7 -106.05 272.55 -106.35 272.55 -106.7 272.55 -106.95 272.75 -107.2 273 -107.35 273.5
L -105.65 273.5
Q -105.65 273.4 -105.65 273.25
M -112.7 275.1
Q -112.25 275.1 -112 274.6 -111.7 274 -111.7 273.45 -111.7 273.05 -111.9 272.85 -112.1 272.65 -112.35 272.65 -112.75 272.65 -113.05 273.15 -113.3 273.65 -113.3 274.3 -113.3 274.7 -113.15 274.9 -112.95 275.1 -112.7 275.1
M -106.7 259.25
Q -107.3 259.25 -107.55 259.7 -107.8 260.2 -107.8 260.7 -107.8 261.1 -107.6 261.35 -107.4 261.6 -107.1 261.6 -106.6 261.6 -106.35 261.1 -106.05 260.6 -106.05 260 -106.05 259.55 -106.25 259.4 -106.45 259.25 -106.7 259.25
M -85.75 273.5
L -84.05 273.5
Q -84 273.4 -84 273.25 -84 272.85 -84.2 272.7 -84.45 272.55 -84.75 272.55 -85.05 272.55 -85.35 272.75 -85.6 273 -85.75 273.5
M -90.5 272.55
Q -90.85 272.55 -91.1 272.75 -91.4 273 -91.5 273.5
L -89.85 273.5
Q -89.8 273.4 -89.8 273.25 -89.8 272.85 -90 272.7 -90.25 272.55 -90.5 272.55
M -101.5 274.1
Q -101.5 274.45 -101.35 274.6 -101.15 274.8 -100.85 274.8 -100.4 274.8 -100.2 274.3 -99.9 273.75 -99.9 273.3 -99.9 273.05 -100.1 272.85 -100.3 272.65 -100.5 272.65 -100.9 272.65 -101.2 273.15 -101.5 273.55 -101.5 274.1
M -94.4 259.75
Q -94.4 259.4 -94.6 259.25 -94.85 259.05 -95.1 259.05 -95.45 259.05 -95.7 259.3 -96 259.55 -96.1 260
L -94.45 260
Q -94.4 259.9 -94.4 259.75
M -82.75 259.75
Q -82.75 259.4 -82.95 259.25 -83.15 259.05 -83.45 259.05 -83.8 259.05 -84.05 259.3 -84.3 259.55 -84.45 260
L -82.75 260
Q -82.75 259.9 -82.75 259.75
M -88.7 259.8
Q -88.7 259.55 -88.85 259.4 -89.05 259.2 -89.25 259.2 -89.65 259.2 -89.95 259.65 -90.25 260.1 -90.25 260.65 -90.25 260.95 -90.1 261.15 -89.95 261.35 -89.65 261.35 -89.2 261.35 -88.95 260.8 -88.7 260.3 -88.7 259.8
M -91.2 245.9
Q -91.4 245.7 -91.65 245.7 -92.05 245.7 -92.35 246.2 -92.65 246.6 -92.65 247.15 -92.65 247.5 -92.45 247.65 -92.3 247.85 -92 247.85 -91.55 247.85 -91.3 247.35 -91.05 246.8 -91.05 246.35 -91.05 246.1 -91.2 245.9
M -104.7 246.3
Q -104.7 245.9 -104.9 245.75 -105.1 245.6 -105.4 245.6 -105.75 245.6 -106 245.8 -106.25 246.05 -106.4 246.55
L -104.7 246.55
Q -104.7 246.45 -104.7 246.3
M -112.1 246.2
Q -112.35 246.7 -112.35 247.35 -112.35 247.75 -112.2 247.95 -112 248.15 -111.75 248.15 -111.3 248.15 -111.05 247.65 -110.75 247.05 -110.75 246.5 -110.75 246.1 -110.95 245.9 -111.15 245.7 -111.4 245.7 -111.8 245.7 -112.1 246.2
M -123.1 234.05
Q -123.3 234.2 -123.3 234.4 -123.3 234.6 -123.15 234.75 -123 234.9 -122.75 234.9 -122.45 234.9 -122.15 234.6 -121.8 234.35 -121.7 233.7 -122.9 233.9 -123.1 234.05
M -117.4 233.9
Q -117.4 234.3 -117.25 234.5 -117.05 234.7 -116.8 234.7 -116.35 234.7 -116.1 234.15 -115.85 233.6 -115.85 233.05 -115.85 232.65 -116 232.45 -116.2 232.25 -116.5 232.25 -116.9 232.25 -117.15 232.75 -117.4 233.25 -117.4 233.9
M -104.8 233.05
Q -104.75 232.95 -104.75 232.8 -104.75 232.45 -104.95 232.3 -105.2 232.1 -105.45 232.1 -105.8 232.1 -106.05 232.35 -106.35 232.6 -106.45 233.05
L -104.8 233.05
M -102.85 218.8
Q -103.1 218.65 -103.35 218.65 -103.7 218.65 -103.95 218.9 -104.25 219.1 -104.35 219.6
L -102.7 219.6
Q -102.65 219.5 -102.65 219.35 -102.65 219 -102.85 218.8
M -97.25 220.2
Q -98.4 220.4 -98.6 220.55 -98.85 220.7 -98.85 220.9 -98.85 221.15 -98.65 221.3 -98.55 221.4 -98.3 221.4 -98 221.4 -97.65 221.15 -97.35 220.9 -97.25 220.2
M -75.35 234.4
Q -74.9 234.4 -74.65 233.85 -74.4 233.35 -74.4 232.9 -74.4 232.6 -74.55 232.45 -74.75 232.25 -75 232.25 -75.35 232.25 -75.65 232.7 -75.95 233.15 -75.95 233.7 -75.95 234.05 -75.8 234.2 -75.65 234.4 -75.35 234.4
M -154.9 182.85
L -154.9 185.65 -148.65 185.65 -49.5 185.65 -43.35 185.65 -43.25 185.65 -43.25 182.85 -43.35 182.85 -154.9 182.85
M 72.35 451.05
L 65.6 451.05 65.6 440.25 -43.35 440.25 -43.35 461.95 78.35 461.95 78.35 456.5 72.35 456.5 72.35 451.05 Z"/>

<path fill="#B18F7E" stroke="none" d="
M -128.95 389.5
Q -116.6 377.15 -99.05 377.15 -81.6 377.15 -69.25 389.5 -57.35 401.4 -56.8 417.95
L -56.8 455.25 -56.75 455.25 -56.75 461.95 -43.35 461.95 -43.35 440.25 -43.35 368.6 -154.8 368.6 -154.8 440.25 -154.8 461.95 -141.35 461.95 -141.35 417.95 -141.3 417.95
Q -141.25 415.2 -140.9 412.65 -138.9 399.4 -128.95 389.5
M -154.9 262.7
L -154.9 262.65 -154.9 196.8 -263.75 196.8 -263.75 365.35 -154.9 365.35 -154.9 356.65 -154.9 262.7
M 65.6 365.35
L 65.6 196.8 -43.25 196.8 -43.25 262.65 -43.25 262.7 -43.25 356.65 -43.25 365.35 65.6 365.35 Z"/>

<path fill="#D1C6B6" stroke="none" d="
M -99.05 377.15
Q -116.6 377.15 -128.95 389.5 -138.9 399.4 -140.9 412.65 -141.25 415.2 -141.3 417.95
L -141.35 417.95 -141.35 461.95 -135.85 461.95 -135.85 451.05 -135.85 418.55
Q -135.75 416.15 -135.5 413.95 -133.75 402.4 -125.1 393.8 -114.3 383 -99.05 383 -83.85 383 -73.05 393.8 -62.7 404.1 -62.25 418.55
L -62.25 451.05 -62.25 461.95 -56.75 461.95 -56.75 455.25 -56.8 455.25 -56.8 417.95
Q -57.35 401.4 -69.25 389.5 -81.6 377.15 -99.05 377.15
M -154.9 182.85
L -154.9 177.1 -167.1 177.1 -167.1 186.95 -179.05 186.95 -179.05 177.1 -191.25 177.1 -191.25 186.95 -203.2 186.95 -203.2 177.1 -215.4 177.1 -215.4 186.95 -227.35 186.95 -227.35 177.1 -239.6 177.1 -239.6 186.95 -251.5 186.95 -251.5 177.1 -263.75 177.1 -263.75 196.8 -154.9 196.8 -154.9 185.65 -154.9 182.85
M 65.6 368.6
L 65.6 365.35 -43.25 365.35 -154.9 365.35 -263.75 365.35 -263.75 368.6 -154.8 368.6 -43.35 368.6 65.6 368.6
M 29.1 177.1
L 29.1 186.95 17.2 186.95 17.2 177.1 4.95 177.1 4.95 186.95 -6.95 186.95 -6.95 177.1 -19.2 177.1 -19.2 186.95 -31.1 186.95 -31.1 177.1 -43.35 177.1 -43.35 182.85 -43.25 182.85 -43.25 185.65 -43.35 185.65 -43.35 186.95 -43.25 186.95 -43.25 196.8 65.6 196.8 65.6 186.95 65.5 186.95 65.5 177.1 53.25 177.1 53.25 186.95 41.35 186.95 41.35 177.1 29.1 177.1 Z"/>

<path fill="#A96A5E" stroke="none" d="
M -263.75 371.25
L -263.65 371.25 -263.65 440.25 -154.8 440.25 -154.8 368.6 -263.75 368.6 -263.75 371.25
M 65.6 440.25
L 65.6 368.6 -43.35 368.6 -43.35 440.25 65.6 440.25 Z"/>

<path fill="#CCCCCC" stroke="none" d="
M -49.5 189.05
L -148.65 189.05 -148.65 262.65 -148.65 262.7 -148.65 315.7
Q -97.15 291.5 -49.5 315.7
L -49.5 262.7 -49.5 262.65 -49.5 189.05
M -52.8 244.4
Q -52.8 244.65 -52.8 244.9 -52.75 245.8 -52.75 246.75 -52.75 247.7 -52.8 248.6 -53.3 262.3 -60.85 273 -62.45 275.25 -64.35 277.35 -65.3 278.4 -66.35 279.45 -79.9 293.1 -99.1 293.1 -118.3 293.1 -131.9 279.45 -132.95 278.4 -133.9 277.35 -135.75 275.25 -137.35 273 -145.45 261.55 -145.45 246.75 -145.45 227.55 -131.9 213.95 -118.3 200.4 -99.1 200.4 -79.9 200.4 -66.35 213.95 -53.6 226.75 -52.8 244.4
M -135 267.5
Q -135.55 266.55 -136.05 265.6 -134.2 269.35 -131.65 272.6 -133.45 270.2 -135 267.5
M -140.7 246.7
Q -140.65 241.4 -139.2 235.95 -138.95 235.1 -138.7 234.2 -140.75 240.35 -140.75 246.65 -140.75 247.85 -140.65 249.1 -140.7 247.9 -140.7 246.7
M -119.8 210.75
Q -118.8 210.2 -117.8 209.65 -120.5 210.95 -122.95 212.6 -125.65 214.45 -127.9 216.7 -124.35 213.35 -119.8 210.75
M -88.35 206.65
Q -85.65 207.4 -83.15 208.35 -91.4 204.85 -99.8 205.1 -95.05 205.1 -90.2 206.2 -89.3 206.4 -88.35 206.65
M -79.15 283.15
Q -77.1 282.05 -75.25 280.75 -76.75 281.75 -78.35 282.65 -78.75 282.9 -79.15 283.15
M -59.3 258.55
Q -58.95 257.35 -58.65 256.15 -58.85 256.85 -59.05 257.5 -59.15 258 -59.3 258.55
M -63.15 226
L -63.1 226
Q -62.6875 226.6375 -62.35 227.3 -64.559375 222.96875 -67.65 219.45 -65.2 222.45 -63.15 226 Z"/>

<path fill="#FFFFFF" stroke="none" d="
M -52.8 244.9
Q -52.8 244.65 -52.8 244.4 -53.6 226.75 -66.35 213.95 -79.9 200.4 -99.1 200.4 -118.3 200.4 -131.9 213.95 -145.45 227.55 -145.45 246.75 -145.45 261.55 -137.35 273 -135.75 275.25 -133.9 277.35 -132.95 278.4 -131.9 279.45 -118.3 293.1 -99.1 293.1 -79.9 293.1 -66.35 279.45 -65.3 278.4 -64.35 277.35 -62.45 275.25 -60.85 273 -53.3 262.3 -52.8 248.6 -52.75 247.7 -52.75 246.75 -52.75 245.8 -52.8 244.9
M -73.15 214.15
L -67.65 219.45
Q -64.559375 222.96875 -62.35 227.3
L -62.1 227.75
Q -61.95 228.05 -61.8 228.35
L -60.5 231.35
Q -57.6 238.35 -57.5 245.7
L -57.5 246.6
Q -57.5 246.65 -57.5 246.7
L -57.9 252.05
Q -58.1 253.4 -58.35 254.8 -58.5 255.5 -58.65 256.15 -58.95 257.35 -59.3 258.55 -59.45 259.05 -59.65 259.55 -61.85 266.6 -66.15 272.15
L -72.3 278.5 -73.75 279.65
Q -74.15 279.95 -74.5 280.25 -74.85 280.5 -75.25 280.75 -77.1 282.05 -79.15 283.15
L -80.75 283.95
Q -87.9 287.55 -95.45 288.2
L -104.25 288
Q -105.55 287.8 -106.9 287.5
L -108.9 287.05
Q -109.4 286.95 -109.85 286.85 -115.25 285.35 -119.85 282.7 -121.45 281.85 -122.9 280.85 -124.8 279.55 -126.5 278
L -127.65 276.95 -131.65 272.6
Q -134.2 269.35 -136.05 265.6
L -136.35 264.95
Q -140.2 257.25 -140.65 249.1 -140.75 247.85 -140.75 246.65 -140.75 240.35 -138.7 234.2 -138.35 233.15 -137.95 232.1 -137.85 231.75 -137.7 231.45 -136.45 228.1 -134.65 225.1
L -132.2 221.5 -127.9 216.7
Q -125.65 214.45 -122.95 212.6 -120.5 210.95 -117.8 209.65
L -115.75 208.7
Q -112 206.95 -108.05 206.1
L -102.95 205.25 -99.8 205.1
Q -91.4 204.85 -83.15 208.35
L -79.9 209.85
Q -79.05 210.25 -78.25 210.7 -76.65 211.6 -75.2 212.65 -74.65 213 -74.15 213.4
L -73.15 214.15
M -107.35 271.65
Q -107.75 271.8 -108.25 272.15 -108.65 272.5 -108.9 273.05 -109.2 273.55 -109.2 274.15 -109.2 275.05 -108.65 275.65 -108.05 276.2 -106.75 276.2 -105.85 276.2 -105.2 275.9 -104.6 275.65 -104.25 274.95
L -105.9 274.8
Q -106.2 275.25 -106.7 275.25 -107.45 275.25 -107.5 274.3
L -104.1 274.3
Q -103.95 273.7 -103.95 273.45 -103.95 272.6 -104.5 272.1 -105.05 271.5 -106.35 271.5 -106.9 271.5 -107.35 271.65
M -105.85 272.7
Q -105.65 272.85 -105.65 273.25 -105.65 273.4 -105.65 273.5
L -107.35 273.5
Q -107.2 273 -106.95 272.75 -106.7 272.55 -106.35 272.55 -106.05 272.55 -105.85 272.7
M -103.95 262.65
L -102.2 262.65 -100.85 256.45 -102.6 256.45 -103.95 262.65
M -111.4 272.2
Q -111.9 271.5 -112.85 271.5 -113.75 271.5 -114.4 272.35 -114.95 273.25 -114.95 274.35 -114.95 275.2 -114.6 275.75 -114.2 276.2 -113.4 276.2 -113 276.2 -112.7 276.1 -112.4 276 -112.05 275.65
L -112 275.65 -112.1 276.1 -110.5 276.1 -109.2 269.9 -110.9 269.9 -111.4 272.2
M -112 274.6
Q -112.25 275.1 -112.7 275.1 -112.95 275.1 -113.15 274.9 -113.3 274.7 -113.3 274.3 -113.3 273.65 -113.05 273.15 -112.75 272.65 -112.35 272.65 -112.1 272.65 -111.9 272.85 -111.7 273.05 -111.7 273.45 -111.7 274 -112 274.6
M -109.8 258.45
Q -109.9 257.5 -110.55 256.95 -111.25 256.35 -112.4 256.35 -113.55 256.35 -114.35 256.85 -115.15 257.4 -115.6 258.3 -116 259.25 -116 260.1 -116 261.35 -115.3 262 -114.6 262.75 -113.25 262.75 -111.95 262.75 -111.15 262.1 -110.35 261.45 -110.05 260.5
L -111.9 260.2
Q -112.1 260.75 -112.4 261.05 -112.7 261.35 -113.15 261.35 -113.6 261.35 -113.9 261.05 -114.1 260.7 -114.1 260.25 -114.1 259.65 -113.9 259 -113.6 258.4 -113.25 258.05 -112.85 257.75 -112.4 257.75 -112.1 257.75 -111.8 258 -111.55 258.2 -111.55 258.65
L -109.8 258.45
M -108.15 258.4
Q -108.85 258.75 -109.15 259.4 -109.5 260.05 -109.5 260.7 -109.5 261.6 -108.9 262.2 -108.35 262.75 -107.2 262.75 -106.25 262.75 -105.6 262.4 -105 262 -104.65 261.35 -104.35 260.7 -104.35 260.1 -104.35 259.25 -104.9 258.65 -105.45 258.05 -106.65 258.05 -107.55 258.05 -108.15 258.4
M -107.55 259.7
Q -107.3 259.25 -106.7 259.25 -106.45 259.25 -106.25 259.4 -106.05 259.55 -106.05 260 -106.05 260.6 -106.35 261.1 -106.6 261.6 -107.1 261.6 -107.4 261.6 -107.6 261.35 -107.8 261.1 -107.8 260.7 -107.8 260.2 -107.55 259.7
M -84.7 271.5
Q -85.25 271.5 -85.75 271.65 -86.15 271.8 -86.6 272.15 -87.05 272.5 -87.3 273.05 -87.55 273.55 -87.55 274.15 -87.55 275.05 -87 275.65 -86.45 276.2 -85.15 276.2 -84.2 276.2 -83.6 275.9 -83 275.65 -82.6 274.95
L -84.3 274.8
Q -84.6 275.25 -85.05 275.25 -85.8 275.25 -85.9 274.3
L -82.45 274.3
Q -82.35 273.7 -82.35 273.45 -82.35 272.6 -82.9 272.1 -83.45 271.5 -84.7 271.5
M -84.05 273.5
L -85.75 273.5
Q -85.6 273 -85.35 272.75 -85.05 272.55 -84.75 272.55 -84.45 272.55 -84.2 272.7 -84 272.85 -84 273.25 -84 273.4 -84.05 273.5
M -91.5 271.65
Q -91.95 271.8 -92.4 272.15 -92.8 272.5 -93.1 273.05 -93.35 273.55 -93.35 274.15 -93.35 275.05 -92.8 275.65 -92.25 276.2 -90.9 276.2 -90 276.2 -89.35 275.9 -88.8 275.65 -88.4 274.95
L -90.05 274.8
Q -90.35 275.25 -90.85 275.25 -91.6 275.25 -91.65 274.3
L -88.25 274.3
Q -88.1 273.7 -88.1 273.45 -88.1 272.6 -88.7 272.1 -89.2 271.5 -90.5 271.5 -91.05 271.5 -91.5 271.65
M -91.1 272.75
Q -90.85 272.55 -90.5 272.55 -90.25 272.55 -90 272.7 -89.8 272.85 -89.8 273.25 -89.8 273.4 -89.85 273.5
L -91.5 273.5
Q -91.4 273 -91.1 272.75
M -93.8 271.5
Q -94.15 271.5 -94.45 271.7 -94.75 271.95 -95.15 272.55
L -95.2 272.5 -95 271.6 -96.6 271.6 -97.55 276.1 -95.85 276.1 -95.5 274.45
Q -95.3 273.65 -95 273.3 -94.7 272.95 -94.2 272.95 -94.05 272.95 -93.85 273
L -93.2 271.65
Q -93.5 271.5 -93.8 271.5
M -97.8 271.6
L -99.4 271.6 -99.55 272.25
Q -100.1 271.5 -100.9 271.5 -101.9 271.5 -102.55 272.3 -103.15 273.1 -103.15 274.2 -103.15 274.95 -102.8 275.45 -102.35 275.95 -101.65 275.95 -100.9 275.95 -100.35 275.35
L -100.3 275.35 -100.5 276.05
Q -100.6 276.5 -100.8 276.7 -100.95 276.9 -101.3 276.9 -101.75 276.9 -101.8 276.45
L -103.45 276.2
Q -103.45 276.3 -103.45 276.45 -103.45 276.9 -103.15 277.3 -102.85 277.7 -102.4 277.85 -102 277.95 -101.25 277.95 -100.1 277.95 -99.55 277.55 -98.95 277.1 -98.7 275.85
L -97.8 271.6
M -101.35 274.6
Q -101.5 274.45 -101.5 274.1 -101.5 273.55 -101.2 273.15 -100.9 272.65 -100.5 272.65 -100.3 272.65 -100.1 272.85 -99.9 273.05 -99.9 273.3 -99.9 273.75 -100.2 274.3 -100.4 274.8 -100.85 274.8 -101.15 274.8 -101.35 274.6
M -98 256.45
L -99.7 256.45 -101.05 262.65 -99.3 262.65 -98 256.45
M -97 258.65
Q -97.4 259.05 -97.7 259.55 -97.95 260.1 -97.95 260.7 -97.95 261.55 -97.4 262.15 -96.85 262.75 -95.5 262.75 -94.6 262.75 -93.95 262.45 -93.4 262.15 -93 261.5
L -94.65 261.35
Q -94.95 261.75 -95.45 261.75 -96.2 261.75 -96.25 260.85
L -92.85 260.85
Q -92.7 260.2 -92.7 259.95 -92.7 259.15 -93.3 258.6 -93.8 258.05 -95.1 258.05 -95.65 258.05 -96.1 258.2 -96.55 258.3 -97 258.65
M -94.6 259.25
Q -94.4 259.4 -94.4 259.75 -94.4 259.9 -94.45 260
L -96.1 260
Q -96 259.55 -95.7 259.3 -95.45 259.05 -95.1 259.05 -94.85 259.05 -94.6 259.25
M -85.35 258.65
Q -85.75 259.05 -86 259.55 -86.3 260.1 -86.3 260.7 -86.3 261.55 -85.75 262.15 -85.15 262.75 -83.85 262.75 -82.95 262.75 -82.3 262.45 -81.7 262.15 -81.3 261.5
L -83 261.35
Q -83.3 261.75 -83.8 261.75 -84.55 261.75 -84.6 260.85
L -81.2 260.85
Q -81.05 260.2 -81.05 259.95 -81.05 259.15 -81.6 258.6 -82.15 258.05 -83.45 258.05 -84 258.05 -84.45 258.2 -84.85 258.3 -85.35 258.65
M -82.95 259.25
Q -82.75 259.4 -82.75 259.75 -82.75 259.9 -82.75 260
L -84.45 260
Q -84.3 259.55 -84.05 259.3 -83.8 259.05 -83.45 259.05 -83.15 259.05 -82.95 259.25
M -88.3 258.8
Q -88.85 258.05 -89.65 258.05 -90.65 258.05 -91.3 258.85 -91.95 259.6 -91.95 260.7 -91.95 261.5 -91.55 262 -91.1 262.5 -90.4 262.5 -89.65 262.5 -89.1 261.9
L -89.25 262.6
Q -89.35 263 -89.55 263.25 -89.75 263.45 -90.05 263.45 -90.5 263.45 -90.55 263
L -92.2 262.75
Q -92.2 262.8 -92.2 263 -92.2 263.45 -91.9 263.85 -91.6 264.2 -91.2 264.35 -90.75 264.45 -90 264.45 -88.9 264.45 -88.3 264.05 -87.75 263.65 -87.45 262.4
L -86.6 258.15 -88.15 258.15 -88.3 258.8
M -88.85 259.4
Q -88.7 259.55 -88.7 259.8 -88.7 260.3 -88.95 260.8 -89.2 261.35 -89.65 261.35 -89.95 261.35 -90.1 261.15 -90.25 260.95 -90.25 260.65 -90.25 260.1 -89.95 259.65 -89.65 259.2 -89.25 259.2 -89.05 259.2 -88.85 259.4
M -86.3 245.35
L -86.2 244.65 -87.8 244.65 -88.75 249.15 -87 249.15 -86.6 247.25
Q -86.45 246.55 -86.15 246.2 -85.9 245.8 -85.5 245.8 -85.15 245.8 -85.15 246.2 -85.15 246.3 -85.35 247.05
L -85.75 249.15 -84.05 249.15 -83.5 246.7
Q -83.35 245.9 -83.35 245.65 -83.35 245.2 -83.65 244.9 -83.95 244.55 -84.6 244.55 -85.6 244.55 -86.3 245.35
M -94.7 244.65
L -96.4 244.65 -97.4 249.15 -95.65 249.15 -94.7 244.65
M -94.55 244.15
L -94.35 242.95 -96.05 242.95 -96.3 244.15 -94.55 244.15
M -93.7 245.35
Q -94.3 246.15 -94.3 247.25 -94.3 248 -93.9 248.5 -93.5 249 -92.8 249 -92.05 249 -91.5 248.4
L -91.45 248.4 -91.6 249.1
Q -91.7 249.55 -91.9 249.75 -92.1 249.95 -92.45 249.95 -92.9 249.95 -92.9 249.5
L -94.55 249.25
Q -94.55 249.35 -94.55 249.5 -94.55 249.95 -94.25 250.35 -93.95 250.75 -93.55 250.9 -93.1 251 -92.35 251 -91.25 251 -90.7 250.6 -90.1 250.15 -89.85 248.9
L -88.95 244.65 -90.5 244.65 -90.7 245.35
Q -91.2 244.55 -92.05 244.55 -93 244.55 -93.7 245.35
M -91.65 245.7
Q -91.4 245.7 -91.2 245.9 -91.05 246.1 -91.05 246.35 -91.05 246.8 -91.3 247.35 -91.55 247.85 -92 247.85 -92.3 247.85 -92.45 247.65 -92.65 247.5 -92.65 247.15 -92.65 246.6 -92.35 246.2 -92.05 245.7 -91.65 245.7
M -92 231.2
L -93.7 231.2 -94.7 235.7 -92.95 235.7 -92 231.2
M -91.85 230.65
L -91.65 229.5 -93.35 229.5 -93.6 230.65 -91.85 230.65
M -97.35 231.2
L -98 231.2 -98.2 232.45 -97.6 232.45 -97.9 234
Q -98.05 234.55 -98.05 234.7 -98.05 235.1 -97.75 235.45 -97.45 235.8 -96.75 235.8 -96.35 235.8 -95.6 235.7
L -95.3 234.5
Q -95.7 234.55 -95.85 234.55 -96.25 234.55 -96.25 234.25 -96.25 234.1 -96.2 234.05
L -95.9 232.45 -95 232.45 -94.75 231.2 -95.6 231.2 -95.25 229.55 -97.2 230.5 -97.35 231.2
M -83.7 230.65
L -83.5 229.5 -85.2 229.5 -85.45 230.65 -83.7 230.65
M -83.85 231.2
L -85.55 231.2 -86.55 235.7 -84.8 235.7 -83.85 231.2
M -88.85 231.1
Q -89.65 231.1 -90.15 231.35 -90.7 231.55 -91 231.9 -91.25 232.3 -91.25 232.7 -91.25 233.15 -90.9 233.5 -90.5 233.8 -89.55 233.95 -89.1 234.05 -88.95 234.1 -88.8 234.2 -88.8 234.4 -88.8 234.6 -89 234.75 -89.2 234.85 -89.5 234.85 -90.15 234.85 -90.25 234.3
L -91.95 234.45
Q -91.85 235.2 -91.35 235.5 -90.85 235.8 -89.75 235.8 -88.45 235.8 -87.8 235.3 -87.15 234.8 -87.15 234.1 -87.15 233.65 -87.5 233.35 -87.85 233.05 -88.8 232.9 -89.45 232.8 -89.55 232.7 -89.7 232.6 -89.7 232.45 -89.7 232.3 -89.55 232.15 -89.4 232.05 -89.1 232.05 -88.55 232.05 -88.5 232.45
L -86.9 232.3
Q -86.95 231.65 -87.45 231.35 -87.95 231.1 -88.85 231.1
M -101.85 231.2
L -102.8 235.7 -101.05 235.7 -100.7 234.05
Q -100.55 233.25 -100.2 232.9 -99.9 232.5 -99.45 232.5 -99.25 232.5 -99.05 232.6
L -98.45 231.25
Q -98.75 231.1 -99.05 231.1 -99.4 231.1 -99.7 231.3 -100 231.55 -100.4 232.1
L -100.2 231.2 -101.85 231.2
M -102.05 246.15
Q -102.05 246.65 -101.7 246.95 -101.35 247.25 -100.35 247.45 -99.9 247.5 -99.75 247.55 -99.6 247.65 -99.6 247.85 -99.6 248.1 -99.8 248.2 -100 248.3 -100.3 248.3 -100.95 248.3 -101.05 247.8
L -102.75 247.95
Q -102.65 248.65 -102.15 249 -101.65 249.25 -100.6 249.25 -99.25 249.25 -98.6 248.8 -98 248.3 -98 247.6 -98 247.1 -98.3 246.8 -98.65 246.5 -99.65 246.35 -100.25 246.3 -100.4 246.2 -100.5 246.05 -100.5 245.9 -100.5 245.75 -100.4 245.65 -100.2 245.55 -99.9 245.55 -99.35 245.55 -99.3 245.9
L -97.7 245.75
Q -97.8 245.1 -98.3 244.85 -98.75 244.55 -99.65 244.55 -100.45 244.55 -100.95 244.8 -101.55 245 -101.8 245.4 -102.05 245.75 -102.05 246.15
M -107.95 246.1
Q -108.25 246.6 -108.25 247.2 -108.25 248.1 -107.7 248.7 -107.1 249.25 -105.8 249.25 -104.9 249.25 -104.25 249 -103.65 248.7 -103.25 248
L -104.95 247.85
Q -105.25 248.3 -105.75 248.3 -106.5 248.3 -106.55 247.35
L -103.15 247.35
Q -103 246.75 -103 246.5 -103 245.65 -103.55 245.15 -104.1 244.55 -105.4 244.55 -105.95 244.55 -106.4 244.7 -106.8 244.85 -107.3 245.2 -107.7 245.55 -107.95 246.1
M -104.9 245.75
Q -104.7 245.9 -104.7 246.3 -104.7 246.45 -104.7 246.55
L -106.4 246.55
Q -106.25 246.05 -106 245.8 -105.75 245.6 -105.4 245.6 -105.1 245.6 -104.9 245.75
M -113.45 245.45
Q -114 246.3 -114 247.4 -114 248.25 -113.6 248.8 -113.25 249.25 -112.45 249.25 -112.05 249.25 -111.75 249.15 -111.45 249.05 -111.1 248.7
L -111.05 248.7 -111.15 249.15 -109.55 249.15 -108.25 242.95 -109.95 242.95 -110.45 245.25
Q -110.95 244.55 -111.9 244.55 -112.8 244.55 -113.45 245.45
M -112.35 247.35
Q -112.35 246.7 -112.1 246.2 -111.8 245.7 -111.4 245.7 -111.15 245.7 -110.95 245.9 -110.75 246.1 -110.75 246.5 -110.75 247.05 -111.05 247.65 -111.3 248.15 -111.75 248.15 -112 248.15 -112.2 247.95 -112.35 247.75 -112.35 247.35
M -121.45 232.5
Q -121.45 232.6 -121.5 232.8 -121.75 232.9 -122.5 232.95 -123.35 233.05 -123.85 233.15 -124.35 233.25 -124.65 233.55 -125 233.9 -125 234.5 -125 235 -124.65 235.4 -124.25 235.8 -123.4 235.8 -122.55 235.8 -121.85 235.2 -121.85 235.45 -121.8 235.7
L -120.15 235.7
Q -120.25 235.35 -120.25 235.1 -120.25 234.7 -120.05 233.8 -119.8 232.85 -119.8 232.4 -119.8 231.75 -120.25 231.45 -120.7 231.1 -122.05 231.1 -123.2 231.1 -123.8 231.45 -124.35 231.8 -124.5 232.45
L -122.9 232.6
Q -122.75 232.3 -122.55 232.2 -122.4 232.1 -122.05 232.1 -121.8 232.1 -121.65 232.2 -121.45 232.3 -121.45 232.5
M -123.3 234.4
Q -123.3 234.2 -123.1 234.05 -122.9 233.9 -121.7 233.7 -121.8 234.35 -122.15 234.6 -122.45 234.9 -122.75 234.9 -123 234.9 -123.15 234.75 -123.3 234.6 -123.3 234.4
M -116.95 231.1
Q -117.85 231.1 -118.5 231.95 -119.1 232.8 -119.1 233.95 -119.1 234.8 -118.7 235.3 -118.3 235.8 -117.5 235.8 -117.1 235.8 -116.8 235.7 -116.5 235.55 -116.15 235.25
L -116.1 235.25 -116.2 235.7 -114.6 235.7 -113.3 229.5 -115 229.5 -115.5 231.8
Q -116 231.1 -116.95 231.1
M -117.25 234.5
Q -117.4 234.3 -117.4 233.9 -117.4 233.25 -117.15 232.75 -116.9 232.25 -116.5 232.25 -116.2 232.25 -116 232.45 -115.85 232.65 -115.85 233.05 -115.85 233.6 -116.1 234.15 -116.35 234.7 -116.8 234.7 -117.05 234.7 -117.25 234.5
M -111.25 234.05
L -111.3 234.05 -111.55 231.2 -113.15 231.2 -112.3 235.7 -110.75 235.7 -107.95 231.2 -109.8 231.2 -111.25 234.05
M -108.05 232.6
Q -108.3 233.15 -108.3 233.75 -108.3 234.6 -107.75 235.2 -107.2 235.8 -105.85 235.8 -104.95 235.8 -104.3 235.5 -103.75 235.2 -103.35 234.55
L -105 234.4
Q -105.3 234.8 -105.8 234.8 -106.55 234.8 -106.6 233.9
L -103.2 233.9
Q -103.1 233.25 -103.1 233 -103.1 232.2 -103.65 231.65 -104.15 231.1 -105.45 231.1 -106 231.1 -106.45 231.25 -106.9 231.35 -107.35 231.75 -107.75 232.1 -108.05 232.6
M -104.75 232.8
Q -104.75 232.95 -104.8 233.05
L -106.45 233.05
Q -106.35 232.6 -106.05 232.35 -105.8 232.1 -105.45 232.1 -105.2 232.1 -104.95 232.3 -104.75 232.45 -104.75 232.8
M -108.9 216
L -110.85 216 -112.2 222.25 -107.2 222.25 -106.85 220.7 -109.95 220.7 -108.9 216
M -88.2 219.25
Q -87.95 218.9 -87.55 218.9 -87.2 218.9 -87.2 219.25 -87.2 219.35 -87.35 220.15
L -87.8 222.25 -86.1 222.25 -85.55 219.75
Q -85.4 219 -85.4 218.7 -85.4 218.25 -85.7 217.95 -86 217.65 -86.6 217.65 -87.65 217.65 -88.35 218.4
L -88.2 217.75 -89.85 217.75 -90.8 222.25 -89.05 222.25 -88.6 220.3
Q -88.5 219.6 -88.2 219.25
M -91.15 217.65
Q -91.5 217.65 -91.8 217.85 -92.1 218.05 -92.5 218.65
L -92.55 218.6 -92.35 217.75 -93.95 217.75 -94.9 222.25 -93.2 222.25 -92.8 220.55
Q -92.65 219.75 -92.35 219.4 -92.05 219.05 -91.55 219.05 -91.4 219.05 -91.2 219.1
L -90.55 217.75
Q -90.85 217.65 -91.15 217.65
M -101.1 220.4
Q -100.95 219.8 -100.95 219.55 -100.95 218.7 -101.55 218.2 -102.05 217.65 -103.35 217.65 -103.9 217.65 -104.35 217.75 -104.8 217.9 -105.25 218.25 -105.65 218.6 -105.95 219.15 -106.2 219.65 -106.2 220.25 -106.2 221.15 -105.65 221.75 -105.1 222.35 -103.75 222.35 -102.85 222.35 -102.2 222.05 -101.65 221.75 -101.25 221.1
L -102.9 220.9
Q -103.2 221.35 -103.7 221.35 -104.45 221.35 -104.5 220.4
L -101.1 220.4
M -103.35 218.65
Q -103.1 218.65 -102.85 218.8 -102.65 219 -102.65 219.35 -102.65 219.5 -102.7 219.6
L -104.35 219.6
Q -104.25 219.1 -103.95 218.9 -103.7 218.65 -103.35 218.65
M -97.05 219.35
Q -97.3 219.4 -98 219.45 -98.85 219.55 -99.35 219.65 -99.85 219.8 -100.2 220.1 -100.5 220.4 -100.5 221 -100.5 221.55 -100.15 221.95 -99.75 222.35 -98.9 222.35 -98.1 222.35 -97.4 221.7 -97.4 221.95 -97.35 222.25
L -95.65 222.25
Q -95.8 221.9 -95.8 221.6 -95.8 221.25 -95.55 220.3 -95.3 219.35 -95.3 218.95 -95.3 218.3 -95.8 217.95 -96.25 217.65 -97.6 217.65 -98.75 217.65 -99.3 218 -99.85 218.3 -100 219
L -98.4 219.15
Q -98.3 218.85 -98.1 218.75 -97.9 218.65 -97.6 218.65 -97.35 218.65 -97.15 218.75 -96.95 218.85 -96.95 219 -96.95 219.15 -97.05 219.35
M -98.6 220.55
Q -98.4 220.4 -97.25 220.2 -97.35 220.9 -97.65 221.15 -98 221.4 -98.3 221.4 -98.55 221.4 -98.65 221.3 -98.85 221.15 -98.85 220.9 -98.85 220.7 -98.6 220.55
M -77.65 233.75
Q -77.65 234.55 -77.25 235.05 -76.8 235.55 -76.15 235.55 -75.35 235.55 -74.8 234.95
L -74.95 235.65
Q -75.05 236.05 -75.25 236.3 -75.45 236.5 -75.75 236.5 -76.25 236.5 -76.25 236.05
L -77.9 235.8
Q -77.9 235.85 -77.9 236.05 -77.9 236.5 -77.6 236.9 -77.3 237.3 -76.9 237.4 -76.45 237.5 -75.7 237.5 -74.6 237.5 -74.05 237.1 -73.45 236.7 -73.15 235.45
L -72.3 231.2 -73.85 231.2 -74.05 231.85
Q -74.55 231.1 -75.35 231.1 -76.35 231.1 -77 231.9 -77.65 232.7 -77.65 233.75
M -74.65 233.85
Q -74.9 234.4 -75.35 234.4 -75.65 234.4 -75.8 234.2 -75.95 234.05 -75.95 233.7 -75.95 233.15 -75.65 232.7 -75.35 232.25 -75 232.25 -74.75 232.25 -74.55 232.45 -74.4 232.6 -74.4 232.9 -74.4 233.35 -74.65 233.85
M -80.45 232.35
Q -80.15 232.35 -80.15 232.75 -80.15 232.85 -80.3 233.6
L -80.75 235.7 -79 235.7 -78.5 233.25
Q -78.35 232.45 -78.35 232.2 -78.35 231.75 -78.65 231.45 -78.9 231.1 -79.55 231.1 -80.55 231.1 -81.3 231.9
L -81.15 231.2 -82.75 231.2 -83.7 235.7 -82 235.7 -81.55 233.75
Q -81.4 233.05 -81.15 232.7 -80.85 232.35 -80.45 232.35 Z"/>

<path fill="#999999" stroke="none" d="
M -148.65 185.65
L -148.65 189.05 -49.5 189.05 -49.5 185.65 -148.65 185.65 Z"/>
</g>

<g id="Layer0_0_MEMBER_0_FILL">
<path fill="#A96A5E" stroke="none" d="
M -154.9 348.1
L -154.9 356.65 -43.25 356.65 -43.25 348.1 -154.9 348.1 Z"/>
</g>

<g id="Layer0_0_MEMBER_0_MEMBER_0_FILL">
<path fill="#B18F7E" stroke="none" d="
M -144.75 333.25
L -147.35 333.25 -147.35 348.1 -144.75 348.1 -144.75 333.25 Z"/>
</g>

<g id="Layer0_0_MEMBER_0_MEMBER_1_FILL">
<path fill="#B18F7E" stroke="none" d="
M -131.3 333.25
L -133.95 333.25 -133.95 348.1 -131.3 348.1 -131.3 333.25 Z"/>
</g>

<g id="Layer0_0_MEMBER_0_MEMBER_2_FILL">
<path fill="#B18F7E" stroke="none" d="
M -117.85 333.25
L -120.5 333.25 -120.5 348.1 -117.85 348.1 -117.85 333.25 Z"/>
</g>

<g id="Layer0_0_MEMBER_0_MEMBER_3_FILL">
<path fill="#B18F7E" stroke="none" d="
M -104.4 333.25
L -107.05 333.25 -107.05 348.1 -104.4 348.1 -104.4 333.25 Z"/>
</g>

<g id="Layer0_0_MEMBER_0_MEMBER_4_FILL">
<path fill="#B18F7E" stroke="none" d="
M -91 333.25
L -93.6 333.25 -93.6 348.1 -91 348.1 -91 333.25 Z"/>
</g>

<g id="Layer0_0_MEMBER_0_MEMBER_5_FILL">
<path fill="#B18F7E" stroke="none" d="
M -77.55 333.25
L -80.15 333.25 -80.15 348.1 -77.55 348.1 -77.55 333.25 Z"/>
</g>

<g id="Layer0_0_MEMBER_0_MEMBER_6_FILL">
<path fill="#B18F7E" stroke="none" d="
M -64.1 333.25
L -66.75 333.25 -66.75 348.1 -64.1 348.1 -64.1 333.25 Z"/>
</g>

<g id="Layer0_0_MEMBER_0_MEMBER_7_FILL">
<path fill="#B18F7E" stroke="none" d="
M -50.55 333.25
L -53.2 333.25 -53.2 348.1 -50.55 348.1 -50.55 333.25 Z"/>
</g>

<g id="Layer0_0_MEMBER_0_MEMBER_8_FILL">
<path fill="#B18F7E" stroke="none" d="
M -154.9 330.65
L -154.9 333.25 -41.15 333.25 -41.15 330.65 -154.9 330.65 Z"/>
</g>

<g id="Layer0_0_MEMBER_1_MEMBER_0_MEMBER_0_FILL">
<path fill="#85463A" stroke="none" d="
M 49.6 429.55
L 49.6 427.35 19.7 427.35 19.7 429.55 49.6 429.55 Z"/>

<path fill="#FFFFFF" stroke="none" d="
M 36.3 379.2
Q 34.5 379.05 32.65 379.2 26.1 379.65 19.7 383.55
L 19.7 427.35 49.6 427.35 49.6 383.55
Q 42.9 379.65 36.3 379.2
M 21.65 385.1
Q 25.45 381.85 33.75 381.15
L 33.75 394.8 21.65 394.8 21.65 385.1
M 35.7 394.8
L 35.7 381.2
Q 43.3 381.6 47.8 385.15
L 47.8 394.8 47.8 394.85 35.7 394.85 35.7 394.8
M 47.7 396.7
L 47.7 410 35.65 410 35.65 396.7 47.7 396.7
M 47.7 411.85
L 47.7 425.15 35.65 425.15 35.65 411.85 47.7 411.85
M 21.55 396.7
L 33.65 396.7 33.65 410 21.55 410 21.55 396.7
M 21.55 411.85
L 33.65 411.85 33.65 425.15 21.55 425.15 21.55 411.85 Z"/>

<path fill="#533A39" stroke="none" d="
M 33.65 411.85
L 21.55 411.85 21.55 425.15 33.65 425.15 33.65 411.85
M 33.65 396.7
L 21.55 396.7 21.55 410 33.65 410 33.65 396.7
M 47.7 425.15
L 47.7 411.85 35.65 411.85 35.65 425.15 47.7 425.15
M 47.7 410
L 47.7 396.7 35.65 396.7 35.65 410 47.7 410
M 35.7 381.2
L 35.7 394.8 47.8 394.8 47.8 385.15
Q 43.3 381.6 35.7 381.2
M 33.75 381.15
Q 25.45 381.85 21.65 385.1
L 21.65 394.8 33.75 394.8 33.75 381.15 Z"/>
</g>

<g id="Layer0_0_MEMBER_1_MEMBER_0_MEMBER_1_FILL">
<path fill="#FFFFFF" stroke="none" d="
M 3.4 427.35
L 3.4 383.55
Q -3.3 379.65 -9.85 379.2 -11.7 379.05 -13.5 379.2 -20.05 379.65 -26.5 383.55
L -26.5 427.35 3.4 427.35
M 1.6 385.15
L 1.6 394.8 1.6 394.85 -10.5 394.85 -10.5 394.8 -10.5 381.2
Q -2.85 381.6 1.6 385.15
M 1.55 396.7
L 1.55 410 -10.5 410 -10.5 396.7 1.55 396.7
M 1.55 411.85
L 1.55 425.15 -10.5 425.15 -10.5 411.85 1.55 411.85
M -24.5 385.1
Q -20.75 381.85 -12.4 381.15
L -12.4 394.8 -24.5 394.8 -24.5 385.1
M -12.5 396.7
L -12.5 410 -24.6 410 -24.6 396.7 -12.5 396.7
M -12.5 411.85
L -12.5 425.15 -24.6 425.15 -24.6 411.85 -12.5 411.85 Z"/>

<path fill="#533A39" stroke="none" d="
M -12.5 425.15
L -12.5 411.85 -24.6 411.85 -24.6 425.15 -12.5 425.15
M -12.5 410
L -12.5 396.7 -24.6 396.7 -24.6 410 -12.5 410
M -12.4 381.15
Q -20.75 381.85 -24.5 385.1
L -24.5 394.8 -12.4 394.8 -12.4 381.15
M 1.55 425.15
L 1.55 411.85 -10.5 411.85 -10.5 425.15 1.55 425.15
M 1.55 410
L 1.55 396.7 -10.5 396.7 -10.5 410 1.55 410
M 1.6 394.8
L 1.6 385.15
Q -2.85 381.6 -10.5 381.2
L -10.5 394.8 1.6 394.8 Z"/>

<path fill="#85463A" stroke="none" d="
M 3.4 429.55
L 3.4 427.35 -26.5 427.35 -26.5 429.55 3.4 429.55 Z"/>
</g>

<g id="Layer0_0_MEMBER_1_MEMBER_0_MEMBER_2_FILL">
<path fill="#85463A" stroke="none" d="
M -202.35 427.35
L -202.35 429.55 -172.45 429.55 -172.45 427.35 -202.35 427.35 Z"/>

<path fill="#FFFFFF" stroke="none" d="
M -189.35 379.2
Q -195.95 379.65 -202.35 383.55
L -202.35 427.35 -172.45 427.35 -172.45 383.55
Q -179.15 379.65 -185.7 379.2 -187.55 379.05 -189.35 379.2
M -200.35 394.8
L -200.35 385.1
Q -196.6 381.85 -188.3 381.15
L -188.3 394.8 -200.35 394.8
M -186.35 394.8
L -186.35 381.2
Q -178.7 381.6 -174.25 385.15
L -174.25 394.8 -174.25 394.85 -186.35 394.85 -186.35 394.8
M -174.3 396.7
L -174.3 410 -186.4 410 -186.4 396.7 -174.3 396.7
M -200.45 396.7
L -188.4 396.7 -188.4 410 -200.45 410 -200.45 396.7
M -200.45 411.85
L -188.4 411.85 -188.4 425.15 -200.45 425.15 -200.45 411.85
M -186.4 411.85
L -174.3 411.85 -174.3 425.15 -186.4 425.15 -186.4 411.85 Z"/>

<path fill="#533A39" stroke="none" d="
M -174.3 411.85
L -186.4 411.85 -186.4 425.15 -174.3 425.15 -174.3 411.85
M -188.4 411.85
L -200.45 411.85 -200.45 425.15 -188.4 425.15 -188.4 411.85
M -188.4 396.7
L -200.45 396.7 -200.45 410 -188.4 410 -188.4 396.7
M -174.3 410
L -174.3 396.7 -186.4 396.7 -186.4 410 -174.3 410
M -186.35 381.2
L -186.35 394.8 -174.25 394.8 -174.25 385.15
Q -178.7 381.6 -186.35 381.2
M -200.35 385.1
L -200.35 394.8 -188.3 394.8 -188.3 381.15
Q -196.6 381.85 -200.35 385.1 Z"/>
</g>

<g id="Layer0_0_MEMBER_1_MEMBER_0_MEMBER_3_FILL">
<path fill="#85463A" stroke="none" d="
M -217.9 429.55
L -217.9 427.35 -247.8 427.35 -247.8 429.55 -217.9 429.55 Z"/>

<path fill="#FFFFFF" stroke="none" d="
M -231.15 379.2
Q -233 379.05 -234.8 379.2 -241.4 379.65 -247.8 383.55
L -247.8 427.35 -217.9 427.35 -217.9 383.55
Q -224.6 379.65 -231.15 379.2
M -245.8 394.8
L -245.8 385.1
Q -242.05 381.85 -233.75 381.15
L -233.75 394.8 -245.8 394.8
M -231.8 394.85
L -231.8 394.8 -231.8 381.2
Q -224.15 381.6 -219.7 385.15
L -219.7 394.8 -219.7 394.85 -231.8 394.85
M -219.75 396.7
L -219.75 410 -231.8 410 -231.8 396.7 -219.75 396.7
M -233.8 396.7
L -233.8 410 -245.9 410 -245.9 396.7 -233.8 396.7
M -219.75 425.15
L -231.8 425.15 -231.8 411.85 -219.75 411.85 -219.75 425.15
M -233.8 411.85
L -233.8 425.15 -245.9 425.15 -245.9 411.85 -233.8 411.85 Z"/>

<path fill="#533A39" stroke="none" d="
M -233.8 425.15
L -233.8 411.85 -245.9 411.85 -245.9 425.15 -233.8 425.15
M -231.8 425.15
L -219.75 425.15 -219.75 411.85 -231.8 411.85 -231.8 425.15
M -233.8 410
L -233.8 396.7 -245.9 396.7 -245.9 410 -233.8 410
M -219.75 410
L -219.75 396.7 -231.8 396.7 -231.8 410 -219.75 410
M -231.8 381.2
L -231.8 394.8 -219.7 394.8 -219.7 385.15
Q -224.15 381.6 -231.8 381.2
M -245.8 385.1
L -245.8 394.8 -233.75 394.8 -233.75 381.15
Q -242.05 381.85 -245.8 385.1 Z"/>
</g>

<g id="Layer0_0_MEMBER_1_MEMBER_1_MEMBER_0_FILL">
<path fill="#85463A" stroke="none" d="
M 19.7 347.8
L 19.7 350 49.6 350 49.6 347.8 19.7 347.8 Z"/>

<path fill="#FFFFFF" stroke="none" d="
M 36.3 299.7
Q 34.5 299.55 32.65 299.7 26.1 300.15 19.7 304
L 19.7 347.8 49.6 347.8 49.6 304
Q 42.9 300.15 36.3 299.7
M 47.7 332.3
L 47.7 345.6 35.65 345.6 35.65 332.3 47.7 332.3
M 47.8 305.65
L 47.8 315.3 35.7 315.3 35.7 301.7
Q 43.3 302.1 47.8 305.65
M 47.7 317.2
L 47.7 330.5 35.65 330.5 35.65 317.2 47.7 317.2
M 21.65 315.3
L 21.65 305.6
Q 25.45 302.3 33.75 301.65
L 33.75 315.3 21.65 315.3
M 21.55 317.2
L 33.65 317.2 33.65 330.5 21.55 330.5 21.55 317.2
M 21.55 332.3
L 33.65 332.3 33.65 345.6 21.55 345.6 21.55 332.3 Z"/>

<path fill="#533A39" stroke="none" d="
M 33.65 332.3
L 21.55 332.3 21.55 345.6 33.65 345.6 33.65 332.3
M 33.65 317.2
L 21.55 317.2 21.55 330.5 33.65 330.5 33.65 317.2
M 21.65 305.6
L 21.65 315.3 33.75 315.3 33.75 301.65
Q 25.45 302.3 21.65 305.6
M 47.7 330.5
L 47.7 317.2 35.65 317.2 35.65 330.5 47.7 330.5
M 47.8 315.3
L 47.8 305.65
Q 43.3 302.1 35.7 301.7
L 35.7 315.3 47.8 315.3
M 47.7 345.6
L 47.7 332.3 35.65 332.3 35.65 345.6 47.7 345.6 Z"/>
</g>

<g id="Layer0_0_MEMBER_1_MEMBER_1_MEMBER_1_FILL">
<path fill="#FFFFFF" stroke="none" d="
M 3.4 347.8
L 3.4 304
Q -3.3 300.15 -9.85 299.7 -11.7 299.55 -13.5 299.7 -20.05 300.15 -26.5 304
L -26.5 347.8 3.4 347.8
M 1.6 305.65
L 1.6 315.3 -10.5 315.3 -10.5 301.7
Q -2.85 302.1 1.6 305.65
M 1.55 332.3
L 1.55 345.6 -10.5 345.6 -10.5 332.3 1.55 332.3
M 1.55 317.2
L 1.55 330.5 -10.5 330.5 -10.5 317.2 1.55 317.2
M -12.4 301.65
L -12.4 315.3 -24.5 315.3 -24.5 305.6
Q -20.75 302.3 -12.4 301.65
M -24.6 345.6
L -24.6 332.3 -12.5 332.3 -12.5 345.6 -24.6 345.6
M -24.6 317.2
L -12.5 317.2 -12.5 330.5 -24.6 330.5 -24.6 317.2 Z"/>

<path fill="#533A39" stroke="none" d="
M -12.5 317.2
L -24.6 317.2 -24.6 330.5 -12.5 330.5 -12.5 317.2
M -24.6 332.3
L -24.6 345.6 -12.5 345.6 -12.5 332.3 -24.6 332.3
M -12.4 315.3
L -12.4 301.65
Q -20.75 302.3 -24.5 305.6
L -24.5 315.3 -12.4 315.3
M 1.55 330.5
L 1.55 317.2 -10.5 317.2 -10.5 330.5 1.55 330.5
M 1.55 345.6
L 1.55 332.3 -10.5 332.3 -10.5 345.6 1.55 345.6
M 1.6 315.3
L 1.6 305.65
Q -2.85 302.1 -10.5 301.7
L -10.5 315.3 1.6 315.3 Z"/>

<path fill="#85463A" stroke="none" d="
M 3.4 350
L 3.4 347.8 -26.5 347.8 -26.5 350 3.4 350 Z"/>
</g>

<g id="Layer0_0_MEMBER_1_MEMBER_1_MEMBER_2_FILL">
<path fill="#85463A" stroke="none" d="
M -172.45 350
L -172.45 347.8 -202.35 347.8 -202.35 350 -172.45 350 Z"/>

<path fill="#FFFFFF" stroke="none" d="
M -189.35 299.7
Q -195.95 300.15 -202.35 304
L -202.35 347.8 -172.45 347.8 -172.45 304
Q -179.15 300.15 -185.7 299.7 -187.55 299.55 -189.35 299.7
M -174.25 305.65
L -174.25 315.3 -186.35 315.3 -186.35 301.7
Q -178.7 302.1 -174.25 305.65
M -200.35 315.3
L -200.35 305.6
Q -196.6 302.3 -188.3 301.65
L -188.3 315.3 -200.35 315.3
M -200.45 317.2
L -188.4 317.2 -188.4 330.5 -200.45 330.5 -200.45 317.2
M -200.45 332.3
L -188.4 332.3 -188.4 345.6 -200.45 345.6 -200.45 332.3
M -186.4 345.6
L -186.4 332.3 -174.3 332.3 -174.3 345.6 -186.4 345.6
M -186.4 317.2
L -174.3 317.2 -174.3 330.5 -186.4 330.5 -186.4 317.2 Z"/>

<path fill="#533A39" stroke="none" d="
M -174.3 317.2
L -186.4 317.2 -186.4 330.5 -174.3 330.5 -174.3 317.2
M -186.4 332.3
L -186.4 345.6 -174.3 345.6 -174.3 332.3 -186.4 332.3
M -188.4 332.3
L -200.45 332.3 -200.45 345.6 -188.4 345.6 -188.4 332.3
M -188.4 317.2
L -200.45 317.2 -200.45 330.5 -188.4 330.5 -188.4 317.2
M -200.35 305.6
L -200.35 315.3 -188.3 315.3 -188.3 301.65
Q -196.6 302.3 -200.35 305.6
M -174.25 315.3
L -174.25 305.65
Q -178.7 302.1 -186.35 301.7
L -186.35 315.3 -174.25 315.3 Z"/>
</g>

<g id="Layer0_0_MEMBER_1_MEMBER_1_MEMBER_3_FILL">
<path fill="#FFFFFF" stroke="none" d="
M -247.8 304
L -247.8 347.8 -217.9 347.8 -217.9 304
Q -224.6 300.15 -231.15 299.7 -233 299.55 -234.8 299.7 -241.4 300.15 -247.8 304
M -245.9 345.6
L -245.9 332.3 -233.8 332.3 -233.8 345.6 -245.9 345.6
M -245.8 315.3
L -245.8 305.6
Q -242.05 302.3 -233.75 301.65
L -233.75 315.3 -245.8 315.3
M -245.9 330.5
L -245.9 317.2 -233.8 317.2 -233.8 330.5 -245.9 330.5
M -219.7 305.65
L -219.7 315.3 -231.8 315.3 -231.8 301.7
Q -224.15 302.1 -219.7 305.65
M -231.8 345.6
L -231.8 332.3 -219.75 332.3 -219.75 345.6 -231.8 345.6
M -231.8 317.2
L -219.75 317.2 -219.75 330.5 -231.8 330.5 -231.8 317.2 Z"/>

<path fill="#533A39" stroke="none" d="
M -219.75 317.2
L -231.8 317.2 -231.8 330.5 -219.75 330.5 -219.75 317.2
M -231.8 332.3
L -231.8 345.6 -219.75 345.6 -219.75 332.3 -231.8 332.3
M -219.7 315.3
L -219.7 305.65
Q -224.15 302.1 -231.8 301.7
L -231.8 315.3 -219.7 315.3
M -245.9 317.2
L -245.9 330.5 -233.8 330.5 -233.8 317.2 -245.9 317.2
M -245.8 305.6
L -245.8 315.3 -233.75 315.3 -233.75 301.65
Q -242.05 302.3 -245.8 305.6
M -245.9 332.3
L -245.9 345.6 -233.8 345.6 -233.8 332.3 -245.9 332.3 Z"/>

<path fill="#85463A" stroke="none" d="
M -247.8 347.8
L -247.8 350 -217.9 350 -217.9 347.8 -247.8 347.8 Z"/>
</g>

<g id="Layer0_0_MEMBER_1_MEMBER_2_MEMBER_0_FILL">
<path fill="#85463A" stroke="none" d="
M 19.7 268.35
L 19.7 270.55 49.6 270.55 49.6 268.35 19.7 268.35 Z"/>

<path fill="#FFFFFF" stroke="none" d="
M 36.3 220.2
Q 34.5 220.05 32.65 220.2 26.1 220.65 19.7 224.55
L 19.7 268.35 49.6 268.35 49.6 224.55
Q 42.9 220.65 36.3 220.2
M 47.8 226.15
L 47.8 235.8 47.8 235.85 35.7 235.85 35.7 235.8 35.7 222.2
Q 43.3 222.6 47.8 226.15
M 21.55 237.7
L 33.65 237.7 33.65 251 21.55 251 21.55 237.7
M 33.75 235.8
L 21.65 235.8 21.65 226.1
Q 25.45 222.8 33.75 222.15
L 33.75 235.8
M 21.55 252.8
L 33.65 252.8 33.65 266.15 21.55 266.15 21.55 252.8
M 35.65 266.15
L 35.65 252.8 47.7 252.8 47.7 266.15 35.65 266.15
M 35.65 237.7
L 47.7 237.7 47.7 251 35.65 251 35.65 237.7 Z"/>

<path fill="#533A39" stroke="none" d="
M 47.7 237.7
L 35.65 237.7 35.65 251 47.7 251 47.7 237.7
M 35.65 252.8
L 35.65 266.15 47.7 266.15 47.7 252.8 35.65 252.8
M 33.65 252.8
L 21.55 252.8 21.55 266.15 33.65 266.15 33.65 252.8
M 21.65 235.8
L 33.75 235.8 33.75 222.15
Q 25.45 222.8 21.65 226.1
L 21.65 235.8
M 33.65 237.7
L 21.55 237.7 21.55 251 33.65 251 33.65 237.7
M 47.8 235.8
L 47.8 226.15
Q 43.3 222.6 35.7 222.2
L 35.7 235.8 47.8 235.8 Z"/>
</g>

<g id="Layer0_0_MEMBER_1_MEMBER_2_MEMBER_1_FILL">
<path fill="#FFFFFF" stroke="none" d="
M 3.4 268.35
L 3.4 224.55
Q -3.3 220.65 -9.85 220.2 -11.7 220.05 -13.5 220.2 -20.05 220.65 -26.5 224.55
L -26.5 268.35 3.4 268.35
M 1.6 226.15
L 1.6 235.8 1.6 235.85 -10.5 235.85 -10.5 235.8 -10.5 222.2
Q -2.85 222.6 1.6 226.15
M 1.55 252.8
L 1.55 266.15 -10.5 266.15 -10.5 252.8 1.55 252.8
M 1.55 237.7
L 1.55 251 -10.5 251 -10.5 237.7 1.55 237.7
M -24.5 235.8
L -24.5 226.1
Q -20.75 222.8 -12.4 222.15
L -12.4 235.8 -24.5 235.8
M -24.6 237.7
L -12.5 237.7 -12.5 251 -24.6 251 -24.6 237.7
M -24.6 252.8
L -12.5 252.8 -12.5 266.15 -24.6 266.15 -24.6 252.8 Z"/>

<path fill="#533A39" stroke="none" d="
M -12.5 252.8
L -24.6 252.8 -24.6 266.15 -12.5 266.15 -12.5 252.8
M -12.5 237.7
L -24.6 237.7 -24.6 251 -12.5 251 -12.5 237.7
M -24.5 226.1
L -24.5 235.8 -12.4 235.8 -12.4 222.15
Q -20.75 222.8 -24.5 226.1
M 1.55 251
L 1.55 237.7 -10.5 237.7 -10.5 251 1.55 251
M 1.55 266.15
L 1.55 252.8 -10.5 252.8 -10.5 266.15 1.55 266.15
M 1.6 235.8
L 1.6 226.15
Q -2.85 222.6 -10.5 222.2
L -10.5 235.8 1.6 235.8 Z"/>

<path fill="#85463A" stroke="none" d="
M 3.4 270.55
L 3.4 268.35 -26.5 268.35 -26.5 270.55 3.4 270.55 Z"/>
</g>

<g id="Layer0_0_MEMBER_1_MEMBER_2_MEMBER_2_FILL">
<path fill="#85463A" stroke="none" d="
M -172.45 270.55
L -172.45 268.35 -202.35 268.35 -202.35 270.55 -172.45 270.55 Z"/>

<path fill="#FFFFFF" stroke="none" d="
M -185.7 220.2
Q -187.55 220.05 -189.35 220.2 -195.95 220.65 -202.35 224.55
L -202.35 268.35 -172.45 268.35 -172.45 224.55
Q -179.15 220.65 -185.7 220.2
M -186.35 235.85
L -186.35 235.8 -186.35 222.2
Q -178.7 222.6 -174.25 226.15
L -174.25 235.8 -174.25 235.85 -186.35 235.85
M -200.45 237.7
L -188.4 237.7 -188.4 251 -200.45 251 -200.45 237.7
M -188.3 235.8
L -200.35 235.8 -200.35 226.1
Q -196.6 222.8 -188.3 222.15
L -188.3 235.8
M -186.4 237.7
L -174.3 237.7 -174.3 251 -186.4 251 -186.4 237.7
M -174.3 252.8
L -174.3 266.15 -186.4 266.15 -186.4 252.8 -174.3 252.8
M -200.45 266.15
L -200.45 252.8 -188.4 252.8 -188.4 266.15 -200.45 266.15 Z"/>

<path fill="#533A39" stroke="none" d="
M -200.45 252.8
L -200.45 266.15 -188.4 266.15 -188.4 252.8 -200.45 252.8
M -174.3 266.15
L -174.3 252.8 -186.4 252.8 -186.4 266.15 -174.3 266.15
M -174.3 237.7
L -186.4 237.7 -186.4 251 -174.3 251 -174.3 237.7
M -200.35 235.8
L -188.3 235.8 -188.3 222.15
Q -196.6 222.8 -200.35 226.1
L -200.35 235.8
M -188.4 237.7
L -200.45 237.7 -200.45 251 -188.4 251 -188.4 237.7
M -174.25 235.8
L -174.25 226.15
Q -178.7 222.6 -186.35 222.2
L -186.35 235.8 -174.25 235.8 Z"/>
</g>

<g id="Layer0_0_MEMBER_1_MEMBER_2_MEMBER_3_FILL">
<path fill="#85463A" stroke="none" d="
M -217.9 270.55
L -217.9 268.35 -247.8 268.35 -247.8 270.55 -217.9 270.55 Z"/>

<path fill="#FFFFFF" stroke="none" d="
M -231.15 220.2
Q -233 220.05 -234.8 220.2 -241.4 220.65 -247.8 224.55
L -247.8 268.35 -217.9 268.35 -217.9 224.55
Q -224.6 220.65 -231.15 220.2
M -231.8 235.85
L -231.8 235.8 -231.8 222.2
Q -224.15 222.6 -219.7 226.15
L -219.7 235.8 -219.7 235.85 -231.8 235.85
M -231.8 237.7
L -219.75 237.7 -219.75 251 -231.8 251 -231.8 237.7
M -233.75 222.15
L -233.75 235.8 -245.8 235.8 -245.8 226.1
Q -242.05 222.8 -233.75 222.15
M -233.8 252.8
L -233.8 266.15 -245.9 266.15 -245.9 252.8 -233.8 252.8
M -231.8 252.8
L -219.75 252.8 -219.75 266.15 -231.8 266.15 -231.8 252.8
M -233.8 237.7
L -233.8 251 -245.9 251 -245.9 237.7 -233.8 237.7 Z"/>

<path fill="#533A39" stroke="none" d="
M -233.8 251
L -233.8 237.7 -245.9 237.7 -245.9 251 -233.8 251
M -219.75 252.8
L -231.8 252.8 -231.8 266.15 -219.75 266.15 -219.75 252.8
M -233.8 266.15
L -233.8 252.8 -245.9 252.8 -245.9 266.15 -233.8 266.15
M -233.75 235.8
L -233.75 222.15
Q -242.05 222.8 -245.8 226.1
L -245.8 235.8 -233.75 235.8
M -219.75 237.7
L -231.8 237.7 -231.8 251 -219.75 251 -219.75 237.7
M -219.7 235.8
L -219.7 226.15
Q -224.15 222.6 -231.8 222.2
L -231.8 235.8 -219.7 235.8 Z"/>
</g>

<g id="Layer0_0_MEMBER_2_FILL">
<path fill="#333333" stroke="none" d="
M -263.75 378.4
L -273 378.4
Q -276.3 378.4 -276.3 381.7
L -276.3 386.75 -274.45 386.75 -274.45 382.9
Q -274.45 380.2 -271.8 380.2
L -263.75 380.2 -263.75 378.4 Z"/>
</g>

<g id="Layer0_0_MEMBER_2_MEMBER_0_FILL">
<path fill="#FFFF00" stroke="none" d="
M -275.25 390.65
Q -274.4 390.65 -273.8 390.05 -273.4 389.7 -273.25 389.2
L -277.25 389.2
Q -277.1 389.7 -276.75 390.05 -276.1 390.65 -275.25 390.65 Z"/>

<path fill="#333333" stroke="none" d="
M -282.7 389.2
L -277.25 389.2 -273.25 389.2 -267.85 389.2 -275.3 383.75 -282.7 389.2 Z"/>
</g>

<g id="Layer0_0_MEMBER_3_FILL">
<path fill="#333333" stroke="none" d="
M 74.85 378.4
L 65.6 378.4 65.6 380.2 73.65 380.2
Q 76.35 380.2 76.35 382.9
L 76.35 386.75 78.15 386.75 78.15 381.7
Q 78.15 378.4 74.85 378.4 Z"/>
</g>

<g id="Layer0_0_MEMBER_3_MEMBER_0_FILL">
<path fill="#333333" stroke="none" d="
M 77.15 383.75
L 69.75 389.2 75.1 389.2 79.1 389.2 84.55 389.2 77.15 383.75 Z"/>

<path fill="#FFFF00" stroke="none" d="
M 75.1 389.2
Q 75.3 389.7 75.7 390.05 76.25 390.65 77.15 390.65 78 390.65 78.6 390.05 78.95 389.7 79.1 389.2
L 75.1 389.2 Z"/>
</g>

<g id="Layer0_0_MEMBER_4_FILL">
<path fill="#333333" stroke="none" d="
M -62.35 177.95
Q -62.5 178.1 -62.6 178.2 -61.5 177.9 -60.65 177.05 -59.35 175.75 -59.35 173.95 -59.35 172.15 -60.65 170.85 -60.85 170.65 -61.1 170.45 -60.45 171.7 -60.45 173.35 -60.45 176.05 -62.35 177.95
M -69.05 171.65
Q -69.8 170.85 -70.85 170.85 -72 170.85 -72.75 171.65 -73.45 172.35 -73.5 173.35 -73.5 173.4 -73.5 173.5
L -73.5 173.65 -75.5 175.65 -73.1 175.65
Q -72.65 176.9 -71.6 177.95 -70.2 179.4 -68.35 179.75
L -67.6 182.85 -67.25 179.85
Q -67.15 179.85 -66.95 179.85 -64.45 179.85 -62.6 178.2 -63.15 178.35 -63.75 178.35 -65.55 178.35 -66.85 177.05 -68.2 175.75 -68.3 174.1
L -68.3 173.95
Q -68.3 173.75 -68.3 173.5 -68.3 172.4 -69.05 171.65
M -71.85 172.8
Q -71.7 172.45 -71.5 172.45 -71.3 172.45 -71.2 172.8 -71.05 173.15 -71.05 173.65 -71.05 174.15 -71.2 174.5 -71.3 174.85 -71.5 174.85 -71.7 174.85 -71.85 174.5 -71.95 174.15 -71.95 173.65 -71.95 173.15 -71.85 172.8 Z"/>

<path fill="#FFFFFF" stroke="none" d="
M -71.5 172.45
Q -71.7 172.45 -71.85 172.8 -71.95 173.15 -71.95 173.65 -71.95 174.15 -71.85 174.5 -71.7 174.85 -71.5 174.85 -71.3 174.85 -71.2 174.5 -71.05 174.15 -71.05 173.65 -71.05 173.15 -71.2 172.8 -71.3 172.45 -71.5 172.45 Z"/>
</g>
</defs>

<g transform="matrix( 1, 0, 0, 1, 283.1,-169.95) ">
<use xlink:href="#Layer0_0_FILL"/>
</g>

<g transform="matrix( 1, 0, 0, 1, 283.1,-169.95) ">
<use xlink:href="#Layer0_0_MEMBER_0_FILL"/>
</g>

<g transform="matrix( 1, 0, 0, 1, 283.1,-169.95) ">
<use xlink:href="#Layer0_0_MEMBER_0_MEMBER_0_FILL"/>
</g>

<g transform="matrix( 1, 0, 0, 1, 283.1,-169.95) ">
<use xlink:href="#Layer0_0_MEMBER_0_MEMBER_1_FILL"/>
</g>

<g transform="matrix( 1, 0, 0, 1, 283.1,-169.95) ">
<use xlink:href="#Layer0_0_MEMBER_0_MEMBER_2_FILL"/>
</g>

<g transform="matrix( 1, 0, 0, 1, 283.1,-169.95) ">
<use xlink:href="#Layer0_0_MEMBER_0_MEMBER_3_FILL"/>
</g>

<g transform="matrix( 1, 0, 0, 1, 283.1,-169.95) ">
<use xlink:href="#Layer0_0_MEMBER_0_MEMBER_4_FILL"/>
</g>

<g transform="matrix( 1, 0, 0, 1, 283.1,-169.95) ">
<use xlink:href="#Layer0_0_MEMBER_0_MEMBER_5_FILL"/>
</g>

<g transform="matrix( 1, 0, 0, 1, 283.1,-169.95) ">
<use xlink:href="#Layer0_0_MEMBER_0_MEMBER_6_FILL"/>
</g>

<g transform="matrix( 1, 0, 0, 1, 283.1,-169.95) ">
<use xlink:href="#Layer0_0_MEMBER_0_MEMBER_7_FILL"/>
</g>

<g transform="matrix( 1, 0, 0, 1, 283.1,-169.95) ">
<use xlink:href="#Layer0_0_MEMBER_0_MEMBER_8_FILL"/>
</g>

<g transform="matrix( 1, 0, 0, 1, 283.1,-169.95) ">
<use xlink:href="#Layer0_0_MEMBER_1_MEMBER_0_MEMBER_0_FILL"/>
</g>

<g transform="matrix( 1, 0, 0, 1, 283.1,-169.95) ">
<use xlink:href="#Layer0_0_MEMBER_1_MEMBER_0_MEMBER_1_FILL"/>
</g>

<g transform="matrix( 1, 0, 0, 1, 283.1,-169.95) ">
<use xlink:href="#Layer0_0_MEMBER_1_MEMBER_0_MEMBER_2_FILL"/>
</g>

<g transform="matrix( 1, 0, 0, 1, 283.1,-169.95) ">
<use xlink:href="#Layer0_0_MEMBER_1_MEMBER_0_MEMBER_3_FILL"/>
</g>

<g transform="matrix( 1, 0, 0, 1, 283.1,-169.95) ">
<use xlink:href="#Layer0_0_MEMBER_1_MEMBER_1_MEMBER_0_FILL"/>
</g>

<g transform="matrix( 1, 0, 0, 1, 283.1,-169.95) ">
<use xlink:href="#Layer0_0_MEMBER_1_MEMBER_1_MEMBER_1_FILL"/>
</g>

<g transform="matrix( 1, 0, 0, 1, 283.1,-169.95) ">
<use xlink:href="#Layer0_0_MEMBER_1_MEMBER_1_MEMBER_2_FILL"/>
</g>

<g transform="matrix( 1, 0, 0, 1, 283.1,-169.95) ">
<use xlink:href="#Layer0_0_MEMBER_1_MEMBER_1_MEMBER_3_FILL"/>
</g>

<g transform="matrix( 1, 0, 0, 1, 283.1,-169.95) ">
<use xlink:href="#Layer0_0_MEMBER_1_MEMBER_2_MEMBER_0_FILL"/>
</g>

<g transform="matrix( 1, 0, 0, 1, 283.1,-169.95) ">
<use xlink:href="#Layer0_0_MEMBER_1_MEMBER_2_MEMBER_1_FILL"/>
</g>

<g transform="matrix( 1, 0, 0, 1, 283.1,-169.95) ">
<use xlink:href="#Layer0_0_MEMBER_1_MEMBER_2_MEMBER_2_FILL"/>
</g>

<g transform="matrix( 1, 0, 0, 1, 283.1,-169.95) ">
<use xlink:href="#Layer0_0_MEMBER_1_MEMBER_2_MEMBER_3_FILL"/>
</g>

<g transform="matrix( 1, 0, 0, 1, 283.1,-169.95) ">
<use xlink:href="#Layer0_0_MEMBER_2_FILL"/>
</g>

<g transform="matrix( 1, 0, 0, 1, 283.1,-169.95) ">
<use xlink:href="#Layer0_0_MEMBER_2_MEMBER_0_FILL"/>
</g>

<g transform="matrix( 1, 0, 0, 1, 283.1,-169.95) ">
<use xlink:href="#Layer0_0_MEMBER_3_FILL"/>
</g>

<g transform="matrix( 1, 0, 0, 1, 283.1,-169.95) ">
<use xlink:href="#Layer0_0_MEMBER_3_MEMBER_0_FILL"/>
</g>

<g transform="matrix( 1, 0, 0, 1, 283.1,-169.95) ">
<use xlink:href="#Layer0_0_MEMBER_4_FILL"/>
</g>
</svg>
