
<svg xmlns="http://www.w3.org/2000/svg" version="1.1" xmlns:xlink="http://www.w3.org/1999/xlink" preserveAspectRatio="none" x="0px" y="0px" width="368px" height="292px" viewBox="0 0 368 292">
<defs>
<g id="Layer1_0_FILL">
<path fill="#7A503F" stroke="none" d="
M 128.2 92.75
L 134.45 92.75 134.45 92.7 128.2 92.7 128.2 92.75
M 233.6 92.75
L 239.85 92.75 239.85 92.7 233.6 92.7 233.6 92.75
M 220.85 281.1
L 213.55 281.1 213.55 286.55 207.6 286.55 207.6 292 220.85 292 220.85 281.1
M 128.3 292
L 128.3 270.3 19.45 270.3 19.45 281.1 12.15 281.1 12.15 286.55 6.15 286.55 6.15 292 128.3 292
M 147.25 281.1
L 147.25 292 160.55 292 160.55 286.55 154.55 286.55 154.55 281.1 147.25 281.1
M 239.85 195.4
L 239.85 186.7 128.2 186.7 128.2 195.4 239.85 195.4
M 239.85 12.9
L 239.75 12.9 128.2 12.9 128.2 15.7 134.45 15.7 233.6 15.7 239.75 15.7 239.85 15.7 239.85 12.9
M 348.7 281.1
L 348.7 270.3 239.75 270.3 239.75 292 361.45 292 361.45 286.55 355.45 286.55 355.45 281.1 348.7 281.1 Z"/>

<path fill="#CCCCCC" stroke="none" d="
M 233.6 92.75
L 233.6 92.7 233.6 19.1 134.45 19.1 134.45 92.7 134.45 92.75 134.45 145.75
Q 185.95 121.55 233.6 145.75
L 233.6 92.75 Z"/>

<path fill="#999999" stroke="none" d="
M 233.6 19.1
L 233.6 15.7 134.45 15.7 134.45 19.1 233.6 19.1 Z"/>

<path fill="#B18F7E" stroke="none" d="
M 348.7 195.4
L 348.7 26.85 239.85 26.85 239.85 92.7 239.85 92.75 239.85 186.7 239.85 195.4 348.7 195.4
M 142.2 242.7
Q 144.2 229.45 154.15 219.55 166.5 207.2 184.05 207.2 201.5 207.2 213.85 219.55 225.75 231.45 226.3 248
L 226.3 285.3 226.35 285.3 226.35 292 239.75 292 239.75 270.3 239.75 198.65 128.3 198.65 128.3 270.3 128.3 292 141.75 292 141.75 248 141.8 248
Q 141.85 245.25 142.2 242.7
M 128.2 92.75
L 128.2 92.7 128.2 26.85 19.35 26.85 19.35 195.4 128.2 195.4 128.2 186.7 128.2 92.75 Z"/>

<path fill="#A96A5E" stroke="none" d="
M 128.3 270.3
L 128.3 198.65 19.35 198.65 19.35 201.3 19.45 201.3 19.45 270.3 128.3 270.3
M 348.7 270.3
L 348.7 198.65 239.75 198.65 239.75 270.3 348.7 270.3 Z"/>

<path fill="#D1C6B6" stroke="none" d="
M 154.15 219.55
Q 144.2 229.45 142.2 242.7 141.85 245.25 141.8 248
L 141.75 248 141.75 292 147.25 292 147.25 281.1 147.25 248.6
Q 147.35 246.2 147.6 244 149.35 232.45 158 223.85 168.8 213.05 184.05 213.05 199.25 213.05 210.05 223.85 220.4 234.15 220.85 248.6
L 220.85 281.1 220.85 292 226.35 292 226.35 285.3 226.3 285.3 226.3 248
Q 225.75 231.45 213.85 219.55 201.5 207.2 184.05 207.2 166.5 207.2 154.15 219.55
M 128.2 12.9
L 128.2 7.15 116 7.15 116 17 104.05 17 104.05 7.15 91.85 7.15 91.85 17 79.9 17 79.9 7.15 67.7 7.15 67.7 17 55.75 17 55.75 7.15 43.5 7.15 43.5 17 31.6 17 31.6 7.15 19.35 7.15 19.35 26.85 128.2 26.85 128.2 15.7 128.2 12.9
M 348.7 198.65
L 348.7 195.4 239.85 195.4 128.2 195.4 19.35 195.4 19.35 198.65 128.3 198.65 239.75 198.65 348.7 198.65
M 348.7 26.85
L 348.7 17 348.6 17 348.6 7.15 336.35 7.15 336.35 17 324.45 17 324.45 7.15 312.2 7.15 312.2 17 300.3 17 300.3 7.15 288.05 7.15 288.05 17 276.15 17 276.15 7.15 263.9 7.15 263.9 17 252 17 252 7.15 239.75 7.15 239.75 12.9 239.85 12.9 239.85 15.7 239.75 15.7 239.75 17 239.85 17 239.85 26.85 348.7 26.85 Z"/>
</g>

<g id="Layer1_0_MEMBER_0_FILL">
<path fill="#A96A5E" stroke="none" d="
M 239.85 186.7
L 239.85 178.15 128.2 178.15 128.2 186.7 239.85 186.7 Z"/>
</g>

<g id="Layer1_0_MEMBER_0_MEMBER_0_FILL">
<path fill="#B18F7E" stroke="none" d="
M 138.35 178.15
L 138.35 163.3 135.75 163.3 135.75 178.15 138.35 178.15 Z"/>
</g>

<g id="Layer1_0_MEMBER_0_MEMBER_1_FILL">
<path fill="#B18F7E" stroke="none" d="
M 151.8 178.15
L 151.8 163.3 149.15 163.3 149.15 178.15 151.8 178.15 Z"/>
</g>

<g id="Layer1_0_MEMBER_0_MEMBER_2_FILL">
<path fill="#B18F7E" stroke="none" d="
M 165.25 178.15
L 165.25 163.3 162.6 163.3 162.6 178.15 165.25 178.15 Z"/>
</g>

<g id="Layer1_0_MEMBER_0_MEMBER_3_FILL">
<path fill="#B18F7E" stroke="none" d="
M 178.7 178.15
L 178.7 163.3 176.05 163.3 176.05 178.15 178.7 178.15 Z"/>
</g>

<g id="Layer1_0_MEMBER_0_MEMBER_4_FILL">
<path fill="#B18F7E" stroke="none" d="
M 192.1 178.15
L 192.1 163.3 189.5 163.3 189.5 178.15 192.1 178.15 Z"/>
</g>

<g id="Layer1_0_MEMBER_0_MEMBER_5_FILL">
<path fill="#B18F7E" stroke="none" d="
M 205.55 178.15
L 205.55 163.3 202.95 163.3 202.95 178.15 205.55 178.15 Z"/>
</g>

<g id="Layer1_0_MEMBER_0_MEMBER_6_FILL">
<path fill="#B18F7E" stroke="none" d="
M 219 178.15
L 219 163.3 216.35 163.3 216.35 178.15 219 178.15 Z"/>
</g>

<g id="Layer1_0_MEMBER_0_MEMBER_7_FILL">
<path fill="#B18F7E" stroke="none" d="
M 232.55 178.15
L 232.55 163.3 229.9 163.3 229.9 178.15 232.55 178.15 Z"/>
</g>

<g id="Layer1_0_MEMBER_0_MEMBER_8_FILL">
<path fill="#B18F7E" stroke="none" d="
M 241.95 163.3
L 241.95 160.7 128.2 160.7 128.2 163.3 241.95 163.3 Z"/>
</g>

<g id="Layer1_0_MEMBER_1_MEMBER_0_MEMBER_0_FILL">
<path fill="#FFFFFF" stroke="none" d="
M 332.7 257.4
L 332.7 213.6
Q 326 209.7 319.4 209.25 317.6 209.1 315.75 209.25 309.2 209.7 302.8 213.6
L 302.8 257.4 332.7 257.4
M 330.8 226.75
L 330.8 240.05 318.75 240.05 318.75 226.75 330.8 226.75
M 330.9 215.2
L 330.9 224.85 330.9 224.9 318.8 224.9 318.8 224.85 318.8 211.25
Q 326.4 211.65 330.9 215.2
M 330.8 241.9
L 330.8 255.2 318.75 255.2 318.75 241.9 330.8 241.9
M 304.75 215.15
Q 308.55 211.9 316.85 211.2
L 316.85 224.85 304.75 224.85 304.75 215.15
M 304.65 241.9
L 316.75 241.9 316.75 255.2 304.65 255.2 304.65 241.9
M 304.65 240.05
L 304.65 226.75 316.75 226.75 316.75 240.05 304.65 240.05 Z"/>

<path fill="#533A39" stroke="none" d="
M 304.65 226.75
L 304.65 240.05 316.75 240.05 316.75 226.75 304.65 226.75
M 316.75 241.9
L 304.65 241.9 304.65 255.2 316.75 255.2 316.75 241.9
M 316.85 211.2
Q 308.55 211.9 304.75 215.15
L 304.75 224.85 316.85 224.85 316.85 211.2
M 330.8 255.2
L 330.8 241.9 318.75 241.9 318.75 255.2 330.8 255.2
M 330.9 224.85
L 330.9 215.2
Q 326.4 211.65 318.8 211.25
L 318.8 224.85 330.9 224.85
M 330.8 240.05
L 330.8 226.75 318.75 226.75 318.75 240.05 330.8 240.05 Z"/>

<path fill="#85463A" stroke="none" d="
M 332.7 259.6
L 332.7 257.4 302.8 257.4 302.8 259.6 332.7 259.6 Z"/>
</g>

<g id="Layer1_0_MEMBER_1_MEMBER_0_MEMBER_1_FILL">
<path fill="#85463A" stroke="none" d="
M 256.6 257.4
L 256.6 259.6 286.5 259.6 286.5 257.4 256.6 257.4 Z"/>

<path fill="#FFFFFF" stroke="none" d="
M 273.25 209.25
Q 271.4 209.1 269.6 209.25 263.05 209.7 256.6 213.6
L 256.6 257.4 286.5 257.4 286.5 213.6
Q 279.8 209.7 273.25 209.25
M 284.65 226.75
L 284.65 240.05 272.6 240.05 272.6 226.75 284.65 226.75
M 284.7 215.2
L 284.7 224.85 284.7 224.9 272.6 224.9 272.6 224.85 272.6 211.25
Q 280.25 211.65 284.7 215.2
M 258.5 240.05
L 258.5 226.75 270.6 226.75 270.6 240.05 258.5 240.05
M 258.5 241.9
L 270.6 241.9 270.6 255.2 258.5 255.2 258.5 241.9
M 258.6 224.85
L 258.6 215.15
Q 262.35 211.9 270.7 211.2
L 270.7 224.85 258.6 224.85
M 272.6 241.9
L 284.65 241.9 284.65 255.2 272.6 255.2 272.6 241.9 Z"/>

<path fill="#533A39" stroke="none" d="
M 284.65 241.9
L 272.6 241.9 272.6 255.2 284.65 255.2 284.65 241.9
M 258.6 215.15
L 258.6 224.85 270.7 224.85 270.7 211.2
Q 262.35 211.9 258.6 215.15
M 270.6 241.9
L 258.5 241.9 258.5 255.2 270.6 255.2 270.6 241.9
M 258.5 226.75
L 258.5 240.05 270.6 240.05 270.6 226.75 258.5 226.75
M 284.7 224.85
L 284.7 215.2
Q 280.25 211.65 272.6 211.25
L 272.6 224.85 284.7 224.85
M 284.65 240.05
L 284.65 226.75 272.6 226.75 272.6 240.05 284.65 240.05 Z"/>
</g>

<g id="Layer1_0_MEMBER_1_MEMBER_0_MEMBER_2_FILL">
<path fill="#85463A" stroke="none" d="
M 110.65 259.6
L 110.65 257.4 80.75 257.4 80.75 259.6 110.65 259.6 Z"/>

<path fill="#FFFFFF" stroke="none" d="
M 97.4 209.25
Q 95.55 209.1 93.75 209.25 87.15 209.7 80.75 213.6
L 80.75 257.4 110.65 257.4 110.65 213.6
Q 103.95 209.7 97.4 209.25
M 82.75 215.15
Q 86.5 211.9 94.8 211.2
L 94.8 224.85 82.75 224.85 82.75 215.15
M 96.7 240.05
L 96.7 226.75 108.8 226.75 108.8 240.05 96.7 240.05
M 96.75 224.9
L 96.75 224.85 96.75 211.25
Q 104.4 211.65 108.85 215.2
L 108.85 224.85 108.85 224.9 96.75 224.9
M 82.65 241.9
L 94.7 241.9 94.7 255.2 82.65 255.2 82.65 241.9
M 82.65 240.05
L 82.65 226.75 94.7 226.75 94.7 240.05 82.65 240.05
M 96.7 241.9
L 108.8 241.9 108.8 255.2 96.7 255.2 96.7 241.9 Z"/>

<path fill="#533A39" stroke="none" d="
M 108.8 241.9
L 96.7 241.9 96.7 255.2 108.8 255.2 108.8 241.9
M 82.65 226.75
L 82.65 240.05 94.7 240.05 94.7 226.75 82.65 226.75
M 94.7 241.9
L 82.65 241.9 82.65 255.2 94.7 255.2 94.7 241.9
M 108.85 215.2
Q 104.4 211.65 96.75 211.25
L 96.75 224.85 108.85 224.85 108.85 215.2
M 96.7 226.75
L 96.7 240.05 108.8 240.05 108.8 226.75 96.7 226.75
M 94.8 211.2
Q 86.5 211.9 82.75 215.15
L 82.75 224.85 94.8 224.85 94.8 211.2 Z"/>
</g>

<g id="Layer1_0_MEMBER_1_MEMBER_0_MEMBER_3_FILL">
<path fill="#85463A" stroke="none" d="
M 35.3 257.4
L 35.3 259.6 65.2 259.6 65.2 257.4 35.3 257.4 Z"/>

<path fill="#FFFFFF" stroke="none" d="
M 51.95 209.25
Q 50.1 209.1 48.3 209.25 41.7 209.7 35.3 213.6
L 35.3 257.4 65.2 257.4 65.2 213.6
Q 58.5 209.7 51.95 209.25
M 51.3 224.9
L 51.3 224.85 51.3 211.25
Q 58.95 211.65 63.4 215.2
L 63.4 224.85 63.4 224.9 51.3 224.9
M 49.3 226.75
L 49.3 240.05 37.2 240.05 37.2 226.75 49.3 226.75
M 51.3 240.05
L 51.3 226.75 63.35 226.75 63.35 240.05 51.3 240.05
M 51.3 241.9
L 63.35 241.9 63.35 255.2 51.3 255.2 51.3 241.9
M 49.35 211.2
L 49.35 224.85 37.3 224.85 37.3 215.15
Q 41.05 211.9 49.35 211.2
M 37.2 241.9
L 49.3 241.9 49.3 255.2 37.2 255.2 37.2 241.9 Z"/>

<path fill="#533A39" stroke="none" d="
M 49.3 241.9
L 37.2 241.9 37.2 255.2 49.3 255.2 49.3 241.9
M 49.35 224.85
L 49.35 211.2
Q 41.05 211.9 37.3 215.15
L 37.3 224.85 49.35 224.85
M 63.35 241.9
L 51.3 241.9 51.3 255.2 63.35 255.2 63.35 241.9
M 51.3 226.75
L 51.3 240.05 63.35 240.05 63.35 226.75 51.3 226.75
M 49.3 240.05
L 49.3 226.75 37.2 226.75 37.2 240.05 49.3 240.05
M 63.4 215.2
Q 58.95 211.65 51.3 211.25
L 51.3 224.85 63.4 224.85 63.4 215.2 Z"/>
</g>

<g id="Layer1_0_MEMBER_1_MEMBER_1_MEMBER_0_FILL">
<path fill="#FFFFFF" stroke="none" d="
M 332.7 177.85
L 332.7 134.05
Q 326 130.2 319.4 129.75 317.6 129.6 315.75 129.75 309.2 130.2 302.8 134.05
L 302.8 177.85 332.7 177.85
M 330.9 135.7
L 330.9 145.35 318.8 145.35 318.8 131.75
Q 326.4 132.15 330.9 135.7
M 330.8 162.35
L 330.8 175.65 318.75 175.65 318.75 162.35 330.8 162.35
M 330.8 147.25
L 330.8 160.55 318.75 160.55 318.75 147.25 330.8 147.25
M 304.65 147.25
L 316.75 147.25 316.75 160.55 304.65 160.55 304.65 147.25
M 304.75 145.35
L 304.75 135.65
Q 308.55 132.35 316.85 131.7
L 316.85 145.35 304.75 145.35
M 304.65 162.35
L 316.75 162.35 316.75 175.65 304.65 175.65 304.65 162.35 Z"/>

<path fill="#533A39" stroke="none" d="
M 316.75 162.35
L 304.65 162.35 304.65 175.65 316.75 175.65 316.75 162.35
M 304.75 135.65
L 304.75 145.35 316.85 145.35 316.85 131.7
Q 308.55 132.35 304.75 135.65
M 316.75 147.25
L 304.65 147.25 304.65 160.55 316.75 160.55 316.75 147.25
M 330.8 160.55
L 330.8 147.25 318.75 147.25 318.75 160.55 330.8 160.55
M 330.8 175.65
L 330.8 162.35 318.75 162.35 318.75 175.65 330.8 175.65
M 330.9 145.35
L 330.9 135.7
Q 326.4 132.15 318.8 131.75
L 318.8 145.35 330.9 145.35 Z"/>

<path fill="#85463A" stroke="none" d="
M 332.7 180.05
L 332.7 177.85 302.8 177.85 302.8 180.05 332.7 180.05 Z"/>
</g>

<g id="Layer1_0_MEMBER_1_MEMBER_1_MEMBER_1_FILL">
<path fill="#85463A" stroke="none" d="
M 256.6 177.85
L 256.6 180.05 286.5 180.05 286.5 177.85 256.6 177.85 Z"/>

<path fill="#FFFFFF" stroke="none" d="
M 269.6 129.75
Q 263.05 130.2 256.6 134.05
L 256.6 177.85 286.5 177.85 286.5 134.05
Q 279.8 130.2 273.25 129.75 271.4 129.6 269.6 129.75
M 284.7 135.7
L 284.7 145.35 272.6 145.35 272.6 131.75
Q 280.25 132.15 284.7 135.7
M 270.7 145.35
L 258.6 145.35 258.6 135.65
Q 262.35 132.35 270.7 131.7
L 270.7 145.35
M 258.5 147.25
L 270.6 147.25 270.6 160.55 258.5 160.55 258.5 147.25
M 258.5 162.35
L 270.6 162.35 270.6 175.65 258.5 175.65 258.5 162.35
M 272.6 175.65
L 272.6 162.35 284.65 162.35 284.65 175.65 272.6 175.65
M 272.6 147.25
L 284.65 147.25 284.65 160.55 272.6 160.55 272.6 147.25 Z"/>

<path fill="#533A39" stroke="none" d="
M 284.65 147.25
L 272.6 147.25 272.6 160.55 284.65 160.55 284.65 147.25
M 272.6 162.35
L 272.6 175.65 284.65 175.65 284.65 162.35 272.6 162.35
M 270.6 162.35
L 258.5 162.35 258.5 175.65 270.6 175.65 270.6 162.35
M 270.6 147.25
L 258.5 147.25 258.5 160.55 270.6 160.55 270.6 147.25
M 258.6 145.35
L 270.7 145.35 270.7 131.7
Q 262.35 132.35 258.6 135.65
L 258.6 145.35
M 284.7 145.35
L 284.7 135.7
Q 280.25 132.15 272.6 131.75
L 272.6 145.35 284.7 145.35 Z"/>
</g>

<g id="Layer1_0_MEMBER_1_MEMBER_1_MEMBER_2_FILL">
<path fill="#FFFFFF" stroke="none" d="
M 80.75 134.05
L 80.75 177.85 110.65 177.85 110.65 134.05
Q 103.95 130.2 97.4 129.75 95.55 129.6 93.75 129.75 87.15 130.2 80.75 134.05
M 82.65 147.25
L 94.7 147.25 94.7 160.55 82.65 160.55 82.65 147.25
M 82.75 145.35
L 82.75 135.65
Q 86.5 132.35 94.8 131.7
L 94.8 145.35 82.75 145.35
M 96.75 145.35
L 96.75 131.75
Q 104.4 132.15 108.85 135.7
L 108.85 145.35 96.75 145.35
M 96.7 147.25
L 108.8 147.25 108.8 160.55 96.7 160.55 96.7 147.25
M 82.65 162.35
L 94.7 162.35 94.7 175.65 82.65 175.65 82.65 162.35
M 108.8 162.35
L 108.8 175.65 96.7 175.65 96.7 162.35 108.8 162.35 Z"/>

<path fill="#533A39" stroke="none" d="
M 108.8 175.65
L 108.8 162.35 96.7 162.35 96.7 175.65 108.8 175.65
M 94.7 162.35
L 82.65 162.35 82.65 175.65 94.7 175.65 94.7 162.35
M 108.8 147.25
L 96.7 147.25 96.7 160.55 108.8 160.55 108.8 147.25
M 96.75 131.75
L 96.75 145.35 108.85 145.35 108.85 135.7
Q 104.4 132.15 96.75 131.75
M 82.75 135.65
L 82.75 145.35 94.8 145.35 94.8 131.7
Q 86.5 132.35 82.75 135.65
M 94.7 147.25
L 82.65 147.25 82.65 160.55 94.7 160.55 94.7 147.25 Z"/>

<path fill="#85463A" stroke="none" d="
M 80.75 177.85
L 80.75 180.05 110.65 180.05 110.65 177.85 80.75 177.85 Z"/>
</g>

<g id="Layer1_0_MEMBER_1_MEMBER_1_MEMBER_3_FILL">
<path fill="#85463A" stroke="none" d="
M 35.3 177.85
L 35.3 180.05 65.2 180.05 65.2 177.85 35.3 177.85 Z"/>

<path fill="#FFFFFF" stroke="none" d="
M 65.2 134.05
Q 58.5 130.2 51.95 129.75 50.1 129.6 48.3 129.75 41.7 130.2 35.3 134.05
L 35.3 177.85 65.2 177.85 65.2 134.05
M 63.4 145.35
L 51.3 145.35 51.3 131.75
Q 58.95 132.15 63.4 135.7
L 63.4 145.35
M 51.3 147.25
L 63.35 147.25 63.35 160.55 51.3 160.55 51.3 147.25
M 49.35 131.7
L 49.35 145.35 37.3 145.35 37.3 135.65
Q 41.05 132.35 49.35 131.7
M 37.2 175.65
L 37.2 162.35 49.3 162.35 49.3 175.65 37.2 175.65
M 51.3 162.35
L 63.35 162.35 63.35 175.65 51.3 175.65 51.3 162.35
M 37.2 147.25
L 49.3 147.25 49.3 160.55 37.2 160.55 37.2 147.25 Z"/>

<path fill="#533A39" stroke="none" d="
M 49.3 147.25
L 37.2 147.25 37.2 160.55 49.3 160.55 49.3 147.25
M 63.35 162.35
L 51.3 162.35 51.3 175.65 63.35 175.65 63.35 162.35
M 37.2 162.35
L 37.2 175.65 49.3 175.65 49.3 162.35 37.2 162.35
M 49.35 145.35
L 49.35 131.7
Q 41.05 132.35 37.3 135.65
L 37.3 145.35 49.35 145.35
M 63.35 147.25
L 51.3 147.25 51.3 160.55 63.35 160.55 63.35 147.25
M 51.3 145.35
L 63.4 145.35 63.4 135.7
Q 58.95 132.15 51.3 131.75
L 51.3 145.35 Z"/>
</g>

<g id="Layer1_0_MEMBER_1_MEMBER_2_MEMBER_0_FILL">
<path fill="#85463A" stroke="none" d="
M 332.7 100.6
L 332.7 98.4 302.8 98.4 302.8 100.6 332.7 100.6 Z"/>

<path fill="#FFFFFF" stroke="none" d="
M 332.7 98.4
L 332.7 54.6
Q 326 50.7 319.4 50.25 317.6 50.1 315.75 50.25 309.2 50.7 302.8 54.6
L 302.8 98.4 332.7 98.4
M 330.8 67.75
L 330.8 81.05 318.75 81.05 318.75 67.75 330.8 67.75
M 330.8 82.85
L 330.8 96.2 318.75 96.2 318.75 82.85 330.8 82.85
M 330.9 56.2
L 330.9 65.85 330.9 65.9 318.8 65.9 318.8 65.85 318.8 52.25
Q 326.4 52.65 330.9 56.2
M 304.65 67.75
L 316.75 67.75 316.75 81.05 304.65 81.05 304.65 67.75
M 316.85 65.85
L 304.75 65.85 304.75 56.15
Q 308.55 52.85 316.85 52.2
L 316.85 65.85
M 304.65 96.2
L 304.65 82.85 316.75 82.85 316.75 96.2 304.65 96.2 Z"/>

<path fill="#533A39" stroke="none" d="
M 304.65 82.85
L 304.65 96.2 316.75 96.2 316.75 82.85 304.65 82.85
M 304.75 65.85
L 316.85 65.85 316.85 52.2
Q 308.55 52.85 304.75 56.15
L 304.75 65.85
M 316.75 67.75
L 304.65 67.75 304.65 81.05 316.75 81.05 316.75 67.75
M 330.9 65.85
L 330.9 56.2
Q 326.4 52.65 318.8 52.25
L 318.8 65.85 330.9 65.85
M 330.8 96.2
L 330.8 82.85 318.75 82.85 318.75 96.2 330.8 96.2
M 330.8 81.05
L 330.8 67.75 318.75 67.75 318.75 81.05 330.8 81.05 Z"/>
</g>

<g id="Layer1_0_MEMBER_1_MEMBER_2_MEMBER_1_FILL">
<path fill="#85463A" stroke="none" d="
M 286.5 98.4
L 256.6 98.4 256.6 100.6 286.5 100.6 286.5 98.4 Z"/>

<path fill="#FFFFFF" stroke="none" d="
M 273.25 50.25
Q 271.4 50.1 269.6 50.25 263.05 50.7 256.6 54.6
L 256.6 98.4 286.5 98.4 286.5 54.6
Q 279.8 50.7 273.25 50.25
M 272.6 65.9
L 272.6 65.85 272.6 52.25
Q 280.25 52.65 284.7 56.2
L 284.7 65.85 284.7 65.9 272.6 65.9
M 270.7 52.2
L 270.7 65.85 258.6 65.85 258.6 56.15
Q 262.35 52.85 270.7 52.2
M 258.5 96.2
L 258.5 82.85 270.6 82.85 270.6 96.2 258.5 96.2
M 272.6 96.2
L 272.6 82.85 284.65 82.85 284.65 96.2 272.6 96.2
M 270.6 81.05
L 258.5 81.05 258.5 67.75 270.6 67.75 270.6 81.05
M 272.6 81.05
L 272.6 67.75 284.65 67.75 284.65 81.05 272.6 81.05 Z"/>

<path fill="#533A39" stroke="none" d="
M 272.6 67.75
L 272.6 81.05 284.65 81.05 284.65 67.75 272.6 67.75
M 258.5 81.05
L 270.6 81.05 270.6 67.75 258.5 67.75 258.5 81.05
M 272.6 82.85
L 272.6 96.2 284.65 96.2 284.65 82.85 272.6 82.85
M 258.5 82.85
L 258.5 96.2 270.6 96.2 270.6 82.85 258.5 82.85
M 270.7 65.85
L 270.7 52.2
Q 262.35 52.85 258.6 56.15
L 258.6 65.85 270.7 65.85
M 272.6 52.25
L 272.6 65.85 284.7 65.85 284.7 56.2
Q 280.25 52.65 272.6 52.25 Z"/>
</g>

<g id="Layer1_0_MEMBER_1_MEMBER_2_MEMBER_2_FILL">
<path fill="#85463A" stroke="none" d="
M 80.75 100.6
L 110.65 100.6 110.65 98.4 80.75 98.4 80.75 100.6 Z"/>

<path fill="#FFFFFF" stroke="none" d="
M 97.4 50.25
Q 95.55 50.1 93.75 50.25 87.15 50.7 80.75 54.6
L 80.75 98.4 110.65 98.4 110.65 54.6
Q 103.95 50.7 97.4 50.25
M 108.85 56.2
L 108.85 65.85 108.85 65.9 96.75 65.9 96.75 65.85 96.75 52.25
Q 104.4 52.65 108.85 56.2
M 94.8 52.2
L 94.8 65.85 82.75 65.85 82.75 56.15
Q 86.5 52.85 94.8 52.2
M 82.65 67.75
L 94.7 67.75 94.7 81.05 82.65 81.05 82.65 67.75
M 96.7 96.2
L 96.7 82.85 108.8 82.85 108.8 96.2 96.7 96.2
M 82.65 82.85
L 94.7 82.85 94.7 96.2 82.65 96.2 82.65 82.85
M 108.8 81.05
L 96.7 81.05 96.7 67.75 108.8 67.75 108.8 81.05 Z"/>

<path fill="#533A39" stroke="none" d="
M 96.7 81.05
L 108.8 81.05 108.8 67.75 96.7 67.75 96.7 81.05
M 94.7 82.85
L 82.65 82.85 82.65 96.2 94.7 96.2 94.7 82.85
M 96.7 82.85
L 96.7 96.2 108.8 96.2 108.8 82.85 96.7 82.85
M 94.7 67.75
L 82.65 67.75 82.65 81.05 94.7 81.05 94.7 67.75
M 94.8 65.85
L 94.8 52.2
Q 86.5 52.85 82.75 56.15
L 82.75 65.85 94.8 65.85
M 108.85 65.85
L 108.85 56.2
Q 104.4 52.65 96.75 52.25
L 96.75 65.85 108.85 65.85 Z"/>
</g>

<g id="Layer1_0_MEMBER_1_MEMBER_2_MEMBER_3_FILL">
<path fill="#85463A" stroke="none" d="
M 65.2 98.4
L 35.3 98.4 35.3 100.6 65.2 100.6 65.2 98.4 Z"/>

<path fill="#FFFFFF" stroke="none" d="
M 35.3 54.6
L 35.3 98.4 65.2 98.4 65.2 54.6
Q 58.5 50.7 51.95 50.25 50.1 50.1 48.3 50.25 41.7 50.7 35.3 54.6
M 37.2 81.05
L 37.2 67.75 49.3 67.75 49.3 81.05 37.2 81.05
M 37.2 96.2
L 37.2 82.85 49.3 82.85 49.3 96.2 37.2 96.2
M 37.3 65.85
L 37.3 56.15
Q 41.05 52.85 49.35 52.2
L 49.35 65.85 37.3 65.85
M 63.4 65.85
L 63.4 65.9 51.3 65.9 51.3 65.85 51.3 52.25
Q 58.95 52.65 63.4 56.2
L 63.4 65.85
M 51.3 96.2
L 51.3 82.85 63.35 82.85 63.35 96.2 51.3 96.2
M 63.35 81.05
L 51.3 81.05 51.3 67.75 63.35 67.75 63.35 81.05 Z"/>

<path fill="#533A39" stroke="none" d="
M 51.3 81.05
L 63.35 81.05 63.35 67.75 51.3 67.75 51.3 81.05
M 51.3 82.85
L 51.3 96.2 63.35 96.2 63.35 82.85 51.3 82.85
M 63.4 65.85
L 63.4 56.2
Q 58.95 52.65 51.3 52.25
L 51.3 65.85 63.4 65.85
M 37.3 56.15
L 37.3 65.85 49.35 65.85 49.35 52.2
Q 41.05 52.85 37.3 56.15
M 37.2 82.85
L 37.2 96.2 49.3 96.2 49.3 82.85 37.2 82.85
M 37.2 67.75
L 37.2 81.05 49.3 81.05 49.3 67.75 37.2 67.75 Z"/>
</g>

<g id="Layer1_0_MEMBER_2_FILL">
<path fill="#333333" stroke="none" d="
M 19.35 208.45
L 10.1 208.45
Q 6.8 208.45 6.8 211.75
L 6.8 216.8 8.65 216.8 8.65 212.95
Q 8.65 210.25 11.3 210.25
L 19.35 210.25 19.35 208.45 Z"/>
</g>

<g id="Layer1_0_MEMBER_2_MEMBER_0_FILL">
<path fill="#333333" stroke="none" d="
M 5.85 219.25
L 9.85 219.25 15.25 219.25 7.8 213.8 0.4 219.25 5.85 219.25 Z"/>

<path fill="#FFFF00" stroke="none" d="
M 9.3 220.1
Q 9.7 219.75 9.85 219.25
L 5.85 219.25
Q 6 219.75 6.35 220.1 7 220.7 7.85 220.7 8.7 220.7 9.3 220.1 Z"/>
</g>

<g id="Layer1_0_MEMBER_3_FILL">
<path fill="#333333" stroke="none" d="
M 357.95 208.45
L 348.7 208.45 348.7 210.25 356.75 210.25
Q 359.45 210.25 359.45 212.95
L 359.45 216.8 361.25 216.8 361.25 211.75
Q 361.25 208.45 357.95 208.45 Z"/>
</g>

<g id="Layer1_0_MEMBER_3_MEMBER_0_FILL">
<path fill="#333333" stroke="none" d="
M 360.25 213.8
L 352.85 219.25 358.2 219.25 362.2 219.25 367.65 219.25 360.25 213.8 Z"/>

<path fill="#FFFF00" stroke="none" d="
M 358.2 219.25
Q 358.4 219.75 358.8 220.1 359.35 220.7 360.25 220.7 361.1 220.7 361.7 220.1 362.05 219.75 362.2 219.25
L 358.2 219.25 Z"/>
</g>

<g id="Layer1_0_MEMBER_4_FILL">
<path fill="#333333" stroke="none" d="
M 214.8 4
Q 214.8 3.8 214.8 3.55 214.8 2.45 214.05 1.7 213.3 0.9 212.25 0.9 211.1 0.9 210.35 1.7 209.65 2.4 209.6 3.4 209.6 3.45 209.6 3.55
L 209.6 3.7 207.6 5.7 210 5.7
Q 210.45 6.95 211.5 8 212.9 9.45 214.75 9.8
L 215.5 12.9 215.85 9.9
Q 215.95 9.9 216.15 9.9 218.65 9.9 220.5 8.25 219.95 8.4 219.35 8.4 217.55 8.4 216.25 7.1 214.9 5.8 214.8 4.15
L 214.8 4
M 211.25 2.85
Q 211.4 2.5 211.6 2.5 211.8 2.5 211.9 2.85 212.05 3.2 212.05 3.7 212.05 4.2 211.9 4.55 211.8 4.9 211.6 4.9 211.4 4.9 211.25 4.55 211.15 4.2 211.15 3.7 211.15 3.2 211.25 2.85
M 222.45 0.9
Q 222.25 0.7 222 0.5 222.65 1.75 222.65 3.4 222.65 6.1 220.75 8 220.6 8.15 220.5 8.25 221.6 7.95 222.45 7.1 223.75 5.8 223.75 4 223.75 2.2 222.45 0.9 Z"/>

<path fill="#FFFFFF" stroke="none" d="
M 211.6 2.5
Q 211.4 2.5 211.25 2.85 211.15 3.2 211.15 3.7 211.15 4.2 211.25 4.55 211.4 4.9 211.6 4.9 211.8 4.9 211.9 4.55 212.05 4.2 212.05 3.7 212.05 3.2 211.9 2.85 211.8 2.5 211.6 2.5 Z"/>
</g>
</defs>

<g transform="matrix( 1, 0, 0, 1, 0,0) ">
<use xlink:href="#Layer1_0_FILL"/>
</g>

<g transform="matrix( 1, 0, 0, 1, 0,0) ">
<use xlink:href="#Layer1_0_MEMBER_0_FILL"/>
</g>

<g transform="matrix( 1, 0, 0, 1, 0,0) ">
<use xlink:href="#Layer1_0_MEMBER_0_MEMBER_0_FILL"/>
</g>

<g transform="matrix( 1, 0, 0, 1, 0,0) ">
<use xlink:href="#Layer1_0_MEMBER_0_MEMBER_1_FILL"/>
</g>

<g transform="matrix( 1, 0, 0, 1, 0,0) ">
<use xlink:href="#Layer1_0_MEMBER_0_MEMBER_2_FILL"/>
</g>

<g transform="matrix( 1, 0, 0, 1, 0,0) ">
<use xlink:href="#Layer1_0_MEMBER_0_MEMBER_3_FILL"/>
</g>

<g transform="matrix( 1, 0, 0, 1, 0,0) ">
<use xlink:href="#Layer1_0_MEMBER_0_MEMBER_4_FILL"/>
</g>

<g transform="matrix( 1, 0, 0, 1, 0,0) ">
<use xlink:href="#Layer1_0_MEMBER_0_MEMBER_5_FILL"/>
</g>

<g transform="matrix( 1, 0, 0, 1, 0,0) ">
<use xlink:href="#Layer1_0_MEMBER_0_MEMBER_6_FILL"/>
</g>

<g transform="matrix( 1, 0, 0, 1, 0,0) ">
<use xlink:href="#Layer1_0_MEMBER_0_MEMBER_7_FILL"/>
</g>

<g transform="matrix( 1, 0, 0, 1, 0,0) ">
<use xlink:href="#Layer1_0_MEMBER_0_MEMBER_8_FILL"/>
</g>

<g transform="matrix( 1, 0, 0, 1, 0,0) ">
<use xlink:href="#Layer1_0_MEMBER_1_MEMBER_0_MEMBER_0_FILL"/>
</g>

<g transform="matrix( 1, 0, 0, 1, 0,0) ">
<use xlink:href="#Layer1_0_MEMBER_1_MEMBER_0_MEMBER_1_FILL"/>
</g>

<g transform="matrix( 1, 0, 0, 1, 0,0) ">
<use xlink:href="#Layer1_0_MEMBER_1_MEMBER_0_MEMBER_2_FILL"/>
</g>

<g transform="matrix( 1, 0, 0, 1, 0,0) ">
<use xlink:href="#Layer1_0_MEMBER_1_MEMBER_0_MEMBER_3_FILL"/>
</g>

<g transform="matrix( 1, 0, 0, 1, 0,0) ">
<use xlink:href="#Layer1_0_MEMBER_1_MEMBER_1_MEMBER_0_FILL"/>
</g>

<g transform="matrix( 1, 0, 0, 1, 0,0) ">
<use xlink:href="#Layer1_0_MEMBER_1_MEMBER_1_MEMBER_1_FILL"/>
</g>

<g transform="matrix( 1, 0, 0, 1, 0,0) ">
<use xlink:href="#Layer1_0_MEMBER_1_MEMBER_1_MEMBER_2_FILL"/>
</g>

<g transform="matrix( 1, 0, 0, 1, 0,0) ">
<use xlink:href="#Layer1_0_MEMBER_1_MEMBER_1_MEMBER_3_FILL"/>
</g>

<g transform="matrix( 1, 0, 0, 1, 0,0) ">
<use xlink:href="#Layer1_0_MEMBER_1_MEMBER_2_MEMBER_0_FILL"/>
</g>

<g transform="matrix( 1, 0, 0, 1, 0,0) ">
<use xlink:href="#Layer1_0_MEMBER_1_MEMBER_2_MEMBER_1_FILL"/>
</g>

<g transform="matrix( 1, 0, 0, 1, 0,0) ">
<use xlink:href="#Layer1_0_MEMBER_1_MEMBER_2_MEMBER_2_FILL"/>
</g>

<g transform="matrix( 1, 0, 0, 1, 0,0) ">
<use xlink:href="#Layer1_0_MEMBER_1_MEMBER_2_MEMBER_3_FILL"/>
</g>

<g transform="matrix( 1, 0, 0, 1, 0,0) ">
<use xlink:href="#Layer1_0_MEMBER_2_FILL"/>
</g>

<g transform="matrix( 1, 0, 0, 1, 0,0) ">
<use xlink:href="#Layer1_0_MEMBER_2_MEMBER_0_FILL"/>
</g>

<g transform="matrix( 1, 0, 0, 1, 0,0) ">
<use xlink:href="#Layer1_0_MEMBER_3_FILL"/>
</g>

<g transform="matrix( 1, 0, 0, 1, 0,0) ">
<use xlink:href="#Layer1_0_MEMBER_3_MEMBER_0_FILL"/>
</g>

<g transform="matrix( 1, 0, 0, 1, 0,0) ">
<use xlink:href="#Layer1_0_MEMBER_4_FILL"/>
</g>
</svg>
