
<svg xmlns="http://www.w3.org/2000/svg" version="1.1" xmlns:xlink="http://www.w3.org/1999/xlink" preserveAspectRatio="none" x="0px" y="0px" width="362px" height="393px" viewBox="0 0 362 393">
<defs>
<g id="Layer1_0_FILL">
<path fill="#878787" stroke="none" d="
M 347.6 392.95
L 347.6 371.25 14.45 371.25 14.45 392.95 347.6 392.95
M 343.8 216.85
L 347.6 216.85 293 122.25 241.7 210.95 120.3 210.95 69.1 122.25 14.45 216.85 18.25 216.85 69.1 128.8 118.45 214.25 243.65 214.25 293 128.8 343.8 216.85 Z"/>

<path fill="#C5C9C3" stroke="none" d="
M 347.6 216.85
L 343.8 216.85 293 128.8 243.65 214.25 118.45 214.25 69.1 128.8 18.25 216.85 14.45 216.85 14.45 371.25 347.6 371.25 347.6 216.85 Z"/>

<path fill="#285764" stroke="none" d="
M 347.6 216.85
L 352.85 213.25 293 110.4 280.05 132.75 82 132.75 69.1 110.4 9.15 213.6 14.45 216.85 69.1 122.25 120.3 210.95 241.7 210.95 293 122.25 347.6 216.85
M 250.2 184.45
L 244.9 193.65 117.2 193.65 111.85 184.45 250.2 184.45
M 262.5 163.2
L 257.15 172.4 104.9 172.4 99.6 163.2 262.5 163.2
M 274.75 141.95
L 269.45 151.15 92.65 151.15 87.3 141.95 274.75 141.95 Z"/>

<path fill="#1A7D8D" stroke="none" d="
M 269.45 151.15
L 274.75 141.95 87.3 141.95 92.65 151.15 269.45 151.15
M 257.15 172.4
L 262.5 163.2 99.6 163.2 104.9 172.4 257.15 172.4
M 244.9 193.65
L 250.2 184.45 111.85 184.45 117.2 193.65 244.9 193.65 Z"/>
</g>

<g id="Layer1_0_MEMBER_0_FILL">
<path fill="#666666" stroke="none" d="
M 308.05 209.1
L 308.05 206.85 278.15 206.85 278.15 209.1 308.05 209.1 Z"/>

<path fill="#FFFFFF" stroke="none" d="
M 294.15 174.4
L 294.15 174.35 278.15 174.35 278.15 206.85 308.05 206.85 308.05 174.35 306.25 174.35 306.25 174.4 294.15 174.4
M 280 189.55
L 280 176.3 292.1 176.3 292.1 189.55 280 189.55
M 294.1 189.55
L 294.1 176.3 306.15 176.3 306.15 189.55 294.1 189.55
M 294.1 191.35
L 306.15 191.35 306.15 204.65 294.1 204.65 294.1 191.35
M 280 191.35
L 292.1 191.35 292.1 204.65 280 204.65 280 191.35 Z"/>

<path fill="#23545F" stroke="none" d="
M 292.1 191.35
L 280 191.35 280 204.65 292.1 204.65 292.1 191.35
M 306.15 191.35
L 294.1 191.35 294.1 204.65 306.15 204.65 306.15 191.35
M 294.1 176.3
L 294.1 189.55 306.15 189.55 306.15 176.3 294.1 176.3
M 280 176.3
L 280 189.55 292.1 189.55 292.1 176.3 280 176.3 Z"/>
</g>

<g id="Layer1_0_MEMBER_1_FILL">
<path fill="#FFFFFF" stroke="none" d="
M 61.25 237.35
L 31.35 237.35 31.35 285.55 61.25 285.55 61.25 237.35
M 47.35 239.75
L 59.45 239.75 59.45 253.05 47.35 253.05 47.35 239.75
M 33.25 283.35
L 33.25 270.05 45.3 270.05 45.3 283.35 33.25 283.35
M 33.25 268.25
L 33.25 254.95 45.3 254.95 45.3 268.25 33.25 268.25
M 47.3 268.25
L 47.3 254.95 59.4 254.95 59.4 268.25 47.3 268.25
M 47.3 270.05
L 59.4 270.05 59.4 283.35 47.3 283.35 47.3 270.05
M 33.35 253.05
L 33.35 239.75 45.4 239.75 45.4 253.05 33.35 253.05 Z"/>

<path fill="#23545F" stroke="none" d="
M 33.35 239.75
L 33.35 253.05 45.4 253.05 45.4 239.75 33.35 239.75
M 59.4 270.05
L 47.3 270.05 47.3 283.35 59.4 283.35 59.4 270.05
M 47.3 254.95
L 47.3 268.25 59.4 268.25 59.4 254.95 47.3 254.95
M 33.25 254.95
L 33.25 268.25 45.3 268.25 45.3 254.95 33.25 254.95
M 33.25 270.05
L 33.25 283.35 45.3 283.35 45.3 270.05 33.25 270.05
M 59.45 239.75
L 47.35 239.75 47.35 253.05 59.45 253.05 59.45 239.75 Z"/>

<path fill="#666666" stroke="none" d="
M 31.35 285.55
L 31.35 287.75 61.25 287.75 61.25 285.55 31.35 285.55 Z"/>
</g>

<g id="Layer1_0_MEMBER_2_FILL">
<path fill="#FFFFFF" stroke="none" d="
M 106.7 285.55
L 106.7 237.35 76.8 237.35 76.8 285.55 106.7 285.55
M 92.8 239.75
L 104.9 239.75 104.9 253.05 92.8 253.05 92.8 239.75
M 104.85 254.95
L 104.85 268.25 92.75 268.25 92.75 254.95 104.85 254.95
M 90.75 254.95
L 90.75 268.25 78.65 268.25 78.65 254.95 90.75 254.95
M 104.85 283.35
L 92.75 283.35 92.75 270.05 104.85 270.05 104.85 283.35
M 90.75 270.05
L 90.75 283.35 78.65 283.35 78.65 270.05 90.75 270.05
M 90.85 239.75
L 90.85 253.05 78.75 253.05 78.75 239.75 90.85 239.75 Z"/>

<path fill="#23545F" stroke="none" d="
M 90.85 253.05
L 90.85 239.75 78.75 239.75 78.75 253.05 90.85 253.05
M 90.75 283.35
L 90.75 270.05 78.65 270.05 78.65 283.35 90.75 283.35
M 92.75 283.35
L 104.85 283.35 104.85 270.05 92.75 270.05 92.75 283.35
M 90.75 268.25
L 90.75 254.95 78.65 254.95 78.65 268.25 90.75 268.25
M 104.85 268.25
L 104.85 254.95 92.75 254.95 92.75 268.25 104.85 268.25
M 104.9 239.75
L 92.8 239.75 92.8 253.05 104.9 253.05 104.9 239.75 Z"/>

<path fill="#666666" stroke="none" d="
M 106.7 287.75
L 106.7 285.55 76.8 285.55 76.8 287.75 106.7 287.75 Z"/>
</g>

<g id="Layer1_0_MEMBER_3_FILL">
<path fill="#FFFFFF" stroke="none" d="
M 285.2 285.55
L 285.2 237.35 255.3 237.35 255.3 285.55 285.2 285.55
M 271.3 239.75
L 283.4 239.75 283.4 253.05 271.3 253.05 271.3 239.75
M 257.25 239.75
L 269.35 239.75 269.35 253.05 257.25 253.05 257.25 239.75
M 271.25 268.25
L 271.25 254.95 283.3 254.95 283.3 268.25 271.25 268.25
M 269.25 254.95
L 269.25 268.25 257.15 268.25 257.15 254.95 269.25 254.95
M 271.25 270.05
L 283.3 270.05 283.3 283.35 271.25 283.35 271.25 270.05
M 269.25 283.35
L 257.15 283.35 257.15 270.05 269.25 270.05 269.25 283.35 Z"/>

<path fill="#23545F" stroke="none" d="
M 257.15 283.35
L 269.25 283.35 269.25 270.05 257.15 270.05 257.15 283.35
M 283.3 270.05
L 271.25 270.05 271.25 283.35 283.3 283.35 283.3 270.05
M 269.25 268.25
L 269.25 254.95 257.15 254.95 257.15 268.25 269.25 268.25
M 271.25 254.95
L 271.25 268.25 283.3 268.25 283.3 254.95 271.25 254.95
M 269.35 239.75
L 257.25 239.75 257.25 253.05 269.35 253.05 269.35 239.75
M 283.4 239.75
L 271.3 239.75 271.3 253.05 283.4 253.05 283.4 239.75 Z"/>

<path fill="#666666" stroke="none" d="
M 255.3 285.55
L 255.3 287.75 285.2 287.75 285.2 285.55 255.3 285.55 Z"/>
</g>

<g id="Layer1_0_MEMBER_4_FILL">
<path fill="#FFFFFF" stroke="none" d="
M 330.7 285.55
L 330.7 237.35 300.8 237.35 300.8 285.55 330.7 285.55
M 328.85 270.05
L 328.85 283.35 316.75 283.35 316.75 270.05 328.85 270.05
M 328.85 254.95
L 328.85 268.25 316.75 268.25 316.75 254.95 328.85 254.95
M 328.9 239.75
L 328.9 253.05 316.8 253.05 316.8 239.75 328.9 239.75
M 302.8 239.75
L 314.85 239.75 314.85 253.05 302.8 253.05 302.8 239.75
M 314.75 254.95
L 314.75 268.25 302.7 268.25 302.7 254.95 314.75 254.95
M 302.7 270.05
L 314.75 270.05 314.75 283.35 302.7 283.35 302.7 270.05 Z"/>

<path fill="#23545F" stroke="none" d="
M 314.75 270.05
L 302.7 270.05 302.7 283.35 314.75 283.35 314.75 270.05
M 314.75 268.25
L 314.75 254.95 302.7 254.95 302.7 268.25 314.75 268.25
M 314.85 239.75
L 302.8 239.75 302.8 253.05 314.85 253.05 314.85 239.75
M 328.9 253.05
L 328.9 239.75 316.8 239.75 316.8 253.05 328.9 253.05
M 328.85 268.25
L 328.85 254.95 316.75 254.95 316.75 268.25 328.85 268.25
M 328.85 283.35
L 328.85 270.05 316.75 270.05 316.75 283.35 328.85 283.35 Z"/>

<path fill="#666666" stroke="none" d="
M 330.7 287.75
L 330.7 285.55 300.8 285.55 300.8 287.75 330.7 287.75 Z"/>
</g>

<g id="Layer1_0_MEMBER_5_FILL">
<path fill="#FFFFFF" stroke="none" d="
M 61.25 358.35
L 61.25 310.15 31.35 310.15 31.35 358.35 61.25 358.35
M 47.35 312.55
L 59.45 312.55 59.45 325.85 47.35 325.85 47.35 312.55
M 47.3 327.75
L 59.4 327.75 59.4 341.05 47.3 341.05 47.3 327.75
M 47.3 342.85
L 59.4 342.85 59.4 356.15 47.3 356.15 47.3 342.85
M 45.3 327.75
L 45.3 341.05 33.25 341.05 33.25 327.75 45.3 327.75
M 45.4 312.5
L 45.4 325.85 33.35 325.85 33.35 312.5 45.4 312.5
M 45.3 342.85
L 45.3 356.15 33.25 356.15 33.25 342.85 45.3 342.85 Z"/>

<path fill="#23545F" stroke="none" d="
M 45.3 356.15
L 45.3 342.85 33.25 342.85 33.25 356.15 45.3 356.15
M 45.4 325.85
L 45.4 312.5 33.35 312.5 33.35 325.85 45.4 325.85
M 45.3 341.05
L 45.3 327.75 33.25 327.75 33.25 341.05 45.3 341.05
M 59.4 342.85
L 47.3 342.85 47.3 356.15 59.4 356.15 59.4 342.85
M 59.4 327.75
L 47.3 327.75 47.3 341.05 59.4 341.05 59.4 327.75
M 59.45 312.55
L 47.35 312.55 47.35 325.85 59.45 325.85 59.45 312.55 Z"/>

<path fill="#666666" stroke="none" d="
M 31.35 358.35
L 31.35 360.55 61.25 360.55 61.25 358.35 31.35 358.35 Z"/>
</g>

<g id="Layer1_0_MEMBER_6_FILL">
<path fill="#FFFFFF" stroke="none" d="
M 76.8 310.15
L 76.8 358.35 106.7 358.35 106.7 310.15 76.8 310.15
M 78.65 341.05
L 78.65 327.75 90.75 327.75 90.75 341.05 78.65 341.05
M 78.75 325.85
L 78.75 312.5 90.85 312.5 90.85 325.85 78.75 325.85
M 78.65 356.15
L 78.65 342.85 90.75 342.85 90.75 356.15 78.65 356.15
M 92.75 341.05
L 92.75 327.75 104.85 327.75 104.85 341.05 92.75 341.05
M 104.9 312.55
L 104.9 325.85 92.8 325.85 92.8 312.55 104.9 312.55
M 92.75 342.85
L 104.85 342.85 104.85 356.15 92.75 356.15 92.75 342.85 Z"/>

<path fill="#23545F" stroke="none" d="
M 104.85 342.85
L 92.75 342.85 92.75 356.15 104.85 356.15 104.85 342.85
M 104.9 325.85
L 104.9 312.55 92.8 312.55 92.8 325.85 104.9 325.85
M 92.75 327.75
L 92.75 341.05 104.85 341.05 104.85 327.75 92.75 327.75
M 78.65 342.85
L 78.65 356.15 90.75 356.15 90.75 342.85 78.65 342.85
M 78.75 312.5
L 78.75 325.85 90.85 325.85 90.85 312.5 78.75 312.5
M 78.65 327.75
L 78.65 341.05 90.75 341.05 90.75 327.75 78.65 327.75 Z"/>

<path fill="#666666" stroke="none" d="
M 76.8 358.35
L 76.8 360.55 106.7 360.55 106.7 358.35 76.8 358.35 Z"/>
</g>

<g id="Layer1_0_MEMBER_7_FILL">
<path fill="#FFFFFF" stroke="none" d="
M 285.2 358.35
L 285.2 310.15 255.3 310.15 255.3 358.35 285.2 358.35
M 271.3 312.55
L 283.4 312.55 283.4 325.85 271.3 325.85 271.3 312.55
M 257.15 341.05
L 257.15 327.75 269.25 327.75 269.25 341.05 257.15 341.05
M 283.3 327.75
L 283.3 341.05 271.25 341.05 271.25 327.75 283.3 327.75
M 271.25 342.85
L 283.3 342.85 283.3 356.15 271.25 356.15 271.25 342.85
M 257.15 342.85
L 269.25 342.85 269.25 356.15 257.15 356.15 257.15 342.85
M 257.25 325.85
L 257.25 312.5 269.35 312.5 269.35 325.85 257.25 325.85 Z"/>

<path fill="#23545F" stroke="none" d="
M 257.25 312.5
L 257.25 325.85 269.35 325.85 269.35 312.5 257.25 312.5
M 269.25 342.85
L 257.15 342.85 257.15 356.15 269.25 356.15 269.25 342.85
M 283.3 342.85
L 271.25 342.85 271.25 356.15 283.3 356.15 283.3 342.85
M 283.3 341.05
L 283.3 327.75 271.25 327.75 271.25 341.05 283.3 341.05
M 257.15 327.75
L 257.15 341.05 269.25 341.05 269.25 327.75 257.15 327.75
M 283.4 312.55
L 271.3 312.55 271.3 325.85 283.4 325.85 283.4 312.55 Z"/>

<path fill="#666666" stroke="none" d="
M 255.3 358.35
L 255.3 360.55 285.2 360.55 285.2 358.35 255.3 358.35 Z"/>
</g>

<g id="Layer1_0_MEMBER_8_FILL">
<path fill="#FFFFFF" stroke="none" d="
M 330.7 358.35
L 330.7 310.15 300.8 310.15 300.8 358.35 330.7 358.35
M 328.85 327.75
L 328.85 341.05 316.75 341.05 316.75 327.75 328.85 327.75
M 328.9 312.55
L 328.9 325.85 316.8 325.85 316.8 312.55 328.9 312.55
M 328.85 342.85
L 328.85 356.15 316.75 356.15 316.75 342.85 328.85 342.85
M 302.7 341.05
L 302.7 327.75 314.75 327.75 314.75 341.05 302.7 341.05
M 302.8 312.5
L 314.85 312.5 314.85 325.85 302.8 325.85 302.8 312.5
M 302.7 342.85
L 314.75 342.85 314.75 356.15 302.7 356.15 302.7 342.85 Z"/>

<path fill="#23545F" stroke="none" d="
M 314.75 342.85
L 302.7 342.85 302.7 356.15 314.75 356.15 314.75 342.85
M 314.85 312.5
L 302.8 312.5 302.8 325.85 314.85 325.85 314.85 312.5
M 302.7 327.75
L 302.7 341.05 314.75 341.05 314.75 327.75 302.7 327.75
M 328.85 356.15
L 328.85 342.85 316.75 342.85 316.75 356.15 328.85 356.15
M 328.9 325.85
L 328.9 312.55 316.8 312.55 316.8 325.85 328.9 325.85
M 328.85 341.05
L 328.85 327.75 316.75 327.75 316.75 341.05 328.85 341.05 Z"/>

<path fill="#666666" stroke="none" d="
M 330.7 360.55
L 330.7 358.35 300.8 358.35 300.8 360.55 330.7 360.55 Z"/>
</g>

<g id="Layer1_0_MEMBER_9_FILL">
<path fill="#666666" stroke="none" d="
M 84.05 209.1
L 84.05 206.85 54.15 206.85 54.15 209.1 84.05 209.1 Z"/>

<path fill="#FFFFFF" stroke="none" d="
M 70.15 174.4
L 70.15 174.35 54.15 174.35 54.15 206.85 84.05 206.85 84.05 174.35 82.2 174.35 82.2 174.4 70.15 174.4
M 70.1 189.55
L 70.1 176.3 82.15 176.3 82.15 189.55 70.1 189.55
M 68.1 176.3
L 68.1 189.55 56 189.55 56 176.3 68.1 176.3
M 56 191.35
L 68.1 191.35 68.1 204.65 56 204.65 56 191.35
M 70.1 191.35
L 82.15 191.35 82.15 204.65 70.1 204.65 70.1 191.35 Z"/>

<path fill="#23545F" stroke="none" d="
M 82.15 191.35
L 70.1 191.35 70.1 204.65 82.15 204.65 82.15 191.35
M 68.1 191.35
L 56 191.35 56 204.65 68.1 204.65 68.1 191.35
M 68.1 189.55
L 68.1 176.3 56 176.3 56 189.55 68.1 189.55
M 70.1 176.3
L 70.1 189.55 82.15 189.55 82.15 176.3 70.1 176.3 Z"/>
</g>

<g id="Layer1_0_MEMBER_10_FILL">
<path fill="#C5C9C3" stroke="none" d="
M 138.05 387.55
L 138.05 393 223.8 393 223.8 387.55 217.85 387.55 217.85 382.1 144.05 382.1 144.05 387.55 138.05 387.55 Z"/>

<path fill="#FFFFFF" stroke="none" d="
M 213.35 311.6
L 213.35 311.35 180.85 311.35 180.85 311.6 180.85 381.8 213.35 381.8 213.35 311.6
M 210.85 313.35
L 210.85 315.9 210.85 379.55 183.45 379.55 183.45 315.9 183.45 313.35 210.85 313.35
M 148.35 311.35
L 148.35 311.6 148.35 381.8 180.8 381.8 180.8 311.6 180.8 311.35 148.35 311.35
M 150.85 315.9
L 150.85 313.35 178.25 313.35 178.25 315.9 178.25 379.55 150.85 379.55 150.85 315.9 Z"/>

<path fill="#23545F" stroke="none" d="
M 183.45 315.9
L 183.45 379.55 210.85 379.55 210.85 315.9 183.45 315.9
M 203.85 335.75
L 203 338.45 202.1 335.75 199.4 334.9 202.1 334 203 331.3 203.85 334 206.55 334.9 203.85 335.75
M 203.85 323.7
L 203 326.4 202.1 323.7 199.4 322.85 202.1 321.95 203 319.25 203.85 321.95 206.55 322.85 203.85 323.7
M 203 343.35
L 203.85 346.05 206.55 346.9 203.85 347.8 203 350.45 202.1 347.8 199.4 346.9 202.1 346.05 203 343.35
M 195.3 322.85
L 192.65 323.7 191.8 326.4 190.9 323.7 188.2 322.85 190.9 321.95 191.8 319.25 192.65 321.95 195.3 322.85
M 190.9 334
L 191.8 331.3 192.65 334 195.3 334.9 192.65 335.75 191.8 338.45 190.9 335.75 188.2 334.9 190.9 334
M 190.9 346.05
L 191.8 343.35 192.65 346.05 195.3 346.9 192.65 347.8 191.8 350.45 190.9 347.8 188.2 346.9 190.9 346.05
M 190.9 358.05
L 191.8 355.35 192.65 358.05 195.3 358.95 192.65 359.8 191.8 362.5 190.9 359.8 188.2 358.95 190.9 358.05
M 190.9 370.1
L 191.8 367.4 192.65 370.1 195.3 371 192.65 371.85 191.8 374.55 190.9 371.85 188.2 371 190.9 370.1
M 199.4 371
L 202.1 370.1 203 367.4 203.85 370.1 206.55 371 203.85 371.85 203 374.55 202.1 371.85 199.4 371
M 202.1 359.8
L 199.4 358.95 202.1 358.05 203 355.35 203.85 358.05 206.55 358.95 203.85 359.8 203 362.5 202.1 359.8
M 150.85 315.9
L 150.85 379.55 178.25 379.55 178.25 315.9 150.85 315.9
M 158.7 331.3
L 159.55 334 162.25 334.9 159.55 335.75 158.7 338.45 157.85 335.75 155.15 334.9 157.85 334 158.7 331.3
M 157.85 323.7
L 155.15 322.85 157.85 321.95 158.7 319.25 159.55 321.95 162.25 322.85 159.55 323.7 158.7 326.4 157.85 323.7
M 158.7 343.35
L 159.55 346.05 162.25 346.9 159.55 347.8 158.7 350.45 157.85 347.8 155.15 346.9 157.85 346.05 158.7 343.35
M 157.85 358.05
L 158.7 355.35 159.55 358.05 162.25 358.95 159.55 359.8 158.7 362.5 157.85 359.8 155.15 358.95 157.85 358.05
M 158.7 367.4
L 159.55 370.1 162.25 371 159.55 371.85 158.7 374.55 157.85 371.85 155.15 371 157.85 370.1 158.7 367.4
M 170.8 323.7
L 169.9 326.4 169.05 323.7 166.35 322.85 169.05 321.95 169.9 319.25 170.8 321.95 173.45 322.85 170.8 323.7
M 169.05 334
L 169.9 331.3 170.8 334 173.45 334.9 170.8 335.75 169.9 338.45 169.05 335.75 166.35 334.9 169.05 334
M 169.9 343.35
L 170.8 346.05 173.45 346.9 170.8 347.8 169.9 350.45 169.05 347.8 166.35 346.9 169.05 346.05 169.9 343.35
M 169.9 355.35
L 170.8 358.05 173.45 358.95 170.8 359.8 169.9 362.5 169.05 359.8 166.35 358.95 169.05 358.05 169.9 355.35
M 166.35 371
L 169.05 370.1 169.9 367.4 170.8 370.1 173.45 371 170.8 371.85 169.9 374.55 169.05 371.85 166.35 371 Z"/>

<path fill="#427E8C" stroke="none" d="
M 199.4 358.95
L 202.1 359.8 203 362.5 203.85 359.8 206.55 358.95 203.85 358.05 203 355.35 202.1 358.05 199.4 358.95
M 202.1 370.1
L 199.4 371 202.1 371.85 203 374.55 203.85 371.85 206.55 371 203.85 370.1 203 367.4 202.1 370.1
M 191.8 367.4
L 190.9 370.1 188.2 371 190.9 371.85 191.8 374.55 192.65 371.85 195.3 371 192.65 370.1 191.8 367.4
M 191.8 355.35
L 190.9 358.05 188.2 358.95 190.9 359.8 191.8 362.5 192.65 359.8 195.3 358.95 192.65 358.05 191.8 355.35
M 191.8 343.35
L 190.9 346.05 188.2 346.9 190.9 347.8 191.8 350.45 192.65 347.8 195.3 346.9 192.65 346.05 191.8 343.35
M 191.8 331.3
L 190.9 334 188.2 334.9 190.9 335.75 191.8 338.45 192.65 335.75 195.3 334.9 192.65 334 191.8 331.3
M 192.65 323.7
L 195.3 322.85 192.65 321.95 191.8 319.25 190.9 321.95 188.2 322.85 190.9 323.7 191.8 326.4 192.65 323.7
M 203.85 346.05
L 203 343.35 202.1 346.05 199.4 346.9 202.1 347.8 203 350.45 203.85 347.8 206.55 346.9 203.85 346.05
M 203 326.4
L 203.85 323.7 206.55 322.85 203.85 321.95 203 319.25 202.1 321.95 199.4 322.85 202.1 323.7 203 326.4
M 203 338.45
L 203.85 335.75 206.55 334.9 203.85 334 203 331.3 202.1 334 199.4 334.9 202.1 335.75 203 338.45
M 169.05 370.1
L 166.35 371 169.05 371.85 169.9 374.55 170.8 371.85 173.45 371 170.8 370.1 169.9 367.4 169.05 370.1
M 170.8 358.05
L 169.9 355.35 169.05 358.05 166.35 358.95 169.05 359.8 169.9 362.5 170.8 359.8 173.45 358.95 170.8 358.05
M 170.8 346.05
L 169.9 343.35 169.05 346.05 166.35 346.9 169.05 347.8 169.9 350.45 170.8 347.8 173.45 346.9 170.8 346.05
M 169.9 331.3
L 169.05 334 166.35 334.9 169.05 335.75 169.9 338.45 170.8 335.75 173.45 334.9 170.8 334 169.9 331.3
M 169.9 326.4
L 170.8 323.7 173.45 322.85 170.8 321.95 169.9 319.25 169.05 321.95 166.35 322.85 169.05 323.7 169.9 326.4
M 159.55 370.1
L 158.7 367.4 157.85 370.1 155.15 371 157.85 371.85 158.7 374.55 159.55 371.85 162.25 371 159.55 370.1
M 158.7 355.35
L 157.85 358.05 155.15 358.95 157.85 359.8 158.7 362.5 159.55 359.8 162.25 358.95 159.55 358.05 158.7 355.35
M 159.55 346.05
L 158.7 343.35 157.85 346.05 155.15 346.9 157.85 347.8 158.7 350.45 159.55 347.8 162.25 346.9 159.55 346.05
M 155.15 322.85
L 157.85 323.7 158.7 326.4 159.55 323.7 162.25 322.85 159.55 321.95 158.7 319.25 157.85 321.95 155.15 322.85
M 159.55 334
L 158.7 331.3 157.85 334 155.15 334.9 157.85 335.75 158.7 338.45 159.55 335.75 162.25 334.9 159.55 334 Z"/>

<path fill="#17414A" stroke="none" d="
M 210.85 315.9
L 210.85 313.35 183.45 313.35 183.45 315.9 210.85 315.9
M 150.85 313.35
L 150.85 315.9 178.25 315.9 178.25 313.35 150.85 313.35 Z"/>

<path fill="#878787" stroke="none" d="
M 148.35 311.6
L 148.35 311.35 180.8 311.35 180.8 311.6 180.85 311.6 180.85 311.35 213.35 311.35 213.35 311.6 217.85 311.6 217.85 306.15 144.05 306.15 144.05 311.6 148.35 311.6 Z"/>
</g>

<g id="Layer1_0_MEMBER_10_MEMBER_0_FILL">
<path fill="#CCCCCC" stroke="none" d="
M 191.2 341.05
Q 191.2 339.55 190.1 338.5 189 337.35 187.45 337.35
L 186.9 337.35 186.9 340.05 187.1 340.05
Q 187.95 340.05 188.5 340.9 189.05 341.65 189.05 342.8
L 189.05 352.55
Q 189.05 353.7 188.5 354.5 187.95 355.35 187.1 355.35
L 186.9 355.35 186.9 357.9 187.45 357.9
Q 189 357.9 190.1 356.8 191.2 355.7 191.2 354.2
L 191.2 341.05 Z"/>
</g>

<g id="Layer1_0_MEMBER_10_MEMBER_1_FILL">
<path fill="#CCCCCC" stroke="none" d="
M 171.55 338.5
Q 170.45 339.55 170.45 341.05
L 170.45 354.2
Q 170.45 355.7 171.55 356.8 172.65 357.9 174.2 357.9
L 174.8 357.9 174.8 355.35 174.55 355.35
Q 173.75 355.35 173.2 354.5 172.6 353.7 172.6 352.55
L 172.6 342.8
Q 172.6 341.65 173.2 340.9 173.75 340.05 174.55 340.05
L 174.8 340.05 174.8 337.35 174.2 337.35
Q 172.65 337.35 171.55 338.5 Z"/>
</g>

<g id="Layer1_0_MEMBER_11_FILL">
<path fill="#464646" stroke="none" d="
M 129 331.15
L 127.55 331.15 127.55 337.65
Q 127.05 337.8 126.6 338.2 125.95 338.9 125.95 339.85 125.95 340.8 126.6 341.45 127.3 342.15 128.25 342.15 129.2 342.15 129.85 341.45 130.55 340.8 130.55 339.85 130.55 338.9 129.85 338.2 129.45 337.8 129 337.7
L 129 331.15 Z"/>
</g>

<g id="Layer1_0_MEMBER_11_MEMBER_0_FILL">
<path fill="#666666" stroke="none" d="
M 132.05 320.05
L 134.4 320.05 128.25 316.3 122.1 320.05 124.5 320.05 124.5 330.7 122.1 330.7 128.25 334.55 134.4 330.7 132.05 330.7 132.05 320.05 Z"/>
</g>

<g id="Layer1_0_MEMBER_11_MEMBER_0_MEMBER_0_FILL">
<path fill="#DAE9F3" stroke="none" d="
M 131.1 329.85
L 131.1 323.05 125.45 328.65 125.45 329.85 131.1 329.85 Z"/>

<path fill="#FFFFFF" stroke="none" d="
M 125.45 320.75
L 125.45 328.65 131.1 323.05 131.1 320.75 125.45 320.75 Z"/>
</g>

<g id="Layer1_0_MEMBER_12_FILL">
<path fill="#464646" stroke="none" d="
M 231.95 338.2
Q 231.25 338.9 231.25 339.85 231.25 340.8 231.95 341.45 232.6 342.15 233.55 342.15 234.55 342.15 235.2 341.45 235.85 340.8 235.85 339.85 235.85 338.9 235.2 338.2 234.8 337.8 234.35 337.7
L 234.35 331.15 232.85 331.15 232.85 337.65
Q 232.35 337.8 231.95 338.2 Z"/>
</g>

<g id="Layer1_0_MEMBER_12_MEMBER_0_FILL">
<path fill="#666666" stroke="none" d="
M 233.55 316.3
L 227.45 320.05 229.85 320.05 229.85 330.7 227.45 330.7 233.55 334.55 239.7 330.7 237.35 330.7 237.35 320.05 239.7 320.05 233.55 316.3 Z"/>
</g>

<g id="Layer1_0_MEMBER_12_MEMBER_0_MEMBER_0_FILL">
<path fill="#DAE9F3" stroke="none" d="
M 236.4 329.85
L 236.4 323.05 230.8 328.65 230.8 329.85 236.4 329.85 Z"/>

<path fill="#FFFFFF" stroke="none" d="
M 230.8 320.75
L 230.8 328.65 236.4 323.05 236.4 320.75 230.8 320.75 Z"/>
</g>

<g id="Layer1_0_MEMBER_13_FILL">
<path fill="#464646" stroke="none" d="
M 356.4 331.8
L 355 331.8 355 336
Q 355 338.6 352.4 338.6
L 348.8 338.6 348.8 338.3
Q 348.8 337.8 348.45 337.45 348.1 337.15 347.65 337.15
L 347.6 337.15 347.6 341.65 347.65 341.65
Q 348.1 341.65 348.45 341.35 348.8 341 348.8 340.5
L 348.8 340 353.1 340
Q 356.4 340 356.4 336.75
L 356.4 331.8 Z"/>
</g>

<g id="Layer1_0_MEMBER_13_MEMBER_0_FILL">
<path fill="#666666" stroke="none" d="
M 361.85 320.05
L 355.7 316.3 349.55 320.05 351.9 320.05 351.9 330.7 349.55 330.7 355.7 334.55 361.85 330.7 359.45 330.7 359.45 320.05 361.85 320.05 Z"/>
</g>

<g id="Layer1_0_MEMBER_13_MEMBER_0_MEMBER_0_FILL">
<path fill="#DAE9F3" stroke="none" d="
M 352.85 323.05
L 352.85 329.85 358.45 329.85 358.45 328.65 352.85 323.05 Z"/>

<path fill="#FFFFFF" stroke="none" d="
M 358.45 328.65
L 358.45 320.75 352.85 320.75 352.85 323.05 358.45 328.65 Z"/>
</g>

<g id="Layer1_0_MEMBER_14_FILL">
<path fill="#464646" stroke="none" d="
M 7.05 331.8
L 5.65 331.8 5.65 336.75
Q 5.65 340 8.9 340
L 13.25 340 13.25 340.5
Q 13.25 341 13.6 341.35 13.9 341.65 14.4 341.65
L 14.45 341.65 14.45 337.15 14.4 337.15
Q 13.9 337.15 13.6 337.45 13.25 337.8 13.25 338.3
L 13.25 338.6 9.65 338.6
Q 7.05 338.6 7.05 336
L 7.05 331.8 Z"/>
</g>

<g id="Layer1_0_MEMBER_14_MEMBER_0_FILL">
<path fill="#666666" stroke="none" d="
M 6.35 316.3
L 0.2 320.05 2.6 320.05 2.6 330.7 0.2 330.7 6.35 334.55 12.5 330.7 10.15 330.7 10.15 320.05 12.5 320.05 6.35 316.3 Z"/>
</g>

<g id="Layer1_0_MEMBER_14_MEMBER_0_MEMBER_0_FILL">
<path fill="#DAE9F3" stroke="none" d="
M 9.15 329.85
L 9.15 323.05 3.55 328.65 3.55 329.85 9.15 329.85 Z"/>

<path fill="#FFFFFF" stroke="none" d="
M 3.55 320.75
L 3.55 328.65 9.15 323.05 9.15 320.75 3.55 320.75 Z"/>
</g>

<g id="Layer1_0_MEMBER_15_FILL">
<path fill="#285764" stroke="none" d="
M 181.9 42.5
L 181.9 42.4 236.45 136.9 241.7 133.25 181.9 30.6 181.9 30.65 122.1 133.6 127.35 136.9 181.9 42.5
M 170.85 95
L 170.8 95 170.8 95.7
Q 182.25 83.6 193 95.7
L 193 95
Q 192.7 91 189.75 88 186.55 84.8 181.9 84.8 177.3 84.8 174.05 88 171.1 91 170.85 95 Z"/>

<path fill="#878787" stroke="none" d="
M 181.9 49.05
L 181.9 49 232.65 136.9 236.3 136.9 236.45 136.9 181.9 42.4 181.9 42.5 127.35 136.9 127.45 136.9 131.2 136.9 181.9 49.05
M 167.9 112.8
L 195.9 112.8 195.9 107.35 167.9 107.35 167.9 112.8 Z"/>

<path fill="#C5C9C3" stroke="none" d="
M 181.9 49
L 181.9 49.05 131.2 136.9 127.45 136.9 127.45 268.8 236.3 268.8 236.3 136.9 232.65 136.9 181.9 49
M 167.9 95.1
Q 168.3 90 171.95 86.2 176.1 82.15 181.9 82.15 187.75 82.15 191.8 86.2 195.55 90 195.9 95.1
L 195.9 107.35 195.9 112.8 167.9 112.8 167.9 107.35 167.9 95.1 Z"/>

<path fill="#FFFFFF" stroke="none" d="
M 171.95 86.2
Q 168.3 90 167.9 95.1
L 167.9 107.35 195.9 107.35 195.9 95.1
Q 195.55 90 191.8 86.2 187.75 82.15 181.9 82.15 176.1 82.15 171.95 86.2
M 170.8 95
L 170.85 95
Q 171.1 91 174.05 88 177.3 84.8 181.9 84.8 186.55 84.8 189.75 88 192.7 91 193 95
L 193 95.7 193 104.75 170.8 104.75 170.8 95.7 170.8 95 Z"/>

<path fill="#1A7D8D" stroke="none" d="
M 193 95.7
Q 182.25 83.6 170.8 95.7
L 170.8 104.75 193 104.75 193 95.7 Z"/>
</g>

<g id="Layer1_0_MEMBER_16_FILL">
<path fill="#FFFFFF" stroke="none" d="
M 143.35 237.35
L 143.35 285.55 173.25 285.55 173.25 237.35 143.35 237.35
M 145.3 239.75
L 157.4 239.75 157.4 253.05 145.3 253.05 145.3 239.75
M 145.2 268.25
L 145.2 254.95 157.3 254.95 157.3 268.25 145.2 268.25
M 159.3 268.25
L 159.3 254.95 171.35 254.95 171.35 268.25 159.3 268.25
M 145.2 270.05
L 157.3 270.05 157.3 283.35 145.2 283.35 145.2 270.05
M 159.3 283.35
L 159.3 270.05 171.35 270.05 171.35 283.35 159.3 283.35
M 159.35 253.05
L 159.35 239.75 171.45 239.75 171.45 253.05 159.35 253.05 Z"/>

<path fill="#23545F" stroke="none" d="
M 159.35 239.75
L 159.35 253.05 171.45 253.05 171.45 239.75 159.35 239.75
M 159.3 270.05
L 159.3 283.35 171.35 283.35 171.35 270.05 159.3 270.05
M 157.3 270.05
L 145.2 270.05 145.2 283.35 157.3 283.35 157.3 270.05
M 159.3 254.95
L 159.3 268.25 171.35 268.25 171.35 254.95 159.3 254.95
M 145.2 254.95
L 145.2 268.25 157.3 268.25 157.3 254.95 145.2 254.95
M 157.4 239.75
L 145.3 239.75 145.3 253.05 157.4 253.05 157.4 239.75 Z"/>

<path fill="#666666" stroke="none" d="
M 143.35 285.55
L 143.35 287.75 173.25 287.75 173.25 285.55 143.35 285.55 Z"/>
</g>

<g id="Layer1_0_MEMBER_17_FILL">
<path fill="#FFFFFF" stroke="none" d="
M 218.7 237.35
L 188.8 237.35 188.8 285.55 218.7 285.55 218.7 237.35
M 204.8 239.75
L 216.9 239.75 216.9 253.05 204.8 253.05 204.8 239.75
M 190.65 283.35
L 190.65 270.05 202.75 270.05 202.75 283.35 190.65 283.35
M 190.65 268.25
L 190.65 254.95 202.75 254.95 202.75 268.25 190.65 268.25
M 204.75 268.25
L 204.75 254.95 216.8 254.95 216.8 268.25 204.75 268.25
M 204.75 270.05
L 216.8 270.05 216.8 283.35 204.75 283.35 204.75 270.05
M 190.75 253.05
L 190.75 239.75 202.85 239.75 202.85 253.05 190.75 253.05 Z"/>

<path fill="#23545F" stroke="none" d="
M 190.75 239.75
L 190.75 253.05 202.85 253.05 202.85 239.75 190.75 239.75
M 216.8 270.05
L 204.75 270.05 204.75 283.35 216.8 283.35 216.8 270.05
M 204.75 254.95
L 204.75 268.25 216.8 268.25 216.8 254.95 204.75 254.95
M 190.65 254.95
L 190.65 268.25 202.75 268.25 202.75 254.95 190.65 254.95
M 190.65 270.05
L 190.65 283.35 202.75 283.35 202.75 270.05 190.65 270.05
M 216.9 239.75
L 204.8 239.75 204.8 253.05 216.9 253.05 216.9 239.75 Z"/>

<path fill="#666666" stroke="none" d="
M 188.8 285.55
L 188.8 287.75 218.7 287.75 218.7 285.55 188.8 285.55 Z"/>
</g>

<g id="Layer1_0_MEMBER_18_MEMBER_0_FILL">
<path fill="#B84F4F" stroke="none" d="
M 201.25 5.75
L 182.5 5.75 182.5 17.95 201.25 17.95 201.25 5.75 Z"/>
</g>

<g id="Layer1_0_MEMBER_18_MEMBER_1_FILL">
<path fill="#CCCCCC" stroke="none" d="
M 182.85 5.3
Q 183.4 5.1 183.85 4.6 184.65 3.85 184.65 2.8 184.65 1.7 183.85 0.9 183.1 0.15 182 0.15 180.95 0.15 180.15 0.9 179.4 1.7 179.4 2.8 179.4 3.85 180.15 4.6 180.6 5.1 181.2 5.3
L 181.2 33 182.85 33 182.85 5.3 Z"/>
</g>

<g id="Layer1_0_MEMBER_19_MEMBER_0_FILL">
<path fill="#B84F4F" stroke="none" d="
M 87.95 96.65
L 87.95 84.45 69.25 84.45 69.25 96.65 87.95 96.65 Z"/>
</g>

<g id="Layer1_0_MEMBER_19_MEMBER_1_FILL">
<path fill="#CCCCCC" stroke="none" d="
M 68.75 78.85
Q 67.65 78.85 66.9 79.6 66.1 80.4 66.1 81.5 66.1 82.55 66.9 83.3 67.35 83.8 67.95 84
L 67.95 111.7 69.55 111.7 69.55 84
Q 70.15 83.8 70.6 83.3 71.4 82.55 71.4 81.5 71.4 80.4 70.6 79.6 69.85 78.85 68.75 78.85 Z"/>
</g>

<g id="Layer1_0_MEMBER_20_MEMBER_0_FILL">
<path fill="#B84F4F" stroke="none" d="
M 312.1 84.45
L 293.35 84.45 293.35 96.65 312.1 96.65 312.1 84.45 Z"/>
</g>

<g id="Layer1_0_MEMBER_20_MEMBER_1_FILL">
<path fill="#CCCCCC" stroke="none" d="
M 292.85 78.85
Q 291.75 78.85 291 79.6 290.2 80.4 290.2 81.5 290.2 82.55 291 83.3 291.45 83.8 292.05 84
L 292.05 111.7 293.65 111.7 293.65 84
Q 294.25 83.8 294.7 83.3 295.5 82.55 295.5 81.5 295.5 80.4 294.7 79.6 293.95 78.85 292.85 78.85 Z"/>
</g>
</defs>

<g transform="matrix( 1, 0, 0, 1, 0,0) ">
<use xlink:href="#Layer1_0_FILL"/>
</g>

<g transform="matrix( 1, 0, 0, 1, 0,0) ">
<use xlink:href="#Layer1_0_MEMBER_0_FILL"/>
</g>

<g transform="matrix( 1, 0, 0, 1, 0,0) ">
<use xlink:href="#Layer1_0_MEMBER_1_FILL"/>
</g>

<g transform="matrix( 1, 0, 0, 1, 0,0) ">
<use xlink:href="#Layer1_0_MEMBER_2_FILL"/>
</g>

<g transform="matrix( 1, 0, 0, 1, 0,0) ">
<use xlink:href="#Layer1_0_MEMBER_3_FILL"/>
</g>

<g transform="matrix( 1, 0, 0, 1, 0,0) ">
<use xlink:href="#Layer1_0_MEMBER_4_FILL"/>
</g>

<g transform="matrix( 1, 0, 0, 1, 0,0) ">
<use xlink:href="#Layer1_0_MEMBER_5_FILL"/>
</g>

<g transform="matrix( 1, 0, 0, 1, 0,0) ">
<use xlink:href="#Layer1_0_MEMBER_6_FILL"/>
</g>

<g transform="matrix( 1, 0, 0, 1, 0,0) ">
<use xlink:href="#Layer1_0_MEMBER_7_FILL"/>
</g>

<g transform="matrix( 1, 0, 0, 1, 0,0) ">
<use xlink:href="#Layer1_0_MEMBER_8_FILL"/>
</g>

<g transform="matrix( 1, 0, 0, 1, 0,0) ">
<use xlink:href="#Layer1_0_MEMBER_9_FILL"/>
</g>

<g transform="matrix( 1, 0, 0, 1, 0,0) ">
<use xlink:href="#Layer1_0_MEMBER_10_FILL"/>
</g>

<g transform="matrix( 1, 0, 0, 1, 0,0) ">
<use xlink:href="#Layer1_0_MEMBER_10_MEMBER_0_FILL"/>
</g>

<g transform="matrix( 1, 0, 0, 1, 0,0) ">
<use xlink:href="#Layer1_0_MEMBER_10_MEMBER_1_FILL"/>
</g>

<g transform="matrix( 1, 0, 0, 1, 0,0) ">
<use xlink:href="#Layer1_0_MEMBER_11_FILL"/>
</g>

<g transform="matrix( 1, 0, 0, 1, 0,0) ">
<use xlink:href="#Layer1_0_MEMBER_11_MEMBER_0_FILL"/>
</g>

<g transform="matrix( 1, 0, 0, 1, 0,0) ">
<use xlink:href="#Layer1_0_MEMBER_11_MEMBER_0_MEMBER_0_FILL"/>
</g>

<g transform="matrix( 1, 0, 0, 1, 0,0) ">
<use xlink:href="#Layer1_0_MEMBER_12_FILL"/>
</g>

<g transform="matrix( 1, 0, 0, 1, 0,0) ">
<use xlink:href="#Layer1_0_MEMBER_12_MEMBER_0_FILL"/>
</g>

<g transform="matrix( 1, 0, 0, 1, 0,0) ">
<use xlink:href="#Layer1_0_MEMBER_12_MEMBER_0_MEMBER_0_FILL"/>
</g>

<g transform="matrix( 1, 0, 0, 1, 0,0) ">
<use xlink:href="#Layer1_0_MEMBER_13_FILL"/>
</g>

<g transform="matrix( 1, 0, 0, 1, 0,0) ">
<use xlink:href="#Layer1_0_MEMBER_13_MEMBER_0_FILL"/>
</g>

<g transform="matrix( 1, 0, 0, 1, 0,0) ">
<use xlink:href="#Layer1_0_MEMBER_13_MEMBER_0_MEMBER_0_FILL"/>
</g>

<g transform="matrix( 1, 0, 0, 1, 0,0) ">
<use xlink:href="#Layer1_0_MEMBER_14_FILL"/>
</g>

<g transform="matrix( 1, 0, 0, 1, 0,0) ">
<use xlink:href="#Layer1_0_MEMBER_14_MEMBER_0_FILL"/>
</g>

<g transform="matrix( 1, 0, 0, 1, 0,0) ">
<use xlink:href="#Layer1_0_MEMBER_14_MEMBER_0_MEMBER_0_FILL"/>
</g>

<g transform="matrix( 1, 0, 0, 1, 0,0) ">
<use xlink:href="#Layer1_0_MEMBER_15_FILL"/>
</g>

<g transform="matrix( 1, 0, 0, 1, 0,0) ">
<use xlink:href="#Layer1_0_MEMBER_16_FILL"/>
</g>

<g transform="matrix( 1, 0, 0, 1, 0,0) ">
<use xlink:href="#Layer1_0_MEMBER_17_FILL"/>
</g>

<g transform="matrix( 1, 0, 0, 1, 0,0) ">
<use xlink:href="#Layer1_0_MEMBER_18_MEMBER_0_FILL"/>
</g>

<g transform="matrix( 1, 0, 0, 1, 0,0) ">
<use xlink:href="#Layer1_0_MEMBER_18_MEMBER_1_FILL"/>
</g>

<g transform="matrix( 1, 0, 0, 1, 0,0) ">
<use xlink:href="#Layer1_0_MEMBER_19_MEMBER_0_FILL"/>
</g>

<g transform="matrix( 1, 0, 0, 1, 0,0) ">
<use xlink:href="#Layer1_0_MEMBER_19_MEMBER_1_FILL"/>
</g>

<g transform="matrix( 1, 0, 0, 1, 0,0) ">
<use xlink:href="#Layer1_0_MEMBER_20_MEMBER_0_FILL"/>
</g>

<g transform="matrix( 1, 0, 0, 1, 0,0) ">
<use xlink:href="#Layer1_0_MEMBER_20_MEMBER_1_FILL"/>
</g>
</svg>
