
<svg xmlns="http://www.w3.org/2000/svg" version="1.1" xmlns:xlink="http://www.w3.org/1999/xlink" preserveAspectRatio="none" x="0px" y="0px" width="170px" height="320px" viewBox="0 0 170 320">
<defs>
<linearGradient id="Gradient_1" gradientUnits="userSpaceOnUse" x1="138.05" y1="81.95" x2="143.75" y2="99.45" spreadMethod="pad">
<stop  offset="0%" stop-color="#CCCCCC"/>

<stop  offset="100%" stop-color="#999999"/>
</linearGradient>

<g id="Layer0_0_FILL">
<path fill="#5F5F5F" stroke="none" d="
M 69.3 221.1
Q 63.2 220.6 62.95 220.55 62.6 222.8 62.45 224.1
L 75.9 224.1
Q 73.55 221.4 69.3 221.1
M 133.15 119.65
Q 133.05 119.65 132.9 119.65 130.3 119.35 127.65 118.95 121.1 117.8 112.85 115.7 113.7 117.05 114.35 118.5 119.25 120.15 131 124.2 132.3 122 133.15 119.65
M 152.45 121.05
Q 150 120.9 147.85 120.8 144.25 120.75 137.85 120.35 138.3 120.65 138.65 121.05 139.1 121.3 139.55 121.85 140.9 123.45 141.45 125.85
L 152.45 121.05
M 79.65 186.3
Q 79 190.05 78.3 194.25 84.309375 200.349609375 89.5 203.2 90.6578125 203.00078125 92 202.95 92.1392578125 203.6287109375 92.05 204.4 91.9822265625 205.8919921875 91.2 207.75 90.6 209.2 89.65 210.85 92.8 210.85 95.1 208.55 96.3298828125 207.2361328125 96.85 205.65 97.1212890625 204.9158203125 97.2 204.1 95.2955078125 202.623828125 93.45 200.8 87.8 195.15 85.15 188.6
L 86.25 187.45
Q 84.809765625 187.295703125 83.6 186.95 81.65 186.7 79.65 186.3
M 92.65 201.55
Q 92.85 201.4 93.15 201.4 93.5 201.35 93.85 201.35
L 92.65 201.55
M 49.65 161.55
L 47.3 164.2 57.15 172.75 62.9 177.75 65.25 175.1 53 164.45
Q 52.3177734375 163.983203125 51.85 163.45
L 49.65 161.55
M 50.6 113.45
Q 47.5 114.1 44.9 114.3
L 50.8 116.5
Q 50.85 116.75 50.85 117.05 51.25 117 51.75 116.75 52.85 116.35 54.35 115.95 54.85 115.8 55.2 115.7 55.45 115.55 55.7 115.5 56.7 115.15 57.6 114.8 58.3 112.95 59 111.35 57.95 111.65 56.9 111.9 56.2 112.15 55.7 112.25 55.35 112.4 54.85 112.5 52.55 113 50.6 113.45
M 68.65 109.75
Q 66.7 109.9 64.45 110.4 64.8 111.35 65.5 112.85 70.9 112.25 80.3 111.65
L 82.25 111.95
Q 82.65 110.6 82.95 109.55 76.3 109.3 68.65 109.75
M 153.6 294.5
L 133.1 294.5 119.2 294.5 119.2 320 153.6 320 153.6 294.5 Z"/>

<path fill="#7E7A7A" stroke="none" d="
M 112.6 210.8
Q 112.348046875 210.7923828125 112.1 210.75 106.8423828125 209.9251953125 102.05 207.3 99.697265625 213.7203125 95.9 217.1 90.95 221.5 82.75 221.5 79.8 221.65 77.9 221.6 74.35 221.4 74.35 220.35 74.35 215.75 77.85 213.2 81.75 210.25 89.65 210.85 90.6 209.2 91.2 207.75 91.9822265625 205.8919921875 92.05 204.4 92.1392578125 203.6287109375 92 202.95 90.6578125 203.00078125 89.5 203.2 85.074609375 203.9931640625 83.8 207.1 82.25 210.85 77.75 210.85 74.2 209.85 70.85 210.5 64.4 211.9 62.95 220.55 63.2 220.6 69.3 221.1 73.55 221.4 75.9 224.1
L 111.85 224.1
Q 113.35 221.9 113.35 220.1 113.35 213.684765625 112.6 210.8
M 103.6 156.45
Q 102.45 156.65 101.25 156.7 100.35 156.9 99.6 156.9 93.9 157.2 88.8 157.2 88.6 157.45 88.4 157.6 87.9158203125 158.5681640625 87.4 159.6 87.1658203125 160.197265625 86.9 160.8 86 162.65 85.2 164.85 85.0328125 165.2544921875 84.85 165.7 84.1560546875 167.5455078125 83.4 170.15 82.6078125 172.8513671875 81.75 176.35 80.95 179.2 79.65 186.3 81.65 186.7 83.6 186.95 84.809765625 187.295703125 86.25 187.45
L 97.45 176.05
Q 97.0197265625 174.3876953125 96.65 172.75 95.7 168.65 95.55 166 95.1 161.35 97.1 160.55 99.05 159.65 103 163.7 104.35078125 165.137890625 106.05 167.6
L 107.1 166.55
Q 106.5494140625 164.6859375 106.1 163.45 105.7 162.1 105.2 160.8 104.4 158.55 103.6 156.45
M 130.9 124.9
Q 130.9 124.65 131 124.2 119.25 120.15 114.35 118.5 118.5 127.45 118.55 130 118.75 130 118.75 130.4 119.05 129.5 119.4 128.55 119.7 127.5 120 126.45 120.45 125.55 120.6 124.9 121.1 126.6 122.1 129.5 122.15 130.15 122.4 130.8 123.85 135.8 123.95 136.2
L 123.95 136.65
Q 124.55 135.95 125.6 134.65 127.6 131.4 130.9 124.9
M 93.15 201.4
Q 92.85 201.4 92.65 201.55
L 93.85 201.35
Q 93.5 201.35 93.15 201.4
M 67.35 172.3
L 61.6 167.25 52 158.9 52.45 158.4 53.2 157.5 56.7 153.45 52.35 149.6 47.6 155 45.25 157.75 42.95 160.45 38.15 165.85 42.6 169.7 46.35 165.3 47.3 164.2 49.65 161.55 51.85 163.45
Q 52.3177734375 163.983203125 53 164.45
L 65.25 175.1 67.5 172.45 67.35 172.3
M 57.6 114.8
Q 56.7 115.15 55.7 115.5 55.45 115.55 55.2 115.7 54.85 115.8 54.35 115.95 52.85 116.35 51.75 116.75 51.25 117 50.85 117.05 51.1 118.9 51.25 121.5 52 129 52.3 130.35 52.3 130.15 52.3 129.85 52.85 127.75 55.4 120.8 55.45 120.6 55.45 120.3 55.6 120.1 55.7 120.05 56.8 117.2 57.6 114.8
M 66.95 116.45
Q 69.9 123.15 70.2 123.6
L 70.45 123.75
Q 70.75 122.95 71.15 122.05 72 119.65 72.75 117.9 73.5 119.3 74.35 121.5
L 74.35 121.6
Q 76.45 126.45 77.1 128.3
L 77.4 128.3
Q 77.8 127.2 78.1 125.9 80.4 117.7 82.25 111.95
L 80.3 111.65
Q 70.9 112.25 65.5 112.85 66.2 114.55 66.95 116.45
M 85.45 92.9
Q 85.6 92.7 85.6 92.65 86.55 88.35 88.4 84.5 81.45 86.95 78.3 88.05 71.85 90.3 67.8 90.5 64.7 90.75 63.35 89.9 63 91.6 62.65 93.3 62.65 93.35 62.65 93.6 62.55 94 62.55 94.3 62.5 94.35 62.5 94.55 62.3 96.25 62.3 98.15 61.9 100.05 61.55 102.35 61.25 103.8 60.95 105.3 59.7 108.9 55.95 109.3 55.15 109.3 54.35 109.3 52.6 108.9 51.9 107.85 51.1 106.75 50.85 103.95 50.6 106.45 50.55 109.05 48.9 109.9 47.7 110.8 46.4 111.7 43.7 114.15 44.1 114.3 44.25 114.4 44.65 114.3 44.9 114.3 47.5 114.1 50.6 113.45 52.55 113 54.85 112.5 55.35 112.4 55.7 112.25 56.2 112.15 56.9 111.9 57.95 111.65 59 111.35 60.7 111 62.3 110.6 62.65 110.6 63.05 110.55 63.7 110.4 64.45 110.4 66.7 109.9 68.65 109.75 76.3 109.3 82.95 109.55 84 109.55 85 109.6 84.8 108.15 84.6 106 84.6 105.35 84.55 104.75 84.55 102.65 84.6 100.8 84.6 100.25 84.6 99.55 84.8 96.15 85.45 92.9
M 63.95 94.45
Q 63.85 94.3 63.8 94.2
L 63.7 94.2
Q 63.35 93.85 63.25 93.8
L 75.45 92.9
Q 75.55 92.9 75.7 92.9 76.15 93.15 76.4 93.3 76.65 93.35 76.85 93.6 78.4 94.85 77.95 97.4 77.55 99.1 76.4 100.4 75.8 101 75.2 101.45 74.55 101.75 73.8 102.1 73.3 101.85 72.75 101.65 72.6 101.5 72.2 101.45 70.7 100.5 68.4 98.4 65.9 96.05 63.95 94.45
M 63 93.25
L 63 93.3 62.85 93.3 63 93.25
M 88.7 90.2
Q 88.2 91.25 87.95 92.45 87.85 92.65 87.85 92.85 86.8 96.05 86.5 99.65 86.5 100.05 86.5 100.65 86.3 103.15 86.5 105.75 86.55 106.5 86.9 108.05 87 108.55 87.15 109.15 87.15 109.55 87.2 109.85 90 110 92.5 110.4 94.8 110.6 97.75 111.35 102.45 112.5 108.9 114.4 110.85 115.1 112.85 115.7 121.1 117.8 127.65 118.95 130.3 119.35 132.9 119.65 133.05 119.65 133.15 119.65 135.2 120.05 137.3 120.3 137.45 120.3 137.55 120.3 139 120.3 137.85 120.35 144.25 120.75 147.85 120.8 150 120.9 152.45 121.05 152.95 121.05 153.35 121.05 152.2 120.05 150.8 118.5 149.35 117.05 147.7 115.85 147.4 113.15 146.55 108.3 146.45 106.75 146.05 105.3 143.65 106.2 140.8 106.9 139.5 107.15 138.15 107.45 134.85 106.9 131.85 104.8 130.7 103.95 129.75 102.9 127.4 100.55 126.2 97.95 125.2 95.55 125 93.05 124.95 91.6 125 90.2 125 90.05 125 89.9 125.25 86.35 126.55 83.05 127.35 81.1 128.35 79.55 126.9 80.6 126.15 81.4 123.8 84.1 123.1 86.55 122.55 88.35 122.4 90.15 122.3 90.2 122.3 90.4 122.25 90.95 122.25 91.6 122.15 94.2 122.55 96.15
L 122.85 98.1 122.85 98.3
Q 121.6 101.45 118.55 104.05 113.9 107.95 107.75 108.55 107.5 108.55 107.45 108.55 101.75 108.85 97.5 107.85 96.45 107.5 95.7 107.2 90.4 105.1 88.8 100.5 88.6 100.05 88.55 99.75 88.15 98.55 88.05 97.1 87.85 95 88.4 92.9 88.4 92.85 88.55 92.7 88.55 92.6 88.55 92.45 88.6 91.45 88.7 90.2
M 116.2 234.6
L 107.05 234.6 107.05 249.8 113.35 249.8
Q 117.95 249.8 120 252.3 121.65 254.4 121.65 258.05
L 121.65 272.45
Q 121.65 280.7 113.35 280.7
L 107.05 280.7 107.05 294.5 119.2 294.5 133.1 294.5 133.1 234.6 116.2 234.6 Z"/>

<path fill="#999999" stroke="none" d="
M 102.3 169.3
Q 102.7818359375 169.82109375 103.25 170.35
L 106.05 167.6
Q 104.35078125 165.137890625 103 163.7 99.05 159.65 97.1 160.55 95.1 161.35 95.55 166 98.2 165 102.3 169.3
M 122.4 130.8
Q 122.15 130.15 122.1 129.5 121.1 126.6 120.6 124.9 120.45 125.55 120 126.45 119.7 127.5 119.4 128.55 119.75 130.9 120.25 134.2 121.1 133.05 122.4 130.8
M 137.3 120.3
Q 135.2 120.05 133.15 119.65 132.3 122 131 124.2 130.9 124.65 130.9 124.9 127.6 131.4 125.6 134.65 125.7 139.7 125.65 141.35
L 125.7 141.6
Q 125.85 141.35 133 128.05 133.75 126.75 134.55 125.45 137.85 126.7 141.95 128.25
L 142 128.25
Q 141.9 127.1 141.45 126.15 140.65 122.6 138.65 121.05 138.3 120.65 137.85 120.35 139 120.3 137.55 120.3 137.45 120.3 137.3 120.3
M 47.3 164.2
L 46.35 165.3
Q 46.3650390625 167.523828125 47.45 169.25 48.05 170.05 48.7 170.6 49.85 171.8 51.4 172.4 52.25 172.7 53.35 172.75
L 53.4 172.75
Q 54 172.75 54.4 172.8 54.65 172.8 54.8 172.8 55.75 172.75 56.5 172.8 56.8509765625 172.76484375 57.15 172.75
L 47.3 164.2
M 54.1 157.3
Q 53.6732421875 157.4552734375 53.2 157.5
L 52.45 158.4
Q 53.1416015625 157.8271484375 54.1 157.3
M 61.6 167.25
L 67.35 172.3
Q 67.938671875 172.2951171875 68.5 172.25 69 172.2 69.4 172.1 70.55 172 71.45 171.95 77.9658203125 171.3208984375 83.4 170.15 84.1560546875 167.5455078125 84.85 165.7 79.0921875 167.70546875 71.05 167.85 70.75 167.85 70.35 167.85 65.5400390625 167.88671875 61.6 167.25
M 71.15 122.05
L 71.15 122.1
Q 71.45 123.75 71.85 126.3
L 72 126.45
Q 72.1 126.45 72.1 126.6 73.4 123.7 74.35 121.6
L 74.35 121.5
Q 73.5 119.3 72.75 117.9 72 119.65 71.15 122.05
M 63.05 110.55
Q 62.65 110.6 62.3 110.6 60.7 111 59 111.35 58.3 112.95 57.6 114.8 56.8 117.2 55.7 120.05 55.6 120.1 55.45 120.3 55.45 120.6 55.4 120.8
L 55.85 126.55 56.05 125.85 60.95 113.7
Q 63.8 113 65.4 112.85
L 65.5 112.85
Q 64.8 111.35 64.45 110.4 63.7 110.4 63.05 110.55
M 58.75 24.25
Q 61.15 30.7 61.4 34.6 61.6 36.95 61.15 39.65 60 45.5 56.05 53.65 54 58.05 52.8 61.55 52.3 62.75 51.9 64 50.55 68.7 50.8 71.8 50.85 74.25 51.9 75.95 50.2 76.65 48.9 78.25 46.15 81.4 46.8 85.6 46.95 85.6 47.25 85.6 47.8 83.8 49.25 81.9 51.05 79.55 54.15 78.5 55.35 79.45 57.3 79.45 56.8 79.7 55 81.35 53.35 83.05 52.5 85.9 51.6 88.6 51.1 90.3 50.6 91.9 48.4 92 46.15 92.1 43.85 89.1 43.15 88.05 42.6 86.65 41.05 82.3 40.6 75.95
L 40.6 75.8
Q 40.1 79.65 40.65 83.85 40.65 83.95 40.65 84.1 41.3 89.9 44 94.7 44.15 95.2 44.45 95.55 44.45 95.7 44.6 95.75 47 99.85 51.15 101.85 51.65 98.3 52.55 95.25 52.55 95.05 52.6 95 55.35 84.95 62.3 78.55 62.5 78.3 62.75 78 62.85 78 63 77.9 63.85 77.1 64.8 76.35 64.25 76.2 63.6 76.05 59.65 75.35 58.9 70.5 58.3 66.4 58.5 63.6 58.55 62.1 58.9 61.05 58.9 61 59 60.8 60 57.55 63.3 45.35 64.1 42.4 64.2 39.5 64.1 30.15 56.6 19.75 57.6 21.6 58.75 24.25
M 64.2 94.45
Q 63.95 94.3 63.8 94.2 63.85 94.3 63.95 94.45 65.9 96.05 68.4 98.4 70.7 100.5 72.2 101.45 72.6 101.5 72.75 101.65 73.3 101.85 73.8 102.1 74.55 101.75 75.2 101.45 75.8 101 76.4 100.4 77.55 99.1 77.95 97.4 78.4 94.85 76.85 93.6 76.65 93.35 76.4 93.3 76.15 93.15 75.7 92.9 76 93.15 76.05 93.3 76.25 93.35 76.3 93.6 76.9 94.35 76.95 94.7 77.1 95.8 76.3 96.9 75.55 98.1 74.05 98.15 72.2 98.3 67.1 96 65.35 95.05 64.2 94.45
M 82.25 75.4
Q 82.1 76.15 81.7 77.1 80.9 78.55 79.75 78.75 77.65 78.8 74.95 76.05
L 74.95 75.95
Q 74 75.15 71.5 71.75 71.35 71.75 71.15 71.65 71.7 72.6 72.4 73.95 73.15 75.2 73.85 76.8 75 78.8 76.15 80.9 76.65 81.9 77.45 82.75 77.45 82.85 77.85 82.75 81.5 82.55 82.75 81.1 84 79.55 83.45 77.65 82.95 75.8 82.25 75.4
M 89.35 64.9
Q 89.55 66.95 88.6 67.8 87.55 68.8 85.95 68.65 86.25 69.5 86.3 70.2
L 86.3 70.35
Q 86.75 70.6 87.55 71.05 88.7 71.25 90.15 71.05 91.65 70.8 92.5 69.45 92.85 69.2 93 68.9 93.35 67.8 93.15 66.55 92.15 65.6 91 64.7 89.75 63.6 88.55 62.7 88.6 62.75 88.7 63 89.35 64.2 89.35 64.9
M 115.7 67
L 113.25 65.05
Q 107.95 66.15 103.6 68.4 98.8 70.8 95.25 74.6 93.65 76.15 92.25 78.2 89.9 81.1 88.4 84.5 86.55 88.35 85.6 92.65 85.6 92.7 85.45 92.9 84.8 96.15 84.6 99.55 84.6 100.25 84.6 100.8 84.55 102.65 84.55 104.75 84.6 105.35 84.6 106 84.8 108.15 85 109.6 84 109.55 82.95 109.55 82.65 110.6 82.25 111.95 80.4 117.7 78.1 125.9 78.6 127.95 78.8 129.15 79.15 130.4 79.15 130.85 79.65 130.3 80.4 128.55 80.55 128.25 80.65 127.8 82.1 124.15 84.15 117.2 85 114.65 85.45 112.5 88.8 113.15 94.15 114.15 96.25 114.65 98.05 114.85 109.2 117 112.55 118.05 113.1 118.15 113.9 118.45 114.2 118.5 114.35 118.5 113.7 117.05 112.85 115.7 110.85 115.1 108.9 114.4 102.45 112.5 97.75 111.35 94.8 110.6 92.5 110.4 90 110 87.2 109.85 87.15 109.55 87.15 109.15 87 108.55 86.9 108.05 86.55 106.5 86.5 105.75 86.3 103.15 86.5 100.65 86.5 100.05 86.5 99.65 86.8 96.05 87.85 92.85 87.85 92.65 87.95 92.45 88.2 91.25 88.7 90.2 90 86.55 92.25 83.25 93.1 81.9 94.1 80.6 94.7 79.7 95.5 78.9 101.05 72.8 109.25 69.25 112.5 67.8 115.7 67
M 101.6 58.15
Q 101.6 58.45 101.6 58.65 101.5 59.8 101.25 60.6 100.3 63.45 97.25 63.85 97.25 64 97.2 64.1 101.5 64.4 104.9 64.85 104.35 62.45 103.9 60.4 103.7 59.1 103.45 57.95 102.3 53.4 101.5 51.45 101.5 51.55 101.35 51.6 101.5 52.25 101.6 53.15 101.75 56.5 101.6 58.15
M 166.95 59.65
Q 166.45 57.9 165.85 56.1 165.45 54.95 164.95 53.7 161.35 45.1 153.25 34.95 144.8 24.5 147.9 9.65 148.176953125 8.337890625 148.5 7 149.4041015625 3.750390625 150.75 0.35 149.4 2.55 148.2 4.45 147.6515625 5.67734375 147.2 7 146.784375 8.21015625 146.45 9.5 146.45 9.65 146.25 9.7 144.3 17.05 144.8 23.55 145.35 31.15 148.8 35.7 150.55 38.3 154.2 43.7 156.35 46.75 157.95 50.3 158.8 52.15 159.6 54.1 159.9 55.3 160.35 56.45 160.5 57 160.75 57.65 161.85 61.5 162.65 65.8 163.25 70.1 161.85 74.45 161.55 75.4 161.3 76.15 159.9 79.45 157.8 81.85 155.1 84.5 154.85 84.75 153.1 86.55 151 88.1 150.8 88.25 150.55 88.4 149.85 88.9 149.15 89.25 146.5 90.9 143.6 92
L 143.5 92
Q 142.4 90.4 141.65 89.05 141.45 88.9 141.45 88.75 139 84.7 138.8 80.9 138.55 77.9 138.9 75.45 137.3 75.95 135.45 76.35 135.3 76.9 135.2 77.5 134.7 79.4 134.6 81.4 134.6 82.6 134.7 83.85 134.85 86.7 135.7 89.1 135.7 89.25 135.7 89.5 136.25 91.6 137.3 93.5 136 93.75 134.7 93.8 132.5 94 131 93.05 129.45 92.1 128.7 89.9 128.7 89.75 128.6 89.75 127.9 88.05 127.8 85.65 127.6 83.05 128.1 80.9 128.35 80 128.7 79.4 129.05 78.8 129.45 78.25 128.8 78.9 128.35 79.55 127.35 81.1 126.55 83.05 125.25 86.35 125 89.9 125 90.05 125 90.2 124.95 91.6 125 93.05 125.2 95.55 126.2 97.95 127.4 100.55 129.75 102.9 130.7 103.95 131.85 104.8 134.85 106.9 138.15 107.45 139.5 107.15 140.8 106.9 143.65 106.2 146.05 105.3 155 102.2 159.65 97.4 160.6 96.4 161.55 95.5 164.95 91.45 166.85 87.3 166.85 87.1 166.95 86.95 168.25 83.7 168.65 80.5 168.65 80.4 168.8 77.9 168.9 76.9 169.15 75.4 169.7 70.5 166.95 59.65
M 119.2 294.5
L 107.05 294.5 72.2 294.5 60.1 294.5 60.1 320 119.2 320 119.2 294.5 Z"/>

<path fill="#B4B4B4" stroke="none" d="
M 103.25 170.35
Q 102.7818359375 169.82109375 102.3 169.3 98.2 165 95.55 166 95.7 168.65 96.65 172.75 97.0197265625 174.3876953125 97.45 176.05
L 86.25 187.45 85.15 188.6
Q 87.8 195.15 93.45 200.8 95.2955078125 202.623828125 97.2 204.1 97.1212890625 204.9158203125 96.85 205.65 96.3298828125 207.2361328125 95.1 208.55 92.8 210.85 89.65 210.85 81.75 210.25 77.85 213.2 74.35 215.75 74.35 220.35 74.35 221.4 77.9 221.6 79.8 221.65 82.75 221.5 90.95 221.5 95.9 217.1 99.697265625 213.7203125 102.05 207.3 106.8423828125 209.9251953125 112.1 210.75 112.348046875 210.7923828125 112.6 210.8 122.498828125 212.351171875 128.5 206.35 128.6 206.25 128.65 206.2
L 98.05 175.5 103.25 170.35
M 97.15 192.3
L 93.1 194.45 95.15 190.3 93.1 186.15 97.15 188.3 101.3 186.25 99.15 190.3 101.3 194.35 97.15 192.3
M 109.6 201.5
L 111.75 205.55 107.6 203.5 103.5 205.6 105.6 201.5 103.5 197.3 107.6 199.5 111.7 197.4 109.6 201.5
M 67.8 157.3
Q 64.8 157.25 61.55 157.3 59.45 157.2 57.15 157.3 57.1 157.3 57 157.3 56.05 157.3 55.3 157.25 54.95 157.25 54.75 157.2 54.55 157.3 54.25 157.3 54.1 157.45 54.1 157.3 53.1416015625 157.8271484375 52.45 158.4
L 52 158.9 61.6 167.25
Q 65.5400390625 167.88671875 70.35 167.85 70.75 167.85 71.05 167.85 79.0921875 167.70546875 84.85 165.7 85.0328125 165.2544921875 85.2 164.85 86 162.65 86.9 160.8 87.1658203125 160.197265625 87.4 159.6 86.020703125 159.301953125 84.35 159 78.15 157.9 70.6 157.45 70.1 157.4 69.55 157.4 68.65 157.35 67.8 157.3
M 0.8 119.05
L 2.65 129.15 42.95 160.45 45.25 157.75 0.8 119.05
M 57.3 139.95
Q 57.75 141.55 58.3 143 61.8 151.25 70.3 154.7 75 156.6 82.75 157.15 85.6 157.15 88.8 157.2 93.9 157.2 99.6 156.9 100.35 156.9 101.25 156.7 102.45 156.65 103.6 156.45 120.45 154.55 125.6 145.5 126.7 143.45 127.3 141.1 129.05 140.75 131.2 140.4 135.45 139.55 137.45 138.55 138.4 138.05 139.25 137.35 141.7 135.15 141.95 131.25 142 130 141.95 128.55 141.95 128.4 141.95 128.25 137.85 126.7 134.55 125.45 133.75 126.75 133 128.05 125.85 141.35 125.7 141.6
L 125.65 141.35
Q 125.7 139.7 125.6 134.65 124.55 135.95 123.95 136.65
L 123.95 136.2
Q 123.85 135.8 122.4 130.8 121.1 133.05 120.25 134.2 119.75 130.9 119.4 128.55 119.05 129.5 118.75 130.4 118.75 130 118.55 130 118.5 127.45 114.35 118.5 114.2 118.5 113.9 118.45 114.5 120.6 114.6 122.9 115.4 133.35 106.8 141.55 103.7 144.2 100.15 146.35 93.6 149.9 85.1 150.45 72.1 151.35 62.5 144.55 59.4 142.4 57.3 139.95
M 52.6 95
Q 52.55 95.05 52.55 95.25 51.65 98.3 51.15 101.85 51.05 102.4 51.05 103.15 50.85 103.45 50.85 103.95 51.1 106.75 51.9 107.85 52.6 108.9 54.35 109.3 55.15 109.3 55.95 109.3 59.7 108.9 60.95 105.3 61.25 103.8 61.55 102.35 61.9 100.05 62.3 98.15 62.3 96.25 62.5 94.55 62.5 94.35 62.55 94.3 62.55 94 62.65 93.6 62.65 93.35 62.65 93.3 63 91.6 63.35 89.9 62.15 89.25 61.8 87.65 61.4 86.8 61.35 85.6 61.15 82 62.75 78 62.5 78.3 62.3 78.55 55.35 84.95 52.6 95
M 95.7 82.1
Q 94.1 82.6 92.25 83.25 90 86.55 88.7 90.2 88.6 91.45 88.55 92.45 88.55 92.6 88.55 92.7 88.4 92.85 88.4 92.9 87.85 95 88.05 97.1 88.15 98.55 88.55 99.75 88.6 100.05 88.8 100.5 90.4 105.1 95.7 107.2 96.45 107.5 97.5 107.85 101.75 108.85 107.45 108.55 107.5 108.55 107.75 108.55 113.9 107.95 118.55 104.05 121.6 101.45 122.85 98.3
L 122.85 98.1 122.55 96.15
Q 122.15 94.2 122.25 91.6 122.25 90.95 122.3 90.4 122.3 90.2 122.4 90.15 122.55 88.35 123.1 86.55 123.8 84.1 126.15 81.4 126.9 80.6 128.35 79.55 128.8 78.9 129.45 78.25 129.55 78 129.8 77.85 129.9 77.75 129.95 77.65 130.15 77.6 130.4 77.5 130.7 77.1 130.95 76.9 132.3 76.8 133.3 76.6 132.65 75.8 131.65 75.15 129.5 75.35 127.35 75.6 111.05 77.3 95.7 82.1
M 113.25 65.05
L 104.9 64.85
Q 101.5 64.4 97.2 64.1 95.8 64.15 94.4 64.4 92.65 64.6 91 64.7 92.15 65.6 93.15 66.55 93.35 67.8 93 68.9 92.85 69.2 92.5 69.45 91.65 70.8 90.15 71.05 88.7 71.25 87.55 71.05 86.75 70.6 86.3 70.35
L 86.3 70.2
Q 86.25 69.5 85.95 68.65 85.6 67.25 85.2 65.6 83.9 65.85 82.65 66.3 77.55 69.25 73.8 72.55 75.55 73.35 78.15 74.05 78.3 74.05 78.4 74.05 81.15 74.85 82.1 75.35 82.2 75.35 82.25 75.4 82.95 75.8 83.45 77.65 84 79.55 82.75 81.1 81.5 82.55 77.85 82.75 77.45 82.85 77.45 82.75 76.65 81.9 76.15 80.9 75 78.8 73.85 76.8 73.15 75.2 72.4 73.95 69.2 76.8 67.2 80 66.15 81.85 65.05 84.1 64.1 86.7 63.35 89.9 64.7 90.75 67.8 90.5 71.85 90.3 78.3 88.05 81.45 86.95 88.4 84.5 89.9 81.1 92.25 78.2 93.65 76.15 95.25 74.6 98.8 70.8 103.6 68.4 107.95 66.15 113.25 65.05
M 60.1 294.5
L 45 294.5 24.5 294.5 24.5 320 60.1 320 60.1 294.5
M 107.05 249.8
L 107.05 234.6 72.2 234.6 72.2 249.8 107.05 249.8
M 107.05 294.5
L 107.05 280.7 72.2 280.7 72.2 294.5 107.05 294.5
M 133.1 234.6
L 138.25 234.6 138.25 224.4 116.2 224.4 116.2 234.6 133.1 234.6 Z"/>

<path fill="#666666" stroke="none" d="
M 111.75 205.55
L 109.6 201.5 111.7 197.4 107.6 199.5 103.5 197.3 105.6 201.5 103.5 205.6 107.6 203.5 111.75 205.55
M 93.1 194.45
L 97.15 192.3 101.3 194.35 99.15 190.3 101.3 186.25 97.15 188.3 93.1 186.15 95.15 190.3 93.1 194.45
M 117.6 183.2
L 119.7 187.4 117.6 191.5 121.7 189.4 125.85 191.45 123.7 187.4 125.8 183.3 121.7 185.4 117.6 183.2
M 108.3 176.1
L 106.2 180.2 110.3 178.1 114.45 180.15 112.3 176.1 114.4 172 110.3 174.1 106.2 171.9 108.3 176.1 Z"/>

<path fill="#EEEEEE" stroke="none" d="
M 110.7 163.05
L 107.1 166.55 106.05 167.6 103.25 170.35 98.05 175.5 128.65 206.2
Q 134.7 200.15 132.95 189.9 131.35 179.7 122.9 171.35 117.25 165.7 110.7 163.05
M 106.2 180.2
L 108.3 176.1 106.2 171.9 110.3 174.1 114.4 172 112.3 176.1 114.45 180.15 110.3 178.1 106.2 180.2
M 119.7 187.4
L 117.6 183.2 121.7 185.4 125.8 183.3 123.7 187.4 125.85 191.45 121.7 189.4 117.6 191.5 119.7 187.4
M 11.15 119.5
L 0.8 119.05 45.25 157.75 47.6 155 11.15 119.5
M 70.2 123.6
Q 69.9 123.15 66.95 116.45 66.2 114.55 65.5 112.85
L 65.4 112.85
Q 63.8 113 60.95 113.7
L 56.05 125.85
Q 56.05 126.1 56.05 126.3 55.9 130.8 55.95 132.1 56.05 132.8 56.15 133.35 56.55 136.9 57.3 139.95 59.4 142.4 62.5 144.55 72.1 151.35 85.1 150.45 93.6 149.9 100.15 146.35 103.7 144.2 106.8 141.55 115.4 133.35 114.6 122.9 114.5 120.6 113.9 118.45 113.1 118.15 112.55 118.05 109.2 117 98.05 114.85 96.25 114.65 94.15 114.15 88.8 113.15 85.45 112.5 85 114.65 84.15 117.2 82.1 124.15 80.65 127.8 80.55 128.25 80.4 128.55 79.65 130.3 79.15 130.85 79.15 130.4 78.8 129.15 78.6 127.95 78.1 125.9 77.8 127.2 77.4 128.3
L 77.1 128.3
Q 76.45 126.45 74.35 121.6 73.4 123.7 72.1 126.6 72.1 126.45 72 126.45
L 71.85 126.3
Q 71.45 123.75 71.15 122.1
L 71.15 122.05
Q 70.75 122.95 70.45 123.75
L 70.2 123.6
M 72.4 73.95
Q 71.7 72.6 71.15 71.65 67.9 73.6 64.8 76.35 63.85 77.1 63 77.9 62.85 78 62.75 78 61.15 82 61.35 85.6 61.4 86.8 61.8 87.65 62.15 89.25 63.35 89.9 64.1 86.7 65.05 84.1 66.15 81.85 67.2 80 69.2 76.8 72.4 73.95
M 61.4 34.6
Q 61.15 30.7 58.75 24.25 57.6 21.6 56.6 19.75 56.15 19.15 55.85 18.55 60.25 32.6 56.9 40.05 56.6 40.55 56.2 41.05 52.1 48.45 49.25 54.1 47 58.65 45.15 62.05 44.65 63 44.15 64 44 64.2 43.85 64.6 42.05 68.65 41 73.2 40.65 74.45 40.6 75.8
L 40.6 75.95
Q 41.05 82.3 42.6 86.65 43.15 88.05 43.85 89.1 46.15 92.1 48.4 92 50.6 91.9 51.1 90.3 51.6 88.6 52.5 85.9 53.35 83.05 55 81.35 56.8 79.7 57.3 79.45 55.35 79.45 54.15 78.5 51.05 79.55 49.25 81.9 47.8 83.8 47.25 85.6 46.95 85.6 46.8 85.6 46.15 81.4 48.9 78.25 50.2 76.65 51.9 75.95 50.85 74.25 50.8 71.8 50.55 68.7 51.9 64 52.3 62.75 52.8 61.55 54 58.05 56.05 53.65 60 45.5 61.15 39.65 61.6 36.95 61.4 34.6
M 135.2 77.5
Q 135.3 76.9 135.45 76.35 134.45 76.45 133.3 76.6 132.3 76.8 130.95 76.9 130.7 77.1 130.4 77.5 130.15 77.6 129.95 77.65 129.9 77.75 129.8 77.85 129.55 78 129.45 78.25 129.05 78.8 128.7 79.4 128.35 80 128.1 80.9 127.6 83.05 127.8 85.65 127.9 88.05 128.6 89.75 128.7 89.75 128.7 89.9 129.45 92.1 131 93.05 132.5 94 134.7 93.8 136 93.75 137.3 93.5 136.25 91.6 135.7 89.5 135.7 89.25 135.7 89.1 134.85 86.7 134.7 83.85 134.6 82.6 134.6 81.4 134.7 79.4 135.2 77.5
M 63.8 94.2
Q 63.95 94.3 64.2 94.45 65.35 95.05 67.1 96 72.2 98.3 74.05 98.15 75.55 98.1 76.3 96.9 77.1 95.8 76.95 94.7 76.9 94.35 76.3 93.6 76.25 93.35 76.05 93.3 76 93.15 75.7 92.9 75.55 92.9 75.45 92.9
L 63.25 93.8
Q 63.35 93.85 63.7 94.2
L 63.8 94.2
M 82.25 75.4
Q 82.2 75.35 82.1 75.35 81.15 74.85 78.4 74.05 78.3 74.05 78.15 74.05 75.55 73.35 73.8 72.55 77.55 69.25 82.65 66.3 76.9 68 71.25 71.55
L 71.15 71.65
Q 71.35 71.75 71.5 71.75 74 75.15 74.95 75.95
L 74.95 76.05
Q 77.65 78.8 79.75 78.75 80.9 78.55 81.7 77.1 82.1 76.15 82.25 75.4
M 83.35 57.65
Q 83.45 58.5 83.65 59.35 84 60.65 84.25 61.8 84.8 63.9 85.2 65.6 85.6 67.25 85.95 68.65 87.55 68.8 88.6 67.8 89.55 66.95 89.35 64.9 89.35 64.2 88.7 63 88.6 62.75 88.55 62.7 88.4 62.6 88.3 62.45 87.7 62.05 87.2 61.55 85.85 60.35 84.8 59.25 83.9 58.45 83.35 57.65
M 115.95 67.1
Q 115.85 67.1 115.7 67 112.5 67.8 109.25 69.25 101.05 72.8 95.5 78.9 94.7 79.7 94.1 80.6 93.1 81.9 92.25 83.25 94.1 82.6 95.7 82.1 111.05 77.3 127.35 75.6 129.5 75.35 131.65 75.15 130.7 74.25 129.75 73.5 124.2 69.45 115.95 67.1
M 101.6 58.65
Q 101.6 58.45 101.6 58.15 101.75 56.5 101.6 53.15 101.5 52.25 101.35 51.6 101.05 53.25 99.35 57.65 99.15 57.95 99.05 58.25 98.45 59.8 98.15 60.8 97.5 62.75 97.25 63.85 100.3 63.45 101.25 60.6 101.5 59.8 101.6 58.65
M 146.75 7
Q 145.989453125 8.417578125 145.35 9.75 137.85 24.7 141.15 35
L 141.2 35.3
Q 141.4 35.7 141.65 36.15 141.7 36.4 141.7 36.65 146.65 48.45 148.6 54.85 149.05 56.2 149.35 57.3 149.85 59.35 149.85 60.65 150.25 65.8 148.45 69.2 147.05 71.35 144.95 72.35
L 144.85 72.5 144.8 72.6
Q 143.75 73.7 141.95 74.6 141.9 74.6 141.75 74.6 140.55 74.95 138.9 75.45 138.55 77.9 138.8 80.9 139 84.7 141.45 88.75 141.45 88.9 141.65 89.05 142.4 90.4 143.5 92
L 143.6 92
Q 146.5 90.9 149.15 89.25 149.85 88.9 150.55 88.4 150.8 88.25 151 88.1 153.1 86.55 154.85 84.75 155.1 84.5 157.8 81.85 159.9 79.45 161.3 76.15 161.55 75.4 161.85 74.45 163.25 70.1 162.65 65.8 161.85 61.5 160.75 57.65 160.5 57 160.35 56.45 159.9 55.3 159.6 54.1 158.8 52.15 157.95 50.3 156.35 46.75 154.2 43.7 150.55 38.3 148.8 35.7 145.35 31.15 144.8 23.55 144.3 17.05 146.25 9.7 146.45 9.65 146.45 9.5 146.784375 8.21015625 147.2 7 147.6515625 5.67734375 148.2 4.45 147.429296875 5.7578125 146.75 7
M 107.05 234.6
L 116.2 234.6 116.2 224.4 75.95 224.4
Q 75.15 224.5 74.25 224.5 73.2 224.55 72.2 224.55 69.2 224.65 66.2 224.4
L 63.1 224.4 63.1 234.6 45 234.6 45 294.5 60.1 294.5 72.2 294.5 72.2 280.7 63.65 280.7
Q 59.6 280.7 57.55 278.7 55.45 276.6 55.45 272.45
L 55.45 258.05
Q 55.45 249.8 63.65 249.8
L 72.2 249.8 72.2 234.6 107.05 234.6 Z"/>

<path fill="#F3E4D3" stroke="none" d="
M 139.55 121.85
Q 139.1 121.3 138.65 121.05 140.65 122.6 141.45 126.15 141.45 126.05 141.45 125.85 140.9 123.45 139.55 121.85
M 63 93.3
L 63 93.25 62.85 93.3 63 93.3 Z"/>

<path fill="url(#Gradient_1)" stroke="none" d="
M 149.85 60.65
Q 149.85 59.35 149.35 57.3 149.05 56.2 148.6 54.85 146.65 48.45 141.7 36.65 145.6 47.2 147.05 54.95 147.2 56.2 147.4 57.4 147.65 58.45 147.65 59.35 148.35 68.65 144.95 72.35 147.05 71.35 148.45 69.2 150.25 65.8 149.85 60.65 Z"/>

<path fill="#FFFFFF" stroke="none" d="
M 63.1 234.6
L 63.1 224.4 40 224.4 40 234.6 45 234.6 63.1 234.6
M 87.3 276.6
Q 87.3 275.75 86.7 275.2 86.15 274.65 85.3 274.65
L 80.75 274.65
Q 79.9 274.65 79.35 275.2 78.75 275.75 78.75 276.6 78.75 277.4 79.35 278 79.9 278.55 80.75 278.55
L 85.3 278.55
Q 86.15 278.55 86.7 278 87.3 277.4 87.3 276.6
M 86.1 275.8
Q 86.45 276.15 86.45 276.6 86.45 277.1 86.1 277.4 85.8 277.7 85.3 277.7
L 80.75 277.7
Q 80.25 277.7 80 277.4 79.65 277.1 79.65 276.6 79.65 276.15 80 275.8 80.25 275.55 80.75 275.55
L 85.3 275.55
Q 85.8 275.55 86.1 275.8
M 97.85 275.2
Q 97.3 274.65 96.45 274.65
L 91.9 274.65
Q 91.05 274.65 90.45 275.2 89.9 275.75 89.9 276.6 89.9 277.4 90.45 278 91.05 278.55 91.9 278.55
L 96.45 278.55
Q 97.3 278.55 97.85 278 98.45 277.4 98.45 276.6 98.45 275.75 97.85 275.2
M 96.45 275.55
Q 96.95 275.55 97.2 275.8 97.55 276.15 97.55 276.6 97.55 277.1 97.2 277.4 96.95 277.7 96.45 277.7
L 91.9 277.7
Q 91.4 277.7 91.1 277.4 90.8 277.1 90.8 276.6 90.8 276.15 91.1 275.8 91.4 275.55 91.9 275.55
L 96.45 275.55
M 104.55 269.15
Q 103.45 270.3 103.45 271.8 103.45 273.4 104.55 274.5 105.6251953125 275.5283203125 107.05 275.6 107.14921875 275.6 107.25 275.6 108.85 275.6 109.95 274.5 111.05 273.4 111.05 271.8 111.05 270.3 109.95 269.15 108.85 268 107.25 268 107.14921875 268 107.05 268 105.6251953125 268.0748046875 104.55 269.15
M 104.35 271.8
Q 104.35 270.65 105.15 269.75 105.97421875 268.92578125 107.05 268.85 107.1490234375 268.85 107.25 268.85 108.5 268.85 109.35 269.75 110.15 270.65 110.15 271.8 110.15 273 109.35 273.9 108.5 274.7 107.25 274.7 107.1490234375 274.7 107.05 274.7 105.97421875 274.6326171875 105.15 273.9 104.35 273 104.35 271.8
M 104.4 265.2
Q 104.4 263.6 103.3 262.55 102.15 261.35 100.55 261.35 99.05 261.35 97.95 262.55
L 97.9 262.55
Q 96.8 263.6 96.8 265.2 96.8 266.7 97.9 267.85 99.05 269 100.55 269 102.15 269 103.3 267.85 104.4 266.7 104.4 265.2
M 102.6 263.15
L 102.7 263.15
Q 103.5 263.95 103.5 265.2 103.5 266.4 102.6 267.2 101.8 268.1 100.55 268.1 99.35 268.1 98.5 267.2 97.6 266.4 97.6 265.2 97.6 263.95 98.5 263.15 99.35 262.2 100.55 262.2 101.8 262.2 102.6 263.15
M 111.35 262.55
Q 110.15 263.6 110.15 265.2 110.15 266.7 111.35 267.85 112.5 269 113.95 269 115.65 269 116.65 267.85 117.75 266.7 117.75 265.2 117.75 263.6 116.65 262.55 115.65 261.4 113.95 261.4 112.5 261.4 111.4 262.55
L 111.35 262.55
M 113.95 262.25
Q 115.25 262.25 116.05 263.15 116.9 263.9 116.9 265.2 116.9 266.4 116.05 267.2 115.25 268.1 113.95 268.1 112.8 268.1 111.95 267.2 111.05 266.4 111.05 265.2 111.05 263.95 111.95 263.15 112.8 262.25 113.95 262.25
M 120 252.3
Q 117.95 249.8 113.35 249.8
L 107.05 249.8 72.2 249.8 63.65 249.8
Q 55.45 249.8 55.45 258.05
L 55.45 272.45
Q 55.45 276.6 57.55 278.7
L 66.55 274.9 66.55 275
Q 66.55 275.15 66.65 275.3 66.75 275.45 67 275.45
L 72.85 275.45
Q 73.1 275.45 73.2 275.3 73.3 275.15 73.3 275
L 73.3 272 103.6 259.25
Q 103.75 260.3 104.6 261.1
L 104.6 261.05
Q 105.6283203125 262.125 107.05 262.2 107.1490234375 262.2 107.25 262.2 108.85 262.2 109.95 261.05 111.05 260 111.05 258.4 111.05 257.2 110.5 256.3
L 120 252.3
M 104.45 259
L 104.45 258.95
Q 104.35 258.75 104.35 258.4 104.35 257.15 105.2 256.3 105.9783203125 255.567578125 107.05 255.5 107.148828125 255.5 107.25 255.5 108.5 255.5 109.35 256.3 109.55 256.5 109.75 256.75 110.15 257.45 110.15 258.4 110.15 259.6 109.35 260.45 108.5 261.35 107.25 261.35 107.148828125 261.35 107.05 261.35 105.9783203125 261.2740234375 105.2 260.45 104.55 259.85 104.45 259
M 67 262.55
Q 67.15 262.55 67.25 262.35 67.4 262.25 67.4 262.1
L 67.4 255.55 72.45 255.55 72.45 262.1
Q 72.45 262.25 72.6 262.35 72.7 262.55 72.85 262.55
L 79.45 262.55 79.45 267.55 72.85 267.55
Q 72.7 267.55 72.6 267.7 72.45 267.85 72.45 268
L 72.45 274.55 67.4 274.55 67.4 268
Q 67.4 267.85 67.25 267.7 67.15 267.55 67 267.55
L 60.4 267.55 60.4 262.55 67 262.55 Z"/>

<path fill="#CCCCCC" stroke="none" d="
M 110.5 256.3
Q 111.05 257.2 111.05 258.4 111.05 260 109.95 261.05 108.85 262.2 107.25 262.2 107.1490234375 262.2 107.05 262.2 105.6283203125 262.125 104.6 261.05
L 104.6 261.1
Q 103.75 260.3 103.6 259.25
L 73.3 272 73.3 275
Q 73.3 275.15 73.2 275.3 73.1 275.45 72.85 275.45
L 67 275.45
Q 66.75 275.45 66.65 275.3 66.55 275.15 66.55 275
L 66.55 274.9 57.55 278.7
Q 59.6 280.7 63.65 280.7
L 72.2 280.7 107.05 280.7 113.35 280.7
Q 121.65 280.7 121.65 272.45
L 121.65 258.05
Q 121.65 254.4 120 252.3
L 110.5 256.3
M 110.15 265.2
Q 110.15 263.6 111.35 262.55
L 111.4 262.55
Q 112.5 261.4 113.95 261.4 115.65 261.4 116.65 262.55 117.75 263.6 117.75 265.2 117.75 266.7 116.65 267.85 115.65 269 113.95 269 112.5 269 111.35 267.85 110.15 266.7 110.15 265.2
M 103.3 262.55
Q 104.4 263.6 104.4 265.2 104.4 266.7 103.3 267.85 102.15 269 100.55 269 99.05 269 97.9 267.85 96.8 266.7 96.8 265.2 96.8 263.6 97.9 262.55
L 97.95 262.55
Q 99.05 261.35 100.55 261.35 102.15 261.35 103.3 262.55
M 103.45 271.8
Q 103.45 270.3 104.55 269.15 105.6251953125 268.0748046875 107.05 268 107.14921875 268 107.25 268 108.85 268 109.95 269.15 111.05 270.3 111.05 271.8 111.05 273.4 109.95 274.5 108.85 275.6 107.25 275.6 107.14921875 275.6 107.05 275.6 105.6251953125 275.5283203125 104.55 274.5 103.45 273.4 103.45 271.8
M 96.45 274.65
Q 97.3 274.65 97.85 275.2 98.45 275.75 98.45 276.6 98.45 277.4 97.85 278 97.3 278.55 96.45 278.55
L 91.9 278.55
Q 91.05 278.55 90.45 278 89.9 277.4 89.9 276.6 89.9 275.75 90.45 275.2 91.05 274.65 91.9 274.65
L 96.45 274.65
M 86.7 275.2
Q 87.3 275.75 87.3 276.6 87.3 277.4 86.7 278 86.15 278.55 85.3 278.55
L 80.75 278.55
Q 79.9 278.55 79.35 278 78.75 277.4 78.75 276.6 78.75 275.75 79.35 275.2 79.9 274.65 80.75 274.65
L 85.3 274.65
Q 86.15 274.65 86.7 275.2 Z"/>

<path fill="#677980" stroke="none" d="
M 86.45 276.6
Q 86.45 276.15 86.1 275.8 85.8 275.55 85.3 275.55
L 80.75 275.55
Q 80.25 275.55 80 275.8 79.65 276.15 79.65 276.6 79.65 277.1 80 277.4 80.25 277.7 80.75 277.7
L 85.3 277.7
Q 85.8 277.7 86.1 277.4 86.45 277.1 86.45 276.6
M 97.2 275.8
Q 96.95 275.55 96.45 275.55
L 91.9 275.55
Q 91.4 275.55 91.1 275.8 90.8 276.15 90.8 276.6 90.8 277.1 91.1 277.4 91.4 277.7 91.9 277.7
L 96.45 277.7
Q 96.95 277.7 97.2 277.4 97.55 277.1 97.55 276.6 97.55 276.15 97.2 275.8
M 67.25 262.35
Q 67.15 262.55 67 262.55
L 60.4 262.55 60.4 267.55 67 267.55
Q 67.15 267.55 67.25 267.7 67.4 267.85 67.4 268
L 67.4 274.55 72.45 274.55 72.45 268
Q 72.45 267.85 72.6 267.7 72.7 267.55 72.85 267.55
L 79.45 267.55 79.45 262.55 72.85 262.55
Q 72.7 262.55 72.6 262.35 72.45 262.25 72.45 262.1
L 72.45 255.55 67.4 255.55 67.4 262.1
Q 67.4 262.25 67.25 262.35 Z"/>

<path fill="#D5AE3B" stroke="none" d="
M 105.15 269.75
Q 104.35 270.65 104.35 271.8 104.35 273 105.15 273.9 105.97421875 274.6326171875 107.05 274.7 107.1490234375 274.7 107.25 274.7 108.5 274.7 109.35 273.9 110.15 273 110.15 271.8 110.15 270.65 109.35 269.75 108.5 268.85 107.25 268.85 107.1490234375 268.85 107.05 268.85 105.97421875 268.92578125 105.15 269.75 Z"/>

<path fill="#3C9874" stroke="none" d="
M 102.7 263.15
L 102.6 263.15
Q 101.8 262.2 100.55 262.2 99.35 262.2 98.5 263.15 97.6 263.95 97.6 265.2 97.6 266.4 98.5 267.2 99.35 268.1 100.55 268.1 101.8 268.1 102.6 267.2 103.5 266.4 103.5 265.2 103.5 263.95 102.7 263.15 Z"/>

<path fill="#EC574D" stroke="none" d="
M 116.05 263.15
Q 115.25 262.25 113.95 262.25 112.8 262.25 111.95 263.15 111.05 263.95 111.05 265.2 111.05 266.4 111.95 267.2 112.8 268.1 113.95 268.1 115.25 268.1 116.05 267.2 116.9 266.4 116.9 265.2 116.9 263.9 116.05 263.15 Z"/>

<path fill="#447DB0" stroke="none" d="
M 104.45 258.95
L 104.45 259
Q 104.55 259.85 105.2 260.45 105.9783203125 261.2740234375 107.05 261.35 107.148828125 261.35 107.25 261.35 108.5 261.35 109.35 260.45 110.15 259.6 110.15 258.4 110.15 257.45 109.75 256.75 109.55 256.5 109.35 256.3 108.5 255.5 107.25 255.5 107.148828125 255.5 107.05 255.5 105.9783203125 255.567578125 105.2 256.3 104.35 257.15 104.35 258.4 104.35 258.75 104.45 258.95 Z"/>
</g>
</defs>

<g transform="matrix( 1, 0, 0, 1, 0,0) ">
<use xlink:href="#Layer0_0_FILL"/>
</g>
</svg>
