
<svg xmlns="http://www.w3.org/2000/svg" version="1.1" xmlns:xlink="http://www.w3.org/1999/xlink" preserveAspectRatio="none" x="0px" y="0px" width="20px" height="19px" viewBox="0 0 20 19">
<defs>
<g id="Layer0_0_FILL">
<path fill="#6B8E00" stroke="none" d="
M -326.85 461.8
Q -325.6 461.8 -324.3 461.85 -323.45 461.85 -322.55 461.9 -321.4 461.9 -320.15 461.9 -315.3 461.95 -310.35 461.95 -309.7 461.95 -309.05 461.95 -308.9 455.55 -308.9 455.25 -308.9 452.2 -309.25 448.45 -309.3 448.05 -309.35 447.7 -309.7 449.95 -310.4 452.45 -311.45 456.1 -312.8 458.45 -312.95 456.05 -313.75 451.7 -313.85 451.8 -313.9 452 -315.25 455.35 -316.5 459.1 -316.65 458.4 -316.75 457.6 -317.1 454.5 -317.1 449.9 -317.1 448.85 -316.9 446.6
L -316.9 446.55
Q -317.95 448.4 -319.3 451.7 -320.45 454.6 -321.25 457.05 -321.55 454.7 -321.55 451.8 -321.55 447.2 -321.1 443.55 -322.3 446.2 -323.45 449.2 -324.7 452.5 -325.45 454.95 -325.6 454.3 -325.75 453.75 -326.8 449.15 -328.05 446.55 -327.55 449.55 -327.2 453.9 -326.8 458.85 -326.85 461.8 Z"/>
</g>
</defs>

<g transform="matrix( 1, 0, 0, 1, 328.05,-443.55) ">
<use xlink:href="#Layer0_0_FILL"/>
</g>
</svg>
