
<svg xmlns="http://www.w3.org/2000/svg" version="1.1" xmlns:xlink="http://www.w3.org/1999/xlink" preserveAspectRatio="none" x="0px" y="0px" width="13px" height="18px" viewBox="0 0 13 18">
<defs>
<g id="Layer0_0_FILL">
<path fill="#6B8E00" stroke="none" d="
M -349.9 451.1
Q -349.75 449.9 -349.65 448.85 -353 454.85 -354.05 456.55 -354.4 453.45 -354.4 452.05 -354.4 448.9 -353.9 444.8 -355.1 447.2 -356.45 450.85 -357.35 453.25 -357.95 455.35 -358.05 455.2 -358.1 455.05 -358.9 453.5 -361.8 448.6 -362.25 447.9 -362.6 447.3 -362.05 450.1 -361.7 453.55 -361.2 458.3 -361.25 461.95
L -350.55 461.95
Q -350.7 460.4 -350.7 460.25 -350.7 457.2 -349.9 451.1 Z"/>
</g>
</defs>

<g transform="matrix( 1, 0, 0, 1, 362.6,-443.95) ">
<use xlink:href="#Layer0_0_FILL"/>
</g>
</svg>
