
<svg xmlns="http://www.w3.org/2000/svg" version="1.1" xmlns:xlink="http://www.w3.org/1999/xlink" preserveAspectRatio="none" x="0px" y="0px" width="150px" height="30px" viewBox="0 0 150 30">
<defs>
<g id="Layer0_0_FILL">
<path fill="#FFFFFF" stroke="none" d="
M 109.9 16
L 109.9 14.6 113.85 14.6 113.85 12.4 102.9 12.4 102.9 14.6 106.55 14.6 106.55 16 103.15 16 103.15 18.2 106.55 18.2 106.55 19.9 102.2 19.9 102.2 21.95 114.15 21.95 114.15 19.9 109.9 19.9 109.9 18.2 113.45 18.2 113.45 16 109.9 16
M 102.65 11.4
L 102.65 9.35 101 9.35 101 7.4
Q 101.95 7.3 102.75 7
L 102.75 4.8
Q 101.1 5.3 99.85 5.3
L 96.25 5.3 96.25 7.4 98.05 7.4 98.05 9.35 96 9.35 96 11.4 97.9 11.4
Q 97.25 13.95 95.85 16.6
L 95.85 19.65
Q 97.35 17.95 98.05 16.75
L 98.05 22.55 101 22.55 101 15.9
Q 101.65 16.6 102.6 17.55
L 102.6 14.8
Q 101.55 13.35 101.1 11.4
L 102.65 11.4
M 113.3 8.8
L 113.3 5.2 103.3 5.2 103.3 11.45 110.7 11.45
Q 113.35 11.55 113.3 8.8
M 106.25 9.35
L 106.25 7.3 110.4 7.3 110.4 8.5
Q 110.45 9.35 109.55 9.35
L 106.25 9.35
M 87.2 10.35
L 87.2 8.4 83.75 8.4 83.75 10.35 81.35 10.35 81.35 12.7 83.75 12.7 83.75 12.95
Q 83.9 18.25 81 20.5
L 81 22.55
Q 87.4 20.05 87.2 12.7
L 90 12.7 90 18.95
Q 90.1 20.05 89 20
L 87.65 20 87.65 22.15 90.1 22.15
Q 93.35 22.25 93.3 19.25
L 93.3 10.35 87.2 10.35
M 94 7.65
L 94 5.35 77.2 5.35 77.2 15.9
Q 77.25 19.5 76 20.6
L 76 22.65
Q 80.95 20.6 80.7 15.35
L 80.7 7.65 94 7.65
M 69 5.45
Q 67.05 8.4 62.5 8.95
L 62.5 10.9
Q 70 10.5 73.05 5.45
L 69 5.45
M 61.8 11.55
L 61.8 4.65 58.3 4.65 58.3 11.55 56.15 11.55 56.15 13.8 58.3 13.8 58.3 22.55
Q 62.25 21.45 65.15 20
L 65.15 17.4
Q 65 17.5 64.6 17.65 62.65 18.35 61.8 18.55
L 61.8 13.8 63.45 13.8
Q 66 20.2 73.75 21.6
L 73.75 19.75
Q 68.85 18.2 67.1 13.8
L 73.85 13.8 73.85 11.55 61.8 11.55
M 53.65 10.85
L 50.65 10.85
Q 50.1 13.35 49.05 15.2 48.75 12.8 48.6 9.65
L 54.05 9.65 54.05 7.4 52.75 7.4 52.75 4.9 50.1 4.9 50.1 7.4 48.6 7.4
Q 48.6 6 48.6 4.45
L 45.3 4.45
Q 45.3 6 45.3 7.4
L 37.25 7.4 37.25 16.7
Q 37.35 19.25 36.25 20.6
L 36.25 22.65
Q 40.8 21 40.55 16.15
L 40.55 14.05 42.1 14.05 42.1 17.7
Q 42.2 18.75 41.35 18.65
L 40.7 18.65 40.7 20.6 42.65 20.6
Q 45.25 20.7 45.15 18.1
L 45.15 11.85 40.55 11.85 40.55 9.65 45.4 9.65
Q 45.7 14.35 46.4 17.15 46.55 17.85 46.8 18.35 45.8 19.35 44.55 20.3
L 44.55 22.55
Q 46.4 21.4 47.8 20.5 49.4 22.55 51.55 22.5 54.55 22.55 54.45 19.2
L 52.2 19.2
Q 52.25 20.3 51.55 20.3 50.65 20.3 49.85 18.65 52.4 15.9 53.65 10.85 Z"/>
</g>
</defs>

<g transform="matrix( 1, 0, 0, 1, 0,0) ">
<use xlink:href="#Layer0_0_FILL"/>
</g>
</svg>
