
<svg xmlns="http://www.w3.org/2000/svg" version="1.1" xmlns:xlink="http://www.w3.org/1999/xlink" preserveAspectRatio="none" x="0px" y="0px" width="150px" height="30px" viewBox="0 0 150 30">
<defs>
<g id="Layer0_0_FILL">
<path fill="#FFFFFF" stroke="none" d="
M 20.7 14.85
L 20.25 16.95 22.15 16.95 21.9 18
Q 21.2 18.5 20.25 18.5
L 20.2 18.5
Q 19.35 18.5 18.8 17.95 18.25 17.4 18.25 16.55 18.25 15.1 19 13.85 19.75 12.55 21 12.55 22.25 12.55 22.7 13.75
L 25.75 13.45
Q 24.95 10.35 21.4 10.35 19.6 10.35 18.2 11.15 16.8 11.9 16 13.35 15.25 14.75 15.25 16.45 15.25 18.5 16.45 19.6 17.65 20.7 19.75 20.7 22.05 20.7 24.35 19.55
L 25.35 14.85 20.7 14.85
M 29.45 17.85
Q 29.7 16.55 30.2 16 30.7 15.4 31.5 15.4 31.75 15.4 32.1 15.5
L 33.1 13.35
Q 32.6 13.15 32.15 13.15 31.55 13.15 31.05 13.45 30.55 13.8 29.9 14.75
L 30.2 13.3 27.6 13.3 26.05 20.55 28.85 20.55 29.45 17.85
M 40.65 18.45
Q 41.15 17.45 41.15 16.4 41.15 15.1 40.25 14.1 39.35 13.15 37.4 13.15 36 13.15 34.95 13.7 33.9 14.3 33.35 15.3 32.85 16.35 32.85 17.45 32.85 18.85 33.75 19.8 34.65 20.7 36.55 20.7 38.05 20.7 39.1 20.1 40.1 19.5 40.65 18.45
M 35.9 18.45
Q 35.55 18.05 35.55 17.45 35.55 16.6 36 15.8 36.4 15 37.3 15 37.75 15 38.1 15.3 38.45 15.55 38.45 16.3 38.45 17.25 37.95 18.05 37.5 18.85 36.75 18.85 36.25 18.85 35.9 18.45
M 50.4 17.8
L 50.35 17.8 49.95 13.3 47.45 13.3 44.95 17.9 44.9 17.9 44.65 13.3 42.15 13.3 43.25 20.55 45.75 20.55 48.15 16.25 48.2 16.25 48.65 20.55 51.1 20.55 55.25 13.3 52.4 13.3 50.4 17.8
M 60.05 10.6
L 56.95 12.15 56.7 13.3 55.7 13.3 55.3 15.3 56.3 15.3 55.75 17.75
Q 55.55 18.7 55.55 18.95 55.55 19.6 56.05 20.15 56.55 20.7 57.7 20.7 58.3 20.7 59.55 20.55
L 60 18.55
Q 59.3 18.7 59.1 18.7 58.45 18.7 58.45 18.2 58.45 18 58.5 17.85
L 59.05 15.3 60.5 15.3 60.95 13.3 59.5 13.3 60.05 10.6
M 65.85 10.55
L 63.1 10.55 60.9 20.55 63.7 20.55 64.4 17.4
Q 64.65 16.3 65.1 15.75 65.55 15.15 66.15 15.15 66.7 15.15 66.7 15.75 66.7 15.95 66.45 17.2
L 65.75 20.55 68.55 20.55 69.35 16.6
Q 69.65 15.3 69.65 14.85 69.65 14.15 69.15 13.65 68.65 13.15 67.7 13.15 66.1 13.15 65.1 14.2
L 65.1 14.15 65.85 10.55
M 99.6 18.45
Q 100.1 17.45 100.1 16.4 100.1 15.1 99.2 14.1 98.3 13.15 96.35 13.15 94.95 13.15 93.9 13.7 92.85 14.3 92.3 15.3 91.8 16.35 91.8 17.45 91.8 18.85 92.7 19.8 93.6 20.7 95.5 20.7 97 20.7 98.05 20.1 99.05 19.5 99.6 18.45
M 97.4 16.3
Q 97.4 17.25 96.9 18.05 96.45 18.85 95.7 18.85 95.2 18.85 94.85 18.45 94.5 18.05 94.5 17.45 94.5 16.6 94.95 15.8 95.35 15 96.25 15 96.7 15 97.05 15.3 97.4 15.55 97.4 16.3
M 91.1 13.15
Q 90.5 13.15 90 13.45 89.5 13.8 88.85 14.75
L 89.15 13.3 86.55 13.3 85 20.55 87.8 20.55 88.4 17.85
Q 88.65 16.55 89.15 16 89.65 15.4 90.45 15.4 90.7 15.4 91.05 15.5
L 92.05 13.35
Q 91.55 13.15 91.1 13.15
M 83.7 10.85
Q 83.05 10.55 81.75 10.55
L 77.2 10.55 75.05 20.55 78.15 20.55 78.95 16.85 80.3 16.85
Q 81.95 16.85 82.9 16.45 83.8 16.1 84.45 15.2 85.05 14.35 85.05 13.2 85.05 12.35 84.7 11.75 84.35 11.15 83.7 10.85
M 81.1 12.5
Q 82.1 12.5 82.1 13.4 82.1 14 81.65 14.45 81.15 14.85 80.45 14.85
L 79.4 14.85 79.9 12.5 81.1 12.5
M 110.9 15.55
Q 110.5 16.4 110.5 17.4 110.5 18.8 111.4 19.75 112.3 20.7 114.45 20.7 115.95 20.7 116.9 20.25 117.9 19.75 118.5 18.7
L 115.8 18.45
Q 115.35 19.1 114.5 19.1 113.35 19.1 113.2 17.65
L 118.75 17.65
Q 118.95 16.6 118.95 16.2 118.95 14.9 118.05 14 117.15 13.15 115.15 13.15 114.2 13.15 113.5 13.35 112.8 13.55 112.05 14.1 111.35 14.7 110.9 15.55
M 116.15 16.3
L 113.45 16.3
Q 113.7 15.55 114.15 15.15 114.55 14.75 115.05 14.75 115.55 14.75 115.9 15.05 116.2 15.3 116.2 15.85 116.2 16.15 116.15 16.3
M 109.75 15.8
Q 109.6 14.5 108.6 13.8 107.65 13.15 106 13.15 103.7 13.15 102.4 14.45 101.15 15.75 101.15 17.6 101.15 20.7 105 20.7 108.4 20.7 109.35 17.9
L 106.75 17.6
Q 106.2 18.85 105.1 18.85 104.65 18.85 104.25 18.55 103.85 18.2 103.85 17.6 103.85 16.65 104.4 15.85 104.95 15 106 15 107.1 15 107.25 15.95
L 109.75 15.8
M 126.55 13.55
Q 125.75 13.15 124.3 13.15 123.05 13.15 122.15 13.5 121.3 13.85 120.85 14.45 120.45 15.05 120.45 15.7 120.45 16.45 121 17 121.6 17.5 123.2 17.75 123.9 17.85 124.15 17.95 124.4 18.1 124.4 18.4 124.4 18.8 124.05 19 123.7 19.2 123.25 19.2 122.25 19.2 122.1 18.3
L 119.35 18.55
Q 119.45 19.7 120.3 20.2 121.1 20.7 122.8 20.7 124.95 20.7 126 19.95 127.05 19.15 127.05 18 127.05 17.2 126.5 16.75 125.95 16.25 124.35 16 123.35 15.85 123.15 15.7 122.9 15.55 122.9 15.25 122.9 15.05 123.15 14.85 123.4 14.65 123.95 14.65 124.8 14.65 124.9 15.3
L 127.5 15.05
Q 127.3 14 126.55 13.55
M 130.6 18.3
L 127.85 18.55
Q 127.95 19.7 128.8 20.2 129.6 20.7 131.3 20.7 133.45 20.7 134.5 19.95 135.55 19.15 135.55 18 135.55 17.2 135 16.75 134.45 16.25 132.85 16 131.85 15.85 131.65 15.7 131.4 15.55 131.4 15.25 131.4 15.05 131.65 14.85 131.9 14.65 132.45 14.65 133.3 14.65 133.4 15.3
L 136 15.05
Q 135.8 14 135.05 13.55 134.25 13.15 132.8 13.15 131.55 13.15 130.65 13.5 129.8 13.85 129.35 14.45 128.95 15.05 128.95 15.7 128.95 16.45 129.5 17 130.1 17.5 131.7 17.75 132.4 17.85 132.65 17.95 132.9 18.1 132.9 18.4 132.9 18.8 132.55 19 132.2 19.2 131.75 19.2 130.75 19.2 130.6 18.3 Z"/>
</g>
</defs>

<g transform="matrix( 1, 0, 0, 1, 0,0) ">
<use xlink:href="#Layer0_0_FILL"/>
</g>
</svg>
