
<svg xmlns="http://www.w3.org/2000/svg" version="1.1" xmlns:xlink="http://www.w3.org/1999/xlink" preserveAspectRatio="none" x="0px" y="0px" width="93px" height="93px" viewBox="0 0 93 93">
<defs>
<g id="Layer0_0_FILL">
<path fill="#FFFFFF" stroke="none" d="
M 115.4 93.1
Q 101.85 79.6 82.65 79.6 63.45 79.6 49.85 93.1 36.35 106.7 36.35 125.9 36.35 143.6 47.85 156.5 48.8 157.6 49.85 158.65 63.45 172.25 82.65 172.25 101.85 172.25 115.4 158.65 116.45 157.6 117.45 156.5 129 143.6 129 125.9 129 106.7 115.4 93.1
M 92.95 85.6
L 95.6 86.4
Q 102.3 88.5 108.05 93
L 110.75 95.3
Q 116.15 100.1 119.45 106.5
L 121.35 110.65
Q 122.7 114.1 123.4 117.95
L 123.75 119.95
Q 124.2 122.95 124.2 125.9 124.25 131.15 122.9 136.2
L 122.15 138.85
Q 119.8 146.25 114.55 152.5 111.6 156.1 107.95 158.9
L 105.05 160.95 99.5 163.9
Q 95.05 165.9 90.1 166.75 80.45 168.55 71.35 165.9 64.15 163.95 58.05 159.35 50.8 154.15 46.6 146.65 42.2 139.15 41.3 130.2 41.05 128 41.05 125.85 41 121.7 41.85 117.75
L 42.45 115.15 44.2 110.05 45.35 107.6
Q 46.2126953125 105.78359375 47.3 104.05 47.436328125 103.874609375 47.55 103.7
L 49.1 101.45
Q 54.15 94.35 61.4 90.15 68.75 85.65 77.55 84.65 85.45 83.6 92.95 85.6 Z"/>

<path fill="#77AD90" stroke="none" d="
M 46.7 105.15
Q 46 106.4 45.35 107.6
L 44.2 110.05 42.45 115.15 41.85 117.75
Q 41 121.7 41.05 125.85 41.05 128 41.3 130.2 41.7 133.35 42.55 136.65 42.8 137.55 43.15 138.45 44.5 142.85 46.6 146.65 50.8 154.15 58.05 159.35 59.85 160.6 61.9 161.8 66.55 164.5 71.35 165.9 80.45 168.55 90.1 166.75 90.85 166.6 91.6 166.45 92.5 166.2 93.35 165.95 96.6 165.1 99.5 163.9
L 105.05 160.95 107.95 158.9
Q 111.6 156.1 114.55 152.5 116.7 149.75 118.55 146.6 120.75 142.8 122.15 138.85
L 122.9 136.2
Q 124.25 131.15 124.2 125.9
L 82.6 125.9 46.7 105.15 Z"/>

<path fill="#437259" stroke="none" d="
M 95.6 86.4
L 92.95 85.6
Q 85.45 83.6 77.55 84.65 74.75 85.05 71.95 85.8 66.2 87.35 61.4 90.15 54.15 94.35 49.1 101.45
L 47.55 103.7
Q 47.436328125 103.874609375 47.3 104.05 47 104.5875 46.7 105.15
L 82.6 125.9 124.2 125.9
Q 124.2 122.95 123.75 119.95
L 123.4 117.95
Q 123.1 116.5 122.75 115.1 122.1 112.8 121.35 110.65
L 119.45 106.5
Q 116.15 100.1 110.75 95.3
L 108.05 93
Q 105.85 91.4 103.35 89.95 99.5 87.75 95.6 86.4 Z"/>
</g>

<g id="Layer0_0_MEMBER_0_FILL">
<path fill="#FFFFFF" stroke="none" d="
M 90.65 116.5
L 91 114.85 92.15 114.85 92.55 112.9 91.4 112.9 92.65 107.4 90.5 107.4 84.8 112.75 84.4 114.85 88.9 114.85 88.55 116.5 90.65 116.5
M 89.9 110.1
L 89.95 110.1 89.3 112.9 86.9 112.9 89.9 110.1
M 85.95 99.65
Q 85.55 99.4 84.8 99.4 84.1 99.4 83.65 99.6 83.15 99.8 82.95 100.1 82.7 100.45 82.7 100.75 82.7 101.2 83 101.45 83.35 101.75 84.2 101.9 84.55 101.9 84.7 102 84.8 102.05 84.8 102.25 84.8 102.45 84.65 102.55 84.45 102.65 84.2 102.65 83.7 102.65 83.6 102.2
L 82.1 102.3
Q 82.2 102.9 82.65 103.2 83.05 103.45 84 103.45 85.1 103.45 85.65 103.05 86.2 102.6 86.2 102 86.2 101.6 85.95 101.35 85.65 101.05 84.8 100.95 84.25 100.85 84.15 100.8 84 100.7 84 100.55 84 100.45 84.15 100.35 84.3 100.25 84.6 100.25 85.05 100.25 85.05 100.55
L 86.45 100.45
Q 86.35 99.9 85.95 99.65
M 86.75 103.35
L 88.25 103.35 89.05 99.5 87.55 99.5 86.75 103.35
M 95.4 108.2
Q 94.45 109 93.9 110.35 93.3 111.75 93.3 113 93.3 114.75 94.15 115.7 95.05 116.65 96.4 116.65 97.8 116.65 98.8 115.8 99.85 115.05 100.4 113.65 101 112.25 101 110.85 101 109.15 100 108.3 99.05 107.4 97.7 107.4 96.4 107.4 95.4 108.2
M 98.35 109.4
Q 98.6 109.75 98.6 110.3 98.6 111.05 98.35 112.25 98.1 113.5 97.7 114.25 97.25 114.95 96.65 114.95 95.7 114.95 95.7 113.65
L 95.7 113.6
Q 95.7 112.9 95.95 111.7 96.2 110.55 96.6 109.8 97.05 109.1 97.65 109.1 98.1 109.1 98.35 109.4
M 92.65 99.5
L 92.55 100.05
Q 92.05 99.4 91.4 99.4 90.55 99.4 89.95 100.1 89.45 100.75 89.45 101.7 89.45 102.4 89.75 102.8 90.15 103.25 90.7 103.25 91.4 103.25 91.85 102.7
L 91.85 102.75 91.75 103.3
Q 91.7 103.65 91.5 103.85 91.3 104.05 91.05 104.05 90.6 104.05 90.6 103.65
L 89.2 103.45
Q 89.2 103.5 89.2 103.65 89.2 104 89.45 104.4 89.7 104.7 90.1 104.8 90.45 104.9 91.1 104.9 92.05 104.9 92.55 104.6 93 104.2 93.25 103.15
L 94.05 99.5 92.65 99.5
M 92.2 100.95
Q 92.2 101.35 92 101.8 91.8 102.2 91.4 102.2 91.15 102.2 91 102.1 90.85 101.9 90.85 101.65 90.85 101.15 91.1 100.8 91.4 100.4 91.7 100.4 91.9 100.4 92.05 100.55 92.2 100.7 92.2 100.95
M 96.3 100.1
L 96.25 100.1 96.35 99.5 95 99.5 94.15 103.35 95.65 103.35 96 101.7
Q 96.15 101.15 96.35 100.8 96.65 100.5 96.95 100.5 97.25 100.5 97.25 100.85 97.25 100.95 97.1 101.6
L 96.75 103.35 98.2 103.35 98.65 101.25
Q 98.8 100.55 98.8 100.35 98.8 99.95 98.55 99.7 98.3 99.4 97.75 99.4 96.85 99.4 96.3 100.1
M 102.8 116.95
L 104.15 116.95 111.9 107.4 110.5 107.4 102.8 116.95
M 108.05 115.05
Q 108.05 115.95 108.65 116.45 109.2 116.95 110.1 116.95 111.4 116.95 112.1 116.1 112.8 115.25 112.8 114.15 112.8 113.25 112.25 112.75 111.65 112.25 110.7 112.25 109.5 112.25 108.8 113.1 108.05 113.9 108.05 115.05
M 111.1 113.4
Q 111.25 113.55 111.25 113.85 111.25 114.6 110.95 115.3 110.65 115.95 110.15 115.95 109.9 115.95 109.8 115.8 109.65 115.6 109.65 115.3 109.65 115.05 109.8 114.35 109.95 113.75 110.2 113.5 110.45 113.3 110.75 113.3 110.95 113.3 111.1 113.4
M 106.05 107.9
Q 105.5 107.4 104.5 107.4 103.3 107.4 102.6 108.25 101.9 109 101.9 110.15 101.9 111.1 102.45 111.6 103 112.05 103.95 112.05 105.2 112.05 105.9 111.25 106.6 110.4 106.6 109.3 106.6 108.4 106.05 107.9
M 103.45 110.45
Q 103.45 110.15 103.6 109.5 103.75 108.85 104 108.65 104.25 108.45 104.5 108.45 104.7 108.45 104.9 108.55 105.05 108.7 105.05 109 105.05 109.75 104.75 110.4 104.5 111.1 103.95 111.1 103.75 111.1 103.55 110.9 103.45 110.75 103.45 110.45
M 79.9 99.4
Q 79.4 99.4 79.05 99.5 78.65 99.65 78.25 99.95 77.85 100.25 77.65 100.7 77.45 101.15 77.45 101.7 77.45 102.45 77.9 102.95 78.4 103.45 79.55 103.45 80.3 103.45 80.85 103.2 81.35 102.95 81.7 102.4
L 80.25 102.25
Q 80 102.6 79.6 102.6 78.95 102.6 78.9 101.8
L 81.8 101.8
Q 81.9 101.25 81.9 101.05 81.9 100.4 81.45 99.9 80.95 99.4 79.9 99.4
M 80.45 100.85
Q 80.45 101.05 80.45 101.1
L 79.05 101.1
Q 79.1 100.7 79.35 100.5 79.6 100.3 79.9 100.3 80.1 100.3 80.3 100.45 80.45 100.6 80.45 100.85
M 74.8 98.05
L 72.6 98.05 71.5 103.35 74.35 103.35
Q 74.9 103.35 75.5 103.1 76.15 102.85 76.6 102.05 77.05 101.25 77.05 100.3 77.05 99.3 76.5 98.65 75.95 98.05 74.8 98.05
M 75.4 100.1
Q 75.4 100.8 75.1 101.5 74.75 102.2 74.1 102.2
L 73.4 102.2 74.05 99.25 74.55 99.25
Q 75.05 99.25 75.25 99.45 75.4 99.7 75.4 100.1
M 89.4 98.05
L 87.9 98.05 87.65 99.05 89.15 99.05 89.4 98.05 Z"/>
</g>

<g id="Layer0_0_MEMBER_1_FILL">
<path fill="#FFFFFF" stroke="none" d="
M 102.45 153.75
Q 103.15 152.9 103.15 151.75 103.15 150.9 102.6 150.4 102 149.9 101.05 149.9 99.85 149.9 99.15 150.7 98.45 151.5 98.45 152.65 98.45 153.6 99 154.05 99.55 154.55 100.45 154.55 101.8 154.55 102.45 153.75
M 101.45 151.05
Q 101.6 151.2 101.6 151.5 101.6 152.25 101.3 152.9 101.05 153.6 100.5 153.6 100.25 153.6 100.15 153.4 100 153.25 100 152.9 100 152.65 100.15 152 100.3 151.4 100.55 151.15 100.8 150.9 101.1 150.9 101.3 150.9 101.45 151.05
M 102.3 145.05
L 100.85 145.05 93.15 154.55 94.5 154.55 102.3 145.05
M 91.45 137
L 91.7 135.95 90.2 135.95 90 137 91.45 137
M 92.95 145.85
Q 92.25 146.65 92.25 147.8 92.25 148.7 92.8 149.2 93.35 149.7 94.3 149.7 95.55 149.7 96.25 148.9 96.95 148.05 96.95 146.9 96.95 146 96.4 145.55 95.85 145.05 94.9 145.05 93.65 145.05 92.95 145.85
M 95.4 146.6
Q 95.4 147.35 95.1 148.05 94.85 148.7 94.3 148.7 94.1 148.7 93.95 148.55 93.8 148.4 93.8 148.05 93.8 147.8 93.95 147.15 94.1 146.5 94.35 146.3 94.6 146.05 94.9 146.05 95.1 146.05 95.25 146.2 95.4 146.3 95.4 146.6
M 95.65 137.85
Q 95.2 137.35 94.15 137.35 93.4 137.35 92.9 137.7 92.3 137.95 92 138.5 91.75 139.05 91.75 139.65 91.75 140.35 92.2 140.9 92.7 141.4 93.75 141.4 94.5 141.4 95.1 141.05 95.6 140.75 95.85 140.15 96.15 139.65 96.15 139.1 96.15 138.4 95.65 137.85
M 94.15 138.35
Q 94.35 138.35 94.5 138.5 94.7 138.65 94.7 139 94.7 139.55 94.45 140 94.25 140.35 93.8 140.35 93.55 140.35 93.35 140.15 93.15 139.95 93.15 139.65 93.15 139.2 93.4 138.75 93.65 138.35 94.15 138.35
M 100.85 137.6
Q 100.55 137.35 100.05 137.35 99.15 137.35 98.55 138.05
L 98.65 137.45 97.3 137.45 96.45 141.3 97.95 141.3 98.3 139.6
Q 98.45 139.05 98.65 138.75 98.95 138.45 99.25 138.45 99.5 138.45 99.5 138.75 99.5 138.85 99.4 139.5
L 99 141.3 100.5 141.3 100.95 139.2
Q 101.1 138.5 101.1 138.25 101.1 137.85 100.85 137.6
M 85.8 145.85
Q 84.8 146.6 84.25 148 83.7 149.35 83.7 150.6 83.7 152.4 84.55 153.3 85.4 154.25 86.75 154.25 88.15 154.25 89.15 153.45 90.2 152.65 90.8 151.3 91.35 149.85 91.35 148.45 91.35 146.8 90.4 145.9 89.4 145.05 88.05 145.05 86.75 145.05 85.8 145.85
M 88.7 147.05
Q 88.95 147.35 88.95 147.95 88.95 148.7 88.7 149.9 88.5 151.1 88.05 151.85 87.6 152.6 87.05 152.6 86.1 152.6 86.1 151.3
L 86.1 151.25
Q 86.1 150.5 86.3 149.35 86.55 148.15 86.95 147.45 87.4 146.7 88 146.7 88.5 146.7 88.7 147.05
M 83.9 138.3
Q 84 138.4 84 138.55 84 138.65 83.95 138.8 83.8 138.85 83.1 138.9 82.4 139 81.95 139.1 81.6 139.2 81.3 139.5 81 139.75 81 140.25 81 140.7 81.3 141.05 81.65 141.4 82.35 141.4 83.1 141.4 83.65 140.85 83.65 141.05 83.7 141.3
L 85.15 141.3
Q 85.05 141.05 85.05 140.75 85.05 140.45 85.2 139.65 85.45 138.85 85.45 138.45 85.45 137.95 85.05 137.65 84.65 137.35 83.5 137.35 82.5 137.35 82.05 137.65 81.55 137.95 81.4 138.5
L 82.8 138.65
Q 82.9 138.4 83.1 138.3 83.2 138.25 83.5 138.25 83.7 138.25 83.9 138.3
M 82.45 140.15
Q 82.45 140 82.65 139.9 82.8 139.75 83.8 139.6 83.7 140.1 83.45 140.35 83.2 140.55 82.9 140.55 82.7 140.55 82.55 140.45 82.45 140.35 82.45 140.15
M 89.05 141.3
L 90.55 141.3 91.35 137.45 89.9 137.45 89.05 141.3
M 88.75 138.5
L 89 137.45 88.25 137.45 88.55 136 86.9 136.85 86.75 137.45 86.25 137.45 86 138.5 86.55 138.5 86.25 139.8
Q 86.2 140.3 86.2 140.45 86.2 140.8 86.4 141.1 86.65 141.4 87.3 141.4 87.6 141.4 88.3 141.3
L 88.5 140.25
Q 88.15 140.3 88.05 140.3 87.7 140.3 87.7 140.05 87.7 139.95 87.7 139.85
L 88 138.5 88.75 138.5
M 79.75 146.55
Q 80.45 146.55 80.6 147.45
L 83 147.2
Q 82.8 146.1 82 145.6 81.2 145.05 79.95 145.05 78.5 145.05 77.45 145.85 76.4 146.6 75.9 148 75.4 149.35 75.4 150.7 75.4 152.35 76.3 153.3 77.2 154.25 78.8 154.25 80.5 154.25 81.5 153.2 82.5 152.1 82.5 150.75 82.5 149.6 81.75 148.9 81.05 148.15 80 148.15 79 148.15 78.15 148.8
L 78.1 148.8
Q 78.45 147.6 78.8 147.05 79.2 146.55 79.75 146.55
M 79.85 149.95
Q 80.15 150.25 80.15 150.6 80.15 151.75 79.7 152.25 79.25 152.75 78.8 152.75 78.3 152.75 78.05 152.45 77.75 152.1 77.75 151.5 77.75 150.65 78.15 150.15 78.6 149.65 79.1 149.65 79.6 149.65 79.85 149.95
M 73.25 137.45
L 71.8 137.45 70.95 141.3 72.45 141.3 73.25 137.45
M 79.45 137.35
Q 79.05 137.35 78.7 137.5 78.35 137.65 77.95 138 77.85 137.7 77.55 137.5 77.25 137.35 76.9 137.35 76.1 137.35 75.5 138
L 75.45 138 75.6 137.45 74.2 137.45 73.4 141.3 74.85 141.3 75.25 139.45
Q 75.4 138.9 75.65 138.65 75.9 138.45 76.1 138.45 76.4 138.45 76.4 138.75 76.4 138.8 76.4 138.9 76.4 139 76.25 139.7
L 75.9 141.3 77.35 141.3 77.75 139.6
Q 77.85 139 78.1 138.7 78.3 138.45 78.65 138.45 78.9 138.45 78.9 138.75 78.9 138.8 78.9 138.9 78.9 139 78.75 139.65
L 78.4 141.3 79.9 141.3 80.45 138.75
Q 80.5 138.55 80.5 138.3 80.5 137.9 80.25 137.65 79.95 137.35 79.45 137.35
M 68.75 138.45
Q 69 138.45 69 138.75 69 138.85 68.9 139.5
L 68.55 141.3 70 141.3 70.45 139.2
Q 70.6 138.5 70.6 138.25 70.6 137.85 70.35 137.6 70.05 137.35 69.55 137.35 68.65 137.35 68.05 138.05
L 68.15 137.45 66.8 137.45 65.95 141.3 67.45 141.3 67.8 139.6
Q 67.95 139.05 68.15 138.75 68.45 138.45 68.75 138.45
M 64.6 135.95
L 62.85 135.95 59.8 141.3 61.6 141.3 62 140.4 63.75 140.4 63.85 141.3 65.45 141.3 64.6 135.95
M 63.45 137.35
L 63.65 139.3 62.55 139.3 63.45 137.35
M 73.6 135.95
L 72.1 135.95 71.9 137 73.35 137 73.6 135.95 Z"/>
</g>
</defs>

<g transform="matrix( 1, 0, 0, 1, -36.15,-79.4) ">
<use xlink:href="#Layer0_0_FILL"/>
</g>

<g transform="matrix( 1, 0, 0, 1, -36.15,-79.4) ">
<use xlink:href="#Layer0_0_MEMBER_0_FILL"/>
</g>

<g transform="matrix( 1, 0, 0, 1, -36.15,-79.4) ">
<use xlink:href="#Layer0_0_MEMBER_1_FILL"/>
</g>
</svg>
