
<svg xmlns="http://www.w3.org/2000/svg" version="1.1" xmlns:xlink="http://www.w3.org/1999/xlink" preserveAspectRatio="none" x="0px" y="0px" width="93px" height="93px" viewBox="0 0 93 93">
<defs>
<g id="Layer1_0_FILL">
<path fill="#FFFFFF" stroke="none" d="
M 92.8 44.65
Q 92.8 44.4 92.8 44.15 92 26.5 79.25 13.7 65.7 0.15 46.5 0.15 27.3 0.15 13.7 13.7 0.15 27.3 0.15 46.5 0.15 61.3 8.25 72.75 9.85 75 11.7 77.1 12.65 78.15 13.7 79.2 27.3 92.85 46.5 92.85 65.7 92.85 79.25 79.2 80.3 78.15 81.25 77.1 83.15 75 84.75 72.75 92.3 62.05 92.8 48.35 92.85 47.45 92.85 46.5 92.85 45.55 92.8 44.65
M 83.5 27.5
Q 83.65 27.8 83.8 28.1
L 85.1 31.1
Q 88 38.1 88.1 45.45
L 88.1 46.35
Q 88.1 46.4 88.1 46.45
L 87.7 51.8
Q 87.5 53.15 87.25 54.55 87.1 55.25 86.95 55.9 86.65 57.1 86.3 58.3 86.15 58.8 85.95 59.3 83.75 66.35 79.45 71.9
L 73.3 78.25 71.85 79.4
Q 71.45 79.7 71.1 80 70.75 80.25 70.35 80.5 68.5 81.8 66.45 82.9
L 64.85 83.7
Q 57.7 87.3 50.15 87.95
L 41.35 87.75
Q 40.05 87.55 38.7 87.25
L 36.7 86.8
Q 36.2 86.7 35.75 86.6 30.35 85.1 25.75 82.45 24.15 81.6 22.7 80.6 20.8 79.3 19.1 77.75
L 17.95 76.7 13.95 72.35
Q 11.4 69.1 9.55 65.35
L 9.25 64.7
Q 5.4 57 4.95 48.85 4.85 47.6 4.85 46.4 4.85 40.1 6.9 33.95 7.25 32.9 7.65 31.85 7.75 31.5 7.9 31.2 9.15 27.85 10.95 24.85
L 13.4 21.25 17.7 16.45
Q 19.95 14.2 22.65 12.35 25.1 10.7 27.8 9.4
L 29.85 8.45
Q 33.6 6.7 37.55 5.85
L 42.65 5 45.8 4.85
Q 54.2 4.6 62.45 8.1
L 65.7 9.6
Q 66.55 10 67.35 10.45 68.95 11.35 70.4 12.4 70.95 12.75 71.45 13.15
L 72.45 13.9 77.95 19.2
Q 81.05 22.7 83.3 27.05
L 83.5 27.5 Z"/>

<path fill="#CCCCCC" stroke="none" d="
M 66.45 82.9
Q 68.5 81.8 70.35 80.5 68.85 81.5 67.25 82.4 66.85 82.65 66.45 82.9
M 10.6 67.25
Q 10.05 66.3 9.55 65.35 11.4 69.1 13.95 72.35 12.15 69.95 10.6 67.25
M 4.95 48.85
Q 4.9 47.65 4.9 46.45 4.95 41.15 6.4 35.7 6.65 34.85 6.9 33.95 4.85 40.1 4.85 46.4 4.85 47.6 4.95 48.85
M 25.8 10.5
Q 26.8 9.95 27.8 9.4 25.1 10.7 22.65 12.35 19.95 14.2 17.7 16.45 21.25 13.1 25.8 10.5
M 55.4 5.95
Q 56.3 6.15 57.25 6.4 59.95 7.15 62.45 8.1 54.2 4.6 45.8 4.85 50.55 4.85 55.4 5.95
M 86.95 55.9
Q 86.75 56.6 86.55 57.25 86.45 57.75 86.3 58.3 86.65 57.1 86.95 55.9
M 82.5 25.75
Q 82.9 26.4 83.3 27.05 81.05 22.7 77.95 19.2 80.4 22.2 82.45 25.75
L 82.5 25.75 Z"/>

<path fill="#7A503F" stroke="none" d="
M 83.8 28.1
Q 83.65 27.8 83.5 27.5
L 83.3 27.05
Q 82.9 26.4 82.5 25.75
L 82.45 25.75
Q 80.4 22.2 77.95 19.2
L 72.45 13.9 71.45 13.15
Q 70.95 12.75 70.4 12.4 68.95 11.35 67.35 10.45 66.55 10 65.7 9.6
L 62.45 8.1
Q 59.95 7.15 57.25 6.4 56.3 6.15 55.4 5.95 50.55 4.85 45.8 4.85
L 42.65 5 37.55 5.85
Q 33.6 6.7 29.85 8.45
L 27.8 9.4
Q 26.8 9.95 25.8 10.5 21.25 13.1 17.7 16.45
L 13.4 21.25 10.95 24.85
Q 9.15 27.85 7.9 31.2 7.75 31.5 7.65 31.85 7.25 32.9 6.9 33.95 6.65 34.85 6.4 35.7 4.95 41.15 4.9 46.45 4.9 47.65 4.95 48.85 5.4 57 9.25 64.7
L 9.55 65.35
Q 10.05 66.3 10.6 67.25 12.15 69.95 13.95 72.35
L 17.95 76.7 19.1 77.75
Q 20.8 79.3 22.7 80.6 24.15 81.6 25.75 82.45 30.35 85.1 35.75 86.6 36.2 86.7 36.7 86.8
L 38.7 87.25
Q 40.05 87.55 41.35 87.75
L 50.15 87.95
Q 57.7 87.3 64.85 83.7
L 66.45 82.9
Q 66.85 82.65 67.25 82.4 68.85 81.5 70.35 80.5 70.75 80.25 71.1 80 71.45 79.7 71.85 79.4
L 73.3 78.25 79.45 71.9
Q 83.75 66.35 85.95 59.3 86.15 58.8 86.3 58.3 86.45 57.75 86.55 57.25 86.75 56.6 86.95 55.9 87.1 55.25 87.25 54.55 87.5 53.15 87.7 51.8
L 88.1 46.45
Q 88.1 46.4 88.1 46.35
L 88.1 45.45
Q 88 38.1 85.1 31.1
L 83.8 28.1 Z"/>
</g>

<g id="Layer0_0_FILL">
<path fill="#FFFFFF" stroke="none" d="
M 49.35 56.7
L 47.8 56.7
Q 48 57.15 48.2 57.75
L 49.8 57.75
Q 49.65 57.25 49.35 56.7
M 40.9 59.7
L 40.9 60.9
Q 42.15 61.15 43.1 61.8
L 43.1 60.3
Q 42.15 59.8 40.9 59.7
M 41.15 57.4
L 41.15 58.6
Q 42.25 58.75 43.35 59.3
L 43.35 57.9
Q 42.4 57.45 41.15 57.4
M 45.15 56.75
L 43.55 56.75 43.55 62.4 40.8 62.4 40.8 63.55 43.55 63.55 43.55 65.7 45.15 65.7 45.15 63.55 46.05 63.55 46.05 62.4 45.15 62.4 45.15 56.75
M 54.8 61.1
L 54.8 59.9 48.3 59.9 48.3 61.05 52.4 61.05
Q 51.55 61.65 50.8 61.9
L 50.8 62.2 47.1 62.2 47.1 63.3 50.8 63.3 50.8 64.15
Q 50.85 64.65 50.3 64.65
L 49.5 64.65 49.5 65.7 51.05 65.7
Q 52.65 65.7 52.65 64.05
L 52.65 63.3 55.95 63.3 55.95 62.2 52.65 62.2 52.65 62.15
Q 53.75 61.8 54.8 61.1
M 50.8 57.75
L 52.4 57.75
Q 52.15 57.1 51.95 56.7
L 50.35 56.7
Q 50.6 57.15 50.8 57.75
M 53.55 56.7
Q 53.4 57.35 53 58.05
L 47.2 58.05 47.2 59.7 48.75 59.7 48.75 59.1 54.25 59.1 54.25 59.7 55.8 59.7 55.8 58.05 54.55 58.05
Q 54.95 57.5 55.25 56.7
L 53.55 56.7
M 66 58.25
L 66 57.15 57.6 57.15 57.6 62.4
Q 57.65 64.2 57 64.75
L 57 65.75
Q 59.45 64.75 59.35 62.15
L 59.35 58.25 66 58.25
M 65.65 59.65
L 62.6 59.65 62.6 58.65 60.9 58.65 60.9 59.65 59.65 59.65 59.65 60.8 60.9 60.8 60.9 60.9
Q 60.95 63.6 59.5 64.7
L 59.5 65.75
Q 62.7 64.5 62.6 60.8
L 64 60.8 64 63.95
Q 64.05 64.5 63.5 64.45
L 62.85 64.45 62.85 65.55 64.05 65.55
Q 65.7 65.55 65.65 64.1
L 65.65 59.65
M 37.1 57.05
L 37.1 58.15 38.15 58.15 38.15 59.15 37 59.15 37 60.2 38.1 60.2
Q 37.7 61.6 36.9 62.9
L 36.9 64.35
Q 37.7 63.6 38.15 62.8
L 38.15 65.65 39.7 65.65 39.7 62.35
Q 40.1 62.85 40.6 63.4
L 40.6 61.9
Q 40.05 61.15 39.7 60.3
L 39.7 60.2 40.7 60.2 40.7 59.15 39.7 59.15 39.7 58.15
Q 40.2 58.05 40.6 58 40.7 57.95 40.8 57.95
L 40.8 56.8
Q 39.75 57.05 39.1 57.05
L 37.1 57.05
M 31.3 57
Q 31.4 56.75 31.4 56.65
L 29.6 56.65
Q 29.55 56.75 29.5 57 29.45 57.25 29.4 57.4
L 27.4 57.4 27.4 58.5 29.05 58.5
Q 29 58.65 28.9 58.95 28.8 59.3 28.75 59.45
L 26.9 59.45 26.9 60.55 28.2 60.55
Q 28 60.95 27.95 61.1 27.85 61.25 27.85 61.3
L 27.85 62.45 33.2 62.45
Q 32.65 63.25 32.15 63.6 30.5 63.2 28.4 62.95
L 28.4 64.15
Q 31.8 64.75 34.45 65.75
L 34.45 64.3
Q 34.1 64.15 33.65 64.05 34.35 63.6 35.35 62.45
L 35.35 61.3 29.45 61.3
Q 29.65 60.95 29.9 60.55
L 36.1 60.55 36.1 59.45 30.45 59.45
Q 30.5 59.3 30.6 59.05 30.75 58.7 30.85 58.5
L 35.65 58.5 35.65 57.4 31.2 57.4
Q 31.25 57.25 31.3 57
M 22.95 44.45
L 22.95 48.2 28.75 48.2
Q 30.2 48.25 30.2 46.7
L 30.2 44.45 22.95 44.45
M 24.65 47.15
L 24.65 45.6 28.5 45.6 28.5 46.65
Q 28.55 47.2 28 47.15
L 24.65 47.15
M 25.9 39.35
L 25.9 40.2 24.7 40.2
Q 24.8 39.85 24.8 39.6
L 23.25 39.6
Q 23.15 40.75 22.4 41.5
L 22.4 42.5
Q 23.65 42.1 24.2 41.3
L 25.9 41.3 25.9 42.7 21.95 42.7 21.95 43.85 31.05 43.85 31.05 42.7 27.65 42.7 27.65 41.3 30.5 41.3 30.5 40.2 27.65 40.2 27.65 39.35 25.9 39.35
M 18.1 40.2
L 18.1 39.35 16.1 39.35 16.1 40.2 12.7 40.2 12.7 45.6
Q 12.75 46.9 12 47.4
L 12 48.45
Q 14.75 47.55 14.6 45.05
L 14.6 41.45 21.05 41.45 21.05 40.2 18.1 40.2
M 37.8 22.1
Q 38 22.55 38.2 23.15
L 39.8 23.15
Q 39.65 22.65 39.35 22.1
L 37.8 22.1
M 74.05 39.5
L 72.55 39.5
Q 73 40.6 73.2 41.5
L 74.8 41.5
Q 74.55 40.35 74.05 39.5
M 74.45 42.2
L 72 42.2 72 43.35 72.7 43.35 72.7 48.35
Q 74.3 47.8 75.7 46.85
L 75.7 45.5
Q 75.6 45.55 75.4 45.65 74.8 46.05 74.45 46.15
L 74.45 42.2
M 64.6 47.45
L 64.6 48.45
Q 66.6 47.95 67.8 47.45 69 48 71 48.4
L 71 47.45
Q 69.7 47 69 46.65 70.05 45.75 70.65 44.2
L 70.65 43.1 65 43.1 65 44.25 68.85 44.25
Q 68.2 45.35 67.8 45.75 67.3 45.25 66.8 44.6
L 65.05 44.6
Q 65.7 45.85 66.6 46.65 66.05 47 64.6 47.45
M 62.85 41.45
L 64.45 41.45
Q 64.2 40.4 63.7 39.5
L 62.2 39.5
Q 62.7 40.5 62.85 41.45
M 61.95 43.2
L 62.65 43.2 62.65 48.15
Q 64.45 47.5 65.25 46.8
L 65.25 45.55
Q 64.95 45.75 64.5 45.95 64.35 46 64.25 46.05
L 64.25 42.1 61.95 42.1 61.95 43.2
M 70 41.3
L 70 39.7 65.55 39.7 65.55 41
Q 65.65 41.85 64.7 42.1
L 64.7 42.95
Q 67.25 42.8 67.15 41.1
L 67.15 40.75 68.5 40.75 68.5 41.5
Q 68.4 42.8 69.65 42.7
L 71.05 42.7 71.05 41.65 70.45 41.65
Q 70 41.7 70 41.3
M 51.9 45
L 51.9 46.1 58.3 46.1 58.3 45 51.9 45
M 54.95 40.35
Q 54.95 40.2 54.95 39.9 55 39.6 55 39.4
L 53.2 39.4
Q 53.2 41.5 52.95 42.7
L 52.95 43.95 58.75 43.95 58.75 46.7
Q 58.75 47.25 58.2 47.25
L 56.9 47.25 56.9 48.3 58.9 48.3
Q 60.5 48.3 60.5 46.75
L 60.5 42.75 54.6 42.75 54.65 42.6
Q 54.75 41.9 54.8 41.45
L 60.85 41.45 60.85 40.35 54.95 40.35
M 48.2 48.25
L 49.55 48.25
Q 50.85 48.25 50.8 47.1
L 50.8 39.45 49.25 39.45 49.25 46.9
Q 49.25 47.25 48.9 47.25
L 48.2 47.25 48.2 48.25
M 40.95 43.1
L 40.95 42.1 37.35 42.1 37.35 41.65 36.9 41.65
Q 37.8 41.4 38.3 40.7
L 38.55 40.7
Q 38.75 41.3 38.75 41.8
L 40.15 41.8
Q 40.05 41.15 39.9 40.7
L 41 40.7 41 39.7 38.8 39.7
Q 38.9 39.5 38.9 39.3
L 37.35 39.3
Q 37 40.55 36.25 41.05
L 36.25 41.65 35.7 41.65
Q 35.6 41.2 35.45 40.7
L 36.55 40.7 36.55 39.7 34.5 39.7
Q 34.6 39.5 34.65 39.3
L 33 39.3
Q 32.8 40.45 31.95 41.05
L 31.95 41.85
Q 33.35 41.6 34 40.7
L 34.1 40.7
Q 34.25 41.2 34.25 41.85
L 35.65 41.85 35.65 42.1 32.1 42.1 32.1 43.1 35.65 43.1 35.65 43.6 32.65 43.6 32.65 46.05 34.05 46.05 34.05 44.65 35.65 44.65 34.15 46.05 34.25 46.05
Q 33.3474609375 46.782421875 32.05 47.35
L 32.05 48.35
Q 34.6 47.55 35.65 46.55
L 35.65 48.45 37.35 48.45 37.35 46.6
Q 38.35 47.55 40.95 48.35
L 40.95 47.35
Q 39.75 46.8 38.85 46.1
L 39.4 46.1
Q 40.55 46.1 40.5 44.85
L 40.5 43.6 37.35 43.6 37.35 43.1 40.95 43.1
M 38.95 44.65
L 38.95 45
Q 38.95 45.2 38.75 45.2
L 38.45 45.2 38.45 45.8
Q 37.9 45.25 37.45 44.65
L 38.95 44.65
M 48.75 40.1
L 47.3 40.1 47.3 46.45 48.75 46.45 48.75 40.1
M 46.55 41.1
Q 46.4 40.2 46 39.6
L 44.65 39.6
Q 45 40.3 45.1 41.1
L 46.55 41.1
M 46.95 42.5
L 46.95 41.4 44.4 41.4
Q 44.4 40.45 44.4 39.4
L 42.75 39.4
Q 42.75 39.75 42.8 40.45 42.8 41.1 42.8 41.4
L 41.95 41.4 41.95 42.5 42.85 42.5
Q 42.95 44 43.1 45.05 43.2 45.45 43.3 45.9 42.75 46.25 42.05 46.65
L 42.05 47.75
Q 42.15 47.7 42.4 47.6 43.35 47.25 43.75 47 44.5 48.4 45.85 48.35 47.3 48.35 47.3 46.7
L 46.15 46.7
Q 46.2 47.35 45.75 47.3 45.15 47.25 44.85 46.2 46.1 45.2 46.95 42.95
L 45.35 42.95
Q 45 43.95 44.6 44.6 44.45 43.7 44.45 42.5
L 46.95 42.5
M 45.95 28.7
L 45.95 27.6 42.65 27.6 42.65 27.55
Q 43.75 27.2 44.8 26.5
L 44.8 25.3 38.3 25.3 38.3 26.45 42.4 26.45
Q 41.55 27.05 40.8 27.3
L 40.8 27.6 37.1 27.6 37.1 28.7 40.8 28.7 40.8 29.55
Q 40.85 30.05 40.3 30.05
L 39.5 30.05 39.5 31.1 41.05 31.1
Q 42.65 31.1 42.65 29.45
L 42.65 28.7 45.95 28.7
M 53.25 27.95
L 53.25 26.8
Q 50.15 27.95 47.4 28.2
L 47.4 29.9
Q 50.7 29.35 53.25 27.95
M 52.05 26.55
L 52.05 25
Q 50.45 24.6 48.2 24.55
L 48.2 25.75
Q 50.1 25.95 52.05 26.55
M 47.4 22.55
L 47.4 23.75 53.75 23.75 53.75 29.35
Q 53.8 29.9 53.15 29.9
L 52.35 29.9 52.35 31 54.1 31
Q 55.6 30.95 55.6 29.4
L 55.6 22.55 47.4 22.55
M 40.8 23.15
L 42.4 23.15
Q 42.15 22.5 41.95 22.1
L 40.35 22.1
Q 40.6 22.55 40.8 23.15
M 45.25 22.1
L 43.55 22.1
Q 43.4 22.75 43 23.45
L 37.2 23.45 37.2 25.1 38.75 25.1 38.75 24.5 44.25 24.5 44.25 25.1 45.8 25.1 45.8 23.45 44.55 23.45
Q 44.95 22.9 45.25 22.1
M 81.1 43.3
L 81.1 42.15 78.95 42.15 78.95 39.4 77.15 39.4 77.15 42.15 75.05 42.15 75.05 43.3 77.15 43.3 77.15 48.4 78.95 48.4 78.95 43.3 81.1 43.3 Z"/>
</g>
</defs>

<g transform="matrix( 1, 0, 0, 1, 0,0) ">
<use xlink:href="#Layer1_0_FILL"/>
</g>

<g transform="matrix( 1, 0, 0, 1, 0,0) ">
<use xlink:href="#Layer0_0_FILL"/>
</g>
</svg>
