
<svg xmlns="http://www.w3.org/2000/svg" version="1.1" xmlns:xlink="http://www.w3.org/1999/xlink" preserveAspectRatio="none" x="0px" y="0px" width="93px" height="93px" viewBox="0 0 93 93">
<defs>
<g id="Layer0_0_FILL">
<path fill="#FFFFFF" stroke="none" d="
M 52.7 181.6
Q 53.65 182.65 54.7 183.7 68.3 197.35 87.5 197.35 106.7 197.35 120.25 183.7 121.3 182.65 122.25 181.6 133.85 168.7 133.85 151 133.85 131.8 120.25 118.2 106.7 104.65 87.5 104.65 68.3 104.65 54.7 118.2 41.15 131.8 41.15 151 41.15 168.7 52.7 181.6 Z"/>
</g>

<g id="Layer0_0_MEMBER_0_FILL">
<path fill="#CD6464" stroke="none" d="
M 45.85 150.9
Q 45.85 152.65 46.05 154.55 46.6 159.8 48.55 165.1 48.85 166.05 49.2 166.9 55.2 181.65 69.95 188.5 84.7 195.4 100 190.55 100.85 190.25 101.7 189.95 107 188 111.35 185
L 87.45 150.85 45.85 150.9 Z"/>

<path fill="#852D2D" stroke="none" d="
M 73.35 111.9
Q 68.05 113.85 63.65 116.85
L 87.45 150.85 111.35 185
Q 120.25 178.85 125.1 168.45
L 125.1 168.4
Q 127.4 163.5 128.4 158.55 129.1 154.7 129.1 150.85 129.1 149.1 128.9 147.3 128.45 142 126.55 136.75 123.8 129.15 118.9 123.55 113.35 117.15 105.05 113.3 89.45 106.05 73.35 111.9 Z"/>

<path fill="#D9A5A5" stroke="none" d="
M 63.65 116.85
Q 54.75 122.95 49.9 133.35
L 49.9 133.4
Q 45.85 142 45.85 150.9
L 87.45 150.85 63.65 116.85 Z"/>
</g>

<g id="Layer0_0_MEMBER_0_MEMBER_0_FILL">
<path fill="#FFFFFF" stroke="none" d="
M 119.6 152.05
Q 119.6 152.95 120.15 153.45 120.7 153.95 121.6 153.95 122.95 153.95 123.6 153.1 124.3 152.25 124.3 151.15 124.3 150.25 123.75 149.75 123.15 149.3 122.2 149.3 121 149.3 120.3 150.1 119.6 150.9 119.6 152.05
M 121.15 152.3
Q 121.15 152.05 121.3 151.4 121.45 150.75 121.7 150.55 121.95 150.3 122.25 150.3 122.45 150.3 122.6 150.45 122.75 150.55 122.75 150.85 122.75 151.6 122.45 152.3 122.15 152.95 121.65 152.95 121.4 152.95 121.3 152.8 121.15 152.65 121.15 152.3
M 116.05 144.4
Q 114.8 144.4 114.1 145.25 113.4 146.05 113.4 147.2 113.4 148.1 113.95 148.6 114.5 149.1 115.45 149.1 116.7 149.1 117.4 148.25 118.1 147.4 118.1 146.3 118.1 145.4 117.55 144.9 117 144.4 116.05 144.4
M 115.45 148.1
Q 115.25 148.1 115.1 147.95 114.95 147.75 114.95 147.45 114.95 147.2 115.1 146.5 115.25 145.85 115.5 145.65 115.75 145.45 116.05 145.45 116.25 145.45 116.4 145.55 116.55 145.7 116.55 146 116.55 146.75 116.25 147.4 116 148.1 115.45 148.1
M 116.8 137.6
Q 116.8 137.2 116.55 136.9 116.3 136.65 115.75 136.65 114.9 136.65 114.3 137.35
L 114.25 137.35 114.4 136.75 113 136.75 112.2 140.6 113.65 140.6 114.05 138.95
Q 114.15 138.35 114.4 138.05 114.65 137.75 115 137.75 115.25 137.75 115.25 138.05 115.25 138.15 115.1 138.85
L 114.75 140.6 116.25 140.6 116.65 138.5
Q 116.8 137.8 116.8 137.6
M 109.2 144.4
Q 107.9 144.4 106.95 145.2 105.95 146 105.4 147.35 104.8 148.75 104.8 150 104.8 151.8 105.7 152.7 106.55 153.65 107.9 153.65 109.3 153.65 110.3 152.85 111.35 152.05 111.9 150.65 112.5 149.25 112.5 147.85 112.5 146.15 111.55 145.3 110.55 144.4 109.2 144.4
M 109.85 146.4
Q 110.1 146.75 110.1 147.3 110.1 148.05 109.85 149.3 109.6 150.5 109.2 151.25 108.75 151.95 108.2 151.95 107.2 151.95 107.2 150.65 107.2 149.9 107.45 148.7 107.7 147.55 108.1 146.8 108.55 146.1 109.15 146.1 109.6 146.1 109.85 146.4
M 104.75 140.6
L 106.25 140.6 107.05 136.75 105.6 136.75 104.75 140.6
M 110.65 136.75
L 110.55 137.3
Q 110.1 136.65 109.4 136.65 108.55 136.65 108 137.35 107.45 138 107.45 138.95 107.45 139.6 107.8 140.05 108.15 140.45 108.75 140.45 109.4 140.45 109.9 139.95
L 109.9 140 109.75 140.55
Q 109.7 140.9 109.5 141.1 109.35 141.3 109.05 141.3 108.65 141.3 108.65 140.9
L 107.2 140.7
Q 107.2 140.75 107.2 140.85 107.2 141.25 107.45 141.6 107.7 141.95 108.1 142.05 108.45 142.15 109.15 142.15 110.05 142.15 110.55 141.8 111.05 141.45 111.25 140.35
L 112.05 136.75 110.65 136.75
M 110.2 138.2
Q 110.2 138.6 110 139.05 109.8 139.45 109.4 139.45 109.15 139.45 109.05 139.3 108.85 139.15 108.85 138.9 108.85 138.4 109.15 138.05 109.4 137.65 109.7 137.65 109.9 137.65 110.1 137.8 110.2 137.95 110.2 138.2
M 107.4 135.3
L 105.9 135.3 105.7 136.3 107.15 136.3 107.4 135.3
M 99.65 147.9
L 100.05 146.45 103.85 146.45 104.3 144.6 98.3 144.6 96.95 149.25 99.25 149.55
Q 99.75 149 100.45 149 101.4 149 101.4 150.15 101.4 150.95 101 151.5 100.5 152.1 99.9 152.1 99.35 152.1 99.05 151.8 98.8 151.45 98.8 150.8
L 96.35 151.1
Q 96.5 152.45 97.25 153 98 153.65 99.55 153.65 101.15 153.65 102.05 153.05 103 152.5 103.4 151.7 103.85 150.9 103.85 149.95 103.85 148.7 103.15 148.1 102.45 147.45 101.35 147.45 101 147.45 100.65 147.55 100.3 147.65 99.65 147.9
M 100.7 138
Q 100.7 138.45 101 138.7 101.35 139 102.2 139.15 102.55 139.15 102.7 139.2 102.8 139.3 102.8 139.5 102.8 139.7 102.65 139.8 102.45 139.9 102.25 139.9 101.7 139.9 101.6 139.4
L 100.15 139.55
Q 100.2 140.15 100.65 140.45 101.1 140.7 102 140.7 103.1 140.7 103.65 140.3 104.25 139.85 104.25 139.25 104.25 138.85 103.95 138.55 103.65 138.3 102.8 138.2 102.25 138.1 102.15 138.05 102.05 137.95 102.05 137.8 102.05 137.7 102.15 137.6 102.3 137.5 102.6 137.5 103.05 137.5 103.1 137.8
L 104.45 137.7
Q 104.35 137.1 103.95 136.9 103.55 136.65 102.8 136.65 102.1 136.65 101.65 136.85 101.2 137.05 100.95 137.35 100.7 137.7 100.7 138
M 99.95 138.25
Q 99.95 137.6 99.45 137.1 99 136.65 97.9 136.65 97.4 136.65 97.05 136.75 96.7 136.9 96.3 137.2 95.9 137.5 95.65 137.95 95.45 138.4 95.45 138.95 95.45 139.7 95.9 140.2 96.4 140.7 97.55 140.7 98.3 140.7 98.85 140.45 99.35 140.2 99.7 139.6
L 98.25 139.5
Q 98 139.8 97.6 139.8 96.95 139.8 96.9 139.05
L 99.85 139.05
Q 99.95 138.5 99.95 138.25
M 98.5 138.1
Q 98.5 138.25 98.45 138.35
L 97.05 138.35
Q 97.15 137.95 97.35 137.75 97.6 137.5 97.9 137.5 98.1 137.5 98.3 137.7 98.5 137.85 98.5 138.1
M 94.5 135.9
Q 94 135.3 92.85 135.3
L 90.65 135.3 89.5 140.6 92.35 140.6
Q 92.9 140.6 93.5 140.35 94.15 140.1 94.6 139.3 95.05 138.45 95.05 137.5 95.05 136.55 94.5 135.9
M 92.05 136.45
L 92.55 136.45
Q 93.05 136.45 93.25 136.7 93.4 136.9 93.4 137.35 93.4 138.05 93.1 138.75 92.75 139.4 92.1 139.4
L 91.4 139.4 92.05 136.45
M 123.4 144.4
L 122 144.4 114.3 153.95 115.65 153.95 123.4 144.4 Z"/>
</g>

<g id="Layer0_0_MEMBER_0_MEMBER_1_FILL">
<path fill="#FFFFFF" stroke="none" d="
M 74.15 144
Q 73.4 144.8 73.4 145.95 73.4 146.85 73.95 147.35 74.5 147.85 75.45 147.85 76.75 147.85 77.45 147.05 78.15 146.15 78.15 145.05 78.15 144.15 77.6 143.65 77 143.2 76.05 143.2 74.8 143.2 74.15 144
M 75.45 146.85
Q 75.25 146.85 75.1 146.7 75 146.55 75 146.2 75 145.95 75.1 145.3 75.3 144.65 75.5 144.45 75.75 144.2 76.05 144.2 76.25 144.2 76.45 144.35 76.6 144.45 76.6 144.75 76.6 145.5 76.3 146.2 76 146.85 75.45 146.85
M 68.1 147.85
L 69.5 147.85 77.25 138.3 75.85 138.3 68.1 147.85
M 67.9 139.15
Q 67.25 139.95 67.25 141.1 67.25 142 67.8 142.5 68.3 143 69.25 143 70.55 143 71.25 142.15 71.9 141.3 71.9 140.2 71.9 139.3 71.35 138.8 70.8 138.3 69.85 138.3 68.6 138.3 67.9 139.15
M 69.85 139.35
Q 70.05 139.35 70.2 139.45 70.4 139.6 70.4 139.9 70.4 140.65 70.1 141.3 69.8 142 69.25 142 69.05 142 68.9 141.85 68.75 141.65 68.75 141.35 68.75 141.1 68.95 140.4 69.05 139.75 69.35 139.55 69.6 139.35 69.85 139.35
M 65.2 131.95
Q 64.45 131.95 63.9 132.65 63.4 133.4 63.4 134.35 63.4 135.1 63.75 135.55 64.1 136 64.75 136 65.1 136 65.35 135.9 65.6 135.8 65.9 135.5
L 65.85 135.9 67.25 135.9 68.4 130.55 66.9 130.55 66.45 132.55
Q 66.05 131.95 65.2 131.95
M 64.85 134.35
Q 64.85 133.75 65.05 133.35 65.3 132.95 65.6 132.95 65.85 132.95 66 133.1 66.2 133.25 66.2 133.6 66.2 134.1 66 134.55 65.75 135 65.35 135 65.1 135 65 134.85 64.85 134.65 64.85 134.35
M 72.6 134.9
L 71.15 134.75
Q 70.95 135.1 70.5 135.1 69.9 135.1 69.8 134.35
L 72.75 134.35
Q 72.85 133.8 72.85 133.55 72.85 132.9 72.4 132.4 71.9 131.95 70.85 131.95 70.3 131.95 69.95 132.05 69.6 132.15 69.2 132.45 68.8 132.75 68.55 133.2 68.4 133.7 68.4 134.2 68.4 134.95 68.85 135.45 69.35 136 70.5 136 71.25 136 71.75 135.7 72.3 135.45 72.6 134.9
M 71.25 132.95
Q 71.4 133.15 71.4 133.4 71.4 133.55 71.35 133.6
L 69.95 133.6
Q 70.05 133.2 70.3 133.05 70.5 132.8 70.8 132.8 71.05 132.8 71.25 132.95
M 58.65 143.9
Q 58.65 145.7 59.5 146.6 60.35 147.55 61.75 147.55 63.1 147.55 64.15 146.75 65.15 145.95 65.75 144.55 66.3 143.15 66.3 141.75 66.3 140.05 65.35 139.2 64.35 138.3 63 138.3 61.75 138.3 60.75 139.1 59.75 139.9 59.2 141.3 58.65 142.65 58.65 143.9
M 63.7 140.3
Q 63.95 140.65 63.95 141.2 63.95 141.95 63.7 143.2 63.45 144.4 63 145.15 62.55 145.9 62 145.9 61.05 145.9 61.05 144.55 61.05 143.8 61.3 142.6 61.5 141.45 61.95 140.7 62.4 140 63 140 63.45 140 63.7 140.3
M 57.95 140.8
Q 57.95 139.75 57.15 139 56.35 138.3 54.75 138.3 53.15 138.3 52.2 139 51.25 139.65 51.05 140.95
L 53.45 141.35
Q 53.7 140 54.6 140 54.95 140 55.25 140.2 55.55 140.45 55.55 140.9 55.55 141.25 55.3 141.55 55.05 141.95 54.5 142.35
L 53.55 143
Q 52.1 144.1 51.25 145.05 50.45 146 50.2 147.4
L 57 147.4 57.45 145.35 53.9 145.35
Q 54.3 144.95 54.55 144.75 54.85 144.55 55.7 143.95 56.9 143.1 57.45 142.35 57.95 141.6 57.95 140.8
M 58.9 135.5
Q 59.4 136 60.4 136 61.2 136 61.75 135.65 62.3 135.35 62.55 134.75 62.85 134.25 62.85 133.7 62.85 133 62.35 132.45 61.9 131.95 60.85 131.95 60.1 131.95 59.55 132.25 59 132.55 58.7 133.1 58.4 133.65 58.4 134.25 58.4 134.95 58.9 135.5
M 59.85 134.25
Q 59.85 133.8 60.1 133.35 60.35 132.95 60.8 132.95 61.05 132.95 61.2 133.1 61.4 133.25 61.4 133.6 61.4 134.15 61.15 134.55 60.9 134.95 60.5 134.95 60.25 134.95 60.05 134.75 59.85 134.55 59.85 134.25
M 54.3 130.9
Q 53.6 131.4 53.25 132.15 52.85 132.95 52.85 133.7 52.85 134.75 53.5 135.35 54.1 136 55.25 136 56.35 136 57.05 135.45 57.75 134.85 57.95 134
L 56.4 133.8
Q 56.2 134.3 55.95 134.55 55.7 134.75 55.35 134.75 54.9 134.75 54.7 134.5 54.5 134.25 54.5 133.85 54.5 133.3 54.7 132.75 54.9 132.2 55.25 131.95 55.6 131.7 55.95 131.7 56.2 131.7 56.5 131.9 56.7 132.05 56.7 132.45
L 58.2 132.3
Q 58.1 131.5 57.55 131 56.95 130.45 55.95 130.45 54.95 130.45 54.3 130.9 Z"/>
</g>

<g id="Layer0_0_MEMBER_0_MEMBER_2_FILL">
<path fill="#FFFFFF" stroke="none" d="
M 100.5 177.85
Q 100.5 177 99.95 176.5 99.35 176 98.4 176 97.15 176 96.5 176.8 95.75 177.6 95.75 178.75 95.75 179.7 96.3 180.15 96.85 180.65 97.8 180.65 99.1 180.65 99.8 179.85 100.5 179 100.5 177.85
M 97.45 178.1
Q 97.65 177.5 97.85 177.25 98.1 177 98.4 177 98.6 177 98.8 177.15 98.95 177.3 98.95 177.6 98.95 178.35 98.65 179 98.35 179.7 97.85 179.7 97.6 179.7 97.45 179.5 97.35 179.35 97.35 179 97.35 178.75 97.45 178.1
M 99.6 171.15
L 98.2 171.15 90.45 180.65 91.85 180.65 99.6 171.15
M 93.7 171.65
Q 93.15 171.15 92.2 171.15 90.95 171.15 90.25 171.95 89.6 172.75 89.6 173.9 89.6 174.8 90.15 175.3 90.65 175.8 91.6 175.8 92.9 175.8 93.6 175 94.3 174.15 94.3 173 94.3 172.1 93.7 171.65
M 92.55 172.3
Q 92.75 172.4 92.75 172.7 92.75 173.45 92.45 174.15 92.15 174.8 91.6 174.8 91.4 174.8 91.25 174.65 91.1 174.5 91.1 174.15 91.1 173.9 91.3 173.25 91.4 172.6 91.7 172.4 91.95 172.15 92.2 172.15 92.4 172.15 92.55 172.3
M 90.9 164.05
L 90.05 167.9 91.55 167.9 91.9 166.2
Q 92.05 165.65 92.25 165.3 92.55 165.05 92.85 165.05 93.15 165.05 93.15 165.35 93.15 165.45 93 166.1
L 92.65 167.9 94.1 167.9 94.55 165.8
Q 94.7 165.1 94.7 164.85 94.7 164.45 94.45 164.2 94.2 163.95 93.65 163.95 92.75 163.95 92.15 164.65
L 92.25 164.05 90.9 164.05
M 85.35 171.15
Q 84.1 171.15 83.1 171.95 82.1 172.7 81.55 174.1 81 175.5 81 176.7 81 178.5 81.85 179.4 82.7 180.35 84.1 180.35 85.45 180.35 86.5 179.55 87.5 178.75 88.1 177.4 88.65 175.95 88.65 174.55 88.65 172.9 87.7 172 86.7 171.15 85.35 171.15
M 85.35 172.8
Q 85.8 172.8 86.05 173.15 86.3 173.45 86.3 174.05 86.3 174.8 86.05 176 85.8 177.2 85.35 177.95 84.9 178.7 84.35 178.7 83.4 178.7 83.4 177.4
L 83.4 177.35
Q 83.4 176.65 83.65 175.45 83.85 174.25 84.3 173.55 84.75 172.8 85.35 172.8
M 85 164.05
L 83.5 164.05 82.7 167.9 84.15 167.9 85 164.05
M 85.3 162.55
L 83.85 162.55 83.6 163.6 85.1 163.6 85.3 162.55
M 89.75 165.7
Q 89.75 165 89.3 164.45 88.8 163.95 87.75 163.95 87 163.95 86.5 164.25 85.95 164.55 85.65 165.1 85.35 165.65 85.35 166.25 85.35 166.95 85.85 167.5 86.3 168 87.35 168 88.15 168 88.7 167.65 89.2 167.35 89.5 166.75 89.75 166.25 89.75 165.7
M 87.4 166.95
Q 87.15 166.95 87 166.75 86.8 166.55 86.8 166.25 86.8 165.8 87 165.35 87.25 164.95 87.75 164.95 87.95 164.95 88.15 165.1 88.35 165.25 88.35 165.6 88.35 166.15 88.05 166.55 87.85 166.95 87.4 166.95
M 58.2 162.55
L 56.45 162.55 53.45 167.9 55.2 167.9 55.65 167 57.35 167 57.45 167.9 59.05 167.9 58.2 162.55
M 57.1 163.95
L 57.25 165.9 56.15 165.9 57.1 163.95
M 79.4 171.85
Q 78.65 171.15 77.1 171.15 75.7 171.15 74.8 171.65 73.85 172.2 73.5 173.45
L 75.75 173.85
Q 75.95 172.65 76.9 172.65 77.8 172.65 77.8 173.55 77.8 174.85 76.3 174.85
L 76.1 174.85 75.8 176.45
Q 76.15 176.4 76.25 176.4 76.75 176.4 77.05 176.7 77.3 177.05 77.3 177.5 77.3 178.05 76.95 178.45 76.65 178.85 76.05 178.85 75.05 178.85 74.85 177.55
L 72.45 177.85
Q 72.55 179 73.4 179.7 74.25 180.35 75.85 180.35 77.3 180.35 78.15 179.85 78.95 179.3 79.35 178.7 79.7 178.1 79.7 177.45 79.7 176.2 78.5 175.6 80.2 174.9 80.2 173.45 80.2 172.5 79.4 171.85
M 79.9 166.4
Q 79.8 166.9 79.8 167.05 79.8 167.4 80 167.7 80.3 168 80.9 168 81.25 168 81.9 167.9
L 82.1 166.85
Q 81.75 166.9 81.65 166.9 81.3 166.9 81.3 166.65 81.3 166.55 81.35 166.45
L 81.65 165.1 82.4 165.1 82.6 164.05 81.85 164.05 82.15 162.6 80.5 163.45 80.4 164.05 79.85 164.05 79.6 165.1 80.15 165.1 79.9 166.4
M 77.5 164.9
Q 77.6 165 77.6 165.1 77.6 165.2 77.6 165.4 77.4 165.45 76.75 165.5 76 165.6 75.6 165.7 75.2 165.8 74.9 166.1 74.6 166.35 74.6 166.85 74.6 167.3 74.9 167.6 75.25 168 75.95 168 76.7 168 77.25 167.45 77.25 167.65 77.3 167.9
L 78.75 167.9
Q 78.65 167.6 78.65 167.35 78.65 167.05 78.85 166.25 79.05 165.4 79.05 165.05 79.05 164.55 78.65 164.25 78.25 163.95 77.1 163.95 76.1 163.95 75.65 164.25 75.15 164.55 75 165.1
L 76.4 165.2
Q 76.55 165 76.7 164.9 76.85 164.85 77.1 164.85 77.3 164.85 77.5 164.9
M 76.05 166.75
Q 76.05 166.6 76.25 166.45 76.4 166.35 77.4 166.2 77.3 166.7 77.05 166.95 76.8 167.15 76.5 167.15 76.3 167.15 76.15 167.05 76.05 166.95 76.05 166.75
M 66.05 167.9
L 66.85 164.05 65.4 164.05 64.55 167.9 66.05 167.9
M 61.7 164.65
L 61.65 164.65 61.8 164.05 60.4 164.05 59.6 167.9 61.05 167.9 61.4 166.2
Q 61.55 165.65 61.8 165.3 62.05 165.05 62.35 165.05 62.65 165.05 62.65 165.35 62.65 165.45 62.5 166.1
L 62.15 167.9 63.6 167.9 64.05 165.8
Q 64.2 165.1 64.2 164.85 64.2 164.45 63.95 164.2 63.7 163.95 63.15 163.95 62.25 163.95 61.7 164.65
M 69.1 164.6
L 69.05 164.6 69.2 164.05 67.8 164.05 67 167.9 68.5 167.9 68.9 166.05
Q 69 165.5 69.25 165.25 69.5 165.05 69.75 165.05 70.05 165.05 70.05 165.3 70.05 165.4 70.05 165.5 70 165.6 69.85 166.25
L 69.5 167.9 71 167.9 71.35 166.2
Q 71.45 165.6 71.7 165.3 71.95 165.05 72.25 165.05 72.5 165.05 72.5 165.3 72.5 165.4 72.5 165.5 72.5 165.6 72.35 166.25
L 72 167.9 73.5 167.9 74.05 165.35
Q 74.1 165.1 74.1 164.9 74.1 164.5 73.85 164.25 73.55 163.95 73.05 163.95 72.65 163.95 72.35 164.05 71.95 164.25 71.55 164.6 71.45 164.3 71.2 164.1 70.9 163.95 70.5 163.95 69.75 163.95 69.1 164.6
M 66.95 163.6
L 67.2 162.55 65.7 162.55 65.5 163.6 66.95 163.6 Z"/>
</g>
</defs>

<g transform="matrix( 1, 0, 0, 1, -41,-104.5) ">
<use xlink:href="#Layer0_0_FILL"/>
</g>

<g transform="matrix( 1, 0, 0, 1, -41,-104.5) ">
<use xlink:href="#Layer0_0_MEMBER_0_FILL"/>
</g>

<g transform="matrix( 1, 0, 0, 1, -41,-104.5) ">
<use xlink:href="#Layer0_0_MEMBER_0_MEMBER_0_FILL"/>
</g>

<g transform="matrix( 1, 0, 0, 1, -41,-104.5) ">
<use xlink:href="#Layer0_0_MEMBER_0_MEMBER_1_FILL"/>
</g>

<g transform="matrix( 1, 0, 0, 1, -41,-104.5) ">
<use xlink:href="#Layer0_0_MEMBER_0_MEMBER_2_FILL"/>
</g>
</svg>
