
<svg xmlns="http://www.w3.org/2000/svg" version="1.1" xmlns:xlink="http://www.w3.org/1999/xlink" preserveAspectRatio="none" x="0px" y="0px" width="93px" height="93px" viewBox="0 0 93 93">
<defs>
<g id="Layer1_0_FILL">
<path fill="#FFFFFF" stroke="none" d="
M 81.25 77.1
Q 92.85 64.2 92.85 46.5 92.85 27.3 79.25 13.7 65.7 0.15 46.5 0.15 27.3 0.15 13.7 13.7 0.15 27.3 0.15 46.5 0.15 64.2 11.7 77.1 12.65 78.15 13.7 79.2 27.3 92.85 46.5 92.85 65.7 92.85 79.25 79.2 80.3 78.15 81.25 77.1
M 85.55 32.25
Q 87.45 37.5 87.9 42.8 88.1 44.6 88.1 46.35 88.1 50.2 87.4 54.05 86.4 59 84.1 63.9
L 84.1 63.95
Q 79.25 74.35 70.35 80.5 66 83.5 60.7 85.45 59.85 85.75 59 86.05 43.7 90.9 28.95 84 14.2 77.15 8.2 62.4 7.85 61.55 7.55 60.6 5.6 55.3 5.05 50.05 4.85 48.15 4.85 46.4 4.85 37.5 8.9 28.9
L 8.9 28.85
Q 13.75 18.45 22.65 12.35 27.05 9.35 32.35 7.4 48.45 1.55 64.05 8.8 72.35 12.65 77.9 19.05 82.8 24.65 85.55 32.25 Z"/>

<path fill="#CD6464" stroke="none" d="
M 8.2 62.4
Q 14.2 77.15 28.95 84 43.7 90.9 59 86.05 59.85 85.75 60.7 85.45 66 83.5 70.35 80.5
L 46.45 46.35 4.85 46.4
Q 4.85 48.15 5.05 50.05 5.6 55.3 7.55 60.6 7.85 61.55 8.2 62.4 Z"/>

<path fill="#D9A5A5" stroke="none" d="
M 8.9 28.9
Q 4.85 37.5 4.85 46.4
L 46.45 46.35 22.65 12.35
Q 13.75 18.45 8.9 28.85
L 8.9 28.9 Z"/>

<path fill="#852D2D" stroke="none" d="
M 87.9 42.8
Q 87.45 37.5 85.55 32.25 82.8 24.65 77.9 19.05 72.35 12.65 64.05 8.8 48.45 1.55 32.35 7.4 27.05 9.35 22.65 12.35
L 46.45 46.35 70.35 80.5
Q 79.25 74.35 84.1 63.95
L 84.1 63.9
Q 86.4 59 87.4 54.05 88.1 50.2 88.1 46.35 88.1 44.6 87.9 42.8 Z"/>
</g>

<g id="Layer0_0_FILL">
<path fill="#FFFFFF" stroke="none" d="
M 36.45 42.55
Q 37.15 41.65 37.15 40.55 37.15 39.65 36.6 39.15 36 38.7 35.05 38.7 33.8 38.7 33.15 39.5 32.4 40.3 32.4 41.45 32.4 42.35 32.95 42.85 33.5 43.35 34.45 43.35 35.75 43.35 36.45 42.55
M 35.45 39.85
Q 35.6 39.95 35.6 40.25 35.6 41 35.3 41.7 35 42.35 34.45 42.35 34.25 42.35 34.1 42.2 34 42.05 34 41.7 34 41.45 34.1 40.8 34.3 40.15 34.5 39.95 34.75 39.7 35.05 39.7 35.25 39.7 35.45 39.85
M 26.9 34.65
Q 26.25 35.45 26.25 36.6 26.25 37.5 26.8 38 27.3 38.5 28.25 38.5 29.55 38.5 30.25 37.65 30.9 36.8 30.9 35.7 30.9 34.8 30.35 34.3 29.8 33.8 28.85 33.8 27.6 33.8 26.9 34.65
M 29.4 35.4
Q 29.4 36.15 29.1 36.8 28.8 37.5 28.25 37.5 28.05 37.5 27.9 37.35 27.75 37.15 27.75 36.85 27.75 36.6 27.95 35.9 28.05 35.25 28.35 35.05 28.6 34.85 28.85 34.85 29.05 34.85 29.2 34.95 29.4 35.1 29.4 35.4
M 36.25 33.8
L 34.85 33.8 27.1 43.35 28.5 43.35 36.25 33.8
M 19.75 34.6
Q 18.75 35.4 18.2 36.8 17.65 38.15 17.65 39.4 17.65 41.2 18.5 42.1 19.35 43.05 20.75 43.05 22.1 43.05 23.15 42.25 24.15 41.45 24.75 40.05 25.3 38.65 25.3 37.25 25.3 35.55 24.35 34.7 23.35 33.8 22 33.8 20.75 33.8 19.75 34.6
M 20.95 36.2
Q 21.4 35.5 22 35.5 22.45 35.5 22.7 35.8 22.95 36.15 22.95 36.7 22.95 37.45 22.7 38.7 22.45 39.9 22 40.65 21.55 41.4 21 41.4 20.05 41.4 20.05 40.05 20.05 39.3 20.3 38.1 20.5 36.95 20.95 36.2
M 12.45 36.85
Q 12.7 35.5 13.6 35.5 13.95 35.5 14.25 35.7 14.55 35.95 14.55 36.4 14.55 36.75 14.3 37.05 14.05 37.45 13.5 37.85
L 12.55 38.5
Q 11.1 39.6 10.25 40.55 9.45 41.5 9.2 42.9
L 16 42.9 16.45 40.85 12.9 40.85
Q 13.3 40.45 13.55 40.25 13.85 40.05 14.7 39.45 15.9 38.6 16.45 37.85 16.95 37.1 16.95 36.3 16.95 35.25 16.15 34.5 15.35 33.8 13.75 33.8 12.15 33.8 11.2 34.5 10.25 35.15 10.05 36.45
L 12.45 36.85 Z"/>
</g>

<g id="Layer0_1_FILL">
<path fill="#FFFFFF" stroke="none" d="
M 181.3 25.95
L 181.3 27.05 183.15 27.05 183.15 27.75 181.4 27.75 181.4 28.85 183.15 28.85 183.15 29.7 180.95 29.7 180.95 30.7 186.9 30.7 186.9 29.7 184.8 29.7 184.8 28.85 186.55 28.85 186.55 27.75 184.8 27.75 184.8 27.05 186.75 27.05 186.75 25.95 181.3 25.95
M 178.85 24.45
L 177.85 24.45 177.85 25.45 178.8 25.45
Q 178.5 26.75 177.8 28.05
L 177.8 29.6
Q 178.5 28.7 178.85 28.15
L 178.85 31.05 180.35 31.05 180.35 27.7
Q 180.65 28.05 181.15 28.55
L 181.15 27.15
Q 180.65 26.4 180.4 25.45
L 181.2 25.45 181.2 24.45 180.35 24.45 180.35 23.45
Q 180.85 23.4 181.2 23.25
L 181.2 22.15
Q 180.4 22.4 179.75 22.4
L 178 22.4 178 23.45 178.85 23.45 178.85 24.45
M 172.8 22.05
L 172.8 22.55 170.85 22.55 170.85 26.15
Q 170.85 28.2 170.4 29.25
L 170.4 28.9
Q 169.2 29.15 167.85 29.15
L 167.85 30.25
Q 169.05 30.25 170.25 29.95
L 170.25 30.85
Q 171.35 29.95 171.75 28.9
L 171.75 31 172.8 31 172.8 28.85 173.15 28.85 173.15 30.65 173.95 30.65 173.95 28.85 174.3 28.85 174.3 30.65 175.1 30.65 175.1 28.85 175.5 28.85 175.5 29.85
Q 175.5 30 175.35 30
L 175.25 30 175.25 30.9 175.55 30.9
Q 176.7 30.95 176.65 29.85
L 176.65 25.8 172.15 25.8 172.15 25.35 175.25 25.35
Q 176.6 25.4 176.55 24.05
L 176.55 22.55 174.55 22.55 174.55 22.05 172.8 22.05
M 172.15 24.3
L 172.15 23.6 175.25 23.6 175.25 23.9
Q 175.3 24.35 174.8 24.3
L 172.15 24.3
M 175.5 26.85
L 175.5 27.8 175.1 27.8 175.1 26.85 175.5 26.85
M 172.8 26.85
L 173.15 26.85 173.15 27.8 172.8 27.8 172.8 26.85
M 173.95 27.8
L 173.95 26.85 174.3 26.85 174.3 27.8 173.95 27.8
M 170.8 23.85
L 169.55 23.85
Q 169.45 24.35 169.35 24.8 169.3 24.8 169.25 24.8 169.05 24.8 168.9 24.8 169.6 23.8 170.1 22.05
L 168.7 22.05
Q 168.45 23.7 167.8 24.8
L 167.8 25.9
Q 168.45 25.9 168.9 25.9 168.55 26.65 167.95 27.35
L 167.95 28.55
Q 169.2 28.55 170.4 28.3
L 170.4 27.2
Q 169.75 27.3 170.3 27.25 169.55 27.35 169.2 27.35 170.5 26 170.8 23.85
M 186.5 24.15
L 186.5 22.35 181.5 22.35 181.5 25.5 185.2 25.5
Q 186.55 25.5 186.5 24.15
M 183 23.4
L 185.05 23.4 185.05 24
Q 185.1 24.45 184.6 24.45
L 183 24.45 183 23.4 Z"/>
</g>

<g id="Layer0_2_FILL">
<path fill="#FFFFFF" stroke="none" d="
M 77.1 41.8
Q 77.1 40.9 76.55 40.4 76 39.9 75.05 39.9 73.8 39.9 73.1 40.75 72.4 41.55 72.4 42.7 72.4 43.6 72.95 44.1 73.5 44.6 74.45 44.6 75.7 44.6 76.4 43.75 77.1 42.9 77.1 41.8
M 73.95 42.95
Q 73.95 42.7 74.1 42 74.25 41.35 74.5 41.15 74.75 40.95 75.05 40.95 75.25 40.95 75.4 41.05 75.55 41.2 75.55 41.5 75.55 42.25 75.25 42.9 75 43.6 74.45 43.6 74.25 43.6 74.1 43.45 73.95 43.25 73.95 42.95
M 68.2 39.9
Q 66.9 39.9 65.95 40.7 64.95 41.5 64.4 42.85 63.8 44.25 63.8 45.5 63.8 47.3 64.7 48.2 65.55 49.15 66.9 49.15 68.3 49.15 69.3 48.35 70.35 47.55 70.9 46.15 71.5 44.75 71.5 43.35 71.5 41.65 70.55 40.8 69.55 39.9 68.2 39.9
M 67.1 42.3
Q 67.55 41.6 68.15 41.6 68.6 41.6 68.85 41.9 69.1 42.25 69.1 42.8 69.1 43.55 68.85 44.8 68.6 46 68.2 46.75 67.75 47.45 67.2 47.45 66.2 47.45 66.2 46.15 66.2 45.4 66.45 44.2 66.7 43.05 67.1 42.3
M 60.35 42.95
Q 60 42.95 59.65 43.05 59.3 43.15 58.65 43.4
L 59.05 41.95 62.85 41.95 63.3 40.1 57.3 40.1 55.95 44.75 58.25 45.05
Q 58.75 44.5 59.45 44.5 60.4 44.5 60.4 45.65 60.4 46.45 60 47 59.5 47.6 58.9 47.6 58.35 47.6 58.05 47.3 57.8 46.95 57.8 46.3
L 55.35 46.6
Q 55.5 47.95 56.25 48.5 57 49.15 58.55 49.15 60.15 49.15 61.05 48.55 62 48 62.4 47.2 62.85 46.4 62.85 45.45 62.85 44.2 62.15 43.6 61.45 42.95 60.35 42.95
M 82.6 48.6
Q 83.3 47.75 83.3 46.65 83.3 45.75 82.75 45.25 82.15 44.8 81.2 44.8 80 44.8 79.3 45.6 78.6 46.4 78.6 47.55 78.6 48.45 79.15 48.95 79.7 49.45 80.6 49.45 81.95 49.45 82.6 48.6
M 81.25 45.8
Q 81.45 45.8 81.6 45.95 81.75 46.05 81.75 46.35 81.75 47.1 81.45 47.8 81.15 48.45 80.65 48.45 80.4 48.45 80.3 48.3 80.15 48.15 80.15 47.8 80.15 47.55 80.3 46.9 80.45 46.25 80.7 46.05 80.95 45.8 81.25 45.8
M 82.4 39.9
L 81 39.9 73.3 49.45 74.65 49.45 82.4 39.9 Z"/>
</g>

<g id="Layer0_2_MEMBER_0_FILL">
<path fill="#FFFFFF" stroke="none" d="
M 60.05 21.95
L 60.05 23.1 60.75 23.1 60.75 28.1
Q 62.35 27.55 63.75 26.6
L 63.75 25.25
Q 63.65 25.3 63.45 25.4 62.85 25.8 62.5 25.9
L 62.5 21.95 60.05 21.95
M 53.05 22.85
L 53.05 24 56.9 24
Q 56.25 25.1 55.85 25.5 55.35 25 54.85 24.35
L 53.1 24.35
Q 53.75 25.6 54.65 26.4 54.1 26.75 52.65 27.2
L 52.65 28.2
Q 54.65 27.7 55.85 27.2 57.05 27.75 59.05 28.15
L 59.05 27.2
Q 57.75 26.75 57.05 26.4 58.1 25.5 58.7 23.95
L 58.7 22.85 53.05 22.85
M 50.9 21.2
L 52.5 21.2
Q 52.25 20.15 51.75 19.25
L 50.25 19.25
Q 50.75 20.25 50.9 21.2
M 55.2 20.85
L 55.2 20.5 56.55 20.5 56.55 21.25
Q 56.45 22.55 57.7 22.45
L 59.1 22.45 59.1 21.4 58.5 21.4
Q 58.05 21.45 58.05 21.05
L 58.05 19.45 53.6 19.45 53.6 20.75
Q 53.7 21.6 52.75 21.85
L 52.75 22.7
Q 55.3 22.55 55.2 20.85
M 50 21.85
L 50 22.95 50.7 22.95 50.7 27.9
Q 52.5 27.25 53.3 26.55
L 53.3 25.3
Q 53 25.5 52.55 25.7 52.4 25.75 52.3 25.8
L 52.3 21.85 50 21.85
M 63.1 21.9
L 63.1 23.05 65.2 23.05 65.2 28.15 67 28.15 67 23.05 69.15 23.05 69.15 21.9 67 21.9 67 19.15 65.2 19.15 65.2 21.9 63.1 21.9
M 62.85 21.25
Q 62.6 20.1 62.1 19.25
L 60.6 19.25
Q 61.05 20.35 61.25 21.25
L 62.85 21.25 Z"/>
</g>

<g id="Layer0_3_FILL">
<path fill="#FFFFFF" stroke="none" d="
M 59.5 73.35
Q 59.5 72.5 58.95 72 58.35 71.5 57.4 71.5 56.15 71.5 55.5 72.3 54.75 73.1 54.75 74.25 54.75 75.2 55.3 75.65 55.85 76.15 56.8 76.15 58.1 76.15 58.8 75.35 59.5 74.5 59.5 73.35
M 56.45 73.6
Q 56.65 73 56.85 72.75 57.1 72.5 57.4 72.5 57.6 72.5 57.8 72.65 57.95 72.8 57.95 73.1 57.95 73.85 57.65 74.5 57.35 75.2 56.85 75.2 56.6 75.2 56.45 75 56.35 74.85 56.35 74.5 56.35 74.25 56.45 73.6
M 58.6 66.65
L 57.2 66.65 49.45 76.15 50.85 76.15 58.6 66.65
M 48.6 69.4
Q 48.6 70.3 49.15 70.8 49.65 71.3 50.6 71.3 51.9 71.3 52.6 70.5 53.3 69.65 53.3 68.5 53.3 67.6 52.7 67.15 52.15 66.65 51.2 66.65 49.95 66.65 49.25 67.45 48.6 68.25 48.6 69.4
M 50.6 70.3
Q 50.4 70.3 50.25 70.15 50.1 70 50.1 69.65 50.1 69.4 50.3 68.75 50.4 68.1 50.7 67.9 50.95 67.65 51.2 67.65 51.4 67.65 51.55 67.8 51.75 67.9 51.75 68.2 51.75 68.95 51.45 69.65 51.15 70.3 50.6 70.3
M 44.35 66.65
Q 43.1 66.65 42.1 67.45 41.1 68.2 40.55 69.6 40 71 40 72.2 40 74 40.85 74.9 41.7 75.85 43.1 75.85 44.45 75.85 45.5 75.05 46.5 74.25 47.1 72.9 47.65 71.45 47.65 70.05 47.65 68.4 46.7 67.5 45.7 66.65 44.35 66.65
M 45.05 68.65
Q 45.3 68.95 45.3 69.55 45.3 70.3 45.05 71.5 44.8 72.7 44.35 73.45 43.9 74.2 43.35 74.2 42.4 74.2 42.4 72.9
L 42.4 72.85
Q 42.4 72.15 42.65 70.95 42.85 69.75 43.3 69.05 43.75 68.3 44.35 68.3 44.8 68.3 45.05 68.65
M 38.4 67.35
Q 37.65 66.65 36.1 66.65 34.7 66.65 33.8 67.15 32.85 67.7 32.5 68.95
L 34.75 69.35
Q 34.95 68.15 35.9 68.15 36.8 68.15 36.8 69.05 36.8 70.35 35.3 70.35
L 35.1 70.35 34.8 71.95
Q 35.15 71.9 35.25 71.9 35.75 71.9 36.05 72.2 36.3 72.55 36.3 73 36.3 73.55 35.95 73.95 35.65 74.35 35.05 74.35 34.05 74.35 33.85 73.05
L 31.45 73.35
Q 31.55 74.5 32.4 75.2 33.25 75.85 34.85 75.85 36.3 75.85 37.15 75.35 37.95 74.8 38.35 74.2 38.7 73.6 38.7 72.95 38.7 71.7 37.5 71.1 39.2 70.4 39.2 68.95 39.2 68 38.4 67.35 Z"/>
</g>

<g id="Layer0_3_MEMBER_0_FILL">
<path fill="#FFFFFF" stroke="none" d="
M 46.25 63.55
L 49.9 63.55
Q 51.1 63.55 51.1 62.1
L 51.1 58.5 46.25 58.5 46.25 63.55
M 47.55 61.5
L 48.05 61.5 48.05 62.5 47.55 62.5 47.55 61.5
M 47.55 60.5
L 47.55 59.5 48.05 59.5 48.05 60.5 47.55 60.5
M 49.3 60.5
L 49.3 59.5 49.8 59.5 49.8 60.5 49.3 60.5
M 49.3 61.5
L 49.8 61.5 49.8 62.05
Q 49.8 62.5 49.4 62.5
L 49.3 62.5 49.3 61.5
M 52.9 58.8
L 51.45 58.8 51.45 63.5
Q 51.5 64.1 50.9 64.1
L 45.9 64.1 45.9 58.7 44.45 58.7 44.45 65.15 51.45 65.15
Q 53 65.2 52.9 63.8
L 52.9 58.8
M 53.15 58.05
L 53.15 56.9 44.2 56.9 44.2 58.05 53.15 58.05
M 34.1 59.35
L 34.1 60.45 35.15 60.45
Q 34.95 61.8 34.15 63.2
L 34.15 64.45
Q 36 64.45 37.25 64.25 37.25 64.45 37.3 64.55
L 38.3 64.55 38.3 65.55
Q 39.75 64.3 40.15 63 40.7 61.65 40.7 58.75
L 41.45 58.75 41.45 63.9
Q 41.45 64.3 41.05 64.3
L 40.5 64.3 40.5 65.35 41.6 65.35
Q 43.05 65.35 43.05 63.9
L 43.05 57.7 40.75 57.7 40.75 56.45 39.2 56.45 39.2 57.7 38.55 57.7 38.55 58.75 39.2 58.75
Q 39.2 62.45 38.5 63.75 38.2 62.5 37.85 61.4
L 36.6 61.4
Q 36.65 61.55 36.75 61.85 36.95 62.75 37.05 63.15 36.4 63.2 35.55 63.2 36.4 62.15 36.8 60.45
L 38.5 60.45 38.5 59.35 34.1 59.35
M 34.55 57
L 34.55 58.1 38.2 58.1 38.2 57 34.55 57 Z"/>
</g>
</defs>

<g transform="matrix( 1, 0, 0, 1, 0,0) ">
<use xlink:href="#Layer1_0_FILL"/>
</g>

<g transform="matrix( 1, 0, 0, 1, 0,0) ">
<use xlink:href="#Layer0_0_FILL"/>
</g>

<g transform="matrix( 1, 0, 0, 1, -156.25,1.45) ">
<use xlink:href="#Layer0_1_FILL"/>
</g>

<g transform="matrix( 1, 0, 0, 1, -3.35,-0.8) ">
<use xlink:href="#Layer0_2_FILL"/>
</g>

<g transform="matrix( 1.45953369140625, 0, 0, 1.45953369140625, -21,-4.45) ">
<use xlink:href="#Layer0_2_MEMBER_0_FILL"/>
</g>

<g transform="matrix( 1, 0, 0, 1, -9.3,2) ">
<use xlink:href="#Layer0_3_FILL"/>
</g>

<g transform="matrix( 1.422576904296875, 0, 0, 1.422576904296875, -25.4,-26.5) ">
<use xlink:href="#Layer0_3_MEMBER_0_FILL"/>
</g>
</svg>
