
<svg xmlns="http://www.w3.org/2000/svg" version="1.1" xmlns:xlink="http://www.w3.org/1999/xlink" preserveAspectRatio="none" x="0px" y="0px" width="93px" height="93px" viewBox="0 0 93 93">
<defs>
<g id="Layer0_0_FILL">
<path fill="#FFFFFF" stroke="none" d="
M 228.05 172.65
Q 228.1 171.7 228.1 170.75 228.1 169.8 228.05 168.9 228.05 168.65 228.05 168.45 227.25 150.75 214.5 137.95 200.95 124.45 181.75 124.45 162.55 124.45 148.95 137.95 135.4 151.55 135.4 170.75 135.4 185.6 143.5 197 145.1 199.25 146.95 201.35 147.9 202.45 148.95 203.5 162.55 217.1 181.75 217.1 200.95 217.1 214.5 203.5 215.55 202.45 216.5 201.35 218.45 199.25 220 197 227.55 186.3 228.05 172.65
M 207.7 138.15
L 213.2 143.45
Q 216.2240234375 146.95625 218.4 151.15
L 220.35 155.35
Q 223.25 162.35 223.35 169.75
L 223.35 170.6
Q 223.35 170.65 223.35 170.75
L 222.95 176.1
Q 222.75 177.45 222.5 178.8 222.35 179.5 222.2 180.15 221.974609375 181.0515625 221.7 182
L 221.65 182.05 221.6 182.4
Q 221.55 182.5 221.55 182.55 221.4 183.05 221.2 183.55 219 190.65 214.7 196.15
L 208.55 202.55 207.1 203.7
Q 206.75 203.95 206.35 204.25
L 206.2 204.4
Q 205.9 204.55 205.6 204.75 205.1 205.1 204.65 205.45
L 203.15 206.35
Q 202.8205078125 206.52578125 202.5 206.7 202.092578125 206.92578125 201.7 207.15
L 200.1 208
Q 192.95 211.55 185.4 212.2
L 176.65 212
Q 175.3 211.8 173.95 211.55
L 171.95 211.1
Q 171.45 211 171 210.85 165.6 209.35 161 206.75 159.4 205.9 157.95 204.85 156.05 203.55 154.35 202
L 153.2 200.95 149.2 196.6
Q 146.65 193.4 144.8 189.6
L 144.5 188.95
Q 140.65 181.25 140.2 173.1 140.1 171.85 140.1 170.65 140.1 164.4 142.15 158.25 142.25 157.95 142.35 157.7 142.6 156.9 142.9 156.15 143 155.8 143.15 155.45 144.45 152.1 146.2 149.15
L 148.65 145.5 152.95 140.75
Q 155.2 138.45 157.9 136.6 161.25 134.35 165.1 132.7 168.85 130.95 172.8 130.1
L 181.05 129.1
Q 189.45 128.85 197.7 132.4
L 201 133.9
Q 201.8 134.3 202.6 134.7 204.2 135.65 205.7 136.65 206.2 137 206.7 137.4
L 207.7 138.15
M 195.9 190.05
Q 195.3 190.05 194.85 190.2 194.45 190.3 194 190.65 193.55 191.05 193.3 191.55 193 192.1 193 192.7 193 193.55 193.6 194.15 194.15 194.75 195.45 194.75 196.4 194.75 197 194.45 197.6 194.15 198 193.5
L 196.3 193.35
Q 196 193.75 195.5 193.75 194.75 193.75 194.7 192.85
L 198.1 192.85
Q 198.25 192.2 198.25 191.95 198.25 191.15 197.7 190.6 197.15 190.05 195.9 190.05
M 196.4 191.25
Q 196.55 191.4 196.55 191.75 196.55 191.9 196.55 192
L 194.85 192
Q 195 191.55 195.25 191.3 195.5 191.05 195.85 191.05 196.15 191.05 196.4 191.25
M 186.4 191.45
Q 186.55 191.45 186.75 191.55
L 187.35 190.2
Q 187.1 190.05 186.8 190.05 186.4 190.05 186.1 190.25 185.85 190.5 185.45 191.05
L 185.4 191.05 185.6 190.15 184 190.15 183.05 194.65 184.75 194.65 185.1 192.95
Q 185.25 192.2 185.6 191.8 185.9 191.45 186.4 191.45
M 191.9 190.6
Q 191.4 190.05 190.1 190.05 189.55 190.05 189.1 190.2 188.65 190.3 188.2 190.65 187.75 191.05 187.5 191.55 187.25 192.1 187.25 192.7 187.25 193.55 187.8 194.15 188.35 194.75 189.65 194.75 190.6 194.75 191.2 194.45 191.8 194.15 192.2 193.5
L 190.55 193.35
Q 190.25 193.75 189.75 193.75 189 193.75 188.9 192.85
L 192.35 192.85
Q 192.45 192.2 192.45 191.95 192.45 191.15 191.9 190.6
M 190.6 191.25
Q 190.8 191.4 190.8 191.75 190.8 191.9 190.75 192
L 189.1 192
Q 189.2 191.55 189.5 191.3 189.75 191.05 190.05 191.05 190.35 191.05 190.6 191.25
M 189.85 174.95
L 188.15 174.95 186.8 181.2 188.55 181.2 189.85 174.95
M 201.65 179.95
Q 201.75 180.65 202.25 181 202.7 181.3 203.8 181.3 205.1 181.3 205.75 180.8 206.4 180.3 206.4 179.6 206.4 179.1 206.05 178.8 205.75 178.5 204.75 178.35 204.15 178.3 204 178.2 203.85 178.05 203.85 177.9 203.85 177.75 204 177.65 204.15 177.55 204.5 177.55 205 177.55 205.1 177.9
L 206.7 177.75
Q 206.6 177.1 206.1 176.85 205.6 176.6 204.7 176.6 203.95 176.6 203.4 176.8 202.85 177 202.6 177.4 202.3 177.75 202.3 178.15 202.3 178.65 202.7 179 203.05 179.25 204.05 179.45 204.45 179.5 204.6 179.55 204.8 179.65 204.8 179.85 204.8 180.1 204.55 180.2 204.35 180.3 204.05 180.3 203.45 180.3 203.35 179.8
L 201.65 179.95
M 194.5 177.2
Q 194 176.6 192.75 176.6 191.85 176.6 191.25 176.95 190.6 177.3 190.25 177.9 189.95 178.6 189.95 179.25 189.95 180.15 190.5 180.7 191.05 181.3 192.25 181.3 193.15 181.3 193.8 180.9 194.45 180.5 194.75 179.9 195.05 179.25 195.05 178.6 195.05 177.8 194.5 177.2
M 193.2 177.9
Q 193.4 178.1 193.4 178.5 193.4 179.15 193.1 179.65 192.85 180.15 192.35 180.15 192.05 180.15 191.8 179.85 191.6 179.65 191.6 179.25 191.6 178.75 191.85 178.25 192.15 177.75 192.7 177.75 192.95 177.75 193.2 177.9
M 199.15 178.05
L 199.8 176.7
Q 199.5 176.6 199.2 176.6 198.85 176.6 198.55 176.75 198.25 177 197.85 177.6
L 197.8 177.55 198 176.7 196.4 176.7 195.45 181.2 197.15 181.2 197.55 179.5
Q 197.7 178.7 198 178.35 198.3 178 198.8 178 198.95 178 199.15 178.05
M 202 174.95
L 200.3 174.95 200.05 176 200.1 177.25 201.3 177.25 201.6 176.45
Q 201.8 176 201.8 175.9
L 202 174.95
M 181.2 190.15
L 181.05 190.8
Q 180.5 190.05 179.7 190.05 178.7 190.05 178.05 190.85 177.4 191.65 177.4 192.7 177.4 193.5 177.8 194 178.25 194.5 178.95 194.5 179.7 194.5 180.25 193.9
L 180.3 193.9 180.1 194.6
Q 180 195 179.8 195.25 179.6 195.45 179.3 195.45 178.85 195.45 178.8 195
L 177.15 194.75
Q 177.15 194.8 177.15 195 177.15 195.45 177.45 195.85 177.75 196.25 178.15 196.35 178.6 196.45 179.35 196.45 180.45 196.45 181.05 196.05 181.6 195.65 181.9 194.4
L 182.75 190.15 181.2 190.15
M 179.4 191.65
Q 179.7 191.2 180.1 191.2 180.3 191.2 180.5 191.4 180.65 191.55 180.65 191.8 180.65 192.3 180.4 192.8 180.2 193.35 179.7 193.35 179.4 193.35 179.25 193.15 179.1 192.95 179.1 192.65 179.1 192.1 179.4 191.65
M 171.4 192.7
Q 171.4 193.55 171.95 194.15 172.5 194.75 173.85 194.75 174.75 194.75 175.4 194.45 175.95 194.15 176.35 193.5
L 174.7 193.35
Q 174.4 193.75 173.9 193.75 173.15 193.75 173.1 192.85
L 176.5 192.85
Q 176.65 192.2 176.65 191.95 176.65 191.15 176.05 190.6 175.55 190.05 174.25 190.05 173.7 190.05 173.25 190.2 172.8 190.3 172.35 190.65 171.95 191.05 171.65 191.55 171.4 192.1 171.4 192.7
M 173.65 191.3
Q 173.9 191.05 174.25 191.05 174.5 191.05 174.75 191.25 174.95 191.4 174.95 191.75 174.95 191.9 174.9 192
L 173.25 192
Q 173.35 191.55 173.65 191.3
M 171.4 188.45
L 169.7 188.45 169.2 190.75
Q 168.7 190.05 167.75 190.05 166.85 190.05 166.2 190.9 165.6 191.75 165.6 192.9 165.6 193.75 166 194.25 166.4 194.75 167.2 194.75 167.6 194.75 167.9 194.65 168.2 194.5 168.55 194.2
L 168.6 194.2 168.5 194.65 170.1 194.65 171.4 188.45
M 168.2 191.2
Q 168.5 191.2 168.7 191.4 168.85 191.6 168.85 192 168.85 192.55 168.6 193.1 168.35 193.65 167.9 193.65 167.6 193.65 167.45 193.45 167.3 193.25 167.3 192.85 167.3 192.2 167.55 191.7 167.8 191.2 168.2 191.2
M 163.25 175.75
Q 163.1 175.45 162.75 175.25 162.45 175.05 162.15 175.05 161.8 174.95 161.25 174.95
L 158.4 174.95 157.1 181.2 160.9 181.2
Q 162.05 181.2 162.65 180.6 163.25 180 163.25 179.25 163.25 178.2 162.25 177.9 162.9 177.75 163.15 177.35 163.4 176.9 163.4 176.4 163.4 176.05 163.25 175.75
M 160.05 176.2
L 160.85 176.2
Q 161.3 176.2 161.5 176.35 161.65 176.5 161.65 176.7 161.65 176.9 161.5 177.1 161.35 177.25 161.1 177.35 160.9 177.4 160.45 177.4
L 159.8 177.4 160.05 176.2
M 159.55 178.6
L 160.6 178.6
Q 161.1 178.6 161.25 178.7 161.4 178.9 161.4 179.15 161.4 179.85 160.35 179.85
L 159.3 179.85 159.55 178.6
M 167.25 177.7
Q 167.45 177.8 167.45 177.95 167.45 178.1 167.35 178.3 167.1 178.35 166.4 178.4 165.5 178.5 165.05 178.6 164.55 178.75 164.2 179.05 163.9 179.35 163.9 179.95 163.9 180.5 164.25 180.9 164.65 181.3 165.5 181.3 166.3 181.3 167 180.65 167 180.9 167.05 181.2
L 168.75 181.2
Q 168.6 180.85 168.6 180.55 168.6 180.2 168.85 179.25 169.05 178.3 169.05 177.9 169.05 177.25 168.6 176.9 168.15 176.6 166.8 176.6 165.65 176.6 165.1 176.95 164.55 177.25 164.35 177.9
L 166 178.1
Q 166.1 177.8 166.3 177.7 166.45 177.6 166.8 177.6 167.05 177.6 167.25 177.7
M 165.55 179.85
Q 165.55 179.65 165.8 179.5 166 179.35 167.15 179.15 167.05 179.85 166.75 180.1 166.4 180.35 166.1 180.35 165.85 180.35 165.7 180.2 165.55 180.1 165.55 179.85
M 173.55 178.3
L 175.1 178.25
Q 175 177.45 174.4 177 173.75 176.6 172.75 176.6 171.35 176.6 170.55 177.4 169.75 178.2 169.75 179.35 169.75 181.3 172.15 181.3 174.25 181.3 174.85 179.55
L 173.25 179.35
Q 172.9 180.15 172.2 180.15 171.95 180.15 171.7 179.95 171.45 179.75 171.45 179.35 171.45 178.8 171.8 178.25 172.15 177.75 172.75 177.75 173.45 177.75 173.55 178.3
M 182.2 177.2
Q 181.8 177.55 181.5 178.1 181.25 178.6 181.25 179.2 181.25 180.1 181.8 180.7 182.4 181.3 183.7 181.3 184.6 181.3 185.25 181 185.85 180.7 186.2 180.05
L 184.55 179.85
Q 184.25 180.3 183.75 180.3 183 180.3 182.95 179.35
L 186.35 179.35
Q 186.5 178.75 186.5 178.5 186.5 177.65 185.95 177.15 185.4 176.6 184.1 176.6 183.55 176.6 183.1 176.7 182.65 176.85 182.2 177.2
M 183.5 177.85
Q 183.75 177.6 184.1 177.6 184.4 177.6 184.6 177.75 184.8 177.9 184.8 178.3 184.8 178.45 184.8 178.55
L 183.1 178.55
Q 183.25 178.05 183.5 177.85
M 177.8 177.25
L 177.8 177.2 178.25 174.95 176.55 174.95 175.2 181.2 176.95 181.2 177.4 179.25
Q 177.5 178.55 177.8 178.2 178.05 177.85 178.45 177.85 178.8 177.85 178.8 178.2 178.8 178.3 178.65 179.05
L 178.2 181.2 179.9 181.2 180.45 178.7
Q 180.6 177.9 180.6 177.65 180.6 177.2 180.3 176.9 180 176.6 179.4 176.6 178.45 176.6 177.8 177.25
M 177.45 165.9
Q 177.6 165.25 177.6 165 177.6 164.2 177 163.65 176.5 163.1 175.2 163.1 174.65 163.1 174.2 163.25 173.75 163.35 173.3 163.75 172.9 164.1 172.6 164.6 172.35 165.15 172.35 165.75 172.35 166.6 172.9 167.2 173.45 167.8 174.8 167.8 175.7 167.8 176.35 167.5 176.9 167.2 177.3 166.55
L 175.65 166.4
Q 175.35 166.8 174.85 166.8 174.1 166.8 174.05 165.9
L 177.45 165.9
M 174.2 165.1
Q 174.35 164.6 174.6 164.35 174.85 164.1 175.2 164.1 175.5 164.1 175.7 164.3 175.9 164.45 175.9 164.8 175.9 165 175.85 165.1
L 174.2 165.1
M 170.65 161.5
L 170.15 163.8
Q 169.65 163.1 168.7 163.1 167.8 163.1 167.15 163.95 166.55 164.8 166.55 165.95 166.55 166.8 166.95 167.3 167.35 167.8 168.15 167.8 168.55 167.8 168.85 167.7 169.15 167.55 169.5 167.25
L 169.55 167.25 169.45 167.7 171.05 167.7 172.35 161.5 170.65 161.5
M 168.25 165.9
Q 168.25 165.25 168.5 164.75 168.75 164.25 169.15 164.25 169.45 164.25 169.65 164.45 169.85 164.65 169.85 165.05 169.85 165.6 169.55 166.15 169.3 166.7 168.85 166.7 168.6 166.7 168.4 166.5 168.25 166.3 168.25 165.9
M 165.05 154.25
L 165.4 152.7 162.3 152.7 163.3 148 161.4 148 160.05 154.25 165.05 154.25
M 171.25 151.55
Q 171.25 150.7 170.7 150.2 170.15 149.65 168.85 149.65 168.3 149.65 167.85 149.75 167.45 149.9 166.95 150.25 166.55 150.6 166.3 151.15 166 151.65 166 152.25 166 153.15 166.55 153.75 167.15 154.35 168.45 154.35 169.35 154.35 170 154.05 170.6 153.75 171 153.1
L 169.3 152.9
Q 169 153.35 168.5 153.35 167.75 153.35 167.7 152.45
L 171.1 152.45
Q 171.25 151.8 171.25 151.55
M 169.35 150.8
Q 169.55 151 169.55 151.35 169.55 151.5 169.55 151.6
L 167.85 151.6
Q 168 151.1 168.25 150.9 168.5 150.65 168.85 150.65 169.15 150.65 169.35 150.8
M 175.05 150.75
Q 175.25 150.85 175.25 151 175.25 151.15 175.2 151.35 174.9 151.4 174.2 151.45 173.35 151.55 172.85 151.65 172.35 151.8 172.05 152.1 171.7 152.45 171.7 153 171.7 153.55 172.05 153.95 172.45 154.35 173.3 154.35 174.15 154.35 174.8 153.7 174.8 153.95 174.9 154.25
L 176.55 154.25
Q 176.45 153.9 176.45 153.6 176.45 153.25 176.65 152.35 176.9 151.35 176.9 150.95 176.9 150.3 176.45 149.95 175.95 149.65 174.6 149.65 173.45 149.65 172.9 150 172.35 150.3 172.2 151
L 173.8 151.15
Q 173.95 150.85 174.15 150.75 174.3 150.65 174.6 150.65 174.9 150.65 175.05 150.75
M 173.35 152.9
Q 173.35 152.7 173.6 152.55 173.8 152.45 175 152.25 174.9 152.9 174.55 153.15 174.25 153.4 173.95 153.4 173.65 153.4 173.55 153.3 173.35 153.15 173.35 152.9
M 181.7 149.75
Q 181.4 149.65 181.1 149.65 180.75 149.65 180.45 149.85 180.15 150.05 179.75 150.65
L 179.7 150.6 179.9 149.75 178.3 149.75 177.35 154.25 179.05 154.25 179.4 152.55
Q 179.6 151.75 179.9 151.4 180.2 151.05 180.7 151.05 180.85 151.05 181.05 151.1
L 181.7 149.75
M 196.95 163.45
Q 196.65 163.1 196 163.1 195 163.1 194.25 163.9
L 194.4 163.2 192.8 163.2 191.85 167.7 193.6 167.7 194 165.75
Q 194.15 165.1 194.45 164.7 194.7 164.35 195.1 164.35 195.4 164.35 195.4 164.75 195.4 164.85 195.25 165.6
L 194.85 167.7 196.55 167.7 197.05 165.25
Q 197.25 164.45 197.25 164.2 197.25 163.75 196.95 163.45
M 185.9 163.2
L 184.2 163.2 183.2 167.7 184.95 167.7 185.9 163.2
M 182.6 166.15
Q 182.6 165.65 182.3 165.35 181.95 165.05 180.95 164.9 180.35 164.8 180.2 164.7 180.1 164.6 180.1 164.45 180.1 164.3 180.2 164.15 180.35 164.05 180.7 164.05 181.25 164.05 181.3 164.45
L 182.9 164.3
Q 182.8 163.65 182.3 163.35 181.8 163.1 180.95 163.1 180.15 163.1 179.6 163.35 179.05 163.55 178.8 163.95 178.55 164.3 178.55 164.7 178.55 165.15 178.9 165.5 179.25 165.8 180.25 165.95 180.65 166.05 180.85 166.1 181 166.2 181 166.4 181 166.6 180.75 166.75 180.55 166.85 180.3 166.85 179.65 166.85 179.55 166.3
L 177.85 166.45
Q 177.95 167.2 178.45 167.5 178.95 167.8 180 167.8 181.35 167.8 182 167.3 182.6 166.8 182.6 166.15
M 186.05 162.7
L 186.25 161.5 184.55 161.5 184.3 162.7 186.05 162.7
M 191.65 163.2
L 190.05 163.2 189.9 163.85
Q 189.4 163.1 188.55 163.1 187.55 163.1 186.9 163.9 186.3 164.7 186.3 165.75 186.3 166.55 186.7 167.05 187.1 167.55 187.8 167.55 188.55 167.55 189.1 166.95
L 189.15 166.95 189 167.65
Q 188.9 168.05 188.7 168.3 188.5 168.5 188.15 168.5 187.7 168.5 187.65 168.05
L 186.05 167.8
Q 186.05 167.85 186.05 168.05 186.05 168.5 186.3 168.9 186.6 169.3 187.05 169.4 187.45 169.5 188.25 169.5 189.35 169.5 189.9 169.1 190.5 168.7 190.75 167.45
L 191.65 163.2
M 188.95 164.25
Q 189.2 164.25 189.4 164.45 189.55 164.6 189.55 164.9 189.55 165.35 189.3 165.85 189.05 166.4 188.6 166.4 188.3 166.4 188.15 166.2 187.95 166.05 187.95 165.7 187.95 165.15 188.25 164.7 188.55 164.25 188.95 164.25
M 186.85 150.7
Q 186.85 150.25 186.55 149.95 186.25 149.65 185.65 149.65 184.6 149.65 183.9 150.4
L 184 149.75 182.4 149.75 181.45 154.25 183.2 154.25 183.65 152.3
Q 183.75 151.6 184.05 151.25 184.3 150.9 184.7 150.9 185.05 150.9 185.05 151.25 185.05 151.35 184.9 152.15
L 184.45 154.25 186.15 154.25 186.7 151.75
Q 186.85 151 186.85 150.7
M 195.5 150.95
Q 195.5 150.3 195.05 149.95 194.55 149.65 193.2 149.65 192.05 149.65 191.5 150 190.95 150.3 190.8 151
L 192.4 151.15
Q 192.55 150.85 192.75 150.75 192.9 150.65 193.2 150.65 193.5 150.65 193.65 150.75 193.85 150.85 193.85 151 193.85 151.15 193.8 151.35 193.5 151.4 192.8 151.45 191.95 151.55 191.45 151.65 190.95 151.8 190.65 152.1 190.3 152.45 190.3 153 190.3 153.55 190.65 153.95 191.05 154.35 191.9 154.35 192.75 154.35 193.4 153.7 193.4 153.95 193.5 154.25
L 195.15 154.25
Q 195.05 153.9 195.05 153.6 195.05 153.25 195.25 152.35 195.5 151.35 195.5 150.95
M 193.6 152.25
Q 193.5 152.9 193.15 153.15 192.85 153.4 192.55 153.4 192.25 153.4 192.15 153.3 191.95 153.15 191.95 152.9 191.95 152.7 192.2 152.55 192.4 152.45 193.6 152.25
M 199.25 151.05
Q 199.45 151.05 199.65 151.1
L 200.25 149.75
Q 199.95 149.65 199.65 149.65 199.3 149.65 199 149.85 198.7 150.05 198.3 150.65
L 198.3 150.6 198.5 149.75 196.85 149.75 195.9 154.25 197.65 154.25 198 152.55
Q 198.15 151.75 198.5 151.4 198.8 151.05 199.25 151.05
M 200.5 151
L 201.1 151 200.8 152.5
Q 200.65 153.1 200.65 153.25 200.65 153.65 200.95 154 201.25 154.35 201.95 154.35 202.3 154.35 203.1 154.25
L 203.4 153
Q 203 153.1 202.85 153.1 202.45 153.1 202.45 152.8 202.45 152.65 202.5 152.55
L 202.8 151 203.7 151 203.95 149.75 203.1 149.75 203.45 148.1 201.5 149.05 201.35 149.75 200.7 149.75 200.5 151 Z"/>

<path fill="#1A7D8D" stroke="none" d="
M 213.2 143.45
L 207.7 138.15 206.7 137.4
Q 206.2 137 205.7 136.65 204.2 135.65 202.6 134.7 201.8 134.3 201 133.9
L 197.7 132.4
Q 195.2 131.4 192.5 130.65 191.55 130.4 190.65 130.2 185.8 129.1 181.05 129.1
L 172.8 130.1
Q 168.85 130.95 165.1 132.7 163.05 133.65 161.05 134.8 156.5 137.4 152.95 140.75
L 148.65 145.5 146.2 149.15
Q 144.45 152.1 143.15 155.45 143 155.8 142.9 156.15 142.6 156.9 142.35 157.7 142.25 157.95 142.15 158.25 141.9 159.1 141.65 160 140.2 165.45 140.15 170.75 140.15 171.9 140.2 173.1 140.65 181.25 144.5 188.95
L 144.8 189.6
Q 145.3 190.55 145.85 191.5 147.4 194.2 149.2 196.6
L 153.2 200.95 154.35 202
Q 156.05 203.55 157.95 204.85 159.4 205.9 161 206.75 165.6 209.35 171 210.85 171.45 211 171.95 211.1
L 173.95 211.55
Q 175.3 211.8 176.65 212
L 185.4 212.2
Q 192.95 211.55 200.1 208
L 201.7 207.15
Q 202.092578125 206.92578125 202.5 206.7 202.8205078125 206.52578125 203.15 206.35
L 204.65 205.45
Q 205.1 205.1 205.6 204.75 205.9 204.55 206.2 204.4
L 206.35 204.25
Q 206.75 203.95 207.1 203.7
L 208.55 202.55 214.7 196.15
Q 219 190.65 221.2 183.55 221.4 183.05 221.55 182.55 221.55 182.5 221.6 182.4
L 221.65 182.05 221.7 182
Q 221.7646484375 181.747265625 221.8 181.5 222 180.85 222.2 180.15 222.35 179.5 222.5 178.8 222.75 177.45 222.95 176.1
L 223.35 170.75
Q 223.35 170.65 223.35 170.6
L 223.35 169.75
Q 223.25 162.35 220.35 155.35
L 218.4 151.15
Q 218.1 150.575 217.75 150
L 217.7 150
Q 215.65 146.45 213.2 143.45
M 201.1 151
L 200.5 151 200.7 149.75 201.35 149.75 201.5 149.05 203.45 148.1 203.1 149.75 203.95 149.75 203.7 151 202.8 151 202.5 152.55
Q 202.45 152.65 202.45 152.8 202.45 153.1 202.85 153.1 203 153.1 203.4 153
L 203.1 154.25
Q 202.3 154.35 201.95 154.35 201.25 154.35 200.95 154 200.65 153.65 200.65 153.25 200.65 153.1 200.8 152.5
L 201.1 151
M 199.65 151.1
Q 199.45 151.05 199.25 151.05 198.8 151.05 198.5 151.4 198.15 151.75 198 152.55
L 197.65 154.25 195.9 154.25 196.85 149.75 198.5 149.75 198.3 150.6 198.3 150.65
Q 198.7 150.05 199 149.85 199.3 149.65 199.65 149.65 199.95 149.65 200.25 149.75
L 199.65 151.1
M 195.05 149.95
Q 195.5 150.3 195.5 150.95 195.5 151.35 195.25 152.35 195.05 153.25 195.05 153.6 195.05 153.9 195.15 154.25
L 193.5 154.25
Q 193.4 153.95 193.4 153.7 192.75 154.35 191.9 154.35 191.05 154.35 190.65 153.95 190.3 153.55 190.3 153 190.3 152.45 190.65 152.1 190.95 151.8 191.45 151.65 191.95 151.55 192.8 151.45 193.5 151.4 193.8 151.35 193.85 151.15 193.85 151 193.85 150.85 193.65 150.75 193.5 150.65 193.2 150.65 192.9 150.65 192.75 150.75 192.55 150.85 192.4 151.15
L 190.8 151
Q 190.95 150.3 191.5 150 192.05 149.65 193.2 149.65 194.55 149.65 195.05 149.95
M 186.55 149.95
Q 186.85 150.25 186.85 150.7 186.85 151 186.7 151.75
L 186.15 154.25 184.45 154.25 184.9 152.15
Q 185.05 151.35 185.05 151.25 185.05 150.9 184.7 150.9 184.3 150.9 184.05 151.25 183.75 151.6 183.65 152.3
L 183.2 154.25 181.45 154.25 182.4 149.75 184 149.75 183.9 150.4
Q 184.6 149.65 185.65 149.65 186.25 149.65 186.55 149.95
M 190.05 163.2
L 191.65 163.2 190.75 167.45
Q 190.5 168.7 189.9 169.1 189.35 169.5 188.25 169.5 187.45 169.5 187.05 169.4 186.6 169.3 186.3 168.9 186.05 168.5 186.05 168.05 186.05 167.85 186.05 167.8
L 187.65 168.05
Q 187.7 168.5 188.15 168.5 188.5 168.5 188.7 168.3 188.9 168.05 189 167.65
L 189.15 166.95 189.1 166.95
Q 188.55 167.55 187.8 167.55 187.1 167.55 186.7 167.05 186.3 166.55 186.3 165.75 186.3 164.7 186.9 163.9 187.55 163.1 188.55 163.1 189.4 163.1 189.9 163.85
L 190.05 163.2
M 186.25 161.5
L 186.05 162.7 184.3 162.7 184.55 161.5 186.25 161.5
M 182.3 165.35
Q 182.6 165.65 182.6 166.15 182.6 166.8 182 167.3 181.35 167.8 180 167.8 178.95 167.8 178.45 167.5 177.95 167.2 177.85 166.45
L 179.55 166.3
Q 179.65 166.85 180.3 166.85 180.55 166.85 180.75 166.75 181 166.6 181 166.4 181 166.2 180.85 166.1 180.65 166.05 180.25 165.95 179.25 165.8 178.9 165.5 178.55 165.15 178.55 164.7 178.55 164.3 178.8 163.95 179.05 163.55 179.6 163.35 180.15 163.1 180.95 163.1 181.8 163.1 182.3 163.35 182.8 163.65 182.9 164.3
L 181.3 164.45
Q 181.25 164.05 180.7 164.05 180.35 164.05 180.2 164.15 180.1 164.3 180.1 164.45 180.1 164.6 180.2 164.7 180.35 164.8 180.95 164.9 181.95 165.05 182.3 165.35
M 184.2 163.2
L 185.9 163.2 184.95 167.7 183.2 167.7 184.2 163.2
M 196 163.1
Q 196.65 163.1 196.95 163.45 197.25 163.75 197.25 164.2 197.25 164.45 197.05 165.25
L 196.55 167.7 194.85 167.7 195.25 165.6
Q 195.4 164.85 195.4 164.75 195.4 164.35 195.1 164.35 194.7 164.35 194.45 164.7 194.15 165.1 194 165.75
L 193.6 167.7 191.85 167.7 192.8 163.2 194.4 163.2 194.25 163.9
Q 195 163.1 196 163.1
M 181.1 149.65
Q 181.4 149.65 181.7 149.75
L 181.05 151.1
Q 180.85 151.05 180.7 151.05 180.2 151.05 179.9 151.4 179.6 151.75 179.4 152.55
L 179.05 154.25 177.35 154.25 178.3 149.75 179.9 149.75 179.7 150.6 179.75 150.65
Q 180.15 150.05 180.45 149.85 180.75 149.65 181.1 149.65
M 175.25 151
Q 175.25 150.85 175.05 150.75 174.9 150.65 174.6 150.65 174.3 150.65 174.15 150.75 173.95 150.85 173.8 151.15
L 172.2 151
Q 172.35 150.3 172.9 150 173.45 149.65 174.6 149.65 175.95 149.65 176.45 149.95 176.9 150.3 176.9 150.95 176.9 151.35 176.65 152.35 176.45 153.25 176.45 153.6 176.45 153.9 176.55 154.25
L 174.9 154.25
Q 174.8 153.95 174.8 153.7 174.15 154.35 173.3 154.35 172.45 154.35 172.05 153.95 171.7 153.55 171.7 153 171.7 152.45 172.05 152.1 172.35 151.8 172.85 151.65 173.35 151.55 174.2 151.45 174.9 151.4 175.2 151.35 175.25 151.15 175.25 151
M 170.7 150.2
Q 171.25 150.7 171.25 151.55 171.25 151.8 171.1 152.45
L 167.7 152.45
Q 167.75 153.35 168.5 153.35 169 153.35 169.3 152.9
L 171 153.1
Q 170.6 153.75 170 154.05 169.35 154.35 168.45 154.35 167.15 154.35 166.55 153.75 166 153.15 166 152.25 166 151.65 166.3 151.15 166.55 150.6 166.95 150.25 167.45 149.9 167.85 149.75 168.3 149.65 168.85 149.65 170.15 149.65 170.7 150.2
M 165.4 152.7
L 165.05 154.25 160.05 154.25 161.4 148 163.3 148 162.3 152.7 165.4 152.7
M 170.15 163.8
L 170.65 161.5 172.35 161.5 171.05 167.7 169.45 167.7 169.55 167.25 169.5 167.25
Q 169.15 167.55 168.85 167.7 168.55 167.8 168.15 167.8 167.35 167.8 166.95 167.3 166.55 166.8 166.55 165.95 166.55 164.8 167.15 163.95 167.8 163.1 168.7 163.1 169.65 163.1 170.15 163.8
M 177.6 165
Q 177.6 165.25 177.45 165.9
L 174.05 165.9
Q 174.1 166.8 174.85 166.8 175.35 166.8 175.65 166.4
L 177.3 166.55
Q 176.9 167.2 176.35 167.5 175.7 167.8 174.8 167.8 173.45 167.8 172.9 167.2 172.35 166.6 172.35 165.75 172.35 165.15 172.6 164.6 172.9 164.1 173.3 163.75 173.75 163.35 174.2 163.25 174.65 163.1 175.2 163.1 176.5 163.1 177 163.65 177.6 164.2 177.6 165
M 177.8 177.2
L 177.8 177.25
Q 178.45 176.6 179.4 176.6 180 176.6 180.3 176.9 180.6 177.2 180.6 177.65 180.6 177.9 180.45 178.7
L 179.9 181.2 178.2 181.2 178.65 179.05
Q 178.8 178.3 178.8 178.2 178.8 177.85 178.45 177.85 178.05 177.85 177.8 178.2 177.5 178.55 177.4 179.25
L 176.95 181.2 175.2 181.2 176.55 174.95 178.25 174.95 177.8 177.2
M 181.5 178.1
Q 181.8 177.55 182.2 177.2 182.65 176.85 183.1 176.7 183.55 176.6 184.1 176.6 185.4 176.6 185.95 177.15 186.5 177.65 186.5 178.5 186.5 178.75 186.35 179.35
L 182.95 179.35
Q 183 180.3 183.75 180.3 184.25 180.3 184.55 179.85
L 186.2 180.05
Q 185.85 180.7 185.25 181 184.6 181.3 183.7 181.3 182.4 181.3 181.8 180.7 181.25 180.1 181.25 179.2 181.25 178.6 181.5 178.1
M 175.1 178.25
L 173.55 178.3
Q 173.45 177.75 172.75 177.75 172.15 177.75 171.8 178.25 171.45 178.8 171.45 179.35 171.45 179.75 171.7 179.95 171.95 180.15 172.2 180.15 172.9 180.15 173.25 179.35
L 174.85 179.55
Q 174.25 181.3 172.15 181.3 169.75 181.3 169.75 179.35 169.75 178.2 170.55 177.4 171.35 176.6 172.75 176.6 173.75 176.6 174.4 177 175 177.45 175.1 178.25
M 167.45 177.95
Q 167.45 177.8 167.25 177.7 167.05 177.6 166.8 177.6 166.45 177.6 166.3 177.7 166.1 177.8 166 178.1
L 164.35 177.9
Q 164.55 177.25 165.1 176.95 165.65 176.6 166.8 176.6 168.15 176.6 168.6 176.9 169.05 177.25 169.05 177.9 169.05 178.3 168.85 179.25 168.6 180.2 168.6 180.55 168.6 180.85 168.75 181.2
L 167.05 181.2
Q 167 180.9 167 180.65 166.3 181.3 165.5 181.3 164.65 181.3 164.25 180.9 163.9 180.5 163.9 179.95 163.9 179.35 164.2 179.05 164.55 178.75 165.05 178.6 165.5 178.5 166.4 178.4 167.1 178.35 167.35 178.3 167.45 178.1 167.45 177.95
M 162.75 175.25
Q 163.1 175.45 163.25 175.75 163.4 176.05 163.4 176.4 163.4 176.9 163.15 177.35 162.9 177.75 162.25 177.9 163.25 178.2 163.25 179.25 163.25 180 162.65 180.6 162.05 181.2 160.9 181.2
L 157.1 181.2 158.4 174.95 161.25 174.95
Q 161.8 174.95 162.15 175.05 162.45 175.05 162.75 175.25
M 169.7 188.45
L 171.4 188.45 170.1 194.65 168.5 194.65 168.6 194.2 168.55 194.2
Q 168.2 194.5 167.9 194.65 167.6 194.75 167.2 194.75 166.4 194.75 166 194.25 165.6 193.75 165.6 192.9 165.6 191.75 166.2 190.9 166.85 190.05 167.75 190.05 168.7 190.05 169.2 190.75
L 169.7 188.45
M 171.95 194.15
Q 171.4 193.55 171.4 192.7 171.4 192.1 171.65 191.55 171.95 191.05 172.35 190.65 172.8 190.3 173.25 190.2 173.7 190.05 174.25 190.05 175.55 190.05 176.05 190.6 176.65 191.15 176.65 191.95 176.65 192.2 176.5 192.85
L 173.1 192.85
Q 173.15 193.75 173.9 193.75 174.4 193.75 174.7 193.35
L 176.35 193.5
Q 175.95 194.15 175.4 194.45 174.75 194.75 173.85 194.75 172.5 194.75 171.95 194.15
M 181.05 190.8
L 181.2 190.15 182.75 190.15 181.9 194.4
Q 181.6 195.65 181.05 196.05 180.45 196.45 179.35 196.45 178.6 196.45 178.15 196.35 177.75 196.25 177.45 195.85 177.15 195.45 177.15 195 177.15 194.8 177.15 194.75
L 178.8 195
Q 178.85 195.45 179.3 195.45 179.6 195.45 179.8 195.25 180 195 180.1 194.6
L 180.3 193.9 180.25 193.9
Q 179.7 194.5 178.95 194.5 178.25 194.5 177.8 194 177.4 193.5 177.4 192.7 177.4 191.65 178.05 190.85 178.7 190.05 179.7 190.05 180.5 190.05 181.05 190.8
M 200.3 174.95
L 202 174.95 201.8 175.9
Q 201.8 176 201.6 176.45
L 201.3 177.25 200.1 177.25 200.05 176 200.3 174.95
M 199.8 176.7
L 199.15 178.05
Q 198.95 178 198.8 178 198.3 178 198 178.35 197.7 178.7 197.55 179.5
L 197.15 181.2 195.45 181.2 196.4 176.7 198 176.7 197.8 177.55 197.85 177.6
Q 198.25 177 198.55 176.75 198.85 176.6 199.2 176.6 199.5 176.6 199.8 176.7
M 192.75 176.6
Q 194 176.6 194.5 177.2 195.05 177.8 195.05 178.6 195.05 179.25 194.75 179.9 194.45 180.5 193.8 180.9 193.15 181.3 192.25 181.3 191.05 181.3 190.5 180.7 189.95 180.15 189.95 179.25 189.95 178.6 190.25 177.9 190.6 177.3 191.25 176.95 191.85 176.6 192.75 176.6
M 202.25 181
Q 201.75 180.65 201.65 179.95
L 203.35 179.8
Q 203.45 180.3 204.05 180.3 204.35 180.3 204.55 180.2 204.8 180.1 204.8 179.85 204.8 179.65 204.6 179.55 204.45 179.5 204.05 179.45 203.05 179.25 202.7 179 202.3 178.65 202.3 178.15 202.3 177.75 202.6 177.4 202.85 177 203.4 176.8 203.95 176.6 204.7 176.6 205.6 176.6 206.1 176.85 206.6 177.1 206.7 177.75
L 205.1 177.9
Q 205 177.55 204.5 177.55 204.15 177.55 204 177.65 203.85 177.75 203.85 177.9 203.85 178.05 204 178.2 204.15 178.3 204.75 178.35 205.75 178.5 206.05 178.8 206.4 179.1 206.4 179.6 206.4 180.3 205.75 180.8 205.1 181.3 203.8 181.3 202.7 181.3 202.25 181
M 188.15 174.95
L 189.85 174.95 188.55 181.2 186.8 181.2 188.15 174.95
M 190.1 190.05
Q 191.4 190.05 191.9 190.6 192.45 191.15 192.45 191.95 192.45 192.2 192.35 192.85
L 188.9 192.85
Q 189 193.75 189.75 193.75 190.25 193.75 190.55 193.35
L 192.2 193.5
Q 191.8 194.15 191.2 194.45 190.6 194.75 189.65 194.75 188.35 194.75 187.8 194.15 187.25 193.55 187.25 192.7 187.25 192.1 187.5 191.55 187.75 191.05 188.2 190.65 188.65 190.3 189.1 190.2 189.55 190.05 190.1 190.05
M 186.75 191.55
Q 186.55 191.45 186.4 191.45 185.9 191.45 185.6 191.8 185.25 192.2 185.1 192.95
L 184.75 194.65 183.05 194.65 184 190.15 185.6 190.15 185.4 191.05 185.45 191.05
Q 185.85 190.5 186.1 190.25 186.4 190.05 186.8 190.05 187.1 190.05 187.35 190.2
L 186.75 191.55
M 194.85 190.2
Q 195.3 190.05 195.9 190.05 197.15 190.05 197.7 190.6 198.25 191.15 198.25 191.95 198.25 192.2 198.1 192.85
L 194.7 192.85
Q 194.75 193.75 195.5 193.75 196 193.75 196.3 193.35
L 198 193.5
Q 197.6 194.15 197 194.45 196.4 194.75 195.45 194.75 194.15 194.75 193.6 194.15 193 193.55 193 192.7 193 192.1 193.3 191.55 193.55 191.05 194 190.65 194.45 190.3 194.85 190.2
M 196.55 191.75
Q 196.55 191.4 196.4 191.25 196.15 191.05 195.85 191.05 195.5 191.05 195.25 191.3 195 191.55 194.85 192
L 196.55 192
Q 196.55 191.9 196.55 191.75
M 190.8 191.75
Q 190.8 191.4 190.6 191.25 190.35 191.05 190.05 191.05 189.75 191.05 189.5 191.3 189.2 191.55 189.1 192
L 190.75 192
Q 190.8 191.9 190.8 191.75
M 193.4 178.5
Q 193.4 178.1 193.2 177.9 192.95 177.75 192.7 177.75 192.15 177.75 191.85 178.25 191.6 178.75 191.6 179.25 191.6 179.65 191.8 179.85 192.05 180.15 192.35 180.15 192.85 180.15 193.1 179.65 193.4 179.15 193.4 178.5
M 180.1 191.2
Q 179.7 191.2 179.4 191.65 179.1 192.1 179.1 192.65 179.1 192.95 179.25 193.15 179.4 193.35 179.7 193.35 180.2 193.35 180.4 192.8 180.65 192.3 180.65 191.8 180.65 191.55 180.5 191.4 180.3 191.2 180.1 191.2
M 174.25 191.05
Q 173.9 191.05 173.65 191.3 173.35 191.55 173.25 192
L 174.9 192
Q 174.95 191.9 174.95 191.75 174.95 191.4 174.75 191.25 174.5 191.05 174.25 191.05
M 168.7 191.4
Q 168.5 191.2 168.2 191.2 167.8 191.2 167.55 191.7 167.3 192.2 167.3 192.85 167.3 193.25 167.45 193.45 167.6 193.65 167.9 193.65 168.35 193.65 168.6 193.1 168.85 192.55 168.85 192 168.85 191.6 168.7 191.4
M 160.6 178.6
L 159.55 178.6 159.3 179.85 160.35 179.85
Q 161.4 179.85 161.4 179.15 161.4 178.9 161.25 178.7 161.1 178.6 160.6 178.6
M 160.85 176.2
L 160.05 176.2 159.8 177.4 160.45 177.4
Q 160.9 177.4 161.1 177.35 161.35 177.25 161.5 177.1 161.65 176.9 161.65 176.7 161.65 176.5 161.5 176.35 161.3 176.2 160.85 176.2
M 165.8 179.5
Q 165.55 179.65 165.55 179.85 165.55 180.1 165.7 180.2 165.85 180.35 166.1 180.35 166.4 180.35 166.75 180.1 167.05 179.85 167.15 179.15 166 179.35 165.8 179.5
M 184.1 177.6
Q 183.75 177.6 183.5 177.85 183.25 178.05 183.1 178.55
L 184.8 178.55
Q 184.8 178.45 184.8 178.3 184.8 177.9 184.6 177.75 184.4 177.6 184.1 177.6
M 174.6 164.35
Q 174.35 164.6 174.2 165.1
L 175.85 165.1
Q 175.9 165 175.9 164.8 175.9 164.45 175.7 164.3 175.5 164.1 175.2 164.1 174.85 164.1 174.6 164.35
M 168.5 164.75
Q 168.25 165.25 168.25 165.9 168.25 166.3 168.4 166.5 168.6 166.7 168.85 166.7 169.3 166.7 169.55 166.15 169.85 165.6 169.85 165.05 169.85 164.65 169.65 164.45 169.45 164.25 169.15 164.25 168.75 164.25 168.5 164.75
M 169.55 151.35
Q 169.55 151 169.35 150.8 169.15 150.65 168.85 150.65 168.5 150.65 168.25 150.9 168 151.1 167.85 151.6
L 169.55 151.6
Q 169.55 151.5 169.55 151.35
M 173.6 152.55
Q 173.35 152.7 173.35 152.9 173.35 153.15 173.55 153.3 173.65 153.4 173.95 153.4 174.25 153.4 174.55 153.15 174.9 152.9 175 152.25 173.8 152.45 173.6 152.55
M 189.4 164.45
Q 189.2 164.25 188.95 164.25 188.55 164.25 188.25 164.7 187.95 165.15 187.95 165.7 187.95 166.05 188.15 166.2 188.3 166.4 188.6 166.4 189.05 166.4 189.3 165.85 189.55 165.35 189.55 164.9 189.55 164.6 189.4 164.45
M 193.15 153.15
Q 193.5 152.9 193.6 152.25 192.4 152.45 192.2 152.55 191.95 152.7 191.95 152.9 191.95 153.15 192.15 153.3 192.25 153.4 192.55 153.4 192.85 153.4 193.15 153.15 Z"/>
</g>
</defs>

<g transform="matrix( 1, 0, 0, 1, -135.25,-124.25) ">
<use xlink:href="#Layer0_0_FILL"/>
</g>
</svg>
