
<svg xmlns="http://www.w3.org/2000/svg" version="1.1" xmlns:xlink="http://www.w3.org/1999/xlink" preserveAspectRatio="none" x="0px" y="0px" width="93px" height="93px" viewBox="0 0 93 93">
<defs>
<g id="Layer0_0_FILL">
<path fill="#FFFFFF" stroke="none" d="
M 118.3 177.55
Q 104.8 164 85.6 164 66.4 164 52.8 177.55 39.25 191.15 39.25 210.3 39.25 225.15 47.35 236.6 48.9 238.8 50.8 240.9 51.75 242 52.8 243.05 66.4 256.65 85.6 256.65 104.8 256.65 118.3 243.05 119.35 242 120.35 240.9 122.25 238.8 123.85 236.6 131.4 225.85 131.9 212.2 131.9 211.25 131.9 210.3 131.9 209.35 131.9 208.5 131.9 208.2 131.9 208 131.1 190.3 118.3 177.55
M 68.95 172.25
Q 72.7 170.55 76.6 169.65
L 84.9 168.65
Q 93.3 168.4 101.5 171.95
L 104.8 173.45
Q 105.65 173.85 106.4 174.25 108.05 175.2 109.5 176.2 110.05 176.55 110.55 176.95
L 111.5 177.7 117.05 183
Q 120.8 187.3 123.25 192.7
L 124.2 194.9
Q 127.1 201.9 127.2 209.3
L 127.2 210.15
Q 127.2 210.2 127.2 210.3
L 126.8 215.65
Q 126.6 217 126.35 218.35 126.2 219.05 126.05 219.7 125.75 220.95 125.4 222.1 125.2 222.6 125.05 223.1 122.8 230.2 118.5 235.7
L 112.35 242.1 110.9 243.25
Q 110.55 243.5 110.2 243.8
L 110.05 243.95
Q 109.75 244.15 109.45 244.35
L 106.95 245.9
Q 106.2505859375 246.3560546875 105.55 246.75
L 103.95 247.55
Q 96.8 251.15 89.25 251.75
L 80.45 251.55
Q 79.1 251.35 77.75 251.1
L 75.75 250.65
Q 75.3 250.55 74.85 250.4 69.4 248.95 64.85 246.3 63.25 245.45 61.8 244.45 59.9 243.1 58.2 241.55
L 57.05 240.5 53.05 236.2
Q 50.3 232.7 48.3 228.5 44.5 220.8 44.05 212.65 43.95 211.4 43.95 210.2 43.9 202.9 46.7 195.7 46.85 195.35 47 195 48.25 191.65 50.05 188.7
L 52.45 185.1 56.75 180.3
Q 59.05 178 61.75 176.2 65.1 173.9 68.95 172.25 Z"/>

<path fill="#3BA9C4" stroke="none" d="
M 125.4 222.1
Q 125.5 221.6 125.65 221.05 125.85 220.4 126.05 219.7 126.2 219.05 126.35 218.35 126.6 217 126.8 215.65
L 127.2 210.3 85.65 210.3 44 210.3
Q 44 211.45 44.05 212.65 44.5 220.8 48.3 228.5 48.95 229.75 49.65 231.05
L 49.7 231.05
Q 51.25 233.8 53.05 236.2
L 57.05 240.5 58.2 241.55
Q 59.9 243.1 61.8 244.45 63.25 245.45 64.85 246.3 69.4 248.95 74.85 250.4 75.3 250.55 75.75 250.65
L 77.75 251.1
Q 79.1 251.35 80.45 251.55
L 89.25 251.75
Q 96.8 251.15 103.95 247.55
L 105.55 246.75
Q 105.95 246.45 106.35 246.25 106.65 246.1 106.95 245.9
L 109.45 244.35
Q 109.75 244.15 110.05 243.95
L 110.2 243.8
Q 110.55 243.5 110.9 243.25
L 112.35 242.1 118.5 235.7
Q 122.8 230.2 125.05 223.1 125.2 222.6 125.4 222.1 Z"/>

<path fill="#99D6E5" stroke="none" d="
M 117.05 183
L 111.5 177.7 110.55 176.95
Q 110.05 176.55 109.5 176.2
L 109.5 176.25 85.65 210.3 127.2 210.3
Q 127.2 210.2 127.2 210.15
L 127.2 209.3
Q 127.1 201.9 124.2 194.9
L 123.25 192.7
Q 120.8 187.3 117.05 183 Z"/>

<path fill="#1A7D8D" stroke="none" d="
M 76.6 169.65
Q 72.7 170.55 68.95 172.25 66.9 173.2 64.9 174.35 60.35 176.95 56.75 180.3
L 52.45 185.1 50.05 188.7
Q 48.25 191.65 47 195 46.85 195.35 46.7 195.7 46.35 196.7 46 197.8 45.75 198.65 45.5 199.55 44.05 205 44 210.3
L 85.65 210.3 109.5 176.25 109.5 176.2
Q 108.05 175.2 106.4 174.25 105.65 173.85 104.8 173.45
L 101.5 171.95
Q 99.05 170.95 96.35 170.25 95.4 169.95 94.5 169.75 89.65 168.65 84.9 168.65
L 76.6 169.65 Z"/>
</g>

<g id="Layer0_0_MEMBER_0_FILL">
<path fill="#FFFFFF" stroke="none" d="
M 103.95 201
Q 103.95 199.95 103.15 199.2 102.35 198.55 100.75 198.55 99.15 198.55 98.2 199.2 97.25 199.9 97 201.15
L 99.45 201.55
Q 99.7 200.2 100.6 200.2 100.95 200.2 101.2 200.45 101.5 200.65 101.5 201.15 101.5 201.45 101.3 201.8 101 202.15 100.45 202.55
L 99.55 203.25
Q 98.05 204.3 97.25 205.25 96.4 206.2 96.2 207.6
L 103 207.6 103.4 205.55 99.9 205.55
Q 100.3 205.15 100.55 204.95 100.85 204.75 101.7 204.15 102.9 203.3 103.4 202.55 103.95 201.8 103.95 201
M 111.75 204.75
Q 112.3 203.35 112.3 201.95 112.3 200.25 111.35 199.4 110.35 198.55 109 198.55 107.75 198.55 106.75 199.3 105.75 200.1 105.2 201.5 104.65 202.85 104.65 204.1 104.65 205.9 105.5 206.8 106.35 207.75 107.75 207.75 109.1 207.75 110.15 206.95 111.15 206.15 111.75 204.75
M 107.25 202.85
Q 107.5 201.65 107.95 200.95 108.4 200.2 109 200.2 109.45 200.2 109.65 200.55 109.95 200.85 109.95 201.4 109.95 202.2 109.65 203.4 109.45 204.6 109 205.35 108.55 206.1 108 206.1 107.05 206.1 107.05 204.75 107.05 204 107.25 202.85
M 117.2 202.4
Q 117.9 201.5 117.9 200.4 117.9 199.5 117.35 199 116.8 198.55 115.85 198.55 114.6 198.55 113.9 199.35 113.2 200.15 113.2 201.3 113.2 202.2 113.75 202.7 114.3 203.2 115.25 203.2 116.55 203.2 117.2 202.4
M 115.3 199.8
Q 115.6 199.55 115.85 199.55 116.05 199.55 116.2 199.7 116.35 199.8 116.35 200.1 116.35 200.85 116.05 201.5 115.8 202.2 115.25 202.2 115.05 202.2 114.9 202.05 114.75 201.9 114.75 201.55 114.75 201.3 114.9 200.65 115.05 200 115.3 199.8
M 123.25 198.55
L 121.85 198.55 114.1 208.05 115.5 208.05 123.25 198.55
M 123.55 203.9
Q 123 203.4 122 203.4 120.8 203.4 120.1 204.2 119.4 205 119.4 206.15 119.4 207.05 119.95 207.55 120.5 208.05 121.45 208.05 122.75 208.05 123.45 207.25 124.15 206.4 124.15 205.25 124.15 204.4 123.55 203.9
M 122.6 204.95
Q 122.6 205.75 122.3 206.4 122 207.05 121.45 207.05 121.25 207.05 121.1 206.9 120.95 206.75 120.95 206.4 120.95 206.15 121.1 205.5 121.25 204.85 121.5 204.65 121.75 204.4 122.05 204.4 122.25 204.4 122.4 204.55 122.6 204.7 122.6 204.95
M 119.7 191.75
Q 119.2 191.25 118.15 191.25 117.6 191.25 117.25 191.35 116.9 191.5 116.5 191.8 116.1 192.1 115.9 192.55 115.7 193 115.7 193.55 115.7 194.3 116.15 194.8 116.65 195.3 117.8 195.3 118.55 195.3 119.05 195.05 119.6 194.8 119.9 194.25
L 118.45 194.1
Q 118.25 194.4 117.8 194.4 117.2 194.4 117.15 193.65
L 120.05 193.65
Q 120.15 193.1 120.15 192.9 120.15 192.2 119.7 191.75
M 118.65 192.95
L 117.25 192.95
Q 117.35 192.55 117.6 192.35 117.8 192.1 118.1 192.1 118.35 192.1 118.55 192.3 118.7 192.45 118.7 192.7 118.7 192.9 118.65 192.95
M 110.7 193.7
Q 110.7 194.4 111.05 194.9 111.4 195.3 112.05 195.3 112.4 195.3 112.65 195.2 112.9 195.1 113.2 194.8
L 113.15 195.2 114.55 195.2 115.7 189.9 114.2 189.9 113.75 191.85
Q 113.35 191.25 112.55 191.25 111.75 191.25 111.2 192 110.7 192.7 110.7 193.7
M 113.3 192.4
Q 113.5 192.6 113.5 192.95 113.5 193.4 113.3 193.85 113.05 194.3 112.65 194.3 112.45 194.3 112.3 194.15 112.15 194 112.15 193.65 112.15 193.1 112.35 192.7 112.6 192.25 112.9 192.25 113.15 192.25 113.3 192.4
M 108.15 191.25
Q 107.4 191.25 106.85 191.6 106.3 191.9 106 192.4 105.7 193 105.7 193.55 105.7 194.3 106.2 194.8 106.7 195.3 107.75 195.3 108.5 195.3 109.1 195 109.6 194.65 109.85 194.1 110.15 193.55 110.15 193 110.15 192.3 109.65 191.8 109.2 191.25 108.15 191.25
M 108.1 192.25
Q 108.35 192.25 108.5 192.4 108.7 192.6 108.7 192.95 108.7 193.45 108.45 193.9 108.2 194.3 107.8 194.3 107.55 194.3 107.35 194.1 107.15 193.85 107.15 193.55 107.15 193.1 107.4 192.7 107.65 192.25 108.1 192.25
M 100.55 191.5
Q 100.15 192.3 100.15 193.05 100.15 194.05 100.8 194.7 101.4 195.3 102.55 195.3 103.65 195.3 104.35 194.75 105.05 194.2 105.25 193.35
L 103.7 193.1
Q 103.5 193.6 103.25 193.85 103 194.1 102.65 194.1 102.2 194.1 102 193.85 101.8 193.55 101.8 193.15 101.8 192.65 102 192.1 102.2 191.55 102.55 191.25 102.9 191 103.25 191 103.5 191 103.8 191.2 104 191.4 104 191.8
L 105.55 191.65
Q 105.45 190.8 104.85 190.3 104.25 189.8 103.25 189.8 102.25 189.8 101.6 190.25 100.9 190.7 100.55 191.5 Z"/>
</g>

<g id="Layer0_0_MEMBER_1_FILL">
<path fill="#FFFFFF" stroke="none" d="
M 83.85 196.35
Q 83.25 195.85 82.3 195.85 81.1 195.85 80.4 196.65 79.65 197.45 79.65 198.6 79.65 199.5 80.2 200 80.8 200.5 81.7 200.5 83 200.5 83.7 199.7 84.4 198.85 84.4 197.7 84.4 196.8 83.85 196.35
M 82.7 197
Q 82.85 197.1 82.85 197.4 82.85 198.15 82.55 198.85 82.25 199.5 81.75 199.5 81.5 199.5 81.35 199.35 81.25 199.2 81.25 198.85 81.25 198.6 81.35 197.95 81.55 197.3 81.75 197.1 82.05 196.85 82.35 196.85 82.5 196.85 82.7 197
M 83.5 190.95
L 82.1 190.95 74.4 200.5 75.75 200.5 83.5 190.95
M 89.3 184.65
Q 89.3 184.25 89.05 183.95 88.75 183.7 88.25 183.7 87.35 183.7 86.75 184.4
L 86.85 183.8 85.5 183.8 84.65 187.65 86.15 187.65 86.5 186
Q 86.65 185.4 86.85 185.1 87.15 184.8 87.45 184.8 87.7 184.8 87.7 185.1 87.7 185.2 87.6 185.9
L 87.2 187.65 88.7 187.65 89.15 185.55
Q 89.3 184.85 89.3 184.65
M 77.65 191.45
Q 77.05 190.95 76.1 190.95 74.85 190.95 74.2 191.8 73.5 192.6 73.5 193.75 73.5 194.65 74.05 195.15 74.55 195.65 75.55 195.65 76.8 195.65 77.5 194.8 78.2 193.95 78.2 192.85 78.2 191.95 77.65 191.45
M 75.2 193.1
Q 75.35 192.4 75.6 192.2 75.85 192 76.1 192 76.3 192 76.5 192.1 76.65 192.25 76.65 192.55 76.65 193.3 76.35 193.95 76.1 194.65 75.55 194.65 75.35 194.65 75.15 194.5 75.05 194.3 75.05 194 75.05 193.75 75.2 193.1
M 79.95 186
Q 79.95 186.65 80.25 187.1 80.6 187.5 81.2 187.5 81.85 187.5 82.35 187
L 82.35 187.05 82.25 187.6
Q 82.15 187.95 81.95 188.15 81.8 188.35 81.55 188.35 81.1 188.35 81.1 187.95
L 79.7 187.75
Q 79.7 187.8 79.7 187.9 79.7 188.3 79.95 188.65 80.2 189 80.6 189.1 80.95 189.2 81.6 189.2 82.5 189.2 83 188.85 83.5 188.5 83.75 187.4
L 84.55 183.8 83.15 183.8 83 184.35
Q 82.55 183.7 81.85 183.7 81 183.7 80.45 184.4 79.95 185.05 79.95 186
M 82.55 184.85
Q 82.7 185 82.7 185.25 82.7 185.65 82.5 186.1 82.3 186.5 81.85 186.5 81.65 186.5 81.5 186.35 81.35 186.2 81.35 185.95 81.35 185.45 81.6 185.1 81.85 184.7 82.2 184.7 82.4 184.7 82.55 184.85
M 69.3 190.95
Q 68 190.95 67 191.75 66.05 192.55 65.45 193.95 64.9 195.3 64.9 196.55 64.9 198.35 65.75 199.25 66.6 200.2 68 200.2 69.4 200.2 70.4 199.4 71.4 198.6 72 197.2 72.55 195.8 72.55 194.4 72.55 192.7 71.6 191.85 70.65 190.95 69.3 190.95
M 69.95 195.85
Q 69.7 197.05 69.3 197.8 68.8 198.55 68.25 198.55 67.3 198.55 67.3 197.2 67.3 196.45 67.55 195.3 67.75 194.1 68.2 193.35 68.65 192.65 69.25 192.65 69.7 192.65 69.95 193 70.2 193.3 70.2 193.85 70.2 194.6 69.95 195.85
M 65.3 182.35
L 63.1 182.35 62 187.65 64.8 187.65
Q 65.35 187.65 66 187.4 66.6 187.15 67.1 186.35 67.55 185.5 67.55 184.55 67.55 183.6 67 182.95 66.45 182.35 65.3 182.35
M 65.05 183.5
Q 65.55 183.5 65.75 183.75 65.9 183.95 65.9 184.4 65.9 185.1 65.55 185.8 65.25 186.45 64.6 186.45
L 63.9 186.45 64.5 183.5 65.05 183.5
M 79.55 183.8
L 78.05 183.8 77.25 187.65 78.7 187.65 79.55 183.8
M 79.65 183.35
L 79.85 182.35 78.4 182.35 78.15 183.35 79.65 183.35
M 73.4 184.4
Q 73.2 184.75 73.2 185.05 73.2 185.5 73.5 185.75 73.8 186.05 74.65 186.2 75.05 186.2 75.15 186.25 75.3 186.35 75.3 186.55 75.3 186.75 75.15 186.85 74.95 186.95 74.7 186.95 74.2 186.95 74.1 186.45
L 72.6 186.6
Q 72.7 187.2 73.15 187.5 73.55 187.75 74.45 187.75 75.6 187.75 76.15 187.35 76.7 186.9 76.7 186.3 76.7 185.9 76.4 185.6 76.15 185.35 75.3 185.25 74.75 185.15 74.65 185.1 74.5 185 74.5 184.85 74.5 184.75 74.65 184.65 74.75 184.55 75.05 184.55 75.55 184.55 75.55 184.85
L 76.95 184.75
Q 76.85 184.15 76.45 183.95 76 183.7 75.25 183.7 74.55 183.7 74.1 183.9 73.65 184.1 73.4 184.4
M 72.4 185.3
Q 72.4 184.65 71.95 184.15 71.45 183.7 70.4 183.7 69.85 183.7 69.5 183.8 69.15 183.95 68.75 184.25 68.35 184.55 68.15 185 67.95 185.45 67.95 186 67.95 186.75 68.4 187.25 68.9 187.75 70.05 187.75 70.8 187.75 71.3 187.5 71.85 187.25 72.15 186.65
L 70.75 186.55
Q 70.5 186.85 70.05 186.85 69.45 186.85 69.4 186.1
L 72.3 186.1
Q 72.4 185.55 72.4 185.3
M 70.95 185.15
Q 70.95 185.3 70.95 185.4
L 69.5 185.4
Q 69.6 185 69.85 184.8 70.05 184.55 70.35 184.55 70.6 184.55 70.8 184.75 70.95 184.9 70.95 185.15
M 57.4 193.25
L 59.65 193.7
Q 59.9 192.5 60.8 192.5 61.7 192.5 61.7 193.35 61.7 194.7 60.2 194.7
L 60 194.7 59.7 196.3
Q 60.05 196.25 60.2 196.25 60.65 196.25 60.95 196.55 61.25 196.9 61.25 197.35 61.25 197.85 60.85 198.25 60.55 198.65 60 198.65 58.95 198.65 58.75 197.4
L 56.35 197.7
Q 56.45 198.85 57.3 199.5 58.2 200.2 59.75 200.2 61.25 200.2 62.05 199.7 62.85 199.15 63.25 198.55 63.6 197.95 63.6 197.3 63.6 196.05 62.4 195.45 64.1 194.7 64.1 193.25 64.1 192.35 63.3 191.65 62.55 190.95 61.05 190.95 59.6 190.95 58.7 191.5 57.8 192.05 57.4 193.25 Z"/>
</g>

<g id="Layer0_0_MEMBER_2_FILL">
<path fill="#FFFFFF" stroke="none" d="
M 75.4 219
L 73.95 219 73.7 220.05 75.2 220.05 75.4 219
M 75.1 220.5
L 73.6 220.5 72.8 224.35 74.25 224.35 75.1 220.5
M 66.4 219
L 64.65 219 61.65 224.35 63.4 224.35 63.85 223.45 65.6 223.45 65.65 224.35 67.25 224.35 66.4 219
M 65.3 220.4
L 65.45 222.35 64.35 222.35 65.3 220.4
M 69.85 221.1
L 70 220.5 68.6 220.5 67.8 224.35 69.25 224.35 69.65 222.65
Q 69.75 222.1 70 221.75 70.25 221.5 70.6 221.5 70.85 221.5 70.85 221.8 70.85 221.9 70.7 222.55
L 70.35 224.35 71.85 224.35 72.25 222.25
Q 72.4 221.55 72.4 221.3 72.4 220.9 72.15 220.65 71.9 220.4 71.35 220.4 70.5 220.4 69.9 221.1
L 69.85 221.1
M 94.95 237.6
L 96.35 237.6 104.1 228.1 102.7 228.1 94.95 237.6
M 100.25 235.7
Q 100.25 236.65 100.8 237.1 101.35 237.6 102.3 237.6 103.6 237.6 104.3 236.8 105 235.95 105 234.8 105 233.95 104.4 233.45 103.85 232.95 102.9 232.95 101.65 232.95 100.95 233.75 100.25 234.55 100.25 235.7
M 101.95 235.05
Q 102.1 234.4 102.35 234.2 102.6 233.95 102.9 233.95 103.1 233.95 103.25 234.1 103.45 234.25 103.45 234.5 103.45 235.3 103.15 235.95 102.85 236.65 102.3 236.65 102.1 236.65 101.95 236.45 101.85 236.3 101.85 235.95 101.85 235.7 101.95 235.05
M 82.05 231.15
Q 81.7 231.15 81.3 231.25 81 231.3 80.3 231.55
L 80.75 230.1 84.55 230.1 84.95 228.25 78.95 228.25 77.65 232.9 79.9 233.25
Q 80.45 232.65 81.15 232.65 82.1 232.65 82.1 233.8 82.1 234.6 81.65 235.2 81.2 235.75 80.55 235.75 80.05 235.75 79.75 235.45 79.45 235.1 79.45 234.5
L 79.45 234.45 77 234.75
Q 77.2 236.1 77.95 236.7 78.7 237.3 80.2 237.3 81.8 237.3 82.75 236.75 83.65 236.15 84.1 235.4 84.5 234.6 84.5 233.6 84.5 232.4 83.8 231.75 83.15 231.15 82.05 231.15
M 93.15 231.5
Q 93.15 229.8 92.2 228.95 91.2 228.1 89.85 228.1 88.6 228.1 87.6 228.85 86.6 229.65 86.05 231.05 85.5 232.4 85.5 233.65 85.5 235.45 86.35 236.35 87.2 237.3 88.6 237.3 89.95 237.3 91 236.5 92 235.7 92.6 234.35 93.15 232.9 93.15 231.5
M 90.5 232.95
Q 90.3 234.15 89.85 234.9 89.4 235.65 88.85 235.65 87.9 235.65 87.9 234.35
L 87.9 234.3
Q 87.9 233.55 88.15 232.4 88.35 231.2 88.8 230.5 89.25 229.75 89.85 229.75 90.3 229.75 90.5 230.1 90.8 230.4 90.8 230.95 90.8 231.75 90.5 232.95
M 98.2 228.6
Q 97.65 228.1 96.7 228.1 95.45 228.1 94.75 228.9 94.05 229.7 94.05 230.85 94.05 231.75 94.65 232.25 95.15 232.75 96.1 232.75 97.4 232.75 98.1 231.95 98.75 231.05 98.75 229.95 98.75 229.05 98.2 228.6
M 95.6 231.1
Q 95.6 230.85 95.8 230.2 95.9 229.55 96.2 229.35 96.45 229.1 96.7 229.1 96.9 229.1 97.05 229.25 97.25 229.35 97.25 229.65 97.25 230.4 96.95 231.05 96.65 231.75 96.1 231.75 95.9 231.75 95.75 231.6 95.6 231.45 95.6 231.1
M 94.7 220.7
Q 94.15 221 93.85 221.55 93.55 222.1 93.55 222.7 93.55 223.4 94.05 223.95 94.55 224.45 95.55 224.45 96.35 224.45 96.9 224.1 97.4 223.8 97.7 223.2 98 222.7 98 222.15 98 221.45 97.5 220.9 97.05 220.4 96 220.4 95.2 220.4 94.7 220.7
M 95 222.7
Q 95 222.25 95.2 221.8 95.45 221.4 95.95 221.4 96.2 221.4 96.35 221.55 96.55 221.7 96.55 222.05 96.55 222.6 96.25 223 96.05 223.4 95.6 223.4 95.35 223.4 95.2 223.2 95 223 95 222.7
M 93.2 220.5
L 91.7 220.5 90.9 224.35 92.35 224.35 93.2 220.5
M 93.5 219
L 92.05 219 91.8 220.05 93.3 220.05 93.5 219
M 87.85 221.55
L 88.35 221.55 88.1 222.85
Q 88 223.35 88 223.5 88 223.85 88.2 224.15 88.5 224.45 89.1 224.45 89.45 224.45 90.1 224.35
L 90.35 223.3
Q 89.95 223.35 89.85 223.35 89.5 223.35 89.5 223.1 89.5 223 89.55 222.9
L 89.85 221.55 90.6 221.55 90.8 220.5 90.05 220.5 90.35 219.05 88.7 219.9 88.6 220.5 88.05 220.5 87.85 221.55
M 85.85 221.6
Q 85.85 221.7 85.8 221.85 85.6 221.9 84.95 221.95 84.2 222.05 83.8 222.15 83.4 222.25 83.1 222.55 82.8 222.8 82.8 223.3 82.8 223.75 83.15 224.05 83.45 224.45 84.2 224.45 84.9 224.45 85.45 223.9 85.45 224.1 85.55 224.35
L 87 224.35
Q 86.9 224.05 86.9 223.8 86.9 223.5 87.05 222.7 87.25 221.85 87.25 221.5 87.25 221 86.9 220.7 86.45 220.4 85.35 220.4 84.3 220.4 83.85 220.7 83.35 221 83.25 221.55
L 84.6 221.7
Q 84.75 221.45 84.9 221.35 85.05 221.3 85.3 221.3 85.55 221.3 85.7 221.35 85.85 221.45 85.85 221.6
M 84.25 223.2
Q 84.25 223.05 84.45 222.9 84.6 222.8 85.65 222.65 85.55 223.15 85.25 223.4 85 223.6 84.7 223.6 84.5 223.6 84.4 223.5 84.25 223.4 84.25 223.2
M 82.25 221.8
Q 82.3 221.6 82.3 221.35 82.3 220.95 82.05 220.7 81.8 220.4 81.25 220.4 80.85 220.4 80.55 220.55 80.15 220.7 79.75 221.05 79.65 220.75 79.4 220.55 79.1 220.4 78.75 220.4 77.95 220.4 77.3 221.05
L 77.4 220.5 76.05 220.5 75.2 224.35 76.7 224.35 77.1 222.5
Q 77.2 221.95 77.5 221.7 77.7 221.5 77.95 221.5 78.25 221.5 78.25 221.75 78.25 221.85 78.25 221.95 78.2 222.05 78.05 222.75
L 77.7 224.35 79.2 224.35 79.6 222.65
Q 79.7 222.05 79.9 221.75 80.15 221.5 80.45 221.5 80.75 221.5 80.75 221.75 80.75 221.85 80.75 221.95 80.7 222.05 80.55 222.7
L 80.2 224.35 81.7 224.35 82.25 221.8
M 102.65 220.65
Q 102.4 220.4 101.85 220.4 100.95 220.4 100.4 221.1
L 100.35 221.1 100.5 220.5 99.1 220.5 98.3 224.35 99.75 224.35 100.1 222.65
Q 100.25 222.1 100.5 221.75 100.75 221.5 101.05 221.5 101.35 221.5 101.35 221.8 101.35 221.9 101.2 222.55
L 100.85 224.35 102.3 224.35 102.75 222.25
Q 102.9 221.55 102.9 221.3 102.9 220.9 102.65 220.65 Z"/>
</g>
</defs>

<g transform="matrix( 1, 0, 0, 1, -39.05,-163.8) ">
<use xlink:href="#Layer0_0_FILL"/>
</g>

<g transform="matrix( 1, 0, 0, 1, -39.05,-163.8) ">
<use xlink:href="#Layer0_0_MEMBER_0_FILL"/>
</g>

<g transform="matrix( 1, 0, 0, 1, -39.05,-163.8) ">
<use xlink:href="#Layer0_0_MEMBER_1_FILL"/>
</g>

<g transform="matrix( 1, 0, 0, 1, -39.05,-163.8) ">
<use xlink:href="#Layer0_0_MEMBER_2_FILL"/>
</g>
</svg>
