
<svg xmlns="http://www.w3.org/2000/svg" version="1.1" xmlns:xlink="http://www.w3.org/1999/xlink" preserveAspectRatio="none" x="0px" y="0px" width="93px" height="93px" viewBox="0 0 93 93">
<defs>
<g id="Layer0_0_FILL">
<path fill="#FFFFFF" stroke="none" d="
M 92.8 48.35
Q 92.85 47.45 92.85 46.5 92.85 45.55 92.8 44.65 92.8 44.4 92.8 44.15 92 26.5 79.25 13.7 65.7 0.15 46.5 0.15 27.3 0.15 13.7 13.7 0.15 27.3 0.15 46.5 0.15 61.3 8.25 72.75 9.85 75 11.7 77.1 12.65 78.15 13.7 79.2 27.3 92.85 46.5 92.85 65.7 92.85 79.25 79.2 80.3 78.15 81.25 77.1 83.15 75 84.75 72.75 92.3 62.05 92.8 48.35
M 83.8 28.1
L 85.1 31.1
Q 88 38.1 88.1 45.45
L 88.1 46.35
Q 88.1 46.4 88.1 46.45
L 87.7 51.8
Q 87.5 53.15 87.25 54.55 87.1 55.25 86.95 55.9 86.65 57.1 86.3 58.3 86.15 58.8 85.95 59.3 83.75 66.35 79.45 71.9
L 73.3 78.25 71.85 79.4
Q 71.45 79.7 71.1 80 70.75 80.25 70.35 80.5 68.5 81.8 66.45 82.9
L 64.85 83.7
Q 57.7 87.3 50.15 87.95
L 41.35 87.75
Q 40.05 87.55 38.7 87.25
L 36.7 86.8
Q 36.2 86.7 35.75 86.6 30.35 85.1 25.75 82.45 24.15 81.6 22.7 80.6 20.8 79.3 19.1 77.75
L 17.95 76.7 13.95 72.35
Q 11.4 69.1 9.55 65.35
L 9.25 64.7
Q 5.4 57 4.95 48.85 4.85 47.6 4.85 46.4 4.85 40.1 6.9 33.95 7.25 32.9 7.65 31.85 7.75 31.5 7.9 31.2 9.15 27.85 10.95 24.85
L 13.4 21.25 17.7 16.45
Q 19.95 14.2 22.65 12.35 25.1 10.7 27.8 9.4
L 29.85 8.45
Q 33.6 6.7 37.55 5.85
L 42.65 5 45.8 4.85
Q 54.2 4.6 62.45 8.1
L 65.7 9.6
Q 66.55 10 67.35 10.45 68.95 11.35 70.4 12.4 70.95 12.75 71.45 13.15
L 72.45 13.9 77.95 19.2
Q 81.05 22.7 83.3 27.05
L 83.5 27.5
Q 83.65 27.8 83.8 28.1
M 52.5 72.8
Q 52.25 73.3 52.25 73.9 52.25 74.8 52.8 75.4 53.35 75.95 54.7 75.95 55.6 75.95 56.25 75.65 56.8 75.4 57.2 74.7
L 55.55 74.55
Q 55.25 75 54.75 75 54 75 53.95 74.05
L 57.35 74.05
Q 57.5 73.45 57.5 73.2 57.5 72.35 56.9 71.85 56.4 71.25 55.1 71.25 54.55 71.25 54.1 71.4 53.65 71.55 53.2 71.9 52.8 72.25 52.5 72.8
M 54.1 73.25
Q 54.2 72.75 54.5 72.5 54.75 72.3 55.1 72.3 55.35 72.3 55.6 72.45 55.8 72.6 55.8 73 55.8 73.15 55.75 73.25
L 54.1 73.25
M 50.1 74.2
Q 50.3 73.4 50.6 73.05 50.9 72.7 51.4 72.7 51.55 72.7 51.75 72.75
L 52.4 71.4
Q 52.1 71.25 51.8 71.25 51.45 71.25 51.15 71.45 50.85 71.7 50.45 72.3
L 50.4 72.25 50.6 71.35 49 71.35 48.05 75.85 49.75 75.85 50.1 74.2
M 44.7 71.25
Q 43.7 71.25 43.05 72.05 42.45 72.85 42.45 73.95 42.45 74.7 42.8 75.2 43.25 75.7 43.95 75.7 44.7 75.7 45.25 75.1
L 45.3 75.1 45.1 75.8
Q 45 76.25 44.8 76.45 44.65 76.65 44.3 76.65 43.85 76.65 43.8 76.2
L 42.15 75.95
Q 42.15 76.05 42.15 76.2 42.15 76.65 42.45 77.05 42.75 77.45 43.2 77.6 43.6 77.7 44.35 77.7 45.5 77.7 46.05 77.3 46.65 76.85 46.9 75.6
L 47.8 71.35 46.2 71.35 46.05 72
Q 45.5 71.25 44.7 71.25
M 44.4 72.9
Q 44.7 72.4 45.1 72.4 45.3 72.4 45.5 72.6 45.7 72.8 45.7 73.05 45.7 73.5 45.4 74.05 45.2 74.55 44.75 74.55 44.45 74.55 44.25 74.35 44.1 74.2 44.1 73.85 44.1 73.3 44.4 72.9
M 47.6 56.2
L 45.9 56.2 44.55 62.4 46.3 62.4 47.6 56.2
M 44.75 56.2
L 43 56.2 41.65 62.4 43.4 62.4 44.75 56.2
M 53.65 60.45
Q 53.65 61.25 54.05 61.75 54.5 62.25 55.2 62.25 55.95 62.25 56.5 61.65
L 56.35 62.35
Q 56.25 62.75 56.05 63 55.85 63.2 55.55 63.2 55.1 63.2 55.05 62.75
L 53.4 62.5
Q 53.4 62.55 53.4 62.75 53.4 63.2 53.7 63.6 54 63.95 54.4 64.1 54.85 64.2 55.6 64.2 56.7 64.2 57.3 63.8 57.85 63.4 58.15 62.15
L 59 57.9 57.45 57.9 57.3 58.55
Q 56.75 57.8 55.95 57.8 54.95 57.8 54.3 58.6 53.65 59.35 53.65 60.45
M 55.35 60.4
Q 55.35 59.85 55.65 59.4 55.95 58.95 56.35 58.95 56.55 58.95 56.75 59.15 56.9 59.3 56.9 59.55 56.9 60.05 56.65 60.55 56.4 61.1 55.95 61.1 55.65 61.1 55.5 60.9 55.35 60.7 55.35 60.4
M 52.6 61.25
L 50.95 61.1
Q 50.65 61.5 50.15 61.5 49.4 61.5 49.35 60.6
L 52.75 60.6
Q 52.9 59.95 52.9 59.7 52.9 58.9 52.3 58.35 51.8 57.8 50.5 57.8 49.95 57.8 49.5 57.95 49.05 58.05 48.6 58.4 48.2 58.8 47.9 59.3 47.65 59.85 47.65 60.45 47.65 61.3 48.2 61.9 48.75 62.5 50.1 62.5 51 62.5 51.65 62.2 52.2 61.9 52.6 61.25
M 51.2 59.5
Q 51.2 59.65 51.15 59.75
L 49.5 59.75
Q 49.6 59.3 49.9 59.05 50.15 58.8 50.5 58.8 50.75 58.8 51 59 51.2 59.15 51.2 59.5
M 63.25 73.2
Q 63.25 72.35 62.7 71.85 62.15 71.25 60.9 71.25 60.35 71.25 59.85 71.4 59.45 71.55 59 71.9 58.55 72.25 58.3 72.8 58.05 73.3 58.05 73.9 58.05 74.8 58.6 75.4 59.15 75.95 60.45 75.95 61.4 75.95 62 75.65 62.6 75.4 63 74.7
L 61.3 74.55
Q 61 75 60.55 75 59.8 75 59.7 74.05
L 63.15 74.05
Q 63.25 73.45 63.25 73.2
M 61.6 73
Q 61.6 73.15 61.55 73.25
L 59.85 73.25
Q 60 72.75 60.25 72.5 60.55 72.3 60.85 72.3 61.15 72.3 61.4 72.45 61.6 72.6 61.6 73
M 62.15 57.8
Q 61.6 57.8 61.15 57.95 60.75 58.05 60.25 58.4 59.85 58.8 59.6 59.3 59.3 59.85 59.3 60.45 59.3 61.3 59.85 61.9 60.45 62.5 61.75 62.5 62.65 62.5 63.3 62.2 63.9 61.9 64.3 61.25
L 62.6 61.1
Q 62.3 61.5 61.8 61.5 61.05 61.5 61 60.6
L 64.4 60.6
Q 64.55 59.95 64.55 59.7 64.55 58.9 64 58.35 63.45 57.8 62.15 57.8
M 62.15 58.8
Q 62.45 58.8 62.65 59 62.85 59.15 62.85 59.5 62.85 59.65 62.85 59.75
L 61.15 59.75
Q 61.3 59.3 61.55 59.05 61.8 58.8 62.15 58.8
M 37.35 71.9
Q 36.95 72.25 36.7 72.8 36.4 73.3 36.4 73.9 36.4 74.8 36.95 75.4 37.55 75.95 38.85 75.95 39.75 75.95 40.4 75.65 41 75.4 41.35 74.7
L 39.7 74.55
Q 39.4 75 38.9 75 38.15 75 38.1 74.05
L 41.5 74.05
Q 41.65 73.45 41.65 73.2 41.65 72.35 41.1 71.85 40.55 71.25 39.25 71.25 38.7 71.25 38.25 71.4 37.85 71.55 37.35 71.9
M 38.65 72.5
Q 38.9 72.3 39.25 72.3 39.55 72.3 39.75 72.45 39.95 72.6 39.95 73 39.95 73.15 39.95 73.25
L 38.25 73.25
Q 38.4 72.75 38.65 72.5
M 31.2 72.1
Q 30.65 73 30.65 74.1 30.65 74.95 31 75.5 31.4 75.95 32.2 75.95 32.6 75.95 32.9 75.85 33.2 75.75 33.55 75.4
L 33.6 75.4 33.5 75.85 35.1 75.85 36.4 69.65 34.7 69.65 34.2 71.95
Q 33.7 71.25 32.75 71.25 31.85 71.25 31.2 72.1
M 32.55 72.9
Q 32.85 72.4 33.25 72.4 33.5 72.4 33.7 72.6 33.9 72.8 33.9 73.2 33.9 73.75 33.6 74.35 33.35 74.85 32.9 74.85 32.65 74.85 32.45 74.65 32.3 74.45 32.3 74.05 32.3 73.4 32.55 72.9
M 36.45 59.15
Q 36.1 59.8 36.1 60.45 36.1 61.35 36.7 61.95 37.25 62.5 38.4 62.5 39.35 62.5 40 62.15 40.6 61.75 40.95 61.1 41.25 60.45 41.25 59.85 41.25 59 40.7 58.4 40.15 57.8 38.95 57.8 38.05 57.8 37.45 58.15 36.75 58.5 36.45 59.15
M 39.55 59.75
Q 39.55 60.35 39.25 60.85 39 61.35 38.5 61.35 38.2 61.35 38 61.1 37.8 60.85 37.8 60.45 37.8 59.95 38.05 59.45 38.3 59 38.9 59 39.15 59 39.35 59.15 39.55 59.3 39.55 59.75
M 33.8 57.75
Q 34.05 57.95 34.05 58.4
L 35.8 58.2
Q 35.7 57.25 35.05 56.7 34.35 56.1 33.2 56.1 32.05 56.1 31.25 56.6 30.45 57.15 30 58.05 29.6 59 29.6 59.85 29.6 61.1 30.3 61.75 31 62.5 32.35 62.5 33.65 62.5 34.45 61.85 35.25 61.2 35.55 60.25
L 33.7 59.95
Q 33.5 60.5 33.2 60.8 32.9 61.1 32.45 61.1 32 61.1 31.7 60.8 31.5 60.45 31.5 60 31.5 59.4 31.7 58.75 32 58.15 32.35 57.8 32.75 57.5 33.2 57.5 33.5 57.5 33.8 57.75
M 37.35 42.7
L 35.65 42.7 35.15 45
Q 34.65 44.3 33.7 44.3 32.8 44.3 32.15 45.2 31.6 46.05 31.6 47.15 31.6 48 32 48.55 32.35 49 33.15 49 33.55 49 33.85 48.9 34.15 48.8 34.5 48.45
L 34.55 48.45 34.45 48.9 36.05 48.9 37.35 42.7
M 33.5 45.95
Q 33.8 45.45 34.2 45.45 34.45 45.45 34.65 45.65 34.85 45.85 34.85 46.25 34.85 46.8 34.55 47.4 34.3 47.9 33.85 47.9 33.6 47.9 33.4 47.7 33.25 47.5 33.25 47.1 33.25 46.45 33.5 45.95
M 24.1 32.55
Q 23.85 32.65 23.1 32.7 22.25 32.8 21.75 32.9 21.25 33 20.95 33.3 20.6 33.65 20.6 34.25 20.6 34.75 20.95 35.15 21.35 35.55 22.2 35.55 23.05 35.55 23.75 34.95 23.75 35.2 23.8 35.45
L 25.45 35.45
Q 25.35 35.1 25.35 34.85 25.35 34.45 25.55 33.55 25.8 32.6 25.8 32.15 25.8 31.5 25.35 31.2 24.9 30.85 23.55 30.85 22.4 30.85 21.8 31.2 21.25 31.55 21.1 32.2
L 22.7 32.35
Q 22.85 32.05 23.05 31.95 23.2 31.85 23.55 31.85 23.8 31.85 23.95 31.95 24.15 32.05 24.15 32.25 24.15 32.35 24.1 32.55
M 22.45 34.5
Q 22.3 34.35 22.3 34.15 22.3 33.95 22.5 33.8 22.7 33.65 23.9 33.45 23.8 34.1 23.45 34.35 23.15 34.65 22.85 34.65 22.6 34.65 22.45 34.5
M 32.45 30.95
L 33.3 35.45 34.85 35.45 37.65 30.95 35.8 30.95 34.35 33.8 34.3 33.8 34.05 30.95 32.45 30.95
M 32.3 29.25
L 30.6 29.25 30.1 31.55
Q 29.6 30.85 28.65 30.85 27.75 30.85 27.1 31.7 26.5 32.55 26.5 33.7 26.5 34.55 26.9 35.05 27.3 35.55 28.1 35.55 28.5 35.55 28.8 35.45 29.1 35.3 29.45 35
L 29.5 35 29.4 35.45 31 35.45 32.3 29.25
M 29.6 32.2
Q 29.75 32.4 29.75 32.8 29.75 33.35 29.5 33.9 29.25 34.45 28.8 34.45 28.55 34.45 28.35 34.25 28.2 34.05 28.2 33.65 28.2 33 28.45 32.5 28.7 32 29.1 32 29.4 32 29.6 32.2
M 38.4 22
L 38.75 20.45 35.65 20.45 36.7 15.75 34.75 15.75 33.4 22 38.4 22
M 64.3 31.65
L 64.45 30.95 62.85 30.95 61.9 35.45 63.6 35.45 64.05 33.5
Q 64.2 32.8 64.45 32.45 64.75 32.1 65.15 32.1 65.45 32.1 65.45 32.5 65.45 32.6 65.3 33.35
L 64.85 35.45 66.6 35.45 67.1 33
Q 67.25 32.2 67.25 31.95 67.25 31.5 66.95 31.2 66.7 30.85 66.05 30.85 65.05 30.85 64.3 31.65
M 71.75 30.95
L 71.55 31.6
Q 71.05 30.85 70.25 30.85 69.25 30.85 68.6 31.65 67.95 32.45 67.95 33.5 67.95 34.3 68.35 34.8 68.8 35.3 69.45 35.3 70.25 35.3 70.8 34.7
L 70.65 35.4
Q 70.55 35.8 70.35 36.05 70.15 36.25 69.85 36.25 69.35 36.25 69.35 35.8
L 67.7 35.55
Q 67.7 35.6 67.7 35.8 67.7 36.25 68 36.65 68.3 37.05 68.7 37.15 69.15 37.25 69.9 37.25 71 37.25 71.55 36.85 72.15 36.45 72.45 35.2
L 73.3 30.95 71.75 30.95
M 71.05 32.2
Q 71.2 32.35 71.2 32.65 71.2 33.1 70.95 33.6 70.7 34.15 70.25 34.15 69.95 34.15 69.8 33.95 69.65 33.8 69.65 33.45 69.65 32.9 69.95 32.45 70.25 32 70.6 32 70.85 32 71.05 32.2
M 59.3 45.1
L 59.4 44.4 57.8 44.4 56.85 48.9 58.6 48.9 59 47
Q 59.15 46.3 59.45 45.95 59.7 45.55 60.1 45.55 60.45 45.55 60.45 45.95 60.45 46.05 60.25 46.8
L 59.85 48.9 61.55 48.9 62.1 46.45
Q 62.25 45.65 62.25 45.4 62.25 44.95 61.95 44.65 61.65 44.3 61 44.3 60 44.3 59.3 45.1
M 54.9 45.1
Q 54.4 44.3 53.55 44.3 52.6 44.3 51.9 45.1 51.3 45.9 51.3 47 51.3 47.75 51.7 48.25 52.1 48.75 52.8 48.75 53.55 48.75 54.1 48.15
L 54.15 48.15 54 48.85
Q 53.9 49.3 53.7 49.5 53.5 49.7 53.15 49.7 52.7 49.7 52.7 49.25
L 51.05 49
Q 51.05 49.1 51.05 49.25 51.05 49.7 51.35 50.1 51.65 50.5 52.05 50.65 52.5 50.75 53.25 50.75 54.35 50.75 54.9 50.35 55.5 49.9 55.75 48.65
L 56.65 44.4 55.1 44.4 54.9 45.1
M 53.25 45.95
Q 53.55 45.45 53.95 45.45 54.2 45.45 54.4 45.65 54.55 45.85 54.55 46.1 54.55 46.55 54.3 47.1 54.05 47.6 53.6 47.6 53.3 47.6 53.15 47.4 52.95 47.25 52.95 46.9 52.95 46.35 53.25 45.95
M 49.55 42.7
L 49.3 43.9 51.05 43.9 51.25 42.7 49.55 42.7
M 48.2 48.9
L 49.95 48.9 50.9 44.4 49.2 44.4 48.2 48.9
M 42.6 46.25
Q 42.6 45.4 42.05 44.9 41.5 44.3 40.2 44.3 39.65 44.3 39.2 44.45 38.8 44.6 38.3 44.95 37.9 45.3 37.65 45.85 37.35 46.35 37.35 46.95 37.35 47.85 37.9 48.45 38.5 49 39.8 49 40.7 49 41.35 48.75 41.95 48.45 42.35 47.75
L 40.65 47.6
Q 40.35 48.05 39.85 48.05 39.1 48.05 39.05 47.1
L 42.45 47.1
Q 42.6 46.5 42.6 46.25
M 40.9 46.05
Q 40.9 46.2 40.9 46.3
L 39.2 46.3
Q 39.35 45.8 39.6 45.55 39.85 45.35 40.2 45.35 40.5 45.35 40.7 45.5 40.9 45.65 40.9 46.05
M 45.2 45.95
Q 45.1 45.8 45.1 45.65 45.1 45.5 45.2 45.4 45.4 45.3 45.7 45.3 46.25 45.3 46.3 45.65
L 47.9 45.5
Q 47.8 44.85 47.3 44.6 46.85 44.3 45.95 44.3 45.15 44.3 44.65 44.55 44.05 44.75 43.8 45.15 43.55 45.5 43.55 45.9 43.55 46.4 43.9 46.7 44.25 47 45.25 47.2 45.7 47.25 45.85 47.3 46 47.4 46 47.6 46 47.85 45.8 47.95 45.6 48.05 45.3 48.05 44.65 48.05 44.55 47.55
L 42.85 47.7
Q 42.95 48.4 43.45 48.75 43.95 49 45 49 46.35 49 47 48.55 47.6 48.05 47.6 47.35 47.6 46.85 47.3 46.55 46.95 46.25 45.95 46.1 45.35 46.05 45.2 45.95
M 42.5 32.75
Q 42.5 31.95 41.95 31.4 41.45 30.85 40.15 30.85 39.6 30.85 39.15 31 38.7 31.1 38.25 31.5 37.85 31.85 37.55 32.35 37.3 32.9 37.3 33.5 37.3 34.35 37.85 34.95 38.4 35.55 39.75 35.55 40.65 35.55 41.3 35.25 41.85 34.95 42.25 34.3
L 40.6 34.15
Q 40.3 34.55 39.8 34.55 39.05 34.55 39 33.65
L 42.4 33.65
Q 42.5 33 42.5 32.75
M 40.85 32.55
Q 40.85 32.7 40.8 32.8
L 39.15 32.8
Q 39.25 32.35 39.55 32.1 39.8 31.85 40.15 31.85 40.4 31.85 40.65 32.05 40.85 32.2 40.85 32.55
M 44.9 33.8
Q 45.05 33 45.4 32.65 45.7 32.25 46.15 32.25 46.35 32.25 46.55 32.35
L 47.15 31
Q 46.85 30.85 46.55 30.85 46.2 30.85 45.9 31.05 45.6 31.3 45.2 31.85
L 45.4 30.95 43.75 30.95 42.8 35.45 44.55 35.45 44.9 33.8
M 50.35 29.3
L 48.4 30.25 48.25 30.95 47.6 30.95 47.4 32.2 48 32.2 47.7 33.75
Q 47.55 34.3 47.55 34.45 47.55 34.85 47.85 35.2 48.15 35.55 48.85 35.55 49.25 35.55 50 35.45
L 50.3 34.25
Q 49.9 34.3 49.75 34.3 49.35 34.3 49.35 34 49.35 33.85 49.4 33.8
L 49.7 32.2 50.6 32.2 50.85 30.95 50 30.95 50.35 29.3
M 60.05 30.95
L 59.05 35.45 60.8 35.45 61.75 30.95 60.05 30.95
M 50.9 35.45
L 52.65 35.45 53.6 30.95 51.9 30.95 50.9 35.45
M 55.45 31.1
Q 54.9 31.3 54.6 31.65 54.35 32.05 54.35 32.45 54.35 32.9 54.7 33.25 55.1 33.55 56.05 33.7 56.5 33.8 56.65 33.85 56.8 33.95 56.8 34.15 56.8 34.35 56.6 34.5 56.4 34.6 56.1 34.6 55.45 34.6 55.35 34.05
L 53.65 34.2
Q 53.75 34.95 54.25 35.25 54.75 35.55 55.85 35.55 57.15 35.55 57.8 35.05 58.45 34.55 58.45 33.85 58.45 33.4 58.1 33.1 57.75 32.8 56.8 32.65 56.15 32.55 56.05 32.45 55.9 32.35 55.9 32.2 55.9 32.05 56.05 31.9 56.2 31.8 56.5 31.8 57.05 31.8 57.1 32.2
L 58.7 32.05
Q 58.65 31.4 58.15 31.1 57.65 30.85 56.75 30.85 55.95 30.85 55.45 31.1
M 52.25 29.25
L 52 30.4 53.75 30.4 53.95 29.25 52.25 29.25
M 60.4 29.25
L 60.15 30.4 61.9 30.4 62.1 29.25 60.4 29.25
M 53.8 17.6
Q 53.5 17.8 53.1 18.4
L 53.05 18.35 53.25 17.5 51.65 17.5 50.7 22 52.4 22 52.8 20.3
Q 52.95 19.5 53.25 19.15 53.55 18.8 54.05 18.8 54.2 18.8 54.4 18.85
L 55.05 17.5
Q 54.75 17.4 54.45 17.4 54.1 17.4 53.8 17.6
M 57.4 17.5
L 55.75 17.5 54.8 22 56.55 22 57 20.05
Q 57.1 19.35 57.4 19 57.65 18.65 58.05 18.65 58.4 18.65 58.4 19 58.4 19.1 58.25 19.9
L 57.8 22 59.5 22 60.05 19.5
Q 60.2 18.75 60.2 18.45 60.2 18 59.9 17.7 59.6 17.4 59 17.4 57.95 17.4 57.25 18.15
L 57.4 17.5
M 44.05 17.95
Q 43.55 17.4 42.25 17.4 41.7 17.4 41.25 17.5 40.8 17.65 40.35 18 39.95 18.35 39.65 18.9 39.4 19.4 39.4 20 39.4 20.9 39.95 21.5 40.5 22.1 41.85 22.1 42.75 22.1 43.4 21.8 43.95 21.5 44.35 20.85
L 42.7 20.65
Q 42.4 21.1 41.9 21.1 41.15 21.1 41.1 20.15
L 44.5 20.15
Q 44.65 19.55 44.65 19.3 44.65 18.45 44.05 17.95
M 42.25 18.4
Q 42.5 18.4 42.75 18.55 42.95 18.75 42.95 19.1 42.95 19.25 42.9 19.35
L 41.25 19.35
Q 41.35 18.85 41.65 18.65 41.9 18.4 42.25 18.4
M 48 18.4
Q 48.25 18.4 48.45 18.5 48.65 18.6 48.65 18.75 48.65 18.9 48.55 19.1 48.3 19.15 47.6 19.2 46.75 19.3 46.25 19.4 45.75 19.55 45.4 19.85 45.1 20.15 45.1 20.75 45.1 21.3 45.45 21.7 45.85 22.1 46.7 22.1 47.5 22.1 48.2 21.45 48.2 21.7 48.25 22
L 49.95 22
Q 49.8 21.65 49.8 21.35 49.8 21 50.05 20.05 50.3 19.1 50.3 18.7 50.3 18.05 49.8 17.7 49.35 17.4 48 17.4 46.85 17.4 46.3 17.75 45.75 18.05 45.6 18.75
L 47.2 18.9
Q 47.3 18.6 47.5 18.5 47.7 18.4 48 18.4
M 47.95 20.9
Q 47.6 21.15 47.3 21.15 47.05 21.15 46.95 21.05 46.75 20.9 46.75 20.65 46.75 20.45 47 20.3 47.2 20.15 48.35 19.95 48.25 20.65 47.95 20.9 Z"/>

<path fill="#CCCCCC" stroke="none" d="
M 66.45 82.9
Q 68.5 81.8 70.35 80.5 68.85 81.5 67.25 82.4 66.85 82.65 66.45 82.9
M 9.55 65.35
Q 11.4 69.1 13.95 72.35 12.15 69.95 10.6 67.25 10.05 66.3 9.55 65.35
M 4.9 46.45
Q 4.95 41.15 6.4 35.7 6.65 34.85 6.9 33.95 4.85 40.1 4.85 46.4 4.85 47.6 4.95 48.85 4.9 47.65 4.9 46.45
M 27.8 9.4
Q 25.1 10.7 22.65 12.35 19.95 14.2 17.7 16.45 21.25 13.1 25.8 10.5 26.8 9.95 27.8 9.4
M 55.4 5.95
Q 56.3 6.15 57.25 6.4 59.95 7.15 62.45 8.1 54.2 4.6 45.8 4.85 50.55 4.85 55.4 5.95
M 86.3 58.3
Q 86.65 57.1 86.95 55.9 86.75 56.6 86.55 57.25 86.45 57.75 86.3 58.3
M 82.45 25.75
L 82.5 25.75
Q 82.9 26.4 83.3 27.05 81.05 22.7 77.95 19.2 80.4 22.2 82.45 25.75 Z"/>

<path fill="#7A503F" stroke="none" d="
M 85.1 31.1
L 83.8 28.1
Q 83.65 27.8 83.5 27.5
L 83.3 27.05
Q 82.9 26.4 82.5 25.75
L 82.45 25.75
Q 80.4 22.2 77.95 19.2
L 72.45 13.9 71.45 13.15
Q 70.95 12.75 70.4 12.4 68.95 11.35 67.35 10.45 66.55 10 65.7 9.6
L 62.45 8.1
Q 59.95 7.15 57.25 6.4 56.3 6.15 55.4 5.95 50.55 4.85 45.8 4.85
L 42.65 5 37.55 5.85
Q 33.6 6.7 29.85 8.45
L 27.8 9.4
Q 26.8 9.95 25.8 10.5 21.25 13.1 17.7 16.45
L 13.4 21.25 10.95 24.85
Q 9.15 27.85 7.9 31.2 7.75 31.5 7.65 31.85 7.25 32.9 6.9 33.95 6.65 34.85 6.4 35.7 4.95 41.15 4.9 46.45 4.9 47.65 4.95 48.85 5.4 57 9.25 64.7
L 9.55 65.35
Q 10.05 66.3 10.6 67.25 12.15 69.95 13.95 72.35
L 17.95 76.7 19.1 77.75
Q 20.8 79.3 22.7 80.6 24.15 81.6 25.75 82.45 30.35 85.1 35.75 86.6 36.2 86.7 36.7 86.8
L 38.7 87.25
Q 40.05 87.55 41.35 87.75
L 50.15 87.95
Q 57.7 87.3 64.85 83.7
L 66.45 82.9
Q 66.85 82.65 67.25 82.4 68.85 81.5 70.35 80.5 70.75 80.25 71.1 80 71.45 79.7 71.85 79.4
L 73.3 78.25 79.45 71.9
Q 83.75 66.35 85.95 59.3 86.15 58.8 86.3 58.3 86.45 57.75 86.55 57.25 86.75 56.6 86.95 55.9 87.1 55.25 87.25 54.55 87.5 53.15 87.7 51.8
L 88.1 46.45
Q 88.1 46.4 88.1 46.35
L 88.1 45.45
Q 88 38.1 85.1 31.1
M 48.45 18.5
Q 48.25 18.4 48 18.4 47.7 18.4 47.5 18.5 47.3 18.6 47.2 18.9
L 45.6 18.75
Q 45.75 18.05 46.3 17.75 46.85 17.4 48 17.4 49.35 17.4 49.8 17.7 50.3 18.05 50.3 18.7 50.3 19.1 50.05 20.05 49.8 21 49.8 21.35 49.8 21.65 49.95 22
L 48.25 22
Q 48.2 21.7 48.2 21.45 47.5 22.1 46.7 22.1 45.85 22.1 45.45 21.7 45.1 21.3 45.1 20.75 45.1 20.15 45.4 19.85 45.75 19.55 46.25 19.4 46.75 19.3 47.6 19.2 48.3 19.15 48.55 19.1 48.65 18.9 48.65 18.75 48.65 18.6 48.45 18.5
M 42.25 17.4
Q 43.55 17.4 44.05 17.95 44.65 18.45 44.65 19.3 44.65 19.55 44.5 20.15
L 41.1 20.15
Q 41.15 21.1 41.9 21.1 42.4 21.1 42.7 20.65
L 44.35 20.85
Q 43.95 21.5 43.4 21.8 42.75 22.1 41.85 22.1 40.5 22.1 39.95 21.5 39.4 20.9 39.4 20 39.4 19.4 39.65 18.9 39.95 18.35 40.35 18 40.8 17.65 41.25 17.5 41.7 17.4 42.25 17.4
M 55.75 17.5
L 57.4 17.5 57.25 18.15
Q 57.95 17.4 59 17.4 59.6 17.4 59.9 17.7 60.2 18 60.2 18.45 60.2 18.75 60.05 19.5
L 59.5 22 57.8 22 58.25 19.9
Q 58.4 19.1 58.4 19 58.4 18.65 58.05 18.65 57.65 18.65 57.4 19 57.1 19.35 57 20.05
L 56.55 22 54.8 22 55.75 17.5
M 53.1 18.4
Q 53.5 17.8 53.8 17.6 54.1 17.4 54.45 17.4 54.75 17.4 55.05 17.5
L 54.4 18.85
Q 54.2 18.8 54.05 18.8 53.55 18.8 53.25 19.15 52.95 19.5 52.8 20.3
L 52.4 22 50.7 22 51.65 17.5 53.25 17.5 53.05 18.35 53.1 18.4
M 60.15 30.4
L 60.4 29.25 62.1 29.25 61.9 30.4 60.15 30.4
M 52 30.4
L 52.25 29.25 53.95 29.25 53.75 30.4 52 30.4
M 54.6 31.65
Q 54.9 31.3 55.45 31.1 55.95 30.85 56.75 30.85 57.65 30.85 58.15 31.1 58.65 31.4 58.7 32.05
L 57.1 32.2
Q 57.05 31.8 56.5 31.8 56.2 31.8 56.05 31.9 55.9 32.05 55.9 32.2 55.9 32.35 56.05 32.45 56.15 32.55 56.8 32.65 57.75 32.8 58.1 33.1 58.45 33.4 58.45 33.85 58.45 34.55 57.8 35.05 57.15 35.55 55.85 35.55 54.75 35.55 54.25 35.25 53.75 34.95 53.65 34.2
L 55.35 34.05
Q 55.45 34.6 56.1 34.6 56.4 34.6 56.6 34.5 56.8 34.35 56.8 34.15 56.8 33.95 56.65 33.85 56.5 33.8 56.05 33.7 55.1 33.55 54.7 33.25 54.35 32.9 54.35 32.45 54.35 32.05 54.6 31.65
M 52.65 35.45
L 50.9 35.45 51.9 30.95 53.6 30.95 52.65 35.45
M 59.05 35.45
L 60.05 30.95 61.75 30.95 60.8 35.45 59.05 35.45
M 48.4 30.25
L 50.35 29.3 50 30.95 50.85 30.95 50.6 32.2 49.7 32.2 49.4 33.8
Q 49.35 33.85 49.35 34 49.35 34.3 49.75 34.3 49.9 34.3 50.3 34.25
L 50 35.45
Q 49.25 35.55 48.85 35.55 48.15 35.55 47.85 35.2 47.55 34.85 47.55 34.45 47.55 34.3 47.7 33.75
L 48 32.2 47.4 32.2 47.6 30.95 48.25 30.95 48.4 30.25
M 45.4 32.65
Q 45.05 33 44.9 33.8
L 44.55 35.45 42.8 35.45 43.75 30.95 45.4 30.95 45.2 31.85
Q 45.6 31.3 45.9 31.05 46.2 30.85 46.55 30.85 46.85 30.85 47.15 31
L 46.55 32.35
Q 46.35 32.25 46.15 32.25 45.7 32.25 45.4 32.65
M 41.95 31.4
Q 42.5 31.95 42.5 32.75 42.5 33 42.4 33.65
L 39 33.65
Q 39.05 34.55 39.8 34.55 40.3 34.55 40.6 34.15
L 42.25 34.3
Q 41.85 34.95 41.3 35.25 40.65 35.55 39.75 35.55 38.4 35.55 37.85 34.95 37.3 34.35 37.3 33.5 37.3 32.9 37.55 32.35 37.85 31.85 38.25 31.5 38.7 31.1 39.15 31 39.6 30.85 40.15 30.85 41.45 30.85 41.95 31.4
M 45.1 45.65
Q 45.1 45.8 45.2 45.95 45.35 46.05 45.95 46.1 46.95 46.25 47.3 46.55 47.6 46.85 47.6 47.35 47.6 48.05 47 48.55 46.35 49 45 49 43.95 49 43.45 48.75 42.95 48.4 42.85 47.7
L 44.55 47.55
Q 44.65 48.05 45.3 48.05 45.6 48.05 45.8 47.95 46 47.85 46 47.6 46 47.4 45.85 47.3 45.7 47.25 45.25 47.2 44.25 47 43.9 46.7 43.55 46.4 43.55 45.9 43.55 45.5 43.8 45.15 44.05 44.75 44.65 44.55 45.15 44.3 45.95 44.3 46.85 44.3 47.3 44.6 47.8 44.85 47.9 45.5
L 46.3 45.65
Q 46.25 45.3 45.7 45.3 45.4 45.3 45.2 45.4 45.1 45.5 45.1 45.65
M 42.05 44.9
Q 42.6 45.4 42.6 46.25 42.6 46.5 42.45 47.1
L 39.05 47.1
Q 39.1 48.05 39.85 48.05 40.35 48.05 40.65 47.6
L 42.35 47.75
Q 41.95 48.45 41.35 48.75 40.7 49 39.8 49 38.5 49 37.9 48.45 37.35 47.85 37.35 46.95 37.35 46.35 37.65 45.85 37.9 45.3 38.3 44.95 38.8 44.6 39.2 44.45 39.65 44.3 40.2 44.3 41.5 44.3 42.05 44.9
M 49.95 48.9
L 48.2 48.9 49.2 44.4 50.9 44.4 49.95 48.9
M 49.3 43.9
L 49.55 42.7 51.25 42.7 51.05 43.9 49.3 43.9
M 53.55 44.3
Q 54.4 44.3 54.9 45.1
L 55.1 44.4 56.65 44.4 55.75 48.65
Q 55.5 49.9 54.9 50.35 54.35 50.75 53.25 50.75 52.5 50.75 52.05 50.65 51.65 50.5 51.35 50.1 51.05 49.7 51.05 49.25 51.05 49.1 51.05 49
L 52.7 49.25
Q 52.7 49.7 53.15 49.7 53.5 49.7 53.7 49.5 53.9 49.3 54 48.85
L 54.15 48.15 54.1 48.15
Q 53.55 48.75 52.8 48.75 52.1 48.75 51.7 48.25 51.3 47.75 51.3 47 51.3 45.9 51.9 45.1 52.6 44.3 53.55 44.3
M 59.4 44.4
L 59.3 45.1
Q 60 44.3 61 44.3 61.65 44.3 61.95 44.65 62.25 44.95 62.25 45.4 62.25 45.65 62.1 46.45
L 61.55 48.9 59.85 48.9 60.25 46.8
Q 60.45 46.05 60.45 45.95 60.45 45.55 60.1 45.55 59.7 45.55 59.45 45.95 59.15 46.3 59 47
L 58.6 48.9 56.85 48.9 57.8 44.4 59.4 44.4
M 71.55 31.6
L 71.75 30.95 73.3 30.95 72.45 35.2
Q 72.15 36.45 71.55 36.85 71 37.25 69.9 37.25 69.15 37.25 68.7 37.15 68.3 37.05 68 36.65 67.7 36.25 67.7 35.8 67.7 35.6 67.7 35.55
L 69.35 35.8
Q 69.35 36.25 69.85 36.25 70.15 36.25 70.35 36.05 70.55 35.8 70.65 35.4
L 70.8 34.7
Q 70.25 35.3 69.45 35.3 68.8 35.3 68.35 34.8 67.95 34.3 67.95 33.5 67.95 32.45 68.6 31.65 69.25 30.85 70.25 30.85 71.05 30.85 71.55 31.6
M 64.45 30.95
L 64.3 31.65
Q 65.05 30.85 66.05 30.85 66.7 30.85 66.95 31.2 67.25 31.5 67.25 31.95 67.25 32.2 67.1 33
L 66.6 35.45 64.85 35.45 65.3 33.35
Q 65.45 32.6 65.45 32.5 65.45 32.1 65.15 32.1 64.75 32.1 64.45 32.45 64.2 32.8 64.05 33.5
L 63.6 35.45 61.9 35.45 62.85 30.95 64.45 30.95
M 38.75 20.45
L 38.4 22 33.4 22 34.75 15.75 36.7 15.75 35.65 20.45 38.75 20.45
M 30.6 29.25
L 32.3 29.25 31 35.45 29.4 35.45 29.5 35 29.45 35
Q 29.1 35.3 28.8 35.45 28.5 35.55 28.1 35.55 27.3 35.55 26.9 35.05 26.5 34.55 26.5 33.7 26.5 32.55 27.1 31.7 27.75 30.85 28.65 30.85 29.6 30.85 30.1 31.55
L 30.6 29.25
M 33.3 35.45
L 32.45 30.95 34.05 30.95 34.3 33.8 34.35 33.8 35.8 30.95 37.65 30.95 34.85 35.45 33.3 35.45
M 23.1 32.7
Q 23.85 32.65 24.1 32.55 24.15 32.35 24.15 32.25 24.15 32.05 23.95 31.95 23.8 31.85 23.55 31.85 23.2 31.85 23.05 31.95 22.85 32.05 22.7 32.35
L 21.1 32.2
Q 21.25 31.55 21.8 31.2 22.4 30.85 23.55 30.85 24.9 30.85 25.35 31.2 25.8 31.5 25.8 32.15 25.8 32.6 25.55 33.55 25.35 34.45 25.35 34.85 25.35 35.1 25.45 35.45
L 23.8 35.45
Q 23.75 35.2 23.75 34.95 23.05 35.55 22.2 35.55 21.35 35.55 20.95 35.15 20.6 34.75 20.6 34.25 20.6 33.65 20.95 33.3 21.25 33 21.75 32.9 22.25 32.8 23.1 32.7
M 35.65 42.7
L 37.35 42.7 36.05 48.9 34.45 48.9 34.55 48.45 34.5 48.45
Q 34.15 48.8 33.85 48.9 33.55 49 33.15 49 32.35 49 32 48.55 31.6 48 31.6 47.15 31.6 46.05 32.15 45.2 32.8 44.3 33.7 44.3 34.65 44.3 35.15 45
L 35.65 42.7
M 34.05 58.4
Q 34.05 57.95 33.8 57.75 33.5 57.5 33.2 57.5 32.75 57.5 32.35 57.8 32 58.15 31.7 58.75 31.5 59.4 31.5 60 31.5 60.45 31.7 60.8 32 61.1 32.45 61.1 32.9 61.1 33.2 60.8 33.5 60.5 33.7 59.95
L 35.55 60.25
Q 35.25 61.2 34.45 61.85 33.65 62.5 32.35 62.5 31 62.5 30.3 61.75 29.6 61.1 29.6 59.85 29.6 59 30 58.05 30.45 57.15 31.25 56.6 32.05 56.1 33.2 56.1 34.35 56.1 35.05 56.7 35.7 57.25 35.8 58.2
L 34.05 58.4
M 36.1 60.45
Q 36.1 59.8 36.45 59.15 36.75 58.5 37.45 58.15 38.05 57.8 38.95 57.8 40.15 57.8 40.7 58.4 41.25 59 41.25 59.85 41.25 60.45 40.95 61.1 40.6 61.75 40 62.15 39.35 62.5 38.4 62.5 37.25 62.5 36.7 61.95 36.1 61.35 36.1 60.45
M 30.65 74.1
Q 30.65 73 31.2 72.1 31.85 71.25 32.75 71.25 33.7 71.25 34.2 71.95
L 34.7 69.65 36.4 69.65 35.1 75.85 33.5 75.85 33.6 75.4 33.55 75.4
Q 33.2 75.75 32.9 75.85 32.6 75.95 32.2 75.95 31.4 75.95 31 75.5 30.65 74.95 30.65 74.1
M 36.7 72.8
Q 36.95 72.25 37.35 71.9 37.85 71.55 38.25 71.4 38.7 71.25 39.25 71.25 40.55 71.25 41.1 71.85 41.65 72.35 41.65 73.2 41.65 73.45 41.5 74.05
L 38.1 74.05
Q 38.15 75 38.9 75 39.4 75 39.7 74.55
L 41.35 74.7
Q 41 75.4 40.4 75.65 39.75 75.95 38.85 75.95 37.55 75.95 36.95 75.4 36.4 74.8 36.4 73.9 36.4 73.3 36.7 72.8
M 61.15 57.95
Q 61.6 57.8 62.15 57.8 63.45 57.8 64 58.35 64.55 58.9 64.55 59.7 64.55 59.95 64.4 60.6
L 61 60.6
Q 61.05 61.5 61.8 61.5 62.3 61.5 62.6 61.1
L 64.3 61.25
Q 63.9 61.9 63.3 62.2 62.65 62.5 61.75 62.5 60.45 62.5 59.85 61.9 59.3 61.3 59.3 60.45 59.3 59.85 59.6 59.3 59.85 58.8 60.25 58.4 60.75 58.05 61.15 57.95
M 62.7 71.85
Q 63.25 72.35 63.25 73.2 63.25 73.45 63.15 74.05
L 59.7 74.05
Q 59.8 75 60.55 75 61 75 61.3 74.55
L 63 74.7
Q 62.6 75.4 62 75.65 61.4 75.95 60.45 75.95 59.15 75.95 58.6 75.4 58.05 74.8 58.05 73.9 58.05 73.3 58.3 72.8 58.55 72.25 59 71.9 59.45 71.55 59.85 71.4 60.35 71.25 60.9 71.25 62.15 71.25 62.7 71.85
M 50.95 61.1
L 52.6 61.25
Q 52.2 61.9 51.65 62.2 51 62.5 50.1 62.5 48.75 62.5 48.2 61.9 47.65 61.3 47.65 60.45 47.65 59.85 47.9 59.3 48.2 58.8 48.6 58.4 49.05 58.05 49.5 57.95 49.95 57.8 50.5 57.8 51.8 57.8 52.3 58.35 52.9 58.9 52.9 59.7 52.9 59.95 52.75 60.6
L 49.35 60.6
Q 49.4 61.5 50.15 61.5 50.65 61.5 50.95 61.1
M 54.05 61.75
Q 53.65 61.25 53.65 60.45 53.65 59.35 54.3 58.6 54.95 57.8 55.95 57.8 56.75 57.8 57.3 58.55
L 57.45 57.9 59 57.9 58.15 62.15
Q 57.85 63.4 57.3 63.8 56.7 64.2 55.6 64.2 54.85 64.2 54.4 64.1 54 63.95 53.7 63.6 53.4 63.2 53.4 62.75 53.4 62.55 53.4 62.5
L 55.05 62.75
Q 55.1 63.2 55.55 63.2 55.85 63.2 56.05 63 56.25 62.75 56.35 62.35
L 56.5 61.65
Q 55.95 62.25 55.2 62.25 54.5 62.25 54.05 61.75
M 43 56.2
L 44.75 56.2 43.4 62.4 41.65 62.4 43 56.2
M 45.9 56.2
L 47.6 56.2 46.3 62.4 44.55 62.4 45.9 56.2
M 43.05 72.05
Q 43.7 71.25 44.7 71.25 45.5 71.25 46.05 72
L 46.2 71.35 47.8 71.35 46.9 75.6
Q 46.65 76.85 46.05 77.3 45.5 77.7 44.35 77.7 43.6 77.7 43.2 77.6 42.75 77.45 42.45 77.05 42.15 76.65 42.15 76.2 42.15 76.05 42.15 75.95
L 43.8 76.2
Q 43.85 76.65 44.3 76.65 44.65 76.65 44.8 76.45 45 76.25 45.1 75.8
L 45.3 75.1 45.25 75.1
Q 44.7 75.7 43.95 75.7 43.25 75.7 42.8 75.2 42.45 74.7 42.45 73.95 42.45 72.85 43.05 72.05
M 50.6 73.05
Q 50.3 73.4 50.1 74.2
L 49.75 75.85 48.05 75.85 49 71.35 50.6 71.35 50.4 72.25 50.45 72.3
Q 50.85 71.7 51.15 71.45 51.45 71.25 51.8 71.25 52.1 71.25 52.4 71.4
L 51.75 72.75
Q 51.55 72.7 51.4 72.7 50.9 72.7 50.6 73.05
M 52.25 73.9
Q 52.25 73.3 52.5 72.8 52.8 72.25 53.2 71.9 53.65 71.55 54.1 71.4 54.55 71.25 55.1 71.25 56.4 71.25 56.9 71.85 57.5 72.35 57.5 73.2 57.5 73.45 57.35 74.05
L 53.95 74.05
Q 54 75 54.75 75 55.25 75 55.55 74.55
L 57.2 74.7
Q 56.8 75.4 56.25 75.65 55.6 75.95 54.7 75.95 53.35 75.95 52.8 75.4 52.25 74.8 52.25 73.9
M 54.5 72.5
Q 54.2 72.75 54.1 73.25
L 55.75 73.25
Q 55.8 73.15 55.8 73 55.8 72.6 55.6 72.45 55.35 72.3 55.1 72.3 54.75 72.3 54.5 72.5
M 45.1 72.4
Q 44.7 72.4 44.4 72.9 44.1 73.3 44.1 73.85 44.1 74.2 44.25 74.35 44.45 74.55 44.75 74.55 45.2 74.55 45.4 74.05 45.7 73.5 45.7 73.05 45.7 72.8 45.5 72.6 45.3 72.4 45.1 72.4
M 55.65 59.4
Q 55.35 59.85 55.35 60.4 55.35 60.7 55.5 60.9 55.65 61.1 55.95 61.1 56.4 61.1 56.65 60.55 56.9 60.05 56.9 59.55 56.9 59.3 56.75 59.15 56.55 58.95 56.35 58.95 55.95 58.95 55.65 59.4
M 51.15 59.75
Q 51.2 59.65 51.2 59.5 51.2 59.15 51 59 50.75 58.8 50.5 58.8 50.15 58.8 49.9 59.05 49.6 59.3 49.5 59.75
L 51.15 59.75
M 61.55 73.25
Q 61.6 73.15 61.6 73 61.6 72.6 61.4 72.45 61.15 72.3 60.85 72.3 60.55 72.3 60.25 72.5 60 72.75 59.85 73.25
L 61.55 73.25
M 62.65 59
Q 62.45 58.8 62.15 58.8 61.8 58.8 61.55 59.05 61.3 59.3 61.15 59.75
L 62.85 59.75
Q 62.85 59.65 62.85 59.5 62.85 59.15 62.65 59
M 39.25 72.3
Q 38.9 72.3 38.65 72.5 38.4 72.75 38.25 73.25
L 39.95 73.25
Q 39.95 73.15 39.95 73 39.95 72.6 39.75 72.45 39.55 72.3 39.25 72.3
M 33.25 72.4
Q 32.85 72.4 32.55 72.9 32.3 73.4 32.3 74.05 32.3 74.45 32.45 74.65 32.65 74.85 32.9 74.85 33.35 74.85 33.6 74.35 33.9 73.75 33.9 73.2 33.9 72.8 33.7 72.6 33.5 72.4 33.25 72.4
M 39.25 60.85
Q 39.55 60.35 39.55 59.75 39.55 59.3 39.35 59.15 39.15 59 38.9 59 38.3 59 38.05 59.45 37.8 59.95 37.8 60.45 37.8 60.85 38 61.1 38.2 61.35 38.5 61.35 39 61.35 39.25 60.85
M 34.2 45.45
Q 33.8 45.45 33.5 45.95 33.25 46.45 33.25 47.1 33.25 47.5 33.4 47.7 33.6 47.9 33.85 47.9 34.3 47.9 34.55 47.4 34.85 46.8 34.85 46.25 34.85 45.85 34.65 45.65 34.45 45.45 34.2 45.45
M 22.3 34.15
Q 22.3 34.35 22.45 34.5 22.6 34.65 22.85 34.65 23.15 34.65 23.45 34.35 23.8 34.1 23.9 33.45 22.7 33.65 22.5 33.8 22.3 33.95 22.3 34.15
M 29.75 32.8
Q 29.75 32.4 29.6 32.2 29.4 32 29.1 32 28.7 32 28.45 32.5 28.2 33 28.2 33.65 28.2 34.05 28.35 34.25 28.55 34.45 28.8 34.45 29.25 34.45 29.5 33.9 29.75 33.35 29.75 32.8
M 71.2 32.65
Q 71.2 32.35 71.05 32.2 70.85 32 70.6 32 70.25 32 69.95 32.45 69.65 32.9 69.65 33.45 69.65 33.8 69.8 33.95 69.95 34.15 70.25 34.15 70.7 34.15 70.95 33.6 71.2 33.1 71.2 32.65
M 53.95 45.45
Q 53.55 45.45 53.25 45.95 52.95 46.35 52.95 46.9 52.95 47.25 53.15 47.4 53.3 47.6 53.6 47.6 54.05 47.6 54.3 47.1 54.55 46.55 54.55 46.1 54.55 45.85 54.4 45.65 54.2 45.45 53.95 45.45
M 40.9 46.3
Q 40.9 46.2 40.9 46.05 40.9 45.65 40.7 45.5 40.5 45.35 40.2 45.35 39.85 45.35 39.6 45.55 39.35 45.8 39.2 46.3
L 40.9 46.3
M 40.8 32.8
Q 40.85 32.7 40.85 32.55 40.85 32.2 40.65 32.05 40.4 31.85 40.15 31.85 39.8 31.85 39.55 32.1 39.25 32.35 39.15 32.8
L 40.8 32.8
M 42.75 18.55
Q 42.5 18.4 42.25 18.4 41.9 18.4 41.65 18.65 41.35 18.85 41.25 19.35
L 42.9 19.35
Q 42.95 19.25 42.95 19.1 42.95 18.75 42.75 18.55
M 47.3 21.15
Q 47.6 21.15 47.95 20.9 48.25 20.65 48.35 19.95 47.2 20.15 47 20.3 46.75 20.45 46.75 20.65 46.75 20.9 46.95 21.05 47.05 21.15 47.3 21.15 Z"/>
</g>
</defs>

<g transform="matrix( 1, 0, 0, 1, 0,0) ">
<use xlink:href="#Layer0_0_FILL"/>
</g>
</svg>
