
<svg xmlns="http://www.w3.org/2000/svg" version="1.1" xmlns:xlink="http://www.w3.org/1999/xlink" preserveAspectRatio="none" x="0px" y="0px" width="93px" height="93px" viewBox="0 0 93 93">
<defs>
<g id="Layer1_0_FILL">
<path fill="#FFFFFF" stroke="none" d="
M 81.3 77.1
Q 91.2708984375 65.963671875 92.6 51.25 92.85 48.919921875 92.85 46.5 92.85 27.3 79.25 13.7 72.8888671875 7.3623046875 65.25 4 56.6865234375 0.2 46.5 0.2 36.3138671875 0.2 27.7 4 21.433984375 6.7673828125 16 11.55 14.8306640625 12.577734375 13.7 13.7 0.2 27.3 0.2 46.5 0.2 64.2 11.7 77.1 12.65 78.2 13.7 79.25 27.3 92.85 46.5 92.85 65.7 92.85 79.25 79.25 80.3 78.2 81.3 77.1
M 87.25 38.55
L 87.6 40.55
Q 88.05 43.55 88.05 46.5 88.0728515625 48.8958984375 87.8 51.25 87.483984375 54.0546875 86.75 56.8
L 86 59.45
Q 83.65 66.85 78.4 73.1 75.45 76.7 71.8 79.5
L 68.9 81.55 63.35 84.5
Q 58.9 86.5 53.95 87.35 44.3 89.15 35.2 86.5 28 84.55 21.9 79.95 14.65 74.75 10.45 67.25 6.05 59.75 5.15 50.8 4.9 48.6 4.9 46.45 4.85 42.3 5.7 38.35
L 6.3 35.75 8.05 30.65 9.2 28.2
Q 9.983984375 26.5396484375 11 24.9
L 11.2 24.65
Q 11.3 24.45 11.4 24.3
L 12.95 22.05
Q 14.3859375 20.0310546875 16 18.25 20.06171875 13.7556640625 25.25 10.75 32.6 6.25 41.4 5.25 49.3 4.2 56.8 6.2
L 59.45 7
Q 66.15 9.1 71.9 13.6
L 74.6 15.9
Q 80 20.7 83.3 27.1
L 85.2 31.25
Q 86.55 34.7 87.25 38.55 Z"/>

<path fill="#77AD90" stroke="none" d="
M 86.75 56.8
Q 87.483984375 54.0546875 87.8 51.25 88.0728515625 48.8958984375 88.05 46.5
L 46.45 46.5 10.55 25.75
Q 9.85 27 9.2 28.2
L 8.05 30.65 6.3 35.75 5.7 38.35
Q 4.85 42.3 4.9 46.45 4.9 48.6 5.15 50.8 5.55 53.95 6.4 57.25 6.65 58.15 7 59.05 8.35 63.45 10.45 67.25 14.65 74.75 21.9 79.95 23.7 81.2 25.75 82.4 30.4 85.1 35.2 86.5 44.3 89.15 53.95 87.35 54.7 87.2 55.45 87.05 56.35 86.8 57.2 86.55 60.45 85.7 63.35 84.5
L 68.9 81.55 71.8 79.5
Q 75.45 76.7 78.4 73.1 80.55 70.35 82.4 67.2 84.6 63.4 86 59.45
L 86.75 56.8 Z"/>

<path fill="#437259" stroke="none" d="
M 87.6 40.55
L 87.25 38.55
Q 86.95 37.1 86.6 35.7 85.95 33.4 85.2 31.25
L 83.3 27.1
Q 80 20.7 74.6 15.9
L 71.9 13.6
Q 69.7 12 67.2 10.55 63.35 8.35 59.45 7
L 56.8 6.2
Q 49.3 4.2 41.4 5.25 38.6 5.65 35.8 6.4 30.05 7.95 25.25 10.75 20.06171875 13.7556640625 16 18.25 14.3859375 20.0310546875 12.95 22.05
L 11.4 24.3
Q 11.3 24.45 11.2 24.65
L 11 24.9
Q 10.775 25.3375 10.55 25.75
L 46.45 46.5 88.05 46.5
Q 88.05 43.55 87.6 40.55 Z"/>
</g>

<g id="Layer0_0_FILL">
<path fill="#FFFFFF" stroke="none" d="
M 152.25 24.25
L 152.9 24.25
Q 152.9 27.95 152.2 29.25 151.9 28 151.55 26.9
L 150.3 26.9
Q 150.35 27.05 150.45 27.35 150.65 28.25 150.75 28.65 150.1 28.7 149.25 28.7 150.1 27.65 150.5 25.95
L 152.2 25.95 152.2 24.85 147.8 24.85 147.8 25.95 148.85 25.95
Q 148.65 27.3 147.85 28.7
L 147.85 29.95
Q 149.7 29.95 150.95 29.75 150.95 29.95 151 30.05
L 152 30.05 152 31.05
Q 153.45 29.8 153.85 28.5 154.4 27.15 154.4 24.25
L 155.15 24.25 155.15 29.4
Q 155.15 29.8 154.75 29.8
L 154.2 29.8 154.2 30.85 155.3 30.85
Q 156.75 30.85 156.75 29.4
L 156.75 23.2 154.45 23.2 154.45 21.95 152.9 21.95 152.9 23.2 152.25 23.2 152.25 24.25
M 148.25 22.5
L 148.25 23.6 151.9 23.6 151.9 22.5 148.25 22.5
M 163.6 29.05
Q 164.8 29.05 164.8 27.6
L 164.8 24 159.95 24 159.95 29.05 163.6 29.05
M 163.5 25
L 163.5 26 163 26 163 25 163.5 25
M 163.5 27
L 163.5 27.55
Q 163.5 28 163.1 28
L 163 28 163 27 163.5 27
M 161.75 27
L 161.75 28 161.25 28 161.25 27 161.75 27
M 161.25 26
L 161.25 25 161.75 25 161.75 26 161.25 26
M 166.85 23.55
L 166.85 22.4 157.9 22.4 157.9 23.55 166.85 23.55
M 166.6 24.3
L 165.15 24.3 165.15 29
Q 165.2 29.6 164.6 29.6
L 159.6 29.6 159.6 24.2 158.15 24.2 158.15 30.65 165.15 30.65
Q 166.7 30.7 166.6 29.3
L 166.6 24.3 Z"/>
</g>

<g id="Layer0_1_FILL">
<path fill="#FFFFFF" stroke="none" d="
M 59.1 73.2
Q 58.5 72.7 57.55 72.7 56.35 72.7 55.65 73.5 54.95 74.3 54.95 75.45 54.95 76.4 55.5 76.85 56.05 77.35 56.95 77.35 58.3 77.35 58.95 76.55 59.65 75.7 59.65 74.55 59.65 73.7 59.1 73.2
M 57.6 73.7
Q 57.8 73.7 57.95 73.85 58.1 74 58.1 74.3 58.1 75.05 57.8 75.7 57.55 76.4 57 76.4 56.75 76.4 56.65 76.2 56.5 76.05 56.5 75.7 56.5 75.45 56.65 74.8 56.8 74.2 57.05 73.95 57.3 73.7 57.6 73.7
M 58.8 67.85
L 57.35 67.85 49.65 77.35 51 77.35 58.8 67.85
M 49.45 68.65
Q 48.75 69.45 48.75 70.6 48.75 71.5 49.3 72 49.85 72.5 50.8 72.5 52.05 72.5 52.75 71.7 53.45 70.85 53.45 69.7 53.45 68.8 52.9 68.35 52.35 67.85 51.4 67.85 50.15 67.85 49.45 68.65
M 50.3 70.85
Q 50.3 70.6 50.45 69.95 50.6 69.3 50.85 69.1 51.1 68.85 51.4 68.85 51.6 68.85 51.75 69 51.9 69.1 51.9 69.4 51.9 70.15 51.6 70.85 51.35 71.5 50.8 71.5 50.6 71.5 50.45 71.35 50.3 71.2 50.3 70.85
M 42.3 68.65
Q 41.3 69.4 40.75 70.8 40.2 72.15 40.2 73.4 40.2 75.2 41.05 76.1 41.9 77.05 43.25 77.05 44.65 77.05 45.65 76.25 46.7 75.45 47.3 74.1 47.85 72.65 47.85 71.25 47.85 69.6 46.9 68.7 45.9 67.85 44.55 67.85 43.25 67.85 42.3 68.65
M 45.2 69.85
Q 45.45 70.15 45.45 70.75 45.45 71.5 45.2 72.7 45 73.9 44.55 74.65 44.1 75.4 43.55 75.4 42.6 75.4 42.6 74.1
L 42.6 74.05
Q 42.6 73.3 42.8 72.15 43.05 70.95 43.45 70.25 43.9 69.5 44.5 69.5 45 69.5 45.2 69.85
M 34.6 71.6
Q 34.95 70.4 35.3 69.85 35.7 69.35 36.25 69.35 36.95 69.35 37.1 70.25
L 39.5 70
Q 39.3 68.9 38.5 68.4 37.7 67.85 36.45 67.85 35 67.85 33.95 68.65 32.9 69.4 32.4 70.8 31.9 72.15 31.9 73.5 31.9 75.15 32.8 76.1 33.7 77.05 35.3 77.05 37 77.05 38 76 39 74.9 39 73.55 39 72.4 38.25 71.7 37.55 70.95 36.5 70.95 35.5 70.95 34.65 71.6
L 34.6 71.6
M 36.35 72.75
Q 36.65 73.05 36.65 73.4 36.65 74.55 36.2 75.05 35.75 75.55 35.3 75.55 34.8 75.55 34.55 75.25 34.25 74.9 34.25 74.3 34.25 73.45 34.65 72.95 35.1 72.45 35.6 72.45 36.1 72.45 36.35 72.75 Z"/>
</g>

<g id="Layer0_2_FILL">
<path fill="#FFFFFF" stroke="none" d="
M 133.65 28.35
Q 133.15 27.85 132.65 27.2
L 130.9 27.2
Q 131.55 28.45 132.45 29.25 131.9 29.6 130.45 30.05
L 130.45 31.05
Q 132.45 30.55 133.65 30.05 134.85 30.6 136.85 31
L 136.85 30.05
Q 135.55 29.6 134.85 29.25 135.9 28.35 136.5 26.8
L 136.5 25.7 130.85 25.7 130.85 26.85 134.7 26.85
Q 134.05 27.95 133.65 28.35
M 137.85 25.95
L 138.55 25.95 138.55 30.95
Q 140.15 30.4 141.55 29.45
L 141.55 28.1
Q 141.45 28.15 141.25 28.25 140.65 28.65 140.3 28.75
L 140.3 24.8 137.85 24.8 137.85 25.95
M 140.65 24.1
Q 140.4 22.95 139.9 22.1
L 138.4 22.1
Q 138.85 23.2 139.05 24.1
L 140.65 24.1
M 131.4 23.6
Q 131.5 24.45 130.55 24.7
L 130.55 25.55
Q 133.1 25.4 133 23.7
L 133 23.35 134.35 23.35 134.35 24.1
Q 134.25 25.4 135.5 25.3
L 136.9 25.3 136.9 24.25 136.3 24.25
Q 135.85 24.3 135.85 23.9
L 135.85 22.3 131.4 22.3 131.4 23.6
M 130.1 24.7
L 127.8 24.7 127.8 25.8 128.5 25.8 128.5 30.75
Q 130.3 30.1 131.1 29.4
L 131.1 28.15
Q 130.8 28.35 130.35 28.55 130.2 28.6 130.1 28.65
L 130.1 24.7
M 129.55 22.1
L 128.05 22.1
Q 128.55 23.1 128.7 24.05
L 130.3 24.05
Q 130.05 23 129.55 22.1
M 144.8 22
L 143 22 143 24.75 140.9 24.75 140.9 25.9 143 25.9 143 31 144.8 31 144.8 25.9 146.95 25.9 146.95 24.75 144.8 24.75 144.8 22 Z"/>
</g>

<g id="Layer0_3_FILL">
<path fill="#FFFFFF" stroke="none" d="
M 69.25 36.05
Q 68.65 35.55 67.7 35.55 66.5 35.55 65.8 36.4 65.05 37.2 65.05 38.35 65.05 39.25 65.65 39.75 66.2 40.25 67.1 40.25 68.4 40.25 69.1 39.4 69.8 38.55 69.8 37.45 69.8 36.55 69.25 36.05
M 67.75 36.6
Q 67.95 36.6 68.1 36.7 68.25 36.85 68.25 37.15 68.25 37.9 67.95 38.6 67.65 39.25 67.15 39.25 66.9 39.25 66.8 39.1 66.65 38.9 66.65 38.6 66.65 38.35 66.8 37.65 66.95 37.05 67.2 36.8 67.45 36.6 67.75 36.6
M 68.9 30.7
L 67.5 30.7 59.8 40.25 61.15 40.25 68.9 30.7
M 49.65 30.7
L 47.5 30.7 41.8 36.05 41.4 38.15 45.9 38.15 45.55 39.8 47.65 39.8 48 38.15 49.15 38.15 49.55 36.2 48.4 36.2 49.65 30.7
M 46.9 33.4
L 46.95 33.4 46.3 36.2 43.9 36.2 46.9 33.4
M 58.9 33.45
Q 58.9 34.4 59.45 34.9 60 35.35 60.95 35.35 62.2 35.35 62.9 34.55 63.6 33.7 63.6 32.6 63.6 31.7 63.05 31.2 62.5 30.7 61.5 30.7 60.3 30.7 59.6 31.55 58.9 32.3 58.9 33.45
M 60.55 34.2
Q 60.45 34.05 60.45 33.75 60.45 33.45 60.6 32.8 60.75 32.15 61 31.95 61.25 31.75 61.5 31.75 61.7 31.75 61.9 31.85 62.05 32 62.05 32.3 62.05 33.05 61.75 33.7 61.5 34.4 60.95 34.4 60.75 34.4 60.55 34.2
M 52.4 31.5
Q 51.45 32.3 50.9 33.65 50.3 35.05 50.3 36.3 50.3 38.05 51.15 39 52.05 39.95 53.4 39.95 54.8 39.95 55.8 39.1 56.85 38.35 57.4 36.95 58 35.55 58 34.15 58 32.45 57 31.6 56.05 30.7 54.7 30.7 53.4 30.7 52.4 31.5
M 52.7 36.9
Q 52.7 36.2 52.95 35 53.2 33.85 53.6 33.1 54.05 32.4 54.65 32.4 55.1 32.4 55.35 32.7 55.6 33.05 55.6 33.6 55.6 34.35 55.35 35.55 55.1 36.8 54.7 37.55 54.25 38.25 53.65 38.25 52.7 38.25 52.7 36.95
L 52.7 36.9 Z"/>
</g>
</defs>

<g transform="matrix( 1, 0, 0, 1, 0,0) ">
<use xlink:href="#Layer1_0_FILL"/>
</g>

<g transform="matrix( 1.5, 0, 0, 1.5, -192.9,18.9) ">
<use xlink:href="#Layer0_0_FILL"/>
</g>

<g transform="matrix( 1, 0, 0, 1, -3.1,0.4) ">
<use xlink:href="#Layer0_1_FILL"/>
</g>

<g transform="matrix( 1.4830322265625, 0, 0, 1.4830322265625, -149.8,-19.05) ">
<use xlink:href="#Layer0_2_FILL"/>
</g>

<g transform="matrix( 1, 0, 0, 1, -1.65,-0.65) ">
<use xlink:href="#Layer0_3_FILL"/>
</g>
</svg>
