
<svg xmlns="http://www.w3.org/2000/svg" version="1.1" xmlns:xlink="http://www.w3.org/1999/xlink" preserveAspectRatio="none" x="0px" y="0px" width="93px" height="93px" viewBox="0 0 93 93">
<defs>
<g id="Layer0_0_FILL">
<path fill="#FFFFFF" stroke="none" d="
M -102.05 -17.85
Q -121.25 -17.85 -134.85 -4.3 -148.4 9.3 -148.4 28.5 -148.4 43.3 -140.3 54.75 -138.7 57 -136.85 59.1 -135.9 60.15 -134.85 61.2 -121.25 74.85 -102.05 74.85 -82.85 74.85 -69.3 61.2 -68.25 60.15 -67.3 59.1 -65.4 57 -63.8 54.75 -56.25 44.05 -55.75 30.35 -55.7 29.45 -55.7 28.5 -55.7 27.55 -55.75 26.65 -55.75 26.4 -55.75 26.15 -56.55 8.5 -69.3 -4.3 -82.85 -17.85 -102.05 -17.85
M -130.85 -1.55
Q -128.6 -3.8 -125.9 -5.65 -123.45 -7.3 -120.75 -8.6
L -118.7 -9.55
Q -114.95 -11.3 -111 -12.15
L -105.9 -13 -102.75 -13.15
Q -94.35 -13.4 -86.1 -9.9
L -82.85 -8.4
Q -82 -8 -81.2 -7.55 -79.6 -6.65 -78.15 -5.6 -77.6 -5.25 -77.1 -4.85
L -76.1 -4.1 -70.6 1.2
Q -67.5 4.7 -65.25 9.05
L -65.05 9.5
Q -64.9 9.8 -64.75 10.1
L -63.45 13.1
Q -60.55 20.1 -60.45 27.45
L -60.45 28.35
Q -60.45 28.4 -60.45 28.45
L -60.85 33.8
Q -61.05 35.15 -61.3 36.55 -61.45 37.25 -61.6 37.9 -61.9 39.1 -62.25 40.3 -62.4 40.8 -62.6 41.3 -64.8 48.35 -69.1 53.9
L -75.25 60.25 -76.7 61.4
Q -77.1 61.7 -77.45 62 -77.8 62.25 -78.2 62.5 -80.05 63.8 -82.1 64.9
L -83.7 65.7
Q -90.85 69.3 -98.4 69.95
L -107.2 69.75
Q -108.5 69.55 -109.85 69.25
L -111.85 68.8
Q -112.35 68.7 -112.8 68.6 -118.2 67.1 -122.8 64.45 -124.4 63.6 -125.85 62.6 -127.75 61.3 -129.45 59.75
L -130.6 58.7 -134.6 54.35
Q -137.15 51.1 -139 47.35
L -139.3 46.7
Q -143.15 39 -143.6 30.85 -143.7 29.6 -143.7 28.4 -143.7 22.1 -141.65 15.95 -141.3 14.9 -140.9 13.85 -140.8 13.5 -140.65 13.2 -139.4 9.85 -137.6 6.85
L -135.15 3.25 -130.85 -1.55
M -113.85 51.65
L -114.35 53.95
Q -114.85 53.25 -115.8 53.25 -116.7 53.25 -117.35 54.1 -117.9 55 -117.9 56.1 -117.9 56.95 -117.55 57.5 -117.15 57.95 -116.35 57.95 -115.95 57.95 -115.65 57.85 -115.35 57.75 -115 57.4
L -114.95 57.4 -115.05 57.85 -113.45 57.85 -112.15 51.65 -113.85 51.65
M -116 54.9
Q -115.7 54.4 -115.3 54.4 -115.05 54.4 -114.85 54.6 -114.65 54.8 -114.65 55.2 -114.65 55.75 -114.95 56.35 -115.2 56.85 -115.65 56.85 -115.9 56.85 -116.1 56.65 -116.25 56.45 -116.25 56.05 -116.25 55.4 -116 54.9
M -110.3 53.4
Q -110.7 53.55 -111.2 53.9 -111.6 54.25 -111.85 54.8 -112.15 55.3 -112.15 55.9 -112.15 56.8 -111.6 57.4 -111 57.95 -109.7 57.95 -108.8 57.95 -108.15 57.65 -107.55 57.4 -107.2 56.7
L -108.85 56.55
Q -109.15 57 -109.65 57 -110.4 57 -110.45 56.05
L -107.05 56.05
Q -106.9 55.45 -106.9 55.2 -106.9 54.35 -107.45 53.85 -108 53.25 -109.3 53.25 -109.85 53.25 -110.3 53.4
M -109.9 54.5
Q -109.65 54.3 -109.3 54.3 -109 54.3 -108.8 54.45 -108.6 54.6 -108.6 55 -108.6 55.15 -108.6 55.25
L -110.3 55.25
Q -110.15 54.75 -109.9 54.5
M -102.35 53.35
L -102.5 54
Q -103.05 53.25 -103.85 53.25 -104.85 53.25 -105.5 54.05 -106.1 54.85 -106.1 55.95 -106.1 56.7 -105.75 57.2 -105.3 57.7 -104.6 57.7 -103.85 57.7 -103.3 57.1
L -103.25 57.1 -103.45 57.8
Q -103.55 58.25 -103.75 58.45 -103.9 58.65 -104.25 58.65 -104.7 58.65 -104.75 58.2
L -106.4 57.95
Q -106.4 58.05 -106.4 58.2 -106.4 58.65 -106.1 59.05 -105.8 59.45 -105.35 59.6 -104.95 59.7 -104.2 59.7 -103.05 59.7 -102.5 59.3 -101.9 58.85 -101.65 57.6
L -100.75 53.35 -102.35 53.35
M -103.45 54.4
Q -103.25 54.4 -103.05 54.6 -102.85 54.8 -102.85 55.05 -102.85 55.5 -103.15 56.05 -103.35 56.55 -103.8 56.55 -104.1 56.55 -104.3 56.35 -104.45 56.2 -104.45 55.85 -104.45 55.3 -104.15 54.9 -103.85 54.4 -103.45 54.4
M -97.95 55.05
Q -97.65 54.7 -97.15 54.7 -97 54.7 -96.8 54.75
L -96.15 53.4
Q -96.45 53.25 -96.75 53.25 -97.1 53.25 -97.4 53.45 -97.7 53.7 -98.1 54.3
L -98.15 54.25 -97.95 53.35 -99.55 53.35 -100.5 57.85 -98.8 57.85 -98.45 56.2
Q -98.25 55.4 -97.95 55.05
M -95.35 53.9
Q -95.75 54.25 -96.05 54.8 -96.3 55.3 -96.3 55.9 -96.3 56.8 -95.75 57.4 -95.2 57.95 -93.85 57.95 -92.95 57.95 -92.3 57.65 -91.75 57.4 -91.35 56.7
L -93 56.55
Q -93.3 57 -93.8 57 -94.55 57 -94.6 56.05
L -91.2 56.05
Q -91.05 55.45 -91.05 55.2 -91.05 54.35 -91.65 53.85 -92.15 53.25 -93.45 53.25 -94 53.25 -94.45 53.4 -94.9 53.55 -95.35 53.9
M -94.45 55.25
Q -94.35 54.75 -94.05 54.5 -93.8 54.3 -93.45 54.3 -93.2 54.3 -92.95 54.45 -92.75 54.6 -92.75 55 -92.75 55.15 -92.8 55.25
L -94.45 55.25
M -85.3 55.2
Q -85.3 54.35 -85.85 53.85 -86.4 53.25 -87.65 53.25 -88.2 53.25 -88.7 53.4 -89.1 53.55 -89.55 53.9 -90 54.25 -90.25 54.8 -90.5 55.3 -90.5 55.9 -90.5 56.8 -89.95 57.4 -89.4 57.95 -88.1 57.95 -87.15 57.95 -86.55 57.65 -85.95 57.4 -85.55 56.7
L -87.25 56.55
Q -87.55 57 -88 57 -88.75 57 -88.85 56.05
L -85.4 56.05
Q -85.3 55.45 -85.3 55.2
M -88.3 54.5
Q -88 54.3 -87.7 54.3 -87.4 54.3 -87.15 54.45 -86.95 54.6 -86.95 55 -86.95 55.15 -87 55.25
L -88.7 55.25
Q -88.55 54.75 -88.3 54.5
M -122.75 14.15
Q -122.75 13.5 -123.2 13.2 -123.65 12.85 -125 12.85 -126.15 12.85 -126.75 13.2 -127.3 13.55 -127.45 14.2
L -125.85 14.35
Q -125.7 14.05 -125.5 13.95 -125.35 13.85 -125 13.85 -124.75 13.85 -124.6 13.95 -124.4 14.05 -124.4 14.25 -124.4 14.35 -124.45 14.55 -124.7 14.65 -125.45 14.7 -126.3 14.8 -126.8 14.9 -127.3 15 -127.6 15.3 -127.95 15.65 -127.95 16.25 -127.95 16.75 -127.6 17.15 -127.2 17.55 -126.35 17.55 -125.5 17.55 -124.8 16.95 -124.8 17.2 -124.75 17.45
L -123.1 17.45
Q -123.2 17.1 -123.2 16.85 -123.2 16.45 -123 15.55 -122.75 14.6 -122.75 14.15
M -126.25 16.15
Q -126.25 15.95 -126.05 15.8 -125.85 15.65 -124.65 15.45 -124.75 16.1 -125.1 16.35 -125.4 16.65 -125.7 16.65 -125.95 16.65 -126.1 16.5 -126.25 16.35 -126.25 16.15
M -84.25 43.25
L -85.95 43.1
Q -86.25 43.5 -86.75 43.5 -87.5 43.5 -87.55 42.6
L -84.15 42.6
Q -84 41.95 -84 41.7 -84 40.9 -84.55 40.35 -85.1 39.8 -86.4 39.8 -86.95 39.8 -87.4 39.95 -87.8 40.05 -88.3 40.4 -88.7 40.8 -88.95 41.3 -89.25 41.85 -89.25 42.45 -89.25 43.3 -88.7 43.9 -88.1 44.5 -86.8 44.5 -85.9 44.5 -85.25 44.2 -84.65 43.9 -84.25 43.25
M -85.7 41.5
Q -85.7 41.65 -85.7 41.75
L -87.4 41.75
Q -87.25 41.3 -87 41.05 -86.75 40.8 -86.4 40.8 -86.1 40.8 -85.9 41 -85.7 41.15 -85.7 41.5
M -94.25 40.6
Q -94.9 41.35 -94.9 42.45 -94.9 43.25 -94.5 43.75 -94.05 44.25 -93.35 44.25 -92.6 44.25 -92.05 43.65
L -92.2 44.35
Q -92.3 44.75 -92.5 45 -92.7 45.2 -93 45.2 -93.45 45.2 -93.5 44.75
L -95.15 44.5
Q -95.15 44.55 -95.15 44.75 -95.15 45.2 -94.85 45.6 -94.55 45.95 -94.15 46.1 -93.7 46.2 -92.95 46.2 -91.85 46.2 -91.25 45.8 -90.7 45.4 -90.4 44.15
L -89.55 39.9 -91.1 39.9 -91.25 40.55
Q -91.8 39.8 -92.6 39.8 -93.6 39.8 -94.25 40.6
M -91.9 42.55
Q -92.15 43.1 -92.6 43.1 -92.9 43.1 -93.05 42.9 -93.2 42.7 -93.2 42.4 -93.2 41.85 -92.9 41.4 -92.6 40.95 -92.2 40.95 -92 40.95 -91.8 41.15 -91.65 41.3 -91.65 41.55 -91.65 42.05 -91.9 42.55
M -95.8 42.6
Q -95.65 41.95 -95.65 41.7 -95.65 40.9 -96.25 40.35 -96.75 39.8 -98.05 39.8 -98.6 39.8 -99.05 39.95 -99.5 40.05 -99.95 40.4 -100.35 40.8 -100.65 41.3 -100.9 41.85 -100.9 42.45 -100.9 43.3 -100.35 43.9 -99.8 44.5 -98.45 44.5 -97.55 44.5 -96.9 44.2 -96.35 43.9 -95.95 43.25
L -97.6 43.1
Q -97.9 43.5 -98.4 43.5 -99.15 43.5 -99.2 42.6
L -95.8 42.6
M -97.35 41.5
Q -97.35 41.65 -97.4 41.75
L -99.05 41.75
Q -98.95 41.3 -98.65 41.05 -98.4 40.8 -98.05 40.8 -97.8 40.8 -97.55 41 -97.35 41.15 -97.35 41.5
M -100.35 30.9
L -98.6 30.9 -97.65 26.4 -99.35 26.4 -100.35 30.9
M -91.9 26.4
L -93.45 26.4 -93.65 27.1
Q -94.15 26.3 -95 26.3 -95.95 26.3 -96.65 27.1 -97.25 27.9 -97.25 29 -97.25 29.75 -96.85 30.25 -96.45 30.75 -95.75 30.75 -95 30.75 -94.45 30.15
L -94.4 30.15 -94.55 30.85
Q -94.65 31.3 -94.85 31.5 -95.05 31.7 -95.4 31.7 -95.85 31.7 -95.85 31.25
L -97.5 31
Q -97.5 31.1 -97.5 31.25 -97.5 31.7 -97.2 32.1 -96.9 32.5 -96.5 32.65 -96.05 32.75 -95.3 32.75 -94.2 32.75 -93.65 32.35 -93.05 31.9 -92.8 30.65
L -91.9 26.4
M -94.6 27.45
Q -94.35 27.45 -94.15 27.65 -94 27.85 -94 28.1 -94 28.55 -94.25 29.1 -94.5 29.6 -94.95 29.6 -95.25 29.6 -95.4 29.4 -95.6 29.25 -95.6 28.9 -95.6 28.35 -95.3 27.95 -95 27.45 -94.6 27.45
M -86.6 26.65
Q -86.9 26.3 -87.55 26.3 -88.55 26.3 -89.25 27.1
L -89.15 26.4 -90.75 26.4 -91.7 30.9 -89.95 30.9 -89.55 29
Q -89.4 28.3 -89.1 27.95 -88.85 27.55 -88.45 27.55 -88.1 27.55 -88.1 27.95 -88.1 28.05 -88.3 28.8
L -88.7 30.9 -87 30.9 -86.45 28.45
Q -86.3 27.65 -86.3 27.4 -86.3 26.95 -86.6 26.65
M -104 44.4
L -102.25 44.4 -100.95 38.2 -102.65 38.2 -104 44.4
M -103.8 38.2
L -105.55 38.2 -106.9 44.4 -105.15 44.4 -103.8 38.2
M -112.1 41.15
Q -112.45 41.8 -112.45 42.45 -112.45 43.35 -111.85 43.95 -111.3 44.5 -110.15 44.5 -109.2 44.5 -108.55 44.15 -107.95 43.75 -107.6 43.1 -107.3 42.45 -107.3 41.85 -107.3 41 -107.85 40.4 -108.4 39.8 -109.6 39.8 -110.5 39.8 -111.1 40.15 -111.8 40.5 -112.1 41.15
M -109 41.75
Q -109 42.35 -109.3 42.85 -109.55 43.35 -110.05 43.35 -110.35 43.35 -110.55 43.1 -110.75 42.85 -110.75 42.45 -110.75 41.95 -110.5 41.45 -110.25 41 -109.65 41 -109.4 41 -109.2 41.15 -109 41.3 -109 41.75
M -112.75 40.2
Q -112.85 39.25 -113.5 38.7 -114.2 38.1 -115.35 38.1 -116.5 38.1 -117.3 38.6 -118.1 39.15 -118.55 40.05 -118.95 41 -118.95 41.85 -118.95 43.1 -118.25 43.75 -117.55 44.5 -116.2 44.5 -114.9 44.5 -114.1 43.85 -113.3 43.2 -113 42.25
L -114.85 41.95
Q -115.05 42.5 -115.35 42.8 -115.65 43.1 -116.1 43.1 -116.55 43.1 -116.85 42.8 -117.05 42.45 -117.05 42 -117.05 41.4 -116.85 40.75 -116.55 40.15 -116.2 39.8 -115.8 39.5 -115.35 39.5 -115.05 39.5 -114.75 39.75 -114.5 39.95 -114.5 40.4
L -112.75 40.2
M -106.1 29.1
Q -105.95 28.5 -105.95 28.25 -105.95 27.4 -106.5 26.9 -107.05 26.3 -108.35 26.3 -108.9 26.3 -109.35 26.45 -109.75 26.6 -110.25 26.95 -110.65 27.3 -110.9 27.85 -111.2 28.35 -111.2 28.95 -111.2 29.85 -110.65 30.45 -110.05 31 -108.75 31 -107.85 31 -107.2 30.75 -106.6 30.45 -106.2 29.75
L -107.9 29.6
Q -108.2 30.05 -108.7 30.05 -109.45 30.05 -109.5 29.1
L -106.1 29.1
M -108.35 27.35
Q -108.05 27.35 -107.85 27.5 -107.65 27.65 -107.65 28.05 -107.65 28.2 -107.65 28.3
L -109.35 28.3
Q -109.2 27.8 -108.95 27.55 -108.7 27.35 -108.35 27.35
M -103.45 27.65
Q -103.45 27.5 -103.35 27.4 -103.15 27.3 -102.85 27.3 -102.3 27.3 -102.25 27.65
L -100.65 27.5
Q -100.75 26.85 -101.25 26.6 -101.7 26.3 -102.6 26.3 -103.4 26.3 -103.9 26.55 -104.5 26.75 -104.75 27.15 -105 27.5 -105 27.9 -105 28.4 -104.65 28.7 -104.3 29 -103.3 29.2 -102.85 29.25 -102.7 29.3 -102.55 29.4 -102.55 29.6 -102.55 29.85 -102.75 29.95 -102.95 30.05 -103.25 30.05 -103.9 30.05 -104 29.55
L -105.7 29.7
Q -105.6 30.4 -105.1 30.75 -104.6 31 -103.55 31 -102.2 31 -101.55 30.55 -100.95 30.05 -100.95 29.35 -100.95 28.85 -101.25 28.55 -101.6 28.25 -102.6 28.1 -103.2 28.05 -103.35 27.95 -103.45 27.8 -103.45 27.65
M -111.2 24.7
L -112.9 24.7 -113.4 27
Q -113.9 26.3 -114.85 26.3 -115.75 26.3 -116.4 27.2 -116.95 28.05 -116.95 29.15 -116.95 30 -116.55 30.55 -116.2 31 -115.4 31 -115 31 -114.7 30.9 -114.4 30.8 -114.05 30.45
L -114 30.45 -114.1 30.9 -112.5 30.9 -111.2 24.7
M -115.3 29.1
Q -115.3 28.45 -115.05 27.95 -114.75 27.45 -114.35 27.45 -114.1 27.45 -113.9 27.65 -113.7 27.85 -113.7 28.25 -113.7 28.8 -114 29.4 -114.25 29.9 -114.7 29.9 -114.95 29.9 -115.15 29.7 -115.3 29.5 -115.3 29.1
M -106.15 15.65
Q -106.05 15 -106.05 14.75 -106.05 13.95 -106.6 13.4 -107.1 12.85 -108.4 12.85 -108.95 12.85 -109.4 13 -109.85 13.1 -110.3 13.5 -110.7 13.85 -111 14.35 -111.25 14.9 -111.25 15.5 -111.25 16.35 -110.7 16.95 -110.15 17.55 -108.8 17.55 -107.9 17.55 -107.25 17.25 -106.7 16.95 -106.3 16.3
L -107.95 16.15
Q -108.25 16.55 -108.75 16.55 -109.5 16.55 -109.55 15.65
L -106.15 15.65
M -107.9 14.05
Q -107.7 14.2 -107.7 14.55 -107.7 14.7 -107.75 14.8
L -109.4 14.8
Q -109.3 14.35 -109 14.1 -108.75 13.85 -108.4 13.85 -108.15 13.85 -107.9 14.05
M -103.35 13.85
L -103.15 12.95 -104.8 12.95 -105.75 17.45 -104 17.45 -103.65 15.8
Q -103.5 15 -103.15 14.65 -102.85 14.25 -102.4 14.25 -102.2 14.25 -102 14.35
L -101.4 13
Q -101.7 12.85 -102 12.85 -102.35 12.85 -102.65 13.05 -102.95 13.3 -103.35 13.85
M -114.25 15.8
L -114.5 12.95 -116.1 12.95 -115.25 17.45 -113.7 17.45 -110.9 12.95 -112.75 12.95 -114.2 15.8 -114.25 15.8
M -116.25 11.25
L -117.95 11.25 -118.45 13.55
Q -118.95 12.85 -119.9 12.85 -120.8 12.85 -121.45 13.7 -122.05 14.55 -122.05 15.7 -122.05 16.55 -121.65 17.05 -121.25 17.55 -120.45 17.55 -120.05 17.55 -119.75 17.45 -119.45 17.3 -119.1 17
L -119.05 17 -119.15 17.45 -117.55 17.45 -116.25 11.25
M -118.95 14.2
Q -118.8 14.4 -118.8 14.8 -118.8 15.35 -119.05 15.9 -119.3 16.45 -119.75 16.45 -120 16.45 -120.2 16.25 -120.35 16.05 -120.35 15.65 -120.35 15 -120.1 14.5 -119.85 14 -119.45 14 -119.15 14 -118.95 14.2
M -87.75 17.45
L -86.8 12.95 -88.5 12.95 -89.5 17.45 -87.75 17.45
M -83.4 14.1
Q -83.1 14.1 -83.1 14.5 -83.1 14.6 -83.25 15.35
L -83.7 17.45 -81.95 17.45 -81.45 15
Q -81.3 14.2 -81.3 13.95 -81.3 13.5 -81.6 13.2 -81.85 12.85 -82.5 12.85 -83.5 12.85 -84.25 13.65
L -84.1 12.95 -85.7 12.95 -86.65 17.45 -84.95 17.45 -84.5 15.5
Q -84.35 14.8 -84.1 14.45 -83.8 14.1 -83.4 14.1
M -97.3 24.7
L -99 24.7 -99.25 25.9 -97.5 25.9 -97.3 24.7
M -95.9 17.45
L -94.95 12.95 -96.65 12.95 -97.65 17.45 -95.9 17.45
M -91.8 12.85
Q -92.6 12.85 -93.1 13.1 -93.65 13.3 -93.95 13.65 -94.2 14.05 -94.2 14.45 -94.2 14.9 -93.85 15.25 -93.45 15.55 -92.5 15.7 -92.05 15.8 -91.9 15.85 -91.75 15.95 -91.75 16.15 -91.75 16.35 -91.95 16.5 -92.15 16.6 -92.45 16.6 -93.1 16.6 -93.2 16.05
L -94.9 16.2
Q -94.8 16.95 -94.3 17.25 -93.8 17.55 -92.7 17.55 -91.4 17.55 -90.75 17.05 -90.1 16.55 -90.1 15.85 -90.1 15.4 -90.45 15.1 -90.8 14.8 -91.75 14.65 -92.4 14.55 -92.5 14.45 -92.65 14.35 -92.65 14.2 -92.65 14.05 -92.5 13.9 -92.35 13.8 -92.05 13.8 -91.5 13.8 -91.45 14.2
L -89.85 14.05
Q -89.9 13.4 -90.4 13.1 -90.9 12.85 -91.8 12.85
M -94.6 11.25
L -96.3 11.25 -96.55 12.4 -94.8 12.4 -94.6 11.25
M -98.2 11.3
L -100.15 12.25 -100.3 12.95 -100.95 12.95 -101.15 14.2 -100.55 14.2 -100.85 15.75
Q -101 16.3 -101 16.45 -101 16.85 -100.7 17.2 -100.4 17.55 -99.7 17.55 -99.3 17.55 -98.55 17.45
L -98.25 16.25
Q -98.65 16.3 -98.8 16.3 -99.2 16.3 -99.2 16 -99.2 15.85 -99.15 15.8
L -98.85 14.2 -97.95 14.2 -97.7 12.95 -98.55 12.95 -98.2 11.3
M -86.45 11.25
L -88.15 11.25 -88.4 12.4 -86.65 12.4 -86.45 11.25
M -76.8 12.95
L -77 13.6
Q -77.5 12.85 -78.3 12.85 -79.3 12.85 -79.95 13.65 -80.6 14.45 -80.6 15.5 -80.6 16.3 -80.2 16.8 -79.75 17.3 -79.1 17.3 -78.3 17.3 -77.75 16.7
L -77.9 17.4
Q -78 17.8 -78.2 18.05 -78.4 18.25 -78.7 18.25 -79.2 18.25 -79.2 17.8
L -80.85 17.55
Q -80.85 17.6 -80.85 17.8 -80.85 18.25 -80.55 18.65 -80.25 19.05 -79.85 19.15 -79.4 19.25 -78.65 19.25 -77.55 19.25 -77 18.85 -76.4 18.45 -76.1 17.2
L -75.25 12.95 -76.8 12.95
M -77.5 14.2
Q -77.35 14.35 -77.35 14.65 -77.35 15.1 -77.6 15.6 -77.85 16.15 -78.3 16.15 -78.6 16.15 -78.75 15.95 -78.9 15.8 -78.9 15.45 -78.9 14.9 -78.6 14.45 -78.3 14 -77.95 14 -77.7 14 -77.5 14.2
M -98.75 -0.3
Q -99.2 -0.6 -100.55 -0.6 -101.7 -0.6 -102.25 -0.25 -102.8 0.05 -102.95 0.75
L -101.35 0.9
Q -101.25 0.6 -101.05 0.5 -100.85 0.4 -100.55 0.4 -100.3 0.4 -100.1 0.5 -99.9 0.6 -99.9 0.75 -99.9 0.9 -100 1.1 -100.25 1.15 -100.95 1.2 -101.8 1.3 -102.3 1.4 -102.8 1.55 -103.15 1.85 -103.45 2.15 -103.45 2.75 -103.45 3.3 -103.1 3.7 -102.7 4.1 -101.85 4.1 -101.05 4.1 -100.35 3.45 -100.35 3.7 -100.3 4
L -98.6 4
Q -98.75 3.65 -98.75 3.35 -98.75 3 -98.5 2.05 -98.25 1.1 -98.25 0.7 -98.25 0.05 -98.75 -0.3
M -100.2 1.95
Q -100.3 2.65 -100.6 2.9 -100.95 3.15 -101.25 3.15 -101.5 3.15 -101.6 3.05 -101.8 2.9 -101.8 2.65 -101.8 2.45 -101.55 2.3 -101.35 2.15 -100.2 1.95
M -95.3 -0.5
L -96.9 -0.5 -97.85 4 -96.15 4 -95.75 2.3
Q -95.6 1.5 -95.3 1.15 -95 0.8 -94.5 0.8 -94.35 0.8 -94.15 0.85
L -93.5 -0.5
Q -93.8 -0.6 -94.1 -0.6 -94.45 -0.6 -94.75 -0.4 -95.05 -0.2 -95.45 0.4
L -95.5 0.35 -95.3 -0.5
M -91.15 -0.5
L -92.8 -0.5 -93.75 4 -92 4 -91.55 2.05
Q -91.45 1.35 -91.15 1 -90.9 0.65 -90.5 0.65 -90.15 0.65 -90.15 1 -90.15 1.1 -90.3 1.9
L -90.75 4 -89.05 4 -88.5 1.5
Q -88.35 0.75 -88.35 0.45 -88.35 0 -88.65 -0.3 -88.95 -0.6 -89.55 -0.6 -90.6 -0.6 -91.3 0.15
L -91.15 -0.5
M -111.85 -2.25
L -113.8 -2.25 -115.15 4 -110.15 4 -109.8 2.45 -112.9 2.45 -111.85 -2.25
M -104.5 -0.05
Q -105 -0.6 -106.3 -0.6 -106.85 -0.6 -107.3 -0.5 -107.75 -0.35 -108.2 0 -108.6 0.35 -108.9 0.9 -109.15 1.4 -109.15 2 -109.15 2.9 -108.6 3.5 -108.05 4.1 -106.7 4.1 -105.8 4.1 -105.15 3.8 -104.6 3.5 -104.2 2.85
L -105.85 2.65
Q -106.15 3.1 -106.65 3.1 -107.4 3.1 -107.45 2.15
L -104.05 2.15
Q -103.9 1.55 -103.9 1.3 -103.9 0.45 -104.5 -0.05
M -105.8 0.55
Q -105.6 0.75 -105.6 1.1 -105.6 1.25 -105.65 1.35
L -107.3 1.35
Q -107.2 0.85 -106.9 0.65 -106.65 0.4 -106.3 0.4 -106.05 0.4 -105.8 0.55 Z"/>

<path fill="#CCCCCC" stroke="none" d="
M -81.3 64.4
Q -81.7 64.65 -82.1 64.9 -80.05 63.8 -78.2 62.5 -79.7 63.5 -81.3 64.4
M -137.95 49.25
Q -138.5 48.3 -139 47.35 -137.15 51.1 -134.6 54.35 -136.4 51.95 -137.95 49.25
M -143.7 28.4
Q -143.7 29.6 -143.6 30.85 -143.65 29.65 -143.65 28.45 -143.6 23.15 -142.15 17.7 -141.9 16.85 -141.65 15.95 -143.7 22.1 -143.7 28.4
M -62.25 40.3
Q -61.9 39.1 -61.6 37.9 -61.8 38.6 -62 39.25 -62.1 39.75 -62.25 40.3
M -65.25 9.05
Q -67.5 4.7 -70.6 1.2 -68.15 4.2 -66.1 7.75
L -66.05 7.75
Q -65.65 8.4 -65.25 9.05
M -93.15 -12.05
Q -92.25 -11.85 -91.3 -11.6 -88.6 -10.85 -86.1 -9.9 -94.35 -13.4 -102.75 -13.15 -98 -13.15 -93.15 -12.05
M -125.9 -5.65
Q -128.6 -3.8 -130.85 -1.55 -127.3 -4.9 -122.75 -7.5 -121.75 -8.05 -120.75 -8.6 -123.45 -7.3 -125.9 -5.65 Z"/>

<path fill="#7A503F" stroke="none" d="
M -122.75 -7.5
Q -127.3 -4.9 -130.85 -1.55
L -135.15 3.25 -137.6 6.85
Q -139.4 9.85 -140.65 13.2 -140.8 13.5 -140.9 13.85 -141.3 14.9 -141.65 15.95 -141.9 16.85 -142.15 17.7 -143.6 23.15 -143.65 28.45 -143.65 29.65 -143.6 30.85 -143.15 39 -139.3 46.7
L -139 47.35
Q -138.5 48.3 -137.95 49.25 -136.4 51.95 -134.6 54.35
L -130.6 58.7 -129.45 59.75
Q -127.75 61.3 -125.85 62.6 -124.4 63.6 -122.8 64.45 -118.2 67.1 -112.8 68.6 -112.35 68.7 -111.85 68.8
L -109.85 69.25
Q -108.5 69.55 -107.2 69.75
L -98.4 69.95
Q -90.85 69.3 -83.7 65.7
L -82.1 64.9
Q -81.7 64.65 -81.3 64.4 -79.7 63.5 -78.2 62.5 -77.8 62.25 -77.45 62 -77.1 61.7 -76.7 61.4
L -75.25 60.25 -69.1 53.9
Q -64.8 48.35 -62.6 41.3 -62.4 40.8 -62.25 40.3 -62.1 39.75 -62 39.25 -61.8 38.6 -61.6 37.9 -61.45 37.25 -61.3 36.55 -61.05 35.15 -60.85 33.8
L -60.45 28.45
Q -60.45 28.4 -60.45 28.35
L -60.45 27.45
Q -60.55 20.1 -63.45 13.1
L -64.75 10.1
Q -64.9 9.8 -65.05 9.5
L -65.25 9.05
Q -65.65 8.4 -66.05 7.75
L -66.1 7.75
Q -68.15 4.2 -70.6 1.2
L -76.1 -4.1 -77.1 -4.85
Q -77.6 -5.25 -78.15 -5.6 -79.6 -6.65 -81.2 -7.55 -82 -8 -82.85 -8.4
L -86.1 -9.9
Q -88.6 -10.85 -91.3 -11.6 -92.25 -11.85 -93.15 -12.05 -98 -13.15 -102.75 -13.15
L -105.9 -13 -111 -12.15
Q -114.95 -11.3 -118.7 -9.55
L -120.75 -8.6
Q -121.75 -8.05 -122.75 -7.5
M -106.3 -0.6
Q -105 -0.6 -104.5 -0.05 -103.9 0.45 -103.9 1.3 -103.9 1.55 -104.05 2.15
L -107.45 2.15
Q -107.4 3.1 -106.65 3.1 -106.15 3.1 -105.85 2.65
L -104.2 2.85
Q -104.6 3.5 -105.15 3.8 -105.8 4.1 -106.7 4.1 -108.05 4.1 -108.6 3.5 -109.15 2.9 -109.15 2 -109.15 1.4 -108.9 0.9 -108.6 0.35 -108.2 0 -107.75 -0.35 -107.3 -0.5 -106.85 -0.6 -106.3 -0.6
M -113.8 -2.25
L -111.85 -2.25 -112.9 2.45 -109.8 2.45 -110.15 4 -115.15 4 -113.8 -2.25
M -92.8 -0.5
L -91.15 -0.5 -91.3 0.15
Q -90.6 -0.6 -89.55 -0.6 -88.95 -0.6 -88.65 -0.3 -88.35 0 -88.35 0.45 -88.35 0.75 -88.5 1.5
L -89.05 4 -90.75 4 -90.3 1.9
Q -90.15 1.1 -90.15 1 -90.15 0.65 -90.5 0.65 -90.9 0.65 -91.15 1 -91.45 1.35 -91.55 2.05
L -92 4 -93.75 4 -92.8 -0.5
M -96.9 -0.5
L -95.3 -0.5 -95.5 0.35 -95.45 0.4
Q -95.05 -0.2 -94.75 -0.4 -94.45 -0.6 -94.1 -0.6 -93.8 -0.6 -93.5 -0.5
L -94.15 0.85
Q -94.35 0.8 -94.5 0.8 -95 0.8 -95.3 1.15 -95.6 1.5 -95.75 2.3
L -96.15 4 -97.85 4 -96.9 -0.5
M -100.55 -0.6
Q -99.2 -0.6 -98.75 -0.3 -98.25 0.05 -98.25 0.7 -98.25 1.1 -98.5 2.05 -98.75 3 -98.75 3.35 -98.75 3.65 -98.6 4
L -100.3 4
Q -100.35 3.7 -100.35 3.45 -101.05 4.1 -101.85 4.1 -102.7 4.1 -103.1 3.7 -103.45 3.3 -103.45 2.75 -103.45 2.15 -103.15 1.85 -102.8 1.55 -102.3 1.4 -101.8 1.3 -100.95 1.2 -100.25 1.15 -100 1.1 -99.9 0.9 -99.9 0.75 -99.9 0.6 -100.1 0.5 -100.3 0.4 -100.55 0.4 -100.85 0.4 -101.05 0.5 -101.25 0.6 -101.35 0.9
L -102.95 0.75
Q -102.8 0.05 -102.25 -0.25 -101.7 -0.6 -100.55 -0.6
M -77 13.6
L -76.8 12.95 -75.25 12.95 -76.1 17.2
Q -76.4 18.45 -77 18.85 -77.55 19.25 -78.65 19.25 -79.4 19.25 -79.85 19.15 -80.25 19.05 -80.55 18.65 -80.85 18.25 -80.85 17.8 -80.85 17.6 -80.85 17.55
L -79.2 17.8
Q -79.2 18.25 -78.7 18.25 -78.4 18.25 -78.2 18.05 -78 17.8 -77.9 17.4
L -77.75 16.7
Q -78.3 17.3 -79.1 17.3 -79.75 17.3 -80.2 16.8 -80.6 16.3 -80.6 15.5 -80.6 14.45 -79.95 13.65 -79.3 12.85 -78.3 12.85 -77.5 12.85 -77 13.6
M -88.15 11.25
L -86.45 11.25 -86.65 12.4 -88.4 12.4 -88.15 11.25
M -100.15 12.25
L -98.2 11.3 -98.55 12.95 -97.7 12.95 -97.95 14.2 -98.85 14.2 -99.15 15.8
Q -99.2 15.85 -99.2 16 -99.2 16.3 -98.8 16.3 -98.65 16.3 -98.25 16.25
L -98.55 17.45
Q -99.3 17.55 -99.7 17.55 -100.4 17.55 -100.7 17.2 -101 16.85 -101 16.45 -101 16.3 -100.85 15.75
L -100.55 14.2 -101.15 14.2 -100.95 12.95 -100.3 12.95 -100.15 12.25
M -96.3 11.25
L -94.6 11.25 -94.8 12.4 -96.55 12.4 -96.3 11.25
M -93.1 13.1
Q -92.6 12.85 -91.8 12.85 -90.9 12.85 -90.4 13.1 -89.9 13.4 -89.85 14.05
L -91.45 14.2
Q -91.5 13.8 -92.05 13.8 -92.35 13.8 -92.5 13.9 -92.65 14.05 -92.65 14.2 -92.65 14.35 -92.5 14.45 -92.4 14.55 -91.75 14.65 -90.8 14.8 -90.45 15.1 -90.1 15.4 -90.1 15.85 -90.1 16.55 -90.75 17.05 -91.4 17.55 -92.7 17.55 -93.8 17.55 -94.3 17.25 -94.8 16.95 -94.9 16.2
L -93.2 16.05
Q -93.1 16.6 -92.45 16.6 -92.15 16.6 -91.95 16.5 -91.75 16.35 -91.75 16.15 -91.75 15.95 -91.9 15.85 -92.05 15.8 -92.5 15.7 -93.45 15.55 -93.85 15.25 -94.2 14.9 -94.2 14.45 -94.2 14.05 -93.95 13.65 -93.65 13.3 -93.1 13.1
M -94.95 12.95
L -95.9 17.45 -97.65 17.45 -96.65 12.95 -94.95 12.95
M -99 24.7
L -97.3 24.7 -97.5 25.9 -99.25 25.9 -99 24.7
M -83.1 14.5
Q -83.1 14.1 -83.4 14.1 -83.8 14.1 -84.1 14.45 -84.35 14.8 -84.5 15.5
L -84.95 17.45 -86.65 17.45 -85.7 12.95 -84.1 12.95 -84.25 13.65
Q -83.5 12.85 -82.5 12.85 -81.85 12.85 -81.6 13.2 -81.3 13.5 -81.3 13.95 -81.3 14.2 -81.45 15
L -81.95 17.45 -83.7 17.45 -83.25 15.35
Q -83.1 14.6 -83.1 14.5
M -86.8 12.95
L -87.75 17.45 -89.5 17.45 -88.5 12.95 -86.8 12.95
M -117.95 11.25
L -116.25 11.25 -117.55 17.45 -119.15 17.45 -119.05 17 -119.1 17
Q -119.45 17.3 -119.75 17.45 -120.05 17.55 -120.45 17.55 -121.25 17.55 -121.65 17.05 -122.05 16.55 -122.05 15.7 -122.05 14.55 -121.45 13.7 -120.8 12.85 -119.9 12.85 -118.95 12.85 -118.45 13.55
L -117.95 11.25
M -114.5 12.95
L -114.25 15.8 -114.2 15.8 -112.75 12.95 -110.9 12.95 -113.7 17.45 -115.25 17.45 -116.1 12.95 -114.5 12.95
M -103.15 12.95
L -103.35 13.85
Q -102.95 13.3 -102.65 13.05 -102.35 12.85 -102 12.85 -101.7 12.85 -101.4 13
L -102 14.35
Q -102.2 14.25 -102.4 14.25 -102.85 14.25 -103.15 14.65 -103.5 15 -103.65 15.8
L -104 17.45 -105.75 17.45 -104.8 12.95 -103.15 12.95
M -106.05 14.75
Q -106.05 15 -106.15 15.65
L -109.55 15.65
Q -109.5 16.55 -108.75 16.55 -108.25 16.55 -107.95 16.15
L -106.3 16.3
Q -106.7 16.95 -107.25 17.25 -107.9 17.55 -108.8 17.55 -110.15 17.55 -110.7 16.95 -111.25 16.35 -111.25 15.5 -111.25 14.9 -111 14.35 -110.7 13.85 -110.3 13.5 -109.85 13.1 -109.4 13 -108.95 12.85 -108.4 12.85 -107.1 12.85 -106.6 13.4 -106.05 13.95 -106.05 14.75
M -112.9 24.7
L -111.2 24.7 -112.5 30.9 -114.1 30.9 -114 30.45 -114.05 30.45
Q -114.4 30.8 -114.7 30.9 -115 31 -115.4 31 -116.2 31 -116.55 30.55 -116.95 30 -116.95 29.15 -116.95 28.05 -116.4 27.2 -115.75 26.3 -114.85 26.3 -113.9 26.3 -113.4 27
L -112.9 24.7
M -103.35 27.4
Q -103.45 27.5 -103.45 27.65 -103.45 27.8 -103.35 27.95 -103.2 28.05 -102.6 28.1 -101.6 28.25 -101.25 28.55 -100.95 28.85 -100.95 29.35 -100.95 30.05 -101.55 30.55 -102.2 31 -103.55 31 -104.6 31 -105.1 30.75 -105.6 30.4 -105.7 29.7
L -104 29.55
Q -103.9 30.05 -103.25 30.05 -102.95 30.05 -102.75 29.95 -102.55 29.85 -102.55 29.6 -102.55 29.4 -102.7 29.3 -102.85 29.25 -103.3 29.2 -104.3 29 -104.65 28.7 -105 28.4 -105 27.9 -105 27.5 -104.75 27.15 -104.5 26.75 -103.9 26.55 -103.4 26.3 -102.6 26.3 -101.7 26.3 -101.25 26.6 -100.75 26.85 -100.65 27.5
L -102.25 27.65
Q -102.3 27.3 -102.85 27.3 -103.15 27.3 -103.35 27.4
M -105.95 28.25
Q -105.95 28.5 -106.1 29.1
L -109.5 29.1
Q -109.45 30.05 -108.7 30.05 -108.2 30.05 -107.9 29.6
L -106.2 29.75
Q -106.6 30.45 -107.2 30.75 -107.85 31 -108.75 31 -110.05 31 -110.65 30.45 -111.2 29.85 -111.2 28.95 -111.2 28.35 -110.9 27.85 -110.65 27.3 -110.25 26.95 -109.75 26.6 -109.35 26.45 -108.9 26.3 -108.35 26.3 -107.05 26.3 -106.5 26.9 -105.95 27.4 -105.95 28.25
M -113.5 38.7
Q -112.85 39.25 -112.75 40.2
L -114.5 40.4
Q -114.5 39.95 -114.75 39.75 -115.05 39.5 -115.35 39.5 -115.8 39.5 -116.2 39.8 -116.55 40.15 -116.85 40.75 -117.05 41.4 -117.05 42 -117.05 42.45 -116.85 42.8 -116.55 43.1 -116.1 43.1 -115.65 43.1 -115.35 42.8 -115.05 42.5 -114.85 41.95
L -113 42.25
Q -113.3 43.2 -114.1 43.85 -114.9 44.5 -116.2 44.5 -117.55 44.5 -118.25 43.75 -118.95 43.1 -118.95 41.85 -118.95 41 -118.55 40.05 -118.1 39.15 -117.3 38.6 -116.5 38.1 -115.35 38.1 -114.2 38.1 -113.5 38.7
M -112.45 42.45
Q -112.45 41.8 -112.1 41.15 -111.8 40.5 -111.1 40.15 -110.5 39.8 -109.6 39.8 -108.4 39.8 -107.85 40.4 -107.3 41 -107.3 41.85 -107.3 42.45 -107.6 43.1 -107.95 43.75 -108.55 44.15 -109.2 44.5 -110.15 44.5 -111.3 44.5 -111.85 43.95 -112.45 43.35 -112.45 42.45
M -105.55 38.2
L -103.8 38.2 -105.15 44.4 -106.9 44.4 -105.55 38.2
M -102.25 44.4
L -104 44.4 -102.65 38.2 -100.95 38.2 -102.25 44.4
M -87.55 26.3
Q -86.9 26.3 -86.6 26.65 -86.3 26.95 -86.3 27.4 -86.3 27.65 -86.45 28.45
L -87 30.9 -88.7 30.9 -88.3 28.8
Q -88.1 28.05 -88.1 27.95 -88.1 27.55 -88.45 27.55 -88.85 27.55 -89.1 27.95 -89.4 28.3 -89.55 29
L -89.95 30.9 -91.7 30.9 -90.75 26.4 -89.15 26.4 -89.25 27.1
Q -88.55 26.3 -87.55 26.3
M -93.45 26.4
L -91.9 26.4 -92.8 30.65
Q -93.05 31.9 -93.65 32.35 -94.2 32.75 -95.3 32.75 -96.05 32.75 -96.5 32.65 -96.9 32.5 -97.2 32.1 -97.5 31.7 -97.5 31.25 -97.5 31.1 -97.5 31
L -95.85 31.25
Q -95.85 31.7 -95.4 31.7 -95.05 31.7 -94.85 31.5 -94.65 31.3 -94.55 30.85
L -94.4 30.15 -94.45 30.15
Q -95 30.75 -95.75 30.75 -96.45 30.75 -96.85 30.25 -97.25 29.75 -97.25 29 -97.25 27.9 -96.65 27.1 -95.95 26.3 -95 26.3 -94.15 26.3 -93.65 27.1
L -93.45 26.4
M -98.6 30.9
L -100.35 30.9 -99.35 26.4 -97.65 26.4 -98.6 30.9
M -95.65 41.7
Q -95.65 41.95 -95.8 42.6
L -99.2 42.6
Q -99.15 43.5 -98.4 43.5 -97.9 43.5 -97.6 43.1
L -95.95 43.25
Q -96.35 43.9 -96.9 44.2 -97.55 44.5 -98.45 44.5 -99.8 44.5 -100.35 43.9 -100.9 43.3 -100.9 42.45 -100.9 41.85 -100.65 41.3 -100.35 40.8 -99.95 40.4 -99.5 40.05 -99.05 39.95 -98.6 39.8 -98.05 39.8 -96.75 39.8 -96.25 40.35 -95.65 40.9 -95.65 41.7
M -94.9 42.45
Q -94.9 41.35 -94.25 40.6 -93.6 39.8 -92.6 39.8 -91.8 39.8 -91.25 40.55
L -91.1 39.9 -89.55 39.9 -90.4 44.15
Q -90.7 45.4 -91.25 45.8 -91.85 46.2 -92.95 46.2 -93.7 46.2 -94.15 46.1 -94.55 45.95 -94.85 45.6 -95.15 45.2 -95.15 44.75 -95.15 44.55 -95.15 44.5
L -93.5 44.75
Q -93.45 45.2 -93 45.2 -92.7 45.2 -92.5 45 -92.3 44.75 -92.2 44.35
L -92.05 43.65
Q -92.6 44.25 -93.35 44.25 -94.05 44.25 -94.5 43.75 -94.9 43.25 -94.9 42.45
M -85.95 43.1
L -84.25 43.25
Q -84.65 43.9 -85.25 44.2 -85.9 44.5 -86.8 44.5 -88.1 44.5 -88.7 43.9 -89.25 43.3 -89.25 42.45 -89.25 41.85 -88.95 41.3 -88.7 40.8 -88.3 40.4 -87.8 40.05 -87.4 39.95 -86.95 39.8 -86.4 39.8 -85.1 39.8 -84.55 40.35 -84 40.9 -84 41.7 -84 41.95 -84.15 42.6
L -87.55 42.6
Q -87.5 43.5 -86.75 43.5 -86.25 43.5 -85.95 43.1
M -123.2 13.2
Q -122.75 13.5 -122.75 14.15 -122.75 14.6 -123 15.55 -123.2 16.45 -123.2 16.85 -123.2 17.1 -123.1 17.45
L -124.75 17.45
Q -124.8 17.2 -124.8 16.95 -125.5 17.55 -126.35 17.55 -127.2 17.55 -127.6 17.15 -127.95 16.75 -127.95 16.25 -127.95 15.65 -127.6 15.3 -127.3 15 -126.8 14.9 -126.3 14.8 -125.45 14.7 -124.7 14.65 -124.45 14.55 -124.4 14.35 -124.4 14.25 -124.4 14.05 -124.6 13.95 -124.75 13.85 -125 13.85 -125.35 13.85 -125.5 13.95 -125.7 14.05 -125.85 14.35
L -127.45 14.2
Q -127.3 13.55 -126.75 13.2 -126.15 12.85 -125 12.85 -123.65 12.85 -123.2 13.2
M -85.85 53.85
Q -85.3 54.35 -85.3 55.2 -85.3 55.45 -85.4 56.05
L -88.85 56.05
Q -88.75 57 -88 57 -87.55 57 -87.25 56.55
L -85.55 56.7
Q -85.95 57.4 -86.55 57.65 -87.15 57.95 -88.1 57.95 -89.4 57.95 -89.95 57.4 -90.5 56.8 -90.5 55.9 -90.5 55.3 -90.25 54.8 -90 54.25 -89.55 53.9 -89.1 53.55 -88.7 53.4 -88.2 53.25 -87.65 53.25 -86.4 53.25 -85.85 53.85
M -96.05 54.8
Q -95.75 54.25 -95.35 53.9 -94.9 53.55 -94.45 53.4 -94 53.25 -93.45 53.25 -92.15 53.25 -91.65 53.85 -91.05 54.35 -91.05 55.2 -91.05 55.45 -91.2 56.05
L -94.6 56.05
Q -94.55 57 -93.8 57 -93.3 57 -93 56.55
L -91.35 56.7
Q -91.75 57.4 -92.3 57.65 -92.95 57.95 -93.85 57.95 -95.2 57.95 -95.75 57.4 -96.3 56.8 -96.3 55.9 -96.3 55.3 -96.05 54.8
M -97.15 54.7
Q -97.65 54.7 -97.95 55.05 -98.25 55.4 -98.45 56.2
L -98.8 57.85 -100.5 57.85 -99.55 53.35 -97.95 53.35 -98.15 54.25 -98.1 54.3
Q -97.7 53.7 -97.4 53.45 -97.1 53.25 -96.75 53.25 -96.45 53.25 -96.15 53.4
L -96.8 54.75
Q -97 54.7 -97.15 54.7
M -102.5 54
L -102.35 53.35 -100.75 53.35 -101.65 57.6
Q -101.9 58.85 -102.5 59.3 -103.05 59.7 -104.2 59.7 -104.95 59.7 -105.35 59.6 -105.8 59.45 -106.1 59.05 -106.4 58.65 -106.4 58.2 -106.4 58.05 -106.4 57.95
L -104.75 58.2
Q -104.7 58.65 -104.25 58.65 -103.9 58.65 -103.75 58.45 -103.55 58.25 -103.45 57.8
L -103.25 57.1 -103.3 57.1
Q -103.85 57.7 -104.6 57.7 -105.3 57.7 -105.75 57.2 -106.1 56.7 -106.1 55.95 -106.1 54.85 -105.5 54.05 -104.85 53.25 -103.85 53.25 -103.05 53.25 -102.5 54
M -111.2 53.9
Q -110.7 53.55 -110.3 53.4 -109.85 53.25 -109.3 53.25 -108 53.25 -107.45 53.85 -106.9 54.35 -106.9 55.2 -106.9 55.45 -107.05 56.05
L -110.45 56.05
Q -110.4 57 -109.65 57 -109.15 57 -108.85 56.55
L -107.2 56.7
Q -107.55 57.4 -108.15 57.65 -108.8 57.95 -109.7 57.95 -111 57.95 -111.6 57.4 -112.15 56.8 -112.15 55.9 -112.15 55.3 -111.85 54.8 -111.6 54.25 -111.2 53.9
M -114.35 53.95
L -113.85 51.65 -112.15 51.65 -113.45 57.85 -115.05 57.85 -114.95 57.4 -115 57.4
Q -115.35 57.75 -115.65 57.85 -115.95 57.95 -116.35 57.95 -117.15 57.95 -117.55 57.5 -117.9 56.95 -117.9 56.1 -117.9 55 -117.35 54.1 -116.7 53.25 -115.8 53.25 -114.85 53.25 -114.35 53.95
M -115.3 54.4
Q -115.7 54.4 -116 54.9 -116.25 55.4 -116.25 56.05 -116.25 56.45 -116.1 56.65 -115.9 56.85 -115.65 56.85 -115.2 56.85 -114.95 56.35 -114.65 55.75 -114.65 55.2 -114.65 54.8 -114.85 54.6 -115.05 54.4 -115.3 54.4
M -109.3 54.3
Q -109.65 54.3 -109.9 54.5 -110.15 54.75 -110.3 55.25
L -108.6 55.25
Q -108.6 55.15 -108.6 55 -108.6 54.6 -108.8 54.45 -109 54.3 -109.3 54.3
M -103.05 54.6
Q -103.25 54.4 -103.45 54.4 -103.85 54.4 -104.15 54.9 -104.45 55.3 -104.45 55.85 -104.45 56.2 -104.3 56.35 -104.1 56.55 -103.8 56.55 -103.35 56.55 -103.15 56.05 -102.85 55.5 -102.85 55.05 -102.85 54.8 -103.05 54.6
M -94.05 54.5
Q -94.35 54.75 -94.45 55.25
L -92.8 55.25
Q -92.75 55.15 -92.75 55 -92.75 54.6 -92.95 54.45 -93.2 54.3 -93.45 54.3 -93.8 54.3 -94.05 54.5
M -87.7 54.3
Q -88 54.3 -88.3 54.5 -88.55 54.75 -88.7 55.25
L -87 55.25
Q -86.95 55.15 -86.95 55 -86.95 54.6 -87.15 54.45 -87.4 54.3 -87.7 54.3
M -126.05 15.8
Q -126.25 15.95 -126.25 16.15 -126.25 16.35 -126.1 16.5 -125.95 16.65 -125.7 16.65 -125.4 16.65 -125.1 16.35 -124.75 16.1 -124.65 15.45 -125.85 15.65 -126.05 15.8
M -85.7 41.75
Q -85.7 41.65 -85.7 41.5 -85.7 41.15 -85.9 41 -86.1 40.8 -86.4 40.8 -86.75 40.8 -87 41.05 -87.25 41.3 -87.4 41.75
L -85.7 41.75
M -92.6 43.1
Q -92.15 43.1 -91.9 42.55 -91.65 42.05 -91.65 41.55 -91.65 41.3 -91.8 41.15 -92 40.95 -92.2 40.95 -92.6 40.95 -92.9 41.4 -93.2 41.85 -93.2 42.4 -93.2 42.7 -93.05 42.9 -92.9 43.1 -92.6 43.1
M -97.4 41.75
Q -97.35 41.65 -97.35 41.5 -97.35 41.15 -97.55 41 -97.8 40.8 -98.05 40.8 -98.4 40.8 -98.65 41.05 -98.95 41.3 -99.05 41.75
L -97.4 41.75
M -94.15 27.65
Q -94.35 27.45 -94.6 27.45 -95 27.45 -95.3 27.95 -95.6 28.35 -95.6 28.9 -95.6 29.25 -95.4 29.4 -95.25 29.6 -94.95 29.6 -94.5 29.6 -94.25 29.1 -94 28.55 -94 28.1 -94 27.85 -94.15 27.65
M -109.3 42.85
Q -109 42.35 -109 41.75 -109 41.3 -109.2 41.15 -109.4 41 -109.65 41 -110.25 41 -110.5 41.45 -110.75 41.95 -110.75 42.45 -110.75 42.85 -110.55 43.1 -110.35 43.35 -110.05 43.35 -109.55 43.35 -109.3 42.85
M -107.85 27.5
Q -108.05 27.35 -108.35 27.35 -108.7 27.35 -108.95 27.55 -109.2 27.8 -109.35 28.3
L -107.65 28.3
Q -107.65 28.2 -107.65 28.05 -107.65 27.65 -107.85 27.5
M -115.05 27.95
Q -115.3 28.45 -115.3 29.1 -115.3 29.5 -115.15 29.7 -114.95 29.9 -114.7 29.9 -114.25 29.9 -114 29.4 -113.7 28.8 -113.7 28.25 -113.7 27.85 -113.9 27.65 -114.1 27.45 -114.35 27.45 -114.75 27.45 -115.05 27.95
M -107.7 14.55
Q -107.7 14.2 -107.9 14.05 -108.15 13.85 -108.4 13.85 -108.75 13.85 -109 14.1 -109.3 14.35 -109.4 14.8
L -107.75 14.8
Q -107.7 14.7 -107.7 14.55
M -118.8 14.8
Q -118.8 14.4 -118.95 14.2 -119.15 14 -119.45 14 -119.85 14 -120.1 14.5 -120.35 15 -120.35 15.65 -120.35 16.05 -120.2 16.25 -120 16.45 -119.75 16.45 -119.3 16.45 -119.05 15.9 -118.8 15.35 -118.8 14.8
M -77.35 14.65
Q -77.35 14.35 -77.5 14.2 -77.7 14 -77.95 14 -78.3 14 -78.6 14.45 -78.9 14.9 -78.9 15.45 -78.9 15.8 -78.75 15.95 -78.6 16.15 -78.3 16.15 -77.85 16.15 -77.6 15.6 -77.35 15.1 -77.35 14.65
M -100.6 2.9
Q -100.3 2.65 -100.2 1.95 -101.35 2.15 -101.55 2.3 -101.8 2.45 -101.8 2.65 -101.8 2.9 -101.6 3.05 -101.5 3.15 -101.25 3.15 -100.95 3.15 -100.6 2.9
M -105.6 1.1
Q -105.6 0.75 -105.8 0.55 -106.05 0.4 -106.3 0.4 -106.65 0.4 -106.9 0.65 -107.2 0.85 -107.3 1.35
L -105.65 1.35
Q -105.6 1.25 -105.6 1.1 Z"/>
</g>
</defs>

<g transform="matrix( 1, 0, 0, 1, 148.55,18) ">
<use xlink:href="#Layer0_0_FILL"/>
</g>
</svg>
