
<svg xmlns="http://www.w3.org/2000/svg" version="1.1" xmlns:xlink="http://www.w3.org/1999/xlink" preserveAspectRatio="none" x="0px" y="0px" width="93px" height="93px" viewBox="0 0 93 93">
<defs>
<g id="Layer1_0_FILL">
<path fill="#FFFFFF" stroke="none" d="
M 92.85 46.5
Q 92.85 45.55 92.85 44.7 92.85 44.4 92.85 44.2 92.05 26.5 79.25 13.75 65.75 0.2 46.55 0.2 27.35 0.2 13.75 13.75 0.2 27.35 0.2 46.5 0.2 61.35 8.3 72.8 9.85 75 11.75 77.1 12.7 78.2 13.75 79.25 27.35 92.85 46.55 92.85 65.75 92.85 79.25 79.25 80.3 78.2 81.3 77.1 83.2 75 84.8 72.8 92.35 62.05 92.85 48.4 92.85 47.45 92.85 46.5
M 84.2 28.9
L 85.15 31.1
Q 88.05 38.1 88.15 45.5
L 88.15 46.35
Q 88.15 46.4 88.15 46.5
L 87.75 51.85
Q 87.55 53.2 87.3 54.55 87.15 55.25 87 55.9 86.7 57.15 86.35 58.3 86.15 58.8 86 59.3 83.75 66.4 79.45 71.9
L 73.3 78.3 71.85 79.45
Q 71.5 79.7 71.15 80
L 71 80.15
Q 70.7 80.35 70.4 80.55
L 67.9 82.15
Q 67.2 82.55 66.5 82.95
L 64.9 83.75
Q 57.75 87.35 50.2 87.95
L 41.4 87.75
Q 40.05 87.55 38.7 87.3
L 36.7 86.85
Q 36.25 86.75 35.8 86.6 30.35 85.15 25.8 82.5 24.2 81.65 22.75 80.65 20.85 79.3 19.15 77.75
L 18 76.7 14 72.4
Q 11.25 68.9 9.25 64.7 5.45 57 5 48.85 4.9 47.6 4.9 46.4 4.85 39.1 7.65 31.9 7.8 31.55 7.95 31.2 9.2 27.85 11 24.9
L 13.4 21.3 17.7 16.5
Q 20 14.2 22.7 12.4 26.05 10.1 29.9 8.45 33.65 6.75 37.55 5.85
L 45.85 4.85
Q 54.25 4.6 62.45 8.15
L 65.75 9.65
Q 66.6 10.05 67.35 10.45 69 11.4 70.45 12.4 71 12.75 71.5 13.15
L 72.45 13.9 78 19.2
Q 81.75 23.5 84.2 28.9 Z"/>

<path fill="#1A7D8D" stroke="none" d="
M 65.75 9.65
L 62.45 8.15
Q 60 7.15 57.3 6.45 56.35 6.15 55.45 5.95 50.6 4.85 45.85 4.85
L 37.55 5.85
Q 33.65 6.75 29.9 8.45 27.85 9.4 25.85 10.55 21.3 13.15 17.7 16.5
L 13.4 21.3 11 24.9
Q 9.2 27.85 7.95 31.2 7.8 31.55 7.65 31.9 7.3 32.9 6.95 34 6.7 34.85 6.45 35.75 5 41.2 4.95 46.5
L 46.6 46.5 70.45 12.45 70.45 12.4
Q 69 11.4 67.35 10.45 66.6 10.05 65.75 9.65 Z"/>

<path fill="#3BA9C4" stroke="none" d="
M 87 55.9
Q 87.15 55.25 87.3 54.55 87.55 53.2 87.75 51.85
L 88.15 46.5 46.6 46.5 4.95 46.5
Q 4.95 47.65 5 48.85 5.45 57 9.25 64.7 9.9 65.95 10.6 67.25
L 10.65 67.25
Q 12.2 70 14 72.4
L 18 76.7 19.15 77.75
Q 20.85 79.3 22.75 80.65 24.2 81.65 25.8 82.5 30.35 85.15 35.8 86.6 36.25 86.75 36.7 86.85
L 38.7 87.3
Q 40.05 87.55 41.4 87.75
L 50.2 87.95
Q 57.75 87.35 64.9 83.75
L 66.5 82.95
Q 66.9 82.65 67.3 82.45 67.6 82.3 67.9 82.15
L 70.4 80.55
Q 70.7 80.35 71 80.15
L 71.15 80
Q 71.5 79.7 71.85 79.45
L 73.3 78.3 79.45 71.9
Q 83.75 66.4 86 59.3 86.15 58.8 86.35 58.3 86.45 57.8 86.6 57.25 86.8 56.6 87 55.9 Z"/>

<path fill="#99D6E5" stroke="none" d="
M 85.15 31.1
L 84.2 28.9
Q 81.75 23.5 78 19.2
L 72.45 13.9 71.5 13.15
Q 71 12.75 70.45 12.4
L 70.45 12.45 46.6 46.5 88.15 46.5
Q 88.15 46.4 88.15 46.35
L 88.15 45.5
Q 88.05 38.1 85.15 31.1 Z"/>
</g>

<g id="Layer0_0_FILL">
<path fill="#FFFFFF" stroke="none" d="
M 69.95 34.75
Q 68.7 34.75 67.7 35.5 66.7 36.3 66.15 37.7 65.6 39.05 65.6 40.3 65.6 42.1 66.45 43 67.3 43.95 68.7 43.95 70.05 43.95 71.1 43.15 72.1 42.35 72.7 40.95 73.25 39.55 73.25 38.15 73.25 36.45 72.3 35.6 71.3 34.75 69.95 34.75
M 69.95 36.4
Q 70.4 36.4 70.6 36.75 70.9 37.05 70.9 37.6 70.9 38.4 70.6 39.6 70.4 40.8 69.95 41.55 69.5 42.3 68.95 42.3 68 42.3 68 40.95 68 40.2 68.2 39.05 68.45 37.85 68.9 37.15 69.35 36.4 69.95 36.4
M 78.85 36.6
Q 78.85 35.7 78.3 35.2 77.75 34.75 76.8 34.75 75.55 34.75 74.85 35.55 74.15 36.35 74.15 37.5 74.15 38.4 74.7 38.9 75.25 39.4 76.2 39.4 77.5 39.4 78.15 38.6 78.85 37.7 78.85 36.6
M 76.25 36
Q 76.55 35.75 76.8 35.75 77 35.75 77.15 35.9 77.3 36 77.3 36.3 77.3 37.05 77 37.7 76.75 38.4 76.2 38.4 76 38.4 75.85 38.25 75.7 38.1 75.7 37.75 75.7 37.5 75.85 36.85 76 36.2 76.25 36
M 57.95 37.35
L 60.4 37.75
Q 60.65 36.4 61.55 36.4 61.9 36.4 62.15 36.65 62.45 36.85 62.45 37.35 62.45 37.65 62.25 38 61.95 38.35 61.4 38.75
L 60.5 39.45
Q 59 40.5 58.2 41.45 57.35 42.4 57.15 43.8
L 63.95 43.8 64.35 41.75 60.85 41.75
Q 61.25 41.35 61.5 41.15 61.8 40.95 62.65 40.35 63.85 39.5 64.35 38.75 64.9 38 64.9 37.2 64.9 36.15 64.1 35.4 63.3 34.75 61.7 34.75 60.1 34.75 59.15 35.4 58.2 36.1 57.95 37.35
M 82.95 39.6
Q 81.75 39.6 81.05 40.4 80.35 41.2 80.35 42.35 80.35 43.25 80.9 43.75 81.45 44.25 82.4 44.25 83.7 44.25 84.4 43.45 85.1 42.6 85.1 41.45 85.1 40.6 84.5 40.1 83.95 39.6 82.95 39.6
M 82.4 43.25
Q 82.2 43.25 82.05 43.1 81.9 42.95 81.9 42.6 81.9 42.35 82.05 41.7 82.2 41.05 82.45 40.85 82.7 40.6 83 40.6 83.2 40.6 83.35 40.75 83.55 40.9 83.55 41.15 83.55 41.95 83.25 42.6 82.95 43.25 82.4 43.25
M 84.2 34.75
L 82.8 34.75 75.05 44.25 76.45 44.25 84.2 34.75 Z"/>
</g>

<g id="Layer0_1_FILL">
<path fill="#FFFFFF" stroke="none" d="
M 149.4 51.9
L 149.4 50.8 143.95 50.8 143.95 51.9 145.8 51.9 145.8 52.6 144.05 52.6 144.05 53.7 145.8 53.7 145.8 54.55 143.6 54.55 143.6 55.55 149.55 55.55 149.55 54.55 147.45 54.55 147.45 53.7 149.2 53.7 149.2 52.6 147.45 52.6 147.45 51.9 149.4 51.9
M 149.15 49
L 149.15 47.2 144.15 47.2 144.15 50.35 147.85 50.35
Q 149.2 50.35 149.15 49
M 145.65 49.3
L 145.65 48.25 147.7 48.25 147.7 48.85
Q 147.75 49.3 147.25 49.3
L 145.65 49.3
M 140.65 47.25
L 140.65 48.3 141.5 48.3 141.5 49.3 140.5 49.3 140.5 50.3 141.45 50.3
Q 141.15 51.6 140.45 52.9
L 140.45 54.45
Q 141.15 53.55 141.5 53
L 141.5 55.9 143 55.9 143 52.55
Q 143.3 52.9 143.8 53.4
L 143.8 52
Q 143.3 51.25 143.05 50.3
L 143.85 50.3 143.85 49.3 143 49.3 143 48.3
Q 143.5 48.25 143.85 48.1
L 143.85 47
Q 143.05 47.25 142.4 47.25
L 140.65 47.25
M 135.45 47.4
L 133.5 47.4 133.5 51
Q 133.5 53.05 133.05 54.1
L 133.05 53.75
Q 131.85 54 130.5 54
L 130.5 55.1
Q 131.7 55.1 132.9 54.8
L 132.9 55.7
Q 134 54.8 134.4 53.75
L 134.4 55.85 135.45 55.85 135.45 53.7 135.8 53.7 135.8 55.5 136.6 55.5 136.6 53.7 136.95 53.7 136.95 55.5 137.75 55.5 137.75 53.7 138.15 53.7 138.15 54.7
Q 138.15 54.85 138 54.85
L 137.9 54.85 137.9 55.75 138.2 55.75
Q 139.35 55.8 139.3 54.7
L 139.3 50.65 134.8 50.65 134.8 50.2 137.9 50.2
Q 139.25 50.25 139.2 48.9
L 139.2 47.4 137.2 47.4 137.2 46.9 135.45 46.9 135.45 47.4
M 134.8 49.15
L 134.8 48.45 137.9 48.45 137.9 48.75
Q 137.95 49.2 137.45 49.15
L 134.8 49.15
M 137.75 51.7
L 138.15 51.7 138.15 52.65 137.75 52.65 137.75 51.7
M 136.95 51.7
L 136.95 52.65 136.6 52.65 136.6 51.7 136.95 51.7
M 135.45 51.7
L 135.8 51.7 135.8 52.65 135.45 52.65 135.45 51.7
M 133.45 48.7
L 132.2 48.7
Q 132.1 49.2 132 49.65 131.95 49.65 131.9 49.65 131.7 49.65 131.55 49.65 132.25 48.65 132.75 46.9
L 131.35 46.9
Q 131.1 48.55 130.45 49.65
L 130.45 50.75
Q 131.1 50.75 131.55 50.75 131.2 51.5 130.6 52.2
L 130.6 53.4
Q 131.85 53.4 133.05 53.15
L 133.05 52.05
Q 132.4 52.15 132.95 52.1 132.2 52.2 131.85 52.2 133.15 50.85 133.45 48.7 Z"/>
</g>

<g id="Layer0_2_FILL">
<path fill="#FFFFFF" stroke="none" d="
M 33.5 30.6
Q 33.5 28.9 32.55 28.05 31.6 27.15 30.25 27.15 28.95 27.15 27.95 27.95 27 28.75 26.4 30.15 25.85 31.5 25.85 32.75 25.85 34.55 26.7 35.45 27.55 36.4 28.95 36.4 30.35 36.4 31.35 35.6 32.35 34.8 32.95 33.4 33.5 32 33.5 30.6
M 30.9 29.2
Q 31.15 29.5 31.15 30.05 31.15 30.8 30.9 32.05 30.65 33.25 30.25 34 29.75 34.75 29.2 34.75 28.25 34.75 28.25 33.4 28.25 32.65 28.5 31.5 28.7 30.3 29.15 29.55 29.6 28.85 30.2 28.85 30.65 28.85 30.9 29.2
M 39.15 29.05
Q 39.15 28.15 38.6 27.65 38 27.15 37.05 27.15 35.8 27.15 35.15 28 34.45 28.8 34.45 29.95 34.45 30.85 35 31.35 35.5 31.85 36.5 31.85 37.75 31.85 38.45 31 39.15 30.15 39.15 29.05
M 37.45 28.3
Q 37.6 28.45 37.6 28.75 37.6 29.5 37.3 30.15 37.05 30.85 36.5 30.85 36.3 30.85 36.1 30.7 36 30.5 36 30.2 36 29.95 36.15 29.3 36.3 28.6 36.55 28.4 36.8 28.2 37.05 28.2 37.25 28.2 37.45 28.3
M 19.7 33.6
L 17.3 33.9
Q 17.4 35.05 18.25 35.7 19.15 36.4 20.7 36.4 22.2 36.4 23 35.9 23.8 35.35 24.2 34.75 24.55 34.15 24.55 33.5 24.55 32.25 23.35 31.65 25.05 30.9 25.05 29.45 25.05 28.55 24.25 27.85 23.5 27.15 22 27.15 20.55 27.15 19.65 27.7 18.75 28.25 18.35 29.45
L 20.6 29.9
Q 20.85 28.7 21.75 28.7 22.65 28.7 22.65 29.55 22.65 30.9 21.15 30.9
L 20.95 30.9 20.65 32.5
Q 21 32.45 21.15 32.45 21.6 32.45 21.9 32.75 22.2 33.1 22.2 33.55 22.2 34.05 21.8 34.45 21.5 34.85 20.95 34.85 19.9 34.85 19.7 33.6
M 45.35 33.9
Q 45.35 33 44.8 32.55 44.2 32.05 43.25 32.05 42.05 32.05 41.35 32.85 40.6 33.65 40.6 34.8 40.6 35.7 41.15 36.2 41.75 36.7 42.65 36.7 43.95 36.7 44.65 35.9 45.35 35.05 45.35 33.9
M 43.65 33.2
Q 43.8 33.3 43.8 33.6 43.8 34.35 43.5 35.05 43.2 35.7 42.7 35.7 42.45 35.7 42.3 35.55 42.2 35.4 42.2 35.05 42.2 34.8 42.3 34.15 42.5 33.5 42.7 33.3 43 33.05 43.3 33.05 43.45 33.05 43.65 33.2
M 44.45 27.15
L 43.05 27.15 35.35 36.7 36.7 36.7 44.45 27.15 Z"/>
</g>

<g id="Layer0_2_MEMBER_0_FILL">
<path fill="#FFFFFF" stroke="none" d="
M 149.4 29.05
L 146.95 29.05 146.95 30.2 147.65 30.2 147.65 35.2
Q 149.25 34.65 150.65 33.7
L 150.65 32.35
Q 150.55 32.4 150.35 32.5 149.75 32.9 149.4 33
L 149.4 29.05
M 149 26.35
L 147.5 26.35
Q 147.95 27.45 148.15 28.35
L 149.75 28.35
Q 149.5 27.2 149 26.35
M 153.9 26.25
L 152.1 26.25 152.1 29 150 29 150 30.15 152.1 30.15 152.1 35.25 153.9 35.25 153.9 30.15 156.05 30.15 156.05 29 153.9 29 153.9 26.25
M 140 31.45
Q 140.65 32.7 141.55 33.5 141 33.85 139.55 34.3
L 139.55 35.3
Q 141.55 34.8 142.75 34.3 143.95 34.85 145.95 35.25
L 145.95 34.3
Q 144.65 33.85 143.95 33.5 145 32.6 145.6 31.05
L 145.6 29.95 139.95 29.95 139.95 31.1 143.8 31.1
Q 143.15 32.2 142.75 32.6 142.25 32.1 141.75 31.45
L 140 31.45
M 140.5 27.85
Q 140.6 28.7 139.65 28.95
L 139.65 29.8
Q 142.2 29.65 142.1 27.95
L 142.1 27.6 143.45 27.6 143.45 28.35
Q 143.35 29.65 144.6 29.55
L 146 29.55 146 28.5 145.4 28.5
Q 144.95 28.55 144.95 28.15
L 144.95 26.55 140.5 26.55 140.5 27.85
M 136.9 30.05
L 137.6 30.05 137.6 35
Q 139.4 34.35 140.2 33.65
L 140.2 32.4
Q 139.9 32.6 139.45 32.8 139.3 32.85 139.2 32.9
L 139.2 28.95 136.9 28.95 136.9 30.05
M 138.65 26.35
L 137.15 26.35
Q 137.65 27.35 137.8 28.3
L 139.4 28.3
Q 139.15 27.25 138.65 26.35 Z"/>
</g>

<g id="Layer0_3_MEMBER_0_FILL">
<path fill="#FFFFFF" stroke="none" d="
M 136.8 70.65
Q 138 70.65 138 69.2
L 138 65.6 133.15 65.6 133.15 70.65 136.8 70.65
M 136.7 66.6
L 136.7 67.6 136.2 67.6 136.2 66.6 136.7 66.6
M 134.95 66.6
L 134.95 67.6 134.45 67.6 134.45 66.6 134.95 66.6
M 136.2 69.6
L 136.2 68.6 136.7 68.6 136.7 69.15
Q 136.7 69.6 136.3 69.6
L 136.2 69.6
M 134.45 69.6
L 134.45 68.6 134.95 68.6 134.95 69.6 134.45 69.6
M 131.35 65.8
L 131.35 72.25 138.35 72.25
Q 139.9 72.3 139.8 70.9
L 139.8 65.9 138.35 65.9 138.35 70.6
Q 138.4 71.2 137.8 71.2
L 132.8 71.2 132.8 65.8 131.35 65.8
M 131.1 64
L 131.1 65.15 140.05 65.15 140.05 64 131.1 64
M 121.45 64.1
L 121.45 65.2 125.1 65.2 125.1 64.1 121.45 64.1
M 121.05 70.3
L 121.05 71.55
Q 122.9 71.55 124.15 71.35 124.15 71.55 124.2 71.65
L 125.2 71.65 125.2 72.65
Q 126.65 71.4 127.05 70.1 127.6 68.75 127.6 65.85
L 128.35 65.85 128.35 71
Q 128.35 71.4 127.95 71.4
L 127.4 71.4 127.4 72.45 128.5 72.45
Q 129.95 72.45 129.95 71
L 129.95 64.8 127.65 64.8 127.65 63.55 126.1 63.55 126.1 64.8 125.45 64.8 125.45 65.85 126.1 65.85
Q 126.1 69.55 125.4 70.85 125.1 69.6 124.75 68.5
L 123.5 68.5
Q 123.55 68.65 123.65 68.95 123.85 69.85 123.95 70.25 123.3 70.3 122.45 70.3 123.3 69.25 123.7 67.55
L 125.4 67.55 125.4 66.45 121 66.45 121 67.55 122.05 67.55
Q 121.85 68.9 121.05 70.3 Z"/>
</g>

<g id="Layer0_3_MEMBER_1_FILL">
<path fill="#FFFFFF" stroke="none" d="
M 59.7 66.4
Q 59.7 65.5 59.15 65.05 58.6 64.55 57.65 64.55 56.4 64.55 55.7 65.35 55 66.15 55 67.3 55 68.2 55.6 68.7 56.1 69.2 57.05 69.2 58.35 69.2 59.05 68.4 59.7 67.5 59.7 66.4
M 58.2 66.1
Q 58.2 66.85 57.9 67.5 57.6 68.2 57.05 68.2 56.85 68.2 56.7 68.05 56.55 67.9 56.55 67.55 56.55 67.3 56.75 66.65 56.85 66 57.15 65.8 57.4 65.55 57.65 65.55 57.85 65.55 58 65.7 58.2 65.8 58.2 66.1
M 48.55 65.3
Q 47.55 66.1 47 67.5 46.45 68.85 46.45 70.1 46.45 71.9 47.3 72.8 48.15 73.75 49.55 73.75 50.9 73.75 51.95 72.95 52.95 72.15 53.55 70.8 54.1 69.35 54.1 67.95 54.1 66.25 53.15 65.4 52.15 64.55 50.8 64.55 49.55 64.55 48.55 65.3
M 48.85 70.8
L 48.85 70.75
Q 48.85 70 49.1 68.85 49.3 67.65 49.75 66.95 50.2 66.2 50.8 66.2 51.25 66.2 51.45 66.55 51.75 66.85 51.75 67.4 51.75 68.2 51.45 69.4 51.25 70.6 50.8 71.35 50.35 72.1 49.8 72.1 48.85 72.1 48.85 70.8
M 65.35 69.9
Q 64.8 69.4 63.85 69.4 62.6 69.4 61.9 70.2 61.2 71 61.2 72.15 61.2 73.1 61.75 73.55 62.3 74.05 63.25 74.05 64.55 74.05 65.25 73.25 65.95 72.4 65.95 71.25 65.95 70.4 65.35 69.9
M 63.3 70.65
Q 63.55 70.4 63.85 70.4 64.05 70.4 64.2 70.55 64.4 70.7 64.4 70.95 64.4 71.75 64.1 72.4 63.8 73.1 63.25 73.1 63.05 73.1 62.9 72.9 62.8 72.75 62.8 72.4 62.8 72.15 62.9 71.5 63.05 70.85 63.3 70.65
M 65.05 64.55
L 63.65 64.55 55.9 74.05 57.3 74.05 65.05 64.55
M 39.9 64.7
L 38.6 69.35 40.85 69.7
Q 41.4 69.1 42.1 69.1 43.05 69.1 43.05 70.25 43.05 71.05 42.6 71.65 42.15 72.2 41.5 72.2 41 72.2 40.7 71.9 40.4 71.55 40.4 70.95
L 40.4 70.9 37.95 71.2
Q 38.15 72.55 38.9 73.15 39.65 73.75 41.15 73.75 42.75 73.75 43.7 73.2 44.6 72.6 45.05 71.85 45.45 71.05 45.45 70.05 45.45 68.85 44.75 68.2 44.1 67.6 43 67.6 42.65 67.6 42.25 67.7 41.95 67.75 41.25 68
L 41.7 66.55 45.5 66.55 45.9 64.7 39.9 64.7 Z"/>
</g>
</defs>

<g transform="matrix( 1, 0, 0, 1, 0,0) ">
<use xlink:href="#Layer1_0_FILL"/>
</g>

<g transform="matrix( 1, 0, 0, 1, 0,0) ">
<use xlink:href="#Layer0_0_FILL"/>
</g>

<g transform="matrix( 1, 0, 0, 1, -68.7,-22.65) ">
<use xlink:href="#Layer0_1_FILL"/>
</g>

<g transform="matrix( 1, 0, 0, 1, 3.75,2.9) ">
<use xlink:href="#Layer0_2_FILL"/>
</g>

<g transform="matrix( 1.4438629150390625, 0, 0, 1.4438629150390625, -176.2,-22.75) ">
<use xlink:href="#Layer0_2_MEMBER_0_FILL"/>
</g>

<g transform="matrix( 1.469818115234375, 0, 0, 1.469818115234375, -145.85,-40.85) ">
<use xlink:href="#Layer0_3_MEMBER_0_FILL"/>
</g>

<g transform="matrix( 1, 0, 0, 1, -5.95,3.45) ">
<use xlink:href="#Layer0_3_MEMBER_1_FILL"/>
</g>
</svg>
