
<svg xmlns="http://www.w3.org/2000/svg" version="1.1" xmlns:xlink="http://www.w3.org/1999/xlink" preserveAspectRatio="none" x="0px" y="0px" width="93px" height="93px" viewBox="0 0 93 93">
<defs>
<g id="Layer1_0_FILL">
<path fill="#FFFFFF" stroke="none" d="
M 92.8 48.4
Q 92.85 47.45 92.85 46.5 92.85 45.55 92.8 44.65 92.8 44.4 92.8 44.2 92 26.5 79.25 13.7 65.7 0.2 46.5 0.2 27.3 0.2 13.7 13.7 0.15 27.3 0.15 46.5 0.15 61.35 8.25 72.75 9.85 75 11.7 77.1 12.65 78.2 13.7 79.25 27.3 92.85 46.5 92.85 65.7 92.85 79.25 79.25 80.3 78.2 81.25 77.1 83.2 75 84.75 72.75 92.3 62.05 92.8 48.4
M 83.2 26.9
L 85.1 31.1
Q 88 38.1 88.1 45.5
L 88.1 46.35
Q 88.1 46.4 88.1 46.5
L 87.7 51.85
Q 87.5 53.2 87.25 54.55 87.1 55.25 86.95 55.9
L 86.85 56.25
Q 86.651953125 56.9826171875 86.45 57.75
L 86.45 57.85 86.35 58.15
Q 86.3 58.25 86.3 58.3 86.15 58.8 85.95 59.3 83.75 66.4 79.45 71.9
L 73.3 78.3 71.85 79.45
Q 71.5 79.7 71.1 80
L 70.95 80.15
Q 70.65 80.3 70.35 80.5 69.85 80.85 69.4 81.2
L 67.9 82.1
Q 67.55 82.3 67.25 82.45 66.85 82.7 66.45 82.9
L 64.85 83.75
Q 57.7 87.3 50.15 87.95
L 41.4 87.75
Q 40.05 87.55 38.7 87.3
L 36.7 86.85
Q 36.2 86.75 35.75 86.6 30.35 85.1 25.75 82.5 24.15 81.65 22.7 80.6 20.8 79.3 19.1 77.75
L 17.95 76.7 13.95 72.35
Q 11.4 69.15 9.55 65.35
L 9.25 64.7
Q 5.4 57 4.95 48.85 4.85 47.6 4.85 46.4 4.85 40.15 6.9 34 7 33.7 7.1 33.45 7.35 32.65 7.65 31.9 7.75 31.55 7.9 31.2 9.2 27.85 10.95 24.9
L 13.4 21.25 17.7 16.5
Q 19.95 14.2 22.65 12.35 26 10.1 29.85 8.45 33.6 6.7 37.55 5.85
L 45.8 4.85
Q 54.2 4.6 62.45 8.15
L 65.75 9.65
Q 66.55 10.05 67.35 10.45 68.95 11.4 70.45 12.4 70.95 12.75 71.45 13.15
L 72.45 13.9 77.95 19.2
Q 80.95 22.7 83.2 26.9 Z"/>

<path fill="#1A7D8D" stroke="none" d="
M 85.1 31.1
L 83.2 26.9
Q 82.85 26.35 82.5 25.75
L 82.45 25.75
Q 80.4 22.2 77.95 19.2
L 72.45 13.9 71.45 13.15
Q 70.95 12.75 70.45 12.4 68.95 11.4 67.35 10.45 66.55 10.05 65.75 9.65
L 62.45 8.15
Q 59.95 7.15 57.25 6.4 56.3 6.15 55.4 5.95 50.55 4.85 45.8 4.85
L 37.55 5.85
Q 33.6 6.7 29.85 8.45 27.8 9.4 25.8 10.55 21.25 13.15 17.7 16.5
L 13.4 21.25 10.95 24.9
Q 9.2 27.85 7.9 31.2 7.75 31.55 7.65 31.9 7.35 32.65 7.1 33.45 7 33.7 6.9 34 6.65 34.85 6.4 35.75 4.95 41.2 4.9 46.5 4.9 47.65 4.95 48.85 5.4 57 9.25 64.7
L 9.55 65.35
Q 10.05 66.3 10.6 67.25 12.15 69.95 13.95 72.35
L 17.95 76.7 19.1 77.75
Q 20.8 79.3 22.7 80.6 24.15 81.65 25.75 82.5 30.35 85.1 35.75 86.6 36.2 86.75 36.7 86.85
L 38.7 87.3
Q 40.05 87.55 41.4 87.75
L 50.15 87.95
Q 57.7 87.3 64.85 83.75
L 66.45 82.9
Q 66.85 82.7 67.25 82.45 67.55 82.3 67.9 82.1
L 69.4 81.2
Q 69.85 80.85 70.35 80.5 70.65 80.3 70.95 80.15
L 71.1 80
Q 71.5 79.7 71.85 79.45
L 73.3 78.3 79.45 71.9
Q 83.75 66.4 85.95 59.3 86.15 58.8 86.3 58.3 86.3 58.25 86.35 58.15
L 86.45 57.85 86.45 57.75
Q 86.5 57.5 86.55 57.25 86.7 56.7625 86.85 56.25
L 86.95 55.9
Q 87.1 55.25 87.25 54.55 87.5 53.2 87.7 51.85
L 88.1 46.5
Q 88.1 46.4 88.1 46.35
L 88.1 45.5
Q 88 38.1 85.1 31.1 Z"/>
</g>

<g id="Layer0_0_FILL">
<path fill="#FFFFFF" stroke="none" d="
M 66 60.1
L 66 59 57.6 59 57.6 64.25
Q 57.65 66.05 57 66.6
L 57 67.6
Q 59.45 66.6 59.35 64
L 59.35 60.1 66 60.1
M 60.9 60.5
L 60.9 61.5 59.65 61.5 59.65 62.65 60.9 62.65 60.9 62.75
Q 60.95 65.45 59.5 66.55
L 59.5 67.6
Q 62.7 66.35 62.6 62.65
L 64 62.65 64 65.8
Q 64.05 66.35 63.5 66.3
L 62.85 66.3 62.85 67.4 64.05 67.4
Q 65.7 67.4 65.65 65.95
L 65.65 61.5 62.6 61.5 62.6 60.5 60.9 60.5
M 50.3 66.5
L 49.5 66.5 49.5 67.55 51.05 67.55
Q 52.65 67.55 52.65 65.9
L 52.65 65.15 55.95 65.15 55.95 64.05 52.65 64.05 52.65 64
Q 53.75 63.65 54.8 62.95
L 54.8 61.75 48.3 61.75 48.3 62.9 52.4 62.9
Q 51.55 63.5 50.8 63.75
L 50.8 64.05 47.1 64.05 47.1 65.15 50.8 65.15 50.8 66
Q 50.85 66.5 50.3 66.5
M 47.8 58.55
Q 48 59 48.2 59.6
L 49.8 59.6
Q 49.65 59.1 49.35 58.55
L 47.8 58.55
M 52.4 59.6
Q 52.15 58.95 51.95 58.55
L 50.35 58.55
Q 50.6 59 50.8 59.6
L 52.4 59.6
M 54.55 59.9
Q 54.95 59.35 55.25 58.55
L 53.55 58.55
Q 53.4 59.2 53 59.9
L 47.2 59.9 47.2 61.55 48.75 61.55 48.75 60.95 54.25 60.95 54.25 61.55 55.8 61.55 55.8 59.9 54.55 59.9
M 43.1 63.65
L 43.1 62.15
Q 42.15 61.65 40.9 61.55
L 40.9 62.75
Q 42.15 63 43.1 63.65
M 45.15 58.6
L 43.55 58.6 43.55 64.25 40.8 64.25 40.8 65.4 43.55 65.4 43.55 67.55 45.15 67.55 45.15 65.4 46.05 65.4 46.05 64.25 45.15 64.25 45.15 58.6
M 43.35 59.75
Q 42.4 59.3 41.15 59.25
L 41.15 60.45
Q 42.25 60.6 43.35 61.15
L 43.35 59.75
M 39.7 61
L 39.7 60
Q 40.2 59.9 40.6 59.85 40.7 59.8 40.8 59.8
L 40.8 58.65
Q 39.75 58.9 39.1 58.9
L 37.1 58.9 37.1 60 38.15 60 38.15 61 37 61 37 62.05 38.1 62.05
Q 37.7 63.45 36.9 64.75
L 36.9 66.2
Q 37.7 65.45 38.15 64.65
L 38.15 67.5 39.7 67.5 39.7 64.2
Q 40.1 64.7 40.6 65.25
L 40.6 63.75
Q 40.05 63 39.7 62.15
L 39.7 62.05 40.7 62.05 40.7 61 39.7 61
M 32.35 61
L 32.65 61
Q 32.75 64.4 36 66.35
L 36 65.15
Q 34.45 63.5 34.25 61
L 35.75 61 35.75 59.8 32.35 59.8 32.35 58.55 30.6 58.55 30.6 59.8 27.3 59.8 27.3 61 28.75 61
Q 28.55 63.5 27 65.15
L 27 66.35
Q 30.25 64.4 30.35 61
L 30.6 61 30.6 64.9 29.1 64.9 29.1 66.05 30.6 66.05 30.6 67.55 32.35 67.55 32.35 66.05 33.9 66.05 33.9 64.9 32.35 64.9 32.35 61
M 71.95 45.05
L 72.6 45.05 72.6 50.1
Q 74.2 49.55 75.15 48.8
L 75.15 47.5
Q 74.6 47.85 74.2 48.05
L 74.2 43.95 71.95 43.95 71.95 45.05
M 73.7 41.35
L 72.2 41.35
Q 72.7 42.35 72.85 43.3
L 74.45 43.3
Q 74.2 42.25 73.7 41.35
M 81.1 44.9
L 81.1 43.85
Q 79.6 42.95 78.7 41.25
L 76.95 41.25
Q 76.25 42.95 74.5 43.85
L 74.5 44.9
Q 74.65 44.85 74.85 44.75 75.25 44.6 75.45 44.55
L 75.45 48.55
Q 75.4 50.05 76.9 50
L 79.4 50
Q 80.75 50.1 80.7 48.75
L 80.7 47.95 79.35 47.95 79.35 48.45
Q 79.4 49.05 78.9 49
L 77.7 49
Q 77.05 49.05 77.1 48.3
L 77.1 47.5
Q 79.8 47.05 80.65 44.85
L 79 44.85
Q 78.4 46 77.1 46.4
L 77.1 44.5 75.65 44.5
Q 76.95 43.95 77.85 42.95 79.1 44.3 81.1 44.9
M 62.1 42.75
L 62.8 42.75 62.8 44.7 62.15 44.7 62.15 45.8 62.8 45.8 62.8 48.3
Q 62.65 48.3 62.45 48.3 62.15 48.35 62 48.35
L 62 49.6
Q 63.45 49.4 64.75 49.05
L 64.75 49.95 71.1 49.95 71.1 48.9 68.75 48.9 68.75 48.15 70.75 48.15 70.75 47.05 68.75 47.05 68.75 46.4 69.4 46.4
Q 70.8 46.45 70.75 45.05
L 70.75 41.55 65.15 41.55 65.15 46.4 67.15 46.4 67.15 47.05 65.15 47.05 65.15 48.15 67.15 48.15 67.15 48.9 65 48.9 65 47.9
Q 64.85 47.9 64.65 47.95 64.45 48 64.3 48.05
L 64.3 45.8 64.9 45.8 64.9 44.7 64.3 44.7 64.3 42.75 64.95 42.75 64.95 41.65 62.1 41.65 62.1 42.75
M 66.6 42.65
L 67.15 42.65 67.15 43.4 66.6 43.4 66.6 42.65
M 68.75 42.65
L 69.35 42.65 69.35 43.4 68.75 43.4 68.75 42.65
M 68.8 45.3
L 68.75 45.3 68.75 44.5 69.35 44.5 69.35 44.8
Q 69.35 45.3 68.8 45.3
M 66.6 44.5
L 67.15 44.5 67.15 45.3 66.6 45.3 66.6 44.5
M 52 45.2
L 52.7 45.2 52.7 50.2
Q 54.3 49.65 55.7 48.7
L 55.7 47.35
Q 55.6 47.4 55.4 47.5 54.8 47.9 54.45 48
L 54.45 44.05 52 44.05 52 45.2
M 54.05 41.35
L 52.55 41.35
Q 53 42.45 53.2 43.35
L 54.8 43.35
Q 54.55 42.2 54.05 41.35
M 58.95 41.25
L 57.15 41.25 57.15 44 55.05 44 55.05 45.15 57.15 45.15 57.15 50.25 58.95 50.25 58.95 45.15 61.1 45.15 61.1 44 58.95 44 58.95 41.25
M 41.95 45.05
L 42.65 45.05 42.65 50
Q 44.45 49.35 45.25 48.65
L 45.25 47.4
Q 44.95 47.6 44.5 47.8 44.35 47.85 44.25 47.9
L 44.25 43.95 41.95 43.95 41.95 45.05
M 45 44.95
L 45 46.1 48.85 46.1
Q 48.2 47.2 47.8 47.6 47.3 47.1 46.8 46.45
L 45.05 46.45
Q 45.7 47.7 46.6 48.5 46.05 48.85 44.6 49.3
L 44.6 50.3
Q 46.6 49.8 47.8 49.3 49 49.85 51 50.25
L 51 49.3
Q 49.7 48.85 49 48.5 50.05 47.6 50.65 46.05
L 50.65 44.95 45 44.95
M 43.7 41.35
L 42.2 41.35
Q 42.7 42.35 42.85 43.3
L 44.45 43.3
Q 44.2 42.25 43.7 41.35
M 50 43.15
L 50 41.55 45.55 41.55 45.55 42.85
Q 45.65 43.7 44.7 43.95
L 44.7 44.8
Q 47.25 44.65 47.15 42.95
L 47.15 42.6 48.5 42.6 48.5 43.35
Q 48.4 44.65 49.65 44.55
L 51.05 44.55 51.05 43.5 50.45 43.5
Q 50 43.55 50 43.15
M 36.2 42.5
L 36.2 41.35
Q 35.35 41.55 34.5 41.55
L 32.15 41.55 32.15 42.7 33.4 42.7 33.4 43.65 32.05 43.65 32.05 44.75 33.4 44.75
Q 32.9 46.25 31.95 47.55
L 31.95 49
Q 32.85 48.3 33.4 47.45
L 33.4 50.2 34.95 50.2 34.95 46.9
Q 35.4 47.45 36.1 47.95
L 36.1 46.6
Q 35.35 45.75 35 44.75
L 36.25 44.75 36.25 43.65 34.95 43.65 34.95 42.7
Q 35.5 42.65 36.2 42.5
M 40.7 48.3
L 40.7 41.95 36.55 41.95 36.55 49.6 39.3 49.6
Q 40.7 49.65 40.7 48.3
M 38.1 43.05
L 39.1 43.05 39.1 48.15
Q 39.1 48.6 38.75 48.6
L 38.1 48.6 38.1 43.05
M 29.9 42.65
L 29.9 41.6 28.3 41.6 28.3 42.65 27.35 42.65 27.35 41.25 25.6 41.25 25.6 42.65 22.3 42.65 22.3 43.8 23.75 43.8
Q 23.5 46.65 22.05 48.15
L 22.05 49.4
Q 25.2 47.5 25.35 43.8
L 25.6 43.8 25.6 50.3 27.35 50.3 27.35 43.8 27.65 43.8
Q 27.8 47.5 30.95 49.4
L 30.95 48.15
Q 29.45 46.55 29.25 43.8
L 30.75 43.8 30.75 42.65 29.9 42.65
M 12.65 44.35
L 12.65 45.5 17 45.5 12.8 48.65
Q 11.85 49.7 13.15 50.1
L 19.45 50.1
Q 20.9 50.1 20.9 48.7
L 20.9 47.95 19.45 47.95 19.45 48.45
Q 19.45 49 18.95 49
L 15.55 49
Q 15.4 49 15.35 48.85 15.35 48.75 15.5 48.7
L 20.1 45.5 20.1 44.35 12.65 44.35
M 15.5 42.05
L 15.5 41.2 13.8 41.2 13.8 42.05 11.95 42.05 11.95 43.15 13.8 43.15 13.8 43.95 15.5 43.95 15.5 43.15 17.55 43.15 17.55 43.95 19.2 43.95 19.2 43.15 21.05 43.15 21.05 42.05 19.2 42.05 19.2 41.2 17.55 41.2 17.55 42.05 15.5 42.05
M 53.25 29.8
L 53.25 28.65
Q 50.15 29.8 47.4 30.05
L 47.4 31.75
Q 50.7 31.2 53.25 29.8
M 52.05 28.4
L 52.05 26.85
Q 50.45 26.45 48.2 26.4
L 48.2 27.6
Q 50.1 27.8 52.05 28.4
M 55.6 24.4
L 47.4 24.4 47.4 25.6 53.75 25.6 53.75 31.2
Q 53.8 31.75 53.15 31.75
L 52.35 31.75 52.35 32.85 54.1 32.85
Q 55.6 32.8 55.6 31.25
L 55.6 24.4
M 39.35 23.95
L 37.8 23.95
Q 38 24.4 38.2 25
L 39.8 25
Q 39.65 24.5 39.35 23.95
M 40.8 25
L 42.4 25
Q 42.15 24.35 41.95 23.95
L 40.35 23.95
Q 40.6 24.4 40.8 25
M 45.95 30.55
L 45.95 29.45 42.65 29.45 42.65 29.4
Q 43.75 29.05 44.8 28.35
L 44.8 27.15 38.3 27.15 38.3 28.3 42.4 28.3
Q 41.55 28.9 40.8 29.15
L 40.8 29.45 37.1 29.45 37.1 30.55 40.8 30.55 40.8 31.4
Q 40.85 31.9 40.3 31.9
L 39.5 31.9 39.5 32.95 41.05 32.95
Q 42.65 32.95 42.65 31.3
L 42.65 30.55 45.95 30.55
M 45.25 23.95
L 43.55 23.95
Q 43.4 24.6 43 25.3
L 37.2 25.3 37.2 26.95 38.75 26.95 38.75 26.35 44.25 26.35 44.25 26.95 45.8 26.95 45.8 25.3 44.55 25.3
Q 44.95 24.75 45.25 23.95 Z"/>
</g>
</defs>

<g transform="matrix( 1, 0, 0, 1, 0,0) ">
<use xlink:href="#Layer1_0_FILL"/>
</g>

<g transform="matrix( 1, 0, 0, 1, 0,0) ">
<use xlink:href="#Layer0_0_FILL"/>
</g>
</svg>
