
<svg xmlns="http://www.w3.org/2000/svg" version="1.1" xmlns:xlink="http://www.w3.org/1999/xlink" preserveAspectRatio="none" x="0px" y="0px" width="100px" height="30px" viewBox="0 0 100 30">
<defs>
<g id="Layer1_0_FILL">
<path fill="#A12C2C" stroke="none" d="
M 85.7 29.35
Q 91.6 29.35 95.8 25.15 100 20.95 100 15.05 100 9.15 95.8 4.9 91.6 0.7 85.7 0.7
L 14.35 0.7
Q 8.4 0.7 4.2 4.9 0 9.15 0 15.05 0 20.95 4.2 25.15 8.4 29.35 14.35 29.35
L 85.7 29.35 Z"/>
</g>

<g id="Layer0_0_FILL">
<path fill="#FFFFFF" stroke="none" d="
M 11.95 23.8
L 15.15 23.8 15.15 13.35 11.95 13.35 11.95 23.8
M 15 10.05
L 12.2 10.05
Q 12.8 11.4 12.95 12.85
L 16 12.85
Q 15.7 11.15 15 10.05
M 11.1 10.3
Q 13.9 9.75 15 8.35
L 15.25 8.35
Q 15.3 8.65 15.45 9.25 15.55 9.8 15.65 10.15
L 18.45 10.15
Q 18.35 9.35 17.95 8.35
L 19.9 8.35 19.9 6.55 16.1 6.55
Q 16.25 6.25 16.35 5.75
L 13.15 5.75
Q 12.6 7.7 11.1 8.55
L 11.1 10.3
M 23.2 23.65
L 25.3 23.65
Q 28.35 23.8 28.2 20.9
L 28.2 10.6 16.55 10.6 16.55 12.7 25.1 12.7 25.1 20.7
Q 25.15 21.75 24.2 21.7
L 23.2 21.7 23.2 23.65
M 21.55 21.85
Q 24.05 22 24 19.45
L 24 13.75 16.1 13.75 16.1 21.85 21.55 21.85
M 21.15 15.6
L 21.15 16.85 18.9 16.85 18.9 15.6 21.15 15.6
M 21.15 19.25
Q 21.25 20.15 20.4 20.05
L 18.9 20.05 18.9 18.65 21.15 18.65 21.15 19.25
M 24.85 5.85
L 21.65 5.85
Q 21.1 7.7 19.45 8.8
L 19.45 10.3
Q 22.25 9.8 23.5 8.35
L 24.15 8.35
Q 24.45 9.05 24.55 10.05
L 27.35 10.05
Q 27.25 9.9 27.2 9.5 27.05 8.75 26.9 8.35
L 28.85 8.35 28.85 6.55 24.6 6.55
Q 24.75 6.15 24.85 5.85
M 35.65 10.35
Q 36.5 8.8 37.2 5.85
L 33.9 5.85
Q 33.05 10.3 30.85 11.7
L 30.85 13.65
Q 31 13.55 31.4 13.5 32.2 13.25 32.5 13.2
L 32.5 23.75 35.65 23.75 35.65 10.35
M 47.1 10.45
L 48.35 10.45 48.35 8.25 44 8.25 44 5.85 40.8 5.85 40.8 8.25 36.55 8.25 36.55 10.45 37.65 10.45
Q 37.8 16.05 36.1 19.5
L 36.1 22
Q 37.65 20.7 38.6 19.05
L 38.6 20.35 40.8 20.35 40.8 23.75 44 23.75 44 20.35 46.1 20.35 46.1 18.95
Q 47.05 20.45 48.75 22
L 48.75 19.5
Q 46.95 16.05 47.1 10.45
M 44 10.45
L 44.45 10.45
Q 44.4 15.9 45.8 18.35
L 44 18.35 44 10.45
M 40.8 10.45
L 40.8 18.35 39 18.35
Q 40.3 15.7 40.4 10.45
L 40.8 10.45
M 68.3 8.55
L 61.8 8.55 61.8 5.7 58.2 5.7 58.2 8.55 51.7 8.55 51.7 18.95 58.2 18.95 58.2 23.9 61.8 23.9 61.8 18.95 65.1 18.95
Q 68.45 19.2 68.3 15.3
L 68.3 8.55
M 61.8 10.85
L 65 10.85 65 15.35
Q 65.1 16.7 63.9 16.7
L 61.8 16.7 61.8 10.85
M 55 10.85
L 58.2 10.85 58.2 16.7 55 16.7 55 10.85
M 89 23.75
L 89 21.6
Q 84.45 20.35 82.2 18.8 85.45 15.9 86.9 10
L 89 10 89 7.65 82.05 7.65 82.05 5.85 77.95 5.85 77.95 7.65 71 7.65 71 10 73.05 10
Q 74.4 15.85 77.8 18.8 75.4 20.45 71 21.6
L 71 23.75
Q 76.9 22.3 80 20.5 83.15 22.3 89 23.75
M 80 17
Q 77.5 14.35 76.9 10
L 83.15 10
Q 82.5 14.35 80 17 Z"/>
</g>
</defs>

<g transform="matrix( 1, 0, 0, 1, 0,0) ">
<use xlink:href="#Layer1_0_FILL"/>
</g>

<g transform="matrix( 1, 0, 0, 1, 0,0) ">
<use xlink:href="#Layer0_0_FILL"/>
</g>
</svg>
