
<svg xmlns="http://www.w3.org/2000/svg" version="1.1" xmlns:xlink="http://www.w3.org/1999/xlink" preserveAspectRatio="none" x="0px" y="0px" width="100px" height="30px" viewBox="0 0 100 30">
<defs>
<g id="Layer1_0_FILL">
<path fill="#A12C2C" stroke="none" d="
M 85.7 29.35
Q 91.6 29.35 95.8 25.15 100 20.95 100 15.05 100 9.15 95.8 4.9 91.6 0.7 85.7 0.7
L 14.35 0.7
Q 8.4 0.7 4.2 4.9 0 9.15 0 15.05 0 20.95 4.2 25.15 8.4 29.35 14.35 29.35
L 85.7 29.35 Z"/>
</g>

<g id="Layer0_0_FILL">
<path fill="#FFFFFF" stroke="none" d="
M 24.8 10.4
L 25.45 7.35 13.75 7.35 10.7 21.65 23 21.65 23.7 18.4 15.8 18.4 16.4 15.6 23.4 15.6 24.05 12.7 17.05 12.7 17.55 10.4 24.8 10.4
M 36.7 11.8
Q 36 11.05 34.6 11.05 32.25 11.05 30.6 12.9
L 30.55 12.85 30.9 11.3 27.15 11.3 24.95 21.65 28.95 21.65 29.95 17.15
Q 30.25 15.6 30.9 14.8 31.55 13.95 32.45 13.95 33.25 13.95 33.25 14.8 33.25 15.05 32.85 16.85
L 31.85 21.65 35.8 21.65 37 16
Q 37.4 14.15 37.4 13.55 37.4 12.5 36.7 11.8
M 42.4 21.25
Q 44.15 21.25 45.45 19.9
L 45.5 19.95 45.15 21.5
Q 44.9 22.5 44.45 23 43.95 23.5 43.25 23.5 42.15 23.5 42.1 22.45
L 38.3 21.9
Q 38.3 22.05 38.3 22.35 38.3 23.45 39 24.35 39.7 25.25 40.65 25.55 41.65 25.85 43.4 25.85 45.95 25.85 47.3 24.9 48.6 23.95 49.2 21.05
L 51.3 11.3 47.6 11.3 47.3 12.75
Q 46.05 11.05 44.15 11.05 41.85 11.05 40.4 12.9 38.9 14.7 38.9 17.15 38.9 19 39.85 20.15 40.8 21.25 42.4 21.25
M 46 14.1
Q 46.4 14.5 46.4 15.15 46.4 16.2 45.85 17.4 45.3 18.6 44.2 18.6 43.55 18.6 43.2 18.2 42.8 17.75 42.8 17.05 42.8 15.75 43.45 14.75 44.15 13.7 45.05 13.7 45.6 13.7 46 14.1
M 59 7.35
L 55 7.35 51.95 21.65 55.95 21.65 59 7.35
M 64.8 11.3
L 60.8 11.3 58.6 21.65 62.6 21.65 64.8 11.3
M 65.65 7.35
L 61.65 7.35 61.1 10.05 65.1 10.05 65.65 7.35
M 75.3 11.65
Q 74.2 11.05 72.15 11.05 70.3 11.05 69.05 11.55 67.8 12.05 67.2 12.95 66.6 13.8 66.6 14.7 66.6 15.8 67.4 16.55 68.25 17.3 70.55 17.65 71.55 17.8 71.9 17.95 72.25 18.15 72.25 18.6 72.25 19.15 71.8 19.4 71.25 19.7 70.6 19.7 69.2 19.7 68.95 18.45
L 65.05 18.8
Q 65.2 20.45 66.4 21.15 67.55 21.9 70 21.9 73.05 21.9 74.55 20.75 76 19.65 76 18.05 76 16.85 75.25 16.2 74.5 15.5 72.2 15.15 70.8 14.95 70.45 14.7 70.15 14.45 70.15 14.1 70.15 13.75 70.5 13.5 70.85 13.25 71.6 13.25 72.8 13.25 73 14.15
L 76.7 13.75
Q 76.45 12.3 75.3 11.65
M 89.1 11.8
Q 88.4 11.05 87 11.05 84.8 11.05 83.35 12.55
L 83.3 12.5 84.4 7.35 80.45 7.35 77.35 21.65 81.35 21.65 82.35 17.15
Q 82.65 15.6 83.3 14.8 83.95 13.95 84.85 13.95 85.65 13.95 85.65 14.8 85.65 15.05 85.25 16.85
L 84.25 21.65 88.2 21.65 89.4 16
Q 89.8 14.15 89.8 13.55 89.8 12.5 89.1 11.8 Z"/>
</g>
</defs>

<g transform="matrix( 1, 0, 0, 1, 0,0) ">
<use xlink:href="#Layer1_0_FILL"/>
</g>

<g transform="matrix( 1, 0, 0, 1, 0,0) ">
<use xlink:href="#Layer0_0_FILL"/>
</g>
</svg>
