
<svg xmlns="http://www.w3.org/2000/svg" version="1.1" xmlns:xlink="http://www.w3.org/1999/xlink" preserveAspectRatio="none" x="0px" y="0px" width="471px" height="405px" viewBox="0 0 471 405">
<defs>
<g id="Layer0_0_MEMBER_0_FILL">
<path fill="#D9C87C" stroke="none" d="
M 487.55 218
Q 476.984765625 180.6369140625 420.25 152.9 375.65 130.3 318.95 122.8 312.45 121.8 305.9 121.3 302.4 124.3 285.85 126.8 265.8 129.8 236.7 129.8 207.6 129.8 187.05 126.8 179.5 125.8 175 124.3 124.85 132.8 84.2 152.9 27.9126953125 180.6369140625 17.4 218
L 487.55 218 Z"/>

<path fill="#B4A04A" stroke="none" d="
M 175 124.3
Q 179.5 125.8 187.05 126.8 207.6 129.8 236.7 129.8 265.8 129.8 285.85 126.8 302.4 124.3 305.9 121.3 280.35 118.25 252.75 118.25 217.15 118.25 185.55 122.8 180 123.3 175 124.3 Z"/>
</g>

<g id="Layer0_0_MEMBER_0_MEMBER_0_FILL">
<path fill="#FFFFFF" stroke="none" d="
M 2836.35 407.5
L 2836.35 403.6 2793.8 403.6 2790.3 432 2826.35 432 2826.35 417.85
Q 2826.35 417.7 2826.35 417.5 2826.35 413.35 2829.3 410.45 2832.2 407.5 2836.35 407.5
M 2807.2 293.9
L 2803.85 321.3 2836.35 321.3 2836.35 293.9 2807.2 293.9
M 2800.5 348.75
L 2797.15 376.15 2836.35 376.15 2836.35 348.75 2800.5 348.75
M 2836.35 266.45
L 2836.35 248.85 2812.7 248.85 2810.5 266.45 2836.35 266.45
M 2814.1 188.3
L 2814.1 193.2 2836.35 193.2 2836.35 188.3 2814.1 188.3 Z"/>

<path fill="#333333" stroke="none" d="
M 2843.4 410.45
Q 2840.5 407.5 2836.35 407.5 2832.2 407.5 2829.3 410.45 2826.35 413.35 2826.35 417.5 2826.35 417.7 2826.35 417.85
L 2826.35 432 2846.35 432 2846.35 417.85
Q 2846.35 417.7 2846.35 417.5 2846.35 413.35 2843.4 410.45 Z"/>

<path fill="#CCCCCC" stroke="none" d="
M 2882.35 432
L 2878.9 403.6 2836.35 403.6 2836.35 407.5
Q 2840.5 407.5 2843.4 410.45 2846.35 413.35 2846.35 417.5 2846.35 417.7 2846.35 417.85
L 2846.35 432 2882.35 432
M 2836.35 348.75
L 2836.35 376.15 2875.55 376.15 2872.25 348.75 2836.35 348.75
M 2836.35 248.85
L 2836.35 243.6 2813.3 243.6 2812.7 248.85 2836.35 248.85
M 2865.55 293.9
L 2836.35 293.9 2836.35 321.3 2868.9 321.3 2865.55 293.9
M 2836.35 248.85
L 2836.35 266.45 2862.25 266.45 2860.15 248.85 2836.35 248.85
M 2836.35 188.3
L 2836.35 193.2 2858.6 193.2 2858.6 188.3 2836.35 188.3 Z"/>

<path fill="#AF4B4B" stroke="none" d="
M 2836.35 376.15
L 2797.15 376.15 2793.8 403.6 2836.35 403.6 2836.35 376.15
M 2803.85 321.3
L 2800.5 348.75 2836.35 348.75 2836.35 321.3 2803.85 321.3
M 2836.35 293.9
L 2836.35 266.45 2810.5 266.45 2807.2 293.9 2836.35 293.9
M 2814.1 188.2
L 2814.1 188.3 2836.35 188.3 2836.35 165.4
Q 2827.25 165.4 2820.85 171.6 2820.7 171.75 2820.6 171.85 2819.95 172.5 2819.4 173.15 2814.1 179.3 2814.1 187.6 2814.1 187.85 2814.1 188.2 Z"/>

<path fill="#A12C2C" stroke="none" d="
M 2875.55 376.15
L 2836.35 376.15 2836.35 403.6 2878.9 403.6 2875.55 376.15
M 2868.9 321.3
L 2836.35 321.3 2836.35 348.75 2872.25 348.75 2868.9 321.3
M 2862.25 266.45
L 2836.35 266.45 2836.35 293.9 2865.55 293.9 2862.25 266.45
M 2837.35 165.45
Q 2836.85 165.4 2836.35 165.4
L 2836.35 188.3 2858.6 188.3 2858.6 188.2
Q 2858.6 187.85 2858.6 187.6 2858.6 186 2858.4 184.55 2857.6 178.1 2853.25 173.15 2852.65 172.5 2852.05 171.85 2851.9 171.75 2851.8 171.6 2845.75 165.75 2837.35 165.45 Z"/>

<path fill="#999999" stroke="none" d="
M 2859.45 243.6
L 2836.35 243.6 2836.35 248.85 2860.15 248.85 2859.45 243.6 Z"/>

<path fill="#5FC9FF" stroke="none" d="
M 2836.35 193.2
L 2814.1 193.2 2814.1 226 2836.35 226 2836.35 193.2 Z"/>

<path fill="#399FD2" stroke="none" d="
M 2858.6 193.2
L 2836.35 193.2 2836.35 226 2858.6 226 2858.6 193.2 Z"/>
</g>

<g id="Layer0_0_MEMBER_0_MEMBER_0_MEMBER_0_FILL">
<path fill="#AF4B4B" stroke="none" d="
M 2836.95 123.2
L 2836.95 136.75 2861.25 130 2836.95 123.2 Z"/>

<path fill="#FFFFFF" stroke="none" d="
M 2836.95 123.2
L 2836.95 123
Q 2836.95 122.75 2836.75 122.6 2836.6 122.4 2836.35 122.4 2836.1 122.4 2835.9 122.6 2835.7 122.75 2835.7 123
L 2835.7 165.1
Q 2835.7 165.35 2835.9 165.5 2836.1 165.7 2836.35 165.7 2836.6 165.7 2836.75 165.5 2836.95 165.35 2836.95 165.1
L 2836.95 136.75 2836.95 123.2 Z"/>
</g>

<g id="Layer0_0_MEMBER_0_MEMBER_0_MEMBER_1_FILL">
<path fill="#E2E276" stroke="none" d="
M 2847.85 201.45
Q 2847.7 201.2 2847.5 201
L 2828.4 220.15
Q 2828.55 220.3 2828.85 220.45 2831.05 221.95 2833.7 222.45 2835 222.75 2836.35 222.75 2842.05 222.75 2846.05 218.7 2848.5 216.3 2849.5 213.3 2850.1 211.3 2850.1 209 2850.1 207.6 2849.85 206.3 2849.3 203.65 2847.85 201.45
M 2837.3 195.3
Q 2836.75 195.3 2836.35 195.3 2835.55 195.3 2834.9 195.3 2830.2 195.75 2826.65 199.25 2823.15 202.8 2822.7 207.5 2822.6 208.25 2822.6 209 2822.6 209.45 2822.7 209.9 2822.7 210.9 2822.9 211.8 2823.05 212.6 2823.35 213.3
L 2823.35 213.4
Q 2823.35 213.45 2823.4 213.65
L 2841 196.05
Q 2840.8 195.95 2840.7 195.95 2839.95 195.7 2839.2 195.5 2838.25 195.3 2837.3 195.3 Z"/>

<path fill="#FFFFFF" stroke="none" d="
M 2843.75 197.4
Q 2842.45 196.55 2841 196.05
L 2823.4 213.65
Q 2823.9 215.05 2824.8 216.35 2825.1 216.95 2825.55 217.5 2825.9 217.8 2826.25 218.25 2826.4 218.45 2826.65 218.7 2827.55 219.55 2828.4 220.15
L 2847.5 201
Q 2846.95 200.15 2846.05 199.25 2845.8 199.05 2845.65 198.85 2845.2 198.5 2844.85 198.15 2844.35 197.75 2843.75 197.4 Z"/>
</g>

<g id="Layer0_0_MEMBER_0_MEMBER_0_MEMBER_2_FILL">
<path fill="#AF4B4B" stroke="none" d="
M 2836.35 226.55
L 2836.35 214.55 2833.95 214.55 2833.95 218.45 2828.35 218.45 2828.35 214.55 2823.85 214.55 2823.85 218.45 2818.3 218.45 2818.3 214.55 2813.8 214.55 2813.8 218.45 2808.25 218.45 2808.25 214.55 2803.95 214.55 2803.95 226.55 2806.55 226.55 2836.35 226.55
M 2836.35 245.45
L 2836.35 229.7 2806.55 229.7 2813.15 245.45 2836.35 245.45 Z"/>

<path fill="#A12C2C" stroke="none" d="
M 2836.35 229.7
L 2836.35 226.55 2806.55 226.55 2806.55 229.7 2836.35 229.7
M 2836.35 229.7
L 2836.35 245.45 2859.7 245.45 2866.2 229.7 2836.35 229.7
M 2868.75 214.55
L 2864.15 214.55 2864.15 218.45 2858.6 218.45 2858.6 214.55 2854.05 214.55 2854.05 218.45 2848.5 218.45 2848.5 214.55 2844 214.55 2844 218.45 2838.45 218.45 2838.45 214.55 2836.35 214.55 2836.35 226.55 2866.2 226.55 2868.75 226.55 2868.75 214.55 Z"/>

<path fill="#871B1B" stroke="none" d="
M 2836.35 226.55
L 2836.35 229.7 2866.2 229.7 2866.2 226.55 2836.35 226.55 Z"/>
</g>

<g id="Layer0_0_MEMBER_1_FILL">
<path fill="#B4A04A" stroke="none" d="
M 2947.85 452.45
Q 2951.05 453.2 2955.6 453.2 2960.15 453.2 2963.35 452.45 2966.55 451.75 2966.55 450.7 2966.55 449.65 2963.35 448.85 2960.15 448.15 2955.6 448.15 2951.05 448.15 2947.85 448.85 2944.65 449.65 2944.65 450.7 2944.65 451.75 2947.85 452.45 Z"/>
</g>

<g id="Layer0_0_MEMBER_1_MEMBER_0_MEMBER_0_FILL">
<path fill="#FFFFFF" stroke="none" d="
M 2948.7 420.6
Q 2946.05 421.05 2944.5 422.1
L 2960.45 422.9 2948.7 420.6
M 2942.3 424.75
Q 2941.8 426.35 2942.5 428.15
L 2960.45 422.9 2942.3 424.75
M 2945.2 431.85
Q 2947.05 433.7 2949.65 435.15
L 2960.45 422.9 2945.2 431.85
M 2961.75 439.05
L 2960.45 422.9 2955.6 437.75
Q 2958.85 438.75 2961.75 439.05
M 2967.55 438.95
Q 2970.25 438.55 2971.85 437.55
L 2960.45 422.9 2967.55 438.95
M 2960.45 422.9
L 2960.7 421.85
Q 2957.45 420.85 2954.55 420.5
L 2960.45 422.9
M 2974 431.8
Q 2973.9 431.65 2973.85 431.45
L 2960.45 422.9 2974 434.8
Q 2974.45 433.35 2974 431.8
M 2971.1 427.7
Q 2969.25 425.9 2966.75 424.4
L 2960.45 422.9 2971.1 427.7 Z"/>

<path fill="#AF4B4B" stroke="none" d="
M 2942.5 428.15
Q 2943.1 429.9 2945.15 431.85
L 2945.2 431.85 2960.45 422.9 2942.5 428.15
M 2949.65 435.15
Q 2952.2 436.65 2955.45 437.7 2955.55 437.7 2955.6 437.75
L 2960.45 422.9 2949.65 435.15
M 2944.5 422.1
Q 2944.25 422.2 2944.05 422.35 2942.75 423.35 2942.3 424.75
L 2960.45 422.9 2944.5 422.1
M 2954.55 420.5
Q 2951.45 420.15 2948.7 420.6
L 2960.45 422.9 2954.55 420.5
M 2967.55 438.95
L 2960.45 422.9 2961.75 439.05
Q 2964.85 439.4 2967.55 438.95
M 2971.85 437.55
Q 2973.45 436.55 2974 434.8
L 2960.45 422.9 2971.85 437.55
M 2960.7 421.85
L 2960.45 422.9 2966.75 424.4
Q 2964.05 422.95 2960.7 421.85
M 2973.85 431.45
Q 2973.15 429.65 2971.15 427.75
L 2971.1 427.7 2960.45 422.9 2973.85 431.45 Z"/>
</g>

<g id="Layer0_0_MEMBER_2_FILL">
<path fill="#B4A04A" stroke="none" d="
M 2939.15 442.6
Q 2942.8 441.65 2942.8 440.4 2942.8 439.1 2939.15 438.15 2935.5 437.25 2930.3 437.25 2925.1 437.25 2921.45 438.15 2917.8 439.1 2917.8 440.4 2917.8 441.65 2921.45 442.6 2925.1 443.55 2930.3 443.55 2935.5 443.55 2939.15 442.6 Z"/>
</g>

<g id="Layer0_0_MEMBER_2_MEMBER_0_FILL">
<path fill="#3A3317" stroke="none" d="
M 2934 389.85
L 2925.5 389.85
Q 2928.55 396.55 2930 403.35 2933.35 419.25 2927.65 435.5 2926.7 438.15 2925.5 440.85
L 2934 440.85
Q 2934.4 438.15 2934.7 435.5 2936.55 419.25 2935.5 403.35 2935 396.55 2934 389.85 Z"/>
</g>

<g id="Layer0_0_MEMBER_2_MEMBER_1_MEMBER_0_FILL">
<path fill="#669900" stroke="none" d="
M 2932.35 392.75
Q 2931 390.9 2929.3 389.2 2921.35 381.25 2910.05 381.25 2898.75 381.25 2890.75 389.2 2889.05 390.9 2887.75 392.75
L 2932.35 392.75 Z"/>
</g>

<g id="Layer0_0_MEMBER_2_MEMBER_1_MEMBER_1_FILL">
<path fill="#7EA800" stroke="none" d="
M 2932.35 388.75
Q 2932.7 378.6 2925.8 371.2 2918.85 363.8 2908.75 363.35 2906.55 363.3 2904.55 363.55
L 2931.85 392.9
Q 2932.3 390.95 2932.35 388.75 Z"/>
</g>

<g id="Layer0_0_MEMBER_2_MEMBER_1_MEMBER_2_FILL">
<path fill="#597700" stroke="none" d="
M 2932.35 392.95
Q 2930.35 392.4 2928.2 392.15 2918.15 391.1 2910.25 397.5 2902.3 403.9 2901.2 413.95 2900.95 416.1 2901.1 418.15
L 2932.35 392.95 Z"/>
</g>

<g id="Layer0_0_MEMBER_2_MEMBER_1_MEMBER_3_FILL">
<path fill="#669900" stroke="none" d="
M 2953.4 381.25
Q 2942.1 381.25 2934.15 389.2 2932.45 390.9 2931.1 392.75
L 2975.7 392.75
Q 2974.4 390.9 2972.7 389.2 2964.7 381.25 2953.4 381.25 Z"/>
</g>

<g id="Layer0_0_MEMBER_2_MEMBER_1_MEMBER_4_FILL">
<path fill="#7EA800" stroke="none" d="
M 2937.65 371.2
Q 2930.75 378.6 2931.1 388.75 2931.15 390.95 2931.6 392.9
L 2958.9 363.55
Q 2956.9 363.3 2954.7 363.35 2944.6 363.8 2937.65 371.2 Z"/>
</g>

<g id="Layer0_0_MEMBER_2_MEMBER_1_MEMBER_5_FILL">
<path fill="#597700" stroke="none" d="
M 2935.25 392.15
Q 2933.1 392.4 2931.1 392.95
L 2962.35 418.15
Q 2962.5 416.1 2962.25 413.95 2961.15 403.9 2953.2 397.5 2945.3 391.1 2935.25 392.15 Z"/>
</g>

<g id="Layer0_0_MEMBER_2_MEMBER_2_MEMBER_0_FILL">
<path fill="#625834" stroke="none" d="
M 2922.4 389.35
Q 2920.8 390.95 2920.8 393.25 2920.8 395.55 2922.4 397.15 2924 398.75 2926.3 398.75 2928.6 398.75 2930.2 397.15 2931.8 395.55 2931.8 393.25 2931.8 390.95 2930.2 389.35 2928.6 387.75 2926.3 387.75 2924 387.75 2922.4 389.35 Z"/>
</g>

<g id="Layer0_0_MEMBER_2_MEMBER_2_MEMBER_1_FILL">
<path fill="#625834" stroke="none" d="
M 2933.4 389.35
Q 2931.8 390.95 2931.8 393.25 2931.8 395.55 2933.4 397.15 2935 398.75 2937.3 398.75 2939.6 398.75 2941.2 397.15 2942.8 395.55 2942.8 393.25 2942.8 390.95 2941.2 389.35 2939.6 387.75 2937.3 387.75 2935 387.75 2933.4 389.35 Z"/>
</g>

<g id="Layer0_0_MEMBER_3_FILL">
<path fill="#B4A04A" stroke="none" d="
M 2743.7 451.75
Q 2747.35 450.8 2747.35 449.55 2747.35 448.25 2743.7 447.3 2740.05 446.4 2734.85 446.4 2729.65 446.4 2726 447.3 2722.35 448.25 2722.35 449.55 2722.35 450.8 2726 451.75 2729.65 452.7 2734.85 452.7 2740.05 452.7 2743.7 451.75 Z"/>
</g>

<g id="Layer0_0_MEMBER_3_MEMBER_0_FILL">
<path fill="#3A3317" stroke="none" d="
M 2738.55 399
L 2730.05 399
Q 2733.1 405.7 2734.55 412.5 2737.9 428.4 2732.2 444.65 2731.25 447.3 2730.05 450
L 2738.55 450
Q 2738.95 447.3 2739.25 444.65 2741.1 428.4 2740.05 412.5 2739.55 405.7 2738.55 399 Z"/>
</g>

<g id="Layer0_0_MEMBER_3_MEMBER_1_MEMBER_0_FILL">
<path fill="#669900" stroke="none" d="
M 2736.9 401.9
Q 2735.55 400.05 2733.85 398.35 2725.9 390.4 2714.6 390.4 2703.3 390.4 2695.3 398.35 2693.6 400.05 2692.3 401.9
L 2736.9 401.9 Z"/>
</g>

<g id="Layer0_0_MEMBER_3_MEMBER_1_MEMBER_1_FILL">
<path fill="#7EA800" stroke="none" d="
M 2713.3 372.5
Q 2711.1 372.45 2709.1 372.7
L 2736.4 402.05
Q 2736.85 400.1 2736.9 397.9 2737.25 387.75 2730.35 380.35 2723.4 372.95 2713.3 372.5 Z"/>
</g>

<g id="Layer0_0_MEMBER_3_MEMBER_1_MEMBER_2_FILL">
<path fill="#597700" stroke="none" d="
M 2732.75 401.3
Q 2722.7 400.25 2714.8 406.65 2706.85 413.05 2705.75 423.1 2705.5 425.25 2705.65 427.3
L 2736.9 402.1
Q 2734.9 401.55 2732.75 401.3 Z"/>
</g>

<g id="Layer0_0_MEMBER_3_MEMBER_1_MEMBER_3_FILL">
<path fill="#669900" stroke="none" d="
M 2780.25 401.9
Q 2778.95 400.05 2777.25 398.35 2769.25 390.4 2757.95 390.4 2746.65 390.4 2738.7 398.35 2737 400.05 2735.65 401.9
L 2780.25 401.9 Z"/>
</g>

<g id="Layer0_0_MEMBER_3_MEMBER_1_MEMBER_4_FILL">
<path fill="#7EA800" stroke="none" d="
M 2763.45 372.7
Q 2761.45 372.45 2759.25 372.5 2749.15 372.95 2742.2 380.35 2735.3 387.75 2735.65 397.9 2735.7 400.1 2736.15 402.05
L 2763.45 372.7 Z"/>
</g>

<g id="Layer0_0_MEMBER_3_MEMBER_1_MEMBER_5_FILL">
<path fill="#597700" stroke="none" d="
M 2766.8 423.1
Q 2765.7 413.05 2757.75 406.65 2749.85 400.25 2739.8 401.3 2737.65 401.55 2735.65 402.1
L 2766.9 427.3
Q 2767.05 425.25 2766.8 423.1 Z"/>
</g>

<g id="Layer0_0_MEMBER_3_MEMBER_2_MEMBER_0_FILL">
<path fill="#625834" stroke="none" d="
M 2734.65 407.3
Q 2736.25 405.7 2736.25 403.4 2736.25 401.1 2734.65 399.5 2733.05 397.9 2730.75 397.9 2728.45 397.9 2726.85 399.5 2725.25 401.1 2725.25 403.4 2725.25 405.7 2726.85 407.3 2728.45 408.9 2730.75 408.9 2733.05 408.9 2734.65 407.3 Z"/>
</g>

<g id="Layer0_0_MEMBER_3_MEMBER_2_MEMBER_1_FILL">
<path fill="#625834" stroke="none" d="
M 2745.65 407.3
Q 2747.25 405.7 2747.25 403.4 2747.25 401.1 2745.65 399.5 2744.05 397.9 2741.75 397.9 2739.45 397.9 2737.85 399.5 2736.25 401.1 2736.25 403.4 2736.25 405.7 2737.85 407.3 2739.45 408.9 2741.75 408.9 2744.05 408.9 2745.65 407.3 Z"/>
</g>

<path id="Layer0_0_MEMBER_1_MEMBER_0_1_STROKES" stroke="#666666" stroke-width="2" stroke-linejoin="round" stroke-linecap="round" fill="none" d="
M 2957.6 432
L 2951.7 450.65"/>
</defs>

<g transform="matrix( 1, 0, 0, 1, -17.4,186.95) ">
<use xlink:href="#Layer0_0_MEMBER_0_FILL"/>
</g>

<g transform="matrix( 1, 0, 0, 1, -2611.3,-122.4) ">
<use xlink:href="#Layer0_0_MEMBER_0_MEMBER_0_FILL"/>
</g>

<g transform="matrix( 1, 0, 0, 1, -2611.3,-122.4) ">
<use xlink:href="#Layer0_0_MEMBER_0_MEMBER_0_MEMBER_0_FILL"/>
</g>

<g transform="matrix( 1, 0, 0, 1, -2611.3,-122.4) ">
<use xlink:href="#Layer0_0_MEMBER_0_MEMBER_0_MEMBER_1_FILL"/>
</g>

<g transform="matrix( 1, 0, 0, 1, -2611.3,-122.4) ">
<use xlink:href="#Layer0_0_MEMBER_0_MEMBER_0_MEMBER_2_FILL"/>
</g>

<g transform="matrix( 1, 0, 0, 1, -2611.3,-122.4) ">
<use xlink:href="#Layer0_0_MEMBER_1_FILL"/>
</g>

<g transform="matrix( 1, 0, 0, 1, -2611.3,-122.4) ">
<use xlink:href="#Layer0_0_MEMBER_1_MEMBER_0_1_STROKES"/>
</g>

<g transform="matrix( 1, 0, 0, 1, -2611.3,-122.4) ">
<use xlink:href="#Layer0_0_MEMBER_1_MEMBER_0_MEMBER_0_FILL"/>
</g>

<g transform="matrix( 1, 0, 0, 1, -2611.3,-122.4) ">
<use xlink:href="#Layer0_0_MEMBER_2_FILL"/>
</g>

<g transform="matrix( 1, 0, 0, 1, -2611.3,-122.4) ">
<use xlink:href="#Layer0_0_MEMBER_2_MEMBER_0_FILL"/>
</g>

<g transform="matrix( 1, 0, 0, 1, -2611.3,-122.4) ">
<use xlink:href="#Layer0_0_MEMBER_2_MEMBER_1_MEMBER_0_FILL"/>
</g>

<g transform="matrix( 1, 0, 0, 1, -2611.3,-122.4) ">
<use xlink:href="#Layer0_0_MEMBER_2_MEMBER_1_MEMBER_1_FILL"/>
</g>

<g transform="matrix( 1, 0, 0, 1, -2611.3,-122.4) ">
<use xlink:href="#Layer0_0_MEMBER_2_MEMBER_1_MEMBER_2_FILL"/>
</g>

<g transform="matrix( 1, 0, 0, 1, -2611.3,-122.4) ">
<use xlink:href="#Layer0_0_MEMBER_2_MEMBER_1_MEMBER_3_FILL"/>
</g>

<g transform="matrix( 1, 0, 0, 1, -2611.3,-122.4) ">
<use xlink:href="#Layer0_0_MEMBER_2_MEMBER_1_MEMBER_4_FILL"/>
</g>

<g transform="matrix( 1, 0, 0, 1, -2611.3,-122.4) ">
<use xlink:href="#Layer0_0_MEMBER_2_MEMBER_1_MEMBER_5_FILL"/>
</g>

<g transform="matrix( 1, 0, 0, 1, -2611.3,-122.4) ">
<use xlink:href="#Layer0_0_MEMBER_2_MEMBER_2_MEMBER_0_FILL"/>
</g>

<g transform="matrix( 1, 0, 0, 1, -2611.3,-122.4) ">
<use xlink:href="#Layer0_0_MEMBER_2_MEMBER_2_MEMBER_1_FILL"/>
</g>

<g transform="matrix( 1, 0, 0, 1, -2611.3,-122.4) ">
<use xlink:href="#Layer0_0_MEMBER_3_FILL"/>
</g>

<g transform="matrix( 1, 0, 0, 1, -2611.3,-122.4) ">
<use xlink:href="#Layer0_0_MEMBER_3_MEMBER_0_FILL"/>
</g>

<g transform="matrix( 1, 0, 0, 1, -2611.3,-122.4) ">
<use xlink:href="#Layer0_0_MEMBER_3_MEMBER_1_MEMBER_0_FILL"/>
</g>

<g transform="matrix( 1, 0, 0, 1, -2611.3,-122.4) ">
<use xlink:href="#Layer0_0_MEMBER_3_MEMBER_1_MEMBER_1_FILL"/>
</g>

<g transform="matrix( 1, 0, 0, 1, -2611.3,-122.4) ">
<use xlink:href="#Layer0_0_MEMBER_3_MEMBER_1_MEMBER_2_FILL"/>
</g>

<g transform="matrix( 1, 0, 0, 1, -2611.3,-122.4) ">
<use xlink:href="#Layer0_0_MEMBER_3_MEMBER_1_MEMBER_3_FILL"/>
</g>

<g transform="matrix( 1, 0, 0, 1, -2611.3,-122.4) ">
<use xlink:href="#Layer0_0_MEMBER_3_MEMBER_1_MEMBER_4_FILL"/>
</g>

<g transform="matrix( 1, 0, 0, 1, -2611.3,-122.4) ">
<use xlink:href="#Layer0_0_MEMBER_3_MEMBER_1_MEMBER_5_FILL"/>
</g>

<g transform="matrix( 1, 0, 0, 1, -2611.3,-122.4) ">
<use xlink:href="#Layer0_0_MEMBER_3_MEMBER_2_MEMBER_0_FILL"/>
</g>

<g transform="matrix( 1, 0, 0, 1, -2611.3,-122.4) ">
<use xlink:href="#Layer0_0_MEMBER_3_MEMBER_2_MEMBER_1_FILL"/>
</g>
</svg>
