
<svg xmlns="http://www.w3.org/2000/svg" version="1.1" xmlns:xlink="http://www.w3.org/1999/xlink" preserveAspectRatio="none" x="0px" y="0px" width="181px" height="342px" viewBox="0 0 181 342">
<defs>
<g id="Layer1_0_FILL">
<path fill="#D9A5A5" stroke="none" d="
M 166.05 231.1
L 166.05 99.25 7.5 99.25 7.5 231.1 166.05 231.1
M 10.25 316.8
L 10.25 306.55 10.25 267.1 93.65 267.1 93.65 306.55 93.65 316.8 166.05 316.8 166.05 240.3 7.5 240.3 7.5 316.8 10.25 316.8 Z"/>

<path fill="#CD6464" stroke="none" d="
M 10.25 306.55
L 93.65 306.55 93.65 267.1 10.25 267.1 10.25 306.55 Z"/>

<path fill="#FFCCCC" stroke="none" d="
M 10.25 316.8
L 7.5 316.8 7.5 342 166.05 342 166.05 316.8 93.65 316.8 10.25 316.8
M 7.5 231.1
L 2.7 231.1 2.7 240.3 7.5 240.3 166.05 240.3 170.9 240.3 170.9 231.1 166.05 231.1 7.5 231.1
M 166.05 99.25
L 170.9 99.25 170.9 90.05 2.7 90.05 2.7 99.25 7.5 99.25 166.05 99.25 Z"/>

<path fill="#852D2D" stroke="none" d="
M 10.25 306.55
L 10.25 316.8 93.65 316.8 93.65 306.55 10.25 306.55 Z"/>
</g>

<g id="Layer1_1_FILL">
<path fill="#852D2D" stroke="none" d="
M 152.15 342
L 152.15 337.2 148.2 337.2 110.15 337.2 106.3 337.2 106.3 342 152.15 342
M 129.2 243.45
Q 128.8 243.45 128.35 243.5 119.45 243.75 113 250.15 112.15 251 111.4 251.9 110.8 252.7 110.25 253.45 106.4 258.95 106.3 266
L 106.3 275.25 110.15 275.25 148.2 275.25 152.15 275.25 152.15 266.8
Q 152.15 266.6 152.15 266.4
L 152.15 266
Q 152.05 259.05 148.3 253.65 147.8 252.85 147.15 252.1 146.4 251.1 145.4 250.15 139.1 243.8 130.25 243.5 130.2 243.5 130.1 243.5 129.7 243.45 129.2 243.45
M 129.2 245.9
Q 129.65 245.9 130 245.9 130.15 245.9 130.25 245.95 136.8 246.2 141.8 250.15 142.15 250.45 142.55 250.75 142.7 250.9 142.85 251.05 143.25 251.45 143.65 251.8 144.6 252.8 145.4 253.85 145.75 254.2 146.05 254.65 146.3 255 146.55 255.4 149.55 260.05 149.6 265.9
L 149.6 266.3
Q 149.6 266.5 149.6 266.7
L 149.6 270.2 131.75 270.2 127 270.2 108.85 270.2 108.85 270.1
Q 108.85 269.95 108.85 269.8
L 108.85 265.9
Q 108.95 259.95 112.05 255.25 112.3 254.85 112.55 254.5 112.85 254.05 113.2 253.7 113.9 252.7 114.85 251.8 120.5 246.15 128.35 245.9 128.8 245.9 129.2 245.9 Z"/>

<path fill="#CD6464" stroke="none" d="
M 148.2 275.25
L 110.15 275.25 110.15 337.2 148.2 337.2 148.2 275.25
M 112.4 279.25
L 112.4 277.05 128.05 277.05 128.05 279.25 128.05 305 112.4 305 112.4 279.25
M 130.35 279.25
L 130.35 277.05 146 277.05 146 279.25 146 305 144 305 144 307.3 146 307.3 146 309.5 146 335.2 130.35 335.2 130.35 309.5 130.35 307.3 141.5 307.3 141.5 305 130.35 305 130.35 279.25
M 128.05 307.3
L 128.05 309.5 128.05 335.2 112.4 335.2 112.4 309.5 112.4 307.3 128.05 307.3
M 114.35 255.55
Q 114.25 255.6 114.2 255.7 114 256 113.75 256.35 113.65 256.55 113.55 256.75
L 126.6 269.8 127 270.2 131.75 270.2 132.15 269.8 145.05 256.95
Q 144.9 256.7 144.75 256.5 144.55 256.15 144.3 255.85 144.25 255.75 144.2 255.7 144.1 255.5 143.95 255.35
L 130.25 269 130.25 248
Q 130.2 248 130.1 248 130 248 129.9 248 129.6 247.95 129.2 247.95 128.8 247.95 128.4 248
L 128.35 248 128.35 268.9 114.65 255.15
Q 114.5 255.3 114.35 255.55 Z"/>

<path fill="#FFFFFF" stroke="none" d="
M 128.05 335.2
L 128.05 309.5 112.4 309.5 112.4 335.2 128.05 335.2
M 146 309.5
L 144 309.5 144 311.65
Q 144 312.1 143.6 312.5 143.25 312.85 142.75 312.85 142.25 312.85 141.85 312.5 141.5 312.1 141.5 311.65
L 141.5 309.5 130.35 309.5 130.35 335.2 146 335.2 146 309.5
M 146 279.25
L 130.35 279.25 130.35 305 141.5 305 141.5 301.25
Q 141.5 300.75 141.85 300.4 142.25 300.05 142.75 300.05 143.25 300.05 143.6 300.4 144 300.75 144 301.25
L 144 305 146 305 146 279.25
M 128.05 279.25
L 112.4 279.25 112.4 305 128.05 305 128.05 279.25
M 145.3 257.45
Q 145.2 257.2 145.05 256.95
L 132.15 269.8 147.55 269.8 147.55 266.65
Q 147.55 266.45 147.55 266.3
L 147.55 265.95
Q 147.45 261.25 145.3 257.45
M 143.95 255.35
Q 143.85 255.2 143.75 255.1 143 254.1 142.15 253.3 141.8 252.95 141.45 252.6 141.3 252.5 141.15 252.35 140.85 252.05 140.5 251.75 136.05 248.3 130.25 248
L 130.25 269 143.95 255.35
M 113.55 256.75
Q 113.4 257 113.25 257.2 111 261.1 110.9 265.95
L 110.9 269.45
Q 110.9 269.6 110.9 269.7
L 110.9 269.8 126.6 269.8 113.55 256.75
M 114.8 255
Q 114.75 255.05 114.65 255.15
L 128.35 268.9 128.35 248 128.3 248
Q 121.3 248.25 116.3 253.3 115.4 254.1 114.8 255 Z"/>

<path fill="#CCCCCC" stroke="none" d="
M 128.05 309.5
L 128.05 307.3 112.4 307.3 112.4 309.5 128.05 309.5
M 130.35 309.5
L 141.5 309.5 141.5 307.3 130.35 307.3 130.35 309.5
M 146 307.3
L 144 307.3 144 309.5 146 309.5 146 307.3
M 130.35 277.05
L 130.35 279.25 146 279.25 146 277.05 130.35 277.05
M 112.4 277.05
L 112.4 279.25 128.05 279.25 128.05 277.05 112.4 277.05
M 145.05 256.95
Q 145.2 257.2 145.3 257.45 147.45 261.25 147.55 265.95
L 147.55 266.3
Q 147.55 266.45 147.55 266.65
L 147.55 269.8 132.15 269.8 131.75 270.2 149.6 270.2 149.6 266.7
Q 149.6 266.5 149.6 266.3
L 149.6 265.9
Q 149.55 260.05 146.55 255.4
L 145.05 256.95
M 142.55 250.75
Q 142.15 250.45 141.8 250.15 136.8 246.2 130.25 245.95
L 130.25 248
Q 136.05 248.3 140.5 251.75 140.85 252.05 141.15 252.35 141.3 252.5 141.45 252.6 141.8 252.95 142.15 253.3 143 254.1 143.75 255.1 143.85 255.2 143.95 255.35
L 145.4 253.85
Q 144.6 252.8 143.65 251.8 143.25 251.45 142.85 251.05 142.7 250.9 142.55 250.75
M 113.55 256.75
L 112.05 255.25
Q 108.95 259.95 108.85 265.9
L 108.85 269.8
Q 108.85 269.95 108.85 270.1
L 108.85 270.2 127 270.2 126.6 269.8 110.9 269.8 110.9 269.7
Q 110.9 269.6 110.9 269.45
L 110.9 265.95
Q 111 261.1 113.25 257.2 113.4 257 113.55 256.75
M 114.65 255.15
Q 114.75 255.05 114.8 255 115.4 254.1 116.3 253.3 121.3 248.25 128.3 248
L 128.35 248 128.35 245.9
Q 120.5 246.15 114.85 251.8 113.9 252.7 113.2 253.7
L 114.65 255.15 Z"/>

<path fill="#586D1A" stroke="none" d="
M 144 307.3
L 144 305 144 301.25
Q 144 300.75 143.6 300.4 143.25 300.05 142.75 300.05 142.25 300.05 141.85 300.4 141.5 300.75 141.5 301.25
L 141.5 305 141.5 307.3 141.5 309.5 141.5 311.65
Q 141.5 312.1 141.85 312.5 142.25 312.85 142.75 312.85 143.25 312.85 143.6 312.5 144 312.1 144 311.65
L 144 309.5 144 307.3 Z"/>

<path fill="#B44D4D" stroke="none" d="
M 144.3 255.85
Q 144.55 256.15 144.75 256.5 144.9 256.7 145.05 256.95
L 146.55 255.4
Q 146.3 255 146.05 254.65 145.75 254.2 145.4 253.85
L 143.95 255.35
Q 144.1 255.5 144.2 255.7 144.25 255.75 144.3 255.85
M 114.2 255.7
Q 114.25 255.6 114.35 255.55 114.5 255.3 114.65 255.15
L 113.2 253.7
Q 112.85 254.05 112.55 254.5 112.3 254.85 112.05 255.25
L 113.55 256.75
Q 113.65 256.55 113.75 256.35 114 256 114.2 255.7
M 130 245.9
Q 129.65 245.9 129.2 245.9 128.8 245.9 128.35 245.9
L 128.35 248 128.4 248
Q 128.8 247.95 129.2 247.95 129.6 247.95 129.9 248 130 248 130.1 248 130.2 248 130.25 248
L 130.25 245.95
Q 130.15 245.9 130 245.9 Z"/>
</g>

<g id="Layer1_2_FILL">
<path fill="#773001" stroke="none" d="
M 155.75 274.5
L 155.75 296.75 159.75 296.75 159.75 274.5 155.75 274.5 Z"/>
</g>

<g id="Layer1_3_FILL">
<path fill="#3F5D52" stroke="none" d="
M 161.75 278.25
L 161.75 295.5 167 295.5 167 278.25 161.75 278.25 Z"/>
</g>

<g id="Layer1_4_FILL">
<path fill="#96A4B1" stroke="none" d="
M 155.75 274.5
L 155.75 296.75 159.75 296.75 159.75 274.5 155.75 274.5 Z"/>
</g>

<g id="Layer1_5_FILL">
<path fill="#758058" stroke="none" d="
M 155.75 274.5
L 155.75 296.75 159.75 296.75 159.75 274.5 155.75 274.5 Z"/>
</g>

<g id="Layer1_6_FILL">
<path fill="#263C18" stroke="none" d="
M 155.75 274.5
L 155.75 296.75 159.75 296.75 159.75 274.5 155.75 274.5 Z"/>
</g>

<g id="Layer1_7_FILL">
<path fill="#CCCCCC" stroke="none" d="
M 161.75 278.25
L 161.75 295.5 167 295.5 167 278.25 161.75 278.25 Z"/>
</g>

<g id="Layer1_8_FILL">
<path fill="#852D2D" stroke="none" d="
M 137.25 271.25
L 137.25 274.5 183.25 274.5 183.25 271.25 137.25 271.25 Z"/>
</g>

<g id="Layer1_9_FILL">
<path fill="#CCCCCC" stroke="none" d="
M 161.75 278.25
L 161.75 295.5 167 295.5 167 278.25 161.75 278.25 Z"/>
</g>

<g id="Layer1_10_FILL">
<path fill="#AF4B4B" stroke="none" d="
M 120.6 215.4
Q 106.7 201.5 86.85 201.5 72.75 201.5 61.6 208.5 58.1 210.7 55 213.55 53.85 214.4 52.8 215.4 51.1 217.3 49.55 219.25 45.1 224.6 42.45 230.8 40.85 234.55 40 238.75
L 59.6 243.45
Q 60 241.35 60.8 239.3 62.25 235.35 65.1 231.8 66 230.75 67 229.55 67.6 229.05 68.15 228.55 69.2 227.6 70.15 226.95 77.35 221.5 86.85 221.5 98.3 221.5 106.6 229.55 112.55 235.6 114.15 243.35
L 133.6 238.65
Q 130.75 225.55 120.6 215.4 Z"/>
</g>

<g id="Layer1_10_MEMBER_0_FILL">
<path fill="#FFFFFF" stroke="none" d="
M 59.15 228.75
L 59.9 227.5 51.05 224.9 54.85 230.95 47.7 230.65 54.35 237.05 55.05 235.8 51.3 232.15 57.35 232.4 54.15 227.25 59.15 228.75
M 63 222.6
L 61.85 221.45
Q 61.45 221.05 60.95 220.85 60.5 220.65 59.95 220.65 59.45 220.65 58.9 220.8 58.45 221.05 58.05 221.45 57.7 221.8 57.45 222.25
L 58.7 222.8
Q 58.85 222.6 59.05 222.4 59.3 222.15 59.65 222 60.05 221.9 60.4 222.1 60 222.2 59.65 222.6 59.35 222.85 59.2 223.25 59.05 223.65 59.05 223.95 59 224.3 59.15 224.7 59.25 225.05 59.55 225.35 59.8 225.65 60.2 225.75 60.55 225.85 60.9 225.85 61.25 225.85 61.65 225.65 62 225.5 62.3 225.25
L 64.7 222.85 63.75 221.85 63 222.6
M 60.5 224.35
Q 60.35 224.15 60.4 223.95 60.5 223.7 60.65 223.55 60.85 223.35 61.05 223.25 61.3 223.1 61.55 223.05
L 62 223.55 61.35 224.25
Q 61.15 224.4 60.95 224.5 60.7 224.5 60.5 224.35
M 66.35 216.15
Q 66.5 215.9 66.75 215.7 67.1 215.5 67.45 215.45
L 67.3 214.1
Q 66.55 214.15 65.95 214.6 65.55 214.85 65.35 215.2 65.1 215.5 65 215.9
L 64.8 215.7 62.8 217.1 63.6 218.25 64.45 217.6 66.85 220.95 68 220.2 66.4 217.9
Q 66.2 217.65 66.15 217.3 66.05 217.05 66.1 216.75 66.15 216.45 66.35 216.15
M 70.25 214.4
Q 70.25 214.95 70.45 215.5 70.65 216.05 71.05 216.5 71.4 216.95 71.95 217.1 72.45 217.35 73 217.4 73.55 217.4 74.1 217.2 74.7 217 75.15 216.6 75.2 216.95 75.15 217.25 75.05 217.6 74.9 217.8 74.75 218.1 74.5 218.3 74.25 218.5 73.95 218.65 73.55 218.75 73.15 218.75
L 73 220.1
Q 73.7 220.2 74.45 219.9 75.05 219.7 75.5 219.3 76 218.85 76.25 218.25 76.5 217.7 76.55 217.05 76.55 216.4 76.35 215.8
L 75 212.25 76 211.85 75.55 210.55 72.1 211.85
Q 71.6 212.05 71.15 212.45 70.75 212.8 70.55 213.3 70.25 213.85 70.25 214.4
M 72.1 213.45
Q 72.3 213.2 72.55 213.1
L 73.7 212.7 74.55 215
Q 74.4 215.35 74.2 215.6 74 215.8 73.6 215.95 73.35 216.05 73.05 216 72.75 216 72.45 215.9 72.2 215.75 72 215.6 71.8 215.35 71.7 215.05 71.6 214.75 71.6 214.45 71.6 214.15 71.75 213.9 71.9 213.65 72.1 213.45
M 80.6 209.65
L 78.2 209.85 78.3 211.25 79.35 211.15 79.7 215.25 81.05 215.1 80.6 209.65
M 79.55 206.5
Q 79.2 206.5 78.95 206.8 78.7 207.1 78.7 207.5 78.75 207.85 79.05 208.1 79.35 208.3 79.75 208.3 80.15 208.25 80.35 208 80.6 207.7 80.55 207.35 80.5 206.95 80.25 206.7 79.95 206.45 79.55 206.5
M 116.2 233.15
Q 116.1 233.45 116.1 233.85 116.1 234.25 116.3 234.6
L 117.6 237.75 118.85 237.2 118.5 236.25 120 235.6
Q 120.5 235.4 120.85 235 121.25 234.6 121.4 234.15 121.6 233.65 121.6 233.15 121.6 232.55 121.4 232.1 121.2 231.6 120.85 231.2
L 119.85 232.2
Q 120 232.35 120.1 232.65 120.25 232.95 120.2 233.35 120.2 233.75 119.85 234.05 119.9 233.6 119.75 233.15 119.55 232.75 119.25 232.45 118.95 232.15 118.65 232.05 118.3 231.9 117.95 231.9 117.55 231.9 117.2 232.05 116.85 232.2 116.55 232.45 116.35 232.75 116.2 233.15
M 117.55 234.1
Q 117.45 233.9 117.5 233.6 117.5 233.4 117.7 233.3 117.95 233.2 118.2 233.3 118.35 233.5 118.45 233.7 118.6 234 118.6 234.2 118.6 234.45 118.55 234.65
L 117.9 234.95 117.55 234.1
M 118.55 226.45
L 117.35 227.1 117.85 228.05 114.25 230.05 114.9 231.25 119.75 228.6 118.55 226.45
M 85.5 209.65
L 85.5 209.45 83.1 209.45 83.1 210.85 84.2 210.85 84.2 214.95 85.55 214.95 85.55 211.35
Q 85.8 211.05 86.1 210.8 86.45 210.6 86.9 210.6 87.25 210.6 87.5 210.7 87.75 210.85 88 211.05 88.2 211.25 88.3 211.5 88.4 211.8 88.4 212.1
L 88.4 214.9 89.8 214.9 89.8 212.1
Q 89.8 211.5 89.55 211 89.35 210.45 88.95 210.05 88.5 209.65 88 209.45 87.45 209.25 86.85 209.25 86.5 209.25 86.15 209.35 85.8 209.4 85.5 209.65
M 115.2 222.7
Q 115.05 222.45 114.85 222.25 114.45 221.8 113.95 221.55 113.45 221.35 112.9 221.3 112.35 221.25 111.8 221.45 111.3 221.6 110.85 222 110.45 222.4 110.15 222.85 109.95 223.4 109.9 223.95 109.85 224.5 110.05 225.05 110.25 225.55 110.6 226
L 112.95 228.65 114 227.7 113.25 226.9 118.65 222.15 117.75 221.15 115.4 223.2
Q 115.3 222.95 115.2 222.7
M 114.15 223.65
Q 114.2 224 114.15 224.3
L 112.35 225.9 111.65 225.1
Q 111.4 224.85 111.35 224.6 111.3 224.3 111.3 224.05 111.3 223.75 111.45 223.5 111.55 223.25 111.75 223.05 111.95 222.85 112.25 222.8 112.55 222.65 112.85 222.7 113.1 222.7 113.35 222.8 113.6 222.95 113.85 223.15 114.05 223.4 114.15 223.65
M 102 218.4
L 103.3 218.95 104.8 209.85 99.25 214.4 98.75 207.25 93.2 214.6 94.5 215.15 97.65 211 98.15 217.05 102.85 213.25 102 218.4
M 105.05 218.95
Q 104.95 219.5 105.05 220.05 105.1 220.6 105.4 221.05 105.65 221.55 106.15 221.9
L 106.8 222.4 107.65 221.25 107 220.8
Q 106.65 220.55 106.45 220.2 106.3 219.8 106.4 219.4
L 109.65 221.8
Q 109.95 221.6 110.1 221.35 110.45 220.85 110.6 220.3 110.7 219.75 110.6 219.2 110.55 218.65 110.3 218.2 110 217.7 109.5 217.3 109 216.95 108.5 216.85 107.95 216.75 107.4 216.85 106.85 216.9 106.4 217.2 105.85 217.5 105.55 217.95 105.15 218.4 105.05 218.95
M 107.45 218.2
Q 107.65 218.15 107.85 218.15 108.1 218.15 108.3 218.2 108.5 218.25 108.7 218.4 109.1 218.65 109.25 219.15 109.4 219.55 109.25 219.95
L 107.05 218.35
Q 107.25 218.25 107.45 218.2
M 122.3 227.05
Q 122.4 226.7 122.2 226.35 122 226.05 121.65 225.95 121.3 225.85 120.95 226.05 120.6 226.2 120.5 226.55 120.4 226.9 120.6 227.25 120.8 227.55 121.15 227.65 121.5 227.75 121.85 227.6 122.2 227.4 122.3 227.05 Z"/>
</g>

<g id="Layer1_11_FILL">
<path fill="#852D2D" stroke="none" d="
M 32.7 183.9
Q 32 183.85 31.25 183.85 30.6 183.85 29.9 183.9 23.45 184.35 18.8 189 14.1 193.65 13.7 200.1 13.6 200.8 13.6 201.5 13.6 202.2 13.7 202.9 14.1 209.35 18.8 213.95 23.45 218.65 29.9 219.15 30.6 219.15 31.25 219.15 32 219.15 32.7 219.15 39.1 218.65 43.75 213.95 48.4 209.35 48.9 202.9 48.95 202.2 48.95 201.5 48.95 200.8 48.9 200.1 48.4 193.65 43.75 189 39.1 184.35 32.7 183.9
M 20.75 191
Q 24.6 187.15 29.9 186.7 30.6 186.65 31.25 186.65 32 186.65 32.7 186.7 37.9 187.15 41.75 191 45.65 194.85 46.1 200.1 46.1 200.8 46.1 201.5 46.1 202.2 46.1 202.9 45.65 208.2 41.75 212 39.45 214.35 36.6 215.45 34.75 216.15 32.7 216.3 32 216.35 31.25 216.35 30.6 216.35 29.9 216.3 27.7 216.1 25.8 215.4 23 214.3 20.75 212 16.9 208.2 16.45 202.9 16.4 202.2 16.4 201.5 16.4 200.8 16.45 200.1 16.9 194.85 20.75 191 Z"/>

<path fill="#B95353" stroke="none" d="
M 18.4 200.35
Q 18.4 200.25 18.45 200.1
L 16.45 200.1
Q 16.4 200.8 16.4 201.5 16.4 202.2 16.45 202.9
L 18.05 202.9
Q 18.05 202.5 18.1 202.1 18.1 202 18.1 201.85 18.2 201.1 18.4 200.35
M 46.1 201.5
Q 46.1 200.8 46.1 200.1
L 44.1 200.1
Q 44.1 200.25 44.15 200.35 44.3 201.1 44.4 201.85 44.4 202 44.4 202.1 44.4 202.5 44.45 202.9
L 46.1 202.9
Q 46.1 202.2 46.1 201.5
M 29.9 190.25
Q 29.9015625 190.2 30 190.2 30.65 190.15 31.25 190.15 31.9 190.15 32.5 190.2 32.6 190.2 32.7 190.25
L 32.7 186.7
Q 32 186.65 31.25 186.65 30.6 186.65 29.9 186.7
L 29.9 190.25 Z"/>

<path fill="#CCCCCC" stroke="none" d="
M 25.8 215.4
Q 23.7 214.4 21.9 212.65 18.6 209.35 18.1 204.75 18.1 204.65 18.1 204.55 18.05 203.95 18.05 203.35 18.05 203.25 18.05 203.2 18.05 203.05 18.05 202.9
L 16.45 202.9
Q 16.9 208.2 20.75 212 23 214.3 25.8 215.4
M 44.45 203.2
Q 44.45 203.25 44.45 203.35 44.45 203.95 44.4 204.55 44.4 204.65 44.4 204.75 43.9 209.35 40.55 212.65 38.75 214.45 36.6 215.45 39.45 214.35 41.75 212 45.65 208.2 46.1 202.9
L 44.45 202.9
Q 44.45 203.05 44.45 203.2
M 32.7 186.7
L 32.7 190.25 32.75 190.25
Q 37.25 190.65 40.55 194.05 43.25 196.7 44.1 200.1
L 46.1 200.1
Q 45.65 194.85 41.75 191 37.9 187.15 32.7 186.7
M 29.9 186.7
Q 24.6 187.15 20.75 191 16.9 194.85 16.45 200.1
L 18.45 200.1
Q 19.25 196.7 21.9 194.05 25.25 190.65 29.8 190.25 29.85 190.25 29.9 190.25
L 29.9 186.7 Z"/>

<path fill="#FFFFFF" stroke="none" d="
M 25.8 215.4
Q 27.7 216.1 29.9 216.3
L 29.9 202.9 18.05 202.9
Q 18.05 203.05 18.05 203.2 18.05 203.25 18.05 203.35 18.05 203.95 18.1 204.55 18.1 204.65 18.1 204.75 18.6 209.35 21.9 212.65 23.7 214.4 25.8 215.4
M 44.45 203.35
Q 44.45 203.25 44.45 203.2 44.45 203.05 44.45 202.9
L 32.7 202.9 32.7 216.3
Q 34.75 216.15 36.6 215.45 38.75 214.45 40.55 212.65 43.9 209.35 44.4 204.75 44.4 204.65 44.4 204.55 44.45 203.95 44.45 203.35
M 32.75 190.25
L 32.7 190.25 32.7 200.1 44.1 200.1
Q 43.25 196.7 40.55 194.05 37.25 190.65 32.75 190.25
M 29.9 190.25
Q 29.85 190.25 29.8 190.25 25.25 190.65 21.9 194.05 19.25 196.7 18.45 200.1
L 29.9 200.1 29.9 190.25 Z"/>

<path fill="#D97575" stroke="none" d="
M 30 190.2
Q 29.9015625 190.2 29.9 190.25
L 29.9 200.1 18.45 200.1
Q 18.4 200.25 18.4 200.35 18.2 201.1 18.1 201.85 18.1 202 18.1 202.1 18.05 202.5 18.05 202.9
L 29.9 202.9 29.9 216.3
Q 30.6 216.35 31.25 216.35 32 216.35 32.7 216.3
L 32.7 202.9 44.45 202.9
Q 44.4 202.5 44.4 202.1 44.4 202 44.4 201.85 44.3 201.1 44.15 200.35 44.1 200.25 44.1 200.1
L 32.7 200.1 32.7 190.25
Q 32.6 190.2 32.5 190.2 31.9 190.15 31.25 190.15 30.65 190.15 30 190.2 Z"/>
</g>

<g id="Layer1_12_FILL">
<path fill="#852D2D" stroke="none" d="
M 141.05 183.9
Q 134.6 184.35 129.95 189 125.3 193.65 124.85 200.1 124.8 200.8 124.8 201.5 124.8 202.2 124.85 202.9 125.3 209.3 129.95 213.95 134.6 218.65 141.05 219.15 141.75 219.15 142.45 219.15 143.15 219.15 143.85 219.15 150.25 218.65 154.9 213.95 159.6 209.3 160.1 202.9 160.1 202.2 160.1 201.5 160.1 200.8 160.1 200.1 159.6 193.65 154.9 189 150.25 184.35 143.85 183.9 143.15 183.85 142.45 183.85 141.75 183.85 141.05 183.9
M 131.9 190.95
Q 135.75 187.15 141.05 186.7 141.75 186.65 142.45 186.65 143.15 186.65 143.85 186.7 149.1 187.15 152.9 190.95 156.8 194.85 157.25 200.1 157.3 200.8 157.3 201.5 157.3 202.2 157.25 202.9 156.8 208.15 152.9 212 150.6 214.35 147.75 215.4 145.9 216.15 143.85 216.3 143.15 216.35 142.45 216.35 141.75 216.35 141.05 216.3 138.9 216.1 136.95 215.4 134.2 214.25 131.9 212 128.05 208.15 127.6 202.9 127.55 202.2 127.55 201.5 127.55 200.8 127.6 200.1 128.05 194.85 131.9 190.95 Z"/>

<path fill="#FFFFFF" stroke="none" d="
M 129.25 203.2
Q 129.25 203.25 129.25 203.35 129.25 203.95 129.25 204.55 129.25 204.65 129.3 204.75 129.8 209.3 133.05 212.65 134.85 214.4 136.95 215.4 138.9 216.1 141.05 216.3
L 141.05 202.9 129.25 202.9
Q 129.25 203.05 129.25 203.2
M 155.6 203.35
Q 155.6 203.25 155.6 203.2 155.6 203.05 155.6 202.9
L 143.85 202.9 143.85 216.3
Q 145.9 216.15 147.75 215.4 149.9 214.45 151.75 212.65 155.05 209.3 155.55 204.75 155.6 204.65 155.6 204.55 155.6 203.95 155.6 203.35
M 143.9 190.2
L 143.85 190.2 143.85 200.1 155.25 200.1
Q 154.4 196.7 151.75 194.05 148.4 190.65 143.9 190.2
M 141.05 190.2
L 141 190.2
Q 136.4 190.65 133.05 194.05 130.45 196.7 129.65 200.1
L 141.05 200.1 141.05 190.2 Z"/>

<path fill="#CCCCCC" stroke="none" d="
M 129.25 203.35
Q 129.25 203.25 129.25 203.2 129.25 203.05 129.25 202.9
L 127.6 202.9
Q 128.05 208.15 131.9 212 134.2 214.25 136.95 215.4 134.85 214.4 133.05 212.65 129.8 209.3 129.3 204.75 129.25 204.65 129.25 204.55 129.25 203.95 129.25 203.35
M 155.6 203.2
Q 155.6 203.25 155.6 203.35 155.6 203.95 155.6 204.55 155.6 204.65 155.55 204.75 155.05 209.3 151.75 212.65 149.9 214.45 147.75 215.4 150.6 214.35 152.9 212 156.8 208.15 157.25 202.9
L 155.6 202.9
Q 155.6 203.05 155.6 203.2
M 143.85 190.2
L 143.9 190.2
Q 148.4 190.65 151.75 194.05 154.4 196.7 155.25 200.1
L 157.25 200.1
Q 156.8 194.85 152.9 190.95 149.1 187.15 143.85 186.7
L 143.85 190.2
M 141 190.2
L 141.05 190.2 141.05 186.7
Q 135.75 187.15 131.9 190.95 128.05 194.85 127.6 200.1
L 129.65 200.1
Q 130.45 196.7 133.05 194.05 136.4 190.65 141 190.2 Z"/>

<path fill="#B95353" stroke="none" d="
M 129.55 200.35
Q 129.6 200.25 129.65 200.1
L 127.6 200.1
Q 127.55 200.8 127.55 201.5 127.55 202.2 127.6 202.9
L 129.25 202.9
Q 129.25 202.5 129.25 202.1 129.25 202 129.3 201.85 129.4 201.1 129.55 200.35
M 157.3 201.5
Q 157.3 200.8 157.25 200.1
L 155.25 200.1
Q 155.3 200.25 155.3 200.35 155.45 201.1 155.55 201.85 155.6 202 155.6 202.1 155.6 202.5 155.6 202.9
L 157.25 202.9
Q 157.3 202.2 157.3 201.5
M 141.05 190.2
Q 141.1 190.2 141.2 190.2 141.8 190.15 142.45 190.15 143.05 190.15 143.7 190.2 143.75 190.2 143.85 190.2
L 143.85 186.7
Q 143.15 186.65 142.45 186.65 141.75 186.65 141.05 186.7
L 141.05 190.2 Z"/>

<path fill="#D97575" stroke="none" d="
M 141.2 190.2
Q 141.1 190.2 141.05 190.2
L 141.05 200.1 129.65 200.1
Q 129.6 200.25 129.55 200.35 129.4 201.1 129.3 201.85 129.25 202 129.25 202.1 129.25 202.5 129.25 202.9
L 141.05 202.9 141.05 216.3
Q 141.75 216.35 142.45 216.35 143.15 216.35 143.85 216.3
L 143.85 202.9 155.6 202.9
Q 155.6 202.5 155.6 202.1 155.6 202 155.55 201.85 155.45 201.1 155.3 200.35 155.3 200.25 155.25 200.1
L 143.85 200.1 143.85 190.2
Q 143.75 190.2 143.7 190.2 143.05 190.15 142.45 190.15 141.8 190.15 141.2 190.2 Z"/>
</g>

<g id="Layer1_13_FILL">
<path fill="#D9A5A5" stroke="none" d="
M 36.55 24.2
L 24.65 24.2 24.65 36.4 36.55 36.4 36.55 24.2 Z"/>

<path fill="#FFCCCC" stroke="none" d="
M 21.25 20.5
L 24.65 20.5 36.55 20.5 40 20.5 40 12.9 21.25 12.9 21.25 20.5 Z"/>

<path fill="#B47575" stroke="none" d="
M 24.65 20.5
L 24.65 24.2 36.55 24.2 36.55 20.5 24.65 20.5 Z"/>
</g>

<g id="Layer1_14_FILL">
<path fill="#D9A5A5" stroke="none" d="
M 136.5 24.2
L 136.5 36.4 148.4 36.4 148.4 24.2 136.5 24.2 Z"/>

<path fill="#B47575" stroke="none" d="
M 148.4 24.2
L 148.4 20.5 136.5 20.5 136.5 24.2 148.4 24.2 Z"/>

<path fill="#FFCCCC" stroke="none" d="
M 151.8 20.5
L 151.8 12.9 133.05 12.9 133.05 20.5 136.5 20.5 148.4 20.5 151.8 20.5 Z"/>
</g>

<g id="Layer1_15_FILL">
<path fill="#D9A5A5" stroke="none" d="
M 64.5 36.4
L 64.5 24.2 52.6 24.2 52.6 36.4 64.5 36.4 Z"/>

<path fill="#B47575" stroke="none" d="
M 64.5 24.2
L 64.5 20.5 52.6 20.5 52.6 24.2 64.5 24.2 Z"/>

<path fill="#FFCCCC" stroke="none" d="
M 64.5 20.5
L 67.9 20.5 67.9 12.9 49.2 12.9 49.2 20.5 52.6 20.5 64.5 20.5 Z"/>
</g>

<g id="Layer1_16_FILL">
<path fill="#FFCCCC" stroke="none" d="
M 92.4 20.5
L 95.85 20.5 95.85 12.9 77.1 12.9 77.1 20.5 80.5 20.5 92.4 20.5 Z"/>

<path fill="#B47575" stroke="none" d="
M 92.4 24.2
L 92.4 20.5 80.5 20.5 80.5 24.2 92.4 24.2 Z"/>

<path fill="#D9A5A5" stroke="none" d="
M 92.4 36.4
L 92.4 24.2 80.5 24.2 80.5 36.4 92.4 36.4 Z"/>
</g>

<g id="Layer1_17_FILL">
<path fill="#D9A5A5" stroke="none" d="
M 120.35 24.2
L 108.45 24.2 108.45 36.4 120.35 36.4 120.35 24.2 Z"/>

<path fill="#B47575" stroke="none" d="
M 108.45 20.5
L 108.45 24.2 120.35 24.2 120.35 20.5 108.45 20.5 Z"/>

<path fill="#FFCCCC" stroke="none" d="
M 123.75 20.5
L 123.75 12.9 105.05 12.9 105.05 20.5 108.45 20.5 120.35 20.5 123.75 20.5 Z"/>
</g>

<g id="Layer1_18_FILL">
<path fill="#852D2D" stroke="none" d="
M 13.9 60.65
L 10.05 70.25 163.05 70.25 159.2 60.65 13.9 60.65
M 155.45 51.05
L 151.65 41.45 21.5 41.45 17.7 51.05 155.45 51.05
M 170.9 90.05
L 166.9 79.9 6.25 79.9 2.2 90.05 170.9 90.05 Z"/>

<path fill="#AF4B4B" stroke="none" d="
M 159.2 60.65
L 155.45 51.05 17.7 51.05 13.9 60.65 159.2 60.65
M 151.65 41.45
L 148.35 33.2 24.75 33.2 21.5 41.45 151.65 41.45
M 166.9 79.9
L 163.05 70.25 10.05 70.25 6.25 79.9 166.9 79.9 Z"/>
</g>

<g id="Layer1_19_FILL">
<path fill="#AF4B4B" stroke="none" d="
M 180.85 270.05
Q 180.85 269.85 180.85 269.55 180.85 263.25 176.4 258.75 172.05 254.45 166.05 254.3
L 166.05 270.05 180.85 270.05 Z"/>
</g>

<g id="Layer1_20_FILL">
<path fill="#333333" stroke="none" d="
M 112.15 8.25
Q 112.05 8.15 111.95 8 110.05 6.1 110.05 3.4 110.05 1.8 110.65 0.5 110.45 0.7 110.25 0.9 108.9 2.2 108.9 4 108.9 5.8 110.25 7.1 111.1 7.95 112.15 8.25
M 125.1 5.7
L 123.1 3.7 123.1 3.55
Q 123.1 3.45 123.1 3.4 123 2.4 122.3 1.7 121.55 0.95 120.45 0.95 119.35 0.95 118.6 1.7 117.85 2.45 117.85 3.55 117.85 3.8 117.85 4
L 117.85 4.15
Q 117.75 5.8 116.45 7.1 115.15 8.4 113.3 8.4 112.75 8.4 112.15 8.25 114.05 9.95 116.55 9.95 116.7 9.95 116.85 9.95
L 117.2 12.9 117.9 9.85
Q 119.75 9.45 121.15 8 122.2 6.95 122.7 5.7
L 125.1 5.7
M 121.05 2.5
Q 121.25 2.5 121.4 2.85 121.55 3.2 121.55 3.7 121.55 4.2 121.4 4.55 121.25 4.9 121.05 4.9 120.9 4.9 120.8 4.55 120.6 4.2 120.6 3.7 120.6 3.2 120.8 2.85 120.9 2.5 121.05 2.5 Z"/>

<path fill="#FFFFFF" stroke="none" d="
M 121.4 2.85
Q 121.25 2.5 121.05 2.5 120.9 2.5 120.8 2.85 120.6 3.2 120.6 3.7 120.6 4.2 120.8 4.55 120.9 4.9 121.05 4.9 121.25 4.9 121.4 4.55 121.55 4.2 121.55 3.7 121.55 3.2 121.4 2.85 Z"/>
</g>

<g id="Layer1_21_FILL">
<path fill="#333333" stroke="none" d="
M 146 8.25
Q 145.4 8.4 144.85 8.4 143 8.4 141.7 7.1 140.4 5.8 140.3 4.15
L 140.3 4
Q 140.3 3.8 140.3 3.55 140.3 2.45 139.55 1.7 138.8 0.95 137.7 0.95 136.6 0.95 135.85 1.7 135.15 2.4 135.05 3.4 135.05 3.45 135.05 3.55
L 135.05 3.7 133.05 5.7 135.45 5.7
Q 135.95 6.95 137 8 138.4 9.45 140.25 9.85
L 140.95 12.9 141.3 9.95
Q 141.45 9.95 141.6 9.95 144.1 9.95 146 8.25
M 136.75 2.85
Q 136.9 2.5 137.1 2.5 137.25 2.5 137.35 2.85 137.55 3.2 137.55 3.7 137.55 4.2 137.35 4.55 137.25 4.9 137.1 4.9 136.9 4.9 136.75 4.55 136.6 4.2 136.6 3.7 136.6 3.2 136.75 2.85
M 146.2 8
Q 146.1 8.15 146 8.25 147.05 7.95 147.9 7.1 149.25 5.8 149.25 4 149.25 2.2 147.9 0.9 147.7 0.7 147.5 0.5 148.1 1.8 148.1 3.4 148.1 6.1 146.2 8 Z"/>

<path fill="#FFFFFF" stroke="none" d="
M 137.1 2.5
Q 136.9 2.5 136.75 2.85 136.6 3.2 136.6 3.7 136.6 4.2 136.75 4.55 136.9 4.9 137.1 4.9 137.25 4.9 137.35 4.55 137.55 4.2 137.55 3.7 137.55 3.2 137.35 2.85 137.25 2.5 137.1 2.5 Z"/>
</g>

<g id="Layer1_22_FILL">
<path fill="#773001" stroke="none" d="
M 155.75 274.5
L 155.75 296.75 159.75 296.75 159.75 274.5 155.75 274.5 Z"/>
</g>

<g id="Layer1_23_FILL">
<path fill="#3F5D52" stroke="none" d="
M 161.75 278.25
L 161.75 295.5 167 295.5 167 278.25 161.75 278.25 Z"/>
</g>

<g id="Layer1_24_FILL">
<path fill="#96A4B1" stroke="none" d="
M 155.75 274.5
L 155.75 296.75 159.75 296.75 159.75 274.5 155.75 274.5 Z"/>
</g>

<g id="Layer1_25_FILL">
<path fill="#758058" stroke="none" d="
M 155.75 274.5
L 155.75 296.75 159.75 296.75 159.75 274.5 155.75 274.5 Z"/>
</g>

<g id="Layer1_26_FILL">
<path fill="#263C18" stroke="none" d="
M 155.75 274.5
L 155.75 296.75 159.75 296.75 159.75 274.5 155.75 274.5 Z"/>
</g>

<g id="Layer1_27_FILL">
<path fill="#CCCCCC" stroke="none" d="
M 161.75 278.25
L 161.75 295.5 167 295.5 167 278.25 161.75 278.25 Z"/>
</g>

<g id="Layer1_28_FILL">
<path fill="#CCCCCC" stroke="none" d="
M 161.75 278.25
L 161.75 295.5 167 295.5 167 278.25 161.75 278.25 Z"/>
</g>

<g id="Layer1_29_FILL">
<path fill="#3F5D52" stroke="none" d="
M 161.75 278.25
L 161.75 295.5 167 295.5 167 278.25 161.75 278.25 Z"/>
</g>

<g id="Layer1_30_FILL">
<path fill="#96A4B1" stroke="none" d="
M 155.75 274.5
L 155.75 296.75 159.75 296.75 159.75 274.5 155.75 274.5 Z"/>
</g>

<g id="Layer1_31_FILL">
<path fill="#758058" stroke="none" d="
M 155.75 274.5
L 155.75 296.75 159.75 296.75 159.75 274.5 155.75 274.5 Z"/>
</g>

<g id="Layer1_32_FILL">
<path fill="#263C18" stroke="none" d="
M 155.75 274.5
L 155.75 296.75 159.75 296.75 159.75 274.5 155.75 274.5 Z"/>
</g>

<g id="Layer1_33_FILL">
<path fill="#FFFFFF" fill-opacity="0.30196078431372547" stroke="none" d="
M 70.7 267.1
L 51.15 267.1 10.25 308 10.25 316.8 21 316.8 70.7 267.1
M 93.65 287.85
L 93.65 267.1 85.15 267.1 35.45 316.8 64.7 316.8 93.65 287.85 Z"/>
</g>

<g id="Layer1_34_FILL">
<path fill="#A12C2C" stroke="none" d="
M 59.15 268.75
L 59.05 274.35
Q 64.5 276.9 69.4 274.35
L 69.4 268.75 59.15 268.75
M 38.65 268.8
L 38.55 274.35
Q 43.7 276.85 48.85 274.35
L 48.85 268.75 38.65 268.8
M 28.3 274.35
L 28.35 268.75 18 268.75 18 274.35
Q 22.8 276.85 28.3 274.35
M 8.15 268.75
L 0 268.9 0.05 274.35
Q 3.45 276.5 8.1 274.35
L 8.15 268.75
M 90.3 274.35
L 90.35 268.65 79.45 268.75 79.5 274.35
Q 85.2 277.9 90.3 274.35 Z"/>

<path fill="#CCCCCC" stroke="none" d="
M 59.15 268.75
L 48.85 268.75 48.85 274.35
Q 53.95 276.85 59.05 274.35
L 59.15 268.75
M 79.45 268.75
L 69.4 268.75 69.4 274.35
Q 74.75 277.05 79.5 274.35
L 79.45 268.75
M 18 268.75
L 8.15 268.75 8.1 274.35
Q 13.05 276.85 18 274.35
L 18 268.75
M 38.65 268.8
L 28.35 268.75 28.3 274.35
Q 33.45 276.95 38.55 274.35
L 38.65 268.8
M 97.65 274.35
L 97.65 268.75 90.35 268.65 90.3 274.35
Q 93.95 277 97.65 274.35 Z"/>

<path fill="#CD6464" stroke="none" d="
M 48.85 268.75
L 51.2 254.3 41.3 254.3 38.65 268.8 48.85 268.75
M 69.4 268.75
L 71 254.3 60.9 254.3 59.15 268.75 69.4 268.75
M 12.35 254.3
L 7.6 254.3 0 268.9 8.15 268.75 12.35 254.3
M 31.45 254.3
L 21.5 254.3 18 268.75 28.35 268.75 31.45 254.3
M 90.35 268.65
L 91.25 254.3 80.55 254.3 79.45 268.75 90.35 268.65 Z"/>

<path fill="#FFFFFF" stroke="none" d="
M 51.2 254.3
L 48.85 268.75 59.15 268.75 60.9 254.3 51.2 254.3
M 69.4 268.75
L 79.45 268.75 80.55 254.3 71 254.3 69.4 268.75
M 8.15 268.75
L 18 268.75 21.5 254.3 12.35 254.3 8.15 268.75
M 28.35 268.75
L 38.65 268.8 41.3 254.3 31.45 254.3 28.35 268.75
M 97.65 268.75
L 97.65 254.3 91.25 254.3 90.35 268.65 97.65 268.75 Z"/>
</g>
</defs>

<g transform="matrix( 1, 0, 0, 1, 0,0) ">
<use xlink:href="#Layer1_0_FILL"/>
</g>

<g transform="matrix( 1, 0, 0, 1, 0,0) ">
<use xlink:href="#Layer1_1_FILL"/>
</g>

<g transform="matrix( 0.657196044921875, 0, 0, 0.657196044921875, -33.55,98.6) ">
<use xlink:href="#Layer1_2_FILL"/>
</g>

<g transform="matrix( 0.657196044921875, 0, 0, 0.657196044921875, -34.95,99.4) ">
<use xlink:href="#Layer1_3_FILL"/>
</g>

<g transform="matrix( 0.657196044921875, 0, 0, 0.657196044921875, -27.3,98.6) ">
<use xlink:href="#Layer1_4_FILL"/>
</g>

<g transform="matrix( 0.657196044921875, 0, 0, 0.657196044921875, -24.95,98.6) ">
<use xlink:href="#Layer1_5_FILL"/>
</g>

<g transform="matrix( 0.657196044921875, 0, 0, 0.657196044921875, -22.15,98.6) ">
<use xlink:href="#Layer1_6_FILL"/>
</g>

<g transform="matrix( 0.657196044921875, 0, 0, 0.657196044921875, -23.3,99.4) ">
<use xlink:href="#Layer1_7_FILL"/>
</g>

<g transform="matrix( 0.657196044921875, 0, 0, 0.657196044921875, -30.1,115.1) ">
<use xlink:href="#Layer1_8_FILL"/>
</g>

<g transform="matrix( 0.657196044921875, 0, 0, 0.657196044921875, -40.9,99.4) ">
<use xlink:href="#Layer1_9_FILL"/>
</g>

<g transform="matrix( 1, 0, 0, 1, 0,0) ">
<use xlink:href="#Layer1_10_FILL"/>
</g>

<g transform="matrix( 1, 0, 0, 1, 0,0) ">
<use xlink:href="#Layer1_10_MEMBER_0_FILL"/>
</g>

<g transform="matrix( 1, 0, 0, 1, 0,0) ">
<use xlink:href="#Layer1_11_FILL"/>
</g>

<g transform="matrix( 1, 0, 0, 1, 0,0) ">
<use xlink:href="#Layer1_12_FILL"/>
</g>

<g transform="matrix( 1, 0, 0, 1, 0,0) ">
<use xlink:href="#Layer1_13_FILL"/>
</g>

<g transform="matrix( 1, 0, 0, 1, 0,0) ">
<use xlink:href="#Layer1_14_FILL"/>
</g>

<g transform="matrix( 1, 0, 0, 1, 0,0) ">
<use xlink:href="#Layer1_15_FILL"/>
</g>

<g transform="matrix( 1, 0, 0, 1, 0,0) ">
<use xlink:href="#Layer1_16_FILL"/>
</g>

<g transform="matrix( 1, 0, 0, 1, 0,0) ">
<use xlink:href="#Layer1_17_FILL"/>
</g>

<g transform="matrix( 1, 0, 0, 1, 0,0) ">
<use xlink:href="#Layer1_18_FILL"/>
</g>

<g transform="matrix( 1, 0, 0, 1, 0,0) ">
<use xlink:href="#Layer1_19_FILL"/>
</g>

<g transform="matrix( 1, 0, 0, 1, 0,0) ">
<use xlink:href="#Layer1_20_FILL"/>
</g>

<g transform="matrix( 1, 0, 0, 1, 0,0) ">
<use xlink:href="#Layer1_21_FILL"/>
</g>

<g transform="matrix( -0.657196044921875, 0, 0, 0.657196044921875, 136.2,113.8) ">
<use xlink:href="#Layer1_22_FILL"/>
</g>

<g transform="matrix( -0.657196044921875, 0, 0, 0.657196044921875, 137.2,115.1) ">
<use xlink:href="#Layer1_23_FILL"/>
</g>

<g transform="matrix( -0.657196044921875, 0, 0, 0.657196044921875, 130.05,113.8) ">
<use xlink:href="#Layer1_24_FILL"/>
</g>

<g transform="matrix( -0.657196044921875, 0, 0, 0.657196044921875, 127.2,113.8) ">
<use xlink:href="#Layer1_25_FILL"/>
</g>

<g transform="matrix( -0.657196044921875, 0, 0, 0.657196044921875, 124.6,113.8) ">
<use xlink:href="#Layer1_26_FILL"/>
</g>

<g transform="matrix( -0.657196044921875, 0, 0, 0.657196044921875, 125.9,115.1) ">
<use xlink:href="#Layer1_27_FILL"/>
</g>

<g transform="matrix( -0.657196044921875, 0, 0, 0.657196044921875, 143.6,115.1) ">
<use xlink:href="#Layer1_28_FILL"/>
</g>

<g transform="matrix( -0.657196044921875, 0, 0, 0.657196044921875, 154.6,115.1) ">
<use xlink:href="#Layer1_29_FILL"/>
</g>

<g transform="matrix( -0.657196044921875, 0, 0, 0.657196044921875, 146.9,113.8) ">
<use xlink:href="#Layer1_30_FILL"/>
</g>

<g transform="matrix( -0.657196044921875, 0, 0, 0.657196044921875, 144.5,113.8) ">
<use xlink:href="#Layer1_31_FILL"/>
</g>

<g transform="matrix( -0.657196044921875, 0, 0, 0.657196044921875, 142.2,113.8) ">
<use xlink:href="#Layer1_32_FILL"/>
</g>

<g transform="matrix( 1, 0, 0, 1, 0,0) ">
<use xlink:href="#Layer1_33_FILL"/>
</g>

<g transform="matrix( 1, 0, 0, 1, 0,0) ">
<use xlink:href="#Layer1_34_FILL"/>
</g>
</svg>
