
<svg xmlns="http://www.w3.org/2000/svg" version="1.1" xmlns:xlink="http://www.w3.org/1999/xlink" preserveAspectRatio="none" x="0px" y="0px" width="181px" height="342px" viewBox="0 0 181 342">
<defs>
<g id="Layer0_0_FILL">
<path fill="#CD6464" stroke="none" d="
M 919.95 387.05
L 919.95 426.5 1003.35 426.5 1003.35 387.05 919.95 387.05 Z"/>

<path fill="#852D2D" stroke="none" d="
M 919.95 426.5
L 919.95 436.75 1003.35 436.75 1003.35 426.5 919.95 426.5 Z"/>

<path fill="#FFCCCC" stroke="none" d="
M 919.95 436.75
L 917.2 436.75 917.2 461.95 1075.75 461.95 1075.75 436.75 1003.35 436.75 919.95 436.75
M 1080.6 351.05
L 1075.75 351.05 917.2 351.05 912.4 351.05 912.4 360.25 917.2 360.25 1075.75 360.25 1080.6 360.25 1080.6 351.05
M 1080.6 219.2
L 1080.6 210 912.4 210 912.4 219.2 917.2 219.2 1075.75 219.2 1080.6 219.2 Z"/>

<path fill="#D9A5A5" stroke="none" d="
M 917.2 436.75
L 919.95 436.75 919.95 426.5 919.95 387.05 1003.35 387.05 1003.35 426.5 1003.35 436.75 1075.75 436.75 1075.75 360.25 917.2 360.25 917.2 436.75
M 1075.75 351.05
L 1075.75 219.2 917.2 219.2 917.2 351.05 1075.75 351.05 Z"/>
</g>

<g id="Layer0_0_MEMBER_0_FILL">
<path fill="#852D2D" stroke="none" d="
M 1061.85 461.95
L 1061.85 457.15 1057.9 457.15 1019.85 457.15 1016 457.15 1016 461.95 1061.85 461.95
M 1039.95 363.45
Q 1039.9 363.45 1039.8 363.45 1039.4 363.4 1038.9 363.4 1038.5 363.4 1038.05 363.45 1029.15 363.7 1022.7 370.1 1021.85 370.95 1021.1 371.85 1020.5 372.65 1019.95 373.4 1016.1 378.9 1016 385.95
L 1016 395.2 1019.85 395.2 1057.9 395.2 1061.85 395.2 1061.85 386.75
Q 1061.85 386.55 1061.85 386.35
L 1061.85 385.95
Q 1061.75 379 1058 373.6 1057.5 372.8 1056.85 372.05 1056.1 371.05 1055.1 370.1 1048.8 363.75 1039.95 363.45
M 1039.7 365.85
Q 1039.85 365.85 1039.95 365.9 1046.5 366.15 1051.5 370.1 1051.85 370.4 1052.25 370.7 1052.4 370.85 1052.55 371 1052.95 371.4 1053.35 371.75 1054.3 372.75 1055.1 373.8 1055.45 374.15 1055.75 374.6 1056 374.95 1056.25 375.35 1059.25 380 1059.3 385.85
L 1059.3 386.25
Q 1059.3 386.45 1059.3 386.65
L 1059.3 390.15 1041.45 390.15 1036.7 390.15 1018.55 390.15 1018.55 390.05
Q 1018.55 389.9 1018.55 389.75
L 1018.55 385.85
Q 1018.65 379.9 1021.75 375.2 1022 374.8 1022.25 374.45 1022.55 374 1022.9 373.65 1023.6 372.65 1024.55 371.75 1030.2 366.1 1038.05 365.85 1038.5 365.85 1038.9 365.85 1039.35 365.85 1039.7 365.85 Z"/>

<path fill="#CD6464" stroke="none" d="
M 1057.9 395.2
L 1019.85 395.2 1019.85 457.15 1057.9 457.15 1057.9 395.2
M 1055.7 397
L 1055.7 399.2 1055.7 424.95 1053.7 424.95 1053.7 427.25 1055.7 427.25 1055.7 429.45 1055.7 455.15 1040.05 455.15 1040.05 429.45 1040.05 427.25 1051.2 427.25 1051.2 424.95 1040.05 424.95 1040.05 399.2 1040.05 397 1055.7 397
M 1037.75 397
L 1037.75 399.2 1037.75 424.95 1022.1 424.95 1022.1 399.2 1022.1 397 1037.75 397
M 1022.1 429.45
L 1022.1 427.25 1037.75 427.25 1037.75 429.45 1037.75 455.15 1022.1 455.15 1022.1 429.45
M 1038.1 367.95
L 1038.05 367.95 1038.05 388.85 1024.35 375.1
Q 1024.2 375.25 1024.05 375.5 1023.95 375.55 1023.9 375.65 1023.7 375.95 1023.45 376.3 1023.35 376.5 1023.25 376.7
L 1036.3 389.75 1036.7 390.15 1041.45 390.15 1041.85 389.75 1054.75 376.9
Q 1054.6 376.65 1054.45 376.45 1054.25 376.1 1054 375.8 1053.95 375.7 1053.9 375.65 1053.8 375.45 1053.65 375.3
L 1039.95 388.95 1039.95 367.95
Q 1039.9 367.95 1039.8 367.95 1039.7 367.95 1039.6 367.95 1039.3 367.9 1038.9 367.9 1038.5 367.9 1038.1 367.95 Z"/>

<path fill="#FFFFFF" stroke="none" d="
M 1037.75 429.45
L 1022.1 429.45 1022.1 455.15 1037.75 455.15 1037.75 429.45
M 1022.1 399.2
L 1022.1 424.95 1037.75 424.95 1037.75 399.2 1022.1 399.2
M 1055.7 429.45
L 1053.7 429.45 1053.7 431.6
Q 1053.7 432.05 1053.3 432.45 1052.95 432.8 1052.45 432.8 1051.95 432.8 1051.55 432.45 1051.2 432.05 1051.2 431.6
L 1051.2 429.45 1040.05 429.45 1040.05 455.15 1055.7 455.15 1055.7 429.45
M 1053.7 421.2
L 1053.7 424.95 1055.7 424.95 1055.7 399.2 1040.05 399.2 1040.05 424.95 1051.2 424.95 1051.2 421.2
Q 1051.2 420.7 1051.55 420.35 1051.95 420 1052.45 420 1052.95 420 1053.3 420.35 1053.7 420.7 1053.7 421.2
M 1055 377.4
Q 1054.9 377.15 1054.75 376.9
L 1041.85 389.75 1057.25 389.75 1057.25 386.6
Q 1057.25 386.4 1057.25 386.25
L 1057.25 385.9
Q 1057.15 381.2 1055 377.4
M 1051.85 373.25
Q 1051.5 372.9 1051.15 372.55 1051 372.45 1050.85 372.3 1050.55 372 1050.2 371.7 1045.75 368.25 1039.95 367.95
L 1039.95 388.95 1053.65 375.3
Q 1053.55 375.15 1053.45 375.05 1052.7 374.05 1051.85 373.25
M 1023.25 376.7
Q 1023.1 376.95 1022.95 377.15 1020.7 381.05 1020.6 385.9
L 1020.6 389.4
Q 1020.6 389.55 1020.6 389.65
L 1020.6 389.75 1036.3 389.75 1023.25 376.7
M 1038.05 367.95
L 1038 367.95
Q 1031 368.2 1026 373.25 1025.1 374.05 1024.5 374.95 1024.45 375 1024.35 375.1
L 1038.05 388.85 1038.05 367.95 Z"/>

<path fill="#CCCCCC" stroke="none" d="
M 1022.1 427.25
L 1022.1 429.45 1037.75 429.45 1037.75 427.25 1022.1 427.25
M 1037.75 399.2
L 1037.75 397 1022.1 397 1022.1 399.2 1037.75 399.2
M 1051.2 429.45
L 1051.2 427.25 1040.05 427.25 1040.05 429.45 1051.2 429.45
M 1053.7 427.25
L 1053.7 429.45 1055.7 429.45 1055.7 427.25 1053.7 427.25
M 1055.7 399.2
L 1055.7 397 1040.05 397 1040.05 399.2 1055.7 399.2
M 1041.85 389.75
L 1041.45 390.15 1059.3 390.15 1059.3 386.65
Q 1059.3 386.45 1059.3 386.25
L 1059.3 385.85
Q 1059.25 380 1056.25 375.35
L 1054.75 376.9
Q 1054.9 377.15 1055 377.4 1057.15 381.2 1057.25 385.9
L 1057.25 386.25
Q 1057.25 386.4 1057.25 386.6
L 1057.25 389.75 1041.85 389.75
M 1022.95 377.15
Q 1023.1 376.95 1023.25 376.7
L 1021.75 375.2
Q 1018.65 379.9 1018.55 385.85
L 1018.55 389.75
Q 1018.55 389.9 1018.55 390.05
L 1018.55 390.15 1036.7 390.15 1036.3 389.75 1020.6 389.75 1020.6 389.65
Q 1020.6 389.55 1020.6 389.4
L 1020.6 385.9
Q 1020.7 381.05 1022.95 377.15
M 1039.95 365.9
L 1039.95 367.95
Q 1045.75 368.25 1050.2 371.7 1050.55 372 1050.85 372.3 1051 372.45 1051.15 372.55 1051.5 372.9 1051.85 373.25 1052.7 374.05 1053.45 375.05 1053.55 375.15 1053.65 375.3
L 1055.1 373.8
Q 1054.3 372.75 1053.35 371.75 1052.95 371.4 1052.55 371 1052.4 370.85 1052.25 370.7 1051.85 370.4 1051.5 370.1 1046.5 366.15 1039.95 365.9
M 1038 367.95
L 1038.05 367.95 1038.05 365.85
Q 1030.2 366.1 1024.55 371.75 1023.6 372.65 1022.9 373.65
L 1024.35 375.1
Q 1024.45 375 1024.5 374.95 1025.1 374.05 1026 373.25 1031 368.2 1038 367.95 Z"/>

<path fill="#586D1A" stroke="none" d="
M 1053.7 424.95
L 1053.7 421.2
Q 1053.7 420.7 1053.3 420.35 1052.95 420 1052.45 420 1051.95 420 1051.55 420.35 1051.2 420.7 1051.2 421.2
L 1051.2 424.95 1051.2 427.25 1051.2 429.45 1051.2 431.6
Q 1051.2 432.05 1051.55 432.45 1051.95 432.8 1052.45 432.8 1052.95 432.8 1053.3 432.45 1053.7 432.05 1053.7 431.6
L 1053.7 429.45 1053.7 427.25 1053.7 424.95 Z"/>

<path fill="#B44D4D" stroke="none" d="
M 1054.45 376.45
Q 1054.6 376.65 1054.75 376.9
L 1056.25 375.35
Q 1056 374.95 1055.75 374.6 1055.45 374.15 1055.1 373.8
L 1053.65 375.3
Q 1053.8 375.45 1053.9 375.65 1053.95 375.7 1054 375.8 1054.25 376.1 1054.45 376.45
M 1023.25 376.7
Q 1023.35 376.5 1023.45 376.3 1023.7 375.95 1023.9 375.65 1023.95 375.55 1024.05 375.5 1024.2 375.25 1024.35 375.1
L 1022.9 373.65
Q 1022.55 374 1022.25 374.45 1022 374.8 1021.75 375.2
L 1023.25 376.7
M 1039.95 365.9
Q 1039.85 365.85 1039.7 365.85 1039.35 365.85 1038.9 365.85 1038.5 365.85 1038.05 365.85
L 1038.05 367.95 1038.1 367.95
Q 1038.5 367.9 1038.9 367.9 1039.3 367.9 1039.6 367.95 1039.7 367.95 1039.8 367.95 1039.9 367.95 1039.95 367.95
L 1039.95 365.9 Z"/>
</g>

<g id="Layer0_0_MEMBER_1_FILL">
<path fill="#773001" stroke="none" d="
M 155.75 274.5
L 155.75 296.75 159.75 296.75 159.75 274.5 155.75 274.5 Z"/>
</g>

<g id="Layer0_0_MEMBER_2_FILL">
<path fill="#3F5D52" stroke="none" d="
M 161.75 278.25
L 161.75 295.5 167 295.5 167 278.25 161.75 278.25 Z"/>
</g>

<g id="Layer0_0_MEMBER_3_FILL">
<path fill="#96A4B1" stroke="none" d="
M 155.75 274.5
L 155.75 296.75 159.75 296.75 159.75 274.5 155.75 274.5 Z"/>
</g>

<g id="Layer0_0_MEMBER_4_FILL">
<path fill="#758058" stroke="none" d="
M 155.75 274.5
L 155.75 296.75 159.75 296.75 159.75 274.5 155.75 274.5 Z"/>
</g>

<g id="Layer0_0_MEMBER_5_FILL">
<path fill="#263C18" stroke="none" d="
M 155.75 274.5
L 155.75 296.75 159.75 296.75 159.75 274.5 155.75 274.5 Z"/>
</g>

<g id="Layer0_0_MEMBER_6_FILL">
<path fill="#CCCCCC" stroke="none" d="
M 161.75 278.25
L 161.75 295.5 167 295.5 167 278.25 161.75 278.25 Z"/>
</g>

<g id="Layer0_0_MEMBER_7_FILL">
<path fill="#852D2D" stroke="none" d="
M 137.25 271.25
L 137.25 274.5 183.25 274.5 183.25 271.25 137.25 271.25 Z"/>
</g>

<g id="Layer0_0_MEMBER_8_FILL">
<path fill="#CCCCCC" stroke="none" d="
M 161.75 278.25
L 161.75 295.5 167 295.5 167 278.25 161.75 278.25 Z"/>
</g>

<g id="Layer0_0_MEMBER_9_FILL">
<path fill="#AF4B4B" stroke="none" d="
M 977.85 348.5
Q 978.9 347.55 979.85 346.9 987.05 341.45 996.55 341.45 1008 341.45 1016.3 349.5 1022.25 355.55 1023.85 363.3
L 1043.3 358.6
Q 1040.45 345.5 1030.3 335.35 1016.4 321.45 996.55 321.45 982.45 321.45 971.3 328.45 967.8 330.65 964.7 333.5 963.55 334.35 962.5 335.35 960.8 337.25 959.25 339.2 954.8 344.55 952.15 350.75 950.55 354.5 949.7 358.7
L 969.3 363.4
Q 969.7 361.3 970.5 359.25 971.95 355.3 974.8 351.75 975.7 350.7 976.7 349.5 977.3 349 977.85 348.5 Z"/>
</g>

<g id="Layer0_0_MEMBER_9_MEMBER_0_FILL">
<path fill="#FFFFFF" stroke="none" d="
M 964.55 350.9
L 957.4 350.6 964.05 357 964.75 355.75 961 352.1 967.05 352.35 963.85 347.2 968.85 348.7 969.6 347.45 960.75 344.85 964.55 350.9
M 1027.05 347.05
L 1027.55 348 1023.95 350 1024.6 351.2 1029.45 348.55 1028.25 346.4 1027.05 347.05
M 1028.95 352.4
Q 1028.65 352.1 1028.35 352 1028 351.85 1027.65 351.85 1027.25 351.85 1026.9 352 1026.55 352.15 1026.25 352.4 1026.05 352.7 1025.9 353.1 1025.8 353.4 1025.8 353.8 1025.8 354.2 1026 354.55
L 1027.3 357.7 1028.55 357.15 1028.2 356.2 1029.7 355.55
Q 1030.2 355.35 1030.55 354.95 1030.95 354.55 1031.1 354.1 1031.3 353.6 1031.3 353.1 1031.3 352.5 1031.1 352.05 1030.9 351.55 1030.55 351.15
L 1029.55 352.15
Q 1029.7 352.3 1029.8 352.6 1029.95 352.9 1029.9 353.3 1029.9 353.7 1029.55 354 1029.6 353.55 1029.45 353.1 1029.25 352.7 1028.95 352.4
M 1027.6 354.9
L 1027.25 354.05
Q 1027.15 353.85 1027.2 353.55 1027.2 353.35 1027.4 353.25 1027.65 353.15 1027.9 353.25 1028.05 353.45 1028.15 353.65 1028.3 353.95 1028.3 354.15 1028.3 354.4 1028.25 354.6
L 1027.6 354.9
M 995.2 329.6
L 995.2 329.4 992.8 329.4 992.8 330.8 993.9 330.8 993.9 334.9 995.25 334.9 995.25 331.3
Q 995.5 331 995.8 330.75 996.15 330.55 996.6 330.55 996.95 330.55 997.2 330.65 997.45 330.8 997.7 331 997.9 331.2 998 331.45 998.1 331.75 998.1 332.05
L 998.1 334.85 999.5 334.85 999.5 332.05
Q 999.5 331.45 999.25 330.95 999.05 330.4 998.65 330 998.2 329.6 997.7 329.4 997.15 329.2 996.55 329.2 996.2 329.2 995.85 329.3 995.5 329.35 995.2 329.6
M 974.4 342.8
L 973.45 341.8 972.7 342.55 971.55 341.4
Q 971.15 341 970.65 340.8 970.2 340.6 969.65 340.6 969.15 340.6 968.6 340.75 968.15 341 967.75 341.4 967.4 341.75 967.15 342.2
L 968.4 342.75
Q 968.55 342.55 968.75 342.35 969 342.1 969.35 341.95 969.75 341.85 970.1 342.05 969.7 342.15 969.35 342.55 969.05 342.8 968.9 343.2 968.75 343.6 968.75 343.9 968.7 344.25 968.85 344.65 968.95 345 969.25 345.3 969.5 345.6 969.9 345.7 970.25 345.8 970.6 345.8 970.95 345.8 971.35 345.6 971.7 345.45 972 345.2
L 974.4 342.8
M 970.75 343.2
Q 971 343.05 971.25 343
L 971.7 343.5 971.05 344.2
Q 970.85 344.35 970.65 344.45 970.4 344.45 970.2 344.3 970.05 344.1 970.1 343.9 970.2 343.65 970.35 343.5 970.55 343.3 970.75 343.2
M 975.8 336.7
Q 975.85 336.4 976.05 336.1 976.2 335.85 976.45 335.65 976.8 335.45 977.15 335.4
L 977 334.05
Q 976.25 334.1 975.65 334.55 975.25 334.8 975.05 335.15 974.8 335.45 974.7 335.85
L 974.5 335.65 972.5 337.05 973.3 338.2 974.15 337.55 976.55 340.9 977.7 340.15 976.1 337.85
Q 975.9 337.6 975.85 337.25 975.75 337 975.8 336.7
M 990.3 329.6
L 987.9 329.8 988 331.2 989.05 331.1 989.4 335.2 990.75 335.05 990.3 329.6
M 984.7 332.2
L 985.7 331.8 985.25 330.5 981.8 331.8
Q 981.3 332 980.85 332.4 980.45 332.75 980.25 333.25 979.95 333.8 979.95 334.35 979.95 334.9 980.15 335.45 980.35 336 980.75 336.45 981.1 336.9 981.65 337.05 982.15 337.3 982.7 337.35 983.25 337.35 983.8 337.15 984.4 336.95 984.85 336.55 984.9 336.9 984.85 337.2 984.75 337.55 984.6 337.75 984.45 338.05 984.2 338.25 983.95 338.45 983.65 338.6 983.25 338.7 982.85 338.7
L 982.7 340.05
Q 983.4 340.15 984.15 339.85 984.75 339.65 985.2 339.25 985.7 338.8 985.95 338.2 986.2 337.65 986.25 337 986.25 336.35 986.05 335.75
L 984.7 332.2
M 982.25 333.05
L 983.4 332.65 984.25 334.95
Q 984.1 335.3 983.9 335.55 983.7 335.75 983.3 335.9 983.05 336 982.75 335.95 982.45 335.95 982.15 335.85 981.9 335.7 981.7 335.55 981.5 335.3 981.4 335 981.3 334.7 981.3 334.4 981.3 334.1 981.45 333.85 981.6 333.6 981.8 333.4 982 333.15 982.25 333.05
M 990.25 327.3
Q 990.2 326.9 989.95 326.65 989.65 326.4 989.25 326.45 988.9 326.45 988.65 326.75 988.4 327.05 988.4 327.45 988.45 327.8 988.75 328.05 989.05 328.25 989.45 328.25 989.85 328.2 990.05 327.95 990.3 327.65 990.25 327.3
M 1013 338.9
L 1014.5 329.8 1008.95 334.35 1008.45 327.2 1002.9 334.55 1004.2 335.1 1007.35 330.95 1007.85 337 1012.55 333.2 1011.7 338.35 1013 338.9
M 1031.35 345.9
Q 1031 345.8 1030.65 346 1030.3 346.15 1030.2 346.5 1030.1 346.85 1030.3 347.2 1030.5 347.5 1030.85 347.6 1031.2 347.7 1031.55 347.55 1031.9 347.35 1032 347 1032.1 346.65 1031.9 346.3 1031.7 346 1031.35 345.9
M 1021.5 341.4
Q 1021 341.55 1020.55 341.95 1020.15 342.35 1019.85 342.8 1019.65 343.35 1019.6 343.9 1019.55 344.45 1019.75 345 1019.95 345.5 1020.3 345.95
L 1022.65 348.6 1023.7 347.65 1022.95 346.85 1028.35 342.1 1027.45 341.1 1025.1 343.15
Q 1025 342.9 1024.9 342.65 1024.75 342.4 1024.55 342.2 1024.15 341.75 1023.65 341.5 1023.15 341.3 1022.6 341.25 1022.05 341.2 1021.5 341.4
M 1021.45 343
Q 1021.65 342.8 1021.95 342.75 1022.25 342.6 1022.55 342.65 1022.8 342.65 1023.05 342.75 1023.3 342.9 1023.55 343.1 1023.75 343.35 1023.85 343.6 1023.9 343.95 1023.85 344.25
L 1022.05 345.85 1021.35 345.05
Q 1021.1 344.8 1021.05 344.55 1021 344.25 1021 344 1021 343.7 1021.15 343.45 1021.25 343.2 1021.45 343
M 1019.2 337.25
Q 1018.7 336.9 1018.2 336.8 1017.65 336.7 1017.1 336.8 1016.55 336.85 1016.1 337.15 1015.55 337.45 1015.25 337.9 1014.85 338.35 1014.75 338.9 1014.65 339.45 1014.75 340 1014.8 340.55 1015.1 341 1015.35 341.5 1015.85 341.85
L 1016.5 342.35 1017.35 341.2 1016.7 340.75
Q 1016.35 340.5 1016.15 340.15 1016 339.75 1016.1 339.35
L 1019.35 341.75
Q 1019.65 341.55 1019.8 341.3 1020.15 340.8 1020.3 340.25 1020.4 339.7 1020.3 339.15 1020.25 338.6 1020 338.15 1019.7 337.65 1019.2 337.25
M 1018 338.15
Q 1018.2 338.2 1018.4 338.35 1018.8 338.6 1018.95 339.1 1019.1 339.5 1018.95 339.9
L 1016.75 338.3
Q 1016.95 338.2 1017.15 338.15 1017.35 338.1 1017.55 338.1 1017.8 338.1 1018 338.15 Z"/>
</g>

<g id="Layer0_0_MEMBER_10_FILL">
<path fill="#852D2D" stroke="none" d="
M 958.65 321.45
Q 958.65 320.75 958.6 320.05 958.1 313.6 953.45 308.95 948.8 304.3 942.4 303.85 941.7 303.8 940.95 303.8 940.3 303.8 939.6 303.85 933.15 304.3 928.5 308.95 923.8 313.6 923.4 320.05 923.3 320.75 923.3 321.45 923.3 322.15 923.4 322.85 923.8 329.3 928.5 333.9 933.15 338.6 939.6 339.1 940.3 339.1 940.95 339.1 941.7 339.1 942.4 339.1 948.8 338.6 953.45 333.9 958.1 329.3 958.6 322.85 958.65 322.15 958.65 321.45
M 955.8 320.05
Q 955.8 320.75 955.8 321.45 955.8 322.15 955.8 322.85 955.35 328.15 951.45 331.95 949.15 334.3 946.3 335.4 944.45 336.1 942.4 336.25 941.7 336.3 940.95 336.3 940.3 336.3 939.6 336.25 937.4 336.05 935.5 335.35 932.7 334.25 930.45 331.95 926.6 328.15 926.15 322.85 926.1 322.15 926.1 321.45 926.1 320.75 926.15 320.05 926.6 314.8 930.45 310.95 934.3 307.1 939.6 306.65 940.3 306.6 940.95 306.6 941.7 306.6 942.4 306.65 947.6 307.1 951.45 310.95 955.35 314.8 955.8 320.05 Z"/>

<path fill="#B95353" stroke="none" d="
M 928.1 320.3
Q 928.1 320.2 928.15 320.05
L 926.15 320.05
Q 926.1 320.75 926.1 321.45 926.1 322.15 926.15 322.85
L 927.75 322.85
Q 927.75 322.45 927.8 322.05 927.8 321.95 927.8 321.8 927.9 321.05 928.1 320.3
M 940.95 306.6
Q 940.3 306.6 939.6 306.65
L 939.6 310.2
Q 939.6015625 310.15 939.7 310.15 940.35 310.1 940.95 310.1 941.6 310.1 942.2 310.15 942.3 310.15 942.4 310.2
L 942.4 306.65
Q 941.7 306.6 940.95 306.6
M 955.8 321.45
Q 955.8 320.75 955.8 320.05
L 953.8 320.05
Q 953.8 320.2 953.85 320.3 954 321.05 954.1 321.8 954.1 321.95 954.1 322.05 954.1 322.45 954.15 322.85
L 955.8 322.85
Q 955.8 322.15 955.8 321.45 Z"/>

<path fill="#CCCCCC" stroke="none" d="
M 935.5 335.35
Q 933.4 334.35 931.6 332.6 928.3 329.3 927.8 324.7 927.8 324.6 927.8 324.5 927.75 323.9 927.75 323.3 927.75 323.2 927.75 323.15 927.75 323 927.75 322.85
L 926.15 322.85
Q 926.6 328.15 930.45 331.95 932.7 334.25 935.5 335.35
M 950.25 332.6
Q 948.45 334.4 946.3 335.4 949.15 334.3 951.45 331.95 955.35 328.15 955.8 322.85
L 954.15 322.85
Q 954.15 323 954.15 323.15 954.15 323.2 954.15 323.3 954.15 323.9 954.1 324.5 954.1 324.6 954.1 324.7 953.6 329.3 950.25 332.6
M 939.5 310.2
Q 939.55 310.2 939.6 310.2
L 939.6 306.65
Q 934.3 307.1 930.45 310.95 926.6 314.8 926.15 320.05
L 928.15 320.05
Q 928.95 316.65 931.6 314 934.95 310.6 939.5 310.2
M 953.8 320.05
L 955.8 320.05
Q 955.35 314.8 951.45 310.95 947.6 307.1 942.4 306.65
L 942.4 310.2 942.45 310.2
Q 946.95 310.6 950.25 314 952.95 316.65 953.8 320.05 Z"/>

<path fill="#FFFFFF" stroke="none" d="
M 942.4 336.25
Q 944.45 336.1 946.3 335.4 948.45 334.4 950.25 332.6 953.6 329.3 954.1 324.7 954.1 324.6 954.1 324.5 954.15 323.9 954.15 323.3 954.15 323.2 954.15 323.15 954.15 323 954.15 322.85
L 942.4 322.85 942.4 336.25
M 935.5 335.35
Q 937.4 336.05 939.6 336.25
L 939.6 322.85 927.75 322.85
Q 927.75 323 927.75 323.15 927.75 323.2 927.75 323.3 927.75 323.9 927.8 324.5 927.8 324.6 927.8 324.7 928.3 329.3 931.6 332.6 933.4 334.35 935.5 335.35
M 942.45 310.2
L 942.4 310.2 942.4 320.05 953.8 320.05
Q 952.95 316.65 950.25 314 946.95 310.6 942.45 310.2
M 939.6 310.2
Q 939.55 310.2 939.5 310.2 934.95 310.6 931.6 314 928.95 316.65 928.15 320.05
L 939.6 320.05 939.6 310.2 Z"/>

<path fill="#D97575" stroke="none" d="
M 953.85 320.3
Q 953.8 320.2 953.8 320.05
L 942.4 320.05 942.4 310.2
Q 942.3 310.15 942.2 310.15 941.6 310.1 940.95 310.1 940.35 310.1 939.7 310.15 939.6015625 310.15 939.6 310.2
L 939.6 320.05 928.15 320.05
Q 928.1 320.2 928.1 320.3 927.9 321.05 927.8 321.8 927.8 321.95 927.8 322.05 927.75 322.45 927.75 322.85
L 939.6 322.85 939.6 336.25
Q 940.3 336.3 940.95 336.3 941.7 336.3 942.4 336.25
L 942.4 322.85 954.15 322.85
Q 954.1 322.45 954.1 322.05 954.1 321.95 954.1 321.8 954 321.05 953.85 320.3 Z"/>
</g>

<g id="Layer0_0_MEMBER_11_FILL">
<path fill="#852D2D" stroke="none" d="
M 1052.15 303.8
Q 1051.45 303.8 1050.75 303.85 1044.3 304.3 1039.65 308.95 1035 313.6 1034.55 320.05 1034.5 320.75 1034.5 321.45 1034.5 322.15 1034.55 322.85 1035 329.25 1039.65 333.9 1044.3 338.6 1050.75 339.1 1051.45 339.1 1052.15 339.1 1052.85 339.1 1053.55 339.1 1059.95 338.6 1064.6 333.9 1069.3 329.25 1069.8 322.85 1069.8 322.15 1069.8 321.45 1069.8 320.75 1069.8 320.05 1069.3 313.6 1064.6 308.95 1059.95 304.3 1053.55 303.85 1052.85 303.8 1052.15 303.8
M 1050.75 306.65
Q 1051.45 306.6 1052.15 306.6 1052.85 306.6 1053.55 306.65 1058.8 307.1 1062.6 310.9 1066.5 314.8 1066.95 320.05 1067 320.75 1067 321.45 1067 322.15 1066.95 322.85 1066.5 328.1 1062.6 331.95 1060.3 334.3 1057.45 335.35 1055.6 336.1 1053.55 336.25 1052.85 336.3 1052.15 336.3 1051.45 336.3 1050.75 336.25 1048.6 336.05 1046.65 335.35 1043.9 334.2 1041.6 331.95 1037.75 328.1 1037.3 322.85 1037.25 322.15 1037.25 321.45 1037.25 320.75 1037.3 320.05 1037.75 314.8 1041.6 310.9 1045.45 307.1 1050.75 306.65 Z"/>

<path fill="#FFFFFF" stroke="none" d="
M 1065.3 323.15
Q 1065.3 323 1065.3 322.85
L 1053.55 322.85 1053.55 336.25
Q 1055.6 336.1 1057.45 335.35 1059.6 334.4 1061.45 332.6 1064.75 329.25 1065.25 324.7 1065.3 324.6 1065.3 324.5 1065.3 323.9 1065.3 323.3 1065.3 323.2 1065.3 323.15
M 1061.45 314
Q 1058.1 310.6 1053.6 310.15
L 1053.55 310.15 1053.55 320.05 1064.95 320.05
Q 1064.1 316.65 1061.45 314
M 1038.95 322.85
Q 1038.95 323 1038.95 323.15 1038.95 323.2 1038.95 323.3 1038.95 323.9 1038.95 324.5 1038.95 324.6 1039 324.7 1039.5 329.25 1042.75 332.6 1044.55 334.35 1046.65 335.35 1048.6 336.05 1050.75 336.25
L 1050.75 322.85 1038.95 322.85
M 1042.75 314
Q 1040.15 316.65 1039.35 320.05
L 1050.75 320.05 1050.75 310.15 1050.7 310.15
Q 1046.1 310.6 1042.75 314 Z"/>

<path fill="#CCCCCC" stroke="none" d="
M 1066.95 322.85
L 1065.3 322.85
Q 1065.3 323 1065.3 323.15 1065.3 323.2 1065.3 323.3 1065.3 323.9 1065.3 324.5 1065.3 324.6 1065.25 324.7 1064.75 329.25 1061.45 332.6 1059.6 334.4 1057.45 335.35 1060.3 334.3 1062.6 331.95 1066.5 328.1 1066.95 322.85
M 1053.6 310.15
Q 1058.1 310.6 1061.45 314 1064.1 316.65 1064.95 320.05
L 1066.95 320.05
Q 1066.5 314.8 1062.6 310.9 1058.8 307.1 1053.55 306.65
L 1053.55 310.15 1053.6 310.15
M 1038.95 323.15
Q 1038.95 323 1038.95 322.85
L 1037.3 322.85
Q 1037.75 328.1 1041.6 331.95 1043.9 334.2 1046.65 335.35 1044.55 334.35 1042.75 332.6 1039.5 329.25 1039 324.7 1038.95 324.6 1038.95 324.5 1038.95 323.9 1038.95 323.3 1038.95 323.2 1038.95 323.15
M 1041.6 310.9
Q 1037.75 314.8 1037.3 320.05
L 1039.35 320.05
Q 1040.15 316.65 1042.75 314 1046.1 310.6 1050.7 310.15
L 1050.75 310.15 1050.75 306.65
Q 1045.45 307.1 1041.6 310.9 Z"/>

<path fill="#B95353" stroke="none" d="
M 1067 321.45
Q 1067 320.75 1066.95 320.05
L 1064.95 320.05
Q 1065 320.2 1065 320.3 1065.15 321.05 1065.25 321.8 1065.3 321.95 1065.3 322.05 1065.3 322.45 1065.3 322.85
L 1066.95 322.85
Q 1067 322.15 1067 321.45
M 1037.3 320.05
Q 1037.25 320.75 1037.25 321.45 1037.25 322.15 1037.3 322.85
L 1038.95 322.85
Q 1038.95 322.45 1038.95 322.05 1038.95 321.95 1039 321.8 1039.1 321.05 1039.25 320.3 1039.3 320.2 1039.35 320.05
L 1037.3 320.05
M 1052.15 306.6
Q 1051.45 306.6 1050.75 306.65
L 1050.75 310.15
Q 1050.8 310.15 1050.9 310.15 1051.5 310.1 1052.15 310.1 1052.75 310.1 1053.4 310.15 1053.45 310.15 1053.55 310.15
L 1053.55 306.65
Q 1052.85 306.6 1052.15 306.6 Z"/>

<path fill="#D97575" stroke="none" d="
M 1039.35 320.05
Q 1039.3 320.2 1039.25 320.3 1039.1 321.05 1039 321.8 1038.95 321.95 1038.95 322.05 1038.95 322.45 1038.95 322.85
L 1050.75 322.85 1050.75 336.25
Q 1051.45 336.3 1052.15 336.3 1052.85 336.3 1053.55 336.25
L 1053.55 322.85 1065.3 322.85
Q 1065.3 322.45 1065.3 322.05 1065.3 321.95 1065.25 321.8 1065.15 321.05 1065 320.3 1065 320.2 1064.95 320.05
L 1053.55 320.05 1053.55 310.15
Q 1053.45 310.15 1053.4 310.15 1052.75 310.1 1052.15 310.1 1051.5 310.1 1050.9 310.15 1050.8 310.15 1050.75 310.15
L 1050.75 320.05 1039.35 320.05 Z"/>
</g>

<g id="Layer0_0_MEMBER_12_FILL">
<path fill="#D9A5A5" stroke="none" d="
M 946.25 144.15
L 934.35 144.15 934.35 156.35 946.25 156.35 946.25 144.15 Z"/>

<path fill="#B47575" stroke="none" d="
M 946.25 140.45
L 934.35 140.45 934.35 144.15 946.25 144.15 946.25 140.45 Z"/>

<path fill="#FFCCCC" stroke="none" d="
M 934.35 140.45
L 946.25 140.45 949.7 140.45 949.7 132.85 930.95 132.85 930.95 140.45 934.35 140.45 Z"/>
</g>

<g id="Layer0_0_MEMBER_13_FILL">
<path fill="#D9A5A5" stroke="none" d="
M 1046.2 144.15
L 1046.2 156.35 1058.1 156.35 1058.1 144.15 1046.2 144.15 Z"/>

<path fill="#FFCCCC" stroke="none" d="
M 1042.75 140.45
L 1046.2 140.45 1058.1 140.45 1061.5 140.45 1061.5 132.85 1042.75 132.85 1042.75 140.45 Z"/>

<path fill="#B47575" stroke="none" d="
M 1046.2 140.45
L 1046.2 144.15 1058.1 144.15 1058.1 140.45 1046.2 140.45 Z"/>
</g>

<g id="Layer0_0_MEMBER_14_FILL">
<path fill="#D9A5A5" stroke="none" d="
M 974.2 156.35
L 974.2 144.15 962.3 144.15 962.3 156.35 974.2 156.35 Z"/>

<path fill="#FFCCCC" stroke="none" d="
M 977.6 140.45
L 977.6 132.85 958.9 132.85 958.9 140.45 962.3 140.45 974.2 140.45 977.6 140.45 Z"/>

<path fill="#B47575" stroke="none" d="
M 974.2 144.15
L 974.2 140.45 962.3 140.45 962.3 144.15 974.2 144.15 Z"/>
</g>

<g id="Layer0_0_MEMBER_15_FILL">
<path fill="#D9A5A5" stroke="none" d="
M 1002.1 144.15
L 990.2 144.15 990.2 156.35 1002.1 156.35 1002.1 144.15 Z"/>

<path fill="#B47575" stroke="none" d="
M 990.2 140.45
L 990.2 144.15 1002.1 144.15 1002.1 140.45 990.2 140.45 Z"/>

<path fill="#FFCCCC" stroke="none" d="
M 986.8 140.45
L 990.2 140.45 1002.1 140.45 1005.55 140.45 1005.55 132.85 986.8 132.85 986.8 140.45 Z"/>
</g>

<g id="Layer0_0_MEMBER_16_FILL">
<path fill="#D9A5A5" stroke="none" d="
M 1030.05 144.15
L 1018.15 144.15 1018.15 156.35 1030.05 156.35 1030.05 144.15 Z"/>

<path fill="#B47575" stroke="none" d="
M 1030.05 140.45
L 1018.15 140.45 1018.15 144.15 1030.05 144.15 1030.05 140.45 Z"/>

<path fill="#FFCCCC" stroke="none" d="
M 1018.15 140.45
L 1030.05 140.45 1033.45 140.45 1033.45 132.85 1014.75 132.85 1014.75 140.45 1018.15 140.45 Z"/>
</g>

<g id="Layer0_0_MEMBER_17_FILL">
<path fill="#AF4B4B" stroke="none" d="
M 1076.6 199.85
L 1072.75 190.2 919.75 190.2 915.95 199.85 1076.6 199.85
M 1068.9 180.6
L 1065.15 171 927.4 171 923.6 180.6 1068.9 180.6
M 1061.35 161.4
L 1058.05 153.15 934.45 153.15 931.2 161.4 1061.35 161.4 Z"/>

<path fill="#852D2D" stroke="none" d="
M 1080.6 210
L 1076.6 199.85 915.95 199.85 911.9 210 1080.6 210
M 1072.75 190.2
L 1068.9 180.6 923.6 180.6 919.75 190.2 1072.75 190.2
M 1065.15 171
L 1061.35 161.4 931.2 161.4 927.4 171 1065.15 171 Z"/>
</g>

<g id="Layer0_0_MEMBER_18_FILL">
<path fill="#AF4B4B" stroke="none" d="
M 1090.55 390
Q 1090.55 389.8 1090.55 389.5 1090.55 383.2 1086.1 378.7 1081.75 374.4 1075.75 374.25
L 1075.75 390 1090.55 390 Z"/>
</g>

<g id="Layer0_0_MEMBER_19_FILL">
<path fill="#333333" stroke="none" d="
M 1019.75 123.35
Q 1019.75 121.75 1020.35 120.45 1020.15 120.65 1019.95 120.85 1018.6 122.15 1018.6 123.95 1018.6 125.75 1019.95 127.05 1020.8 127.9 1021.85 128.2 1021.75 128.1 1021.65 127.95 1019.75 126.05 1019.75 123.35
M 1032.8 123.5
Q 1032.8 123.4 1032.8 123.35 1032.7 122.35 1032 121.65 1031.25 120.9 1030.15 120.9 1029.05 120.9 1028.3 121.65 1027.55 122.4 1027.55 123.5 1027.55 123.75 1027.55 123.95
L 1027.55 124.1
Q 1027.45 125.75 1026.15 127.05 1024.85 128.35 1023 128.35 1022.45 128.35 1021.85 128.2 1023.75 129.9 1026.25 129.9 1026.4 129.9 1026.55 129.9
L 1026.9 132.85 1027.6 129.8
Q 1029.45 129.4 1030.85 127.95 1031.9 126.9 1032.4 125.65
L 1034.8 125.65 1032.8 123.65 1032.8 123.5
M 1030.75 122.45
Q 1030.95 122.45 1031.1 122.8 1031.25 123.15 1031.25 123.65 1031.25 124.15 1031.1 124.5 1030.95 124.85 1030.75 124.85 1030.6 124.85 1030.5 124.5 1030.3 124.15 1030.3 123.65 1030.3 123.15 1030.5 122.8 1030.6 122.45 1030.75 122.45 Z"/>

<path fill="#FFFFFF" stroke="none" d="
M 1031.1 122.8
Q 1030.95 122.45 1030.75 122.45 1030.6 122.45 1030.5 122.8 1030.3 123.15 1030.3 123.65 1030.3 124.15 1030.5 124.5 1030.6 124.85 1030.75 124.85 1030.95 124.85 1031.1 124.5 1031.25 124.15 1031.25 123.65 1031.25 123.15 1031.1 122.8 Z"/>
</g>

<g id="Layer0_0_MEMBER_20_FILL">
<path fill="#333333" stroke="none" d="
M 1055.7 128.2
Q 1056.75 127.9 1057.6 127.05 1058.95 125.75 1058.95 123.95 1058.95 122.15 1057.6 120.85 1057.4 120.65 1057.2 120.45 1057.8 121.75 1057.8 123.35 1057.8 126.05 1055.9 127.95 1055.8 128.1 1055.7 128.2
M 1047.4 120.9
Q 1046.3 120.9 1045.55 121.65 1044.85 122.35 1044.75 123.35 1044.75 123.4 1044.75 123.5
L 1044.75 123.65 1042.75 125.65 1045.15 125.65
Q 1045.65 126.9 1046.7 127.95 1048.1 129.4 1049.95 129.8
L 1050.65 132.85 1051 129.9
Q 1051.15 129.9 1051.3 129.9 1053.8 129.9 1055.7 128.2 1055.1 128.35 1054.55 128.35 1052.7 128.35 1051.4 127.05 1050.1 125.75 1050 124.1
L 1050 123.95
Q 1050 123.75 1050 123.5 1050 122.4 1049.25 121.65 1048.5 120.9 1047.4 120.9
M 1046.3 123.65
Q 1046.3 123.15 1046.45 122.8 1046.6 122.45 1046.8 122.45 1046.95 122.45 1047.05 122.8 1047.25 123.15 1047.25 123.65 1047.25 124.15 1047.05 124.5 1046.95 124.85 1046.8 124.85 1046.6 124.85 1046.45 124.5 1046.3 124.15 1046.3 123.65 Z"/>

<path fill="#FFFFFF" stroke="none" d="
M 1046.45 122.8
Q 1046.3 123.15 1046.3 123.65 1046.3 124.15 1046.45 124.5 1046.6 124.85 1046.8 124.85 1046.95 124.85 1047.05 124.5 1047.25 124.15 1047.25 123.65 1047.25 123.15 1047.05 122.8 1046.95 122.45 1046.8 122.45 1046.6 122.45 1046.45 122.8 Z"/>
</g>

<g id="Layer0_0_MEMBER_21_FILL">
<path fill="#773001" stroke="none" d="
M 155.75 274.5
L 155.75 296.75 159.75 296.75 159.75 274.5 155.75 274.5 Z"/>
</g>

<g id="Layer0_0_MEMBER_22_FILL">
<path fill="#3F5D52" stroke="none" d="
M 161.75 278.25
L 161.75 295.5 167 295.5 167 278.25 161.75 278.25 Z"/>
</g>

<g id="Layer0_0_MEMBER_23_FILL">
<path fill="#96A4B1" stroke="none" d="
M 155.75 274.5
L 155.75 296.75 159.75 296.75 159.75 274.5 155.75 274.5 Z"/>
</g>

<g id="Layer0_0_MEMBER_24_FILL">
<path fill="#758058" stroke="none" d="
M 155.75 274.5
L 155.75 296.75 159.75 296.75 159.75 274.5 155.75 274.5 Z"/>
</g>

<g id="Layer0_0_MEMBER_25_FILL">
<path fill="#263C18" stroke="none" d="
M 155.75 274.5
L 155.75 296.75 159.75 296.75 159.75 274.5 155.75 274.5 Z"/>
</g>

<g id="Layer0_0_MEMBER_26_FILL">
<path fill="#CCCCCC" stroke="none" d="
M 161.75 278.25
L 161.75 295.5 167 295.5 167 278.25 161.75 278.25 Z"/>
</g>

<g id="Layer0_0_MEMBER_27_FILL">
<path fill="#CCCCCC" stroke="none" d="
M 161.75 278.25
L 161.75 295.5 167 295.5 167 278.25 161.75 278.25 Z"/>
</g>

<g id="Layer0_0_MEMBER_28_FILL">
<path fill="#3F5D52" stroke="none" d="
M 161.75 278.25
L 161.75 295.5 167 295.5 167 278.25 161.75 278.25 Z"/>
</g>

<g id="Layer0_0_MEMBER_29_FILL">
<path fill="#96A4B1" stroke="none" d="
M 155.75 274.5
L 155.75 296.75 159.75 296.75 159.75 274.5 155.75 274.5 Z"/>
</g>

<g id="Layer0_0_MEMBER_30_FILL">
<path fill="#758058" stroke="none" d="
M 155.75 274.5
L 155.75 296.75 159.75 296.75 159.75 274.5 155.75 274.5 Z"/>
</g>

<g id="Layer0_0_MEMBER_31_FILL">
<path fill="#263C18" stroke="none" d="
M 155.75 274.5
L 155.75 296.75 159.75 296.75 159.75 274.5 155.75 274.5 Z"/>
</g>

<g id="Layer0_0_MEMBER_32_FILL">
<path fill="#FFFFFF" fill-opacity="0.30196078431372547" stroke="none" d="
M 919.95 427.95
L 919.95 436.75 930.7 436.75 980.4 387.05 960.85 387.05 919.95 427.95
M 1003.35 387.05
L 994.85 387.05 945.15 436.75 974.4 436.75 1003.35 407.8 1003.35 387.05 Z"/>
</g>

<g id="Layer0_0_MEMBER_33_FILL">
<path fill="#CCCCCC" stroke="none" d="
M 968.85 388.7
L 958.55 388.7 958.55 394.3
Q 963.65 396.8 968.75 394.3
L 968.85 388.7
M 938.05 388.7
L 938 394.3
Q 943.15 396.9 948.25 394.3
L 948.35 388.75 938.05 388.7
M 917.85 388.7
L 917.8 394.3
Q 922.75 396.8 927.7 394.3
L 927.7 388.7 917.85 388.7
M 1007.35 394.3
L 1007.35 388.7 1000.05 388.6 1000 394.3
Q 1003.65 396.95 1007.35 394.3
M 989.15 388.7
L 979.1 388.7 979.1 394.3
Q 984.45 397 989.2 394.3
L 989.15 388.7 Z"/>

<path fill="#FFFFFF" stroke="none" d="
M 958.55 388.7
L 968.85 388.7 970.6 374.25 960.9 374.25 958.55 388.7
M 948.35 388.75
L 951 374.25 941.15 374.25 938.05 388.7 948.35 388.75
M 927.7 388.7
L 931.2 374.25 922.05 374.25 917.85 388.7 927.7 388.7
M 1007.35 388.7
L 1007.35 374.25 1000.95 374.25 1000.05 388.6 1007.35 388.7
M 979.1 388.7
L 989.15 388.7 990.25 374.25 980.7 374.25 979.1 388.7 Z"/>

<path fill="#CD6464" stroke="none" d="
M 951 374.25
L 948.35 388.75 958.55 388.7 960.9 374.25 951 374.25
M 931.2 374.25
L 927.7 388.7 938.05 388.7 941.15 374.25 931.2 374.25
M 922.05 374.25
L 917.3 374.25 909.7 388.85 917.85 388.7 922.05 374.25
M 979.1 388.7
L 980.7 374.25 970.6 374.25 968.85 388.7 979.1 388.7
M 990.25 374.25
L 989.15 388.7 1000.05 388.6 1000.95 374.25 990.25 374.25 Z"/>

<path fill="#A12C2C" stroke="none" d="
M 948.35 388.75
L 948.25 394.3
Q 953.4 396.8 958.55 394.3
L 958.55 388.7 948.35 388.75
M 927.7 388.7
L 927.7 394.3
Q 932.5 396.8 938 394.3
L 938.05 388.7 927.7 388.7
M 909.7 388.85
L 909.75 394.3
Q 913.15 396.45 917.8 394.3
L 917.85 388.7 909.7 388.85
M 979.1 394.3
L 979.1 388.7 968.85 388.7 968.75 394.3
Q 974.2 396.85 979.1 394.3
M 989.15 388.7
L 989.2 394.3
Q 994.9 397.85 1000 394.3
L 1000.05 388.6 989.15 388.7 Z"/>
</g>

<g id="Layer0_0_MEMBER_34_FILL">
<path fill="#FFFFFF" stroke="none" d="
M 1029.95 238.15
Q 1016.4 224.6 997.2 224.6 978 224.6 964.4 238.15 950.85 251.75 950.85 270.95 950.85 288.65 962.4 301.55 963.35 302.6 964.4 303.65 978 317.3 997.2 317.3 1016.4 317.3 1029.95 303.65 1031 302.6 1031.95 301.55 1043.55 288.65 1043.55 270.95 1043.55 251.75 1029.95 238.15 Z"/>
</g>

<g id="Layer0_0_MEMBER_34_MEMBER_0_FILL">
<path fill="#CD6464" stroke="none" d="
M 979.65 308.45
Q 994.4 315.35 1009.7 310.5 1010.55 310.2 1011.4 309.9 1016.7 307.95 1021.05 304.95
L 997.15 270.8 955.55 270.85
Q 955.55 272.6 955.75 274.5 956.3 279.75 958.25 285.05 958.55 286 958.9 286.85 964.9 301.6 979.65 308.45 Z"/>

<path fill="#D9A5A5" stroke="none" d="
M 997.15 270.8
L 973.35 236.8
Q 964.45 242.9 959.6 253.3
L 959.6 253.35
Q 955.55 261.95 955.55 270.85
L 997.15 270.8 Z"/>

<path fill="#852D2D" stroke="none" d="
M 1028.6 243.5
Q 1023.05 237.1 1014.75 233.25 999.15 226 983.05 231.85 977.75 233.8 973.35 236.8
L 997.15 270.8 1021.05 304.95
Q 1029.95 298.8 1034.8 288.4
L 1034.8 288.35
Q 1037.1 283.45 1038.1 278.5 1038.8 274.65 1038.8 270.8 1038.8 269.05 1038.6 267.25 1038.15 261.95 1036.25 256.7 1033.5 249.1 1028.6 243.5 Z"/>
</g>

<g id="Layer0_0_MEMBER_34_MEMBER_0_MEMBER_0_FILL">
<path fill="#FFFFFF" stroke="none" d="
M 1024 273.9
L 1025.35 273.9 1033.1 264.35 1031.7 264.35 1024 273.9
M 1025.75 264.35
Q 1024.5 264.35 1023.8 265.2 1023.1 266 1023.1 267.15 1023.1 268.05 1023.65 268.55 1024.2 269.05 1025.15 269.05 1026.4 269.05 1027.1 268.2 1027.8 267.35 1027.8 266.25 1027.8 265.35 1027.25 264.85 1026.7 264.35 1025.75 264.35
M 1025.2 265.6
Q 1025.45 265.4 1025.75 265.4 1025.95 265.4 1026.1 265.5 1026.25 265.65 1026.25 265.95 1026.25 266.7 1025.95 267.35 1025.7 268.05 1025.15 268.05 1024.95 268.05 1024.8 267.9 1024.65 267.7 1024.65 267.4 1024.65 267.15 1024.8 266.45 1024.95 265.8 1025.2 265.6
M 1021.25 265.25
Q 1020.25 264.35 1018.9 264.35 1017.6 264.35 1016.65 265.15 1015.65 265.95 1015.1 267.3 1014.5 268.7 1014.5 269.95 1014.5 271.75 1015.4 272.65 1016.25 273.6 1017.6 273.6 1019 273.6 1020 272.8 1021.05 272 1021.6 270.6 1022.2 269.2 1022.2 267.8 1022.2 266.1 1021.25 265.25
M 1016.9 270.6
Q 1016.9 269.85 1017.15 268.65 1017.4 267.5 1017.8 266.75 1018.25 266.05 1018.85 266.05 1019.3 266.05 1019.55 266.35 1019.8 266.7 1019.8 267.25 1019.8 268 1019.55 269.25 1019.3 270.45 1018.9 271.2 1018.45 271.9 1017.9 271.9 1016.9 271.9 1016.9 270.6
M 1021.75 256.7
L 1020.35 256.7 1020.25 257.25
Q 1019.8 256.6 1019.1 256.6 1018.25 256.6 1017.7 257.3 1017.15 257.95 1017.15 258.9 1017.15 259.55 1017.5 260 1017.85 260.4 1018.45 260.4 1019.1 260.4 1019.6 259.9
L 1019.6 259.95 1019.45 260.5
Q 1019.4 260.85 1019.2 261.05 1019.05 261.25 1018.75 261.25 1018.35 261.25 1018.35 260.85
L 1016.9 260.65
Q 1016.9 260.7 1016.9 260.8 1016.9 261.2 1017.15 261.55 1017.4 261.9 1017.8 262 1018.15 262.1 1018.85 262.1 1019.75 262.1 1020.25 261.75 1020.75 261.4 1020.95 260.3
L 1021.75 256.7
M 1019.1 259.4
Q 1018.85 259.4 1018.75 259.25 1018.55 259.1 1018.55 258.85 1018.55 258.35 1018.85 258 1019.1 257.6 1019.4 257.6 1019.6 257.6 1019.8 257.75 1019.9 257.9 1019.9 258.15 1019.9 258.55 1019.7 259 1019.5 259.4 1019.1 259.4
M 1016.75 256.7
L 1015.3 256.7 1014.45 260.55 1015.95 260.55 1016.75 256.7
M 1016.85 256.25
L 1017.1 255.25 1015.6 255.25 1015.4 256.25 1016.85 256.25
M 1024.1 256.7
L 1022.7 256.7 1021.9 260.55 1023.35 260.55 1023.75 258.9
Q 1023.85 258.3 1024.1 258 1024.35 257.7 1024.7 257.7 1024.95 257.7 1024.95 258 1024.95 258.1 1024.8 258.8
L 1024.45 260.55 1025.95 260.55 1026.35 258.45
Q 1026.5 257.75 1026.5 257.55 1026.5 257.15 1026.25 256.85 1026 256.6 1025.45 256.6 1024.6 256.6 1024 257.3
L 1023.95 257.3 1024.1 256.7
M 1034 271.1
Q 1034 270.2 1033.45 269.7 1032.85 269.25 1031.9 269.25 1030.7 269.25 1030 270.05 1029.3 270.85 1029.3 272 1029.3 272.9 1029.85 273.4 1030.4 273.9 1031.3 273.9 1032.65 273.9 1033.3 273.05 1034 272.2 1034 271.1
M 1032.3 270.4
Q 1032.45 270.5 1032.45 270.8 1032.45 271.55 1032.15 272.25 1031.85 272.9 1031.35 272.9 1031.1 272.9 1031 272.75 1030.85 272.6 1030.85 272.25 1030.85 272 1031 271.35 1031.15 270.7 1031.4 270.5 1031.65 270.25 1031.95 270.25 1032.15 270.25 1032.3 270.4
M 1011.05 267.4
Q 1010.7 267.4 1010.35 267.5 1010 267.6 1009.35 267.85
L 1009.75 266.4 1013.55 266.4 1014 264.55 1008 264.55 1006.65 269.2 1008.95 269.5
Q 1009.45 268.95 1010.15 268.95 1011.1 268.95 1011.1 270.1 1011.1 270.9 1010.7 271.45 1010.2 272.05 1009.6 272.05 1009.05 272.05 1008.75 271.75 1008.5 271.4 1008.5 270.75
L 1006.05 271.05
Q 1006.2 272.4 1006.95 272.95 1007.7 273.6 1009.25 273.6 1010.85 273.6 1011.75 273 1012.7 272.45 1013.1 271.65 1013.55 270.85 1013.55 269.9 1013.55 268.65 1012.85 268.05 1012.15 267.4 1011.05 267.4
M 1011.85 258
Q 1011.75 257.9 1011.75 257.75 1011.75 257.65 1011.85 257.55 1012 257.45 1012.3 257.45 1012.75 257.45 1012.8 257.75
L 1014.15 257.65
Q 1014.05 257.05 1013.65 256.85 1013.25 256.6 1012.5 256.6 1011.8 256.6 1011.35 256.8 1010.9 257 1010.65 257.3 1010.4 257.65 1010.4 257.95 1010.4 258.4 1010.7 258.65 1011.05 258.95 1011.9 259.1 1012.25 259.1 1012.4 259.15 1012.5 259.25 1012.5 259.45 1012.5 259.65 1012.35 259.75 1012.15 259.85 1011.95 259.85 1011.4 259.85 1011.3 259.35
L 1009.85 259.5
Q 1009.9 260.1 1010.35 260.4 1010.8 260.65 1011.7 260.65 1012.8 260.65 1013.35 260.25 1013.95 259.8 1013.95 259.2 1013.95 258.8 1013.65 258.5 1013.35 258.25 1012.5 258.15 1011.95 258.05 1011.85 258
M 1007.3 259.75
Q 1006.65 259.75 1006.6 259
L 1009.55 259
Q 1009.65 258.45 1009.65 258.2 1009.65 257.55 1009.15 257.05 1008.7 256.6 1007.6 256.6 1007.1 256.6 1006.75 256.7 1006.4 256.85 1006 257.15 1005.6 257.45 1005.35 257.9 1005.15 258.35 1005.15 258.9 1005.15 259.65 1005.6 260.15 1006.1 260.65 1007.25 260.65 1008 260.65 1008.55 260.4 1009.05 260.15 1009.4 259.55
L 1007.95 259.45
Q 1007.7 259.75 1007.3 259.75
M 1006.75 258.3
Q 1006.85 257.9 1007.05 257.7 1007.3 257.45 1007.6 257.45 1007.8 257.45 1008 257.65 1008.2 257.8 1008.2 258.05 1008.2 258.2 1008.15 258.3
L 1006.75 258.3
M 1004.2 255.85
Q 1003.7 255.25 1002.55 255.25
L 1000.35 255.25 999.2 260.55 1002.05 260.55
Q 1002.6 260.55 1003.2 260.3 1003.85 260.05 1004.3 259.25 1004.75 258.4 1004.75 257.45 1004.75 256.5 1004.2 255.85
M 1003.1 257.3
Q 1003.1 258 1002.8 258.7 1002.45 259.35 1001.8 259.35
L 1001.1 259.35 1001.75 256.4 1002.25 256.4
Q 1002.75 256.4 1002.95 256.65 1003.1 256.85 1003.1 257.3 Z"/>
</g>

<g id="Layer0_0_MEMBER_34_MEMBER_0_MEMBER_1_FILL">
<path fill="#FFFFFF" stroke="none" d="
M 964.45 258.25
Q 962.85 258.25 961.9 258.95 960.95 259.6 960.75 260.9
L 963.15 261.3
Q 963.4 259.95 964.3 259.95 964.65 259.95 964.95 260.15 965.25 260.4 965.25 260.85 965.25 261.2 965 261.5 964.75 261.9 964.2 262.3
L 963.25 262.95
Q 961.8 264.05 960.95 265 960.15 265.95 959.9 267.35
L 966.7 267.35 967.15 265.3 963.6 265.3
Q 964 264.9 964.25 264.7 964.55 264.5 965.4 263.9 966.6 263.05 967.15 262.3 967.65 261.55 967.65 260.75 967.65 259.7 966.85 258.95 966.05 258.25 964.45 258.25
M 967.9 252.25
Q 967.8 251.45 967.25 250.95 966.65 250.4 965.65 250.4 964.65 250.4 964 250.85 963.3 251.35 962.95 252.1 962.55 252.9 962.55 253.65 962.55 254.7 963.2 255.3 963.8 255.95 964.95 255.95 966.05 255.95 966.75 255.4 967.45 254.8 967.65 253.95
L 966.1 253.75
Q 965.9 254.25 965.65 254.5 965.4 254.7 965.05 254.7 964.6 254.7 964.4 254.45 964.2 254.2 964.2 253.8 964.2 253.25 964.4 252.7 964.6 252.15 964.95 251.9 965.3 251.65 965.65 251.65 965.9 251.65 966.2 251.85 966.4 252 966.4 252.4
L 967.9 252.25
M 987.85 265
Q 987.85 264.1 987.3 263.6 986.7 263.15 985.75 263.15 984.5 263.15 983.85 263.95 983.1 264.75 983.1 265.9 983.1 266.8 983.65 267.3 984.2 267.8 985.15 267.8 986.45 267.8 987.15 267 987.85 266.1 987.85 265
M 984.8 265.25
Q 985 264.6 985.2 264.4 985.45 264.15 985.75 264.15 985.95 264.15 986.15 264.3 986.3 264.4 986.3 264.7 986.3 265.45 986 266.15 985.7 266.8 985.15 266.8 984.95 266.8 984.8 266.65 984.7 266.5 984.7 266.15 984.7 265.9 984.8 265.25
M 979.55 258.25
Q 978.3 258.25 977.6 259.1 976.95 259.9 976.95 261.05 976.95 261.95 977.5 262.45 978 262.95 978.95 262.95 980.25 262.95 980.95 262.1 981.6 261.25 981.6 260.15 981.6 259.25 981.05 258.75 980.5 258.25 979.55 258.25
M 979.05 259.5
Q 979.3 259.3 979.55 259.3 979.75 259.3 979.9 259.4 980.1 259.55 980.1 259.85 980.1 260.6 979.8 261.25 979.5 261.95 978.95 261.95 978.75 261.95 978.6 261.8 978.45 261.6 978.45 261.3 978.45 261.05 978.65 260.35 978.75 259.7 979.05 259.5
M 975.05 259.15
Q 974.05 258.25 972.7 258.25 971.45 258.25 970.45 259.05 969.45 259.85 968.9 261.25 968.35 262.6 968.35 263.85 968.35 265.65 969.2 266.55 970.05 267.5 971.45 267.5 972.8 267.5 973.85 266.7 974.85 265.9 975.45 264.5 976 263.1 976 261.7 976 260 975.05 259.15
M 973.4 263.15
Q 973.15 264.35 972.7 265.1 972.25 265.85 971.7 265.85 970.75 265.85 970.75 264.5 970.75 263.75 971 262.55 971.2 261.4 971.65 260.65 972.1 259.95 972.7 259.95 973.15 259.95 973.4 260.25 973.65 260.6 973.65 261.15 973.65 261.9 973.4 263.15
M 972.55 253.65
Q 972.55 252.95 972.05 252.4 971.6 251.9 970.55 251.9 969.8 251.9 969.25 252.2 968.7 252.5 968.4 253.05 968.1 253.6 968.1 254.2 968.1 254.9 968.6 255.45 969.1 255.95 970.1 255.95 970.9 255.95 971.45 255.6 972 255.3 972.25 254.7 972.55 254.2 972.55 253.65
M 969.8 253.3
Q 970.05 252.9 970.5 252.9 970.75 252.9 970.9 253.05 971.1 253.2 971.1 253.55 971.1 254.1 970.85 254.5 970.6 254.9 970.2 254.9 969.95 254.9 969.75 254.7 969.55 254.5 969.55 254.2 969.55 253.75 969.8 253.3
M 974.9 251.9
Q 974.15 251.9 973.6 252.6 973.1 253.35 973.1 254.3 973.1 255.05 973.45 255.5 973.8 255.95 974.45 255.95 974.8 255.95 975.05 255.85 975.3 255.75 975.6 255.45
L 975.55 255.85 976.95 255.85 978.1 250.5 976.6 250.5 976.15 252.5
Q 975.75 251.9 974.9 251.9
M 975.7 253.05
Q 975.9 253.2 975.9 253.55 975.9 254.05 975.7 254.5 975.45 254.95 975.05 254.95 974.8 254.95 974.7 254.8 974.55 254.6 974.55 254.3 974.55 253.7 974.75 253.3 975 252.9 975.3 252.9 975.55 252.9 975.7 253.05
M 982.45 254.3
Q 982.55 253.75 982.55 253.5 982.55 252.85 982.1 252.35 981.6 251.9 980.55 251.9 980 251.9 979.65 252 979.3 252.1 978.9 252.4 978.5 252.7 978.25 253.15 978.1 253.65 978.1 254.15 978.1 254.9 978.55 255.4 979.05 255.95 980.2 255.95 980.95 255.95 981.45 255.65 982 255.4 982.3 254.85
L 980.85 254.7
Q 980.65 255.05 980.2 255.05 979.6 255.05 979.5 254.3
L 982.45 254.3
M 979.65 253.55
Q 979.75 253.15 980 253 980.2 252.75 980.5 252.75 980.75 252.75 980.95 252.9 981.1 253.1 981.1 253.35 981.1 253.5 981.05 253.55
L 979.65 253.55
M 986.95 258.25
L 985.55 258.25 977.8 267.8 979.2 267.8 986.95 258.25 Z"/>
</g>

<g id="Layer0_0_MEMBER_34_MEMBER_0_MEMBER_2_FILL">
<path fill="#FFFFFF" stroke="none" d="
M 967.9 282.5
L 966.15 282.5 963.15 287.85 964.9 287.85 965.35 286.95 967.05 286.95 967.15 287.85 968.75 287.85 967.9 282.5
M 966.95 285.85
L 965.85 285.85 966.8 283.9 966.95 285.85
M 1009.3 291.1
L 1007.9 291.1 1000.15 300.6 1001.55 300.6 1009.3 291.1
M 1009.65 296.45
Q 1009.05 295.95 1008.1 295.95 1006.85 295.95 1006.2 296.75 1005.45 297.55 1005.45 298.7 1005.45 299.65 1006 300.1 1006.55 300.6 1007.5 300.6 1008.8 300.6 1009.5 299.8 1010.2 298.95 1010.2 297.8 1010.2 296.95 1009.65 296.45
M 1008.35 298.95
Q 1008.05 299.65 1007.55 299.65 1007.3 299.65 1007.15 299.45 1007.05 299.3 1007.05 298.95 1007.05 298.7 1007.15 298.05 1007.35 297.45 1007.55 297.2 1007.8 296.95 1008.1 296.95 1008.3 296.95 1008.5 297.1 1008.65 297.25 1008.65 297.55 1008.65 298.3 1008.35 298.95
M 1001.9 291.1
Q 1000.65 291.1 999.95 291.9 999.3 292.7 999.3 293.85 999.3 294.75 999.85 295.25 1000.35 295.75 1001.3 295.75 1002.6 295.75 1003.3 294.95 1004 294.1 1004 292.95 1004 292.05 1003.4 291.6 1002.85 291.1 1001.9 291.1
M 1001.9 292.1
Q 1002.1 292.1 1002.25 292.25 1002.45 292.35 1002.45 292.65 1002.45 293.4 1002.15 294.1 1001.85 294.75 1001.3 294.75 1001.1 294.75 1000.95 294.6 1000.8 294.45 1000.8 294.1 1000.8 293.85 1001 293.2 1001.1 292.55 1001.4 292.35 1001.65 292.1 1001.9 292.1
M 999 284.4
Q 998.5 283.9 997.45 283.9 996.7 283.9 996.2 284.2 995.65 284.5 995.35 285.05 995.05 285.6 995.05 286.2 995.05 286.9 995.55 287.45 996 287.95 997.05 287.95 997.85 287.95 998.4 287.6 998.9 287.3 999.2 286.7 999.45 286.2 999.45 285.65 999.45 284.95 999 284.4
M 997.45 284.9
Q 997.65 284.9 997.85 285.05 998.05 285.2 998.05 285.55 998.05 286.1 997.75 286.5 997.55 286.9 997.1 286.9 996.85 286.9 996.7 286.7 996.5 286.5 996.5 286.2 996.5 285.75 996.7 285.3 996.95 284.9 997.45 284.9
M 995 282.5
L 993.55 282.5 993.3 283.55 994.8 283.55 995 282.5
M 994.7 284
L 993.2 284 992.4 287.85 993.85 287.85 994.7 284
M 1004.15 284.15
Q 1003.9 283.9 1003.35 283.9 1002.45 283.9 1001.85 284.6
L 1001.95 284 1000.6 284 999.75 287.85 1001.25 287.85 1001.6 286.15
Q 1001.75 285.6 1001.95 285.25 1002.25 285 1002.55 285 1002.85 285 1002.85 285.3 1002.85 285.4 1002.7 286.05
L 1002.35 287.85 1003.8 287.85 1004.25 285.75
Q 1004.4 285.05 1004.4 284.8 1004.4 284.4 1004.15 284.15
M 991.25 294.05
Q 990.7 295.45 990.7 296.65 990.7 298.45 991.55 299.35 992.4 300.3 993.8 300.3 995.15 300.3 996.2 299.5 997.2 298.7 997.8 297.35 998.35 295.9 998.35 294.5 998.35 292.85 997.4 291.95 996.4 291.1 995.05 291.1 993.8 291.1 992.8 291.9 991.8 292.65 991.25 294.05
M 996 294
Q 996 294.75 995.75 295.95 995.5 297.15 995.05 297.9 994.6 298.65 994.05 298.65 993.1 298.65 993.1 297.35
L 993.1 297.3
Q 993.1 296.6 993.35 295.4 993.55 294.2 994 293.5 994.45 292.75 995.05 292.75 995.5 292.75 995.75 293.1 996 293.4 996 294
M 984.5 291.6
Q 983.55 292.15 983.2 293.4
L 985.45 293.8
Q 985.65 292.6 986.6 292.6 987.5 292.6 987.5 293.5 987.5 294.8 986 294.8
L 985.8 294.8 985.5 296.4
Q 985.85 296.35 985.95 296.35 986.45 296.35 986.75 296.65 987 297 987 297.45 987 298 986.65 298.4 986.35 298.8 985.75 298.8 984.75 298.8 984.55 297.5
L 982.15 297.8
Q 982.25 298.95 983.1 299.65 983.95 300.3 985.55 300.3 987 300.3 987.85 299.8 988.65 299.25 989.05 298.65 989.4 298.05 989.4 297.4 989.4 296.15 988.2 295.55 989.9 294.85 989.9 293.4 989.9 292.45 989.1 291.8 988.35 291.1 986.8 291.1 985.4 291.1 984.5 291.6
M 976.9 282.5
L 975.4 282.5 975.2 283.55 976.65 283.55 976.9 282.5
M 976.55 284
L 975.1 284 974.25 287.85 975.75 287.85 976.55 284
M 973.65 284.15
Q 973.4 283.9 972.85 283.9 971.95 283.9 971.4 284.6
L 971.35 284.6 971.5 284 970.1 284 969.3 287.85 970.75 287.85 971.1 286.15
Q 971.25 285.6 971.5 285.25 971.75 285 972.05 285 972.35 285 972.35 285.3 972.35 285.4 972.2 286.05
L 971.85 287.85 973.3 287.85 973.75 285.75
Q 973.9 285.05 973.9 284.8 973.9 284.4 973.65 284.15
M 983.55 284.2
Q 983.25 283.9 982.75 283.9 982.35 283.9 982.05 284 981.65 284.2 981.25 284.55 981.15 284.25 980.9 284.05 980.6 283.9 980.2 283.9 979.45 283.9 978.8 284.55
L 978.75 284.55 978.9 284 977.5 284 976.7 287.85 978.2 287.85 978.6 286
Q 978.7 285.45 978.95 285.2 979.2 285 979.45 285 979.75 285 979.75 285.25 979.75 285.35 979.75 285.45 979.7 285.55 979.55 286.2
L 979.2 287.85 980.7 287.85 981.05 286.15
Q 981.15 285.55 981.4 285.25 981.65 285 981.95 285 982.2 285 982.2 285.25 982.2 285.35 982.2 285.45 982.2 285.55 982.05 286.2
L 981.7 287.85 983.2 287.85 983.75 285.3
Q 983.8 285.05 983.8 284.85 983.8 284.45 983.55 284.2
M 990.1 284
L 989.55 284 989.3 285.05 989.85 285.05 989.6 286.35
Q 989.5 286.85 989.5 287 989.5 287.35 989.7 287.65 990 287.95 990.6 287.95 990.95 287.95 991.6 287.85
L 991.8 286.8
Q 991.45 286.85 991.35 286.85 991 286.85 991 286.6 991 286.5 991.05 286.4
L 991.35 285.05 992.1 285.05 992.3 284 991.55 284 991.85 282.55 990.2 283.4 990.1 284
M 986.8 283.9
Q 985.8 283.9 985.35 284.2 984.85 284.5 984.7 285.05
L 986.1 285.15
Q 986.25 284.95 986.4 284.85 986.55 284.8 986.8 284.8 987 284.8 987.2 284.85 987.3 284.95 987.3 285.05 987.3 285.15 987.3 285.35 987.1 285.4 986.45 285.45 985.7 285.55 985.3 285.65 984.9 285.75 984.6 286.05 984.3 286.3 984.3 286.8 984.3 287.25 984.6 287.55 984.95 287.95 985.65 287.95 986.4 287.95 986.95 287.4 986.95 287.6 987 287.85
L 988.45 287.85
Q 988.35 287.55 988.35 287.3 988.35 287 988.55 286.2 988.75 285.35 988.75 285 988.75 284.5 988.35 284.2 987.95 283.9 986.8 283.9
M 985.85 287
Q 985.75 286.9 985.75 286.7 985.75 286.55 985.95 286.4 986.1 286.3 987.1 286.15 987 286.65 986.75 286.9 986.5 287.1 986.2 287.1 986 287.1 985.85 287 Z"/>
</g>
</defs>

<g transform="matrix( 1, 0, 0, 1, -909.7,-119.95) ">
<use xlink:href="#Layer0_0_FILL"/>
</g>

<g transform="matrix( 1, 0, 0, 1, -909.7,-119.95) ">
<use xlink:href="#Layer0_0_MEMBER_0_FILL"/>
</g>

<g transform="matrix( 0.657196044921875, 0, 0, 0.657196044921875, -33.55,98.6) ">
<use xlink:href="#Layer0_0_MEMBER_1_FILL"/>
</g>

<g transform="matrix( 0.657196044921875, 0, 0, 0.657196044921875, -34.95,99.4) ">
<use xlink:href="#Layer0_0_MEMBER_2_FILL"/>
</g>

<g transform="matrix( 0.657196044921875, 0, 0, 0.657196044921875, -27.3,98.6) ">
<use xlink:href="#Layer0_0_MEMBER_3_FILL"/>
</g>

<g transform="matrix( 0.657196044921875, 0, 0, 0.657196044921875, -24.95,98.6) ">
<use xlink:href="#Layer0_0_MEMBER_4_FILL"/>
</g>

<g transform="matrix( 0.657196044921875, 0, 0, 0.657196044921875, -22.15,98.6) ">
<use xlink:href="#Layer0_0_MEMBER_5_FILL"/>
</g>

<g transform="matrix( 0.657196044921875, 0, 0, 0.657196044921875, -23.3,99.4) ">
<use xlink:href="#Layer0_0_MEMBER_6_FILL"/>
</g>

<g transform="matrix( 0.657196044921875, 0, 0, 0.657196044921875, -30.1,115.1) ">
<use xlink:href="#Layer0_0_MEMBER_7_FILL"/>
</g>

<g transform="matrix( 0.657196044921875, 0, 0, 0.657196044921875, -40.9,99.4) ">
<use xlink:href="#Layer0_0_MEMBER_8_FILL"/>
</g>

<g transform="matrix( 1, 0, 0, 1, -909.7,-119.95) ">
<use xlink:href="#Layer0_0_MEMBER_9_FILL"/>
</g>

<g transform="matrix( 1, 0, 0, 1, -909.7,-119.95) ">
<use xlink:href="#Layer0_0_MEMBER_9_MEMBER_0_FILL"/>
</g>

<g transform="matrix( 1, 0, 0, 1, -909.7,-119.95) ">
<use xlink:href="#Layer0_0_MEMBER_10_FILL"/>
</g>

<g transform="matrix( 1, 0, 0, 1, -909.7,-119.95) ">
<use xlink:href="#Layer0_0_MEMBER_11_FILL"/>
</g>

<g transform="matrix( 1, 0, 0, 1, -909.7,-119.95) ">
<use xlink:href="#Layer0_0_MEMBER_12_FILL"/>
</g>

<g transform="matrix( 1, 0, 0, 1, -909.7,-119.95) ">
<use xlink:href="#Layer0_0_MEMBER_13_FILL"/>
</g>

<g transform="matrix( 1, 0, 0, 1, -909.7,-119.95) ">
<use xlink:href="#Layer0_0_MEMBER_14_FILL"/>
</g>

<g transform="matrix( 1, 0, 0, 1, -909.7,-119.95) ">
<use xlink:href="#Layer0_0_MEMBER_15_FILL"/>
</g>

<g transform="matrix( 1, 0, 0, 1, -909.7,-119.95) ">
<use xlink:href="#Layer0_0_MEMBER_16_FILL"/>
</g>

<g transform="matrix( 1, 0, 0, 1, -909.7,-119.95) ">
<use xlink:href="#Layer0_0_MEMBER_17_FILL"/>
</g>

<g transform="matrix( 1, 0, 0, 1, -909.7,-119.95) ">
<use xlink:href="#Layer0_0_MEMBER_18_FILL"/>
</g>

<g transform="matrix( 1, 0, 0, 1, -909.7,-119.95) ">
<use xlink:href="#Layer0_0_MEMBER_19_FILL"/>
</g>

<g transform="matrix( 1, 0, 0, 1, -909.7,-119.95) ">
<use xlink:href="#Layer0_0_MEMBER_20_FILL"/>
</g>

<g transform="matrix( -0.657196044921875, 0, 0, 0.657196044921875, 136.2,113.8) ">
<use xlink:href="#Layer0_0_MEMBER_21_FILL"/>
</g>

<g transform="matrix( -0.657196044921875, 0, 0, 0.657196044921875, 137.2,115.1) ">
<use xlink:href="#Layer0_0_MEMBER_22_FILL"/>
</g>

<g transform="matrix( -0.657196044921875, 0, 0, 0.657196044921875, 130.05,113.8) ">
<use xlink:href="#Layer0_0_MEMBER_23_FILL"/>
</g>

<g transform="matrix( -0.657196044921875, 0, 0, 0.657196044921875, 127.2,113.8) ">
<use xlink:href="#Layer0_0_MEMBER_24_FILL"/>
</g>

<g transform="matrix( -0.657196044921875, 0, 0, 0.657196044921875, 124.6,113.8) ">
<use xlink:href="#Layer0_0_MEMBER_25_FILL"/>
</g>

<g transform="matrix( -0.657196044921875, 0, 0, 0.657196044921875, 125.9,115.1) ">
<use xlink:href="#Layer0_0_MEMBER_26_FILL"/>
</g>

<g transform="matrix( -0.657196044921875, 0, 0, 0.657196044921875, 143.6,115.1) ">
<use xlink:href="#Layer0_0_MEMBER_27_FILL"/>
</g>

<g transform="matrix( -0.657196044921875, 0, 0, 0.657196044921875, 154.6,115.1) ">
<use xlink:href="#Layer0_0_MEMBER_28_FILL"/>
</g>

<g transform="matrix( -0.657196044921875, 0, 0, 0.657196044921875, 146.9,113.8) ">
<use xlink:href="#Layer0_0_MEMBER_29_FILL"/>
</g>

<g transform="matrix( -0.657196044921875, 0, 0, 0.657196044921875, 144.5,113.8) ">
<use xlink:href="#Layer0_0_MEMBER_30_FILL"/>
</g>

<g transform="matrix( -0.657196044921875, 0, 0, 0.657196044921875, 142.2,113.8) ">
<use xlink:href="#Layer0_0_MEMBER_31_FILL"/>
</g>

<g transform="matrix( 1, 0, 0, 1, -909.7,-119.95) ">
<use xlink:href="#Layer0_0_MEMBER_32_FILL"/>
</g>

<g transform="matrix( 1, 0, 0, 1, -909.7,-119.95) ">
<use xlink:href="#Layer0_0_MEMBER_33_FILL"/>
</g>

<g transform="matrix( 1, 0, 0, 1, -909.7,-119.95) ">
<use xlink:href="#Layer0_0_MEMBER_34_FILL"/>
</g>

<g transform="matrix( 1, 0, 0, 1, -909.7,-119.95) ">
<use xlink:href="#Layer0_0_MEMBER_34_MEMBER_0_FILL"/>
</g>

<g transform="matrix( 1, 0, 0, 1, -909.7,-119.95) ">
<use xlink:href="#Layer0_0_MEMBER_34_MEMBER_0_MEMBER_0_FILL"/>
</g>

<g transform="matrix( 1, 0, 0, 1, -909.7,-119.95) ">
<use xlink:href="#Layer0_0_MEMBER_34_MEMBER_0_MEMBER_1_FILL"/>
</g>

<g transform="matrix( 1, 0, 0, 1, -909.7,-119.95) ">
<use xlink:href="#Layer0_0_MEMBER_34_MEMBER_0_MEMBER_2_FILL"/>
</g>
</svg>
