
<svg xmlns="http://www.w3.org/2000/svg" version="1.1" xmlns:xlink="http://www.w3.org/1999/xlink" preserveAspectRatio="none" x="0px" y="0px" width="254px" height="144px" viewBox="0 0 254 144">
<defs>
<g id="Layer0_0_FILL">
<path fill="#669900" stroke="none" d="
M 137.1 2.45
Q 136.05 1.55 134.6 1.15 132 0.45 129.7 1.8 127.35 3.15 126.7 5.7 126.55 6.2 126.5 6.7 126.45 6.2 126.3 5.7 125.6 3.15 123.3 1.8 120.95 0.45 118.4 1.15 116.95 1.55 115.9 2.45
L 125.65 8.1 125.6 8.1 125.6 19.75 127.35 19.75 127.35 8.1 127.3 8.1 137.1 2.45 Z"/>
</g>

<g id="Layer0_1_FILL">
<path fill="#7A503F" stroke="none" d="
M 126.55 14.65
L 126.55 144 253.1 144 126.55 14.65 Z"/>

<path fill="#A96A5E" stroke="none" d="
M 0 144
L 126.55 144 126.55 14.65 0 144 Z"/>
</g>

<g id="Layer0_2_FILL">
<path fill="#FFFFFF" stroke="none" d="
M 141.05 91
L 141.05 89.6 145 89.6 145 87.4 134.05 87.4 134.05 89.6 137.7 89.6 137.7 91 134.3 91 134.3 93.2 137.7 93.2 137.7 94.9 133.35 94.9 133.35 96.95 145.3 96.95 145.3 94.9 141.05 94.9 141.05 93.2 144.6 93.2 144.6 91 141.05 91
M 134.45 80.2
L 134.45 86.45 141.85 86.45
Q 144.5 86.55 144.45 83.8
L 144.45 80.2 134.45 80.2
M 137.4 84.35
L 137.4 82.3 141.55 82.3 141.55 83.5
Q 141.6 84.35 140.7 84.35
L 137.4 84.35
M 132.25 86.4
L 133.8 86.4 133.8 84.35 132.15 84.35 132.15 82.4
Q 133.1 82.3 133.9 82
L 133.9 79.8
Q 132.25 80.3 131 80.3
L 127.4 80.3 127.4 82.4 129.2 82.4 129.2 84.35 127.15 84.35 127.15 86.4 129.05 86.4
Q 128.4 88.95 127 91.6
L 127 94.65
Q 128.5 92.95 129.2 91.75
L 129.2 97.55 132.15 97.55 132.15 90.9
Q 132.8 91.6 133.75 92.55
L 133.75 89.8
Q 132.7 88.35 132.25 86.4
M 130.55 53.6
Q 130.35 54.6 130.15 55.45 130.05 55.45 129.9 55.45 129.5 55.55 129.3 55.45 130.6 53.5 131.6 50
L 128.9 50
Q 128.35 53.35 127.1 55.45
L 127.1 57.7
Q 128.35 57.7 129.3 57.7 128.55 59.2 127.3 60.6
L 127.3 62.95
Q 129.8 62.95 132.25 62.5
L 132.25 60.3 131.55 60.45
Q 130.4359375 60.6 129.8 60.6 132.4 57.9 133.05 53.6
L 130.55 53.6
M 144.6 54.05
L 144.6 51 140.55 51 140.55 50 137.1 50 137.1 51 133.1 51 133.1 58.2
Q 133.1 62.35 132.25 64.35
L 132.25 63.65
Q 129.8 64.2 127.15 64.2
L 127.15 66.4
Q 129.6 66.4 131.95 65.75
L 131.95 67.55
Q 134.1 65.75 134.9 63.65
L 134.9 67.9 137.1 67.9 137.1 63.6 137.7 63.6 137.7 67.15 139.35 67.15 139.35 63.6 140.05 63.6 140.05 67.15 141.7 67.15 141.7 63.6 142.4 63.6 142.4 65.6
Q 142.4 65.9 142.15 65.9
L 141.95 65.9 141.95 67.7 142.55 67.7
Q 144.8 67.8 144.75 65.6
L 144.75 57.5 135.75 57.5 135.75 56.65 141.95 56.65
Q 144.65 56.7 144.6 54.05
M 142.4 59.6
L 142.4 61.55 141.7 61.55 141.7 59.6 142.4 59.6
M 141.95 53.1
L 141.95 53.75
Q 142 54.6 141.05 54.5
L 135.75 54.5 135.75 53.1 141.95 53.1
M 137.1 61.55
L 137.1 59.6 137.7 59.6 137.7 61.55 137.1 61.55
M 139.35 61.55
L 139.35 59.6 140.05 59.6 140.05 61.55 139.35 61.55 Z"/>
</g>
</defs>

<g transform="matrix( 1, 0, 0, 1, 0,0) ">
<use xlink:href="#Layer0_0_FILL"/>
</g>

<g transform="matrix( 1, 0, 0, 1, 0,0) ">
<use xlink:href="#Layer0_1_FILL"/>
</g>

<g transform="matrix( 1, 0, 0, 1, 0,0) ">
<use xlink:href="#Layer0_2_FILL"/>
</g>
</svg>
