
<svg xmlns="http://www.w3.org/2000/svg" version="1.1" xmlns:xlink="http://www.w3.org/1999/xlink" preserveAspectRatio="none" x="0px" y="0px" width="254px" height="242px" viewBox="0 0 254 242">
<defs>
<g id="Layer0_0_MEMBER_0_FILL">
<path fill="#7B7A2E" stroke="none" d="
M 639.3 110.35
L 639.3 351.7 765.85 351.7 639.3 110.35 Z"/>

<path fill="#B4BD6D" stroke="none" d="
M 512.75 351.7
L 639.3 351.7 639.3 110.35 512.75 351.7 Z"/>
</g>

<g id="Layer0_0_MEMBER_1_FILL">
<path fill="#5B3F2D" stroke="none" d="
M 615.45 231.2
L 612 231.15
Q 611.75 231.15 611.5 231.1
L 611.5 231.15 611.5 242.55 616.75 242.55 616.75 231.15 616.75 231.1
Q 616.1 231.15 615.45 231.2 Z"/>

<path fill="#669900" stroke="none" d="
M 629.5 209.9
Q 629.1 208.65 628.5 207.55
L 628.25 207.1
Q 628.1 206.8 631.15 197.15
L 621.75 200.75
Q 619.25 199.35 616.3 199
L 614.3 198.85
Q 614.25 198.85 614.2 198.85 614.15 198.85 614.1 198.85 614.05 198.85 614 198.85 608.3 198.9 604 202.4
L 603.65 202.65
Q 603.1 203.1 602.55 203.65 600.25 205.95 599.15 208.65
L 598.75 209.65
Q 598.25 211 598 212.45
L 598.05 212.45
Q 597.9 213.7 597.9 215.05
L 597.9 215.1
Q 597.9 216.45 598.1 217.7
L 598 217.7
Q 598.25 219.35 598.9 220.85 599.6 222.85 600.85 224.6
L 600.9 224.6 600.95 224.55 601.75 225.55
Q 602.15 226.05 602.65 226.5 603.6 227.45 604.65 228.25
L 604.55 228.3
Q 605.2 228.8 605.95 229.2
L 607.65 230.05
Q 608.3 230.35 609 230.55 609.1 230.6 609.25 230.65 610.35 230.95 611.5 231.15
L 611.5 231.1
Q 611.75 231.15 612 231.15
L 615.45 231.2
Q 616.1 231.15 616.75 231.1
L 616.75 231.15
Q 619.25 230.75 621.45 229.6 621.65 229.5 621.8 229.4
L 622.8 228.8
Q 622.9 228.7 623 228.65 623.2 228.55 623.4 228.4 624.5 227.6 625.55 226.55 629.75 222.35 630.25 216.75
L 630.3 215.05
Q 630.3 214 630.2 213
L 629.5 209.9 Z"/>
</g>

<g id="Layer0_0_MEMBER_2_FILL">
<path fill="#5B3F2D" stroke="none" d="
M 583.4 285.65
L 583.4 285.7 583.4 297.1 588.65 297.1 588.65 285.7 588.65 285.65
Q 588 285.7 587.35 285.75
L 583.9 285.7
Q 583.65 285.7 583.4 285.65 Z"/>

<path fill="#669900" stroke="none" d="
M 603.05 251.7
L 593.65 255.3
Q 591.15 253.9 588.2 253.55
L 586.2 253.4
Q 586.15 253.4 586.1 253.4 586.05 253.4 586 253.4 585.95 253.4 585.9 253.4 580.2 253.45 575.9 256.95
L 575.55 257.2
Q 575 257.65 574.45 258.2 572.15 260.5 571.05 263.2
L 570.65 264.2
Q 570.15 265.55 569.9 267
L 569.95 267
Q 569.8 268.25 569.8 269.6
L 569.8 269.65
Q 569.8 271 570 272.25
L 569.9 272.25
Q 570.15 273.9 570.8 275.4 571.5 277.4 572.75 279.15
L 572.8 279.15 572.85 279.1 573.65 280.1
Q 574.05 280.6 574.55 281.05 575.5 282 576.55 282.8
L 576.45 282.85
Q 577.1 283.35 577.85 283.75
L 579.55 284.6
Q 580.2 284.9 580.9 285.1 581 285.15 581.15 285.2 582.25 285.5 583.4 285.7
L 583.4 285.65
Q 583.65 285.7 583.9 285.7
L 587.35 285.75
Q 588 285.7 588.65 285.65
L 588.65 285.7
Q 591.15 285.3 593.35 284.15 593.55 284.05 593.7 283.95
L 594.7 283.35
Q 594.8 283.25 594.9 283.2 595.1 283.1 595.3 282.95 596.4 282.15 597.45 281.1 601.65 276.9 602.15 271.3
L 602.2 269.6
Q 602.2 268.55 602.1 267.55
L 601.4 264.45
Q 601 263.2 600.4 262.1
L 600.15 261.65
Q 600 261.35 603.05 251.7 Z"/>
</g>

<g id="Layer0_0_MEMBER_3_FILL">
<path fill="#5B3F2D" stroke="none" d="
M 555.35 340.25
L 555.35 340.3 555.35 351.7 560.6 351.7 560.6 340.3 560.6 340.25
Q 559.95 340.3 559.3 340.35
L 555.85 340.3
Q 555.6 340.3 555.35 340.25 Z"/>

<path fill="#669900" stroke="none" d="
M 565.6 309.9
Q 563.1 308.5 560.15 308.15
L 558.15 308
Q 558.1 308 558.05 308 558 308 557.95 308 557.9 308 557.85 308 552.15 308.05 547.85 311.55
L 547.5 311.8
Q 546.95 312.25 546.4 312.8 544.1 315.1 543 317.8
L 542.6 318.8
Q 542.1 320.15 541.85 321.6
L 541.9 321.6
Q 541.75 322.85 541.75 324.2
L 541.75 324.25
Q 541.75 325.6 541.95 326.85
L 541.85 326.85
Q 542.1 328.5 542.75 330 543.45 332 544.7 333.75
L 544.75 333.75 544.8 333.7 545.6 334.7
Q 546 335.2 546.5 335.65 547.45 336.6 548.5 337.4
L 548.4 337.45
Q 549.05 337.95 549.8 338.35
L 551.5 339.2
Q 552.15 339.5 552.85 339.7 552.95 339.75 553.1 339.8 554.2 340.1 555.35 340.3
L 555.35 340.25
Q 555.6 340.3 555.85 340.3
L 559.3 340.35
Q 559.95 340.3 560.6 340.25
L 560.6 340.3
Q 563.1 339.9 565.3 338.75 565.5 338.65 565.65 338.55
L 566.65 337.95
Q 566.75 337.85 566.85 337.8 567.05 337.7 567.25 337.55 568.35 336.75 569.4 335.7 573.6 331.5 574.1 325.9
L 574.15 324.2
Q 574.15 323.15 574.05 322.15
L 573.35 319.05
Q 572.95 317.8 572.35 316.7
L 572.1 316.25
Q 571.95 315.95 575 306.3
L 565.6 309.9 Z"/>
</g>

<g id="Layer0_0_MEMBER_4_FILL">
<path fill="#5B3F2D" stroke="none" d="
M 611.5 340.25
L 611.5 340.3 611.5 351.7 616.75 351.7 616.75 340.3 616.75 340.25
Q 616.1 340.3 615.45 340.35
L 612 340.3
Q 611.75 340.3 611.5 340.25 Z"/>

<path fill="#669900" stroke="none" d="
M 628.5 316.7
L 628.25 316.25
Q 628.1 315.95 631.15 306.3
L 621.75 309.9
Q 619.25 308.5 616.3 308.15
L 614.3 308
Q 614.25 308 614.2 308 614.15 308 614.1 308 614.05 308 614 308 608.3 308.05 604 311.55
L 603.65 311.8
Q 603.1 312.25 602.55 312.8 600.25 315.1 599.15 317.8
L 598.75 318.8
Q 598.25 320.15 598 321.6
L 598.05 321.6
Q 597.9 322.85 597.9 324.2
L 597.9 324.25
Q 597.9 325.6 598.1 326.85
L 598 326.85
Q 598.25 328.5 598.9 330 599.6 332 600.85 333.75
L 600.9 333.75 600.95 333.7 601.75 334.7
Q 602.15 335.2 602.65 335.65 603.6 336.6 604.65 337.4
L 604.55 337.45
Q 605.2 337.95 605.95 338.35
L 607.65 339.2
Q 608.3 339.5 609 339.7 609.1 339.75 609.25 339.8 610.35 340.1 611.5 340.3
L 611.5 340.25
Q 611.75 340.3 612 340.3
L 615.45 340.35
Q 616.1 340.3 616.75 340.25
L 616.75 340.3
Q 619.25 339.9 621.45 338.75 621.65 338.65 621.8 338.55
L 622.8 337.95
Q 622.9 337.85 623 337.8 623.2 337.7 623.4 337.55 624.5 336.75 625.55 335.7 629.75 331.5 630.25 325.9
L 630.3 324.2
Q 630.3 323.15 630.2 322.15
L 629.5 319.05
Q 629.1 317.8 628.5 316.7 Z"/>
</g>

<g id="Layer0_0_MEMBER_5_FILL">
<path fill="#FFFFFF" stroke="none" d="
M 136.6 147.95
L 127.25 145.95 127.25 149.55 131.3 150.4
Q 132.7 150.7 133.45 151.3 134.2 151.9 134.2 152.7 134.2 153.4 133.4 153.4 133.15 153.4 131.6 153.05
L 127.25 152.15 127.25 155.7 132.35 156.8
Q 134 157.15 134.55 157.15 135.5 157.15 136.15 156.5 136.8 155.9 136.8 154.6 136.8 152.5 135.15 151
L 136.6 151.3 136.6 147.95
M 131.25 134.45
Q 129.45 134.45 128.25 135.65 127.05 136.8 127.05 139.25 127.05 141.2 127.8 142.5 128.6 143.85 129.95 144.5 131.25 145.15 132.55 145.15 134.25 145.15 135.5 144 136.8 142.85 136.8 140.35 136.8 138.5 136.05 137.2 135.3 135.85 134 135.15 132.65 134.45 131.25 134.45
M 129.45 139.5
Q 129.45 138.85 129.95 138.4 130.5 137.95 131.25 137.95 132.3 137.95 133.35 138.5 134.4 139.1 134.4 140.2 134.4 140.75 134 141.2 133.65 141.65 132.75 141.65 131.5 141.65 130.45 141.05 129.45 140.5 129.45 139.5
M 137.65 133.85
L 140.15 134.35 140.15 130.8 137.65 130.3 137.65 133.85
M 136.6 133.65
L 136.6 130.05 127.25 128.05 127.25 131.65 136.6 133.65
M 129.3 121.05
Q 128.45 121.05 127.75 121.65 127.05 122.3 127.05 123.8 127.05 124.55 127.25 126.15
L 129.8 126.7
Q 129.65 125.85 129.65 125.6 129.65 124.75 130.25 124.75 130.5 124.75 130.7 124.85
L 134 125.5 134 127.4 136.6 127.95 136.6 126.1 140.05 126.8 138.05 122.8 136.6 122.5 136.6 121.2 134 120.65 134 121.95 130.85 121.3
Q 129.6 121.05 129.3 121.05
M 132.55 110.9
Q 132.3 109.9 131.65 109.2 131 108.5 129.75 108.5 128.7 108.5 127.85 109.25 127.05 110.05 127.05 111.8 127.05 113.55 128.3 114.95 127.8 114.95 127.25 115.05
L 127.25 118.55
Q 127.9 118.35 128.55 118.35 129.3 118.35 131.2 118.8 133.2 119.25 134.1 119.25 135.4 119.25 136.1 118.3 136.8 117.35 136.8 114.6 136.8 112.15 136.05 111 135.35 109.85 134 109.5
L 133.65 112.85
Q 134.3 113.15 134.5 113.55 134.7 113.9 134.7 114.55 134.7 115.1 134.45 115.5 134.25 115.85 133.9 115.85 133.7 115.85 133.3 115.7 133.1 115.2 132.95 113.65 132.8 111.9 132.55 110.9
M 131.4 115.35
Q 130.1 115.1 129.55 114.45 129 113.75 129 113.1 129 112.6 129.25 112.3 129.5 112 129.95 112 130.4 112 130.7 112.45 131 112.85 131.4 115.35
M 134.7 104.9
L 134.75 104.85 136.6 105.25 136.6 101.9 127.25 99.95 127.25 103.5 130.75 104.25
Q 132.35 104.6 133.1 105.25 133.85 105.9 133.85 106.9 133.85 107.25 133.75 107.65
L 136.5 109
Q 136.8 108.3 136.8 107.75 136.8 107 136.35 106.35 135.95 105.75 134.7 104.9
M 130.85 93.3
Q 129.6 93.05 129.3 93.05 128.45 93.05 127.75 93.65 127.05 94.3 127.05 95.8 127.05 96.55 127.25 98.15
L 129.8 98.7
Q 129.65 97.85 129.65 97.6 129.65 96.75 130.25 96.75 130.5 96.75 130.7 96.85
L 134 97.5 134 99.4 136.6 99.95 136.6 98.1 140.05 98.8 138.05 94.8 136.6 94.5 136.6 93.2 134 92.65 134 93.95 130.85 93.3
M 136.35 84.45
Q 135.9 83.35 135.1 82.8 134.3 82.25 133.5 82.25 132.5 82.25 131.85 83 131.2 83.7 130.85 85.8 130.7 86.7 130.55 87.05 130.4 87.35 130 87.35 129.5 87.35 129.25 86.9 129 86.45 129 85.85 129 84.6 130.15 84.35
L 129.85 80.85
Q 128.35 81 127.7 82.05 127.05 83.1 127.05 85.3 127.05 88.05 128.05 89.4 129.05 90.7 130.5 90.7 131.55 90.7 132.15 90.05 132.8 89.35 133.1 87.3 133.3 86 133.5 85.7 133.7 85.4 134.05 85.4 134.35 85.4 134.6 85.75 134.85 86.1 134.85 86.75 134.85 87.85 134 88
L 134.35 91.35
Q 135.7 91.1 136.25 90.1 136.8 89.1 136.8 87.2 136.8 85.6 136.35 84.45
M 131.6 69.9
Q 129.85 69.55 129.25 69.55 128.35 69.55 127.7 70.2 127.05 70.8 127.05 72.1 127.05 74.25 128.7 75.7
L 128.65 75.75 127.25 75.4 127.25 78.75 136.6 80.75 136.6 77.15 132.55 76.3
Q 131.15 76 130.4 75.4 129.7 74.8 129.7 74 129.7 73.3 130.45 73.3 130.7 73.3 130.85 73.35 131 73.35 132 73.6
L 136.6 74.55 136.6 71 131.6 69.9
M 127.25 63.05
L 127.25 66.65 140.15 69.35 140.15 65.8 127.25 63.05
M 140.15 63.35
L 140.15 59.8 127.25 57.05 127.25 60.65 140.15 63.35
M 140.15 57.1
L 140.15 53.05 127.25 50.3 127.25 54.35 140.15 57.1 Z"/>
</g>
</defs>

<g transform="matrix( 1, 0, 0, 1, -512.75,-109.7) ">
<use xlink:href="#Layer0_0_MEMBER_0_FILL"/>
</g>

<g transform="matrix( 1, 0, 0, 1, -512.75,-109.7) ">
<use xlink:href="#Layer0_0_MEMBER_1_FILL"/>
</g>

<g transform="matrix( 1, 0, 0, 1, -512.75,-109.7) ">
<use xlink:href="#Layer0_0_MEMBER_2_FILL"/>
</g>

<g transform="matrix( 1, 0, 0, 1, -512.75,-109.7) ">
<use xlink:href="#Layer0_0_MEMBER_3_FILL"/>
</g>

<g transform="matrix( 1, 0, 0, 1, -512.75,-109.7) ">
<use xlink:href="#Layer0_0_MEMBER_4_FILL"/>
</g>

<g transform="matrix( 1, 0, 0, 1, 0,0) ">
<use xlink:href="#Layer0_0_MEMBER_5_FILL"/>
</g>
</svg>
