
<svg xmlns="http://www.w3.org/2000/svg" version="1.1" xmlns:xlink="http://www.w3.org/1999/xlink" preserveAspectRatio="none" x="0px" y="0px" width="254px" height="144px" viewBox="0 0 254 144">
<defs>
<g id="Layer0_0_MEMBER_0_FILL">
<path fill="#669900" stroke="none" d="
M 260.35 231.7
Q 257.75 231 255.45 232.35 253.1 233.7 252.45 236.25 252.3 236.75 252.25 237.25 252.2 236.75 252.05 236.25 251.35 233.7 249.05 232.35 246.7 231 244.15 231.7 242.7 232.1 241.65 233
L 251.4 238.65 251.35 238.65 251.35 250.3 253.1 250.3 253.1 238.65 253.05 238.65 262.85 233
Q 261.8 232.1 260.35 231.7 Z"/>
</g>

<g id="Layer0_0_MEMBER_1_FILL">
<path fill="#A96A5E" stroke="none" d="
M 252.3 374.55
L 252.3 245.2 125.75 374.55 252.3 374.55 Z"/>

<path fill="#7A503F" stroke="none" d="
M 252.3 245.2
L 252.3 374.55 378.85 374.55 252.3 245.2 Z"/>
</g>

<g id="Layer0_0_MEMBER_2_FILL">
<path fill="#FFFFFF" stroke="none" d="
M 128.9 98
Q 128.9 96.5 130.8 96.35
L 130.8 103.45
Q 132.1 103.7 132.65 103.7 134.3 103.7 135.45 102.55 136.6 101.4 136.6 98.8 136.6 97.6 136.3 96.7 136.05 95.8 135.3 94.85 134.55 93.9 133.45 93.4 132.35 92.85 131.1 92.85 129.3 92.85 128.05 94 126.85 95.15 126.85 97.9 126.85 99.8 127.45 101.1 128.05 102.35 129.45 103.1
L 129.75 99.65
Q 128.9 99.05 128.9 98
M 132.55 96.65
Q 133.5 96.95 134 97.5 134.5 98.05 134.5 98.7 134.5 99.35 134.15 99.75 133.75 100.2 133.05 100.2 132.7 100.2 132.55 100.15
L 132.55 96.65
M 136.6 85.3
Q 136.6 83.35 134.85 82.1 133.1 80.85 130.7 80.85 128.95 80.85 127.9 81.65 126.85 82.5 126.85 84.1 126.85 84.95 127.1 85.55 127.3 86.15 128.05 86.9
L 128 86.95 127.05 86.75 127.05 90.1 139.95 92.85 139.95 89.25 135.15 88.25
Q 136.6 87.25 136.6 85.3
M 133.2 84.9
Q 134.2 85.45 134.2 86.25 134.2 86.75 133.8 87.2 133.4 87.6 132.55 87.6 131.4 87.6 130.3 87.05 129.2 86.55 129.2 85.55 129.2 85 129.6 84.65 130 84.3 130.8 84.3 132.2 84.3 133.2 84.9
M 131.05 68.8
Q 129.25 68.8 128.05 70 126.85 71.15 126.85 73.6 126.85 75.55 127.6 76.85 128.4 78.2 129.75 78.85 131.05 79.5 132.35 79.5 134.05 79.5 135.3 78.35 136.6 77.2 136.6 74.7 136.6 72.85 135.85 71.55 135.1 70.2 133.8 69.5 132.45 68.8 131.05 68.8
M 129.75 72.75
Q 130.3 72.3 131.05 72.3 132.1 72.3 133.15 72.85 134.2 73.45 134.2 74.55 134.2 75.1 133.8 75.55 133.45 76 132.55 76 131.3 76 130.25 75.4 129.25 74.85 129.25 73.85 129.25 73.2 129.75 72.75
M 139.05 58.8
Q 137.95 57.1 136.05 56.25 134.15 55.35 132.25 55.35 129.8 55.35 128.3 56.85 126.85 58.3 126.85 61.1 126.85 63.75 128.2 65.4 129.55 67.1 131.55 67.65
L 132.15 63.95
Q 130.95 63.45 130.35 62.85 129.75 62.2 129.75 61.3 129.75 60.3 130.4 59.8 131.05 59.25 132 59.25 133.25 59.25 134.6 59.75 135.95 60.25 136.55 61.1 137.2 61.95 137.2 62.8 137.2 63.5 136.75 64.05 136.3 64.6 135.35 64.6
L 135.3 64.6 135.7 68.3
Q 137.7 68.05 138.95 66.65 140.15 65.25 140.15 62.8 140.15 60.45 139.05 58.8 Z"/>
</g>
</defs>

<g transform="matrix( 1, 0, 0, 1, -125.75,-230.55) ">
<use xlink:href="#Layer0_0_MEMBER_0_FILL"/>
</g>

<g transform="matrix( 1, 0, 0, 1, -125.75,-230.55) ">
<use xlink:href="#Layer0_0_MEMBER_1_FILL"/>
</g>

<g transform="matrix( 1, 0, 0, 1, 0,0) ">
<use xlink:href="#Layer0_0_MEMBER_2_FILL"/>
</g>
</svg>
