
<svg xmlns="http://www.w3.org/2000/svg" version="1.1" xmlns:xlink="http://www.w3.org/1999/xlink" preserveAspectRatio="none" x="0px" y="0px" width="254px" height="242px" viewBox="0 0 254 242">
<defs>
<g id="Layer0_0_FILL">
<path fill="#7B7A2E" stroke="none" d="
M 126.55 242
L 253.1 242 126.55 0.65 126.55 242 Z"/>

<path fill="#B4BD6D" stroke="none" d="
M 0 242
L 126.55 242 126.55 0.65 0 242 Z"/>
</g>

<g id="Layer0_1_FILL">
<path fill="#5B3F2D" stroke="none" d="
M 104 121.45
L 104 121.4
Q 103.35 121.45 102.7 121.5
L 99.25 121.45
Q 99 121.45 98.75 121.4
L 98.75 121.45 98.75 132.85 104 132.85 104 121.45 Z"/>

<path fill="#669900" stroke="none" d="
M 89.8 93.95
Q 87.5 96.25 86.4 98.95
L 86 99.95
Q 85.5 101.3 85.25 102.75
L 85.3 102.75
Q 85.15 104 85.15 105.35
L 85.15 105.4
Q 85.15 106.75 85.35 108
L 85.25 108
Q 85.5 109.65 86.15 111.15 86.85 113.15 88.1 114.9
L 88.15 114.9 88.2 114.85 89 115.85
Q 89.4 116.35 89.9 116.8 90.85 117.75 91.9 118.55
L 91.8 118.6
Q 92.45 119.1 93.2 119.5
L 94.9 120.35
Q 95.55 120.65 96.25 120.85 96.35 120.9 96.5 120.95 97.6 121.25 98.75 121.45
L 98.75 121.4
Q 99 121.45 99.25 121.45
L 102.7 121.5
Q 103.35 121.45 104 121.4
L 104 121.45
Q 106.5 121.05 108.7 119.9 108.9 119.8 109.05 119.7
L 110.05 119.1
Q 110.15 119 110.25 118.95 110.45 118.85 110.65 118.7 111.75 117.9 112.8 116.85 117 112.65 117.5 107.05
L 117.55 105.35
Q 117.55 104.3 117.45 103.3
L 116.75 100.2
Q 116.35 98.95 115.75 97.85
L 115.5 97.4
Q 115.35 97.1 118.4 87.45
L 109 91.05
Q 106.5 89.65 103.55 89.3
L 101.55 89.15
Q 101.5 89.15 101.45 89.15 101.4 89.15 101.35 89.15 101.3 89.15 101.25 89.15 95.55 89.2 91.25 92.7
L 90.9 92.95
Q 90.35 93.4 89.8 93.95 Z"/>
</g>

<g id="Layer0_2_FILL">
<path fill="#5B3F2D" stroke="none" d="
M 75.9 176
L 75.9 175.95
Q 75.25 176 74.6 176.05
L 71.15 176
Q 70.9 176 70.65 175.95
L 70.65 176 70.65 187.4 75.9 187.4 75.9 176 Z"/>

<path fill="#669900" stroke="none" d="
M 75.45 143.85
L 73.45 143.7
Q 73.4 143.7 73.35 143.7 73.3 143.7 73.25 143.7 73.2 143.7 73.15 143.7 67.45 143.75 63.15 147.25
L 62.8 147.5
Q 62.25 147.95 61.7 148.5 59.4 150.8 58.3 153.5
L 57.9 154.5
Q 57.4 155.85 57.15 157.3
L 57.2 157.3
Q 57.05 158.55 57.05 159.9
L 57.05 159.95
Q 57.05 161.3 57.25 162.55
L 57.15 162.55
Q 57.4 164.2 58.05 165.7 58.75 167.7 60 169.45
L 60.05 169.45 60.1 169.4 60.9 170.4
Q 61.3 170.9 61.8 171.35 62.75 172.3 63.8 173.1
L 63.7 173.15
Q 64.35 173.65 65.1 174.05
L 66.8 174.9
Q 67.45 175.2 68.15 175.4 68.25 175.45 68.4 175.5 69.5 175.8 70.65 176
L 70.65 175.95
Q 70.9 176 71.15 176
L 74.6 176.05
Q 75.25 176 75.9 175.95
L 75.9 176
Q 78.4 175.6 80.6 174.45 80.8 174.35 80.95 174.25
L 81.95 173.65
Q 82.05 173.55 82.15 173.5 82.35 173.4 82.55 173.25 83.65 172.45 84.7 171.4 88.9 167.2 89.4 161.6
L 89.45 159.9
Q 89.45 158.85 89.35 157.85
L 88.65 154.75
Q 88.25 153.5 87.65 152.4
L 87.4 151.95
Q 87.25 151.65 90.3 142
L 80.9 145.6
Q 78.4 144.2 75.45 143.85 Z"/>
</g>

<g id="Layer0_3_FILL">
<path fill="#5B3F2D" stroke="none" d="
M 46.55 230.65
L 43.1 230.6
Q 42.85 230.6 42.6 230.55
L 42.6 230.6 42.6 242 47.85 242 47.85 230.6 47.85 230.55
Q 47.2 230.6 46.55 230.65 Z"/>

<path fill="#669900" stroke="none" d="
M 61.4 214.5
Q 61.4 213.45 61.3 212.45
L 60.6 209.35
Q 60.2 208.1 59.6 207
L 59.35 206.55
Q 59.2 206.25 62.25 196.6
L 52.85 200.2
Q 50.35 198.8 47.4 198.45
L 45.4 198.3
Q 45.35 198.3 45.3 198.3 45.25 198.3 45.2 198.3 45.15 198.3 45.1 198.3 39.4 198.35 35.1 201.85
L 34.75 202.1
Q 34.2 202.55 33.65 203.1 31.35 205.4 30.25 208.1
L 29.85 209.1
Q 29.35 210.45 29.1 211.9
L 29.15 211.9
Q 29 213.15 29 214.5
L 29 214.55
Q 29 215.9 29.2 217.15
L 29.1 217.15
Q 29.35 218.8 30 220.3 30.7 222.3 31.95 224.05
L 32 224.05 32.05 224 32.85 225
Q 33.25 225.5 33.75 225.95 34.7 226.9 35.75 227.7
L 35.65 227.75
Q 36.3 228.25 37.05 228.65
L 38.75 229.5
Q 39.4 229.8 40.1 230 40.2 230.05 40.35 230.1 41.45 230.4 42.6 230.6
L 42.6 230.55
Q 42.85 230.6 43.1 230.6
L 46.55 230.65
Q 47.2 230.6 47.85 230.55
L 47.85 230.6
Q 50.35 230.2 52.55 229.05 52.75 228.95 52.9 228.85
L 53.9 228.25
Q 54 228.15 54.1 228.1 54.3 228 54.5 227.85 55.6 227.05 56.65 226 60.85 221.8 61.35 216.2
L 61.4 214.5 Z"/>
</g>

<g id="Layer0_4_FILL">
<path fill="#5B3F2D" stroke="none" d="
M 99.25 230.6
Q 99 230.6 98.75 230.55
L 98.75 230.6 98.75 242 104 242 104 230.6 104 230.55
Q 103.35 230.6 102.7 230.65
L 99.25 230.6 Z"/>

<path fill="#669900" stroke="none" d="
M 115.75 207
L 115.5 206.55
Q 115.35 206.25 118.4 196.6
L 109 200.2
Q 106.5 198.8 103.55 198.45
L 101.55 198.3
Q 101.5 198.3 101.45 198.3 101.4 198.3 101.35 198.3 101.3 198.3 101.25 198.3 95.55 198.35 91.25 201.85
L 90.9 202.1
Q 90.35 202.55 89.8 203.1 87.5 205.4 86.4 208.1
L 86 209.1
Q 85.5 210.45 85.25 211.9
L 85.3 211.9
Q 85.15 213.15 85.15 214.5
L 85.15 214.55
Q 85.15 215.9 85.35 217.15
L 85.25 217.15
Q 85.5 218.8 86.15 220.3 86.85 222.3 88.1 224.05
L 88.15 224.05 88.2 224 89 225
Q 89.4 225.5 89.9 225.95 90.85 226.9 91.9 227.7
L 91.8 227.75
Q 92.45 228.25 93.2 228.65
L 94.9 229.5
Q 95.55 229.8 96.25 230 96.35 230.05 96.5 230.1 97.6 230.4 98.75 230.6
L 98.75 230.55
Q 99 230.6 99.25 230.6
L 102.7 230.65
Q 103.35 230.6 104 230.55
L 104 230.6
Q 106.5 230.2 108.7 229.05 108.9 228.95 109.05 228.85
L 110.05 228.25
Q 110.15 228.15 110.25 228.1 110.45 228 110.65 227.85 111.75 227.05 112.8 226 117 221.8 117.5 216.2
L 117.55 214.5
Q 117.55 213.45 117.45 212.45
L 116.75 209.35
Q 116.35 208.1 115.75 207 Z"/>
</g>

<g id="Layer0_5_FILL">
<path fill="#FFFFFF" stroke="none" d="
M 138.35 94.2
Q 140.75 94.2 140.75 91.35
L 140.75 84.15 131 84.15 131 94.2 138.35 94.2
M 133.65 86.15
L 134.7 86.15 134.7 88.15 133.65 88.15 133.65 86.15
M 137.1 86.15
L 138.1 86.15 138.1 88.15 137.1 88.15 137.1 86.15
M 138.1 91.25
Q 138.1 92.2 137.35 92.2
L 137.1 92.2 137.1 90.15 138.1 90.15 138.1 91.25
M 134.7 90.15
L 134.7 92.2 133.65 92.2 133.65 90.15 134.7 90.15
M 126.95 80.95
L 126.95 83.2 144.85 83.2 144.85 80.95 126.95 80.95
M 130.3 84.55
L 127.5 84.55 127.5 97.4 141.5 97.4
Q 144.5 97.5 144.35 94.75
L 144.35 84.75 141.5 84.75 141.5 94.15
Q 141.55 95.4 140.4 95.3
L 130.3 95.3 130.3 84.55
M 132.25 55
L 132.25 52.8 131.25 52.8 131.25 50.65 128.25 50.65 128.25 52.8 126.95 52.8 126.95 55 128.25 55 128.25 58.85
Q 128.05 58.9 127.5 58.9 126.95 59 126.7 59
L 126.7 61.55
Q 127.55 61.4 128.25 61.35
L 128.25 65.7
Q 128.25 66.4 127.55 66.4
L 127.25 66.4 127.25 68.45 128.5 68.45
Q 131.3 68.45 131.25 65.85
L 131.25 60.4
Q 131.7 60.15 132.35 59.95
L 132.35 57.8
Q 132.1 57.9 131.65 58 131.4 58.15 131.25 58.15
L 131.25 55 132.25 55
M 144.45 65.25
L 144.45 58 140.6 58 140.6 60.1 141.65 60.1 141.65 61.8 140.55 61.8 140.55 63.85 141.65 63.85 141.65 65.15
Q 141.7 66.2 140.75 66.1
L 140.15 66.1 140.15 56.95 144.85 56.95 144.85 54.85 140.15 54.85 140.15 53.55 140.3 53.55
Q 142.35 53.55 144.5 53.05
L 144.5 50.7
Q 142.55 51.35 140.15 51.35
L 132.9 51.35 132.9 53.55 137.2 53.55 137.2 54.85 132.55 54.85 132.55 56.95 137.2 56.95 137.2 66.1 135.55 66.1 135.55 63.85 136.85 63.85 136.85 61.8 135.55 61.8 135.55 60.1 135.85 60.1
Q 136.3 60.1 136.85 59.8
L 136.85 57.6
Q 136.15 57.8 135.7 57.8
L 132.8 57.8 132.8 68.15 141.65 68.15
Q 144.5 68.2 144.45 65.25 Z"/>
</g>
</defs>

<g transform="matrix( 1, 0, 0, 1, 0,0) ">
<use xlink:href="#Layer0_0_FILL"/>
</g>

<g transform="matrix( 1, 0, 0, 1, 0,0) ">
<use xlink:href="#Layer0_1_FILL"/>
</g>

<g transform="matrix( 1, 0, 0, 1, 0,0) ">
<use xlink:href="#Layer0_2_FILL"/>
</g>

<g transform="matrix( 1, 0, 0, 1, 0,0) ">
<use xlink:href="#Layer0_3_FILL"/>
</g>

<g transform="matrix( 1, 0, 0, 1, 0,0) ">
<use xlink:href="#Layer0_4_FILL"/>
</g>

<g transform="matrix( 1, 0, 0, 1, 0,0) ">
<use xlink:href="#Layer0_5_FILL"/>
</g>
</svg>
