
<svg xmlns="http://www.w3.org/2000/svg" version="1.1" xmlns:xlink="http://www.w3.org/1999/xlink" preserveAspectRatio="none" x="0px" y="0px" width="254px" height="375px" viewBox="0 0 254 375">
<defs>
<g id="Layer1_0_FILL">
<path fill="#AF4B4B" stroke="none" d="
M 126.55 50.45
L 109.65 50.45 0 375 126.55 375 126.55 50.45 Z"/>

<path fill="#FFFFFF" stroke="none" d="
M 126.55 0.4
L 109.65 50.45 126.55 50.45 126.55 0.4 Z"/>

<path fill="#852D2D" stroke="none" d="
M 143.45 50.45
L 126.55 50.45 126.55 375 253.1 375 143.45 50.45 Z"/>

<path fill="#CCCCCC" stroke="none" d="
M 126.55 50.45
L 143.45 50.45 126.55 0.4 126.55 50.45 Z"/>
</g>

<g id="Layer1_1_FILL">
<path fill="#9F9F9F" stroke="none" d="
M 100.2 186.95
L 105.65 186.95 105.65 171.15 100.2 171.15 100.2 186.95 Z"/>

<path fill="#FFFFFF" stroke="none" d="
M 105.65 171.15
L 116.95 171.15 111.25 161.3 116.95 161.3 111.25 151.45 116.95 151.45 102.85 127.1 88.85 151.45 94.55 151.45 88.85 161.3 94.55 161.3 88.85 171.15 100.2 171.15 105.65 171.15 Z"/>
</g>

<g id="Layer1_2_FILL">
<path fill="#9F9F9F" stroke="none" d="
M 155.7 222.3
L 161.15 222.3 161.15 206.5 155.7 206.5 155.7 222.3 Z"/>

<path fill="#FFFFFF" stroke="none" d="
M 166.75 186.8
L 172.45 186.8 158.35 162.45 144.35 186.8 150.05 186.8 144.35 196.65 150.05 196.65 144.35 206.5 155.7 206.5 161.15 206.5 172.45 206.5 166.75 196.65 172.45 196.65 166.75 186.8 Z"/>
</g>

<g id="Layer1_3_FILL">
<path fill="#9F9F9F" stroke="none" d="
M 83.6 257.6
L 83.6 241.8 78.15 241.8 78.15 257.6 83.6 257.6 Z"/>

<path fill="#FFFFFF" stroke="none" d="
M 89.2 222.1
L 94.9 222.1 80.8 197.75 66.8 222.1 72.5 222.1 66.8 231.95 72.5 231.95 66.8 241.8 78.15 241.8 83.6 241.8 94.9 241.8 89.2 231.95 94.9 231.95 89.2 222.1 Z"/>
</g>

<g id="Layer0_0_FILL">
<path fill="#FFFFFF" stroke="none" d="
M 140.85 109.65
L 140.85 102.45 131.1 102.45 131.1 112.5 138.45 112.5
Q 140.85 112.5 140.85 109.65
M 137.2 104.45
L 138.2 104.45 138.2 106.45 137.2 106.45 137.2 104.45
M 133.75 104.45
L 134.8 104.45 134.8 106.45 133.75 106.45 133.75 104.45
M 133.75 110.5
L 133.75 108.45 134.8 108.45 134.8 110.5 133.75 110.5
M 137.45 110.5
L 137.2 110.5 137.2 108.45 138.2 108.45 138.2 109.55
Q 138.2 110.5 137.45 110.5
M 144.45 113.05
L 144.45 103.05 141.6 103.05 141.6 112.45
Q 141.65 113.7 140.5 113.6
L 130.4 113.6 130.4 102.85 127.6 102.85 127.6 115.7 141.6 115.7
Q 144.6 115.8 144.45 113.05
M 144.95 101.5
L 144.95 99.25 127.05 99.25 127.05 101.5 144.95 101.5
M 135.8 71.2
L 135.8 73.4 137.05 73.4
Q 137.05 80.75 135.65 83.4 135.1 80.8 134.3 78.6
L 131.9 78.6
Q 131.95 78.95 132.1 79.55 132.6 81.35 132.75 82.15 131.4 82.3 129.8 82.3 131.5 80.1 132.3 76.75
L 135.65 76.75 135.65 74.55 126.8 74.55 126.8 76.75 129 76.75
Q 128.55 79.5 126.95 82.3
L 126.95 84.7
Q 130.65 84.7 133.15 84.35 133.15 84.7 133.2 84.95
L 135.25 84.95 135.25 87
Q 138.15 84.5 139 81.85 140 79.15 140.1 73.4
L 141.6 73.4 141.6 83.6
Q 141.6 84.5 140.8 84.5
L 139.6 84.5 139.6 86.5 141.9 86.5
Q 144.8 86.6 144.7 83.6
L 144.7 71.2 140.15 71.2 140.15 68.8 137.05 68.8 137.05 71.2 135.8 71.2
M 127.75 69.85
L 127.75 72.05 135.1 72.05 135.1 69.85 127.75 69.85 Z"/>
</g>
</defs>

<g transform="matrix( 1, 0, 0, 1, 0,0) ">
<use xlink:href="#Layer1_0_FILL"/>
</g>

<g transform="matrix( 1, 0, 0, 1, 0,0) ">
<use xlink:href="#Layer1_1_FILL"/>
</g>

<g transform="matrix( 1, 0, 0, 1, 0,0) ">
<use xlink:href="#Layer1_2_FILL"/>
</g>

<g transform="matrix( 1, 0, 0, 1, 0,0) ">
<use xlink:href="#Layer1_3_FILL"/>
</g>

<g transform="matrix( 1, 0, 0, 1, 0,0) ">
<use xlink:href="#Layer0_0_FILL"/>
</g>
</svg>
