
<svg xmlns="http://www.w3.org/2000/svg" version="1.1" xmlns:xlink="http://www.w3.org/1999/xlink" preserveAspectRatio="none" x="0px" y="0px" width="254px" height="280px" viewBox="0 0 254 280">
<defs>
<g id="Layer0_0_FILL">
<path fill="#1A7D8D" stroke="none" d="
M 126.55 280
L 253.1 280 126.55 0.8 126.55 280 Z"/>

<path fill="#3BA9C4" stroke="none" d="
M 0 280
L 126.55 280 126.55 0.8 0 280 Z"/>
</g>

<g id="Layer0_1_FILL">
<path fill="#545454" stroke="none" d="
M 89.35 207
L 86.9 202.7 86.9 218.25 91.8 218.25 91.8 202.8 89.35 207 Z"/>

<path fill="#F0F0B0" stroke="none" d="
M 72.9 188.3
L 72.8 188.3 72.8 207.55 75.8 202.3 78.55 207 81.25 202.3 83.95 207 86.65 202.3 86.9 202.7 89.35 207 91.8 202.8 92.05 202.3 94.8 207 97.45 202.3 100.2 207 102.9 202.3 105.85 207.5 105.85 188.3 105.8 188.3
Q 105.3 182.45 100.95 178.2 96.2 173.4 89.35 173.4 82.45 173.4 77.6 178.2 76.65 179.15 75.9 180.2 73.25 183.8 72.9 188.3 Z"/>
</g>

<g id="Layer0_2_FILL">
<path fill="#545454" stroke="none" d="
M 160.8 158.8
L 158.35 162.95 155.9 158.7 155.9 174.2 160.8 174.2 160.8 158.8 Z"/>

<path fill="#F0F0B0" stroke="none" d="
M 174.8 144.3
Q 174.3 138.45 169.95 134.15 165.2 129.35 158.35 129.35 151.45 129.35 146.6 134.15 145.65 135.1 144.9 136.15 142.25 139.75 141.9 144.3
L 141.8 144.3 141.8 163.5 144.8 158.3 147.55 162.95 150.25 158.3 152.95 162.95 155.65 158.3 155.9 158.7 158.35 162.95 160.8 158.8 161.05 158.3 163.8 162.95 166.45 158.3 169.2 162.95 171.9 158.3 174.85 163.45 174.85 144.3 174.8 144.3 Z"/>
</g>

<g id="Layer0_3_FILL">
<path fill="#FFFFFF" stroke="none" d="
M 127 89.45
L 128.4 89.45 128.4 99.45
Q 131.65 98.35 134.35 96.5
L 134.35 93.75
Q 134.2 93.8 133.8 94.05 132.55 94.85 131.85 95.05
L 131.85 87.2 127 87.2 127 89.45
M 128.1 81.7
Q 129.05 84 129.45 85.8
L 132.65 85.8
Q 132.1 83.45 131.1 81.7
L 128.1 81.7
M 140.9 81.55
L 137.35 81.55 137.35 87.05 133.1 87.05 133.1 89.35 137.35 89.35 137.35 99.55 140.9 99.55 140.9 89.35 145.2 89.35 145.2 87.05 140.9 87.05 140.9 81.55
M 131.55 57.35
L 126.85 57.35 126.85 59.55 128.35 59.55 128.35 69.45
Q 131.85 68.15 133.5 66.7
L 133.5 64.2
Q 132.9 64.6 132 65 131.7 65.15 131.55 65.25
L 131.55 57.35
M 130.4 52.2
L 127.4 52.2
Q 128.4 54.15 128.75 56.1
L 131.85 56.1
Q 131.4 53.9 130.4 52.2
M 144.3 61.55
L 144.3 59.4 132.95 59.4 132.95 61.65 140.7 61.65
Q 139.45 63.85 138.6 64.6 137.55 63.7 136.65 62.35
L 133.1 62.35
Q 134.45 64.85 136.15 66.4 135.05 67.1 132.15 68.05
L 132.15 70
Q 136.15 69.05 138.6 68.05 141 69.15 145 69.95
L 145 68.05
Q 142.4 67.2 141 66.5 143.1 64.6 144.3 61.55
M 142.35 58.6
L 145.05 58.6 145.05 56.5 143.9 56.5
Q 142.95 56.55 143.05 55.7
L 143.05 52.5 134.15 52.5 134.15 55.15
Q 134.3 56.8 132.4 57.35
L 132.4 59.05
Q 137.5 58.75 137.25 55.3
L 137.25 54.7 140 54.7 140 56.2
Q 139.85 58.75 142.35 58.6 Z"/>
</g>
</defs>

<g transform="matrix( 1, 0, 0, 1, 0,0) ">
<use xlink:href="#Layer0_0_FILL"/>
</g>

<g transform="matrix( 1, 0, 0, 1, 0,0) ">
<use xlink:href="#Layer0_1_FILL"/>
</g>

<g transform="matrix( 1, 0, 0, 1, 0,0) ">
<use xlink:href="#Layer0_2_FILL"/>
</g>

<g transform="matrix( 1, 0, 0, 1, 0,0) ">
<use xlink:href="#Layer0_3_FILL"/>
</g>
</svg>
