
<svg xmlns="http://www.w3.org/2000/svg" version="1.1" xmlns:xlink="http://www.w3.org/1999/xlink" preserveAspectRatio="none" x="0px" y="0px" width="254px" height="280px" viewBox="0 0 254 280">
<defs>
<g id="Layer0_0_MEMBER_0_FILL">
<path fill="#1A7D8D" stroke="none" d="
M 253.1 280
L 126.55 0.8 126.55 280 253.1 280 Z"/>

<path fill="#3BA9C4" stroke="none" d="
M 0 280
L 126.55 280 126.55 0.8 0 280 Z"/>
</g>

<g id="Layer0_0_MEMBER_1_FILL">
<path fill="#545454" stroke="none" d="
M 89.35 207
L 86.9 202.7 86.9 218.25 91.8 218.25 91.8 202.8 89.35 207 Z"/>

<path fill="#F0F0B0" stroke="none" d="
M 75.9 180.2
Q 73.25 183.8 72.9 188.3
L 72.8 188.3 72.8 207.55 75.8 202.3 78.55 207 81.25 202.3 83.95 207 86.65 202.3 86.9 202.7 89.35 207 91.8 202.8 92.05 202.3 94.8 207 97.45 202.3 100.2 207 102.9 202.3 105.85 207.5 105.85 188.3 105.8 188.3
Q 105.3 182.45 100.95 178.2 96.2 173.4 89.35 173.4 82.45 173.4 77.6 178.2 76.65 179.15 75.9 180.2 Z"/>
</g>

<g id="Layer0_0_MEMBER_2_FILL">
<path fill="#545454" stroke="none" d="
M 158.35 162.95
L 155.9 158.7 155.9 174.2 160.8 174.2 160.8 158.8 158.35 162.95 Z"/>

<path fill="#F0F0B0" stroke="none" d="
M 174.8 144.3
Q 174.3 138.45 169.95 134.15 165.2 129.35 158.35 129.35 151.45 129.35 146.6 134.15 145.65 135.1 144.9 136.15 142.25 139.75 141.9 144.3
L 141.8 144.3 141.8 163.5 144.8 158.3 147.55 162.95 150.25 158.3 152.95 162.95 155.65 158.3 155.9 158.7 158.35 162.95 160.8 158.8 161.05 158.3 163.8 162.95 166.45 158.3 169.2 162.95 171.9 158.3 174.85 163.45 174.85 144.3 174.8 144.3 Z"/>
</g>

<g id="Layer0_0_MEMBER_3_FILL">
<path fill="#FFFFFF" stroke="none" d="
M 135.2 110.35
L 136.65 110.65 136.65 107.3 127.3 105.3 127.3 108.9 131.35 109.75
Q 132.75 110.05 133.5 110.65 134.25 111.25 134.25 112.05 134.25 112.75 133.45 112.75 133.2 112.75 131.65 112.4
L 127.3 111.5 127.3 115.05 132.4 116.15
Q 134.05 116.5 134.6 116.5 135.55 116.5 136.2 115.85 136.85 115.25 136.85 113.95 136.85 111.85 135.2 110.35
M 123.8 95.4
Q 123.5 96.3 123.5 97.9 123.5 100.2 124.4 101.35 125.25 102.55 127.85 103.1
L 136.65 105 136.65 101.65 135.3 101.35
Q 136.85 100.25 136.85 98.55 136.85 96.5 135.2 95.15 133.55 93.85 131.35 93.85 129.65 93.85 128.65 94.7 127.65 95.55 127.65 96.95 127.65 98.55 128.9 99.7
L 128.85 99.75 127.45 99.45
Q 126.55 99.25 126.1 98.8 125.65 98.4 125.65 97.75 125.65 96.75 126.6 96.7
L 127.1 93.3
Q 126.95 93.25 126.65 93.25 125.7 93.25 124.85 93.9 124.05 94.55 123.8 95.4
M 130.05 98.6
Q 130.05 98.05 130.4 97.7 130.8 97.3 131.45 97.3 132.6 97.3 133.55 97.95 134.45 98.55 134.45 99.35 134.45 99.85 134.1 100.25 133.7 100.6 133.15 100.6 132.2 100.6 131.1 100.1 130.05 99.6 130.05 98.6
M 140.2 93.7
L 140.2 90.15 137.7 89.65 137.7 93.2 140.2 93.7
M 127.3 87.4
L 127.3 91 136.65 93 136.65 89.4 127.3 87.4
M 136.4 79.8
Q 135.95 78.7 135.15 78.15 134.35 77.6 133.55 77.6 132.55 77.6 131.9 78.35 131.25 79.05 130.9 81.15 130.75 82.05 130.6 82.4 130.45 82.7 130.05 82.7 129.55 82.7 129.3 82.25 129.05 81.8 129.05 81.2 129.05 79.95 130.2 79.7
L 129.9 76.2
Q 128.4 76.35 127.75 77.4 127.1 78.45 127.1 80.65 127.1 83.4 128.1 84.75 129.1 86.05 130.55 86.05 131.6 86.05 132.2 85.4 132.85 84.7 133.15 82.65 133.35 81.35 133.55 81.05 133.75 80.75 134.1 80.75 134.4 80.75 134.65 81.1 134.9 81.45 134.9 82.1 134.9 83.2 134.05 83.35
L 134.4 86.7
Q 135.75 86.45 136.3 85.45 136.85 84.45 136.85 82.55 136.85 80.95 136.4 79.8
M 131.35 64.85
Q 129.55 64.85 128.3 66 127.1 67.15 127.1 69.9 127.1 71.8 127.7 73.1 128.3 74.35 129.7 75.1
L 130 71.65
Q 129.15 71.05 129.15 70 129.15 68.5 131.05 68.35
L 131.05 75.45
Q 132.35 75.7 132.9 75.7 134.55 75.7 135.7 74.55 136.85 73.4 136.85 70.8 136.85 69.6 136.55 68.7 136.3 67.8 135.55 66.85 134.8 65.9 133.7 65.4 132.6 64.85 131.35 64.85
M 133.3 72.2
Q 132.95 72.2 132.8 72.15
L 132.8 68.65
Q 133.75 68.95 134.25 69.5 134.75 70.05 134.75 70.7 134.75 71.35 134.4 71.75 134 72.2 133.3 72.2
M 140.2 58.5
L 140.2 53.2 127.3 50.5 127.3 57.25
Q 127.3 58.65 127.9 60.15 128.55 61.65 130.5 62.8 132.5 63.9 134.8 63.9 137.2 63.9 138.7 62.6 140.2 61.3 140.2 58.5
M 137.35 56.6
L 137.35 57.85
Q 137.35 59.05 136.75 59.5 136.2 59.95 135.2 59.95 133.5 59.95 131.85 59.15 130.15 58.35 130.15 56.75
L 130.15 55.1 137.35 56.6 Z"/>
</g>
</defs>

<g transform="matrix( 1, 0, 0, 1, 0,0) ">
<use xlink:href="#Layer0_0_MEMBER_0_FILL"/>
</g>

<g transform="matrix( 1, 0, 0, 1, 0,0) ">
<use xlink:href="#Layer0_0_MEMBER_1_FILL"/>
</g>

<g transform="matrix( 1, 0, 0, 1, 0,0) ">
<use xlink:href="#Layer0_0_MEMBER_2_FILL"/>
</g>

<g transform="matrix( 1, 0, 0, 1, 0,0) ">
<use xlink:href="#Layer0_0_MEMBER_3_FILL"/>
</g>
</svg>
