
<svg xmlns="http://www.w3.org/2000/svg" version="1.1" xmlns:xlink="http://www.w3.org/1999/xlink" preserveAspectRatio="none" x="0px" y="0px" width="254px" height="375px" viewBox="0 0 254 375">
<defs>
<g id="Layer0_0_MEMBER_0_FILL">
<path fill="#AF4B4B" stroke="none" d="
M 252.3 50.2
L 235.4 50.2 125.75 374.75 252.3 374.75 252.3 50.2 Z"/>

<path fill="#FFFFFF" stroke="none" d="
M 252.3 50.2
L 252.3 0.15 235.4 50.2 252.3 50.2 Z"/>

<path fill="#852D2D" stroke="none" d="
M 269.2 50.2
L 252.3 50.2 252.3 374.75 378.85 374.75 269.2 50.2 Z"/>

<path fill="#CCCCCC" stroke="none" d="
M 252.3 50.2
L 269.2 50.2 252.3 0.15 252.3 50.2 Z"/>
</g>

<g id="Layer0_0_MEMBER_1_FILL">
<path fill="#FFFFFF" stroke="none" d="
M 225.95 170.9
L 231.4 170.9 242.7 170.9 237 161.05 242.7 161.05 237 151.2 242.7 151.2 228.6 126.85 214.6 151.2 220.3 151.2 214.6 161.05 220.3 161.05 214.6 170.9 225.95 170.9 Z"/>

<path fill="#9F9F9F" stroke="none" d="
M 231.4 170.9
L 225.95 170.9 225.95 186.7 231.4 186.7 231.4 170.9 Z"/>
</g>

<g id="Layer0_0_MEMBER_2_FILL">
<path fill="#9F9F9F" stroke="none" d="
M 286.9 222.05
L 286.9 206.25 281.45 206.25 281.45 222.05 286.9 222.05 Z"/>

<path fill="#FFFFFF" stroke="none" d="
M 270.1 196.4
L 275.8 196.4 270.1 206.25 281.45 206.25 286.9 206.25 298.2 206.25 292.5 196.4 298.2 196.4 292.5 186.55 298.2 186.55 284.1 162.2 270.1 186.55 275.8 186.55 270.1 196.4 Z"/>
</g>

<g id="Layer0_0_MEMBER_3_FILL">
<path fill="#9F9F9F" stroke="none" d="
M 209.35 241.55
L 203.9 241.55 203.9 257.35 209.35 257.35 209.35 241.55 Z"/>

<path fill="#FFFFFF" stroke="none" d="
M 214.95 221.85
L 220.65 221.85 206.55 197.5 192.55 221.85 198.25 221.85 192.55 231.7 198.25 231.7 192.55 241.55 203.9 241.55 209.35 241.55 220.65 241.55 214.95 231.7 220.65 231.7 214.95 221.85 Z"/>
</g>

<g id="Layer0_0_MEMBER_4_FILL">
<path fill="#FFFFFF" stroke="none" d="
M 136.65 154.4
L 136.65 151.05 127.3 149.05 127.3 152.65 131.35 153.5
Q 132.75 153.8 133.5 154.4 134.25 155 134.25 155.8 134.25 156.5 133.45 156.5 133.2 156.5 131.65 156.15
L 127.3 155.25 127.3 158.8 132.4 159.9
Q 134.05 160.25 134.6 160.25 135.55 160.25 136.2 159.6 136.85 159 136.85 157.7 136.85 155.6 135.2 154.1
L 136.65 154.4
M 131.3 137.55
Q 129.5 137.55 128.3 138.75 127.1 139.9 127.1 142.35 127.1 144.3 127.85 145.6 128.65 146.95 130 147.6 131.3 148.25 132.6 148.25 134.3 148.25 135.55 147.1 136.85 145.95 136.85 143.45 136.85 141.6 136.1 140.3 135.35 138.95 134.05 138.25 132.7 137.55 131.3 137.55
M 129.5 142.6
Q 129.5 141.95 130 141.5 130.55 141.05 131.3 141.05 132.35 141.05 133.4 141.6 134.45 142.2 134.45 143.3 134.45 143.85 134.05 144.3 133.7 144.75 132.8 144.75 131.55 144.75 130.5 144.15 129.5 143.6 129.5 142.6
M 127.3 131.15
L 127.3 134.75 136.65 136.75 136.65 133.15 127.3 131.15
M 140.2 133.9
L 137.7 133.4 137.7 136.95 140.2 137.45 140.2 133.9
M 140.1 129.9
L 138.1 125.9 136.65 125.6 136.65 124.3 134.05 123.75 134.05 125.05 130.9 124.4
Q 129.65 124.15 129.35 124.15 128.5 124.15 127.8 124.75 127.1 125.4 127.1 126.9 127.1 127.65 127.3 129.25
L 129.85 129.8
Q 129.7 128.95 129.7 128.7 129.7 127.85 130.3 127.85 130.55 127.85 130.75 127.95
L 134.05 128.6 134.05 130.5 136.65 131.05 136.65 129.2 140.1 129.9
M 127.9 112.35
Q 127.1 113.15 127.1 114.9 127.1 116.65 128.35 118.05 127.85 118.05 127.3 118.15
L 127.3 121.65
Q 127.95 121.45 128.6 121.45 129.35 121.45 131.25 121.9 133.25 122.35 134.15 122.35 135.45 122.35 136.15 121.4 136.85 120.45 136.85 117.7 136.85 115.25 136.1 114.1 135.4 112.95 134.05 112.6
L 133.7 115.95
Q 134.35 116.25 134.55 116.65 134.75 117 134.75 117.65 134.75 118.2 134.5 118.6 134.3 118.95 133.95 118.95 133.75 118.95 133.35 118.8 133.15 118.3 133 116.75 132.85 115 132.6 114 132.35 113 131.7 112.3 131.05 111.6 129.8 111.6 128.75 111.6 127.9 112.35
M 129.6 117.55
Q 129.05 116.85 129.05 116.2 129.05 115.7 129.3 115.4 129.55 115.1 130 115.1 130.45 115.1 130.75 115.55 131.05 115.95 131.45 118.45 130.15 118.2 129.6 117.55
M 127.3 93.25
L 127.3 96.85 131.75 97.8
Q 133.1 98.1 133.65 98.7 134.25 99.3 134.25 99.85 134.25 100.6 133.5 100.6 133.35 100.6 133.05 100.55 132.8 100.5 131.2 100.15
L 127.3 99.35 127.3 102.9 131.45 103.8
Q 132.9 104.1 133.55 104.65 134.25 105.15 134.25 105.95 134.25 106.65 133.5 106.65 133.4 106.65 133.1 106.6 132.8 106.6 131.3 106.25
L 127.3 105.4 127.3 109 133.45 110.3
Q 133.95 110.45 134.55 110.45 135.5 110.45 136.15 109.8 136.85 109.15 136.85 107.9 136.85 106.95 136.5 106.1 136.15 105.3 135.25 104.3 136 104 136.4 103.35 136.85 102.65 136.85 101.8 136.85 99.85 135.25 98.35
L 135.3 98.3 136.65 98.6 136.65 95.25 127.3 93.25
M 140.2 93.65
L 140.2 90.1 137.7 89.6 137.7 93.15 140.2 93.65
M 127.3 87.35
L 127.3 90.95 136.65 92.95 136.65 89.35 127.3 87.35
M 133.5 80.6
Q 134.25 81.2 134.25 82 134.25 82.7 133.45 82.7 133.2 82.7 131.65 82.35
L 127.3 81.45 127.3 85 132.4 86.1
Q 134.05 86.45 134.6 86.45 135.55 86.45 136.2 85.8 136.85 85.2 136.85 83.9 136.85 81.8 135.2 80.3
L 136.65 80.6 136.65 77.25 127.3 75.25 127.3 78.85 131.35 79.7
Q 132.75 80 133.5 80.6
M 127.3 64.7
L 129.4 65.7 129.4 69.9 127.3 70.1 127.3 74 140.2 71.95 140.2 67.7 127.3 60.4 127.3 64.7
M 132.15 69.65
L 132.15 67 136.85 69.2 136.85 69.25 132.15 69.65 Z"/>
</g>
</defs>

<g transform="matrix( 1, 0, 0, 1, -125.75,0.25) ">
<use xlink:href="#Layer0_0_MEMBER_0_FILL"/>
</g>

<g transform="matrix( 1, 0, 0, 1, -125.75,0.25) ">
<use xlink:href="#Layer0_0_MEMBER_1_FILL"/>
</g>

<g transform="matrix( 1, 0, 0, 1, -125.75,0.25) ">
<use xlink:href="#Layer0_0_MEMBER_2_FILL"/>
</g>

<g transform="matrix( 1, 0, 0, 1, -125.75,0.25) ">
<use xlink:href="#Layer0_0_MEMBER_3_FILL"/>
</g>

<g transform="matrix( 1, 0, 0, 1, 0,0) ">
<use xlink:href="#Layer0_0_MEMBER_4_FILL"/>
</g>
</svg>
