
<svg xmlns="http://www.w3.org/2000/svg" version="1.1" xmlns:xlink="http://www.w3.org/1999/xlink" preserveAspectRatio="none" x="0px" y="0px" width="275px" height="84px" viewBox="0 0 275 84">
<defs>
<g id="Layer0_0_FILL">
<path fill="#FFFFFF" stroke="none" d="
M 216.85 72.95
Q 216.45 73.05 215.15 73.2 213.7 73.35 212.85 73.55 212 73.75 211.45 74.25 210.85 74.8 210.85 75.85 210.85 76.75 211.5 77.45 212.15 78.15 213.6 78.15 215.05 78.15 216.2 77.05 216.2 77.5 216.35 77.95
L 219.25 77.95
Q 219.05 77.4 219.05 76.85 219.05 76.25 219.4 74.65 219.8 73 219.8 72.25 219.8 71.15 219 70.6 218.2 70 215.9 70 213.9 70 212.95 70.6 212 71.2 211.7 72.3
L 214.5 72.6
Q 214.7 72.1 215.05 71.9 215.35 71.75 215.85 71.75 216.35 71.75 216.65 71.95 216.95 72.1 216.95 72.4 216.95 72.6 216.85 72.95
M 215.8 76.05
Q 215.25 76.5 214.7 76.5 214.25 76.5 214 76.3 213.75 76.1 213.75 75.7 213.75 75.35 214.1 75.1 214.5 74.8 216.55 74.45 216.35 75.6 215.8 76.05
M 210.35 72.9
L 206 72.9 205.5 75.15 209.85 75.15 210.35 72.9
M 231.8 71.7
L 232.15 70.2 229.35 70.2 227.7 77.95 230.7 77.95 231.3 75.05
Q 231.6 73.7 232.15 73.05 232.65 72.45 233.5 72.45 233.8 72.45 234.15 72.55
L 235.25 70.25
Q 234.7 70 234.2 70 233.6 70 233.05 70.35 232.5 70.7 231.85 71.75
L 231.8 71.7
M 224.65 71.7
L 225 70.2 222.2 70.2 220.55 77.95 223.55 77.95 224.15 75.05
Q 224.45 73.7 225 73.05 225.5 72.45 226.35 72.45 226.65 72.45 227 72.55
L 228.1 70.25
Q 227.55 70 227.05 70 226.45 70 225.9 70.35 225.35 70.7 224.7 71.75
L 224.65 71.7
M 174.4 70.65
Q 173.3 71.25 172.7 72.35 172.15 73.45 172.15 74.6 172.15 76.1 173.1 77.15 174.1 78.15 176.15 78.15 177.75 78.15 178.85 77.5 179.95 76.85 180.5 75.7 181.05 74.6 181.05 73.55 181.05 72.1 180.1 71.05 179.15 70 177.05 70 175.5 70 174.4 70.65
M 177.75 72.3
Q 178.15 72.6 178.15 73.35 178.15 74.4 177.65 75.25 177.15 76.1 176.3 76.1 175.8 76.1 175.4 75.7 175.05 75.25 175.05 74.6 175.05 73.7 175.5 72.85 176 72 176.95 72 177.4 72 177.75 72.3
M 199.8 71.4
L 199.75 71.35 200 70.2 197.2 70.2 195.55 77.95 198.55 77.95 199.3 74.6
Q 199.55 73.4 200 72.8 200.5 72.2 201.15 72.2 201.75 72.2 201.75 72.8 201.75 73 201.5 74.35
L 200.7 77.95 203.7 77.95 204.6 73.7
Q 204.9 72.35 204.9 71.85 204.9 71.1 204.35 70.55 203.85 70 202.8 70 201 70 199.8 71.4
M 190.45 70.2
L 187.75 70.2 185.05 75.1 184.75 70.2 182.05 70.2 183.25 77.95 185.95 77.95 188.5 73.35 188.55 73.35 189 77.95 191.65 77.95 196.1 70.2 193.05 70.2 190.9 75.05 190.45 70.2
M 243.3 75.7
Q 243.85 74.6 243.85 73.55 243.85 72.1 242.9 71.05 241.95 70 239.85 70 238.3 70 237.2 70.65 236.1 71.25 235.5 72.35 234.95 73.45 234.95 74.6 234.95 76.1 235.9 77.15 236.9 78.15 238.95 78.15 240.55 78.15 241.65 77.5 242.75 76.85 243.3 75.7
M 238.3 72.85
Q 238.8 72 239.75 72 240.2 72 240.55 72.3 240.95 72.6 240.95 73.35 240.95 74.4 240.45 75.25 239.95 76.1 239.1 76.1 238.6 76.1 238.2 75.7 237.85 75.25 237.85 74.6 237.85 73.7 238.3 72.85
M 247.6 70.2
L 244.9 70.2 246.1 77.95 248.8 77.95 251.35 73.35 251.4 73.35 251.85 77.95 254.5 77.95 258.95 70.2 255.9 70.2 253.75 75.05 253.3 70.2 250.6 70.2 247.9 75.1 247.6 70.2
M 165.85 70
Q 164.25 70 163.2 71.45 162.15 72.95 162.15 74.9 162.15 76.4 162.85 77.25 163.55 78.15 164.85 78.15 165.55 78.15 166.1 77.95 166.6 77.7 167.2 77.15
L 167.25 77.15 167.1 77.95 169.85 77.95 172.15 67.2 169.2 67.2 168.35 71.2
Q 167.5 70 165.85 70
M 167.45 72.35
Q 167.8 72.7 167.8 73.35 167.8 74.3 167.35 75.25 166.9 76.2 166.1 76.2 165.6 76.2 165.35 75.85 165.05 75.5 165.05 74.85 165.05 73.65 165.55 72.85 166 72 166.65 72 167.1 72 167.45 72.35
M 150.45 70.4
Q 149.5 70.75 149.05 71.4 148.6 72.05 148.6 72.75 148.6 73.6 149.2 74.15 149.8 74.7 151.55 74.95 152.3 75.05 152.55 75.2 152.85 75.3 152.85 75.65 152.85 76.05 152.45 76.3 152.1 76.5 151.6 76.5 150.55 76.5 150.35 75.55
L 147.4 75.8
Q 147.55 77.05 148.4 77.6 149.3 78.15 151.15 78.15 153.4 78.15 154.55 77.3 155.65 76.45 155.65 75.25 155.65 74.35 155.1 73.85 154.5 73.35 152.8 73.1 151.7 72.95 151.5 72.75 151.25 72.55 151.25 72.3 151.25 72.05 151.5 71.85 151.8 71.65 152.35 71.65 153.25 71.65 153.4 72.35
L 156.15 72.05
Q 155.95 70.9 155.15 70.45 154.3 70 152.75 70 151.35 70 150.45 70.4
M 74.9 72.85
L 78.2 70.2 74.8 70.2 71.8 72.8 71.8 72.75 72.95 67.2 70.05 67.2 67.75 77.95 70.65 77.95 71.1 75.95 72.7 74.7 73.5 77.95 76.85 77.95 74.9 72.85
M 140 71.2
Q 139.15 70 137.5 70 135.9 70 134.85 71.45 133.8 72.95 133.8 74.9 133.8 76.4 134.5 77.25 135.2 78.15 136.5 78.15 137.2 78.15 137.75 77.95 138.25 77.7 138.85 77.15
L 138.9 77.15 138.75 77.95 141.5 77.95 143.8 67.2 140.85 67.2 140 71.2
M 137.2 72.85
Q 137.65 72 138.3 72 138.75 72 139.1 72.35 139.45 72.7 139.45 73.35 139.45 74.3 139 75.25 138.55 76.2 137.75 76.2 137.25 76.2 137 75.85 136.7 75.5 136.7 74.85 136.7 73.65 137.2 72.85
M 130.55 71.7
L 130.9 70.2 128.1 70.2 126.45 77.95 129.45 77.95 130.05 75.05
Q 130.35 73.7 130.9 73.05 131.4 72.45 132.25 72.45 132.55 72.45 132.9 72.55
L 134 70.25
Q 133.45 70 132.95 70 132.35 70 131.8 70.35 131.25 70.7 130.6 71.75
L 130.55 71.7
M 147.7 68.8
L 148.05 67.2 145.05 67.2 144.65 69 144.75 71.15 146.8 71.15 147.35 69.75
Q 147.65 69 147.7 68.8
M 90.85 70.2
L 87.9 70.2 89.4 77.95
Q 88.9 79 88.05 79 87.55 79 87.05 78.8
L 86.8 80.8
Q 87.9 81.1 89 81.1 89.95 81.1 90.65 80.65 91.3 80.2 92 78.95
L 96.95 70.2 93.95 70.2 91.3 75.6 91.25 75.6 90.85 70.2
M 86.75 73.25
Q 86.75 71.9 85.8 70.95 84.85 70 82.7 70 81.65 70 80.9 70.2 80.15 70.45 79.4 71.05 78.6 71.7 78.15 72.6 77.7 73.5 77.7 74.55 77.7 76.05 78.7 77.1 79.65 78.15 81.95 78.15 83.5 78.15 84.6 77.65 85.65 77.1 86.3 75.95
L 83.4 75.7
Q 82.9 76.4 82 76.4 80.75 76.4 80.6 74.85
L 86.55 74.85
Q 86.75 73.7 86.75 73.25
M 83.5 72.05
Q 83.85 72.35 83.85 72.95 83.85 73.25 83.8 73.4
L 80.9 73.4
Q 81.15 72.55 81.6 72.15 82.05 71.75 82.6 71.75 83.15 71.75 83.5 72.05
M 118.85 70.6
Q 117.9 71.2 117.6 72.3
L 120.4 72.6
Q 120.6 72.1 120.95 71.9 121.25 71.75 121.75 71.75 122.25 71.75 122.55 71.95 122.85 72.1 122.85 72.4 122.85 72.6 122.75 72.95 122.35 73.05 121.05 73.2 119.6 73.35 118.75 73.55 117.9 73.75 117.35 74.25 116.75 74.8 116.75 75.85 116.75 76.75 117.4 77.45 118.05 78.15 119.5 78.15 120.95 78.15 122.1 77.05 122.1 77.5 122.25 77.95
L 125.15 77.95
Q 124.95 77.4 124.95 76.85 124.95 76.25 125.3 74.65 125.7 73 125.7 72.25 125.7 71.15 124.9 70.6 124.1 70 121.8 70 119.8 70 118.85 70.6
M 119.9 76.3
Q 119.65 76.1 119.65 75.7 119.65 75.35 120 75.1 120.4 74.8 122.45 74.45 122.25 75.6 121.7 76.05 121.15 76.5 120.6 76.5 120.15 76.5 119.9 76.3
M 109.15 70.65
Q 108.05 71.25 107.45 72.35 106.9 73.45 106.9 74.6 106.9 76.1 107.85 77.15 108.85 78.15 110.9 78.15 112.5 78.15 113.6 77.5 114.7 76.85 115.25 75.7 115.8 74.6 115.8 73.55 115.8 72.1 114.85 71.05 113.9 70 111.8 70 110.25 70 109.15 70.65
M 112.5 72.3
Q 112.9 72.6 112.9 73.35 112.9 74.4 112.4 75.25 111.9 76.1 111.05 76.1 110.55 76.1 110.15 75.7 109.8 75.25 109.8 74.6 109.8 73.7 110.25 72.85 110.75 72 111.7 72 112.15 72 112.5 72.3
M 105.8 73.25
Q 105.8 71.8 105.15 70.9 104.45 70 103.1 70 102.4 70 101.95 70.15 101.5 70.35 100.95 70.75
L 101.7 67.2 98.75 67.2 96.45 77.95 99.2 77.95 99.5 76.7
Q 100.35 78.15 102.1 78.15 103.75 78.15 104.8 76.6 105.8 75.1 105.8 73.25
M 101.85 71.95
Q 102.9 71.95 102.9 73.25 102.9 74.5 102.45 75.3 101.95 76.1 101.3 76.1 100.9 76.1 100.55 75.75 100.2 75.45 100.2 74.75 100.2 73.7 100.65 72.85 101.1 71.95 101.85 71.95
M 62.15 72.05
Q 61.95 70.9 61.15 70.45 60.3 70 58.75 70 57.35 70 56.45 70.4 55.5 70.75 55.05 71.4 54.6 72.05 54.6 72.75 54.6 73.6 55.2 74.15 55.8 74.7 57.55 74.95 58.3 75.05 58.55 75.2 58.85 75.3 58.85 75.65 58.85 76.05 58.45 76.3 58.1 76.5 57.6 76.5 56.55 76.5 56.35 75.55
L 53.4 75.8
Q 53.55 77.05 54.4 77.6 55.3 78.15 57.15 78.15 59.4 78.15 60.55 77.3 61.65 76.45 61.65 75.25 61.65 74.35 61.1 73.85 60.5 73.35 58.8 73.1 57.7 72.95 57.5 72.75 57.25 72.55 57.25 72.3 57.25 72.05 57.5 71.85 57.8 71.65 58.35 71.65 59.25 71.65 59.4 72.35
L 62.15 72.05
M 49.55 70
Q 48.15 70 47.25 70.4 46.3 70.75 45.85 71.4 45.4 72.05 45.4 72.75 45.4 73.6 46 74.15 46.6 74.7 48.35 74.95 49.1 75.05 49.35 75.2 49.65 75.3 49.65 75.65 49.65 76.05 49.25 76.3 48.9 76.5 48.4 76.5 47.35 76.5 47.15 75.55
L 44.2 75.8
Q 44.35 77.05 45.2 77.6 46.1 78.15 47.95 78.15 50.2 78.15 51.35 77.3 52.45 76.45 52.45 75.25 52.45 74.35 51.9 73.85 51.3 73.35 49.6 73.1 48.5 72.95 48.3 72.75 48.05 72.55 48.05 72.3 48.05 72.05 48.3 71.85 48.6 71.65 49.15 71.65 50.05 71.65 50.2 72.35
L 52.95 72.05
Q 52.75 70.9 51.95 70.45 51.1 70 49.55 70
M 37.95 70.2
Q 37.2 70.45 36.45 71.05 35.65 71.7 35.2 72.6 34.75 73.5 34.75 74.55 34.75 76.05 35.75 77.1 36.7 78.15 39 78.15 40.55 78.15 41.65 77.65 42.7 77.1 43.35 75.95
L 40.45 75.7
Q 39.95 76.4 39.05 76.4 37.8 76.4 37.65 74.85
L 43.6 74.85
Q 43.8 73.7 43.8 73.25 43.8 71.9 42.85 70.95 41.9 70 39.75 70 38.7 70 37.95 70.2
M 37.95 73.4
Q 38.2 72.55 38.65 72.15 39.1 71.75 39.65 71.75 40.2 71.75 40.55 72.05 40.9 72.35 40.9 72.95 40.9 73.25 40.85 73.4
L 37.95 73.4
M 35.05 70.25
Q 34.5 70 34 70 33.4 70 32.85 70.35 32.3 70.7 31.65 71.75
L 31.6 71.7 31.95 70.2 29.15 70.2 27.5 77.95 30.5 77.95 31.1 75.05
Q 31.4 73.7 31.95 73.05 32.45 72.45 33.3 72.45 33.6 72.45 33.95 72.55
L 35.05 70.25
M 21.75 71
L 21.75 70.95 21.9 70.2 19.1 70.2 16.8 80.9 19.8 80.9 20.65 76.9
Q 21.5 78.15 23.1 78.15 24.75 78.15 25.8 76.7 26.85 75.2 26.85 73.25 26.85 71.75 26.15 70.85 25.45 70 24.1 70 23.4 70 22.9 70.2 22.4 70.4 21.75 71
M 21.65 72.9
Q 22.05 71.95 22.9 71.95 23.3 71.95 23.6 72.25 23.9 72.6 23.9 73.3 23.9 74.5 23.45 75.3 23 76.15 22.35 76.15 21.9 76.15 21.55 75.8 21.2 75.45 21.2 74.75 21.2 73.8 21.65 72.9
M 212.75 58.3
L 214.4 50.55 211.4 50.55 210.7 53.9
Q 210.45 55.05 209.95 55.65 209.45 56.3 208.75 56.3 208.2 56.3 208.2 55.65 208.2 55.45 208.2 55.3 208.25 55.15 208.4 54.3
L 209.25 50.55 206.25 50.55 205.35 54.7
Q 205.05 56.1 205.05 56.6 205.05 57.4 205.6 57.95 206.1 58.5 207.2 58.5 208.95 58.5 210.15 57.1
L 210.2 57.1 209.95 58.3 212.75 58.3
M 218.55 52.2
Q 218.85 52 219.4 52 220.3 52 220.45 52.7
L 223.2 52.4
Q 223 51.25 222.2 50.8 221.35 50.35 219.8 50.35 218.4 50.35 217.5 50.75 216.55 51.1 216.1 51.75 215.65 52.4 215.65 53.1 215.65 53.95 216.25 54.5 216.85 55.05 218.6 55.3 219.35 55.4 219.6 55.55 219.9 55.65 219.9 56 219.9 56.4 219.5 56.65 219.15 56.85 218.65 56.85 217.6 56.85 217.4 55.9
L 214.45 56.15
Q 214.6 57.4 215.45 57.95 216.35 58.5 218.2 58.5 220.45 58.5 221.6 57.65 222.7 56.8 222.7 55.6 222.7 54.7 222.15 54.2 221.55 53.7 219.85 53.45 218.75 53.3 218.55 53.1 218.3 52.9 218.3 52.65 218.3 52.4 218.55 52.2
M 233 55.2
Q 233.2 54.05 233.2 53.6 233.2 52.25 232.25 51.3 231.3 50.35 229.15 50.35 228.1 50.35 227.35 50.55 226.6 50.8 225.85 51.4 225.05 52.05 224.6 52.95 224.15 53.85 224.15 54.9 224.15 56.4 225.15 57.45 226.1 58.5 228.4 58.5 229.95 58.5 231.05 58 232.1 57.45 232.75 56.3
L 229.85 56.05
Q 229.35 56.75 228.45 56.75 227.2 56.75 227.05 55.2
L 233 55.2
M 230.3 53.3
Q 230.3 53.6 230.25 53.75
L 227.35 53.75
Q 227.6 52.9 228.05 52.5 228.5 52.1 229.05 52.1 229.6 52.1 229.95 52.4 230.3 52.7 230.3 53.3
M 197.25 51
Q 196.15 51.6 195.55 52.7 195 53.8 195 54.95 195 56.45 195.95 57.5 196.95 58.5 199 58.5 200.6 58.5 201.7 57.85 202.8 57.2 203.35 56.05 203.9 54.95 203.9 53.9 203.9 52.45 202.95 51.4 202 50.35 199.9 50.35 198.35 50.35 197.25 51
M 197.9 54.95
Q 197.9 54.05 198.35 53.2 198.85 52.35 199.8 52.35 200.25 52.35 200.6 52.65 201 52.95 201 53.7 201 54.75 200.5 55.6 200 56.45 199.15 56.45 198.65 56.45 198.25 56.05 197.9 55.6 197.9 54.95
M 247.1 51.4
Q 246.15 50.35 244.05 50.35 242.5 50.35 241.4 51 240.3 51.6 239.7 52.7 239.15 53.8 239.15 54.95 239.15 56.45 240.1 57.5 241.1 58.5 243.15 58.5 244.75 58.5 245.85 57.85 246.95 57.2 247.5 56.05 248.05 54.95 248.05 53.9 248.05 52.45 247.1 51.4
M 245.15 53.7
Q 245.15 54.75 244.65 55.6 244.15 56.45 243.3 56.45 242.8 56.45 242.4 56.05 242.05 55.6 242.05 54.95 242.05 54.05 242.5 53.2 243 52.35 243.95 52.35 244.4 52.35 244.75 52.65 245.15 52.95 245.15 53.7
M 255.15 52.9
L 256.25 50.6
Q 255.7 50.35 255.2 50.35 254.6 50.35 254.05 50.7 253.5 51.05 252.85 52.1
L 252.8 52.05 253.15 50.55 250.35 50.55 248.7 58.3 251.7 58.3 252.3 55.4
Q 252.6 54.05 253.15 53.4 253.65 52.8 254.5 52.8 254.8 52.8 255.15 52.9
M 150 53.9
Q 150 52.45 149.05 51.4 148.1 50.35 146 50.35 144.45 50.35 143.35 51 142.25 51.6 141.65 52.7 141.1 53.8 141.1 54.95 141.1 56.45 142.05 57.5 143.05 58.5 145.1 58.5 146.7 58.5 147.8 57.85 148.9 57.2 149.45 56.05 150 54.95 150 53.9
M 145.9 52.35
Q 146.35 52.35 146.7 52.65 147.1 52.95 147.1 53.7 147.1 54.75 146.6 55.6 146.1 56.45 145.25 56.45 144.75 56.45 144.35 56.05 144 55.6 144 54.95 144 54.05 144.45 53.2 144.95 52.35 145.9 52.35
M 98.55 53.25
Q 98.35 51.8 97.3 51.1 96.25 50.35 94.5 50.35 92.05 50.35 90.65 51.75 89.3 53.15 89.3 55.1 89.3 58.5 93.4 58.5 97.05 58.5 98.1 55.45
L 95.3 55.15
Q 94.75 56.45 93.55 56.45 93.05 56.45 92.65 56.15 92.2 55.8 92.2 55.15 92.2 54.15 92.8 53.25 93.4 52.35 94.5 52.35 95.65 52.35 95.85 53.4
L 98.55 53.25
M 105.35 50.35
Q 104.75 50.35 104.2 50.7 103.65 51.05 103 52.1
L 102.95 52.05 103.3 50.55 100.5 50.55 98.85 58.3 101.85 58.3 102.45 55.4
Q 102.75 54.05 103.3 53.4 103.8 52.8 104.65 52.8 104.95 52.8 105.3 52.9
L 106.4 50.6
Q 105.85 50.35 105.35 50.35
M 112.8 57.85
Q 113.9 57.2 114.45 56.05 115 54.95 115 53.9 115 52.45 114.05 51.4 113.1 50.35 111 50.35 109.45 50.35 108.35 51 107.25 51.6 106.65 52.7 106.1 53.8 106.1 54.95 106.1 56.45 107.05 57.5 108.05 58.5 110.1 58.5 111.7 58.5 112.8 57.85
M 111.7 52.65
Q 112.1 52.95 112.1 53.7 112.1 54.75 111.6 55.6 111.1 56.45 110.25 56.45 109.75 56.45 109.35 56.05 109 55.6 109 54.95 109 54.05 109.45 53.2 109.95 52.35 110.9 52.35 111.35 52.35 111.7 52.65
M 121 47.55
L 118 47.55 115.75 58.3 118.7 58.3 121 47.55
M 141.1 47.55
L 138.15 47.55 137.3 51.55
Q 136.45 50.35 134.8 50.35 133.2 50.35 132.15 51.8 131.1 53.3 131.1 55.25 131.1 56.75 131.8 57.6 132.5 58.5 133.8 58.5 134.5 58.5 135.05 58.3 135.55 58.05 136.15 57.5
L 136.2 57.5 136.05 58.3 138.8 58.3 141.1 47.55
M 135.6 52.35
Q 136.05 52.35 136.4 52.7 136.75 53.05 136.75 53.7 136.75 54.65 136.3 55.6 135.85 56.55 135.05 56.55 134.55 56.55 134.3 56.2 134 55.85 134 55.2 134 54 134.5 53.2 134.95 52.35 135.6 52.35
M 126 47.55
L 123 47.55 120.75 58.3 123.7 58.3 126 47.55
M 165.1 50.55
L 162.05 50.55 159.9 55.4 159.45 50.55 156.75 50.55 154.05 55.45 153.75 50.55 151.05 50.55 152.25 58.3 154.95 58.3 157.5 53.7 157.55 53.7 158 58.3 160.65 58.3 165.1 50.55
M 172.7 58.3
L 173.6 54.05
Q 173.9 52.7 173.9 52.2 173.9 51.45 173.35 50.9 172.85 50.35 171.8 50.35 170 50.35 168.8 51.75
L 168.75 51.7 169 50.55 166.2 50.55 164.55 58.3 167.55 58.3 168.3 54.95
Q 168.55 53.75 169 53.15 169.5 52.55 170.15 52.55 170.75 52.55 170.75 53.15 170.75 53.35 170.5 54.7
L 169.7 58.3 172.7 58.3
M 192.65 58.3
L 193.8 53.2
Q 193.85 52.75 193.85 52.25 193.85 51.45 193.35 50.9 192.8 50.35 191.75 50.35 191 50.35 190.3 50.65 189.6 50.9 188.75 51.65 188.55 51.05 187.95 50.7 187.4 50.35 186.65 50.35 185.1 50.35 183.8 51.65
L 183.75 51.65 184 50.55 181.25 50.55 179.55 58.3 182.55 58.3 183.35 54.55
Q 183.6 53.45 184.1 53 184.6 52.55 185.05 52.55 185.65 52.55 185.65 53.1 185.65 53.25 185.65 53.5 185.6 53.75 185.35 55.05
L 184.6 58.3 187.6 58.3 188.35 54.85
Q 188.6 53.65 189.05 53.1 189.5 52.55 190.15 52.55 190.7 52.55 190.7 53.15 190.7 53.25 190.7 53.45 190.65 53.7 190.4 55
L 189.7 58.3 192.65 58.3
M 88.35 52.4
Q 88.15 51.25 87.35 50.8 86.5 50.35 84.95 50.35 83.55 50.35 82.65 50.75 81.7 51.1 81.25 51.75 80.8 52.4 80.8 53.1 80.8 53.95 81.4 54.5 82 55.05 83.75 55.3 84.5 55.4 84.75 55.55 85.05 55.65 85.05 56 85.05 56.4 84.65 56.65 84.3 56.85 83.8 56.85 82.75 56.85 82.55 55.9
L 79.6 56.15
Q 79.75 57.4 80.6 57.95 81.5 58.5 83.35 58.5 85.6 58.5 86.75 57.65 87.85 56.8 87.85 55.6 87.85 54.7 87.3 54.2 86.7 53.7 85 53.45 83.9 53.3 83.7 53.1 83.45 52.9 83.45 52.65 83.45 52.4 83.7 52.2 84 52 84.55 52 85.45 52 85.6 52.7
L 88.35 52.4
M 72.05 58
Q 73.1 57.45 73.75 56.3
L 70.85 56.05
Q 70.35 56.75 69.45 56.75 68.2 56.75 68.05 55.2
L 74 55.2
Q 74.2 54.05 74.2 53.6 74.2 52.25 73.25 51.3 72.3 50.35 70.15 50.35 69.1 50.35 68.35 50.55 67.6 50.8 66.85 51.4 66.05 52.05 65.6 52.95 65.15 53.85 65.15 54.9 65.15 56.4 66.15 57.45 67.1 58.5 69.4 58.5 70.95 58.5 72.05 58
M 70.95 52.4
Q 71.3 52.7 71.3 53.3 71.3 53.6 71.25 53.75
L 68.35 53.75
Q 68.6 52.9 69.05 52.5 69.5 52.1 70.05 52.1 70.6 52.1 70.95 52.4
M 62.55 57.65
Q 63.65 56.8 63.65 55.6 63.65 54.7 63.1 54.2 62.5 53.7 60.8 53.45 59.7 53.3 59.5 53.1 59.25 52.9 59.25 52.65 59.25 52.4 59.5 52.2 59.8 52 60.35 52 61.25 52 61.4 52.7
L 64.15 52.4
Q 63.95 51.25 63.15 50.8 62.3 50.35 60.75 50.35 59.35 50.35 58.45 50.75 57.5 51.1 57.05 51.75 56.6 52.4 56.6 53.1 56.6 53.95 57.2 54.5 57.8 55.05 59.55 55.3 60.3 55.4 60.55 55.55 60.85 55.65 60.85 56 60.85 56.4 60.45 56.65 60.1 56.85 59.6 56.85 58.55 56.85 58.35 55.9
L 55.4 56.15
Q 55.55 57.4 56.4 57.95 57.3 58.5 59.15 58.5 61.4 58.5 62.55 57.65
M 50.8 52.1
Q 51.3 52.1 51.6 52.3 51.9 52.45 51.9 52.75 51.9 52.95 51.8 53.3 51.4 53.4 50.1 53.55 48.65 53.7 47.8 53.9 46.95 54.1 46.4 54.6 45.8 55.15 45.8 56.2 45.8 57.1 46.45 57.8 47.1 58.5 48.55 58.5 50 58.5 51.15 57.4 51.15 57.85 51.3 58.3
L 54.2 58.3
Q 54 57.75 54 57.2 54 56.6 54.35 55 54.75 53.35 54.75 52.6 54.75 51.5 53.95 50.95 53.15 50.35 50.85 50.35 48.85 50.35 47.9 50.95 46.95 51.55 46.65 52.65
L 49.45 52.95
Q 49.65 52.45 50 52.25 50.3 52.1 50.8 52.1
M 51.5 54.8
Q 51.3 55.95 50.75 56.4 50.2 56.85 49.65 56.85 49.2 56.85 48.95 56.65 48.7 56.45 48.7 56.05 48.7 55.7 49.05 55.45 49.45 55.15 51.5 54.8
M 40.25 56.75
Q 39 56.75 38.85 55.2
L 44.8 55.2
Q 45 54.05 45 53.6 45 52.25 44.05 51.3 43.1 50.35 40.95 50.35 39.9 50.35 39.15 50.55 38.4 50.8 37.65 51.4 36.85 52.05 36.4 52.95 35.95 53.85 35.95 54.9 35.95 56.4 36.95 57.45 37.9 58.5 40.2 58.5 41.75 58.5 42.85 58 43.9 57.45 44.55 56.3
L 41.65 56.05
Q 41.15 56.75 40.25 56.75
M 39.15 53.75
Q 39.4 52.9 39.85 52.5 40.3 52.1 40.85 52.1 41.4 52.1 41.75 52.4 42.1 52.7 42.1 53.3 42.1 53.6 42.05 53.75
L 39.15 53.75
M 35.85 47.55
L 32.85 47.55 30.6 58.3 33.55 58.3 35.85 47.55
M 27.1 50.35
Q 26.4 50.35 25.9 50.55 25.4 50.75 24.75 51.35
L 24.75 51.3 24.9 50.55 22.1 50.55 19.8 61.25 22.8 61.25 23.65 57.25
Q 24.5 58.5 26.1 58.5 27.75 58.5 28.8 57.05 29.85 55.55 29.85 53.6 29.85 52.1 29.15 51.2 28.45 50.35 27.1 50.35
M 25.9 52.3
Q 26.3 52.3 26.6 52.6 26.9 52.95 26.9 53.65 26.9 54.85 26.45 55.65 26 56.5 25.35 56.5 24.9 56.5 24.55 56.15 24.2 55.8 24.2 55.1 24.2 54.15 24.65 53.25 25.05 52.3 25.9 52.3
M 99.6 4.7
Q 100.2 4.1 101.05 3.9
L 101.05 0.45
Q 97.4 0.7 94.8 3.3 91.95 6.15 91.95 10.2
L 91.95 14.75
Q 92.05 14.8 92.15 14.85 96.6 16.2 101.05 16.3
L 101.05 14.2
Q 100.2 14 99.6 13.35 98.7 12.45 98.7 11.25
L 98.7 6.85
Q 98.7 5.65 99.6 4.7
M 101.75 17.65
L 101.7 17.65
Q 96.85 17.65 91.95 16.2
L 91.95 24.25
Q 91.95 28.3 94.8 31.15 97.65 34 101.7 34 105.75 34 108.6 31.15 111.45 28.3 111.45 24.25
L 111.45 16.2
Q 106.6 17.65 101.75 17.65
M 102.4 3.9
Q 103.25 4.1 103.85 4.7 104.7 5.65 104.7 6.85
L 104.7 11.25
Q 104.7 12.45 103.85 13.35 103.25 14 102.4 14.2
L 102.4 16.3
Q 106.8 16.2 111.25 14.85 111.35 14.8 111.45 14.75
L 111.45 10.2
Q 111.45 6.15 108.6 3.3 106 0.7 102.4 0.45
L 102.4 3.9
M 148.75 22.05
Q 148.75 18.9 145.65 18.9
L 136.85 18.9
Q 133.7 18.9 133.7 22.05
L 133.7 30.85
Q 133.7 34 136.85 34
L 145.65 34
Q 148.75 34 148.75 30.85
L 148.75 22.05
M 143.55 23.65
L 143.55 29.55 138.4 26.6 143.55 23.65
M 165.9 13.9
L 165.9 5.1
Q 165.9 2 162.75 2
L 153.95 2
Q 150.8 2 150.8 5.1
L 150.8 13.9
Q 150.8 17 153.95 17
L 162.75 17
Q 165.9 17 165.9 13.9
M 155.35 11.85
L 158.3 6.7 161.25 11.85 155.35 11.85
M 179.85 18.9
L 171.05 18.9
Q 167.9 18.9 167.9 22.05
L 167.9 30.85
Q 167.9 34 171.05 34
L 179.85 34
Q 183 34 183 30.85
L 183 22.05
Q 183 18.9 179.85 18.9
M 178.25 26.6
L 173.1 29.55 173.1 23.65 178.25 26.6 Z"/>

<path fill="#E98585" stroke="none" d="
M 103.05 5.65
Q 102.5 5.15 101.7 5.15 100.9 5.15 100.4 5.65 99.85 6.25 99.85 7
L 99.85 11.15
Q 99.85 11.95 100.4 12.5 100.9 13.05 101.7 13.05 102.5 13.05 103.05 12.5 103.6 11.95 103.6 11.15
L 103.6 7
Q 103.6 6.25 103.05 5.65
M 165.9 22.05
Q 165.9 18.9 162.75 18.9
L 153.95 18.9
Q 150.8 18.9 150.8 22.05
L 150.8 30.85
Q 150.8 34 153.95 34
L 162.75 34
Q 165.9 34 165.9 30.85
L 165.9 22.05
M 155.4 24.35
L 161.3 24.35 158.35 29.5 155.4 24.35 Z"/>
</g>
</defs>

<g transform="matrix( 1, 0, 0, 1, 0,0) ">
<use xlink:href="#Layer0_0_FILL"/>
</g>
</svg>
