
<svg xmlns="http://www.w3.org/2000/svg" version="1.1" xmlns:xlink="http://www.w3.org/1999/xlink" preserveAspectRatio="none" x="0px" y="0px" width="275px" height="84px" viewBox="0 0 275 84">
<defs>
<g id="Layer0_0_FILL">
<path fill="#FFFFFF" stroke="none" d="
M 54.5 60.8
L 54.5 59.15 49 59.15 49 60.8 54.5 60.8
M 61.7 69.45
L 61.7 60.15 58.3 60.15 58.3 58.3 55.95 58.3 55.95 60.15 55.05 60.15 55.05 61.8 55.95 61.8
Q 55.95 67.3 54.9 69.3 54.5 67.35 53.9 65.7
L 52.1 65.7
Q 52.15 65.95 52.3 66.4 52.65 67.75 52.75 68.35 51.75 68.45 50.5 68.45 51.8 66.8 52.4 64.3
L 54.9 64.3 54.9 62.65 48.3 62.65 48.3 64.3 49.95 64.3
Q 49.6 66.35 48.4 68.45
L 48.4 70.25
Q 51.15 70.25 53.05 70 53.05 70.25 53.1 70.45
L 54.6 70.45 54.6 71.95
Q 56.8 70.1 57.45 68.1 58.2 66.1 58.25 61.8
L 59.35 61.8 59.35 69.45
Q 59.35 70.1 58.8 70.1
L 57.9 70.1 57.9 71.6 59.6 71.6
Q 61.75 71.7 61.7 69.45
M 68 70.5
L 68 69.1
Q 66.95 69.5 66.05 69.65
L 66.05 64.65 63.9 64.65 63.9 71.9
Q 66.15 71.45 68 70.5
M 67.8 67.05
L 66.1 67.05
Q 66.6 67.95 66.75 68.85
L 68.55 68.85
Q 68.35 68.05 67.8 67.05
M 67.8 64.9
L 66.1 64.9
Q 66.45 65.6 66.7 66.6 66.75 66.65 66.75 66.7
L 68.5 66.7
Q 68.4 65.9 67.8 64.9
M 71.45 68.85
L 73.2 68.85
Q 73.1 68.05 72.5 67.05
L 70.8 67.05
Q 71.15 67.75 71.4 68.75 71.45 68.8 71.45 68.85
M 70.8 64.65
L 68.65 64.65 68.65 71.95
Q 71.15 71.4 73 70.5
L 73 69.15
Q 72.75 69.2 72.25 69.4 71.3 69.65 70.8 69.75
L 70.8 67.05 70.8 64.95
Q 71.15 65.7 71.45 66.7
L 73.2 66.7
Q 73.2 68.35 73.55 69.85 74.1 71.95 75.85 71.9 77.45 71.95 77.35 69.8
L 76.35 69.8
Q 76.4 70.45 76.15 70.45 75.65 70.5 75.5 69.4 75.2 67.65 75.3 64.65
L 73.15 64.65
Q 73.15 65.6 73.15 66.6 73 65.7 72.5 64.9
L 70.8 64.9 70.8 64.65
M 73.25 60.2
L 73.25 60.85 70.25 60.85 70.25 62.2 73.25 62.2
Q 73.25 62.85 72.55 62.75
L 66.4 62.75 66.4 62.2 69.35 62.2 69.35 60.85 66.4 60.85 66.4 60.2 67.4 60.2
Q 68.65 60.2 69.6 59.85
L 69.6 58.25
Q 68.35 58.75 66.8 58.75
L 63.95 58.75 63.95 64.3 73.7 64.3
Q 75.8 64.35 75.7 62.15
L 75.7 58.8 70.25 58.8 70.25 60.2 73.25 60.2
M 35.65 71.6
Q 36.45 68.85 36.6 65.7
L 34.55 65.7
Q 34.35 68.75 33.25 71.6
L 35.65 71.6
M 36.6 65
Q 36.3 63.4 35.7 62.2
L 33.6 62.2
Q 34.05 63.35 34.35 65
L 36.6 65
M 36.6 62.55
L 36.6 65 36.6 65.1 37.45 65.1 37.45 71.8 39.75 71.8 39.75 69.75 43.6 69.75 43.6 69.8
Q 43.65 70.4 43 70.35
L 42.55 70.35 42.55 71.75 44.1 71.75
Q 46 71.8 45.95 69.75
L 45.95 65.1 46.9 65.1 46.9 62.55 45.9 62.55 45.9 58.8 37.5 58.8 37.5 62.55 36.6 62.55
M 39.75 60.7
L 39.75 60.25 43.65 60.25 43.65 62.55 43 62.55 43 60.7 39.75 60.7
M 38.85 64.6
L 38.85 64 44.6 64 44.6 64.6 38.85 64.6
M 39.75 62.55
L 39.75 61.9 41.1 61.9 41.1 62.55 39.75 62.55
M 39.75 66.6
L 39.75 66 43.6 66 43.6 66.6 39.75 66.6
M 39.75 68.45
L 39.75 67.85 43.6 67.85 43.6 68.45 39.75 68.45
M 22.75 71.85
L 25.1 71.85 25.1 69.75 28.9 69.75 28.9 69.8
Q 28.95 70.45 28.35 70.4
L 27.85 70.4 27.85 71.8 29.45 71.8
Q 31.3 71.85 31.25 69.9
L 31.25 64.6 22.75 64.6 22.75 71.85
M 28.9 66.05
L 28.9 66.65 25.1 66.65 25.1 66.05 28.9 66.05
M 25.1 67.85
L 28.9 67.85 28.9 68.5 25.1 68.5 25.1 67.85
M 22.4 68.4
Q 21.95 68.75 21.5 68.85
L 21.5 62.4 18.3 62.4 18.3 64.05 19.1 64.05 19.1 71.9
Q 21 71.25 22.4 70.15
L 22.4 68.4
M 21.85 61.5
Q 21.6 59.85 20.8 58.5
L 18.55 58.5
Q 19.15 59.75 19.6 61.5
L 21.85 61.5
M 31.75 60.3
L 31.75 58.95 28.15 58.95 28.15 58.3 25.75 58.3 25.75 58.95 22.3 58.95 22.3 60.3 25.75 60.3 25.75 60.85 22.5 60.85 22.5 62.15 25.75 62.15 25.75 62.75 22 62.75 22 64.1 32 64.1 32 62.75 28.15 62.75 28.15 62.15 31.4 62.15 31.4 60.85 28.15 60.85 28.15 60.3 31.75 60.3
M 35.5 58.65
L 33.4 58.65
Q 34 60.15 34.15 61.55
L 36.4 61.55
Q 36.1 59.8 35.5 58.65
M 129.9 65.9
L 129.9 62.75 123.95 62.75 123.95 67.95 128 67.95
Q 129.95 68 129.9 65.9
M 127.7 65.6
Q 127.75 66.35 127.05 66.3
L 126.2 66.3 126.2 64.4 127.7 64.4 127.7 65.6
M 133.95 58.65
L 133.95 60.1 132.85 60.1
Q 132.85 59.25 132.85 58.3
L 130.35 58.3
Q 130.35 59.25 130.35 60.1
L 123.4 60.1 123.4 61.85 130.4 61.85
Q 130.6 65.6 131.15 67.85 131.2 68.05 131.3 68.3 131.4 68.45 131.4 68.5 130.85 69.05 130.25 69.55
L 130.25 68.5
Q 128.55 68.8 127.2 68.85 125.95 69 123.4 69
L 123.4 70.85
Q 126.65 70.9 129.7 70.35
L 129.7 71.8
Q 130.45 71.4 131.65 70.5 131.95 70.4 132.15 70.25 133.3 71.85 135.05 71.85 137.3 71.9 137.25 69.4
L 135.55 69.4
Q 135.6 70.2 135.05 70.2 134.2 70.15 133.7 68.75 135.7 66.5 136.75 62.6
L 134.45 62.6
Q 133.9 64.65 133.15 66.05 132.95 64.7 132.85 61.85
L 136.95 61.85 136.95 60.1 135.95 60.1 135.95 58.65 133.95 58.65
M 151.15 63.85
L 151.15 62.5 148.8 62.5 148.8 63.85 146.05 63.85 146.05 62.5 143.75 62.5 143.75 63.85 142.85 63.85 142.85 65.55 143.8 65.55
Q 144.05 68.3 145.55 69.7 144.5 70.1 142.9 70.4
L 142.9 71.8
Q 145.75 71.4 147.45 70.7 149.1 71.4 151.95 71.85
L 151.95 70.45
Q 150.3 70.1 149.25 69.7 150.85 68.35 151.05 65.55
L 152 65.55 152 63.85 151.15 63.85
M 148.8 65.55
Q 148.65 67.6 147.45 68.65 146.2 67.6 146.1 65.55
L 148.8 65.55
M 145.95 58.5
L 145.95 59.4 143 59.4 143 62.05 145.2 62.05 145.2 61 149.6 61 149.6 62.05 151.85 62.05 151.85 59.4 148.85 59.4 148.85 58.5 145.95 58.5
M 142.7 61.65
L 142.7 60.1 141.85 60.1 141.85 58.4 139.55 58.4 139.55 60.1 138.55 60.1 138.55 61.65 139.55 61.65 139.55 64.7
Q 139.35 64.7 139 64.7 138.65 64.75 138.4 64.75
L 138.4 66.75
Q 138.7 66.7 139.15 66.65 139.4 66.6 139.55 66.6
L 139.55 69.7
Q 139.55 70.35 138.95 70.35
L 138.65 70.35 138.65 71.8 139.8 71.8
Q 141.95 71.85 141.85 69.9
L 141.85 66
Q 142 65.95 142.3 65.8 142.5 65.75 142.65 65.7
L 142.65 64.05
Q 142.45 64.1 142.15 64.2 142 64.3 141.85 64.3
L 141.85 61.65 142.7 61.65
M 154.3 58.45
Q 154.25 60.15 153.25 60.95
L 153.25 62.2
Q 154.65 61.95 155.25 61.15
L 157.1 61.15 157.1 59.55 156.05 59.55
Q 156.15 59.1 156.2 58.45
L 154.3 58.45
M 92 70.8
L 92 69.1
Q 91.15 67.85 91.15 65.2
L 89.1 65.2
Q 88.95 69.35 92 70.8
M 83.1 62.4
L 83.1 64.05 86.2 64.05 86.2 69.65
Q 86.25 70.25 85.6 70.2
L 85.1 70.2 85.1 71.75 86.5 71.75
Q 88.65 71.8 88.6 69.75
L 88.6 64.05 91.95 64.05 91.95 62.4 83.1 62.4
M 85.85 65.2
L 83.75 65.2
Q 83.75 67.75 82.85 69.1
L 82.85 70.8
Q 85.85 69.35 85.85 65.2
M 83.05 61.85
L 83.05 60.15 82 60.15 82 58.4 79.7 58.4 79.7 60.15 78.55 60.15 78.55 61.85 79.65 61.85
Q 79.25 64.3 78.25 66.45
L 78.25 69.15
Q 79.1 68.05 79.7 66.75
L 79.7 71.9 82 71.9 82 65.8
Q 82.45 66.6 83.1 67.4
L 83.1 64.85
Q 82.35 63.5 82.05 61.85
L 83.05 61.85
M 91.4 60.65
L 91.4 59 83.65 59 83.65 60.65 91.4 60.65
M 232.65 69.9
L 232.65 71.45 241.9 71.45 241.9 69.9 238.5 69.9 238.5 66.95 241.35 66.95 241.35 65.3 233.35 65.3 233.35 66.95 236.1 66.95 236.1 69.9 232.65 69.9
M 228.55 61.7
L 229.6 61.7 229.6 64.85
Q 229.4 64.85 229 64.9 228.65 64.9 228.4 64.95
L 228.4 66.9
Q 229 66.8 229.6 66.65
L 229.6 69.7
Q 229.6 70.35 229 70.35
L 228.6 70.35 228.6 71.8 230 71.8
Q 231.85 71.8 231.85 69.9
L 231.85 66.05
Q 232.35 65.9 232.85 65.7
L 232.85 64.1
Q 232.35 64.3 231.85 64.4
L 231.85 61.7 232.7 61.7 232.7 60.15 231.85 60.15 231.85 58.45 229.6 58.45 229.6 60.15 228.55 60.15 228.55 61.7
M 237.2 61.85
L 235.05 61.85
Q 234.6 63.25 233.05 63.75
L 233.05 64.95
Q 236.75 64.65 237.2 61.85
M 238.65 58.5
L 235.95 58.5 235.95 59.4 232.8 59.4 232.8 62 234.9 62 234.9 60.9 239.7 60.9 239.7 61.95
Q 239.65 61.9 239.65 61.85
L 237.5 61.85
Q 238 64.7 241.7 64.95
L 241.7 63.75
Q 240.15 63.3 239.7 62
L 241.75 62 241.75 59.4 238.65 59.4 238.65 58.5
M 175.75 64
L 173.55 64
Q 174.05 64.95 174.15 65.95
L 176.45 65.95
Q 176.25 64.95 175.75 64
M 168.4 69.85
L 168.4 71.4 181.95 71.4 181.95 69.85 180.85 69.85 180.85 66.4 169.55 66.4 169.55 69.85 168.4 69.85
M 171.85 69.85
L 171.85 68 172.7 68 172.7 69.85 171.85 69.85
M 177.65 68
L 178.5 68 178.5 69.85 177.65 69.85 177.65 68
M 174.8 68
L 175.55 68 175.55 69.85 174.8 69.85 174.8 68
M 157 66.95
L 157 65.9 157 65.35 156.2 65.35 156.2 63.85 156.85 63.85 156.85 62.35 153.55 62.35 153.55 63.85 154.25 63.85 154.25 65.35 153.35 65.35 153.35 66.95 154.25 66.95 154.25 71.7
Q 155.85 71.1 156.95 70.25
L 156.95 68.65 156.7 68.75
Q 156.4 69 156.2 69.05
L 156.2 66.95 157 66.95
M 166.9 71.6
L 166.9 70.1 161.6 70.1
Q 160.4 70.1 159.8 69.55 160.5 68.35 160.45 66.45
L 160.45 63.25 159.1 63.25
Q 159.9 62.35 160.5 60.6
L 160.5 59 157.4 59 157.4 60.6 158.55 60.6
Q 158.15 61.95 157.3 63.25
L 157.3 64.75 158.75 64.75 158.75 66.95
Q 158.75 67.45 158.7 67.8 158.45 67 158.35 65.9
L 157 65.9
Q 157.2 68.15 157.9 69.5 157.55 69.9 156.85 70.4
L 156.85 71.9
Q 158.1 71.35 158.8 70.65 159.95 71.6 161.8 71.6
L 166.9 71.6
M 164.2 58.4
L 162.25 58.4 162.25 59 160.85 59 160.85 60.35 162.25 60.35 162.25 61.1 160.45 61.1 160.45 62.4 162.25 62.4 162.25 63.2 160.85 63.2 160.85 64.55 162.25 64.55 162.25 65.2 160.75 65.2 160.75 66.6 162.25 66.6 162.25 67.3 160.55 67.3 160.55 68.75 162.25 68.75 162.25 69.85 164.2 69.85 164.2 68.75 166.7 68.75 166.7 67.3 164.2 67.3 164.2 66.6 166.55 66.6 166.55 65.2 164.2 65.2 164.2 64.55 164.6 64.55
Q 166.55 64.55 166.5 62.65
L 166.5 62.4 167 62.4 167 61.1 166.5 61.1 166.5 59 164.2 59 164.2 58.4
M 164.2 61.1
L 164.2 60.35 164.85 60.35 164.85 61.1 164.2 61.1
M 164.85 62.4
L 164.85 62.55
Q 164.9 63.2 164.2 63.2
L 164.2 62.4 164.85 62.4
M 176.3 58.3
L 173.45 58.3
Q 173.4 58.5 173.3 58.85 173.2 59 173.2 59.1
L 170.35 59.1 170.35 62.2 168.4 62.2 168.4 63.75 170.25 63.75
Q 170 64.4 169.35 64.9
L 169.35 66.4
Q 172.4 65.65 172.75 63.75
L 177.95 63.75 177.95 64
Q 178 64.7 177.4 64.65
L 176.9 64.65 176.9 66.15 178.45 66.15
Q 180.65 66.3 180.55 63.9
L 180.55 63.75 182.05 63.75 182.05 62.2 180.55 62.2 180.55 59.1 176.1 59.1
Q 176.25 58.75 176.3 58.3
M 173.85 60.9
Q 173.85 60.95 173.9 61.1 174.25 61.85 174.35 62.2
L 172.85 62.2 172.85 60.65 177.95 60.65 177.95 62.2 176.6 62.2
Q 176.55 61.7 176.1 60.9
L 173.85 60.9
M 253.9 69.05
L 253.9 59.5 251.85 59.5 251.85 69.05 253.9 69.05
M 244.15 58.65
Q 244.05 60.5 243.25 61.15
L 243.25 62.35
Q 244.75 62.15 245.4 61.15
L 246.5 61.15 246.5 62.75 243.3 62.75 243.3 64.4 246.5 64.4 246.5 65.3 243.75 65.3 243.75 71.05 245.8 71.05 245.8 66.95 246.5 66.95 246.5 71.9 248.7 71.9 248.7 66.95 249.4 66.95 249.4 69.15
Q 249.4 69.55 249.05 69.55
L 248.85 69.55 248.85 71.05 249.7 71.05
Q 251.5 71.1 251.45 69.35
L 251.45 65.3 248.7 65.3 248.7 64.4 251.55 64.4 251.55 62.75 248.7 62.75 248.7 61.15 251.2 61.15 251.2 59.5 248.7 59.5 248.7 58.4 246.5 58.4 246.5 59.5 246.05 59.5
Q 246.15 59.15 246.15 58.65
L 244.15 58.65
M 256.55 58.4
L 254.45 58.4 254.45 69.5
Q 254.45 70.15 253.85 70.15
L 253 70.15 253 71.7 254.6 71.7
Q 256.6 71.8 256.55 69.65
L 256.55 58.4 Z"/>

<path fill="#E98585" stroke="none" d="
M 93.35 71.6
L 95.75 71.6
Q 96.6 69.05 96.75 65.7
L 94.7 65.7
Q 94.4 69.05 93.35 71.6
M 93.75 62.15
Q 94.4 63.75 94.6 65
L 96.75 65
Q 96.45 63.75 95.95 62.15
L 93.75 62.15
M 96.85 62.5
L 96.85 63.7
Q 100.25 63.5 101.5 60.95
L 99.2 60.95
Q 98.4 62.15 96.85 62.5
M 95.75 58.65
L 93.65 58.65
Q 94.15 60.25 94.4 61.5
L 96.6 61.5
Q 96.35 60.1 95.75 58.65
M 117.2 65.8
L 117.2 63.4 114.85 63.4 114.85 69.35
Q 114.75 71.6 116.9 71.5
L 119.55 71.5
Q 121.6 71.55 121.55 69.55
L 121.55 68.6 119.6 68.6 119.6 69.15
Q 119.6 70 118.85 70
L 118 70
Q 117.15 70.1 117.2 69.05
L 117.2 67.65
Q 120.25 67 121.35 63.75
L 119.15 63.75
Q 118.3 65.3 117.2 65.8
M 103.15 63.55
Q 103.5 64.05 103.55 64.35 103.6 64.45 103.6 64.55
L 103.3 64.55
Q 101.75 64.65 100.85 64.65 102.15 64.05 103.2 62.6
L 100.7 62.6
Q 99.8 63.7 98 64.6
L 98 66.15
Q 98.75 66.15 99.45 66.15 98.7 67.65 96.75 68.5
L 96.75 70
Q 97.8 69.7 98.65 69.35
L 98.65 71.85
Q 101.05 71.55 102.85 70.75
L 102.85 69.65
Q 104.5 71.05 107.05 71.55
L 107.05 70.25
Q 106.05 69.9 105.35 69.4 106.5 68.6 106.9 66.65
L 104.9 66.65
Q 104.85 67.75 104.25 68.4 103.65 67.7 103.25 66.65
L 101.6 66.65
Q 101.8 66.35 101.9 66.1 103 66.05 104.15 65.9 104.15 66 104.2 66.1 104.2 66.25 104.2 66.3
L 106.15 66.3
Q 105.8 65 104.95 63.55
L 103.15 63.55
M 102.65 69.45
Q 102.5 69.5 102.1 69.55 101.25 69.75 100.9 69.8
L 100.9 67.75
Q 101.1 67.5 101.25 67.15 101.8 68.4 102.65 69.45
M 103.45 59.15
L 103.45 58.45 100.7 58.45 100.7 59.15 97.2 59.15 97.2 60.6 106.85 60.6 106.85 59.15 103.45 59.15
M 104.6 60.95
L 102.4 60.95
Q 103.45 63.5 106.9 63.7
L 106.9 62.5
Q 105.2 62 104.6 60.95
M 119.1 58.4
L 116.55 58.4
Q 115.75 60.8 113.75 62.25
L 113.75 63.75
Q 116.5 62.95 117.85 60.9 119.35 62.95 122.05 63.7
L 122.05 62.25
Q 120.15 61 119.1 58.4
M 114.25 60.95
L 114.25 59.4 112 59.4
Q 112.1 58.9 112.15 58.4
L 109.95 58.4
Q 109.95 58.55 109.9 58.9 109.9 59.2 109.8 59.4
L 108.4 59.4 108.4 60.95 109.6 60.95
Q 109.3 62.55 108.45 64.35
L 108.45 65.95 111 65.95 111 67.5
Q 110.6 67.6 109.7 67.6 108.9 67.65 108.4 67.65
L 108.4 69.4
Q 109.8 69.4 111 69.3
L 111 71.8 113.2 71.8 113.2 68.95
Q 113.8 68.8 114.35 68.65
L 114.35 67.15
Q 114.15 67.15 113.8 67.25 113.4 67.3 113.2 67.35
L 113.2 65.95 114.2 65.95 114.2 64.35 113.2 64.35 113.2 61.9 111.4 61.9
Q 111.4 61.8 111.5 61.5 111.6 61.15 111.65 60.95
L 114.25 60.95
M 110.35 64.35
Q 110.7 63.7 111 63
L 111 64.35 110.35 64.35
M 215.25 61.15
L 217.1 61.15 217.1 59.55 216.05 59.55
Q 216.15 59.1 216.2 58.45
L 214.3 58.45
Q 214.25 60.15 213.25 60.95
L 213.25 62.2
Q 214.65 61.95 215.25 61.15
M 216.2 63.85
L 216.85 63.85 216.85 62.35 213.55 62.35 213.55 63.85 214.25 63.85 214.25 65.35 213.35 65.35 213.35 66.95 214.25 66.95 214.25 71.7
Q 215.85 71.1 216.95 70.25
L 216.95 68.65 216.7 68.75
Q 216.4 69 216.2 69.05
L 216.2 66.95 217 66.95 217 65.9 217 65.35 216.2 65.35 216.2 63.85
M 226.9 71.6
L 226.9 70.1 221.6 70.1
Q 220.4 70.1 219.8 69.55 220.5 68.35 220.45 66.45
L 220.45 63.25 219.1 63.25
Q 219.9 62.35 220.5 60.6
L 220.5 59 217.4 59 217.4 60.6 218.55 60.6
Q 218.15 61.95 217.3 63.25
L 217.3 64.75 218.75 64.75 218.75 66.95
Q 218.75 67.45 218.7 67.8 218.45 67 218.35 65.9
L 217 65.9
Q 217.2 68.15 217.9 69.5 217.55 69.9 216.85 70.4
L 216.85 71.9
Q 218.1 71.35 218.8 70.65 219.95 71.6 221.8 71.6
L 226.9 71.6
M 224.2 59
L 224.2 58.4 222.25 58.4 222.25 59 220.85 59 220.85 60.35 222.25 60.35 222.25 61.1 220.45 61.1 220.45 62.4 222.25 62.4 222.25 63.2 220.85 63.2 220.85 64.55 222.25 64.55 222.25 65.2 220.75 65.2 220.75 66.6 222.25 66.6 222.25 67.3 220.55 67.3 220.55 68.75 222.25 68.75 222.25 69.85 224.2 69.85 224.2 68.75 226.7 68.75 226.7 67.3 224.2 67.3 224.2 66.6 226.55 66.6 226.55 65.2 224.2 65.2 224.2 64.55 224.6 64.55
Q 226.55 64.55 226.5 62.65
L 226.5 62.4 227 62.4 227 61.1 226.5 61.1 226.5 59 224.2 59
M 224.2 60.35
L 224.85 60.35 224.85 61.1 224.2 61.1 224.2 60.35
M 224.2 62.4
L 224.85 62.4 224.85 62.55
Q 224.9 63.2 224.2 63.2
L 224.2 62.4
M 198.95 71.75
L 201.45 71.75 201.45 61.45 208.9 61.45 208.9 69.45
Q 208.9 70.05 208.3 70.05
L 207.75 70.05 207.75 71.7 209.2 71.7
Q 211.5 71.75 211.4 69.5
L 211.4 59.75 205.75 59.75
Q 205.9 59.15 206.1 58.45
L 203.05 58.45
Q 203 58.9 202.8 59.55 202.75 59.65 202.75 59.75
L 198.95 59.75 198.95 71.75
M 202.2 62.7
L 202.2 69.4 206.15 69.4
Q 208.25 69.45 208.2 67.3
L 208.2 62.7 202.2 62.7
M 204.45 64.35
L 205.95 64.35 205.95 67.05
Q 206.05 67.75 205.4 67.7
L 204.45 67.7 204.45 64.35
M 196.7 61.2
L 196.7 59.5 191.65 59.5 191.65 58.45 188.65 58.45 188.65 59.5 183.6 59.5 183.6 61.2 185.5 61.2 185.5 62.35
Q 185.5 65.8 185.1 67.4 184.75 68.95 183.6 70.2
L 183.6 71.85
Q 188.05 69.9 188.15 64.35
L 192.95 64.35 192.95 69.15
Q 193 70 192.15 70
L 190.35 70 190.35 71.6 192.95 71.6
Q 195.7 71.7 195.65 69.15
L 195.65 62.7 188.2 62.7
Q 188.2 62.25 188.2 61.85
L 188.2 61.2 196.7 61.2 Z"/>
</g>

<g id="Layer0_1_FILL">
<path fill="#FFFFFF" stroke="none" d="
M 98.7 11.25
L 98.7 6.85
Q 98.7 5.65 99.6 4.7 100.2 4.1 101.05 3.9
L 101.05 0.45
Q 97.4 0.7 94.8 3.3 91.95 6.15 91.95 10.2
L 91.95 14.75
Q 92.05 14.8 92.15 14.85 96.6 16.2 101.05 16.3
L 101.05 14.2
Q 100.2 14 99.6 13.35 98.7 12.45 98.7 11.25
M 101.75 17.65
L 101.7 17.65
Q 96.85 17.65 91.95 16.2
L 91.95 24.25
Q 91.95 28.3 94.8 31.15 97.65 34 101.7 34 105.75 34 108.6 31.15 111.45 28.3 111.45 24.25
L 111.45 16.2
Q 106.6 17.65 101.75 17.65
M 108.6 3.3
Q 106 0.7 102.4 0.45
L 102.4 3.9
Q 103.25 4.1 103.85 4.7 104.7 5.65 104.7 6.85
L 104.7 11.25
Q 104.7 12.45 103.85 13.35 103.25 14 102.4 14.2
L 102.4 16.3
Q 106.8 16.2 111.25 14.85 111.35 14.8 111.45 14.75
L 111.45 10.2
Q 111.45 6.15 108.6 3.3
M 148.75 22.05
Q 148.75 18.9 145.65 18.9
L 136.85 18.9
Q 133.7 18.9 133.7 22.05
L 133.7 30.85
Q 133.7 34 136.85 34
L 145.65 34
Q 148.75 34 148.75 30.85
L 148.75 22.05
M 143.55 29.55
L 138.4 26.6 143.55 23.65 143.55 29.55
M 171.05 18.9
Q 167.9 18.9 167.9 22.05
L 167.9 30.85
Q 167.9 34 171.05 34
L 179.85 34
Q 183 34 183 30.85
L 183 22.05
Q 183 18.9 179.85 18.9
L 171.05 18.9
M 178.25 26.6
L 173.1 29.55 173.1 23.65 178.25 26.6
M 162.75 17
Q 165.9 17 165.9 13.9
L 165.9 5.1
Q 165.9 2 162.75 2
L 153.95 2
Q 150.8 2 150.8 5.1
L 150.8 13.9
Q 150.8 17 153.95 17
L 162.75 17
M 155.35 11.85
L 158.3 6.7 161.25 11.85 155.35 11.85 Z"/>

<path fill="#E98585" stroke="none" d="
M 103.6 11.15
L 103.6 7
Q 103.6 6.25 103.05 5.65 102.5 5.15 101.7 5.15 100.9 5.15 100.4 5.65 99.85 6.25 99.85 7
L 99.85 11.15
Q 99.85 11.95 100.4 12.5 100.9 13.05 101.7 13.05 102.5 13.05 103.05 12.5 103.6 11.95 103.6 11.15
M 165.9 22.05
Q 165.9 18.9 162.75 18.9
L 153.95 18.9
Q 150.8 18.9 150.8 22.05
L 150.8 30.85
Q 150.8 34 153.95 34
L 162.75 34
Q 165.9 34 165.9 30.85
L 165.9 22.05
M 155.4 24.35
L 161.3 24.35 158.35 29.5 155.4 24.35 Z"/>
</g>
</defs>

<g transform="matrix( 1, 0, 0, 1, 0,0) ">
<use xlink:href="#Layer0_0_FILL"/>
</g>

<g transform="matrix( 1, 0, 0, 1, 0,14.5) ">
<use xlink:href="#Layer0_1_FILL"/>
</g>
</svg>
