
<svg xmlns="http://www.w3.org/2000/svg" version="1.1" xmlns:xlink="http://www.w3.org/1999/xlink" preserveAspectRatio="none" x="0px" y="0px" width="156px" height="136px" viewBox="0 0 156 136">
<defs>
<linearGradient id="Gradient_1" gradientUnits="userSpaceOnUse" x1="112.6875" y1="42.25" x2="117.4125" y2="61.150000000000006" spreadMethod="pad">
<stop  offset="0%" stop-color="#CCCCCC"/>

<stop  offset="100%" stop-color="#999999"/>
</linearGradient>

<g id="avatar_3_stand____0_Layer3_0_FILL">
<path fill="#CBAF8F" stroke="none" d="
M -853.6 -140.75
Q -857 -140.75 -859.4 -129.15 -861.4 -118.95 -861.7 -105.1 -861.72890625 -103.766796875 -861.75 -102.4
L -845.45 -102.4
Q -845.59375 -117.9625 -847.85 -129.15 -850.2 -140.75 -853.6 -140.75 Z"/>
</g>

<g id="avatar_3_stand____0_Layer2_0_FILL">
<path fill="#957600" stroke="none" d="
M -862.5 -124.75
Q -863.6 -121.8 -865.5 -114.5 -847.1 -109.55 -831.7 -114.5 -832.6 -121.55 -832.55 -121.5 -834.7 -132.4 -835.8 -136.6 -837.05 -141.55 -838.6 -145.9 -838.45 -146.6 -843.75 -147.15 -849.05 -147.7 -854.15 -143.95 -856.15 -140.8 -858.05 -136.6 -859.85 -132.65 -862.5 -124.75 Z"/>

<path fill="#564400" stroke="none" d="
M -867.5 -106.2
Q -865.9560546875 -104.0578125 -864.2 -102.4
L -830.5 -102.4
Q -830.964453125 -108.714453125 -831.7 -114.5 -847.1 -109.55 -865.5 -114.5 -866.5 -110.55 -867.5 -106.2 Z"/>
</g>

<g id="avatar_3_stand____0_Layer1_0_FILL">
<path fill="#F2E0CB" stroke="none" d="
M -850.9 -129.15
Q -852.9 -118.95 -853.2 -105.1 -853.22890625 -103.766796875 -853.25 -102.4
L -836.95 -102.4
Q -837.09375 -117.9625 -839.35 -129.15 -841.7 -140.75 -845.1 -140.75 -848.5 -140.75 -850.9 -129.15 Z"/>
</g>

<g id="avatar_head_mc_3_0_Layer3_0_FILL">
<path fill="#564400" stroke="none" d="
M 25.9 65.65
L 11.55 69.4 24.55 75.05 25.9 65.65
M 107 77.8
L 110.1 89.85 124.9 84.5 107 77.8 Z"/>
</g>

<g id="avatar_head_mc_3_0_Layer2_0_FILL">
<path fill="#F3E4D3" stroke="none" d="
M 113.2 94.5
Q 113.35 93.2 113.35 91.75 113.35 91.1 113.3 90.5 113.05 86.8 111.35 84.5 110.4845703125 83.34609375 109.25 82.6 124.977734375 45.0798828125 96 31.35 67.084375 17.6681640625 44.05 32.9 21.0533203125 48.137890625 22.15 63.15 23.306640625 78.2037109375 22.8 82.95 22.349609375 87.751953125 22.35 89.25 22.35 89.9 22.4 90.5 22.5 96.25 24.05 100.75 27.15 109.8 35.85 114 40.7 116.35 48.8 117.45 56.3 118.5 66.6 118.5 67.4 118.5 68.25 118.5 92.4 118.05 96.9 103.85 98.8 103.6 101.05 103.35 105.6 102.8 107.8 101.95 109 101.5 109.9 100.75 112.55 98.65 113.2 94.5 Z"/>
</g>

<g id="avatar_head_mc_3_0_Layer1_0_FILL">
<path fill="#333333" stroke="none" d="
M 46.7 87.75
Q 53.4 85.55 55.6 84.75 60.1 82.9 65.25 82.9 66.3931640625 82.9 67.45 83 64.1646484375 83.1486328125 61.75 85.8 59.2 88.65 59.2 92.7 59.2 96.7 61.75 99.5 64.3 102.35 67.85 102.35 71.45 102.35 74 99.5 76.55 96.7 76.55 92.7 76.55 88.65 74 85.8 72.849609375 84.53671875 71.45 83.85 72.9359375 84.3255859375 74.25 85.05 75.95 85.95 79.5 87.7 77.05 80.8 69.45 79.35 61.85 77.85 46.7 87.75
M 61.8 86
Q 62.9 84.6 64.35 84.6 65.85 84.6 66.9 86 68 87.45 68 89.45 68 91.4 66.9 92.8 65.85 94.2 64.35 94.2 62.9 94.2 61.8 92.8 60.75 91.4 60.75 89.45 60.75 87.45 61.8 86
M 34.6 83.5
Q 34.3 82.95 34 82.5 35.5 84.35 36.85 87.2 35.05 80.75 33.15 78.8 30.7 76.25 27.4 76.55 22.85 78.25 22.1 80.65 28.6 77.05 33.3 81.8 32.25 80.8 31 80.8 28.9 80.8 27.45 83.5 25.95 86.2 25.95 90 25.95 93.8 27.45 96.4 28.9 99.1 31 99.1 33.1 99.1 34.6 96.4 36.05 93.8 36.05 90 36.05 86.2 34.6 83.5
M 27.45 83.7
Q 28.1 82.4 28.95 82.4 29.85 82.4 30.45 83.7 31.1 85.05 31.1 86.9 31.1 88.85 30.45 90.1 29.85 91.4 28.95 91.4 28.1 91.4 27.45 90.1 26.85 88.85 26.85 86.9 26.85 85.05 27.45 83.7 Z"/>

<path fill="#FFFFFF" stroke="none" d="
M 64.35 84.6
Q 62.9 84.6 61.8 86 60.75 87.45 60.75 89.45 60.75 91.4 61.8 92.8 62.9 94.2 64.35 94.2 65.85 94.2 66.9 92.8 68 91.4 68 89.45 68 87.45 66.9 86 65.85 84.6 64.35 84.6
M 28.95 82.4
Q 28.1 82.4 27.45 83.7 26.85 85.05 26.85 86.9 26.85 88.85 27.45 90.1 28.1 91.4 28.95 91.4 29.85 91.4 30.45 90.1 31.1 88.85 31.1 86.9 31.1 85.05 30.45 83.7 29.85 82.4 28.95 82.4 Z"/>
</g>

<g id="avatar_head_mc_3_0_Layer0_0_FILL">
<path fill="#000000" fill-opacity="0.30196078431372547" stroke="none" d="
M 39 79.8
L 39 79.8
Q 39.2263671875 81.62265625 39.5 84.25
L 39.65 84.3
Q 39.75 84.35 39.75 84.5 41.3482421875 81.537109375 42.6 79.4
L 42.6 79.4
Q 41.7251953125 76.974609375 41.05 75.35 40.183203125 77.2666015625 39 79.8
M 27.1 67.5
Q 26.33203125 69.1087890625 25.4 70.95 24.1921875 73.585546875 22.75 76.7 22.6232421875 76.9775390625 22.5 77.25
L 22.5 83.25 29.05 70.15
Q 32.055078125 69.5546875 33.75 69.5 33.80234375 69.4982421875 33.85 69.5 33.3158203125 67.9859375 32.85 66.75 32.13203125 66.810546875 31.35 66.9 31.0107421875 66.942578125 30.65 67 28.9556640625 67.201953125 27.1 67.5
M 109 82.55
Q 106.810546875 82.205078125 104.7 81.8 103.437890625 84.1103515625 102.1 86.45 101.92265625 86.7509765625 101.75 87.05 97.9826171875 93.6791015625 95.45 96.95 95.420703125 102.293359375 95.25 104
L 95.25 104.25
Q 95.4 103.95 103.9 90.65 104.8029296875 89.23984375 105.6 87.95 109.2751953125 89.5060546875 113.45 91.3 112.755078125 85.1029296875 109.7 82.8 110.949609375 82.87421875 109 82.55
M 89.5 90.1
Q 89.701953125 92.5828125 90 96 91.0376953125 94.937109375 92.5 92.65 92.3578125 92.01015625 92.2 91.3 91.4765625 88.1318359375 91.1 86.3 90.8189453125 86.98125 90.45 87.85 89.96015625 89.0359375 89.5 90.1
M 84.9 79.25
Q 84.2794921875 77.5404296875 83.65 75.95 81.598046875 75.21640625 79.45 74.4 68.55 70.25 62.5 68.9 59.87109375 68.2990234375 57 67.85 56.5150390625 67.77421875 56 67.7 55.2931640625 67.5966796875 54.55 67.5 53.5265625 67.3669921875 52.45 67.25 51.998046875 68.448828125 51.5 69.75 49.1447265625 75.8138671875 46.1 84.25 47 88.8125 47 89.5 48.55 87.95 53.15 75.4 54.10546875 72.792578125 54.9 70.65 58.3388671875 71.5388671875 63.95 73 79.1 77 83 78.5 83.775 78.798046875 84.9 79.25 Z"/>

<path fill="#333333" stroke="none" d="
M 33.85 69.5
Q 34.4787109375 71.240234375 35.2 73.35 37.75 80.8 38 81.25
L 38.25 81.5
Q 38.6515625 80.6201171875 39 79.8 40.183203125 77.2666015625 41.05 75.35 41.7251953125 76.974609375 42.6 79.4
L 42.6 79.4
Q 44.45078125 84.6033203125 45 86.75
L 45.25 86.75
Q 45.695703125 85.4884765625 46.1 84.25 49.1447265625 75.8138671875 51.5 69.75
L 49.5 69.25
Q 39.591015625 69.299609375 33.85 69.5
M 25.4 70.95
Q 24.3720703125 71.2431640625 23.2 71.55 20.2220703125 72.3033203125 18.05 72.8 18.0849609375 74.7466796875 18.15 77.65 18.35 85.6 18.5 87
L 18.5 87.2
Q 18.525 85.98203125 22.5 77.25 22.6232421875 76.9775390625 22.75 76.7 24.1921875 73.585546875 25.4 70.95
M 84.9 79.25
L 84.95 79.3
Q 88.65 88.85 88.5 91.5 88.75 91.5 88.75 92 89.11328125 91.10390625 89.5 90.1 89.96015625 89.0359375 90.45 87.85 90.8189453125 86.98125 91.1 86.3 91.4765625 88.1318359375 92.2 91.3 92.3578125 92.01015625 92.5 92.65 93.7052734375 98.097265625 93.75 98.5
L 93.75 99
Q 94.521484375 98.228515625 95.45 96.95 97.9826171875 93.6791015625 101.75 87.05 101.92265625 86.7509765625 102.1 86.45 89.930078125 81.2853515625 84.9 79.25 Z"/>

<path fill="#000000" stroke="none" d="
M 37.5 66.5
Q 35.3736328125 66.5 32.85 66.75 33.3158203125 67.9859375 33.85 69.5 39.591015625 69.299609375 49.5 69.25
L 51.5 69.75
Q 51.998046875 68.448828125 52.45 67.25 45.615234375 66.5 37.5 66.5
M 25.4 70.95
Q 26.33203125 69.1087890625 27.1 67.5 25.33046875 67.81171875 23.4 68.2 20.571484375 68.7564453125 18 69.05 18 69.2873046875 18 69.5 18 70.3216796875 18.05 72.8 20.2220703125 72.3033203125 23.2 71.55 24.3720703125 71.2431640625 25.4 70.95
M 83.65 75.95
Q 84.2794921875 77.5404296875 84.9 79.25 89.930078125 81.2853515625 102.1 86.45 103.437890625 84.1103515625 104.7 81.8 104.54609375 81.778125 104.4 81.75 101.5783203125 81.2162109375 98.95 80.6 92.142578125 78.9888671875 83.65 75.95 Z"/>

<path fill="#957600" stroke="none" d="
M 31.15 58.2
Q 31.2490234375 55.94453125 31.45 53.8 30.9833984375 55.8150390625 30.4 58.2 30.0392578125 59.6291015625 29.65 61.2 28.15 65 24 65 20.85 65 19.8 63.25 19.0322265625 61.9833984375 18.95 59.1 18.5240234375 61.6638671875 18.25 64.35 16.5478515625 65.1869140625 15.15 66 13.7544921875 66.8591796875 10.75 69.25 11.164453125 69.480078125 11.25 69.55 14.3794921875 69.5453125 18 69.05 20.571484375 68.7564453125 23.4 68.2 25.33046875 67.81171875 27.1 67.5 28.9556640625 67.201953125 30.65 67 31.0107421875 66.942578125 31.35 66.9 31.3279296875 66.2818359375 31.3 65.65 31.194921875 64.186328125 31.15 62.75 31.089453125 60.409765625 31.15 58.2
M 100 40.9
Q 97.4017578125 43.4517578125 96.45 46.05 95.830078125 47.8484375 95.45 49.7 95.447265625 49.8498046875 95.4 50 95.305078125 50.6716796875 95.2 51.35 94.90703125 54.057421875 95.25 56.1
L 95.4 58.2 95.4 58.35
Q 93.80546875 61.6625 90.4 64.15 85.15 68 78.5 68 70.9 68 66 65.75 60.5810546875 63.24609375 59.2 58.2 58.75 56.4951171875 58.75 54.5 58.75 52.3 59.4 50.25 59.435546875 50.1283203125 59.45 50 59.510546875 49.854296875 59.55 49.7 59.768359375 48.7037109375 59.85 47.35 59.3458984375 48.506640625 58.9 49.7 58.8439453125 49.8498046875 58.8 50 57.3728515625 53.905078125 56.8 58.2 56.5 60.8271484375 56.5 63.6 56.5 64.39609375 56.7 65.9
L 56.7 65.95
Q 56.791796875 66.5236328125 56.9 67.2 56.9474609375 67.53203125 57 67.85 59.87109375 68.2990234375 62.5 68.9 68.55 70.25 79.45 74.4 81.598046875 75.21640625 83.65 75.95 92.142578125 78.9888671875 98.95 80.6 101.5783203125 81.2162109375 104.4 81.75 104.54609375 81.778125 104.7 81.8 106.810546875 82.205078125 109 82.55 110.949609375 82.87421875 109.7 82.8 116.341015625 83.6390625 119.95 84 122.8484375 84.3345703125 125.85 84.55 124.8041015625 83.41328125 123.4 81.85 121.9091796875 80.1693359375 120.3 78.75 120.181640625 75.9111328125 119.7 70.7 119.578125 69.0185546875 119.4 67.4 115.53203125 68.45546875 110.95 69.15 107.34375 68.28203125 104.4 65.85 103.3041015625 64.9283203125 102.3 63.8 99.96171875 61.1626953125 98.9 58.2 98 55.714453125 98 53 98 51.4755859375 98.15 50 98.2041015625 49.8498046875 98.2 49.7 98.7263671875 45.9669921875 100.4 42.55 101.36953125 40.531640625 102.5 39.05 100.8529296875 40.0775390625 100 40.9 Z"/>

<path fill="#ECAE00" stroke="none" d="
M 33.5 32.65
Q 33.20703125 32.8716796875 32.9 33.1 25.2404296875 39.4009765625 21.45 49.7 21.4197265625 49.849609375 21.35 50 20.1837890625 53.2638671875 19.4 56.9 19.2654296875 57.5568359375 19.15 58.2 19.055859375 58.6595703125 18.95 59.1 19.0322265625 61.9833984375 19.8 63.25 20.85 65 24 65 28.15 65 29.65 61.2 30.0392578125 59.6291015625 30.4 58.2 30.9833984375 55.8150390625 31.45 53.8 31.6919921875 51.85546875 32.05 50 32.070703125 49.849609375 32.1 49.7 32.155859375 49.360546875 32.2 49
L 32.1 49.7
Q 32.2009765625 49.3759765625 32.25 49.05 32.3123046875 48.904296875 32.35 48.75 32.7654296875 46.930859375 33.25 45.25
L 33.25 45.25
Q 31.5 44 31.5 40.5 31.5 36.67265625 33.5 32.65
M 96.45 46.05
Q 97.4017578125 43.4517578125 100 40.9 100.8529296875 40.0775390625 102.5 39.05 103.103515625 38.35703125 103.7 37.75 103.944140625 37.567578125 104.15 37.35 104.287109375 37.2853515625 104.4 37.2 104.9369140625 36.79375 105.5 36.45 106.836328125 36.4412109375 108.05 36.35 107.27265625 35.42265625 106.35 34.5 84.542578125 34.863671875 64.2 40.2 61.60546875 43.5927734375 59.85 47.35 59.768359375 48.7037109375 59.55 49.7 59.510546875 49.854296875 59.45 50 59.435546875 50.1283203125 59.4 50.25 58.75 52.3 58.75 54.5 58.75 56.4951171875 59.2 58.2 60.5810546875 63.24609375 66 65.75 70.9 68 78.5 68 85.15 68 90.4 64.15 93.80546875 61.6625 95.4 58.35
L 95.4 58.2 95.25 56.1
Q 94.90703125 54.057421875 95.2 51.35 95.305078125 50.6716796875 95.4 50 95.447265625 49.8498046875 95.45 49.7 95.830078125 47.8484375 96.45 46.05 Z"/>

<path fill="#AA8700" stroke="none" d="
M 59.95 41.4
Q 52.5400390625 43.5013671875 49.15 44.4 42.2 46.25 37.85 46.25 34.619140625 46.25 33.25 45.25 32.7654296875 46.930859375 32.35 48.75 32.3123046875 48.904296875 32.25 49.05 32.2009765625 49.3759765625 32.1 49.7
L 32.2 49
Q 32.155859375 49.360546875 32.1 49.7 32.070703125 49.849609375 32.05 50 31.6919921875 51.85546875 31.45 53.8 31.2490234375 55.94453125 31.15 58.2 31.089453125 60.409765625 31.15 62.75 31.194921875 64.186328125 31.3 65.65 31.3279296875 66.2818359375 31.35 66.9 32.13203125 66.810546875 32.85 66.75 35.3736328125 66.5 37.5 66.5 45.615234375 66.5 52.45 67.25 53.5265625 67.3669921875 54.55 67.5 54.5 65.8337890625 54.5 63.75 54.5 63.0166015625 54.5 62.3 54.5775390625 60.21015625 54.75 58.2 55.219921875 53.919140625 56.35 50 56.4052734375 49.849609375 56.45 49.7 57.7763671875 45.32265625 59.95 41.4
M 45.75 49.2
Q 45.9357421875 49.2705078125 46.1 49.35 46.4533203125 49.509375 46.75 49.7 46.9701171875 49.84140625 47.15 50 48.8203125 51.395703125 48.05 54.1 47.303125 56.95234375 44.9 58.2 44.1994140625 58.569140625 43.35 58.8 42.850390625 58.552734375 42.3 58.2 40.4208984375 56.980078125 38 54.5 35.4318359375 51.85859375 33.6 50 33.471875 49.8732421875 33.35 49.75 33.3248046875 49.725 33.3 49.7 33.0705078125 49.4716796875 32.85 49.25
L 45.75 49.2
M 32.6 48.75
L 32.5 48.75
Q 32.59921875 48.6404296875 32.65 48.7 32.6421875 48.7248046875 32.6 48.75 Z"/>

<path fill="#999999" stroke="none" d="
M 33.35 49.75
Q 33.471875 49.8732421875 33.6 50 35.4318359375 51.85859375 38 54.5 40.4208984375 56.980078125 42.3 58.2 42.850390625 58.552734375 43.35 58.8 44.1994140625 58.569140625 44.9 58.2 47.303125 56.95234375 48.05 54.1 48.8203125 51.395703125 47.15 50 46.9701171875 49.84140625 46.75 49.7 46.4533203125 49.509375 46.1 49.35 46.2611328125 49.53203125 46.4 49.7 46.5283203125 49.8560546875 46.6 50 47.25 50.811328125 47.25 51.25 47.25 52.45 46.5 53.5 45.55 54.75 44 54.75 42.05 54.75 36.8 51.8 35.0005859375 50.778125 33.75 50 33.541796875 49.8716796875 33.35 49.75
M 55.35 33.7
Q 55.046875 31.7666015625 54.2 31.15 54.0603515625 32.02890625 53.5 33 52.55 34.5 51.35 34.5 49.15 34.5 46.5 31.35 45.6193359375 30.3302734375 43.15 26.6 42.9826171875 26.5259765625 42.8 26.45 43.3673828125 27.6412109375 43.95 28.9 45.552734375 32.48046875 47.4 36.65 47.897265625 37.80546875 48.7 38.65 48.656640625 38.75 49.1 38.75 52.953515625 38.753515625 54.3 37.25 55.68359375 35.7966796875 55.35 33.7
M 64.2 20.55
Q 62.8978515625 19.34921875 61.7 18.15 61.8240234375 18.45234375 61.95 18.75 62.5 20 62.5 20.75 62.5 22.8 61.4 23.75 60.349609375 24.66328125 58.6 24.3 58.77890625 25.37109375 58.9 26.1 58.9998046875 26.44609375 60.15 26.85 61.30703125 27.3080078125 62.85 27.15 64.445703125 26.9958984375 65.5 25.75 66.456640625 24.6021484375 66.5 22.65 65.31328125 21.604296875 64.2 20.55
M 76.4 7.45
Q 76.3578125 7.55546875 76.3 7.65 76.2716796875 8.4185546875 76.25 9.25 76.164453125 12.846875 76 14.5 75.9787109375 14.7775390625 75.95 15 75.1701171875 19.9259765625 70.95 20.1 70.93671875 20.3029296875 70.9 20.45 75.3796875 20.986328125 78.95 21.75 78.3365234375 17.5806640625 77.8 14.5 76.989453125 9.59453125 76.4 7.45
M 132 -6.15
Q 121.48671875 -21.3703125 132 -42.85 130.389453125 -40.7181640625 128.95 -38.65 127.7626953125 -36.421875 126.7 -33.45 124 -25.8 124 -18.85 124 -10.9 127.3 -5.7 129.0515625 -2.9154296875 132.5 3.2 134.4896484375 6.503515625 135.95 10.35 136.719140625 12.394921875 137.3 14.5 137.87734375 16.3638671875 138.3 18.25 139.2130859375 22.3365234375 139.65 26.95 140.078515625 31.6126953125 138.25 36.2 137.9150390625 37.040625 137.55 37.8 135.880078125 41.29453125 133.45 43.5 130.5296875 46.2525390625 130.25 46.5 128.126171875 48.3076171875 125.8 49.7 125.5765625 49.8525390625 125.3 50 124.6111328125 50.4203125 123.85 50.8 120.9087890625 52.3556640625 117.65 53.25
L 117.65 53.2
Q 116.6134765625 51.5640625 115.85 50 115.771484375 49.8498046875 115.7 49.7 113.5 45.1716796875 113.5 41.25 113.5 38.06484375 114.1 35.55 112.3833984375 35.9548828125 110.3 36.15 110.1259765625 36.7583984375 109.95 37.4 109 40.75 109 44.1 109 47.0638671875 109.5 49.7 109.5560546875 49.8505859375 109.6 50 110.09921875 52.3298828125 111 54.4 109.654296875 54.5 108.25 54.5 105.9244140625 54.5 104.4 53.4 102.796484375 52.3048828125 102.05 50 102.041796875 49.8525390625 102 49.7 101.5 47.9283203125 101.5 45.5 101.505078125 42.6453125 102.15 40.55 102.4328125 39.61953125 102.85 38.85 103.240625 38.258203125 103.7 37.75 103.103515625 38.35703125 102.5 39.05 101.36953125 40.531640625 100.4 42.55 98.7263671875 45.9669921875 98.2 49.7 98.2041015625 49.8498046875 98.15 50 98 51.4755859375 98 53 98 55.714453125 98.9 58.2 99.96171875 61.1626953125 102.3 63.8 103.3041015625 64.9283203125 104.4 65.85 107.34375 68.28203125 110.95 69.15 115.53203125 68.45546875 119.4 67.4 128.9765625 64.840625 134.25 60.15 135.341796875 59.1826171875 136.3 58.2 140.3078125 54.224609375 142.5 50 142.5986328125 49.850390625 142.65 49.7 144.361328125 46.4126953125 144.95 42.95 144.987109375 42.8685546875 145.4 40.4 145.5970703125 39.278125 145.85 37.65 146.7671875 32.483203125 144.65 20.75 144.13203125 17.754296875 143 14.5 139.85 5.141015625 132 -6.15
M 37.7 -8
Q 38.36953125 -17.7951171875 31.3 -29.4 32.234765625 -27.3193359375 33.15 -24.35 35.25 -17.45 35.25 -13.35 35.25 -10.9095703125 34.5 -8 33.0021484375 -1.8484375 28.25 6.4 25.7109375 10.8251953125 24.1 14.5 21.25 20.9576171875 21.25 25.1 21.25 27.7517578125 22.05 29.65 20.338671875 30.361328125 18.85 31.85 15.76953125 34.8830078125 15.95 39.5 16.189453125 39.5 16.5 39.5 17.35 37.65 18.9 35.75 20.9439453125 33.237109375 24.2 32.4 25.628515625 33.4599609375 27.6 33.65 27.1138671875 33.8548828125 25.1 35.55 23.1416015625 37.23203125 22 40.1 20.8671875 43.0232421875 20.25 44.7 19.6267578125 46.415234375 17.3 46.3 14.9765625 46.2458984375 12.6 43 12.0427734375 41.76171875 11.6 40.25 10.25 35.6 10.25 28.85
L 10.25 28.6
Q 9.521484375 32.637109375 9.75 37.15 9.7462890625 37.255859375 9.75 37.3 10.0705078125 43.5291015625 12.45 48.9 12.630859375 49.3080078125 12.8 49.7 12.899609375 49.8513671875 12.95 50 15.31484375 54.56015625 19.4 56.9 20.1837890625 53.2638671875 21.35 50 21.4197265625 49.849609375 21.45 49.7 25.2404296875 39.4009765625 32.9 33.1 33.20703125 32.8716796875 33.5 32.65 33.5728515625 32.5849609375 33.65 32.5 34.7287109375 31.6880859375 35.8 30.9 35.1642578125 30.81796875 34.6 30.65 30.456640625 29.50546875 30 24.3 29.4986328125 17.80859375 30.7 14.5 30.7650390625 14.3466796875 30.8 14.2 32.169140625 10.884375 36.5 -1.85 37.5193359375 -4.8181640625 37.7 -8 Z"/>

<path fill="#EEEEEE" stroke="none" d="
M 46.1 49.35
Q 45.9357421875 49.2705078125 45.75 49.2
L 32.85 49.25
Q 33.0705078125 49.4716796875 33.3 49.7 33.3248046875 49.725 33.35 49.75 33.541796875 49.8716796875 33.75 50 35.0005859375 50.778125 36.8 51.8 42.05 54.75 44 54.75 45.55 54.75 46.5 53.5 47.25 52.45 47.25 51.25 47.25 50.811328125 46.6 50 46.5283203125 49.8560546875 46.4 49.7 46.2611328125 49.53203125 46.1 49.35
M 54.2 31.15
Q 54.1283203125 31.1171875 54.05 31.05 53.086328125 30.560546875 50.25 29.5 47.5169921875 28.4865234375 45.5 27.65 44.1724609375 27.0849609375 43.15 26.6 45.6193359375 30.3302734375 46.5 31.35 49.15 34.5 51.35 34.5 52.55 34.5 53.5 33 54.0603515625 32.02890625 54.2 31.15
M 61.7 18.15
Q 61.5962890625 18.09296875 61.5 18 59.494921875 16.02890625 58.1 14.5 57.2248046875 13.4912109375 56.6 12.65 56.7572265625 13.61640625 56.9 14.5 57.550390625 18.343359375 58 21.1 58.3439453125 22.9611328125 58.6 24.3 60.349609375 24.66328125 61.4 23.75 62.5 22.8 62.5 20.75 62.5 20 61.95 18.75 61.8240234375 18.45234375 61.7 18.15
M 76.25 9.25
Q 76.2716796875 8.4185546875 76.3 7.65 75.6453125 9.2873046875 73.55 13.8 73.41640625 14.1705078125 73.25 14.5 71.4833984375 18.4302734375 70.95 20.1 75.1701171875 19.9259765625 75.95 15 75.9787109375 14.7775390625 76 14.5 76.164453125 12.846875 76.25 9.25
M 108.05 36.35
Q 106.836328125 36.4412109375 105.5 36.45 104.9369140625 36.79375 104.4 37.2 104.287109375 37.2853515625 104.15 37.35 103.944140625 37.567578125 103.7 37.75 103.240625 38.258203125 102.85 38.85 102.4328125 39.61953125 102.15 40.55 101.505078125 42.6453125 101.5 45.5 101.5 47.9283203125 102 49.7 102.041796875 49.8525390625 102.05 50 102.796484375 52.3048828125 104.4 53.4 105.9244140625 54.5 108.25 54.5 109.654296875 54.5 111 54.4 110.09921875 52.3298828125 109.6 50 109.5560546875 49.8505859375 109.5 49.7 109 47.0638671875 109 44.1 109 40.75 109.95 37.4 110.1259765625 36.7583984375 110.3 36.15 109.2439453125 36.29921875 108.05 36.35
M 127.3 -5.7
Q 124 -10.9 124 -18.85 124 -25.8 126.7 -33.45 127.7626953125 -36.421875 128.95 -38.65 116.284375 -20.1341796875 119.35 -7.05 124.0986328125 7.0529296875 125.8 14.5 126.75 18.65859375 126.75 20.75 126.75 26.15 124.5 29.5 122.9650390625 31.7572265625 120.6 32.65 120.5734375 32.6779296875 120.55 32.7 120.483984375 32.762109375 120.4 32.8 119.2134765625 33.8966796875 117.25 34.65 117.195703125 34.680859375 117.1 34.7 115.77421875 35.2171875 114.1 35.55 113.5 38.06484375 113.5 41.25 113.5 45.1716796875 115.7 49.7 115.771484375 49.8498046875 115.85 50 116.6134765625 51.5640625 117.65 53.2
L 117.65 53.25
Q 120.9087890625 52.3556640625 123.85 50.8 124.6111328125 50.4203125 125.3 50 125.5765625 49.8525390625 125.8 49.7 128.126171875 48.3076171875 130.25 46.5 130.5296875 46.2525390625 133.45 43.5 135.880078125 41.29453125 137.55 37.8 137.9150390625 37.040625 138.25 36.2 140.078515625 31.6126953125 139.65 26.95 139.2130859375 22.3365234375 138.3 18.25 137.87734375 16.3638671875 137.3 14.5 136.719140625 12.394921875 135.95 10.35 134.4896484375 6.503515625 132.5 3.2 129.0515625 -2.9154296875 127.3 -5.7
M 33.15 -24.35
Q 32.234765625 -27.3193359375 31.3 -29.4 30.9546875 -30.015625 30.55 -30.65 34.23203125 -15.537109375 30.1 -8 29.8068359375 -7.428125 29.45 -6.9 24.3931640625 0.5869140625 20.9 6.4 18.176171875 10.9314453125 16.05 14.5 15.453515625 15.5140625 14.9 16.45 12.381640625 20.6896484375 10.9 25.9 10.5236328125 27.23125 10.25 28.6
L 10.25 28.85
Q 10.25 35.6 11.6 40.25 12.0427734375 41.76171875 12.6 43 14.9765625 46.2458984375 17.3 46.3 19.6267578125 46.415234375 20.25 44.7 20.8671875 43.0232421875 22 40.1 23.1416015625 37.23203125 25.1 35.55 27.1138671875 33.8548828125 27.6 33.65 25.628515625 33.4599609375 24.2 32.4 20.9439453125 33.237109375 18.9 35.75 17.35 37.65 16.5 39.5 16.189453125 39.5 15.95 39.5 15.76953125 34.8830078125 18.85 31.85 20.338671875 30.361328125 22.05 29.65 21.25 27.7517578125 21.25 25.1 21.25 20.9576171875 24.1 14.5 25.7109375 10.8251953125 28.25 6.4 33.0021484375 -1.8484375 34.5 -8 35.25 -10.9095703125 35.25 -13.35 35.25 -17.45 33.15 -24.35 Z"/>

<path fill="#FF9900" fill-opacity="0.9882352941176471" stroke="none" d="
M 42.8 26.45
Q 42.9826171875 26.5259765625 43.15 26.6 44.1724609375 27.0849609375 45.5 27.65 49.69375 24.4673828125 55.3 21.6 49.1705078125 23.031640625 43 26.35 42.9072265625 26.4052734375 42.8 26.45 Z"/>

<path fill="#F0C44E" stroke="none" d="
M 43.95 28.9
Q 43.3673828125 27.6412109375 42.8 26.45 39.31875 28.365625 35.8 30.9 34.7287109375 31.6880859375 33.65 32.5 33.5728515625 32.5849609375 33.5 32.65 31.5 36.67265625 31.5 40.5 31.5 44 33.25 45.25
L 33.25 45.25
Q 35.091015625 39.183984375 38.05 35.1 40.3982421875 31.8615234375 43.95 28.9
M 90.4 24.9
Q 90.29375 24.8771484375 90.15 24.8 75.2666015625 27.7853515625 66.3 37.7 65.183984375 38.9298828125 64.2 40.2 84.542578125 34.863671875 106.35 34.5 105.4396484375 33.5828125 104.4 32.7 98.8671875 27.998828125 90.4 24.9 Z"/>

<path fill="#D1A600" stroke="none" d="
M 64.2 20.55
Q 65.31328125 21.604296875 66.5 22.65 66.456640625 24.6021484375 65.5 25.75 64.445703125 26.9958984375 62.85 27.15 61.30703125 27.3080078125 60.15 26.85 58.9998046875 26.44609375 58.9 26.1 58.77890625 25.37109375 58.6 24.3 58.3439453125 22.9611328125 58 21.1 56.6736328125 21.3115234375 55.3 21.6 49.69375 24.4673828125 45.5 27.65 47.5169921875 28.4865234375 50.25 29.5 53.086328125 30.560546875 54.05 31.05 54.1283203125 31.1171875 54.2 31.15 55.046875 31.7666015625 55.35 33.7 55.68359375 35.7966796875 54.3 37.25 52.953515625 38.753515625 49.1 38.75 48.656640625 38.75 48.7 38.65 47.897265625 37.80546875 47.4 36.65 45.552734375 32.48046875 43.95 28.9 40.3982421875 31.8615234375 38.05 35.1 35.091015625 39.183984375 33.25 45.25 34.619140625 46.25 37.85 46.25 42.2 46.25 49.15 44.4 52.5400390625 43.5013671875 59.95 41.4 61.9314453125 37.894140625 64.6 34.75 73.1548828125 24.6568359375 87.7 22.65
L 78.95 21.75
Q 75.3796875 20.986328125 70.9 20.45 67.184765625 20.503125 64.2 20.55 Z"/>

<path fill="#564400" stroke="none" d="
M 90.15 24.8
L 87.7 22.65
Q 73.1548828125 24.6568359375 64.6 34.75 61.9314453125 37.894140625 59.95 41.4 57.7763671875 45.32265625 56.45 49.7 56.4052734375 49.849609375 56.35 50 55.219921875 53.919140625 54.75 58.2 54.5775390625 60.21015625 54.5 62.3 54.5 63.0166015625 54.5 63.75 54.5 65.8337890625 54.55 67.5 55.2931640625 67.5966796875 56 67.7 56.5150390625 67.77421875 57 67.85 56.9474609375 67.53203125 56.9 67.2 56.791796875 66.5236328125 56.7 65.95
L 56.7 65.9
Q 56.5 64.39609375 56.5 63.6 56.5 60.8271484375 56.8 58.2 57.3728515625 53.905078125 58.8 50 58.8439453125 49.8498046875 58.9 49.7 59.3458984375 48.506640625 59.85 47.35 61.60546875 43.5927734375 64.2 40.2 65.183984375 38.9298828125 66.3 37.7 75.2666015625 27.7853515625 90.15 24.8 Z"/>

<path fill="url(#Gradient_1)" stroke="none" d="
M 119.35 -7.05
Q 119.51875 -6.3275390625 119.7 -5.65 123.2484375 5.95703125 124.1 14.5 124.34921875 16.9513671875 124.35 19.15 124.4955078125 28.9474609375 120.6 32.65 122.9650390625 31.7572265625 124.5 29.5 126.75 26.15 126.75 20.75 126.75 18.65859375 125.8 14.5 124.0986328125 7.0529296875 119.35 -7.05 Z"/>
</g>

<g id="Layer0_1_FILL">
<path fill="#FFFFFF" stroke="none" d="
M 76.05 75.75
L 76.25 85.2
Q 76.35 85.1 76.35 85.05
L 80.8 84.7
Q 80.25 78.75 76.05 75.75 Z"/>

<path fill="#A12C2C" stroke="none" d="
M 21.7 97.15
L 0.4 97.55 0.5 102.5 15.35 103.75 21.7 97.15
M 118.65 82
L 120.85 85.9 125.1 81.5 118.65 82
M 118.75 88.15
L 115.35 82.2 103.8 83.05 101.85 93.45
Q 103.9 93.1 105.9 92.9 110.45 92.3 114.55 92.55
L 118.75 88.15
M 98.7 94.15
L 100.7 83.3 80.8 84.7 76.35 85.05
Q 76.35 85.1 76.25 85.2 67.35 99.8 54.65 95.15
L 43.95 106.1 123.2 112.75 133.6 102 74 103
Q 83.6 98.55 91.9 96 95.4 94.9 98.7 94.15
M 104.4 64.05
L 108.75 63.95 132.45 63.55 135.55 63.55 144.45 63.35
Q 138.15 56.4 128.65 54.55 121.95 53.25 113.7 54.4 100.2 56.1 82.45 64.4
L 104.4 64.05 Z"/>

<path fill="#CCCCCC" stroke="none" d="
M 16.9 94.45
Q 15.6 94.2 14.15 94.25 12.95 94.15 11.6 94.35 6.8 94.9 0.4 97.55
L 21.7 97.15 22.5 97.1
Q 22.35 96.95 22.05 96.75 19.95 94.95 16.9 94.45
M 98.7 94.15
Q 95.4 94.9 91.9 96 83.6 98.55 74 103
L 133.6 102 136 101.95
Q 132.4 98.05 127.8 95.7 125 94.3 121.65 93.5 121.2 93.4 120.7 93.3 117.8 92.7 114.55 92.55 110.45 92.3 105.9 92.9 103.9 93.1 101.85 93.45 100.25 93.75 98.7 94.15 Z"/>

<path fill="#B84F4F" stroke="none" d="
M 14.15 94.25
Q 15.6 94.2 16.9 94.45 19.95 94.95 22.05 96.75 22.35 96.95 22.5 97.1
L 21.7 97.15 15.35 103.75 43.95 106.1 54.65 95.15
Q 48.85 93.05 42.35 87
L 19.1 88.9
Q 13.05 77.4 0 75.35
L 0.4 97.55
Q 6.8 94.9 11.6 94.35 12.95 94.15 14.15 94.25
M 131.35 81.05
L 127.8 95.7
Q 132.4 98.05 136 101.95
L 133.6 102 123.2 112.75 138.25 114 138.2 111.45 137.75 83.15 137.7 80.55 131.35 81.05
M 125.2 93.8
L 128.15 81.25 125.1 81.5 120.85 85.9 125.2 93.8
M 140.95 80.45
L 140.95 83.15 141.4 111.4 141.5 114.45 148 114.25 147.75 100.3 147.65 94.3 147.4 80.3 140.95 80.45
M 114.55 92.55
Q 117.8 92.7 120.7 93.3 121.2 93.4 121.65 93.5
L 118.75 88.15 114.55 92.55 Z"/>

<path fill="#333333" stroke="none" d="
M 151.5 94.25
L 147.65 94.3 147.75 100.3 151.6 100.25 151.5 94.25
M 140.95 83.15
L 137.75 83.15 138.2 111.45 141.4 111.4 140.95 83.15
M 108.75 63.95
L 104.4 64.05 100.7 83.3 98.7 94.15
Q 100.25 93.75 101.85 93.45
L 103.8 83.05 106.9 66.8 115.35 82.2 118.75 88.15 121.65 93.5
Q 125 94.3 127.8 95.7
L 131.35 81.05 135.55 63.55 132.45 63.55 128.15 81.25 125.2 93.8 120.85 85.9 118.65 82 108.75 63.95 Z"/>
</g>

<g id="Layer0_1_MEMBER_0_FILL">
<path fill="#FFFFFF" stroke="none" d="
M 149.75 69.6
L 150.25 97.2
Q 154.6 91.25 154.55 83.35 154.4 75.55 149.75 69.6 Z"/>
</g>

<g id="Layer0_1_MEMBER_1_FILL">
<path fill="#FFFFFF" stroke="none" d="
M 150.75 124.9
Q 155.15 118.85 155 111.05 154.85 103.25 150.25 97.2
L 150.75 124.9 Z"/>
</g>

<g id="Layer0_1_MEMBER_2_FILL">
<path fill="#CD6464" stroke="none" d="
M 154 92.65
Q 152.4 91.15 150.15 91
L 150.4 103.45
Q 152.6 103.2 154.15 101.55 156 99.75 156 97.15 155.95 94.55 154 92.65 Z"/>
</g>

<g id="Layer0_1_MEMBER_3_FILL">
<path fill="#333333" stroke="none" d="
M 19.3 103.95
L 17.1 103.75 15.8 106
Q 15.1 105.75 14.4 105.8 13.75 105.8 13.2 105.9
L 11.65 103.3 9.1 103.05 11.5 106.95
Q 11.4 107 11.3 107.1 10.05 108.4 10.15 110.25 10.15 112 11.4 113.35 12.7 114.5 14.55 114.55 16.3 114.55 17.6 113.2 18.95 111.85 18.9 110.05 18.85 108.3 17.5 107
L 19.3 103.95
M 12.1 110.2
Q 12.1 109.2 12.75 108.5 13 108.25 13.3 108.1 13.8 107.8 14.45 107.75 15.1 107.75 15.65 108.1 15.95 108.25 16.15 108.45 16.9 109.1 16.9 110.1 16.9 111.1 16.15 111.8 15.5 112.5 14.5 112.55 13.45 112.55 12.75 111.85 12.1 111.25 12.1 110.2 Z"/>

<path fill="#CCCCCC" stroke="none" d="
M 12.75 108.5
Q 12.1 109.2 12.1 110.2 12.1 111.25 12.75 111.85 13.45 112.55 14.5 112.55 15.5 112.5 16.15 111.8 16.9 111.1 16.9 110.1 16.9 109.1 16.15 108.45 15.95 108.25 15.65 108.1 15.1 107.75 14.45 107.75 13.8 107.8 13.3 108.1 13 108.25 12.75 108.5 Z"/>
</g>

<g id="Layer0_1_MEMBER_4_FILL">
<path fill="#333333" stroke="none" d="
M 118.95 118.3
Q 119.9 118.25 120.9 118.4
L 119.5 112.35 115.4 112.1 116.9 118.4
Q 117.95 118.3 118.95 118.3
M 123.95 127.4
Q 123.95 129.3 122.7 130.7 121.3 132.1 119.35 132.1 117.4 132.15 116.1 130.8 114.65 129.45 114.65 127.6
L 111 127.65
Q 111.1 131 113.5 133.3 115.9 135.65 119.2 135.6 122.55 135.5 125 133.05 127.25 130.7 127.25 127.4
L 123.95 127.4 Z"/>

<path fill="#CCCCCC" stroke="none" d="
M 122.7 130.7
Q 123.95 129.3 123.95 127.4
L 114.65 127.6
Q 114.65 129.45 116.1 130.8 117.4 132.15 119.35 132.1 121.3 132.1 122.7 130.7 Z"/>

<path fill="#A12C2C" stroke="none" d="
M 129.2 127.4
Q 128.8 123.9 126.7 121.3 124.7 118.85 120.9 118.4 119.9 118.25 118.95 118.3 117.95 118.3 116.9 118.4 112.25 118.95 106.85 121.9 102.2 124.4 99.05 127.9
L 111 127.65 114.65 127.6 123.95 127.4 127.25 127.4 129.2 127.4 Z"/>
</g>

<g id="Layer0_2_FILL">
<path fill="#FFFFFF" stroke="none" d="
M 27.8 94.95
L 31.5 97.7 30.25 102.25 34 99.5 38 102.05 36.5 97.65 40.2 94.75 35.5 94.75 33.85 90.3 32.4 94.8 27.8 94.95 Z"/>
</g>

<path id="avatar_head_mc_3_0_Layer1_0_1_STROKES" stroke="#875100" stroke-width="1" stroke-linejoin="round" stroke-linecap="round" fill="none" d="
M 39.4 110.3
Q 44.1705078125 115.3453125 51.9 112.5"/>
</defs>

<g transform="matrix( -0.4999237060546875, 0.008575439453125, 0.0085601806640625, 0.49993896484375, -363.25,160.75) ">
<g transform="matrix( 1, 0, 0, 1, 0,0) ">
<use xlink:href="#avatar_3_stand____0_Layer3_0_FILL"/>
</g>

<g transform="matrix( 1, 0, 0, 1, 0,0) ">
<use xlink:href="#avatar_3_stand____0_Layer2_0_FILL"/>
</g>

<g transform="matrix( 1, 0, 0, 1, 0,0) ">
<use xlink:href="#avatar_3_stand____0_Layer1_0_FILL"/>
</g>

<g transform="matrix( 1, 0, 0, 1, -908.85,-262.5) ">
<g transform="matrix( 1, 0, 0, 1, 0,0) ">
<use xlink:href="#avatar_head_mc_3_0_Layer3_0_FILL"/>
</g>

<g transform="matrix( 1, 0, 0, 1, 0,0) ">
<use xlink:href="#avatar_head_mc_3_0_Layer2_0_FILL"/>
</g>

<g transform="matrix( 1, 0, 0, 1, 0,0) ">
<use xlink:href="#avatar_head_mc_3_0_Layer1_0_FILL"/>

<use xlink:href="#avatar_head_mc_3_0_Layer1_0_1_STROKES"/>
</g>

<g transform="matrix( 1, 0, 0, 1, 0,0) ">
<use xlink:href="#avatar_head_mc_3_0_Layer0_0_FILL"/>
</g>
</g>
</g>

<g transform="matrix( 1, 0, 0, 1, 0,0) ">
<use xlink:href="#Layer0_1_FILL"/>
</g>

<g transform="matrix( 1, 0, 0, 1, 0,0) ">
<use xlink:href="#Layer0_1_MEMBER_0_FILL"/>
</g>

<g transform="matrix( 1, 0, 0, 1, 0,0) ">
<use xlink:href="#Layer0_1_MEMBER_1_FILL"/>
</g>

<g transform="matrix( 1, 0, 0, 1, 0,0) ">
<use xlink:href="#Layer0_1_MEMBER_2_FILL"/>
</g>

<g transform="matrix( 1, 0, 0, 1, 0,0) ">
<use xlink:href="#Layer0_1_MEMBER_3_FILL"/>
</g>

<g transform="matrix( 1, 0, 0, 1, 0,0) ">
<use xlink:href="#Layer0_1_MEMBER_4_FILL"/>
</g>

<g transform="matrix( 1, 0, 0, 1, 0,0) ">
<use xlink:href="#Layer0_2_FILL"/>
</g>
</svg>
