
<svg xmlns="http://www.w3.org/2000/svg" version="1.1" xmlns:xlink="http://www.w3.org/1999/xlink" preserveAspectRatio="none" x="0px" y="0px" width="314px" height="166px" viewBox="0 0 314 166">
<defs>
<g id="Layer0_0_MEMBER_0_MEMBER_0_FILL">
<path fill="#CCCCCC" stroke="none" d="
M 602.55 296.55
L 598.85 296.55 598.85 461.95 602.55 461.95 602.55 296.55 Z"/>

<path fill="#999999" stroke="none" d="
M 606.9 296.55
L 602.55 296.55 602.55 461.95 606.9 461.95 606.9 296.55 Z"/>
</g>

<g id="Layer0_0_MEMBER_0_MEMBER_1_FILL">
<path fill="#666666" stroke="none" d="
M 588.75 309.5
L 588.75 302.1 584.1 306.65 584.1 309.5 588.75 309.5
M 621.6 301.8
L 621.3 301.8 616.65 306.3 616.65 309.5 621.6 309.5 621.6 301.8 Z"/>

<path fill="#999999" stroke="none" d="
M 588.75 302.1
L 588.75 301.8 584.1 301.8 584.1 306.65 588.75 302.1
M 616.65 301.8
L 616.65 306.3 621.3 301.8 616.65 301.8 Z"/>

<path fill="#333333" stroke="none" d="
M 624.8 311.9
L 624.8 309.5 621.6 309.5 616.65 309.5 588.75 309.5 584.1 309.5 581 309.5 581 311.9 624.8 311.9 Z"/>
</g>

<path id="Layer0_0_1_STROKES" stroke="#000000" stroke-width="1" stroke-linejoin="round" stroke-linecap="round" fill="none" d="
M 759.45 336.85
Q 681.7 339.75 603.3 312.05 525.85 340.05 447.5 336.85 517.7 334 587.15 306.05 595.3 309.15 603.3 312.05 611.05 309.15 618.9 306.05 689.45 334 759.45 336.85 760 336.85 760.9 336.85"/>
</defs>

<g transform="matrix( 1, 0, 0, 1, -447.5,-295.95) ">
<use xlink:href="#Layer0_0_1_STROKES"/>
</g>

<g transform="matrix( 1, 0, 0, 1, -447.5,-295.95) ">
<use xlink:href="#Layer0_0_MEMBER_0_MEMBER_0_FILL"/>
</g>

<g transform="matrix( 1, 0, 0, 1, -447.5,-295.95) ">
<use xlink:href="#Layer0_0_MEMBER_0_MEMBER_1_FILL"/>
</g>
</svg>
