
<svg xmlns="http://www.w3.org/2000/svg" version="1.1" xmlns:xlink="http://www.w3.org/1999/xlink" preserveAspectRatio="none" x="0px" y="0px" width="314px" height="166px" viewBox="0 0 314 166">
<defs>
<linearGradient id="Gradient_1" gradientUnits="userSpaceOnUse" x1="306.2" y1="29.9375" x2="170.8" y2="29.262500000000003" spreadMethod="pad">
<stop  offset="0.39215686274509803%" stop-color="#000000" stop-opacity="0"/>

<stop  offset="100%" stop-color="#000000"/>
</linearGradient>

<linearGradient id="Gradient_2" gradientUnits="userSpaceOnUse" x1="6.8999999999999915" y1="25.65" x2="164.5" y2="25.65" spreadMethod="pad">
<stop  offset="0.39215686274509803%" stop-color="#000000" stop-opacity="0"/>

<stop  offset="100%" stop-color="#000000"/>
</linearGradient>

<linearGradient id="Gradient_3" gradientUnits="userSpaceOnUse" x1="-2.0000000000000284" y1="25.65" x2="314.4" y2="25.65" spreadMethod="pad">
<stop  offset="0%" stop-color="#000000" stop-opacity="0"/>

<stop  offset="52.549019607843135%" stop-color="#000000"/>

<stop  offset="100%" stop-color="#000000" stop-opacity="0"/>
</linearGradient>

<g id="Layer2_0_FILL">
<path fill="url(#Gradient_1)" stroke="none" d="
M 311.9 41.9
Q 311.9369140625 41.9013671875 311.95 41.9 312.3859375 41.887109375 312.65 41.6 312.951953125 41.30625 312.95 40.9 312.9521484375 40.49453125 312.65 40.2 312.3994140625 39.91328125 312 39.9 311.9626953125 39.8984375 311.9 39.9 242.12421875 37.0421875 171.75 9.15 171.3861328125 9.0162109375 171 9.15 170.623828125 9.340625 170.45 9.7 170.316015625 10.1140625 170.45 10.5 170.6404296875 10.87578125 171 11 228.843359375 33.9337890625 286.3 40 221.43515625 38.224609375 156.1 15.15
L 156.15 15.15
Q 148.1498046875 12.2623046875 140 9.15 139.621875 9.02890625 139.25 9.2 138.872265625 9.3671875 138.7 9.75 138.578515625 10.128515625 138.75 10.5 138.9166015625 10.8771484375 139.3 11 147.45 14.1375 155.45 17.05
L 155.45 17.05
Q 234.0130859375 44.7994140625 311.9 41.9 Z"/>
</g>

<g id="Layer1_0_MEMBER_0_FILL">
<path fill="#CCCCCC" stroke="none" d="
M 155.05 0.6
L 151.35 0.6 151.35 166 155.05 166 155.05 0.6 Z"/>

<path fill="#999999" stroke="none" d="
M 159.4 0.6
L 155.05 0.6 155.05 166 159.4 166 159.4 0.6 Z"/>
</g>

<g id="Layer1_0_MEMBER_1_FILL">
<path fill="#999999" stroke="none" d="
M 136.6 10.7
L 141.25 6.15 141.25 5.85 136.6 5.85 136.6 10.7
M 169.15 5.85
L 169.15 10.35 173.8 5.85 169.15 5.85 Z"/>

<path fill="#666666" stroke="none" d="
M 141.25 6.15
L 136.6 10.7 136.6 13.55 141.25 13.55 141.25 6.15
M 174.1 5.85
L 173.8 5.85 169.15 10.35 169.15 13.55 174.1 13.55 174.1 5.85 Z"/>

<path fill="#333333" stroke="none" d="
M 177.3 13.55
L 174.1 13.55 169.15 13.55 141.25 13.55 136.6 13.55 133.5 13.55 133.5 15.95 177.3 15.95 177.3 13.55 Z"/>
</g>

<g id="Layer0_0_FILL">
<path fill="url(#Gradient_2)" stroke="none" d="
M 171.8 9.15
Q 171.4134765625 9.01640625 171 9.15 163.1873046875 12.2748046875 155.45 15.15
L 155.45 15.15
Q 90.3587890625 38.6884765625 24.6 40.1 82.5841796875 34.1447265625 140 11 140.4095703125 10.875390625 140.55 10.5 140.7341796875 10.11328125 140.55 9.7 140.4255859375 9.340234375 140.05 9.15 139.6634765625 9.016015625 139.25 9.15 70.0359375 37.03671875 0.05 39.9 0.0001953125 39.898046875 -0.05 39.9 -0.446875 39.9123046875 -0.75 40.2 -1.0025390625 40.4955078125 -1 40.9 -1.0017578125 41.3048828125 -0.75 41.6 -0.4494140625 41.8865234375 -0.05 41.9 0.000390625 41.9021484375 0.05 41.9 78.551171875 45.0958984375 156.15 17.05
L 156.15 17
Q 163.9123046875 14.125 171.75 11 172.159765625 10.8755859375 172.3 10.5 172.483984375 10.1140625 172.3 9.7 172.176171875 9.340625 171.8 9.15 Z"/>
</g>

<path id="Layer0_0_1_STROKES" stroke="url(#Gradient_3)" stroke-width="2" stroke-linejoin="round" stroke-linecap="round" fill="none" d="
M 311.95 40.9
Q 312.5 40.9 313.4 40.9"/>
</defs>

<g transform="matrix( 1, 0, 0, 1, 0,0) ">
<use xlink:href="#Layer2_0_FILL"/>
</g>

<g transform="matrix( 1, 0, 0, 1, 0,0) ">
<use xlink:href="#Layer1_0_MEMBER_0_FILL"/>
</g>

<g transform="matrix( 1, 0, 0, 1, 0,0) ">
<use xlink:href="#Layer1_0_MEMBER_1_FILL"/>
</g>

<g transform="matrix( 1, 0, 0, 1, 0,0) ">
<use xlink:href="#Layer0_0_FILL"/>

<use xlink:href="#Layer0_0_1_STROKES"/>
</g>
</svg>
