
<svg xmlns="http://www.w3.org/2000/svg" version="1.1" xmlns:xlink="http://www.w3.org/1999/xlink" preserveAspectRatio="none" x="0px" y="0px" width="52px" height="52px" viewBox="0 0 52 52">
<defs>
<g id="pop_0_Layer5_0_FILL">
<path fill="#0C0A80" fill-opacity="0.2" stroke="none" d="
M 7.25 6.1
Q 7.75 5.2 7.85 4.45 7.85 4.3 7.85 4 7.7 2.15 6.05 1.6 4.15 1.1 3 2.6 1.9 4.15 3.45 5.9 4.7 7.3 2.95 7.8 3.1 7.95 3.7 7.95 3.75 7.95 3.85 7.95 4.5 8 5.5 7.6 6.7 7 7.25 6.1 Z"/>
</g>

<g id="pop_0_Layer4_0_FILL">
<path fill="#0C0A80" fill-opacity="0.2" stroke="none" d="
M 4.85 5.25
Q 4.85 4.4 4.25 3.75 3.65 3.15 2.8 3.15 1.95 3.15 1.35 3.75 0.7 4.4 0.7 5.25 0.7 6.1 1.35 6.7 1.95 7.3 2.8 7.3 3.65 7.3 4.25 6.7 4.85 6.1 4.85 5.25 Z"/>
</g>

<g id="pop_0_Layer3_0_FILL">
<path fill="#0C0A80" fill-opacity="0.2" stroke="none" d="
M 7.05 2.25
Q 7.05 1.6 6.6 1.15 6.15 0.7 5.5 0.7 4.85 0.7 4.4 1.15 3.95 1.6 3.95 2.25 3.95 2.9 4.4 3.35 4.85 3.8 5.5 3.8 6.15 3.8 6.6 3.35 7.05 2.9 7.05 2.25 Z"/>
</g>

<g id="pop_0_Layer2_0_FILL">
<path fill="#FFFFFF" fill-opacity="0.30196078431372547" stroke="none" d="
M 8.2 4.1
Q 8.2 2.4 7 1.2 5.8 0 4.1 0 2.4 0 1.2 1.2 0 2.4 0 4.1 0 5.8 1.2 7 2.4 8.2 4.1 8.2 5.8 8.2 7 7 8.2 5.8 8.2 4.1 Z"/>
</g>

<g id="pop_0_Layer1_0_FILL">
<path fill="#FFFFFF" fill-opacity="0.5019607843137255" stroke="none" d="
M 2.1 6.2
Q 3.7 5.95 2.65 3.7 1.9 1.2 4.2 0.3 3.65 0.35 3 0.55 1.7 1.1 1.1 1.9 0.5 2.75 0.4 3.5 0.35 3.65 0.35 3.95 0.4 6.2 2.1 6.2 Z"/>
</g>

<g id="pop_0_Layer0_0_FILL">
<path fill="#FFFFFF" fill-opacity="0.5019607843137255" stroke="none" d="
M 6.9 1.85
Q 6.9 1.45 6.65 1.2 6.35 0.9 6 0.9 5.6 0.9 5.35 1.2 5.05 1.45 5.05 1.85 5.05 2.2 5.35 2.5 5.6 2.75 6 2.75 6.35 2.75 6.65 2.5 6.9 2.2 6.9 1.85 Z"/>
</g>

<g id="Layer0_0_FILL">
<path fill="#FFFFFF" stroke="none" d="
M 42 23.8
Q 44.2 21.55 44.2 18.45 44.2 15.35 42 13.1 41.05 12.15 39.95 11.65 39.95 11.45 39.95 11.3 39.95 11.25 39.95 11.2 39.95 10.9 39.95 10.55
L 39.95 10.5
Q 39.95 9.85 39.45 9.35 38.95 8.85 38.3 8.85
L 13.85 8.85
Q 13.15 8.85 12.7 9.35 12.2 9.85 12.2 10.5
L 12.2 10.55
Q 12.2 10.95 12.25 11.35 12.25 11.45 12.25 11.55 11.05 12.1 10.1 13.1 7.85 15.35 7.85 18.45 7.85 21.55 10.1 23.8 12.3 26 15.45 26 16.25 26 17.05 25.9 19.3 28.75 22 29.9 22.65 31.85 22.8 34.1 21.7 35.95 20.2 37.6 19.55 38.3 18.75 39
L 18.75 39.05 18.7 39.05
Q 18.2 39.4 18.05 40 17.65 41.8 17.2 43.5 17.15 43.6 17.15 43.65 17.1 44 17.25 44.45 17.25 44.5 17.3 44.55 17.45 44.95 17.9 45.3 18.3 45.55 18.8 45.55
L 33.4 45.55
Q 33.85 45.55 34.25 45.3 34.3 45.3 34.35 45.3 34.75 44.95 34.95 44.55 34.95 44.5 34.95 44.45 35.1 43.95 34.95 43.5 34.55 41.8 34.1 40
L 34.15 40.1
Q 34.05 39.4 33.55 39.05 33.45 39 33.35 38.95 32.6 38.3 32 37.6 30.5 35.95 29.45 34.05 29.55 31.9 30.2 29.9 32.85 28.75 35.15 25.95
L 35.2 25.9
Q 35.9 26 36.65 26 39.75 26 42 23.8 Z"/>
</g>

<g id="Layer0_0_MEMBER_0_FILL">
<path fill="#7B4B11" stroke="none" d="
M 25.8 40.4
L 25.8 43.95 33.2 43.95
Q 32.75 42.2 32.3 40.4
L 25.8 40.4 Z"/>

<path fill="#9F631B" stroke="none" d="
M 19.45 40.4
Q 19 42.2 18.6 43.95
L 25.8 43.95 25.8 40.4 19.45 40.4
M 42.35 18.5
Q 42.35 16.05 40.6 14.3 39.45 13.15 38.05 12.8 38.05 12 38.1 11.25 38.1 10.95 38.1 10.6
L 38.1 10.5 25.8 10.5 25.8 40.4 32.3 40.4
Q 31.35 39.6 30.6 38.75 28.75 36.8 27.5 34.45 27.65 31.4 28.65 28.7
L 28.55 28.7
Q 31.35 27.8 33.65 24.95 33.95 24.55 34.3 24.05 35.25 24.4 36.4 24.4 38.85 24.4 40.6 22.65 42.35 20.95 42.35 18.5
M 37.85 14.55
Q 38.7 14.9 39.35 15.55 40.65 16.75 40.65 18.5 40.65 20.25 39.35 21.45 38.2 22.65 36.4 22.65 35.8 22.65 35.25 22.5 37.25 19 37.85 14.55 Z"/>

<path fill="#D08D3D" stroke="none" d="
M 13.65 10.6
Q 13.65 10.95 13.65 11.25 13.65 12 13.7 12.75 12.2 13.1 11 14.3 9.3 16.05 9.3 18.5 9.3 20.95 11 22.65 12.75 24.4 15.2 24.4 16.4 24.4 17.45 24.05 17.75 24.45 18.1 24.9 20.35 27.8 23.2 28.7
L 23.1 28.7
Q 24.1 31.4 24.2 34.45 23 36.8 21.15 38.75 20.4 39.6 19.45 40.4
L 25.8 40.4 25.8 10.5 13.65 10.5 13.65 10.6
M 12.25 15.55
Q 12.95 14.8 13.9 14.55 14.5 18.95 16.5 22.5 15.9 22.65 15.2 22.65 13.45 22.65 12.25 21.45 11 20.25 11 18.5 11 16.75 12.25 15.55 Z"/>
</g>
</defs>

<g transform="matrix( 6.246734619140625, 0, 0, 6.246734619140625, 0,0) ">
<g transform="matrix( 1, 0, 0, 1, 0,0) ">
<use xlink:href="#pop_0_Layer5_0_FILL"/>
</g>

<g transform="matrix( 1, 0, 0, 1, 0,0) ">
<use xlink:href="#pop_0_Layer4_0_FILL"/>
</g>

<g transform="matrix( 1, 0, 0, 1, 0,0) ">
<use xlink:href="#pop_0_Layer3_0_FILL"/>
</g>

<g transform="matrix( 1, 0, 0, 1, 0,0) ">
<use xlink:href="#pop_0_Layer2_0_FILL"/>
</g>

<g transform="matrix( 1, 0, 0, 1, 0,0) ">
<use xlink:href="#pop_0_Layer1_0_FILL"/>
</g>

<g transform="matrix( 1, 0, 0, 1, 0,0) ">
<use xlink:href="#pop_0_Layer0_0_FILL"/>
</g>
</g>

<g transform="matrix( 1, 0, 0, 1, 0,0) ">
<use xlink:href="#Layer0_0_FILL"/>
</g>

<g transform="matrix( 1, 0, 0, 1, 0,0) ">
<use xlink:href="#Layer0_0_MEMBER_0_FILL"/>
</g>
</svg>
