
<svg xmlns="http://www.w3.org/2000/svg" version="1.1" xmlns:xlink="http://www.w3.org/1999/xlink" preserveAspectRatio="none" x="0px" y="0px" width="67px" height="67px" viewBox="0 0 67 67">
<defs>
<g id="pop_0_Layer5_0_FILL">
<path fill="#0C0A80" fill-opacity="0.2" stroke="none" d="
M 7.25 6.1
Q 7.75 5.2 7.85 4.45 7.85 4.3 7.85 4 7.7 2.15 6.05 1.6 4.15 1.1 3 2.6 1.9 4.15 3.45 5.9 4.7 7.3 2.95 7.8 3.1 7.95 3.7 7.95 3.75 7.95 3.85 7.95 4.5 8 5.5 7.6 6.7 7 7.25 6.1 Z"/>
</g>

<g id="pop_0_Layer4_0_FILL">
<path fill="#0C0A80" fill-opacity="0.2" stroke="none" d="
M 4.85 5.25
Q 4.85 4.4 4.25 3.75 3.65 3.15 2.8 3.15 1.95 3.15 1.35 3.75 0.7 4.4 0.7 5.25 0.7 6.1 1.35 6.7 1.95 7.3 2.8 7.3 3.65 7.3 4.25 6.7 4.85 6.1 4.85 5.25 Z"/>
</g>

<g id="pop_0_Layer3_0_FILL">
<path fill="#0C0A80" fill-opacity="0.2" stroke="none" d="
M 7.05 2.25
Q 7.05 1.6 6.6 1.15 6.15 0.7 5.5 0.7 4.85 0.7 4.4 1.15 3.95 1.6 3.95 2.25 3.95 2.9 4.4 3.35 4.85 3.8 5.5 3.8 6.15 3.8 6.6 3.35 7.05 2.9 7.05 2.25 Z"/>
</g>

<g id="pop_0_Layer2_0_FILL">
<path fill="#FFFFFF" fill-opacity="0.30196078431372547" stroke="none" d="
M 8.2 4.1
Q 8.2 2.4 7 1.2 5.8 0 4.1 0 2.4 0 1.2 1.2 0 2.4 0 4.1 0 5.8 1.2 7 2.4 8.2 4.1 8.2 5.8 8.2 7 7 8.2 5.8 8.2 4.1 Z"/>
</g>

<g id="pop_0_Layer1_0_FILL">
<path fill="#FFFFFF" fill-opacity="0.5019607843137255" stroke="none" d="
M 2.1 6.2
Q 3.7 5.95 2.65 3.7 1.9 1.2 4.2 0.3 3.65 0.35 3 0.55 1.7 1.1 1.1 1.9 0.5 2.75 0.4 3.5 0.35 3.65 0.35 3.95 0.4 6.2 2.1 6.2 Z"/>
</g>

<g id="pop_0_Layer0_0_FILL">
<path fill="#FFFFFF" fill-opacity="0.5019607843137255" stroke="none" d="
M 6.9 1.85
Q 6.9 1.45 6.65 1.2 6.35 0.9 6 0.9 5.6 0.9 5.35 1.2 5.05 1.45 5.05 1.85 5.05 2.2 5.35 2.5 5.6 2.75 6 2.75 6.35 2.75 6.65 2.5 6.9 2.2 6.9 1.85 Z"/>
</g>

<g id="Layer0_0_MEMBER_1_FILL">
<path fill="#FFFFFF" stroke="none" d="
M -540.7 185.85
Q -541.45 185.85 -541.95 186.4 -542.5 186.85 -542.5 187.65
L -542.5 220.1
Q -542.5 220.85 -541.95 221.4 -541.45 221.9 -540.7 221.9
L -534.15 221.9
Q -527.85 221.9 -525.8 218.8 -523.8 216.4 -523.8 209.15
L -523.8 199.5
Q -523.8 198.15 -523.85 197
L -520.15 220.35
Q -520.05 221.05 -519.6 221.5 -519.1 221.9 -518.4 221.9
L -512.95 221.9
Q -512.3 221.9 -511.8 221.45 -511.3 221 -511.15 220.35
L -509.25 207.3 -507.9 220.3
Q -507.8 220.95 -507.25 221.45 -506.75 221.9 -506.1 221.9
L -500.6 221.9
Q -499.95 221.9 -499.4 221.5 -498.9 221.05 -498.8 220.4
L -492.95 187.95
Q -492.85 187.4 -493.05 186.95 -493.3 186.4 -493.75 186.15 -494.2 185.85 -494.75 185.85
L -498.95 185.85
Q -499.3 185.85 -499.6 185.95 -499.85 186.05 -500.15 186.3 -500.65 186.7 -500.7 187.35
L -502.6 200.05 -504.15 187.4
Q -504.25 186.75 -504.75 186.3 -505.25 185.85 -505.95 185.85
L -512 185.85
Q -512.3 185.85 -512.6 185.95 -512.85 186.05 -513.15 186.3 -513.65 186.7 -513.75 187.35
L -515.55 199.9 -517.1 187.4
Q -517.2 186.75 -517.7 186.3 -518.25 185.85 -518.9 185.85
L -523.5 185.85
Q -524.05 185.85 -524.45 186.15 -524.95 186.4 -525.1 186.9 -525.35 187.35 -525.25 187.9
L -525 189.6
Q -525.1 189.35 -525.25 189.15 -526.35 187.05 -529.5 186.25 -531.15 185.85 -533.45 185.85
L -540.7 185.85
M -533.45 187.65
Q -528.2 187.65 -526.8 190.05 -525.6 192.1 -525.6 199.5
L -525.6 209.15
Q -525.6 215.6 -527.25 217.75 -529 220.1 -534.15 220.1
L -540.7 220.1 -540.7 187.65 -533.45 187.65
M -523.5 187.65
L -518.9 187.65 -515.6 214.3 -511.95 187.65 -505.9 187.65 -502.95 214.3 -498.95 187.65 -494.75 187.65 -500.6 220.1 -506.1 220.1 -509.05 192.95 -512.95 220.1 -518.4 220.1 -523.5 187.65
M -530.1 197.85
Q -530.1 194.05 -530.85 192.85 -531.7 191.4 -534.4 191.4
L -536.2 191.4 -536.2 216.3 -534 216.3
Q -531.6 216.3 -530.85 214.8 -530.1 213.35 -530.1 208.95
L -530.1 197.85
M -534.4 193.2
Q -532.9 193.2 -532.35 193.8 -531.9 194.8 -531.9 197.85
L -531.9 208.95
Q -531.9 212.7 -532.45 214 -532.5 214 -532.5 214.05 -532.9 214.5 -534 214.5
L -534.4 214.5 -534.4 193.2 Z"/>

<path fill="#4BAF79" stroke="none" d="
M -518.9 187.65
L -523.5 187.65 -518.4 220.1 -512.95 220.1 -509.05 192.95 -506.1 220.1 -500.6 220.1 -494.75 187.65 -498.95 187.65 -502.95 214.3 -505.9 187.65 -511.95 187.65 -515.6 214.3 -518.9 187.65
M -526.8 190.05
Q -528.2 187.65 -533.45 187.65
L -540.7 187.65 -540.7 220.1 -534.15 220.1
Q -529 220.1 -527.25 217.75 -525.6 215.6 -525.6 209.15
L -525.6 199.5
Q -525.6 192.1 -526.8 190.05
M -530.85 192.85
Q -530.1 194.05 -530.1 197.85
L -530.1 208.95
Q -530.1 213.35 -530.85 214.8 -531.6 216.3 -534 216.3
L -536.2 216.3 -536.2 191.4 -534.4 191.4
Q -531.7 191.4 -530.85 192.85 Z"/>
</g>
</defs>

<g transform="matrix( 8.10028076171875, 0, 0, 8.10028076171875, 0,0) ">
<g transform="matrix( 1, 0, 0, 1, 0,0) ">
<use xlink:href="#pop_0_Layer5_0_FILL"/>
</g>

<g transform="matrix( 1, 0, 0, 1, 0,0) ">
<use xlink:href="#pop_0_Layer4_0_FILL"/>
</g>

<g transform="matrix( 1, 0, 0, 1, 0,0) ">
<use xlink:href="#pop_0_Layer3_0_FILL"/>
</g>

<g transform="matrix( 1, 0, 0, 1, 0,0) ">
<use xlink:href="#pop_0_Layer2_0_FILL"/>
</g>

<g transform="matrix( 1, 0, 0, 1, 0,0) ">
<use xlink:href="#pop_0_Layer1_0_FILL"/>
</g>

<g transform="matrix( 1, 0, 0, 1, 0,0) ">
<use xlink:href="#pop_0_Layer0_0_FILL"/>
</g>
</g>

<g transform="matrix( 1, 0, 0, 1, 550.95,-170.6) ">
<use xlink:href="#Layer0_0_MEMBER_1_FILL"/>
</g>
</svg>
