
<svg xmlns="http://www.w3.org/2000/svg" version="1.1" xmlns:xlink="http://www.w3.org/1999/xlink" preserveAspectRatio="none" x="0px" y="0px" width="550px" height="100px" viewBox="0 0 550 100">
<defs>
<g id="Layer1_0_FILL">
<path fill="#000000" fill-opacity="0.5019607843137255" stroke="none" d="
M 545.45 49.2
Q 545.45 28.8 531 14.4 516.65 0 496.25 0
L 49.2 0
Q 28.8 0 14.35 14.4 0 28.8 0 49.2 0 69.6 14.35 84 28.8 98.4 49.2 98.4
L 496.25 98.4
Q 516.65 98.4 531 84 545.45 69.6 545.45 49.2 Z"/>
</g>

<g id="pop_0_Layer5_0_FILL">
<path fill="#0C0A80" fill-opacity="0.2" stroke="none" d="
M 7.25 6.1
Q 7.75 5.2 7.85 4.45 7.85 4.3 7.85 4 7.7 2.15 6.05 1.6 4.15 1.1 3 2.6 1.9 4.15 3.45 5.9 4.7 7.3 2.95 7.8 3.1 7.95 3.7 7.95 3.75 7.95 3.85 7.95 4.5 8 5.5 7.6 6.7 7 7.25 6.1 Z"/>
</g>

<g id="pop_0_Layer4_0_FILL">
<path fill="#0C0A80" fill-opacity="0.2" stroke="none" d="
M 4.85 5.25
Q 4.85 4.4 4.25 3.75 3.65 3.15 2.8 3.15 1.95 3.15 1.35 3.75 0.7 4.4 0.7 5.25 0.7 6.1 1.35 6.7 1.95 7.3 2.8 7.3 3.65 7.3 4.25 6.7 4.85 6.1 4.85 5.25 Z"/>
</g>

<g id="pop_0_Layer3_0_FILL">
<path fill="#0C0A80" fill-opacity="0.2" stroke="none" d="
M 7.05 2.25
Q 7.05 1.6 6.6 1.15 6.15 0.7 5.5 0.7 4.85 0.7 4.4 1.15 3.95 1.6 3.95 2.25 3.95 2.9 4.4 3.35 4.85 3.8 5.5 3.8 6.15 3.8 6.6 3.35 7.05 2.9 7.05 2.25 Z"/>
</g>

<g id="pop_0_Layer2_0_FILL">
<path fill="#FFFFFF" fill-opacity="0.30196078431372547" stroke="none" d="
M 8.2 4.1
Q 8.2 2.4 7 1.2 5.8 0 4.1 0 2.4 0 1.2 1.2 0 2.4 0 4.1 0 5.8 1.2 7 2.4 8.2 4.1 8.2 5.8 8.2 7 7 8.2 5.8 8.2 4.1 Z"/>
</g>

<g id="pop_0_Layer1_0_FILL">
<path fill="#FFFFFF" fill-opacity="0.5019607843137255" stroke="none" d="
M 2.1 6.2
Q 3.7 5.95 2.65 3.7 1.9 1.2 4.2 0.3 3.65 0.35 3 0.55 1.7 1.1 1.1 1.9 0.5 2.75 0.4 3.5 0.35 3.65 0.35 3.95 0.4 6.2 2.1 6.2 Z"/>
</g>

<g id="pop_0_Layer0_0_FILL">
<path fill="#FFFFFF" fill-opacity="0.5019607843137255" stroke="none" d="
M 6.9 1.85
Q 6.9 1.45 6.65 1.2 6.35 0.9 6 0.9 5.6 0.9 5.35 1.2 5.05 1.45 5.05 1.85 5.05 2.2 5.35 2.5 5.6 2.75 6 2.75 6.35 2.75 6.65 2.5 6.9 2.2 6.9 1.85 Z"/>
</g>

<g id="Layer1_1_MEMBER_1_FILL">
<path fill="#FFFFFF" stroke="none" d="
M 72.85 24.2
Q 72.85 24.15 72.85 24.05 72.85 22.95 72 22.1 71.15 21.25 70.05 21.25
L 28.6 21.25
Q 27.4 21.25 26.65 22.1 26.6 22.1 26.6 22.15 25.8 23 25.8 24.05 25.8 24.15 25.8 24.2 25.8 24.85 25.85 25.55 25.85 25.7 25.85 25.9 23.85 26.8 22.2 28.5 18.4 32.3 18.4 37.6 18.4 42.85 22.2 46.6
L 22.2 46.65
Q 25.95 50.4 31.25 50.4 32.6 50.4 33.95 50.15
L 34 50.2
Q 37.8 55 42.4 57 43.45 60.3 43.75 64.05 41.85 67.25 39.3 70.05 38.2 71.25 36.9 72.4
L 36.85 72.45
Q 36.8 72.45 36.8 72.5 35.9 73.05 35.7 74.1 35 77.1 34.25 80.05 34.2 80.15 34.2 80.25 34.1 80.9 34.3 81.6 34.35 81.7 34.4 81.8 34.65 82.5 35.4 83.05
L 35.45 83.05
Q 36.1 83.5 36.95 83.5
L 61.7 83.5
Q 62.45 83.5 63.15 83.1 63.2 83.05 63.3 83.05 64 82.5 64.3 81.8 64.3 81.7 64.35 81.6 64.55 80.8 64.35 80.05 63.65 77.2 62.95 74.25 62.8 73.1 61.95 72.5 61.8 72.4 61.65 72.35 60.35 71.2 59.3 70.05 56.75 67.25 55 64 55.15 60.35 56.25 57 60.8 55.05 64.7 50.3 64.7 50.25 64.75 50.2 65.95 50.4 67.2 50.4 72.45 50.4 76.25 46.6 80 42.85 80 37.6 80 32.3 76.3 28.5 74.7 26.85 72.85 26 72.85 25.7 72.85 25.4 72.85 25.35 72.85 25.3 72.85 24.75 72.85 24.2 Z"/>
</g>

<g id="Layer1_1_MEMBER_1_MEMBER_0_FILL">
<path fill="#957800" stroke="none" d="
M 60.2 74.7
L 49.2 74.7 49.2 80.7 61.7 80.7
Q 60.95 77.75 60.25 74.7
L 60.2 74.7 Z"/>

<path fill="#C59E00" stroke="none" d="
M 38.4 74.7
Q 37.7 77.75 36.95 80.7
L 49.2 80.7 49.2 74.7 38.45 74.7 38.4 74.7
M 70.05 24.2
Q 70.05 24.15 70.05 24.05
L 49.2 24.05 49.2 74.7 60.2 74.7
Q 58.6 73.35 57.3 71.9 54.2 68.6 52.1 64.65 52.3 59.45 54 54.9
L 53.9 54.9
Q 58.6 53.35 62.5 48.5 63.05 47.8 63.6 47 65.25 47.6 67.2 47.6 71.35 47.6 74.3 44.65 77.25 41.75 77.25 37.6 77.25 33.4 74.3 30.45 72.35 28.55 69.95 27.9 70 26.6 70.05 25.3 70.05 24.75 70.05 24.2
M 67.2 44.65
Q 66.15 44.65 65.2 44.4 68.6 38.4 69.65 30.9 71.05 31.45 72.2 32.55 74.35 34.65 74.35 37.6 74.35 40.55 72.2 42.6 70.2 44.65 67.2 44.65 Z"/>

<path fill="#FFCC00" stroke="none" d="
M 28.6 24.05
Q 28.6 24.15 28.6 24.2 28.6 24.75 28.6 25.3 28.6 26.55 28.7 27.85 26.15 28.45 24.15 30.45 21.2 33.4 21.2 37.6 21.2 41.75 24.15 44.65 27.1 47.6 31.25 47.6 33.25 47.6 35.05 46.95 35.55 47.7 36.15 48.45 40 53.35 44.75 54.9
L 44.65 54.9
Q 46.3 59.45 46.5 64.65 44.45 68.6 41.35 71.9 40.05 73.35 38.45 74.7
L 49.2 74.7 49.2 24.05 28.6 24.05
M 26.2 32.55
Q 27.45 31.3 29 30.85 30.05 38.35 33.45 44.35 32.4 44.65 31.25 44.65 28.3 44.65 26.2 42.6 24.15 40.55 24.15 37.6 24.15 34.65 26.2 32.55 Z"/>
</g>

<g id="Layer0_0_FILL">
<path fill="#FFFFFF" stroke="none" d="
M 465 72
L 462.2 72 459.75 77.05 459.7 77.05 459.35 72 456.6 72 458 79.25
Q 457.5 80.2 456.7 80.2 456.25 80.2 455.8 80.05
L 455.55 81.9
Q 456.55 82.2 457.6 82.2 458.5 82.2 459.15 81.8 459.75 81.35 460.4 80.15
L 465 72
M 452 70.85
L 451.75 72 450.75 72 450.35 74 451.35 74 450.8 76.45
Q 450.6 77.4 450.6 77.65 450.6 78.3 451.1 78.85 451.6 79.4 452.75 79.4 453.35 79.4 454.6 79.25
L 455.05 77.25
Q 454.35 77.4 454.15 77.4 453.5 77.4 453.5 76.9 453.5 76.7 453.55 76.55
L 454.1 74 455.55 74 456 72 454.55 72 455.1 69.3 452 70.85
M 450.1 69.25
L 447.35 69.25 446.95 71.15 449.7 71.15 450.1 69.25
M 449.55 72
L 446.75 72 445.2 79.25 448 79.25 449.55 72
M 482.05 72
L 479.25 72 477.7 79.25 480.5 79.25 482.05 72
M 479.85 69.25
L 479.45 71.15 482.2 71.15 482.6 69.25 479.85 69.25
M 472.6 73.95
Q 472.6 73.75 472.85 73.55 473.1 73.35 473.65 73.35 474.5 73.35 474.6 74
L 477.2 73.75
Q 477 72.7 476.25 72.25 475.45 71.85 474 71.85 472.75 71.85 471.85 72.2 471 72.55 470.55 73.15 470.15 73.75 470.15 74.4 470.15 75.15 470.7 75.7 471.3 76.2 472.9 76.45 473.6 76.55 473.85 76.65 474.1 76.8 474.1 77.1 474.1 77.5 473.75 77.7 473.4 77.9 472.95 77.9 471.95 77.9 471.8 77
L 469.05 77.25
Q 469.15 78.4 470 78.9 470.8 79.4 472.5 79.4 474.65 79.4 475.7 78.65 476.75 77.85 476.75 76.7 476.75 75.9 476.2 75.45 475.65 74.95 474.05 74.7 473.05 74.55 472.85 74.4 472.6 74.25 472.6 73.95
M 436.4 72
L 433.6 72 432.05 79.25 434.85 79.25 436.4 72
M 439.9 72
L 437.25 72 438.65 79.25 441.1 79.25 445.65 72 442.75 72 440.35 76.6 440.3 76.6 439.9 72
M 434.2 69.25
L 433.8 71.15 436.55 71.15 436.95 69.25 434.2 69.25
M 488.05 74
L 488.5 72 487.05 72 487.6 69.3 484.5 70.85 484.25 72 483.25 72 482.85 74 483.85 74 483.3 76.45
Q 483.1 77.4 483.1 77.65 483.1 78.3 483.6 78.85 484.1 79.4 485.25 79.4 485.85 79.4 487.1 79.25
L 487.55 77.25
Q 486.85 77.4 486.65 77.4 486 77.4 486 76.9 486 76.7 486.05 76.55
L 486.6 74 488.05 74
M 493.55 71.85
Q 492.6 71.85 491.9 72.05 491.2 72.25 490.45 72.8 489.75 73.4 489.3 74.25 488.9 75.1 488.9 76.1 488.9 77.5 489.8 78.45 490.7 79.4 492.85 79.4 494.35 79.4 495.3 78.95 496.3 78.45 496.9 77.4
L 494.2 77.15
Q 493.75 77.8 492.9 77.8 491.75 77.8 491.6 76.35
L 497.15 76.35
Q 497.35 75.3 497.35 74.9 497.35 73.6 496.45 72.7 495.55 71.85 493.55 71.85
M 493.45 73.45
Q 493.95 73.45 494.3 73.75 494.6 74 494.6 74.55 494.6 74.85 494.55 75
L 491.85 75
Q 492.1 74.25 492.55 73.85 492.95 73.45 493.45 73.45
M 378.55 73.6
Q 378.85 73.45 379.35 73.45 379.8 73.45 380.1 73.65 380.35 73.8 380.35 74.05 380.35 74.25 380.25 74.55 379.85 74.7 378.65 74.8 377.3 74.95 376.5 75.15 375.7 75.3 375.2 75.8 374.65 76.3 374.65 77.3 374.65 78.15 375.25 78.8 375.85 79.4 377.2 79.4 378.55 79.4 379.65 78.4 379.65 78.8 379.75 79.25
L 382.45 79.25
Q 382.3 78.75 382.3 78.25 382.3 77.65 382.65 76.2 383 74.6 383 73.95 383 72.9 382.3 72.35 381.5 71.85 379.4 71.85 377.5 71.85 376.6 72.4 375.7 72.95 375.45 74
L 378.05 74.25
Q 378.25 73.75 378.55 73.6
M 377.35 77.15
Q 377.35 76.8 377.7 76.55 378.05 76.3 379.95 76 379.8 77.05 379.25 77.5 378.75 77.9 378.2 77.9 377.85 77.9 377.6 77.7 377.35 77.5 377.35 77.15
M 371.85 73.45
L 372.15 72 369.55 72 368 79.25 370.8 79.25 371.4 76.55
Q 371.65 75.25 372.15 74.7 372.65 74.1 373.45 74.1 373.7 74.1 374.05 74.2
L 375.05 72.05
Q 374.55 71.85 374.1 71.85 373.5 71.85 373 72.15 372.5 72.5 371.85 73.45
M 399.25 72.95
Q 398.5 71.8 396.95 71.8 395.45 71.8 394.5 73.2 393.5 74.55 393.5 76.4 393.5 77.8 394.15 78.6 394.8 79.4 396.05 79.4 396.7 79.4 397.15 79.25 397.65 79.05 398.2 78.5
L 398.25 78.55 398.1 79.25 400.7 79.25 402.85 69.25 400.05 69.25 399.25 72.95
M 397.7 73.7
Q 398.1 73.7 398.45 74 398.75 74.35 398.75 74.95 398.75 75.85 398.35 76.75 397.95 77.6 397.15 77.6 396.75 77.6 396.45 77.25 396.2 76.95 396.2 76.35 396.2 75.25 396.65 74.45 397.1 73.7 397.7 73.7
M 392.45 73.55
Q 392.45 72.85 391.95 72.35 391.45 71.85 390.45 71.85 388.8 71.85 387.65 73.1
L 387.9 72 385.3 72 383.7 79.25 386.5 79.25 387.2 76.1
Q 387.45 75 387.9 74.45 388.35 73.85 388.95 73.85 389.5 73.85 389.5 74.45 389.5 74.65 389.25 75.9
L 388.55 79.25 391.35 79.25 392.15 75.3
Q 392.45 74 392.45 73.55
M 362.9 72.5
L 363.6 69.25 360.8 69.25 358.65 79.25 361.25 79.25 361.5 78.05
Q 362.3 79.4 363.95 79.4 365.5 79.4 366.45 78 367.4 76.6 367.4 74.85 367.4 73.55 366.8 72.7 366.15 71.85 364.9 71.85 364.25 71.85 363.8 72 363.35 72.15 362.9 72.5
M 362.15 76.25
Q 362.15 75.3 362.6 74.45 363 73.65 363.75 73.65 364.7 73.65 364.7 74.9 364.7 76.05 364.25 76.8 363.8 77.55 363.2 77.55 362.8 77.55 362.5 77.2 362.15 76.9 362.15 76.25
M 421.7 71.85
Q 419.4 71.85 418.1 73.15 416.85 74.45 416.85 76.3 416.85 79.4 420.7 79.4 424.1 79.4 425.05 76.6
L 422.45 76.3
Q 421.9 77.55 420.8 77.55 420.35 77.55 419.95 77.25 419.55 76.9 419.55 76.3 419.55 75.35 420.1 74.55 420.65 73.7 421.7 73.7 422.8 73.7 422.95 74.65
L 425.45 74.5
Q 425.3 73.2 424.3 72.5 423.35 71.85 421.7 71.85
M 411.25 73.6
Q 411.55 73.45 412.05 73.45 412.5 73.45 412.8 73.65 413.05 73.8 413.05 74.05 413.05 74.25 412.95 74.55 412.55 74.7 411.35 74.8 410 74.95 409.2 75.15 408.4 75.3 407.9 75.8 407.35 76.3 407.35 77.3 407.35 78.15 407.95 78.8 408.55 79.4 409.9 79.4 411.25 79.4 412.35 78.4 412.35 78.8 412.45 79.25
L 415.15 79.25
Q 415 78.75 415 78.25 415 77.65 415.35 76.2 415.7 74.6 415.7 73.95 415.7 72.9 415 72.35 414.2 71.85 412.1 71.85 410.2 71.85 409.3 72.4 408.4 72.95 408.15 74
L 410.75 74.25
Q 410.95 73.75 411.25 73.6
M 412.65 76
Q 412.5 77.05 411.95 77.5 411.45 77.9 410.9 77.9 410.55 77.9 410.3 77.7 410.05 77.5 410.05 77.15 410.05 76.8 410.4 76.55 410.75 76.3 412.65 76
M 426.35 74
L 427.35 74 426.8 76.45
Q 426.6 77.4 426.6 77.65 426.6 78.3 427.1 78.85 427.6 79.4 428.75 79.4 429.35 79.4 430.6 79.25
L 431.05 77.25
Q 430.35 77.4 430.15 77.4 429.5 77.4 429.5 76.9 429.5 76.7 429.55 76.55
L 430.1 74 431.55 74 432 72 430.55 72 431.1 69.3 428 70.85 427.75 72 426.75 72 426.35 74
M 296.15 71.85
Q 295.2 71.85 294.5 72.05 293.8 72.25 293.05 72.8 292.35 73.4 291.9 74.25 291.5 75.1 291.5 76.1 291.5 77.5 292.4 78.45 293.3 79.4 295.45 79.4 296.95 79.4 297.9 78.95 298.9 78.45 299.5 77.4
L 296.8 77.15
Q 296.35 77.8 295.5 77.8 294.35 77.8 294.2 76.35
L 299.75 76.35
Q 299.95 75.3 299.95 74.9 299.95 73.6 299.05 72.7 298.15 71.85 296.15 71.85
M 295.15 73.85
Q 295.55 73.45 296.05 73.45 296.55 73.45 296.9 73.75 297.2 74 297.2 74.55 297.2 74.85 297.15 75
L 294.45 75
Q 294.7 74.25 295.15 73.85
M 315.8 74.2
L 316.8 72.05
Q 316.3 71.85 315.85 71.85 315.25 71.85 314.75 72.15 314.25 72.5 313.6 73.45
L 313.9 72 311.3 72 309.75 79.25 312.55 79.25 313.15 76.55
Q 313.4 75.25 313.9 74.7 314.4 74.1 315.2 74.1 315.45 74.1 315.8 74.2
M 309.05 73.95
Q 309.05 72.9 308.35 72.35 307.55 71.85 305.45 71.85 303.55 71.85 302.65 72.4 301.75 72.95 301.5 74
L 304.1 74.25
Q 304.3 73.75 304.6 73.6 304.9 73.45 305.4 73.45 305.85 73.45 306.15 73.65 306.4 73.8 306.4 74.05 306.4 74.25 306.3 74.55 305.9 74.7 304.7 74.8 303.35 74.95 302.55 75.15 301.75 75.3 301.25 75.8 300.7 76.3 300.7 77.3 300.7 78.15 301.3 78.8 301.9 79.4 303.25 79.4 304.6 79.4 305.7 78.4 305.7 78.8 305.8 79.25
L 308.5 79.25
Q 308.35 78.75 308.35 78.25 308.35 77.65 308.7 76.2 309.05 74.6 309.05 73.95
M 303.65 77.7
Q 303.4 77.5 303.4 77.15 303.4 76.8 303.75 76.55 304.1 76.3 306 76 305.85 77.05 305.3 77.5 304.8 77.9 304.25 77.9 303.9 77.9 303.65 77.7
M 282.7 80.05
L 282.45 81.9
Q 283.45 82.2 284.5 82.2 285.4 82.2 286.05 81.8 286.65 81.35 287.3 80.15
L 291.9 72 289.1 72 286.65 77.05 286.6 77.05 286.25 72 283.5 72 284.9 79.25
Q 284.4 80.2 283.6 80.2 283.15 80.2 282.7 80.05
M 325.75 72
Q 325.3 72.15 324.85 72.5
L 325.55 69.25 322.75 69.25 320.6 79.25 323.2 79.25 323.45 78.05
Q 324.25 79.4 325.9 79.4 327.45 79.4 328.4 78 329.35 76.6 329.35 74.85 329.35 73.55 328.75 72.7 328.1 71.85 326.85 71.85 326.2 71.85 325.75 72
M 326.65 74.9
Q 326.65 76.05 326.2 76.8 325.75 77.55 325.15 77.55 324.75 77.55 324.45 77.2 324.1 76.9 324.1 76.25 324.1 75.3 324.55 74.45 324.95 73.65 325.7 73.65 326.65 73.65 326.65 74.9
M 333.4 72.05
Q 332.7 72.25 331.95 72.8 331.25 73.4 330.8 74.25 330.4 75.1 330.4 76.1 330.4 77.5 331.3 78.45 332.2 79.4 334.35 79.4 335.85 79.4 336.8 78.95 337.8 78.45 338.4 77.4
L 335.7 77.15
Q 335.25 77.8 334.4 77.8 333.25 77.8 333.1 76.35
L 338.65 76.35
Q 338.85 75.3 338.85 74.9 338.85 73.6 337.95 72.7 337.05 71.85 335.05 71.85 334.1 71.85 333.4 72.05
M 334.95 73.45
Q 335.45 73.45 335.8 73.75 336.1 74 336.1 74.55 336.1 74.85 336.05 75
L 333.35 75
Q 333.6 74.25 334.05 73.85 334.45 73.45 334.95 73.45
M 344.8 74
L 347.4 73.75
Q 347.2 72.7 346.45 72.25 345.65 71.85 344.2 71.85 342.95 71.85 342.05 72.2 341.2 72.55 340.75 73.15 340.35 73.75 340.35 74.4 340.35 75.15 340.9 75.7 341.5 76.2 343.1 76.45 343.8 76.55 344.05 76.65 344.3 76.8 344.3 77.1 344.3 77.5 343.95 77.7 343.6 77.9 343.15 77.9 342.15 77.9 342 77
L 339.25 77.25
Q 339.35 78.4 340.2 78.9 341 79.4 342.7 79.4 344.85 79.4 345.9 78.65 346.95 77.85 346.95 76.7 346.95 75.9 346.4 75.45 345.85 74.95 344.25 74.7 343.25 74.55 343.05 74.4 342.8 74.25 342.8 73.95 342.8 73.75 343.05 73.55 343.3 73.35 343.85 73.35 344.7 73.35 344.8 74
M 348.8 72
L 348.4 74 349.4 74 348.85 76.45
Q 348.65 77.4 348.65 77.65 348.65 78.3 349.15 78.85 349.65 79.4 350.8 79.4 351.4 79.4 352.65 79.25
L 353.1 77.25
Q 352.4 77.4 352.2 77.4 351.55 77.4 351.55 76.9 351.55 76.7 351.6 76.55
L 352.15 74 353.6 74 354.05 72 352.6 72 353.15 69.3 350.05 70.85 349.8 72 348.8 72
M 214 69.25
L 211.25 69.25 209.1 79.25 211.9 79.25 214 69.25
M 220.65 69.25
L 219.85 72.95
Q 219.1 71.8 217.55 71.8 216.05 71.8 215.1 73.2 214.1 74.55 214.1 76.4 214.1 77.8 214.75 78.6 215.4 79.4 216.65 79.4 217.3 79.4 217.75 79.25 218.25 79.05 218.8 78.5
L 218.85 78.55 218.7 79.25 221.3 79.25 223.45 69.25 220.65 69.25
M 218.3 73.7
Q 218.7 73.7 219.05 74 219.35 74.35 219.35 74.95 219.35 75.85 218.95 76.75 218.55 77.6 217.75 77.6 217.35 77.6 217.05 77.25 216.8 76.95 216.8 76.35 216.8 75.25 217.25 74.45 217.7 73.7 218.3 73.7
M 231.85 72
L 229.25 72 227.7 79.25 230.5 79.25 231.25 75.75
Q 231.45 74.75 231.95 74.3 232.4 73.85 232.8 73.85 233.4 73.85 233.4 74.4 233.4 74.55 233.35 74.75 233.3 75 233.05 76.2
L 232.4 79.25 235.2 79.25 235.9 76
Q 236.15 74.9 236.55 74.4 236.95 73.85 237.55 73.85 238.1 73.85 238.1 74.45 238.1 74.5 238.05 74.75 238.05 74.95 237.8 76.15
L 237.1 79.25 239.9 79.25 240.95 74.5
Q 241.05 74.05 241.05 73.6 241.05 72.9 240.55 72.35 240.05 71.85 239.05 71.85 238.35 71.85 237.7 72.1 237.05 72.35 236.25 73.05 236.05 72.5 235.55 72.15 235 71.85 234.3 71.85 232.85 71.85 231.65 73.05
L 231.6 73.05 231.85 72
M 202.2 72.4
Q 201.15 73 200.6 74 200.1 75.05 200.1 76.15 200.1 77.55 201 78.5 201.9 79.4 203.8 79.4 205.3 79.4 206.35 78.8 207.35 78.2 207.9 77.15 208.4 76.15 208.4 75.1 208.4 73.8 207.5 72.8 206.6 71.85 204.65 71.85 203.25 71.85 202.2 72.4
M 204.55 73.7
Q 205 73.7 205.35 74 205.7 74.25 205.7 75 205.7 75.95 205.2 76.75 204.75 77.55 204 77.55 203.5 77.55 203.15 77.15 202.8 76.75 202.8 76.15 202.8 75.3 203.25 74.5 203.65 73.7 204.55 73.7
M 260.2 72
L 257.4 72 256.75 75.15
Q 256.5 76.2 256.05 76.8 255.6 77.35 254.95 77.35 254.4 77.35 254.4 76.8
L 254.4 76.75
Q 254.4 76.55 254.45 76.45 254.45 76.3 254.65 75.55
L 255.4 72 252.6 72 251.75 75.9
Q 251.5 77.2 251.5 77.7 251.5 78.4 252 78.9 252.45 79.4 253.45 79.4 255.15 79.4 256.25 78.1
L 256.3 78.15 256.05 79.25 258.65 79.25 260.2 72
M 246.65 71.85
Q 245.25 71.85 244.2 72.4 243.15 73 242.6 74 242.1 75.05 242.1 76.15 242.1 77.55 243 78.5 243.9 79.4 245.8 79.4 247.3 79.4 248.35 78.8 249.35 78.2 249.9 77.15 250.4 76.15 250.4 75.1 250.4 73.8 249.5 72.8 248.6 71.85 246.65 71.85
M 246.55 73.7
Q 247 73.7 247.35 74 247.7 74.25 247.7 75 247.7 75.95 247.2 76.75 246.75 77.55 246 77.55 245.5 77.55 245.15 77.15 244.8 76.75 244.8 76.15 244.8 75.3 245.25 74.5 245.65 73.7 246.55 73.7
M 263.85 73.95
Q 263.85 73.75 264.1 73.55 264.35 73.35 264.9 73.35 265.75 73.35 265.85 74
L 268.45 73.75
Q 268.25 72.7 267.5 72.25 266.7 71.85 265.25 71.85 264 71.85 263.1 72.2 262.25 72.55 261.8 73.15 261.4 73.75 261.4 74.4 261.4 75.15 261.95 75.7 262.55 76.2 264.15 76.45 264.85 76.55 265.1 76.65 265.35 76.8 265.35 77.1 265.35 77.5 265 77.7 264.65 77.9 264.2 77.9 263.2 77.9 263.05 77
L 260.3 77.25
Q 260.4 78.4 261.25 78.9 262.05 79.4 263.75 79.4 265.9 79.4 266.95 78.65 268 77.85 268 76.7 268 75.9 267.45 75.45 266.9 74.95 265.3 74.7 264.3 74.55 264.1 74.4 263.85 74.25 263.85 73.95
M 272.3 72.05
Q 271.6 72.25 270.85 72.8 270.15 73.4 269.7 74.25 269.3 75.1 269.3 76.1 269.3 77.5 270.2 78.45 271.1 79.4 273.25 79.4 274.75 79.4 275.7 78.95 276.7 78.45 277.3 77.4
L 274.6 77.15
Q 274.15 77.8 273.3 77.8 272.15 77.8 272 76.35
L 277.55 76.35
Q 277.75 75.3 277.75 74.9 277.75 73.6 276.85 72.7 275.95 71.85 273.95 71.85 273 71.85 272.3 72.05
M 273.85 73.45
Q 274.35 73.45 274.7 73.75 275 74 275 74.55 275 74.85 274.95 75
L 272.25 75
Q 272.5 74.25 272.95 73.85 273.35 73.45 273.85 73.45
M 128.9 72.05
Q 128.2 72.25 127.45 72.8 126.75 73.4 126.3 74.25 125.9 75.1 125.9 76.1 125.9 77.5 126.8 78.45 127.7 79.4 129.85 79.4 131.35 79.4 132.3 78.95 133.3 78.45 133.9 77.4
L 131.2 77.15
Q 130.75 77.8 129.9 77.8 128.75 77.8 128.6 76.35
L 134.15 76.35
Q 134.35 75.3 134.35 74.9 134.35 73.6 133.45 72.7 132.55 71.85 130.55 71.85 129.6 71.85 128.9 72.05
M 129.55 73.85
Q 129.95 73.45 130.45 73.45 130.95 73.45 131.3 73.75 131.6 74 131.6 74.55 131.6 74.85 131.55 75
L 128.85 75
Q 129.1 74.25 129.55 73.85
M 158.5 72
L 155.7 72 154.85 75.9
Q 154.6 77.2 154.6 77.7 154.6 78.4 155.1 78.9 155.55 79.4 156.55 79.4 158.25 79.4 159.35 78.1
L 159.4 78.15 159.15 79.25 161.75 79.25 163.3 72 160.5 72 159.85 75.15
Q 159.6 76.2 159.15 76.8 158.7 77.35 158.05 77.35 157.5 77.35 157.5 76.8
L 157.5 76.75
Q 157.5 76.55 157.55 76.45 157.55 76.3 157.75 75.55
L 158.5 72
M 149.75 71.85
Q 148.35 71.85 147.3 72.4 146.25 73 145.7 74 145.2 75.05 145.2 76.15 145.2 77.55 146.1 78.5 147 79.4 148.9 79.4 150.4 79.4 151.45 78.8 152.45 78.2 153 77.15 153.5 76.15 153.5 75.1 153.5 73.8 152.6 72.8 151.7 71.85 149.75 71.85
M 149.65 73.7
Q 150.1 73.7 150.45 74 150.8 74.25 150.8 75 150.8 75.95 150.3 76.75 149.85 77.55 149.1 77.55 148.6 77.55 148.25 77.15 147.9 76.75 147.9 76.15 147.9 75.3 148.35 74.5 148.75 73.7 149.65 73.7
M 144.5 71
Q 144.65 70.85 144.95 70.85 145.4 70.85 145.95 71
L 146.4 69.35
Q 145 69.05 144.05 69.05 143.4 69.05 142.95 69.2 142.45 69.35 142.15 69.65 141.85 70 141.7 70.35 141.6 70.75 141.35 72
L 140.3 72 139.9 74 140.9 74 139.75 79.25 142.6 79.25 143.7 74 145 74 145.4 72 144.1 72
Q 144.3 71.15 144.5 71
M 121.05 69.25
L 118.3 69.25 116.1 79.25 118.9 79.25 119.6 76.1
Q 119.85 75 120.3 74.45 120.75 73.85 121.35 73.85 121.9 73.85 121.9 74.45 121.9 74.65 121.65 75.9
L 120.95 79.25 123.75 79.25 124.55 75.3
Q 124.85 74 124.85 73.55 124.85 72.85 124.35 72.35 123.85 71.85 122.9 71.85 121.3 71.85 120.3 72.9
L 120.3 72.85 121.05 69.25
M 107.15 69.25
L 106.65 71.7 109.75 71.7 108.15 79.25 111.25 79.25 112.85 71.7 116.15 71.7 116.65 69.25 107.15 69.25
M 170.5 72.05
Q 170 71.85 169.55 71.85 168.95 71.85 168.45 72.15 167.95 72.5 167.3 73.45
L 167.6 72 165 72 163.45 79.25 166.25 79.25 166.85 76.55
Q 167.1 75.25 167.6 74.7 168.1 74.1 168.9 74.1 169.15 74.1 169.5 74.2
L 170.5 72.05
M 170.85 74
L 171.85 74 171.3 76.45
Q 171.1 77.4 171.1 77.65 171.1 78.3 171.6 78.85 172.1 79.4 173.25 79.4 173.85 79.4 175.1 79.25
L 175.55 77.25
Q 174.85 77.4 174.65 77.4 174 77.4 174 76.9 174 76.7 174.05 76.55
L 174.6 74 176.05 74 176.5 72 175.05 72 175.6 69.3 172.5 70.85 172.25 72 171.25 72 170.85 74
M 199.55 72
L 197 72 196.75 73
Q 195.9 71.85 194.55 71.85 192.95 71.85 191.95 73.1 190.9 74.4 190.9 76.1 190.9 77.4 191.55 78.2 192.2 79 193.3 79 194.55 79 195.45 78
L 195.5 78.05 195.25 79.15
Q 195.1 79.85 194.75 80.2 194.45 80.55 193.95 80.55 193.15 80.55 193.1 79.8
L 190.45 79.4
Q 190.45 79.5 190.45 79.75 190.45 80.5 190.95 81.15 191.45 81.8 192.15 82 192.8 82.2 194.05 82.2 195.85 82.2 196.75 81.5 197.7 80.85 198.1 78.8
L 199.55 72
M 195.2 73.7
Q 195.6 73.7 195.85 73.95 196.15 74.25 196.15 74.7 196.15 75.45 195.75 76.3 195.35 77.1 194.6 77.1 194.15 77.1 193.9 76.8 193.6 76.55 193.6 76 193.6 75.15 194.1 74.4 194.55 73.7 195.2 73.7
M 184.7 72.35
Q 184.2 71.85 183.25 71.85 181.65 71.85 180.65 72.9
L 180.65 72.85 181.4 69.25 178.65 69.25 176.45 79.25 179.25 79.25 179.95 76.1
Q 180.2 75 180.65 74.45 181.1 73.85 181.7 73.85 182.25 73.85 182.25 74.45 182.25 74.65 182 75.9
L 181.3 79.25 184.1 79.25 184.9 75.3
Q 185.2 74 185.2 73.55 185.2 72.85 184.7 72.35
M 376 50.3
Q 375.5 50.1 375.05 50.1 374.45 50.1 373.95 50.4 373.45 50.75 372.8 51.7
L 373.1 50.25 370.5 50.25 368.95 57.5 371.75 57.5 372.35 54.8
Q 372.6 53.5 373.1 52.95 373.6 52.35 374.4 52.35 374.65 52.35 375 52.45
L 376 50.3
M 379.6 50.25
L 376.8 50.25 375.25 57.5 378.05 57.5 379.6 50.25
M 388.85 50.25
L 385.95 50.25 383.55 54.85 383.5 54.85 383.1 50.25 380.45 50.25 381.85 57.5 384.3 57.5 388.85 50.25
M 396.55 54.6
Q 396.75 53.55 396.75 53.15 396.75 51.85 395.85 50.95 394.95 50.1 392.95 50.1 392 50.1 391.3 50.3 390.6 50.5 389.85 51.05 389.15 51.65 388.7 52.5 388.3 53.35 388.3 54.35 388.3 55.75 389.2 56.7 390.1 57.65 392.25 57.65 393.75 57.65 394.7 57.2 395.7 56.7 396.3 55.65
L 393.6 55.4
Q 393.15 56.05 392.3 56.05 391.15 56.05 391 54.6
L 396.55 54.6
M 394 52.8
Q 394 53.1 393.95 53.25
L 391.25 53.25
Q 391.5 52.5 391.95 52.1 392.35 51.7 392.85 51.7 393.35 51.7 393.7 52 394 52.25 394 52.8
M 354.1 47.55
L 351 49.1 350.75 50.25 349.75 50.25 349.35 52.25 350.35 52.25 349.8 54.7
Q 349.6 55.65 349.6 55.9 349.6 56.55 350.1 57.1 350.6 57.65 351.75 57.65 352.35 57.65 353.6 57.5
L 354.05 55.5
Q 353.35 55.65 353.15 55.65 352.5 55.65 352.5 55.15 352.5 54.95 352.55 54.8
L 353.1 52.25 354.55 52.25 355 50.25 353.55 50.25 354.1 47.55
M 379.75 49.4
L 380.15 47.5 377.4 47.5 377 49.4 379.75 49.4
M 369.4 47.5
L 366.6 47.5 365.8 51.2
Q 365.05 50.05 363.5 50.05 362 50.05 361.05 51.45 360.05 52.8 360.05 54.65 360.05 56.05 360.7 56.85 361.35 57.65 362.6 57.65 363.25 57.65 363.7 57.5 364.2 57.3 364.75 56.75
L 364.8 56.8 364.65 57.5 367.25 57.5 369.4 47.5
M 363.2 52.7
Q 363.65 51.95 364.25 51.95 364.65 51.95 365 52.25 365.3 52.6 365.3 53.2 365.3 54.1 364.9 55 364.5 55.85 363.7 55.85 363.3 55.85 363 55.5 362.75 55.2 362.75 54.6 362.75 53.5 363.2 52.7
M 409.95 52
Q 409.75 50.95 409 50.5 408.2 50.1 406.75 50.1 405.5 50.1 404.6 50.45 403.75 50.8 403.3 51.4 402.9 52 402.9 52.65 402.9 53.4 403.45 53.95 404.05 54.45 405.65 54.7 406.35 54.8 406.6 54.9 406.85 55.05 406.85 55.35 406.85 55.75 406.5 55.95 406.15 56.15 405.7 56.15 404.7 56.15 404.55 55.25
L 401.8 55.5
Q 401.9 56.65 402.75 57.15 403.55 57.65 405.25 57.65 407.4 57.65 408.45 56.9 409.5 56.1 409.5 54.95 409.5 54.15 408.95 53.7 408.4 53.2 406.8 52.95 405.8 52.8 405.6 52.65 405.35 52.5 405.35 52.2 405.35 52 405.6 51.8 405.85 51.6 406.4 51.6 407.25 51.6 407.35 52.25
L 409.95 52
M 414.8 50.25
L 412 50.25 410.45 57.5 413.25 57.5 414.8 50.25
M 429.2 50.95
Q 428.3 50.1 426.3 50.1 425.35 50.1 424.65 50.3 423.95 50.5 423.2 51.05 422.5 51.65 422.05 52.5 421.65 53.35 421.65 54.35 421.65 55.75 422.55 56.7 423.45 57.65 425.6 57.65 427.1 57.65 428.05 57.2 429.05 56.7 429.65 55.65
L 426.95 55.4
Q 426.5 56.05 425.65 56.05 424.5 56.05 424.35 54.6
L 429.9 54.6
Q 430.1 53.55 430.1 53.15 430.1 51.85 429.2 50.95
M 427.35 52.8
Q 427.35 53.1 427.3 53.25
L 424.6 53.25
Q 424.85 52.5 425.3 52.1 425.7 51.7 426.2 51.7 426.7 51.7 427.05 52 427.35 52.25 427.35 52.8
M 420.35 47.55
L 417.25 49.1 417 50.25 416 50.25 415.6 52.25 416.6 52.25 416.05 54.7
Q 415.85 55.65 415.85 55.9 415.85 56.55 416.35 57.1 416.85 57.65 418 57.65 418.6 57.65 419.85 57.5
L 420.3 55.5
Q 419.6 55.65 419.4 55.65 418.75 55.65 418.75 55.15 418.75 54.95 418.8 54.8
L 419.35 52.25 420.8 52.25 421.25 50.25 419.8 50.25 420.35 47.55
M 414.95 49.4
L 415.35 47.5 412.6 47.5 412.2 49.4 414.95 49.4
M 347.9 54.95
Q 347.9 54.15 347.35 53.7 346.8 53.2 345.2 52.95 344.2 52.8 344 52.65 343.75 52.5 343.75 52.2 343.75 52 344 51.8 344.25 51.6 344.8 51.6 345.65 51.6 345.75 52.25
L 348.35 52
Q 348.15 50.95 347.4 50.5 346.6 50.1 345.15 50.1 343.9 50.1 343 50.45 342.15 50.8 341.7 51.4 341.3 52 341.3 52.65 341.3 53.4 341.85 53.95 342.45 54.45 344.05 54.7 344.75 54.8 345 54.9 345.25 55.05 345.25 55.35 345.25 55.75 344.9 55.95 344.55 56.15 344.1 56.15 343.1 56.15 342.95 55.25
L 340.2 55.5
Q 340.3 56.65 341.15 57.15 341.95 57.65 343.65 57.65 345.8 57.65 346.85 56.9 347.9 56.1 347.9 54.95
M 339.6 54.6
Q 339.8 53.55 339.8 53.15 339.8 51.85 338.9 50.95 338 50.1 336 50.1 335.05 50.1 334.35 50.3 333.65 50.5 332.9 51.05 332.2 51.65 331.75 52.5 331.35 53.35 331.35 54.35 331.35 55.75 332.25 56.7 333.15 57.65 335.3 57.65 336.8 57.65 337.75 57.2 338.75 56.7 339.35 55.65
L 336.65 55.4
Q 336.2 56.05 335.35 56.05 334.2 56.05 334.05 54.6
L 339.6 54.6
M 337 53.25
L 334.3 53.25
Q 334.55 52.5 335 52.1 335.4 51.7 335.9 51.7 336.4 51.7 336.75 52 337.05 52.25 337.05 52.8 337.05 53.1 337 53.25
M 304.95 55.4
Q 305.45 54.4 305.45 53.35 305.45 52.05 304.55 51.05 303.65 50.1 301.7 50.1 300.3 50.1 299.25 50.65 298.2 51.25 297.65 52.25 297.15 53.3 297.15 54.4 297.15 55.8 298.05 56.75 298.95 57.65 300.85 57.65 302.35 57.65 303.4 57.05 304.4 56.45 304.95 55.4
M 302.75 53.25
Q 302.75 54.2 302.25 55 301.8 55.8 301.05 55.8 300.55 55.8 300.2 55.4 299.85 55 299.85 54.4 299.85 53.55 300.3 52.75 300.7 51.95 301.6 51.95 302.05 51.95 302.4 52.25 302.75 52.5 302.75 53.25
M 319.4 54.6
Q 319.6 53.55 319.6 53.15 319.6 51.85 318.7 50.95 317.8 50.1 315.8 50.1 314.85 50.1 314.15 50.3 313.45 50.5 312.7 51.05 312 51.65 311.55 52.5 311.15 53.35 311.15 54.35 311.15 55.75 312.05 56.7 312.95 57.65 315.1 57.65 316.6 57.65 317.55 57.2 318.55 56.7 319.15 55.65
L 316.45 55.4
Q 316 56.05 315.15 56.05 314 56.05 313.85 54.6
L 319.4 54.6
M 316.55 52
Q 316.85 52.25 316.85 52.8 316.85 53.1 316.8 53.25
L 314.1 53.25
Q 314.35 52.5 314.8 52.1 315.2 51.7 315.7 51.7 316.2 51.7 316.55 52
M 258.85 55.4
Q 259.35 54.4 259.35 53.35 259.35 52.05 258.45 51.05 257.55 50.1 255.6 50.1 254.2 50.1 253.15 50.65 252.1 51.25 251.55 52.25 251.05 53.3 251.05 54.4 251.05 55.8 251.95 56.75 252.85 57.65 254.75 57.65 256.25 57.65 257.3 57.05 258.3 56.45 258.85 55.4
M 256.3 52.25
Q 256.65 52.5 256.65 53.25 256.65 54.2 256.15 55 255.7 55.8 254.95 55.8 254.45 55.8 254.1 55.4 253.75 55 253.75 54.4 253.75 53.55 254.2 52.75 254.6 51.95 255.5 51.95 255.95 51.95 256.3 52.25
M 266 52.45
L 267 50.3
Q 266.5 50.1 266.05 50.1 265.45 50.1 264.95 50.4 264.45 50.75 263.8 51.7
L 264.1 50.25 261.5 50.25 259.95 57.5 262.75 57.5 263.35 54.8
Q 263.6 53.5 264.1 52.95 264.6 52.35 265.4 52.35 265.65 52.35 266 52.45
M 277.9 47.5
L 275.15 47.5 272.95 57.5 275.75 57.5 276.45 54.35
Q 276.7 53.25 277.15 52.7 277.6 52.1 278.2 52.1 278.75 52.1 278.75 52.7 278.75 52.9 278.5 54.15
L 277.8 57.5 280.6 57.5 281.4 53.55
Q 281.7 52.25 281.7 51.8 281.7 51.1 281.2 50.6 280.7 50.1 279.75 50.1 278.15 50.1 277.15 51.15
L 277.15 51.1 277.9 47.5
M 272.1 47.55
L 269 49.1 268.75 50.25 267.75 50.25 267.35 52.25 268.35 52.25 267.8 54.7
Q 267.6 55.65 267.6 55.9 267.6 56.55 268.1 57.1 268.6 57.65 269.75 57.65 270.35 57.65 271.6 57.5
L 272.05 55.5
Q 271.35 55.65 271.15 55.65 270.5 55.65 270.5 55.15 270.5 54.95 270.55 54.8
L 271.1 52.25 272.55 52.25 273 50.25 271.55 50.25 272.1 47.55
M 250.85 47.5
L 247.9 47.5 246.65 53.3 244.15 47.5 241.25 47.5 239.1 57.5 242 57.5 243.25 51.7 243.3 51.7 245.8 57.5 248.65 57.5 250.85 47.5
M 311.05 47.5
L 308.3 47.5 306.15 57.5 308.95 57.5 311.05 47.5
M 293.8 47.5
L 289.25 47.5 287.1 57.5 290.2 57.5 291 53.8 292.35 53.8
Q 294 53.8 294.95 53.4 295.85 53.05 296.5 52.15 297.1 51.3 297.1 50.15 297.1 49.3 296.75 48.7 296.4 48.1 295.75 47.8 295.1 47.5 293.8 47.5
M 291.95 49.45
L 293.15 49.45
Q 294.15 49.45 294.15 50.35 294.15 50.95 293.7 51.4 293.2 51.8 292.5 51.8
L 291.45 51.8 291.95 49.45
M 330.05 47.55
L 326.95 49.1 326.7 50.25 325.7 50.25 325.3 52.25 326.3 52.25 325.75 54.7
Q 325.55 55.65 325.55 55.9 325.55 56.55 326.05 57.1 326.55 57.65 327.7 57.65 328.3 57.65 329.55 57.5
L 330 55.5
Q 329.3 55.65 329.1 55.65 328.45 55.65 328.45 55.15 328.45 54.95 328.5 54.8
L 329.05 52.25 330.5 52.25 330.95 50.25 329.5 50.25 330.05 47.55
M 147.45 47.55
L 144.35 49.1 144.1 50.25 143.1 50.25 142.7 52.25 143.7 52.25 143.15 54.7
Q 142.95 55.65 142.95 55.9 142.95 56.55 143.45 57.1 143.95 57.65 145.1 57.65 145.7 57.65 146.95 57.5
L 147.4 55.5
Q 146.7 55.65 146.5 55.65 145.85 55.65 145.85 55.15 145.85 54.95 145.9 54.8
L 146.45 52.25 147.9 52.25 148.35 50.25 146.9 50.25 147.45 47.55
M 211.05 51.05
Q 210.15 50.1 208.2 50.1 206.8 50.1 205.75 50.65 204.7 51.25 204.15 52.25 203.65 53.3 203.65 54.4 203.65 55.8 204.55 56.75 205.45 57.65 207.35 57.65 208.85 57.65 209.9 57.05 210.9 56.45 211.45 55.4 211.95 54.4 211.95 53.35 211.95 52.05 211.05 51.05
M 208.1 51.95
Q 208.55 51.95 208.9 52.25 209.25 52.5 209.25 53.25 209.25 54.2 208.75 55 208.3 55.8 207.55 55.8 207.05 55.8 206.7 55.4 206.35 55 206.35 54.4 206.35 53.55 206.8 52.75 207.2 51.95 208.1 51.95
M 227 55.4
Q 227.5 54.4 227.5 53.35 227.5 52.05 226.6 51.05 225.7 50.1 223.75 50.1 222.35 50.1 221.3 50.65 220.25 51.25 219.7 52.25 219.2 53.3 219.2 54.4 219.2 55.8 220.1 56.75 221 57.65 222.9 57.65 224.4 57.65 225.45 57.05 226.45 56.45 227 55.4
M 224.8 53.25
Q 224.8 54.2 224.3 55 223.85 55.8 223.1 55.8 222.6 55.8 222.25 55.4 221.9 55 221.9 54.4 221.9 53.55 222.35 52.75 222.75 51.95 223.65 51.95 224.1 51.95 224.45 52.25 224.8 52.5 224.8 53.25
M 234.15 52.45
L 235.15 50.3
Q 234.65 50.1 234.2 50.1 233.6 50.1 233.1 50.4 232.6 50.75 231.95 51.7
L 232.25 50.25 229.65 50.25 228.1 57.5 230.9 57.5 231.5 54.8
Q 231.75 53.5 232.25 52.95 232.75 52.35 233.55 52.35 233.8 52.35 234.15 52.45
M 172.45 51.9
Q 172.7 52.05 172.7 52.3 172.7 52.5 172.6 52.8 172.2 52.95 171 53.05 169.65 53.2 168.85 53.4 168.05 53.55 167.55 54.05 167 54.55 167 55.55 167 56.4 167.6 57.05 168.2 57.65 169.55 57.65 170.9 57.65 172 56.65 172 57.05 172.1 57.5
L 174.8 57.5
Q 174.65 57 174.65 56.5 174.65 55.9 175 54.45 175.35 52.85 175.35 52.2 175.35 51.15 174.65 50.6 173.85 50.1 171.75 50.1 169.85 50.1 168.95 50.65 168.05 51.2 167.8 52.25
L 170.4 52.5
Q 170.6 52 170.9 51.85 171.2 51.7 171.7 51.7 172.15 51.7 172.45 51.9
M 169.7 55.4
Q 169.7 55.05 170.05 54.8 170.4 54.55 172.3 54.25 172.15 55.3 171.6 55.75 171.1 56.15 170.55 56.15 170.2 56.15 169.95 55.95 169.7 55.75 169.7 55.4
M 196.05 47.5
L 192.25 47.5 190.1 57.5 192.7 57.5 194.15 49.85 194.6 57.5 196.9 57.5 200.6 49.85 200.65 49.85 198.8 57.5 201.35 57.5 203.5 47.5 199.6 47.5 196.45 53.85 196.4 53.85 196.05 47.5
M 185.7 47.5
L 182.95 47.5 180.8 57.5 183.6 57.5 185.7 47.5
M 181.05 47.5
L 178.3 47.5 176.15 57.5 178.95 57.5 181.05 47.5
M 168.35 47.5
L 165.3 47.5 162.75 53.65 162.7 53.65 162.55 47.5 159.55 47.5 156.8 53.6 156.75 53.6 156.9 47.5 154.1 47.5 154.4 57.5 157.5 57.5 160.35 51.35 160.6 57.5 163.65 57.5 168.35 47.5
M 217.9 47.55
L 214.8 49.1 214.55 50.25 213.55 50.25 213.15 52.25 214.15 52.25 213.6 54.7
Q 213.4 55.65 213.4 55.9 213.4 56.55 213.9 57.1 214.4 57.65 215.55 57.65 216.15 57.65 217.4 57.5
L 217.85 55.5
Q 217.15 55.65 216.95 55.65 216.3 55.65 216.3 55.15 216.3 54.95 216.35 54.8
L 216.9 52.25 218.35 52.25 218.8 50.25 217.35 50.25 217.9 47.55
M 137.1 51.85
Q 137.4 51.7 137.9 51.7 138.35 51.7 138.65 51.9 138.9 52.05 138.9 52.3 138.9 52.5 138.8 52.8 138.4 52.95 137.2 53.05 135.85 53.2 135.05 53.4 134.25 53.55 133.75 54.05 133.2 54.55 133.2 55.55 133.2 56.4 133.8 57.05 134.4 57.65 135.75 57.65 137.1 57.65 138.2 56.65 138.2 57.05 138.3 57.5
L 141 57.5
Q 140.85 57 140.85 56.5 140.85 55.9 141.2 54.45 141.55 52.85 141.55 52.2 141.55 51.15 140.85 50.6 140.05 50.1 137.95 50.1 136.05 50.1 135.15 50.65 134.25 51.2 134 52.25
L 136.6 52.5
Q 136.8 52 137.1 51.85
M 135.9 55.4
Q 135.9 55.05 136.25 54.8 136.6 54.55 138.5 54.25 138.35 55.3 137.8 55.75 137.3 56.15 136.75 56.15 136.4 56.15 136.15 55.95 135.9 55.75 135.9 55.4
M 132.25 54.6
Q 132.45 53.55 132.45 53.15 132.45 51.85 131.55 50.95 130.65 50.1 128.65 50.1 127.7 50.1 127 50.3 126.3 50.5 125.55 51.05 124.85 51.65 124.4 52.5 124 53.35 124 54.35 124 55.75 124.9 56.7 125.8 57.65 127.95 57.65 129.45 57.65 130.4 57.2 131.4 56.7 132 55.65
L 129.3 55.4
Q 128.85 56.05 128 56.05 126.85 56.05 126.7 54.6
L 132.25 54.6
M 129.7 52.8
Q 129.7 53.1 129.65 53.25
L 126.95 53.25
Q 127.2 52.5 127.65 52.1 128.05 51.7 128.55 51.7 129.05 51.7 129.4 52 129.7 52.25 129.7 52.8
M 121.05 51.7
L 121.35 50.25 118.75 50.25 117.2 57.5 120 57.5 120.6 54.8
Q 120.85 53.5 121.35 52.95 121.85 52.35 122.65 52.35 122.9 52.35 123.25 52.45
L 124.25 50.3
Q 123.75 50.1 123.3 50.1 122.7 50.1 122.2 50.4 121.7 50.75 121.05 51.7
M 112.55 47.3
Q 110.75 47.3 109.35 48.1 107.95 48.85 107.15 50.3 106.4 51.7 106.4 53.4 106.4 55.45 107.6 56.55 108.8 57.65 110.9 57.65 113.2 57.65 115.5 56.5
L 116.5 51.8 111.85 51.8 111.4 53.9 113.3 53.9 113.05 54.95
Q 112.35 55.45 111.4 55.45
L 111.35 55.45
Q 110.5 55.45 109.95 54.9 109.4 54.35 109.4 53.5 109.4 52.05 110.15 50.8 110.9 49.5 112.15 49.5 113.4 49.5 113.85 50.7
L 116.9 50.4
Q 116.1 47.3 112.55 47.3
M 190 23.3
Q 190 21.6 188.7 20.45 187.45 19.35 184.85 19.35 182.35 19.35 180.8 20.4 179.25 21.5 178.9 23.6
L 182.8 24.15
Q 183.2 22 184.6 22 185.15 22 185.65 22.4 186.1 22.75 186.1 23.5 186.1 24 185.75 24.55 185.35 25.1 184.45 25.8
L 182.95 26.85
Q 180.55 28.6 179.25 30.15 177.95 31.7 177.55 33.9
L 188.5 33.9 189.2 30.65 183.55 30.65
Q 184.15 30 184.55 29.65 185 29.3 186.35 28.35 188.35 27 189.15 25.8 190 24.6 190 23.3
M 175.4 19.35
L 172 19.35
Q 169.9 21.45 166.75 22.8
L 166 26.2
Q 168.5 25.6 170.3 24.5
L 168.25 33.9 172.25 33.9 175.4 19.35
M 162.5 29.35
Q 163.4 27.1 163.4 24.8 163.4 22.15 161.85 20.75 160.25 19.35 158.1 19.35 156.05 19.35 154.45 20.6 152.85 21.9 151.95 24.1 151.1 26.25 151.1 28.3 151.1 31.15 152.45 32.65 153.8 34.15 156.05 34.15 158.25 34.15 159.9 32.85 161.55 31.6 162.5 29.35
M 156.4 23.2
Q 157.1 22 158.05 22 158.8 22 159.2 22.55 159.55 23.1 159.55 24 159.55 25.2 159.2 27.15 158.8 29.1 158.1 30.3 157.4 31.45 156.45 31.45 154.9 31.45 154.9 29.35
L 154.9 29.3
Q 154.9 28.15 155.3 26.25 155.65 24.35 156.4 23.2
M 149.95 23.3
Q 149.95 21.6 148.65 20.45 147.4 19.35 144.8 19.35 142.3 19.35 140.75 20.4 139.2 21.5 138.85 23.6
L 142.75 24.15
Q 143.15 22 144.55 22 145.1 22 145.6 22.4 146.05 22.75 146.05 23.5 146.05 24 145.7 24.55 145.3 25.1 144.4 25.8
L 142.9 26.85
Q 140.5 28.6 139.2 30.15 137.9 31.7 137.5 33.9
L 148.45 33.9 149.15 30.65 143.5 30.65
Q 144.1 30 144.5 29.65 144.95 29.3 146.3 28.35 148.3 27 149.1 25.8 149.95 24.6 149.95 23.3
M 130.5 19.6
L 126.35 19.6 124.55 27.9 124.5 27.9 120.95 19.6 116.85 19.6 113.75 33.9 117.9 33.9 119.7 25.6 119.75 25.6 123.25 33.9 127.4 33.9 130.5 19.6
M 113.7 19.6
L 109.25 19.6 106.15 33.9 110.65 33.9 113.7 19.6 Z"/>
</g>
</defs>

<g transform="matrix( 1, 0, 0, 1, 0,0) ">
<use xlink:href="#Layer1_0_FILL"/>
</g>

<g transform="matrix( 10.800430297851562, 0, 0, 10.800430297851562, 5.5,4.6) ">
<g transform="matrix( 1, 0, 0, 1, 0,0) ">
<use xlink:href="#pop_0_Layer5_0_FILL"/>
</g>

<g transform="matrix( 1, 0, 0, 1, 0,0) ">
<use xlink:href="#pop_0_Layer4_0_FILL"/>
</g>

<g transform="matrix( 1, 0, 0, 1, 0,0) ">
<use xlink:href="#pop_0_Layer3_0_FILL"/>
</g>

<g transform="matrix( 1, 0, 0, 1, 0,0) ">
<use xlink:href="#pop_0_Layer2_0_FILL"/>
</g>

<g transform="matrix( 1, 0, 0, 1, 0,0) ">
<use xlink:href="#pop_0_Layer1_0_FILL"/>
</g>

<g transform="matrix( 1, 0, 0, 1, 0,0) ">
<use xlink:href="#pop_0_Layer0_0_FILL"/>
</g>
</g>

<g transform="matrix( 1, 0, 0, 1, 0,0) ">
<use xlink:href="#Layer1_1_MEMBER_1_FILL"/>
</g>

<g transform="matrix( 1, 0, 0, 1, 0,0) ">
<use xlink:href="#Layer1_1_MEMBER_1_MEMBER_0_FILL"/>
</g>

<g transform="matrix( 1, 0, 0, 1, 0,0) ">
<use xlink:href="#Layer0_0_FILL"/>
</g>
</svg>
