
<svg xmlns="http://www.w3.org/2000/svg" version="1.1" xmlns:xlink="http://www.w3.org/1999/xlink" preserveAspectRatio="none" x="0px" y="0px" width="300px" height="100px" viewBox="0 0 300 100">
<defs>
<g id="Layer2_0_FILL">
<path fill="#000000" fill-opacity="0.5019607843137255" stroke="none" d="
M 300 49.2
Q 300 28.8 285.55 14.4 271.2 0 250.8 0
L 49.2 0
Q 28.8 0 14.35 14.4 0 28.8 0 49.2 0 69.6 14.35 84 28.8 98.4 49.2 98.4
L 127.95 98.4
Q 128.15 98.5 128.4 98.5 128.6650390625 98.5 128.9 98.4
L 250.8 98.4
Q 271.2 98.4 285.55 84 300 69.6 300 49.2 Z"/>
</g>

<g id="pop_0_Layer5_0_FILL">
<path fill="#0C0A80" fill-opacity="0.2" stroke="none" d="
M 7.25 6.1
Q 7.75 5.2 7.85 4.45 7.85 4.3 7.85 4 7.7 2.15 6.05 1.6 4.15 1.1 3 2.6 1.9 4.15 3.45 5.9 4.7 7.3 2.95 7.8 3.1 7.95 3.7 7.95 3.75 7.95 3.85 7.95 4.5 8 5.5 7.6 6.7 7 7.25 6.1 Z"/>
</g>

<g id="pop_0_Layer4_0_FILL">
<path fill="#0C0A80" fill-opacity="0.2" stroke="none" d="
M 4.85 5.25
Q 4.85 4.4 4.25 3.75 3.65 3.15 2.8 3.15 1.95 3.15 1.35 3.75 0.7 4.4 0.7 5.25 0.7 6.1 1.35 6.7 1.95 7.3 2.8 7.3 3.65 7.3 4.25 6.7 4.85 6.1 4.85 5.25 Z"/>
</g>

<g id="pop_0_Layer3_0_FILL">
<path fill="#0C0A80" fill-opacity="0.2" stroke="none" d="
M 7.05 2.25
Q 7.05 1.6 6.6 1.15 6.15 0.7 5.5 0.7 4.85 0.7 4.4 1.15 3.95 1.6 3.95 2.25 3.95 2.9 4.4 3.35 4.85 3.8 5.5 3.8 6.15 3.8 6.6 3.35 7.05 2.9 7.05 2.25 Z"/>
</g>

<g id="pop_0_Layer2_0_FILL">
<path fill="#FFFFFF" fill-opacity="0.30196078431372547" stroke="none" d="
M 8.2 4.1
Q 8.2 2.4 7 1.2 5.8 0 4.1 0 2.4 0 1.2 1.2 0 2.4 0 4.1 0 5.8 1.2 7 2.4 8.2 4.1 8.2 5.8 8.2 7 7 8.2 5.8 8.2 4.1 Z"/>
</g>

<g id="pop_0_Layer1_0_FILL">
<path fill="#FFFFFF" fill-opacity="0.5019607843137255" stroke="none" d="
M 2.1 6.2
Q 3.7 5.95 2.65 3.7 1.9 1.2 4.2 0.3 3.65 0.35 3 0.55 1.7 1.1 1.1 1.9 0.5 2.75 0.4 3.5 0.35 3.65 0.35 3.95 0.4 6.2 2.1 6.2 Z"/>
</g>

<g id="pop_0_Layer0_0_FILL">
<path fill="#FFFFFF" fill-opacity="0.5019607843137255" stroke="none" d="
M 6.9 1.85
Q 6.9 1.45 6.65 1.2 6.35 0.9 6 0.9 5.6 0.9 5.35 1.2 5.05 1.45 5.05 1.85 5.05 2.2 5.35 2.5 5.6 2.75 6 2.75 6.35 2.75 6.65 2.5 6.9 2.2 6.9 1.85 Z"/>
</g>

<g id="Layer2_1_MEMBER_1_FILL">
<path fill="#FFFFFF" stroke="none" d="
M 73.95 39.9
Q 73.95 29.85 66.9 22.8 66.85 22.75 66.8 22.7 59.75 15.7 49.75 15.7 39.7 15.7 32.65 22.8 25.55 29.85 25.55 39.9 25.55 49.9 32.55 56.95 32.6 57 32.65 57.05 33.85 58.25 35.15 59.25
L 35.1 80.85
Q 35.1 82.1 36 83 36.85 83.85 38.1 83.85 39.35 83.85 40.25 83
L 49.75 73.5 59.3 83.05
Q 60.15 83.9 61.4 83.9 62.65 83.9 63.55 83.05 64.4 82.15 64.4 80.9
L 64.4 59.25
Q 65.7 58.2 66.9 57.05 73.95 49.95 73.95 39.9 Z"/>
</g>

<g id="Layer2_1_MEMBER_1_MEMBER_0_FILL">
<path fill="#B84F4F" stroke="none" d="
M 38.15 53.65
L 38.1 80.85 49.65 69.35 49.65 42.15 38.15 53.65 Z"/>

<path fill="#A12C2C" stroke="none" d="
M 49.75 42.05
L 49.65 42.15 49.65 69.35 49.75 69.25 61.4 80.9 61.4 53.7 49.75 42.05 Z"/>
</g>

<g id="Layer2_1_MEMBER_1_MEMBER_1_FILL">
<path fill="#FFCC00" stroke="none" d="
M 58.95 30.55
Q 55.15 26.8 49.75 26.8 44.25 26.8 40.45 30.6 36.6 34.45 36.6 39.9 36.6 45.3 40.35 49.1
L 58.95 30.55 Z"/>

<path fill="#C59E00" stroke="none" d="
M 59 30.6
L 58.95 30.55 40.35 49.1
Q 40.4 49.15 40.45 49.2 44.25 53 49.75 53 55.2 53 59 49.2 62.85 45.35 62.85 39.9 62.85 34.45 59 30.6
M 64.65 24.8
Q 58.5 18.7 49.75 18.7 40.95 18.7 34.75 24.9 28.55 31.1 28.55 39.9 28.55 48.65 34.65 54.8
L 40.35 49.1
Q 36.6 45.3 36.6 39.9 36.6 34.45 40.45 30.6 44.25 26.8 49.75 26.8 55.15 26.8 58.95 30.55
L 64.65 24.8 Z"/>

<path fill="#957800" stroke="none" d="
M 58.95 30.55
L 59 30.6
Q 62.85 34.45 62.85 39.9 62.85 45.35 59 49.2 55.2 53 49.75 53 44.25 53 40.45 49.2 40.4 49.15 40.35 49.1
L 34.65 54.8
Q 34.7 54.85 34.75 54.9 40.95 61.1 49.75 61.1 58.55 61.1 64.75 54.9 70.95 48.7 70.95 39.9 70.95 31.1 64.75 24.9 64.7 24.85 64.65 24.8
L 58.95 30.55 Z"/>
</g>

<g id="Layer1_0_FILL">
<path fill="#FFFFFF" stroke="none" d="
M 225.45 69.6
Q 227.45 69.75 227.3 67.6
L 227.3 59.25 217 59.25 217 69.6 225.45 69.6
M 225.4 67.75
Q 225.4 68.4 224.8 68.4
L 218.9 68.4 218.9 60.5 225.4 60.5 225.4 67.75
M 225.1 61.45
L 222.8 61.45 222.8 60.8 221.05 60.8 221.05 61.45 219.2 61.45 219.2 62.5 221.05 62.5 221.05 63.05 219.5 63.05 219.5 64.1 221.05 64.1 221.05 64.7 219.15 64.7 219.15 65.8 221.05 65.8 221.05 68.15 222.8 68.15 222.8 65.8 223.65 65.8 223.65 66.3
Q 223.7 66.55 223.4 66.55
L 223.15 66.55 223.15 67.6 223.9 67.6
Q 225.2 67.7 225.1 66.35
L 225.1 64.7 222.8 64.7 222.8 64.1 224.8 64.1 224.8 63.05 222.8 63.05 222.8 62.5 225.1 62.5 225.1 61.45
M 208.65 59.05
Q 208.85 60.4 209.1 61.55 208.05 65.55 204.75 68.45
L 204.75 69.8
Q 208.95 67.45 210.15 64.5 211.45 67.5 215.55 69.75
L 215.55 68.4
Q 211.55 65.15 210.9 59.05
L 208.65 59.05
M 200.95 65.35
L 200.95 63.5 199.05 63.5 199.05 65.35
Q 199.15 67.7 196.3 68.6
L 196.3 69.8
Q 198.95 69.45 200.05 67.95 201.15 69.4 203.6 69.8
L 203.6 68.55
Q 200.85 67.7 200.95 65.35
M 196.6 59.3
L 196.6 60.65 198.85 60.65
Q 198.8 61.15 198.7 61.55
L 196.7 61.55 196.7 67.05 198.45 67.05 198.45 62.9 201.55 62.9 201.55 67.05 203.3 67.05 203.3 61.55 200.65 61.55
Q 200.8 61.15 200.8 60.65
L 203.6 60.65 203.6 59.3 196.6 59.3
M 196.35 60.95
L 196.35 59.65 192.75 59.65 192.75 60.95 193.65 60.95 193.65 66.8
Q 193.5 66.8 193.2 66.8 192.85 66.85 192.7 66.85
L 192.7 68.55
Q 195.15 68.2 196.5 67.55
L 196.5 66.15
Q 196 66.3 195.55 66.4
L 195.55 60.95 196.35 60.95
M 191.65 60.95
L 191.65 59.6 180.7 59.6 180.7 60.95 183.85 60.95 183.85 61.9 181.25 61.9 181.25 69.7 183.1 69.7 183.1 68.2
Q 184.55 67.05 185.05 65.45 185.3 66 185.85 66.35 185.7 66.7 185.4 67
L 185.4 68.3
Q 186.9 67.55 187.6 66.15 188.15 67.3 189.25 67.95 189.3 68.4 188.8 68.35
L 188.3 68.35 188.3 69.65 189.3 69.65
Q 191.15 69.7 191.1 67.9
L 191.1 61.9 188.45 61.9 188.45 60.95 191.65 60.95
M 189.25 63.2
L 189.25 66.25
Q 188.55 65.25 188.45 63.2
L 189.25 63.2
M 185.7 63.2
L 186.7 63.2
Q 186.65 64.25 186.4 65.3
L 186.4 65.1
Q 185.8 64.4 185.7 63.2
M 183.1 63.2
L 183.8 63.2
Q 183.8 65.2 183.1 66.5
L 183.1 63.2
M 185.6 60.95
L 186.7 60.95 186.7 61.9 185.6 61.9 185.6 60.95
M 133.85 61.45
L 141.6 61.45 141.6 60 138.05 60 138.05 58.95 135.7 58.95 135.7 60 131.6 60 131.6 66.4
Q 131.65 68 130.75 68.6
L 130.75 69.85
Q 134.05 68.8 133.85 65.8
L 133.85 61.45
M 143.9 65.05
L 143.9 69.55 150.85 69.55
Q 152.6 69.6 152.6 67.75
L 152.6 65.05 143.9 65.05
M 150.55 66.45
L 150.55 67.65
Q 150.6 68.3 150 68.3
L 145.95 68.3 145.95 66.45 150.55 66.45
M 152.95 61.3
L 152.95 59.95 149.5 59.95 149.5 58.95 147.4 58.95 147.4 59.95 146 59.95
Q 146.1 59.55 146.15 59.25
L 144.25 59.25
Q 144.1 60.65 143.25 61.55
L 143.25 62.7
Q 144.75 62.25 145.4 61.3
L 147.4 61.3 147.4 63 142.7 63 142.7 64.35 153.6 64.35 153.6 63 149.5 63 149.5 61.3 152.95 61.3
M 170 63.8
L 170 65.25 176.4 65.25 176.4 63.8 170 63.8
M 164.9 66.8
L 164.9 62.75 155.25 62.75 155.25 64.1 157.85 64.1 157.85 69.8 160.05 69.8 160.05 64.1 162.8 64.1 162.8 66.6
Q 162.8 67.25 162.1 67.25
L 161.3 67.25 161.3 68.6 163.1 68.6
Q 164.9 68.6 164.9 66.8
M 163.35 59.95
L 163.35 59.05 161.35 59.05 161.35 59.95 158.95 59.95 158.95 59.05 156.95 59.05 156.95 59.95 154.7 59.95 154.7 61.3 156.95 61.3 156.95 62.3 158.95 62.3 158.95 61.3 161.35 61.3 161.35 62.3 163.35 62.3 163.35 61.3 165.55 61.3 165.55 59.95 163.35 59.95
M 118.8 67.65
L 118.8 69.05
Q 120.65 69.05 122.45 68.65
L 122.45 67.35
Q 120.8 67.7 118.8 67.65
M 121 61.9
Q 120.9 62.2 120.85 62.3 120.6 62.3 120.25 62.3 121.25 61.1 121.85 59.05
L 120.05 59.05
Q 119.7 60.85 118.75 62.3
L 118.75 63.7
Q 119.6 63.7 120.25 63.65 119.65 64.6 118.85 65.4
L 118.85 66.85
Q 120.95 66.85 122.35 66.55
L 122.35 65.25
Q 121.45 65.45 120.6 65.4 122.35 63.8 122.7 61.65
L 122.7 69.7 124.5 69.7 124.5 61.55 125.1 61.55 125.1 61.75
Q 125.15 64.65 124.65 65.75
L 124.65 67.35
Q 125.55 66.75 126.05 65.55 126.5 66.75 127.4 67.35
L 127.4 65.75
Q 126.95 64.7 126.95 61.75
L 126.95 61.55 127.55 61.55 127.55 67.85
Q 127.55 68.45 127.1 68.4
L 126.6 68.4 126.6 69.65 127.75 69.65
Q 129.4 69.75 129.35 68
L 129.35 60.25 126.95 60.25 126.95 59 125.1 59 125.1 60.25 122.7 60.25 122.7 61.25 121.2 61.25
Q 121.15 61.5 121 61.9
M 107 66
L 107 67.1 109.85 67.1
Q 110.3 67.7 110.8 68.25 109.15 68.5 107 68.65
L 107 69.6
Q 110.05 69.4 112.05 69.05 113.45 69.85 115.4 69.8 117.55 69.85 117.4 68.1
L 116.05 68.1
Q 116.15 68.7 115.05 68.65 114.65 68.65 114.3 68.6 114.2 68.6 114.15 68.6 115.45 68.2 116.35 67.3
L 114.2 67.3
Q 113.95 67.4 113.35 67.6 112.95 67.7 112.75 67.8 112.4 67.5 112.05 67.1
L 117.25 67.1 117.25 66 114.8 66 114.8 65.6 113.05 65.6 113.05 66 111.2 66
Q 111.2 65.9 111.1 65.8 111.05 65.65 111.05 65.6
L 108.95 65.6
Q 109.1 65.8 109.15 66
L 107 66
M 112.55 60.85
Q 112.65 60.75 112.7 60.5
L 117.5 60.5 117.5 59.35 106.9 59.35 106.9 60.5 110.6 60.5
Q 110.55 60.75 110.45 60.85
L 107.65 60.85 107.65 65.45 115.2 65.45
Q 116.85 65.55 116.75 63.8
L 116.75 60.85 112.55 60.85
M 109.75 64.5
L 109.75 64.1 114.8 64.1
Q 114.8 64.55 114.25 64.5
L 109.75 64.5
M 109.75 63.35
L 109.75 63 114.8 63 114.8 63.35 109.75 63.35
M 109.75 61.85
L 114.8 61.85 114.8 62.2 109.75 62.2 109.75 61.85
M 212.65 44.75
L 207.7 44.75 207.7 51.25 210.95 51.25
Q 212.75 51.35 212.65 49.6
L 212.65 44.75
M 209.45 47.3
L 209.45 46 210.9 46 210.9 47.3 209.45 47.3
M 209.45 48.5
L 210.9 48.5 210.9 49.35
Q 210.9 50 210.3 50
L 209.45 50 209.45 48.5
M 208.1 42.55
L 208.1 43.95 213.35 43.95 213.35 51.1
Q 213.4 51.7 212.8 51.65
L 212.1 51.65 212.1 52.9 213.45 52.9
Q 215.4 53 215.3 51.15
L 215.3 42.55 208.1 42.55
M 207.05 44.95
L 205.1 44.95 205.1 53 207.05 53 207.05 44.95
M 206.9 42.45
L 205.15 42.45
Q 205.45 43.35 205.6 44.55
L 207.55 44.55
Q 207.45 43.55 206.9 42.45
M 201.05 45
Q 200.85 44.35 200.6 44
L 199.05 44
Q 199.3 44.35 199.45 45
L 201.05 45
M 196.7 44
Q 196.95 44.4 197.1 45
L 198.75 45
Q 198.6 44.5 198.3 44
L 196.7 44
M 196.3 42.75
L 193 42.75 193 52.3 194.8 52.3
Q 196.4 52.4 196.3 50.75
L 196.3 42.75
M 195 44
L 195 45.5 194.5 45.5 194.5 44 195 44
M 194.5 48.25
L 194.5 46.7 195 46.7 195 48.25 194.5 48.25
M 194.5 49.45
L 195 49.45 195 50.75
Q 195 51.15 194.7 51.15
L 194.5 51.15 194.5 49.45
M 203.5 43.5
L 203.5 42.25
Q 202.25 42.65 201.05 42.6
L 196.7 42.6 196.7 43.85 201.3 43.85
Q 202.45 43.9 203.5 43.5
M 202.8 45.15
Q 203.05 44.8 203.4 44
L 201.7 44
Q 201.5 44.8 201.25 45.15
L 196.55 45.15 196.55 47 197.2 47
Q 197.05 48.35 196.4 49.25
L 196.4 50.4
Q 196.75 50.15 197.05 50
L 197.05 50.5
Q 197.45 50.6 197.8 50.75 197.3 51.45 196.45 51.95
L 196.45 53.15
Q 199.3 51.85 199.85 49.25
L 199.85 50.3
Q 199.8 51.5 200.9 51.45
L 201.25 51.45 201.25 53 202.65 53 202.65 51.45 203.65 51.45 203.65 50.2 202.65 50.2 202.65 48.65 203.55 48.65 203.55 47.45 202.65 47.45 202.65 47 203.55 47 203.55 45.15 202.8 45.15
M 198.65 46.8
L 198.2 46.8 198.2 46.35 201.9 46.35 201.9 46.8 201.25 46.8 201.25 47.45 200.15 47.45 200.15 48.65 201.25 48.65 201.25 50.2
Q 200.9 50.15 200.95 49.8
L 200.95 48.95 199.9 48.95
Q 199.95 48.85 199.95 48.7 200 48.55 200 48.5
L 200 47.3 198.55 47.3
Q 198.6 47.2 198.6 47.05 198.65 46.9 198.65 46.8
M 197.75 49.35
Q 198 49 198.25 48.5
L 198.6 48.5
Q 198.5 49.1 198.35 49.55 198.05 49.4 197.75 49.35
M 181.45 42.75
L 181.45 48.9
Q 181.5 50.75 180.85 51.75
L 180.85 53.05
Q 182.45 52.1 182.9 51.15
L 182.9 52.5
Q 184.95 51.9 186 51.05
L 186 49.75
Q 185.85 49.85 185.6 50 185.4 50.1 185.3 50.15 185.15 49.75 185.05 49.25
L 183.55 49.25
Q 183.8 50.3 184.05 50.75 183.9 50.75 183.6 50.85 183.2 51 182.95 51.05 183.4 50.05 183.4 48.6
L 183.4 47.4 186.15 47.4 186.15 47.85 183.55 47.85 183.55 49.1 186.15 49.1 186.15 51.35
Q 186.2 51.85 185.6 51.85
L 185.3 51.85 185.3 53 186.3 53
Q 188 53.05 187.95 51.35
L 187.95 51.15
Q 188.95 51.95 191.4 52.8
L 191.4 51.55
Q 190.65 51.25 190.45 51.15 190.2 51 190.05 50.95 190.35 50.5 190.55 49.25
L 189.05 49.25
Q 189 49.4 188.95 49.75 188.85 50 188.85 50.1 188.4 49.7 187.95 49.2
L 187.95 49.1 189.2 49.1
Q 190.9 49.15 190.8 47.45
L 190.8 47.4 191.65 47.4 191.65 46.2 190.8 46.2 190.8 44.55 187.95 44.55 187.95 44 191.6 44 191.6 42.75 188 42.75 188 42.2 185.6 42.2 185.6 42.75 181.45 42.75
M 186.15 45.75
L 186.15 46.2 183.4 46.2 183.4 44 186.15 44 186.15 44.55 183.65 44.55 183.65 45.75 186.15 45.75
M 189.1 45.75
L 189.1 46.2 187.95 46.2 187.95 45.75 189.1 45.75
M 187.95 47.85
L 187.95 47.4 189.1 47.4
Q 189.15 47.9 188.55 47.85
L 187.95 47.85
M 173 51.15
L 173 49.75
Q 171.1 50.65 169.2 51
L 169.2 52.7
Q 171.35 52.25 173 51.15
M 179.1 52.95
L 179.1 51.15
Q 177.55 50.15 175.5 49.75
L 175.5 51.2
Q 177.25 51.7 179.1 52.95
M 175.25 47.95
L 173.2 47.95 173.2 51.2
Q 173.25 51.85 172.65 51.8
L 172.2 51.8 172.2 53 173.5 53
Q 175.3 53.05 175.25 51.2
L 175.25 47.95
M 169.25 42.6
L 169.25 43.85 173 43.85
Q 173 43.9 173 44 172.95 44.15 172.95 44.25
L 169.6 44.25 169.6 45.45 172.6 45.45
Q 172.6 45.5 172.5 45.6 172.45 45.8 172.4 45.9
L 168.85 45.9 168.85 47.05 171.3 47.05
Q 170.4 47.8 168.75 48.4
L 168.75 49.6
Q 169.15 49.45 169.8 49.25 170.35 49.05 170.65 48.95 170.8 49.3 171.1 49.75
L 172.85 49.75
Q 172.3 48.9 172.3 48.2 173.1 47.7 173.8 47.05
L 174.85 47.05
Q 175.5 47.8 176.2 48.3 176.05 49 175.6 49.75
L 177.4 49.75
Q 177.45 49.7 177.5 49.55 177.7 49.25 177.75 49.1 178.5 49.35 179.5 49.6
L 179.5 48.4
Q 177.9 47.85 177.05 47.05
L 179.5 47.05 179.5 45.9 174.6 45.9
Q 174.75 45.6 174.8 45.45
L 178.7 45.45 178.7 44.25 175.1 44.25
Q 175.1 44.15 175.15 44 175.15 43.9 175.15 43.85
L 179.05 43.85 179.05 42.6 175.2 42.6 175.2 42.15 173.05 42.15 173.05 42.6 169.25 42.6
M 164.4 48.45
L 164.4 47 158 47 158 48.45 164.4 48.45
M 148.55 52
Q 148.4 50.95 147.85 50.2
L 146.2 50.2
Q 146.6 51.3 146.75 52
L 148.55 52
M 149.15 42.7
Q 149.2 42.6 149.2 42.5 149.25 42.3 149.25 42.2
L 147.05 42.2
Q 147.05 42.3 147.05 42.5 147.05 42.6 147 42.7
L 143 42.7 143 44.1 146.75 44.1
Q 146.75 44.4 146.65 44.65
L 143.6 44.65 143.6 45.95 146.3 45.95
Q 146.25 46.1 146.2 46.3 146.1 46.45 146.1 46.55
L 142.8 46.55 142.8 47.9 145.4 47.9
Q 144.65 49.3 142.9 50.95
L 142.9 52.35
Q 144.75 51.15 145.9 49.95
L 150.1 49.95 150.1 51.2
Q 150.15 51.7 149.6 51.7
L 149 51.7 149 52.95 150.5 52.95
Q 152.1 52.95 152.1 51.4
L 152.1 49.95 153.6 49.95 153.6 48.55 152.1 48.55 152.1 47.9 153.6 47.9 153.6 46.55 148.1 46.55
Q 148.15 46.45 148.25 46.25 148.3 46.05 148.35 45.95
L 152.7 45.95 152.7 44.65 148.7 44.65
Q 148.75 44.55 148.8 44.35 148.85 44.2 148.85 44.1
L 153.3 44.1 153.3 42.7 149.15 42.7
M 147.05 48.5
Q 147.3 48.1 147.4 47.9
L 150.1 47.9 150.1 48.55 147 48.55 147.05 48.5
M 135.05 42.25
L 135.05 43.45
Q 135.1 48.3 130.75 51.65
L 130.75 53
Q 135 50.95 136.15 48.1 137.35 50.95 141.55 53
L 141.55 51.65
Q 137.2 48.3 137.3 43.45
L 137.3 42.25 135.05 42.25
M 126 42.75
L 126 42.2 123.6 42.2 123.6 42.75 119.45 42.75 119.45 48.9
Q 119.5 50.75 118.85 51.75
L 118.85 53.05
Q 120.45 52.1 120.9 51.15
L 120.9 52.5
Q 122.95 51.9 124 51.05
L 124 49.75
Q 123.85 49.85 123.6 50 123.4 50.1 123.3 50.15 123.15 49.75 123.05 49.25
L 121.55 49.25
Q 121.8 50.3 122.05 50.75 121.9 50.75 121.6 50.85 121.2 51 120.95 51.05 121.4 50.05 121.4 48.6
L 121.4 47.4 124.15 47.4 124.15 47.85 121.55 47.85 121.55 49.1 124.15 49.1 124.15 51.35
Q 124.2 51.85 123.6 51.85
L 123.3 51.85 123.3 53 124.3 53
Q 126 53.05 125.95 51.35
L 125.95 51.15
Q 126.95 51.95 129.4 52.8
L 129.4 51.55
Q 128.65 51.25 128.45 51.15 128.2 51 128.05 50.95 128.35 50.5 128.55 49.25
L 127.05 49.25
Q 127 49.4 126.95 49.75 126.85 50 126.85 50.1 126.4 49.7 125.95 49.2
L 125.95 49.1 127.2 49.1
Q 128.9 49.15 128.8 47.45
L 128.8 47.4 129.65 47.4 129.65 46.2 128.8 46.2 128.8 44.55 125.95 44.55 125.95 44 129.6 44 129.6 42.75 126 42.75
M 124.15 44
L 124.15 44.55 121.65 44.55 121.65 45.75 124.15 45.75 124.15 46.2 121.4 46.2 121.4 44 124.15 44
M 125.95 46.2
L 125.95 45.75 127.1 45.75 127.1 46.2 125.95 46.2
M 125.95 47.85
L 125.95 47.4 127.1 47.4
Q 127.15 47.9 126.55 47.85
L 125.95 47.85
M 111 49.75
Q 109.1 50.65 107.2 51
L 107.2 52.7
Q 109.35 52.25 111 51.15
L 111 49.75
M 113.5 49.75
L 113.5 51.2
Q 115.25 51.7 117.1 52.95
L 117.1 51.15
Q 115.55 50.15 113.5 49.75
M 113.25 47.95
L 111.2 47.95 111.2 51.2
Q 111.25 51.85 110.65 51.8
L 110.2 51.8 110.2 53 111.5 53
Q 113.3 53.05 113.25 51.2
L 113.25 47.95
M 111.05 42.6
L 107.25 42.6 107.25 43.85 111 43.85
Q 111 43.9 111 44 110.95 44.15 110.95 44.25
L 107.6 44.25 107.6 45.45 110.6 45.45
Q 110.6 45.5 110.5 45.6 110.45 45.8 110.4 45.9
L 106.85 45.9 106.85 47.05 109.3 47.05
Q 108.4 47.8 106.75 48.4
L 106.75 49.6
Q 107.15 49.45 107.8 49.25 108.35 49.05 108.65 48.95 108.8 49.3 109.1 49.75
L 110.85 49.75
Q 110.3 48.9 110.3 48.2 111.1 47.7 111.8 47.05
L 112.85 47.05
Q 113.5 47.8 114.2 48.3 114.05 49 113.6 49.75
L 115.4 49.75
Q 115.45 49.7 115.5 49.55 115.7 49.25 115.75 49.1 116.5 49.35 117.5 49.6
L 117.5 48.4
Q 115.9 47.85 115.05 47.05
L 117.5 47.05 117.5 45.9 112.6 45.9
Q 112.75 45.6 112.8 45.45
L 116.7 45.45 116.7 44.25 113.1 44.25
Q 113.1 44.15 113.15 44 113.15 43.9 113.15 43.85
L 117.05 43.85 117.05 42.6 113.2 42.6 113.2 42.15 111.05 42.15 111.05 42.6
M 194.6 16.15
L 194.6 13.35 181.85 13.35
Q 181.95 13.05 182.15 12.5 182.25 12.1 182.35 11.85
L 178.1 11.85
Q 177.1 15.95 174.1 17.85
L 174.1 20.35
Q 175.5 20 176.55 19.45
L 176.55 26 173.7 26 173.7 28.7 183.95 28.7 183.95 33.4 188.25 33.4 188.25 28.7 195.35 28.7 195.35 26 188.25 26 188.25 21.6 194.05 21.6 194.05 18.85 188.25 18.85 188.25 16.15 194.6 16.15
M 183.95 16.15
L 183.95 18.85 177.65 18.85
Q 179.45 17.75 180.55 16.15
L 183.95 16.15
M 180.45 21.6
L 183.95 21.6 183.95 26 180.45 26 180.45 21.6
M 169.35 12.5
L 165.2 12.5 155.45 25.7 155.45 28.6 165 28.6 165 32.75 169.35 32.75 169.35 28.6 171.75 28.6 171.75 25.7 169.35 25.7 169.35 12.5
M 165 18.4
L 165 25.7 159.65 25.7 165 18.4
M 152.45 12.5
L 147.95 12.5
Q 146.2 16.45 141.5 18.4
L 141.5 20.95
Q 145.35 20.35 147.95 18.5
L 147.95 32.75 152.45 32.75 152.45 12.5
M 131.9 12.1
Q 124.3 12.5 124.15 22.7 124.25 32.95 131.9 33.1 139.9 33.2 139.8 22.7 139.7 12.2 131.9 12.1
M 132 15
Q 135.3 14.85 135.2 22.8 135.2 30.4 132 30.4 128.65 30.4 128.65 22.8 128.65 14.95 132 15
M 122.1 32.75
L 122.1 30.1 111.7 30.1
Q 113.3 27.5 117.6 24.95 122.45 22.05 122.2 18 121.9 12.4 115.05 12.2 108.3 12.3 107.1 19.05
L 111.3 19.05
Q 111.8 15.2 114.8 15.1 117.7 15 117.7 18.2 117.95 20.25 113.1 23.75 109.15 26.65 107.2 30
L 107.2 32.75 122.1 32.75 Z"/>
</g>
</defs>

<g transform="matrix( 1, 0, 0, 1, 0,0) ">
<use xlink:href="#Layer2_0_FILL"/>
</g>

<g transform="matrix( 10.800430297851562, 0, 0, 10.800430297851562, 5.5,4.55) ">
<g transform="matrix( 1, 0, 0, 1, 0,0) ">
<use xlink:href="#pop_0_Layer5_0_FILL"/>
</g>

<g transform="matrix( 1, 0, 0, 1, 0,0) ">
<use xlink:href="#pop_0_Layer4_0_FILL"/>
</g>

<g transform="matrix( 1, 0, 0, 1, 0,0) ">
<use xlink:href="#pop_0_Layer3_0_FILL"/>
</g>

<g transform="matrix( 1, 0, 0, 1, 0,0) ">
<use xlink:href="#pop_0_Layer2_0_FILL"/>
</g>

<g transform="matrix( 1, 0, 0, 1, 0,0) ">
<use xlink:href="#pop_0_Layer1_0_FILL"/>
</g>

<g transform="matrix( 1, 0, 0, 1, 0,0) ">
<use xlink:href="#pop_0_Layer0_0_FILL"/>
</g>
</g>

<g transform="matrix( 1, 0, 0, 1, 0,0) ">
<use xlink:href="#Layer2_1_MEMBER_1_FILL"/>
</g>

<g transform="matrix( 1, 0, 0, 1, 0,0) ">
<use xlink:href="#Layer2_1_MEMBER_1_MEMBER_0_FILL"/>
</g>

<g transform="matrix( 1, 0, 0, 1, 0,0) ">
<use xlink:href="#Layer2_1_MEMBER_1_MEMBER_1_FILL"/>
</g>

<g transform="matrix( 1, 0, 0, 1, 0,0) ">
<use xlink:href="#Layer1_0_FILL"/>
</g>
</svg>
