
<svg xmlns="http://www.w3.org/2000/svg" version="1.1" xmlns:xlink="http://www.w3.org/1999/xlink" preserveAspectRatio="none" x="0px" y="0px" width="550px" height="100px" viewBox="0 0 550 100">
<defs>
<g id="Layer1_0_FILL">
<path fill="#000000" fill-opacity="0.5019607843137255" stroke="none" d="
M 545.45 49.2
Q 545.45 28.8 531 14.4 516.65 0 496.25 0
L 49.2 0
Q 28.8 0 14.35 14.4 0 28.8 0 49.2 0 69.6 14.35 84 28.8 98.4 49.2 98.4
L 496.25 98.4
Q 516.65 98.4 531 84 545.45 69.6 545.45 49.2 Z"/>
</g>

<g id="pop_0_Layer5_0_FILL">
<path fill="#0C0A80" fill-opacity="0.2" stroke="none" d="
M 7.25 6.1
Q 7.75 5.2 7.85 4.45 7.85 4.3 7.85 4 7.7 2.15 6.05 1.6 4.15 1.1 3 2.6 1.9 4.15 3.45 5.9 4.7 7.3 2.95 7.8 3.1 7.95 3.7 7.95 3.75 7.95 3.85 7.95 4.5 8 5.5 7.6 6.7 7 7.25 6.1 Z"/>
</g>

<g id="pop_0_Layer4_0_FILL">
<path fill="#0C0A80" fill-opacity="0.2" stroke="none" d="
M 4.85 5.25
Q 4.85 4.4 4.25 3.75 3.65 3.15 2.8 3.15 1.95 3.15 1.35 3.75 0.7 4.4 0.7 5.25 0.7 6.1 1.35 6.7 1.95 7.3 2.8 7.3 3.65 7.3 4.25 6.7 4.85 6.1 4.85 5.25 Z"/>
</g>

<g id="pop_0_Layer3_0_FILL">
<path fill="#0C0A80" fill-opacity="0.2" stroke="none" d="
M 7.05 2.25
Q 7.05 1.6 6.6 1.15 6.15 0.7 5.5 0.7 4.85 0.7 4.4 1.15 3.95 1.6 3.95 2.25 3.95 2.9 4.4 3.35 4.85 3.8 5.5 3.8 6.15 3.8 6.6 3.35 7.05 2.9 7.05 2.25 Z"/>
</g>

<g id="pop_0_Layer2_0_FILL">
<path fill="#FFFFFF" fill-opacity="0.30196078431372547" stroke="none" d="
M 8.2 4.1
Q 8.2 2.4 7 1.2 5.8 0 4.1 0 2.4 0 1.2 1.2 0 2.4 0 4.1 0 5.8 1.2 7 2.4 8.2 4.1 8.2 5.8 8.2 7 7 8.2 5.8 8.2 4.1 Z"/>
</g>

<g id="pop_0_Layer1_0_FILL">
<path fill="#FFFFFF" fill-opacity="0.5019607843137255" stroke="none" d="
M 2.1 6.2
Q 3.7 5.95 2.65 3.7 1.9 1.2 4.2 0.3 3.65 0.35 3 0.55 1.7 1.1 1.1 1.9 0.5 2.75 0.4 3.5 0.35 3.65 0.35 3.95 0.4 6.2 2.1 6.2 Z"/>
</g>

<g id="pop_0_Layer0_0_FILL">
<path fill="#FFFFFF" fill-opacity="0.5019607843137255" stroke="none" d="
M 6.9 1.85
Q 6.9 1.45 6.65 1.2 6.35 0.9 6 0.9 5.6 0.9 5.35 1.2 5.05 1.45 5.05 1.85 5.05 2.2 5.35 2.5 5.6 2.75 6 2.75 6.35 2.75 6.65 2.5 6.9 2.2 6.9 1.85 Z"/>
</g>

<g id="Layer1_1_MEMBER_1_FILL">
<path fill="#FFFFFF" stroke="none" d="
M 61.1 23.75
Q 61.1 23.7 61.1 23.6 61.1 22.7 60.4 22 59.7 21.3 58.8 21.3
L 24.4 21.3
Q 23.4 21.3 22.75 22 22.7 22 22.7 22.05 22.05 22.75 22.05 23.6 22.05 23.7 22.05 23.75 22.05 24.25 22.1 24.85 22.1 25 22.1 25.15 20.45 25.9 19.05 27.3 15.9 30.45 15.9 34.85 15.9 39.2 19.05 42.35
L 19.05 42.4
Q 22.2 45.5 26.6 45.5 27.7 45.5 28.8 45.3
L 28.85 45.3
Q 32 49.3 35.85 50.95 36.7 53.7 36.95 56.8 35.4 59.5 33.25 61.8 32.35 62.8 31.25 63.75
L 31.25 63.8
Q 31.2 63.8 31.2 63.85 30.45 64.3 30.3 65.15 29.7 67.65 29.05 70.1 29.05 70.2 29.05 70.3 28.95 70.8 29.1 71.4 29.15 71.5 29.2 71.55 29.4 72.15 30.05 72.6 30.6 73 31.3 73
L 51.85 73
Q 52.5 73 53.05 72.65 53.1 72.6 53.2 72.6 53.8 72.15 54 71.55 54 71.5 54.05 71.4 54.25 70.75 54.05 70.1 53.5 67.75 52.9 65.3 52.8 64.35 52.05 63.85 51.95 63.75 51.8 63.7 50.75 62.75 49.85 61.8 47.75 59.5 46.3 56.8 46.45 53.75 47.35 50.95 51.1 49.35 54.35 45.4 54.35 45.35 54.4 45.3 55.4 45.5 56.45 45.5 60.8 45.5 63.95 42.35 67.05 39.2 67.05 34.85 67.05 30.45 64 27.3 62.65 25.95 61.1 25.25 61.1 25 61.1 24.75 61.1 24.7 61.1 24.65 61.1 24.2 61.1 23.75 Z"/>
</g>

<g id="Layer1_1_MEMBER_1_MEMBER_0_FILL">
<path fill="#957800" stroke="none" d="
M 50.65 65.55
L 50.6 65.55 41.5 65.55 41.5 70.55 51.85 70.55
Q 51.25 68.1 50.65 65.55 Z"/>

<path fill="#C59E00" stroke="none" d="
M 32.5 65.55
Q 31.95 68.1 31.3 70.55
L 41.5 70.55 41.5 65.55 32.55 65.55 32.5 65.55
M 58.8 24.55
Q 58.8 24.1 58.8 23.65 58.8 23.6 58.8 23.5
L 41.5 23.5 41.5 65.55 50.6 65.55
Q 49.3 64.45 48.2 63.25 45.65 60.5 43.9 57.2 44.05 52.9 45.45 49.15
L 45.4 49.15
Q 49.3 47.85 52.55 43.8 53 43.25 53.45 42.55 54.8 43.05 56.45 43.05 59.9 43.05 62.35 40.6 64.8 38.2 64.8 34.75 64.8 31.25 62.35 28.8 60.7 27.25 58.7 26.7 58.75 25.65 58.8 24.55
M 56.45 40.6
Q 55.55 40.6 54.75 40.4 57.6 35.4 58.45 29.2 59.65 29.65 60.6 30.55 62.35 32.3 62.35 34.75 62.35 37.2 60.6 38.9 58.9 40.6 56.45 40.6 Z"/>

<path fill="#FFCC00" stroke="none" d="
M 24.4 23.5
Q 24.4 23.6 24.4 23.65 24.4 24.1 24.4 24.55 24.4 25.6 24.45 26.65 22.35 27.15 20.7 28.8 18.25 31.25 18.25 34.75 18.25 38.2 20.7 40.6 23.15 43.05 26.6 43.05 28.25 43.05 29.75 42.5 30.15 43.15 30.65 43.75 33.85 47.85 37.8 49.15
L 37.7 49.15
Q 39.1 52.9 39.25 57.2 37.55 60.5 34.95 63.25 33.9 64.45 32.55 65.55
L 41.5 65.55 41.5 23.5 24.4 23.5
M 20.7 34.75
Q 20.7 32.3 22.4 30.55 23.4 29.55 24.7 29.15 25.6 35.4 28.4 40.35 27.55 40.6 26.6 40.6 24.15 40.6 22.4 38.9 20.7 37.2 20.7 34.75 Z"/>
</g>

<g id="Layer1_1_MEMBER_2_FILL">
<path fill="#FFFFFF" stroke="none" d="
M 78.95 35.3
Q 77.6 33.9 76.05 33.2 76.05 32.95 76.05 32.7
L 76.05 32.65
Q 76.05 32.15 76.05 31.7
L 76.05 31.6
Q 76.05 30.7 75.35 29.95 74.65 29.25 73.75 29.25
L 39.35 29.25
Q 38.35 29.25 37.7 29.95 37.65 29.95 37.65 30 37 30.7 37 31.6
L 37 31.7
Q 37 32.25 37.05 32.85 37.05 32.95 37.05 33.15 35.4 33.9 34 35.3 30.85 38.45 30.85 42.85 30.85 47.2 34 50.3
L 34 50.35
Q 37.15 53.45 41.55 53.45 42.65 53.45 43.75 53.25
L 43.8 53.3
Q 46.95 57.3 50.8 58.95 51.65 61.7 51.9 64.8 50.35 67.45 48.2 69.8 47.3 70.8 46.2 71.75
L 46.2 71.8
Q 46.15 71.8 46.15 71.85 45.4 72.3 45.25 73.15 44.65 75.65 44 78.1 44 78.2 44 78.25 43.9 78.8 44.05 79.4 44.1 79.45 44.15 79.55 44.35 80.15 45 80.6 45.55 80.95 46.25 80.95
L 66.8 80.95
Q 67.45 80.95 68 80.65 68.05 80.6 68.15 80.6 68.75 80.15 68.95 79.55 68.95 79.45 69 79.4 69.2 78.7 69 78.1 68.45 75.75 67.85 73.3 67.75 72.3 67 71.85 66.9 71.75 66.75 71.7 65.7 70.75 64.8 69.8 62.7 67.45 61.25 64.75 61.4 61.75 62.3 58.95 66.05 57.35 69.3 53.4 69.3 53.35 69.35 53.3 70.35 53.45 71.4 53.45 75.75 53.45 78.9 50.3 82 47.2 82 42.85 82 38.45 78.95 35.3 Z"/>
</g>

<g id="Layer1_1_MEMBER_2_MEMBER_0_FILL">
<path fill="#C59E00" stroke="none" d="
M 47.2 73.6
L 47.15 73.6
Q 46.6 76.15 45.95 78.6
L 56.15 78.6 56.15 73.6 47.2 73.6
M 73.45 31.65
L 73.45 31.55 56.15 31.55 56.15 73.6 65.25 73.6
Q 63.95 72.5 62.85 71.3 60.3 68.55 58.55 65.25 58.7 60.95 60.1 57.15
L 60.05 57.15
Q 63.95 55.85 67.2 51.85 67.65 51.25 68.1 50.6 69.45 51.1 71.1 51.1 74.55 51.1 77 48.65 79.45 46.25 79.45 42.8 79.45 39.3 77 36.85 75.35 35.3 73.35 34.75 73.4 33.65 73.45 32.6 73.45 32.1 73.45 31.65
M 73.1 37.25
Q 74.3 37.7 75.25 38.6 77 40.35 77 42.8 77 45.25 75.25 46.95 73.55 48.65 71.1 48.65 70.2 48.65 69.4 48.45 72.25 43.45 73.1 37.25 Z"/>

<path fill="#957800" stroke="none" d="
M 65.3 73.6
L 65.25 73.6 56.15 73.6 56.15 78.6 66.5 78.6
Q 65.9 76.15 65.3 73.6 Z"/>

<path fill="#FFCC00" stroke="none" d="
M 39.1 34.7
Q 37 35.2 35.35 36.85 32.9 39.3 32.9 42.8 32.9 46.25 35.35 48.65 37.8 51.1 41.25 51.1 42.9 51.1 44.4 50.55 44.8 51.2 45.3 51.8 48.5 55.85 52.45 57.15
L 52.35 57.15
Q 53.75 60.95 53.9 65.25 52.2 68.55 49.6 71.3 48.55 72.5 47.2 73.6
L 56.15 73.6 56.15 31.55 39.05 31.55 39.05 31.65
Q 39.05 32.1 39.05 32.6 39.05 33.6 39.1 34.7
M 43.05 48.4
Q 42.2 48.65 41.25 48.65 38.8 48.65 37.05 46.95 35.35 45.25 35.35 42.8 35.35 40.35 37.05 38.6 38.05 37.55 39.35 37.2 40.25 43.4 43.05 48.4 Z"/>
</g>

<g id="Layer0_0_FILL">
<path fill="#FFFFFF" stroke="none" d="
M 498.5 69.25
L 495.75 69.25 493.6 79.25 496.4 79.25 498.5 69.25
M 488.35 73.6
Q 488.65 73.45 489.15 73.45 489.6 73.45 489.9 73.65 490.15 73.8 490.15 74.05 490.15 74.25 490.05 74.55 489.65 74.7 488.45 74.8 487.1 74.95 486.3 75.15 485.5 75.3 485 75.8 484.45 76.3 484.45 77.3 484.45 78.15 485.05 78.8 485.65 79.4 487 79.4 488.35 79.4 489.45 78.4 489.45 78.8 489.55 79.25
L 492.25 79.25
Q 492.1 78.75 492.1 78.25 492.1 77.65 492.45 76.2 492.8 74.6 492.8 73.95 492.8 72.9 492.1 72.35 491.3 71.85 489.2 71.85 487.3 71.85 486.4 72.4 485.5 72.95 485.25 74
L 487.85 74.25
Q 488.05 73.75 488.35 73.6
M 487.15 77.15
Q 487.15 76.8 487.5 76.55 487.85 76.3 489.75 76 489.6 77.05 489.05 77.5 488.55 77.9 488 77.9 487.65 77.9 487.4 77.7 487.15 77.5 487.15 77.15
M 478.7 71.8
Q 477.2 71.8 476.25 73.2 475.25 74.55 475.25 76.4 475.25 77.8 475.9 78.6 476.55 79.4 477.8 79.4 478.45 79.4 478.9 79.25 479.4 79.05 479.95 78.5
L 480 78.55 479.85 79.25 482.45 79.25 484.6 69.25 481.8 69.25 481 72.95
Q 480.25 71.8 478.7 71.8
M 479.45 73.7
Q 479.85 73.7 480.2 74 480.5 74.35 480.5 74.95 480.5 75.85 480.1 76.75 479.7 77.6 478.9 77.6 478.5 77.6 478.2 77.25 477.95 76.95 477.95 76.35 477.95 75.25 478.4 74.45 478.85 73.7 479.45 73.7
M 473.45 72.7
Q 472.55 71.85 470.55 71.85 469.6 71.85 468.9 72.05 468.2 72.25 467.45 72.8 466.75 73.4 466.3 74.25 465.9 75.1 465.9 76.1 465.9 77.5 466.8 78.45 467.7 79.4 469.85 79.4 471.35 79.4 472.3 78.95 473.3 78.45 473.9 77.4
L 471.2 77.15
Q 470.75 77.8 469.9 77.8 468.75 77.8 468.6 76.35
L 474.15 76.35
Q 474.35 75.3 474.35 74.9 474.35 73.6 473.45 72.7
M 470.45 73.45
Q 470.95 73.45 471.3 73.75 471.6 74 471.6 74.55 471.6 74.85 471.55 75
L 468.85 75
Q 469.1 74.25 469.55 73.85 469.95 73.45 470.45 73.45
M 374.75 72
L 372.25 72 373.35 79.25 375.85 79.25 378.25 74.95 378.3 74.95 378.75 79.25 381.2 79.25 385.35 72 382.5 72 380.5 76.5 380.45 76.5 380.05 72 377.55 72 375.05 76.6 375 76.6 374.75 72
M 399.9 71.85
Q 399.3 71.85 398.8 72.15 398.3 72.5 397.65 73.45
L 397.95 72 395.35 72 393.8 79.25 396.6 79.25 397.2 76.55
Q 397.45 75.25 397.95 74.7 398.45 74.1 399.25 74.1 399.5 74.1 399.85 74.2
L 400.85 72.05
Q 400.35 71.85 399.9 71.85
M 388.65 73.6
Q 388.95 73.45 389.45 73.45 389.9 73.45 390.2 73.65 390.45 73.8 390.45 74.05 390.45 74.25 390.35 74.55 389.95 74.7 388.75 74.8 387.4 74.95 386.6 75.15 385.8 75.3 385.3 75.8 384.75 76.3 384.75 77.3 384.75 78.15 385.35 78.8 385.95 79.4 387.3 79.4 388.65 79.4 389.75 78.4 389.75 78.8 389.85 79.25
L 392.55 79.25
Q 392.4 78.75 392.4 78.25 392.4 77.65 392.75 76.2 393.1 74.6 393.1 73.95 393.1 72.9 392.4 72.35 391.6 71.85 389.5 71.85 387.6 71.85 386.7 72.4 385.8 72.95 385.55 74
L 388.15 74.25
Q 388.35 73.75 388.65 73.6
M 387.45 77.15
Q 387.45 76.8 387.8 76.55 388.15 76.3 390.05 76 389.9 77.05 389.35 77.5 388.85 77.9 388.3 77.9 387.95 77.9 387.7 77.7 387.45 77.5 387.45 77.15
M 455.45 73.05
L 455.4 73.05 455.65 72 453.05 72 451.5 79.25 454.3 79.25 455.05 75.75
Q 455.25 74.75 455.75 74.3 456.2 73.85 456.6 73.85 457.2 73.85 457.2 74.4 457.2 74.55 457.15 74.75 457.1 75 456.85 76.2
L 456.2 79.25 459 79.25 459.7 76
Q 459.95 74.9 460.35 74.4 460.75 73.85 461.35 73.85 461.9 73.85 461.9 74.45 461.9 74.5 461.85 74.75 461.85 74.95 461.6 76.15
L 460.9 79.25 463.7 79.25 464.75 74.5
Q 464.85 74.05 464.85 73.6 464.85 72.9 464.35 72.35 463.85 71.85 462.85 71.85 462.15 71.85 461.5 72.1 460.85 72.35 460.05 73.05 459.85 72.5 459.35 72.15 458.8 71.85 458.1 71.85 456.65 71.85 455.45 73.05
M 423.35 72
L 420.8 72 420.55 73
Q 419.7 71.85 418.35 71.85 416.75 71.85 415.75 73.1 414.7 74.4 414.7 76.1 414.7 77.4 415.35 78.2 416 79 417.1 79 418.35 79 419.25 78
L 419.3 78.05 419.05 79.15
Q 418.9 79.85 418.55 80.2 418.25 80.55 417.75 80.55 416.95 80.55 416.9 79.8
L 414.25 79.4
Q 414.25 79.5 414.25 79.75 414.25 80.5 414.75 81.15 415.25 81.8 415.95 82 416.6 82.2 417.85 82.2 419.65 82.2 420.55 81.5 421.5 80.85 421.9 78.8
L 423.35 72
M 419 73.7
Q 419.4 73.7 419.65 73.95 419.95 74.25 419.95 74.7 419.95 75.45 419.55 76.3 419.15 77.1 418.4 77.1 417.95 77.1 417.7 76.8 417.4 76.55 417.4 76 417.4 75.15 417.9 74.4 418.35 73.7 419 73.7
M 410.05 69.25
L 407.25 69.25 406.45 72.95
Q 405.7 71.8 404.15 71.8 402.65 71.8 401.7 73.2 400.7 74.55 400.7 76.4 400.7 77.8 401.35 78.6 402 79.4 403.25 79.4 403.9 79.4 404.35 79.25 404.85 79.05 405.4 78.5
L 405.45 78.55 405.3 79.25 407.9 79.25 410.05 69.25
M 405.95 74.95
Q 405.95 75.85 405.55 76.75 405.15 77.6 404.35 77.6 403.95 77.6 403.65 77.25 403.4 76.95 403.4 76.35 403.4 75.25 403.85 74.45 404.3 73.7 404.9 73.7 405.3 73.7 405.65 74 405.95 74.35 405.95 74.95
M 431.3 72.8
Q 430.4 71.85 428.45 71.85 427.05 71.85 426 72.4 424.95 73 424.4 74 423.9 75.05 423.9 76.15 423.9 77.55 424.8 78.5 425.7 79.4 427.6 79.4 429.1 79.4 430.15 78.8 431.15 78.2 431.7 77.15 432.2 76.15 432.2 75.1 432.2 73.8 431.3 72.8
M 428.35 73.7
Q 428.8 73.7 429.15 74 429.5 74.25 429.5 75 429.5 75.95 429 76.75 428.55 77.55 427.8 77.55 427.3 77.55 426.95 77.15 426.6 76.75 426.6 76.15 426.6 75.3 427.05 74.5 427.45 73.7 428.35 73.7
M 437.8 69.25
L 435.05 69.25 432.9 79.25 435.7 79.25 437.8 69.25
M 441.35 71.8
Q 439.85 71.8 438.9 73.2 437.9 74.55 437.9 76.4 437.9 77.8 438.55 78.6 439.2 79.4 440.45 79.4 441.1 79.4 441.55 79.25 442.05 79.05 442.6 78.5
L 442.65 78.55 442.5 79.25 445.1 79.25 447.25 69.25 444.45 69.25 443.65 72.95
Q 442.9 71.8 441.35 71.8
M 442.1 73.7
Q 442.5 73.7 442.85 74 443.15 74.35 443.15 74.95 443.15 75.85 442.75 76.75 442.35 77.6 441.55 77.6 441.15 77.6 440.85 77.25 440.6 76.95 440.6 76.35 440.6 75.25 441.05 74.45 441.5 73.7 442.1 73.7
M 363.25 75.8
Q 362.7 76.3 362.7 77.3 362.7 78.15 363.3 78.8 363.9 79.4 365.25 79.4 366.6 79.4 367.7 78.4 367.7 78.8 367.8 79.25
L 370.5 79.25
Q 370.35 78.75 370.35 78.25 370.35 77.65 370.7 76.2 371.05 74.6 371.05 73.95 371.05 72.9 370.35 72.35 369.55 71.85 367.45 71.85 365.55 71.85 364.65 72.4 363.75 72.95 363.5 74
L 366.1 74.25
Q 366.3 73.75 366.6 73.6 366.9 73.45 367.4 73.45 367.85 73.45 368.15 73.65 368.4 73.8 368.4 74.05 368.4 74.25 368.3 74.55 367.9 74.7 366.7 74.8 365.35 74.95 364.55 75.15 363.75 75.3 363.25 75.8
M 365.4 77.15
Q 365.4 76.8 365.75 76.55 366.1 76.3 368 76 367.85 77.05 367.3 77.5 366.8 77.9 366.25 77.9 365.9 77.9 365.65 77.7 365.4 77.5 365.4 77.15
M 297.55 71.85
Q 295.9 71.85 294.75 73.1
L 295 72 292.4 72 290.8 79.25 293.6 79.25 294.3 76.1
Q 294.55 75 295 74.45 295.45 73.85 296.05 73.85 296.6 73.85 296.6 74.45 296.6 74.65 296.35 75.9
L 295.65 79.25 298.45 79.25 299.25 75.3
Q 299.55 74 299.55 73.55 299.55 72.85 299.05 72.35 298.55 71.85 297.55 71.85
M 290.75 71.15
L 291.15 69.25 288.4 69.25 288 71.15 290.75 71.15
M 290.6 72
L 287.8 72 286.25 79.25 289.05 79.25 290.6 72
M 321.75 71.7
Q 322.2 72.05 322.2 72.8
L 322.2 72.85 325.05 72.5
Q 324.9 70.95 323.8 70 322.7 69.05 320.8 69.05 318.95 69.05 317.65 69.9 316.35 70.75 315.7 72.25 315 73.7 315 75.2 315 77.1 316.15 78.25 317.3 79.4 319.45 79.4 321.55 79.4 322.85 78.35 324.1 77.3 324.55 75.75
L 321.65 75.3
Q 321.3 76.25 320.8 76.7 320.35 77.15 319.6 77.15 318.85 77.15 318.45 76.65 318.05 76.15 318.05 75.4 318.05 74.4 318.45 73.4 318.8 72.35 319.45 71.85 320.1 71.35 320.8 71.35 321.35 71.35 321.75 71.7
M 306.45 73
Q 305.6 71.85 304.25 71.85 302.65 71.85 301.65 73.1 300.6 74.4 300.6 76.1 300.6 77.4 301.25 78.2 301.9 79 303 79 304.25 79 305.15 78
L 305.2 78.05 304.95 79.15
Q 304.8 79.85 304.45 80.2 304.15 80.55 303.65 80.55 302.85 80.55 302.8 79.8
L 300.15 79.4
Q 300.15 79.5 300.15 79.75 300.15 80.5 300.65 81.15 301.15 81.8 301.85 82 302.5 82.2 303.75 82.2 305.55 82.2 306.45 81.5 307.4 80.85 307.8 78.8
L 309.25 72 306.7 72 306.45 73
M 304.9 73.7
Q 305.3 73.7 305.55 73.95 305.85 74.25 305.85 74.7 305.85 75.45 305.45 76.3 305.05 77.1 304.3 77.1 303.85 77.1 303.6 76.8 303.3 76.55 303.3 76 303.3 75.15 303.8 74.4 304.25 73.7 304.9 73.7
M 282.55 71.85
Q 281.3 71.85 280.4 72.2 279.55 72.55 279.1 73.15 278.7 73.75 278.7 74.4 278.7 75.15 279.25 75.7 279.85 76.2 281.45 76.45 282.15 76.55 282.4 76.65 282.65 76.8 282.65 77.1 282.65 77.5 282.3 77.7 281.95 77.9 281.5 77.9 280.5 77.9 280.35 77
L 277.6 77.25
Q 277.7 78.4 278.55 78.9 279.35 79.4 281.05 79.4 283.2 79.4 284.25 78.65 285.3 77.85 285.3 76.7 285.3 75.9 284.75 75.45 284.2 74.95 282.6 74.7 281.6 74.55 281.4 74.4 281.15 74.25 281.15 73.95 281.15 73.75 281.4 73.55 281.65 73.35 282.2 73.35 283.05 73.35 283.15 74
L 285.75 73.75
Q 285.55 72.7 284.8 72.25 284 71.85 282.55 71.85
M 277.45 72
L 274.65 72 273.1 79.25 275.9 79.25 277.45 72
M 277.6 71.15
L 278 69.25 275.25 69.25 274.85 71.15 277.6 71.15
M 338.85 72
L 336.05 72 334.5 79.25 337.3 79.25 338.85 72
M 336.65 69.25
L 336.25 71.15 339 71.15 339.4 69.25 336.65 69.25
M 329.25 72.9
L 329.25 72.85 330 69.25 327.25 69.25 325.05 79.25 327.85 79.25 328.55 76.1
Q 328.8 75 329.25 74.45 329.7 73.85 330.3 73.85 330.85 73.85 330.85 74.45 330.85 74.65 330.6 75.9
L 329.9 79.25 332.7 79.25 333.5 75.3
Q 333.8 74 333.8 73.55 333.8 72.85 333.3 72.35 332.8 71.85 331.85 71.85 330.25 71.85 329.25 72.9
M 352.6 73.6
Q 352.9 73.45 353.4 73.45 353.85 73.45 354.15 73.65 354.4 73.8 354.4 74.05 354.4 74.25 354.3 74.55 353.9 74.7 352.7 74.8 351.35 74.95 350.55 75.15 349.75 75.3 349.25 75.8 348.7 76.3 348.7 77.3 348.7 78.15 349.3 78.8 349.9 79.4 351.25 79.4 352.6 79.4 353.7 78.4 353.7 78.8 353.8 79.25
L 356.5 79.25
Q 356.35 78.75 356.35 78.25 356.35 77.65 356.7 76.2 357.05 74.6 357.05 73.95 357.05 72.9 356.35 72.35 355.55 71.85 353.45 71.85 351.55 71.85 350.65 72.4 349.75 72.95 349.5 74
L 352.1 74.25
Q 352.3 73.75 352.6 73.6
M 351.4 77.15
Q 351.4 76.8 351.75 76.55 352.1 76.3 354 76 353.85 77.05 353.3 77.5 352.8 77.9 352.25 77.9 351.9 77.9 351.65 77.7 351.4 77.5 351.4 77.15
M 347.3 72.35
Q 346.8 71.85 345.8 71.85 344.15 71.85 343 73.1
L 343.25 72 340.65 72 339.05 79.25 341.85 79.25 342.55 76.1
Q 342.8 75 343.25 74.45 343.7 73.85 344.3 73.85 344.85 73.85 344.85 74.45 344.85 74.65 344.6 75.9
L 343.9 79.25 346.7 79.25 347.5 75.3
Q 347.8 74 347.8 73.55 347.8 72.85 347.3 72.35
M 214.95 69.25
L 212.2 69.25 210.05 79.25 212.85 79.25 214.95 69.25
M 219.6 69.25
L 216.85 69.25 214.7 79.25 217.5 79.25 219.6 69.25
M 240.25 69.25
L 239.45 72.95
Q 238.7 71.8 237.15 71.8 235.65 71.8 234.7 73.2 233.7 74.55 233.7 76.4 233.7 77.8 234.35 78.6 235 79.4 236.25 79.4 236.9 79.4 237.35 79.25 237.85 79.05 238.4 78.5
L 238.45 78.55 238.3 79.25 240.9 79.25 243.05 69.25 240.25 69.25
M 237.9 73.7
Q 238.3 73.7 238.65 74 238.95 74.35 238.95 74.95 238.95 75.85 238.55 76.75 238.15 77.6 237.35 77.6 236.95 77.6 236.65 77.25 236.4 76.95 236.4 76.35 236.4 75.25 236.85 74.45 237.3 73.7 237.9 73.7
M 232.55 73.95
Q 232.55 72.9 231.85 72.35 231.05 71.85 228.95 71.85 227.05 71.85 226.15 72.4 225.25 72.95 225 74
L 227.6 74.25
Q 227.8 73.75 228.1 73.6 228.4 73.45 228.9 73.45 229.35 73.45 229.65 73.65 229.9 73.8 229.9 74.05 229.9 74.25 229.8 74.55 229.4 74.7 228.2 74.8 226.85 74.95 226.05 75.15 225.25 75.3 224.75 75.8 224.2 76.3 224.2 77.3 224.2 78.15 224.8 78.8 225.4 79.4 226.75 79.4 228.1 79.4 229.2 78.4 229.2 78.8 229.3 79.25
L 232 79.25
Q 231.85 78.75 231.85 78.25 231.85 77.65 232.2 76.2 232.55 74.6 232.55 73.95
M 229.5 76
Q 229.35 77.05 228.8 77.5 228.3 77.9 227.75 77.9 227.4 77.9 227.15 77.7 226.9 77.5 226.9 77.15 226.9 76.8 227.25 76.55 227.6 76.3 229.5 76
M 200.9 77.3
Q 200.9 78.15 201.5 78.8 202.1 79.4 203.45 79.4 204.8 79.4 205.9 78.4 205.9 78.8 206 79.25
L 208.7 79.25
Q 208.55 78.75 208.55 78.25 208.55 77.65 208.9 76.2 209.25 74.6 209.25 73.95 209.25 72.9 208.55 72.35 207.75 71.85 205.65 71.85 203.75 71.85 202.85 72.4 201.95 72.95 201.7 74
L 204.3 74.25
Q 204.5 73.75 204.8 73.6 205.1 73.45 205.6 73.45 206.05 73.45 206.35 73.65 206.6 73.8 206.6 74.05 206.6 74.25 206.5 74.55 206.1 74.7 204.9 74.8 203.55 74.95 202.75 75.15 201.95 75.3 201.45 75.8 200.9 76.3 200.9 77.3
M 203.6 77.15
Q 203.6 76.8 203.95 76.55 204.3 76.3 206.2 76 206.05 77.05 205.5 77.5 205 77.9 204.45 77.9 204.1 77.9 203.85 77.7 203.6 77.5 203.6 77.15
M 190.8 69.25
L 188 69.25 188.3 79.25 191.4 79.25 194.25 73.1 194.5 79.25 197.55 79.25 202.25 69.25 199.2 69.25 196.65 75.4 196.6 75.4 196.45 69.25 193.45 69.25 190.7 75.35 190.65 75.35 190.8 69.25
M 255.75 71.85
Q 254.8 71.85 254.1 72.05 253.4 72.25 252.65 72.8 251.95 73.4 251.5 74.25 251.1 75.1 251.1 76.1 251.1 77.5 252 78.45 252.9 79.4 255.05 79.4 256.55 79.4 257.5 78.95 258.5 78.45 259.1 77.4
L 256.4 77.15
Q 255.95 77.8 255.1 77.8 253.95 77.8 253.8 76.35
L 259.35 76.35
Q 259.55 75.3 259.55 74.9 259.55 73.6 258.65 72.7 257.75 71.85 255.75 71.85
M 254.75 73.85
Q 255.15 73.45 255.65 73.45 256.15 73.45 256.5 73.75 256.8 74 256.8 74.55 256.8 74.85 256.75 75
L 254.05 75
Q 254.3 74.25 254.75 73.85
M 251.65 72
L 248.75 72 246.35 76.6 246.3 76.6 245.9 72 243.25 72 244.65 79.25 247.1 79.25 251.65 72
M 263.85 73.45
L 264.15 72 261.55 72 260 79.25 262.8 79.25 263.4 76.55
Q 263.65 75.25 264.15 74.7 264.65 74.1 265.45 74.1 265.7 74.1 266.05 74.2
L 267.05 72.05
Q 266.55 71.85 266.1 71.85 265.5 71.85 265 72.15 264.5 72.5 263.85 73.45
M 267.8 72
L 267.4 74 268.4 74 267.85 76.45
Q 267.65 77.4 267.65 77.65 267.65 78.3 268.15 78.85 268.65 79.4 269.8 79.4 270.4 79.4 271.65 79.25
L 272.1 77.25
Q 271.4 77.4 271.2 77.4 270.55 77.4 270.55 76.9 270.55 76.7 270.6 76.55
L 271.15 74 272.6 74 273.05 72 271.6 72 272.15 69.3 269.05 70.85 268.8 72 267.8 72
M 130.55 71.85
Q 129.6 71.85 128.9 72.05 128.2 72.25 127.45 72.8 126.75 73.4 126.3 74.25 125.9 75.1 125.9 76.1 125.9 77.5 126.8 78.45 127.7 79.4 129.85 79.4 131.35 79.4 132.3 78.95 133.3 78.45 133.9 77.4
L 131.2 77.15
Q 130.75 77.8 129.9 77.8 128.75 77.8 128.6 76.35
L 134.15 76.35
Q 134.35 75.3 134.35 74.9 134.35 73.6 133.45 72.7 132.55 71.85 130.55 71.85
M 130.45 73.45
Q 130.95 73.45 131.3 73.75 131.6 74 131.6 74.55 131.6 74.85 131.55 75
L 128.85 75
Q 129.1 74.25 129.55 73.85 129.95 73.45 130.45 73.45
M 156.1 72.15
Q 155.6 72.5 154.95 73.45
L 155.25 72 152.65 72 151.1 79.25 153.9 79.25 154.5 76.55
Q 154.75 75.25 155.25 74.7 155.75 74.1 156.55 74.1 156.8 74.1 157.15 74.2
L 158.15 72.05
Q 157.65 71.85 157.2 71.85 156.6 71.85 156.1 72.15
M 144.05 72.55
Q 144.8 71.25 146.05 71.25 147.3 71.25 147.75 72.45
L 150.8 72.15
Q 150 69.05 146.45 69.05 144.65 69.05 143.25 69.85 141.85 70.6 141.05 72.05 140.3 73.45 140.3 75.15 140.3 77.2 141.5 78.3 142.7 79.4 144.8 79.4 147.1 79.4 149.4 78.25
L 150.4 73.55 145.75 73.55 145.3 75.65 147.2 75.65 146.95 76.7
Q 146.25 77.2 145.3 77.2
L 145.25 77.2
Q 144.4 77.2 143.85 76.65 143.3 76.1 143.3 75.25 143.3 73.8 144.05 72.55
M 121.05 69.25
L 118.3 69.25 116.1 79.25 118.9 79.25 119.6 76.1
Q 119.85 75 120.3 74.45 120.75 73.85 121.35 73.85 121.9 73.85 121.9 74.45 121.9 74.65 121.65 75.9
L 120.95 79.25 123.75 79.25 124.55 75.3
Q 124.85 74 124.85 73.55 124.85 72.85 124.35 72.35 123.85 71.85 122.9 71.85 121.3 71.85 120.3 72.9
L 120.3 72.85 121.05 69.25
M 107.15 69.25
L 106.65 71.7 109.75 71.7 108.15 79.25 111.25 79.25 112.85 71.7 116.15 71.7 116.65 69.25 107.15 69.25
M 177 72
L 176.6 74 177.6 74 177.05 76.45
Q 176.85 77.4 176.85 77.65 176.85 78.3 177.35 78.85 177.85 79.4 179 79.4 179.6 79.4 180.85 79.25
L 181.3 77.25
Q 180.6 77.4 180.4 77.4 179.75 77.4 179.75 76.9 179.75 76.7 179.8 76.55
L 180.35 74 181.8 74 182.25 72 180.8 72 181.35 69.3 178.25 70.85 178 72 177 72
M 165.45 72.7
Q 164.55 71.85 162.55 71.85 161.6 71.85 160.9 72.05 160.2 72.25 159.45 72.8 158.75 73.4 158.3 74.25 157.9 75.1 157.9 76.1 157.9 77.5 158.8 78.45 159.7 79.4 161.85 79.4 163.35 79.4 164.3 78.95 165.3 78.45 165.9 77.4
L 163.2 77.15
Q 162.75 77.8 161.9 77.8 160.75 77.8 160.6 76.35
L 166.15 76.35
Q 166.35 75.3 166.35 74.9 166.35 73.6 165.45 72.7
M 162.45 73.45
Q 162.95 73.45 163.3 73.75 163.6 74 163.6 74.55 163.6 74.85 163.55 75
L 160.85 75
Q 161.1 74.25 161.55 73.85 161.95 73.45 162.45 73.45
M 171.85 71.85
Q 169.95 71.85 169.05 72.4 168.15 72.95 167.9 74
L 170.5 74.25
Q 170.7 73.75 171 73.6 171.3 73.45 171.8 73.45 172.25 73.45 172.55 73.65 172.8 73.8 172.8 74.05 172.8 74.25 172.7 74.55 172.3 74.7 171.1 74.8 169.75 74.95 168.95 75.15 168.15 75.3 167.65 75.8 167.1 76.3 167.1 77.3 167.1 78.15 167.7 78.8 168.3 79.4 169.65 79.4 171 79.4 172.1 78.4 172.1 78.8 172.2 79.25
L 174.9 79.25
Q 174.75 78.75 174.75 78.25 174.75 77.65 175.1 76.2 175.45 74.6 175.45 73.95 175.45 72.9 174.75 72.35 173.95 71.85 171.85 71.85
M 169.8 77.15
Q 169.8 76.8 170.15 76.55 170.5 76.3 172.4 76 172.25 77.05 171.7 77.5 171.2 77.9 170.65 77.9 170.3 77.9 170.05 77.7 169.8 77.5 169.8 77.15
M 326.1 52.25
L 326.55 50.25 325.1 50.25 325.65 47.55 322.55 49.1 322.3 50.25 321.3 50.25 320.9 52.25 321.9 52.25 321.35 54.7
Q 321.15 55.65 321.15 55.9 321.15 56.55 321.65 57.1 322.15 57.65 323.3 57.65 323.9 57.65 325.15 57.5
L 325.6 55.5
Q 324.9 55.65 324.7 55.65 324.05 55.65 324.05 55.15 324.05 54.95 324.1 54.8
L 324.65 52.25 326.1 52.25
M 300.9 52.75
Q 301 52.3 301 51.85 301 51.15 300.5 50.6 300 50.1 299 50.1 298.3 50.1 297.65 50.35 297 50.6 296.2 51.3 296 50.75 295.5 50.4 294.95 50.1 294.25 50.1 292.8 50.1 291.6 51.3
L 291.55 51.3 291.8 50.25 289.2 50.25 287.65 57.5 290.45 57.5 291.2 54
Q 291.4 53 291.9 52.55 292.35 52.1 292.75 52.1 293.35 52.1 293.35 52.65 293.35 52.8 293.3 53 293.25 53.25 293 54.45
L 292.35 57.5 295.15 57.5 295.85 54.25
Q 296.1 53.15 296.5 52.65 296.9 52.1 297.5 52.1 298.05 52.1 298.05 52.7 298.05 52.75 298 53 298 53.2 297.75 54.4
L 297.05 57.5 299.85 57.5 300.9 52.75
M 310.5 53.15
Q 310.5 51.85 309.6 50.95 308.7 50.1 306.7 50.1 305.75 50.1 305.05 50.3 304.35 50.5 303.6 51.05 302.9 51.65 302.45 52.5 302.05 53.35 302.05 54.35 302.05 55.75 302.95 56.7 303.85 57.65 306 57.65 307.5 57.65 308.45 57.2 309.45 56.7 310.05 55.65
L 307.35 55.4
Q 306.9 56.05 306.05 56.05 304.9 56.05 304.75 54.6
L 310.3 54.6
Q 310.5 53.55 310.5 53.15
M 307.75 52.8
Q 307.75 53.1 307.7 53.25
L 305 53.25
Q 305.25 52.5 305.7 52.1 306.1 51.7 306.6 51.7 307.1 51.7 307.45 52 307.75 52.25 307.75 52.8
M 319.7 51.8
Q 319.7 51.1 319.2 50.6 318.7 50.1 317.7 50.1 316.05 50.1 314.9 51.35
L 315.15 50.25 312.55 50.25 310.95 57.5 313.75 57.5 314.45 54.35
Q 314.7 53.25 315.15 52.7 315.6 52.1 316.2 52.1 316.75 52.1 316.75 52.7 316.75 52.9 316.5 54.15
L 315.8 57.5 318.6 57.5 319.4 53.55
Q 319.7 52.25 319.7 51.8
M 249.65 51.8
Q 249.65 51.1 249.15 50.6 248.65 50.1 247.65 50.1 246 50.1 244.85 51.35
L 245.1 50.25 242.5 50.25 240.9 57.5 243.7 57.5 244.4 54.35
Q 244.65 53.25 245.1 52.7 245.55 52.1 246.15 52.1 246.7 52.1 246.7 52.7 246.7 52.9 246.45 54.15
L 245.75 57.5 248.55 57.5 249.35 53.55
Q 249.65 52.25 249.65 51.8
M 256.8 50.25
L 256.55 51.25
Q 255.7 50.1 254.35 50.1 252.75 50.1 251.75 51.35 250.7 52.65 250.7 54.35 250.7 55.65 251.35 56.45 252 57.25 253.1 57.25 254.35 57.25 255.25 56.25
L 255.3 56.3 255.05 57.4
Q 254.9 58.1 254.55 58.45 254.25 58.8 253.75 58.8 252.95 58.8 252.9 58.05
L 250.25 57.65
Q 250.25 57.75 250.25 58 250.25 58.75 250.75 59.4 251.25 60.05 251.95 60.25 252.6 60.45 253.85 60.45 255.65 60.45 256.55 59.75 257.5 59.1 257.9 57.05
L 259.35 50.25 256.8 50.25
M 255 51.95
Q 255.4 51.95 255.65 52.2 255.95 52.5 255.95 52.95 255.95 53.7 255.55 54.55 255.15 55.35 254.4 55.35 253.95 55.35 253.7 55.05 253.4 54.8 253.4 54.25 253.4 53.4 253.9 52.65 254.35 51.95 255 51.95
M 274.15 52.1
Q 274.7 52.1 274.7 52.7 274.7 52.75 274.65 53 274.65 53.2 274.4 54.4
L 273.7 57.5 276.5 57.5 277.55 52.75
Q 277.65 52.3 277.65 51.85 277.65 51.15 277.15 50.6 276.65 50.1 275.65 50.1 274.95 50.1 274.3 50.35 273.65 50.6 272.85 51.3 272.65 50.75 272.15 50.4 271.6 50.1 270.9 50.1 269.45 50.1 268.25 51.3
L 268.2 51.3 268.45 50.25 265.85 50.25 264.3 57.5 267.1 57.5 267.85 54
Q 268.05 53 268.55 52.55 269 52.1 269.4 52.1 270 52.1 270 52.65 270 52.8 269.95 53 269.9 53.25 269.65 54.45
L 269 57.5 271.8 57.5 272.5 54.25
Q 272.75 53.15 273.15 52.65 273.55 52.1 274.15 52.1
M 283.25 50.1
Q 281.85 50.1 280.8 50.65 279.75 51.25 279.2 52.25 278.7 53.3 278.7 54.4 278.7 55.8 279.6 56.75 280.5 57.65 282.4 57.65 283.9 57.65 284.95 57.05 285.95 56.45 286.5 55.4 287 54.4 287 53.35 287 52.05 286.1 51.05 285.2 50.1 283.25 50.1
M 281.75 55.4
Q 281.4 55 281.4 54.4 281.4 53.55 281.85 52.75 282.25 51.95 283.15 51.95 283.6 51.95 283.95 52.25 284.3 52.5 284.3 53.25 284.3 54.2 283.8 55 283.35 55.8 282.6 55.8 282.1 55.8 281.75 55.4
M 240.2 52.2
Q 240.2 51.15 239.5 50.6 238.7 50.1 236.6 50.1 234.7 50.1 233.8 50.65 232.9 51.2 232.65 52.25
L 235.25 52.5
Q 235.45 52 235.75 51.85 236.05 51.7 236.55 51.7 237 51.7 237.3 51.9 237.55 52.05 237.55 52.3 237.55 52.5 237.45 52.8 237.05 52.95 235.85 53.05 234.5 53.2 233.7 53.4 232.9 53.55 232.4 54.05 231.85 54.55 231.85 55.55 231.85 56.4 232.45 57.05 233.05 57.65 234.4 57.65 235.75 57.65 236.85 56.65 236.85 57.05 236.95 57.5
L 239.65 57.5
Q 239.5 57 239.5 56.5 239.5 55.9 239.85 54.45 240.2 52.85 240.2 52.2
M 234.55 55.4
Q 234.55 55.05 234.9 54.8 235.25 54.55 237.15 54.25 237 55.3 236.45 55.75 235.95 56.15 235.4 56.15 235.05 56.15 234.8 55.95 234.55 55.75 234.55 55.4
M 152.5 52.1
Q 153.05 52.1 153.05 52.7 153.05 52.9 152.8 54.15
L 152.1 57.5 154.9 57.5 155.7 53.55
Q 156 52.25 156 51.8 156 51.1 155.5 50.6 155 50.1 154 50.1 152.35 50.1 151.2 51.35
L 151.45 50.25 148.85 50.25 147.25 57.5 150.05 57.5 150.75 54.35
Q 151 53.25 151.45 52.7 151.9 52.1 152.5 52.1
M 204.9 57.5
L 206.5 49.95 209.8 49.95 210.3 47.5 200.8 47.5 200.3 49.95 203.4 49.95 201.8 57.5 204.9 57.5
M 213.95 51.9
Q 214.2 52.05 214.2 52.3 214.2 52.5 214.1 52.8 213.7 52.95 212.5 53.05 211.15 53.2 210.35 53.4 209.55 53.55 209.05 54.05 208.5 54.55 208.5 55.55 208.5 56.4 209.1 57.05 209.7 57.65 211.05 57.65 212.4 57.65 213.5 56.65 213.5 57.05 213.6 57.5
L 216.3 57.5
Q 216.15 57 216.15 56.5 216.15 55.9 216.5 54.45 216.85 52.85 216.85 52.2 216.85 51.15 216.15 50.6 215.35 50.1 213.25 50.1 211.35 50.1 210.45 50.65 209.55 51.2 209.3 52.25
L 211.9 52.5
Q 212.1 52 212.4 51.85 212.7 51.7 213.2 51.7 213.65 51.7 213.95 51.9
M 213.8 54.25
Q 213.65 55.3 213.1 55.75 212.6 56.15 212.05 56.15 211.7 56.15 211.45 55.95 211.2 55.75 211.2 55.4 211.2 55.05 211.55 54.8 211.9 54.55 213.8 54.25
M 222 50.25
L 219.2 50.25 217.65 57.5 220.45 57.5 222 50.25
M 164.25 57.05
L 165.7 50.25 163.15 50.25 162.9 51.25
Q 162.05 50.1 160.7 50.1 159.1 50.1 158.1 51.35 157.05 52.65 157.05 54.35 157.05 55.65 157.7 56.45 158.35 57.25 159.45 57.25 160.7 57.25 161.6 56.25
L 161.65 56.3 161.4 57.4
Q 161.25 58.1 160.9 58.45 160.6 58.8 160.1 58.8 159.3 58.8 159.25 58.05
L 156.6 57.65
Q 156.6 57.75 156.6 58 156.6 58.75 157.1 59.4 157.6 60.05 158.3 60.25 158.95 60.45 160.2 60.45 162 60.45 162.9 59.75 163.85 59.1 164.25 57.05
M 162 52.2
Q 162.3 52.5 162.3 52.95 162.3 53.7 161.9 54.55 161.5 55.35 160.75 55.35 160.3 55.35 160.05 55.05 159.75 54.8 159.75 54.25 159.75 53.4 160.25 52.65 160.7 51.95 161.35 51.95 161.75 51.95 162 52.2
M 179.7 50.25
L 176.9 50.25 175.35 57.5 178.15 57.5 179.7 50.25
M 193.9 54.6
Q 194.1 53.55 194.1 53.15 194.1 51.85 193.2 50.95 192.3 50.1 190.3 50.1 189.35 50.1 188.65 50.3 187.95 50.5 187.2 51.05 186.5 51.65 186.05 52.5 185.65 53.35 185.65 54.35 185.65 55.75 186.55 56.7 187.45 57.65 189.6 57.65 191.1 57.65 192.05 57.2 193.05 56.7 193.65 55.65
L 190.95 55.4
Q 190.5 56.05 189.65 56.05 188.5 56.05 188.35 54.6
L 193.9 54.6
M 191.35 52.8
Q 191.35 53.1 191.3 53.25
L 188.6 53.25
Q 188.85 52.5 189.3 52.1 189.7 51.7 190.2 51.7 190.7 51.7 191.05 52 191.35 52.25 191.35 52.8
M 184.95 49.25
Q 185.1 49.1 185.4 49.1 185.85 49.1 186.4 49.25
L 186.85 47.6
Q 185.45 47.3 184.5 47.3 183.85 47.3 183.4 47.45 182.9 47.6 182.6 47.9 182.3 48.25 182.15 48.6 182.05 49 181.8 50.25
L 180.75 50.25 180.35 52.25 181.35 52.25 180.2 57.5 183.05 57.5 184.15 52.25 185.45 52.25 185.85 50.25 184.55 50.25
Q 184.75 49.4 184.95 49.25
M 175.6 47.5
L 172.85 47.5 170.7 57.5 173.5 57.5 175.6 47.5
M 180.25 47.5
L 177.5 47.5 177.1 49.4 179.85 49.4 180.25 47.5
M 227.2 47.5
L 224.45 47.5 222.3 57.5 225.05 57.5 225.45 55.65 226.9 54.45 227.7 57.5 230.8 57.5 228.95 52.75 232.05 50.25 228.9 50.25 226.1 52.7 226.05 52.65 227.2 47.5
M 222.15 49.4
L 222.55 47.5 219.8 47.5 219.4 49.4 222.15 49.4
M 146.2 54.45
Q 146.55 52.85 146.55 52.2 146.55 51.15 145.85 50.6 145.05 50.1 142.95 50.1 141.05 50.1 140.15 50.65 139.25 51.2 139 52.25
L 141.6 52.5
Q 141.8 52 142.1 51.85 142.4 51.7 142.9 51.7 143.35 51.7 143.65 51.9 143.9 52.05 143.9 52.3 143.9 52.5 143.8 52.8 143.4 52.95 142.2 53.05 140.85 53.2 140.05 53.4 139.25 53.55 138.75 54.05 138.2 54.55 138.2 55.55 138.2 56.4 138.8 57.05 139.4 57.65 140.75 57.65 142.1 57.65 143.2 56.65 143.2 57.05 143.3 57.5
L 146 57.5
Q 145.85 57 145.85 56.5 145.85 55.9 146.2 54.45
M 142.8 55.75
Q 142.3 56.15 141.75 56.15 141.4 56.15 141.15 55.95 140.9 55.75 140.9 55.4 140.9 55.05 141.25 54.8 141.6 54.55 143.5 54.25 143.35 55.3 142.8 55.75
M 133.55 47.5
L 130.8 47.5 128.65 57.5 131.4 57.5 131.8 55.65 133.25 54.45 134.05 57.5 137.15 57.5 135.3 52.75 138.4 50.25 135.25 50.25 132.45 52.7 132.4 52.65 133.55 47.5
M 128.35 50.25
L 125.55 50.25 124 57.5 126.8 57.5 128.35 50.25
M 128.9 47.5
L 126.15 47.5 125.75 49.4 128.5 49.4 128.9 47.5
M 120.3 51.9
Q 120.55 52.05 120.55 52.3 120.55 52.5 120.45 52.8 120.05 52.95 118.85 53.05 117.5 53.2 116.7 53.4 115.9 53.55 115.4 54.05 114.85 54.55 114.85 55.55 114.85 56.4 115.45 57.05 116.05 57.65 117.4 57.65 118.75 57.65 119.85 56.65 119.85 57.05 119.95 57.5
L 122.65 57.5
Q 122.5 57 122.5 56.5 122.5 55.9 122.85 54.45 123.2 52.85 123.2 52.2 123.2 51.15 122.5 50.6 121.7 50.1 119.6 50.1 117.7 50.1 116.8 50.65 115.9 51.2 115.65 52.25
L 118.25 52.5
Q 118.45 52 118.75 51.85 119.05 51.7 119.55 51.7 120 51.7 120.3 51.9
M 117.55 55.4
Q 117.55 55.05 117.9 54.8 118.25 54.55 120.15 54.25 120 55.3 119.45 55.75 118.95 56.15 118.4 56.15 118.05 56.15 117.8 55.95 117.55 55.75 117.55 55.4
M 116.65 47.5
L 107.15 47.5 106.65 49.95 109.75 49.95 108.15 57.5 111.25 57.5 112.85 49.95 116.15 49.95 116.65 47.5
M 190 19.35
L 186.6 19.35 177.5 27.95 176.75 31.25 184.05 31.25 183.45 33.9 186.9 33.9 187.45 31.25 189.3 31.25 189.95 28.15 188.1 28.15 190 19.35
M 185.65 23.65
L 185.7 23.7 184.7 28.15 180.85 28.15 185.65 23.65
M 175.4 19.35
L 172 19.35
Q 169.9 21.45 166.75 22.8
L 166 26.2
Q 168.5 25.6 170.3 24.5
L 168.25 33.9 172.25 33.9 175.4 19.35
M 162.5 29.35
Q 163.4 27.1 163.4 24.8 163.4 22.15 161.85 20.75 160.25 19.35 158.1 19.35 156.05 19.35 154.45 20.6 152.85 21.9 151.95 24.1 151.1 26.25 151.1 28.3 151.1 31.15 152.45 32.65 153.8 34.15 156.05 34.15 158.25 34.15 159.9 32.85 161.55 31.6 162.5 29.35
M 156.4 23.2
Q 157.1 22 158.05 22 158.8 22 159.2 22.55 159.55 23.1 159.55 24 159.55 25.2 159.2 27.15 158.8 29.1 158.1 30.3 157.4 31.45 156.45 31.45 154.9 31.45 154.9 29.35
L 154.9 29.3
Q 154.9 28.15 155.3 26.25 155.65 24.35 156.4 23.2
M 149.95 23.3
Q 149.95 21.6 148.65 20.45 147.4 19.35 144.8 19.35 142.3 19.35 140.75 20.4 139.2 21.5 138.85 23.6
L 142.75 24.15
Q 143.15 22 144.55 22 145.1 22 145.6 22.4 146.05 22.75 146.05 23.5 146.05 24 145.7 24.55 145.3 25.1 144.4 25.8
L 142.9 26.85
Q 140.5 28.6 139.2 30.15 137.9 31.7 137.5 33.9
L 148.45 33.9 149.15 30.65 143.5 30.65
Q 144.1 30 144.5 29.65 144.95 29.3 146.3 28.35 148.3 27 149.1 25.8 149.95 24.6 149.95 23.3
M 130.5 19.6
L 126.35 19.6 124.55 27.9 124.5 27.9 120.95 19.6 116.85 19.6 113.75 33.9 117.9 33.9 119.7 25.6 119.75 25.6 123.25 33.9 127.4 33.9 130.5 19.6
M 113.7 19.6
L 109.25 19.6 106.15 33.9 110.65 33.9 113.7 19.6 Z"/>
</g>
</defs>

<g transform="matrix( 1, 0, 0, 1, 0,0) ">
<use xlink:href="#Layer1_0_FILL"/>
</g>

<g transform="matrix( 10.800430297851562, 0, 0, 10.800430297851562, 5.5,4.6) ">
<g transform="matrix( 1, 0, 0, 1, 0,0) ">
<use xlink:href="#pop_0_Layer5_0_FILL"/>
</g>

<g transform="matrix( 1, 0, 0, 1, 0,0) ">
<use xlink:href="#pop_0_Layer4_0_FILL"/>
</g>

<g transform="matrix( 1, 0, 0, 1, 0,0) ">
<use xlink:href="#pop_0_Layer3_0_FILL"/>
</g>

<g transform="matrix( 1, 0, 0, 1, 0,0) ">
<use xlink:href="#pop_0_Layer2_0_FILL"/>
</g>

<g transform="matrix( 1, 0, 0, 1, 0,0) ">
<use xlink:href="#pop_0_Layer1_0_FILL"/>
</g>

<g transform="matrix( 1, 0, 0, 1, 0,0) ">
<use xlink:href="#pop_0_Layer0_0_FILL"/>
</g>
</g>

<g transform="matrix( 1, 0, 0, 1, 0,0) ">
<use xlink:href="#Layer1_1_MEMBER_1_FILL"/>
</g>

<g transform="matrix( 1, 0, 0, 1, 0,0) ">
<use xlink:href="#Layer1_1_MEMBER_1_MEMBER_0_FILL"/>
</g>

<g transform="matrix( 1, 0, 0, 1, 0,0) ">
<use xlink:href="#Layer1_1_MEMBER_2_FILL"/>
</g>

<g transform="matrix( 1, 0, 0, 1, 0,0) ">
<use xlink:href="#Layer1_1_MEMBER_2_MEMBER_0_FILL"/>
</g>

<g transform="matrix( 1, 0, 0, 1, 0,0) ">
<use xlink:href="#Layer0_0_FILL"/>
</g>
</svg>
