
<svg xmlns="http://www.w3.org/2000/svg" version="1.1" xmlns:xlink="http://www.w3.org/1999/xlink" preserveAspectRatio="none" x="0px" y="0px" width="300px" height="100px" viewBox="0 0 300 100">
<defs>
<g id="Layer2_0_FILL">
<path fill="#000000" fill-opacity="0.5019607843137255" stroke="none" d="
M 300 49.2
Q 300 28.8 285.55 14.4 271.2 0 250.8 0
L 49.2 0
Q 28.8 0 14.35 14.4 0 28.8 0 49.2 0 69.6 14.35 84 28.8 98.4 49.2 98.4
L 127.95 98.4
Q 128.15 98.5 128.4 98.5 128.6650390625 98.5 128.9 98.4
L 250.8 98.4
Q 271.2 98.4 285.55 84 300 69.6 300 49.2 Z"/>
</g>

<g id="pop_0_Layer5_0_FILL">
<path fill="#0C0A80" fill-opacity="0.2" stroke="none" d="
M 7.25 6.1
Q 7.75 5.2 7.85 4.45 7.85 4.3 7.85 4 7.7 2.15 6.05 1.6 4.15 1.1 3 2.6 1.9 4.15 3.45 5.9 4.7 7.3 2.95 7.8 3.1 7.95 3.7 7.95 3.75 7.95 3.85 7.95 4.5 8 5.5 7.6 6.7 7 7.25 6.1 Z"/>
</g>

<g id="pop_0_Layer4_0_FILL">
<path fill="#0C0A80" fill-opacity="0.2" stroke="none" d="
M 4.85 5.25
Q 4.85 4.4 4.25 3.75 3.65 3.15 2.8 3.15 1.95 3.15 1.35 3.75 0.7 4.4 0.7 5.25 0.7 6.1 1.35 6.7 1.95 7.3 2.8 7.3 3.65 7.3 4.25 6.7 4.85 6.1 4.85 5.25 Z"/>
</g>

<g id="pop_0_Layer3_0_FILL">
<path fill="#0C0A80" fill-opacity="0.2" stroke="none" d="
M 7.05 2.25
Q 7.05 1.6 6.6 1.15 6.15 0.7 5.5 0.7 4.85 0.7 4.4 1.15 3.95 1.6 3.95 2.25 3.95 2.9 4.4 3.35 4.85 3.8 5.5 3.8 6.15 3.8 6.6 3.35 7.05 2.9 7.05 2.25 Z"/>
</g>

<g id="pop_0_Layer2_0_FILL">
<path fill="#FFFFFF" fill-opacity="0.30196078431372547" stroke="none" d="
M 8.2 4.1
Q 8.2 2.4 7 1.2 5.8 0 4.1 0 2.4 0 1.2 1.2 0 2.4 0 4.1 0 5.8 1.2 7 2.4 8.2 4.1 8.2 5.8 8.2 7 7 8.2 5.8 8.2 4.1 Z"/>
</g>

<g id="pop_0_Layer1_0_FILL">
<path fill="#FFFFFF" fill-opacity="0.5019607843137255" stroke="none" d="
M 2.1 6.2
Q 3.7 5.95 2.65 3.7 1.9 1.2 4.2 0.3 3.65 0.35 3 0.55 1.7 1.1 1.1 1.9 0.5 2.75 0.4 3.5 0.35 3.65 0.35 3.95 0.4 6.2 2.1 6.2 Z"/>
</g>

<g id="pop_0_Layer0_0_FILL">
<path fill="#FFFFFF" fill-opacity="0.5019607843137255" stroke="none" d="
M 6.9 1.85
Q 6.9 1.45 6.65 1.2 6.35 0.9 6 0.9 5.6 0.9 5.35 1.2 5.05 1.45 5.05 1.85 5.05 2.2 5.35 2.5 5.6 2.75 6 2.75 6.35 2.75 6.65 2.5 6.9 2.2 6.9 1.85 Z"/>
</g>

<g id="Layer2_1_MEMBER_1_FILL">
<path fill="#FFFFFF" stroke="none" d="
M 72.85 24.2
Q 72.85 24.15 72.85 24.05 72.85 22.95 72 22.1 71.15 21.25 70.05 21.25
L 28.6 21.25
Q 27.4 21.25 26.65 22.1 26.6 22.1 26.6 22.15 25.8 23 25.8 24.05 25.8 24.15 25.8 24.2 25.8 24.85 25.85 25.55 25.85 25.7 25.85 25.9 23.85 26.8 22.2 28.5 18.4 32.3 18.4 37.6 18.4 42.85 22.2 46.6
L 22.2 46.65
Q 25.95 50.4 31.25 50.4 32.6 50.4 33.95 50.15
L 34 50.2
Q 37.8 55 42.4 57 43.45 60.3 43.75 64.05 41.85 67.25 39.3 70.05 38.2 71.25 36.9 72.4
L 36.85 72.45
Q 36.8 72.45 36.8 72.5 35.9 73.05 35.7 74.1 35 77.1 34.25 80.05 34.2 80.15 34.2 80.25 34.1 80.9 34.3 81.6 34.35 81.7 34.4 81.8 34.65 82.5 35.4 83.05
L 35.45 83.05
Q 36.1 83.5 36.95 83.5
L 61.7 83.5
Q 62.45 83.5 63.15 83.1 63.2 83.05 63.3 83.05 64 82.5 64.3 81.8 64.3 81.7 64.35 81.6 64.55 80.8 64.35 80.05 63.65 77.2 62.95 74.25 62.8 73.1 61.95 72.5 61.8 72.4 61.65 72.35 60.35 71.2 59.3 70.05 56.75 67.25 55 64 55.15 60.35 56.25 57 60.8 55.05 64.7 50.3 64.7 50.25 64.75 50.2 65.95 50.4 67.2 50.4 72.45 50.4 76.25 46.6 80 42.85 80 37.6 80 32.3 76.3 28.5 74.7 26.85 72.85 26 72.85 25.7 72.85 25.4 72.85 25.35 72.85 25.3 72.85 24.75 72.85 24.2 Z"/>
</g>

<g id="Layer2_1_MEMBER_1_MEMBER_0_FILL">
<path fill="#957800" stroke="none" d="
M 60.25 74.7
L 60.2 74.7 49.2 74.7 49.2 80.7 61.7 80.7
Q 60.95 77.75 60.25 74.7 Z"/>

<path fill="#C59E00" stroke="none" d="
M 38.4 74.7
Q 37.7 77.75 36.95 80.7
L 49.2 80.7 49.2 74.7 38.45 74.7 38.4 74.7
M 70.05 24.2
Q 70.05 24.15 70.05 24.05
L 49.2 24.05 49.2 74.7 60.2 74.7
Q 58.6 73.35 57.3 71.9 54.2 68.6 52.1 64.65 52.3 59.45 54 54.9
L 53.9 54.9
Q 58.6 53.35 62.5 48.5 63.05 47.8 63.6 47 65.25 47.6 67.2 47.6 71.35 47.6 74.3 44.65 77.25 41.75 77.25 37.6 77.25 33.4 74.3 30.45 72.35 28.55 69.95 27.9 70 26.6 70.05 25.3 70.05 24.75 70.05 24.2
M 67.2 44.65
Q 66.15 44.65 65.2 44.4 68.6 38.4 69.65 30.9 71.05 31.45 72.2 32.55 74.35 34.65 74.35 37.6 74.35 40.55 72.2 42.6 70.2 44.65 67.2 44.65 Z"/>

<path fill="#FFCC00" stroke="none" d="
M 28.6 24.05
Q 28.6 24.15 28.6 24.2 28.6 24.75 28.6 25.3 28.6 26.55 28.7 27.85 26.15 28.45 24.15 30.45 21.2 33.4 21.2 37.6 21.2 41.75 24.15 44.65 27.1 47.6 31.25 47.6 33.25 47.6 35.05 46.95 35.55 47.7 36.15 48.45 40 53.35 44.75 54.9
L 44.65 54.9
Q 46.3 59.45 46.5 64.65 44.45 68.6 41.35 71.9 40.05 73.35 38.45 74.7
L 49.2 74.7 49.2 24.05 28.6 24.05
M 26.2 32.55
Q 27.45 31.3 29 30.85 30.05 38.35 33.45 44.35 32.4 44.65 31.25 44.65 28.3 44.65 26.2 42.6 24.15 40.55 24.15 37.6 24.15 34.65 26.2 32.55 Z"/>
</g>

<g id="Layer1_0_FILL">
<path fill="#FFFFFF" stroke="none" d="
M 168.85 78.35
L 168.85 76.6
Q 168.05 76.25 166.9 76.2
L 166.9 77.6
Q 167.9 77.75 168.85 78.35
M 169.2 75.8
L 169.2 78.55
Q 168.25 79.1 166.75 79.4
L 166.75 81.1
Q 168.15 80.6 169.2 80.1
L 169.2 81.6 170.95 81.6 170.95 75.8 169.2 75.8
M 177.45 77.65
L 177.45 76.35 174.35 76.35
Q 174.4 76.25 174.5 76.1 174.55 75.95 174.6 75.85
L 172.7 75.85
Q 172.25 77.2 171.05 77.65
L 171.05 78.6
Q 171.6 78.55 172 78.4
L 172 79.25
Q 172.7 79.4 173.45 79.7 172.9 80.05 171.55 80.4
L 171.55 81.4 171.05 81.4 171.05 81.7
Q 171.05 81.9 171.05 82.1
L 166.9 82.1 166.9 83.4 170.7 83.4
Q 169.9 85.1 166.75 85.45
L 166.75 86.6
Q 170.65 86.3 172.15 84.6 173.95 86.2 177.55 86.6
L 177.55 85.45
Q 174.3 85 173.6 83.4
L 177.5 83.4 177.5 82.1 173.3 82.1
Q 173.3 81.9 173.3 81.7
L 173.3 81.4 172.1 81.4
Q 176 80.85 177.45 77.65
M 175.4 77.65
Q 174.7 78.75 174.1 79.25
L 174.1 78.4
Q 173.5 78.2 172.75 78.15 173.2 77.95 173.5 77.65
L 175.4 77.65
M 156.15 82.9
Q 156.25 83.95 156.65 84.65
L 158.35 84.65
Q 158.05 83.85 158 82.9
L 156.15 82.9
M 165.4 86.25
L 165.4 85 161.25 85 161.25 82.6 164.75 82.6 164.75 81.25 161.25 81.25 161.25 80.4 163.45 80.4 163.45 79.75
Q 164.3 80.1 165.6 80.4
L 165.6 79.1
Q 162.6 77.95 161.3 75.7
L 159 75.7
Q 157.7 77.95 154.7 79.1
L 154.7 80.4
Q 156 80.1 156.9 79.7
L 156.9 80.4 159.05 80.4 159.05 81.25 155.6 81.25 155.6 82.6 159.05 82.6 159.05 85 154.95 85 154.95 86.25 165.4 86.25
M 158.3 79.05
Q 159.2 78.5 160.15 77.6 161.1 78.5 162 79.05
L 158.3 79.05
M 164.15 82.9
L 162.3 82.9
Q 162.25 83.85 161.95 84.65
L 163.65 84.65
Q 164.05 83.95 164.15 82.9
M 144.7 78.95
L 143 78.95
Q 142.95 81.7 143.7 84.35 143.2 84.4 142.65 84.4
L 142.65 86
Q 145.6 85.55 147.45 84.9
L 147.45 83.6
Q 147.15 83.6 146.9 83.7 147.4 81.75 147.45 78.95
L 145.75 78.95
Q 145.7 81.8 145.4 84.05 145.35 84.05 145.25 84.05 145.1 84.1 145.05 84.1 144.75 81.85 144.7 78.95
M 147.75 78.4
L 147.75 77.1 146.25 77.1 146.25 75.8 144.3 75.8 144.3 77.1 142.75 77.1 142.75 78.4 147.75 78.4
M 153.65 79
L 153.65 77.6 151.3 77.6 151.3 75.8 149.35 75.8 149.35 80.7 147.75 80.7 147.75 86.3 151.65 86.3
Q 153.3 86.35 153.25 84.6
L 153.25 80.7 151.3 80.7 151.3 79 153.65 79
M 149.55 82.05
L 151.45 82.05 151.45 84.45
Q 151.45 85.1 150.85 85.1
L 149.55 85.1 149.55 82.05
M 139.3 86.5
Q 141.25 86.55 141.2 84.7
L 141.2 76.25 131.15 76.25 131.15 86.5 133.05 86.5 133.05 77.6 139.3 77.6 139.3 84.7
Q 139.35 85.3 138.8 85.25
L 138.5 85.25 138.5 86.5 139.3 86.5
M 136.2 78.15
L 135 78.15
Q 134.85 79.2 134.65 80.05 134.5 79.2 134.35 78.15
L 133.1 78.15
Q 133.4 80.6 134.05 82.05 133.7 82.75 133.25 83.45
L 133.25 85.05
Q 134.25 83.85 134.65 83.2 135.25 84.1 136.15 85
L 136.15 83.45
Q 135.75 82.9 135.3 82 135.9 80.5 136.2 78.15
M 139.15 78.2
L 138 78.2
Q 137.85 79.25 137.7 80.1 137.55 79.25 137.4 78.15
L 136.3 78.15
Q 136.5 80.4 137.1 82.05 136.85 82.65 136.35 83.45
L 136.35 85
Q 137.2 84.05 137.7 83.2 138.25 84.1 139.1 85
L 139.1 83.45
Q 138.6 82.7 138.3 82 138.85 80.7 139.15 78.2
M 118.65 80.55
L 120 80.55
Q 119.7 82.15 118.75 83.85
L 118.75 85.3
Q 120.95 85.3 122.45 85.1 122.45 85.3 122.5 85.45
L 123.75 85.45 123.75 86.65
Q 125.45 85.15 126 83.6 126.6 82 126.65 78.5
L 127.55 78.5 127.55 84.65
Q 127.55 85.15 127.05 85.15
L 126.35 85.15 126.35 86.4 127.7 86.4
Q 129.45 86.45 129.4 84.65
L 129.4 77.2 126.7 77.2 126.7 75.75 124.8 75.75 124.8 77.2 124.05 77.2 124.05 78.5 124.8 78.5
Q 124.8 82.9 123.95 84.5 123.65 82.95 123.15 81.65
L 121.7 81.65
Q 121.75 81.85 121.85 82.2 122.15 83.3 122.25 83.75 121.45 83.85 120.45 83.85 121.5 82.55 121.95 80.55
L 123.95 80.55 123.95 79.2 118.65 79.2 118.65 80.55
M 119.25 76.4
L 119.25 77.7 123.65 77.7 123.65 76.4 119.25 76.4
M 106.65 86.4
L 108.7 86.4
Q 109.55 84.6 109.65 81.85
L 107.95 81.85
Q 107.65 84.45 106.65 86.4
M 108.8 78.9
L 106.9 78.9
Q 107.45 80.05 107.8 81.3
L 109.65 81.3
Q 109.3 79.8 108.8 78.9
M 108.75 76.05
L 106.85 76.05
Q 107.4 77.2 107.7 78.35
L 109.55 78.35
Q 109.3 77.1 108.75 76.05
M 117.55 80.2
L 117.55 78.85 114.65 78.85 114.65 77.6 115.25 77.6
Q 116.2 77.6 117.2 77.35
L 117.2 75.95
Q 116.1 76.25 115.15 76.25
L 110.1 76.25 110.1 77.6 112.55 77.6 112.55 78.85 109.75 78.85 109.75 80.2 112.55 80.2 112.55 81.6 110.1 81.6 110.1 86.25 115.35 86.25
Q 117.15 86.3 117.15 84.4
L 117.15 81.6 114.65 81.6 114.65 80.2 117.55 80.2
M 112 85.05
L 112 82.9 115.25 82.9 115.25 84.35
Q 115.3 85.1 114.55 85.05
L 112 85.05
M 270.75 59.65
L 269.15 59.65 269.15 65.1 270.4 65.1
Q 270 65.4 269.45 65.7
L 269.45 66.55 268.9 66.55 268.9 67.85 271.75 67.85 271.75 69.75 273.55 69.75 273.55 67.85 275.65 67.85 275.65 66.55 273.55 66.55 273.55 65.3 272.1 65.3
Q 272.2 65.25 272.3 65.1
L 273.75 65.1
Q 275.35 65.15 275.3 63.4
L 275.3 59.65 272.7 59.65
Q 272.7 59.6 272.75 59.4 272.8 59.2 272.85 59
L 270.9 59
Q 270.85 59.35 270.75 59.65
M 273.8 60.9
L 273.8 61.75 273.05 61.75 273.05 60.9 273.8 60.9
M 270.65 61.75
L 270.65 60.9 271.4 60.9 271.4 61.75 270.65 61.75
M 271.35 62.95
Q 271.35 63.5 271.3 63.8
L 270.65 63.8 270.65 62.95 271.35 62.95
M 272.95 63.8
Q 273.05 63.45 273.05 62.95
L 273.8 62.95 273.8 63.3
Q 273.85 63.85 273.3 63.8
L 272.95 63.8
M 271.75 65.65
L 271.75 66.55 270.2 66.55
Q 271.2 66.05 271.75 65.65
M 267.1 59.15
L 267.1 61.8 266.7 61.8 266.7 59.4 265.1 59.4 265.1 65.9
Q 265.1 67.65 264.65 68.55
L 264.65 69.85
Q 266.8 68.7 266.7 65.3
L 267.1 65.3 267.1 69.65 268.6 69.65 268.6 64 266.7 64 266.7 63.05 268.9 63.05 268.9 61.8 268.6 61.8 268.6 59.15 267.1 59.15
M 253.1 64.4
L 253.1 69.5 256.15 69.5
Q 257.8 69.55 257.8 67.9
L 257.8 64.4 253.1 64.4
M 254.8 65.8
L 256.05 65.8 256.05 67.75
Q 256.1 68.3 255.5 68.3
L 254.8 68.3 254.8 65.8
M 262.3 59.45
L 254.05 59.45 254.05 63.75 260.7 63.75
Q 262.35 63.75 262.3 61.95
L 262.3 59.45
M 260.35 60.85
L 260.35 61.7
Q 260.4 62.35 259.8 62.3
L 256 62.3 256 60.85 260.35 60.85
M 263.25 67.9
L 263.25 64.4 258.5 64.4 258.5 69.5 261.65 69.5
Q 263.3 69.55 263.25 67.9
M 260.25 65.8
L 261.55 65.8 261.55 67.75
Q 261.55 68.3 260.95 68.3
L 260.25 68.3 260.25 65.8
M 248.9 65.45
L 248.9 64.35 246.85 64.35 246.85 65.45 244.65 65.45 244.65 66.8 246.85 66.8 246.85 68.25 244.2 68.25 244.2 69.45 251.6 69.45 251.6 68.25 248.9 68.25 248.9 66.8 251.05 66.8 251.05 65.45 248.9 65.45
M 243.75 61.65
Q 244.35 60.6 244.7 59.1
L 242.8 59.1
Q 242.15 61.55 240.65 62.55
L 240.65 63.75
Q 240.85 63.7 241.2 63.6 241.6 63.45 241.85 63.35
L 241.85 69.8 243.75 69.8 243.75 61.65
M 246.8 59.15
L 246.8 60 244.75 60 244.75 61.35 246.8 61.35 246.8 62.75 244.3 62.75 244.3 64.05 251.45 64.05 251.45 62.75 248.9 62.75 248.9 61.35 251.05 61.35 251.05 60 248.9 60 248.9 59.15 246.8 59.15
M 228.7 64.45
L 229.45 64.45 229.45 68.25
Q 229.15 68.25 228.8 68.25
L 228.8 69.5
Q 230.8 69.35 232.55 69.05
L 232.55 69.8 234.25 69.8 234.25 68.75
Q 234.3 68.75 234.4 68.75 234.55 68.7 234.6 68.7
L 234.6 69.8
Q 236.4 69.25 236.95 68.9 237.95 69.45 239.35 69.8
L 239.35 68.65
Q 238.6 68.45 238.05 68.15 238.85 67.4 239.3 66
L 239.3 64.85 234.5 64.85 234.5 66.05 237.55 66.05
Q 237.5 66.1 237.4 66.25 237.05 66.85 236.85 67.1 236.6 66.8 236.4 66.35
L 234.55 66.35
Q 235 67.4 235.8 68.15 235.3 68.4 234.65 68.65
L 234.65 67.7
Q 234.55 67.7 234.4 67.75 234.3 67.75 234.25 67.75
L 234.25 64.45 239.65 64.45 239.65 63.25 228.7 63.25 228.7 64.45
M 231.15 64.45
L 232.55 64.45 232.55 65 231.15 65 231.15 64.45
M 231.15 66.5
L 231.15 65.95 232.55 65.95 232.55 66.5 231.15 66.5
M 232.55 67.5
L 232.55 68
Q 232.2 68.05 231.6 68.1 231.3 68.15 231.15 68.15
L 231.15 67.5 232.55 67.5
M 238.45 61.35
L 238.45 59.35 229.85 59.35 229.85 62.95 236.95 62.95
Q 238.5 63.05 238.45 61.35
M 236.55 60.3
L 236.55 60.75 231.75 60.75 231.75 60.3 236.55 60.3
M 236.1 62
L 231.75 62 231.75 61.55 236.55 61.55
Q 236.6 62.05 236.1 62
M 210.1 67.25
L 209.3 67.25 209.3 68.6 211.1 68.6
Q 212.9 68.6 212.9 66.8
L 212.9 62.75 203.25 62.75 203.25 64.1 205.85 64.1 205.85 69.8 208.05 69.8 208.05 64.1 210.8 64.1 210.8 66.6
Q 210.8 67.25 210.1 67.25
M 213.55 61.3
L 213.55 59.95 211.35 59.95 211.35 59.05 209.35 59.05 209.35 59.95 206.95 59.95 206.95 59.05 204.95 59.05 204.95 59.95 202.7 59.95 202.7 61.3 204.95 61.3 204.95 62.3 206.95 62.3 206.95 61.3 209.35 61.3 209.35 62.3 211.35 62.3 211.35 61.3 213.55 61.3
M 224.4 65.25
L 224.4 63.8 218 63.8 218 65.25 224.4 65.25
M 191.9 65.05
L 191.9 69.55 198.85 69.55
Q 200.6 69.6 200.6 67.75
L 200.6 65.05 191.9 65.05
M 198.55 66.45
L 198.55 67.65
Q 198.6 68.3 198 68.3
L 193.95 68.3 193.95 66.45 198.55 66.45
M 186.05 60
L 186.05 58.95 183.7 58.95 183.7 60 179.6 60 179.6 66.4
Q 179.65 68 178.75 68.6
L 178.75 69.85
Q 182.05 68.8 181.85 65.8
L 181.85 61.45 189.6 61.45 189.6 60 186.05 60
M 193.4 61.3
L 195.4 61.3 195.4 63 190.7 63 190.7 64.35 201.6 64.35 201.6 63 197.5 63 197.5 61.3 200.95 61.3 200.95 59.95 197.5 59.95 197.5 58.95 195.4 58.95 195.4 59.95 194 59.95
Q 194.1 59.55 194.15 59.25
L 192.25 59.25
Q 192.1 60.65 191.25 61.55
L 191.25 62.7
Q 192.75 62.25 193.4 61.3
M 176.95 64.45
L 175.3 64.45
Q 175.2 67.75 177.65 68.95
L 177.65 67.55
Q 176.95 66.6 176.95 64.45
M 171.05 64.45
Q 171.05 66.5 170.3 67.55
L 170.3 68.95
Q 172.7 67.75 172.7 64.45
L 171.05 64.45
M 170.5 62.25
L 170.5 63.55 173 63.55 173 68
Q 173.05 68.5 172.55 68.45
L 172.1 68.45 172.1 69.7 173.25 69.7
Q 174.95 69.75 174.9 68.1
L 174.9 63.55 177.6 63.55 177.6 62.25 170.5 62.25
M 166.85 60.4
L 166.85 61.75 167.75 61.75
Q 167.4 63.75 166.6 65.45
L 166.6 67.6
Q 167.3 66.75 167.8 65.7
L 167.8 69.8 169.6 69.8 169.6 64.95
Q 170 65.55 170.5 66.2
L 170.5 64.15
Q 169.9 63.05 169.65 61.75
L 170.45 61.75 170.45 60.4 169.6 60.4 169.6 59 167.8 59 167.8 60.4 166.85 60.4
M 177.15 60.8
L 177.15 59.5 170.95 59.5 170.95 60.8 177.15 60.8
M 156.85 64
L 155.15 64 155.15 69.8
Q 156.95 69.45 158.4 68.7
L 158.4 67.55
Q 157.55 67.9 156.85 68
L 156.85 64
M 157.45 67.4
L 158.9 67.4
Q 158.7 66.75 158.3 65.95
L 156.9 65.95
Q 157.3 66.65 157.45 67.4
M 157.4 65.55
Q 157.45 65.6 157.45 65.65
L 158.85 65.65
Q 158.75 65 158.3 64.2
L 156.9 64.2
Q 157.2 64.75 157.4 65.55
M 162.55 65.55
Q 162.45 64.85 162.05 64.2
L 160.65 64.2 160.65 64 158.95 64 158.95 69.85
Q 160.95 69.4 162.45 68.7
L 162.45 67.6
Q 162.2 67.65 161.85 67.8 161.1 68 160.65 68.1
L 160.65 65.95 160.65 64.25
Q 160.95 64.85 161.2 65.65
L 162.6 65.65
Q 162.6 66.95 162.85 68.2 163.3 69.85 164.7 69.8 166 69.85 165.9 68.15
L 165.1 68.15
Q 165.15 68.65 164.95 68.65 164.55 68.7 164.4 67.8 164.2 66.4 164.3 64
L 162.55 64
Q 162.55 64.75 162.55 65.55
M 162.6 67.4
Q 162.5 66.75 162.05 65.95
L 160.65 65.95
Q 160.95 66.5 161.15 67.3 161.2 67.35 161.2 67.4
L 162.6 67.4
M 162.65 60.45
L 162.65 60.95 160.25 60.95 160.25 62.05 162.65 62.05
Q 162.65 62.55 162.05 62.5
L 157.15 62.5 157.15 62.05 159.5 62.05 159.5 60.95 157.15 60.95 157.15 60.45 157.95 60.45
Q 158.95 60.45 159.75 60.15
L 159.75 58.9
Q 158.7 59.3 157.5 59.3
L 155.2 59.3 155.2 63.75 163 63.75
Q 164.65 63.8 164.6 62
L 164.6 59.3 160.25 59.3 160.25 60.45 162.65 60.45
M 146.35 67.85
Q 146.05 67.05 146 66.1
L 144.15 66.1
Q 144.25 67.15 144.65 67.85
L 146.35 67.85
M 150.3 66.1
Q 150.25 67.05 149.95 67.85
L 151.65 67.85
Q 152.05 67.15 152.15 66.1
L 150.3 66.1
M 149.3 58.9
L 147 58.9
Q 145.7 61.15 142.7 62.3
L 142.7 63.6
Q 144 63.3 144.9 62.9
L 144.9 63.6 147.05 63.6 147.05 64.45 143.6 64.45 143.6 65.8 147.05 65.8 147.05 68.2 142.95 68.2 142.95 69.45 153.4 69.45 153.4 68.2 149.25 68.2 149.25 65.8 152.75 65.8 152.75 64.45 149.25 64.45 149.25 63.6 151.45 63.6 151.45 62.95
Q 152.3 63.3 153.6 63.6
L 153.6 62.3
Q 150.6 61.15 149.3 58.9
M 150 62.25
L 146.3 62.25
Q 147.2 61.7 148.15 60.8 149.1 61.7 150 62.25
M 138.4 63.8
L 138.4 63.1 136.55 63.1 136.55 63.8 133.7 63.8 133.7 69.55 139.8 69.55
Q 141.25 69.55 141.25 67.9
L 141.25 63.8 138.4 63.8
M 138.4 66.05
L 138.4 65 139.55 65 139.55 66.05 138.4 66.05
M 139.55 67.3
L 139.55 67.9
Q 139.55 68.4 139.05 68.4
L 138.4 68.4 138.4 67.3 139.55 67.3
M 135.45 65
L 136.55 65 136.55 66.05 135.45 66.05 135.45 65
M 135.45 67.3
L 136.55 67.3 136.55 68.4 135.45 68.4 135.45 67.3
M 141.25 61.1
L 141.25 59.4 131.45 59.4 131.45 66.45
Q 131.5 68.05 130.8 68.55
L 130.8 69.8
Q 133.55 68.95 133.4 66.05
L 133.4 62.95 139.55 62.95
Q 141.3 63 141.25 61.1
M 133.4 60.75
L 139.4 60.75 139.4 61.05
Q 139.45 61.6 138.85 61.6
L 133.4 61.6 133.4 60.75
M 119.2 59.55
L 119.2 69.5 127.25 69.5
Q 129.25 69.55 129.2 67.55
L 129.2 59.55 119.2 59.55
M 121.15 68.2
L 121.15 66.95
Q 123.95 66 123.8 62.4
L 123.8 60.9 124.55 60.9 124.55 64.85
Q 124.55 66.7 126.2 66.65
L 127.25 66.65 127.25 67.45
Q 127.3 68.25 126.5 68.2
L 121.15 68.2
M 121.15 65.45
L 121.15 60.9 121.95 60.9 121.95 62.4
Q 122 64.75 121.15 65.45
M 126.4 60.9
L 127.25 60.9 127.25 65.3 126.85 65.3
Q 126.4 65.3 126.4 64.8
L 126.4 60.9
M 111.05 63.05
L 111.05 63.8 107.3 63.8 107.3 65.45
Q 107.25 67.05 108.7 67
L 108.95 67
Q 108.45 68.05 106.9 68.65
L 106.9 69.8
Q 110.15 69.05 111 67
L 111.05 67 111.05 69.8 113.3 69.8 113.3 67 115.4 67 115.4 67.35
Q 115.45 67.9 114.9 67.85
L 114.15 67.85 114.15 69.05 115.8 69.05
Q 117.5 69.1 117.4 67.55
L 117.4 65.75 113.3 65.75 113.3 65.05 115.45 65.05
Q 117.1 65.15 117.05 63.4
L 117.05 61.75 107.55 61.75 107.55 63.05 111.05 63.05
M 109.2 65.35
L 109.2 65.05 111.05 65.05 111.05 65.75 109.7 65.75
Q 109.2 65.75 109.2 65.35
M 115.05 63.05
L 115.05 63.35
Q 115.05 63.8 114.65 63.8
L 113.3 63.8 113.3 63.05 115.05 63.05
M 112.25 60.55
L 112.25 59.45 109.75 59.45
Q 109.85 59.3 109.9 59
L 108.05 59
Q 107.85 60.3 106.75 60.8
L 106.75 61.7
Q 108.55 61.55 109.25 60.55
L 109.6 60.55
Q 109.65 60.75 109.7 61 109.8 61.4 109.85 61.55
L 111.45 61.55
Q 111.4 61.45 111.35 61.2 111.25 60.8 111.2 60.55
L 112.25 60.55
M 113.25 58.95
Q 112.9 60.3 112.05 60.75
L 112.05 61.55
Q 113.65 61.45 114.35 60.55
L 114.85 60.55
Q 115 61.1 115.05 61.55
L 116.65 61.55
Q 116.55 61 116.4 60.55
L 117.55 60.55 117.55 59.45 114.85 59.45
Q 114.9 59.35 114.95 59.2 115 59.05 115 58.95
L 113.25 58.95
M 257.45 45.35
L 255.75 45.35
Q 255.7 48.2 255.4 50.45 255.35 50.45 255.25 50.45 255.1 50.5 255.05 50.5 254.75 48.25 254.7 45.35
L 253 45.35
Q 252.95 48.1 253.7 50.75 253.2 50.8 252.65 50.8
L 252.65 52.4
Q 255.6 51.95 257.45 51.3
L 257.45 50
Q 257.15 50 256.9 50.1 257.4 48.15 257.45 45.35
M 261.3 42.2
L 259.35 42.2 259.35 47.1 257.75 47.1 257.75 52.7 261.65 52.7
Q 263.3 52.75 263.25 51
L 263.25 47.1 261.3 47.1 261.3 45.4 263.65 45.4 263.65 44 261.3 44 261.3 42.2
M 259.55 48.45
L 261.45 48.45 261.45 50.85
Q 261.45 51.5 260.85 51.5
L 259.55 51.5 259.55 48.45
M 252.75 43.5
L 252.75 44.8 257.75 44.8 257.75 43.5 256.25 43.5 256.25 42.2 254.3 42.2 254.3 43.5 252.75 43.5
M 243.05 44
L 249.3 44 249.3 51.1
Q 249.35 51.7 248.8 51.65
L 248.5 51.65 248.5 52.9 249.3 52.9
Q 251.25 52.95 251.2 51.1
L 251.2 42.65 241.15 42.65 241.15 52.9 243.05 52.9 243.05 44
M 244.35 44.55
L 243.1 44.55
Q 243.4 47 244.05 48.45 243.7 49.15 243.25 49.85
L 243.25 51.45
Q 244.25 50.25 244.65 49.6 245.25 50.5 246.15 51.4
L 246.15 49.85
Q 245.75 49.3 245.3 48.4 245.9 46.9 246.2 44.55
L 245 44.55
Q 244.85 45.6 244.65 46.45 244.5 45.6 244.35 44.55
M 247.4 44.55
L 246.3 44.55
Q 246.5 46.8 247.1 48.45 246.85 49.05 246.35 49.85
L 246.35 51.4
Q 247.2 50.45 247.7 49.6 248.25 50.5 249.1 51.4
L 249.1 49.85
Q 248.6 49.1 248.3 48.4 248.85 47.1 249.15 44.6
L 248 44.6
Q 247.85 45.65 247.7 46.5 247.55 45.65 247.4 44.55
M 228.65 46.95
L 230 46.95
Q 229.7 48.55 228.75 50.25
L 228.75 51.7
Q 230.95 51.7 232.45 51.5 232.45 51.7 232.5 51.85
L 233.75 51.85 233.75 53.05
Q 235.45 51.55 236 50 236.6 48.4 236.65 44.9
L 237.55 44.9 237.55 51.05
Q 237.55 51.55 237.05 51.55
L 236.35 51.55 236.35 52.8 237.7 52.8
Q 239.45 52.85 239.4 51.05
L 239.4 43.6 236.7 43.6 236.7 42.15 234.8 42.15 234.8 43.6 234.05 43.6 234.05 44.9 234.8 44.9
Q 234.8 49.3 233.95 50.9 233.65 49.35 233.15 48.05
L 231.7 48.05
Q 231.75 48.25 231.85 48.6 232.15 49.7 232.25 50.15 231.45 50.25 230.45 50.25 231.5 48.95 231.95 46.95
L 233.95 46.95 233.95 45.6 228.65 45.6 228.65 46.95
M 229.25 42.8
L 229.25 44.1 233.65 44.1 233.65 42.8 229.25 42.8
M 217.8 47.7
L 219.65 47.7
Q 219.3 46.2 218.8 45.3
L 216.9 45.3
Q 217.45 46.45 217.8 47.7
M 219.65 48.25
L 217.95 48.25
Q 217.65 50.85 216.65 52.8
L 218.7 52.8
Q 219.55 51 219.65 48.25
M 217.7 44.75
L 219.55 44.75
Q 219.3 43.5 218.75 42.45
L 216.85 42.45
Q 217.4 43.6 217.7 44.75
M 222.55 44
L 222.55 45.25 219.75 45.25 219.75 46.6 222.55 46.6 222.55 48 220.1 48 220.1 52.65 225.35 52.65
Q 227.15 52.7 227.15 50.8
L 227.15 48 224.65 48 224.65 46.6 227.55 46.6 227.55 45.25 224.65 45.25 224.65 44 225.25 44
Q 226.2 44 227.2 43.75
L 227.2 42.35
Q 226.1 42.65 225.15 42.65
L 220.1 42.65 220.1 44 222.55 44
M 222 49.3
L 225.25 49.3 225.25 50.75
Q 225.3 51.5 224.55 51.45
L 222 51.45 222 49.3
M 212.8 51.65
L 212.8 50.4 204.85 50.4 204.85 51.65 212.8 51.65
M 210.7 42.6
L 210.7 46.25 213.7 46.25
Q 215.1 46.3 215.05 44.75
L 215.05 42.6 210.7 42.6
M 212.35 45.1
L 212.35 43.8 213.5 43.8 213.5 44.65
Q 213.55 45.1 212.95 45.1
L 212.35 45.1
M 205.65 46.6
L 205.65 47.8 212.05 47.8 212.05 48.65 208.3 48.65
Q 207.75 48.7 207.8 48.25
L 207.8 47.95 206 47.95 206 48.65
Q 205.95 50 207.4 49.95
L 213.25 49.95 213.25 51.25
Q 213.3 51.8 212.75 51.75
L 212.05 51.75 212.05 52.9 213.6 52.9
Q 215.25 52.95 215.2 51.35
L 215.2 48.65 213.95 48.65 213.95 46.6 205.65 46.6
M 207.95 42.6
L 207.95 42.2 206.2 42.2 206.2 42.6 204.9 42.6 204.9 43.9 206.1 43.9
Q 206 44.8 204.9 45.55
L 204.9 46.7
Q 207.55 46 207.85 43.9
L 208.55 43.9 208.55 44.7
Q 208.6 45.2 208.1 45.15
L 207.6 45.15 207.6 46.35 208.75 46.35
Q 210.3 46.4 210.25 44.85
L 210.25 42.6 207.95 42.6
M 196.15 47.55
L 196.95 47.55 196.95 50.75
Q 196.45 50.75 196.05 50.75
L 196.05 49.9
Q 195.75 50.1 195.3 50.35
L 195.3 45.45 192.7 45.45 192.7 46.75 193.45 46.75 193.45 52.65
Q 194.8 52.25 195.75 51.5
L 195.75 52.25
Q 197.9 52.25 199.9 51.55
L 199.9 50.3
Q 199.7 50.35 199.3 50.4 198.9 50.5 198.7 50.55
L 198.7 47.55 199.45 47.55 199.45 46.2 196.15 46.2 196.15 47.55
M 194.75 42.3
L 192.9 42.3
Q 193.5 43.55 193.7 44.7
L 195.55 44.7
Q 195.3 43.4 194.75 42.3
M 203.7 44.95
L 203.7 43.55 203.3 43.55 203.3 42.5 201.8 42.5 201.8 43.55 201.45 43.55 201.45 42.2 199.55 42.2
Q 199.55 42.9 199.55 43.55
L 195.85 43.55 195.85 44.95 199.6 44.95
Q 199.6 47 199.95 49.25 200.45 53.05 202.45 53 203.9 53 203.85 51
L 202.9 51
Q 202.95 51.8 202.5 51.75 201.8 51.6 201.55 48.55 201.45 47.05 201.45 44.95
L 203.7 44.95
M 185.3 44
L 185.3 44.7
Q 185.3 47.45 185.05 48.75 184.9 50.1 184.25 51.4
L 184.25 53
Q 186.3 50.95 186.75 48.65 187.15 49.95 187.75 50.75 187.05 51.35 185.95 51.85
L 185.95 53
Q 187.65 52.35 188.7 51.7 189.7 52.4 191.55 53
L 191.55 51.8
Q 190.45 51.5 189.75 50.8 191 49.55 191.4 47
L 191.4 45.85 189.6 45.85
Q 190.3 45.05 190.7 44
L 190.7 42.65 184.75 42.65 184.75 44 185.3 44
M 187.1 44.95
L 187.1 44 188.8 44
Q 188.55 45 188 45.85
L 188 47 189.55 47
Q 189.4 48.5 188.8 49.5 188.4 48.7 188.25 47.7
L 186.95 47.7
Q 187.1 46.5 187.1 44.95
M 180.8 43.6
L 180.8 44.95 181.85 44.95
Q 181.45 47.1 180.65 49
L 180.65 50.8
Q 181.35 49.95 181.85 48.95
L 181.85 53 183.65 53 183.65 48.05
Q 184.1 48.75 184.6 49.35
L 184.6 47.45
Q 183.85 46.1 183.65 44.95
L 184.5 44.95 184.5 43.6 183.65 43.6 183.65 42.15 181.85 42.15 181.85 43.6 180.8 43.6
M 176.85 42.25
L 174.7 42.25 174.7 51.35
Q 174.75 52.75 176.25 52.8
L 179.55 52.8 179.55 51.5 177.4 51.5
Q 176.8 51.55 176.85 50.85
L 176.85 46.3 179.55 46.3 179.55 44.95 176.85 44.95 176.85 42.25
M 164.4 48.45
L 164.4 47 158 47 158 48.45 164.4 48.45
M 171.5 42.25
L 171.5 44.95 168.75 44.95 168.75 46.3 171.5 46.3 171.5 50.8
Q 171.55 51.5 170.85 51.5
L 168.75 51.5 168.75 52.8 172.05 52.8
Q 173.6 52.75 173.65 51.35
L 173.65 42.25 171.5 42.25
M 147.5 43.15
Q 147.65 42.7 147.8 42.25
L 145.55 42.25
Q 145.55 42.35 145.55 42.5 145.4 42.9 145.35 43.15
L 143 43.15 143 44.5 144.8 44.5
Q 144.35 45.6 143.55 46.9
L 143.55 48.25 147.25 48.25 147.25 49.6 142.75 49.6 142.75 51 147.25 51 147.25 53 149.4 53 149.4 51 153.55 51 153.55 49.6 149.4 49.6 149.4 48.25 152.75 48.25 152.75 46.9 149.4 46.9 149.4 45.4 147.25 45.4 147.25 46.9 145.45 46.9
Q 146.35 45.7 146.9 44.5
L 153.25 44.5 153.25 43.15 147.5 43.15
M 131.75 47.55
L 133.55 47.55
Q 133.45 46.55 132.85 45.25
L 131.15 45.25
Q 131.55 46.4 131.75 47.55
M 133.6 48.1
L 131.95 48.1
Q 131.65 50.5 130.7 52.8
L 132.65 52.8
Q 133.4 50.8 133.6 48.1
M 133.95 47
L 133.95 48.3 137.9 48.3
Q 137.7 53.25 140.05 53 141.85 53.1 141.8 50.85
L 140.5 50.85
Q 140.55 51.75 140.3 51.65 139.75 51.95 139.95 47
L 133.95 47
M 131.65 44.75
L 133.45 44.75
Q 133.3 43.55 132.75 42.45
L 130.95 42.45
Q 131.35 43.25 131.65 44.75
M 136.75 42.5
Q 136.8 42.3 136.8 42.2
L 134.95 42.2
Q 134.7 44.1 133.55 45.05
L 133.55 46.35
Q 134.4 46 134.95 45.65
L 134.95 46.2 140.45 46.2 140.45 44.85 135.8 44.85
Q 136.1 44.5 136.3 44.15
L 141.1 44.15 141.1 42.85 136.7 42.85
Q 136.75 42.7 136.75 42.5
M 121.6 45.5
L 121.6 44.2 121.15 44.2 121.15 42.2 119.4 42.2 119.4 44.2 118.8 44.2 118.8 45.5 119.4 45.5 119.4 50.45
Q 119.05 50.55 118.7 50.55
L 118.7 52.1
Q 120.55 51.8 121.65 51.2
L 121.65 49.85
Q 121.45 50 121.15 50
L 121.15 45.5 121.6 45.5
M 129.15 42.45
L 127.75 42.45 127.75 43.75 127.3 43.75 127.3 42.2 125.55 42.2 125.55 43.75 121.9 43.75 121.9 49.5
Q 121.95 51.1 121.45 51.85
L 121.45 53.05
Q 123.65 51.95 123.6 49.15
L 123.6 47.55 124.05 47.55 124.05 50.15
Q 124.1 50.65 123.7 50.6
L 123.5 50.6 123.5 51.85 124.3 51.85
Q 125.55 51.85 125.5 50.4
L 125.5 46.25 123.6 46.25 123.6 45.05 125.6 45.05
Q 125.65 47.45 126.05 49.9 126.05 50 126.05 50.1 126.1 50.45 126.15 50.6 125.75 51.1 125.2 51.65
L 125.2 53
Q 126.05 52.4 126.65 51.85 127.3 53 128.5 53 129.95 53 129.9 51.05
L 128.8 51.05
Q 128.8 51.7 128.5 51.7 128.05 51.75 127.75 50.7 129.05 49.05 129.65 45.75
L 128 45.75
Q 127.85 47.2 127.45 48.35 127.3 46.95 127.3 45.05
L 129.65 45.05 129.65 43.75 129.15 43.75 129.15 42.45
M 106.85 46.4
L 106.85 47.75 108.1 47.75 108.1 53
Q 110.5 52.35 112.25 51.5
L 112.25 49.95
Q 112.15 50 111.9 50.05 110.75 50.5 110.25 50.65
L 110.25 47.75 111.2 47.75
Q 112.75 51.6 117.4 52.45
L 117.4 51.35
Q 114.45 50.4 113.4 47.75
L 117.45 47.75 117.45 46.4 110.25 46.4 110.25 42.3 108.1 42.3 108.1 46.4 106.85 46.4
M 110.65 44.85
L 110.65 46.05
Q 115.15 45.8 117 42.75
L 114.55 42.75
Q 113.35 44.55 110.65 44.85
M 193.85 16.15
L 193.85 13.35 181.1 13.35
Q 181.2 13.05 181.4 12.5 181.5 12.1 181.6 11.85
L 177.35 11.85
Q 176.35 15.95 173.35 17.85
L 173.35 20.35
Q 174.75 20 175.8 19.45
L 175.8 26 172.95 26 172.95 28.7 183.2 28.7 183.2 33.4 187.5 33.4 187.5 28.7 194.6 28.7 194.6 26 187.5 26 187.5 21.6 193.3 21.6 193.3 18.85 187.5 18.85 187.5 16.15 193.85 16.15
M 183.2 16.15
L 183.2 18.85 176.9 18.85
Q 178.7 17.75 179.8 16.15
L 183.2 16.15
M 179.7 21.6
L 183.2 21.6 183.2 26 179.7 26 179.7 21.6
M 170.75 18
Q 170.45 12.4 163.6 12.2 156.85 12.3 155.65 19.05
L 159.85 19.05
Q 160.35 15.2 163.35 15.1 166.25 15 166.25 18.2 166.5 20.25 161.65 23.75 157.7 26.65 155.75 30
L 155.75 32.75 170.65 32.75 170.65 30.1 160.25 30.1
Q 161.85 27.5 166.15 24.95 171 22.05 170.75 18
M 152.45 12.5
L 147.95 12.5
Q 146.2 16.45 141.5 18.4
L 141.5 20.95
Q 145.35 20.35 147.95 18.5
L 147.95 32.75 152.45 32.75 152.45 12.5
M 139.8 22.7
Q 139.7 12.2 131.9 12.1 124.3 12.5 124.15 22.7 124.25 32.95 131.9 33.1 139.9 33.2 139.8 22.7
M 128.65 22.8
Q 128.65 14.95 132 15 135.3 14.85 135.2 22.8 135.2 30.4 132 30.4 128.65 30.4 128.65 22.8
M 122.1 32.75
L 122.1 30.1 111.7 30.1
Q 113.3 27.5 117.6 24.95 122.45 22.05 122.2 18 121.9 12.4 115.05 12.2 108.3 12.3 107.1 19.05
L 111.3 19.05
Q 111.8 15.2 114.8 15.1 117.7 15 117.7 18.2 117.95 20.25 113.1 23.75 109.15 26.65 107.2 30
L 107.2 32.75 122.1 32.75 Z"/>
</g>
</defs>

<g transform="matrix( 1, 0, 0, 1, 0,0) ">
<use xlink:href="#Layer2_0_FILL"/>
</g>

<g transform="matrix( 10.800430297851562, 0, 0, 10.800430297851562, 5.5,4.6) ">
<g transform="matrix( 1, 0, 0, 1, 0,0) ">
<use xlink:href="#pop_0_Layer5_0_FILL"/>
</g>

<g transform="matrix( 1, 0, 0, 1, 0,0) ">
<use xlink:href="#pop_0_Layer4_0_FILL"/>
</g>

<g transform="matrix( 1, 0, 0, 1, 0,0) ">
<use xlink:href="#pop_0_Layer3_0_FILL"/>
</g>

<g transform="matrix( 1, 0, 0, 1, 0,0) ">
<use xlink:href="#pop_0_Layer2_0_FILL"/>
</g>

<g transform="matrix( 1, 0, 0, 1, 0,0) ">
<use xlink:href="#pop_0_Layer1_0_FILL"/>
</g>

<g transform="matrix( 1, 0, 0, 1, 0,0) ">
<use xlink:href="#pop_0_Layer0_0_FILL"/>
</g>
</g>

<g transform="matrix( 1, 0, 0, 1, 0,0) ">
<use xlink:href="#Layer2_1_MEMBER_1_FILL"/>
</g>

<g transform="matrix( 1, 0, 0, 1, 0,0) ">
<use xlink:href="#Layer2_1_MEMBER_1_MEMBER_0_FILL"/>
</g>

<g transform="matrix( 1, 0, 0, 1, 0,0) ">
<use xlink:href="#Layer1_0_FILL"/>
</g>
</svg>
