
<svg xmlns="http://www.w3.org/2000/svg" version="1.1" xmlns:xlink="http://www.w3.org/1999/xlink" preserveAspectRatio="none" x="0px" y="0px" width="52px" height="52px" viewBox="0 0 52 52">
<defs>
<g id="pop_0_Layer5_0_FILL">
<path fill="#0C0A80" fill-opacity="0.2" stroke="none" d="
M 7.25 6.1
Q 7.75 5.2 7.85 4.45 7.85 4.3 7.85 4 7.7 2.15 6.05 1.6 4.15 1.1 3 2.6 1.9 4.15 3.45 5.9 4.7 7.3 2.95 7.8 3.1 7.95 3.7 7.95 3.75 7.95 3.85 7.95 4.5 8 5.5 7.6 6.7 7 7.25 6.1 Z"/>
</g>

<g id="pop_0_Layer4_0_FILL">
<path fill="#0C0A80" fill-opacity="0.2" stroke="none" d="
M 4.85 5.25
Q 4.85 4.4 4.25 3.75 3.65 3.15 2.8 3.15 1.95 3.15 1.35 3.75 0.7 4.4 0.7 5.25 0.7 6.1 1.35 6.7 1.95 7.3 2.8 7.3 3.65 7.3 4.25 6.7 4.85 6.1 4.85 5.25 Z"/>
</g>

<g id="pop_0_Layer3_0_FILL">
<path fill="#0C0A80" fill-opacity="0.2" stroke="none" d="
M 7.05 2.25
Q 7.05 1.6 6.6 1.15 6.15 0.7 5.5 0.7 4.85 0.7 4.4 1.15 3.95 1.6 3.95 2.25 3.95 2.9 4.4 3.35 4.85 3.8 5.5 3.8 6.15 3.8 6.6 3.35 7.05 2.9 7.05 2.25 Z"/>
</g>

<g id="pop_0_Layer2_0_FILL">
<path fill="#FFFFFF" fill-opacity="0.30196078431372547" stroke="none" d="
M 8.2 4.1
Q 8.2 2.4 7 1.2 5.8 0 4.1 0 2.4 0 1.2 1.2 0 2.4 0 4.1 0 5.8 1.2 7 2.4 8.2 4.1 8.2 5.8 8.2 7 7 8.2 5.8 8.2 4.1 Z"/>
</g>

<g id="pop_0_Layer1_0_FILL">
<path fill="#FFFFFF" fill-opacity="0.5019607843137255" stroke="none" d="
M 2.1 6.2
Q 3.7 5.95 2.65 3.7 1.9 1.2 4.2 0.3 3.65 0.35 3 0.55 1.7 1.1 1.1 1.9 0.5 2.75 0.4 3.5 0.35 3.65 0.35 3.95 0.4 6.2 2.1 6.2 Z"/>
</g>

<g id="pop_0_Layer0_0_FILL">
<path fill="#FFFFFF" fill-opacity="0.5019607843137255" stroke="none" d="
M 6.9 1.85
Q 6.9 1.45 6.65 1.2 6.35 0.9 6 0.9 5.6 0.9 5.35 1.2 5.05 1.45 5.05 1.85 5.05 2.2 5.35 2.5 5.6 2.75 6 2.75 6.35 2.75 6.65 2.5 6.9 2.2 6.9 1.85 Z"/>
</g>

<g id="Layer0_0_FILL">
<path fill="#FFFFFF" stroke="none" d="
M 42 23.8
Q 44.2 21.6 44.2 18.5 44.2 15.35 42 13.15 41.1 12.15 40 11.65 40 11.5 40 11.3
L 40 11.25
Q 40 10.9 40 10.6 40 10.55 40 10.5 40 9.85 39.5 9.35 39 8.85 38.35 8.85
L 13.9 8.85
Q 13.2 8.85 12.75 9.35 12.7 9.35 12.7 9.4 12.25 9.9 12.25 10.5 12.25 10.55 12.25 10.6 12.25 11 12.25 11.4 12.25 11.5 12.25 11.6 11.1 12.15 10.1 13.15 7.85 15.35 7.85 18.5 7.85 21.6 10.1 23.8
L 10.1 23.85
Q 12.3 26.05 15.45 26.05 16.25 26.05 17.05 25.9
L 17.05 25.95
Q 19.3 28.75 22.05 29.95 22.65 31.9 22.8 34.1 21.7 36 20.2 37.65 19.55 38.35 18.8 39.05
L 18.75 39.05
Q 18.7 39.05 18.7 39.1 18.2 39.4 18.05 40.05 17.65 41.8 17.2 43.55 17.2 43.6 17.2 43.65 17.15 44.05 17.25 44.45 17.3 44.5 17.3 44.55 17.45 45 17.9 45.3
L 17.95 45.3
Q 18.3 45.6 18.8 45.6
L 33.4 45.6
Q 33.85 45.6 34.25 45.35 34.3 45.3 34.35 45.3 34.75 45 34.95 44.55 34.95 44.5 34.95 44.45 35.1 44 34.95 43.55 34.55 41.85 34.15 40.1 34.05 39.45 33.55 39.1 33.45 39.05 33.4 39 32.6 38.3 32 37.65 30.5 36 29.45 34.05 29.55 31.9 30.2 29.95 32.9 28.8 35.2 26
L 35.2 25.95
Q 35.9 26.05 36.65 26.05 39.75 26.05 42 23.8 Z"/>
</g>

<g id="Layer0_0_MEMBER_0_FILL">
<path fill="#957800" stroke="none" d="
M 25.8 40.4
L 25.8 43.95 33.2 43.95
Q 32.75 42.2 32.35 40.4
L 32.3 40.4 25.8 40.4 Z"/>

<path fill="#C59E00" stroke="none" d="
M 19.45 40.4
Q 19.05 42.2 18.6 43.95
L 25.8 43.95 25.8 40.4 19.5 40.4 19.45 40.4
M 40.65 22.7
Q 42.35 21 42.35 18.55 42.35 16.05 40.65 14.3 39.5 13.2 38.05 12.8 38.1 12.05 38.1 11.3 38.1 10.95 38.1 10.65 38.1 10.6 38.1 10.55
L 25.8 10.55 25.8 40.4 32.3 40.4
Q 31.35 39.65 30.6 38.75 28.75 36.8 27.55 34.5 27.65 31.45 28.65 28.75
L 28.6 28.75
Q 31.35 27.85 33.65 24.95 34 24.55 34.3 24.1 35.3 24.45 36.45 24.45 38.9 24.45 40.65 22.7
M 37.9 14.6
Q 38.7 14.9 39.4 15.55 40.65 16.8 40.65 18.55 40.65 20.3 39.4 21.5 38.2 22.7 36.45 22.7 35.8 22.7 35.25 22.55 37.25 19 37.9 14.6 Z"/>

<path fill="#FFCC00" stroke="none" d="
M 13.65 10.55
Q 13.65 10.6 13.65 10.65 13.65 10.95 13.65 11.3 13.65 12 13.75 12.8 12.2 13.15 11.05 14.3 9.3 16.05 9.3 18.55 9.3 21 11.05 22.7 12.8 24.45 15.25 24.45 16.4 24.45 17.45 24.05 17.75 24.5 18.1 24.95 20.4 27.85 23.2 28.75
L 23.15 28.75
Q 24.1 31.45 24.25 34.5 23 36.8 21.2 38.75 20.4 39.65 19.5 40.4
L 25.8 40.4 25.8 10.55 13.65 10.55
M 11.05 18.55
Q 11.05 16.8 12.25 15.55 13 14.8 13.9 14.55 14.5 19 16.55 22.5 15.9 22.7 15.25 22.7 13.5 22.7 12.25 21.5 11.05 20.3 11.05 18.55 Z"/>
</g>
</defs>

<g transform="matrix( 6.246734619140625, 0, 0, 6.246734619140625, 0,0) ">
<g transform="matrix( 1, 0, 0, 1, 0,0) ">
<use xlink:href="#pop_0_Layer5_0_FILL"/>
</g>

<g transform="matrix( 1, 0, 0, 1, 0,0) ">
<use xlink:href="#pop_0_Layer4_0_FILL"/>
</g>

<g transform="matrix( 1, 0, 0, 1, 0,0) ">
<use xlink:href="#pop_0_Layer3_0_FILL"/>
</g>

<g transform="matrix( 1, 0, 0, 1, 0,0) ">
<use xlink:href="#pop_0_Layer2_0_FILL"/>
</g>

<g transform="matrix( 1, 0, 0, 1, 0,0) ">
<use xlink:href="#pop_0_Layer1_0_FILL"/>
</g>

<g transform="matrix( 1, 0, 0, 1, 0,0) ">
<use xlink:href="#pop_0_Layer0_0_FILL"/>
</g>
</g>

<g transform="matrix( 1, 0, 0, 1, 0,0) ">
<use xlink:href="#Layer0_0_FILL"/>
</g>

<g transform="matrix( 1, 0, 0, 1, 0,0) ">
<use xlink:href="#Layer0_0_MEMBER_0_FILL"/>
</g>
</svg>
