
<svg xmlns="http://www.w3.org/2000/svg" version="1.1" xmlns:xlink="http://www.w3.org/1999/xlink" preserveAspectRatio="none" x="0px" y="0px" width="300px" height="100px" viewBox="0 0 300 100">
<defs>
<g id="Layer1_0_FILL">
<path fill="#000000" fill-opacity="0.5019607843137255" stroke="none" d="
M 300 49.2
Q 300 28.8 285.55 14.4 271.2 0 250.8 0
L 49.2 0
Q 28.8 0 14.35 14.4 0 28.8 0 49.2 0 69.6 14.35 84 28.8 98.4 49.2 98.4
L 127.95 98.4
Q 128.15 98.5 128.4 98.5 128.6650390625 98.5 128.9 98.4
L 250.8 98.4
Q 271.2 98.4 285.55 84 300 69.6 300 49.2 Z"/>
</g>

<g id="pop_0_Layer5_0_FILL">
<path fill="#0C0A80" fill-opacity="0.2" stroke="none" d="
M 7.25 6.1
Q 7.75 5.2 7.85 4.45 7.85 4.3 7.85 4 7.7 2.15 6.05 1.6 4.15 1.1 3 2.6 1.9 4.15 3.45 5.9 4.7 7.3 2.95 7.8 3.1 7.95 3.7 7.95 3.75 7.95 3.85 7.95 4.5 8 5.5 7.6 6.7 7 7.25 6.1 Z"/>
</g>

<g id="pop_0_Layer4_0_FILL">
<path fill="#0C0A80" fill-opacity="0.2" stroke="none" d="
M 4.85 5.25
Q 4.85 4.4 4.25 3.75 3.65 3.15 2.8 3.15 1.95 3.15 1.35 3.75 0.7 4.4 0.7 5.25 0.7 6.1 1.35 6.7 1.95 7.3 2.8 7.3 3.65 7.3 4.25 6.7 4.85 6.1 4.85 5.25 Z"/>
</g>

<g id="pop_0_Layer3_0_FILL">
<path fill="#0C0A80" fill-opacity="0.2" stroke="none" d="
M 7.05 2.25
Q 7.05 1.6 6.6 1.15 6.15 0.7 5.5 0.7 4.85 0.7 4.4 1.15 3.95 1.6 3.95 2.25 3.95 2.9 4.4 3.35 4.85 3.8 5.5 3.8 6.15 3.8 6.6 3.35 7.05 2.9 7.05 2.25 Z"/>
</g>

<g id="pop_0_Layer2_0_FILL">
<path fill="#FFFFFF" fill-opacity="0.30196078431372547" stroke="none" d="
M 8.2 4.1
Q 8.2 2.4 7 1.2 5.8 0 4.1 0 2.4 0 1.2 1.2 0 2.4 0 4.1 0 5.8 1.2 7 2.4 8.2 4.1 8.2 5.8 8.2 7 7 8.2 5.8 8.2 4.1 Z"/>
</g>

<g id="pop_0_Layer1_0_FILL">
<path fill="#FFFFFF" fill-opacity="0.5019607843137255" stroke="none" d="
M 2.1 6.2
Q 3.7 5.95 2.65 3.7 1.9 1.2 4.2 0.3 3.65 0.35 3 0.55 1.7 1.1 1.1 1.9 0.5 2.75 0.4 3.5 0.35 3.65 0.35 3.95 0.4 6.2 2.1 6.2 Z"/>
</g>

<g id="pop_0_Layer0_0_FILL">
<path fill="#FFFFFF" fill-opacity="0.5019607843137255" stroke="none" d="
M 6.9 1.85
Q 6.9 1.45 6.65 1.2 6.35 0.9 6 0.9 5.6 0.9 5.35 1.2 5.05 1.45 5.05 1.85 5.05 2.2 5.35 2.5 5.6 2.75 6 2.75 6.35 2.75 6.65 2.5 6.9 2.2 6.9 1.85 Z"/>
</g>

<g id="Layer1_1_MEMBER_1_FILL">
<path fill="#FFFFFF" stroke="none" d="
M 73.95 39.9
Q 73.95 29.85 66.9 22.8 66.85 22.75 66.8 22.7 59.75 15.7 49.75 15.7 39.7 15.7 32.65 22.8 25.55 29.85 25.55 39.9 25.55 49.9 32.55 56.95 32.6 57 32.65 57.05 33.85 58.25 35.15 59.25
L 35.1 80.85
Q 35.1 82.1 36 83 36.85 83.85 38.1 83.85 39.35 83.85 40.25 83
L 49.75 73.5 59.3 83.05
Q 60.15 83.9 61.4 83.9 62.65 83.9 63.55 83.05 64.4 82.15 64.4 80.9
L 64.4 59.25
Q 65.7 58.2 66.9 57.05 73.95 49.95 73.95 39.9 Z"/>
</g>

<g id="Layer1_1_MEMBER_1_MEMBER_0_FILL">
<path fill="#B84F4F" stroke="none" d="
M 38.15 53.65
L 38.1 80.85 49.65 69.35 49.65 42.15 38.15 53.65 Z"/>

<path fill="#A12C2C" stroke="none" d="
M 49.75 42.05
L 49.65 42.15 49.65 69.35 49.75 69.25 61.4 80.9 61.4 53.7 49.75 42.05 Z"/>
</g>

<g id="Layer1_1_MEMBER_1_MEMBER_1_FILL">
<path fill="#FFCC00" stroke="none" d="
M 58.95 30.55
Q 55.15 26.8 49.75 26.8 44.25 26.8 40.45 30.6 36.6 34.45 36.6 39.9 36.6 45.3 40.35 49.1
L 58.95 30.55 Z"/>

<path fill="#C59E00" stroke="none" d="
M 59 30.6
L 58.95 30.55 40.35 49.1
Q 40.4 49.15 40.45 49.2 44.25 53 49.75 53 55.2 53 59 49.2 62.85 45.35 62.85 39.9 62.85 34.45 59 30.6
M 64.65 24.8
Q 58.5 18.7 49.75 18.7 40.95 18.7 34.75 24.9 28.55 31.1 28.55 39.9 28.55 48.65 34.65 54.8
L 40.35 49.1
Q 36.6 45.3 36.6 39.9 36.6 34.45 40.45 30.6 44.25 26.8 49.75 26.8 55.15 26.8 58.95 30.55
L 64.65 24.8 Z"/>

<path fill="#957800" stroke="none" d="
M 58.95 30.55
L 59 30.6
Q 62.85 34.45 62.85 39.9 62.85 45.35 59 49.2 55.2 53 49.75 53 44.25 53 40.45 49.2 40.4 49.15 40.35 49.1
L 34.65 54.8
Q 34.7 54.85 34.75 54.9 40.95 61.1 49.75 61.1 58.55 61.1 64.75 54.9 70.95 48.7 70.95 39.9 70.95 31.1 64.75 24.9 64.7 24.85 64.65 24.8
L 58.95 30.55 Z"/>
</g>

<g id="Layer0_0_FILL">
<path fill="#FFFFFF" stroke="none" d="
M 133.8 69.5
L 131.8 69.5 130.7 74.7 132.7 74.7 133.8 69.5
M 136.65 71.25
Q 136.5 71.1 136.5 70.95 136.5 70.75 136.65 70.6 136.85 70.5 137.2 70.5 137.85 70.5 137.9 70.95
L 139.8 70.75
Q 139.65 70 139.1 69.7 138.55 69.4 137.5 69.4 136.6 69.4 135.95 69.65 135.35 69.9 135.05 70.35 134.7 70.75 134.7 71.25 134.7 71.8 135.15 72.15 135.55 72.5 136.7 72.7 137.2 72.8 137.4 72.85 137.55 72.95 137.55 73.2 137.55 73.45 137.3 73.6 137.05 73.75 136.75 73.75 136.05 73.75 135.9 73.1
L 133.95 73.25
Q 134.05 74.1 134.6 74.45 135.2 74.8 136.45 74.8 137.95 74.8 138.7 74.25 139.45 73.7 139.45 72.9 139.45 72.3 139.05 71.95 138.7 71.6 137.55 71.45 136.8 71.35 136.65 71.25
M 134.2 67.55
L 132.25 67.55 131.95 68.9 133.95 68.9 134.2 67.55
M 130.85 67.55
L 128.9 67.55 127.35 74.7 129.35 74.7 130.85 67.55
M 143.2 70.95
L 144.25 70.95 144.55 69.5 143.5 69.5 143.9 67.6 141.7 68.7 141.55 69.5 140.8 69.5 140.5 70.95 141.2 70.95 140.85 72.7
Q 140.7 73.4 140.7 73.55 140.7 74 141.05 74.4 141.4 74.8 142.25 74.8 142.65 74.8 143.55 74.7
L 143.85 73.3
Q 143.4 73.35 143.25 73.35 142.8 73.35 142.8 73 142.8 72.9 142.8 72.75
L 143.2 70.95
M 146.5 69.65
Q 145.9 69.9 145.6 70.35 145.25 70.75 145.25 71.25 145.25 71.8 145.7 72.15 146.1 72.5 147.25 72.7 147.75 72.8 147.95 72.85 148.1 72.95 148.1 73.2 148.1 73.45 147.85 73.6 147.6 73.75 147.3 73.75 146.6 73.75 146.45 73.1
L 144.5 73.25
Q 144.6 74.1 145.15 74.45 145.75 74.8 147 74.8 148.5 74.8 149.25 74.25 150 73.7 150 72.9 150 72.3 149.6 71.95 149.25 71.6 148.1 71.45 147.35 71.35 147.2 71.25 147.05 71.1 147.05 70.95 147.05 70.75 147.2 70.6 147.4 70.5 147.75 70.5 148.4 70.5 148.45 70.95
L 150.35 70.75
Q 150.2 70 149.65 69.7 149.1 69.4 148.05 69.4 147.15 69.4 146.5 69.65
M 121.25 72.25
Q 120.85 72.6 120.85 73.3 120.85 73.9 121.3 74.35 121.7 74.8 122.7 74.8 123.65 74.8 124.45 74.1 124.45 74.4 124.5 74.7
L 126.45 74.7
Q 126.3 74.35 126.3 74 126.3 73.55 126.55 72.5 126.85 71.4 126.85 70.9 126.85 70.15 126.3 69.8 125.75 69.4 124.25 69.4 122.9 69.4 122.25 69.8 121.6 70.2 121.4 70.95
L 123.25 71.15
Q 123.45 70.8 123.65 70.7 123.85 70.55 124.2 70.55 124.5 70.55 124.75 70.7 124.9 70.8 124.9 71 124.9 71.1 124.85 71.35 124.55 71.45 123.7 71.55 122.75 71.65 122.2 71.75 121.6 71.9 121.25 72.25
M 122.8 73.2
Q 122.8 72.95 123.05 72.8 123.25 72.6 124.65 72.4 124.5 73.15 124.15 73.45 123.8 73.75 123.4 73.75 123.15 73.75 122.95 73.6 122.8 73.45 122.8 73.2
M 120.25 70.65
Q 120.25 70.1 119.9 69.75 119.55 69.4 118.8 69.4 117.65 69.4 116.8 70.3
L 116.95 69.5 115.1 69.5 114 74.7 116 74.7 116.5 72.45
Q 116.65 71.7 117 71.25 117.3 70.85 117.75 70.85 118.15 70.85 118.15 71.3 118.15 71.4 117.95 72.3
L 117.45 74.7 119.45 74.7 120.05 71.85
Q 120.25 70.95 120.25 70.65
M 113.8 69.5
L 111.8 69.5 110.7 74.7 112.7 74.7 113.8 69.5
M 114.2 67.55
L 112.25 67.55 111.95 68.9 113.95 68.9 114.2 67.55
M 110 67.4
Q 109.55 67.4 109.2 67.55 108.9 67.65 108.65 67.85 108.45 68.1 108.35 68.35 108.25 68.6 108.1 69.5
L 107.35 69.5 107.05 70.95 107.8 70.95 106.95 74.7 108.95 74.7 109.75 70.95 110.7 70.95 111 69.5 110.05 69.5
Q 110.2 68.9 110.35 68.8 110.45 68.7 110.7 68.7 110.95 68.7 111.35 68.8
L 111.7 67.65
Q 110.7 67.4 110 67.4
M 238.1 58.85
L 239.2 53.65 237.2 53.65 236.1 58.85 238.1 58.85
M 236.05 53.65
L 235 53.65 235.4 51.75 233.2 52.85 233.05 53.65 232.3 53.65 232 55.1 232.7 55.1 232.35 56.85
Q 232.2 57.55 232.2 57.7 232.2 58.15 232.55 58.55 232.9 58.95 233.75 58.95 234.15 58.95 235.05 58.85
L 235.35 57.45
Q 234.9 57.5 234.75 57.5 234.3 57.5 234.3 57.15 234.3 57.05 234.3 56.9
L 234.7 55.1 235.75 55.1 236.05 53.65
M 239.35 53.05
L 239.6 51.7 237.65 51.7 237.35 53.05 239.35 53.05
M 245.85 53.65
L 243.75 53.65 242.05 56.95 241.75 53.65 239.85 53.65 240.85 58.85 242.6 58.85 245.85 53.65
M 249.25 54.85
Q 249.4 54.95 249.4 55.15 249.4 55.25 249.35 55.5 249.05 55.6 248.2 55.7 247.25 55.8 246.7 55.9 246.1 56.05 245.75 56.4 245.35 56.75 245.35 57.45 245.35 58.05 245.8 58.5 246.2 58.95 247.2 58.95 248.15 58.95 248.95 58.25 248.95 58.55 249 58.85
L 250.95 58.85
Q 250.8 58.5 250.8 58.15 250.8 57.7 251.05 56.65 251.35 55.55 251.35 55.05 251.35 54.3 250.8 53.95 250.25 53.55 248.75 53.55 247.4 53.55 246.75 53.95 246.1 54.35 245.9 55.1
L 247.75 55.3
Q 247.95 54.95 248.15 54.85 248.35 54.7 248.7 54.7 249 54.7 249.25 54.85
M 247.3 57.35
Q 247.3 57.1 247.55 56.95 247.75 56.75 249.15 56.55 249 57.3 248.65 57.6 248.3 57.9 247.9 57.9 247.65 57.9 247.45 57.75 247.3 57.6 247.3 57.35
M 255.35 51.7
L 253.4 51.7 251.85 58.85 253.85 58.85 255.35 51.7
M 263.7 53.45
L 266.05 53.45 266.4 51.7 259.65 51.7 259.25 53.45 261.5 53.45 260.35 58.85 262.55 58.85 263.7 53.45
M 271.6 53.65
L 269.8 53.65 268 56.95 267.95 56.95 267.8 53.65 266 53.65 266.8 58.85 268.55 58.85 270.3 55.75 270.65 58.85 272.4 58.85 275.35 53.65 273.3 53.65 271.9 56.9 271.85 56.9 271.6 53.65
M 278.3 53.55
Q 277.3 53.55 276.55 53.95 275.8 54.4 275.45 55.1 275.05 55.85 275.05 56.65 275.05 57.65 275.7 58.3 276.35 58.95 277.7 58.95 278.8 58.95 279.5 58.55 280.25 58.1 280.6 57.35 281 56.6 281 55.9 281 54.95 280.35 54.25 279.7 53.55 278.3 53.55
M 277.3 55.45
Q 277.6 54.9 278.25 54.9 278.55 54.9 278.8 55.1 279.05 55.3 279.05 55.8 279.05 56.5 278.7 57.05 278.4 57.65 277.85 57.65 277.45 57.65 277.25 57.35 277 57.05 277 56.65 277 56.05 277.3 55.45
M 229.05 55.6
Q 228.3 55.5 228.15 55.4 228 55.25 228 55.1 228 54.9 228.15 54.75 228.35 54.65 228.7 54.65 229.35 54.65 229.4 55.1
L 231.3 54.9
Q 231.15 54.15 230.6 53.85 230.05 53.55 229 53.55 228.1 53.55 227.45 53.8 226.85 54.05 226.55 54.5 226.2 54.9 226.2 55.4 226.2 55.95 226.65 56.3 227.05 56.65 228.2 56.85 228.7 56.95 228.9 57 229.05 57.1 229.05 57.35 229.05 57.6 228.8 57.75 228.55 57.9 228.25 57.9 227.55 57.9 227.4 57.25
L 225.45 57.4
Q 225.55 58.25 226.1 58.6 226.7 58.95 227.95 58.95 229.45 58.95 230.2 58.4 230.95 57.85 230.95 57.05 230.95 56.45 230.55 56.1 230.2 55.75 229.05 55.6
M 223.75 58.65
Q 224.45 58.3 224.85 57.5
L 222.95 57.35
Q 222.6 57.8 222.05 57.8 221.2 57.8 221.1 56.75
L 225.05 56.75
Q 225.2 56.05 225.2 55.75 225.2 54.8 224.55 54.2 223.9 53.55 222.45 53.55 221.8 53.55 221.3 53.7 220.8 53.85 220.25 54.25 219.75 54.65 219.45 55.3 219.15 55.9 219.15 56.6 219.15 57.6 219.8 58.3 220.45 58.95 222 58.95 223.05 58.95 223.75 58.65
M 223.25 55.5
Q 223.25 55.7 223.2 55.8
L 221.3 55.8
Q 221.45 55.25 221.75 55 222.05 54.7 222.4 54.7 222.75 54.7 223 54.9 223.25 55.1 223.25 55.5
M 209.55 54.4
Q 208.9 53.55 207.95 53.55 206.85 53.55 206.1 54.45 205.35 55.35 205.35 56.6 205.35 57.55 205.8 58.1 206.3 58.65 207.1 58.65 207.95 58.65 208.6 57.95
L 208.65 58 208.45 58.75
Q 208.35 59.25 208.1 59.5 207.9 59.75 207.5 59.75 206.95 59.75 206.95 59.25
L 205.05 58.95
Q 205.05 59.05 205.05 59.2 205.05 59.75 205.4 60.2 205.75 60.65 206.25 60.8 206.7 60.95 207.6 60.95 208.9 60.95 209.55 60.45 210.2 60 210.5 58.55
L 211.55 53.65 209.7 53.65 209.55 54.4
M 207.65 55.4
Q 207.95 54.85 208.4 54.85 208.7 54.85 208.9 55.1 209.1 55.3 209.1 55.6 209.1 56.15 208.8 56.75 208.55 57.3 208 57.3 207.7 57.3 207.5 57.1 207.3 56.9 207.3 56.55 207.3 55.9 207.65 55.4
M 220 51.8
Q 219 51.55 218.3 51.55 217.85 51.55 217.5 51.7 217.2 51.8 216.95 52 216.75 52.25 216.65 52.5 216.55 52.75 216.4 53.65
L 215.65 53.65 215.35 55.1 216.1 55.1 215.25 58.85 217.25 58.85 218.05 55.1 219 55.1 219.3 53.65 218.35 53.65
Q 218.5 53.05 218.65 52.95 218.75 52.85 219 52.85 219.25 52.85 219.65 52.95
L 220 51.8
M 170.35 53.65
L 168.25 53.65 166.55 56.95 166.25 53.65 164.35 53.65 165.35 58.85 167.1 58.85 170.35 53.65
M 175.35 54.2
Q 174.7 53.55 173.25 53.55 172.6 53.55 172.1 53.7 171.6 53.85 171.05 54.25 170.55 54.65 170.25 55.3 169.95 55.9 169.95 56.6 169.95 57.6 170.6 58.3 171.25 58.95 172.8 58.95 173.85 58.95 174.55 58.65 175.25 58.3 175.65 57.5
L 173.75 57.35
Q 173.4 57.8 172.85 57.8 172 57.8 171.9 56.75
L 175.85 56.75
Q 176 56.05 176 55.75 176 54.8 175.35 54.2
M 173.8 54.9
Q 174.05 55.1 174.05 55.5 174.05 55.7 174 55.8
L 172.1 55.8
Q 172.25 55.25 172.55 55 172.85 54.7 173.2 54.7 173.55 54.7 173.8 54.9
M 179.25 53.65
L 177.4 53.65 176.3 58.85 178.3 58.85 178.7 56.9
Q 178.9 56 179.25 55.6 179.6 55.2 180.2 55.2 180.35 55.2 180.6 55.25
L 181.3 53.7
Q 180.95 53.55 180.65 53.55 180.2 53.55 179.85 53.8 179.5 54 179.05 54.7
L 179.25 53.65
M 187.65 58.85
L 188.75 53.65 186.75 53.65 185.65 58.85 187.65 58.85
M 185.6 53.65
L 184.55 53.65 184.95 51.75 182.75 52.85 182.6 53.65 181.85 53.65 181.55 55.1 182.25 55.1 181.9 56.85
Q 181.75 57.55 181.75 57.7 181.75 58.15 182.1 58.55 182.45 58.95 183.3 58.95 183.7 58.95 184.6 58.85
L 184.9 57.45
Q 184.45 57.5 184.3 57.5 183.85 57.5 183.85 57.15 183.85 57.05 183.85 56.9
L 184.25 55.1 185.3 55.1 185.6 53.65
M 188.9 53.05
L 189.15 51.7 187.2 51.7 186.9 53.05 188.9 53.05
M 195.1 58.85
L 197.1 58.85 198.2 53.65 196.2 53.65 195.1 58.85
M 192.85 55.1
L 194.75 54.9
Q 194.6 54.15 194.05 53.85 193.5 53.55 192.45 53.55 191.55 53.55 190.9 53.8 190.3 54.05 190 54.5 189.65 54.9 189.65 55.4 189.65 55.95 190.1 56.3 190.5 56.65 191.65 56.85 192.15 56.95 192.35 57 192.5 57.1 192.5 57.35 192.5 57.6 192.25 57.75 192 57.9 191.7 57.9 191 57.9 190.85 57.25
L 188.9 57.4
Q 189 58.25 189.55 58.6 190.15 58.95 191.4 58.95 192.9 58.95 193.65 58.4 194.4 57.85 194.4 57.05 194.4 56.45 194 56.1 193.65 55.75 192.5 55.6 191.75 55.5 191.6 55.4 191.45 55.25 191.45 55.1 191.45 54.9 191.6 54.75 191.8 54.65 192.15 54.65 192.8 54.65 192.85 55.1
M 198.35 53.05
L 198.6 51.7 196.65 51.7 196.35 53.05 198.35 53.05
M 201.2 54.45
L 201.35 53.65 199.5 53.65 198.4 58.85 200.4 58.85 200.9 56.6
Q 201.05 55.85 201.4 55.4 201.7 55 202.15 55 202.55 55 202.55 55.45 202.55 55.55 202.35 56.45
L 201.85 58.85 203.85 58.85 204.45 56
Q 204.65 55.1 204.65 54.8 204.65 54.25 204.3 53.9 203.95 53.55 203.2 53.55 202.05 53.55 201.2 54.45
M 164.25 51.7
L 162.25 51.7 161.65 54.35
Q 161.1 53.55 160 53.55 158.95 53.55 158.25 54.5 157.55 55.5 157.55 56.8 157.55 57.8 158 58.4 158.5 58.95 159.35 58.95 159.85 58.95 160.15 58.85 160.5 58.7 160.95 58.3
L 160.95 58.35 160.85 58.85 162.7 58.85 164.25 51.7
M 160.55 54.9
Q 160.85 54.9 161.1 55.1 161.3 55.35 161.3 55.8 161.3 56.45 161 57.05 160.7 57.65 160.15 57.65 159.85 57.65 159.7 57.45 159.5 57.2 159.5 56.75 159.5 56 159.8 55.45 160.1 54.9 160.55 54.9
M 127.45 54.8
Q 127.45 54.25 127.1 53.9 126.75 53.55 126 53.55 124.85 53.55 124 54.45
L 124.15 53.65 122.3 53.65 121.2 58.85 123.2 58.85 123.7 56.6
Q 123.85 55.85 124.2 55.4 124.5 55 124.95 55 125.35 55 125.35 55.45 125.35 55.55 125.15 56.45
L 124.65 58.85 126.65 58.85 127.25 56
Q 127.45 55.1 127.45 54.8
M 134.1 54.8
Q 134.1 54.25 133.75 53.9 133.4 53.55 132.65 53.55 131.5 53.55 130.65 54.45
L 130.8 53.65 128.95 53.65 127.85 58.85 129.85 58.85 130.35 56.6
Q 130.5 55.85 130.85 55.4 131.15 55 131.6 55 132 55 132 55.45 132 55.55 131.8 56.45
L 131.3 58.85 133.3 58.85 133.9 56
Q 134.1 55.1 134.1 54.8
M 138.1 53.55
Q 137.45 53.55 136.95 53.7 136.45 53.85 135.9 54.25 135.4 54.65 135.1 55.3 134.8 55.9 134.8 56.6 134.8 57.6 135.45 58.3 136.1 58.95 137.65 58.95 138.7 58.95 139.4 58.65 140.1 58.3 140.5 57.5
L 138.6 57.35
Q 138.25 57.8 137.7 57.8 136.85 57.8 136.75 56.75
L 140.7 56.75
Q 140.85 56.05 140.85 55.75 140.85 54.8 140.2 54.2 139.55 53.55 138.1 53.55
M 138.65 54.9
Q 138.9 55.1 138.9 55.5 138.9 55.7 138.85 55.8
L 136.95 55.8
Q 137.1 55.25 137.4 55 137.7 54.7 138.05 54.7 138.4 54.7 138.65 54.9
M 143.8 55.4
Q 143.65 55.25 143.65 55.1 143.65 54.9 143.8 54.75 144 54.65 144.35 54.65 145 54.65 145.05 55.1
L 146.95 54.9
Q 146.8 54.15 146.25 53.85 145.7 53.55 144.65 53.55 143.75 53.55 143.1 53.8 142.5 54.05 142.2 54.5 141.85 54.9 141.85 55.4 141.85 55.95 142.3 56.3 142.7 56.65 143.85 56.85 144.35 56.95 144.55 57 144.7 57.1 144.7 57.35 144.7 57.6 144.45 57.75 144.2 57.9 143.9 57.9 143.2 57.9 143.05 57.25
L 141.1 57.4
Q 141.2 58.25 141.75 58.6 142.35 58.95 143.6 58.95 145.1 58.95 145.85 58.4 146.6 57.85 146.6 57.05 146.6 56.45 146.2 56.1 145.85 55.75 144.7 55.6 143.95 55.5 143.8 55.4
M 153.2 55.3
Q 153.4 54.95 153.6 54.85 153.8 54.7 154.15 54.7 154.45 54.7 154.7 54.85 154.85 54.95 154.85 55.15 154.85 55.25 154.8 55.5 154.5 55.6 153.65 55.7 152.7 55.8 152.15 55.9 151.55 56.05 151.2 56.4 150.8 56.75 150.8 57.45 150.8 58.05 151.25 58.5 151.65 58.95 152.65 58.95 153.6 58.95 154.4 58.25 154.4 58.55 154.45 58.85
L 156.4 58.85
Q 156.25 58.5 156.25 58.15 156.25 57.7 156.5 56.65 156.8 55.55 156.8 55.05 156.8 54.3 156.25 53.95 155.7 53.55 154.2 53.55 152.85 53.55 152.2 53.95 151.55 54.35 151.35 55.1
L 153.2 55.3
M 154.1 57.6
Q 153.75 57.9 153.35 57.9 153.1 57.9 152.9 57.75 152.75 57.6 152.75 57.35 152.75 57.1 153 56.95 153.2 56.75 154.6 56.55 154.45 57.3 154.1 57.6
M 114.5 54.05
Q 114.4 52.95 113.6 52.25 112.85 51.55 111.5 51.55 110.2 51.55 109.25 52.2 108.3 52.8 107.85 53.85 107.35 54.9 107.35 55.95 107.35 57.3 108.15 58.15 108.95 58.95 110.5 58.95 112 58.95 112.95 58.2 113.85 57.45 114.2 56.35
L 112.1 56.05
Q 111.85 56.7 111.5 57 111.15 57.35 110.65 57.35 110.1 57.35 109.8 57 109.5 56.6 109.5 56.1 109.5 55.4 109.8 54.65 110.05 53.9 110.55 53.55 111 53.2 111.5 53.2 111.85 53.2 112.2 53.45 112.5 53.7 112.5 54.25
L 114.5 54.05
M 120.75 55.05
Q 120.75 54.3 120.2 53.95 119.65 53.55 118.15 53.55 116.8 53.55 116.15 53.95 115.5 54.35 115.3 55.1
L 117.15 55.3
Q 117.35 54.95 117.55 54.85 117.75 54.7 118.1 54.7 118.4 54.7 118.65 54.85 118.8 54.95 118.8 55.15 118.8 55.25 118.75 55.5 118.45 55.6 117.6 55.7 116.65 55.8 116.1 55.9 115.5 56.05 115.15 56.4 114.75 56.75 114.75 57.45 114.75 58.05 115.2 58.5 115.6 58.95 116.6 58.95 117.55 58.95 118.35 58.25 118.35 58.55 118.4 58.85
L 120.35 58.85
Q 120.2 58.5 120.2 58.15 120.2 57.7 120.45 56.65 120.75 55.55 120.75 55.05
M 118.55 56.55
Q 118.4 57.3 118.05 57.6 117.7 57.9 117.3 57.9 117.05 57.9 116.85 57.75 116.7 57.6 116.7 57.35 116.7 57.1 116.95 56.95 117.15 56.75 118.55 56.55
M 260.7 37.8
L 260.4 39.25 261.1 39.25 260.75 41
Q 260.6 41.7 260.6 41.85 260.6 42.3 260.95 42.7 261.3 43.1 262.15 43.1 262.55 43.1 263.45 43
L 263.75 41.6
Q 263.3 41.65 263.15 41.65 262.7 41.65 262.7 41.3 262.7 41.2 262.7 41.05
L 263.1 39.25 264.15 39.25 264.45 37.8 263.4 37.8 263.8 35.9 261.6 37 261.45 37.8 260.7 37.8
M 231.85 38.1
Q 231.1 38.55 230.75 39.25 230.35 40 230.35 40.8 230.35 41.8 231 42.45 231.65 43.1 233 43.1 234.1 43.1 234.8 42.7 235.55 42.25 235.9 41.5 236.3 40.75 236.3 40.05 236.3 39.1 235.65 38.4 235 37.7 233.6 37.7 232.6 37.7 231.85 38.1
M 232.55 41.5
Q 232.3 41.2 232.3 40.8 232.3 40.2 232.6 39.6 232.9 39.05 233.55 39.05 233.85 39.05 234.1 39.25 234.35 39.45 234.35 39.95 234.35 40.65 234 41.2 233.7 41.8 233.15 41.8 232.75 41.8 232.55 41.5
M 222.05 43
L 222.6 40.5
Q 222.75 39.75 223.1 39.45 223.45 39.15 223.75 39.15 224.15 39.15 224.15 39.55 224.15 39.65 224.1 39.8 224.1 39.95 223.9 40.85
L 223.45 43 225.45 43 225.9 40.7
Q 226.1 39.9 226.4 39.5 226.65 39.15 227.1 39.15 227.5 39.15 227.5 39.55 227.5 39.6 227.5 39.8 227.45 39.95 227.3 40.8
L 226.8 43 228.8 43 229.55 39.6
Q 229.6 39.3 229.6 39 229.6 38.45 229.25 38.1 228.9 37.7 228.2 37.7 227.65 37.7 227.2 37.9 226.75 38.05 226.2 38.6 226.05 38.15 225.65 37.95 225.3 37.7 224.8 37.7 223.75 37.7 222.9 38.6
L 222.85 38.55 223 37.8 221.15 37.8 220.05 43 222.05 43
M 209.3 38.05
Q 208.95 37.7 208.2 37.7 207.05 37.7 206.2 38.6
L 206.35 37.8 204.5 37.8 203.4 43 205.4 43 205.9 40.75
Q 206.05 40 206.4 39.55 206.7 39.15 207.15 39.15 207.55 39.15 207.55 39.6 207.55 39.7 207.35 40.6
L 206.85 43 208.85 43 209.45 40.15
Q 209.65 39.25 209.65 38.95 209.65 38.4 209.3 38.05
M 211.1 38.6
Q 210.35 39.5 210.35 40.75 210.35 41.7 210.8 42.25 211.3 42.8 212.1 42.8 212.95 42.8 213.6 42.1
L 213.65 42.15 213.45 42.9
Q 213.35 43.4 213.1 43.65 212.9 43.9 212.5 43.9 211.95 43.9 211.95 43.4
L 210.05 43.1
Q 210.05 43.2 210.05 43.35 210.05 43.9 210.4 44.35 210.75 44.8 211.25 44.95 211.7 45.1 212.6 45.1 213.9 45.1 214.55 44.6 215.2 44.15 215.5 42.7
L 216.55 37.8 214.7 37.8 214.55 38.55
Q 213.9 37.7 212.95 37.7 211.85 37.7 211.1 38.6
M 212.5 41.25
Q 212.3 41.05 212.3 40.7 212.3 40.05 212.65 39.55 212.95 39 213.4 39 213.7 39 213.9 39.25 214.1 39.45 214.1 39.75 214.1 40.3 213.8 40.9 213.55 41.45 213 41.45 212.7 41.45 212.5 41.25
M 259.6 38.95
Q 259.6 38.4 259.25 38.05 258.9 37.7 258.15 37.7 257 37.7 256.15 38.6
L 256.3 37.8 254.45 37.8 253.35 43 255.35 43 255.85 40.75
Q 256 40 256.35 39.55 256.65 39.15 257.1 39.15 257.5 39.15 257.5 39.6 257.5 39.7 257.3 40.6
L 256.8 43 258.8 43 259.4 40.15
Q 259.6 39.25 259.6 38.95
M 246.2 39.6
Q 246.25 39.3 246.25 39 246.25 38.45 245.9 38.1 245.55 37.7 244.85 37.7 244.3 37.7 243.85 37.9 243.4 38.05 242.85 38.6 242.7 38.15 242.3 37.95 241.95 37.7 241.45 37.7 240.4 37.7 239.55 38.6
L 239.5 38.55 239.65 37.8 237.8 37.8 236.7 43 238.7 43 239.25 40.5
Q 239.4 39.75 239.75 39.45 240.1 39.15 240.4 39.15 240.8 39.15 240.8 39.55 240.8 39.65 240.75 39.8 240.75 39.95 240.55 40.85
L 240.1 43 242.1 43 242.55 40.7
Q 242.75 39.9 243.05 39.5 243.3 39.15 243.75 39.15 244.15 39.15 244.15 39.55 244.15 39.6 244.15 39.8 244.1 39.95 243.95 40.8
L 243.45 43 245.45 43 246.2 39.6
M 253.05 39.9
Q 253.05 38.95 252.4 38.35 251.75 37.7 250.3 37.7 249.65 37.7 249.15 37.85 248.65 38 248.1 38.4 247.6 38.8 247.3 39.45 247 40.05 247 40.75 247 41.75 247.65 42.45 248.3 43.1 249.85 43.1 250.9 43.1 251.6 42.8 252.3 42.45 252.7 41.65
L 250.8 41.5
Q 250.45 41.95 249.9 41.95 249.05 41.95 248.95 40.9
L 252.9 40.9
Q 253.05 40.2 253.05 39.9
M 250.85 39.05
Q 251.1 39.25 251.1 39.65 251.1 39.85 251.05 39.95
L 249.15 39.95
Q 249.3 39.4 249.6 39.15 249.9 38.85 250.25 38.85 250.6 38.85 250.85 39.05
M 202.65 40.8
Q 202.95 39.7 202.95 39.2 202.95 38.45 202.4 38.1 201.85 37.7 200.35 37.7 199 37.7 198.35 38.1 197.7 38.5 197.5 39.25
L 199.35 39.45
Q 199.55 39.1 199.75 39 199.95 38.85 200.3 38.85 200.6 38.85 200.85 39 201 39.1 201 39.3 201 39.4 200.95 39.65 200.65 39.75 199.8 39.85 198.85 39.95 198.3 40.05 197.7 40.2 197.35 40.55 196.95 40.9 196.95 41.6 196.95 42.2 197.4 42.65 197.8 43.1 198.8 43.1 199.75 43.1 200.55 42.4 200.55 42.7 200.6 43
L 202.55 43
Q 202.4 42.65 202.4 42.3 202.4 41.85 202.65 40.8
M 199.5 42.05
Q 199.25 42.05 199.05 41.9 198.9 41.75 198.9 41.5 198.9 41.25 199.15 41.1 199.35 40.9 200.75 40.7 200.6 41.45 200.25 41.75 199.9 42.05 199.5 42.05
M 158.55 43
L 159.65 37.8 157.65 37.8 156.55 43 158.55 43
M 149.65 37.8
L 147.8 37.8 147.65 38.55
Q 147 37.7 146.05 37.7 144.95 37.7 144.2 38.6 143.45 39.5 143.45 40.75 143.45 41.7 143.9 42.25 144.4 42.8 145.2 42.8 146.05 42.8 146.7 42.1
L 146.75 42.15 146.55 42.9
Q 146.45 43.4 146.2 43.65 146 43.9 145.6 43.9 145.05 43.9 145.05 43.4
L 143.15 43.1
Q 143.15 43.2 143.15 43.35 143.15 43.9 143.5 44.35 143.85 44.8 144.35 44.95 144.8 45.1 145.7 45.1 147 45.1 147.65 44.6 148.3 44.15 148.6 42.7
L 149.65 37.8
M 147 39.25
Q 147.2 39.45 147.2 39.75 147.2 40.3 146.9 40.9 146.65 41.45 146.1 41.45 145.8 41.45 145.6 41.25 145.4 41.05 145.4 40.7 145.4 40.05 145.75 39.55 146.05 39 146.5 39 146.8 39 147 39.25
M 156.7 35.85
L 154.75 35.85 153.2 43 155.2 43 156.7 35.85
M 160.05 35.85
L 158.1 35.85 157.8 37.2 159.8 37.2 160.05 35.85
M 140.25 39.15
Q 140.65 39.15 140.65 39.6 140.65 39.7 140.45 40.6
L 139.95 43 141.95 43 142.55 40.15
Q 142.75 39.25 142.75 38.95 142.75 38.4 142.4 38.05 142.05 37.7 141.3 37.7 140.15 37.7 139.3 38.6
L 139.45 37.8 137.6 37.8 136.5 43 138.5 43 139 40.75
Q 139.15 40 139.5 39.55 139.8 39.15 140.25 39.15
M 190.15 43
L 192.1 43 192.4 41.65 193.45 40.8 194 43 196.25 43 194.9 39.6 197.15 37.8 194.85 37.8 192.85 39.55 193.65 35.85 191.7 35.85 190.15 43
M 188.8 43
L 189.9 37.8 187.9 37.8 186.8 43 188.8 43
M 190.3 35.85
L 188.35 35.85 188.05 37.2 190.05 37.2 190.3 35.85
M 181.7 38.1
Q 181.05 38.5 180.85 39.25
L 182.7 39.45
Q 182.9 39.1 183.1 39 183.3 38.85 183.65 38.85 183.95 38.85 184.2 39 184.35 39.1 184.35 39.3 184.35 39.4 184.3 39.65 184 39.75 183.15 39.85 182.2 39.95 181.65 40.05 181.05 40.2 180.7 40.55 180.3 40.9 180.3 41.6 180.3 42.2 180.75 42.65 181.15 43.1 182.15 43.1 183.1 43.1 183.9 42.4 183.9 42.7 183.95 43
L 185.9 43
Q 185.75 42.65 185.75 42.3 185.75 41.85 186 40.8 186.3 39.7 186.3 39.2 186.3 38.45 185.75 38.1 185.2 37.7 183.7 37.7 182.35 37.7 181.7 38.1
M 182.5 41.1
Q 182.7 40.9 184.1 40.7 183.95 41.45 183.6 41.75 183.25 42.05 182.85 42.05 182.6 42.05 182.4 41.9 182.25 41.75 182.25 41.5 182.25 41.25 182.5 41.1
M 170 39.9
Q 170 38.95 169.35 38.35 168.7 37.7 167.25 37.7 166.6 37.7 166.1 37.85 165.6 38 165.05 38.4 164.55 38.8 164.25 39.45 163.95 40.05 163.95 40.75 163.95 41.75 164.6 42.45 165.25 43.1 166.8 43.1 167.85 43.1 168.55 42.8 169.25 42.45 169.65 41.65
L 167.75 41.5
Q 167.4 41.95 166.85 41.95 166 41.95 165.9 40.9
L 169.85 40.9
Q 170 40.2 170 39.9
M 167.2 38.85
Q 167.55 38.85 167.8 39.05 168.05 39.25 168.05 39.65 168.05 39.85 168 39.95
L 166.1 39.95
Q 166.25 39.4 166.55 39.15 166.85 38.85 167.2 38.85
M 164.8 35.95
Q 163.8 35.7 163.1 35.7 162.65 35.7 162.3 35.85 162 35.95 161.75 36.15 161.55 36.4 161.45 36.65 161.35 36.9 161.2 37.8
L 160.45 37.8 160.15 39.25 160.9 39.25 160.05 43 162.05 43 162.85 39.25 163.8 39.25 164.1 37.8 163.15 37.8
Q 163.3 37.2 163.45 37.1 163.55 37 163.8 37 164.05 37 164.45 37.1
L 164.8 35.95
M 181.55 35.85
L 174.8 35.85 174.4 37.6 176.65 37.6 175.5 43 177.7 43 178.85 37.6 181.2 37.6 181.55 35.85
M 131.4 40.05
Q 130.8 40.2 130.45 40.55 130.05 40.9 130.05 41.6 130.05 42.2 130.5 42.65 130.9 43.1 131.9 43.1 132.85 43.1 133.65 42.4 133.65 42.7 133.7 43
L 135.65 43
Q 135.5 42.65 135.5 42.3 135.5 41.85 135.75 40.8 136.05 39.7 136.05 39.2 136.05 38.45 135.5 38.1 134.95 37.7 133.45 37.7 132.1 37.7 131.45 38.1 130.8 38.5 130.6 39.25
L 132.45 39.45
Q 132.65 39.1 132.85 39 133.05 38.85 133.4 38.85 133.7 38.85 133.95 39 134.1 39.1 134.1 39.3 134.1 39.4 134.05 39.65 133.75 39.75 132.9 39.85 131.95 39.95 131.4 40.05
M 133.85 40.7
Q 133.7 41.45 133.35 41.75 133 42.05 132.6 42.05 132.35 42.05 132.15 41.9 132 41.75 132 41.5 132 41.25 132.25 41.1 132.45 40.9 133.85 40.7
M 126.75 35.85
L 124.8 35.85 123.25 43 125.2 43 125.5 41.65 126.55 40.8 127.1 43 129.35 43 128 39.6 130.25 37.8 127.95 37.8 125.95 39.55 126.75 35.85
M 123.15 37.2
L 123.4 35.85 121.45 35.85 121.15 37.2 123.15 37.2
M 121.9 43
L 123 37.8 121 37.8 119.9 43 121.9 43
M 116.75 38.85
Q 117.05 38.85 117.3 39 117.45 39.1 117.45 39.3 117.45 39.4 117.4 39.65 117.1 39.75 116.25 39.85 115.3 39.95 114.75 40.05 114.15 40.2 113.8 40.55 113.4 40.9 113.4 41.6 113.4 42.2 113.85 42.65 114.25 43.1 115.25 43.1 116.2 43.1 117 42.4 117 42.7 117.05 43
L 119 43
Q 118.85 42.65 118.85 42.3 118.85 41.85 119.1 40.8 119.4 39.7 119.4 39.2 119.4 38.45 118.85 38.1 118.3 37.7 116.8 37.7 115.45 37.7 114.8 38.1 114.15 38.5 113.95 39.25
L 115.8 39.45
Q 116 39.1 116.2 39 116.4 38.85 116.75 38.85
M 117.2 40.7
Q 117.05 41.45 116.7 41.75 116.35 42.05 115.95 42.05 115.7 42.05 115.5 41.9 115.35 41.75 115.35 41.5 115.35 41.25 115.6 41.1 115.8 40.9 117.2 40.7
M 114.65 35.85
L 107.9 35.85 107.5 37.6 109.75 37.6 108.6 43 110.8 43 111.95 37.6 114.3 37.6 114.65 35.85
M 191.3 9.45
L 187.9 9.45 178.8 18.05 178.05 21.35 185.35 21.35 184.75 24 188.2 24 188.75 21.35 190.6 21.35 191.25 18.25 189.4 18.25 191.3 9.45
M 186.95 13.75
L 187 13.8 186 18.25 182.15 18.25 186.95 13.75
M 176.7 9.45
L 173.3 9.45
Q 171.2 11.55 168.05 12.9
L 167.3 16.3
Q 169.8 15.7 171.6 14.6
L 169.55 24 173.55 24 176.7 9.45
M 163.8 19.45
Q 164.7 17.2 164.7 14.9 164.7 12.25 163.15 10.85 161.55 9.45 159.4 9.45 157.35 9.45 155.75 10.7 154.15 12 153.25 14.2 152.4 16.35 152.4 18.4 152.4 21.25 153.75 22.75 155.1 24.25 157.35 24.25 159.55 24.25 161.2 22.95 162.85 21.7 163.8 19.45
M 160.85 14.1
Q 160.85 15.3 160.5 17.25 160.1 19.2 159.4 20.4 158.7 21.55 157.75 21.55 156.2 21.55 156.2 19.45
L 156.2 19.4
Q 156.2 18.25 156.6 16.35 156.95 14.45 157.7 13.3 158.4 12.1 159.35 12.1 160.1 12.1 160.5 12.65 160.85 13.2 160.85 14.1
M 149.95 10.55
Q 148.7 9.45 146.1 9.45 143.6 9.45 142.05 10.5 140.5 11.6 140.15 13.7
L 144.05 14.25
Q 144.45 12.1 145.85 12.1 146.4 12.1 146.9 12.5 147.35 12.85 147.35 13.6 147.35 14.1 147 14.65 146.6 15.2 145.7 15.9
L 144.2 16.95
Q 141.8 18.7 140.5 20.25 139.2 21.8 138.8 24
L 149.75 24 150.45 20.75 144.8 20.75
Q 145.4 20.1 145.8 19.75 146.25 19.4 147.6 18.45 149.6 17.1 150.4 15.9 151.25 14.7 151.25 13.4 151.25 11.7 149.95 10.55
M 131.8 9.7
L 127.65 9.7 125.85 18 125.8 18 122.25 9.7 118.15 9.7 115.05 24 119.2 24 121 15.7 121.05 15.7 124.55 24 128.7 24 131.8 9.7
M 115 9.7
L 110.55 9.7 107.45 24 111.95 24 115 9.7 Z"/>
</g>
</defs>

<g transform="matrix( 1, 0, 0, 1, 0,0) ">
<use xlink:href="#Layer1_0_FILL"/>
</g>

<g transform="matrix( 10.800430297851562, 0, 0, 10.800430297851562, 5.5,4.55) ">
<g transform="matrix( 1, 0, 0, 1, 0,0) ">
<use xlink:href="#pop_0_Layer5_0_FILL"/>
</g>

<g transform="matrix( 1, 0, 0, 1, 0,0) ">
<use xlink:href="#pop_0_Layer4_0_FILL"/>
</g>

<g transform="matrix( 1, 0, 0, 1, 0,0) ">
<use xlink:href="#pop_0_Layer3_0_FILL"/>
</g>

<g transform="matrix( 1, 0, 0, 1, 0,0) ">
<use xlink:href="#pop_0_Layer2_0_FILL"/>
</g>

<g transform="matrix( 1, 0, 0, 1, 0,0) ">
<use xlink:href="#pop_0_Layer1_0_FILL"/>
</g>

<g transform="matrix( 1, 0, 0, 1, 0,0) ">
<use xlink:href="#pop_0_Layer0_0_FILL"/>
</g>
</g>

<g transform="matrix( 1, 0, 0, 1, 0,0) ">
<use xlink:href="#Layer1_1_MEMBER_1_FILL"/>
</g>

<g transform="matrix( 1, 0, 0, 1, 0,0) ">
<use xlink:href="#Layer1_1_MEMBER_1_MEMBER_0_FILL"/>
</g>

<g transform="matrix( 1, 0, 0, 1, 0,0) ">
<use xlink:href="#Layer1_1_MEMBER_1_MEMBER_1_FILL"/>
</g>

<g transform="matrix( 1, 0, 0, 1, 0,0) ">
<use xlink:href="#Layer0_0_FILL"/>
</g>
</svg>
