
<svg xmlns="http://www.w3.org/2000/svg" version="1.1" xmlns:xlink="http://www.w3.org/1999/xlink" preserveAspectRatio="none" x="0px" y="0px" width="300px" height="100px" viewBox="0 0 300 100">
<defs>
<g id="Layer1_0_FILL">
<path fill="#000000" fill-opacity="0.5019607843137255" stroke="none" d="
M 300 49.2
Q 300 28.8 285.55 14.4 271.2 0 250.8 0
L 49.2 0
Q 28.8 0 14.35 14.4 0 28.8 0 49.2 0 69.6 14.35 84 28.8 98.4 49.2 98.4
L 127.95 98.4
Q 128.15 98.5 128.4 98.5 128.6650390625 98.5 128.9 98.4
L 250.8 98.4
Q 271.2 98.4 285.55 84 300 69.6 300 49.2 Z"/>
</g>

<g id="pop_0_Layer5_0_FILL">
<path fill="#0C0A80" fill-opacity="0.2" stroke="none" d="
M 7.25 6.1
Q 7.75 5.2 7.85 4.45 7.85 4.3 7.85 4 7.7 2.15 6.05 1.6 4.15 1.1 3 2.6 1.9 4.15 3.45 5.9 4.7 7.3 2.95 7.8 3.1 7.95 3.7 7.95 3.75 7.95 3.85 7.95 4.5 8 5.5 7.6 6.7 7 7.25 6.1 Z"/>
</g>

<g id="pop_0_Layer4_0_FILL">
<path fill="#0C0A80" fill-opacity="0.2" stroke="none" d="
M 4.85 5.25
Q 4.85 4.4 4.25 3.75 3.65 3.15 2.8 3.15 1.95 3.15 1.35 3.75 0.7 4.4 0.7 5.25 0.7 6.1 1.35 6.7 1.95 7.3 2.8 7.3 3.65 7.3 4.25 6.7 4.85 6.1 4.85 5.25 Z"/>
</g>

<g id="pop_0_Layer3_0_FILL">
<path fill="#0C0A80" fill-opacity="0.2" stroke="none" d="
M 7.05 2.25
Q 7.05 1.6 6.6 1.15 6.15 0.7 5.5 0.7 4.85 0.7 4.4 1.15 3.95 1.6 3.95 2.25 3.95 2.9 4.4 3.35 4.85 3.8 5.5 3.8 6.15 3.8 6.6 3.35 7.05 2.9 7.05 2.25 Z"/>
</g>

<g id="pop_0_Layer2_0_FILL">
<path fill="#FFFFFF" fill-opacity="0.30196078431372547" stroke="none" d="
M 8.2 4.1
Q 8.2 2.4 7 1.2 5.8 0 4.1 0 2.4 0 1.2 1.2 0 2.4 0 4.1 0 5.8 1.2 7 2.4 8.2 4.1 8.2 5.8 8.2 7 7 8.2 5.8 8.2 4.1 Z"/>
</g>

<g id="pop_0_Layer1_0_FILL">
<path fill="#FFFFFF" fill-opacity="0.5019607843137255" stroke="none" d="
M 2.1 6.2
Q 3.7 5.95 2.65 3.7 1.9 1.2 4.2 0.3 3.65 0.35 3 0.55 1.7 1.1 1.1 1.9 0.5 2.75 0.4 3.5 0.35 3.65 0.35 3.95 0.4 6.2 2.1 6.2 Z"/>
</g>

<g id="pop_0_Layer0_0_FILL">
<path fill="#FFFFFF" fill-opacity="0.5019607843137255" stroke="none" d="
M 6.9 1.85
Q 6.9 1.45 6.65 1.2 6.35 0.9 6 0.9 5.6 0.9 5.35 1.2 5.05 1.45 5.05 1.85 5.05 2.2 5.35 2.5 5.6 2.75 6 2.75 6.35 2.75 6.65 2.5 6.9 2.2 6.9 1.85 Z"/>
</g>

<g id="Layer1_1_MEMBER_1_FILL">
<path fill="#FFFFFF" stroke="none" d="
M 72.85 24.2
Q 72.85 24.15 72.85 24.05 72.85 22.95 72 22.1 71.15 21.25 70.05 21.25
L 28.6 21.25
Q 27.4 21.25 26.65 22.1 26.6 22.1 26.6 22.15 25.8 23 25.8 24.05 25.8 24.15 25.8 24.2 25.8 24.85 25.85 25.55 25.85 25.7 25.85 25.9 23.85 26.8 22.2 28.5 18.4 32.3 18.4 37.6 18.4 42.85 22.2 46.6
L 22.2 46.65
Q 25.95 50.4 31.25 50.4 32.6 50.4 33.95 50.15
L 34 50.2
Q 37.8 55 42.4 57 43.45 60.3 43.75 64.05 41.85 67.25 39.3 70.05 38.2 71.25 36.9 72.4
L 36.85 72.45
Q 36.8 72.45 36.8 72.5 35.9 73.05 35.7 74.1 35 77.1 34.25 80.05 34.2 80.15 34.2 80.25 34.1 80.9 34.3 81.6 34.35 81.7 34.4 81.8 34.65 82.5 35.4 83.05
L 35.45 83.05
Q 36.1 83.5 36.95 83.5
L 61.7 83.5
Q 62.45 83.5 63.15 83.1 63.2 83.05 63.3 83.05 64 82.5 64.3 81.8 64.3 81.7 64.35 81.6 64.55 80.8 64.35 80.05 63.65 77.2 62.95 74.25 62.8 73.1 61.95 72.5 61.8 72.4 61.65 72.35 60.35 71.2 59.3 70.05 56.75 67.25 55 64 55.15 60.35 56.25 57 60.8 55.05 64.7 50.3 64.7 50.25 64.75 50.2 65.95 50.4 67.2 50.4 72.45 50.4 76.25 46.6 80 42.85 80 37.6 80 32.3 76.3 28.5 74.7 26.85 72.85 26 72.85 25.7 72.85 25.4 72.85 25.35 72.85 25.3 72.85 24.75 72.85 24.2 Z"/>
</g>

<g id="Layer1_1_MEMBER_1_MEMBER_0_FILL">
<path fill="#7B4B11" stroke="none" d="
M 60.25 74.7
L 60.2 74.7 49.2 74.7 49.2 80.7 61.7 80.7
Q 60.95 77.75 60.25 74.7 Z"/>

<path fill="#9F631B" stroke="none" d="
M 38.4 74.7
Q 37.7 77.75 36.95 80.7
L 49.2 80.7 49.2 74.7 38.45 74.7 38.4 74.7
M 70.05 24.2
Q 70.05 24.15 70.05 24.05
L 49.2 24.05 49.2 74.7 60.2 74.7
Q 58.6 73.35 57.3 71.9 54.2 68.6 52.1 64.65 52.3 59.45 54 54.9
L 53.9 54.9
Q 58.6 53.35 62.5 48.5 63.05 47.8 63.6 47 65.25 47.6 67.2 47.6 71.35 47.6 74.3 44.65 77.25 41.75 77.25 37.6 77.25 33.4 74.3 30.45 72.35 28.55 69.95 27.9 70 26.6 70.05 25.3 70.05 24.75 70.05 24.2
M 67.2 44.65
Q 66.15 44.65 65.2 44.4 68.6 38.4 69.65 30.9 71.05 31.45 72.2 32.55 74.35 34.65 74.35 37.6 74.35 40.55 72.2 42.6 70.2 44.65 67.2 44.65 Z"/>

<path fill="#D08D3D" stroke="none" d="
M 28.6 24.05
Q 28.6 24.15 28.6 24.2 28.6 24.75 28.6 25.3 28.6 26.55 28.7 27.85 26.15 28.45 24.15 30.45 21.2 33.4 21.2 37.6 21.2 41.75 24.15 44.65 27.1 47.6 31.25 47.6 33.25 47.6 35.05 46.95 35.55 47.7 36.15 48.45 40 53.35 44.75 54.9
L 44.65 54.9
Q 46.3 59.45 46.5 64.65 44.45 68.6 41.35 71.9 40.05 73.35 38.45 74.7
L 49.2 74.7 49.2 24.05 28.6 24.05
M 26.2 32.55
Q 27.45 31.3 29 30.85 30.05 38.35 33.45 44.35 32.4 44.65 31.25 44.65 28.3 44.65 26.2 42.6 24.15 40.55 24.15 37.6 24.15 34.65 26.2 32.55 Z"/>
</g>

<g id="Layer0_0_FILL">
<path fill="#FFFFFF" stroke="none" d="
M 239.25 67.55
L 237.3 67.55 235.75 74.7 237.75 74.7 239.25 67.55
M 232.65 69.4
Q 231.3 69.4 230.65 69.8 230 70.2 229.8 70.95
L 231.65 71.15
Q 231.85 70.8 232.05 70.7 232.25 70.55 232.6 70.55 232.9 70.55 233.15 70.7 233.3 70.8 233.3 71 233.3 71.1 233.25 71.35 232.95 71.45 232.1 71.55 231.15 71.65 230.6 71.75 230 71.9 229.65 72.25 229.25 72.6 229.25 73.3 229.25 73.9 229.7 74.35 230.1 74.8 231.1 74.8 232.05 74.8 232.85 74.1 232.85 74.4 232.9 74.7
L 234.85 74.7
Q 234.7 74.35 234.7 74 234.7 73.55 234.95 72.5 235.25 71.4 235.25 70.9 235.25 70.15 234.7 69.8 234.15 69.4 232.65 69.4
M 231.2 73.2
Q 231.2 72.95 231.45 72.8 231.65 72.6 233.05 72.4 232.9 73.15 232.55 73.45 232.2 73.75 231.8 73.75 231.55 73.75 231.35 73.6 231.2 73.45 231.2 73.2
M 225.15 69.4
Q 224.1 69.4 223.4 70.35 222.7 71.35 222.7 72.65 222.7 73.65 223.15 74.25 223.65 74.8 224.5 74.8 225 74.8 225.3 74.7 225.65 74.55 226.1 74.15
L 226.1 74.2 226 74.7 227.85 74.7 229.4 67.55 227.4 67.55 226.8 70.2
Q 226.25 69.4 225.15 69.4
M 225.7 70.75
Q 226 70.75 226.25 70.95 226.45 71.2 226.45 71.65 226.45 72.3 226.15 72.9 225.85 73.5 225.3 73.5 225 73.5 224.85 73.3 224.65 73.05 224.65 72.6 224.65 71.85 224.95 71.3 225.25 70.75 225.7 70.75
M 217.15 70.1
Q 216.65 70.5 216.35 71.15 216.05 71.75 216.05 72.45 216.05 73.45 216.7 74.15 217.35 74.8 218.9 74.8 219.95 74.8 220.65 74.5 221.35 74.15 221.75 73.35
L 219.85 73.2
Q 219.5 73.65 218.95 73.65 218.1 73.65 218 72.6
L 221.95 72.6
Q 222.1 71.9 222.1 71.6 222.1 70.65 221.45 70.05 220.8 69.4 219.35 69.4 218.7 69.4 218.2 69.55 217.7 69.7 217.15 70.1
M 219.3 70.55
Q 219.65 70.55 219.9 70.75 220.15 70.95 220.15 71.35 220.15 71.55 220.1 71.65
L 218.2 71.65
Q 218.35 71.1 218.65 70.85 218.95 70.55 219.3 70.55
M 211.9 70.3
Q 211.75 69.85 211.35 69.65 211 69.4 210.5 69.4 209.45 69.4 208.6 70.3
L 208.55 70.25 208.7 69.5 206.85 69.5 205.75 74.7 207.75 74.7 208.3 72.2
Q 208.45 71.45 208.8 71.15 209.15 70.85 209.45 70.85 209.85 70.85 209.85 71.25 209.85 71.35 209.8 71.5 209.8 71.65 209.6 72.55
L 209.15 74.7 211.15 74.7 211.6 72.4
Q 211.8 71.6 212.1 71.2 212.35 70.85 212.8 70.85 213.2 70.85 213.2 71.25 213.2 71.3 213.2 71.5 213.15 71.65 213 72.5
L 212.5 74.7 214.5 74.7 215.25 71.3
Q 215.3 71 215.3 70.7 215.3 70.15 214.95 69.8 214.6 69.4 213.9 69.4 213.35 69.4 212.9 69.6 212.45 69.75 211.9 70.3
M 196.05 72.45
Q 196.05 73.45 196.7 74.15 197.35 74.8 198.9 74.8 199.95 74.8 200.65 74.5 201.35 74.15 201.75 73.35
L 199.85 73.2
Q 199.5 73.65 198.95 73.65 198.1 73.65 198 72.6
L 201.95 72.6
Q 202.1 71.9 202.1 71.6 202.1 70.65 201.45 70.05 200.8 69.4 199.35 69.4 198.7 69.4 198.2 69.55 197.7 69.7 197.15 70.1 196.65 70.5 196.35 71.15 196.05 71.75 196.05 72.45
M 198.65 70.85
Q 198.95 70.55 199.3 70.55 199.65 70.55 199.9 70.75 200.15 70.95 200.15 71.35 200.15 71.55 200.1 71.65
L 198.2 71.65
Q 198.35 71.1 198.65 70.85
M 155.6 69.5
L 153.6 69.5 152.5 74.7 154.5 74.7 155.6 69.5
M 156 67.55
L 154.05 67.55 153.75 68.9 155.75 68.9 156 67.55
M 143.75 71.65
L 144.1 70.2 140.6 70.2 140.8 69.1 144.45 69.1 144.8 67.55 138.95 67.55 137.4 74.7 143.55 74.7 143.9 73.05 139.95 73.05 140.25 71.65 143.75 71.65
M 147.75 67.4
Q 147.3 67.4 146.95 67.55 146.65 67.65 146.4 67.85 146.2 68.1 146.1 68.35 146 68.6 145.85 69.5
L 145.1 69.5 144.8 70.95 145.55 70.95 144.7 74.7 146.7 74.7 147.5 70.95 148.45 70.95 148.75 69.5 147.8 69.5
Q 147.95 68.9 148.1 68.8 148.2 68.7 148.45 68.7 148.7 68.7 149.1 68.8
L 149.45 67.65
Q 148.45 67.4 147.75 67.4
M 151.8 67.4
Q 151.35 67.4 151 67.55 150.7 67.65 150.45 67.85 150.25 68.1 150.15 68.35 150.05 68.6 149.9 69.5
L 149.15 69.5 148.85 70.95 149.6 70.95 148.75 74.7 150.75 74.7 151.55 70.95 152.5 70.95 152.8 69.5 151.85 69.5
Q 152 68.9 152.15 68.8 152.25 68.7 152.5 68.7 152.75 68.7 153.15 68.8
L 153.5 67.65
Q 152.5 67.4 151.8 67.4
M 176.8 69.4
Q 176.35 69.4 176 69.65 175.65 69.85 175.2 70.55
L 175.4 69.5 173.55 69.5 172.45 74.7 174.45 74.7 174.85 72.75
Q 175.05 71.85 175.4 71.45 175.75 71.05 176.35 71.05 176.5 71.05 176.75 71.1
L 177.45 69.55
Q 177.1 69.4 176.8 69.4
M 162 72.6
Q 162.15 71.9 162.15 71.6 162.15 70.65 161.5 70.05 160.85 69.4 159.4 69.4 158.75 69.4 158.25 69.55 157.75 69.7 157.2 70.1 156.7 70.5 156.4 71.15 156.1 71.75 156.1 72.45 156.1 73.45 156.75 74.15 157.4 74.8 158.95 74.8 160 74.8 160.7 74.5 161.4 74.15 161.8 73.35
L 159.9 73.2
Q 159.55 73.65 159 73.65 158.15 73.65 158.05 72.6
L 162 72.6
M 158.7 70.85
Q 159 70.55 159.35 70.55 159.7 70.55 159.95 70.75 160.2 70.95 160.2 71.35 160.2 71.55 160.15 71.65
L 158.25 71.65
Q 158.4 71.1 158.7 70.85
M 169.3 67.55
L 167.3 67.55 165.8 74.7 167.65 74.7 167.85 73.85
Q 168.4 74.8 169.55 74.8 170.7 74.8 171.35 73.8 172.05 72.8 172.05 71.55 172.05 70.6 171.6 70 171.15 69.4 170.25 69.4 169.75 69.4 169.45 69.5 169.15 69.65 168.8 69.9
L 169.3 67.55
M 168.3 72.55
Q 168.3 71.85 168.6 71.3 168.9 70.7 169.4 70.7 170.1 70.7 170.1 71.6 170.1 72.4 169.8 72.95 169.5 73.5 169.05 73.5 168.75 73.5 168.5 73.25 168.3 73 168.3 72.55
M 191.25 69.5
L 190.95 70.9 193.25 70.9 190.4 73.55 190.15 74.7 195 74.7 195.3 73.35 192.8 73.35 195.6 70.7 195.85 69.5 191.25 69.5
M 182.85 73.2
Q 183.25 72.45 183.25 71.75 183.25 70.8 182.6 70.1 181.95 69.4 180.55 69.4 179.55 69.4 178.8 69.8 178.05 70.25 177.7 70.95 177.3 71.7 177.3 72.5 177.3 73.5 177.95 74.15 178.6 74.8 179.95 74.8 181.05 74.8 181.75 74.4 182.5 73.95 182.85 73.2
M 180.5 70.75
Q 180.8 70.75 181.05 70.95 181.3 71.15 181.3 71.65 181.3 72.35 180.95 72.9 180.65 73.5 180.1 73.5 179.7 73.5 179.5 73.2 179.25 72.9 179.25 72.5 179.25 71.9 179.55 71.3 179.85 70.75 180.5 70.75
M 186.15 72.45
Q 186.3 71.7 186.65 71.25 186.95 70.85 187.4 70.85 187.8 70.85 187.8 71.3 187.8 71.4 187.6 72.3
L 187.1 74.7 189.1 74.7 189.7 71.85
Q 189.9 70.95 189.9 70.65 189.9 70.1 189.55 69.75 189.2 69.4 188.45 69.4 187.3 69.4 186.45 70.3
L 186.6 69.5 184.75 69.5 183.65 74.7 185.65 74.7 186.15 72.45
M 131.4 70.7
Q 131.55 70.8 131.55 71 131.55 71.1 131.5 71.35 131.2 71.45 130.35 71.55 129.4 71.65 128.85 71.75 128.25 71.9 127.9 72.25 127.5 72.6 127.5 73.3 127.5 73.9 127.95 74.35 128.35 74.8 129.35 74.8 130.3 74.8 131.1 74.1 131.1 74.4 131.15 74.7
L 133.1 74.7
Q 132.95 74.35 132.95 74 132.95 73.55 133.2 72.5 133.5 71.4 133.5 70.9 133.5 70.15 132.95 69.8 132.4 69.4 130.9 69.4 129.55 69.4 128.9 69.8 128.25 70.2 128.05 70.95
L 129.9 71.15
Q 130.1 70.8 130.3 70.7 130.5 70.55 130.85 70.55 131.15 70.55 131.4 70.7
M 129.7 72.8
Q 129.9 72.6 131.3 72.4 131.15 73.15 130.8 73.45 130.45 73.75 130.05 73.75 129.8 73.75 129.6 73.6 129.45 73.45 129.45 73.2 129.45 72.95 129.7 72.8
M 123.45 70.3
L 123.6 69.5 121.75 69.5 120.65 74.7 122.65 74.7 123.15 72.45
Q 123.3 71.7 123.65 71.25 123.95 70.85 124.4 70.85 124.8 70.85 124.8 71.3 124.8 71.4 124.6 72.3
L 124.1 74.7 126.1 74.7 126.7 71.85
Q 126.9 70.95 126.9 70.65 126.9 70.1 126.55 69.75 126.2 69.4 125.45 69.4 124.3 69.4 123.45 70.3
M 120.45 69.5
L 118.45 69.5 117.35 74.7 119.35 74.7 120.45 69.5
M 114.2 67.55
L 112.2 67.55 110.65 74.7 112.65 74.7 113.15 72.45
Q 113.3 71.7 113.65 71.25 113.95 70.85 114.4 70.85 114.8 70.85 114.8 71.3 114.8 71.4 114.6 72.3
L 114.1 74.7 116.1 74.7 116.7 71.85
Q 116.9 70.95 116.9 70.65 116.9 70.1 116.55 69.75 116.2 69.4 115.5 69.4 114.35 69.4 113.65 70.15
L 113.6 70.15 114.2 67.55
M 120.85 67.55
L 118.9 67.55 118.6 68.9 120.6 68.9 120.85 67.55
M 103.95 69.7
Q 103.45 70.75 103.45 71.8 103.45 73.15 104.25 74 105.05 74.8 106.6 74.8 108.1 74.8 109.05 74.05 109.95 73.3 110.3 72.2
L 108.2 71.9
Q 107.95 72.55 107.6 72.85 107.25 73.2 106.75 73.2 106.2 73.2 105.9 72.85 105.6 72.45 105.6 71.95 105.6 71.25 105.9 70.5 106.15 69.75 106.65 69.4 107.1 69.05 107.6 69.05 107.95 69.05 108.3 69.3 108.6 69.55 108.6 70.1
L 110.6 69.9
Q 110.5 68.8 109.7 68.1 108.95 67.4 107.6 67.4 106.3 67.4 105.35 68.05 104.4 68.65 103.95 69.7
M 217.9 58.85
L 219 53.65 217 53.65 215.9 58.85 217.9 58.85
M 215.65 53.65
L 213.65 53.65 212.65 58.4
Q 212.5 59.1 212.35 59.25 212.2 59.4 211.85 59.4 211.6 59.4 211.35 59.35
L 211.05 60.75
Q 211.8 60.95 212.45 60.95 213.2 60.95 213.6 60.7 214 60.45 214.2 60 214.4 59.55 214.55 58.85
L 215.65 53.65
M 215.8 53.05
L 216.05 51.7 214.1 51.7 213.8 53.05 215.8 53.05
M 219.15 53.05
L 219.4 51.7 217.45 51.7 217.15 53.05 219.15 53.05
M 225.1 53.9
Q 224.75 53.55 224 53.55 222.85 53.55 222 54.45
L 222.15 53.65 220.3 53.65 219.2 58.85 221.2 58.85 221.7 56.6
Q 221.85 55.85 222.2 55.4 222.5 55 222.95 55 223.35 55 223.35 55.45 223.35 55.55 223.15 56.45
L 222.65 58.85 224.65 58.85 225.25 56
Q 225.45 55.1 225.45 54.8 225.45 54.25 225.1 53.9
M 232.35 53.65
L 230.5 53.65 230.35 54.4
Q 229.7 53.55 228.75 53.55 227.65 53.55 226.9 54.45 226.15 55.35 226.15 56.6 226.15 57.55 226.6 58.1 227.1 58.65 227.9 58.65 228.75 58.65 229.4 57.95
L 229.45 58 229.25 58.75
Q 229.15 59.25 228.9 59.5 228.7 59.75 228.3 59.75 227.75 59.75 227.75 59.25
L 225.85 58.95
Q 225.85 59.05 225.85 59.2 225.85 59.75 226.2 60.2 226.55 60.65 227.05 60.8 227.5 60.95 228.4 60.95 229.7 60.95 230.35 60.45 231 60 231.3 58.55
L 232.35 53.65
M 228.45 55.4
Q 228.75 54.85 229.2 54.85 229.5 54.85 229.7 55.1 229.9 55.3 229.9 55.6 229.9 56.15 229.6 56.75 229.35 57.3 228.8 57.3 228.5 57.3 228.3 57.1 228.1 56.9 228.1 56.55 228.1 55.9 228.45 55.4
M 154.95 51.7
L 153 51.7 152.7 53.05 154.7 53.05 154.95 51.7
M 154.55 53.65
L 152.55 53.65 151.45 58.85 153.45 58.85 154.55 53.65
M 157.85 55.1
L 158.9 55.1 159.2 53.65 158.15 53.65 158.55 51.75 156.35 52.85 156.2 53.65 155.45 53.65 155.15 55.1 155.85 55.1 155.5 56.85
Q 155.35 57.55 155.35 57.7 155.35 58.15 155.7 58.55 156.05 58.95 156.9 58.95 157.3 58.95 158.2 58.85
L 158.5 57.45
Q 158.05 57.5 157.9 57.5 157.45 57.5 157.45 57.15 157.45 57.05 157.45 56.9
L 157.85 55.1
M 210.35 54.4
Q 209.7 53.55 208.75 53.55 207.65 53.55 206.9 54.45 206.15 55.35 206.15 56.6 206.15 57.55 206.6 58.1 207.1 58.65 207.9 58.65 208.75 58.65 209.4 57.95
L 209.45 58 209.25 58.75
Q 209.15 59.25 208.9 59.5 208.7 59.75 208.3 59.75 207.75 59.75 207.75 59.25
L 205.85 58.95
Q 205.85 59.05 205.85 59.2 205.85 59.75 206.2 60.2 206.55 60.65 207.05 60.8 207.5 60.95 208.4 60.95 209.7 60.95 210.35 60.45 211 60 211.3 58.55
L 212.35 53.65 210.5 53.65 210.35 54.4
M 209.7 55.1
Q 209.9 55.3 209.9 55.6 209.9 56.15 209.6 56.75 209.35 57.3 208.8 57.3 208.5 57.3 208.3 57.1 208.1 56.9 208.1 56.55 208.1 55.9 208.45 55.4 208.75 54.85 209.2 54.85 209.5 54.85 209.7 55.1
M 162.2 54.3
L 162.15 54.3 162.75 51.7 160.75 51.7 159.2 58.85 161.2 58.85 161.7 56.6
Q 161.85 55.85 162.2 55.4 162.5 55 162.95 55 163.35 55 163.35 55.45 163.35 55.55 163.15 56.45
L 162.65 58.85 164.65 58.85 165.25 56
Q 165.45 55.1 165.45 54.8 165.45 54.25 165.1 53.9 164.75 53.55 164.05 53.55 162.9 53.55 162.2 54.3
M 176.2 57.75
Q 176.2 58.25 176.55 58.6 176.9 58.95 177.6 58.95 178.8 58.95 179.6 58.05
L 179.45 58.85 181.3 58.85 182.4 53.65 180.4 53.65 179.95 55.9
Q 179.75 56.7 179.45 57.1 179.1 57.5 178.65 57.5 178.3 57.5 178.3 57.1
L 178.3 57.05
Q 178.3 56.95 178.3 56.85 178.3 56.75 178.45 56.2
L 179 53.65 177 53.65 176.4 56.45
Q 176.2 57.4 176.2 57.75
M 175.7 53.65
L 173.85 53.65 173.7 54.4
Q 173.05 53.55 172.1 53.55 171 53.55 170.25 54.45 169.5 55.35 169.5 56.6 169.5 57.55 169.95 58.1 170.45 58.65 171.25 58.65 172.1 58.65 172.75 57.95
L 172.8 58 172.6 58.75
Q 172.5 59.25 172.25 59.5 172.05 59.75 171.65 59.75 171.1 59.75 171.1 59.25
L 169.2 58.95
Q 169.2 59.05 169.2 59.2 169.2 59.75 169.55 60.2 169.9 60.65 170.4 60.8 170.85 60.95 171.75 60.95 173.05 60.95 173.7 60.45 174.35 60 174.65 58.55
L 175.7 53.65
M 173.05 55.1
Q 173.25 55.3 173.25 55.6 173.25 56.15 172.95 56.75 172.7 57.3 172.15 57.3 171.85 57.3 171.65 57.1 171.45 56.9 171.45 56.55 171.45 55.9 171.8 55.4 172.1 54.85 172.55 54.85 172.85 54.85 173.05 55.1
M 184.3 53.95
Q 183.55 54.4 183.2 55.1 182.8 55.85 182.8 56.65 182.8 57.65 183.45 58.3 184.1 58.95 185.45 58.95 186.55 58.95 187.25 58.55 188 58.1 188.35 57.35 188.75 56.6 188.75 55.9 188.75 54.95 188.1 54.25 187.45 53.55 186.05 53.55 185.05 53.55 184.3 53.95
M 186 54.9
Q 186.3 54.9 186.55 55.1 186.8 55.3 186.8 55.8 186.8 56.5 186.45 57.05 186.15 57.65 185.6 57.65 185.2 57.65 185 57.35 184.75 57.05 184.75 56.65 184.75 56.05 185.05 55.45 185.35 54.9 186 54.9
M 197.9 58.85
L 199 53.65 197 53.65 195.9 58.85 197.9 58.85
M 195.8 53.05
L 196.05 51.7 194.1 51.7 193.8 53.05 195.8 53.05
M 195.65 53.65
L 193.65 53.65 192.65 58.4
Q 192.5 59.1 192.35 59.25 192.2 59.4 191.85 59.4 191.6 59.4 191.35 59.35
L 191.05 60.75
Q 191.8 60.95 192.45 60.95 193.2 60.95 193.6 60.7 194 60.45 194.2 60 194.4 59.55 194.55 58.85
L 195.65 53.65
M 199.4 51.7
L 197.45 51.7 197.15 53.05 199.15 53.05 199.4 51.7
M 202 54.45
L 202.15 53.65 200.3 53.65 199.2 58.85 201.2 58.85 201.7 56.6
Q 201.85 55.85 202.2 55.4 202.5 55 202.95 55 203.35 55 203.35 55.45 203.35 55.55 203.15 56.45
L 202.65 58.85 204.65 58.85 205.25 56
Q 205.45 55.1 205.45 54.8 205.45 54.25 205.1 53.9 204.75 53.55 204 53.55 202.85 53.55 202 54.45
M 132.35 53.7
Q 132 53.55 131.7 53.55 131.25 53.55 130.9 53.8 130.55 54 130.1 54.7
L 130.3 53.65 128.45 53.65 127.35 58.85 129.35 58.85 129.75 56.9
Q 129.95 56 130.3 55.6 130.65 55.2 131.25 55.2 131.4 55.2 131.65 55.25
L 132.35 53.7
M 138.95 51.7
L 136.95 51.7 136.35 54.35
Q 135.8 53.55 134.7 53.55 133.65 53.55 132.95 54.5 132.25 55.5 132.25 56.8 132.25 57.8 132.7 58.4 133.2 58.95 134.05 58.95 134.55 58.95 134.85 58.85 135.2 58.7 135.65 58.3
L 135.65 58.35 135.55 58.85 137.4 58.85 138.95 51.7
M 135.25 54.9
Q 135.55 54.9 135.8 55.1 136 55.35 136 55.8 136 56.45 135.7 57.05 135.4 57.65 134.85 57.65 134.55 57.65 134.4 57.45 134.2 57.2 134.2 56.75 134.2 56 134.5 55.45 134.8 54.9 135.25 54.9
M 151.75 53.65
L 149.7 53.65 148.3 56.9 148.25 56.9 148 53.65 146.2 53.65 144.4 56.95 144.35 56.95 144.2 53.65 142.4 53.65 143.2 58.85 144.95 58.85 146.7 55.75 147.05 58.85 148.8 58.85 151.75 53.65
M 107.85 53.7
Q 107.5 53.55 107.2 53.55 106.75 53.55 106.4 53.8 106.05 54 105.6 54.7
L 105.8 53.65 103.95 53.65 102.85 58.85 104.85 58.85 105.25 56.9
Q 105.45 56 105.8 55.6 106.15 55.2 106.75 55.2 106.9 55.2 107.15 55.25
L 107.85 53.7
M 121.4 55.1
Q 121 55.85 121 56.65 121 57.65 121.65 58.3 122.3 58.95 123.65 58.95 124.75 58.95 125.45 58.55 126.2 58.1 126.55 57.35 126.95 56.6 126.95 55.9 126.95 54.95 126.3 54.25 125.65 53.55 124.25 53.55 123.25 53.55 122.5 53.95 121.75 54.4 121.4 55.1
M 123.25 55.45
Q 123.55 54.9 124.2 54.9 124.5 54.9 124.75 55.1 125 55.3 125 55.8 125 56.5 124.65 57.05 124.35 57.65 123.8 57.65 123.4 57.65 123.2 57.35 122.95 57.05 122.95 56.65 122.95 56.05 123.25 55.45
M 112.3 58.65
Q 113 58.3 113.4 57.5
L 111.5 57.35
Q 111.15 57.8 110.6 57.8 109.75 57.8 109.65 56.75
L 113.6 56.75
Q 113.75 56.05 113.75 55.75 113.75 54.8 113.1 54.2 112.45 53.55 111 53.55 110.35 53.55 109.85 53.7 109.35 53.85 108.8 54.25 108.3 54.65 108 55.3 107.7 55.9 107.7 56.6 107.7 57.6 108.35 58.3 109 58.95 110.55 58.95 111.6 58.95 112.3 58.65
M 111.55 54.9
Q 111.8 55.1 111.8 55.5 111.8 55.7 111.75 55.8
L 109.85 55.8
Q 110 55.25 110.3 55 110.6 54.7 110.95 54.7 111.3 54.7 111.55 54.9
M 116.7 55.5
Q 117.1 54.9 117.8 54.9 118.6 54.9 118.7 55.55
L 120.5 55.45
Q 120.4 54.5 119.7 54.05 119 53.55 117.8 53.55 116.15 53.55 115.25 54.5 114.35 55.45 114.35 56.75 114.35 58.95 117.1 58.95 119.55 58.95 120.2 56.95
L 118.35 56.75
Q 117.95 57.65 117.2 57.65 116.85 57.65 116.6 57.4 116.3 57.2 116.3 56.75 116.3 56.05 116.7 55.5
M 259.15 39.9
Q 259.15 38.95 258.5 38.35 257.85 37.7 256.4 37.7 255.75 37.7 255.25 37.85 254.75 38 254.2 38.4 253.7 38.8 253.4 39.45 253.1 40.05 253.1 40.75 253.1 41.75 253.75 42.45 254.4 43.1 255.95 43.1 257 43.1 257.7 42.8 258.4 42.45 258.8 41.65
L 256.9 41.5
Q 256.55 41.95 256 41.95 255.15 41.95 255.05 40.9
L 259 40.9
Q 259.15 40.2 259.15 39.9
M 256.95 39.05
Q 257.2 39.25 257.2 39.65 257.2 39.85 257.15 39.95
L 255.25 39.95
Q 255.4 39.4 255.7 39.15 256 38.85 256.35 38.85 256.7 38.85 256.95 39.05
M 249.7 35.85
L 247.7 35.85 246.15 43 248.15 43 248.65 40.75
Q 248.8 40 249.15 39.55 249.45 39.15 249.9 39.15 250.3 39.15 250.3 39.6 250.3 39.7 250.1 40.6
L 249.6 43 251.6 43 252.2 40.15
Q 252.4 39.25 252.4 38.95 252.4 38.4 252.05 38.05 251.7 37.7 251 37.7 249.85 37.7 249.15 38.45
L 249.1 38.45 249.7 35.85
M 201.3 38.95
Q 201.3 38.4 200.95 38.05 200.6 37.7 199.85 37.7 198.7 37.7 197.85 38.6
L 198 37.8 196.15 37.8 195.05 43 197.05 43 197.55 40.75
Q 197.7 40 198.05 39.55 198.35 39.15 198.8 39.15 199.2 39.15 199.2 39.6 199.2 39.7 199 40.6
L 198.5 43 200.5 43 201.1 40.15
Q 201.3 39.25 201.3 38.95
M 191.95 37.7
Q 190.95 37.7 190.2 38.1 189.45 38.55 189.1 39.25 188.7 40 188.7 40.8 188.7 41.8 189.35 42.45 190 43.1 191.35 43.1 192.45 43.1 193.15 42.7 193.9 42.25 194.25 41.5 194.65 40.75 194.65 40.05 194.65 39.1 194 38.4 193.35 37.7 191.95 37.7
M 190.95 39.6
Q 191.25 39.05 191.9 39.05 192.2 39.05 192.45 39.25 192.7 39.45 192.7 39.95 192.7 40.65 192.35 41.2 192.05 41.8 191.5 41.8 191.1 41.8 190.9 41.5 190.65 41.2 190.65 40.8 190.65 40.2 190.95 39.6
M 228.65 38.4
Q 228.15 38.8 227.85 39.45 227.55 40.05 227.55 40.75 227.55 41.75 228.2 42.45 228.85 43.1 230.4 43.1 231.45 43.1 232.15 42.8 232.85 42.45 233.25 41.65
L 231.35 41.5
Q 231 41.95 230.45 41.95 229.6 41.95 229.5 40.9
L 233.45 40.9
Q 233.6 40.2 233.6 39.9 233.6 38.95 232.95 38.35 232.3 37.7 230.85 37.7 230.2 37.7 229.7 37.85 229.2 38 228.65 38.4
M 231.4 39.05
Q 231.65 39.25 231.65 39.65 231.65 39.85 231.6 39.95
L 229.7 39.95
Q 229.85 39.4 230.15 39.15 230.45 38.85 230.8 38.85 231.15 38.85 231.4 39.05
M 237.7 35.9
L 235.5 37 235.35 37.8 234.6 37.8 234.3 39.25 235 39.25 234.65 41
Q 234.5 41.7 234.5 41.85 234.5 42.3 234.85 42.7 235.2 43.1 236.05 43.1 236.45 43.1 237.35 43
L 237.65 41.6
Q 237.2 41.65 237.05 41.65 236.6 41.65 236.6 41.3 236.6 41.2 236.6 41.05
L 237 39.25 238.05 39.25 238.35 37.8 237.3 37.8 237.7 35.9
M 221.1 41.55
Q 221.2 42.4 221.75 42.75 222.35 43.1 223.6 43.1 225.1 43.1 225.85 42.55 226.6 42 226.6 41.2 226.6 40.6 226.2 40.25 225.85 39.9 224.7 39.75 223.95 39.65 223.8 39.55 223.65 39.4 223.65 39.25 223.65 39.05 223.8 38.9 224 38.8 224.35 38.8 225 38.8 225.05 39.25
L 226.95 39.05
Q 226.8 38.3 226.25 38 225.7 37.7 224.65 37.7 223.75 37.7 223.1 37.95 222.5 38.2 222.2 38.65 221.85 39.05 221.85 39.55 221.85 40.1 222.3 40.45 222.7 40.8 223.85 41 224.35 41.1 224.55 41.15 224.7 41.25 224.7 41.5 224.7 41.75 224.45 41.9 224.2 42.05 223.9 42.05 223.2 42.05 223.05 41.4
L 221.1 41.55
M 204.85 37.8
L 202.85 37.8 201.75 43 203.75 43 204.85 37.8
M 211.65 41.55
Q 211.75 42.4 212.3 42.75 212.9 43.1 214.15 43.1 215.65 43.1 216.4 42.55 217.15 42 217.15 41.2 217.15 40.6 216.75 40.25 216.4 39.9 215.25 39.75 214.5 39.65 214.35 39.55 214.2 39.4 214.2 39.25 214.2 39.05 214.35 38.9 214.55 38.8 214.9 38.8 215.55 38.8 215.6 39.25
L 217.5 39.05
Q 217.35 38.3 216.8 38 216.25 37.7 215.2 37.7 214.3 37.7 213.65 37.95 213.05 38.2 212.75 38.65 212.4 39.05 212.4 39.55 212.4 40.1 212.85 40.45 213.25 40.8 214.4 41 214.9 41.1 215.1 41.15 215.25 41.25 215.25 41.5 215.25 41.75 215 41.9 214.75 42.05 214.45 42.05 213.75 42.05 213.6 41.4
L 211.65 41.55
M 211.5 39.6
Q 211.4 38.65 210.7 38.2 210 37.7 208.8 37.7 207.15 37.7 206.25 38.65 205.35 39.6 205.35 40.9 205.35 43.1 208.1 43.1 210.55 43.1 211.2 41.1
L 209.35 40.9
Q 208.95 41.8 208.2 41.8 207.85 41.8 207.6 41.55 207.3 41.35 207.3 40.9 207.3 40.2 207.7 39.65 208.1 39.05 208.8 39.05 209.6 39.05 209.7 39.7
L 211.5 39.6
M 205.25 35.85
L 203.3 35.85 203 37.2 205 37.2 205.25 35.85
M 245.5 35.9
L 243.3 37 243.15 37.8 242.4 37.8 242.1 39.25 242.8 39.25 242.45 41
Q 242.3 41.7 242.3 41.85 242.3 42.3 242.65 42.7 243 43.1 243.85 43.1 244.25 43.1 245.15 43
L 245.45 41.6
Q 245 41.65 244.85 41.65 244.4 41.65 244.4 41.3 244.4 41.2 244.4 41.05
L 244.8 39.25 245.85 39.25 246.15 37.8 245.1 37.8 245.5 35.9
M 150.75 37.8
L 150.6 38.55
Q 149.95 37.7 149 37.7 147.9 37.7 147.15 38.6 146.4 39.5 146.4 40.75 146.4 41.7 146.85 42.25 147.35 42.8 148.15 42.8 149 42.8 149.65 42.1
L 149.7 42.15 149.5 42.9
Q 149.4 43.4 149.15 43.65 148.95 43.9 148.55 43.9 148 43.9 148 43.4
L 146.1 43.1
Q 146.1 43.2 146.1 43.35 146.1 43.9 146.45 44.35 146.8 44.8 147.3 44.95 147.75 45.1 148.65 45.1 149.95 45.1 150.6 44.6 151.25 44.15 151.55 42.7
L 152.6 37.8 150.75 37.8
M 149.95 39.25
Q 150.15 39.45 150.15 39.75 150.15 40.3 149.85 40.9 149.6 41.45 149.05 41.45 148.75 41.45 148.55 41.25 148.35 41.05 148.35 40.7 148.35 40.05 148.7 39.55 149 39 149.45 39 149.75 39 149.95 39.25
M 139.35 37.8
L 137.35 37.8 136.9 40.05
Q 136.7 40.85 136.4 41.25 136.05 41.65 135.6 41.65 135.25 41.65 135.25 41.25
L 135.25 41.2
Q 135.25 41.1 135.25 41 135.25 40.9 135.4 40.35
L 135.95 37.8 133.95 37.8 133.35 40.6
Q 133.15 41.55 133.15 41.9 133.15 42.4 133.5 42.75 133.85 43.1 134.55 43.1 135.75 43.1 136.55 42.2
L 136.4 43 138.25 43 139.35 37.8
M 139.45 43
L 141.45 43 141.95 40.75
Q 142.1 40 142.45 39.55 142.75 39.15 143.2 39.15 143.6 39.15 143.6 39.6 143.6 39.7 143.4 40.6
L 142.9 43 144.9 43 145.5 40.15
Q 145.7 39.25 145.7 38.95 145.7 38.4 145.35 38.05 145 37.7 144.25 37.7 143.1 37.7 142.25 38.6
L 142.4 37.8 140.55 37.8 139.45 43
M 187.75 39.35
Q 187.9 39.35 188.15 39.4
L 188.85 37.85
Q 188.5 37.7 188.2 37.7 187.75 37.7 187.4 37.95 187.05 38.15 186.6 38.85
L 186.8 37.8 184.95 37.8 183.85 43 185.85 43 186.25 41.05
Q 186.45 40.15 186.8 39.75 187.15 39.35 187.75 39.35
M 179.2 39.6
Q 179.1 38.65 178.4 38.2 177.7 37.7 176.5 37.7 174.85 37.7 173.95 38.65 173.05 39.6 173.05 40.9 173.05 43.1 175.8 43.1 178.25 43.1 178.9 41.1
L 177.05 40.9
Q 176.65 41.8 175.9 41.8 175.55 41.8 175.3 41.55 175 41.35 175 40.9 175 40.2 175.4 39.65 175.8 39.05 176.5 39.05 177.3 39.05 177.4 39.7
L 179.2 39.6
M 179.8 39.25
L 180.5 39.25 180.15 41
Q 180 41.7 180 41.85 180 42.3 180.35 42.7 180.7 43.1 181.55 43.1 181.95 43.1 182.85 43
L 183.15 41.6
Q 182.7 41.65 182.55 41.65 182.1 41.65 182.1 41.3 182.1 41.2 182.1 41.05
L 182.5 39.25 183.55 39.25 183.85 37.8 182.8 37.8 183.2 35.9 181 37 180.85 37.8 180.1 37.8 179.8 39.25
M 162.3 40.9
Q 162.45 40.2 162.45 39.9 162.45 38.95 161.8 38.35 161.15 37.7 159.7 37.7 159.05 37.7 158.55 37.85 158.05 38 157.5 38.4 157 38.8 156.7 39.45 156.4 40.05 156.4 40.75 156.4 41.75 157.05 42.45 157.7 43.1 159.25 43.1 160.3 43.1 161 42.8 161.7 42.45 162.1 41.65
L 160.2 41.5
Q 159.85 41.95 159.3 41.95 158.45 41.95 158.35 40.9
L 162.3 40.9
M 160.25 39.05
Q 160.5 39.25 160.5 39.65 160.5 39.85 160.45 39.95
L 158.55 39.95
Q 158.7 39.4 159 39.15 159.3 38.85 159.65 38.85 160 38.85 160.25 39.05
M 171.8 38.35
Q 171.15 37.7 169.7 37.7 169.05 37.7 168.55 37.85 168.05 38 167.5 38.4 167 38.8 166.7 39.45 166.4 40.05 166.4 40.75 166.4 41.75 167.05 42.45 167.7 43.1 169.25 43.1 170.3 43.1 171 42.8 171.7 42.45 172.1 41.65
L 170.2 41.5
Q 169.85 41.95 169.3 41.95 168.45 41.95 168.35 40.9
L 172.3 40.9
Q 172.45 40.2 172.45 39.9 172.45 38.95 171.8 38.35
M 169.65 38.85
Q 170 38.85 170.25 39.05 170.5 39.25 170.5 39.65 170.5 39.85 170.45 39.95
L 168.55 39.95
Q 168.7 39.4 169 39.15 169.3 38.85 169.65 38.85
M 166.3 35.85
L 164.35 35.85 162.8 43 164.8 43 166.3 35.85
M 129.9 38.8
Q 130.55 38.8 130.6 39.25
L 132.5 39.05
Q 132.35 38.3 131.8 38 131.25 37.7 130.2 37.7 129.3 37.7 128.65 37.95 128.05 38.2 127.75 38.65 127.4 39.05 127.4 39.55 127.4 40.1 127.85 40.45 128.25 40.8 129.4 41 129.9 41.1 130.1 41.15 130.25 41.25 130.25 41.5 130.25 41.75 130 41.9 129.75 42.05 129.45 42.05 128.75 42.05 128.6 41.4
L 126.65 41.55
Q 126.75 42.4 127.3 42.75 127.9 43.1 129.15 43.1 130.65 43.1 131.4 42.55 132.15 42 132.15 41.2 132.15 40.6 131.75 40.25 131.4 39.9 130.25 39.75 129.5 39.65 129.35 39.55 129.2 39.4 129.2 39.25 129.2 39.05 129.35 38.9 129.55 38.8 129.9 38.8
M 125.9 38.1
Q 125.55 37.7 124.85 37.7 124.3 37.7 123.85 37.9 123.4 38.05 122.85 38.6 122.7 38.15 122.3 37.95 121.95 37.7 121.45 37.7 120.4 37.7 119.55 38.6
L 119.5 38.55 119.65 37.8 117.8 37.8 116.7 43 118.7 43 119.25 40.5
Q 119.4 39.75 119.75 39.45 120.1 39.15 120.4 39.15 120.8 39.15 120.8 39.55 120.8 39.65 120.75 39.8 120.75 39.95 120.55 40.85
L 120.1 43 122.1 43 122.55 40.7
Q 122.75 39.9 123.05 39.5 123.3 39.15 123.75 39.15 124.15 39.15 124.15 39.55 124.15 39.6 124.15 39.8 124.1 39.95 123.95 40.8
L 123.45 43 125.45 43 126.2 39.6
Q 126.25 39.3 126.25 39 126.25 38.45 125.9 38.1
M 110.65 40.55
Q 110.25 40.9 110.25 41.6 110.25 42.2 110.7 42.65 111.1 43.1 112.1 43.1 113.05 43.1 113.85 42.4 113.85 42.7 113.9 43
L 115.85 43
Q 115.7 42.65 115.7 42.3 115.7 41.85 115.95 40.8 116.25 39.7 116.25 39.2 116.25 38.45 115.7 38.1 115.15 37.7 113.65 37.7 112.3 37.7 111.65 38.1 111 38.5 110.8 39.25
L 112.65 39.45
Q 112.85 39.1 113.05 39 113.25 38.85 113.6 38.85 113.9 38.85 114.15 39 114.3 39.1 114.3 39.3 114.3 39.4 114.25 39.65 113.95 39.75 113.1 39.85 112.15 39.95 111.6 40.05 111 40.2 110.65 40.55
M 113.55 41.75
Q 113.2 42.05 112.8 42.05 112.55 42.05 112.35 41.9 112.2 41.75 112.2 41.5 112.2 41.25 112.45 41.1 112.65 40.9 114.05 40.7 113.9 41.45 113.55 41.75
M 105.4 36
Q 104.75 36.3 104.4 36.8 104.05 37.3 104.05 37.9 104.05 38.6 104.45 39.05 104.9 39.55 106.45 40.1 107.15 40.35 107.35 40.55 107.5 40.75 107.5 40.95 107.5 41.25 107.25 41.45 106.95 41.7 106.4 41.7 105.9 41.7 105.6 41.45 105.3 41.15 105.3 40.5
L 103.25 40.6 103.25 40.8
Q 103.25 41.8 103.95 42.45 104.65 43.1 106.35 43.1 107.55 43.1 108.25 42.8 108.9 42.4 109.25 41.9 109.6 41.35 109.6 40.7 109.6 40.05 109.25 39.6 108.95 39.15 108.45 38.9 107.9 38.6 107.1 38.3 106.45 38.05 106.3 37.9 106.15 37.75 106.15 37.6 106.15 37.35 106.35 37.2 106.55 37 106.95 37 107.9 37 108 37.95
L 110.05 37.85
Q 109.85 35.7 106.95 35.7 106.05 35.7 105.4 36
M 184.3 24
L 184.85 21.35 186.7 21.35 187.35 18.25 185.5 18.25 187.4 9.45 184 9.45 174.9 18.05 174.15 21.35 181.45 21.35 180.85 24 184.3 24
M 183.05 13.75
L 183.1 13.8 182.1 18.25 178.25 18.25 183.05 13.75
M 172.8 9.45
L 169.4 9.45
Q 167.3 11.55 164.15 12.9
L 163.4 16.3
Q 165.9 15.7 167.7 14.6
L 165.65 24 169.65 24 172.8 9.45
M 159.25 10.85
Q 157.65 9.45 155.5 9.45 153.45 9.45 151.85 10.7 150.25 12 149.35 14.2 148.5 16.35 148.5 18.4 148.5 21.25 149.85 22.75 151.2 24.25 153.45 24.25 155.65 24.25 157.3 22.95 158.95 21.7 159.9 19.45 160.8 17.2 160.8 14.9 160.8 12.25 159.25 10.85
M 152.7 16.35
Q 153.05 14.45 153.8 13.3 154.5 12.1 155.45 12.1 156.2 12.1 156.6 12.65 156.95 13.2 156.95 14.1 156.95 15.3 156.6 17.25 156.2 19.2 155.5 20.4 154.8 21.55 153.85 21.55 152.3 21.55 152.3 19.45
L 152.3 19.4
Q 152.3 18.25 152.7 16.35
M 146.05 10.55
Q 144.8 9.45 142.2 9.45 139.7 9.45 138.15 10.5 136.6 11.6 136.25 13.7
L 140.15 14.25
Q 140.55 12.1 141.95 12.1 142.5 12.1 143 12.5 143.45 12.85 143.45 13.6 143.45 14.1 143.1 14.65 142.7 15.2 141.8 15.9
L 140.3 16.95
Q 137.9 18.7 136.6 20.25 135.3 21.8 134.9 24
L 145.85 24 146.55 20.75 140.9 20.75
Q 141.5 20.1 141.9 19.75 142.35 19.4 143.7 18.45 145.7 17.1 146.5 15.9 147.35 14.7 147.35 13.4 147.35 11.7 146.05 10.55
M 127.9 9.7
L 123.75 9.7 121.95 18 121.9 18 118.35 9.7 114.25 9.7 111.15 24 115.3 24 117.1 15.7 117.15 15.7 120.65 24 124.8 24 127.9 9.7
M 111.1 9.7
L 106.65 9.7 103.55 24 108.05 24 111.1 9.7 Z"/>
</g>
</defs>

<g transform="matrix( 1, 0, 0, 1, 0,0) ">
<use xlink:href="#Layer1_0_FILL"/>
</g>

<g transform="matrix( 10.800430297851562, 0, 0, 10.800430297851562, 5.5,4.6) ">
<g transform="matrix( 1, 0, 0, 1, 0,0) ">
<use xlink:href="#pop_0_Layer5_0_FILL"/>
</g>

<g transform="matrix( 1, 0, 0, 1, 0,0) ">
<use xlink:href="#pop_0_Layer4_0_FILL"/>
</g>

<g transform="matrix( 1, 0, 0, 1, 0,0) ">
<use xlink:href="#pop_0_Layer3_0_FILL"/>
</g>

<g transform="matrix( 1, 0, 0, 1, 0,0) ">
<use xlink:href="#pop_0_Layer2_0_FILL"/>
</g>

<g transform="matrix( 1, 0, 0, 1, 0,0) ">
<use xlink:href="#pop_0_Layer1_0_FILL"/>
</g>

<g transform="matrix( 1, 0, 0, 1, 0,0) ">
<use xlink:href="#pop_0_Layer0_0_FILL"/>
</g>
</g>

<g transform="matrix( 1, 0, 0, 1, 0,0) ">
<use xlink:href="#Layer1_1_MEMBER_1_FILL"/>
</g>

<g transform="matrix( 1, 0, 0, 1, 0,0) ">
<use xlink:href="#Layer1_1_MEMBER_1_MEMBER_0_FILL"/>
</g>

<g transform="matrix( 1, 0, 0, 1, 0,0) ">
<use xlink:href="#Layer0_0_FILL"/>
</g>
</svg>
