
<svg xmlns="http://www.w3.org/2000/svg" version="1.1" xmlns:xlink="http://www.w3.org/1999/xlink" preserveAspectRatio="none" x="0px" y="0px" width="550px" height="100px" viewBox="0 0 550 100">
<defs>
<g id="Layer2_0_FILL">
<path fill="#000000" fill-opacity="0.5019607843137255" stroke="none" d="
M 545.45 49.2
Q 545.45 32.7 536 20.15 533.75 17.15 531 14.4 516.65 0 496.25 0
L 49.2 0
Q 28.8 0 14.35 14.4 0 28.8 0 49.2 0 69.6 14.35 84 28.8 98.4 49.2 98.4
L 496.25 98.4
Q 516.65 98.4 531 84 533.75 81.25 536 78.3 545.45 65.7 545.45 49.2 Z"/>
</g>

<g id="pop_0_Layer5_0_FILL">
<path fill="#0C0A80" fill-opacity="0.2" stroke="none" d="
M 7.25 6.1
Q 7.75 5.2 7.85 4.45 7.85 4.3 7.85 4 7.7 2.15 6.05 1.6 4.15 1.1 3 2.6 1.9 4.15 3.45 5.9 4.7 7.3 2.95 7.8 3.1 7.95 3.7 7.95 3.75 7.95 3.85 7.95 4.5 8 5.5 7.6 6.7 7 7.25 6.1 Z"/>
</g>

<g id="pop_0_Layer4_0_FILL">
<path fill="#0C0A80" fill-opacity="0.2" stroke="none" d="
M 4.85 5.25
Q 4.85 4.4 4.25 3.75 3.65 3.15 2.8 3.15 1.95 3.15 1.35 3.75 0.7 4.4 0.7 5.25 0.7 6.1 1.35 6.7 1.95 7.3 2.8 7.3 3.65 7.3 4.25 6.7 4.85 6.1 4.85 5.25 Z"/>
</g>

<g id="pop_0_Layer3_0_FILL">
<path fill="#0C0A80" fill-opacity="0.2" stroke="none" d="
M 7.05 2.25
Q 7.05 1.6 6.6 1.15 6.15 0.7 5.5 0.7 4.85 0.7 4.4 1.15 3.95 1.6 3.95 2.25 3.95 2.9 4.4 3.35 4.85 3.8 5.5 3.8 6.15 3.8 6.6 3.35 7.05 2.9 7.05 2.25 Z"/>
</g>

<g id="pop_0_Layer2_0_FILL">
<path fill="#FFFFFF" fill-opacity="0.30196078431372547" stroke="none" d="
M 8.2 4.1
Q 8.2 2.4 7 1.2 5.8 0 4.1 0 2.4 0 1.2 1.2 0 2.4 0 4.1 0 5.8 1.2 7 2.4 8.2 4.1 8.2 5.8 8.2 7 7 8.2 5.8 8.2 4.1 Z"/>
</g>

<g id="pop_0_Layer1_0_FILL">
<path fill="#FFFFFF" fill-opacity="0.5019607843137255" stroke="none" d="
M 2.1 6.2
Q 3.7 5.95 2.65 3.7 1.9 1.2 4.2 0.3 3.65 0.35 3 0.55 1.7 1.1 1.1 1.9 0.5 2.75 0.4 3.5 0.35 3.65 0.35 3.95 0.4 6.2 2.1 6.2 Z"/>
</g>

<g id="pop_0_Layer0_0_FILL">
<path fill="#FFFFFF" fill-opacity="0.5019607843137255" stroke="none" d="
M 6.9 1.85
Q 6.9 1.45 6.65 1.2 6.35 0.9 6 0.9 5.6 0.9 5.35 1.2 5.05 1.45 5.05 1.85 5.05 2.2 5.35 2.5 5.6 2.75 6 2.75 6.35 2.75 6.65 2.5 6.9 2.2 6.9 1.85 Z"/>
</g>

<g id="Layer2_1_MEMBER_1_FILL">
<path fill="#FFFFFF" stroke="none" d="
M 72.85 24.2
Q 72.85 24.15 72.85 24.05 72.85 22.95 72 22.1 71.15 21.25 70.05 21.25
L 28.6 21.25
Q 27.4 21.25 26.65 22.1 26.6 22.1 26.6 22.15 25.8 23 25.8 24.05 25.8 24.15 25.8 24.2 25.8 24.85 25.85 25.55 25.85 25.7 25.85 25.9 23.85 26.8 22.2 28.5 18.4 32.3 18.4 37.6 18.4 42.85 22.2 46.6
L 22.2 46.65
Q 25.95 50.4 31.25 50.4 32.6 50.4 33.95 50.15
L 34 50.2
Q 37.8 55 42.4 57 43.45 60.3 43.75 64.05 41.85 67.25 39.3 70.05 38.2 71.25 36.9 72.4
L 36.85 72.45
Q 36.8 72.45 36.8 72.5 35.9 73.05 35.7 74.1 35 77.1 34.25 80.05 34.2 80.15 34.2 80.25 34.1 80.9 34.3 81.6 34.35 81.7 34.4 81.8 34.65 82.5 35.4 83.05
L 35.45 83.05
Q 36.1 83.5 36.95 83.5
L 61.7 83.5
Q 62.45 83.5 63.15 83.1 63.2 83.05 63.3 83.05 64 82.5 64.3 81.8 64.3 81.7 64.35 81.6 64.55 80.8 64.35 80.05 63.65 77.2 62.95 74.25 62.8 73.1 61.95 72.5 61.8 72.4 61.65 72.35 60.35 71.2 59.3 70.05 56.75 67.25 55 64 55.15 60.35 56.25 57 60.8 55.05 64.7 50.3 64.7 50.25 64.75 50.2 65.95 50.4 67.2 50.4 72.45 50.4 76.25 46.6 80 42.85 80 37.6 80 32.3 76.3 28.5 74.7 26.85 72.85 26 72.85 25.7 72.85 25.4 72.85 25.35 72.85 25.3 72.85 24.75 72.85 24.2 Z"/>
</g>

<g id="Layer2_1_MEMBER_1_MEMBER_0_FILL">
<path fill="#7B4B11" stroke="none" d="
M 60.25 74.7
L 60.2 74.7 49.2 74.7 49.2 80.7 61.7 80.7
Q 60.95 77.75 60.25 74.7 Z"/>

<path fill="#9F631B" stroke="none" d="
M 38.4 74.7
Q 37.7 77.75 36.95 80.7
L 49.2 80.7 49.2 74.7 38.45 74.7 38.4 74.7
M 70.05 24.2
Q 70.05 24.15 70.05 24.05
L 49.2 24.05 49.2 74.7 60.2 74.7
Q 58.6 73.35 57.3 71.9 54.2 68.6 52.1 64.65 52.3 59.45 54 54.9
L 53.9 54.9
Q 58.6 53.35 62.5 48.5 63.05 47.8 63.6 47 65.25 47.6 67.2 47.6 71.35 47.6 74.3 44.65 77.25 41.75 77.25 37.6 77.25 33.4 74.3 30.45 72.35 28.55 69.95 27.9 70 26.6 70.05 25.3 70.05 24.75 70.05 24.2
M 67.2 44.65
Q 66.15 44.65 65.2 44.4 68.6 38.4 69.65 30.9 71.05 31.45 72.2 32.55 74.35 34.65 74.35 37.6 74.35 40.55 72.2 42.6 70.2 44.65 67.2 44.65 Z"/>

<path fill="#D08D3D" stroke="none" d="
M 28.6 24.05
Q 28.6 24.15 28.6 24.2 28.6 24.75 28.6 25.3 28.6 26.55 28.7 27.85 26.15 28.45 24.15 30.45 21.2 33.4 21.2 37.6 21.2 41.75 24.15 44.65 27.1 47.6 31.25 47.6 33.25 47.6 35.05 46.95 35.55 47.7 36.15 48.45 40 53.35 44.75 54.9
L 44.65 54.9
Q 46.3 59.45 46.5 64.65 44.45 68.6 41.35 71.9 40.05 73.35 38.45 74.7
L 49.2 74.7 49.2 24.05 28.6 24.05
M 26.2 32.55
Q 27.45 31.3 29 30.85 30.05 38.35 33.45 44.35 32.4 44.65 31.25 44.65 28.3 44.65 26.2 42.6 24.15 40.55 24.15 37.6 24.15 34.65 26.2 32.55 Z"/>
</g>

<g id="Layer1_0_FILL">
<path fill="#FFFFFF" stroke="none" d="
M 333.8 66.8
L 333.8 68.65
Q 335.1 68.85 336.45 69.6
L 336.45 67.3
Q 335.3 66.85 333.8 66.8
M 333.6 71.05
L 333.6 73.3
Q 335.5 72.65 336.85 72
L 336.85 74 339.2 74 339.2 66.25 336.85 66.25 336.85 69.9
Q 335.6 70.6 333.6 71.05
M 347.85 68.75
L 347.85 67 343.75 67
Q 343.8 66.85 343.95 66.6 344 66.4 344.05 66.3
L 341.55 66.3
Q 340.95 68.1 339.35 68.75
L 339.35 70
Q 340.05 69.9 340.6 69.75
L 340.6 70.85
Q 341.55 71.05 342.55 71.4 341.8 71.9 340 72.35
L 340 73.75 339.3 73.75 339.3 74.1
Q 339.3 74.35 339.3 74.6
L 333.8 74.6 333.8 76.35 338.85 76.35
Q 337.8 78.6 333.6 79.1
L 333.6 80.6
Q 338.8 80.25 340.8 78 343.2 80.1 348 80.6
L 348 79.1
Q 343.7 78.5 342.75 76.35
L 347.95 76.35 347.95 74.6 342.3 74.6
Q 342.3 74.35 342.3 74.1
L 342.3 73.75 340.75 73.75
Q 345.95 73 347.85 68.75
M 343.45 70.85
L 343.45 69.75
Q 342.6 69.4 341.6 69.35 342.2 69.1 342.6 68.75
L 345.1 68.75
Q 344.2 70.15 343.45 70.85
M 317.8 72.35
L 318.75 72.35 318.75 73.9 317.6 73.9 317.6 75.6 318.75 75.6 318.75 80.35
Q 320.55 79.9 322.05 78.85
L 322.05 77.05
Q 321.5 77.4 320.95 77.65
L 320.95 75.6 322.2 75.6 322.2 73.9 320.95 73.9 320.95 72.35 322.05 72.35 322.05 70.65 317.8 70.65 317.8 72.35
M 322.25 67.55
L 320.95 67.55
Q 321.1 67 321.2 66.3
L 318.8 66.3
Q 318.75 68.35 317.55 68.9
L 317.55 70.3
Q 319.05 70.1 319.95 69.25
L 322.25 69.25 322.25 67.55
M 325.05 69.4
L 325.05 71.1 329.1 71.1 329.1 69.4 325.05 69.4
M 329.05 72.05
L 325.2 72.05 325.2 78.1 327.3 78.1
Q 329.1 78.15 329.05 76.35
L 329.05 72.05
M 326.75 73.65
L 327.45 73.65 327.45 76
Q 327.5 76.5 326.95 76.5
L 326.75 76.5 326.75 73.65
M 324.7 68.55
L 329.5 68.55 329.5 78.3
Q 329.55 78.9 328.85 78.85
L 328.25 78.85 328.25 80.5 329.7 80.5
Q 331.75 80.55 331.75 78.35
L 331.75 66.8 322.5 66.8 322.5 80.65 324.7 80.65 324.7 68.55
M 310.3 74
L 307.45 74 307.45 75 301.7 75 301.7 76.75 307.1 76.75
Q 306.2 78.6 301.6 79.1
L 301.6 80.55
Q 306.3 80.5 308.85 78.55 311.1 80.3 316 80.55
L 316 79.1
Q 311.35 78.4 310.6 76.75
L 315.95 76.75 315.95 75 310.3 75 310.3 74
M 311.2 68.55
L 313.75 68.55
Q 314.3 67.85 314.5 66.6
L 311.8 66.6
Q 311.75 67.55 311.2 68.55
M 307.45 70.65
L 307.45 73.65 310.3 73.65 310.3 70.65 310.5 70.65
Q 311.95 73.75 315.7 74.5
L 315.7 73
Q 313.85 72.15 313.25 70.65
L 315.7 70.65 315.7 68.9 310.3 68.9 310.3 66.25 307.45 66.25 307.45 68.9 302.05 68.9 302.05 70.65 304.35 70.65
Q 303.6 72.25 301.95 73
L 301.95 74.5
Q 305.7 73.75 307.1 70.65
L 307.45 70.65
M 303.85 68.55
L 306.45 68.55
Q 305.85 67.55 305.8 66.6
L 303.1 66.6
Q 303.3 67.85 303.85 68.55
M 292.3 73.5
Q 291.35 73.85 290.3 74.15
L 290.3 75.9
Q 291.35 75.75 292.3 75.4
L 292.3 77.85
Q 292.25 80.4 295.1 80.35
L 297.45 80.35
Q 299.8 80.35 299.75 78.15
L 299.75 76.75 297.55 76.75 297.55 77.75
Q 297.55 78.6 296.75 78.6
L 296.25 78.6
Q 295.1 78.65 295.2 77.4
L 295.2 74.3
Q 298.95 72.35 300.25 68.25
L 297.5 68.25
Q 296.75 70.3 295.2 71.65
L 295.2 66.3 292.3 66.3 292.3 73.5
M 285.5 71
L 285.5 72.55
Q 286.25 72.35 286.85 72.15
L 286.85 80.6 289.5 80.6 289.5 69.85
Q 290.3 68.35 290.8 66.3
L 288 66.3
Q 287.3 69.9 285.5 71
M 271.2 74.3
Q 270.8 77.8 269.5 80.35
L 272.2 80.35
Q 273.3 78 273.5 74.3
L 271.2 74.3
M 274.05 68.6
L 277.35 68.6 277.35 70.3 273.6 70.3 273.6 72.1 277.35 72.1 277.35 74 274.05 74 274.05 80.15 281.05 80.15
Q 283.5 80.25 283.5 77.75
L 283.5 74 280.1 74 280.1 72.1 284 72.1 284 70.3 280.1 70.3 280.1 68.6 280.95 68.6
Q 282.2 68.6 283.55 68.3
L 283.55 66.4
Q 282.05 66.85 280.8 66.85
L 274.05 66.85 274.05 68.6
M 280.95 77.6
Q 281 78.6 280 78.55
L 276.6 78.55 276.6 75.75 280.95 75.75 280.95 77.6
M 269.8 70.35
Q 270.55 71.9 271 73.55
L 273.5 73.55
Q 273 71.55 272.3 70.35
L 269.8 70.35
M 272.25 66.55
L 269.75 66.55
Q 270.5 68.1 270.85 69.65
L 273.35 69.65
Q 273 68 272.25 66.55
M 253.5 71
L 253.5 72.55
Q 253.6 72.5 253.95 72.4 254.55 72.25 254.8 72.15
L 254.8 80.6 257.3 80.6 257.3 69.9
Q 258 68.65 258.55 66.3
L 255.95 66.3
Q 255.25 69.85 253.5 71
M 264 68.25
L 264 66.3 261.45 66.3 261.45 68.25 258.05 68.25 258.05 70 258.95 70
Q 259.05 74.5 257.7 77.25
L 257.7 79.25
Q 258.95 78.15 259.7 76.85
L 259.7 77.9 261.45 77.9 261.45 80.6 264 80.6 264 77.9 265.7 77.9 265.7 76.8
Q 266.45 78 267.8 79.25
L 267.8 77.25
Q 266.35 74.5 266.5 70
L 267.5 70 267.5 68.25 264 68.25
M 264 70
L 264.35 70
Q 264.3 74.35 265.45 76.3
L 264 76.3 264 70
M 261.1 70
L 261.45 70 261.45 76.3 260 76.3
Q 261.05 74.15 261.1 70
M 242.5 66.3
L 240.55 66.3 240.55 68.1 239.8 68.1 239.8 66.3 237.85 66.3 237.85 68.1 237.45 68.1 237.45 69.8 237.85 69.8 237.85 72.75
Q 237.85 76.05 238.95 77.8 238.85 77.85 238.7 78.05 238.05 78.65 237.6 79
L 237.6 80.6
Q 239.1 79.75 240.05 79.05 241.05 79.75 242.55 80.6
L 242.55 79
Q 242.05 78.65 241.5 78.05 241.3 77.85 241.25 77.8 242.5 76.05 242.5 72.75
L 242.5 69.8 242.8 69.8 242.8 68.1 242.5 68.1 242.5 66.3
M 240.55 69.8
L 240.55 72.8
Q 240.55 74.75 240.1 75.9 239.8 74.85 239.8 72.8
L 239.8 69.8 240.55 69.8
M 248.7 66.15
L 248.7 67.15 246.05 67.15 246.05 66.15 243.7 66.15 243.7 67.15 242.95 67.15 242.95 68.9 243.7 68.9 243.7 73.6 246.2 73.6 246.2 74.4 242.8 74.4 242.8 76.15 244 76.15
Q 243.8 78 242.8 78.85
L 242.8 80.4
Q 245.7 79.25 246.05 76.15
L 246.2 76.15 246.2 80.6 248.55 80.6 248.55 76.15 248.6 76.15
Q 248.95 79.25 251.95 80.4
L 251.95 78.9
Q 250.7 77.85 250.6 76.15
L 252 76.15 252 74.4 248.55 74.4 248.55 73.6 248.75 73.6
Q 251.2 73.75 251.05 71.4
L 251.05 68.9 251.95 68.9 251.95 67.15 251.05 67.15 251.05 66.15 248.7 66.15
M 246.05 72
L 246.05 71.15 248.7 71.15 248.7 71.3
Q 248.75 72.05 248 72
L 246.05 72
M 246.05 69.65
L 246.05 68.9 248.7 68.9 248.7 69.65 246.05 69.65
M 236.2 73.65
L 236.2 71.75 221.45 71.75 221.45 73.65 236.2 73.65
M 211.55 67.9
Q 211.3 67.4 211.2 66.55 211.1 66.35 211.1 66.3
L 208.3 66.3
Q 208.5 67.3 208.8 67.9
L 206.55 67.9 206.55 75.4 211.35 75.4 211.35 76.4 205.55 76.4 205.55 78.25 211.35 78.25 211.35 80.65 214.2 80.65 214.2 78.25 220.1 78.25 220.1 76.4 214.2 76.4 214.2 75.4 216.85 75.4
Q 219.2 75.5 219.1 72.9
L 219.1 67.9 216.8 67.9
Q 217.1 67.3 217.3 66.3
L 214.5 66.3
Q 214.35 67.1 214.05 67.9
L 211.55 67.9
M 209.1 73.65
L 209.1 72.5 211.35 72.5 211.35 73.65 209.1 73.65
M 209.1 70.85
L 209.1 69.65 211.35 69.65 211.35 70.85 209.1 70.85
M 216.55 69.65
L 216.55 70.85 214.2 70.85 214.2 69.65 216.55 69.65
M 214.2 73.65
L 214.2 72.5 216.55 72.5 216.55 72.85
Q 216.6 73.75 215.75 73.65
L 214.2 73.65
M 199.8 72.6
L 191.3 72.6 191.3 74.55 199.8 74.55 199.8 72.6
M 171.15 66.8
L 171.15 68.65
Q 172.45 68.85 173.8 69.6
L 173.8 67.3
Q 172.65 66.85 171.15 66.8
M 170.95 71.05
L 170.95 73.3
Q 172.85 72.65 174.2 72
L 174.2 74 176.55 74 176.55 66.25 174.2 66.25 174.2 69.9
Q 172.95 70.6 170.95 71.05
M 185.2 68.75
L 185.2 67 181.1 67
Q 181.15 66.85 181.3 66.6 181.35 66.4 181.4 66.3
L 178.9 66.3
Q 178.3 68.1 176.7 68.75
L 176.7 70
Q 177.4 69.9 177.95 69.75
L 177.95 70.85
Q 178.9 71.05 179.9 71.4 179.15 71.9 177.35 72.35
L 177.35 73.75 176.65 73.75 176.65 74.1
Q 176.65 74.35 176.65 74.6
L 171.15 74.6 171.15 76.35 176.2 76.35
Q 175.15 78.6 170.95 79.1
L 170.95 80.6
Q 176.15 80.25 178.15 78 180.55 80.1 185.35 80.6
L 185.35 79.1
Q 181.05 78.5 180.1 76.35
L 185.3 76.35 185.3 74.6 179.65 74.6
Q 179.65 74.35 179.65 74.1
L 179.65 73.75 178.1 73.75
Q 183.3 73 185.2 68.75
M 180.8 70.85
L 180.8 69.75
Q 179.95 69.4 178.95 69.35 179.55 69.1 179.95 68.75
L 182.45 68.75
Q 181.55 70.15 180.8 70.85
M 155.4 70.8
L 155.4 72.6 158.8 72.6 158.8 73.75 155.6 73.75 155.6 75.55 158.8 75.55 158.8 76.85 155.05 76.85 155.05 78.6 158.8 78.6 158.8 80.65 161.6 80.65 161.6 70.15 158.8 70.15 158.8 70.8 155.4 70.8
M 165.45 73.75
L 165.45 72.6 168.9 72.6 168.9 70.8 165.45 70.8 165.45 70.15 162.65 70.15 162.65 80.65 165.45 80.65 165.45 78.6 169.3 78.6 169.3 76.85 165.45 76.85 165.45 75.55 168.7 75.55 168.7 73.75 165.45 73.75
M 163.35 66.15
L 163.35 67.1 160.95 67.1 160.95 66.15 158.4 66.15 158.4 67.1 155.05 67.1 155.05 68.85 158.4 68.85 158.4 69.85 160.95 69.85 160.95 68.85 163.35 68.85 163.35 69.85 165.9 69.85 165.9 68.85 169.35 68.85 169.35 67.1 165.9 67.1 165.9 66.15 163.35 66.15
M 151.8 71.3
L 148.7 71.3
Q 147.65 73.9 146.15 75.5 144.8 74.15 143.6 71.3
L 140.55 71.3
Q 142.05 75.05 144.2 77 142.6 78.05 139.05 78.9
L 139.05 80.6
Q 143.85 79.65 146.15 78.35 148.45 79.65 153.3 80.6
L 153.3 78.9
Q 149.7 78.05 148.1 77 150.3 75.05 151.8 71.3
M 150.3 67.5
L 150.3 66.15 147.65 66.15 147.65 67.5 144.65 67.5 144.65 66.15 142.05 66.15 142.05 67.5 138.9 67.5 138.9 69.3 142.05 69.3 142.05 70.6 144.65 70.6 144.65 69.3 147.65 69.3 147.65 70.6 150.3 70.6 150.3 69.3 153.4 69.3 153.4 67.5 150.3 67.5
M 137.1 66.55
L 123.3 66.55 123.3 80.35 134.65 80.35
Q 137.15 80.4 137.1 77.9
L 137.1 66.55
M 125.95 68.3
L 134.4 68.3 134.4 77.75
Q 134.4 78.75 133.4 78.75
L 125.95 78.75 125.95 68.3
M 132.05 76
L 133.9 76
Q 133.7 75.05 133.3 74.25
L 131.55 74.25
Q 131.9 75.15 132.05 76
M 126.7 72.3
L 126.7 74 128.7 74 128.7 76.25 126.35 76.25 126.35 77.9 133.95 77.9 133.95 76.25 131.35 76.25 131.35 74 133.6 74 133.6 72.3 131.35 72.3 131.35 70.85 133.85 70.85 133.85 69.25 126.45 69.25 126.45 70.85 128.7 70.85 128.7 72.3 126.7 72.3
M 120.8 73.85
L 120.8 68.5 115.6 68.5 115.6 66.15 112.7 66.15 112.7 68.5 107.55 68.5 107.55 76.8 112.7 76.8 112.7 80.75 115.6 80.75 115.6 76.8 118.2 76.8
Q 120.9 77 120.8 73.85
M 115.6 70.3
L 118.15 70.3 118.15 73.9
Q 118.2 75 117.3 75
L 115.6 75 115.6 70.3
M 110.15 70.3
L 112.7 70.3 112.7 75 110.15 75 110.15 70.3
M 371.05 53.9
Q 370.45 54.15 369.85 54.45 369.45 53.3 369.25 52.15
L 366.95 52.15
Q 367.3 53.85 367.8 54.65
L 369.45 54.65
Q 367.6 55.45 365.8 55.9
L 365.8 58.1
Q 368.8 57.4 371.05 55.9
L 371.05 53.9
M 378.25 45.05
L 366.7 45.05 366.7 46.8 375.6 46.8 375.6 47.6 367.2 47.6 367.2 49.2 375.6 49.2 375.6 50.1 365.55 50.1 365.55 51.85 371.35 51.85 371.35 56.55
Q 371.45 57.2 370.7 57.2
L 369.95 57.2 369.95 58.9 371.85 58.9
Q 374.25 58.95 374.2 56.55
L 374.2 55.8
Q 376.05 57.35 379.8 58.55
L 379.8 56.85
Q 377.95 56.05 376.45 54.9
L 377.7 54.9
Q 378.35 53.65 378.55 52.15
L 376.25 52.15
Q 376.1 53.2 375.75 54.35 375.55 54.15 375.25 53.85 374.5 53.15 374.2 52.8
L 374.2 51.85 380.1 51.85 380.1 50.1 378.25 50.1 378.25 45.05
M 355.3 57.4
L 355.3 55.65
Q 352.8 56.2 349.75 56.15
L 349.75 57.95
Q 352.8 58.05 355.3 57.4
M 363.25 45.05
L 355.6 45.05 355.6 46.85 360.6 46.85 360.6 49.15
Q 360.7 50.1 359.75 50.05
L 355.8 50.05 355.8 56.15
Q 355.7 58.65 358.05 58.55
L 361.7 58.55
Q 363.85 58.6 363.8 56.45
L 363.8 55.55 361.6 55.55 361.6 56.15
Q 361.7 56.85 360.95 56.85
L 359.25 56.85
Q 358.5 56.9 358.5 56.05
L 358.5 51.85 361.1 51.85
Q 363.3 51.9 363.25 49.7
L 363.25 45.05
M 353.2 47.55
Q 353.1 47.7 353 48.15 352.8 48.7 352.7 48.95 352.3 49.05 351.75 49.05 353.2 47.15 353.95 44.6
L 351.35 44.6
Q 350.95 47.1 349.6 48.95
L 349.6 50.8
Q 350.85 50.8 351.85 50.8 350.8 52.4 349.95 53.15
L 349.95 55.1
Q 352.95 55.1 355.25 54.65
L 355.25 52.85
Q 354 53.15 352.5 53.15 355.05 50.7 355.55 47.55
L 353.2 47.55
M 347 49.35
L 347 45.1 334.7 45.1 334.7 51.8 337.75 51.8
Q 336.1 52.9 333.5 53.6
L 333.5 55.15
Q 335.35 54.9 336.7 54.45
L 336.7 55.15
Q 336.75 56.8 335.3 57.4
L 335.3 59.1
Q 339.7 58.15 339.45 54.95
L 339.45 53.9 338.35 53.9
Q 339.7 53.35 340.8 52.45 342 53.35 343.2 53.9
L 342.1 53.9 342.1 58.85 344.85 58.85 344.85 54.45
Q 346.2 54.85 348.1 55.15
L 348.1 53.6
Q 345.55 52.9 343.8 51.8
L 344.75 51.8
Q 347.05 51.9 347 49.35
M 342.2 47.65
L 342.2 46.8 344.45 46.8 344.45 47.65 342.2 47.65
M 337.25 49.15
L 339.45 49.15 339.45 50.1 337.25 50.1 337.25 49.15
M 337.25 47.65
L 337.25 46.8 339.45 46.8 339.45 47.65 337.25 47.65
M 344.45 49.15
L 344.45 49.35
Q 344.5 50.15 343.7 50.1
L 342.2 50.1 342.2 49.15 344.45 49.15
M 327.85 44.6
L 327.85 46.8 325.75 46.8 325.75 44.6 323.2 44.6 323.2 46.8 321.6 46.8 321.6 45.15 318.85 45.15 318.85 46.8 317.6 46.8 317.6 48.6 318.85 48.6 318.85 55.95
Q 318.8 58.4 321.45 58.35
L 331.85 58.35 331.85 56.6 322.55 56.6
Q 321.55 56.65 321.6 55.6
L 321.6 48.6 323.2 48.6 323.2 55.05 327.85 55.05
Q 330.6 55.2 330.45 52.45
L 330.45 48.6 332.05 48.6 332.05 46.8 330.45 46.8 330.45 44.6 327.85 44.6
M 325.75 48.6
L 327.85 48.6 327.85 52.55
Q 327.95 53.35 327.2 53.3
L 325.75 53.3 325.75 48.6
M 315.25 53.9
L 315.25 51.3 306.55 51.3 306.55 56.2 313.1 56.2
Q 315.35 56.35 315.25 53.9
M 312.75 52.95
L 312.75 53.7
Q 312.8 54.6 312 54.55
L 309.05 54.55 309.05 52.95 312.75 52.95
M 305.3 49.05
L 301.55 49.05 301.55 50.8 302.7 50.8 302.7 55.8
Q 302.75 56.95 301.6 57.4
L 301.6 58.8
Q 303.5 58.65 304.45 57.65 305.25 58.65 306.95 58.65
L 316 58.65 316 56.95 307.25 56.95
Q 305.35 56.95 305.3 55.05
L 305.3 49.05
M 306.85 45.05
Q 306.75 46.35 305.95 47.15
L 305.95 48.65
Q 307.25 48.3 308 47.6
L 309.8 47.6 309.8 48.8 305.75 48.8 305.75 50.55 315.95 50.55 315.95 48.8 312.35 48.8 312.35 47.6 315.45 47.6 315.45 45.85 312.35 45.85 312.35 44.55 309.8 44.55 309.8 45.85 308.95 45.85
Q 309.05 45.45 309.1 45.05
L 306.85 45.05
M 302.25 44.85
Q 302.95 46.4 303.1 47.95
L 305.7 47.95
Q 305.35 46.4 304.6 44.85
L 302.25 44.85
M 288.5 44.55
Q 287.6 47.2 285.75 48.8
L 285.75 50.45
Q 285.85 50.4 286.05 50.35 286.3 50.2 286.45 50.15
L 286.45 56.35
Q 286.35 58.65 288.5 58.55
L 291.8 58.55
Q 293.85 58.6 293.8 56.55
L 293.8 55.65 291.75 55.65 291.75 56.15
Q 291.8 56.95 291.05 56.9
L 289.7 56.9
Q 288.85 56.95 288.95 56.05
L 288.95 51.2 290.75 51.2 290.75 52.7
Q 290.8 53.4 290.05 53.4
L 289.55 53.4 289.55 55.15 290.75 55.15
Q 293.25 55.3 293.05 52.85
L 293.05 49.95
Q 293.55 50.2 294 50.4
L 294 48.7
Q 292.05 47.15 291.1 44.55
L 288.5 44.55
M 289.8 47.3
Q 290.85 48.8 292.05 49.45
L 287.7 49.45
Q 288.95 48.65 289.8 47.3
M 299.6 44.6
L 297.25 44.6 297.25 56.6
Q 297.25 57.15 296.7 57.15
L 295.55 57.15 295.55 58.8 297.6 58.8
Q 299.7 58.85 299.6 56.85
L 299.6 44.6
M 296.45 45.65
L 294.3 45.65 294.3 55.85 296.45 55.85 296.45 45.65
M 277.2 45.2
L 277.2 46.95 280.8 46.95 280.8 48.15
Q 280.85 49.1 279.95 49.05
L 277.35 49.05 277.35 54.1
Q 277.3 56.45 279.45 56.35
L 281.85 56.35
Q 283.95 56.4 283.85 54.3
L 283.85 53.2 281.8 53.2 281.8 53.85
Q 281.85 54.6 281.1 54.55
L 280.6 54.55
Q 279.8 54.6 279.85 53.8
L 279.85 50.85 281.1 50.85
Q 283.35 50.9 283.3 48.65
L 283.3 45.2 277.2 45.2
M 272.1 49.2
L 269.6 49.2 269.6 50.9 272.8 50.9 272.8 55.95
Q 272.5 55.7 272.1 55.35 272.1 55.15 272.1 54.95
L 272.1 51.85 270.05 51.85 270.05 55.3
Q 270.05 56.65 269.45 57.4
L 269.45 59.1
Q 271.05 58.2 271.6 57.4 273.05 58.8 275.5 58.7
L 284.05 58.7 284.05 57.1 276.45 57.1
Q 276.2 57.1 275.8 57.05 275.45 57.05 275.25 57.05
L 275.25 54.45 276.85 54.45 276.85 52.8 275.25 52.8 275.25 50.9 277 50.9 277 49.2 274.7 49.2 274.7 47.45 276.55 47.45 276.55 45.7 274.7 45.7 274.7 44.45 272.1 44.45 272.1 45.7 270 45.7 270 47.45 272.1 47.45 272.1 49.2
M 268.2 51.95
L 268.2 50.05 253.45 50.05 253.45 51.95 268.2 51.95
M 244.45 56.7
L 244.45 51.8 238.05 51.8 238.05 58.65 242.35 58.65
Q 244.5 58.7 244.45 56.7
M 242.1 53.35
L 242.1 54.45 240.35 54.45 240.35 53.35 242.1 53.35
M 240.35 57.15
L 240.35 55.9 242.1 55.9 242.1 56.35
Q 242.2 57.2 241.35 57.15
L 240.35 57.15
M 249.55 58.65
Q 251.7 58.7 251.6 56.7
L 251.6 51.8 245.25 51.8 245.25 58.65 249.55 58.65
M 249.3 53.35
L 249.3 54.45 247.55 54.45 247.55 53.35 249.3 53.35
M 247.55 57.15
L 247.55 55.9 249.3 55.9 249.3 56.35
Q 249.35 57.2 248.55 57.15
L 247.55 57.15
M 250.35 48.95
L 250.35 45.05 239.3 45.05 239.3 51.2 248.3 51.2
Q 250.45 51.3 250.35 48.95
M 247.8 46.65
L 247.8 47.4 241.85 47.4 241.85 46.65 247.8 46.65
M 247.8 48.85
L 247.8 48.9
Q 247.85 49.65 247.1 49.6
L 241.85 49.6 241.85 48.85 247.8 48.85
M 226.35 58.65
Q 228.5 58.7 228.45 56.7
L 228.45 51.8 222.05 51.8 222.05 58.65 226.35 58.65
M 224.35 53.35
L 226.1 53.35 226.1 54.45 224.35 54.45 224.35 53.35
M 224.35 55.9
L 226.1 55.9 226.1 56.35
Q 226.2 57.2 225.35 57.15
L 224.35 57.15 224.35 55.9
M 235.6 56.7
L 235.6 51.8 229.25 51.8 229.25 58.65 233.55 58.65
Q 235.7 58.7 235.6 56.7
M 233.3 55.9
L 233.3 56.35
Q 233.35 57.2 232.55 57.15
L 231.55 57.15 231.55 55.9 233.3 55.9
M 233.3 53.35
L 233.3 54.45 231.55 54.45 231.55 53.35 233.3 53.35
M 234.35 45.05
L 223.3 45.05 223.3 51.2 232.3 51.2
Q 234.45 51.3 234.35 48.95
L 234.35 45.05
M 225.85 46.65
L 231.8 46.65 231.8 47.4 225.85 47.4 225.85 46.65
M 225.85 48.85
L 231.8 48.85 231.8 48.9
Q 231.85 49.65 231.1 49.6
L 225.85 49.6 225.85 48.85
M 213.3 53.4
L 213.3 51.8 206.2 51.8 206.2 53.4 210.35 53.4
Q 209.75 53.9 208.8 54.15
L 208.8 54.6
Q 207.45 54.65 205.55 54.65
L 205.55 56.4
Q 206.25 56.4 207.45 56.35 208.35 56.35 208.8 56.35
L 208.8 56.7
Q 208.8 57.4 208.25 57.35
L 207.2 57.35 207.2 58.8 209.25 58.8
Q 211.3 58.85 211.25 56.9
L 211.25 56.15
Q 212.45 55.95 213.8 55.8
L 213.8 54.3
Q 213.3 54.35 212.45 54.4 212 54.45 211.75 54.45 212.45 54.2 213.3 53.4
M 219.85 46.85
L 219.85 45.1 214.1 45.1 214.1 58.9 216.45 58.9 216.45 46.85 217.55 46.85
Q 217.45 49.2 216.85 50.9 217.95 52.15 217.85 53.85 217.95 55.35 216.75 55.3
L 216.75 57.2
Q 220.1 57.2 220.05 54.05 220 52.2 219 50.85 219.5 49.65 219.85 46.85
M 213.2 49.4
L 213.2 47.55 206.2 47.55 206.2 51.35 211.35 51.35
Q 213.25 51.45 213.2 49.4
M 211 48.85
L 211 49.35
Q 211.05 50.05 210.35 49.95
L 208.45 49.95 208.45 48.85 211 48.85
M 205.6 45.4
L 205.6 47.1 213.8 47.1 213.8 45.4 211.2 45.4 211.2 44.6 208.35 44.6 208.35 45.4 205.6 45.4
M 183.8 52.85
L 183.8 50.9 175.3 50.9 175.3 52.85 183.8 52.85
M 199.7 55.3
L 199.7 53.45 189.45 53.45 189.45 55.3 199.7 55.3
M 203.75 47.85
L 203.75 46.05 194.3 46.05
Q 194.3 45.85 194.3 45.35 194.35 44.85 194.35 44.55
L 191.55 44.55
Q 191.5 47.9 191.1 49.85
L 191.1 51.8 200.35 51.8 200.35 56.2
Q 200.45 57.1 199.5 57.1
L 197.45 57.1 197.45 58.8 200.7 58.8
Q 203.25 58.8 203.25 56.3
L 203.25 49.9 193.75 49.9 193.8 49.65
Q 194 48.55 194.05 47.85
L 203.75 47.85
M 168.45 46.95
L 168.45 45.15 155.9 45.15 155.9 47.05 164.15 47.05
Q 162.45 48.55 160.95 49.3
L 160.95 50.85 154.85 50.85 154.85 52.65 160.95 52.65 160.95 56.15
Q 160.95 57.05 160.15 57.05
L 158.85 57.05 158.85 58.7 161.35 58.7
Q 163.95 58.7 163.95 56.15
L 163.95 52.65 169.4 52.65 169.4 50.85 163.95 50.85 163.95 49.9
Q 166.2 48.95 168.45 46.95
M 144.3 44.55
L 144.3 45.85 139.4 45.85 139.4 55.3 144.3 55.3 144.3 55.95
Q 144.2 58.7 146.85 58.65
L 150.9 58.65
Q 153.2 58.7 153.15 56.35
L 153.15 55.65 151.05 55.65 151.05 56.2
Q 151.05 57.05 150.2 57.05
L 148.15 57.05
Q 146.95 57.1 147.05 55.85
L 147.05 55.3 149.2 55.3
Q 152.15 55.4 152.05 52.4
L 152.05 45.85 147.05 45.85 147.05 44.55 144.3 44.55
M 141.95 47.6
L 144.3 47.6 144.3 49.6 141.95 49.6 141.95 47.6
M 147.05 47.6
L 149.35 47.6 149.35 49.6 147.05 49.6 147.05 47.6
M 149.35 52.6
Q 149.4 53.6 148.35 53.55
L 147.05 53.55 147.05 51.35 149.35 51.35 149.35 52.6
M 141.95 51.35
L 144.3 51.35 144.3 53.55 141.95 53.55 141.95 51.35
M 136.3 48.65
L 136.3 45.05 124.2 45.05 124.2 51.05 129.1 51.05 129.1 51.9 126.8 51.9
Q 126.85 51.8 126.9 51.6 126.95 51.35 126.95 51.3
L 124.55 51.3
Q 124.15 53.1 122.9 53.95
L 122.9 55.6
Q 124.2 55.15 125.1 54.55
L 125.1 55.9 129.1 55.9 129.1 56.9 122.95 56.9 122.95 58.45 137.45 58.45 137.45 56.9 131.9 56.9 131.9 55.9 136.2 55.9 136.2 54.35 131.9 54.35 131.9 53.6 136.85 53.6 136.85 51.9 131.9 51.9 131.9 51.05 134.15 51.05
Q 136.35 51.1 136.3 48.65
M 126.85 49.35
L 126.85 48.65 133.65 48.65
Q 133.7 49.4 132.9 49.35
L 126.85 49.35
M 126.85 47.35
L 126.85 46.7 133.65 46.7 133.65 47.35 126.85 47.35
M 129.1 53.6
L 129.1 54.35 125.3 54.35
Q 125.7 53.95 125.95 53.6
L 129.1 53.6
M 108.55 52.45
L 119.85 52.45 119.85 50.6 108.55 50.6 108.55 52.45
M 106.95 58.05
L 121.35 58.05 121.35 56.3 106.95 56.3 106.95 58.05
M 107.85 45.45
L 107.85 47.35 120.55 47.35 120.55 45.45 107.85 45.45
M 194.6 18.15
L 194.6 15.35 181.85 15.35
Q 181.95 15.05 182.15 14.5 182.25 14.1 182.35 13.85
L 178.1 13.85
Q 177.1 17.95 174.1 19.85
L 174.1 22.35
Q 175.5 22 176.55 21.45
L 176.55 28 173.7 28 173.7 30.7 183.95 30.7 183.95 35.4 188.25 35.4 188.25 30.7 195.35 30.7 195.35 28 188.25 28 188.25 23.6 194.05 23.6 194.05 20.85 188.25 20.85 188.25 18.15 194.6 18.15
M 183.95 18.15
L 183.95 20.85 177.65 20.85
Q 179.45 19.75 180.55 18.15
L 183.95 18.15
M 180.45 23.6
L 183.95 23.6 183.95 28 180.45 28 180.45 23.6
M 169.35 14.5
L 165.2 14.5 155.45 27.7 155.45 30.6 165 30.6 165 34.75 169.35 34.75 169.35 30.6 171.75 30.6 171.75 27.7 169.35 27.7 169.35 14.5
M 165 20.4
L 165 27.7 159.65 27.7 165 20.4
M 152.45 14.5
L 147.95 14.5
Q 146.2 18.45 141.5 20.4
L 141.5 22.95
Q 145.35 22.35 147.95 20.5
L 147.95 34.75 152.45 34.75 152.45 14.5
M 139.8 24.7
Q 139.7 14.2 131.9 14.1 124.3 14.5 124.15 24.7 124.25 34.95 131.9 35.1 139.9 35.2 139.8 24.7
M 135.2 24.8
Q 135.2 32.4 132 32.4 128.65 32.4 128.65 24.8 128.65 16.95 132 17 135.3 16.85 135.2 24.8
M 122.1 34.75
L 122.1 32.1 111.7 32.1
Q 113.3 29.5 117.6 26.95 122.45 24.05 122.2 20 121.9 14.4 115.05 14.2 108.3 14.3 107.1 21.05
L 111.3 21.05
Q 111.8 17.2 114.8 17.1 117.7 17 117.7 20.2 117.95 22.25 113.1 25.75 109.15 28.65 107.2 32
L 107.2 34.75 122.1 34.75 Z"/>
</g>
</defs>

<g transform="matrix( 1, 0, 0, 1, 0,0) ">
<use xlink:href="#Layer2_0_FILL"/>
</g>

<g transform="matrix( 10.800430297851562, 0, 0, 10.800430297851562, 5.5,4.6) ">
<g transform="matrix( 1, 0, 0, 1, 0,0) ">
<use xlink:href="#pop_0_Layer5_0_FILL"/>
</g>

<g transform="matrix( 1, 0, 0, 1, 0,0) ">
<use xlink:href="#pop_0_Layer4_0_FILL"/>
</g>

<g transform="matrix( 1, 0, 0, 1, 0,0) ">
<use xlink:href="#pop_0_Layer3_0_FILL"/>
</g>

<g transform="matrix( 1, 0, 0, 1, 0,0) ">
<use xlink:href="#pop_0_Layer2_0_FILL"/>
</g>

<g transform="matrix( 1, 0, 0, 1, 0,0) ">
<use xlink:href="#pop_0_Layer1_0_FILL"/>
</g>

<g transform="matrix( 1, 0, 0, 1, 0,0) ">
<use xlink:href="#pop_0_Layer0_0_FILL"/>
</g>
</g>

<g transform="matrix( 1, 0, 0, 1, 0,0) ">
<use xlink:href="#Layer2_1_MEMBER_1_FILL"/>
</g>

<g transform="matrix( 1, 0, 0, 1, 0,0) ">
<use xlink:href="#Layer2_1_MEMBER_1_MEMBER_0_FILL"/>
</g>

<g transform="matrix( 1, 0, 0, 1, 0,0) ">
<use xlink:href="#Layer1_0_FILL"/>
</g>
</svg>
