
<svg xmlns="http://www.w3.org/2000/svg" version="1.1" xmlns:xlink="http://www.w3.org/1999/xlink" preserveAspectRatio="none" x="0px" y="0px" width="550px" height="100px" viewBox="0 0 550 100">
<defs>
<g id="Layer1_0_FILL">
<path fill="#000000" fill-opacity="0.5019607843137255" stroke="none" d="
M 545.45 49.2
Q 545.45 28.8 531 14.4 516.65 0 496.25 0
L 49.2 0
Q 28.8 0 14.35 14.4 0 28.8 0 49.2 0 69.6 14.35 84 28.8 98.4 49.2 98.4
L 496.25 98.4
Q 516.65 98.4 531 84 545.45 69.6 545.45 49.2 Z"/>
</g>

<g id="pop_0_Layer5_0_FILL">
<path fill="#0C0A80" fill-opacity="0.2" stroke="none" d="
M 7.25 6.1
Q 7.75 5.2 7.85 4.45 7.85 4.3 7.85 4 7.7 2.15 6.05 1.6 4.15 1.1 3 2.6 1.9 4.15 3.45 5.9 4.7 7.3 2.95 7.8 3.1 7.95 3.7 7.95 3.75 7.95 3.85 7.95 4.5 8 5.5 7.6 6.7 7 7.25 6.1 Z"/>
</g>

<g id="pop_0_Layer4_0_FILL">
<path fill="#0C0A80" fill-opacity="0.2" stroke="none" d="
M 4.85 5.25
Q 4.85 4.4 4.25 3.75 3.65 3.15 2.8 3.15 1.95 3.15 1.35 3.75 0.7 4.4 0.7 5.25 0.7 6.1 1.35 6.7 1.95 7.3 2.8 7.3 3.65 7.3 4.25 6.7 4.85 6.1 4.85 5.25 Z"/>
</g>

<g id="pop_0_Layer3_0_FILL">
<path fill="#0C0A80" fill-opacity="0.2" stroke="none" d="
M 7.05 2.25
Q 7.05 1.6 6.6 1.15 6.15 0.7 5.5 0.7 4.85 0.7 4.4 1.15 3.95 1.6 3.95 2.25 3.95 2.9 4.4 3.35 4.85 3.8 5.5 3.8 6.15 3.8 6.6 3.35 7.05 2.9 7.05 2.25 Z"/>
</g>

<g id="pop_0_Layer2_0_FILL">
<path fill="#FFFFFF" fill-opacity="0.30196078431372547" stroke="none" d="
M 8.2 4.1
Q 8.2 2.4 7 1.2 5.8 0 4.1 0 2.4 0 1.2 1.2 0 2.4 0 4.1 0 5.8 1.2 7 2.4 8.2 4.1 8.2 5.8 8.2 7 7 8.2 5.8 8.2 4.1 Z"/>
</g>

<g id="pop_0_Layer1_0_FILL">
<path fill="#FFFFFF" fill-opacity="0.5019607843137255" stroke="none" d="
M 2.1 6.2
Q 3.7 5.95 2.65 3.7 1.9 1.2 4.2 0.3 3.65 0.35 3 0.55 1.7 1.1 1.1 1.9 0.5 2.75 0.4 3.5 0.35 3.65 0.35 3.95 0.4 6.2 2.1 6.2 Z"/>
</g>

<g id="pop_0_Layer0_0_FILL">
<path fill="#FFFFFF" fill-opacity="0.5019607843137255" stroke="none" d="
M 6.9 1.85
Q 6.9 1.45 6.65 1.2 6.35 0.9 6 0.9 5.6 0.9 5.35 1.2 5.05 1.45 5.05 1.85 5.05 2.2 5.35 2.5 5.6 2.75 6 2.75 6.35 2.75 6.65 2.5 6.9 2.2 6.9 1.85 Z"/>
</g>

<g id="Layer1_1_MEMBER_1_FILL">
<path fill="#FFFFFF" stroke="none" d="
M 72.85 24.2
Q 72.85 24.15 72.85 24.05 72.85 22.95 72 22.1 71.15 21.25 70.05 21.25
L 28.6 21.25
Q 27.4 21.25 26.65 22.1 26.6 22.1 26.6 22.15 25.8 23 25.8 24.05 25.8 24.15 25.8 24.2 25.8 24.85 25.85 25.55 25.85 25.7 25.85 25.9 23.85 26.8 22.2 28.5 18.4 32.3 18.4 37.6 18.4 42.85 22.2 46.6
L 22.2 46.65
Q 25.95 50.4 31.25 50.4 32.6 50.4 33.95 50.15
L 34 50.2
Q 37.8 55 42.4 57 43.45 60.3 43.75 64.05 41.85 67.25 39.3 70.05 38.2 71.25 36.9 72.4
L 36.85 72.45
Q 36.8 72.45 36.8 72.5 35.9 73.05 35.7 74.1 35 77.1 34.25 80.05 34.2 80.15 34.2 80.25 34.1 80.9 34.3 81.6 34.35 81.7 34.4 81.8 34.65 82.5 35.4 83.05
L 35.45 83.05
Q 36.1 83.5 36.95 83.5
L 61.7 83.5
Q 62.45 83.5 63.15 83.1 63.2 83.05 63.3 83.05 64 82.5 64.3 81.8 64.3 81.7 64.35 81.6 64.55 80.8 64.35 80.05 63.65 77.2 62.95 74.25 62.8 73.1 61.95 72.5 61.8 72.4 61.65 72.35 60.35 71.2 59.3 70.05 56.75 67.25 55 64 55.15 60.35 56.25 57 60.8 55.05 64.7 50.3 64.7 50.25 64.75 50.2 65.95 50.4 67.2 50.4 72.45 50.4 76.25 46.6 80 42.85 80 37.6 80 32.3 76.3 28.5 74.7 26.85 72.85 26 72.85 25.7 72.85 25.4 72.85 25.35 72.85 25.3 72.85 24.75 72.85 24.2 Z"/>
</g>

<g id="Layer1_1_MEMBER_1_MEMBER_0_FILL">
<path fill="#957800" stroke="none" d="
M 49.2 74.7
L 49.2 80.7 61.7 80.7
Q 60.95 77.75 60.25 74.7
L 60.2 74.7 49.2 74.7 Z"/>

<path fill="#C59E00" stroke="none" d="
M 38.4 74.7
Q 37.7 77.75 36.95 80.7
L 49.2 80.7 49.2 74.7 38.45 74.7 38.4 74.7
M 70.05 24.2
Q 70.05 24.15 70.05 24.05
L 49.2 24.05 49.2 74.7 60.2 74.7
Q 58.6 73.35 57.3 71.9 54.2 68.6 52.1 64.65 52.3 59.45 54 54.9
L 53.9 54.9
Q 58.6 53.35 62.5 48.5 63.05 47.8 63.6 47 65.25 47.6 67.2 47.6 71.35 47.6 74.3 44.65 77.25 41.75 77.25 37.6 77.25 33.4 74.3 30.45 72.35 28.55 69.95 27.9 70 26.6 70.05 25.3 70.05 24.75 70.05 24.2
M 67.2 44.65
Q 66.15 44.65 65.2 44.4 68.6 38.4 69.65 30.9 71.05 31.45 72.2 32.55 74.35 34.65 74.35 37.6 74.35 40.55 72.2 42.6 70.2 44.65 67.2 44.65 Z"/>

<path fill="#FFCC00" stroke="none" d="
M 28.6 24.05
Q 28.6 24.15 28.6 24.2 28.6 24.75 28.6 25.3 28.6 26.55 28.7 27.85 26.15 28.45 24.15 30.45 21.2 33.4 21.2 37.6 21.2 41.75 24.15 44.65 27.1 47.6 31.25 47.6 33.25 47.6 35.05 46.95 35.55 47.7 36.15 48.45 40 53.35 44.75 54.9
L 44.65 54.9
Q 46.3 59.45 46.5 64.65 44.45 68.6 41.35 71.9 40.05 73.35 38.45 74.7
L 49.2 74.7 49.2 24.05 28.6 24.05
M 26.2 32.55
Q 27.45 31.3 29 30.85 30.05 38.35 33.45 44.35 32.4 44.65 31.25 44.65 28.3 44.65 26.2 42.6 24.15 40.55 24.15 37.6 24.15 34.65 26.2 32.55 Z"/>
</g>

<g id="Layer0_0_FILL">
<path fill="#FFFFFF" stroke="none" d="
M 413.8 66.8
L 413.8 68.65
Q 415.1 68.85 416.45 69.6
L 416.45 67.3
Q 415.3 66.85 413.8 66.8
M 413.6 71.05
L 413.6 73.3
Q 415.5 72.65 416.85 72
L 416.85 74 419.2 74 419.2 66.25 416.85 66.25 416.85 69.9
Q 415.6 70.6 413.6 71.05
M 427.85 68.75
L 427.85 67 423.75 67
Q 423.8 66.85 423.95 66.6 424 66.4 424.05 66.3
L 421.55 66.3
Q 420.95 68.1 419.35 68.75
L 419.35 70
Q 420.05 69.9 420.6 69.75
L 420.6 70.85
Q 421.55 71.05 422.55 71.4 421.8 71.9 420 72.35
L 420 73.75 419.3 73.75 419.3 74.1
Q 419.3 74.35 419.3 74.6
L 413.8 74.6 413.8 76.35 418.85 76.35
Q 417.8 78.6 413.6 79.1
L 413.6 80.6
Q 418.8 80.25 420.8 78 423.2 80.1 428 80.6
L 428 79.1
Q 423.7 78.5 422.75 76.35
L 427.95 76.35 427.95 74.6 422.3 74.6
Q 422.3 74.35 422.3 74.1
L 422.3 73.75 420.75 73.75
Q 425.95 73 427.85 68.75
M 423.45 70.85
L 423.45 69.75
Q 422.6 69.4 421.6 69.35 422.2 69.1 422.6 68.75
L 425.1 68.75
Q 424.2 70.15 423.45 70.85
M 399.5 75.75
Q 399.6 77.1 400.1 78.05
L 402.45 78.05
Q 402 77 401.95 75.75
L 399.5 75.75
M 407.7 75.75
Q 407.6 77 407.2 78.05
L 409.5 78.05
Q 410 77.1 410.1 75.75
L 407.7 75.75
M 410.95 73.5
L 406.25 73.5 406.25 72.35 409.2 72.35 409.2 71.5
Q 410.35 72 412.05 72.35
L 412.05 70.65
Q 408.05 69.1 406.35 66.1
L 403.25 66.1
Q 401.55 69.1 397.55 70.65
L 397.55 72.35
Q 399.25 72 400.5 71.4
L 400.5 72.35 403.35 72.35 403.35 73.5 398.75 73.5 398.75 75.3 403.35 75.3 403.35 78.5 397.85 78.5 397.85 80.15 411.8 80.15 411.8 78.5 406.25 78.5 406.25 75.3 410.95 75.3 410.95 73.5
M 402.35 70.55
Q 403.55 69.85 404.8 68.6 406.05 69.85 407.25 70.55
L 402.35 70.55
M 387.85 70.4
L 385.6 70.4
Q 385.55 74.25 385.1 77.25 385.05 77.25 384.95 77.25 384.75 77.3 384.7 77.3 384.25 74.3 384.2 70.4
L 381.95 70.4
Q 381.85 74.1 382.85 77.6 382.2 77.75 381.5 77.75
L 381.5 79.85
Q 385.45 79.25 387.85 78.35
L 387.85 76.6
Q 387.5 76.65 387.1 76.8 387.8 74.15 387.85 70.4
M 388.25 68
L 386.25 68 386.25 66.25 383.7 66.25 383.7 68 381.6 68 381.6 69.75 388.25 69.75 388.25 68
M 393 66.25
L 390.45 66.25 390.45 72.8 388.25 72.8 388.25 80.25 393.5 80.25
Q 395.7 80.3 395.6 78
L 395.6 72.8 393 72.8 393 70.5 396.1 70.5 396.1 68.65 393 68.65 393 66.25
M 393.2 77.8
Q 393.2 78.6 392.45 78.6
L 390.7 78.6 390.7 74.55 393.2 74.55 393.2 77.8
M 379.55 66.85
L 366.1 66.85 366.1 80.5 368.7 80.5 368.7 68.65 377 68.65 377 78.1
Q 377.05 78.9 376.3 78.85
L 375.95 78.85 375.95 80.5 377 80.5
Q 379.6 80.55 379.55 78.1
L 379.55 66.85
M 372.85 69.35
L 371.25 69.35
Q 371.05 70.8 370.8 71.9 370.6 70.8 370.45 69.35
L 368.75 69.35
Q 369.1 72.6 370 74.55 369.55 75.5 368.95 76.4
L 368.95 78.55
Q 370.25 77 370.8 76.1 371.6 77.3 372.8 78.5
L 372.8 76.4
Q 372.25 75.75 371.7 74.5 372.5 72.5 372.85 69.35
M 374.5 69.35
L 373 69.35
Q 373.25 72.35 374.05 74.55 373.75 75.35 373.05 76.4
L 373.05 78.5
Q 374.2 77.25 374.85 76.1 375.6 77.3 376.75 78.5
L 376.75 76.4
Q 376.05 75.4 375.7 74.5 376.45 72.8 376.8 69.4
L 375.25 69.4
Q 375.05 70.85 374.85 72 374.7 70.85 374.5 69.35
M 349.5 70.8
L 349.5 72.55 351.25 72.55
Q 350.85 74.75 349.6 77
L 349.6 78.9
Q 352.55 78.9 354.55 78.6 354.55 78.9 354.6 79.1
L 356.25 79.1 356.25 80.75
Q 358.55 78.75 359.25 76.6 360.05 74.5 360.1 69.85
L 361.3 69.85 361.3 78.05
Q 361.3 78.75 360.7 78.75
L 359.75 78.75 359.75 80.35 361.55 80.35
Q 363.85 80.4 363.8 78.05
L 363.8 68.1 360.2 68.1 360.2 66.15 357.7 66.15 357.7 68.1 356.7 68.1 356.7 69.85 357.7 69.85
Q 357.7 75.75 356.55 77.85 356.1 75.8 355.5 74.05
L 353.55 74.05
Q 353.6 74.3 353.75 74.8 354.1 76.25 354.25 76.85 353.2 77 351.85 77 353.25 75.25 353.85 72.55
L 356.55 72.55 356.55 70.8 349.5 70.8
M 350.25 67.05
L 350.25 68.8 356.1 68.8 356.1 67.05 350.25 67.05
M 336.2 80.35
Q 337.3 78 337.5 74.3
L 335.2 74.3
Q 334.8 77.8 333.5 80.35
L 336.2 80.35
M 335 73.55
L 337.5 73.55
Q 337 71.55 336.3 70.35
L 333.8 70.35
Q 334.55 71.9 335 73.55
M 334.85 69.65
L 337.35 69.65
Q 337 68 336.25 66.55
L 333.75 66.55
Q 334.5 68.1 334.85 69.65
M 348 72.1
L 348 70.3 344.1 70.3 344.1 68.6 344.95 68.6
Q 346.2 68.6 347.55 68.3
L 347.55 66.4
Q 346.05 66.85 344.8 66.85
L 338.05 66.85 338.05 68.6 341.35 68.6 341.35 70.3 337.6 70.3 337.6 72.1 341.35 72.1 341.35 74 338.05 74 338.05 80.15 345.05 80.15
Q 347.5 80.25 347.5 77.75
L 347.5 74 344.1 74 344.1 72.1 348 72.1
M 344 78.55
L 340.6 78.55 340.6 75.75 344.95 75.75 344.95 77.6
Q 345 78.6 344 78.55
M 322.75 66.4
L 320.75 66.4 320.75 70 320.2 70 320.2 66.8 318.05 66.8 318.05 75.4
Q 318.05 77.8 317.5 79
L 317.5 80.75
Q 320.35 79.15 320.2 74.65
L 320.2 74.6 320.75 74.6 320.75 80.4 322.75 80.4 322.75 72.9 320.2 72.9 320.2 71.65 323.1 71.65 323.1 70 322.75 70 322.75 66.4
M 328.2 67.1
Q 328.2 67.05 328.25 66.8 328.35 66.5 328.45 66.25
L 325.8 66.25
Q 325.75 66.75 325.6 67.1
L 323.5 67.1 323.5 74.35 325.1 74.35
Q 324.6 74.8 323.85 75.15
L 323.85 76.3 323.1 76.3 323.1 78.05 326.95 78.05 326.95 80.55 329.35 80.55 329.35 78.05 332.1 78.05 332.1 76.3 329.35 76.3 329.35 74.65 327.45 74.65
Q 327.55 74.55 327.7 74.35
L 329.6 74.35
Q 331.75 74.4 331.7 72.1
L 331.7 67.1 328.2 67.1
M 328.7 69.9
L 328.7 68.8 329.7 68.8 329.7 69.9 328.7 69.9
M 325.5 68.8
L 326.5 68.8 326.5 69.9 325.5 69.9 325.5 68.8
M 326.3 72.65
L 325.5 72.65 325.5 71.5 326.45 71.5
Q 326.45 72.25 326.3 72.65
M 328.55 72.65
Q 328.7 72.15 328.7 71.5
L 329.7 71.5 329.7 72
Q 329.75 72.75 329 72.65
L 328.55 72.65
M 326.95 75.1
L 326.95 76.3 324.85 76.3
Q 326.2 75.65 326.95 75.1
M 306.1 80.25
Q 308.35 80.3 308.3 78.1
L 308.3 73.4 302.05 73.4 302.05 80.25 306.1 80.25
M 304.35 75.3
L 306 75.3 306 77.9
Q 306.05 78.65 305.25 78.6
L 304.35 78.6 304.35 75.3
M 315.6 73.4
L 309.25 73.4 309.25 80.25 313.5 80.25
Q 315.7 80.3 315.6 78.1
L 315.6 73.4
M 311.6 75.3
L 313.3 75.3 313.3 77.9
Q 313.35 78.65 312.55 78.6
L 311.6 78.6 311.6 75.3
M 314.35 70.15
L 314.35 66.85 303.3 66.85 303.3 72.55 312.2 72.55
Q 314.45 72.55 314.35 70.15
M 311.75 68.75
L 311.75 69.85
Q 311.8 70.75 311 70.65
L 305.95 70.65 305.95 68.75 311.75 68.75
M 296.5 73.35
L 293.75 73.35 293.75 74.85 290.8 74.85 290.8 76.6 293.75 76.6 293.75 78.55 290.2 78.55 290.2 80.15 300.05 80.15 300.05 78.55 296.5 78.55 296.5 76.6 299.35 76.6 299.35 74.85 296.5 74.85 296.5 73.35
M 290.35 71.25
L 290.35 73 299.85 73 299.85 71.25 296.5 71.25 296.5 69.35 299.35 69.35 299.35 67.55 296.5 67.55 296.5 66.4 293.7 66.4 293.7 67.55 290.95 67.55 290.95 69.35 293.7 69.35 293.7 71.25 290.35 71.25
M 285.5 71
L 285.5 72.55
Q 285.75 72.5 286.2 72.35 286.75 72.15 287.05 72.05
L 287.05 80.65 289.6 80.65 289.6 69.8
Q 290.45 68.35 290.85 66.35
L 288.35 66.35
Q 287.5 69.65 285.5 71
M 271.05 66.75
L 271.05 71.5 280.55 71.5
Q 282.6 71.6 282.55 69.35
L 282.55 66.75 271.05 66.75
M 273.6 70.25
L 273.6 69.65 280 69.65
Q 280.05 70.3 279.45 70.25
L 273.6 70.25
M 280 68.55
L 273.6 68.55 273.6 68 280 68 280 68.55
M 269.55 71.9
L 269.55 73.5 270.55 73.5 270.55 78.55
Q 270.1 78.55 269.7 78.55
L 269.7 80.25
Q 272.3 80.05 274.7 79.65
L 274.7 80.65 276.95 80.65 276.95 79.25
Q 277 79.25 277.1 79.25 277.3 79.15 277.45 79.15
L 277.45 80.6
Q 279.8 79.9 280.55 79.4 281.85 80.15 283.75 80.65
L 283.75 79.1
Q 282.75 78.85 282 78.4 283.05 77.4 283.7 75.55
L 283.7 74.05 277.25 74.05 277.25 75.6 281.3 75.6
Q 281.25 75.75 281.1 75.9 280.7 76.75 280.45 77.05 280.05 76.6 279.8 76.05
L 277.35 76.05
Q 277.95 77.4 279 78.4 278.35 78.8 277.5 79.1
L 277.5 77.85
Q 277.35 77.85 277.1 77.9 277 77.9 276.95 77.9
L 276.95 73.5 284.1 73.5 284.1 71.9 269.55 71.9
M 272.8 73.5
L 274.7 73.5 274.7 74.25 272.8 74.25 272.8 73.5
M 274.7 77.55
L 274.7 78.25
Q 274.2 78.3 273.45 78.35 273 78.4 272.8 78.4
L 272.8 77.55 274.7 77.55
M 274.7 75.5
L 274.7 76.25 272.8 76.25 272.8 75.5 274.7 75.5
M 220.45 74.3
L 220.45 80.3 229.8 80.3
Q 232.1 80.35 232.1 77.9
L 232.1 74.3 220.45 74.3
M 223.2 78.6
L 223.2 76.15 229.35 76.15 229.35 77.8
Q 229.4 78.65 228.6 78.6
L 223.2 78.6
M 209.55 67.55
L 204.1 67.55 204.1 76.1
Q 204.15 78.25 202.95 79.05
L 202.95 80.75
Q 207.35 79.3 207.1 75.3
L 207.1 69.5 217.4 69.5 217.4 67.55 212.7 67.55 212.7 66.15 209.55 66.15 209.55 67.55
M 227.95 67.5
L 227.95 66.15 225.15 66.15 225.15 67.5 223.3 67.5
Q 223.4 67 223.45 66.55
L 220.95 66.55
Q 220.8 68.4 219.6 69.6
L 219.6 71.15
Q 221.6 70.55 222.45 69.3
L 225.15 69.3 225.15 71.55 218.9 71.55 218.9 73.35 233.4 73.35 233.4 71.55 227.95 71.55 227.95 69.3 232.55 69.3 232.55 67.5 227.95 67.5
M 255.3 74.55
L 263.8 74.55 263.8 72.6 255.3 72.6 255.3 74.55
M 245.65 76.35
Q 245.7 77.25 244.8 77.25
L 243.65 77.25 243.65 79.05 246.1 79.05
Q 248.45 79.05 248.45 76.65
L 248.45 71.25 235.6 71.25 235.6 73.05 239.1 73.05 239.1 80.65 242.05 80.65 242.05 73.05 245.65 73.05 245.65 76.35
M 246.4 67.5
L 246.4 66.3 243.8 66.3 243.8 67.5 240.55 67.5 240.55 66.3 237.9 66.3 237.9 67.5 234.9 67.5 234.9 69.3 237.9 69.3 237.9 70.65 240.55 70.65 240.55 69.3 243.8 69.3 243.8 70.65 246.4 70.65 246.4 69.3 249.35 69.3 249.35 67.5 246.4 67.5
M 192.55 66.9
L 192.55 68.65 200.85 68.65 200.85 66.9 192.55 66.9
M 200.55 73.5
L 198.35 73.5
Q 198.2 77.9 201.45 79.5
L 201.45 77.65
Q 200.55 76.35 200.55 73.5
M 194.9 73.5
L 192.65 73.5
Q 192.65 76.25 191.7 77.65
L 191.7 79.5
Q 194.9 77.9 194.9 73.5
M 191.95 70.55
L 191.95 72.3 195.3 72.3 195.3 78.25
Q 195.35 78.9 194.65 78.85
L 194.1 78.85 194.1 80.5 195.6 80.5
Q 197.9 80.55 197.85 78.35
L 197.85 72.3 201.4 72.3 201.4 70.55 191.95 70.55
M 190.8 66.25
L 188.35 66.25 188.35 68.1 187.1 68.1 187.1 69.9 188.3 69.9
Q 187.85 72.55 186.8 74.85
L 186.8 77.75
Q 187.7 76.55 188.35 75.15
L 188.35 80.65 190.8 80.65 190.8 74.15
Q 191.3 75 191.95 75.85
L 191.95 73.1
Q 191.15 71.65 190.85 69.9
L 191.9 69.9 191.9 68.1 190.8 68.1 190.8 66.25
M 175.65 75.5
L 173.85 75.5
Q 174.35 76.4 174.55 77.4
L 176.45 77.4
Q 176.2 76.55 175.65 75.5
M 173.8 72.9
L 171.45 72.9 171.45 80.65
Q 173.9 80.15 175.85 79.15
L 175.85 77.65
Q 174.7 78.1 173.8 78.25
L 173.8 72.9
M 178.85 75.5
Q 179.2 76.25 179.45 77.3 179.55 77.35 179.55 77.4
L 181.4 77.4
Q 181.3 76.55 180.65 75.5
L 178.85 75.5
M 178.85 73.15
L 178.85 72.9 176.55 72.9 176.55 80.75
Q 179.2 80.1 181.2 79.15
L 181.2 77.75
Q 180.9 77.8 180.4 78 179.4 78.25 178.85 78.35
L 178.85 75.5 178.85 73.25
Q 179.2 74.05 179.55 75.1
L 181.4 75.1
Q 181.4 76.85 181.8 78.5 182.35 80.75 184.2 80.65 185.95 80.75 185.85 78.4
L 184.8 78.4
Q 184.85 79.1 184.55 79.1 184.05 79.15 183.85 78 183.55 76.1 183.65 72.9
L 181.35 72.9
Q 181.35 73.9 181.35 75 181.2 74.05 180.65 73.15
L 178.85 73.15
M 175.65 73.15
L 173.85 73.15
Q 174.2 73.9 174.45 75 174.55 75.05 174.55 75.1
L 176.4 75.1
Q 176.3 74.25 175.65 73.15
M 184.1 70.25
L 184.1 66.65 178.3 66.65 178.3 68.15 181.45 68.15 181.45 68.85 178.3 68.85 178.3 70.3 181.45 70.3
Q 181.45 71 180.7 70.9
L 174.15 70.9 174.15 70.3 177.3 70.3 177.3 68.85 174.15 68.85 174.15 68.15 175.2 68.15
Q 176.55 68.15 177.6 67.8
L 177.6 66.1
Q 176.2 66.6 174.6 66.6
L 171.55 66.6 171.55 72.55 181.95 72.55
Q 184.15 72.6 184.1 70.25
M 157.45 78.05
L 159.8 78.05
Q 159.35 77 159.3 75.75
L 156.85 75.75
Q 156.95 77.1 157.45 78.05
M 167.45 75.75
L 165.05 75.75
Q 164.95 77 164.55 78.05
L 166.85 78.05
Q 167.35 77.1 167.45 75.75
M 168.3 73.5
L 163.6 73.5 163.6 72.35 166.55 72.35 166.55 71.5
Q 167.7 72 169.4 72.35
L 169.4 70.65
Q 165.4 69.1 163.7 66.1
L 160.6 66.1
Q 158.9 69.1 154.9 70.65
L 154.9 72.35
Q 156.6 72 157.85 71.4
L 157.85 72.35 160.7 72.35 160.7 73.5 156.1 73.5 156.1 75.3 160.7 75.3 160.7 78.5 155.2 78.5 155.2 80.15 169.15 80.15 169.15 78.5 163.6 78.5 163.6 75.3 168.3 75.3 168.3 73.5
M 162.15 68.6
Q 163.4 69.85 164.6 70.55
L 159.7 70.55
Q 160.9 69.85 162.15 68.6
M 142.45 71.5
L 150.65 71.5
Q 153.05 71.55 152.95 69.05
L 152.95 66.8 139.9 66.8 139.9 76.15
Q 139.95 78.3 139.05 79
L 139.05 80.65
Q 142.7 79.5 142.45 75.65
L 142.45 71.5
M 142.45 69.75
L 142.45 68.55 150.45 68.55 150.45 69
Q 150.55 69.75 149.8 69.75
L 142.45 69.75
M 146.7 71.75
L 146.7 72.6 142.9 72.6 142.9 80.3 151.05 80.3
Q 152.95 80.3 152.95 78.1
L 152.95 72.6 149.15 72.6 149.15 71.75 146.7 71.75
M 150.65 74.25
L 150.65 75.65 149.15 75.65 149.15 74.25 150.65 74.25
M 150.65 78.1
Q 150.65 78.8 150.05 78.8
L 149.15 78.8 149.15 77.3 150.65 77.3 150.65 78.1
M 145.2 74.25
L 146.7 74.25 146.7 75.65 145.2 75.65 145.2 74.25
M 145.2 77.3
L 146.7 77.3 146.7 78.8 145.2 78.8 145.2 77.3
M 136.9 67
L 123.55 67 123.55 80.25 134.3 80.25
Q 136.95 80.3 136.9 77.65
L 136.9 67
M 130.7 68.8
L 130.7 74.05
Q 130.65 76.5 132.9 76.4
L 134.3 76.4 134.3 77.5
Q 134.35 78.55 133.3 78.5
L 126.15 78.5 126.15 76.85
Q 129.9 75.55 129.65 70.8
L 129.65 68.8 130.7 68.8
M 127.2 68.8
L 127.2 70.8
Q 127.3 73.9 126.15 74.85
L 126.15 68.8 127.2 68.8
M 133.15 68.8
L 134.3 68.8 134.3 74.65 133.8 74.65
Q 133.15 74.65 133.15 74
L 133.15 68.8
M 121.35 66.85
L 117.8 66.85
Q 117.85 66.75 117.9 66.5 117.95 66.3 117.95 66.15
L 115.6 66.15
Q 115.15 68 114.05 68.55
L 114.05 69.65
Q 116.15 69.5 117.1 68.3
L 117.8 68.3
Q 117.95 69.05 118.05 69.65
L 120.15 69.65
Q 120.05 68.9 119.85 68.3
L 121.35 68.3 121.35 66.85
M 108.05 69.9
L 108.05 71.65 112.7 71.65 112.7 72.65 107.65 72.65 107.65 74.85
Q 107.6 77 109.55 76.9
L 109.9 76.9
Q 109.2 78.3 107.15 79.1
L 107.15 80.6
Q 111.45 79.65 112.6 76.9
L 112.7 76.9 112.7 80.65 115.65 80.65 115.65 76.9 118.45 76.9 118.45 77.35
Q 118.55 78.1 117.85 78.05
L 116.85 78.05 116.85 79.6 119.05 79.6
Q 121.3 79.75 121.15 77.6
L 121.15 75.25 115.65 75.25 115.65 74.3 118.55 74.3
Q 120.8 74.4 120.65 72.1
L 120.65 69.9 108.05 69.9
M 115.65 72.65
L 115.65 71.65 118.05 71.65 118.05 72.05
Q 118.05 72.65 117.45 72.65
L 115.65 72.65
M 112.7 74.3
L 112.7 75.25 110.9 75.25
Q 110.2 75.25 110.2 74.75
L 110.2 74.3 112.7 74.3
M 111.15 66.25
L 108.65 66.25
Q 108.4 68 106.95 68.6
L 106.95 69.85
Q 109.35 69.65 110.3 68.3
L 110.8 68.3
Q 110.85 68.55 110.9 68.9 111.05 69.4 111.1 69.65
L 113.2 69.65
Q 113.15 69.5 113.1 69.15 112.95 68.6 112.9 68.3
L 114.3 68.3 114.3 66.85 110.95 66.85
Q 111.1 66.6 111.15 66.25
M 307.85 48.7
L 305.6 48.7
Q 305.55 52.55 305.1 55.55 305.05 55.55 304.95 55.55 304.75 55.6 304.7 55.6 304.25 52.6 304.2 48.7
L 301.95 48.7
Q 301.85 52.4 302.85 55.9 302.2 56.05 301.5 56.05
L 301.5 58.15
Q 305.45 57.55 307.85 56.65
L 307.85 54.9
Q 307.5 54.95 307.1 55.1 307.8 52.45 307.85 48.7
M 313 44.55
L 310.45 44.55 310.45 51.1 308.25 51.1 308.25 58.55 313.5 58.55
Q 315.7 58.6 315.6 56.3
L 315.6 51.1 313 51.1 313 48.8 316.1 48.8 316.1 46.95 313 46.95 313 44.55
M 310.7 52.85
L 313.2 52.85 313.2 56.1
Q 313.2 56.9 312.45 56.9
L 310.7 56.9 310.7 52.85
M 303.7 44.55
L 303.7 46.3 301.6 46.3 301.6 48.05 308.25 48.05 308.25 46.3 306.25 46.3 306.25 44.55 303.7 44.55
M 299.55 45.15
L 286.1 45.15 286.1 58.8 288.7 58.8 288.7 46.95 297 46.95 297 56.4
Q 297.05 57.2 296.3 57.15
L 295.95 57.15 295.95 58.8 297 58.8
Q 299.6 58.85 299.55 56.4
L 299.55 45.15
M 292.85 47.65
L 291.25 47.65
Q 291.05 49.1 290.8 50.2 290.6 49.1 290.45 47.65
L 288.75 47.65
Q 289.1 50.9 290 52.85 289.55 53.8 288.95 54.7
L 288.95 56.85
Q 290.25 55.3 290.8 54.4 291.6 55.6 292.8 56.8
L 292.8 54.7
Q 292.25 54.05 291.7 52.8 292.5 50.8 292.85 47.65
M 296.8 47.7
L 295.25 47.7
Q 295.05 49.15 294.85 50.3 294.7 49.15 294.5 47.65
L 293 47.65
Q 293.25 50.65 294.05 52.85 293.75 53.65 293.05 54.7
L 293.05 56.8
Q 294.2 55.55 294.85 54.4 295.6 55.6 296.75 56.8
L 296.75 54.7
Q 296.05 53.7 295.7 52.8 296.45 51.1 296.8 47.7
M 276.7 46.4
L 276.7 48.15 277.7 48.15
Q 277.7 54.05 276.55 56.15 276.1 54.1 275.5 52.35
L 273.55 52.35
Q 273.6 52.6 273.75 53.1 274.1 54.55 274.25 55.15 273.2 55.3 271.85 55.3 273.25 53.55 273.85 50.85
L 276.55 50.85 276.55 49.1 269.5 49.1 269.5 50.85 271.25 50.85
Q 270.85 53.05 269.6 55.3
L 269.6 57.2
Q 272.55 57.2 274.55 56.9 274.55 57.2 274.6 57.4
L 276.25 57.4 276.25 59.05
Q 278.55 57.05 279.25 54.9 280.05 52.8 280.1 48.15
L 281.3 48.15 281.3 56.35
Q 281.3 57.05 280.7 57.05
L 279.75 57.05 279.75 58.65 281.55 58.65
Q 283.85 58.7 283.8 56.35
L 283.8 46.4 280.2 46.4 280.2 44.45 277.7 44.45 277.7 46.4 276.7 46.4
M 270.25 45.35
L 270.25 47.1 276.1 47.1 276.1 45.35 270.25 45.35
M 257.5 52.6
L 255.2 52.6
Q 254.8 56.1 253.5 58.65
L 256.2 58.65
Q 257.3 56.3 257.5 52.6
M 258.05 45.15
L 258.05 46.9 261.35 46.9 261.35 48.6 257.6 48.6 257.6 50.4 261.35 50.4 261.35 52.3 258.05 52.3 258.05 58.45 265.05 58.45
Q 267.5 58.55 267.5 56.05
L 267.5 52.3 264.1 52.3 264.1 50.4 268 50.4 268 48.6 264.1 48.6 264.1 46.9 264.95 46.9
Q 266.2 46.9 267.55 46.6
L 267.55 44.7
Q 266.05 45.15 264.8 45.15
L 258.05 45.15
M 264.95 55.9
Q 265 56.9 264 56.85
L 260.6 56.85 260.6 54.05 264.95 54.05 264.95 55.9
M 256.3 48.65
L 253.8 48.65
Q 254.55 50.2 255 51.85
L 257.5 51.85
Q 257 49.85 256.3 48.65
M 256.25 44.85
L 253.75 44.85
Q 254.5 46.4 254.85 47.95
L 257.35 47.95
Q 257 46.3 256.25 44.85
M 248.35 57.15
L 248.35 55.45 237.75 55.45 237.75 57.15 248.35 57.15
M 249.85 53.15
L 249.85 50.4 238.8 50.4 238.8 52.05 247.3 52.05 247.3 53.15 242.3 53.15
Q 241.6 53.2 241.7 52.6
L 241.7 52.2 239.25 52.2 239.25 53.15
Q 239.2 54.9 241.1 54.85
L 248.95 54.85 248.95 56.6
Q 249 57.35 248.25 57.3
L 247.3 57.3 247.3 58.8 249.45 58.8
Q 251.6 58.85 251.55 56.7
L 251.55 53.15 249.85 53.15
M 244.95 48.1
L 244.95 45.1 241.85 45.1 241.85 44.55 239.55 44.55 239.55 45.1 237.8 45.1 237.8 46.8 239.45 46.8
Q 239.25 48.05 237.8 49.05
L 237.8 50.55
Q 241.3 49.6 241.75 46.8
L 242.7 46.8 242.7 47.85
Q 242.75 48.55 242.05 48.45
L 241.45 48.45 241.45 50.1 242.95 50.1
Q 245 50.15 244.95 48.1
M 251.35 47.9
L 251.35 45.1 245.55 45.1 245.55 49.95 249.55 49.95
Q 251.45 50.05 251.35 47.9
M 247.75 48.4
L 247.75 46.65 249.25 46.65 249.25 47.8
Q 249.3 48.4 248.55 48.4
L 247.75 48.4
M 225 48.85
L 221.55 48.85 221.55 50.6 222.55 50.6 222.55 58.45
Q 224.35 57.95 225.6 56.95
L 225.6 57.9
Q 228.5 57.9 231.1 57.05
L 231.1 55.35
Q 230.85 55.4 230.35 55.45 229.8 55.6 229.55 55.65
L 229.55 51.65 230.55 51.65 230.55 49.85 226.1 49.85 226.1 51.65 227.2 51.65 227.2 55.9
Q 226.55 55.9 226 55.9
L 226 54.8
Q 225.6 55.1 225 55.4
L 225 48.85
M 225.3 47.85
Q 225 46.15 224.25 44.65
L 221.8 44.65
Q 222.6 46.35 222.85 47.85
L 225.3 47.85
M 225.75 46.35
L 225.75 48.2 230.75 48.2
Q 230.75 50.95 231.2 53.9 231.85 59.05 234.55 58.9 236.5 58.95 236.45 56.3
L 235.1 56.3
Q 235.2 57.35 234.6 57.3 233.7 57.1 233.35 53.05 233.2 51.05 233.2 48.2
L 236.2 48.2 236.2 46.35 235.7 46.35 235.7 44.9 233.7 44.9 233.7 46.35 233.2 46.35 233.2 44.55 230.7 44.55
Q 230.7 45.45 230.7 46.35
L 225.75 46.35
M 210.95 45.15
L 210.95 46.9 211.7 46.9 211.7 47.85
Q 211.7 51.55 211.35 53.3 211.1 55.1 210.25 56.8
L 210.25 58.9
Q 213 56.2 213.6 53.15 214.1 54.85 214.95 55.95 214 56.7 212.55 57.4
L 212.55 58.95
Q 214.8 58.1 216.2 57.2 217.55 58.15 220 58.9
L 220 57.35
Q 218.55 56.95 217.6 56.05 219.25 54.35 219.8 50.95
L 219.8 49.4 217.45 49.4
Q 218.35 48.35 218.85 46.9
L 218.85 45.15 210.95 45.15
M 214.05 48.2
L 214.05 46.9 216.3 46.9
Q 216 48.3 215.25 49.4
L 215.25 50.95 217.35 50.95
Q 217.1 52.95 216.35 54.3 215.8 53.2 215.6 51.85
L 213.85 51.85
Q 214.05 50.3 214.05 48.2
M 207.05 44.45
L 207.05 46.4 205.7 46.4 205.7 48.2 207.05 48.2
Q 206.55 51.1 205.5 53.6
L 205.5 56.05
Q 206.45 54.85 207.05 53.55
L 207.05 58.95 209.5 58.95 209.5 52.35
Q 210.05 53.3 210.75 54.1
L 210.75 51.55
Q 209.75 49.7 209.5 48.2
L 210.6 48.2 210.6 46.4 209.5 46.4 209.5 44.45 207.05 44.45
M 183.8 52.85
L 183.8 50.9 175.3 50.9 175.3 52.85 183.8 52.85
M 200.45 48.2
L 200.45 44.6 197.55 44.6 197.55 56.7
Q 197.6 58.6 199.6 58.65
L 204 58.65 204 56.9 201.1 56.9
Q 200.35 57.05 200.45 56.1
L 200.45 50.05 204 50.05 204 48.2 200.45 48.2
M 193.25 44.6
L 193.25 48.2 189.6 48.2 189.6 50.05 193.25 50.05 193.25 56.05
Q 193.3 56.95 192.45 56.9
L 189.6 56.9 189.6 58.65 194 58.65
Q 196.05 58.6 196.1 56.7
L 196.1 44.6 193.25 44.6
M 168.95 47.6
L 168.95 45.8 161.3 45.8
Q 161.45 45.2 161.65 44.6
L 158.7 44.6
Q 158.7 44.7 158.65 44.9 158.45 45.45 158.4 45.8
L 155.3 45.8 155.3 47.6 157.7 47.6
Q 157.1 49.1 156.05 50.8
L 156.05 52.6 160.95 52.6 160.95 54.4 154.95 54.4 154.95 56.3 160.95 56.3 160.95 58.95 163.85 58.95 163.85 56.3 169.35 56.3 169.35 54.4 163.85 54.4 163.85 52.6 168.3 52.6 168.3 50.8 163.85 50.8 163.85 48.8 160.95 48.8 160.95 50.8 158.55 50.8
Q 159.8 49.2 160.45 47.6
L 168.95 47.6
M 138.9 58.65
L 141.45 58.65
Q 142.45 56.05 142.8 52.4
L 140.55 52.4
Q 140.15 55.6 138.9 58.65
M 153.65 56.1
L 151.95 56.1
Q 152.05 57.3 151.65 57.15 150.95 57.55 151.2 50.9
L 143.2 50.9 143.2 52.65 148.45 52.65
Q 148.2 59.3 151.35 58.9 153.8 59.1 153.65 56.1
M 141.8 48.6
L 139.45 48.6
Q 140.05 50.15 140.3 51.65
L 142.7 51.65
Q 142.55 50.35 141.8 48.6
M 144.55 44.55
Q 144.2 47.1 142.7 48.35
L 142.7 50.1
Q 143.85 49.6 144.55 49.15
L 144.55 49.85 151.9 49.85 151.9 48.1 145.7 48.1
Q 146.1 47.6 146.35 47.15
L 152.8 47.15 152.8 45.4 146.9 45.4
Q 146.95 45.2 146.95 44.95 147.05 44.65 147.05 44.55
L 144.55 44.55
M 139.2 44.85
Q 139.8 45.95 140.15 47.9
L 142.55 47.9
Q 142.35 46.35 141.6 44.85
L 139.2 44.85
M 132.05 44.55
L 132.05 46.6 127.15 46.6 127.15 54.3
Q 127.2 56.4 126.55 57.4
L 126.55 59.05
Q 129.45 57.55 129.4 53.8
L 129.4 51.65 130.05 51.65 130.05 55.15
Q 130.1 55.8 129.55 55.7
L 129.3 55.7 129.3 57.4 130.35 57.4
Q 132.05 57.4 131.95 55.45
L 131.95 49.95 129.4 49.95 129.4 48.35 132.1 48.35
Q 132.15 51.55 132.65 54.8 132.65 54.9 132.7 55.1 132.8 55.55 132.85 55.7 132.3 56.4 131.55 57.15
L 131.55 58.95
Q 132.65 58.15 133.45 57.4 134.35 58.9 135.95 58.9 137.9 58.95 137.85 56.35
L 136.35 56.35
Q 136.35 57.2 135.95 57.2 135.35 57.3 134.95 55.85 136.65 53.65 137.45 49.3
L 135.3 49.3
Q 135.1 51.2 134.55 52.7 134.35 50.85 134.35 48.35
L 137.45 48.35 137.45 46.6 136.85 46.6 136.85 44.85 134.95 44.85 134.95 46.6 134.35 46.6 134.35 44.55 132.05 44.55
M 126.15 47.2
L 126.15 44.55 123.85 44.55 123.85 47.2 123.05 47.2 123.05 48.95 123.85 48.95 123.85 55.55
Q 123.35 55.65 122.9 55.65
L 122.9 57.7
Q 125.35 57.35 126.85 56.55
L 126.85 54.7
Q 126.55 54.9 126.15 54.95
L 126.15 48.95 126.8 48.95 126.8 47.2 126.15 47.2
M 111.6 44.65
L 108.8 44.65 108.8 50.15 107.1 50.15 107.1 51.95 108.8 51.95 108.8 58.95
Q 111.95 58.1 114.3 56.9
L 114.3 54.85
Q 114.15 54.9 113.85 55.05 112.3 55.6 111.6 55.8
L 111.6 51.95 112.9 51.95
Q 114.95 57.1 121.15 58.2
L 121.15 56.7
Q 117.2 55.45 115.85 51.95
L 121.2 51.95 121.2 50.15 111.6 50.15 111.6 44.65
M 120.6 45.3
L 117.35 45.3
Q 115.8 47.65 112.15 48.1
L 112.15 49.65
Q 118.15 49.35 120.6 45.3
M 193.85 18.15
L 193.85 15.35 181.1 15.35
Q 181.2 15.05 181.4 14.5 181.5 14.1 181.6 13.85
L 177.35 13.85
Q 176.35 17.95 173.35 19.85
L 173.35 22.35
Q 174.75 22 175.8 21.45
L 175.8 28 172.95 28 172.95 30.7 183.2 30.7 183.2 35.4 187.5 35.4 187.5 30.7 194.6 30.7 194.6 28 187.5 28 187.5 23.6 193.3 23.6 193.3 20.85 187.5 20.85 187.5 18.15 193.85 18.15
M 183.2 18.15
L 183.2 20.85 176.9 20.85
Q 178.7 19.75 179.8 18.15
L 183.2 18.15
M 179.7 23.6
L 183.2 23.6 183.2 28 179.7 28 179.7 23.6
M 170.75 20
Q 170.45 14.4 163.6 14.2 156.85 14.3 155.65 21.05
L 159.85 21.05
Q 160.35 17.2 163.35 17.1 166.25 17 166.25 20.2 166.5 22.25 161.65 25.75 157.7 28.65 155.75 32
L 155.75 34.75 170.65 34.75 170.65 32.1 160.25 32.1
Q 161.85 29.5 166.15 26.95 171 24.05 170.75 20
M 152.45 14.5
L 147.95 14.5
Q 146.2 18.45 141.5 20.4
L 141.5 22.95
Q 145.35 22.35 147.95 20.5
L 147.95 34.75 152.45 34.75 152.45 14.5
M 139.8 24.7
Q 139.7 14.2 131.9 14.1 124.3 14.5 124.15 24.7 124.25 34.95 131.9 35.1 139.9 35.2 139.8 24.7
M 135.2 24.8
Q 135.2 32.4 132 32.4 128.65 32.4 128.65 24.8 128.65 16.95 132 17 135.3 16.85 135.2 24.8
M 122.1 34.75
L 122.1 32.1 111.7 32.1
Q 113.3 29.5 117.6 26.95 122.45 24.05 122.2 20 121.9 14.4 115.05 14.2 108.3 14.3 107.1 21.05
L 111.3 21.05
Q 111.8 17.2 114.8 17.1 117.7 17 117.7 20.2 117.95 22.25 113.1 25.75 109.15 28.65 107.2 32
L 107.2 34.75 122.1 34.75 Z"/>
</g>
</defs>

<g transform="matrix( 1, 0, 0, 1, 0,0) ">
<use xlink:href="#Layer1_0_FILL"/>
</g>

<g transform="matrix( 10.800430297851562, 0, 0, 10.800430297851562, 5.5,4.6) ">
<g transform="matrix( 1, 0, 0, 1, 0,0) ">
<use xlink:href="#pop_0_Layer5_0_FILL"/>
</g>

<g transform="matrix( 1, 0, 0, 1, 0,0) ">
<use xlink:href="#pop_0_Layer4_0_FILL"/>
</g>

<g transform="matrix( 1, 0, 0, 1, 0,0) ">
<use xlink:href="#pop_0_Layer3_0_FILL"/>
</g>

<g transform="matrix( 1, 0, 0, 1, 0,0) ">
<use xlink:href="#pop_0_Layer2_0_FILL"/>
</g>

<g transform="matrix( 1, 0, 0, 1, 0,0) ">
<use xlink:href="#pop_0_Layer1_0_FILL"/>
</g>

<g transform="matrix( 1, 0, 0, 1, 0,0) ">
<use xlink:href="#pop_0_Layer0_0_FILL"/>
</g>
</g>

<g transform="matrix( 1, 0, 0, 1, 0,0) ">
<use xlink:href="#Layer1_1_MEMBER_1_FILL"/>
</g>

<g transform="matrix( 1, 0, 0, 1, 0,0) ">
<use xlink:href="#Layer1_1_MEMBER_1_MEMBER_0_FILL"/>
</g>

<g transform="matrix( 1, 0, 0, 1, 0,0) ">
<use xlink:href="#Layer0_0_FILL"/>
</g>
</svg>
