
<svg xmlns="http://www.w3.org/2000/svg" version="1.1" xmlns:xlink="http://www.w3.org/1999/xlink" preserveAspectRatio="none" x="0px" y="0px" width="550px" height="100px" viewBox="0 0 550 100">
<defs>
<g id="Layer1_0_FILL">
<path fill="#000000" fill-opacity="0.5019607843137255" stroke="none" d="
M 545.45 49.2
Q 545.45 28.8 531 14.4 516.65 0 496.25 0
L 49.2 0
Q 28.8 0 14.35 14.4 0 28.8 0 49.2 0 69.6 14.35 84 28.8 98.4 49.2 98.4
L 496.25 98.4
Q 516.65 98.4 531 84 545.45 69.6 545.45 49.2 Z"/>
</g>

<g id="pop_0_Layer5_0_FILL">
<path fill="#0C0A80" fill-opacity="0.2" stroke="none" d="
M 7.25 6.1
Q 7.75 5.2 7.85 4.45 7.85 4.3 7.85 4 7.7 2.15 6.05 1.6 4.15 1.1 3 2.6 1.9 4.15 3.45 5.9 4.7 7.3 2.95 7.8 3.1 7.95 3.7 7.95 3.75 7.95 3.85 7.95 4.5 8 5.5 7.6 6.7 7 7.25 6.1 Z"/>
</g>

<g id="pop_0_Layer4_0_FILL">
<path fill="#0C0A80" fill-opacity="0.2" stroke="none" d="
M 4.85 5.25
Q 4.85 4.4 4.25 3.75 3.65 3.15 2.8 3.15 1.95 3.15 1.35 3.75 0.7 4.4 0.7 5.25 0.7 6.1 1.35 6.7 1.95 7.3 2.8 7.3 3.65 7.3 4.25 6.7 4.85 6.1 4.85 5.25 Z"/>
</g>

<g id="pop_0_Layer3_0_FILL">
<path fill="#0C0A80" fill-opacity="0.2" stroke="none" d="
M 7.05 2.25
Q 7.05 1.6 6.6 1.15 6.15 0.7 5.5 0.7 4.85 0.7 4.4 1.15 3.95 1.6 3.95 2.25 3.95 2.9 4.4 3.35 4.85 3.8 5.5 3.8 6.15 3.8 6.6 3.35 7.05 2.9 7.05 2.25 Z"/>
</g>

<g id="pop_0_Layer2_0_FILL">
<path fill="#FFFFFF" fill-opacity="0.30196078431372547" stroke="none" d="
M 8.2 4.1
Q 8.2 2.4 7 1.2 5.8 0 4.1 0 2.4 0 1.2 1.2 0 2.4 0 4.1 0 5.8 1.2 7 2.4 8.2 4.1 8.2 5.8 8.2 7 7 8.2 5.8 8.2 4.1 Z"/>
</g>

<g id="pop_0_Layer1_0_FILL">
<path fill="#FFFFFF" fill-opacity="0.5019607843137255" stroke="none" d="
M 2.1 6.2
Q 3.7 5.95 2.65 3.7 1.9 1.2 4.2 0.3 3.65 0.35 3 0.55 1.7 1.1 1.1 1.9 0.5 2.75 0.4 3.5 0.35 3.65 0.35 3.95 0.4 6.2 2.1 6.2 Z"/>
</g>

<g id="pop_0_Layer0_0_FILL">
<path fill="#FFFFFF" fill-opacity="0.5019607843137255" stroke="none" d="
M 6.9 1.85
Q 6.9 1.45 6.65 1.2 6.35 0.9 6 0.9 5.6 0.9 5.35 1.2 5.05 1.45 5.05 1.85 5.05 2.2 5.35 2.5 5.6 2.75 6 2.75 6.35 2.75 6.65 2.5 6.9 2.2 6.9 1.85 Z"/>
</g>

<g id="Layer1_1_MEMBER_1_FILL">
<path fill="#FFFFFF" stroke="none" d="
M 73.9 39.95
Q 73.9 29.9 66.85 22.85 66.8 22.8 66.75 22.75 59.7 15.75 49.7 15.75 39.65 15.75 32.6 22.85 25.5 29.9 25.5 39.95 25.5 49.95 32.5 57 32.55 57.05 32.6 57.1 33.8 58.3 35.1 59.3
L 35.05 80.9
Q 35.05 82.15 35.95 83.05 36.8 83.9 38.05 83.9 39.3 83.9 40.2 83.05
L 49.7 73.55 59.25 83.1
Q 60.1 83.95 61.35 83.95 62.6 83.95 63.5 83.1 64.35 82.2 64.35 80.95
L 64.35 59.3
Q 65.65 58.25 66.85 57.1 73.9 50 73.9 39.95 Z"/>
</g>

<g id="Layer1_1_MEMBER_1_MEMBER_0_FILL">
<path fill="#B84F4F" stroke="none" d="
M 38.1 53.7
L 38.05 80.9 49.6 69.4 49.6 42.2 38.1 53.7 Z"/>

<path fill="#A12C2C" stroke="none" d="
M 49.7 42.1
L 49.6 42.2 49.6 69.4 49.7 69.3 61.35 80.95 61.35 53.75 49.7 42.1 Z"/>
</g>

<g id="Layer1_1_MEMBER_1_MEMBER_1_FILL">
<path fill="#FFCC00" stroke="none" d="
M 58.9 30.6
Q 55.1 26.85 49.7 26.85 44.2 26.85 40.4 30.65 36.55 34.5 36.55 39.95 36.55 45.35 40.3 49.15
L 58.9 30.6 Z"/>

<path fill="#C59E00" stroke="none" d="
M 64.6 24.85
Q 58.45 18.75 49.7 18.75 40.9 18.75 34.7 24.95 28.5 31.15 28.5 39.95 28.5 48.7 34.6 54.85
L 40.3 49.15
Q 36.55 45.35 36.55 39.95 36.55 34.5 40.4 30.65 44.2 26.85 49.7 26.85 55.1 26.85 58.9 30.6
L 64.6 24.85
M 58.95 49.25
Q 62.8 45.4 62.8 39.95 62.8 34.5 58.95 30.65
L 58.9 30.6 40.3 49.15
Q 40.35 49.2 40.4 49.25 44.2 53.05 49.7 53.05 55.15 53.05 58.95 49.25 Z"/>

<path fill="#957800" stroke="none" d="
M 62.8 39.95
Q 62.8 45.4 58.95 49.25 55.15 53.05 49.7 53.05 44.2 53.05 40.4 49.25 40.35 49.2 40.3 49.15
L 34.6 54.85
Q 34.65 54.9 34.7 54.95 40.9 61.15 49.7 61.15 58.5 61.15 64.7 54.95 70.9 48.75 70.9 39.95 70.9 31.15 64.7 24.95 64.65 24.9 64.6 24.85
L 58.9 30.6 58.95 30.65
Q 62.8 34.5 62.8 39.95 Z"/>
</g>

<g id="Layer0_0_FILL">
<path fill="#FFFFFF" stroke="none" d="
M 300.3 72.15
L 297.4 72.15 295 76.75 294.95 76.75 294.55 72.15 291.9 72.15 293.3 79.4 295.75 79.4 300.3 72.15
M 300.9 52.9
Q 301 52.45 301 52 301 51.3 300.5 50.75 300 50.25 299 50.25 298.3 50.25 297.65 50.5 297 50.75 296.2 51.45 296.12265625 51.237109375 296 51.05 295.8064453125 50.764453125 295.5 50.55 294.95 50.25 294.25 50.25 292.8 50.25 291.6 51.45
L 291.55 51.45 291.8 50.4 289.2 50.4 287.65 57.65 290.45 57.65 291.2 54.15
Q 291.4 53.15 291.9 52.7 292.35 52.25 292.75 52.25 293.35 52.25 293.35 52.8 293.35 52.95 293.3 53.15 293.25 53.4 293 54.6
L 292.35 57.65 295.15 57.65 295.85 54.4
Q 295.9193359375 54.0951171875 296 53.8 296.2109375 53.161328125 296.5 52.8 296.9 52.25 297.5 52.25 298.05 52.25 298.05 52.85 298.05 52.9 298 53.15 298 53.35 297.75 54.55
L 297.05 57.65 299.85 57.65 300.9 52.9
M 291.05 72.15
L 288.25 72.15 286.7 79.4 289.5 79.4 291.05 72.15
M 291.6 69.4
L 288.85 69.4 288.45 71.3 291.2 71.3 291.6 69.4
M 281 74.15
L 282 74.15 281.45 76.6
Q 281.25 77.55 281.25 77.8 281.25 78.45 281.75 79 282.25 79.55 283.4 79.55 284 79.55 285.25 79.4
L 285.7 77.4
Q 285 77.55 284.8 77.55 284.15 77.55 284.15 77.05 284.15 76.85 284.2 76.7
L 284.75 74.15 286.2 74.15 286.65 72.15 285.2 72.15 285.75 69.45 282.65 71 282.4 72.15 281.4 72.15 281 74.15
M 276.8 72
Q 275.55 72 274.65 72.35 273.8 72.7 273.35 73.3 272.95 73.9 272.95 74.55 272.95 75.3 273.5 75.85 274.1 76.35 275.7 76.6 276.4 76.7 276.65 76.8 276.9 76.95 276.9 77.25 276.9 77.65 276.55 77.85 276.2 78.05 275.75 78.05 274.75 78.05 274.6 77.15
L 271.85 77.4
Q 271.95 78.55 272.8 79.05 273.6 79.55 275.3 79.55 277.45 79.55 278.5 78.8 279.55 78 279.55 76.85 279.55 76.05 279 75.6 278.45 75.1 276.85 74.85 275.85 74.7 275.65 74.55 275.4 74.4 275.4 74.1 275.4 73.9 275.65 73.7 275.9 73.5 276.45 73.5 277.3 73.5 277.4 74.15
L 280 73.9
Q 279.8 72.85 279.05 72.4 278.25 72 276.8 72
M 270.55 72.85
Q 269.65 72 267.65 72 266.7 72 266 72.2 265.3 72.4 264.55 72.95 263.85 73.55 263.4 74.4 263 75.25 263 76.25 263 77.65 263.9 78.6 264.8 79.55 266.95 79.55 268.45 79.55 269.4 79.1 270.4 78.6 271 77.55
L 268.3 77.3
Q 267.85 77.95 267 77.95 265.85 77.95 265.7 76.5
L 271.25 76.5
Q 271.45 75.45 271.45 75.05 271.45 73.75 270.55 72.85
M 267.55 73.6
Q 268.05 73.6 268.4 73.9 268.7 74.15 268.7 74.7 268.7 75 268.65 75.15
L 265.95 75.15
Q 266.2 74.4 266.65 74 267.05 73.6 267.55 73.6
M 220.55 72.15
L 217.75 72.15 216.2 79.4 219 79.4 220.55 72.15
M 220.7 71.3
L 221.1 69.4 218.35 69.4 217.95 71.3 220.7 71.3
M 210.5 74.15
L 211.5 74.15 210.95 76.6
Q 210.75 77.55 210.75 77.8 210.75 78.45 211.25 79 211.75 79.55 212.9 79.55 213.5 79.55 214.75 79.4
L 215.2 77.4
Q 214.5 77.55 214.3 77.55 213.65 77.55 213.65 77.05 213.65 76.85 213.7 76.7
L 214.25 74.15 215.7 74.15 216.15 72.15 214.7 72.15 215.25 69.45 212.15 71 211.9 72.15 210.9 72.15 210.5 74.15
M 207.25 72.15
L 204.65 72.15 203.1 79.4 205.9 79.4 206.5 76.7
Q 206.75 75.4 207.25 74.85 207.75 74.25 208.55 74.25 208.8 74.25 209.15 74.35
L 210.15 72.2
Q 209.65 72 209.2 72 208.6 72 208.1 72.3 207.6 72.65 206.95 73.6
L 207.25 72.15
M 233.7 72.15
L 230.9 72.15 229.35 79.4 232.15 79.4 233.7 72.15
M 237.85 73.25
L 238.1 72.15 235.5 72.15 233.9 79.4 236.7 79.4 237.4 76.25
Q 237.65 75.15 238.1 74.6 238.55 74 239.15 74 239.7 74 239.7 74.6 239.7 74.8 239.45 76.05
L 238.75 79.4 241.55 79.4 242.35 75.45
Q 242.65 74.15 242.65 73.7 242.65 73 242.15 72.5 241.65 72 240.65 72 239 72 237.85 73.25
M 231.5 69.4
L 231.1 71.3 233.85 71.3 234.25 69.4 231.5 69.4
M 224.25 74.1
Q 224.25 73.9 224.5 73.7 224.75 73.5 225.3 73.5 226.15 73.5 226.25 74.15
L 228.85 73.9
Q 228.65 72.85 227.9 72.4 227.1 72 225.65 72 224.4 72 223.5 72.35 222.65 72.7 222.2 73.3 221.8 73.9 221.8 74.55 221.8 75.3 222.35 75.85 222.95 76.35 224.55 76.6 225.25 76.7 225.5 76.8 225.75 76.95 225.75 77.25 225.75 77.65 225.4 77.85 225.05 78.05 224.6 78.05 223.6 78.05 223.45 77.15
L 220.7 77.4
Q 220.8 78.55 221.65 79.05 222.45 79.55 224.15 79.55 226.3 79.55 227.35 78.8 228.4 78 228.4 76.85 228.4 76.05 227.85 75.6 227.3 75.1 225.7 74.85 224.7 74.7 224.5 74.55 224.25 74.4 224.25 74.1
M 197.2 72.2
Q 196.5 72.4 195.75 72.95 195.05 73.55 194.6 74.4 194.2 75.25 194.2 76.25 194.2 77.65 195.1 78.6 196 79.55 198.15 79.55 199.65 79.55 200.6 79.1 201.6 78.6 202.2 77.55
L 199.5 77.3
Q 199.05 77.95 198.2 77.95 197.05 77.95 196.9 76.5
L 202.45 76.5
Q 202.65 75.45 202.65 75.05 202.65 73.75 201.75 72.85 200.85 72 198.85 72 197.9 72 197.2 72.2
M 197.85 74
Q 198.25 73.6 198.75 73.6 199.25 73.6 199.6 73.9 199.9 74.15 199.9 74.7 199.9 75 199.85 75.15
L 197.15 75.15
Q 197.4 74.4 197.85 74
M 189 72.15
L 186.35 72.15 187.75 79.4 190.2 79.4 194.75 72.15 191.85 72.15 189.45 76.75 189.4 76.75 189 72.15
M 252.35 72.15
L 249.8 72.15 249.55 73.15
Q 248.7 72 247.35 72 245.75 72 244.75 73.25 243.7 74.55 243.7 76.25 243.7 77.55 244.35 78.35 245 79.15 246.1 79.15 247.35 79.15 248.25 78.15
L 248.3 78.2 248.05 79.3
Q 247.9 80 247.55 80.35 247.25 80.7 246.75 80.7 245.95 80.7 245.9 79.95
L 243.25 79.55
Q 243.25 79.65 243.25 79.9 243.25 80.65 243.75 81.3 244.25 81.95 244.95 82.15 245.6 82.35 246.85 82.35 248.65 82.35 249.55 81.65 250.5 81 250.9 78.95
L 252.35 72.15
M 248 73.85
Q 248.4 73.85 248.65 74.1 248.95 74.4 248.95 74.85 248.95 75.6 248.55 76.45 248.15 77.25 247.4 77.25 246.95 77.25 246.7 76.95 246.4 76.7 246.4 76.15 246.4 75.3 246.9 74.55 247.35 73.85 248 73.85
M 263.75 71.15
L 264.2 69.5
Q 262.8 69.2 261.85 69.2 261.2 69.2 260.75 69.35 260.25 69.5 259.95 69.8 259.65 70.15 259.5 70.5 259.4 70.9 259.15 72.15
L 258.1 72.15 257.7 74.15 258.7 74.15 257.55 79.4 260.4 79.4 261.5 74.15 262.8 74.15 263.2 72.15 261.9 72.15
Q 262.1 71.3 262.3 71.15 262.45 71 262.75 71 263.2 71 263.75 71.15
M 183.35 69.4
L 182.55 73.1
Q 181.8 71.95 180.25 71.95 178.75 71.95 177.8 73.35 176.8 74.7 176.8 76.55 176.8 77.95 177.45 78.75 178.1 79.55 179.35 79.55 180 79.55 180.45 79.4 180.95 79.2 181.5 78.65
L 181.55 78.7 181.4 79.4 184 79.4 186.15 69.4 183.35 69.4
M 181 73.85
Q 181.4 73.85 181.75 74.15 182.05 74.5 182.05 75.1 182.05 76 181.65 76.9 181.25 77.75 180.45 77.75 180.05 77.75 179.75 77.4 179.5 77.1 179.5 76.5 179.5 75.4 179.95 74.6 180.4 73.85 181 73.85
M 130 72.15
L 127.4 72.15 125.8 79.4 128.6 79.4 129.3 76.25
Q 129.55 75.15 130 74.6 130.45 74 131.05 74 131.6 74 131.6 74.6 131.6 74.8 131.35 76.05
L 130.65 79.4 133.45 79.4 134.25 75.45
Q 134.55 74.15 134.55 73.7 134.55 73 134.05 72.5 133.55 72 132.55 72 130.9 72 129.75 73.25
L 130 72.15
M 161 72.4
Q 160.2 72 158.75 72 157.5 72 156.6 72.35 155.75 72.7 155.3 73.3 154.9 73.9 154.9 74.55 154.9 75.3 155.45 75.85 156.05 76.35 157.65 76.6 158.35 76.7 158.6 76.8 158.85 76.95 158.85 77.25 158.85 77.65 158.5 77.85 158.15 78.05 157.7 78.05 156.7 78.05 156.55 77.15
L 153.8 77.4
Q 153.9 78.55 154.75 79.05 155.55 79.55 157.25 79.55 159.4 79.55 160.45 78.8 161.5 78 161.5 76.85 161.5 76.05 160.95 75.6 160.4 75.1 158.8 74.85 157.8 74.7 157.6 74.55 157.35 74.4 157.35 74.1 157.35 73.9 157.6 73.7 157.85 73.5 158.4 73.5 159.25 73.5 159.35 74.15
L 161.95 73.9
Q 161.75 72.85 161 72.4
M 143.9 73.7
Q 143.9 73 143.4 72.5 142.9 72 141.9 72 140.25 72 139.1 73.25
L 139.35 72.15 136.75 72.15 135.15 79.4 137.95 79.4 138.65 76.25
Q 138.9 75.15 139.35 74.6 139.8 74 140.4 74 140.95 74 140.95 74.6 140.95 74.8 140.7 76.05
L 140 79.4 142.8 79.4 143.6 75.45
Q 143.9 74.15 143.9 73.7
M 149.6 72
Q 148.65 72 147.95 72.2 147.25 72.4 146.5 72.95 145.8 73.55 145.35 74.4 144.95 75.25 144.95 76.25 144.95 77.65 145.85 78.6 146.75 79.55 148.9 79.55 150.4 79.55 151.35 79.1 152.35 78.6 152.95 77.55
L 150.25 77.3
Q 149.8 77.95 148.95 77.95 147.8 77.95 147.65 76.5
L 153.2 76.5
Q 153.4 75.45 153.4 75.05 153.4 73.75 152.5 72.85 151.6 72 149.6 72
M 149.5 73.6
Q 150 73.6 150.35 73.9 150.65 74.15 150.65 74.7 150.65 75 150.6 75.15
L 147.9 75.15
Q 148.15 74.4 148.6 74 149 73.6 149.5 73.6
M 118.7 72.55
Q 117.8 73.1 117.55 74.15
L 120.15 74.4
Q 120.35 73.9 120.65 73.75 120.95 73.6 121.45 73.6 121.9 73.6 122.2 73.8 122.45 73.95 122.45 74.2 122.45 74.4 122.35 74.7 121.95 74.85 120.75 74.95 119.4 75.1 118.6 75.3 117.8 75.45 117.3 75.95 116.75 76.45 116.75 77.45 116.75 78.3 117.35 78.95 117.95 79.55 119.3 79.55 120.65 79.55 121.75 78.55 121.75 78.95 121.85 79.4
L 124.55 79.4
Q 124.4 78.9 124.4 78.4 124.4 77.8 124.75 76.35 125.1 74.75 125.1 74.1 125.1 73.05 124.4 72.5 123.6 72 121.5 72 119.6 72 118.7 72.55
M 119.45 77.3
Q 119.45 76.95 119.8 76.7 120.15 76.45 122.05 76.15 121.9 77.2 121.35 77.65 120.85 78.05 120.3 78.05 119.95 78.05 119.7 77.85 119.45 77.65 119.45 77.3
M 109.05 70.05
Q 107.75 70.9 107.1 72.4 106.4 73.85 106.4 75.35 106.4 77.25 107.55 78.4 108.7 79.55 110.85 79.55 112.95 79.55 114.25 78.5 115.5 77.45 115.95 75.9
L 113.05 75.45
Q 112.7 76.4 112.2 76.85 111.75 77.3 111 77.3 110.25 77.3 109.85 76.8 109.45 76.3 109.45 75.55 109.45 74.55 109.85 73.55 110.2 72.5 110.85 72 111.5 71.5 112.2 71.5 112.75 71.5 113.15 71.85 113.6 72.2 113.6 72.95
L 113.6 73 116.45 72.65
Q 116.3 71.1 115.2 70.15 114.1 69.2 112.2 69.2 110.35 69.2 109.05 70.05
M 172.05 72
Q 170.15 72 169.25 72.55 168.35 73.1 168.1 74.15
L 170.7 74.4
Q 170.9 73.9 171.2 73.75 171.5 73.6 172 73.6 172.45 73.6 172.75 73.8 173 73.95 173 74.2 173 74.4 172.9 74.7 172.5 74.85 171.3 74.95 169.95 75.1 169.15 75.3 168.35 75.45 167.85 75.95 167.3 76.45 167.3 77.45 167.3 78.3 167.9 78.95 168.5 79.55 169.85 79.55 171.2 79.55 172.3 78.55 172.3 78.95 172.4 79.4
L 175.1 79.4
Q 174.95 78.9 174.95 78.4 174.95 77.8 175.3 76.35 175.65 74.75 175.65 74.1 175.65 73.05 174.95 72.5 174.15 72 172.05 72
M 170 77.3
Q 170 76.95 170.35 76.7 170.7 76.45 172.6 76.15 172.45 77.2 171.9 77.65 171.4 78.05 170.85 78.05 170.5 78.05 170.25 77.85 170 77.65 170 77.3
M 249.65 51.95
Q 249.65 51.25 249.15 50.75 248.65 50.25 247.65 50.25 246 50.25 244.85 51.5
L 245.1 50.4 242.5 50.4 240.9 57.65 243.7 57.65 244.4 54.5
Q 244.65 53.4 245.1 52.85 245.55 52.25 246.15 52.25 246.7 52.25 246.7 52.85 246.7 53.05 246.45 54.3
L 245.75 57.65 248.55 57.65 249.35 53.7
Q 249.65 52.4 249.65 51.95
M 256.8 50.4
L 256.55 51.4
Q 255.7 50.25 254.35 50.25 252.75 50.25 251.75 51.5 250.7 52.8 250.7 54.5 250.7 55.8 251.35 56.6 252 57.4 253.1 57.4 254.35 57.4 255.25 56.4
L 255.3 56.45 255.05 57.55
Q 254.9 58.25 254.55 58.6 254.25 58.95 253.75 58.95 252.95 58.95 252.9 58.2
L 250.25 57.8
Q 250.25 57.9 250.25 58.15 250.25 58.9 250.75 59.55 251.25 60.2 251.95 60.4 252.6 60.6 253.85 60.6 255.65 60.6 256.55 59.9 257.5 59.25 257.9 57.2
L 259.35 50.4 256.8 50.4
M 255 52.1
Q 255.4 52.1 255.65 52.35 255.95 52.65 255.95 53.1 255.95 53.85 255.55 54.7 255.15 55.5 254.4 55.5 253.95 55.5 253.7 55.2 253.4 54.95 253.4 54.4 253.4 53.55 253.9 52.8 254.35 52.1 255 52.1
M 274.15 52.25
Q 274.7 52.25 274.7 52.85 274.7 52.9 274.65 53.15 274.65 53.35 274.4 54.55
L 273.7 57.65 276.5 57.65 277.55 52.9
Q 277.65 52.45 277.65 52 277.65 51.3 277.15 50.75 276.65 50.25 275.65 50.25 274.95 50.25 274.3 50.5 273.65 50.75 272.85 51.45 272.65 50.9 272.15 50.55 271.6 50.25 270.9 50.25 269.45 50.25 268.25 51.45
L 268.2 51.45 268.45 50.4 265.85 50.4 264.3 57.65 267.1 57.65 267.85 54.15
Q 268.05 53.15 268.55 52.7 269 52.25 269.4 52.25 270 52.25 270 52.8 270 52.95 269.95 53.15 269.9 53.4 269.65 54.6
L 269 57.65 271.8 57.65 272.5 54.4
Q 272.75 53.3 273.15 52.8 273.55 52.25 274.15 52.25
M 283.25 50.25
Q 281.85 50.25 280.8 50.8 279.75 51.4 279.2 52.4 278.7 53.45 278.7 54.55 278.7 55.95 279.6 56.9 280.5 57.8 282.4 57.8 283.9 57.8 284.95 57.2 285.95 56.6 286.5 55.55 287 54.55 287 53.5 287 52.2 286.1 51.2 285.2 50.25 283.25 50.25
M 281.75 55.55
Q 281.4 55.15 281.4 54.55 281.4 53.7 281.85 52.9 282.25 52.1 283.15 52.1 283.6 52.1 283.95 52.4 284.3 52.65 284.3 53.4 284.3 54.35 283.8 55.15 283.35 55.95 282.6 55.95 282.1 55.95 281.75 55.55
M 240.2 52.35
Q 240.2 51.3 239.5 50.75 238.7 50.25 236.6 50.25 234.7 50.25 233.8 50.8 232.9 51.35 232.65 52.4
L 235.25 52.65
Q 235.45 52.15 235.75 52 236.05 51.85 236.55 51.85 237 51.85 237.3 52.05 237.55 52.2 237.55 52.45 237.55 52.65 237.45 52.95 237.05 53.1 235.85 53.2 234.5 53.35 233.7 53.55 232.9 53.7 232.4 54.2 231.85 54.7 231.85 55.7 231.85 56.55 232.45 57.2 233.05 57.8 234.4 57.8 235.75 57.8 236.85 56.8 236.85 57.2 236.95 57.65
L 239.65 57.65
Q 239.5 57.15 239.5 56.65 239.5 56.05 239.85 54.6 240.2 53 240.2 52.35
M 234.55 55.55
Q 234.55 55.2 234.9 54.95 235.25 54.7 237.15 54.4 237 55.45 236.45 55.9 235.95 56.3 235.4 56.3 235.05 56.3 234.8 56.1 234.55 55.9 234.55 55.55
M 152.5 52.25
Q 153.05 52.25 153.05 52.85 153.05 53.05 152.8 54.3
L 152.1 57.65 154.9 57.65 155.7 53.7
Q 156 52.4 156 51.95 156 51.25 155.5 50.75 155 50.25 154 50.25 152.35 50.25 151.2 51.5
L 151.45 50.4 148.85 50.4 147.25 57.65 150.05 57.65 150.75 54.5
Q 151 53.4 151.45 52.85 151.9 52.25 152.5 52.25
M 204.9 57.65
L 206.5 50.1 209.8 50.1 210.3 47.65 200.8 47.65 200.3 50.1 203.4 50.1 201.8 57.65 204.9 57.65
M 213.95 52.05
Q 214.2 52.2 214.2 52.45 214.2 52.65 214.1 52.95 213.7 53.1 212.5 53.2 211.15 53.35 210.35 53.55 209.55 53.7 209.05 54.2 208.5 54.7 208.5 55.7 208.5 56.55 209.1 57.2 209.7 57.8 211.05 57.8 212.4 57.8 213.5 56.8 213.5 57.2 213.6 57.65
L 216.3 57.65
Q 216.15 57.15 216.15 56.65 216.15 56.05 216.5 54.6 216.85 53 216.85 52.35 216.85 51.3 216.15 50.75 215.35 50.25 213.25 50.25 211.35 50.25 210.45 50.8 209.55 51.35 209.3 52.4
L 211.9 52.65
Q 212.1 52.15 212.4 52 212.7 51.85 213.2 51.85 213.65 51.85 213.95 52.05
M 213.8 54.4
Q 213.65 55.45 213.1 55.9 212.6 56.3 212.05 56.3 211.7 56.3 211.45 56.1 211.2 55.9 211.2 55.55 211.2 55.2 211.55 54.95 211.9 54.7 213.8 54.4
M 222 50.4
L 219.2 50.4 217.65 57.65 220.45 57.65 222 50.4
M 164.25 57.2
L 165.7 50.4 163.15 50.4 162.9 51.4
Q 162.05 50.25 160.7 50.25 159.1 50.25 158.1 51.5 157.05 52.8 157.05 54.5 157.05 55.8 157.7 56.6 158.35 57.4 159.45 57.4 160.7 57.4 161.6 56.4
L 161.65 56.45 161.4 57.55
Q 161.25 58.25 160.9 58.6 160.6 58.95 160.1 58.95 159.3 58.95 159.25 58.2
L 156.6 57.8
Q 156.6 57.9 156.6 58.15 156.6 58.9 157.1 59.55 157.6 60.2 158.3 60.4 158.95 60.6 160.2 60.6 162 60.6 162.9 59.9 163.85 59.25 164.25 57.2
M 162 52.35
Q 162.3 52.65 162.3 53.1 162.3 53.85 161.9 54.7 161.5 55.5 160.75 55.5 160.3 55.5 160.05 55.2 159.75 54.95 159.75 54.4 159.75 53.55 160.25 52.8 160.7 52.1 161.35 52.1 161.75 52.1 162 52.35
M 179.7 50.4
L 176.9 50.4 175.35 57.65 178.15 57.65 179.7 50.4
M 193.9 54.75
Q 194.1 53.7 194.1 53.3 194.1 52 193.2 51.1 192.3 50.25 190.3 50.25 189.35 50.25 188.65 50.45 187.95 50.65 187.2 51.2 186.5 51.8 186.05 52.65 185.65 53.5 185.65 54.5 185.65 55.9 186.55 56.85 187.45 57.8 189.6 57.8 191.1 57.8 192.05 57.35 193.05 56.85 193.65 55.8
L 190.95 55.55
Q 190.5 56.2 189.65 56.2 188.5 56.2 188.35 54.75
L 193.9 54.75
M 191.35 52.95
Q 191.35 53.25 191.3 53.4
L 188.6 53.4
Q 188.85 52.65 189.3 52.25 189.7 51.85 190.2 51.85 190.7 51.85 191.05 52.15 191.35 52.4 191.35 52.95
M 186.85 47.75
Q 185.45 47.45 184.5 47.45 183.85 47.45 183.4 47.6 182.9 47.75 182.6 48.05 182.3 48.4 182.15 48.75 182.05 49.15 181.8 50.4
L 180.75 50.4 180.35 52.4 181.35 52.4 180.2 57.65 183.05 57.65 184.15 52.4 185.45 52.4 185.85 50.4 184.55 50.4
Q 184.75 49.55 184.95 49.4 185.1 49.25 185.4 49.25 185.85 49.25 186.4 49.4
L 186.85 47.75
M 175.6 47.65
L 172.85 47.65 170.7 57.65 173.5 57.65 175.6 47.65
M 180.25 47.65
L 177.5 47.65 177.1 49.55 179.85 49.55 180.25 47.65
M 227.2 47.65
L 224.45 47.65 222.3 57.65 225.05 57.65 225.45 55.8 226.9 54.6 227.7 57.65 230.8 57.65 228.95 52.9 232.05 50.4 228.9 50.4 226.1 52.85 226.05 52.8 227.2 47.65
M 222.55 47.65
L 219.8 47.65 219.4 49.55 222.15 49.55 222.55 47.65
M 146.2 54.6
Q 146.55 53 146.55 52.35 146.55 51.3 145.85 50.75 145.05 50.25 142.95 50.25 141.05 50.25 140.15 50.8 139.25 51.35 139 52.4
L 141.6 52.65
Q 141.8 52.15 142.1 52 142.4 51.85 142.9 51.85 143.35 51.85 143.65 52.05 143.9 52.2 143.9 52.45 143.9 52.65 143.8 52.95 143.4 53.1 142.2 53.2 140.85 53.35 140.05 53.55 139.25 53.7 138.75 54.2 138.2 54.7 138.2 55.7 138.2 56.55 138.8 57.2 139.4 57.8 140.75 57.8 142.1 57.8 143.2 56.8 143.2 57.2 143.3 57.65
L 146 57.65
Q 145.85 57.15 145.85 56.65 145.85 56.05 146.2 54.6
M 142.8 55.9
Q 142.3 56.3 141.75 56.3 141.4 56.3 141.15 56.1 140.9 55.9 140.9 55.55 140.9 55.2 141.25 54.95 141.6 54.7 143.5 54.4 143.35 55.45 142.8 55.9
M 133.55 47.65
L 130.8 47.65 128.65 57.65 131.4 57.65 131.8 55.8 133.25 54.6 134.05 57.65 137.15 57.65 135.3 52.9 138.4 50.4 135.25 50.4 132.45 52.85 132.4 52.8 133.55 47.65
M 126.8 57.65
L 128.35 50.4 125.55 50.4 124 57.65 126.8 57.65
M 128.9 47.65
L 126.15 47.65 125.75 49.55 128.5 49.55 128.9 47.65
M 120.3 52.05
Q 120.55 52.2 120.55 52.45 120.55 52.65 120.45 52.95 120.05 53.1 118.85 53.2 117.5 53.35 116.7 53.55 115.9 53.7 115.4 54.2 114.85 54.7 114.85 55.7 114.85 56.55 115.45 57.2 116.05 57.8 117.4 57.8 118.75 57.8 119.85 56.8 119.85 57.2 119.95 57.65
L 122.65 57.65
Q 122.5 57.15 122.5 56.65 122.5 56.05 122.85 54.6 123.2 53 123.2 52.35 123.2 51.3 122.5 50.75 121.7 50.25 119.6 50.25 117.7 50.25 116.8 50.8 115.9 51.35 115.65 52.4
L 118.25 52.65
Q 118.45 52.15 118.75 52 119.05 51.85 119.55 51.85 120 51.85 120.3 52.05
M 117.55 55.55
Q 117.55 55.2 117.9 54.95 118.25 54.7 120.15 54.4 120 55.45 119.45 55.9 118.95 56.3 118.4 56.3 118.05 56.3 117.8 56.1 117.55 55.9 117.55 55.55
M 116.65 47.65
L 107.15 47.65 106.65 50.1 109.75 50.1 108.15 57.65 111.25 57.65 112.85 50.1 116.15 50.1 116.65 47.65
M 190 19.5
L 186.6 19.5 177.5 28.1 176.75 31.4 184.05 31.4 183.45 34.05 186.9 34.05 187.45 31.4 189.3 31.4 189.95 28.3 188.1 28.3 190 19.5
M 185.65 23.8
L 185.7 23.85 184.7 28.3 180.85 28.3 185.65 23.8
M 172 19.5
Q 169.9 21.6 166.75 22.95
L 166 26.35
Q 168.5 25.75 170.3 24.65
L 168.25 34.05 172.25 34.05 175.4 19.5 172 19.5
M 162.5 29.5
Q 163.4 27.25 163.4 24.95 163.4 22.3 161.85 20.9 160.25 19.5 158.1 19.5 156.05 19.5 154.45 20.75 152.85 22.05 151.95 24.25 151.1 26.4 151.1 28.45 151.1 31.3 152.45 32.8 153.8 34.3 156.05 34.3 158.25 34.3 159.9 33 161.55 31.75 162.5 29.5
M 156.4 23.35
Q 157.1 22.15 158.05 22.15 158.8 22.15 159.2 22.7 159.55 23.25 159.55 24.15 159.55 25.35 159.2 27.3 158.8 29.25 158.1 30.45 157.4 31.6 156.45 31.6 154.9 31.6 154.9 29.5
L 154.9 29.45
Q 154.9 28.3 155.3 26.4 155.65 24.5 156.4 23.35
M 146.05 23.65
Q 146.05 24.15 145.7 24.7 145.3 25.25 144.4 25.95
L 142.9 27
Q 140.5 28.75 139.2 30.3 137.9 31.85 137.5 34.05
L 148.45 34.05 149.15 30.8 143.5 30.8
Q 144.1 30.15 144.5 29.8 144.95 29.45 146.3 28.5 148.3 27.15 149.1 25.95 149.95 24.75 149.95 23.45 149.95 21.75 148.65 20.6 147.4 19.5 144.8 19.5 142.3 19.5 140.75 20.55 139.2 21.65 138.85 23.75
L 142.75 24.3
Q 143.15 22.15 144.55 22.15 145.1 22.15 145.6 22.55 146.05 22.9 146.05 23.65
M 130.5 19.75
L 126.35 19.75 124.55 28.05 124.5 28.05 120.95 19.75 116.85 19.75 113.75 34.05 117.9 34.05 119.7 25.75 119.75 25.75 123.25 34.05 127.4 34.05 130.5 19.75
M 113.7 19.75
L 109.25 19.75 106.15 34.05 110.65 34.05 113.7 19.75
M 397.3 73.5
Q 398.15 73.5 398.25 74.15
L 400.85 73.9
Q 400.65 72.85 399.9 72.4 399.1 72 397.65 72 396.4 72 395.5 72.35 394.65 72.7 394.2 73.3 393.8 73.9 393.8 74.55 393.8 75.3 394.35 75.85 394.95 76.35 396.55 76.6 397.25 76.7 397.5 76.8 397.75 76.95 397.75 77.25 397.75 77.65 397.4 77.85 397.05 78.05 396.6 78.05 395.6 78.05 395.45 77.15
L 392.7 77.4
Q 392.8 78.55 393.65 79.05 394.45 79.55 396.15 79.55 398.3 79.55 399.35 78.8 400.4 78 400.4 76.85 400.4 76.05 399.85 75.6 399.3 75.1 397.7 74.85 396.7 74.7 396.5 74.55 396.25 74.4 396.25 74.1 396.25 73.9 396.5 73.7 396.75 73.5 397.3 73.5
M 392.55 72.15
L 389.75 72.15 388.2 79.4 391 79.4 392.55 72.15
M 388.45 69.4
L 385.7 69.4 383.55 79.4 386.35 79.4 388.45 69.4
M 393.1 69.4
L 390.35 69.4 389.95 71.3 392.7 71.3 393.1 69.4
M 410.95 74.1
Q 410.95 73.9 411.2 73.7 411.45 73.5 412 73.5 412.85 73.5 412.95 74.15
L 415.55 73.9
Q 415.35 72.85 414.6 72.4 413.8 72 412.35 72 411.1 72 410.2 72.35 409.35 72.7 408.9 73.3 408.5 73.9 408.5 74.55 408.5 75.3 409.05 75.85 409.65 76.35 411.25 76.6 411.95 76.7 412.2 76.8 412.45 76.95 412.45 77.25 412.45 77.65 412.1 77.85 411.75 78.05 411.3 78.05 410.3 78.05 410.15 77.15
L 407.4 77.4
Q 407.5 78.55 408.35 79.05 409.15 79.55 410.85 79.55 413 79.55 414.05 78.8 415.1 78 415.1 76.85 415.1 76.05 414.55 75.6 414 75.1 412.4 74.85 411.4 74.7 411.2 74.55 410.95 74.4 410.95 74.1
M 407.05 74.15
L 407.5 72.15 406.05 72.15 406.6 69.45 403.5 71 403.25 72.15 402.25 72.15 401.85 74.15 402.85 74.15 402.3 76.6
Q 402.1 77.55 402.1 77.8 402.1 78.45 402.6 79 403.1 79.55 404.25 79.55 404.85 79.55 406.1 79.4
L 406.55 77.4
Q 405.85 77.55 405.65 77.55 405 77.55 405 77.05 405 76.85 405.05 76.7
L 405.6 74.15 407.05 74.15
M 382.75 74.1
Q 382.75 73.05 382.05 72.5 381.25 72 379.15 72 377.25 72 376.35 72.55 375.45 73.1 375.2 74.15
L 377.8 74.4
Q 378 73.9 378.3 73.75 378.6 73.6 379.1 73.6 379.55 73.6 379.85 73.8 380.1 73.95 380.1 74.2 380.1 74.4 380 74.7 379.6 74.85 378.4 74.95 377.05 75.1 376.25 75.3 375.45 75.45 374.95 75.95 374.4 76.45 374.4 77.45 374.4 78.3 375 78.95 375.6 79.55 376.95 79.55 378.3 79.55 379.4 78.55 379.4 78.95 379.5 79.4
L 382.2 79.4
Q 382.05 78.9 382.05 78.4 382.05 77.8 382.4 76.35 382.75 74.75 382.75 74.1
M 379 77.65
Q 378.5 78.05 377.95 78.05 377.6 78.05 377.35 77.85 377.1 77.65 377.1 77.3 377.1 76.95 377.45 76.7 377.8 76.45 379.7 76.15 379.55 77.2 379 77.65
M 313.65 69.4
L 310.9 69.4 308.75 79.4 311.55 79.4 313.65 69.4
M 304.3 73.6
Q 304.75 73.6 305.05 73.8 305.3 73.95 305.3 74.2 305.3 74.4 305.2 74.7 304.8 74.85 303.6 74.95 302.25 75.1 301.45 75.3 300.65 75.45 300.15 75.95 299.6 76.45 299.6 77.45 299.6 78.3 300.2 78.95 300.8 79.55 302.15 79.55 303.5 79.55 304.6 78.55 304.6 78.95 304.7 79.4
L 307.4 79.4
Q 307.25 78.9 307.25 78.4 307.25 77.8 307.6 76.35 307.95 74.75 307.95 74.1 307.95 73.05 307.25 72.5 306.45 72 304.35 72 302.45 72 301.55 72.55 300.65 73.1 300.4 74.15
L 303 74.4
Q 303.2 73.9 303.5 73.75 303.8 73.6 304.3 73.6
M 302.3 77.3
Q 302.3 76.95 302.65 76.7 303 76.45 304.9 76.15 304.75 77.2 304.2 77.65 303.7 78.05 303.15 78.05 302.8 78.05 302.55 77.85 302.3 77.65 302.3 77.3
M 368.7 73.25
L 368.95 72.15 366.35 72.15 364.75 79.4 367.55 79.4 368.25 76.25
Q 368.5 75.15 368.95 74.6 369.4 74 370 74 370.55 74 370.55 74.6 370.55 74.8 370.3 76.05
L 369.6 79.4 372.4 79.4 373.2 75.45
Q 373.5 74.15 373.5 73.7 373.5 73 373 72.5 372.5 72 371.5 72 369.85 72 368.7 73.25
M 360.2 79.4
L 363 79.4 364.55 72.15 361.75 72.15 360.2 79.4
M 325.25 71.85
L 328.55 71.85 329.05 69.4 319.55 69.4 319.05 71.85 322.15 71.85 320.55 79.4 323.65 79.4 325.25 71.85
M 330.95 72.15
L 328.45 72.15 329.55 79.4 332.05 79.4 334.45 75.1 334.5 75.1 334.95 79.4 337.4 79.4 341.55 72.15 338.7 72.15 336.7 76.65 336.65 76.65 336.25 72.15 333.75 72.15 331.25 76.75 331.2 76.75 330.95 72.15
M 362.35 69.4
L 361.95 71.3 364.7 71.3 365.1 69.4 362.35 69.4
M 359.25 69.2
Q 358.6 69.2 358.15 69.35 357.65 69.5 357.35 69.8 357.05 70.15 356.9 70.5 356.8 70.9 356.55 72.15
L 355.5 72.15 355.1 74.15 356.1 74.15 354.95 79.4 357.8 79.4 358.9 74.15 360.2 74.15 360.6 72.15 359.3 72.15
Q 359.5 71.3 359.7 71.15 359.85 71 360.15 71 360.6 71 361.15 71.15
L 361.6 69.5
Q 360.2 69.2 359.25 69.2
M 348.5 72.95
Q 347.6 72 345.65 72 344.25 72 343.2 72.55 342.15 73.15 341.6 74.15 341.1 75.2 341.1 76.3 341.1 77.7 342 78.65 342.9 79.55 344.8 79.55 346.3 79.55 347.35 78.95 348.35 78.35 348.9 77.3 349.4 76.3 349.4 75.25 349.4 73.95 348.5 72.95
M 345.55 73.85
Q 346 73.85 346.35 74.15 346.7 74.4 346.7 75.15 346.7 76.1 346.2 76.9 345.75 77.7 345 77.7 344.5 77.7 344.15 77.3 343.8 76.9 343.8 76.3 343.8 75.45 344.25 74.65 344.65 73.85 345.55 73.85
M 326.1 52.4
L 326.55 50.4 325.1 50.4 325.65 47.7 322.55 49.25 322.3 50.4 321.3 50.4 320.9 52.4 321.9 52.4 321.35 54.85
Q 321.15 55.8 321.15 56.05 321.15 56.7 321.65 57.25 322.15 57.8 323.3 57.8 323.9 57.8 325.15 57.65
L 325.6 55.65
Q 324.9 55.8 324.7 55.8 324.05 55.8 324.05 55.3 324.05 55.1 324.1 54.95
L 324.65 52.4 326.1 52.4
M 310.5 53.3
Q 310.5 52 309.6 51.1 308.7 50.25 306.7 50.25 305.75 50.25 305.05 50.45 304.35 50.65 303.6 51.2 302.9 51.8 302.45 52.65 302.05 53.5 302.05 54.5 302.05 55.9 302.95 56.85 303.85 57.8 306 57.8 307.5 57.8 308.45 57.35 309.45 56.85 310.05 55.8
L 307.35 55.55
Q 306.9 56.2 306.05 56.2 304.9 56.2 304.75 54.75
L 310.3 54.75
Q 310.5 53.7 310.5 53.3
M 307.75 52.95
Q 307.75 53.25 307.7 53.4
L 305 53.4
Q 305.25 52.65 305.7 52.25 306.1 51.85 306.6 51.85 307.1 51.85 307.45 52.15 307.75 52.4 307.75 52.95
M 319.7 51.95
Q 319.7 51.25 319.2 50.75 318.7 50.25 317.7 50.25 316.05 50.25 314.9 51.5
L 315.15 50.4 312.55 50.4 310.95 57.65 313.75 57.65 314.45 54.5
Q 314.7 53.4 315.15 52.85 315.6 52.25 316.2 52.25 316.75 52.25 316.75 52.85 316.75 53.05 316.5 54.3
L 315.8 57.65 318.6 57.65 319.4 53.7
Q 319.7 52.4 319.7 51.95 Z"/>
</g>
</defs>

<g transform="matrix( 1, 0, 0, 1, 0,0) ">
<use xlink:href="#Layer1_0_FILL"/>
</g>

<g transform="matrix( 10.800430297851562, 0, 0, 10.800430297851562, 5.45,4.6) ">
<g transform="matrix( 1, 0, 0, 1, 0,0) ">
<use xlink:href="#pop_0_Layer5_0_FILL"/>
</g>

<g transform="matrix( 1, 0, 0, 1, 0,0) ">
<use xlink:href="#pop_0_Layer4_0_FILL"/>
</g>

<g transform="matrix( 1, 0, 0, 1, 0,0) ">
<use xlink:href="#pop_0_Layer3_0_FILL"/>
</g>

<g transform="matrix( 1, 0, 0, 1, 0,0) ">
<use xlink:href="#pop_0_Layer2_0_FILL"/>
</g>

<g transform="matrix( 1, 0, 0, 1, 0,0) ">
<use xlink:href="#pop_0_Layer1_0_FILL"/>
</g>

<g transform="matrix( 1, 0, 0, 1, 0,0) ">
<use xlink:href="#pop_0_Layer0_0_FILL"/>
</g>
</g>

<g transform="matrix( 1, 0, 0, 1, 0,0) ">
<use xlink:href="#Layer1_1_MEMBER_1_FILL"/>
</g>

<g transform="matrix( 1, 0, 0, 1, 0,0) ">
<use xlink:href="#Layer1_1_MEMBER_1_MEMBER_0_FILL"/>
</g>

<g transform="matrix( 1, 0, 0, 1, 0,0) ">
<use xlink:href="#Layer1_1_MEMBER_1_MEMBER_1_FILL"/>
</g>

<g transform="matrix( 1, 0, 0, 1, 0,0) ">
<use xlink:href="#Layer0_0_FILL"/>
</g>
</svg>
