
<svg xmlns="http://www.w3.org/2000/svg" version="1.1" xmlns:xlink="http://www.w3.org/1999/xlink" preserveAspectRatio="none" x="0px" y="0px" width="550px" height="100px" viewBox="0 0 550 100">
<defs>
<g id="Layer1_0_FILL">
<path fill="#000000" fill-opacity="0.5019607843137255" stroke="none" d="
M 545.45 49.2
Q 545.45 28.8 531 14.4 516.65 0 496.25 0
L 49.2 0
Q 28.8 0 14.35 14.4 0 28.8 0 49.2 0 69.6 14.35 84 28.8 98.4 49.2 98.4
L 496.25 98.4
Q 516.65 98.4 531 84 545.45 69.6 545.45 49.2 Z"/>
</g>

<g id="pop_0_Layer5_0_FILL">
<path fill="#0C0A80" fill-opacity="0.2" stroke="none" d="
M 7.25 6.1
Q 7.75 5.2 7.85 4.45 7.85 4.3 7.85 4 7.7 2.15 6.05 1.6 4.15 1.1 3 2.6 1.9 4.15 3.45 5.9 4.7 7.3 2.95 7.8 3.1 7.95 3.7 7.95 3.75 7.95 3.85 7.95 4.5 8 5.5 7.6 6.7 7 7.25 6.1 Z"/>
</g>

<g id="pop_0_Layer4_0_FILL">
<path fill="#0C0A80" fill-opacity="0.2" stroke="none" d="
M 4.85 5.25
Q 4.85 4.4 4.25 3.75 3.65 3.15 2.8 3.15 1.95 3.15 1.35 3.75 0.7 4.4 0.7 5.25 0.7 6.1 1.35 6.7 1.95 7.3 2.8 7.3 3.65 7.3 4.25 6.7 4.85 6.1 4.85 5.25 Z"/>
</g>

<g id="pop_0_Layer3_0_FILL">
<path fill="#0C0A80" fill-opacity="0.2" stroke="none" d="
M 7.05 2.25
Q 7.05 1.6 6.6 1.15 6.15 0.7 5.5 0.7 4.85 0.7 4.4 1.15 3.95 1.6 3.95 2.25 3.95 2.9 4.4 3.35 4.85 3.8 5.5 3.8 6.15 3.8 6.6 3.35 7.05 2.9 7.05 2.25 Z"/>
</g>

<g id="pop_0_Layer2_0_FILL">
<path fill="#FFFFFF" fill-opacity="0.30196078431372547" stroke="none" d="
M 8.2 4.1
Q 8.2 2.4 7 1.2 5.8 0 4.1 0 2.4 0 1.2 1.2 0 2.4 0 4.1 0 5.8 1.2 7 2.4 8.2 4.1 8.2 5.8 8.2 7 7 8.2 5.8 8.2 4.1 Z"/>
</g>

<g id="pop_0_Layer1_0_FILL">
<path fill="#FFFFFF" fill-opacity="0.5019607843137255" stroke="none" d="
M 2.1 6.2
Q 3.7 5.95 2.65 3.7 1.9 1.2 4.2 0.3 3.65 0.35 3 0.55 1.7 1.1 1.1 1.9 0.5 2.75 0.4 3.5 0.35 3.65 0.35 3.95 0.4 6.2 2.1 6.2 Z"/>
</g>

<g id="pop_0_Layer0_0_FILL">
<path fill="#FFFFFF" fill-opacity="0.5019607843137255" stroke="none" d="
M 6.9 1.85
Q 6.9 1.45 6.65 1.2 6.35 0.9 6 0.9 5.6 0.9 5.35 1.2 5.05 1.45 5.05 1.85 5.05 2.2 5.35 2.5 5.6 2.75 6 2.75 6.35 2.75 6.65 2.5 6.9 2.2 6.9 1.85 Z"/>
</g>

<g id="Layer1_1_MEMBER_1_FILL">
<path fill="#FFFFFF" stroke="none" d="
M 72.85 24
Q 72.85 23.95 72.85 23.85 72.85 22.75 72 21.9 71.15 21.05 70.05 21.05
L 28.6 21.05
Q 27.4 21.05 26.65 21.9 26.6 21.9 26.6 21.95 25.8 22.8 25.8 23.85 25.8 23.95 25.8 24 25.8 24.65 25.85 25.35 25.85 25.5 25.85 25.7 23.85 26.6 22.2 28.3 18.4 32.1 18.4 37.4 18.4 42.65 22.2 46.4
L 22.2 46.45
Q 25.95 50.2 31.25 50.2 32.6 50.2 33.95 49.95
L 34 50
Q 37.8 54.8 42.4 56.8 43.45 60.1 43.75 63.85 41.85 67.05 39.3 69.85 38.2 71.05 36.9 72.2
L 36.85 72.25
Q 36.8 72.25 36.8 72.3 35.9 72.85 35.7 73.9 35 76.9 34.25 79.85 34.2 79.95 34.2 80.05 34.1 80.7 34.3 81.4 34.35 81.5 34.4 81.6 34.65 82.3 35.4 82.85
L 35.45 82.85
Q 36.1 83.3 36.95 83.3
L 61.7 83.3
Q 62.45 83.3 63.15 82.9 63.2 82.85 63.3 82.85 64 82.3 64.3 81.6 64.3 81.5 64.35 81.4 64.55 80.6 64.35 79.85 63.65 77 62.95 74.05 62.8 72.9 61.95 72.3 61.8 72.2 61.65 72.15 60.35 71 59.3 69.85 56.75 67.05 55 63.8 55.15 60.15 56.25 56.8 60.8 54.85 64.7 50.1 64.7 50.05 64.75 50 65.95 50.2 67.2 50.2 72.45 50.2 76.25 46.4 80 42.65 80 37.4 80 32.1 76.3 28.3 74.7 26.65 72.85 25.8 72.85 25.5 72.85 25.2 72.85 25.15 72.85 25.1 72.85 24.55 72.85 24 Z"/>
</g>

<g id="Layer1_1_MEMBER_1_MEMBER_0_FILL">
<path fill="#666666" stroke="none" d="
M 60.2 74.5
L 49.2 74.5 49.2 80.5 61.7 80.5
Q 60.95 77.55 60.25 74.5
L 60.2 74.5 Z"/>

<path fill="#999999" stroke="none" d="
M 38.4 74.5
Q 37.7 77.55 36.95 80.5
L 49.2 80.5 49.2 74.5 38.45 74.5 38.4 74.5
M 70.05 24
Q 70.05 23.95 70.05 23.85
L 49.2 23.85 49.2 74.5 60.2 74.5
Q 58.6 73.15 57.3 71.7 54.2 68.4 52.1 64.45 52.3 59.25 54 54.7
L 53.9 54.7
Q 58.6 53.15 62.5 48.3 63.05 47.6 63.6 46.8 65.25 47.4 67.2 47.4 71.35 47.4 74.3 44.45 77.25 41.55 77.25 37.4 77.25 33.2 74.3 30.25 72.35 28.35 69.95 27.7 70 26.4 70.05 25.1 70.05 24.55 70.05 24
M 67.2 44.45
Q 66.15 44.45 65.2 44.2 68.6 38.2 69.65 30.7 71.05 31.25 72.2 32.35 74.35 34.45 74.35 37.4 74.35 40.35 72.2 42.4 70.2 44.45 67.2 44.45 Z"/>

<path fill="#CCCCCC" stroke="none" d="
M 28.6 23.85
Q 28.6 23.95 28.6 24 28.6 24.55 28.6 25.1 28.6 26.35 28.7 27.65 26.15 28.25 24.15 30.25 21.2 33.2 21.2 37.4 21.2 41.55 24.15 44.45 27.1 47.4 31.25 47.4 33.25 47.4 35.05 46.75 35.55 47.5 36.15 48.25 40 53.15 44.75 54.7
L 44.65 54.7
Q 46.3 59.25 46.5 64.45 44.45 68.4 41.35 71.7 40.05 73.15 38.45 74.5
L 49.2 74.5 49.2 23.85 28.6 23.85
M 26.2 32.35
Q 27.45 31.1 29 30.65 30.05 38.15 33.45 44.15 32.4 44.45 31.25 44.45 28.3 44.45 26.2 42.4 24.15 40.35 24.15 37.4 24.15 34.45 26.2 32.35 Z"/>
</g>

<g id="Layer0_0_FILL">
<path fill="#FFFFFF" stroke="none" d="
M 134.4 73.25
L 134.65 72.15 132.05 72.15 130.45 79.4 133.25 79.4 133.95 76.25
Q 134.2 75.15 134.65 74.6 135.1 74 135.7 74 136.25 74 136.25 74.6 136.25 74.8 136 76.05
L 135.3 79.4 138.1 79.4 138.9 75.45
Q 139.2 74.15 139.2 73.7 139.2 73 138.7 72.5 138.2 72 137.2 72 135.55 72 134.4 73.25
M 130.25 72.15
L 127.45 72.15 125.9 79.4 128.7 79.4 130.25 72.15
M 130.8 69.4
L 128.05 69.4 127.65 71.3 130.4 71.3 130.8 69.4
M 128.35 50.4
L 125.55 50.4 124 57.65 126.8 57.65 128.35 50.4
M 144 73.75
Q 144.3 73.6 144.8 73.6 145.25 73.6 145.55 73.8 145.8 73.95 145.8 74.2 145.8 74.4 145.7 74.7 145.3 74.85 144.1 74.95 142.75 75.1 141.95 75.3 141.15 75.45 140.65 75.95 140.1 76.45 140.1 77.45 140.1 78.3 140.7 78.95 141.3 79.55 142.65 79.55 144 79.55 145.1 78.55 145.1 78.95 145.2 79.4
L 147.9 79.4
Q 147.75 78.9 147.75 78.4 147.75 77.8 148.1 76.35 148.45 74.75 148.45 74.1 148.45 73.05 147.75 72.5 146.95 72 144.85 72 142.95 72 142.05 72.55 141.15 73.1 140.9 74.15
L 143.5 74.4
Q 143.7 73.9 144 73.75
M 142.8 77.3
Q 142.8 76.95 143.15 76.7 143.5 76.45 145.4 76.15 145.25 77.2 144.7 77.65 144.2 78.05 143.65 78.05 143.3 78.05 143.05 77.85 142.8 77.65 142.8 77.3
M 142.1 52
Q 142.4 51.85 142.9 51.85 143.35 51.85 143.65 52.05 143.9 52.2 143.9 52.45 143.9 52.65 143.8 52.95 143.4 53.1 142.2 53.2 140.85 53.35 140.05 53.55 139.25 53.7 138.75 54.2 138.2 54.7 138.2 55.7 138.2 56.55 138.8 57.2 139.4 57.8 140.75 57.8 142.1 57.8 143.2 56.8 143.2 57.2 143.3 57.65
L 146 57.65
Q 145.85 57.15 145.85 56.65 145.85 56.05 146.2 54.6 146.55 53 146.55 52.35 146.55 51.3 145.85 50.75 145.05 50.25 142.95 50.25 141.05 50.25 140.15 50.8 139.25 51.35 139 52.4
L 141.6 52.65
Q 141.8 52.15 142.1 52
M 142.8 55.9
Q 142.3 56.3 141.75 56.3 141.4 56.3 141.15 56.1 140.9 55.9 140.9 55.55 140.9 55.2 141.25 54.95 141.6 54.7 143.5 54.4 143.35 55.45 142.8 55.9
M 152.5 52.25
Q 153.05 52.25 153.05 52.85 153.05 53.05 152.8 54.3
L 152.1 57.65 154.9 57.65 155.7 53.7
Q 156 52.4 156 51.95 156 51.25 155.5 50.75 155 50.25 154 50.25 152.35 50.25 151.2 51.5
L 151.45 50.4 148.85 50.4 147.25 57.65 150.05 57.65 150.75 54.5
Q 151 53.4 151.45 52.85 151.9 52.25 152.5 52.25
M 121.4 69.4
L 118.65 69.4 116.45 79.4 119.25 79.4 119.95 76.25
Q 120.2 75.15 120.65 74.6 121.1 74 121.7 74 122.25 74 122.25 74.6 122.25 74.8 122 76.05
L 121.3 79.4 124.1 79.4 124.9 75.45
Q 125.2 74.15 125.2 73.7 125.2 73 124.7 72.5 124.2 72 123.25 72 121.65 72 120.65 73.05
L 120.65 73 121.4 69.4
M 109.05 70.05
Q 107.75 70.9 107.1 72.4 106.4 73.85 106.4 75.35 106.4 77.25 107.55 78.4 108.7 79.55 110.85 79.55 112.95 79.55 114.25 78.5 115.5 77.45 115.95 75.9
L 113.05 75.45
Q 112.7 76.4 112.2 76.85 111.75 77.3 111 77.3 110.25 77.3 109.85 76.8 109.45 76.3 109.45 75.55 109.45 74.55 109.85 73.55 110.2 72.5 110.85 72 111.5 71.5 112.2 71.5 112.75 71.5 113.15 71.85 113.6 72.2 113.6 72.95
L 113.6 73 116.45 72.65
Q 116.3 71.1 115.2 70.15 114.1 69.2 112.2 69.2 110.35 69.2 109.05 70.05
M 120.3 52.05
Q 120.55 52.2 120.55 52.45 120.55 52.65 120.45 52.95 120.05 53.1 118.85 53.2 117.5 53.35 116.7 53.55 115.9 53.7 115.4 54.2 114.85 54.7 114.85 55.7 114.85 56.55 115.45 57.2 116.05 57.8 117.4 57.8 118.75 57.8 119.85 56.8 119.85 57.2 119.95 57.65
L 122.65 57.65
Q 122.5 57.15 122.5 56.65 122.5 56.05 122.85 54.6 123.2 53 123.2 52.35 123.2 51.3 122.5 50.75 121.7 50.25 119.6 50.25 117.7 50.25 116.8 50.8 115.9 51.35 115.65 52.4
L 118.25 52.65
Q 118.45 52.15 118.75 52 119.05 51.85 119.55 51.85 120 51.85 120.3 52.05
M 117.55 55.55
Q 117.55 55.2 117.9 54.95 118.25 54.7 120.15 54.4 120 55.45 119.45 55.9 118.95 56.3 118.4 56.3 118.05 56.3 117.8 56.1 117.55 55.9 117.55 55.55
M 116.65 47.65
L 107.15 47.65 106.65 50.1 109.75 50.1 108.15 57.65 111.25 57.65 112.85 50.1 116.15 50.1 116.65 47.65
M 113.7 19.75
L 109.25 19.75 106.15 34.05 110.65 34.05 113.7 19.75
M 133.55 47.65
L 130.8 47.65 128.65 57.65 131.4 57.65 131.8 55.8 133.25 54.6 134.05 57.65 137.15 57.65 135.3 52.9 138.4 50.4 135.25 50.4 132.45 52.85 132.4 52.8 133.55 47.65
M 128.9 47.65
L 126.15 47.65 125.75 49.55 128.5 49.55 128.9 47.65
M 130.5 19.75
L 126.35 19.75 124.55 28.05 124.5 28.05 120.95 19.75 116.85 19.75 113.75 34.05 117.9 34.05 119.7 25.75 119.75 25.75 123.25 34.05 127.4 34.05 130.5 19.75
M 148.65 20.6
Q 147.4 19.5 144.8 19.5 142.3 19.5 140.75 20.55 139.2 21.65 138.85 23.75
L 142.75 24.3
Q 143.15 22.15 144.55 22.15 145.1 22.15 145.6 22.55 146.05 22.9 146.05 23.65 146.05 24.15 145.7 24.7 145.3 25.25 144.4 25.95
L 142.9 27
Q 140.5 28.75 139.2 30.3 137.9 31.85 137.5 34.05
L 148.45 34.05 149.15 30.8 143.5 30.8
Q 144.1 30.15 144.5 29.8 144.95 29.45 146.3 28.5 148.3 27.15 149.1 25.95 149.95 24.75 149.95 23.45 149.95 21.75 148.65 20.6
M 220.55 72.15
L 217.65 72.15 215.25 76.75 215.2 76.75 214.8 72.15 212.15 72.15 213.55 79.4 216 79.4 220.55 72.15
M 206.65 72.15
L 203.85 72.15 202.3 79.4 205.1 79.4 206.65 72.15
M 207.2 69.4
L 204.45 69.4 204.05 71.3 206.8 71.3 207.2 69.4
M 211.85 69.4
L 209.1 69.4 206.95 79.4 209.75 79.4 211.85 69.4
M 204.9 57.65
L 206.5 50.1 209.8 50.1 210.3 47.65 200.8 47.65 200.3 50.1 203.4 50.1 201.8 57.65 204.9 57.65
M 213.2 51.85
Q 213.65 51.85 213.95 52.05 214.2 52.2 214.2 52.45 214.2 52.65 214.1 52.95 213.7 53.1 212.5 53.2 211.15 53.35 210.35 53.55 209.55 53.7 209.05 54.2 208.5 54.7 208.5 55.7 208.5 56.55 209.1 57.2 209.7 57.8 211.05 57.8 212.4 57.8 213.5 56.8 213.5 57.2 213.6 57.65
L 216.3 57.65
Q 216.15 57.15 216.15 56.65 216.15 56.05 216.5 54.6 216.85 53 216.85 52.35 216.85 51.3 216.15 50.75 215.35 50.25 213.25 50.25 211.35 50.25 210.45 50.8 209.55 51.35 209.3 52.4
L 211.9 52.65
Q 212.1 52.15 212.4 52 212.7 51.85 213.2 51.85
M 213.8 54.4
Q 213.65 55.45 213.1 55.9 212.6 56.3 212.05 56.3 211.7 56.3 211.45 56.1 211.2 55.9 211.2 55.55 211.2 55.2 211.55 54.95 211.9 54.7 213.8 54.4
M 222 50.4
L 219.2 50.4 217.65 57.65 220.45 57.65 222 50.4
M 235.95 72.2
Q 235.45 72 235 72 234.4 72 233.9 72.3 233.4 72.65 232.75 73.6
L 233.05 72.15 230.45 72.15 228.9 79.4 231.7 79.4 232.3 76.7
Q 232.55 75.4 233.05 74.85 233.55 74.25 234.35 74.25 234.6 74.25 234.95 74.35
L 235.95 72.2
M 227.55 72.85
Q 226.65 72 224.65 72 223.7 72 223 72.2 222.3 72.4 221.55 72.95 220.85 73.55 220.4 74.4 220 75.25 220 76.25 220 77.65 220.9 78.6 221.8 79.55 223.95 79.55 225.45 79.55 226.4 79.1 227.4 78.6 228 77.55
L 225.3 77.3
Q 224.85 77.95 224 77.95 222.85 77.95 222.7 76.5
L 228.25 76.5
Q 228.45 75.45 228.45 75.05 228.45 73.75 227.55 72.85
M 223.65 74
Q 224.05 73.6 224.55 73.6 225.05 73.6 225.4 73.9 225.7 74.15 225.7 74.7 225.7 75 225.65 75.15
L 222.95 75.15
Q 223.2 74.4 223.65 74
M 240.2 52.35
Q 240.2 51.3 239.5 50.75 238.7 50.25 236.6 50.25 234.7 50.25 233.8 50.8 232.9 51.35 232.65 52.4
L 235.25 52.65
Q 235.45 52.15 235.75 52 236.05 51.85 236.55 51.85 237 51.85 237.3 52.05 237.55 52.2 237.55 52.45 237.55 52.65 237.45 52.95 237.05 53.1 235.85 53.2 234.5 53.35 233.7 53.55 232.9 53.7 232.4 54.2 231.85 54.7 231.85 55.7 231.85 56.55 232.45 57.2 233.05 57.8 234.4 57.8 235.75 57.8 236.85 56.8 236.85 57.2 236.95 57.65
L 239.65 57.65
Q 239.5 57.15 239.5 56.65 239.5 56.05 239.85 54.6 240.2 53 240.2 52.35
M 234.55 55.55
Q 234.55 55.2 234.9 54.95 235.25 54.7 237.15 54.4 237 55.45 236.45 55.9 235.95 56.3 235.4 56.3 235.05 56.3 234.8 56.1 234.55 55.9 234.55 55.55
M 179.5 72.15
L 176.7 72.15 175.15 79.4 177.95 79.4 179.5 72.15
M 180.05 69.4
L 177.3 69.4 176.9 71.3 179.65 71.3 180.05 69.4
M 171.5 72.15
L 170.45 72.15 170.05 74.15 171.05 74.15 169.9 79.4 172.75 79.4 173.85 74.15 175.15 74.15 175.55 72.15 174.25 72.15
Q 174.45 71.3 174.65 71.15 174.8 71 175.1 71 175.55 71 176.1 71.15
L 176.55 69.5
Q 175.15 69.2 174.2 69.2 173.55 69.2 173.1 69.35 172.6 69.5 172.3 69.8 172 70.15 171.85 70.5 171.75 70.9 171.5 72.15
M 163.85 71.55
L 164.3 69.4 156.1 69.4 153.95 79.4 162.55 79.4 163.05 77.1 157.55 77.1 157.95 75.15 162.85 75.15 163.3 73.1 158.4 73.1 158.75 71.55 163.85 71.55
M 166.6 69.8
Q 166.3 70.15 166.15 70.5 166.05 70.9 165.8 72.15
L 164.75 72.15 164.35 74.15 165.35 74.15 164.2 79.4 167.05 79.4 168.15 74.15 169.45 74.15 169.85 72.15 168.55 72.15
Q 168.75 71.3 168.95 71.15 169.1 71 169.4 71 169.85 71 170.4 71.15
L 170.85 69.5
Q 169.45 69.2 168.5 69.2 167.85 69.2 167.4 69.35 166.9 69.5 166.6 69.8
M 165.7 50.4
L 163.15 50.4 162.9 51.4
Q 162.05 50.25 160.7 50.25 159.1 50.25 158.1 51.5 157.05 52.8 157.05 54.5 157.05 55.8 157.7 56.6 158.35 57.4 159.45 57.4 160.7 57.4 161.6 56.4
L 161.65 56.45 161.4 57.55
Q 161.25 58.25 160.9 58.6 160.6 58.95 160.1 58.95 159.3 58.95 159.25 58.2
L 156.6 57.8
Q 156.6 57.9 156.6 58.15 156.6 58.9 157.1 59.55 157.6 60.2 158.3 60.4 158.95 60.6 160.2 60.6 162 60.6 162.9 59.9 163.85 59.25 164.25 57.2
L 165.7 50.4
M 162 52.35
Q 162.3 52.65 162.3 53.1 162.3 53.85 161.9 54.7 161.5 55.5 160.75 55.5 160.3 55.5 160.05 55.2 159.75 54.95 159.75 54.4 159.75 53.55 160.25 52.8 160.7 52.1 161.35 52.1 161.75 52.1 162 52.35
M 176.9 50.4
L 175.35 57.65 178.15 57.65 179.7 50.4 176.9 50.4
M 201.8 73.9
Q 201.6 72.85 200.85 72.4 200.05 72 198.6 72 197.35 72 196.45 72.35 195.6 72.7 195.15 73.3 194.75 73.9 194.75 74.55 194.75 75.3 195.3 75.85 195.9 76.35 197.5 76.6 198.2 76.7 198.45 76.8 198.7 76.95 198.7 77.25 198.7 77.65 198.35 77.85 198 78.05 197.55 78.05 196.55 78.05 196.4 77.15
L 193.65 77.4
Q 193.75 78.55 194.6 79.05 195.4 79.55 197.1 79.55 199.25 79.55 200.3 78.8 201.35 78 201.35 76.85 201.35 76.05 200.8 75.6 200.25 75.1 198.65 74.85 197.65 74.7 197.45 74.55 197.2 74.4 197.2 74.1 197.2 73.9 197.45 73.7 197.7 73.5 198.25 73.5 199.1 73.5 199.2 74.15
L 201.8 73.9
M 187.7 72.85
Q 186.8 72 184.8 72 183.85 72 183.15 72.2 182.45 72.4 181.7 72.95 181 73.55 180.55 74.4 180.15 75.25 180.15 76.25 180.15 77.65 181.05 78.6 181.95 79.55 184.1 79.55 185.6 79.55 186.55 79.1 187.55 78.6 188.15 77.55
L 185.45 77.3
Q 185 77.95 184.15 77.95 183 77.95 182.85 76.5
L 188.4 76.5
Q 188.6 75.45 188.6 75.05 188.6 73.75 187.7 72.85
M 183.8 74
Q 184.2 73.6 184.7 73.6 185.2 73.6 185.55 73.9 185.85 74.15 185.85 74.7 185.85 75 185.8 75.15
L 183.1 75.15
Q 183.35 74.4 183.8 74
M 193.9 54.75
Q 194.1 53.7 194.1 53.3 194.1 52 193.2 51.1 192.3 50.25 190.3 50.25 189.35 50.25 188.65 50.45 187.95 50.65 187.2 51.2 186.5 51.8 186.05 52.65 185.65 53.5 185.65 54.5 185.65 55.9 186.55 56.85 187.45 57.8 189.6 57.8 191.1 57.8 192.05 57.35 193.05 56.85 193.65 55.8
L 190.95 55.55
Q 190.5 56.2 189.65 56.2 188.5 56.2 188.35 54.75
L 193.9 54.75
M 191.3 53.4
L 188.6 53.4
Q 188.85 52.65 189.3 52.25 189.7 51.85 190.2 51.85 190.7 51.85 191.05 52.15 191.35 52.4 191.35 52.95 191.35 53.25 191.3 53.4
M 186.85 47.75
Q 185.45 47.45 184.5 47.45 183.85 47.45 183.4 47.6 182.9 47.75 182.6 48.05 182.3 48.4 182.15 48.75 182.05 49.15 181.8 50.4
L 180.75 50.4 180.35 52.4 181.35 52.4 180.2 57.65 183.05 57.65 184.15 52.4 185.45 52.4 185.85 50.4 184.55 50.4
Q 184.75 49.55 184.95 49.4 185.1 49.25 185.4 49.25 185.85 49.25 186.4 49.4
L 186.85 47.75
M 180.25 47.65
L 177.5 47.65 177.1 49.55 179.85 49.55 180.25 47.65
M 175.6 47.65
L 172.85 47.65 170.7 57.65 173.5 57.65 175.6 47.65
M 162.5 29.5
Q 163.4 27.25 163.4 24.95 163.4 22.3 161.85 20.9 160.25 19.5 158.1 19.5 156.05 19.5 154.45 20.75 152.85 22.05 151.95 24.25 151.1 26.4 151.1 28.45 151.1 31.3 152.45 32.8 153.8 34.3 156.05 34.3 158.25 34.3 159.9 33 161.55 31.75 162.5 29.5
M 156.4 23.35
Q 157.1 22.15 158.05 22.15 158.8 22.15 159.2 22.7 159.55 23.25 159.55 24.15 159.55 25.35 159.2 27.3 158.8 29.25 158.1 30.45 157.4 31.6 156.45 31.6 154.9 31.6 154.9 29.5
L 154.9 29.45
Q 154.9 28.3 155.3 26.4 155.65 24.5 156.4 23.35
M 175.4 19.5
L 172 19.5
Q 169.9 21.6 166.75 22.95
L 166 26.35
Q 168.5 25.75 170.3 24.65
L 168.25 34.05 172.25 34.05 175.4 19.5
M 190 19.5
L 186.6 19.5 177.5 28.1 176.75 31.4 184.05 31.4 183.45 34.05 186.9 34.05 187.45 31.4 189.3 31.4 189.95 28.3 188.1 28.3 190 19.5
M 185.65 23.8
L 185.7 23.85 184.7 28.3 180.85 28.3 185.65 23.8
M 222.55 47.65
L 219.8 47.65 219.4 49.55 222.15 49.55 222.55 47.65
M 227.2 47.65
L 224.45 47.65 222.3 57.65 225.05 57.65 225.45 55.8 226.9 54.6 227.7 57.65 230.8 57.65 228.95 52.9 232.05 50.4 228.9 50.4 226.1 52.85 226.05 52.8 227.2 47.65
M 286.8 69.4
L 284.05 69.4 281.9 79.4 284.7 79.4 286.8 69.4
M 300.5 50.75
Q 300 50.25 299 50.25 298.3 50.25 297.65 50.5 297 50.75 296.2 51.45 296 50.9 295.5 50.55 294.95 50.25 294.25 50.25 292.8 50.25 291.6 51.45
L 291.55 51.45 291.8 50.4 289.2 50.4 287.65 57.65 290.45 57.65 291.2 54.15
Q 291.4 53.15 291.9 52.7 292.35 52.25 292.75 52.25 293.35 52.25 293.35 52.8 293.35 52.95 293.3 53.15 293.25 53.4 293 54.6
L 292.35 57.65 295.15 57.65 295.85 54.4
Q 296.1 53.3 296.5 52.8 296.9 52.25 297.5 52.25 298.05 52.25 298.05 52.85 298.05 52.9 298 53.15 298 53.35 297.75 54.55
L 297.05 57.65 299.85 57.65 300.9 52.9
Q 301 52.45 301 52 301 51.3 300.5 50.75
M 310.5 53.3
Q 310.5 52 309.6 51.1 308.7 50.25 306.7 50.25 305.75 50.25 305.05 50.45 304.35 50.65 303.6 51.2 302.9 51.8 302.45 52.65 302.05 53.5 302.05 54.5 302.05 55.9 302.95 56.85 303.85 57.8 306 57.8 307.5 57.8 308.45 57.35 309.45 56.85 310.05 55.8
L 307.35 55.55
Q 306.9 56.2 306.05 56.2 304.9 56.2 304.75 54.75
L 310.3 54.75
Q 310.5 53.7 310.5 53.3
M 307.7 53.4
L 305 53.4
Q 305.25 52.65 305.7 52.25 306.1 51.85 306.6 51.85 307.1 51.85 307.45 52.15 307.75 52.4 307.75 52.95 307.75 53.25 307.7 53.4
M 319.4 53.7
Q 319.7 52.4 319.7 51.95 319.7 51.25 319.2 50.75 318.7 50.25 317.7 50.25 316.05 50.25 314.9 51.5
L 315.15 50.4 312.55 50.4 310.95 57.65 313.75 57.65 314.45 54.5
Q 314.7 53.4 315.15 52.85 315.6 52.25 316.2 52.25 316.75 52.25 316.75 52.85 316.75 53.05 316.5 54.3
L 315.8 57.65 318.6 57.65 319.4 53.7
M 261.75 72.85
Q 260.85 72 258.85 72 257.9 72 257.2 72.2 256.5 72.4 255.75 72.95 255.05 73.55 254.6 74.4 254.2 75.25 254.2 76.25 254.2 77.65 255.1 78.6 256 79.55 258.15 79.55 259.65 79.55 260.6 79.1 261.6 78.6 262.2 77.55
L 259.5 77.3
Q 259.05 77.95 258.2 77.95 257.05 77.95 256.9 76.5
L 262.45 76.5
Q 262.65 75.45 262.65 75.05 262.65 73.75 261.75 72.85
M 257.85 74
Q 258.25 73.6 258.75 73.6 259.25 73.6 259.6 73.9 259.9 74.15 259.9 74.7 259.9 75 259.85 75.15
L 257.15 75.15
Q 257.4 74.4 257.85 74
M 248.35 73.2
Q 248.15 72.65 247.65 72.3 247.1 72 246.4 72 244.95 72 243.75 73.2
L 243.7 73.2 243.95 72.15 241.35 72.15 239.8 79.4 242.6 79.4 243.35 75.9
Q 243.55 74.9 244.05 74.45 244.5 74 244.9 74 245.5 74 245.5 74.55 245.5 74.7 245.45 74.9 245.4 75.15 245.15 76.35
L 244.5 79.4 247.3 79.4 248 76.15
Q 248.25 75.05 248.65 74.55 249.05 74 249.65 74 250.2 74 250.2 74.6 250.2 74.65 250.15 74.9 250.15 75.1 249.9 76.3
L 249.2 79.4 252 79.4 253.05 74.65
Q 253.15 74.2 253.15 73.75 253.15 73.05 252.65 72.5 252.15 72 251.15 72 250.45 72 249.8 72.25 249.15 72.5 248.35 73.2
M 249.35 53.7
Q 249.65 52.4 249.65 51.95 249.65 51.25 249.15 50.75 248.65 50.25 247.65 50.25 246 50.25 244.85 51.5
L 245.1 50.4 242.5 50.4 240.9 57.65 243.7 57.65 244.4 54.5
Q 244.65 53.4 245.1 52.85 245.55 52.25 246.15 52.25 246.7 52.25 246.7 52.85 246.7 53.05 246.45 54.3
L 245.75 57.65 248.55 57.65 249.35 53.7
M 256.8 50.4
L 256.55 51.4
Q 255.7 50.25 254.35 50.25 252.75 50.25 251.75 51.5 250.7 52.8 250.7 54.5 250.7 55.8 251.35 56.6 252 57.4 253.1 57.4 254.35 57.4 255.25 56.4
L 255.3 56.45 255.05 57.55
Q 254.9 58.25 254.55 58.6 254.25 58.95 253.75 58.95 252.95 58.95 252.9 58.2
L 250.25 57.8
Q 250.25 57.9 250.25 58.15 250.25 58.9 250.75 59.55 251.25 60.2 251.95 60.4 252.6 60.6 253.85 60.6 255.65 60.6 256.55 59.9 257.5 59.25 257.9 57.2
L 259.35 50.4 256.8 50.4
M 255 52.1
Q 255.4 52.1 255.65 52.35 255.95 52.65 255.95 53.1 255.95 53.85 255.55 54.7 255.15 55.5 254.4 55.5 253.95 55.5 253.7 55.2 253.4 54.95 253.4 54.4 253.4 53.55 253.9 52.8 254.35 52.1 255 52.1
M 276.65 73.75
Q 276.95 73.6 277.45 73.6 277.9 73.6 278.2 73.8 278.45 73.95 278.45 74.2 278.45 74.4 278.35 74.7 277.95 74.85 276.75 74.95 275.4 75.1 274.6 75.3 273.8 75.45 273.3 75.95 272.75 76.45 272.75 77.45 272.75 78.3 273.35 78.95 273.95 79.55 275.3 79.55 276.65 79.55 277.75 78.55 277.75 78.95 277.85 79.4
L 280.55 79.4
Q 280.4 78.9 280.4 78.4 280.4 77.8 280.75 76.35 281.1 74.75 281.1 74.1 281.1 73.05 280.4 72.5 279.6 72 277.5 72 275.6 72 274.7 72.55 273.8 73.1 273.55 74.15
L 276.15 74.4
Q 276.35 73.9 276.65 73.75
M 275.45 77.3
Q 275.45 76.95 275.8 76.7 276.15 76.45 278.05 76.15 277.9 77.2 277.35 77.65 276.85 78.05 276.3 78.05 275.95 78.05 275.7 77.85 275.45 77.65 275.45 77.3
M 272.9 69.4
L 270.1 69.4 269.3 73.1
Q 268.55 71.95 267 71.95 265.5 71.95 264.55 73.35 263.55 74.7 263.55 76.55 263.55 77.95 264.2 78.75 264.85 79.55 266.1 79.55 266.75 79.55 267.2 79.4 267.7 79.2 268.25 78.65
L 268.3 78.7 268.15 79.4 270.75 79.4 272.9 69.4
M 267.75 73.85
Q 268.15 73.85 268.5 74.15 268.8 74.5 268.8 75.1 268.8 76 268.4 76.9 268 77.75 267.2 77.75 266.8 77.75 266.5 77.4 266.25 77.1 266.25 76.5 266.25 75.4 266.7 74.6 267.15 73.85 267.75 73.85
M 274.15 52.25
Q 274.7 52.25 274.7 52.85 274.7 52.9 274.65 53.15 274.65 53.35 274.4 54.55
L 273.7 57.65 276.5 57.65 277.55 52.9
Q 277.65 52.45 277.65 52 277.65 51.3 277.15 50.75 276.65 50.25 275.65 50.25 274.95 50.25 274.3 50.5 273.65 50.75 272.85 51.45 272.65 50.9 272.15 50.55 271.6 50.25 270.9 50.25 269.45 50.25 268.25 51.45
L 268.2 51.45 268.45 50.4 265.85 50.4 264.3 57.65 267.1 57.65 267.85 54.15
Q 268.05 53.15 268.55 52.7 269 52.25 269.4 52.25 270 52.25 270 52.8 270 52.95 269.95 53.15 269.9 53.4 269.65 54.6
L 269 57.65 271.8 57.65 272.5 54.4
Q 272.75 53.3 273.15 52.8 273.55 52.25 274.15 52.25
M 279.2 52.4
Q 278.7 53.45 278.7 54.55 278.7 55.95 279.6 56.9 280.5 57.8 282.4 57.8 283.9 57.8 284.95 57.2 285.95 56.6 286.5 55.55 287 54.55 287 53.5 287 52.2 286.1 51.2 285.2 50.25 283.25 50.25 281.85 50.25 280.8 50.8 279.75 51.4 279.2 52.4
M 281.85 52.9
Q 282.25 52.1 283.15 52.1 283.6 52.1 283.95 52.4 284.3 52.65 284.3 53.4 284.3 54.35 283.8 55.15 283.35 55.95 282.6 55.95 282.1 55.95 281.75 55.55 281.4 55.15 281.4 54.55 281.4 53.7 281.85 52.9
M 326.55 50.4
L 325.1 50.4 325.65 47.7 322.55 49.25 322.3 50.4 321.3 50.4 320.9 52.4 321.9 52.4 321.35 54.85
Q 321.15 55.8 321.15 56.05 321.15 56.7 321.65 57.25 322.15 57.8 323.3 57.8 323.9 57.8 325.15 57.65
L 325.6 55.65
Q 324.9 55.8 324.7 55.8 324.05 55.8 324.05 55.3 324.05 55.1 324.1 54.95
L 324.65 52.4 326.1 52.4 326.55 50.4 Z"/>
</g>
</defs>

<g transform="matrix( 1, 0, 0, 1, 0,0) ">
<use xlink:href="#Layer1_0_FILL"/>
</g>

<g transform="matrix( 10.800430297851562, 0, 0, 10.800430297851562, 5.5,4.6) ">
<g transform="matrix( 1, 0, 0, 1, 0,0) ">
<use xlink:href="#pop_0_Layer5_0_FILL"/>
</g>

<g transform="matrix( 1, 0, 0, 1, 0,0) ">
<use xlink:href="#pop_0_Layer4_0_FILL"/>
</g>

<g transform="matrix( 1, 0, 0, 1, 0,0) ">
<use xlink:href="#pop_0_Layer3_0_FILL"/>
</g>

<g transform="matrix( 1, 0, 0, 1, 0,0) ">
<use xlink:href="#pop_0_Layer2_0_FILL"/>
</g>

<g transform="matrix( 1, 0, 0, 1, 0,0) ">
<use xlink:href="#pop_0_Layer1_0_FILL"/>
</g>

<g transform="matrix( 1, 0, 0, 1, 0,0) ">
<use xlink:href="#pop_0_Layer0_0_FILL"/>
</g>
</g>

<g transform="matrix( 1, 0, 0, 1, 0,0) ">
<use xlink:href="#Layer1_1_MEMBER_1_FILL"/>
</g>

<g transform="matrix( 1, 0, 0, 1, 0,0) ">
<use xlink:href="#Layer1_1_MEMBER_1_MEMBER_0_FILL"/>
</g>

<g transform="matrix( 1, 0, 0, 1, 0,0) ">
<use xlink:href="#Layer0_0_FILL"/>
</g>
</svg>
