
<svg xmlns="http://www.w3.org/2000/svg" version="1.1" xmlns:xlink="http://www.w3.org/1999/xlink" preserveAspectRatio="none" x="0px" y="0px" width="89px" height="89px" viewBox="0 0 89 89">
<defs>
<g id="pop_0_Layer5_0_FILL">
<path fill="#0C0A80" fill-opacity="0.2" stroke="none" d="
M 7.25 6.1
Q 7.75 5.2 7.85 4.45 7.85 4.3 7.85 4 7.7 2.15 6.05 1.6 4.15 1.1 3 2.6 1.9 4.15 3.45 5.9 4.7 7.3 2.95 7.8 3.1 7.95 3.7 7.95 3.75 7.95 3.85 7.95 4.5 8 5.5 7.6 6.7 7 7.25 6.1 Z"/>
</g>

<g id="pop_0_Layer4_0_FILL">
<path fill="#0C0A80" fill-opacity="0.2" stroke="none" d="
M 4.85 5.25
Q 4.85 4.4 4.25 3.75 3.65 3.15 2.8 3.15 1.95 3.15 1.35 3.75 0.7 4.4 0.7 5.25 0.7 6.1 1.35 6.7 1.95 7.3 2.8 7.3 3.65 7.3 4.25 6.7 4.85 6.1 4.85 5.25 Z"/>
</g>

<g id="pop_0_Layer3_0_FILL">
<path fill="#0C0A80" fill-opacity="0.2" stroke="none" d="
M 7.05 2.25
Q 7.05 1.6 6.6 1.15 6.15 0.7 5.5 0.7 4.85 0.7 4.4 1.15 3.95 1.6 3.95 2.25 3.95 2.9 4.4 3.35 4.85 3.8 5.5 3.8 6.15 3.8 6.6 3.35 7.05 2.9 7.05 2.25 Z"/>
</g>

<g id="pop_0_Layer2_0_FILL">
<path fill="#FFFFFF" fill-opacity="0.30196078431372547" stroke="none" d="
M 8.2 4.1
Q 8.2 2.4 7 1.2 5.8 0 4.1 0 2.4 0 1.2 1.2 0 2.4 0 4.1 0 5.8 1.2 7 2.4 8.2 4.1 8.2 5.8 8.2 7 7 8.2 5.8 8.2 4.1 Z"/>
</g>

<g id="pop_0_Layer1_0_FILL">
<path fill="#FFFFFF" fill-opacity="0.5019607843137255" stroke="none" d="
M 2.1 6.2
Q 3.7 5.95 2.65 3.7 1.9 1.2 4.2 0.3 3.65 0.35 3 0.55 1.7 1.1 1.1 1.9 0.5 2.75 0.4 3.5 0.35 3.65 0.35 3.95 0.4 6.2 2.1 6.2 Z"/>
</g>

<g id="pop_0_Layer0_0_FILL">
<path fill="#FFFFFF" fill-opacity="0.5019607843137255" stroke="none" d="
M 6.9 1.85
Q 6.9 1.45 6.65 1.2 6.35 0.9 6 0.9 5.6 0.9 5.35 1.2 5.05 1.45 5.05 1.85 5.05 2.2 5.35 2.5 5.6 2.75 6 2.75 6.35 2.75 6.65 2.5 6.9 2.2 6.9 1.85 Z"/>
</g>

<g id="Layer0_0_MEMBER_1_FILL">
<path fill="#FFFFFF" stroke="none" d="
M 2348.8 785.85
Q 2347.75 785.85 2347.1 786.55 2346.4 787.25 2346.4 788.25
L 2346.4 831.5
Q 2346.4 832.55 2347.1 833.25 2347.75 833.9 2348.8 833.9
L 2354.8 833.9
Q 2355.8 833.9 2356.55 833.25 2357.2 832.55 2357.2 831.5
L 2357.2 815.15 2358.7 815.15
Q 2366.3 815.15 2368.45 811.75 2370.1 809.85 2370.55 805 2370.95 805.85 2371.45 806.65 2372.95 809.2 2376.7 812.9 2380.75 816.95 2381.85 818.8 2382.4 820 2382.4 822.2 2382.4 823.65 2382.05 824.45 2381.6 824.8 2380.85 824.8 2379.8 824.55 2379.8 822.5
L 2379.8 818.95
Q 2379.8 817.95 2379.15 817.3 2378.45 816.55 2377.4 816.55
L 2371.4 816.55
Q 2370.4 816.55 2369.75 817.3 2369 817.95 2369 818.95
L 2369 824.15
Q 2369 829.4 2372.55 832 2375.35 834.25 2380.65 834.25 2387.2 834.25 2390.15 830.6 2392.85 827.5 2392.85 821.25 2392.85 816.45 2391.25 813.7
L 2391.35 813.75
Q 2389.95 811.1 2385.25 806.2 2381.6 802.35 2380.45 800.35 2379.8 799.1 2379.8 797.3 2379.8 795.85 2380.15 795.2 2380.4 795.05 2381 795.05 2381.9 795.2 2381.9 796.45
L 2381.9 799.9
Q 2381.9 800.9 2382.65 801.65 2383.3 802.3 2384.3 802.3
L 2389.95 802.3
Q 2390.95 802.3 2391.7 801.65 2392.35 800.9 2392.35 799.9
L 2392.35 795.85
Q 2392.35 793.05 2391.8 791.6 2391.75 791.55 2391.75 791.5 2391.1 789.8 2389.95 788.65 2388.35 787.05 2386.05 786.25
L 2386.1 786.35
Q 2384.05 785.55 2381.25 785.55 2372.35 785.55 2369.9 792.15 2369.35 790.1 2368.45 789.1
L 2368.45 789.15
Q 2366.3 785.85 2358.7 785.85
L 2348.8 785.85
M 2381.25 787.95
Q 2383.6 787.95 2385.25 788.55 2387 789.15 2388.2 790.35 2389.05 791.2 2389.55 792.4 2389.95 793.6 2389.95 795.85
L 2389.95 799.9 2384.3 799.9 2384.3 796.45
Q 2384.3 792.65 2381 792.65 2379.1 792.65 2378.25 793.7 2377.4 794.85 2377.4 797.3 2377.4 799.75 2378.35 801.5 2379.55 803.65 2383.55 807.8 2387.9 812.45 2389.15 814.85 2390.45 817.15 2390.45 821.25 2390.45 826.45 2388.25 829.05 2385.85 831.85 2380.65 831.85 2376.35 831.85 2374 830.05 2371.4 828.1 2371.4 824.15
L 2371.4 818.95 2377.4 818.95 2377.4 822.5
Q 2377.4 827.2 2380.85 827.2 2383.05 827.2 2384 825.75 2384.8 824.55 2384.8 822.2 2384.8 819.2 2383.95 817.65 2382.85 815.6 2378.35 811.15 2374.95 807.75 2373.5 805.4 2371.4 802 2371.4 798.05 2371.4 787.95 2381.25 787.95
M 2358.7 788.25
Q 2364.75 788.25 2366.55 790.6 2368.35 792.85 2368.35 800.5 2368.35 808 2366.55 810.35 2364.75 812.75 2358.7 812.75
L 2354.8 812.75 2354.8 831.5 2348.8 831.5 2348.8 788.25 2358.7 788.25
M 2362.4 800.5
Q 2362.4 795.55 2361.65 794.45 2360.95 793.3 2357.9 793.3
L 2354.8 793.3 2354.8 807.7 2357.9 807.7
Q 2360.95 807.7 2361.65 806.55 2362.4 805.4 2362.4 800.5
M 2359.65 795.8
Q 2360 796.7 2360 800.5 2360 804.25 2359.65 805.25 2359.6 805.3 2359.6 805.35 2359.25 805.3 2357.9 805.3
L 2357.2 805.3 2357.2 795.7 2357.9 795.7
Q 2359.25 795.7 2359.6 795.65 2359.6 795.7 2359.65 795.8 Z"/>

<path fill="#2D9BB6" stroke="none" d="
M 2366.55 790.6
Q 2364.75 788.25 2358.7 788.25
L 2348.8 788.25 2348.8 831.5 2354.8 831.5 2354.8 812.75 2358.7 812.75
Q 2364.75 812.75 2366.55 810.35 2368.35 808 2368.35 800.5 2368.35 792.85 2366.55 790.6
M 2361.65 794.45
Q 2362.4 795.55 2362.4 800.5 2362.4 805.4 2361.65 806.55 2360.95 807.7 2357.9 807.7
L 2354.8 807.7 2354.8 793.3 2357.9 793.3
Q 2360.95 793.3 2361.65 794.45
M 2385.25 788.55
Q 2383.6 787.95 2381.25 787.95 2371.4 787.95 2371.4 798.05 2371.4 802 2373.5 805.4 2374.95 807.75 2378.35 811.15 2382.85 815.6 2383.95 817.65 2384.8 819.2 2384.8 822.2 2384.8 824.55 2384 825.75 2383.05 827.2 2380.85 827.2 2377.4 827.2 2377.4 822.5
L 2377.4 818.95 2371.4 818.95 2371.4 824.15
Q 2371.4 828.1 2374 830.05 2376.35 831.85 2380.65 831.85 2385.85 831.85 2388.25 829.05 2390.45 826.45 2390.45 821.25 2390.45 817.15 2389.15 814.85 2387.9 812.45 2383.55 807.8 2379.55 803.65 2378.35 801.5 2377.4 799.75 2377.4 797.3 2377.4 794.85 2378.25 793.7 2379.1 792.65 2381 792.65 2384.3 792.65 2384.3 796.45
L 2384.3 799.9 2389.95 799.9 2389.95 795.85
Q 2389.95 793.6 2389.55 792.4 2389.05 791.2 2388.2 790.35 2387 789.15 2385.25 788.55 Z"/>
</g>
</defs>

<g transform="matrix( 10.800430297851562, 0, 0, 10.800430297851562, 0,0) ">
<g transform="matrix( 1, 0, 0, 1, 0,0) ">
<use xlink:href="#pop_0_Layer5_0_FILL"/>
</g>

<g transform="matrix( 1, 0, 0, 1, 0,0) ">
<use xlink:href="#pop_0_Layer4_0_FILL"/>
</g>

<g transform="matrix( 1, 0, 0, 1, 0,0) ">
<use xlink:href="#pop_0_Layer3_0_FILL"/>
</g>

<g transform="matrix( 1, 0, 0, 1, 0,0) ">
<use xlink:href="#pop_0_Layer2_0_FILL"/>
</g>

<g transform="matrix( 1, 0, 0, 1, 0,0) ">
<use xlink:href="#pop_0_Layer1_0_FILL"/>
</g>

<g transform="matrix( 1, 0, 0, 1, 0,0) ">
<use xlink:href="#pop_0_Layer0_0_FILL"/>
</g>
</g>

<g transform="matrix( 1, 0, 0, 1, -2325.35,-765.6) ">
<use xlink:href="#Layer0_0_MEMBER_1_FILL"/>
</g>
</svg>
