
<svg xmlns="http://www.w3.org/2000/svg" version="1.1" xmlns:xlink="http://www.w3.org/1999/xlink" preserveAspectRatio="none" x="0px" y="0px" width="300px" height="100px" viewBox="0 0 300 100">
<defs>
<g id="Layer2_0_FILL">
<path fill="#000000" fill-opacity="0.5019607843137255" stroke="none" d="
M 300 49.2
Q 300 28.8 285.55 14.4 271.2 0 250.8 0
L 49.2 0
Q 28.8 0 14.35 14.4 0 28.8 0 49.2 0 69.6 14.35 84 28.8 98.4 49.2 98.4
L 127.95 98.4
Q 128.15 98.5 128.4 98.5 128.6650390625 98.5 128.9 98.4
L 250.8 98.4
Q 271.2 98.4 285.55 84 300 69.6 300 49.2 Z"/>
</g>

<g id="pop_0_Layer5_0_FILL">
<path fill="#0C0A80" fill-opacity="0.2" stroke="none" d="
M 7.25 6.1
Q 7.75 5.2 7.85 4.45 7.85 4.3 7.85 4 7.7 2.15 6.05 1.6 4.15 1.1 3 2.6 1.9 4.15 3.45 5.9 4.7 7.3 2.95 7.8 3.1 7.95 3.7 7.95 3.75 7.95 3.85 7.95 4.5 8 5.5 7.6 6.7 7 7.25 6.1 Z"/>
</g>

<g id="pop_0_Layer4_0_FILL">
<path fill="#0C0A80" fill-opacity="0.2" stroke="none" d="
M 4.85 5.25
Q 4.85 4.4 4.25 3.75 3.65 3.15 2.8 3.15 1.95 3.15 1.35 3.75 0.7 4.4 0.7 5.25 0.7 6.1 1.35 6.7 1.95 7.3 2.8 7.3 3.65 7.3 4.25 6.7 4.85 6.1 4.85 5.25 Z"/>
</g>

<g id="pop_0_Layer3_0_FILL">
<path fill="#0C0A80" fill-opacity="0.2" stroke="none" d="
M 7.05 2.25
Q 7.05 1.6 6.6 1.15 6.15 0.7 5.5 0.7 4.85 0.7 4.4 1.15 3.95 1.6 3.95 2.25 3.95 2.9 4.4 3.35 4.85 3.8 5.5 3.8 6.15 3.8 6.6 3.35 7.05 2.9 7.05 2.25 Z"/>
</g>

<g id="pop_0_Layer2_0_FILL">
<path fill="#FFFFFF" fill-opacity="0.30196078431372547" stroke="none" d="
M 8.2 4.1
Q 8.2 2.4 7 1.2 5.8 0 4.1 0 2.4 0 1.2 1.2 0 2.4 0 4.1 0 5.8 1.2 7 2.4 8.2 4.1 8.2 5.8 8.2 7 7 8.2 5.8 8.2 4.1 Z"/>
</g>

<g id="pop_0_Layer1_0_FILL">
<path fill="#FFFFFF" fill-opacity="0.5019607843137255" stroke="none" d="
M 2.1 6.2
Q 3.7 5.95 2.65 3.7 1.9 1.2 4.2 0.3 3.65 0.35 3 0.55 1.7 1.1 1.1 1.9 0.5 2.75 0.4 3.5 0.35 3.65 0.35 3.95 0.4 6.2 2.1 6.2 Z"/>
</g>

<g id="pop_0_Layer0_0_FILL">
<path fill="#FFFFFF" fill-opacity="0.5019607843137255" stroke="none" d="
M 6.9 1.85
Q 6.9 1.45 6.65 1.2 6.35 0.9 6 0.9 5.6 0.9 5.35 1.2 5.05 1.45 5.05 1.85 5.05 2.2 5.35 2.5 5.6 2.75 6 2.75 6.35 2.75 6.65 2.5 6.9 2.2 6.9 1.85 Z"/>
</g>

<g id="Layer2_1_MEMBER_1_FILL">
<path fill="#FFFFFF" stroke="none" d="
M 72.85 24.2
Q 72.85 24.15 72.85 24.05 72.85 22.95 72 22.1 71.15 21.25 70.05 21.25
L 28.6 21.25
Q 27.4 21.25 26.65 22.1 26.6 22.1 26.6 22.15 25.8 23 25.8 24.05 25.8 24.15 25.8 24.2 25.8 24.85 25.85 25.55 25.85 25.7 25.85 25.9 23.85 26.8 22.2 28.5 18.4 32.3 18.4 37.6 18.4 42.85 22.2 46.6
L 22.2 46.65
Q 25.95 50.4 31.25 50.4 32.6 50.4 33.95 50.15
L 34 50.2
Q 37.8 55 42.4 57 43.45 60.3 43.75 64.05 41.85 67.25 39.3 70.05 38.2 71.25 36.9 72.4
L 36.85 72.45
Q 36.8 72.45 36.8 72.5 35.9 73.05 35.7 74.1 35 77.1 34.25 80.05 34.2 80.15 34.2 80.25 34.1 80.9 34.3 81.6 34.35 81.7 34.4 81.8 34.65 82.5 35.4 83.05
L 35.45 83.05
Q 36.1 83.5 36.95 83.5
L 61.7 83.5
Q 62.45 83.5 63.15 83.1 63.2 83.05 63.3 83.05 64 82.5 64.3 81.8 64.3 81.7 64.35 81.6 64.55 80.8 64.35 80.05 63.65 77.2 62.95 74.25 62.8 73.1 61.95 72.5 61.8 72.4 61.65 72.35 60.35 71.2 59.3 70.05 56.75 67.25 55 64 55.15 60.35 56.25 57 60.8 55.05 64.7 50.3 64.7 50.25 64.75 50.2 65.95 50.4 67.2 50.4 72.45 50.4 76.25 46.6 80 42.85 80 37.6 80 32.3 76.3 28.5 74.7 26.85 72.85 26 72.85 25.7 72.85 25.4 72.85 25.35 72.85 25.3 72.85 24.75 72.85 24.2 Z"/>
</g>

<g id="Layer2_1_MEMBER_1_MEMBER_0_FILL">
<path fill="#7B4B11" stroke="none" d="
M 49.2 74.7
L 49.2 80.7 61.7 80.7
Q 60.95 77.75 60.25 74.7
L 60.2 74.7 49.2 74.7 Z"/>

<path fill="#9F631B" stroke="none" d="
M 38.4 74.7
Q 37.7 77.75 36.95 80.7
L 49.2 80.7 49.2 74.7 38.45 74.7 38.4 74.7
M 70.05 24.2
Q 70.05 24.15 70.05 24.05
L 49.2 24.05 49.2 74.7 60.2 74.7
Q 58.6 73.35 57.3 71.9 54.2 68.6 52.1 64.65 52.3 59.45 54 54.9
L 53.9 54.9
Q 58.6 53.35 62.5 48.5 63.05 47.8 63.6 47 65.25 47.6 67.2 47.6 71.35 47.6 74.3 44.65 77.25 41.75 77.25 37.6 77.25 33.4 74.3 30.45 72.35 28.55 69.95 27.9 70 26.6 70.05 25.3 70.05 24.75 70.05 24.2
M 67.2 44.65
Q 66.15 44.65 65.2 44.4 68.6 38.4 69.65 30.9 71.05 31.45 72.2 32.55 74.35 34.65 74.35 37.6 74.35 40.55 72.2 42.6 70.2 44.65 67.2 44.65 Z"/>

<path fill="#D08D3D" stroke="none" d="
M 28.6 24.05
Q 28.6 24.15 28.6 24.2 28.6 24.75 28.6 25.3 28.6 26.55 28.7 27.85 26.15 28.45 24.15 30.45 21.2 33.4 21.2 37.6 21.2 41.75 24.15 44.65 27.1 47.6 31.25 47.6 33.25 47.6 35.05 46.95 35.55 47.7 36.15 48.45 40 53.35 44.75 54.9
L 44.65 54.9
Q 46.3 59.45 46.5 64.65 44.45 68.6 41.35 71.9 40.05 73.35 38.45 74.7
L 49.2 74.7 49.2 24.05 28.6 24.05
M 26.2 32.55
Q 27.45 31.3 29 30.85 30.05 38.35 33.45 44.35 32.4 44.65 31.25 44.65 28.3 44.65 26.2 42.6 24.15 40.55 24.15 37.6 24.15 34.65 26.2 32.55 Z"/>
</g>

<g id="Layer1_0_FILL">
<path fill="#FFFFFF" stroke="none" d="
M 264.45 75.5
L 264.45 73.95
Q 263.65 73.65 262.65 73.6
L 262.65 74.85
Q 263.55 75 264.45 75.5
M 266.35 73.2
L 264.75 73.2 264.75 75.75
Q 263.9 76.2 262.5 76.5
L 262.5 78.05
Q 263.8 77.6 264.75 77.15
L 264.75 78.55 266.35 78.55 266.35 73.2
M 272.3 73.7
L 269.45 73.7
Q 269.5 73.65 269.6 73.45 269.65 73.35 269.7 73.25
L 267.95 73.25
Q 267.55 74.5 266.45 74.9
L 266.45 75.8
Q 266.95 75.75 267.3 75.6
L 267.3 76.4
Q 267.95 76.5 268.65 76.75 268.15 77.1 266.9 77.4
L 266.9 78.35 266.4 78.35 266.4 78.6
Q 266.4 78.8 266.4 78.95
L 262.65 78.95 262.65 80.15 266.1 80.15
Q 265.4 81.7 262.5 82.05
L 262.5 83.1
Q 266.1 82.8 267.45 81.3 269.1 82.75 272.4 83.1
L 272.4 82.05
Q 269.45 81.6 268.8 80.15
L 272.35 80.15 272.35 78.95 268.5 78.95
Q 268.5 78.8 268.5 78.6
L 268.5 78.35 267.4 78.35
Q 270.95 77.85 272.3 74.9
L 272.3 73.7
M 270.4 74.9
Q 269.75 75.9 269.25 76.4
L 269.25 75.6
Q 268.7 75.4 268 75.35 268.4 75.2 268.7 74.9
L 270.4 74.9
M 253.8 79.65
L 254.65 79.65 254.65 78.5 253.8 78.5 253.8 77.4 254.55 77.4 254.55 76.25 251.65 76.25 251.65 77.4 252.3 77.4 252.3 78.5 251.5 78.5 251.5 79.65 252.3 79.65 252.3 82.9
Q 253.55 82.6 254.55 81.9
L 254.55 80.65
Q 254.15 80.9 253.8 81.05
L 253.8 79.65
M 259.35 80.15
L 259.35 77.2 256.7 77.2 256.7 81.35 258.15 81.35
Q 259.4 81.4 259.35 80.15
M 258.25 78.3
L 258.25 79.9
Q 258.3 80.25 257.9 80.25
L 257.8 80.25 257.8 78.3 258.25 78.3
M 259.4 76.55
L 259.4 75.4 256.6 75.4 256.6 76.55 259.4 76.55
M 253.8 74.1
Q 253.9 73.7 253.95 73.25
L 252.35 73.25
Q 252.3 74.65 251.45 75.05
L 251.45 76
Q 252.5 75.85 253.1 75.25
L 254.7 75.25 254.7 74.1 253.8 74.1
M 261.2 73.6
L 254.85 73.6 254.85 83.1 256.35 83.1 256.35 74.8 259.65 74.8 259.65 81.5
Q 259.7 81.9 259.25 81.9
L 258.8 81.9 258.8 83 259.8 83
Q 261.2 83.05 261.2 81.55
L 261.2 73.6
M 243.8 74.8
Q 243.45 74.1 243.4 73.45
L 241.55 73.45
Q 241.65 74.3 242.05 74.8
L 243.8 74.8
M 250.35 80.4
L 250.35 79.2 246.5 79.2 246.5 78.55 244.5 78.55 244.5 79.2 240.55 79.2 240.55 80.4 244.3 80.4
Q 243.65 81.7 240.5 82.05
L 240.5 83.05
Q 243.75 83 245.5 81.65 247.05 82.85 250.4 83.05
L 250.4 82.05
Q 247.2 81.6 246.7 80.4
L 250.35 80.4
M 249.35 73.45
L 247.5 73.45
Q 247.45 74.1 247.1 74.8
L 248.85 74.8
Q 249.25 74.3 249.35 73.45
M 246.5 73.2
L 244.5 73.2 244.5 75.05 240.8 75.05 240.8 76.25 242.4 76.25
Q 241.9 77.3 240.7 77.85
L 240.7 78.85
Q 243.3 78.35 244.3 76.25
L 244.5 76.25 244.5 78.3 246.5 78.3 246.5 76.25 246.6 76.25
Q 247.6 78.35 250.2 78.85
L 250.2 77.85
Q 248.95 77.3 248.5 76.25
L 250.2 76.25 250.2 75.05 246.5 75.05 246.5 73.2
M 233.1 73.25
L 231.15 73.25
Q 230.65 75.75 229.4 76.45
L 229.4 77.55
Q 229.95 77.4 230.35 77.3
L 230.35 83.1 232.15 83.1 232.15 75.7
Q 232.75 74.65 233.1 73.25
M 236.1 73.25
L 234.1 73.25 234.1 78.2
Q 233.45 78.45 232.75 78.65
L 232.75 79.85
Q 233.45 79.75 234.1 79.5
L 234.1 81.2
Q 234.05 82.95 236.05 82.9
L 237.65 82.9
Q 239.25 82.9 239.2 81.4
L 239.2 80.4 237.7 80.4 237.7 81.1
Q 237.7 81.7 237.15 81.7
L 236.8 81.7
Q 236.05 81.75 236.1 80.9
L 236.1 78.75
Q 238.65 77.4 239.55 74.55
L 237.65 74.55
Q 237.15 76 236.1 76.95
L 236.1 73.25
M 221.15 78.25
Q 220.85 76.85 220.35 76.05
L 218.65 76.05
Q 219.15 77.1 219.45 78.25
L 221.15 78.25
M 221.15 78.75
L 219.6 78.75
Q 219.35 81.15 218.4 82.9
L 220.25 82.9
Q 221.05 81.3 221.15 78.75
M 220.3 73.4
L 218.6 73.4
Q 219.1 74.5 219.35 75.55
L 221.1 75.55
Q 220.85 74.4 220.3 73.4
M 228.1 73.35
Q 227.05 73.65 226.2 73.65
L 221.55 73.65 221.55 74.85 223.85 74.85 223.85 76 221.25 76 221.25 77.25 223.85 77.25 223.85 78.55 221.55 78.55 221.55 82.8 226.35 82.8
Q 228.05 82.8 228.05 81.1
L 228.05 78.55 225.75 78.55 225.75 77.25 228.4 77.25 228.4 76 225.75 76 225.75 74.85 226.3 74.85
Q 227.15 74.85 228.1 74.6
L 228.1 73.35
M 223.3 79.75
L 226.3 79.75 226.3 81
Q 226.35 81.7 225.65 81.65
L 223.3 81.65 223.3 79.75
M 214.65 73.25
L 212.9 73.25 212.9 74.55 210.55 74.55 210.55 75.8 211.15 75.8
Q 211.25 78.85 210.3 80.75
L 210.3 82.15
Q 211.15 81.4 211.7 80.5
L 211.7 81.25 212.9 81.25 212.9 83.1 214.65 83.1 214.65 81.25 215.8 81.25 215.8 80.45
Q 216.3 81.3 217.25 82.15
L 217.25 80.75
Q 216.25 78.85 216.35 75.8
L 217.05 75.8 217.05 74.55 214.65 74.55 214.65 73.25
M 212.65 75.8
L 212.9 75.8 212.9 80.1 211.9 80.1
Q 212.6 78.65 212.65 75.8
M 214.65 75.8
L 214.9 75.8
Q 214.85 78.8 215.65 80.1
L 214.65 80.1 214.65 75.8
M 210.9 73.25
L 209.1 73.25
Q 208.65 75.7 207.4 76.45
L 207.4 77.55
Q 207.5 77.5 207.7 77.45 208.15 77.3 208.35 77.3
L 208.35 83.1 210.05 83.1 210.05 75.75
Q 210.5 74.85 210.9 73.25
M 198 73.25
L 196.7 73.25 196.7 74.5 196.4 74.5 196.4 75.65 196.7 75.65 196.7 77.65
Q 196.7 79.95 197.4 81.15 197.35 81.2 197.25 81.3 196.8 81.75 196.5 81.95
L 196.5 83.1
Q 197.55 82.5 198.2 82 198.85 82.5 199.9 83.1
L 199.9 81.95
Q 199.55 81.75 199.15 81.3 199.05 81.2 199 81.15 199.85 79.95 199.85 77.65
L 199.85 75.65 200.1 75.65 200.1 74.5 199.85 74.5 199.85 73.25 198.55 73.25 198.55 74.5 198 74.5 198 73.25
M 198 75.65
L 198.55 75.65 198.55 77.7
Q 198.55 79.05 198.25 79.85 198 79.15 198 77.7
L 198 75.65
M 202.3 73.85
L 202.3 73.15 200.7 73.15 200.7 73.85 200.15 73.85 200.15 75.05 200.7 75.05 200.7 78.25 202.4 78.25 202.4 78.85 200.1 78.85 200.1 80.05 200.9 80.05
Q 200.75 81.3 200.1 81.9
L 200.1 82.95
Q 202.05 82.15 202.3 80.05
L 202.4 80.05 202.4 83.1 204.05 83.1 204.05 80.05
Q 204.3 82.15 206.35 82.95
L 206.35 81.9
Q 205.5 81.2 205.45 80.05
L 206.4 80.05 206.4 78.85 204.05 78.85 204.05 78.25 204.15 78.25
Q 205.85 78.35 205.75 76.75
L 205.75 75.05 206.35 75.05 206.35 73.85 205.75 73.85 205.75 73.15 204.1 73.15 204.1 73.85 202.3 73.85
M 202.3 77.15
L 202.3 76.6 204.1 76.6 204.1 76.7
Q 204.15 77.2 203.65 77.15
L 202.3 77.15
M 202.3 75.55
L 202.3 75.05 204.1 75.05 204.1 75.55 202.3 75.55
M 185.4 77
L 185.4 78.3 195.5 78.3 195.5 77 185.4 77
M 178.3 73.25
L 176.35 73.25
Q 176.5 73.95 176.7 74.35
L 175.15 74.35 175.15 79.5 178.45 79.5 178.45 80.2 174.45 80.2 174.45 81.45 178.45 81.45 178.45 83.1 180.4 83.1 180.4 81.45 184.5 81.45 184.5 80.2 180.4 80.2 180.4 79.5 182.25 79.5
Q 183.85 79.55 183.8 77.8
L 183.8 74.35 182.2 74.35
Q 182.4 73.95 182.55 73.25
L 180.6 73.25
Q 180.5 73.8 180.3 74.35
L 178.6 74.35
Q 178.4 74 178.35 73.4 178.3 73.3 178.3 73.25
M 182.05 75.55
L 182.05 76.4 180.4 76.4 180.4 75.55 182.05 75.55
M 178.45 75.55
L 178.45 76.4 176.9 76.4 176.9 75.55 178.45 75.55
M 178.45 77.5
L 178.45 78.3 176.9 78.3 176.9 77.5 178.45 77.5
M 180.4 78.3
L 180.4 77.5 182.05 77.5 182.05 77.75
Q 182.05 78.35 181.45 78.3
L 180.4 78.3
M 164.7 78.9
L 170.5 78.9 170.5 77.6 164.7 77.6 164.7 78.9
M 152.65 73.95
Q 151.85 73.65 150.85 73.6
L 150.85 74.85
Q 151.75 75 152.65 75.5
L 152.65 73.95
M 154.55 73.2
L 152.95 73.2 152.95 75.75
Q 152.1 76.2 150.7 76.5
L 150.7 78.05
Q 152 77.6 152.95 77.15
L 152.95 78.55 154.55 78.55 154.55 73.2
M 160.5 73.7
L 157.65 73.7
Q 157.7 73.65 157.8 73.45 157.85 73.35 157.9 73.25
L 156.15 73.25
Q 155.75 74.5 154.65 74.9
L 154.65 75.8
Q 155.15 75.75 155.5 75.6
L 155.5 76.4
Q 156.15 76.5 156.85 76.75 156.35 77.1 155.1 77.4
L 155.1 78.35 154.6 78.35 154.6 78.6
Q 154.6 78.8 154.6 78.95
L 150.85 78.95 150.85 80.15 154.3 80.15
Q 153.6 81.7 150.7 82.05
L 150.7 83.1
Q 154.3 82.8 155.65 81.3 157.3 82.75 160.6 83.1
L 160.6 82.05
Q 157.65 81.6 157 80.15
L 160.55 80.15 160.55 78.95 156.7 78.95
Q 156.7 78.8 156.7 78.6
L 156.7 78.35 155.6 78.35
Q 159.15 77.85 160.5 74.9
L 160.5 73.7
M 158.6 74.9
Q 157.95 75.9 157.45 76.4
L 157.45 75.6
Q 156.9 75.4 156.2 75.35 156.6 75.2 156.9 74.9
L 158.6 74.9
M 149.3 76.35
L 146.95 76.35 146.95 75.9 145 75.9 145 83.1 146.95 83.1 146.95 81.7 149.55 81.7 149.55 80.5 146.95 80.5 146.95 79.6 149.15 79.6 149.15 78.35 146.95 78.35 146.95 77.6 149.3 77.6 149.3 76.35
M 140.15 78.35
L 140.15 79.6 142.35 79.6 142.35 80.5 139.75 80.5 139.75 81.7 142.35 81.7 142.35 83.1 144.25 83.1 144.25 75.9 142.35 75.9 142.35 76.35 140 76.35 140 77.6 142.35 77.6 142.35 78.35 140.15 78.35
M 142.05 73.15
L 142.05 73.8 139.75 73.8 139.75 75 142.05 75 142.05 75.7 143.85 75.7 143.85 75 145.45 75 145.45 75.7 147.25 75.7 147.25 75 149.6 75 149.6 73.8 147.25 73.8 147.25 73.15 145.45 73.15 145.45 73.8 143.85 73.8 143.85 73.15 142.05 73.15
M 135.4 76.7
Q 134.7 78.5 133.65 79.55 132.7 78.65 131.9 76.7
L 129.8 76.7
Q 130.8 79.25 132.3 80.6 131.2 81.3 128.75 81.9
L 128.75 83.1
Q 132.05 82.45 133.65 81.55 135.25 82.45 138.55 83.1
L 138.55 81.9
Q 136.1 81.3 135 80.6 136.5 79.25 137.5 76.7
L 135.4 76.7
M 130.8 74.05
L 128.65 74.05 128.65 75.3 130.8 75.3 130.8 76.2 132.6 76.2 132.6 75.3 134.7 75.3 134.7 76.2 136.5 76.2 136.5 75.3 138.65 75.3 138.65 74.05 136.5 74.05 136.5 73.15 134.7 73.15 134.7 74.05 132.6 74.05 132.6 73.15 130.8 73.15 130.8 74.05
M 117.9 73.4
L 117.9 82.9 125.75 82.9
Q 127.45 82.95 127.4 81.25
L 127.4 73.4 117.9 73.4
M 119.75 81.8
L 119.75 74.6 125.55 74.6 125.55 81.1
Q 125.55 81.8 124.9 81.8
L 119.75 81.8
M 123.6 78.7
Q 123.85 79.35 123.95 79.9
L 125.25 79.9
Q 125.1 79.25 124.8 78.7
L 123.6 78.7
M 120.3 77.35
L 120.3 78.55 121.65 78.55 121.65 80.05 120.05 80.05 120.05 81.25 125.25 81.25 125.25 80.05 123.45 80.05 123.45 78.55 125 78.55 125 77.35 123.45 77.35 123.45 76.4 125.2 76.4 125.2 75.25 120.1 75.25 120.1 76.4 121.65 76.4 121.65 77.35 120.3 77.35
M 112.65 73.15
L 110.65 73.15 110.65 74.75 107.1 74.75 107.1 80.45 110.65 80.45 110.65 83.15 112.65 83.15 112.65 80.45 114.45 80.45
Q 116.3 80.6 116.2 78.45
L 116.2 74.75 112.65 74.75 112.65 73.15
M 114.4 78.5
Q 114.45 79.2 113.8 79.2
L 112.65 79.2 112.65 76 114.4 76 114.4 78.5
M 108.9 76
L 110.65 76 110.65 79.2 108.9 79.2 108.9 76
M 119.2 64.6
L 120.35 64.6
Q 119.1 65.15 117.85 65.45
L 117.85 66.95
Q 119.9 66.5 121.45 65.45
L 121.45 64.1
Q 121 64.25 120.65 64.5 120.35 63.65 120.2 62.9
L 118.6 62.9
Q 118.85 64.05 119.2 64.6
M 118.45 58
L 118.45 59.2 124.6 59.2 124.6 59.75 118.8 59.75 118.8 60.85 124.6 60.85 124.6 61.45 117.65 61.45 117.65 62.7 121.65 62.7 121.65 65.9
Q 121.7 66.35 121.2 66.35
L 120.65 66.35 120.65 67.55 122 67.55
Q 123.65 67.55 123.6 65.9
L 123.6 65.4
Q 124.9 66.45 127.45 67.25
L 127.45 66.1
Q 126.15 65.55 125.15 64.8
L 126 64.8
Q 126.45 63.9 126.6 62.9
L 125 62.9
Q 124.95 63.6 124.65 64.4 124.55 64.25 124.35 64.05 123.8 63.6 123.6 63.3
L 123.6 62.7 127.7 62.7 127.7 61.45 126.4 61.45 126.4 58 118.45 58
M 106.8 65.65
L 106.8 66.9
Q 108.9 66.95 110.6 66.5
L 110.6 65.3
Q 108.9 65.7 106.8 65.65
M 107.9 57.7
Q 107.6 59.4 106.7 60.7
L 106.7 61.95
Q 107.55 61.95 108.25 61.95 107.55 63.05 106.9 63.6
L 106.9 64.9
Q 109 64.9 110.6 64.6
L 110.6 63.35
Q 109.7 63.6 108.7 63.6 110.45 61.9 110.8 59.7
L 109.15 59.7
Q 109.1 59.85 109.05 60.15 108.9 60.55 108.8 60.7 108.55 60.75 108.15 60.75 109.15 59.45 109.65 57.7
L 107.9 57.7
M 116.1 61.2
L 116.1 58 110.85 58 110.85 59.25 114.25 59.25 114.25 60.85
Q 114.3 61.45 113.65 61.45
L 110.95 61.45 110.95 65.65
Q 110.9 67.35 112.5 67.25
L 115 67.25
Q 116.5 67.3 116.45 65.85
L 116.45 65.2 114.95 65.2 114.95 65.65
Q 115 66.1 114.5 66.1
L 113.35 66.1
Q 112.8 66.15 112.8 65.55
L 112.8 62.7 114.6 62.7
Q 116.1 62.7 116.1 61.2
M 262.4 48.35
L 262.4 49.4
Q 263.7 49.25 264.6 48.95
L 264.6 49.4
Q 264.65 50.5 263.65 50.95
L 263.65 52.1
Q 266.7 51.45 266.5 49.25
L 266.5 48.55 265.75 48.55
Q 266.7 48.15 267.45 47.55 268.25 48.15 269.1 48.55
L 268.35 48.55 268.35 51.95 270.25 51.95 270.25 48.95
Q 271.15 49.2 272.5 49.4
L 272.5 48.35
Q 270.7 47.85 269.5 47.1
L 270.15 47.1
Q 271.75 47.15 271.7 45.4
L 271.7 42.5 263.25 42.5 263.25 47.1 265.35 47.1
Q 264.25 47.85 262.4 48.35
M 266.5 45.3
L 266.5 45.9 265 45.9 265 45.3 266.5 45.3
M 266.5 43.65
L 266.5 44.25 265 44.25 265 43.65 266.5 43.65
M 269.95 43.65
L 269.95 44.25 268.4 44.25 268.4 43.65 269.95 43.65
M 268.4 45.9
L 268.4 45.3 269.95 45.3 269.95 45.4
Q 270 45.95 269.45 45.9
L 268.4 45.9
M 252.35 43.65
L 251.5 43.65 251.5 44.9 252.35 44.9 252.35 49.95
Q 252.35 51.65 254.15 51.6
L 261.3 51.6 261.3 50.4 254.9 50.4
Q 254.2 50.45 254.25 49.7
L 254.25 44.9 255.35 44.9 255.35 49.3 258.55 49.3
Q 260.45 49.45 260.3 47.55
L 260.3 44.9 261.45 44.9 261.45 43.65 260.3 43.65 260.3 42.15 258.55 42.15 258.55 43.65 257.1 43.65 257.1 42.15 255.35 42.15 255.35 43.65 254.25 43.65 254.25 42.55 252.35 42.55 252.35 43.65
M 258.1 48.1
L 257.1 48.1 257.1 44.9 258.55 44.9 258.55 47.6
Q 258.6 48.15 258.1 48.1
M 242.55 42.3
L 240.95 42.3
Q 241.4 43.4 241.55 44.45
L 243.3 44.45
Q 243.1 43.4 242.55 42.3
M 249.9 48.55
L 249.9 46.75 243.9 46.75 243.9 50.15 248.4 50.15
Q 249.95 50.2 249.9 48.55
M 247.65 48.95
L 245.6 48.95 245.6 47.9 248.15 47.9 248.15 48.4
Q 248.2 49 247.65 48.95
M 243.05 49.3
L 243.05 45.2 240.45 45.2 240.45 46.4 241.25 46.4 241.25 49.85
Q 241.3 50.65 240.5 50.95
L 240.5 51.9
Q 241.8 51.8 242.45 51.1 243 51.8 244.15 51.8
L 250.4 51.8 250.4 50.65 244.4 50.65
Q 243.1 50.65 243.05 49.3
M 245.65 42.45
L 244.1 42.45
Q 244.05 43.35 243.45 43.9
L 243.45 44.95
Q 244.4 44.7 244.9 44.2
L 246.15 44.2 246.15 45 243.35 45 243.35 46.2 250.35 46.2 250.35 45 247.9 45 247.9 44.2 250 44.2 250 43 247.9 43 247.9 42.1 246.15 42.1 246.15 43 245.55 43
Q 245.6 42.75 245.65 42.45
M 239.15 42.15
L 237.5 42.15 237.5 50.4
Q 237.5 50.8 237.1 50.8
L 236.35 50.8 236.35 51.9 237.75 51.9
Q 239.2 51.95 239.15 50.55
L 239.15 42.15
M 236.95 42.85
L 235.5 42.85 235.5 49.9 236.95 49.9 236.95 42.85
M 229.6 45
L 229.6 46.2
Q 229.7 46.15 229.8 46.1 230 46 230.05 45.95
L 230.05 50.2
Q 230 51.8 231.5 51.7
L 233.75 51.7
Q 235.2 51.75 235.15 50.35
L 235.15 49.75 233.7 49.75 233.7 50.1
Q 233.75 50.65 233.25 50.6
L 232.3 50.6
Q 231.75 50.65 231.8 50
L 231.8 46.7 233.05 46.7 233.05 47.75
Q 233.1 48.2 232.55 48.2
L 232.2 48.2 232.2 49.4 233.05 49.4
Q 234.75 49.5 234.6 47.8
L 234.6 45.85
Q 234.95 46 235.25 46.15
L 235.25 45
Q 233.95 43.9 233.3 42.1
L 231.5 42.1
Q 230.9 43.95 229.6 45
M 230.95 45.5
Q 231.8 44.95 232.4 44 233.1 45 233.95 45.5
L 230.95 45.5
M 226.2 43.75
L 226.2 44.6
Q 226.25 45.25 225.6 45.2
L 223.85 45.2 223.85 48.65
Q 223.8 50.3 225.25 50.2
L 226.95 50.2
Q 228.35 50.25 228.3 48.8
L 228.3 48.05 226.9 48.05 226.9 48.5
Q 226.95 49 226.4 48.95
L 226.05 48.95
Q 225.5 49 225.55 48.45
L 225.55 46.45 226.4 46.45
Q 227.95 46.5 227.9 44.95
L 227.9 42.55 223.7 42.55 223.7 43.75 226.2 43.75
M 222 42.9
L 222 42.05 220.25 42.05 220.25 42.9 218.75 42.9 218.75 44.1 220.25 44.1 220.25 45.3 218.5 45.3 218.5 46.5 220.7 46.5 220.7 49.95
Q 220.5 49.8 220.25 49.55 220.25 49.4 220.25 49.25
L 220.25 47.15 218.8 47.15 218.8 49.5
Q 218.8 50.45 218.4 50.95
L 218.4 52.1
Q 219.5 51.5 219.9 50.95 220.85 51.9 222.55 51.85
L 228.45 51.85 228.45 50.75 223.2 50.75
Q 223 50.75 222.75 50.7 222.5 50.7 222.4 50.7
L 222.4 48.95 223.5 48.95 223.5 47.75 222.4 47.75 222.4 46.5 223.6 46.5 223.6 45.3 222 45.3 222 44.1 223.3 44.1 223.3 42.9 222 42.9
M 207.4 45.9
L 207.4 47.2 217.5 47.2 217.5 45.9 207.4 45.9
M 204.7 51.8
Q 206.2 51.85 206.15 50.5
L 206.15 47.1 201.75 47.1 201.75 51.8 204.7 51.8
M 204.55 48.15
L 204.55 48.95 203.35 48.95 203.35 48.15 204.55 48.15
M 204.05 50.8
L 203.35 50.8 203.35 49.9 204.55 49.9 204.55 50.2
Q 204.6 50.8 204.05 50.8
M 201.2 47.1
L 196.8 47.1 196.8 51.8 199.75 51.8
Q 201.25 51.85 201.2 50.5
L 201.2 47.1
M 199.6 48.15
L 199.6 48.95 198.4 48.95 198.4 48.15 199.6 48.15
M 199.1 50.8
L 198.4 50.8 198.4 49.9 199.6 49.9 199.6 50.2
Q 199.65 50.8 199.1 50.8
M 203.85 46.7
Q 205.3 46.75 205.25 45.15
L 205.25 42.45 197.65 42.45 197.65 46.7 203.85 46.7
M 203.5 43.55
L 203.5 44.1 199.45 44.1 199.45 43.55 203.5 43.55
M 203.5 45.05
L 203.5 45.1
Q 203.55 45.6 203.05 45.6
L 199.45 45.6 199.45 45.05 203.5 45.05
M 195.15 47.1
L 190.75 47.1 190.75 51.8 193.7 51.8
Q 195.2 51.85 195.15 50.5
L 195.15 47.1
M 192.35 48.95
L 192.35 48.15 193.55 48.15 193.55 48.95 192.35 48.95
M 193.55 50.2
Q 193.6 50.8 193.05 50.8
L 192.35 50.8 192.35 49.9 193.55 49.9 193.55 50.2
M 190.2 47.1
L 185.8 47.1 185.8 51.8 188.75 51.8
Q 190.25 51.85 190.2 50.5
L 190.2 47.1
M 188.6 48.15
L 188.6 48.95 187.4 48.95 187.4 48.15 188.6 48.15
M 188.1 50.8
L 187.4 50.8 187.4 49.9 188.6 49.9 188.6 50.2
Q 188.65 50.8 188.1 50.8
M 186.65 42.45
L 186.65 46.7 192.85 46.7
Q 194.3 46.75 194.25 45.15
L 194.25 42.45 186.65 42.45
M 188.45 45.6
L 188.45 45.05 192.5 45.05 192.5 45.1
Q 192.55 45.6 192.05 45.6
L 188.45 45.6
M 188.45 44.1
L 188.45 43.55 192.5 43.55 192.5 44.1 188.45 44.1
M 184.45 48.65
Q 184.4 47.4 183.7 46.45 184.05 45.6 184.3 43.7
L 184.3 42.5 180.35 42.5 180.35 52 181.95 52 181.95 43.7 182.7 43.7
Q 182.65 45.3 182.25 46.5 182.95 47.35 182.95 48.5 182.95 49.55 182.15 49.5
L 182.15 50.8
Q 184.5 50.8 184.45 48.65
M 174.9 44.15
L 174.9 46.8 178.45 46.8
Q 179.75 46.85 179.7 45.45
L 179.7 44.15 174.9 44.15
M 176.45 45.85
L 176.45 45.05 178.2 45.05 178.2 45.4
Q 178.25 45.9 177.75 45.85
L 176.45 45.85
M 176.7 48.7
L 176.7 49
Q 175.75 49.05 174.45 49.05
L 174.45 50.25
Q 174.95 50.25 175.75 50.2 176.4 50.2 176.7 50.2
L 176.7 50.5
Q 176.7 50.95 176.3 50.9
L 175.6 50.9 175.6 51.9 177 51.9
Q 178.4 51.95 178.4 50.6
L 178.4 50.1
Q 179.2 49.95 180.15 49.85
L 180.15 48.8
Q 179.8 48.85 179.2 48.9 178.9 48.95 178.7 48.95 179.2 48.75 179.8 48.2
L 179.8 47.1 174.9 47.1 174.9 48.2 177.75 48.2
Q 177.35 48.55 176.7 48.7
M 180.15 42.7
L 178.35 42.7 178.35 42.15 176.4 42.15 176.4 42.7 174.5 42.7 174.5 43.85 180.15 43.85 180.15 42.7
M 153.7 47.8
L 159.5 47.8 159.5 46.5 153.7 46.5 153.7 47.8
M 170.45 48.25
L 163.4 48.25 163.4 49.5 170.45 49.5 170.45 48.25
M 166.75 42.1
L 164.85 42.1
Q 164.8 44.4 164.55 45.75
L 164.55 47.1 170.9 47.1 170.9 50.15
Q 170.95 50.75 170.3 50.75
L 168.9 50.75 168.9 51.9 171.1 51.9
Q 172.9 51.9 172.9 50.2
L 172.9 45.8 166.35 45.8 166.4 45.6
Q 166.5 44.85 166.55 44.4
L 173.2 44.4 173.2 43.15 166.75 43.15
Q 166.75 43 166.75 42.65 166.75 42.3 166.75 42.1
M 139.6 46.45
L 139.6 47.7 143.85 47.7 143.85 50.1
Q 143.85 50.7 143.3 50.7
L 142.35 50.7 142.35 51.85 144.1 51.85
Q 145.9 51.85 145.9 50.1
L 145.9 47.7 149.65 47.7 149.65 46.45 145.9 46.45 145.9 45.8
Q 147.45 45.15 149 43.75
L 149 42.55 140.35 42.55 140.35 43.8 146.05 43.8
Q 144.85 44.85 143.85 45.35
L 143.85 46.45 139.6 46.45
M 134.25 42.1
L 132.35 42.1 132.35 43 129 43 129 49.5 132.35 49.5 132.35 49.95
Q 132.3 51.85 134.1 51.8
L 136.9 51.8
Q 138.5 51.85 138.45 50.2
L 138.45 49.75 137 49.75 137 50.15
Q 137 50.7 136.45 50.7
L 135.05 50.7
Q 134.2 50.75 134.25 49.9
L 134.25 49.5 135.75 49.5
Q 137.8 49.6 137.7 47.5
L 137.7 43 134.25 43 134.25 42.1
M 130.75 45.6
L 130.75 44.2 132.35 44.2 132.35 45.6 130.75 45.6
M 130.75 48.3
L 130.75 46.8 132.35 46.8 132.35 48.3 130.75 48.3
M 135.85 44.2
L 135.85 45.6 134.25 45.6 134.25 44.2 135.85 44.2
M 135.85 47.65
Q 135.9 48.35 135.15 48.3
L 134.25 48.3 134.25 46.8 135.85 46.8 135.85 47.65
M 123.85 48.85
L 123.85 48.35 127.25 48.35 127.25 47.15 123.85 47.15 123.85 46.55 125.4 46.55
Q 126.9 46.6 126.85 44.95
L 126.85 42.45 118.55 42.45 118.55 46.55 121.9 46.55 121.9 47.15 120.35 47.15
Q 120.35 47.1 120.4 46.95 120.45 46.8 120.45 46.75
L 118.8 46.75
Q 118.55 48 117.65 48.6
L 117.65 49.7
Q 118.55 49.4 119.15 48.95
L 119.15 49.9 121.9 49.9 121.9 50.6 117.7 50.6 117.7 51.7 127.7 51.7 127.7 50.6 123.85 50.6 123.85 49.9 126.8 49.9 126.8 48.85 123.85 48.85
M 125.05 44.95
Q 125.1 45.45 124.55 45.4
L 120.35 45.4 120.35 44.95 125.05 44.95
M 125.05 43.6
L 125.05 44.05 120.35 44.05 120.35 43.6 125.05 43.6
M 121.9 48.35
L 121.9 48.85 119.3 48.85
Q 119.6 48.6 119.75 48.35
L 121.9 48.35
M 106.7 51.4
L 116.6 51.4 116.6 50.2 106.7 50.2 106.7 51.4
M 107.8 46.25
L 107.8 47.55 115.55 47.55 115.55 46.25 107.8 46.25
M 107.3 42.75
L 107.3 44.05 116.05 44.05 116.05 42.75 107.3 42.75
M 194.6 16.15
L 194.6 13.35 181.85 13.35
Q 181.95 13.05 182.15 12.5 182.25 12.1 182.35 11.85
L 178.1 11.85
Q 177.1 15.95 174.1 17.85
L 174.1 20.35
Q 175.5 20 176.55 19.45
L 176.55 26 173.7 26 173.7 28.7 183.95 28.7 183.95 33.4 188.25 33.4 188.25 28.7 195.35 28.7 195.35 26 188.25 26 188.25 21.6 194.05 21.6 194.05 18.85 188.25 18.85 188.25 16.15 194.6 16.15
M 183.95 16.15
L 183.95 18.85 177.65 18.85
Q 179.45 17.75 180.55 16.15
L 183.95 16.15
M 180.45 21.6
L 183.95 21.6 183.95 26 180.45 26 180.45 21.6
M 169.35 12.5
L 165.2 12.5 155.45 25.7 155.45 28.6 165 28.6 165 32.75 169.35 32.75 169.35 28.6 171.75 28.6 171.75 25.7 169.35 25.7 169.35 12.5
M 165 18.4
L 165 25.7 159.65 25.7 165 18.4
M 152.45 12.5
L 147.95 12.5
Q 146.2 16.45 141.5 18.4
L 141.5 20.95
Q 145.35 20.35 147.95 18.5
L 147.95 32.75 152.45 32.75 152.45 12.5
M 139.8 22.7
Q 139.7 12.2 131.9 12.1 124.3 12.5 124.15 22.7 124.25 32.95 131.9 33.1 139.9 33.2 139.8 22.7
M 128.65 22.8
Q 128.65 14.95 132 15 135.3 14.85 135.2 22.8 135.2 30.4 132 30.4 128.65 30.4 128.65 22.8
M 122.1 32.75
L 122.1 30.1 111.7 30.1
Q 113.3 27.5 117.6 24.95 122.45 22.05 122.2 18 121.9 12.4 115.05 12.2 108.3 12.3 107.1 19.05
L 111.3 19.05
Q 111.8 15.2 114.8 15.1 117.7 15 117.7 18.2 117.95 20.25 113.1 23.75 109.15 26.65 107.2 30
L 107.2 32.75 122.1 32.75 Z"/>
</g>
</defs>

<g transform="matrix( 1, 0, 0, 1, 0,0) ">
<use xlink:href="#Layer2_0_FILL"/>
</g>

<g transform="matrix( 10.800430297851562, 0, 0, 10.800430297851562, 5.5,4.6) ">
<g transform="matrix( 1, 0, 0, 1, 0,0) ">
<use xlink:href="#pop_0_Layer5_0_FILL"/>
</g>

<g transform="matrix( 1, 0, 0, 1, 0,0) ">
<use xlink:href="#pop_0_Layer4_0_FILL"/>
</g>

<g transform="matrix( 1, 0, 0, 1, 0,0) ">
<use xlink:href="#pop_0_Layer3_0_FILL"/>
</g>

<g transform="matrix( 1, 0, 0, 1, 0,0) ">
<use xlink:href="#pop_0_Layer2_0_FILL"/>
</g>

<g transform="matrix( 1, 0, 0, 1, 0,0) ">
<use xlink:href="#pop_0_Layer1_0_FILL"/>
</g>

<g transform="matrix( 1, 0, 0, 1, 0,0) ">
<use xlink:href="#pop_0_Layer0_0_FILL"/>
</g>
</g>

<g transform="matrix( 1, 0, 0, 1, 0,0) ">
<use xlink:href="#Layer2_1_MEMBER_1_FILL"/>
</g>

<g transform="matrix( 1, 0, 0, 1, 0,0) ">
<use xlink:href="#Layer2_1_MEMBER_1_MEMBER_0_FILL"/>
</g>

<g transform="matrix( 1, 0, 0, 1, 0,0) ">
<use xlink:href="#Layer1_0_FILL"/>
</g>
</svg>
