
<svg xmlns="http://www.w3.org/2000/svg" version="1.1" xmlns:xlink="http://www.w3.org/1999/xlink" preserveAspectRatio="none" x="0px" y="0px" width="74px" height="74px" viewBox="0 0 74 74">
<defs>
<g id="pop_0_Layer5_0_FILL">
<path fill="#0C0A80" fill-opacity="0.2" stroke="none" d="
M 7.25 6.1
Q 7.75 5.2 7.85 4.45 7.85 4.3 7.85 4 7.7 2.15 6.05 1.6 4.15 1.1 3 2.6 1.9 4.15 3.45 5.9 4.7 7.3 2.95 7.8 3.1 7.95 3.7 7.95 3.75 7.95 3.85 7.95 4.5 8 5.5 7.6 6.7 7 7.25 6.1 Z"/>
</g>

<g id="pop_0_Layer4_0_FILL">
<path fill="#0C0A80" fill-opacity="0.2" stroke="none" d="
M 4.85 5.25
Q 4.85 4.4 4.25 3.75 3.65 3.15 2.8 3.15 1.95 3.15 1.35 3.75 0.7 4.4 0.7 5.25 0.7 6.1 1.35 6.7 1.95 7.3 2.8 7.3 3.65 7.3 4.25 6.7 4.85 6.1 4.85 5.25 Z"/>
</g>

<g id="pop_0_Layer3_0_FILL">
<path fill="#0C0A80" fill-opacity="0.2" stroke="none" d="
M 7.05 2.25
Q 7.05 1.6 6.6 1.15 6.15 0.7 5.5 0.7 4.85 0.7 4.4 1.15 3.95 1.6 3.95 2.25 3.95 2.9 4.4 3.35 4.85 3.8 5.5 3.8 6.15 3.8 6.6 3.35 7.05 2.9 7.05 2.25 Z"/>
</g>

<g id="pop_0_Layer2_0_FILL">
<path fill="#FFFFFF" fill-opacity="0.30196078431372547" stroke="none" d="
M 8.2 4.1
Q 8.2 2.4 7 1.2 5.8 0 4.1 0 2.4 0 1.2 1.2 0 2.4 0 4.1 0 5.8 1.2 7 2.4 8.2 4.1 8.2 5.8 8.2 7 7 8.2 5.8 8.2 4.1 Z"/>
</g>

<g id="pop_0_Layer1_0_FILL">
<path fill="#FFFFFF" fill-opacity="0.5019607843137255" stroke="none" d="
M 2.1 6.2
Q 3.7 5.95 2.65 3.7 1.9 1.2 4.2 0.3 3.65 0.35 3 0.55 1.7 1.1 1.1 1.9 0.5 2.75 0.4 3.5 0.35 3.65 0.35 3.95 0.4 6.2 2.1 6.2 Z"/>
</g>

<g id="pop_0_Layer0_0_FILL">
<path fill="#FFFFFF" fill-opacity="0.5019607843137255" stroke="none" d="
M 6.9 1.85
Q 6.9 1.45 6.65 1.2 6.35 0.9 6 0.9 5.6 0.9 5.35 1.2 5.05 1.45 5.05 1.85 5.05 2.2 5.35 2.5 5.6 2.75 6 2.75 6.35 2.75 6.65 2.5 6.9 2.2 6.9 1.85 Z"/>
</g>

<g id="Layer0_0_MEMBER_1_FILL">
<path fill="#FFFFFF" stroke="none" d="
M 493.5 170.8
Q 493.5 169.95 492.95 169.4 492.35 168.8 491.5 168.8
L 485.1 168.8 485.1 138.95
Q 485.1 138.1 484.55 137.55 483.95 136.95 483.1 136.95
L 478.1 136.95
Q 477.5 136.95 477.05 137.25 476.55 136.95 475.95 136.95
L 462.4 136.95
Q 461.55 136.95 461 137.55 460.4 138.1 460.4 138.95
L 460.4 175
Q 460.4 175.85 461 176.45 461.55 177 462.4 177
L 467.4 177
Q 468.25 177 468.85 176.45 469.4 175.85 469.4 175
L 469.4 160.65 475.45 160.65
Q 475.8 160.65 476.1 160.55
L 476.1 175
Q 476.1 175.85 476.7 176.45 477.25 177 478.1 177
L 491.5 177
Q 492.35 177 492.95 176.45 493.5 175.85 493.5 175
L 493.5 170.8
M 491.5 170.8
L 491.5 175 478.1 175 478.1 138.95 483.1 138.95 483.1 170.8 491.5 170.8
M 475.95 138.95
L 475.95 143.15 467.4 143.15 467.4 154.45 475.45 154.45 475.45 158.65 467.4 158.65 467.4 175 462.4 175 462.4 138.95 475.95 138.95
M 475.95 145.15
Q 476.05 145.15 476.1 145.15
L 476.1 152.55
Q 475.8 152.45 475.45 152.45
L 469.4 152.45 469.4 145.15 475.95 145.15 Z"/>

<path fill="#C64848" stroke="none" d="
M 475.95 143.15
L 475.95 138.95 462.4 138.95 462.4 175 467.4 175 467.4 158.65 475.45 158.65 475.45 154.45 467.4 154.45 467.4 143.15 475.95 143.15
M 491.5 175
L 491.5 170.8 483.1 170.8 483.1 138.95 478.1 138.95 478.1 175 491.5 175 Z"/>
</g>
</defs>

<g transform="matrix( 9.000396728515625, 0, 0, 9.000396728515625, 0,0) ">
<g transform="matrix( 1, 0, 0, 1, 0,0) ">
<use xlink:href="#pop_0_Layer5_0_FILL"/>
</g>

<g transform="matrix( 1, 0, 0, 1, 0,0) ">
<use xlink:href="#pop_0_Layer4_0_FILL"/>
</g>

<g transform="matrix( 1, 0, 0, 1, 0,0) ">
<use xlink:href="#pop_0_Layer3_0_FILL"/>
</g>

<g transform="matrix( 1, 0, 0, 1, 0,0) ">
<use xlink:href="#pop_0_Layer2_0_FILL"/>
</g>

<g transform="matrix( 1, 0, 0, 1, 0,0) ">
<use xlink:href="#pop_0_Layer1_0_FILL"/>
</g>

<g transform="matrix( 1, 0, 0, 1, 0,0) ">
<use xlink:href="#pop_0_Layer0_0_FILL"/>
</g>
</g>

<g transform="matrix( 1, 0, 0, 1, -440.05,-120.05) ">
<use xlink:href="#Layer0_0_MEMBER_1_FILL"/>
</g>
</svg>
