
<svg xmlns="http://www.w3.org/2000/svg" version="1.1" xmlns:xlink="http://www.w3.org/1999/xlink" preserveAspectRatio="none" x="0px" y="0px" width="300px" height="100px" viewBox="0 0 300 100">
<defs>
<g id="Layer2_0_FILL">
<path fill="#000000" fill-opacity="0.5019607843137255" stroke="none" d="
M 300 49.2
Q 300 28.8 285.55 14.4 271.2 0 250.8 0
L 49.2 0
Q 28.8 0 14.35 14.4 0 28.8 0 49.2 0 69.6 14.35 84 28.8 98.4 49.2 98.4
L 127.95 98.4
Q 128.15 98.5 128.4 98.5 128.6650390625 98.5 128.9 98.4
L 250.8 98.4
Q 271.2 98.4 285.55 84 300 69.6 300 49.2 Z"/>
</g>

<g id="pop_0_Layer5_0_FILL">
<path fill="#0C0A80" fill-opacity="0.2" stroke="none" d="
M 7.25 6.1
Q 7.75 5.2 7.85 4.45 7.85 4.3 7.85 4 7.7 2.15 6.05 1.6 4.15 1.1 3 2.6 1.9 4.15 3.45 5.9 4.7 7.3 2.95 7.8 3.1 7.95 3.7 7.95 3.75 7.95 3.85 7.95 4.5 8 5.5 7.6 6.7 7 7.25 6.1 Z"/>
</g>

<g id="pop_0_Layer4_0_FILL">
<path fill="#0C0A80" fill-opacity="0.2" stroke="none" d="
M 4.85 5.25
Q 4.85 4.4 4.25 3.75 3.65 3.15 2.8 3.15 1.95 3.15 1.35 3.75 0.7 4.4 0.7 5.25 0.7 6.1 1.35 6.7 1.95 7.3 2.8 7.3 3.65 7.3 4.25 6.7 4.85 6.1 4.85 5.25 Z"/>
</g>

<g id="pop_0_Layer3_0_FILL">
<path fill="#0C0A80" fill-opacity="0.2" stroke="none" d="
M 7.05 2.25
Q 7.05 1.6 6.6 1.15 6.15 0.7 5.5 0.7 4.85 0.7 4.4 1.15 3.95 1.6 3.95 2.25 3.95 2.9 4.4 3.35 4.85 3.8 5.5 3.8 6.15 3.8 6.6 3.35 7.05 2.9 7.05 2.25 Z"/>
</g>

<g id="pop_0_Layer2_0_FILL">
<path fill="#FFFFFF" fill-opacity="0.30196078431372547" stroke="none" d="
M 8.2 4.1
Q 8.2 2.4 7 1.2 5.8 0 4.1 0 2.4 0 1.2 1.2 0 2.4 0 4.1 0 5.8 1.2 7 2.4 8.2 4.1 8.2 5.8 8.2 7 7 8.2 5.8 8.2 4.1 Z"/>
</g>

<g id="pop_0_Layer1_0_FILL">
<path fill="#FFFFFF" fill-opacity="0.5019607843137255" stroke="none" d="
M 2.1 6.2
Q 3.7 5.95 2.65 3.7 1.9 1.2 4.2 0.3 3.65 0.35 3 0.55 1.7 1.1 1.1 1.9 0.5 2.75 0.4 3.5 0.35 3.65 0.35 3.95 0.4 6.2 2.1 6.2 Z"/>
</g>

<g id="pop_0_Layer0_0_FILL">
<path fill="#FFFFFF" fill-opacity="0.5019607843137255" stroke="none" d="
M 6.9 1.85
Q 6.9 1.45 6.65 1.2 6.35 0.9 6 0.9 5.6 0.9 5.35 1.2 5.05 1.45 5.05 1.85 5.05 2.2 5.35 2.5 5.6 2.75 6 2.75 6.35 2.75 6.65 2.5 6.9 2.2 6.9 1.85 Z"/>
</g>

<g id="Layer2_1_MEMBER_1_FILL">
<path fill="#FFFFFF" stroke="none" d="
M 72.85 23.95
Q 72.85 23.9 72.85 23.8 72.85 22.7 72 21.85 71.15 21 70.05 21
L 28.6 21
Q 27.4 21 26.65 21.85 26.6 21.85 26.6 21.9 25.8 22.75 25.8 23.8 25.8 23.9 25.8 23.95 25.8 24.6 25.85 25.3 25.85 25.45 25.85 25.65 23.85 26.55 22.2 28.25 18.4 32.05 18.4 37.35 18.4 42.6 22.2 46.35
L 22.2 46.4
Q 25.95 50.15 31.25 50.15 32.6 50.15 33.95 49.9
L 34 49.95
Q 37.8 54.75 42.4 56.75 43.45 60.05 43.75 63.8 41.85 67 39.3 69.8 38.2 71 36.9 72.15
L 36.85 72.2
Q 36.8 72.2 36.8 72.25 35.9 72.8 35.7 73.85 35 76.85 34.25 79.8 34.2 79.9 34.2 80 34.1 80.65 34.3 81.35 34.35 81.45 34.4 81.55 34.65 82.25 35.4 82.8
L 35.45 82.8
Q 36.1 83.25 36.95 83.25
L 61.7 83.25
Q 62.45 83.25 63.15 82.85 63.2 82.8 63.3 82.8 64 82.25 64.3 81.55 64.3 81.45 64.35 81.35 64.55 80.55 64.35 79.8 63.65 76.95 62.95 74 62.8 72.85 61.95 72.25 61.8 72.15 61.65 72.1 60.35 70.95 59.3 69.8 56.75 67 55 63.75 55.15 60.1 56.25 56.75 60.8 54.8 64.7 50.05 64.7 50 64.75 49.95 65.95 50.15 67.2 50.15 72.45 50.15 76.25 46.35 80 42.6 80 37.35 80 32.05 76.3 28.25 74.7 26.6 72.85 25.75 72.85 25.45 72.85 25.15 72.85 25.1 72.85 25.05 72.85 24.5 72.85 23.95 Z"/>
</g>

<g id="Layer2_1_MEMBER_1_MEMBER_0_FILL">
<path fill="#666666" stroke="none" d="
M 60.2 74.45
L 49.2 74.45 49.2 80.45 61.7 80.45
Q 60.95 77.5 60.25 74.45
L 60.2 74.45 Z"/>

<path fill="#999999" stroke="none" d="
M 38.4 74.45
Q 37.7 77.5 36.95 80.45
L 49.2 80.45 49.2 74.45 38.45 74.45 38.4 74.45
M 70.05 23.95
Q 70.05 23.9 70.05 23.8
L 49.2 23.8 49.2 74.45 60.2 74.45
Q 58.6 73.1 57.3 71.65 54.2 68.35 52.1 64.4 52.3 59.2 54 54.65
L 53.9 54.65
Q 58.6 53.1 62.5 48.25 63.05 47.55 63.6 46.75 65.25 47.35 67.2 47.35 71.35 47.35 74.3 44.4 77.25 41.5 77.25 37.35 77.25 33.15 74.3 30.2 72.35 28.3 69.95 27.65 70 26.35 70.05 25.05 70.05 24.5 70.05 23.95
M 67.2 44.4
Q 66.15 44.4 65.2 44.15 68.6 38.15 69.65 30.65 71.05 31.2 72.2 32.3 74.35 34.4 74.35 37.35 74.35 40.3 72.2 42.35 70.2 44.4 67.2 44.4 Z"/>

<path fill="#CCCCCC" stroke="none" d="
M 28.6 23.8
Q 28.6 23.9 28.6 23.95 28.6 24.5 28.6 25.05 28.6 26.3 28.7 27.6 26.15 28.2 24.15 30.2 21.2 33.15 21.2 37.35 21.2 41.5 24.15 44.4 27.1 47.35 31.25 47.35 33.25 47.35 35.05 46.7 35.55 47.45 36.15 48.2 40 53.1 44.75 54.65
L 44.65 54.65
Q 46.3 59.2 46.5 64.4 44.45 68.35 41.35 71.65 40.05 73.1 38.45 74.45
L 49.2 74.45 49.2 23.8 28.6 23.8
M 26.2 32.3
Q 27.45 31.05 29 30.6 30.05 38.1 33.45 44.1 32.4 44.4 31.25 44.4 28.3 44.4 26.2 42.35 24.15 40.3 24.15 37.35 24.15 34.4 26.2 32.3 Z"/>
</g>

<g id="Layer1_0_FILL">
<path fill="#FFFFFF" stroke="none" d="
M 254.85 61.55
L 254.85 59.8
Q 254.05 59.45 252.9 59.4
L 252.9 60.8
Q 253.9 60.95 254.85 61.55
M 255.2 59
L 255.2 61.75
Q 254.25 62.3 252.75 62.6
L 252.75 64.3
Q 254.15 63.8 255.2 63.3
L 255.2 64.8 256.95 64.8 256.95 59 255.2 59
M 263.45 60.85
L 263.45 59.55 260.35 59.55
Q 260.4 59.45 260.5 59.3 260.55 59.15 260.6 59.05
L 258.7 59.05
Q 258.25 60.4 257.05 60.85
L 257.05 61.8
Q 257.6 61.75 258 61.6
L 258 62.45
Q 258.7 62.6 259.45 62.9 258.9 63.25 257.55 63.6
L 257.55 64.6 257.05 64.6 257.05 64.9
Q 257.05 65.1 257.05 65.3
L 252.9 65.3 252.9 66.6 256.7 66.6
Q 255.9 68.3 252.75 68.65
L 252.75 69.8
Q 256.65 69.5 258.15 67.8 259.95 69.4 263.55 69.8
L 263.55 68.65
Q 260.3 68.2 259.6 66.6
L 263.5 66.6 263.5 65.3 259.3 65.3
Q 259.3 65.1 259.3 64.9
L 259.3 64.6 258.1 64.6
Q 262 64.05 263.45 60.85
M 260.1 61.6
Q 259.5 61.4 258.75 61.35 259.2 61.15 259.5 60.85
L 261.4 60.85
Q 260.7 61.95 260.1 62.45
L 260.1 61.6
M 244.4 63.45
L 244.4 62.2 241 62.2 241 63.45 241.75 63.45 241.75 64.7 240.75 64.7 240.75 66 241.75 66 241.75 69.8
Q 243.35 69.35 244.6 68.6
L 244.6 67.25 244.45 67.3
Q 243.8 67.55 243.6 67.7
L 243.6 66 244.55 66 244.55 64.7 243.6 64.7 243.6 63.45 244.4 63.45
M 251.05 59.35
L 244.95 59.35 244.95 69.8
Q 246.65 69.25 247.75 68.6
L 247.75 67.25
Q 248.8 68.95 251.55 69.7
L 251.55 68.55
Q 250.5 68.1 249.9 67.5 251.05 66.95 251.6 65.3
L 249.95 65.3
Q 249.65 66.05 249.2 66.5 248.9 66.05 248.75 65.3
L 246.9 65.3
Q 247.3 66.4 247.75 67.2 247.4 67.4 247.05 67.5 246.85 67.55 246.75 67.6
L 246.75 65 249.4 65
Q 251.1 65.05 251.05 63.3
L 251.05 59.35
M 246.75 60.75
L 249.4 60.75 249.4 61.55 246.75 61.55 246.75 60.75
M 249.4 62.85
L 249.4 63.1
Q 249.45 63.75 248.8 63.7
L 246.75 63.7 246.75 62.85 249.4 62.85
M 244.7 61.25
L 244.7 60 243.25 60
Q 243.4 59.55 243.45 59.05
L 241.7 59.05
Q 241.6 60.35 240.7 61.05
L 240.7 62.05
Q 241.85 61.85 242.5 61.25
L 244.7 61.25
M 228.8 65.55
L 228.8 66.85 232.9 66.85
Q 232.2 68.3 228.75 68.65
L 228.75 69.75
Q 232.3 69.7 234.2 68.25 235.9 69.55 239.55 69.75
L 239.55 68.65
Q 236.05 68.15 235.5 66.85
L 239.5 66.85 239.5 65.55 235.3 65.55 235.3 64.8 233.1 64.8 233.1 65.55 228.8 65.55
M 229.9 59.3
Q 230.05 60.2 230.45 60.75
L 232.35 60.75
Q 231.95 60 231.9 59.3
L 229.9 59.3
M 239.3 61
L 235.3 61 235.3 59 233.1 59 233.1 61 229.1 61 229.1 62.3 230.8 62.3
Q 230.25 63.5 229 64.05
L 229 65.2
Q 231.8 64.6 232.9 62.3
L 233.1 62.3 233.1 64.55 235.3 64.55 235.3 62.3 235.4 62.3
Q 236.5 64.6 239.3 65.2
L 239.3 64.05
Q 237.95 63.45 237.5 62.3
L 239.3 62.3 239.3 61
M 238.4 59.3
L 236.4 59.3
Q 236.35 60 235.95 60.75
L 237.85 60.75
Q 238.3 60.2 238.4 59.3
M 217.45 66.95
Q 217.3 68.25 216.6 69.3
L 218.3 69.3
Q 218.85 68.45 219 66.95
L 217.45 66.95
M 225.5 68.1
L 224.05 68.1 224.05 68.25
Q 224.05 68.6 223.65 68.6
L 221.8 68.6
Q 221.05 68.65 221.1 67.9
L 221.1 66.95 219.3 66.95 219.3 68.3
Q 219.25 69.75 220.8 69.7
L 224.15 69.7
Q 225.55 69.75 225.5 68.5
L 225.5 68.1
M 226.65 65
L 226.65 62.95 217.7 62.95 217.7 66.7 225.05 66.7
Q 226.7 66.75 226.65 65
M 224.7 63.95
L 224.7 64.45 219.65 64.45 219.65 63.95 224.7 63.95
M 224.7 65.2
Q 224.65 65.65 224.1 65.65
L 219.65 65.65 219.65 65.2 224.7 65.2
M 226.8 66.95
L 225.25 66.95
Q 225.75 68.05 225.95 69.3
L 227.7 69.3
Q 227.3 67.95 226.8 66.95
M 224.55 68
Q 224.35 67.4 224 66.95
L 222.05 66.95
Q 222.35 67.4 222.5 68
L 224.55 68
M 225.35 60.85
L 223.3 60.85
Q 223.3 61.15 223.15 61.4
L 221.2 61.4
Q 221.05 61.15 221.05 60.85
L 219 60.85
Q 219.05 61 219.15 61.2 219.2 61.35 219.2 61.4
L 216.75 61.4 216.75 62.6 227.6 62.6 227.6 61.4 225.1 61.4
Q 225.25 61.15 225.35 60.85
M 227 59.45
L 223.35 59.45 223.35 59 221 59 221 59.45 217.35 59.45 217.35 60.7 227 60.7 227 59.45
M 211.3 67.5
L 212.85 67.5 212.85 59.85 211.3 59.85 211.3 67.5
M 208.9 59
L 206.9 59
Q 206.25 61 204.85 62.2
L 204.85 63.45
Q 204.95 63.4 205.1 63.35 205.3 63.25 205.35 63.2
L 205.35 67.85
Q 205.3 69.6 206.9 69.5
L 209.4 69.5
Q 210.95 69.55 210.9 68
L 210.9 67.35 209.35 67.35 209.35 67.7
Q 209.4 68.3 208.85 68.3
L 207.8 68.3
Q 207.2 68.3 207.25 67.6
L 207.25 64 208.6 64 208.6 65.15
Q 208.65 65.65 208.1 65.65
L 207.7 65.65 207.7 66.95 208.6 66.95
Q 210.5 67.05 210.35 65.25
L 210.35 63.05
Q 210.7 63.25 211.05 63.4
L 211.05 62.15
Q 209.6 60.95 208.9 59
M 209.6 62.7
L 206.3 62.7
Q 207.25 62.1 207.9 61.05 208.7 62.2 209.6 62.7
M 215.25 59.05
L 213.5 59.05 213.5 68.05
Q 213.5 68.45 213.05 68.45
L 212.2 68.45 212.2 69.7 213.75 69.7
Q 215.3 69.75 215.25 68.25
L 215.25 59.05
M 196.1 60.5
L 196.1 61.8 196.75 61.8
Q 196.85 65.2 195.8 67.25
L 195.8 68.75
Q 196.75 67.95 197.3 66.95
L 197.3 67.75 198.6 67.75 198.6 69.8 200.55 69.8 200.55 67.75 201.8 67.75 201.8 66.9
Q 202.35 67.8 203.4 68.75
L 203.4 67.25
Q 202.3 65.2 202.4 61.8
L 203.15 61.8 203.15 60.5 200.55 60.5 200.55 59.05 198.6 59.05 198.6 60.5 196.1 60.5
M 198.4 61.8
L 198.6 61.8 198.6 66.55 197.55 66.55
Q 198.35 64.95 198.4 61.8
M 200.55 61.8
L 200.8 61.8
Q 200.8 65.1 201.6 66.55
L 200.55 66.55 200.55 61.8
M 195.55 61.75
Q 196.05 60.8 196.45 59.05
L 194.5 59.05
Q 194 61.7 192.65 62.55
L 192.65 63.75
Q 192.75 63.7 193 63.65 193.45 63.5 193.65 63.45
L 193.65 69.8 195.55 69.8 195.55 61.75
M 184.75 59.7
L 184.75 61 185.3 61 185.3 64.55 187.2 64.55 187.2 65.15 184.65 65.15 184.65 66.45 185.55 66.45
Q 185.4 67.8 184.65 68.45
L 184.65 69.65
Q 186.8 68.75 187.1 66.45
L 187.2 66.45 187.2 69.8 188.95 69.8 188.95 66.45 189 66.45
Q 189.25 68.75 191.5 69.65
L 191.5 68.5
Q 190.55 67.7 190.5 66.45
L 191.55 66.45 191.55 65.15 188.95 65.15 188.95 64.55 189.1 64.55
Q 190.95 64.6 190.85 62.9
L 190.85 61 191.5 61 191.5 59.7 190.85 59.7 190.85 58.95 189.05 58.95 189.05 59.7 187.1 59.7 187.1 58.95 185.3 58.95 185.3 59.7 184.75 59.7
M 187.1 61.55
L 187.1 61 189.05 61 189.05 61.55 187.1 61.55
M 189.05 62.8
Q 189.1 63.35 188.55 63.3
L 187.1 63.3 187.1 62.7 189.05 62.7 189.05 62.8
M 182.95 60.4
L 182.4 60.4 182.4 59.05 180.95 59.05 180.95 60.4 180.6 60.4 180.6 61.65 180.95 61.65 180.95 63.85
Q 180.95 66.35 181.75 67.65 181.7 67.7 181.55 67.85 181.1 68.3 180.75 68.55
L 180.75 69.8
Q 181.9 69.1 182.6 68.6 183.35 69.1 184.45 69.8
L 184.45 68.55
Q 184.1 68.3 183.65 67.85 183.55 67.7 183.5 67.65 184.4 66.35 184.4 63.85
L 184.4 61.65 184.65 61.65 184.65 60.4 184.4 60.4 184.4 59.05 182.95 59.05 182.95 60.4
M 182.4 61.65
L 182.95 61.65 182.95 63.9
Q 182.95 65.35 182.65 66.25 182.4 65.45 182.4 63.9
L 182.4 61.65
M 170 63.8
L 170 65.25 176.4 65.25 176.4 63.8 170 63.8
M 157.2 59
L 157.2 61.75
Q 156.25 62.3 154.75 62.6
L 154.75 64.3
Q 156.15 63.8 157.2 63.3
L 157.2 64.8 158.95 64.8 158.95 59 157.2 59
M 154.9 60.8
Q 155.9 60.95 156.85 61.55
L 156.85 59.8
Q 156.05 59.45 154.9 59.4
L 154.9 60.8
M 165.45 60.85
L 165.45 59.55 162.35 59.55
Q 162.4 59.45 162.5 59.3 162.55 59.15 162.6 59.05
L 160.7 59.05
Q 160.25 60.4 159.05 60.85
L 159.05 61.8
Q 159.6 61.75 160 61.6
L 160 62.45
Q 160.7 62.6 161.45 62.9 160.9 63.25 159.55 63.6
L 159.55 64.6 159.05 64.6 159.05 64.9
Q 159.05 65.1 159.05 65.3
L 154.9 65.3 154.9 66.6 158.7 66.6
Q 157.9 68.3 154.75 68.65
L 154.75 69.8
Q 158.65 69.5 160.15 67.8 161.95 69.4 165.55 69.8
L 165.55 68.65
Q 162.3 68.2 161.6 66.6
L 165.5 66.6 165.5 65.3 161.3 65.3
Q 161.3 65.1 161.3 64.9
L 161.3 64.6 160.1 64.6
Q 164 64.05 165.45 60.85
M 163.4 60.85
Q 162.7 61.95 162.1 62.45
L 162.1 61.6
Q 161.5 61.4 160.75 61.35 161.2 61.15 161.5 60.85
L 163.4 60.85
M 145.6 61.95
L 145.6 62.4 143.1 62.4 143.1 63.8 145.6 63.8 145.6 64.6 143.25 64.6 143.25 66 145.6 66 145.6 66.95 142.8 66.95 142.8 68.3 145.6 68.3 145.6 69.8 147.75 69.8 147.75 61.95 145.6 61.95
M 150.65 61.95
L 148.55 61.95 148.55 69.8 150.65 69.8 150.65 68.3 153.5 68.3 153.5 66.95 150.65 66.95 150.65 66 153.05 66 153.05 64.6 150.65 64.6 150.65 63.8 153.2 63.8 153.2 62.4 150.65 62.4 150.65 61.95
M 153.55 60.95
L 153.55 59.65 150.95 59.65 150.95 58.95 149.05 58.95 149.05 59.65 147.25 59.65 147.25 58.95 145.35 58.95 145.35 59.65 142.8 59.65 142.8 60.95 145.35 60.95 145.35 61.7 147.25 61.7 147.25 60.95 149.05 60.95 149.05 61.7 150.95 61.7 150.95 60.95 153.55 60.95
M 130.8 68.5
L 130.8 69.8
Q 134.4 69.05 136.15 68.1 137.9 69.05 141.5 69.8
L 141.5 68.5
Q 138.8 67.85 137.6 67.05 139.25 65.6 140.35 62.8
L 138.05 62.8
Q 137.3 64.75 136.15 65.95 135.1 64.95 134.25 62.8
L 131.95 62.8
Q 133.05 65.6 134.7 67.05 133.5 67.85 130.8 68.5
M 133.05 58.95
L 133.05 59.95 130.7 59.95 130.7 61.3 133.05 61.3 133.05 62.3 135.05 62.3 135.05 61.3 137.3 61.3 137.3 62.3 139.25 62.3 139.25 61.3 141.6 61.3 141.6 59.95 139.25 59.95 139.25 58.95 137.3 58.95 137.3 59.95 135.05 59.95 135.05 58.95 133.05 58.95
M 119 59.25
L 119 69.6 127.55 69.6
Q 129.4 69.65 129.35 67.75
L 129.35 59.25 119 59.25
M 121 68.35
L 121 60.55 127.35 60.55 127.35 67.6
Q 127.35 68.35 126.6 68.35
L 121 68.35
M 125.2 65
Q 125.45 65.7 125.55 66.3
L 126.95 66.3
Q 126.8 65.6 126.5 65
L 125.2 65
M 121.3 66.5
L 121.3 67.75 127 67.75 127 66.5 125.05 66.5 125.05 64.8 126.75 64.8 126.75 63.55 125.05 63.55 125.05 62.45 126.9 62.45 126.9 61.25 121.4 61.25 121.4 62.45 123.05 62.45 123.05 63.55 121.55 63.55 121.55 64.8 123.05 64.8 123.05 66.5 121.3 66.5
M 113.25 60.7
L 113.25 58.95 111.05 58.95 111.05 60.7 107.2 60.7 107.2 66.9 111.05 66.9 111.05 69.85 113.25 69.85 113.25 66.9 115.2 66.9
Q 117.2 67.05 117.1 64.7
L 117.1 60.7 113.25 60.7
M 109.15 62.05
L 111.05 62.05 111.05 65.55 109.15 65.55 109.15 62.05
M 115.15 62.05
L 115.15 64.75
Q 115.2 65.55 114.5 65.55
L 113.25 65.55 113.25 62.05 115.15 62.05
M 212.65 44.75
L 207.7 44.75 207.7 51.25 210.95 51.25
Q 212.75 51.35 212.65 49.6
L 212.65 44.75
M 209.45 47.3
L 209.45 46 210.9 46 210.9 47.3 209.45 47.3
M 209.45 48.5
L 210.9 48.5 210.9 49.35
Q 210.9 50 210.3 50
L 209.45 50 209.45 48.5
M 208.1 42.55
L 208.1 43.95 213.35 43.95 213.35 51.1
Q 213.4 51.7 212.8 51.65
L 212.1 51.65 212.1 52.9 213.45 52.9
Q 215.4 53 215.3 51.15
L 215.3 42.55 208.1 42.55
M 207.05 44.95
L 205.1 44.95 205.1 53 207.05 53 207.05 44.95
M 206.9 42.45
L 205.15 42.45
Q 205.45 43.35 205.6 44.55
L 207.55 44.55
Q 207.45 43.55 206.9 42.45
M 201.05 45
Q 200.85 44.35 200.6 44
L 199.05 44
Q 199.3 44.35 199.45 45
L 201.05 45
M 196.7 44
Q 196.95 44.4 197.1 45
L 198.75 45
Q 198.6 44.5 198.3 44
L 196.7 44
M 196.3 42.75
L 193 42.75 193 52.3 194.8 52.3
Q 196.4 52.4 196.3 50.75
L 196.3 42.75
M 195 44
L 195 45.5 194.5 45.5 194.5 44 195 44
M 194.5 48.25
L 194.5 46.7 195 46.7 195 48.25 194.5 48.25
M 194.5 49.45
L 195 49.45 195 50.75
Q 195 51.15 194.7 51.15
L 194.5 51.15 194.5 49.45
M 203.5 43.5
L 203.5 42.25
Q 202.25 42.65 201.05 42.6
L 196.7 42.6 196.7 43.85 201.3 43.85
Q 202.45 43.9 203.5 43.5
M 202.8 45.15
Q 203.05 44.8 203.4 44
L 201.7 44
Q 201.5 44.8 201.25 45.15
L 196.55 45.15 196.55 47 197.2 47
Q 197.05 48.35 196.4 49.25
L 196.4 50.4
Q 196.75 50.15 197.05 50
L 197.05 50.5
Q 197.45 50.6 197.8 50.75 197.3 51.45 196.45 51.95
L 196.45 53.15
Q 199.3 51.85 199.85 49.25
L 199.85 50.3
Q 199.8 51.5 200.9 51.45
L 201.25 51.45 201.25 53 202.65 53 202.65 51.45 203.65 51.45 203.65 50.2 202.65 50.2 202.65 48.65 203.55 48.65 203.55 47.45 202.65 47.45 202.65 47 203.55 47 203.55 45.15 202.8 45.15
M 198.65 46.8
L 198.2 46.8 198.2 46.35 201.9 46.35 201.9 46.8 201.25 46.8 201.25 47.45 200.15 47.45 200.15 48.65 201.25 48.65 201.25 50.2
Q 200.9 50.15 200.95 49.8
L 200.95 48.95 199.9 48.95
Q 199.95 48.85 199.95 48.7 200 48.55 200 48.5
L 200 47.3 198.55 47.3
Q 198.6 47.2 198.6 47.05 198.65 46.9 198.65 46.8
M 197.75 49.35
Q 198 49 198.25 48.5
L 198.6 48.5
Q 198.5 49.1 198.35 49.55 198.05 49.4 197.75 49.35
M 181.45 42.75
L 181.45 48.9
Q 181.5 50.75 180.85 51.75
L 180.85 53.05
Q 182.45 52.1 182.9 51.15
L 182.9 52.5
Q 184.95 51.9 186 51.05
L 186 49.75
Q 185.85 49.85 185.6 50 185.4 50.1 185.3 50.15 185.15 49.75 185.05 49.25
L 183.55 49.25
Q 183.8 50.3 184.05 50.75 183.9 50.75 183.6 50.85 183.2 51 182.95 51.05 183.4 50.05 183.4 48.6
L 183.4 47.4 186.15 47.4 186.15 47.85 183.55 47.85 183.55 49.1 186.15 49.1 186.15 51.35
Q 186.2 51.85 185.6 51.85
L 185.3 51.85 185.3 53 186.3 53
Q 188 53.05 187.95 51.35
L 187.95 51.15
Q 188.95 51.95 191.4 52.8
L 191.4 51.55
Q 190.65 51.25 190.45 51.15 190.2 51 190.05 50.95 190.35 50.5 190.55 49.25
L 189.05 49.25
Q 189 49.4 188.95 49.75 188.85 50 188.85 50.1 188.4 49.7 187.95 49.2
L 187.95 49.1 189.2 49.1
Q 190.9 49.15 190.8 47.45
L 190.8 47.4 191.65 47.4 191.65 46.2 190.8 46.2 190.8 44.55 187.95 44.55 187.95 44 191.6 44 191.6 42.75 188 42.75 188 42.2 185.6 42.2 185.6 42.75 181.45 42.75
M 186.15 45.75
L 186.15 46.2 183.4 46.2 183.4 44 186.15 44 186.15 44.55 183.65 44.55 183.65 45.75 186.15 45.75
M 189.1 45.75
L 189.1 46.2 187.95 46.2 187.95 45.75 189.1 45.75
M 187.95 47.85
L 187.95 47.4 189.1 47.4
Q 189.15 47.9 188.55 47.85
L 187.95 47.85
M 173 51.15
L 173 49.75
Q 171.1 50.65 169.2 51
L 169.2 52.7
Q 171.35 52.25 173 51.15
M 179.1 52.95
L 179.1 51.15
Q 177.55 50.15 175.5 49.75
L 175.5 51.2
Q 177.25 51.7 179.1 52.95
M 175.25 47.95
L 173.2 47.95 173.2 51.2
Q 173.25 51.85 172.65 51.8
L 172.2 51.8 172.2 53 173.5 53
Q 175.3 53.05 175.25 51.2
L 175.25 47.95
M 169.25 42.6
L 169.25 43.85 173 43.85
Q 173 43.9 173 44 172.95 44.15 172.95 44.25
L 169.6 44.25 169.6 45.45 172.6 45.45
Q 172.6 45.5 172.5 45.6 172.45 45.8 172.4 45.9
L 168.85 45.9 168.85 47.05 171.3 47.05
Q 170.4 47.8 168.75 48.4
L 168.75 49.6
Q 169.15 49.45 169.8 49.25 170.35 49.05 170.65 48.95 170.8 49.3 171.1 49.75
L 172.85 49.75
Q 172.3 48.9 172.3 48.2 173.1 47.7 173.8 47.05
L 174.85 47.05
Q 175.5 47.8 176.2 48.3 176.05 49 175.6 49.75
L 177.4 49.75
Q 177.45 49.7 177.5 49.55 177.7 49.25 177.75 49.1 178.5 49.35 179.5 49.6
L 179.5 48.4
Q 177.9 47.85 177.05 47.05
L 179.5 47.05 179.5 45.9 174.6 45.9
Q 174.75 45.6 174.8 45.45
L 178.7 45.45 178.7 44.25 175.1 44.25
Q 175.1 44.15 175.15 44 175.15 43.9 175.15 43.85
L 179.05 43.85 179.05 42.6 175.2 42.6 175.2 42.15 173.05 42.15 173.05 42.6 169.25 42.6
M 164.4 48.45
L 164.4 47 158 47 158 48.45 164.4 48.45
M 148.55 52
Q 148.4 50.95 147.85 50.2
L 146.2 50.2
Q 146.6 51.3 146.75 52
L 148.55 52
M 149.15 42.7
Q 149.2 42.6 149.2 42.5 149.25 42.3 149.25 42.2
L 147.05 42.2
Q 147.05 42.3 147.05 42.5 147.05 42.6 147 42.7
L 143 42.7 143 44.1 146.75 44.1
Q 146.75 44.4 146.65 44.65
L 143.6 44.65 143.6 45.95 146.3 45.95
Q 146.25 46.1 146.2 46.3 146.1 46.45 146.1 46.55
L 142.8 46.55 142.8 47.9 145.4 47.9
Q 144.65 49.3 142.9 50.95
L 142.9 52.35
Q 144.75 51.15 145.9 49.95
L 150.1 49.95 150.1 51.2
Q 150.15 51.7 149.6 51.7
L 149 51.7 149 52.95 150.5 52.95
Q 152.1 52.95 152.1 51.4
L 152.1 49.95 153.6 49.95 153.6 48.55 152.1 48.55 152.1 47.9 153.6 47.9 153.6 46.55 148.1 46.55
Q 148.15 46.45 148.25 46.25 148.3 46.05 148.35 45.95
L 152.7 45.95 152.7 44.65 148.7 44.65
Q 148.75 44.55 148.8 44.35 148.85 44.2 148.85 44.1
L 153.3 44.1 153.3 42.7 149.15 42.7
M 147.05 48.5
Q 147.3 48.1 147.4 47.9
L 150.1 47.9 150.1 48.55 147 48.55 147.05 48.5
M 135.05 42.25
L 135.05 43.45
Q 135.1 48.3 130.75 51.65
L 130.75 53
Q 135 50.95 136.15 48.1 137.35 50.95 141.55 53
L 141.55 51.65
Q 137.2 48.3 137.3 43.45
L 137.3 42.25 135.05 42.25
M 126 42.75
L 126 42.2 123.6 42.2 123.6 42.75 119.45 42.75 119.45 48.9
Q 119.5 50.75 118.85 51.75
L 118.85 53.05
Q 120.45 52.1 120.9 51.15
L 120.9 52.5
Q 122.95 51.9 124 51.05
L 124 49.75
Q 123.85 49.85 123.6 50 123.4 50.1 123.3 50.15 123.15 49.75 123.05 49.25
L 121.55 49.25
Q 121.8 50.3 122.05 50.75 121.9 50.75 121.6 50.85 121.2 51 120.95 51.05 121.4 50.05 121.4 48.6
L 121.4 47.4 124.15 47.4 124.15 47.85 121.55 47.85 121.55 49.1 124.15 49.1 124.15 51.35
Q 124.2 51.85 123.6 51.85
L 123.3 51.85 123.3 53 124.3 53
Q 126 53.05 125.95 51.35
L 125.95 51.15
Q 126.95 51.95 129.4 52.8
L 129.4 51.55
Q 128.65 51.25 128.45 51.15 128.2 51 128.05 50.95 128.35 50.5 128.55 49.25
L 127.05 49.25
Q 127 49.4 126.95 49.75 126.85 50 126.85 50.1 126.4 49.7 125.95 49.2
L 125.95 49.1 127.2 49.1
Q 128.9 49.15 128.8 47.45
L 128.8 47.4 129.65 47.4 129.65 46.2 128.8 46.2 128.8 44.55 125.95 44.55 125.95 44 129.6 44 129.6 42.75 126 42.75
M 124.15 44
L 124.15 44.55 121.65 44.55 121.65 45.75 124.15 45.75 124.15 46.2 121.4 46.2 121.4 44 124.15 44
M 125.95 46.2
L 125.95 45.75 127.1 45.75 127.1 46.2 125.95 46.2
M 125.95 47.85
L 125.95 47.4 127.1 47.4
Q 127.15 47.9 126.55 47.85
L 125.95 47.85
M 111 49.75
Q 109.1 50.65 107.2 51
L 107.2 52.7
Q 109.35 52.25 111 51.15
L 111 49.75
M 113.5 49.75
L 113.5 51.2
Q 115.25 51.7 117.1 52.95
L 117.1 51.15
Q 115.55 50.15 113.5 49.75
M 113.25 47.95
L 111.2 47.95 111.2 51.2
Q 111.25 51.85 110.65 51.8
L 110.2 51.8 110.2 53 111.5 53
Q 113.3 53.05 113.25 51.2
L 113.25 47.95
M 111.05 42.6
L 107.25 42.6 107.25 43.85 111 43.85
Q 111 43.9 111 44 110.95 44.15 110.95 44.25
L 107.6 44.25 107.6 45.45 110.6 45.45
Q 110.6 45.5 110.5 45.6 110.45 45.8 110.4 45.9
L 106.85 45.9 106.85 47.05 109.3 47.05
Q 108.4 47.8 106.75 48.4
L 106.75 49.6
Q 107.15 49.45 107.8 49.25 108.35 49.05 108.65 48.95 108.8 49.3 109.1 49.75
L 110.85 49.75
Q 110.3 48.9 110.3 48.2 111.1 47.7 111.8 47.05
L 112.85 47.05
Q 113.5 47.8 114.2 48.3 114.05 49 113.6 49.75
L 115.4 49.75
Q 115.45 49.7 115.5 49.55 115.7 49.25 115.75 49.1 116.5 49.35 117.5 49.6
L 117.5 48.4
Q 115.9 47.85 115.05 47.05
L 117.5 47.05 117.5 45.9 112.6 45.9
Q 112.75 45.6 112.8 45.45
L 116.7 45.45 116.7 44.25 113.1 44.25
Q 113.1 44.15 113.15 44 113.15 43.9 113.15 43.85
L 117.05 43.85 117.05 42.6 113.2 42.6 113.2 42.15 111.05 42.15 111.05 42.6
M 194.6 16.15
L 194.6 13.35 181.85 13.35
Q 181.95 13.05 182.15 12.5 182.25 12.1 182.35 11.85
L 178.1 11.85
Q 177.1 15.95 174.1 17.85
L 174.1 20.35
Q 175.5 20 176.55 19.45
L 176.55 26 173.7 26 173.7 28.7 183.95 28.7 183.95 33.4 188.25 33.4 188.25 28.7 195.35 28.7 195.35 26 188.25 26 188.25 21.6 194.05 21.6 194.05 18.85 188.25 18.85 188.25 16.15 194.6 16.15
M 183.95 16.15
L 183.95 18.85 177.65 18.85
Q 179.45 17.75 180.55 16.15
L 183.95 16.15
M 180.45 21.6
L 183.95 21.6 183.95 26 180.45 26 180.45 21.6
M 169.35 12.5
L 165.2 12.5 155.45 25.7 155.45 28.6 165 28.6 165 32.75 169.35 32.75 169.35 28.6 171.75 28.6 171.75 25.7 169.35 25.7 169.35 12.5
M 165 18.4
L 165 25.7 159.65 25.7 165 18.4
M 152.45 12.5
L 147.95 12.5
Q 146.2 16.45 141.5 18.4
L 141.5 20.95
Q 145.35 20.35 147.95 18.5
L 147.95 32.75 152.45 32.75 152.45 12.5
M 131.9 12.1
Q 124.3 12.5 124.15 22.7 124.25 32.95 131.9 33.1 139.9 33.2 139.8 22.7 139.7 12.2 131.9 12.1
M 132 15
Q 135.3 14.85 135.2 22.8 135.2 30.4 132 30.4 128.65 30.4 128.65 22.8 128.65 14.95 132 15
M 122.1 32.75
L 122.1 30.1 111.7 30.1
Q 113.3 27.5 117.6 24.95 122.45 22.05 122.2 18 121.9 12.4 115.05 12.2 108.3 12.3 107.1 19.05
L 111.3 19.05
Q 111.8 15.2 114.8 15.1 117.7 15 117.7 18.2 117.95 20.25 113.1 23.75 109.15 26.65 107.2 30
L 107.2 32.75 122.1 32.75 Z"/>
</g>
</defs>

<g transform="matrix( 1, 0, 0, 1, 0,0) ">
<use xlink:href="#Layer2_0_FILL"/>
</g>

<g transform="matrix( 10.800430297851562, 0, 0, 10.800430297851562, 5.5,4.55) ">
<g transform="matrix( 1, 0, 0, 1, 0,0) ">
<use xlink:href="#pop_0_Layer5_0_FILL"/>
</g>

<g transform="matrix( 1, 0, 0, 1, 0,0) ">
<use xlink:href="#pop_0_Layer4_0_FILL"/>
</g>

<g transform="matrix( 1, 0, 0, 1, 0,0) ">
<use xlink:href="#pop_0_Layer3_0_FILL"/>
</g>

<g transform="matrix( 1, 0, 0, 1, 0,0) ">
<use xlink:href="#pop_0_Layer2_0_FILL"/>
</g>

<g transform="matrix( 1, 0, 0, 1, 0,0) ">
<use xlink:href="#pop_0_Layer1_0_FILL"/>
</g>

<g transform="matrix( 1, 0, 0, 1, 0,0) ">
<use xlink:href="#pop_0_Layer0_0_FILL"/>
</g>
</g>

<g transform="matrix( 1, 0, 0, 1, 0,0) ">
<use xlink:href="#Layer2_1_MEMBER_1_FILL"/>
</g>

<g transform="matrix( 1, 0, 0, 1, 0,0) ">
<use xlink:href="#Layer2_1_MEMBER_1_MEMBER_0_FILL"/>
</g>

<g transform="matrix( 1, 0, 0, 1, 0,0) ">
<use xlink:href="#Layer1_0_FILL"/>
</g>
</svg>
