
<svg xmlns="http://www.w3.org/2000/svg" version="1.1" xmlns:xlink="http://www.w3.org/1999/xlink" preserveAspectRatio="none" x="0px" y="0px" width="300px" height="100px" viewBox="0 0 300 100">
<defs>
<g id="Layer1_0_FILL">
<path fill="#000000" fill-opacity="0.5019607843137255" stroke="none" d="
M 300 49.2
Q 300 28.8 285.55 14.4 271.2 0 250.8 0
L 49.2 0
Q 28.8 0 14.35 14.4 0 28.8 0 49.2 0 69.6 14.35 84 28.8 98.4 49.2 98.4
L 127.95 98.4
Q 128.15 98.5 128.4 98.5 128.6650390625 98.5 128.9 98.4
L 250.8 98.4
Q 271.2 98.4 285.55 84 300 69.6 300 49.2 Z"/>
</g>

<g id="pop_0_Layer5_0_FILL">
<path fill="#0C0A80" fill-opacity="0.2" stroke="none" d="
M 7.25 6.1
Q 7.75 5.2 7.85 4.45 7.85 4.3 7.85 4 7.7 2.15 6.05 1.6 4.15 1.1 3 2.6 1.9 4.15 3.45 5.9 4.7 7.3 2.95 7.8 3.1 7.95 3.7 7.95 3.75 7.95 3.85 7.95 4.5 8 5.5 7.6 6.7 7 7.25 6.1 Z"/>
</g>

<g id="pop_0_Layer4_0_FILL">
<path fill="#0C0A80" fill-opacity="0.2" stroke="none" d="
M 4.85 5.25
Q 4.85 4.4 4.25 3.75 3.65 3.15 2.8 3.15 1.95 3.15 1.35 3.75 0.7 4.4 0.7 5.25 0.7 6.1 1.35 6.7 1.95 7.3 2.8 7.3 3.65 7.3 4.25 6.7 4.85 6.1 4.85 5.25 Z"/>
</g>

<g id="pop_0_Layer3_0_FILL">
<path fill="#0C0A80" fill-opacity="0.2" stroke="none" d="
M 7.05 2.25
Q 7.05 1.6 6.6 1.15 6.15 0.7 5.5 0.7 4.85 0.7 4.4 1.15 3.95 1.6 3.95 2.25 3.95 2.9 4.4 3.35 4.85 3.8 5.5 3.8 6.15 3.8 6.6 3.35 7.05 2.9 7.05 2.25 Z"/>
</g>

<g id="pop_0_Layer2_0_FILL">
<path fill="#FFFFFF" fill-opacity="0.30196078431372547" stroke="none" d="
M 8.2 4.1
Q 8.2 2.4 7 1.2 5.8 0 4.1 0 2.4 0 1.2 1.2 0 2.4 0 4.1 0 5.8 1.2 7 2.4 8.2 4.1 8.2 5.8 8.2 7 7 8.2 5.8 8.2 4.1 Z"/>
</g>

<g id="pop_0_Layer1_0_FILL">
<path fill="#FFFFFF" fill-opacity="0.5019607843137255" stroke="none" d="
M 2.1 6.2
Q 3.7 5.95 2.65 3.7 1.9 1.2 4.2 0.3 3.65 0.35 3 0.55 1.7 1.1 1.1 1.9 0.5 2.75 0.4 3.5 0.35 3.65 0.35 3.95 0.4 6.2 2.1 6.2 Z"/>
</g>

<g id="pop_0_Layer0_0_FILL">
<path fill="#FFFFFF" fill-opacity="0.5019607843137255" stroke="none" d="
M 6.9 1.85
Q 6.9 1.45 6.65 1.2 6.35 0.9 6 0.9 5.6 0.9 5.35 1.2 5.05 1.45 5.05 1.85 5.05 2.2 5.35 2.5 5.6 2.75 6 2.75 6.35 2.75 6.65 2.5 6.9 2.2 6.9 1.85 Z"/>
</g>

<g id="Layer1_1_MEMBER_1_FILL">
<path fill="#FFFFFF" stroke="none" d="
M 72.85 23.95
Q 72.85 23.9 72.85 23.8 72.85 22.7 72 21.85 71.15 21 70.05 21
L 28.6 21
Q 27.4 21 26.65 21.85 26.6 21.85 26.6 21.9 25.8 22.75 25.8 23.8 25.8 23.9 25.8 23.95 25.8 24.6 25.85 25.3 25.85 25.45 25.85 25.65 23.85 26.55 22.2 28.25 18.4 32.05 18.4 37.35 18.4 42.6 22.2 46.35
L 22.2 46.4
Q 25.95 50.15 31.25 50.15 32.6 50.15 33.95 49.9
L 34 49.95
Q 37.8 54.75 42.4 56.75 43.45 60.05 43.75 63.8 41.85 67 39.3 69.8 38.2 71 36.9 72.15
L 36.85 72.2
Q 36.8 72.2 36.8 72.25 35.9 72.8 35.7 73.85 35 76.85 34.25 79.8 34.2 79.9 34.2 80 34.1 80.65 34.3 81.35 34.35 81.45 34.4 81.55 34.65 82.25 35.4 82.8
L 35.45 82.8
Q 36.1 83.25 36.95 83.25
L 61.7 83.25
Q 62.45 83.25 63.15 82.85 63.2 82.8 63.3 82.8 64 82.25 64.3 81.55 64.3 81.45 64.35 81.35 64.55 80.55 64.35 79.8 63.65 76.95 62.95 74 62.8 72.85 61.95 72.25 61.8 72.15 61.65 72.1 60.35 70.95 59.3 69.8 56.75 67 55 63.75 55.15 60.1 56.25 56.75 60.8 54.8 64.7 50.05 64.7 50 64.75 49.95 65.95 50.15 67.2 50.15 72.45 50.15 76.25 46.35 80 42.6 80 37.35 80 32.05 76.3 28.25 74.7 26.6 72.85 25.75 72.85 25.45 72.85 25.15 72.85 25.1 72.85 25.05 72.85 24.5 72.85 23.95 Z"/>
</g>

<g id="Layer1_1_MEMBER_1_MEMBER_0_FILL">
<path fill="#666666" stroke="none" d="
M 60.25 74.45
L 60.2 74.45 49.2 74.45 49.2 80.45 61.7 80.45
Q 60.95 77.5 60.25 74.45 Z"/>

<path fill="#999999" stroke="none" d="
M 38.4 74.45
Q 37.7 77.5 36.95 80.45
L 49.2 80.45 49.2 74.45 38.45 74.45 38.4 74.45
M 70.05 23.95
Q 70.05 23.9 70.05 23.8
L 49.2 23.8 49.2 74.45 60.2 74.45
Q 58.6 73.1 57.3 71.65 54.2 68.35 52.1 64.4 52.3 59.2 54 54.65
L 53.9 54.65
Q 58.6 53.1 62.5 48.25 63.05 47.55 63.6 46.75 65.25 47.35 67.2 47.35 71.35 47.35 74.3 44.4 77.25 41.5 77.25 37.35 77.25 33.15 74.3 30.2 72.35 28.3 69.95 27.65 70 26.35 70.05 25.05 70.05 24.5 70.05 23.95
M 67.2 44.4
Q 66.15 44.4 65.2 44.15 68.6 38.15 69.65 30.65 71.05 31.2 72.2 32.3 74.35 34.4 74.35 37.35 74.35 40.3 72.2 42.35 70.2 44.4 67.2 44.4 Z"/>

<path fill="#CCCCCC" stroke="none" d="
M 28.6 23.8
Q 28.6 23.9 28.6 23.95 28.6 24.5 28.6 25.05 28.6 26.3 28.7 27.6 26.15 28.2 24.15 30.2 21.2 33.15 21.2 37.35 21.2 41.5 24.15 44.4 27.1 47.35 31.25 47.35 33.25 47.35 35.05 46.7 35.55 47.45 36.15 48.2 40 53.1 44.75 54.65
L 44.65 54.65
Q 46.3 59.2 46.5 64.4 44.45 68.35 41.35 71.65 40.05 73.1 38.45 74.45
L 49.2 74.45 49.2 23.8 28.6 23.8
M 26.2 32.3
Q 27.45 31.05 29 30.6 30.05 38.1 33.45 44.1 32.4 44.4 31.25 44.4 28.3 44.4 26.2 42.35 24.15 40.3 24.15 37.35 24.15 34.4 26.2 32.3 Z"/>
</g>

<g id="Layer0_0_FILL">
<path fill="#FFFFFF" stroke="none" d="
M 236.25 58.85
L 237.75 51.7 235.8 51.7 234.25 58.85 236.25 58.85
M 233.35 58.85
Q 233.2 58.5 233.2 58.15 233.2 57.7 233.45 56.65 233.75 55.55 233.75 55.05 233.75 54.3 233.2 53.95 232.65 53.55 231.15 53.55 229.8 53.55 229.15 53.95 228.5 54.35 228.3 55.1
L 230.15 55.3
Q 230.35 54.95 230.55 54.85 230.75 54.7 231.1 54.7 231.4 54.7 231.65 54.85 231.8 54.95 231.8 55.15 231.8 55.25 231.75 55.5 231.45 55.6 230.6 55.7 229.65 55.8 229.1 55.9 228.5 56.05 228.15 56.4 227.75 56.75 227.75 57.45 227.75 58.05 228.2 58.5 228.6 58.95 229.6 58.95 230.55 58.95 231.35 58.25 231.35 58.55 231.4 58.85
L 233.35 58.85
M 231.55 56.55
Q 231.4 57.3 231.05 57.6 230.7 57.9 230.3 57.9 230.05 57.9 229.85 57.75 229.7 57.6 229.7 57.35 229.7 57.1 229.95 56.95 230.15 56.75 231.55 56.55
M 225.3 54.35
Q 224.75 53.55 223.65 53.55 222.6 53.55 221.9 54.5 221.2 55.5 221.2 56.8 221.2 57.8 221.65 58.4 222.15 58.95 223 58.95 223.5 58.95 223.8 58.85 224.15 58.7 224.6 58.3
L 224.6 58.35 224.5 58.85 226.35 58.85 227.9 51.7 225.9 51.7 225.3 54.35
M 224.2 54.9
Q 224.5 54.9 224.75 55.1 224.95 55.35 224.95 55.8 224.95 56.45 224.65 57.05 224.35 57.65 223.8 57.65 223.5 57.65 223.35 57.45 223.15 57.2 223.15 56.75 223.15 56 223.45 55.45 223.75 54.9 224.2 54.9
M 161.05 53.65
L 159.05 53.65 157.95 58.85 159.95 58.85 161.05 53.65
M 161.45 51.7
L 159.5 51.7 159.2 53.05 161.2 53.05 161.45 51.7
M 213.8 54.85
Q 213.8 54.3 213.45 53.95 213.1 53.55 212.4 53.55 211.85 53.55 211.4 53.75 210.95 53.9 210.4 54.45 210.25 54 209.85 53.8 209.5 53.55 209 53.55 207.95 53.55 207.1 54.45
L 207.05 54.4 207.2 53.65 205.35 53.65 204.25 58.85 206.25 58.85 206.8 56.35
Q 206.95 55.6 207.3 55.3 207.65 55 207.95 55 208.35 55 208.35 55.4 208.35 55.5 208.3 55.65 208.3 55.8 208.1 56.7
L 207.65 58.85 209.65 58.85 210.1 56.55
Q 210.3 55.75 210.6 55.35 210.85 55 211.3 55 211.7 55 211.7 55.4 211.7 55.45 211.7 55.65 211.65 55.8 211.5 56.65
L 211 58.85 213 58.85 213.75 55.45
Q 213.8 55.15 213.8 54.85
M 219.95 54.2
Q 219.3 53.55 217.85 53.55 217.2 53.55 216.7 53.7 216.2 53.85 215.65 54.25 215.15 54.65 214.85 55.3 214.55 55.9 214.55 56.6 214.55 57.6 215.2 58.3 215.85 58.95 217.4 58.95 218.45 58.95 219.15 58.65 219.85 58.3 220.25 57.5
L 218.35 57.35
Q 218 57.8 217.45 57.8 216.6 57.8 216.5 56.75
L 220.45 56.75
Q 220.6 56.05 220.6 55.75 220.6 54.8 219.95 54.2
M 217.8 54.7
Q 218.15 54.7 218.4 54.9 218.65 55.1 218.65 55.5 218.65 55.7 218.6 55.8
L 216.7 55.8
Q 216.85 55.25 217.15 55 217.45 54.7 217.8 54.7
M 163.7 53.7
Q 163.2 53.85 162.65 54.25 162.15 54.65 161.85 55.3 161.55 55.9 161.55 56.6 161.55 57.6 162.2 58.3 162.85 58.95 164.4 58.95 165.45 58.95 166.15 58.65 166.85 58.3 167.25 57.5
L 165.35 57.35
Q 165 57.8 164.45 57.8 163.6 57.8 163.5 56.75
L 167.45 56.75
Q 167.6 56.05 167.6 55.75 167.6 54.8 166.95 54.2 166.3 53.55 164.85 53.55 164.2 53.55 163.7 53.7
M 164.15 55
Q 164.45 54.7 164.8 54.7 165.15 54.7 165.4 54.9 165.65 55.1 165.65 55.5 165.65 55.7 165.6 55.8
L 163.7 55.8
Q 163.85 55.25 164.15 55
M 173.9 55.4
Q 173.75 55.25 173.75 55.1 173.75 54.9 173.9 54.75 174.1 54.65 174.45 54.65 175.1 54.65 175.15 55.1
L 177.05 54.9
Q 176.9 54.15 176.35 53.85 175.8 53.55 174.75 53.55 173.85 53.55 173.2 53.8 172.6 54.05 172.3 54.5 171.95 54.9 171.95 55.4 171.95 55.95 172.4 56.3 172.8 56.65 173.95 56.85 174.45 56.95 174.65 57 174.8 57.1 174.8 57.35 174.8 57.6 174.55 57.75 174.3 57.9 174 57.9 173.3 57.9 173.15 57.25
L 171.2 57.4
Q 171.3 58.25 171.85 58.6 172.45 58.95 173.7 58.95 175.2 58.95 175.95 58.4 176.7 57.85 176.7 57.05 176.7 56.45 176.3 56.1 175.95 55.75 174.8 55.6 174.05 55.5 173.9 55.4
M 180.5 53.65
L 178.5 53.65 177.4 58.85 179.4 58.85 180.5 53.65
M 180.65 53.05
L 180.9 51.7 178.95 51.7 178.65 53.05 180.65 53.05
M 184.25 51.7
L 182.3 51.7 180.75 58.85 182.75 58.85 184.25 51.7
M 190.5 53.65
L 188.4 53.65 186.7 56.95 186.4 53.65 184.5 53.65 185.5 58.85 187.25 58.85 190.5 53.65
M 195.5 54.2
Q 194.85 53.55 193.4 53.55 192.75 53.55 192.25 53.7 191.75 53.85 191.2 54.25 190.7 54.65 190.4 55.3 190.1 55.9 190.1 56.6 190.1 57.6 190.75 58.3 191.4 58.95 192.95 58.95 194 58.95 194.7 58.65 195.4 58.3 195.8 57.5
L 193.9 57.35
Q 193.55 57.8 193 57.8 192.15 57.8 192.05 56.75
L 196 56.75
Q 196.15 56.05 196.15 55.75 196.15 54.8 195.5 54.2
M 193.95 54.9
Q 194.2 55.1 194.2 55.5 194.2 55.7 194.15 55.8
L 192.25 55.8
Q 192.4 55.25 192.7 55 193 54.7 193.35 54.7 193.7 54.7 193.95 54.9
M 199.2 54.7
L 199.4 53.65 197.55 53.65 196.45 58.85 198.45 58.85 198.85 56.9
Q 199.05 56 199.4 55.6 199.75 55.2 200.35 55.2 200.5 55.2 200.75 55.25
L 201.45 53.7
Q 201.1 53.55 200.8 53.55 200.35 53.55 200 53.8 199.65 54 199.2 54.7
M 125.9 53.65
L 123.9 53.65 122.8 58.85 124.8 58.85 125.9 53.65
M 126.3 51.7
L 124.35 51.7 124.05 53.05 126.05 53.05 126.3 51.7
M 132.35 54.8
Q 132.35 54.25 132 53.9 131.65 53.55 130.9 53.55 129.75 53.55 128.9 54.45
L 129.05 53.65 127.2 53.65 126.1 58.85 128.1 58.85 128.6 56.6
Q 128.75 55.85 129.1 55.4 129.4 55 129.85 55 130.25 55 130.25 55.45 130.25 55.55 130.05 56.45
L 129.55 58.85 131.55 58.85 132.15 56
Q 132.35 55.1 132.35 54.8
M 138.95 55.05
Q 138.95 54.3 138.4 53.95 137.85 53.55 136.35 53.55 135 53.55 134.35 53.95 133.7 54.35 133.5 55.1
L 135.35 55.3
Q 135.55 54.95 135.75 54.85 135.95 54.7 136.3 54.7 136.6 54.7 136.85 54.85 137 54.95 137 55.15 137 55.25 136.95 55.5 136.65 55.6 135.8 55.7 134.85 55.8 134.3 55.9 133.7 56.05 133.35 56.4 132.95 56.75 132.95 57.45 132.95 58.05 133.4 58.5 133.8 58.95 134.8 58.95 135.75 58.95 136.55 58.25 136.55 58.55 136.6 58.85
L 138.55 58.85
Q 138.4 58.5 138.4 58.15 138.4 57.7 138.65 56.65 138.95 55.55 138.95 55.05
M 136.25 57.6
Q 135.9 57.9 135.5 57.9 135.25 57.9 135.05 57.75 134.9 57.6 134.9 57.35 134.9 57.1 135.15 56.95 135.35 56.75 136.75 56.55 136.6 57.3 136.25 57.6
M 149.9 53.25
L 150.25 51.7 144.4 51.7 142.85 58.85 149 58.85 149.35 57.2 145.4 57.2 145.7 55.8 149.2 55.8 149.55 54.35 146.05 54.35 146.25 53.25 149.9 53.25
M 153.2 51.55
Q 152.75 51.55 152.4 51.7 152.1 51.8 151.85 52 151.65 52.25 151.55 52.5 151.45 52.75 151.3 53.65
L 150.55 53.65 150.25 55.1 151 55.1 150.15 58.85 152.15 58.85 152.95 55.1 153.9 55.1 154.2 53.65 153.25 53.65
Q 153.4 53.05 153.55 52.95 153.65 52.85 153.9 52.85 154.15 52.85 154.55 52.95
L 154.9 51.8
Q 153.9 51.55 153.2 51.55
M 157 55.1
L 157.95 55.1 158.25 53.65 157.3 53.65
Q 157.45 53.05 157.6 52.95 157.7 52.85 157.95 52.85 158.2 52.85 158.6 52.95
L 158.95 51.8
Q 157.95 51.55 157.25 51.55 156.8 51.55 156.45 51.7 156.15 51.8 155.9 52 155.7 52.25 155.6 52.5 155.5 52.75 155.35 53.65
L 154.6 53.65 154.3 55.1 155.05 55.1 154.2 58.85 156.2 58.85 157 55.1
M 112.1 53.55
Q 112.55 53.2 113.05 53.2 113.4 53.2 113.75 53.45 114.05 53.7 114.05 54.25
L 116.05 54.05
Q 115.95 52.95 115.15 52.25 114.4 51.55 113.05 51.55 111.75 51.55 110.8 52.2 109.85 52.8 109.4 53.85 108.9 54.9 108.9 55.95 108.9 57.3 109.7 58.15 110.5 58.95 112.05 58.95 113.55 58.95 114.5 58.2 115.4 57.45 115.75 56.35
L 113.65 56.05
Q 113.4 56.7 113.05 57 112.7 57.35 112.2 57.35 111.65 57.35 111.35 57 111.05 56.6 111.05 56.1 111.05 55.4 111.35 54.65 111.6 53.9 112.1 53.55
M 119.1 55.4
Q 119.4 55 119.85 55 120.25 55 120.25 55.45 120.25 55.55 120.05 56.45
L 119.55 58.85 121.55 58.85 122.15 56
Q 122.35 55.1 122.35 54.8 122.35 54.25 122 53.9 121.65 53.55 120.95 53.55 119.8 53.55 119.1 54.3
L 119.05 54.3 119.65 51.7 117.65 51.7 116.1 58.85 118.1 58.85 118.6 56.6
Q 118.75 55.85 119.1 55.4
M 261.95 39.25
L 262.65 39.25 262.3 41
Q 262.15 41.7 262.15 41.85 262.15 42.3 262.5 42.7 262.85 43.1 263.7 43.1 264.1 43.1 265 43
L 265.3 41.6
Q 264.85 41.65 264.7 41.65 264.25 41.65 264.25 41.3 264.25 41.2 264.25 41.05
L 264.65 39.25 265.7 39.25 266 37.8 264.95 37.8 265.35 35.9 263.15 37 263 37.8 262.25 37.8 261.95 39.25
M 231.9 40.8
Q 231.9 41.8 232.55 42.45 233.2 43.1 234.55 43.1 235.65 43.1 236.35 42.7 237.1 42.25 237.45 41.5 237.85 40.75 237.85 40.05 237.85 39.1 237.2 38.4 236.55 37.7 235.15 37.7 234.15 37.7 233.4 38.1 232.65 38.55 232.3 39.25 231.9 40 231.9 40.8
M 235.65 39.25
Q 235.9 39.45 235.9 39.95 235.9 40.65 235.55 41.2 235.25 41.8 234.7 41.8 234.3 41.8 234.1 41.5 233.85 41.2 233.85 40.8 233.85 40.2 234.15 39.6 234.45 39.05 235.1 39.05 235.4 39.05 235.65 39.25
M 222.7 37.8
L 221.6 43 223.6 43 224.15 40.5
Q 224.3 39.75 224.65 39.45 225 39.15 225.3 39.15 225.7 39.15 225.7 39.55 225.7 39.65 225.65 39.8 225.65 39.95 225.45 40.85
L 225 43 227 43 227.45 40.7
Q 227.65 39.9 227.95 39.5 228.2 39.15 228.65 39.15 229.05 39.15 229.05 39.55 229.05 39.6 229.05 39.8 229 39.95 228.85 40.8
L 228.35 43 230.35 43 231.1 39.6
Q 231.15 39.3 231.15 39 231.15 38.45 230.8 38.1 230.45 37.7 229.75 37.7 229.2 37.7 228.75 37.9 228.3 38.05 227.75 38.6 227.6 38.15 227.2 37.95 226.85 37.7 226.35 37.7 225.3 37.7 224.45 38.6
L 224.4 38.55 224.55 37.8 222.7 37.8
M 211.9 40.75
Q 211.9 41.7 212.35 42.25 212.85 42.8 213.65 42.8 214.5 42.8 215.15 42.1
L 215.2 42.15 215 42.9
Q 214.9 43.4 214.65 43.65 214.45 43.9 214.05 43.9 213.5 43.9 213.5 43.4
L 211.6 43.1
Q 211.6 43.2 211.6 43.35 211.6 43.9 211.95 44.35 212.3 44.8 212.8 44.95 213.25 45.1 214.15 45.1 215.45 45.1 216.1 44.6 216.75 44.15 217.05 42.7
L 218.1 37.8 216.25 37.8 216.1 38.55
Q 215.45 37.7 214.5 37.7 213.4 37.7 212.65 38.6 211.9 39.5 211.9 40.75
M 215.45 39.25
Q 215.65 39.45 215.65 39.75 215.65 40.3 215.35 40.9 215.1 41.45 214.55 41.45 214.25 41.45 214.05 41.25 213.85 41.05 213.85 40.7 213.85 40.05 214.2 39.55 214.5 39 214.95 39 215.25 39 215.45 39.25
M 211.2 38.95
Q 211.2 38.4 210.85 38.05 210.5 37.7 209.75 37.7 208.6 37.7 207.75 38.6
L 207.9 37.8 206.05 37.8 204.95 43 206.95 43 207.45 40.75
Q 207.6 40 207.95 39.55 208.25 39.15 208.7 39.15 209.1 39.15 209.1 39.6 209.1 39.7 208.9 40.6
L 208.4 43 210.4 43 211 40.15
Q 211.2 39.25 211.2 38.95
M 258.65 39.15
Q 259.05 39.15 259.05 39.6 259.05 39.7 258.85 40.6
L 258.35 43 260.35 43 260.95 40.15
Q 261.15 39.25 261.15 38.95 261.15 38.4 260.8 38.05 260.45 37.7 259.7 37.7 258.55 37.7 257.7 38.6
L 257.85 37.8 256 37.8 254.9 43 256.9 43 257.4 40.75
Q 257.55 40 257.9 39.55 258.2 39.15 258.65 39.15
M 245.7 39.55
Q 245.7 39.6 245.7 39.8 245.65 39.95 245.5 40.8
L 245 43 247 43 247.75 39.6
Q 247.8 39.3 247.8 39 247.8 38.45 247.45 38.1 247.1 37.7 246.4 37.7 245.85 37.7 245.4 37.9 244.95 38.05 244.4 38.6 244.25 38.15 243.85 37.95 243.5 37.7 243 37.7 241.95 37.7 241.1 38.6
L 241.05 38.55 241.2 37.8 239.35 37.8 238.25 43 240.25 43 240.8 40.5
Q 240.95 39.75 241.3 39.45 241.65 39.15 241.95 39.15 242.35 39.15 242.35 39.55 242.35 39.65 242.3 39.8 242.3 39.95 242.1 40.85
L 241.65 43 243.65 43 244.1 40.7
Q 244.3 39.9 244.6 39.5 244.85 39.15 245.3 39.15 245.7 39.15 245.7 39.55
M 251.85 37.7
Q 251.2 37.7 250.7 37.85 250.2 38 249.65 38.4 249.15 38.8 248.85 39.45 248.55 40.05 248.55 40.75 248.55 41.75 249.2 42.45 249.85 43.1 251.4 43.1 252.45 43.1 253.15 42.8 253.85 42.45 254.25 41.65
L 252.35 41.5
Q 252 41.95 251.45 41.95 250.6 41.95 250.5 40.9
L 254.45 40.9
Q 254.6 40.2 254.6 39.9 254.6 38.95 253.95 38.35 253.3 37.7 251.85 37.7
M 252.6 39.95
L 250.7 39.95
Q 250.85 39.4 251.15 39.15 251.45 38.85 251.8 38.85 252.15 38.85 252.4 39.05 252.65 39.25 252.65 39.65 252.65 39.85 252.6 39.95
M 202.55 39.3
Q 202.55 39.4 202.5 39.65 202.2 39.75 201.35 39.85 200.4 39.95 199.85 40.05 199.25 40.2 198.9 40.55 198.5 40.9 198.5 41.6 198.5 42.2 198.95 42.65 199.35 43.1 200.35 43.1 201.3 43.1 202.1 42.4 202.1 42.7 202.15 43
L 204.1 43
Q 203.95 42.65 203.95 42.3 203.95 41.85 204.2 40.8 204.5 39.7 204.5 39.2 204.5 38.45 203.95 38.1 203.4 37.7 201.9 37.7 200.55 37.7 199.9 38.1 199.25 38.5 199.05 39.25
L 200.9 39.45
Q 201.1 39.1 201.3 39 201.5 38.85 201.85 38.85 202.15 38.85 202.4 39 202.55 39.1 202.55 39.3
M 202.3 40.7
Q 202.15 41.45 201.8 41.75 201.45 42.05 201.05 42.05 200.8 42.05 200.6 41.9 200.45 41.75 200.45 41.5 200.45 41.25 200.7 41.1 200.9 40.9 202.3 40.7
M 160.1 43
L 161.2 37.8 159.2 37.8 158.1 43 160.1 43
M 151.2 37.8
L 149.35 37.8 149.2 38.55
Q 148.55 37.7 147.6 37.7 146.5 37.7 145.75 38.6 145 39.5 145 40.75 145 41.7 145.45 42.25 145.95 42.8 146.75 42.8 147.6 42.8 148.25 42.1
L 148.3 42.15 148.1 42.9
Q 148 43.4 147.75 43.65 147.55 43.9 147.15 43.9 146.6 43.9 146.6 43.4
L 144.7 43.1
Q 144.7 43.2 144.7 43.35 144.7 43.9 145.05 44.35 145.4 44.8 145.9 44.95 146.35 45.1 147.25 45.1 148.55 45.1 149.2 44.6 149.85 44.15 150.15 42.7
L 151.2 37.8
M 148.55 39.25
Q 148.75 39.45 148.75 39.75 148.75 40.3 148.45 40.9 148.2 41.45 147.65 41.45 147.35 41.45 147.15 41.25 146.95 41.05 146.95 40.7 146.95 40.05 147.3 39.55 147.6 39 148.05 39 148.35 39 148.55 39.25
M 158.25 35.85
L 156.3 35.85 154.75 43 156.75 43 158.25 35.85
M 161.6 35.85
L 159.65 35.85 159.35 37.2 161.35 37.2 161.6 35.85
M 140.85 38.6
L 141 37.8 139.15 37.8 138.05 43 140.05 43 140.55 40.75
Q 140.7 40 141.05 39.55 141.35 39.15 141.8 39.15 142.2 39.15 142.2 39.6 142.2 39.7 142 40.6
L 141.5 43 143.5 43 144.1 40.15
Q 144.3 39.25 144.3 38.95 144.3 38.4 143.95 38.05 143.6 37.7 142.85 37.7 141.7 37.7 140.85 38.6
M 190.35 43
L 191.45 37.8 189.45 37.8 188.35 43 190.35 43
M 187.55 40.8
Q 187.85 39.7 187.85 39.2 187.85 38.45 187.3 38.1 186.75 37.7 185.25 37.7 183.9 37.7 183.25 38.1 182.6 38.5 182.4 39.25
L 184.25 39.45
Q 184.45 39.1 184.65 39 184.85 38.85 185.2 38.85 185.5 38.85 185.75 39 185.9 39.1 185.9 39.3 185.9 39.4 185.85 39.65 185.55 39.75 184.7 39.85 183.75 39.95 183.2 40.05 182.6 40.2 182.25 40.55 181.85 40.9 181.85 41.6 181.85 42.2 182.3 42.65 182.7 43.1 183.7 43.1 184.65 43.1 185.45 42.4 185.45 42.7 185.5 43
L 187.45 43
Q 187.3 42.65 187.3 42.3 187.3 41.85 187.55 40.8
M 183.8 41.5
Q 183.8 41.25 184.05 41.1 184.25 40.9 185.65 40.7 185.5 41.45 185.15 41.75 184.8 42.05 184.4 42.05 184.15 42.05 183.95 41.9 183.8 41.75 183.8 41.5
M 191.85 35.85
L 189.9 35.85 189.6 37.2 191.6 37.2 191.85 35.85
M 195.2 35.85
L 193.25 35.85 191.7 43 193.65 43 193.95 41.65 195 40.8 195.55 43 197.8 43 196.45 39.6 198.7 37.8 196.4 37.8 194.4 39.55 195.2 35.85
M 179.25 43
L 180.4 37.6 182.75 37.6 183.1 35.85 176.35 35.85 175.95 37.6 178.2 37.6 177.05 43 179.25 43
M 171.55 39.9
Q 171.55 38.95 170.9 38.35 170.25 37.7 168.8 37.7 168.15 37.7 167.65 37.85 167.15 38 166.6 38.4 166.1 38.8 165.8 39.45 165.5 40.05 165.5 40.75 165.5 41.75 166.15 42.45 166.8 43.1 168.35 43.1 169.4 43.1 170.1 42.8 170.8 42.45 171.2 41.65
L 169.3 41.5
Q 168.95 41.95 168.4 41.95 167.55 41.95 167.45 40.9
L 171.4 40.9
Q 171.55 40.2 171.55 39.9
M 169.55 39.95
L 167.65 39.95
Q 167.8 39.4 168.1 39.15 168.4 38.85 168.75 38.85 169.1 38.85 169.35 39.05 169.6 39.25 169.6 39.65 169.6 39.85 169.55 39.95
M 166.35 35.95
Q 165.35 35.7 164.65 35.7 164.2 35.7 163.85 35.85 163.55 35.95 163.3 36.15 163.1 36.4 163 36.65 162.9 36.9 162.75 37.8
L 162 37.8 161.7 39.25 162.45 39.25 161.6 43 163.6 43 164.4 39.25 165.35 39.25 165.65 37.8 164.7 37.8
Q 164.85 37.2 165 37.1 165.1 37 165.35 37 165.6 37 166 37.1
L 166.35 35.95
M 137.6 39.2
Q 137.6 38.45 137.05 38.1 136.5 37.7 135 37.7 133.65 37.7 133 38.1 132.35 38.5 132.15 39.25
L 134 39.45
Q 134.2 39.1 134.4 39 134.6 38.85 134.95 38.85 135.25 38.85 135.5 39 135.65 39.1 135.65 39.3 135.65 39.4 135.6 39.65 135.3 39.75 134.45 39.85 133.5 39.95 132.95 40.05 132.35 40.2 132 40.55 131.6 40.9 131.6 41.6 131.6 42.2 132.05 42.65 132.45 43.1 133.45 43.1 134.4 43.1 135.2 42.4 135.2 42.7 135.25 43
L 137.2 43
Q 137.05 42.65 137.05 42.3 137.05 41.85 137.3 40.8 137.6 39.7 137.6 39.2
M 133.7 41.9
Q 133.55 41.75 133.55 41.5 133.55 41.25 133.8 41.1 134 40.9 135.4 40.7 135.25 41.45 134.9 41.75 134.55 42.05 134.15 42.05 133.9 42.05 133.7 41.9
M 128.3 35.85
L 126.35 35.85 124.8 43 126.75 43 127.05 41.65 128.1 40.8 128.65 43 130.9 43 129.55 39.6 131.8 37.8 129.5 37.8 127.5 39.55 128.3 35.85
M 124.95 35.85
L 123 35.85 122.7 37.2 124.7 37.2 124.95 35.85
M 124.55 37.8
L 122.55 37.8 121.45 43 123.45 43 124.55 37.8
M 120.95 39.2
Q 120.95 38.45 120.4 38.1 119.85 37.7 118.35 37.7 117 37.7 116.35 38.1 115.7 38.5 115.5 39.25
L 117.35 39.45
Q 117.55 39.1 117.75 39 117.95 38.85 118.3 38.85 118.6 38.85 118.85 39 119 39.1 119 39.3 119 39.4 118.95 39.65 118.65 39.75 117.8 39.85 116.85 39.95 116.3 40.05 115.7 40.2 115.35 40.55 114.95 40.9 114.95 41.6 114.95 42.2 115.4 42.65 115.8 43.1 116.8 43.1 117.75 43.1 118.55 42.4 118.55 42.7 118.6 43
L 120.55 43
Q 120.4 42.65 120.4 42.3 120.4 41.85 120.65 40.8 120.95 39.7 120.95 39.2
M 118.75 40.7
Q 118.6 41.45 118.25 41.75 117.9 42.05 117.5 42.05 117.25 42.05 117.05 41.9 116.9 41.75 116.9 41.5 116.9 41.25 117.15 41.1 117.35 40.9 118.75 40.7
M 116.2 35.85
L 109.45 35.85 109.05 37.6 111.3 37.6 110.15 43 112.35 43 113.5 37.6 115.85 37.6 116.2 35.85
M 190.3 21.35
L 192.15 21.35 192.8 18.25 190.95 18.25 192.85 9.45 189.45 9.45 180.35 18.05 179.6 21.35 186.9 21.35 186.3 24 189.75 24 190.3 21.35
M 188.5 13.75
L 188.55 13.8 187.55 18.25 183.7 18.25 188.5 13.75
M 178.25 9.45
L 174.85 9.45
Q 172.75 11.55 169.6 12.9
L 168.85 16.3
Q 171.35 15.7 173.15 14.6
L 171.1 24 175.1 24 178.25 9.45
M 162.75 22.95
Q 164.4 21.7 165.35 19.45 166.25 17.2 166.25 14.9 166.25 12.25 164.7 10.85 163.1 9.45 160.95 9.45 158.9 9.45 157.3 10.7 155.7 12 154.8 14.2 153.95 16.35 153.95 18.4 153.95 21.25 155.3 22.75 156.65 24.25 158.9 24.25 161.1 24.25 162.75 22.95
M 162.05 12.65
Q 162.4 13.2 162.4 14.1 162.4 15.3 162.05 17.25 161.65 19.2 160.95 20.4 160.25 21.55 159.3 21.55 157.75 21.55 157.75 19.45
L 157.75 19.4
Q 157.75 18.25 158.15 16.35 158.5 14.45 159.25 13.3 159.95 12.1 160.9 12.1 161.65 12.1 162.05 12.65
M 147.65 9.45
Q 145.15 9.45 143.6 10.5 142.05 11.6 141.7 13.7
L 145.6 14.25
Q 146 12.1 147.4 12.1 147.95 12.1 148.45 12.5 148.9 12.85 148.9 13.6 148.9 14.1 148.55 14.65 148.15 15.2 147.25 15.9
L 145.75 16.95
Q 143.35 18.7 142.05 20.25 140.75 21.8 140.35 24
L 151.3 24 152 20.75 146.35 20.75
Q 146.95 20.1 147.35 19.75 147.8 19.4 149.15 18.45 151.15 17.1 151.95 15.9 152.8 14.7 152.8 13.4 152.8 11.7 151.5 10.55 150.25 9.45 147.65 9.45
M 133.35 9.7
L 129.2 9.7 127.4 18 127.35 18 123.8 9.7 119.7 9.7 116.6 24 120.75 24 122.55 15.7 122.6 15.7 126.1 24 130.25 24 133.35 9.7
M 116.55 9.7
L 112.1 9.7 109 24 113.5 24 116.55 9.7 Z"/>
</g>
</defs>

<g transform="matrix( 1, 0, 0, 1, 0,0) ">
<use xlink:href="#Layer1_0_FILL"/>
</g>

<g transform="matrix( 10.800430297851562, 0, 0, 10.800430297851562, 5.5,4.55) ">
<g transform="matrix( 1, 0, 0, 1, 0,0) ">
<use xlink:href="#pop_0_Layer5_0_FILL"/>
</g>

<g transform="matrix( 1, 0, 0, 1, 0,0) ">
<use xlink:href="#pop_0_Layer4_0_FILL"/>
</g>

<g transform="matrix( 1, 0, 0, 1, 0,0) ">
<use xlink:href="#pop_0_Layer3_0_FILL"/>
</g>

<g transform="matrix( 1, 0, 0, 1, 0,0) ">
<use xlink:href="#pop_0_Layer2_0_FILL"/>
</g>

<g transform="matrix( 1, 0, 0, 1, 0,0) ">
<use xlink:href="#pop_0_Layer1_0_FILL"/>
</g>

<g transform="matrix( 1, 0, 0, 1, 0,0) ">
<use xlink:href="#pop_0_Layer0_0_FILL"/>
</g>
</g>

<g transform="matrix( 1, 0, 0, 1, 0,0) ">
<use xlink:href="#Layer1_1_MEMBER_1_FILL"/>
</g>

<g transform="matrix( 1, 0, 0, 1, 0,0) ">
<use xlink:href="#Layer1_1_MEMBER_1_MEMBER_0_FILL"/>
</g>

<g transform="matrix( 1, 0, 0, 1, 0,0) ">
<use xlink:href="#Layer0_0_FILL"/>
</g>
</svg>
