
<svg xmlns="http://www.w3.org/2000/svg" version="1.1" xmlns:xlink="http://www.w3.org/1999/xlink" preserveAspectRatio="none" x="0px" y="0px" width="550px" height="100px" viewBox="0 0 550 100">
<defs>
<g id="Layer2_0_FILL">
<path fill="#000000" fill-opacity="0.5019607843137255" stroke="none" d="
M 545.45 49.2
Q 545.45 28.8 531 14.4 516.65 0 496.25 0
L 49.2 0
Q 28.8 0 14.35 14.4 0 28.8 0 49.2 0 69.6 14.35 84 28.8 98.4 49.2 98.4
L 496.25 98.4
Q 516.65 98.4 531 84 545.45 69.6 545.45 49.2 Z"/>
</g>

<g id="pop_0_Layer5_0_FILL">
<path fill="#0C0A80" fill-opacity="0.2" stroke="none" d="
M 7.25 6.1
Q 7.75 5.2 7.85 4.45 7.85 4.3 7.85 4 7.7 2.15 6.05 1.6 4.15 1.1 3 2.6 1.9 4.15 3.45 5.9 4.7 7.3 2.95 7.8 3.1 7.95 3.7 7.95 3.75 7.95 3.85 7.95 4.5 8 5.5 7.6 6.7 7 7.25 6.1 Z"/>
</g>

<g id="pop_0_Layer4_0_FILL">
<path fill="#0C0A80" fill-opacity="0.2" stroke="none" d="
M 4.85 5.25
Q 4.85 4.4 4.25 3.75 3.65 3.15 2.8 3.15 1.95 3.15 1.35 3.75 0.7 4.4 0.7 5.25 0.7 6.1 1.35 6.7 1.95 7.3 2.8 7.3 3.65 7.3 4.25 6.7 4.85 6.1 4.85 5.25 Z"/>
</g>

<g id="pop_0_Layer3_0_FILL">
<path fill="#0C0A80" fill-opacity="0.2" stroke="none" d="
M 7.05 2.25
Q 7.05 1.6 6.6 1.15 6.15 0.7 5.5 0.7 4.85 0.7 4.4 1.15 3.95 1.6 3.95 2.25 3.95 2.9 4.4 3.35 4.85 3.8 5.5 3.8 6.15 3.8 6.6 3.35 7.05 2.9 7.05 2.25 Z"/>
</g>

<g id="pop_0_Layer2_0_FILL">
<path fill="#FFFFFF" fill-opacity="0.30196078431372547" stroke="none" d="
M 8.2 4.1
Q 8.2 2.4 7 1.2 5.8 0 4.1 0 2.4 0 1.2 1.2 0 2.4 0 4.1 0 5.8 1.2 7 2.4 8.2 4.1 8.2 5.8 8.2 7 7 8.2 5.8 8.2 4.1 Z"/>
</g>

<g id="pop_0_Layer1_0_FILL">
<path fill="#FFFFFF" fill-opacity="0.5019607843137255" stroke="none" d="
M 2.1 6.2
Q 3.7 5.95 2.65 3.7 1.9 1.2 4.2 0.3 3.65 0.35 3 0.55 1.7 1.1 1.1 1.9 0.5 2.75 0.4 3.5 0.35 3.65 0.35 3.95 0.4 6.2 2.1 6.2 Z"/>
</g>

<g id="pop_0_Layer0_0_FILL">
<path fill="#FFFFFF" fill-opacity="0.5019607843137255" stroke="none" d="
M 6.9 1.85
Q 6.9 1.45 6.65 1.2 6.35 0.9 6 0.9 5.6 0.9 5.35 1.2 5.05 1.45 5.05 1.85 5.05 2.2 5.35 2.5 5.6 2.75 6 2.75 6.35 2.75 6.65 2.5 6.9 2.2 6.9 1.85 Z"/>
</g>

<g id="Layer2_2_FILL">
<path fill="#FFFFFF" stroke="none" d="
M 73.9 39.95
Q 73.9 29.9 66.85 22.85 66.8 22.8 66.75 22.75 59.7 15.75 49.7 15.75 39.65 15.75 32.6 22.85 25.5 29.9 25.5 39.95 25.5 49.95 32.5 57 32.55 57.05 32.6 57.1 33.8 58.3 35.1 59.3
L 35.05 80.9
Q 35.05 82.15 35.95 83.05 36.8 83.9 38.05 83.9 39.3 83.9 40.2 83.05
L 49.7 73.55 59.25 83.1
Q 60.1 83.95 61.35 83.95 62.6 83.95 63.5 83.1 64.35 82.2 64.35 80.95
L 64.35 59.3
Q 65.65 58.25 66.85 57.1 73.9 50 73.9 39.95 Z"/>
</g>

<g id="Layer2_2_MEMBER_0_FILL">
<path fill="#B84F4F" stroke="none" d="
M 38.1 53.7
L 38.05 80.9 49.6 69.4 49.6 42.2 38.1 53.7 Z"/>

<path fill="#A12C2C" stroke="none" d="
M 49.7 42.1
L 49.6 42.2 49.6 69.4 49.7 69.3 61.35 80.95 61.35 53.75 49.7 42.1 Z"/>
</g>

<g id="Layer2_2_MEMBER_1_FILL">
<path fill="#FFCC00" stroke="none" d="
M 58.9 30.6
Q 55.1 26.85 49.7 26.85 44.2 26.85 40.4 30.65 36.55 34.5 36.55 39.95 36.55 45.35 40.3 49.15
L 58.9 30.6 Z"/>

<path fill="#C59E00" stroke="none" d="
M 64.6 24.85
Q 58.45 18.75 49.7 18.75 40.9 18.75 34.7 24.95 28.5 31.15 28.5 39.95 28.5 48.7 34.6 54.85
L 40.3 49.15
Q 36.55 45.35 36.55 39.95 36.55 34.5 40.4 30.65 44.2 26.85 49.7 26.85 55.1 26.85 58.9 30.6
L 64.6 24.85
M 58.95 30.65
L 58.9 30.6 40.3 49.15
Q 40.35 49.2 40.4 49.25 44.2 53.05 49.7 53.05 55.15 53.05 58.95 49.25 62.8 45.4 62.8 39.95 62.8 34.5 58.95 30.65 Z"/>

<path fill="#957800" stroke="none" d="
M 58.9 30.6
L 58.95 30.65
Q 62.8 34.5 62.8 39.95 62.8 45.4 58.95 49.25 55.15 53.05 49.7 53.05 44.2 53.05 40.4 49.25 40.35 49.2 40.3 49.15
L 34.6 54.85
Q 34.65 54.9 34.7 54.95 40.9 61.15 49.7 61.15 58.5 61.15 64.7 54.95 70.9 48.75 70.9 39.95 70.9 31.15 64.7 24.95 64.65 24.9 64.6 24.85
L 58.9 30.6 Z"/>
</g>

<g id="Layer2_3_FILL">
<path fill="#FFFFFF" stroke="none" d="
M 62.15 36.2
Q 62.15 26.15 55.1 19.1 55.05 19.05 55 19 47.95 12 37.95 12 27.9 12 20.85 19.1 13.75 26.15 13.75 36.2 13.75 46.2 20.75 53.25 20.8 53.3 20.85 53.35 22.05 54.55 23.35 55.55
L 23.3 77.15
Q 23.3 78.4 24.2 79.3 25.05 80.15 26.3 80.15 27.55 80.15 28.45 79.3
L 37.95 69.8 47.5 79.35
Q 48.35 80.2 49.6 80.2 50.85 80.2 51.75 79.35 52.6 78.45 52.6 77.2
L 52.6 55.55
Q 53.9 54.5 55.1 53.35 62.15 46.25 62.15 36.2 Z"/>
</g>

<g id="Layer2_3_MEMBER_0_FILL">
<path fill="#B84F4F" stroke="none" d="
M 26.3 77.15
L 37.85 65.65 37.85 38.45 26.35 49.95 26.3 77.15 Z"/>

<path fill="#A12C2C" stroke="none" d="
M 37.95 38.35
L 37.85 38.45 37.85 65.65 37.95 65.55 49.6 77.2 49.6 50 37.95 38.35 Z"/>
</g>

<g id="Layer2_3_MEMBER_1_FILL">
<path fill="#FFCC00" stroke="none" d="
M 37.95 23.1
Q 32.45 23.1 28.65 26.9 24.8 30.75 24.8 36.2 24.8 41.6 28.55 45.4
L 47.15 26.85
Q 43.35 23.1 37.95 23.1 Z"/>

<path fill="#C59E00" stroke="none" d="
M 47.2 26.9
L 47.15 26.85 28.55 45.4
Q 28.6 45.45 28.65 45.5 32.45 49.3 37.95 49.3 43.4 49.3 47.2 45.5 51.05 41.65 51.05 36.2 51.05 30.75 47.2 26.9
M 47.15 26.85
L 52.85 21.1
Q 46.7 15 37.95 15 29.15 15 22.95 21.2 16.75 27.4 16.75 36.2 16.75 44.95 22.85 51.1
L 28.55 45.4
Q 24.8 41.6 24.8 36.2 24.8 30.75 28.65 26.9 32.45 23.1 37.95 23.1 43.35 23.1 47.15 26.85 Z"/>

<path fill="#957800" stroke="none" d="
M 59.15 36.2
Q 59.15 27.4 52.95 21.2 52.9 21.15 52.85 21.1
L 47.15 26.85 47.2 26.9
Q 51.05 30.75 51.05 36.2 51.05 41.65 47.2 45.5 43.4 49.3 37.95 49.3 32.45 49.3 28.65 45.5 28.6 45.45 28.55 45.4
L 22.85 51.1
Q 22.9 51.15 22.95 51.2 29.15 57.4 37.95 57.4 46.75 57.4 52.95 51.2 59.15 45 59.15 36.2 Z"/>
</g>

<g id="Layer1_0_FILL">
<path fill="#FFFFFF" stroke="none" d="
M 265.2 80.35
Q 267.85 80.55 267.7 77.75
L 267.7 66.55 253.95 66.55 253.95 80.35 265.2 80.35
M 265.1 77.9
Q 265.1 78.8 264.3 78.8
L 256.5 78.8 256.5 68.25 265.1 68.25 265.1 77.9
M 264.75 70.9
L 264.75 69.5 261.7 69.5 261.7 68.6 259.35 68.6 259.35 69.5 256.85 69.5 256.85 70.9 259.35 70.9 259.35 71.6 257.25 71.6 257.25 73.05 259.35 73.05 259.35 73.85 256.8 73.85 256.8 75.3 259.35 75.3 259.35 78.4 261.7 78.4 261.7 75.3 262.8 75.3 262.8 76
Q 262.85 76.3 262.5 76.3
L 262.1 76.3 262.1 77.75 263.1 77.75
Q 264.85 77.85 264.75 76.05
L 264.75 73.85 261.7 73.85 261.7 73.05 264.35 73.05 264.35 71.6 261.7 71.6 261.7 70.9 264.75 70.9
M 252 80.55
L 252 78.8
Q 246.7 74.4 245.8 66.3
L 242.8 66.3
Q 243.05 68.1 243.45 69.6 242 75 237.6 78.85
L 237.6 80.6
Q 243.2 77.5 244.8 73.55 246.55 77.55 252 80.55
M 226.75 68.4
L 229.75 68.4
Q 229.7 69.1 229.55 69.65
L 226.85 69.65 226.85 77 229.2 77 229.2 71.4 233.35 71.4 233.35 77 235.7 77 235.7 69.65 232.1 69.65
Q 232.3 69.1 232.35 68.4
L 236.05 68.4 236.05 66.65 226.75 66.65 226.75 68.4
M 225.35 68.85
L 226.45 68.85 226.45 67.1 221.6 67.1 221.6 68.85 222.8 68.85 222.8 76.6
Q 222.6 76.65 222.2 76.65 221.75 76.75 221.55 76.75
L 221.55 79
Q 224.8 78.5 226.6 77.65
L 226.6 75.8
Q 225.95 76 225.35 76.1
L 225.35 68.85
M 232.55 72.25
L 230 72.25 230 74.75
Q 230.1 77.85 226.3 79.05
L 226.3 80.6
Q 229.85 80.15 231.3 78.15 232.8 80.1 236.05 80.6
L 236.05 79
Q 232.45 77.85 232.55 74.75
L 232.55 72.25
M 205.55 67.05
L 205.55 68.85 209.75 68.85 209.75 70.1 206.25 70.1 206.25 80.5 208.75 80.5 208.75 78.5
Q 210.7 77 211.3 74.85 211.7 75.55 212.45 76.05 212.2 76.5 211.8 76.9
L 211.8 78.6
Q 213.8 77.6 214.75 75.8 215.5 77.3 216.95 78.15 217 78.8 216.3 78.75
L 215.7 78.75 215.7 80.4 217 80.4
Q 219.5 80.5 219.45 78.1
L 219.45 70.1 215.85 70.1 215.85 68.85 220.1 68.85 220.1 67.05 205.55 67.05
M 208.75 71.85
L 209.7 71.85
Q 209.7 74.5 208.75 76.25
L 208.75 71.85
M 215.85 71.85
L 216.95 71.85 216.95 75.9
Q 216 74.55 215.85 71.85
M 212.2 71.85
L 213.55 71.85
Q 213.5 73.25 213.1 74.65
L 213.1 74.35
Q 212.3 73.4 212.2 71.85
M 212.05 70.1
L 212.05 68.85 213.55 68.85 213.55 70.1 212.05 70.1
M 148.7 67.55
L 148.7 66.15 145.55 66.15 145.55 67.55 140.1 67.55 140.1 76.1
Q 140.15 78.25 138.95 79.05
L 138.95 80.75
Q 143.35 79.3 143.1 75.3
L 143.1 69.5 153.4 69.5 153.4 67.55 148.7 67.55
M 168.1 77.9
L 168.1 74.3 156.45 74.3 156.45 80.3 165.8 80.3
Q 168.1 80.35 168.1 77.9
M 165.35 76.15
L 165.35 77.8
Q 165.4 78.65 164.6 78.6
L 159.2 78.6 159.2 76.15 165.35 76.15
M 171.6 71.25
L 171.6 73.05 175.1 73.05 175.1 80.65 178.05 80.65 178.05 73.05 181.65 73.05 181.65 76.35
Q 181.7 77.25 180.8 77.25
L 179.65 77.25 179.65 79.05 182.1 79.05
Q 184.45 79.05 184.45 76.65
L 184.45 71.25 171.6 71.25
M 163.95 67.5
L 163.95 66.15 161.15 66.15 161.15 67.5 159.3 67.5
Q 159.4 67 159.45 66.55
L 156.95 66.55
Q 156.8 68.4 155.6 69.6
L 155.6 71.15
Q 157.6 70.55 158.45 69.3
L 161.15 69.3 161.15 71.55 154.9 71.55 154.9 73.35 169.4 73.35 169.4 71.55 163.95 71.55 163.95 69.3 168.55 69.3 168.55 67.5 163.95 67.5
M 199.8 72.6
L 191.3 72.6 191.3 74.55 199.8 74.55 199.8 72.6
M 182.4 70.65
L 182.4 69.3 185.35 69.3 185.35 67.5 182.4 67.5 182.4 66.3 179.8 66.3 179.8 67.5 176.55 67.5 176.55 66.3 173.9 66.3 173.9 67.5 170.9 67.5 170.9 69.3 173.9 69.3 173.9 70.65 176.55 70.65 176.55 69.3 179.8 69.3 179.8 70.65 182.4 70.65
M 127.9 79.1
L 127.9 77.35
Q 125.65 77.85 123.05 77.8
L 123.05 79.6
Q 125.45 79.65 127.9 79.1
M 131.4 66.25
L 131.4 67.9 128.2 67.9 128.2 69.25 126.2 69.25
Q 126.15 69.55 125.95 70.1 125.85 70.5 125.8 70.65 125.4 70.65 124.95 70.65 126.3 69.05 127.1 66.3
L 124.65 66.3
Q 124.2 68.75 122.95 70.65
L 122.95 72.5
Q 124.1 72.5 124.95 72.4 124.15 73.75 123.1 74.8
L 123.1 76.75
Q 125.9 76.75 127.8 76.3
L 127.8 74.55
Q 126.55 74.85 125.4 74.8 127.8 72.65 128.2 69.8
L 128.2 80.5 130.6 80.5 130.6 69.65 131.4 69.65 131.4 69.9
Q 131.45 73.8 130.85 75.25
L 130.85 77.35
Q 132.05 76.55 132.65 75 133.3 76.55 134.45 77.35
L 134.45 75.25
Q 133.9 73.85 133.9 69.9
L 133.9 69.65 134.7 69.65 134.7 78.05
Q 134.7 78.85 134.1 78.8
L 133.4 78.8 133.4 80.4 134.95 80.4
Q 137.15 80.55 137.1 78.25
L 137.1 67.9 133.9 67.9 133.9 66.25 131.4 66.25
M 120.95 77.05
L 120.95 75.55 117.7 75.55 117.7 75.05 115.35 75.05 115.35 75.55 112.9 75.55
Q 112.9 75.4 112.8 75.3 112.7 75.1 112.65 75.05
L 109.9 75.05
Q 110.1 75.3 110.15 75.55
L 107.3 75.55 107.3 77.05 111.1 77.05
Q 111.65 77.85 112.35 78.55 110.15 78.9 107.3 79.1
L 107.3 80.35
Q 111.35 80.1 114.05 79.6 115.9 80.75 118.45 80.65 121.35 80.75 121.15 78.35
L 119.35 78.35
Q 119.45 79.15 118.05 79.1 117.45 79.1 117.05 79.05 116.9 79.05 116.85 79.05 118.55 78.5 119.8 77.3
L 116.9 77.3
Q 116.55 77.4 115.8 77.75 115.2 77.85 114.95 78 114.45 77.55 114.05 77.05
L 120.95 77.05
M 107.15 66.75
L 107.15 68.25 112.1 68.25
Q 112.05 68.55 111.9 68.75
L 108.15 68.75 108.15 74.85 118.2 74.85
Q 120.4 75 120.3 72.6
L 120.3 68.75 114.7 68.75
Q 114.85 68.55 114.9 68.25
L 121.3 68.25 121.3 66.75 107.15 66.75
M 110.95 72.05
L 110.95 71.55 117.65 71.55 117.65 72.05 110.95 72.05
M 110.95 70.5
L 110.95 70.05 117.65 70.05 117.65 70.5 110.95 70.5
M 110.95 73.55
L 110.95 73.05 117.65 73.05
Q 117.65 73.6 116.95 73.55
L 110.95 73.55
M 240.7 48.2
L 238.05 48.2 238.05 58.9 240.7 58.9 240.7 48.2
M 240.5 44.85
L 238.1 44.85
Q 238.55 46.1 238.75 47.65
L 241.35 47.65
Q 241.2 46.35 240.5 44.85
M 245.85 56.6
Q 248.25 56.7 248.1 54.4
L 248.1 47.9 241.55 47.9 241.55 56.6 245.85 56.6
M 245.8 49.6
L 245.8 51.35 243.85 51.35 243.85 49.6 245.8 49.6
M 243.85 54.9
L 243.85 52.95 245.8 52.95 245.8 54.1
Q 245.8 54.9 245 54.9
L 243.85 54.9
M 247.45 57.15
L 247.45 58.8 249.2 58.8
Q 251.8 58.9 251.7 56.45
L 251.7 45.05 242.05 45.05 242.05 46.85 249.05 46.85 249.05 56.4
Q 249.1 57.2 248.3 57.15
L 247.45 57.15
M 226.35 45.3
L 221.95 45.3 221.95 58.05 224.35 58.05
Q 226.5 58.15 226.35 55.9
L 226.35 45.3
M 223.95 48.95
L 223.95 46.95 224.6 46.95 224.6 48.95 223.95 48.95
M 223.95 50.55
L 224.6 50.55 224.6 52.6 223.95 52.6 223.95 50.55
M 223.95 54.2
L 224.6 54.2 224.6 55.95
Q 224.6 56.45 224.2 56.45
L 223.95 56.45 223.95 54.2
M 235.8 46.95
L 233.55 46.95
Q 233.25 48.05 232.95 48.45
L 226.7 48.45 226.7 50.95 227.55 50.95
Q 227.35 52.7 226.5 53.9
L 226.5 55.45
Q 226.95 55.15 227.3 54.9
L 227.3 55.6
Q 227.85 55.7 228.3 55.9 227.7 56.85 226.55 57.55
L 226.55 59.15
Q 230.35 57.4 231.05 53.95
L 231.05 55.35
Q 231 56.9 232.5 56.85
L 232.95 56.85 232.95 58.9 234.8 58.9 234.8 56.85 236.1 56.85 236.1 55.2 234.8 55.2 234.8 53.15 236 53.15 236 51.55 234.8 51.55 234.8 50.95 236 50.95 236 48.45 235 48.45
Q 235.35 48.05 235.8 46.95
M 233.8 50.65
L 232.95 50.65 232.95 51.55 231.5 51.55 231.5 53.15 232.95 53.15 232.95 55.2
Q 232.5 55.15 232.55 54.65
L 232.55 53.55 231.1 53.55
Q 231.2 53.4 231.2 53.2 231.25 53.05 231.25 52.95
L 231.25 51.35 229.35 51.35
Q 229.45 51.2 229.45 51.05 229.5 50.8 229.5 50.65
L 228.85 50.65 228.85 50.1 233.8 50.1 233.8 50.65
M 229.45 52.95
Q 229.25 53.7 229.05 54.35 228.7 54.15 228.25 54.1 228.6 53.6 228.95 52.95
L 229.45 52.95
M 232.05 46.95
L 230 46.95
Q 230.3 47.4 230.55 48.3
L 232.7 48.3
Q 232.45 47.4 232.05 46.95
M 226.85 45.1
L 226.85 46.7 233 46.7
Q 234.55 46.8 235.95 46.3
L 235.95 44.6
Q 234.25 45.15 232.7 45.1
L 226.85 45.1
M 226.85 46.95
Q 227.2 47.45 227.45 48.3
L 229.6 48.3
Q 229.45 47.6 229 46.95
L 226.85 46.95
M 212.05 44.55
L 212.05 45.3 206.55 45.3 206.55 53.45
Q 206.6 55.95 205.75 57.3
L 205.75 59.05
Q 207.85 57.7 208.5 56.45
L 208.5 58.3
Q 211.2 57.45 212.6 56.35
L 212.6 54.6
Q 212.45 54.7 212.05 54.9 211.8 55.1 211.7 55.15 211.5 54.6 211.35 53.95
L 209.35 53.95
Q 209.7 55.35 210 55.9 209.8 55.95 209.45 56.1 208.85 56.3 208.55 56.35 209.1 55.05 209.1 53.1
L 209.1 51.45 212.8 51.45 212.8 52.1 209.35 52.1 209.35 53.7 212.8 53.7 212.8 56.7
Q 212.85 57.4 212.05 57.4
L 211.7 57.4 211.7 58.95 213 58.95
Q 215.25 59.05 215.2 56.7
L 215.2 56.45
Q 216.55 57.55 219.8 58.65
L 219.8 57.05
Q 218.8 56.6 218.55 56.45 218.2 56.3 218 56.2 218.45 55.6 218.7 53.9
L 216.7 53.9
Q 216.6 54.15 216.55 54.6 216.45 54.9 216.45 55.1 215.8 54.55 215.2 53.85
L 215.2 53.7 216.85 53.7
Q 219.1 53.8 219 51.55
L 219 51.45 220.1 51.45 220.1 49.85 219 49.85 219 47.65 215.2 47.65 215.2 46.95 220.05 46.95 220.05 45.3 215.25 45.3 215.25 44.55 212.05 44.55
M 209.5 47.65
L 209.5 49.3 212.8 49.3 212.8 49.85 209.1 49.85 209.1 46.95 212.8 46.95 212.8 47.65 209.5 47.65
M 215.2 49.3
L 216.75 49.3 216.75 49.85 215.2 49.85 215.2 49.3
M 216 52.1
L 215.2 52.1 215.2 51.45 216.75 51.45
Q 216.8 52.15 216 52.1
M 195.25 56.45
L 195.25 54.6
Q 192.75 55.8 190.2 56.3
L 190.2 58.55
Q 193.05 57.9 195.25 56.45
M 198.6 54.6
L 198.6 56.55
Q 200.95 57.2 203.45 58.85
L 203.45 56.45
Q 201.3 55.15 198.6 54.6
M 195.55 56.55
Q 195.6 57.4 194.8 57.35
L 194.2 57.35 194.2 58.9 195.95 58.9
Q 198.35 59.05 198.25 56.55
L 198.25 52.2 195.55 52.2 195.55 56.55
M 202.85 48.85
L 202.85 47.3 198.05 47.3
Q 198.05 47.15 198.1 46.95 198.1 46.8 198.1 46.7
L 203.35 46.7 203.35 45.1 198.2 45.1 198.2 44.45 195.3 44.45 195.3 45.1 190.25 45.1 190.25 46.7 195.25 46.7
Q 195.25 46.8 195.25 46.95 195.2 47.15 195.2 47.3
L 190.75 47.3 190.75 48.85 194.75 48.85
Q 194.75 48.9 194.6 49.1 194.55 49.35 194.5 49.45
L 189.75 49.45 189.75 51.05 193 51.05
Q 191.8 52.05 189.6 52.8
L 189.6 54.4
Q 190.1 54.2 191 53.9 191.75 53.65 192.1 53.55 192.3 54.05 192.75 54.6
L 195.05 54.6
Q 194.35 53.45 194.3 52.55 195.45 51.85 196.3 51.05
L 197.75 51.05
Q 198.6 52.05 199.55 52.65 199.35 53.6 198.75 54.6
L 201.1 54.6
Q 201.2 54.55 201.25 54.35 201.55 53.95 201.6 53.7 202.6 54.1 203.95 54.4
L 203.95 52.8
Q 201.8 52.1 200.7 51.05
L 203.95 51.05 203.95 49.45 197.45 49.45
Q 197.6 49.1 197.7 48.85
L 202.85 48.85
M 183.8 52.85
L 183.8 50.9 175.3 50.9 175.3 52.85 183.8 52.85
M 161.8 55.2
L 159.55 55.2
Q 160.1 56.65 160.3 57.6
L 162.7 57.6
Q 162.45 56.2 161.8 55.2
M 168.2 47.8
L 162.9 47.8
Q 162.95 47.65 163.05 47.4 163.1 47.2 163.1 47.1
L 169.05 47.1 169.05 45.2 163.45 45.2
Q 163.55 45.1 163.55 44.9 163.6 44.65 163.6 44.55
L 160.7 44.55
Q 160.7 44.65 160.65 44.9 160.65 45.1 160.6 45.2
L 155.3 45.2 155.3 47.1 160.3 47.1
Q 160.3 47.45 160.15 47.8
L 156.1 47.8 156.1 49.55 159.65 49.55
Q 159.6 49.7 159.55 50.05 159.4 50.2 159.4 50.35
L 155.05 50.35 155.05 52.15 158.45 52.15
Q 157.45 54.05 155.15 56.2
L 155.15 58.1
Q 157.6 56.45 159.15 54.85
L 164.8 54.85 164.8 56.55
Q 164.85 57.2 164.1 57.2
L 163.3 57.2 163.3 58.85 165.3 58.85
Q 167.4 58.85 167.4 56.8
L 167.4 54.85 169.4 54.85 169.4 53.05 167.4 53.05 167.4 52.15 169.4 52.15 169.4 50.35 162.1 50.35
Q 162.15 50.2 162.3 49.9 162.35 49.65 162.4 49.55
L 168.2 49.55 168.2 47.8
M 164.8 52.15
L 164.8 53.05 160.6 53.05 160.65 52.95
Q 161.05 52.4 161.15 52.15
L 164.8 52.15
M 144.65 44.6
L 144.65 46.2
Q 144.8 52.65 138.95 57.15
L 138.95 58.9
Q 144.6 56.2 146.15 52.4 147.8 56.2 153.35 58.9
L 153.35 57.15
Q 147.55 52.65 147.65 46.2
L 147.65 44.6 144.65 44.6
M 129.4 45.3
L 123.9 45.3 123.9 53.45
Q 123.95 55.95 123.1 57.3
L 123.1 59.05
Q 125.2 57.7 125.85 56.45
L 125.85 58.3
Q 128.55 57.45 129.95 56.35
L 129.95 54.6
Q 129.8 54.7 129.4 54.9 129.15 55.1 129.05 55.15 128.85 54.6 128.7 53.95
L 126.7 53.95
Q 127.05 55.35 127.35 55.9 127.15 55.95 126.8 56.1 126.2 56.3 125.9 56.35 126.45 55.05 126.45 53.1
L 126.45 51.45 130.15 51.45 130.15 52.1 126.7 52.1 126.7 53.7 130.15 53.7 130.15 56.7
Q 130.2 57.4 129.4 57.4
L 129.05 57.4 129.05 58.95 130.35 58.95
Q 132.6 59.05 132.55 56.7
L 132.55 56.45
Q 133.9 57.55 137.15 58.65
L 137.15 57.05
Q 136.15 56.6 135.9 56.45 135.55 56.3 135.35 56.2 135.8 55.6 136.05 53.9
L 134.05 53.9
Q 133.95 54.15 133.9 54.6 133.8 54.9 133.8 55.1 133.15 54.55 132.55 53.85
L 132.55 53.7 134.2 53.7
Q 136.45 53.8 136.35 51.55
L 136.35 51.45 137.45 51.45 137.45 49.85 136.35 49.85 136.35 47.65 132.55 47.65 132.55 46.95 137.4 46.95 137.4 45.3 132.6 45.3 132.6 44.55 129.4 44.55 129.4 45.3
M 126.85 49.3
L 130.15 49.3 130.15 49.85 126.45 49.85 126.45 46.95 130.15 46.95 130.15 47.65 126.85 47.65 126.85 49.3
M 132.55 49.3
L 134.1 49.3 134.1 49.85 132.55 49.85 132.55 49.3
M 133.35 52.1
L 132.55 52.1 132.55 51.45 134.1 51.45
Q 134.15 52.15 133.35 52.1
M 112.6 56.45
L 112.6 54.6
Q 110.1 55.8 107.55 56.3
L 107.55 58.55
Q 110.4 57.9 112.6 56.45
M 120.8 58.85
L 120.8 56.45
Q 118.65 55.15 115.95 54.6
L 115.95 56.55
Q 118.3 57.2 120.8 58.85
M 115.6 52.2
L 112.9 52.2 112.9 56.55
Q 112.95 57.4 112.15 57.35
L 111.55 57.35 111.55 58.9 113.3 58.9
Q 115.7 59.05 115.6 56.55
L 115.6 52.2
M 108.1 47.3
L 108.1 48.85 112.1 48.85
Q 112.1 48.9 111.95 49.1 111.9 49.35 111.85 49.45
L 107.1 49.45 107.1 51.05 110.35 51.05
Q 109.15 52.05 106.95 52.8
L 106.95 54.4
Q 107.45 54.2 108.35 53.9 109.1 53.65 109.45 53.55 109.65 54.05 110.1 54.6
L 112.4 54.6
Q 111.7 53.45 111.65 52.55 112.8 51.85 113.65 51.05
L 115.1 51.05
Q 115.95 52.05 116.9 52.65 116.7 53.6 116.1 54.6
L 118.45 54.6
Q 118.55 54.55 118.6 54.35 118.9 53.95 118.95 53.7 119.95 54.1 121.3 54.4
L 121.3 52.8
Q 119.15 52.1 118.05 51.05
L 121.3 51.05 121.3 49.45 114.8 49.45
Q 114.95 49.1 115.05 48.85
L 120.2 48.85 120.2 47.3 115.4 47.3
Q 115.4 47.15 115.45 46.95 115.45 46.8 115.45 46.7
L 120.7 46.7 120.7 45.1 115.55 45.1 115.55 44.45 112.65 44.45 112.65 45.1 107.6 45.1 107.6 46.7 112.6 46.7
Q 112.6 46.8 112.6 46.95 112.55 47.15 112.55 47.3
L 108.1 47.3
M 194.6 18.15
L 194.6 15.35 181.85 15.35
Q 181.95 15.05 182.15 14.5 182.25 14.1 182.35 13.85
L 178.1 13.85
Q 177.1 17.95 174.1 19.85
L 174.1 22.35
Q 175.5 22 176.55 21.45
L 176.55 28 173.7 28 173.7 30.7 183.95 30.7 183.95 35.4 188.25 35.4 188.25 30.7 195.35 30.7 195.35 28 188.25 28 188.25 23.6 194.05 23.6 194.05 20.85 188.25 20.85 188.25 18.15 194.6 18.15
M 183.95 18.15
L 183.95 20.85 177.65 20.85
Q 179.45 19.75 180.55 18.15
L 183.95 18.15
M 180.45 23.6
L 183.95 23.6 183.95 28 180.45 28 180.45 23.6
M 169.35 14.5
L 165.2 14.5 155.45 27.7 155.45 30.6 165 30.6 165 34.75 169.35 34.75 169.35 30.6 171.75 30.6 171.75 27.7 169.35 27.7 169.35 14.5
M 165 20.4
L 165 27.7 159.65 27.7 165 20.4
M 152.45 14.5
L 147.95 14.5
Q 146.2 18.45 141.5 20.4
L 141.5 22.95
Q 145.35 22.35 147.95 20.5
L 147.95 34.75 152.45 34.75 152.45 14.5
M 131.9 14.1
Q 124.3 14.5 124.15 24.7 124.25 34.95 131.9 35.1 139.9 35.2 139.8 24.7 139.7 14.2 131.9 14.1
M 132 32.4
Q 128.65 32.4 128.65 24.8 128.65 16.95 132 17 135.3 16.85 135.2 24.8 135.2 32.4 132 32.4
M 122.1 34.75
L 122.1 32.1 111.7 32.1
Q 113.3 29.5 117.6 26.95 122.45 24.05 122.2 20 121.9 14.4 115.05 14.2 108.3 14.3 107.1 21.05
L 111.3 21.05
Q 111.8 17.2 114.8 17.1 117.7 17 117.7 20.2 117.95 22.25 113.1 25.75 109.15 28.65 107.2 32
L 107.2 34.75 122.1 34.75 Z"/>
</g>
</defs>

<g transform="matrix( 1, 0, 0, 1, 0,0) ">
<use xlink:href="#Layer2_0_FILL"/>
</g>

<g transform="matrix( 10.800430297851562, 0, 0, 10.800430297851562, 5.45,4.6) ">
<g transform="matrix( 1, 0, 0, 1, 0,0) ">
<use xlink:href="#pop_0_Layer5_0_FILL"/>
</g>

<g transform="matrix( 1, 0, 0, 1, 0,0) ">
<use xlink:href="#pop_0_Layer4_0_FILL"/>
</g>

<g transform="matrix( 1, 0, 0, 1, 0,0) ">
<use xlink:href="#pop_0_Layer3_0_FILL"/>
</g>

<g transform="matrix( 1, 0, 0, 1, 0,0) ">
<use xlink:href="#pop_0_Layer2_0_FILL"/>
</g>

<g transform="matrix( 1, 0, 0, 1, 0,0) ">
<use xlink:href="#pop_0_Layer1_0_FILL"/>
</g>

<g transform="matrix( 1, 0, 0, 1, 0,0) ">
<use xlink:href="#pop_0_Layer0_0_FILL"/>
</g>
</g>

<g transform="matrix( 0.8754730224609375, 0, 0, 0.8754730224609375, -3.9,1.4) ">
<use xlink:href="#Layer2_2_FILL"/>
</g>

<g transform="matrix( 0.8754730224609375, 0, 0, 0.8754730224609375, -3.95,1.4) ">
<use xlink:href="#Layer2_2_MEMBER_0_FILL"/>
</g>

<g transform="matrix( 0.8754730224609375, 0, 0, 0.8754730224609375, -3.95,1.4) ">
<use xlink:href="#Layer2_2_MEMBER_1_FILL"/>
</g>

<g transform="matrix( 0.8754730224609375, 0, 0, 0.8754730224609375, 24.25,13.05) ">
<use xlink:href="#Layer2_3_FILL"/>
</g>

<g transform="matrix( 0.8754730224609375, 0, 0, 0.8754730224609375, 24.35,13.2) ">
<use xlink:href="#Layer2_3_MEMBER_0_FILL"/>
</g>

<g transform="matrix( 0.8754730224609375, 0, 0, 0.8754730224609375, 24.35,13.2) ">
<use xlink:href="#Layer2_3_MEMBER_1_FILL"/>
</g>

<g transform="matrix( 1, 0, 0, 1, 0,0) ">
<use xlink:href="#Layer1_0_FILL"/>
</g>
</svg>
