
<svg xmlns="http://www.w3.org/2000/svg" version="1.1" xmlns:xlink="http://www.w3.org/1999/xlink" preserveAspectRatio="none" x="0px" y="0px" width="60px" height="60px" viewBox="0 0 60 60">
<defs>
<g id="pop_0_Layer5_0_FILL">
<path fill="#0C0A80" fill-opacity="0.2" stroke="none" d="
M 7.25 6.1
Q 7.75 5.2 7.85 4.45 7.85 4.3 7.85 4 7.7 2.15 6.05 1.6 4.15 1.1 3 2.6 1.9 4.15 3.45 5.9 4.7 7.3 2.95 7.8 3.1 7.95 3.7 7.95 3.75 7.95 3.85 7.95 4.5 8 5.5 7.6 6.7 7 7.25 6.1 Z"/>
</g>

<g id="pop_0_Layer4_0_FILL">
<path fill="#0C0A80" fill-opacity="0.2" stroke="none" d="
M 4.85 5.25
Q 4.85 4.4 4.25 3.75 3.65 3.15 2.8 3.15 1.95 3.15 1.35 3.75 0.7 4.4 0.7 5.25 0.7 6.1 1.35 6.7 1.95 7.3 2.8 7.3 3.65 7.3 4.25 6.7 4.85 6.1 4.85 5.25 Z"/>
</g>

<g id="pop_0_Layer3_0_FILL">
<path fill="#0C0A80" fill-opacity="0.2" stroke="none" d="
M 7.05 2.25
Q 7.05 1.6 6.6 1.15 6.15 0.7 5.5 0.7 4.85 0.7 4.4 1.15 3.95 1.6 3.95 2.25 3.95 2.9 4.4 3.35 4.85 3.8 5.5 3.8 6.15 3.8 6.6 3.35 7.05 2.9 7.05 2.25 Z"/>
</g>

<g id="pop_0_Layer2_0_FILL">
<path fill="#FFFFFF" fill-opacity="0.30196078431372547" stroke="none" d="
M 8.2 4.1
Q 8.2 2.4 7 1.2 5.8 0 4.1 0 2.4 0 1.2 1.2 0 2.4 0 4.1 0 5.8 1.2 7 2.4 8.2 4.1 8.2 5.8 8.2 7 7 8.2 5.8 8.2 4.1 Z"/>
</g>

<g id="pop_0_Layer1_0_FILL">
<path fill="#FFFFFF" fill-opacity="0.5019607843137255" stroke="none" d="
M 2.1 6.2
Q 3.7 5.95 2.65 3.7 1.9 1.2 4.2 0.3 3.65 0.35 3 0.55 1.7 1.1 1.1 1.9 0.5 2.75 0.4 3.5 0.35 3.65 0.35 3.95 0.4 6.2 2.1 6.2 Z"/>
</g>

<g id="pop_0_Layer0_0_FILL">
<path fill="#FFFFFF" fill-opacity="0.5019607843137255" stroke="none" d="
M 6.9 1.85
Q 6.9 1.45 6.65 1.2 6.35 0.9 6 0.9 5.6 0.9 5.35 1.2 5.05 1.45 5.05 1.85 5.05 2.2 5.35 2.5 5.6 2.75 6 2.75 6.35 2.75 6.65 2.5 6.9 2.2 6.9 1.85 Z"/>
</g>

<g id="Layer0_0_MEMBER_1_FILL">
<path fill="#FFFFFF" stroke="none" d="
M 155.65 254.75
Q 154.3 254.25 152.4 254.25 147.1 254.25 145.25 257.8 144.75 256.8 143.95 256.1
L 143.95 256.05
Q 142.15 254.25 138.5 254.25 133.8 254.25 131.8 257.2 130.15 259.3 130.15 263.4
L 130.15 277.95
Q 130.15 282.3 132 284.3 133.95 286.7 138.4 286.7 142.5 286.7 144.25 284.7
L 144.3 284.65
Q 144.75 284.15 145.1 283.5 145.65 284.5 146.6 285.2 148.5 286.7 152 286.7 156.35 286.7 158.35 284.3 158.95 283.5 159.4 282.5 159.95 284.15 161.35 285.2 163.25 286.7 166.75 286.7 171.15 286.7 173.1 284.3 174.9 282.2 174.9 278.05 174.9 274.85 173.85 273
L 173.9 273.05
Q 172.95 271.3 169.85 268 167.4 265.45 166.65 264.15 166.2 263.3 166.2 262.1 166.2 261.15 166.45 260.7 166.6 260.55 167 260.55 167.6 260.7 167.6 261.55
L 167.6 263.8
Q 167.6 264.5 168.1 264.95 168.55 265.4 169.2 265.4
L 172.95 265.4
Q 173.65 265.4 174.15 264.95 174.55 264.5 174.55 263.8
L 174.55 261.15
Q 174.55 259.25 174.2 258.3 174.15 258.25 174.15 258.2 173.75 257.1 172.95 256.35 171.9 255.25 170.35 254.75
L 170.4 254.75
Q 169.05 254.25 167.15 254.25 161.15 254.25 159.6 258.75 159.55 258.5 159.45 258.3 159.4 258.25 159.4 258.2 158.95 257.1 158.2 256.35 157.15 255.25 155.6 254.75
L 155.65 254.75
M 152.4 255.85
Q 153.95 255.85 155.1 256.25 156.25 256.65 157.05 257.45 157.6 258 157.95 258.8 158.2 259.6 158.2 261.15
L 158.2 263.8 154.45 263.8 154.45 261.55
Q 154.45 258.95 152.25 258.95 150.95 258.95 150.4 259.7 149.85 260.45 149.85 262.1 149.85 263.75 150.5 264.9 151.3 266.35 153.95 269.1 156.85 272.15 157.7 273.75 158.55 275.35 158.55 278.05 158.55 281.5 157.1 283.25 155.5 285.1 152 285.1 149.15 285.1 147.55 283.9 145.85 282.6 145.85 279.95
L 145.85 276.55 149.85 276.55 149.85 278.9
Q 149.85 282 152.15 282 153.6 282 154.25 281.05 154.75 280.25 154.75 278.7 154.75 276.7 154.2 275.65 153.5 274.3 150.5 271.35 148.2 269.05 147.25 267.5 145.85 265.2 145.85 262.55 145.85 255.85 152.4 255.85
M 144.65 265.5
Q 145.05 266.95 145.9 268.35 146.9 270 149.35 272.5 152.1 275.15 152.8 276.4 153.15 277.2 153.15 278.7 153.15 279.65 152.95 280.15 152.65 280.4 152.15 280.4 151.45 280.25 151.45 278.9
L 151.45 276.55
Q 151.45 275.85 151 275.4 150.55 274.95 149.85 274.95
L 145.85 274.95
Q 145.4 274.95 145.05 275.15 144.7 274.95 144.3 274.95
L 140.55 274.95
Q 139.85 274.95 139.4 275.45 138.95 275.9 138.95 276.55
L 138.95 278.55
Q 138.95 279.65 138.6 280.2 138.45 280.45 138.1 280.4 137.9 280.4 137.8 280.4 137.75 280.35 137.75 280.3 137.35 279.65 137.35 278
L 137.35 263.9
Q 137.35 261.75 137.75 260.75 137.9 260.55 138.25 260.55 138.5 260.55 138.65 260.65 138.7 260.65 138.7 260.7 138.95 261.15 138.95 261.95
L 138.95 263.95
Q 138.95 264.6 139.4 265.1 139.85 265.55 140.55 265.55
L 144.3 265.55
Q 144.5 265.55 144.65 265.5
M 151.45 262.1
Q 151.45 261.15 151.7 260.7 151.85 260.55 152.25 260.55 152.85 260.7 152.85 261.55
L 152.85 263.8
Q 152.85 264.5 153.35 264.95 153.75 265.4 154.45 265.4
L 158.2 265.4
Q 158.8 265.4 159.3 265 159.7 266.75 160.65 268.35 161.65 270 164.15 272.5 166.85 275.15 167.55 276.4 167.95 277.2 167.95 278.7 167.95 279.65 167.7 280.15 167.4 280.4 166.9 280.4 166.2 280.25 166.2 278.9
L 166.2 276.55
Q 166.2 275.85 165.75 275.4 165.3 274.95 164.6 274.95
L 160.6 274.95
Q 160.2 274.95 159.85 275.15 159.6 273.9 159.1 273
L 159.15 273.05
Q 158.2 271.3 155.1 268 152.65 265.45 151.9 264.15 151.45 263.3 151.45 262.1
M 144.3 261.1
L 144.3 263.95 140.55 263.95 140.55 261.95
Q 140.55 260.5 139.95 259.75 139.45 258.95 138.25 258.95 136.75 258.95 136.25 260.05 135.75 261.2 135.75 263.9
L 135.75 278
Q 135.75 280.35 136.45 281.3 136.95 282 138.1 282 139.25 282 139.9 281.15 140.55 280.3 140.55 278.55
L 140.55 276.55 144.3 276.55 144.3 279.75
Q 144.3 282.3 143.1 283.55 141.65 285.1 138.4 285.1 134.8 285.1 133.2 283.25 131.75 281.55 131.75 277.95
L 131.75 263.4
Q 131.75 259.95 133.1 258.15 134.75 255.85 138.5 255.85 141.4 255.85 142.85 257.2 144.3 258.6 144.3 261.1
M 160.6 279.95
L 160.6 276.55 164.6 276.55 164.6 278.9
Q 164.6 282 166.9 282 168.35 282 169 281.05 169.55 280.25 169.55 278.7 169.55 276.7 168.95 275.65 168.25 274.3 165.25 271.35 162.95 269.05 162 267.5 160.6 265.2 160.6 262.55 160.6 255.85 167.15 255.85 168.75 255.85 169.85 256.25 171 256.65 171.8 257.45 172.35 258 172.7 258.8 172.95 259.6 172.95 261.15
L 172.95 263.8 169.2 263.8 169.2 261.55
Q 169.2 258.95 167 258.95 165.75 258.95 165.15 259.7 164.6 260.45 164.6 262.1 164.6 263.75 165.25 264.9 166.05 266.35 168.7 269.1 171.6 272.15 172.45 273.75 173.3 275.35 173.3 278.05 173.3 281.5 171.85 283.25 170.25 285.1 166.75 285.1 163.9 285.1 162.35 283.9 160.6 282.6 160.6 279.95 Z"/>

<path fill="#CCCCCC" stroke="none" d="
M 160.6 276.55
L 160.6 279.95
Q 160.6 282.6 162.35 283.9 163.9 285.1 166.75 285.1 170.25 285.1 171.85 283.25 173.3 281.5 173.3 278.05 173.3 275.35 172.45 273.75 171.6 272.15 168.7 269.1 166.05 266.35 165.25 264.9 164.6 263.75 164.6 262.1 164.6 260.45 165.15 259.7 165.75 258.95 167 258.95 169.2 258.95 169.2 261.55
L 169.2 263.8 172.95 263.8 172.95 261.15
Q 172.95 259.6 172.7 258.8 172.35 258 171.8 257.45 171 256.65 169.85 256.25 168.75 255.85 167.15 255.85 160.6 255.85 160.6 262.55 160.6 265.2 162 267.5 162.95 269.05 165.25 271.35 168.25 274.3 168.95 275.65 169.55 276.7 169.55 278.7 169.55 280.25 169 281.05 168.35 282 166.9 282 164.6 282 164.6 278.9
L 164.6 276.55 160.6 276.55
M 144.3 263.95
L 144.3 261.1
Q 144.3 258.6 142.85 257.2 141.4 255.85 138.5 255.85 134.75 255.85 133.1 258.15 131.75 259.95 131.75 263.4
L 131.75 277.95
Q 131.75 281.55 133.2 283.25 134.8 285.1 138.4 285.1 141.65 285.1 143.1 283.55 144.3 282.3 144.3 279.75
L 144.3 276.55 140.55 276.55 140.55 278.55
Q 140.55 280.3 139.9 281.15 139.25 282 138.1 282 136.95 282 136.45 281.3 135.75 280.35 135.75 278
L 135.75 263.9
Q 135.75 261.2 136.25 260.05 136.75 258.95 138.25 258.95 139.45 258.95 139.95 259.75 140.55 260.5 140.55 261.95
L 140.55 263.95 144.3 263.95
M 155.1 256.25
Q 153.95 255.85 152.4 255.85 145.85 255.85 145.85 262.55 145.85 265.2 147.25 267.5 148.2 269.05 150.5 271.35 153.5 274.3 154.2 275.65 154.75 276.7 154.75 278.7 154.75 280.25 154.25 281.05 153.6 282 152.15 282 149.85 282 149.85 278.9
L 149.85 276.55 145.85 276.55 145.85 279.95
Q 145.85 282.6 147.55 283.9 149.15 285.1 152 285.1 155.5 285.1 157.1 283.25 158.55 281.5 158.55 278.05 158.55 275.35 157.7 273.75 156.85 272.15 153.95 269.1 151.3 266.35 150.5 264.9 149.85 263.75 149.85 262.1 149.85 260.45 150.4 259.7 150.95 258.95 152.25 258.95 154.45 258.95 154.45 261.55
L 154.45 263.8 158.2 263.8 158.2 261.15
Q 158.2 259.6 157.95 258.8 157.6 258 157.05 257.45 156.25 256.65 155.1 256.25 Z"/>
</g>
</defs>

<g transform="matrix( 7.2000732421875, 0, 0, 7.2000732421875, 0,0) ">
<g transform="matrix( 1, 0, 0, 1, 0,0) ">
<use xlink:href="#pop_0_Layer5_0_FILL"/>
</g>

<g transform="matrix( 1, 0, 0, 1, 0,0) ">
<use xlink:href="#pop_0_Layer4_0_FILL"/>
</g>

<g transform="matrix( 1, 0, 0, 1, 0,0) ">
<use xlink:href="#pop_0_Layer3_0_FILL"/>
</g>

<g transform="matrix( 1, 0, 0, 1, 0,0) ">
<use xlink:href="#pop_0_Layer2_0_FILL"/>
</g>

<g transform="matrix( 1, 0, 0, 1, 0,0) ">
<use xlink:href="#pop_0_Layer1_0_FILL"/>
</g>

<g transform="matrix( 1, 0, 0, 1, 0,0) ">
<use xlink:href="#pop_0_Layer0_0_FILL"/>
</g>
</g>

<g transform="matrix( 1, 0, 0, 1, -123,-240.95) ">
<use xlink:href="#Layer0_0_MEMBER_1_FILL"/>
</g>
</svg>
