
<svg xmlns="http://www.w3.org/2000/svg" version="1.1" xmlns:xlink="http://www.w3.org/1999/xlink" preserveAspectRatio="none" x="0px" y="0px" width="550px" height="100px" viewBox="0 0 550 100">
<defs>
<g id="Layer1_0_FILL">
<path fill="#000000" fill-opacity="0.5019607843137255" stroke="none" d="
M 545.45 49.2
Q 545.45 28.8 531 14.4 516.65 0 496.25 0
L 49.2 0
Q 28.8 0 14.35 14.4 0 28.8 0 49.2 0 69.6 14.35 84 28.8 98.4 49.2 98.4
L 496.25 98.4
Q 516.65 98.4 531 84 545.45 69.6 545.45 49.2 Z"/>
</g>

<g id="pop_0_Layer5_0_FILL">
<path fill="#0C0A80" fill-opacity="0.2" stroke="none" d="
M 7.25 6.1
Q 7.75 5.2 7.85 4.45 7.85 4.3 7.85 4 7.7 2.15 6.05 1.6 4.15 1.1 3 2.6 1.9 4.15 3.45 5.9 4.7 7.3 2.95 7.8 3.1 7.95 3.7 7.95 3.75 7.95 3.85 7.95 4.5 8 5.5 7.6 6.7 7 7.25 6.1 Z"/>
</g>

<g id="pop_0_Layer4_0_FILL">
<path fill="#0C0A80" fill-opacity="0.2" stroke="none" d="
M 4.85 5.25
Q 4.85 4.4 4.25 3.75 3.65 3.15 2.8 3.15 1.95 3.15 1.35 3.75 0.7 4.4 0.7 5.25 0.7 6.1 1.35 6.7 1.95 7.3 2.8 7.3 3.65 7.3 4.25 6.7 4.85 6.1 4.85 5.25 Z"/>
</g>

<g id="pop_0_Layer3_0_FILL">
<path fill="#0C0A80" fill-opacity="0.2" stroke="none" d="
M 7.05 2.25
Q 7.05 1.6 6.6 1.15 6.15 0.7 5.5 0.7 4.85 0.7 4.4 1.15 3.95 1.6 3.95 2.25 3.95 2.9 4.4 3.35 4.85 3.8 5.5 3.8 6.15 3.8 6.6 3.35 7.05 2.9 7.05 2.25 Z"/>
</g>

<g id="pop_0_Layer2_0_FILL">
<path fill="#FFFFFF" fill-opacity="0.30196078431372547" stroke="none" d="
M 8.2 4.1
Q 8.2 2.4 7 1.2 5.8 0 4.1 0 2.4 0 1.2 1.2 0 2.4 0 4.1 0 5.8 1.2 7 2.4 8.2 4.1 8.2 5.8 8.2 7 7 8.2 5.8 8.2 4.1 Z"/>
</g>

<g id="pop_0_Layer1_0_FILL">
<path fill="#FFFFFF" fill-opacity="0.5019607843137255" stroke="none" d="
M 2.1 6.2
Q 3.7 5.95 2.65 3.7 1.9 1.2 4.2 0.3 3.65 0.35 3 0.55 1.7 1.1 1.1 1.9 0.5 2.75 0.4 3.5 0.35 3.65 0.35 3.95 0.4 6.2 2.1 6.2 Z"/>
</g>

<g id="pop_0_Layer0_0_FILL">
<path fill="#FFFFFF" fill-opacity="0.5019607843137255" stroke="none" d="
M 6.9 1.85
Q 6.9 1.45 6.65 1.2 6.35 0.9 6 0.9 5.6 0.9 5.35 1.2 5.05 1.45 5.05 1.85 5.05 2.2 5.35 2.5 5.6 2.75 6 2.75 6.35 2.75 6.65 2.5 6.9 2.2 6.9 1.85 Z"/>
</g>

<g id="Layer1_1_MEMBER_1_FILL">
<path fill="#FFFFFF" stroke="none" d="
M 66.75 22.75
Q 59.7 15.75 49.7 15.75 39.65 15.75 32.6 22.85 25.5 29.9 25.5 39.95 25.5 49.95 32.5 57 32.55 57.05 32.6 57.1 33.8 58.3 35.1 59.3
L 35.05 80.9
Q 35.05 82.15 35.95 83.05 36.8 83.9 38.05 83.9 39.3 83.9 40.2 83.05
L 49.7 73.55 59.25 83.1
Q 60.1 83.95 61.35 83.95 62.6 83.95 63.5 83.1 64.35 82.2 64.35 80.95
L 64.35 59.3
Q 65.65 58.25 66.85 57.1 73.9 50 73.9 39.95 73.9 29.9 66.85 22.85 66.8 22.8 66.75 22.75 Z"/>
</g>

<g id="Layer1_1_MEMBER_1_MEMBER_0_FILL">
<path fill="#B84F4F" stroke="none" d="
M 38.1 53.7
L 38.05 80.9 49.6 69.4 49.6 42.2 38.1 53.7 Z"/>

<path fill="#A12C2C" stroke="none" d="
M 49.7 42.1
L 49.6 42.2 49.6 69.4 49.7 69.3 61.35 80.95 61.35 53.75 49.7 42.1 Z"/>
</g>

<g id="Layer1_1_MEMBER_1_MEMBER_1_FILL">
<path fill="#FFCC00" stroke="none" d="
M 58.9 30.6
Q 55.1 26.85 49.7 26.85 44.2 26.85 40.4 30.65 36.55 34.5 36.55 39.95 36.55 45.35 40.3 49.15
L 58.9 30.6 Z"/>

<path fill="#C59E00" stroke="none" d="
M 58.95 49.25
Q 62.8 45.4 62.8 39.95 62.8 34.5 58.95 30.65
L 58.9 30.6 40.3 49.15
Q 40.35 49.2 40.4 49.25 44.2 53.05 49.7 53.05 55.15 53.05 58.95 49.25
M 64.6 24.85
Q 58.45 18.75 49.7 18.75 40.9 18.75 34.7 24.95 28.5 31.15 28.5 39.95 28.5 48.7 34.6 54.85
L 40.3 49.15
Q 36.55 45.35 36.55 39.95 36.55 34.5 40.4 30.65 44.2 26.85 49.7 26.85 55.1 26.85 58.9 30.6
L 64.6 24.85 Z"/>

<path fill="#957800" stroke="none" d="
M 62.8 39.95
Q 62.8 45.4 58.95 49.25 55.15 53.05 49.7 53.05 44.2 53.05 40.4 49.25 40.35 49.2 40.3 49.15
L 34.6 54.85
Q 34.65 54.9 34.7 54.95 40.9 61.15 49.7 61.15 58.5 61.15 64.7 54.95 70.9 48.75 70.9 39.95 70.9 31.15 64.7 24.95 64.65 24.9 64.6 24.85
L 58.9 30.6 58.95 30.65
Q 62.8 34.5 62.8 39.95 Z"/>
</g>

<g id="Layer0_0_FILL">
<path fill="#FFFFFF" stroke="none" d="
M 300.3 72.15
L 297.4 72.15 295 76.75 294.95 76.75 294.55 72.15 291.9 72.15 293.3 79.4 295.75 79.4 300.3 72.15
M 291.05 72.15
L 288.25 72.15 286.7 79.4 289.5 79.4 291.05 72.15
M 291.6 69.4
L 288.85 69.4 288.45 71.3 291.2 71.3 291.6 69.4
M 313.65 69.4
L 310.9 69.4 308.75 79.4 311.55 79.4 313.65 69.4
M 304.3 73.6
Q 304.75 73.6 305.05 73.8 305.3 73.95 305.3 74.2 305.3 74.4 305.2 74.7 304.8 74.85 303.6 74.95 302.25 75.1 301.45 75.3 300.65 75.45 300.15 75.95 299.6 76.45 299.6 77.45 299.6 78.3 300.2 78.95 300.8 79.55 302.15 79.55 303.5 79.55 304.6 78.55 304.6 78.95 304.7 79.4
L 307.4 79.4
Q 307.25 78.9 307.25 78.4 307.25 77.8 307.6 76.35 307.95 74.75 307.95 74.1 307.95 73.05 307.25 72.5 306.45 72 304.35 72 302.45 72 301.55 72.55 300.65 73.1 300.4 74.15
L 303 74.4
Q 303.2 73.9 303.5 73.75 303.8 73.6 304.3 73.6
M 302.3 77.3
Q 302.3 76.95 302.65 76.7 303 76.45 304.9 76.15 304.75 77.2 304.2 77.65 303.7 78.05 303.15 78.05 302.8 78.05 302.55 77.85 302.3 77.65 302.3 77.3
M 281 74.15
L 282 74.15 281.45 76.6
Q 281.25 77.55 281.25 77.8 281.25 78.45 281.75 79 282.25 79.55 283.4 79.55 284 79.55 285.25 79.4
L 285.7 77.4
Q 285 77.55 284.8 77.55 284.15 77.55 284.15 77.05 284.15 76.85 284.2 76.7
L 284.75 74.15 286.2 74.15 286.65 72.15 285.2 72.15 285.75 69.45 282.65 71 282.4 72.15 281.4 72.15 281 74.15
M 275.4 74.1
Q 275.4 73.9 275.65 73.7 275.9 73.5 276.45 73.5 277.3 73.5 277.4 74.15
L 280 73.9
Q 279.8 72.85 279.05 72.4 278.25 72 276.8 72 275.55 72 274.65 72.35 273.8 72.7 273.35 73.3 272.95 73.9 272.95 74.55 272.95 75.3 273.5 75.85 274.1 76.35 275.7 76.6 276.4 76.7 276.65 76.8 276.9 76.95 276.9 77.25 276.9 77.65 276.55 77.85 276.2 78.05 275.75 78.05 274.75 78.05 274.6 77.15
L 271.85 77.4
Q 271.95 78.55 272.8 79.05 273.6 79.55 275.3 79.55 277.45 79.55 278.5 78.8 279.55 78 279.55 76.85 279.55 76.05 279 75.6 278.45 75.1 276.85 74.85 275.85 74.7 275.65 74.55 275.4 74.4 275.4 74.1
M 220.55 72.15
L 217.75 72.15 216.2 79.4 219 79.4 220.55 72.15
M 220.7 71.3
L 221.1 69.4 218.35 69.4 217.95 71.3 220.7 71.3
M 210.5 74.15
L 211.5 74.15 210.95 76.6
Q 210.75 77.55 210.75 77.8 210.75 78.45 211.25 79 211.75 79.55 212.9 79.55 213.5 79.55 214.75 79.4
L 215.2 77.4
Q 214.5 77.55 214.3 77.55 213.65 77.55 213.65 77.05 213.65 76.85 213.7 76.7
L 214.25 74.15 215.7 74.15 216.15 72.15 214.7 72.15 215.25 69.45 212.15 71 211.9 72.15 210.9 72.15 210.5 74.15
M 207.25 72.15
L 204.65 72.15 203.1 79.4 205.9 79.4 206.5 76.7
Q 206.75 75.4 207.25 74.85 207.75 74.25 208.55 74.25 208.8 74.25 209.15 74.35
L 210.15 72.2
Q 209.65 72 209.2 72 208.6 72 208.1 72.3 207.6 72.65 206.95 73.6
L 207.25 72.15
M 233.7 72.15
L 230.9 72.15 229.35 79.4 232.15 79.4 233.7 72.15
M 237.85 73.25
L 238.1 72.15 235.5 72.15 233.9 79.4 236.7 79.4 237.4 76.25
Q 237.65 75.15 238.1 74.6 238.55 74 239.15 74 239.7 74 239.7 74.6 239.7 74.8 239.45 76.05
L 238.75 79.4 241.55 79.4 242.35 75.45
Q 242.65 74.15 242.65 73.7 242.65 73 242.15 72.5 241.65 72 240.65 72 239 72 237.85 73.25
M 231.5 69.4
L 231.1 71.3 233.85 71.3 234.25 69.4 231.5 69.4
M 224.25 74.1
Q 224.25 73.9 224.5 73.7 224.75 73.5 225.3 73.5 226.15 73.5 226.25 74.15
L 228.85 73.9
Q 228.65 72.85 227.9 72.4 227.1 72 225.65 72 224.4 72 223.5 72.35 222.65 72.7 222.2 73.3 221.8 73.9 221.8 74.55 221.8 75.3 222.35 75.85 222.95 76.35 224.55 76.6 225.25 76.7 225.5 76.8 225.75 76.95 225.75 77.25 225.75 77.65 225.4 77.85 225.05 78.05 224.6 78.05 223.6 78.05 223.45 77.15
L 220.7 77.4
Q 220.8 78.55 221.65 79.05 222.45 79.55 224.15 79.55 226.3 79.55 227.35 78.8 228.4 78 228.4 76.85 228.4 76.05 227.85 75.6 227.3 75.1 225.7 74.85 224.7 74.7 224.5 74.55 224.25 74.4 224.25 74.1
M 252.35 72.15
L 249.8 72.15 249.55 73.15
Q 248.7 72 247.35 72 245.75 72 244.75 73.25 243.7 74.55 243.7 76.25 243.7 77.55 244.35 78.35 245 79.15 246.1 79.15 247.35 79.15 248.25 78.15
L 248.3 78.2 248.05 79.3
Q 247.9 80 247.55 80.35 247.25 80.7 246.75 80.7 245.95 80.7 245.9 79.95
L 243.25 79.55
Q 243.25 79.65 243.25 79.9 243.25 80.65 243.75 81.3 244.25 81.95 244.95 82.15 245.6 82.35 246.85 82.35 248.65 82.35 249.55 81.65 250.5 81 250.9 78.95
L 252.35 72.15
M 248 73.85
Q 248.4 73.85 248.65 74.1 248.95 74.4 248.95 74.85 248.95 75.6 248.55 76.45 248.15 77.25 247.4 77.25 246.95 77.25 246.7 76.95 246.4 76.7 246.4 76.15 246.4 75.3 246.9 74.55 247.35 73.85 248 73.85
M 266 72.2
Q 265.3 72.4 264.55 72.95 263.85 73.55 263.4 74.4 263 75.25 263 76.25 263 77.65 263.9 78.6 264.8 79.55 266.95 79.55 268.45 79.55 269.4 79.1 270.4 78.6 271 77.55
L 268.3 77.3
Q 267.85 77.95 267 77.95 265.85 77.95 265.7 76.5
L 271.25 76.5
Q 271.45 75.45 271.45 75.05 271.45 73.75 270.55 72.85 269.65 72 267.65 72 266.7 72 266 72.2
M 266.65 74
Q 267.05 73.6 267.55 73.6 268.05 73.6 268.4 73.9 268.7 74.15 268.7 74.7 268.7 75 268.65 75.15
L 265.95 75.15
Q 266.2 74.4 266.65 74
M 263.75 71.15
L 264.2 69.5
Q 262.8 69.2 261.85 69.2 261.2 69.2 260.75 69.35 260.25 69.5 259.95 69.8 259.65 70.15 259.5 70.5 259.4 70.9 259.15 72.15
L 258.1 72.15 257.7 74.15 258.7 74.15 257.55 79.4 260.4 79.4 261.5 74.15 262.8 74.15 263.2 72.15 261.9 72.15
Q 262.1 71.3 262.3 71.15 262.45 71 262.75 71 263.2 71 263.75 71.15
M 130 72.15
L 127.4 72.15 125.8 79.4 128.6 79.4 129.3 76.25
Q 129.55 75.15 130 74.6 130.45 74 131.05 74 131.6 74 131.6 74.6 131.6 74.8 131.35 76.05
L 130.65 79.4 133.45 79.4 134.25 75.45
Q 134.55 74.15 134.55 73.7 134.55 73 134.05 72.5 133.55 72 132.55 72 130.9 72 129.75 73.25
L 130 72.15
M 161 72.4
Q 160.2 72 158.75 72 157.5 72 156.6 72.35 155.75 72.7 155.3 73.3 154.9 73.9 154.9 74.55 154.9 75.3 155.45 75.85 156.05 76.35 157.65 76.6 158.35 76.7 158.6 76.8 158.85 76.95 158.85 77.25 158.85 77.65 158.5 77.85 158.15 78.05 157.7 78.05 156.7 78.05 156.55 77.15
L 153.8 77.4
Q 153.9 78.55 154.75 79.05 155.55 79.55 157.25 79.55 159.4 79.55 160.45 78.8 161.5 78 161.5 76.85 161.5 76.05 160.95 75.6 160.4 75.1 158.8 74.85 157.8 74.7 157.6 74.55 157.35 74.4 157.35 74.1 157.35 73.9 157.6 73.7 157.85 73.5 158.4 73.5 159.25 73.5 159.35 74.15
L 161.95 73.9
Q 161.75 72.85 161 72.4
M 143.9 73.7
Q 143.9 73 143.4 72.5 142.9 72 141.9 72 140.25 72 139.1 73.25
L 139.35 72.15 136.75 72.15 135.15 79.4 137.95 79.4 138.65 76.25
Q 138.9 75.15 139.35 74.6 139.8 74 140.4 74 140.95 74 140.95 74.6 140.95 74.8 140.7 76.05
L 140 79.4 142.8 79.4 143.6 75.45
Q 143.9 74.15 143.9 73.7
M 149.6 72
Q 148.65 72 147.95 72.2 147.25 72.4 146.5 72.95 145.8 73.55 145.35 74.4 144.95 75.25 144.95 76.25 144.95 77.65 145.85 78.6 146.75 79.55 148.9 79.55 150.4 79.55 151.35 79.1 152.35 78.6 152.95 77.55
L 150.25 77.3
Q 149.8 77.95 148.95 77.95 147.8 77.95 147.65 76.5
L 153.2 76.5
Q 153.4 75.45 153.4 75.05 153.4 73.75 152.5 72.85 151.6 72 149.6 72
M 149.5 73.6
Q 150 73.6 150.35 73.9 150.65 74.15 150.65 74.7 150.65 75 150.6 75.15
L 147.9 75.15
Q 148.15 74.4 148.6 74 149 73.6 149.5 73.6
M 171.2 73.75
Q 171.5 73.6 172 73.6 172.45 73.6 172.75 73.8 173 73.95 173 74.2 173 74.4 172.9 74.7 172.5 74.85 171.3 74.95 169.95 75.1 169.15 75.3 168.35 75.45 167.85 75.95 167.3 76.45 167.3 77.45 167.3 78.3 167.9 78.95 168.5 79.55 169.85 79.55 171.2 79.55 172.3 78.55 172.3 78.95 172.4 79.4
L 175.1 79.4
Q 174.95 78.9 174.95 78.4 174.95 77.8 175.3 76.35 175.65 74.75 175.65 74.1 175.65 73.05 174.95 72.5 174.15 72 172.05 72 170.15 72 169.25 72.55 168.35 73.1 168.1 74.15
L 170.7 74.4
Q 170.9 73.9 171.2 73.75
M 170 77.3
Q 170 76.95 170.35 76.7 170.7 76.45 172.6 76.15 172.45 77.2 171.9 77.65 171.4 78.05 170.85 78.05 170.5 78.05 170.25 77.85 170 77.65 170 77.3
M 201.75 72.85
Q 200.85 72 198.85 72 197.9 72 197.2 72.2 196.5 72.4 195.75 72.95 195.05 73.55 194.6 74.4 194.2 75.25 194.2 76.25 194.2 77.65 195.1 78.6 196 79.55 198.15 79.55 199.65 79.55 200.6 79.1 201.6 78.6 202.2 77.55
L 199.5 77.3
Q 199.05 77.95 198.2 77.95 197.05 77.95 196.9 76.5
L 202.45 76.5
Q 202.65 75.45 202.65 75.05 202.65 73.75 201.75 72.85
M 198.75 73.6
Q 199.25 73.6 199.6 73.9 199.9 74.15 199.9 74.7 199.9 75 199.85 75.15
L 197.15 75.15
Q 197.4 74.4 197.85 74 198.25 73.6 198.75 73.6
M 183.35 69.4
L 182.55 73.1
Q 181.8 71.95 180.25 71.95 178.75 71.95 177.8 73.35 176.8 74.7 176.8 76.55 176.8 77.95 177.45 78.75 178.1 79.55 179.35 79.55 180 79.55 180.45 79.4 180.95 79.2 181.5 78.65
L 181.55 78.7 181.4 79.4 184 79.4 186.15 69.4 183.35 69.4
M 181 73.85
Q 181.4 73.85 181.75 74.15 182.05 74.5 182.05 75.1 182.05 76 181.65 76.9 181.25 77.75 180.45 77.75 180.05 77.75 179.75 77.4 179.5 77.1 179.5 76.5 179.5 75.4 179.95 74.6 180.4 73.85 181 73.85
M 189 72.15
L 186.35 72.15 187.75 79.4 190.2 79.4 194.75 72.15 191.85 72.15 189.45 76.75 189.4 76.75 189 72.15
M 120.65 73.75
Q 120.95 73.6 121.45 73.6 121.9 73.6 122.2 73.8 122.45 73.95 122.45 74.2 122.45 74.4 122.35 74.7 121.95 74.85 120.75 74.95 119.4 75.1 118.6 75.3 117.8 75.45 117.3 75.95 116.75 76.45 116.75 77.45 116.75 78.3 117.35 78.95 117.95 79.55 119.3 79.55 120.65 79.55 121.75 78.55 121.75 78.95 121.85 79.4
L 124.55 79.4
Q 124.4 78.9 124.4 78.4 124.4 77.8 124.75 76.35 125.1 74.75 125.1 74.1 125.1 73.05 124.4 72.5 123.6 72 121.5 72 119.6 72 118.7 72.55 117.8 73.1 117.55 74.15
L 120.15 74.4
Q 120.35 73.9 120.65 73.75
M 119.45 77.3
Q 119.45 76.95 119.8 76.7 120.15 76.45 122.05 76.15 121.9 77.2 121.35 77.65 120.85 78.05 120.3 78.05 119.95 78.05 119.7 77.85 119.45 77.65 119.45 77.3
M 109.05 70.05
Q 107.75 70.9 107.1 72.4 106.4 73.85 106.4 75.35 106.4 77.25 107.55 78.4 108.7 79.55 110.85 79.55 112.95 79.55 114.25 78.5 115.5 77.45 115.95 75.9
L 113.05 75.45
Q 112.7 76.4 112.2 76.85 111.75 77.3 111 77.3 110.25 77.3 109.85 76.8 109.45 76.3 109.45 75.55 109.45 74.55 109.85 73.55 110.2 72.5 110.85 72 111.5 71.5 112.2 71.5 112.75 71.5 113.15 71.85 113.6 72.2 113.6 72.95
L 113.6 73 116.45 72.65
Q 116.3 71.1 115.2 70.15 114.1 69.2 112.2 69.2 110.35 69.2 109.05 70.05
M 294.15 54.75
Q 294.35 53.7 294.35 53.3 294.35 52 293.45 51.1 292.55 50.25 290.55 50.25 289.6 50.25 288.9 50.45 288.2 50.65 287.45 51.2 286.75 51.8 286.3 52.65 285.9 53.5 285.9 54.5 285.9 55.9 286.8 56.85 287.7 57.8 289.85 57.8 291.35 57.8 292.3 57.35 293.3 56.85 293.9 55.8
L 291.2 55.55
Q 290.75 56.2 289.9 56.2 288.75 56.2 288.6 54.75
L 294.15 54.75
M 291.55 53.4
L 288.85 53.4
Q 289.1 52.65 289.55 52.25 289.95 51.85 290.45 51.85 290.95 51.85 291.3 52.15 291.6 52.4 291.6 52.95 291.6 53.25 291.55 53.4
M 308.15 54.75
Q 308.35 53.7 308.35 53.3 308.35 52 307.45 51.1 306.55 50.25 304.55 50.25 303.6 50.25 302.9 50.45 302.2 50.65 301.45 51.2 300.75 51.8 300.3 52.65 299.9 53.5 299.9 54.5 299.9 55.9 300.8 56.85 301.7 57.8 303.85 57.8 305.35 57.8 306.3 57.35 307.3 56.85 307.9 55.8
L 305.2 55.55
Q 304.75 56.2 303.9 56.2 302.75 56.2 302.6 54.75
L 308.15 54.75
M 304.45 51.85
Q 304.95 51.85 305.3 52.15 305.6 52.4 305.6 52.95 305.6 53.25 305.55 53.4
L 302.85 53.4
Q 303.1 52.65 303.55 52.25 303.95 51.85 304.45 51.85
M 317.45 52.35
Q 317.45 51.3 316.75 50.75 315.95 50.25 313.85 50.25 311.95 50.25 311.05 50.8 310.15 51.35 309.9 52.4
L 312.5 52.65
Q 312.7 52.15 313 52 313.3 51.85 313.8 51.85 314.25 51.85 314.55 52.05 314.8 52.2 314.8 52.45 314.8 52.65 314.7 52.95 314.3 53.1 313.1 53.2 311.75 53.35 310.95 53.55 310.15 53.7 309.65 54.2 309.1 54.7 309.1 55.7 309.1 56.55 309.7 57.2 310.3 57.8 311.65 57.8 313 57.8 314.1 56.8 314.1 57.2 314.2 57.65
L 316.9 57.65
Q 316.75 57.15 316.75 56.65 316.75 56.05 317.1 54.6 317.45 53 317.45 52.35
M 311.8 55.55
Q 311.8 55.2 312.15 54.95 312.5 54.7 314.4 54.4 314.25 55.45 313.7 55.9 313.2 56.3 312.65 56.3 312.3 56.3 312.05 56.1 311.8 55.9 311.8 55.55
M 263 50.4
L 260.55 55.45 260.5 55.45 260.15 50.4 257.4 50.4 258.8 57.65
Q 258.3 58.6 257.5 58.6 257.05 58.6 256.6 58.45
L 256.35 60.3
Q 257.35 60.6 258.4 60.6 259.3 60.6 259.95 60.2 260.55 59.75 261.2 58.55
L 265.8 50.4 263 50.4
M 281.05 47.65
L 278.3 47.65 276.1 57.65 278.9 57.65 279.6 54.5
Q 279.85 53.4 280.3 52.85 280.75 52.25 281.35 52.25 281.9 52.25 281.9 52.85 281.9 53.05 281.65 54.3
L 280.95 57.65 283.75 57.65 284.55 53.7
Q 284.85 52.4 284.85 51.95 284.85 51.25 284.35 50.75 283.85 50.25 282.9 50.25 281.3 50.25 280.3 51.3
L 280.3 51.25 281.05 47.65
M 275.25 47.7
L 272.15 49.25 271.9 50.4 270.9 50.4 270.5 52.4 271.5 52.4 270.95 54.85
Q 270.75 55.8 270.75 56.05 270.75 56.7 271.25 57.25 271.75 57.8 272.9 57.8 273.5 57.8 274.75 57.65
L 275.2 55.65
Q 274.5 55.8 274.3 55.8 273.65 55.8 273.65 55.3 273.65 55.1 273.7 54.95
L 274.25 52.4 275.7 52.4 276.15 50.4 274.7 50.4 275.25 47.7
M 324.2 52.6
L 325.2 50.45
Q 324.7 50.25 324.25 50.25 323.65 50.25 323.15 50.55 322.65 50.9 322 51.85
L 322.3 50.4 319.7 50.4 318.15 57.65 320.95 57.65 321.55 54.95
Q 321.8 53.65 322.3 53.1 322.8 52.5 323.6 52.5 323.85 52.5 324.2 52.6
M 338.55 50.4
L 335.75 50.4 333.3 55.45 333.25 55.45 332.9 50.4 330.15 50.4 331.55 57.65
Q 331.05 58.6 330.25 58.6 329.8 58.6 329.35 58.45
L 329.1 60.3
Q 330.1 60.6 331.15 60.6 332.05 60.6 332.7 60.2 333.3 59.75 333.95 58.55
L 338.55 50.4
M 329.7 47.65
L 326.95 47.65 324.8 57.65 327.6 57.65 329.7 47.65
M 214.7 57.65
L 217.5 57.65 219.05 50.4 216.25 50.4 214.7 57.65
M 232.55 55
L 229.95 54.7
Q 229.4 55.95 228.3 55.95 227.85 55.95 227.45 55.65 227.05 55.3 227.05 54.7 227.05 53.75 227.6 52.95 228.15 52.1 229.2 52.1 230.3 52.1 230.45 53.05
L 232.95 52.9
Q 232.8 51.6 231.8 50.9 230.85 50.25 229.2 50.25 226.9 50.25 225.6 51.55 224.35 52.85 224.35 54.7 224.35 57.8 228.2 57.8 231.6 57.8 232.55 55
M 240.3 50.45
Q 239.8 50.25 239.35 50.25 238.75 50.25 238.25 50.55 237.75 50.9 237.1 51.85
L 237.4 50.4 234.8 50.4 233.25 57.65 236.05 57.65 236.65 54.95
Q 236.9 53.65 237.4 53.1 237.9 52.5 238.7 52.5 238.95 52.5 239.3 52.6
L 240.3 50.45
M 167 50.4
L 164.2 50.4 162.65 57.65 165.45 57.65 167 50.4
M 172.45 52.25
Q 173 52.25 173 52.85 173 53.05 172.75 54.3
L 172.05 57.65 174.85 57.65 175.65 53.7
Q 175.95 52.4 175.95 51.95 175.95 51.25 175.45 50.75 174.95 50.25 173.95 50.25 172.3 50.25 171.15 51.5
L 171.4 50.4 168.8 50.4 167.2 57.65 170 57.65 170.7 54.5
Q 170.95 53.4 171.4 52.85 171.85 52.25 172.45 52.25
M 200.8 50.4
L 200.15 53.55
Q 199.9 54.6 199.45 55.2 199 55.75 198.35 55.75 197.8 55.75 197.8 55.2
L 197.8 55.15
Q 197.8 54.95 197.85 54.85 197.85 54.7 198.05 53.95
L 198.8 50.4 196 50.4 195.15 54.3
Q 194.9 55.6 194.9 56.1 194.9 56.8 195.4 57.3 195.85 57.8 196.85 57.8 198.55 57.8 199.65 56.5
L 199.7 56.55 199.45 57.65 202.05 57.65 203.6 50.4 200.8 50.4
M 187.25 47.65
L 183.45 47.65 181.3 57.65 183.9 57.65 185.35 50 185.8 57.65 188.1 57.65 191.8 50 191.85 50 190 57.65 192.55 57.65 194.7 47.65 190.8 47.65 187.65 54 187.6 54 187.25 47.65
M 167.55 47.65
L 164.8 47.65 164.4 49.55 167.15 49.55 167.55 47.65
M 219.6 47.65
L 216.85 47.65 216.45 49.55 219.2 49.55 219.6 47.65
M 213.75 47.7
L 210.65 49.25 210.4 50.4 209.4 50.4 209 52.4 210 52.4 209.45 54.85
Q 209.25 55.8 209.25 56.05 209.25 56.7 209.75 57.25 210.25 57.8 211.4 57.8 212 57.8 213.25 57.65
L 213.7 55.65
Q 213 55.8 212.8 55.8 212.15 55.8 212.15 55.3 212.15 55.1 212.2 54.95
L 212.75 52.4 214.2 52.4 214.65 50.4 213.2 50.4 213.75 47.7
M 208.75 47.65
L 206 47.65 203.85 57.65 206.65 57.65 208.75 47.65
M 243.3 52.65
Q 243.5 52.15 243.8 52 244.1 51.85 244.6 51.85 245.05 51.85 245.35 52.05 245.6 52.2 245.6 52.45 245.6 52.65 245.5 52.95 245.1 53.1 243.9 53.2 242.55 53.35 241.75 53.55 240.95 53.7 240.45 54.2 239.9 54.7 239.9 55.7 239.9 56.55 240.5 57.2 241.1 57.8 242.45 57.8 243.8 57.8 244.9 56.8 244.9 57.2 245 57.65
L 247.7 57.65
Q 247.55 57.15 247.55 56.65 247.55 56.05 247.9 54.6 248.25 53 248.25 52.35 248.25 51.3 247.55 50.75 246.75 50.25 244.65 50.25 242.75 50.25 241.85 50.8 240.95 51.35 240.7 52.4
L 243.3 52.65
M 244.5 55.9
Q 244 56.3 243.45 56.3 243.1 56.3 242.85 56.1 242.6 55.9 242.6 55.55 242.6 55.2 242.95 54.95 243.3 54.7 245.2 54.4 245.05 55.45 244.5 55.9
M 256.4 52.05
L 256.75 50.4 250.25 50.4 249.85 52.3 253.15 52.3 249.1 56 248.75 57.65 255.55 57.65 255.95 55.75 252.45 55.75 256.4 52.05
M 161.5 54.6
Q 161.85 53 161.85 52.35 161.85 51.3 161.15 50.75 160.35 50.25 158.25 50.25 156.35 50.25 155.45 50.8 154.55 51.35 154.3 52.4
L 156.9 52.65
Q 157.1 52.15 157.4 52 157.7 51.85 158.2 51.85 158.65 51.85 158.95 52.05 159.2 52.2 159.2 52.45 159.2 52.65 159.1 52.95 158.7 53.1 157.5 53.2 156.15 53.35 155.35 53.55 154.55 53.7 154.05 54.2 153.5 54.7 153.5 55.7 153.5 56.55 154.1 57.2 154.7 57.8 156.05 57.8 157.4 57.8 158.5 56.8 158.5 57.2 158.6 57.65
L 161.3 57.65
Q 161.15 57.15 161.15 56.65 161.15 56.05 161.5 54.6
M 156.2 55.55
Q 156.2 55.2 156.55 54.95 156.9 54.7 158.8 54.4 158.65 55.45 158.1 55.9 157.6 56.3 157.05 56.3 156.7 56.3 156.45 56.1 156.2 55.9 156.2 55.55
M 152.9 52.6
L 153.9 50.45
Q 153.4 50.25 152.95 50.25 152.35 50.25 151.85 50.55 151.35 50.9 150.7 51.85
L 151 50.4 148.4 50.4 146.85 57.65 149.65 57.65 150.25 54.95
Q 150.5 53.65 151 53.1 151.5 52.5 152.3 52.5 152.55 52.5 152.9 52.6
M 142.2 47.45
Q 140.4 47.45 139 48.25 137.6 49 136.8 50.45 136.05 51.85 136.05 53.55 136.05 55.6 137.25 56.7 138.45 57.8 140.55 57.8 142.85 57.8 145.15 56.65
L 146.15 51.95 141.5 51.95 141.05 54.05 142.95 54.05 142.7 55.1
Q 142 55.6 141.05 55.6
L 141 55.6
Q 140.15 55.6 139.6 55.05 139.05 54.5 139.05 53.65 139.05 52.2 139.8 50.95 140.55 49.65 141.8 49.65 143.05 49.65 143.5 50.85
L 146.55 50.55
Q 145.75 47.45 142.2 47.45
M 130.35 50.4
L 127.55 50.4 126 57.65 128.8 57.65 130.35 50.4
M 130.9 47.65
L 128.15 47.65 127.75 49.55 130.5 49.55 130.9 47.65
M 126.25 47.65
L 123.5 47.65 121.35 57.65 124.15 57.65 126.25 47.65
M 118.45 49.55
L 121.2 49.55 121.6 47.65 118.85 47.65 118.45 49.55
M 121.05 50.4
L 118.25 50.4 116.7 57.65 119.5 57.65 121.05 50.4
M 117.8 47.65
L 114.2 47.65 111.65 51.35 110.1 47.65 106.85 47.65 109.85 53.8 109.05 57.65 112.15 57.65 112.95 53.85 117.8 47.65
M 189.8 23.15
Q 189.8 21.7 188.55 20.6 187.3 19.5 184.9 19.5 182.6 19.5 181.15 20.35 179.7 21.2 179 23.2
L 182.7 23.85
Q 183.05 21.95 184.55 21.95 185.95 21.95 185.95 23.35 185.95 25.45 183.6 25.45
L 183.3 25.45 182.8 28.05
Q 183.3 27.95 183.55 27.95 184.25 27.95 184.75 28.45 185.2 28.95 185.2 29.75 185.2 30.6 184.65 31.2 184.1 31.85 183.2 31.85 181.55 31.85 181.25 29.75
L 177.4 30.25
Q 177.55 32.1 178.95 33.2 180.3 34.3 182.85 34.3 185.25 34.3 186.55 33.45 187.85 32.6 188.45 31.65 189.05 30.65 189.05 29.6 189.05 27.6 187.1 26.65 189.8 25.5 189.8 23.15
M 175.4 19.5
L 172 19.5
Q 169.9 21.6 166.75 22.95
L 166 26.35
Q 168.5 25.75 170.3 24.65
L 168.25 34.05 172.25 34.05 175.4 19.5
M 162.5 29.5
Q 163.4 27.25 163.4 24.95 163.4 22.3 161.85 20.9 160.25 19.5 158.1 19.5 156.05 19.5 154.45 20.75 152.85 22.05 151.95 24.25 151.1 26.4 151.1 28.45 151.1 31.3 152.45 32.8 153.8 34.3 156.05 34.3 158.25 34.3 159.9 33 161.55 31.75 162.5 29.5
M 156.4 23.35
Q 157.1 22.15 158.05 22.15 158.8 22.15 159.2 22.7 159.55 23.25 159.55 24.15 159.55 25.35 159.2 27.3 158.8 29.25 158.1 30.45 157.4 31.6 156.45 31.6 154.9 31.6 154.9 29.5
L 154.9 29.45
Q 154.9 28.3 155.3 26.4 155.65 24.5 156.4 23.35
M 149.95 23.45
Q 149.95 21.75 148.65 20.6 147.4 19.5 144.8 19.5 142.3 19.5 140.75 20.55 139.2 21.65 138.85 23.75
L 142.75 24.3
Q 143.15 22.15 144.55 22.15 145.1 22.15 145.6 22.55 146.05 22.9 146.05 23.65 146.05 24.15 145.7 24.7 145.3 25.25 144.4 25.95
L 142.9 27
Q 140.5 28.75 139.2 30.3 137.9 31.85 137.5 34.05
L 148.45 34.05 149.15 30.8 143.5 30.8
Q 144.1 30.15 144.5 29.8 144.95 29.45 146.3 28.5 148.3 27.15 149.1 25.95 149.95 24.75 149.95 23.45
M 130.5 19.75
L 126.35 19.75 124.55 28.05 124.5 28.05 120.95 19.75 116.85 19.75 113.75 34.05 117.9 34.05 119.7 25.75 119.75 25.75 123.25 34.05 127.4 34.05 130.5 19.75
M 113.7 19.75
L 109.25 19.75 106.15 34.05 110.65 34.05 113.7 19.75 Z"/>
</g>
</defs>

<g transform="matrix( 1, 0, 0, 1, 0,0) ">
<use xlink:href="#Layer1_0_FILL"/>
</g>

<g transform="matrix( 10.800430297851562, 0, 0, 10.800430297851562, 5.45,4.6) ">
<g transform="matrix( 1, 0, 0, 1, 0,0) ">
<use xlink:href="#pop_0_Layer5_0_FILL"/>
</g>

<g transform="matrix( 1, 0, 0, 1, 0,0) ">
<use xlink:href="#pop_0_Layer4_0_FILL"/>
</g>

<g transform="matrix( 1, 0, 0, 1, 0,0) ">
<use xlink:href="#pop_0_Layer3_0_FILL"/>
</g>

<g transform="matrix( 1, 0, 0, 1, 0,0) ">
<use xlink:href="#pop_0_Layer2_0_FILL"/>
</g>

<g transform="matrix( 1, 0, 0, 1, 0,0) ">
<use xlink:href="#pop_0_Layer1_0_FILL"/>
</g>

<g transform="matrix( 1, 0, 0, 1, 0,0) ">
<use xlink:href="#pop_0_Layer0_0_FILL"/>
</g>
</g>

<g transform="matrix( 1, 0, 0, 1, 0,0) ">
<use xlink:href="#Layer1_1_MEMBER_1_FILL"/>
</g>

<g transform="matrix( 1, 0, 0, 1, 0,0) ">
<use xlink:href="#Layer1_1_MEMBER_1_MEMBER_0_FILL"/>
</g>

<g transform="matrix( 1, 0, 0, 1, 0,0) ">
<use xlink:href="#Layer1_1_MEMBER_1_MEMBER_1_FILL"/>
</g>

<g transform="matrix( 1, 0, 0, 1, 0,0) ">
<use xlink:href="#Layer0_0_FILL"/>
</g>
</svg>
