
<svg xmlns="http://www.w3.org/2000/svg" version="1.1" xmlns:xlink="http://www.w3.org/1999/xlink" preserveAspectRatio="none" x="0px" y="0px" width="300px" height="100px" viewBox="0 0 300 100">
<defs>
<g id="Layer1_0_FILL">
<path fill="#000000" fill-opacity="0.5019607843137255" stroke="none" d="
M 300 49.2
Q 300 28.8 285.55 14.4 271.2 0 250.8 0
L 49.2 0
Q 28.8 0 14.35 14.4 0 28.8 0 49.2 0 69.6 14.35 84 28.8 98.4 49.2 98.4
L 127.95 98.4
Q 128.15 98.5 128.4 98.5 128.6650390625 98.5 128.9 98.4
L 250.8 98.4
Q 271.2 98.4 285.55 84 300 69.6 300 49.2 Z"/>
</g>

<g id="pop_0_Layer5_0_FILL">
<path fill="#0C0A80" fill-opacity="0.2" stroke="none" d="
M 7.25 6.1
Q 7.75 5.2 7.85 4.45 7.85 4.3 7.85 4 7.7 2.15 6.05 1.6 4.15 1.1 3 2.6 1.9 4.15 3.45 5.9 4.7 7.3 2.95 7.8 3.1 7.95 3.7 7.95 3.75 7.95 3.85 7.95 4.5 8 5.5 7.6 6.7 7 7.25 6.1 Z"/>
</g>

<g id="pop_0_Layer4_0_FILL">
<path fill="#0C0A80" fill-opacity="0.2" stroke="none" d="
M 4.85 5.25
Q 4.85 4.4 4.25 3.75 3.65 3.15 2.8 3.15 1.95 3.15 1.35 3.75 0.7 4.4 0.7 5.25 0.7 6.1 1.35 6.7 1.95 7.3 2.8 7.3 3.65 7.3 4.25 6.7 4.85 6.1 4.85 5.25 Z"/>
</g>

<g id="pop_0_Layer3_0_FILL">
<path fill="#0C0A80" fill-opacity="0.2" stroke="none" d="
M 7.05 2.25
Q 7.05 1.6 6.6 1.15 6.15 0.7 5.5 0.7 4.85 0.7 4.4 1.15 3.95 1.6 3.95 2.25 3.95 2.9 4.4 3.35 4.85 3.8 5.5 3.8 6.15 3.8 6.6 3.35 7.05 2.9 7.05 2.25 Z"/>
</g>

<g id="pop_0_Layer2_0_FILL">
<path fill="#FFFFFF" fill-opacity="0.30196078431372547" stroke="none" d="
M 8.2 4.1
Q 8.2 2.4 7 1.2 5.8 0 4.1 0 2.4 0 1.2 1.2 0 2.4 0 4.1 0 5.8 1.2 7 2.4 8.2 4.1 8.2 5.8 8.2 7 7 8.2 5.8 8.2 4.1 Z"/>
</g>

<g id="pop_0_Layer1_0_FILL">
<path fill="#FFFFFF" fill-opacity="0.5019607843137255" stroke="none" d="
M 2.1 6.2
Q 3.7 5.95 2.65 3.7 1.9 1.2 4.2 0.3 3.65 0.35 3 0.55 1.7 1.1 1.1 1.9 0.5 2.75 0.4 3.5 0.35 3.65 0.35 3.95 0.4 6.2 2.1 6.2 Z"/>
</g>

<g id="pop_0_Layer0_0_FILL">
<path fill="#FFFFFF" fill-opacity="0.5019607843137255" stroke="none" d="
M 6.9 1.85
Q 6.9 1.45 6.65 1.2 6.35 0.9 6 0.9 5.6 0.9 5.35 1.2 5.05 1.45 5.05 1.85 5.05 2.2 5.35 2.5 5.6 2.75 6 2.75 6.35 2.75 6.65 2.5 6.9 2.2 6.9 1.85 Z"/>
</g>

<g id="Layer1_1_MEMBER_1_FILL">
<path fill="#FFFFFF" stroke="none" d="
M 61.1 24.7
Q 61.1 24.65 61.1 24.6 61.1 24.15 61.1 23.7 61.1 23.65 61.1 23.55 61.1 22.65 60.4 21.95 59.7 21.25 58.8 21.25
L 24.4 21.25
Q 23.4 21.25 22.75 21.95 22.7 21.95 22.7 22 22.05 22.7 22.05 23.55 22.05 23.65 22.05 23.7 22.05 24.2 22.1 24.8 22.1 24.95 22.1 25.1 20.45 25.85 19.05 27.25 15.9 30.4 15.9 34.8 15.9 39.15 19.05 42.3
L 19.05 42.35
Q 22.2 45.45 26.6 45.45 27.7 45.45 28.8 45.25
L 28.85 45.25
Q 32 49.25 35.85 50.9 36.7 53.65 36.95 56.75 35.4 59.45 33.25 61.75 32.35 62.75 31.25 63.7
L 31.25 63.75
Q 31.2 63.75 31.2 63.8 30.45 64.25 30.3 65.1 29.7 67.6 29.05 70.05 29.05 70.15 29.05 70.25 28.95 70.75 29.1 71.35 29.15 71.45 29.2 71.5 29.4 72.1 30.05 72.55 30.6 72.95 31.3 72.95
L 51.85 72.95
Q 52.5 72.95 53.05 72.6 53.1 72.55 53.2 72.55 53.8 72.1 54 71.5 54 71.45 54.05 71.35 54.25 70.7 54.05 70.05 53.5 67.7 52.9 65.25 52.8 64.3 52.05 63.8 51.95 63.7 51.8 63.65 50.75 62.7 49.85 61.75 47.75 59.45 46.3 56.75 46.45 53.7 47.35 50.9 51.1 49.3 54.35 45.35 54.35 45.3 54.4 45.25 55.4 45.45 56.45 45.45 60.8 45.45 63.95 42.3 67.05 39.15 67.05 34.8 67.05 30.4 64 27.25 62.65 25.9 61.1 25.2 61.1 24.95 61.1 24.7 Z"/>
</g>

<g id="Layer1_1_MEMBER_1_MEMBER_0_FILL">
<path fill="#957800" stroke="none" d="
M 50.65 65.5
L 50.6 65.5 41.5 65.5 41.5 70.5 51.85 70.5
Q 51.25 68.05 50.65 65.5 Z"/>

<path fill="#C59E00" stroke="none" d="
M 32.5 65.5
Q 31.95 68.05 31.3 70.5
L 41.5 70.5 41.5 65.5 32.55 65.5 32.5 65.5
M 58.8 23.45
L 41.5 23.45 41.5 65.5 50.6 65.5
Q 49.3 64.4 48.2 63.2 45.65 60.45 43.9 57.15 44.05 52.85 45.45 49.1
L 45.4 49.1
Q 49.3 47.8 52.55 43.75 53 43.2 53.45 42.5 54.8 43 56.45 43 59.9 43 62.35 40.55 64.8 38.15 64.8 34.7 64.8 31.2 62.35 28.75 60.7 27.2 58.7 26.65 58.75 25.6 58.8 24.5 58.8 24.05 58.8 23.6 58.8 23.55 58.8 23.45
M 58.45 29.15
Q 59.65 29.6 60.6 30.5 62.35 32.25 62.35 34.7 62.35 37.15 60.6 38.85 58.9 40.55 56.45 40.55 55.55 40.55 54.75 40.35 57.6 35.35 58.45 29.15 Z"/>

<path fill="#FFCC00" stroke="none" d="
M 24.4 23.45
Q 24.4 23.55 24.4 23.6 24.4 24.05 24.4 24.5 24.4 25.55 24.45 26.6 22.35 27.1 20.7 28.75 18.25 31.2 18.25 34.7 18.25 38.15 20.7 40.55 23.15 43 26.6 43 28.25 43 29.75 42.45 30.15 43.1 30.65 43.7 33.85 47.8 37.8 49.1
L 37.7 49.1
Q 39.1 52.85 39.25 57.15 37.55 60.45 34.95 63.2 33.9 64.4 32.55 65.5
L 41.5 65.5 41.5 23.45 24.4 23.45
M 20.7 34.7
Q 20.7 32.25 22.4 30.5 23.4 29.5 24.7 29.1 25.6 35.35 28.4 40.3 27.55 40.55 26.6 40.55 24.15 40.55 22.4 38.85 20.7 37.15 20.7 34.7 Z"/>
</g>

<g id="Layer1_1_MEMBER_2_FILL">
<path fill="#FFFFFF" stroke="none" d="
M 78.95 35.25
Q 77.6 33.85 76.05 33.15 76.05 32.9 76.05 32.65
L 76.05 32.6
Q 76.05 32.1 76.05 31.65
L 76.05 31.55
Q 76.05 30.65 75.35 29.9 74.65 29.2 73.75 29.2
L 39.35 29.2
Q 38.35 29.2 37.7 29.9 37.65 29.9 37.65 29.95 37 30.65 37 31.55
L 37 31.65
Q 37 32.2 37.05 32.8 37.05 32.9 37.05 33.1 35.4 33.85 34 35.25 30.85 38.4 30.85 42.8 30.85 47.15 34 50.25
L 34 50.3
Q 37.15 53.4 41.55 53.4 42.65 53.4 43.75 53.2
L 43.8 53.25
Q 46.95 57.25 50.8 58.9 51.65 61.65 51.9 64.75 50.35 67.4 48.2 69.75 47.3 70.75 46.2 71.7
L 46.2 71.75
Q 46.15 71.75 46.15 71.8 45.4 72.25 45.25 73.1 44.65 75.6 44 78.05 44 78.15 44 78.2 43.9 78.75 44.05 79.35 44.1 79.4 44.15 79.5 44.35 80.1 45 80.55 45.55 80.9 46.25 80.9
L 66.8 80.9
Q 67.45 80.9 68 80.6 68.05 80.55 68.15 80.55 68.75 80.1 68.95 79.5 68.95 79.4 69 79.35 69.2 78.65 69 78.05 68.45 75.7 67.85 73.25 67.75 72.25 67 71.8 66.9 71.7 66.75 71.65 65.7 70.7 64.8 69.75 62.7 67.4 61.25 64.7 61.4 61.7 62.3 58.9 66.05 57.3 69.3 53.35 69.3 53.3 69.35 53.25 70.35 53.4 71.4 53.4 75.75 53.4 78.9 50.25 82 47.15 82 42.8 82 38.4 78.95 35.25 Z"/>
</g>

<g id="Layer1_1_MEMBER_2_MEMBER_0_FILL">
<path fill="#C59E00" stroke="none" d="
M 47.2 73.55
L 47.15 73.55
Q 46.6 76.1 45.95 78.55
L 56.15 78.55 56.15 73.55 47.2 73.55
M 73.45 31.6
L 73.45 31.5 56.15 31.5 56.15 73.55 65.25 73.55
Q 63.95 72.45 62.85 71.25 60.3 68.5 58.55 65.2 58.7 60.9 60.1 57.1
L 60.05 57.1
Q 63.95 55.8 67.2 51.8 67.65 51.2 68.1 50.55 69.45 51.05 71.1 51.05 74.55 51.05 77 48.6 79.45 46.2 79.45 42.75 79.45 39.25 77 36.8 75.35 35.25 73.35 34.7 73.4 33.6 73.45 32.55 73.45 32.05 73.45 31.6
M 77 42.75
Q 77 45.2 75.25 46.9 73.55 48.6 71.1 48.6 70.2 48.6 69.4 48.4 72.25 43.4 73.1 37.2 74.3 37.65 75.25 38.55 77 40.3 77 42.75 Z"/>

<path fill="#957800" stroke="none" d="
M 65.3 73.55
L 65.25 73.55 56.15 73.55 56.15 78.55 66.5 78.55
Q 65.9 76.1 65.3 73.55 Z"/>

<path fill="#FFCC00" stroke="none" d="
M 39.1 34.65
Q 37 35.15 35.35 36.8 32.9 39.25 32.9 42.75 32.9 46.2 35.35 48.6 37.8 51.05 41.25 51.05 42.9 51.05 44.4 50.5 44.8 51.15 45.3 51.75 48.5 55.8 52.45 57.1
L 52.35 57.1
Q 53.75 60.9 53.9 65.2 52.2 68.5 49.6 71.25 48.55 72.45 47.2 73.55
L 56.15 73.55 56.15 31.5 39.05 31.5 39.05 31.6
Q 39.05 32.05 39.05 32.55 39.05 33.55 39.1 34.65
M 43.05 48.35
Q 42.2 48.6 41.25 48.6 38.8 48.6 37.05 46.9 35.35 45.2 35.35 42.75 35.35 40.3 37.05 38.55 38.05 37.5 39.35 37.15 40.25 43.35 43.05 48.35 Z"/>
</g>

<g id="Layer0_0_FILL">
<path fill="#FFFFFF" stroke="none" d="
M 202.4 67.55
L 200.85 74.7 202.85 74.7 204.35 67.55 202.4 67.55
M 196.75 71.15
Q 196.95 70.8 197.15 70.7 197.35 70.55 197.7 70.55 198 70.55 198.25 70.7 198.4 70.8 198.4 71 198.4 71.1 198.35 71.35 198.05 71.45 197.2 71.55 196.25 71.65 195.7 71.75 195.1 71.9 194.75 72.25 194.35 72.6 194.35 73.3 194.35 73.9 194.8 74.35 195.2 74.8 196.2 74.8 197.15 74.8 197.95 74.1 197.95 74.4 198 74.7
L 199.95 74.7
Q 199.8 74.35 199.8 74 199.8 73.55 200.05 72.5 200.35 71.4 200.35 70.9 200.35 70.15 199.8 69.8 199.25 69.4 197.75 69.4 196.4 69.4 195.75 69.8 195.1 70.2 194.9 70.95
L 196.75 71.15
M 196.3 73.2
Q 196.3 72.95 196.55 72.8 196.75 72.6 198.15 72.4 198 73.15 197.65 73.45 197.3 73.75 196.9 73.75 196.65 73.75 196.45 73.6 196.3 73.45 196.3 73.2
M 191.9 70.2
Q 191.35 69.4 190.25 69.4 189.2 69.4 188.5 70.35 187.8 71.35 187.8 72.65 187.8 73.65 188.25 74.25 188.75 74.8 189.6 74.8 190.1 74.8 190.4 74.7 190.75 74.55 191.2 74.15
L 191.2 74.2 191.1 74.7 192.95 74.7 194.5 67.55 192.5 67.55 191.9 70.2
M 190.8 70.75
Q 191.1 70.75 191.35 70.95 191.55 71.2 191.55 71.65 191.55 72.3 191.25 72.9 190.95 73.5 190.4 73.5 190.1 73.5 189.95 73.3 189.75 73.05 189.75 72.6 189.75 71.85 190.05 71.3 190.35 70.75 190.8 70.75
M 184.45 69.4
Q 183.8 69.4 183.3 69.55 182.8 69.7 182.25 70.1 181.75 70.5 181.45 71.15 181.15 71.75 181.15 72.45 181.15 73.45 181.8 74.15 182.45 74.8 184 74.8 185.05 74.8 185.75 74.5 186.45 74.15 186.85 73.35
L 184.95 73.2
Q 184.6 73.65 184.05 73.65 183.2 73.65 183.1 72.6
L 187.05 72.6
Q 187.2 71.9 187.2 71.6 187.2 70.65 186.55 70.05 185.9 69.4 184.45 69.4
M 183.75 70.85
Q 184.05 70.55 184.4 70.55 184.75 70.55 185 70.75 185.25 70.95 185.25 71.35 185.25 71.55 185.2 71.65
L 183.3 71.65
Q 183.45 71.1 183.75 70.85
M 134.05 69.4
Q 133.6 69.4 133.25 69.65 132.9 69.85 132.45 70.55
L 132.65 69.5 130.8 69.5 129.7 74.7 131.7 74.7 132.1 72.75
Q 132.3 71.85 132.65 71.45 133 71.05 133.6 71.05 133.75 71.05 134 71.1
L 134.7 69.55
Q 134.35 69.4 134.05 69.4
M 141.3 67.55
L 139.3 67.55 138.7 70.2
Q 138.15 69.4 137.05 69.4 136 69.4 135.3 70.35 134.6 71.35 134.6 72.65 134.6 73.65 135.05 74.25 135.55 74.8 136.4 74.8 136.9 74.8 137.2 74.7 137.55 74.55 138 74.15
L 138 74.2 137.9 74.7 139.75 74.7 141.3 67.55
M 137.2 73.5
Q 136.9 73.5 136.75 73.3 136.55 73.05 136.55 72.6 136.55 71.85 136.85 71.3 137.15 70.75 137.6 70.75 137.9 70.75 138.15 70.95 138.35 71.2 138.35 71.65 138.35 72.3 138.05 72.9 137.75 73.5 137.2 73.5
M 125.65 71.15
Q 125.85 70.8 126.05 70.7 126.25 70.55 126.6 70.55 126.9 70.55 127.15 70.7 127.3 70.8 127.3 71 127.3 71.1 127.25 71.35 126.95 71.45 126.1 71.55 125.15 71.65 124.6 71.75 124 71.9 123.65 72.25 123.25 72.6 123.25 73.3 123.25 73.9 123.7 74.35 124.1 74.8 125.1 74.8 126.05 74.8 126.85 74.1 126.85 74.4 126.9 74.7
L 128.85 74.7
Q 128.7 74.35 128.7 74 128.7 73.55 128.95 72.5 129.25 71.4 129.25 70.9 129.25 70.15 128.7 69.8 128.15 69.4 126.65 69.4 125.3 69.4 124.65 69.8 124 70.2 123.8 70.95
L 125.65 71.15
M 125.8 73.75
Q 125.55 73.75 125.35 73.6 125.2 73.45 125.2 73.2 125.2 72.95 125.45 72.8 125.65 72.6 127.05 72.4 126.9 73.15 126.55 73.45 126.2 73.75 125.8 73.75
M 161.05 67.55
L 159.1 67.55 157.55 74.7 159.55 74.7 161.05 67.55
M 151.15 72.5
Q 151.15 73.5 151.8 74.15 152.45 74.8 153.8 74.8 154.9 74.8 155.6 74.4 156.35 73.95 156.7 73.2 157.1 72.45 157.1 71.75 157.1 70.8 156.45 70.1 155.8 69.4 154.4 69.4 153.4 69.4 152.65 69.8 151.9 70.25 151.55 70.95 151.15 71.7 151.15 72.5
M 153.35 73.2
Q 153.1 72.9 153.1 72.5 153.1 71.9 153.4 71.3 153.7 70.75 154.35 70.75 154.65 70.75 154.9 70.95 155.15 71.15 155.15 71.65 155.15 72.35 154.8 72.9 154.5 73.5 153.95 73.5 153.55 73.5 153.35 73.2
M 144.6 72.45
Q 144.6 73.4 145.05 73.95 145.55 74.5 146.35 74.5 147.2 74.5 147.85 73.8
L 147.9 73.85 147.7 74.6
Q 147.6 75.1 147.35 75.35 147.15 75.6 146.75 75.6 146.2 75.6 146.2 75.1
L 144.3 74.8
Q 144.3 74.9 144.3 75.05 144.3 75.6 144.65 76.05 145 76.5 145.5 76.65 145.95 76.8 146.85 76.8 148.15 76.8 148.8 76.3 149.45 75.85 149.75 74.4
L 150.8 69.5 148.95 69.5 148.8 70.25
Q 148.15 69.4 147.2 69.4 146.1 69.4 145.35 70.3 144.6 71.2 144.6 72.45
M 146.75 72.95
Q 146.55 72.75 146.55 72.4 146.55 71.75 146.9 71.25 147.2 70.7 147.65 70.7 147.95 70.7 148.15 70.95 148.35 71.15 148.35 71.45 148.35 72 148.05 72.6 147.8 73.15 147.25 73.15 146.95 73.15 146.75 72.95
M 116.3 72.8
L 116.25 72.8 116.1 69.5 114.3 69.5 115.1 74.7 116.85 74.7 118.6 71.6 118.95 74.7 120.7 74.7 123.65 69.5 121.6 69.5 120.2 72.75 120.15 72.75 119.9 69.5 118.1 69.5 116.3 72.8
M 176.45 69.65
Q 176.1 69.4 175.6 69.4 174.55 69.4 173.7 70.3
L 173.65 70.25 173.8 69.5 171.95 69.5 170.85 74.7 172.85 74.7 173.4 72.2
Q 173.55 71.45 173.9 71.15 174.25 70.85 174.55 70.85 174.95 70.85 174.95 71.25 174.95 71.35 174.9 71.5 174.9 71.65 174.7 72.55
L 174.25 74.7 176.25 74.7 176.7 72.4
Q 176.9 71.6 177.2 71.2 177.45 70.85 177.9 70.85 178.3 70.85 178.3 71.25 178.3 71.3 178.3 71.5 178.25 71.65 178.1 72.5
L 177.6 74.7 179.6 74.7 180.35 71.3
Q 180.4 71 180.4 70.7 180.4 70.15 180.05 69.8 179.7 69.4 179 69.4 178.45 69.4 178 69.6 177.55 69.75 177 70.3 176.85 69.85 176.45 69.65
M 164.55 74.15
L 164.55 74.2 164.45 74.7 166.3 74.7 167.85 67.55 165.85 67.55 165.25 70.2
Q 164.7 69.4 163.6 69.4 162.55 69.4 161.85 70.35 161.15 71.35 161.15 72.65 161.15 73.65 161.6 74.25 162.1 74.8 162.95 74.8 163.45 74.8 163.75 74.7 164.1 74.55 164.55 74.15
M 163.3 73.3
Q 163.1 73.05 163.1 72.6 163.1 71.85 163.4 71.3 163.7 70.75 164.15 70.75 164.45 70.75 164.7 70.95 164.9 71.2 164.9 71.65 164.9 72.3 164.6 72.9 164.3 73.5 163.75 73.5 163.45 73.5 163.3 73.3
M 109.9 71.15
Q 110.1 70.8 110.3 70.7 110.5 70.55 110.85 70.55 111.15 70.55 111.4 70.7 111.55 70.8 111.55 71 111.55 71.1 111.5 71.35 111.2 71.45 110.35 71.55 109.4 71.65 108.85 71.75 108.25 71.9 107.9 72.25 107.5 72.6 107.5 73.3 107.5 73.9 107.95 74.35 108.35 74.8 109.35 74.8 110.3 74.8 111.1 74.1 111.1 74.4 111.15 74.7
L 113.1 74.7
Q 112.95 74.35 112.95 74 112.95 73.55 113.2 72.5 113.5 71.4 113.5 70.9 113.5 70.15 112.95 69.8 112.4 69.4 110.9 69.4 109.55 69.4 108.9 69.8 108.25 70.2 108.05 70.95
L 109.9 71.15
M 111.3 72.4
Q 111.15 73.15 110.8 73.45 110.45 73.75 110.05 73.75 109.8 73.75 109.6 73.6 109.45 73.45 109.45 73.2 109.45 72.95 109.7 72.8 109.9 72.6 111.3 72.4
M 230.5 51.7
L 228.55 51.7 228.25 53.05 230.25 53.05 230.5 51.7
M 230.1 53.65
L 228.1 53.65 227 58.85 229 58.85 230.1 53.65
M 238.45 58.85
L 239.55 53.65 237.55 53.65 236.45 58.85 238.45 58.85
M 233.85 55.6
Q 233.1 55.5 232.95 55.4 232.8 55.25 232.8 55.1 232.8 54.9 232.95 54.75 233.15 54.65 233.5 54.65 234.15 54.65 234.2 55.1
L 236.1 54.9
Q 235.95 54.15 235.4 53.85 234.85 53.55 233.8 53.55 232.9 53.55 232.25 53.8 231.65 54.05 231.35 54.5 231 54.9 231 55.4 231 55.95 231.45 56.3 231.85 56.65 233 56.85 233.5 56.95 233.7 57 233.85 57.1 233.85 57.35 233.85 57.6 233.6 57.75 233.35 57.9 233.05 57.9 232.35 57.9 232.2 57.25
L 230.25 57.4
Q 230.35 58.25 230.9 58.6 231.5 58.95 232.75 58.95 234.25 58.95 235 58.4 235.75 57.85 235.75 57.05 235.75 56.45 235.35 56.1 235 55.75 233.85 55.6
M 239.95 51.7
L 238 51.7 237.7 53.05 239.7 53.05 239.95 51.7
M 245.65 53.9
Q 245.3 53.55 244.55 53.55 243.4 53.55 242.55 54.45
L 242.7 53.65 240.85 53.65 239.75 58.85 241.75 58.85 242.25 56.6
Q 242.4 55.85 242.75 55.4 243.05 55 243.5 55 243.9 55 243.9 55.45 243.9 55.55 243.7 56.45
L 243.2 58.85 245.2 58.85 245.8 56
Q 246 55.1 246 54.8 246 54.25 245.65 53.9
M 250.9 54.4
Q 250.25 53.55 249.3 53.55 248.2 53.55 247.45 54.45 246.7 55.35 246.7 56.6 246.7 57.55 247.15 58.1 247.65 58.65 248.45 58.65 249.3 58.65 249.95 57.95
L 250 58 249.8 58.75
Q 249.7 59.25 249.45 59.5 249.25 59.75 248.85 59.75 248.3 59.75 248.3 59.25
L 246.4 58.95
Q 246.4 59.05 246.4 59.2 246.4 59.75 246.75 60.2 247.1 60.65 247.6 60.8 248.05 60.95 248.95 60.95 250.25 60.95 250.9 60.45 251.55 60 251.85 58.55
L 252.9 53.65 251.05 53.65 250.9 54.4
M 250.25 55.1
Q 250.45 55.3 250.45 55.6 250.45 56.15 250.15 56.75 249.9 57.3 249.35 57.3 249.05 57.3 248.85 57.1 248.65 56.9 248.65 56.55 248.65 55.9 249 55.4 249.3 54.85 249.75 54.85 250.05 54.85 250.25 55.1
M 270.9 58.85
L 272.9 58.85 274 53.65 272 53.65 270.9 58.85
M 264.15 54.05
Q 264.05 52.95 263.25 52.25 262.5 51.55 261.15 51.55 259.85 51.55 258.9 52.2 257.95 52.8 257.5 53.85 257 54.9 257 55.95 257 57.3 257.8 58.15 258.6 58.95 260.15 58.95 261.65 58.95 262.6 58.2 263.5 57.45 263.85 56.35
L 261.75 56.05
Q 261.5 56.7 261.15 57 260.8 57.35 260.3 57.35 259.75 57.35 259.45 57 259.15 56.6 259.15 56.1 259.15 55.4 259.45 54.65 259.7 53.9 260.2 53.55 260.65 53.2 261.15 53.2 261.5 53.2 261.85 53.45 262.15 53.7 262.15 54.25
L 264.15 54.05
M 270.45 54.8
Q 270.45 54.25 270.1 53.9 269.75 53.55 269.05 53.55 267.9 53.55 267.2 54.3
L 267.15 54.3 267.75 51.7 265.75 51.7 264.2 58.85 266.2 58.85 266.7 56.6
Q 266.85 55.85 267.2 55.4 267.5 55 267.95 55 268.35 55 268.35 55.45 268.35 55.55 268.15 56.45
L 267.65 58.85 269.65 58.85 270.25 56
Q 270.45 55.1 270.45 54.8
M 274.15 53.05
L 274.4 51.7 272.45 51.7 272.15 53.05 274.15 53.05
M 282.45 53.95
Q 281.8 54.35 281.6 55.1
L 283.45 55.3
Q 283.65 54.95 283.85 54.85 284.05 54.7 284.4 54.7 284.7 54.7 284.95 54.85 285.1 54.95 285.1 55.15 285.1 55.25 285.05 55.5 284.75 55.6 283.9 55.7 282.95 55.8 282.4 55.9 281.8 56.05 281.45 56.4 281.05 56.75 281.05 57.45 281.05 58.05 281.5 58.5 281.9 58.95 282.9 58.95 283.85 58.95 284.65 58.25 284.65 58.55 284.7 58.85
L 286.65 58.85
Q 286.5 58.5 286.5 58.15 286.5 57.7 286.75 56.65 287.05 55.55 287.05 55.05 287.05 54.3 286.5 53.95 285.95 53.55 284.45 53.55 283.1 53.55 282.45 53.95
M 283 57.35
Q 283 57.1 283.25 56.95 283.45 56.75 284.85 56.55 284.7 57.3 284.35 57.6 284 57.9 283.6 57.9 283.35 57.9 283.15 57.75 283 57.6 283 57.35
M 280.45 54.8
Q 280.45 54.25 280.1 53.9 279.75 53.55 279 53.55 277.85 53.55 277 54.45
L 277.15 53.65 275.3 53.65 274.2 58.85 276.2 58.85 276.7 56.6
Q 276.85 55.85 277.2 55.4 277.5 55 277.95 55 278.35 55 278.35 55.45 278.35 55.55 278.15 56.45
L 277.65 58.85 279.65 58.85 280.25 56
Q 280.45 55.1 280.45 54.8
M 211.7 53.65
L 209.6 53.65 207.9 56.95 207.6 53.65 205.7 53.65 206.7 58.85 208.45 58.85 211.7 53.65
M 216.7 54.2
Q 216.05 53.55 214.6 53.55 213.95 53.55 213.45 53.7 212.95 53.85 212.4 54.25 211.9 54.65 211.6 55.3 211.3 55.9 211.3 56.6 211.3 57.6 211.95 58.3 212.6 58.95 214.15 58.95 215.2 58.95 215.9 58.65 216.6 58.3 217 57.5
L 215.1 57.35
Q 214.75 57.8 214.2 57.8 213.35 57.8 213.25 56.75
L 217.2 56.75
Q 217.35 56.05 217.35 55.75 217.35 54.8 216.7 54.2
M 215.15 54.9
Q 215.4 55.1 215.4 55.5 215.4 55.7 215.35 55.8
L 213.45 55.8
Q 213.6 55.25 213.9 55 214.2 54.7 214.55 54.7 214.9 54.7 215.15 54.9
M 222.65 53.7
Q 222.3 53.55 222 53.55 221.55 53.55 221.2 53.8 220.85 54 220.4 54.7
L 220.6 53.65 218.75 53.65 217.65 58.85 219.65 58.85 220.05 56.9
Q 220.25 56 220.6 55.6 220.95 55.2 221.55 55.2 221.7 55.2 221.95 55.25
L 222.65 53.7
M 224.1 52.85
L 223.95 53.65 223.2 53.65 222.9 55.1 223.6 55.1 223.25 56.85
Q 223.1 57.55 223.1 57.7 223.1 58.15 223.45 58.55 223.8 58.95 224.65 58.95 225.05 58.95 225.95 58.85
L 226.25 57.45
Q 225.8 57.5 225.65 57.5 225.2 57.5 225.2 57.15 225.2 57.05 225.2 56.9
L 225.6 55.1 226.65 55.1 226.95 53.65 225.9 53.65 226.3 51.75 224.1 52.85
M 176.4 51.7
L 174.2 51.7 172.4 56.1 172.35 56.1 172.25 51.7 170.1 51.7 168.15 56.1 168.1 56.05 168.2 51.7 166.2 51.7 166.4 58.85 168.6 58.85 170.65 54.45 170.7 54.45 170.85 58.85 173 58.85 176.4 51.7
M 179.35 54.85
Q 179.5 54.95 179.5 55.15 179.5 55.25 179.45 55.5 179.15 55.6 178.3 55.7 177.35 55.8 176.8 55.9 176.2 56.05 175.85 56.4 175.45 56.75 175.45 57.45 175.45 58.05 175.9 58.5 176.3 58.95 177.3 58.95 178.25 58.95 179.05 58.25 179.05 58.55 179.1 58.85
L 181.05 58.85
Q 180.9 58.5 180.9 58.15 180.9 57.7 181.15 56.65 181.45 55.55 181.45 55.05 181.45 54.3 180.9 53.95 180.35 53.55 178.85 53.55 177.5 53.55 176.85 53.95 176.2 54.35 176 55.1
L 177.85 55.3
Q 178.05 54.95 178.25 54.85 178.45 54.7 178.8 54.7 179.1 54.7 179.35 54.85
M 179.25 56.55
Q 179.1 57.3 178.75 57.6 178.4 57.9 178 57.9 177.75 57.9 177.55 57.75 177.4 57.6 177.4 57.35 177.4 57.1 177.65 56.95 177.85 56.75 179.25 56.55
M 185.45 51.7
L 183.5 51.7 181.95 58.85 183.95 58.85 185.45 51.7
M 188.8 51.7
L 186.85 51.7 185.3 58.85 187.3 58.85 188.8 51.7
M 201.35 53.55
Q 200.3 53.55 199.6 54.5 198.9 55.5 198.9 56.8 198.9 57.8 199.35 58.4 199.85 58.95 200.7 58.95 201.2 58.95 201.5 58.85 201.85 58.7 202.3 58.3
L 202.3 58.35 202.2 58.85 204.05 58.85 205.6 51.7 203.6 51.7 203 54.35
Q 202.45 53.55 201.35 53.55
M 201.15 55.45
Q 201.45 54.9 201.9 54.9 202.2 54.9 202.45 55.1 202.65 55.35 202.65 55.8 202.65 56.45 202.35 57.05 202.05 57.65 201.5 57.65 201.2 57.65 201.05 57.45 200.85 57.2 200.85 56.75 200.85 56 201.15 55.45
M 198.15 55.05
Q 198.15 54.3 197.6 53.95 197.05 53.55 195.55 53.55 194.2 53.55 193.55 53.95 192.9 54.35 192.7 55.1
L 194.55 55.3
Q 194.75 54.95 194.95 54.85 195.15 54.7 195.5 54.7 195.8 54.7 196.05 54.85 196.2 54.95 196.2 55.15 196.2 55.25 196.15 55.5 195.85 55.6 195 55.7 194.05 55.8 193.5 55.9 192.9 56.05 192.55 56.4 192.15 56.75 192.15 57.45 192.15 58.05 192.6 58.5 193 58.95 194 58.95 194.95 58.95 195.75 58.25 195.75 58.55 195.8 58.85
L 197.75 58.85
Q 197.6 58.5 197.6 58.15 197.6 57.7 197.85 56.65 198.15 55.55 198.15 55.05
M 195.95 56.55
Q 195.8 57.3 195.45 57.6 195.1 57.9 194.7 57.9 194.45 57.9 194.25 57.75 194.1 57.6 194.1 57.35 194.1 57.1 194.35 56.95 194.55 56.75 195.95 56.55
M 122.9 54.25
Q 122.4 54.65 122.1 55.3 121.8 55.9 121.8 56.6 121.8 57.6 122.45 58.3 123.1 58.95 124.65 58.95 125.7 58.95 126.4 58.65 127.1 58.3 127.5 57.5
L 125.6 57.35
Q 125.25 57.8 124.7 57.8 123.85 57.8 123.75 56.75
L 127.7 56.75
Q 127.85 56.05 127.85 55.75 127.85 54.8 127.2 54.2 126.55 53.55 125.1 53.55 124.45 53.55 123.95 53.7 123.45 53.85 122.9 54.25
M 124.4 55
Q 124.7 54.7 125.05 54.7 125.4 54.7 125.65 54.9 125.9 55.1 125.9 55.5 125.9 55.7 125.85 55.8
L 123.95 55.8
Q 124.1 55.25 124.4 55
M 137.4 54
L 139.6 53.75
Q 139.05 51.55 136.5 51.55 135.2 51.55 134.2 52.15 133.2 52.7 132.65 53.7 132.1 54.7 132.1 55.9 132.1 57.35 132.95 58.15 133.8 58.95 135.3 58.95 136.95 58.95 138.6 58.15
L 139.3 54.8 136 54.8 135.65 56.25 137 56.25 136.85 57.05
Q 136.35 57.4 135.65 57.4 135.05 57.4 134.65 57 134.25 56.6 134.25 56 134.25 54.95 134.75 54.05 135.3 53.15 136.2 53.15 137.1 53.15 137.4 54
M 144.85 53.7
Q 144.5 53.55 144.2 53.55 143.75 53.55 143.4 53.8 143.05 54 142.6 54.7
L 142.8 53.65 140.95 53.65 139.85 58.85 141.85 58.85 142.25 56.9
Q 142.45 56 142.8 55.6 143.15 55.2 143.75 55.2 143.9 55.2 144.15 55.25
L 144.85 53.7
M 150.1 54.2
Q 149.45 53.55 148 53.55 147.35 53.55 146.85 53.7 146.35 53.85 145.8 54.25 145.3 54.65 145 55.3 144.7 55.9 144.7 56.6 144.7 57.6 145.35 58.3 146 58.95 147.55 58.95 148.6 58.95 149.3 58.65 150 58.3 150.4 57.5
L 148.5 57.35
Q 148.15 57.8 147.6 57.8 146.75 57.8 146.65 56.75
L 150.6 56.75
Q 150.75 56.05 150.75 55.75 150.75 54.8 150.1 54.2
M 148.55 54.9
Q 148.8 55.1 148.8 55.5 148.8 55.7 148.75 55.8
L 146.85 55.8
Q 147 55.25 147.3 55 147.6 54.7 147.95 54.7 148.3 54.7 148.55 54.9
M 156.7 53.95
Q 156.15 53.55 154.65 53.55 153.3 53.55 152.65 53.95 152 54.35 151.8 55.1
L 153.65 55.3
Q 153.85 54.95 154.05 54.85 154.25 54.7 154.6 54.7 154.9 54.7 155.15 54.85 155.3 54.95 155.3 55.15 155.3 55.25 155.25 55.5 154.95 55.6 154.1 55.7 153.15 55.8 152.6 55.9 152 56.05 151.65 56.4 151.25 56.75 151.25 57.45 151.25 58.05 151.7 58.5 152.1 58.95 153.1 58.95 154.05 58.95 154.85 58.25 154.85 58.55 154.9 58.85
L 156.85 58.85
Q 156.7 58.5 156.7 58.15 156.7 57.7 156.95 56.65 157.25 55.55 157.25 55.05 157.25 54.3 156.7 53.95
M 155.05 56.55
Q 154.9 57.3 154.55 57.6 154.2 57.9 153.8 57.9 153.55 57.9 153.35 57.75 153.2 57.6 153.2 57.35 153.2 57.1 153.45 56.95 153.65 56.75 155.05 56.55
M 161 53.65
L 161.4 51.75 159.2 52.85 159.05 53.65 158.3 53.65 158 55.1 158.7 55.1 158.35 56.85
Q 158.2 57.55 158.2 57.7 158.2 58.15 158.55 58.55 158.9 58.95 159.75 58.95 160.15 58.95 161.05 58.85
L 161.35 57.45
Q 160.9 57.5 160.75 57.5 160.3 57.5 160.3 57.15 160.3 57.05 160.3 56.9
L 160.7 55.1 161.75 55.1 162.05 53.65 161 53.65
M 112.5 53.45
L 114.85 53.45 115.2 51.7 108.45 51.7 108.05 53.45 110.3 53.45 109.15 58.85 111.35 58.85 112.5 53.45
M 118.6 55
Q 119 55 119 55.45 119 55.55 118.8 56.45
L 118.3 58.85 120.3 58.85 120.9 56
Q 121.1 55.1 121.1 54.8 121.1 54.25 120.75 53.9 120.4 53.55 119.7 53.55 118.55 53.55 117.85 54.3
L 117.8 54.3 118.4 51.7 116.4 51.7 114.85 58.85 116.85 58.85 117.35 56.6
Q 117.5 55.85 117.85 55.4 118.15 55 118.6 55
M 262 37.8
L 261.25 37.8 260.95 39.25 261.65 39.25 261.3 41
Q 261.15 41.7 261.15 41.85 261.15 42.3 261.5 42.7 261.85 43.1 262.7 43.1 263.1 43.1 264 43
L 264.3 41.6
Q 263.85 41.65 263.7 41.65 263.25 41.65 263.25 41.3 263.25 41.2 263.25 41.05
L 263.65 39.25 264.7 39.25 265 37.8 263.95 37.8 264.35 35.9 262.15 37 262 37.8
M 232.4 38.1
Q 231.65 38.55 231.3 39.25 230.9 40 230.9 40.8 230.9 41.8 231.55 42.45 232.2 43.1 233.55 43.1 234.65 43.1 235.35 42.7 236.1 42.25 236.45 41.5 236.85 40.75 236.85 40.05 236.85 39.1 236.2 38.4 235.55 37.7 234.15 37.7 233.15 37.7 232.4 38.1
M 233.15 39.6
Q 233.45 39.05 234.1 39.05 234.4 39.05 234.65 39.25 234.9 39.45 234.9 39.95 234.9 40.65 234.55 41.2 234.25 41.8 233.7 41.8 233.3 41.8 233.1 41.5 232.85 41.2 232.85 40.8 232.85 40.2 233.15 39.6
M 220.6 43
L 222.6 43 223.15 40.5
Q 223.3 39.75 223.65 39.45 224 39.15 224.3 39.15 224.7 39.15 224.7 39.55 224.7 39.65 224.65 39.8 224.65 39.95 224.45 40.85
L 224 43 226 43 226.45 40.7
Q 226.65 39.9 226.95 39.5 227.2 39.15 227.65 39.15 228.05 39.15 228.05 39.55 228.05 39.6 228.05 39.8 228 39.95 227.85 40.8
L 227.35 43 229.35 43 230.1 39.6
Q 230.15 39.3 230.15 39 230.15 38.45 229.8 38.1 229.45 37.7 228.75 37.7 228.2 37.7 227.75 37.9 227.3 38.05 226.75 38.6 226.6 38.15 226.2 37.95 225.85 37.7 225.35 37.7 224.3 37.7 223.45 38.6
L 223.4 38.55 223.55 37.8 221.7 37.8 220.6 43
M 210.9 40.75
Q 210.9 41.7 211.35 42.25 211.85 42.8 212.65 42.8 213.5 42.8 214.15 42.1
L 214.2 42.15 214 42.9
Q 213.9 43.4 213.65 43.65 213.45 43.9 213.05 43.9 212.5 43.9 212.5 43.4
L 210.6 43.1
Q 210.6 43.2 210.6 43.35 210.6 43.9 210.95 44.35 211.3 44.8 211.8 44.95 212.25 45.1 213.15 45.1 214.45 45.1 215.1 44.6 215.75 44.15 216.05 42.7
L 217.1 37.8 215.25 37.8 215.1 38.55
Q 214.45 37.7 213.5 37.7 212.4 37.7 211.65 38.6 210.9 39.5 210.9 40.75
M 214.45 39.25
Q 214.65 39.45 214.65 39.75 214.65 40.3 214.35 40.9 214.1 41.45 213.55 41.45 213.25 41.45 213.05 41.25 212.85 41.05 212.85 40.7 212.85 40.05 213.2 39.55 213.5 39 213.95 39 214.25 39 214.45 39.25
M 207.7 39.15
Q 208.1 39.15 208.1 39.6 208.1 39.7 207.9 40.6
L 207.4 43 209.4 43 210 40.15
Q 210.2 39.25 210.2 38.95 210.2 38.4 209.85 38.05 209.5 37.7 208.75 37.7 207.6 37.7 206.75 38.6
L 206.9 37.8 205.05 37.8 203.95 43 205.95 43 206.45 40.75
Q 206.6 40 206.95 39.55 207.25 39.15 207.7 39.15
M 259.8 38.05
Q 259.45 37.7 258.7 37.7 257.55 37.7 256.7 38.6
L 256.85 37.8 255 37.8 253.9 43 255.9 43 256.4 40.75
Q 256.55 40 256.9 39.55 257.2 39.15 257.65 39.15 258.05 39.15 258.05 39.6 258.05 39.7 257.85 40.6
L 257.35 43 259.35 43 259.95 40.15
Q 260.15 39.25 260.15 38.95 260.15 38.4 259.8 38.05
M 246.75 39.6
Q 246.8 39.3 246.8 39 246.8 38.45 246.45 38.1 246.1 37.7 245.4 37.7 244.85 37.7 244.4 37.9 243.95 38.05 243.4 38.6 243.25 38.15 242.85 37.95 242.5 37.7 242 37.7 240.95 37.7 240.1 38.6
L 240.05 38.55 240.2 37.8 238.35 37.8 237.25 43 239.25 43 239.8 40.5
Q 239.95 39.75 240.3 39.45 240.65 39.15 240.95 39.15 241.35 39.15 241.35 39.55 241.35 39.65 241.3 39.8 241.3 39.95 241.1 40.85
L 240.65 43 242.65 43 243.1 40.7
Q 243.3 39.9 243.6 39.5 243.85 39.15 244.3 39.15 244.7 39.15 244.7 39.55 244.7 39.6 244.7 39.8 244.65 39.95 244.5 40.8
L 244 43 246 43 246.75 39.6
M 252.95 38.35
Q 252.3 37.7 250.85 37.7 250.2 37.7 249.7 37.85 249.2 38 248.65 38.4 248.15 38.8 247.85 39.45 247.55 40.05 247.55 40.75 247.55 41.75 248.2 42.45 248.85 43.1 250.4 43.1 251.45 43.1 252.15 42.8 252.85 42.45 253.25 41.65
L 251.35 41.5
Q 251 41.95 250.45 41.95 249.6 41.95 249.5 40.9
L 253.45 40.9
Q 253.6 40.2 253.6 39.9 253.6 38.95 252.95 38.35
M 251.4 39.05
Q 251.65 39.25 251.65 39.65 251.65 39.85 251.6 39.95
L 249.7 39.95
Q 249.85 39.4 250.15 39.15 250.45 38.85 250.8 38.85 251.15 38.85 251.4 39.05
M 203.1 43
Q 202.95 42.65 202.95 42.3 202.95 41.85 203.2 40.8 203.5 39.7 203.5 39.2 203.5 38.45 202.95 38.1 202.4 37.7 200.9 37.7 199.55 37.7 198.9 38.1 198.25 38.5 198.05 39.25
L 199.9 39.45
Q 200.1 39.1 200.3 39 200.5 38.85 200.85 38.85 201.15 38.85 201.4 39 201.55 39.1 201.55 39.3 201.55 39.4 201.5 39.65 201.2 39.75 200.35 39.85 199.4 39.95 198.85 40.05 198.25 40.2 197.9 40.55 197.5 40.9 197.5 41.6 197.5 42.2 197.95 42.65 198.35 43.1 199.35 43.1 200.3 43.1 201.1 42.4 201.1 42.7 201.15 43
L 203.1 43
M 199.6 41.9
Q 199.45 41.75 199.45 41.5 199.45 41.25 199.7 41.1 199.9 40.9 201.3 40.7 201.15 41.45 200.8 41.75 200.45 42.05 200.05 42.05 199.8 42.05 199.6 41.9
M 157.1 43
L 159.1 43 160.2 37.8 158.2 37.8 157.1 43
M 150.2 37.8
L 148.35 37.8 148.2 38.55
Q 147.55 37.7 146.6 37.7 145.5 37.7 144.75 38.6 144 39.5 144 40.75 144 41.7 144.45 42.25 144.95 42.8 145.75 42.8 146.6 42.8 147.25 42.1
L 147.3 42.15 147.1 42.9
Q 147 43.4 146.75 43.65 146.55 43.9 146.15 43.9 145.6 43.9 145.6 43.4
L 143.7 43.1
Q 143.7 43.2 143.7 43.35 143.7 43.9 144.05 44.35 144.4 44.8 144.9 44.95 145.35 45.1 146.25 45.1 147.55 45.1 148.2 44.6 148.85 44.15 149.15 42.7
L 150.2 37.8
M 147.55 39.25
Q 147.75 39.45 147.75 39.75 147.75 40.3 147.45 40.9 147.2 41.45 146.65 41.45 146.35 41.45 146.15 41.25 145.95 41.05 145.95 40.7 145.95 40.05 146.3 39.55 146.6 39 147.05 39 147.35 39 147.55 39.25
M 157.25 35.85
L 155.3 35.85 153.75 43 155.75 43 157.25 35.85
M 160.6 35.85
L 158.65 35.85 158.35 37.2 160.35 37.2 160.6 35.85
M 139.85 38.6
L 140 37.8 138.15 37.8 137.05 43 139.05 43 139.55 40.75
Q 139.7 40 140.05 39.55 140.35 39.15 140.8 39.15 141.2 39.15 141.2 39.6 141.2 39.7 141 40.6
L 140.5 43 142.5 43 143.1 40.15
Q 143.3 39.25 143.3 38.95 143.3 38.4 142.95 38.05 142.6 37.7 141.85 37.7 140.7 37.7 139.85 38.6
M 195.45 39.6
L 197.7 37.8 195.4 37.8 193.4 39.55 194.2 35.85 192.25 35.85 190.7 43 192.65 43 192.95 41.65 194 40.8 194.55 43 196.8 43 195.45 39.6
M 189.35 43
L 190.45 37.8 188.45 37.8 187.35 43 189.35 43
M 190.85 35.85
L 188.9 35.85 188.6 37.2 190.6 37.2 190.85 35.85
M 182.2 40.05
Q 181.6 40.2 181.25 40.55 180.85 40.9 180.85 41.6 180.85 42.2 181.3 42.65 181.7 43.1 182.7 43.1 183.65 43.1 184.45 42.4 184.45 42.7 184.5 43
L 186.45 43
Q 186.3 42.65 186.3 42.3 186.3 41.85 186.55 40.8 186.85 39.7 186.85 39.2 186.85 38.45 186.3 38.1 185.75 37.7 184.25 37.7 182.9 37.7 182.25 38.1 181.6 38.5 181.4 39.25
L 183.25 39.45
Q 183.45 39.1 183.65 39 183.85 38.85 184.2 38.85 184.5 38.85 184.75 39 184.9 39.1 184.9 39.3 184.9 39.4 184.85 39.65 184.55 39.75 183.7 39.85 182.75 39.95 182.2 40.05
M 183.05 41.1
Q 183.25 40.9 184.65 40.7 184.5 41.45 184.15 41.75 183.8 42.05 183.4 42.05 183.15 42.05 182.95 41.9 182.8 41.75 182.8 41.5 182.8 41.25 183.05 41.1
M 170.55 39.9
Q 170.55 38.95 169.9 38.35 169.25 37.7 167.8 37.7 167.15 37.7 166.65 37.85 166.15 38 165.6 38.4 165.1 38.8 164.8 39.45 164.5 40.05 164.5 40.75 164.5 41.75 165.15 42.45 165.8 43.1 167.35 43.1 168.4 43.1 169.1 42.8 169.8 42.45 170.2 41.65
L 168.3 41.5
Q 167.95 41.95 167.4 41.95 166.55 41.95 166.45 40.9
L 170.4 40.9
Q 170.55 40.2 170.55 39.9
M 168.35 39.05
Q 168.6 39.25 168.6 39.65 168.6 39.85 168.55 39.95
L 166.65 39.95
Q 166.8 39.4 167.1 39.15 167.4 38.85 167.75 38.85 168.1 38.85 168.35 39.05
M 165.35 35.95
Q 164.35 35.7 163.65 35.7 163.2 35.7 162.85 35.85 162.55 35.95 162.3 36.15 162.1 36.4 162 36.65 161.9 36.9 161.75 37.8
L 161 37.8 160.7 39.25 161.45 39.25 160.6 43 162.6 43 163.4 39.25 164.35 39.25 164.65 37.8 163.7 37.8
Q 163.85 37.2 164 37.1 164.1 37 164.35 37 164.6 37 165 37.1
L 165.35 35.95
M 182.1 35.85
L 175.35 35.85 174.95 37.6 177.2 37.6 176.05 43 178.25 43 179.4 37.6 181.75 37.6 182.1 35.85
M 131 40.55
Q 130.6 40.9 130.6 41.6 130.6 42.2 131.05 42.65 131.45 43.1 132.45 43.1 133.4 43.1 134.2 42.4 134.2 42.7 134.25 43
L 136.2 43
Q 136.05 42.65 136.05 42.3 136.05 41.85 136.3 40.8 136.6 39.7 136.6 39.2 136.6 38.45 136.05 38.1 135.5 37.7 134 37.7 132.65 37.7 132 38.1 131.35 38.5 131.15 39.25
L 133 39.45
Q 133.2 39.1 133.4 39 133.6 38.85 133.95 38.85 134.25 38.85 134.5 39 134.65 39.1 134.65 39.3 134.65 39.4 134.6 39.65 134.3 39.75 133.45 39.85 132.5 39.95 131.95 40.05 131.35 40.2 131 40.55
M 133.9 41.75
Q 133.55 42.05 133.15 42.05 132.9 42.05 132.7 41.9 132.55 41.75 132.55 41.5 132.55 41.25 132.8 41.1 133 40.9 134.4 40.7 134.25 41.45 133.9 41.75
M 127.3 35.85
L 125.35 35.85 123.8 43 125.75 43 126.05 41.65 127.1 40.8 127.65 43 129.9 43 128.55 39.6 130.8 37.8 128.5 37.8 126.5 39.55 127.3 35.85
M 123.95 35.85
L 122 35.85 121.7 37.2 123.7 37.2 123.95 35.85
M 123.55 37.8
L 121.55 37.8 120.45 43 122.45 43 123.55 37.8
M 119.95 39.2
Q 119.95 38.45 119.4 38.1 118.85 37.7 117.35 37.7 116 37.7 115.35 38.1 114.7 38.5 114.5 39.25
L 116.35 39.45
Q 116.55 39.1 116.75 39 116.95 38.85 117.3 38.85 117.6 38.85 117.85 39 118 39.1 118 39.3 118 39.4 117.95 39.65 117.65 39.75 116.8 39.85 115.85 39.95 115.3 40.05 114.7 40.2 114.35 40.55 113.95 40.9 113.95 41.6 113.95 42.2 114.4 42.65 114.8 43.1 115.8 43.1 116.75 43.1 117.55 42.4 117.55 42.7 117.6 43
L 119.55 43
Q 119.4 42.65 119.4 42.3 119.4 41.85 119.65 40.8 119.95 39.7 119.95 39.2
M 117.25 41.75
Q 116.9 42.05 116.5 42.05 116.25 42.05 116.05 41.9 115.9 41.75 115.9 41.5 115.9 41.25 116.15 41.1 116.35 40.9 117.75 40.7 117.6 41.45 117.25 41.75
M 115.2 35.85
L 108.45 35.85 108.05 37.6 110.3 37.6 109.15 43 111.35 43 112.5 37.6 114.85 37.6 115.2 35.85
M 191.85 9.45
L 188.45 9.45 179.35 18.05 178.6 21.35 185.9 21.35 185.3 24 188.75 24 189.3 21.35 191.15 21.35 191.8 18.25 189.95 18.25 191.85 9.45
M 187.5 13.75
L 187.55 13.8 186.55 18.25 182.7 18.25 187.5 13.75
M 177.25 9.45
L 173.85 9.45
Q 171.75 11.55 168.6 12.9
L 167.85 16.3
Q 170.35 15.7 172.15 14.6
L 170.1 24 174.1 24 177.25 9.45
M 164.35 19.45
Q 165.25 17.2 165.25 14.9 165.25 12.25 163.7 10.85 162.1 9.45 159.95 9.45 157.9 9.45 156.3 10.7 154.7 12 153.8 14.2 152.95 16.35 152.95 18.4 152.95 21.25 154.3 22.75 155.65 24.25 157.9 24.25 160.1 24.25 161.75 22.95 163.4 21.7 164.35 19.45
M 157.15 16.35
Q 157.5 14.45 158.25 13.3 158.95 12.1 159.9 12.1 160.65 12.1 161.05 12.65 161.4 13.2 161.4 14.1 161.4 15.3 161.05 17.25 160.65 19.2 159.95 20.4 159.25 21.55 158.3 21.55 156.75 21.55 156.75 19.45
L 156.75 19.4
Q 156.75 18.25 157.15 16.35
M 146.65 9.45
Q 144.15 9.45 142.6 10.5 141.05 11.6 140.7 13.7
L 144.6 14.25
Q 145 12.1 146.4 12.1 146.95 12.1 147.45 12.5 147.9 12.85 147.9 13.6 147.9 14.1 147.55 14.65 147.15 15.2 146.25 15.9
L 144.75 16.95
Q 142.35 18.7 141.05 20.25 139.75 21.8 139.35 24
L 150.3 24 151 20.75 145.35 20.75
Q 145.95 20.1 146.35 19.75 146.8 19.4 148.15 18.45 150.15 17.1 150.95 15.9 151.8 14.7 151.8 13.4 151.8 11.7 150.5 10.55 149.25 9.45 146.65 9.45
M 132.35 9.7
L 128.2 9.7 126.4 18 126.35 18 122.8 9.7 118.7 9.7 115.6 24 119.75 24 121.55 15.7 121.6 15.7 125.1 24 129.25 24 132.35 9.7
M 115.55 9.7
L 111.1 9.7 108 24 112.5 24 115.55 9.7 Z"/>
</g>
</defs>

<g transform="matrix( 1, 0, 0, 1, 0,0) ">
<use xlink:href="#Layer1_0_FILL"/>
</g>

<g transform="matrix( 10.800430297851562, 0, 0, 10.800430297851562, 5.5,4.55) ">
<g transform="matrix( 1, 0, 0, 1, 0,0) ">
<use xlink:href="#pop_0_Layer5_0_FILL"/>
</g>

<g transform="matrix( 1, 0, 0, 1, 0,0) ">
<use xlink:href="#pop_0_Layer4_0_FILL"/>
</g>

<g transform="matrix( 1, 0, 0, 1, 0,0) ">
<use xlink:href="#pop_0_Layer3_0_FILL"/>
</g>

<g transform="matrix( 1, 0, 0, 1, 0,0) ">
<use xlink:href="#pop_0_Layer2_0_FILL"/>
</g>

<g transform="matrix( 1, 0, 0, 1, 0,0) ">
<use xlink:href="#pop_0_Layer1_0_FILL"/>
</g>

<g transform="matrix( 1, 0, 0, 1, 0,0) ">
<use xlink:href="#pop_0_Layer0_0_FILL"/>
</g>
</g>

<g transform="matrix( 1, 0, 0, 1, 0,0) ">
<use xlink:href="#Layer1_1_MEMBER_1_FILL"/>
</g>

<g transform="matrix( 1, 0, 0, 1, 0,0) ">
<use xlink:href="#Layer1_1_MEMBER_1_MEMBER_0_FILL"/>
</g>

<g transform="matrix( 1, 0, 0, 1, 0,0) ">
<use xlink:href="#Layer1_1_MEMBER_2_FILL"/>
</g>

<g transform="matrix( 1, 0, 0, 1, 0,0) ">
<use xlink:href="#Layer1_1_MEMBER_2_MEMBER_0_FILL"/>
</g>

<g transform="matrix( 1, 0, 0, 1, 0,0) ">
<use xlink:href="#Layer0_0_FILL"/>
</g>
</svg>
