
<svg xmlns="http://www.w3.org/2000/svg" version="1.1" xmlns:xlink="http://www.w3.org/1999/xlink" preserveAspectRatio="none" x="0px" y="0px" width="300px" height="100px" viewBox="0 0 300 100">
<defs>
<g id="Layer1_0_FILL">
<path fill="#000000" fill-opacity="0.5019607843137255" stroke="none" d="
M 300 49.2
Q 300 28.8 285.55 14.4 271.2 0 250.8 0
L 49.2 0
Q 28.8 0 14.35 14.4 0 28.8 0 49.2 0 69.6 14.35 84 28.8 98.4 49.2 98.4
L 127.95 98.4
Q 128.15 98.5 128.4 98.5 128.6650390625 98.5 128.9 98.4
L 250.8 98.4
Q 271.2 98.4 285.55 84 300 69.6 300 49.2 Z"/>
</g>

<g id="pop_0_Layer5_0_FILL">
<path fill="#0C0A80" fill-opacity="0.2" stroke="none" d="
M 7.25 6.1
Q 7.75 5.2 7.85 4.45 7.85 4.3 7.85 4 7.7 2.15 6.05 1.6 4.15 1.1 3 2.6 1.9 4.15 3.45 5.9 4.7 7.3 2.95 7.8 3.1 7.95 3.7 7.95 3.75 7.95 3.85 7.95 4.5 8 5.5 7.6 6.7 7 7.25 6.1 Z"/>
</g>

<g id="pop_0_Layer4_0_FILL">
<path fill="#0C0A80" fill-opacity="0.2" stroke="none" d="
M 4.85 5.25
Q 4.85 4.4 4.25 3.75 3.65 3.15 2.8 3.15 1.95 3.15 1.35 3.75 0.7 4.4 0.7 5.25 0.7 6.1 1.35 6.7 1.95 7.3 2.8 7.3 3.65 7.3 4.25 6.7 4.85 6.1 4.85 5.25 Z"/>
</g>

<g id="pop_0_Layer3_0_FILL">
<path fill="#0C0A80" fill-opacity="0.2" stroke="none" d="
M 7.05 2.25
Q 7.05 1.6 6.6 1.15 6.15 0.7 5.5 0.7 4.85 0.7 4.4 1.15 3.95 1.6 3.95 2.25 3.95 2.9 4.4 3.35 4.85 3.8 5.5 3.8 6.15 3.8 6.6 3.35 7.05 2.9 7.05 2.25 Z"/>
</g>

<g id="pop_0_Layer2_0_FILL">
<path fill="#FFFFFF" fill-opacity="0.30196078431372547" stroke="none" d="
M 8.2 4.1
Q 8.2 2.4 7 1.2 5.8 0 4.1 0 2.4 0 1.2 1.2 0 2.4 0 4.1 0 5.8 1.2 7 2.4 8.2 4.1 8.2 5.8 8.2 7 7 8.2 5.8 8.2 4.1 Z"/>
</g>

<g id="pop_0_Layer1_0_FILL">
<path fill="#FFFFFF" fill-opacity="0.5019607843137255" stroke="none" d="
M 2.1 6.2
Q 3.7 5.95 2.65 3.7 1.9 1.2 4.2 0.3 3.65 0.35 3 0.55 1.7 1.1 1.1 1.9 0.5 2.75 0.4 3.5 0.35 3.65 0.35 3.95 0.4 6.2 2.1 6.2 Z"/>
</g>

<g id="pop_0_Layer0_0_FILL">
<path fill="#FFFFFF" fill-opacity="0.5019607843137255" stroke="none" d="
M 6.9 1.85
Q 6.9 1.45 6.65 1.2 6.35 0.9 6 0.9 5.6 0.9 5.35 1.2 5.05 1.45 5.05 1.85 5.05 2.2 5.35 2.5 5.6 2.75 6 2.75 6.35 2.75 6.65 2.5 6.9 2.2 6.9 1.85 Z"/>
</g>

<g id="Layer1_1_MEMBER_1_FILL">
<path fill="#FFFFFF" stroke="none" d="
M 72.85 24.2
Q 72.85 24.15 72.85 24.05 72.85 22.95 72 22.1 71.15 21.25 70.05 21.25
L 28.6 21.25
Q 27.4 21.25 26.65 22.1 26.6 22.1 26.6 22.15 25.8 23 25.8 24.05 25.8 24.15 25.8 24.2 25.8 24.85 25.85 25.55 25.85 25.7 25.85 25.9 23.85 26.8 22.2 28.5 18.4 32.3 18.4 37.6 18.4 42.85 22.2 46.6
L 22.2 46.65
Q 25.95 50.4 31.25 50.4 32.6 50.4 33.95 50.15
L 34 50.2
Q 37.8 55 42.4 57 43.45 60.3 43.75 64.05 41.85 67.25 39.3 70.05 38.2 71.25 36.9 72.4
L 36.85 72.45
Q 36.8 72.45 36.8 72.5 35.9 73.05 35.7 74.1 35 77.1 34.25 80.05 34.2 80.15 34.2 80.25 34.1 80.9 34.3 81.6 34.35 81.7 34.4 81.8 34.65 82.5 35.4 83.05
L 35.45 83.05
Q 36.1 83.5 36.95 83.5
L 61.7 83.5
Q 62.45 83.5 63.15 83.1 63.2 83.05 63.3 83.05 64 82.5 64.3 81.8 64.3 81.7 64.35 81.6 64.55 80.8 64.35 80.05 63.65 77.2 62.95 74.25 62.8 73.1 61.95 72.5 61.8 72.4 61.65 72.35 60.35 71.2 59.3 70.05 56.75 67.25 55 64 55.15 60.35 56.25 57 60.8 55.05 64.7 50.3 64.7 50.25 64.75 50.2 65.95 50.4 67.2 50.4 72.45 50.4 76.25 46.6 80 42.85 80 37.6 80 32.3 76.3 28.5 74.7 26.85 72.85 26 72.85 25.7 72.85 25.4 72.85 25.35 72.85 25.3 72.85 24.75 72.85 24.2 Z"/>
</g>

<g id="Layer1_1_MEMBER_1_MEMBER_0_FILL">
<path fill="#957800" stroke="none" d="
M 49.2 74.7
L 49.2 80.7 61.7 80.7
Q 60.95 77.75 60.25 74.7
L 60.2 74.7 49.2 74.7 Z"/>

<path fill="#C59E00" stroke="none" d="
M 38.4 74.7
Q 37.7 77.75 36.95 80.7
L 49.2 80.7 49.2 74.7 38.45 74.7 38.4 74.7
M 70.05 24.2
Q 70.05 24.15 70.05 24.05
L 49.2 24.05 49.2 74.7 60.2 74.7
Q 58.6 73.35 57.3 71.9 54.2 68.6 52.1 64.65 52.3 59.45 54 54.9
L 53.9 54.9
Q 58.6 53.35 62.5 48.5 63.05 47.8 63.6 47 65.25 47.6 67.2 47.6 71.35 47.6 74.3 44.65 77.25 41.75 77.25 37.6 77.25 33.4 74.3 30.45 72.35 28.55 69.95 27.9 70 26.6 70.05 25.3 70.05 24.75 70.05 24.2
M 67.2 44.65
Q 66.15 44.65 65.2 44.4 68.6 38.4 69.65 30.9 71.05 31.45 72.2 32.55 74.35 34.65 74.35 37.6 74.35 40.55 72.2 42.6 70.2 44.65 67.2 44.65 Z"/>

<path fill="#FFCC00" stroke="none" d="
M 28.6 24.05
Q 28.6 24.15 28.6 24.2 28.6 24.75 28.6 25.3 28.6 26.55 28.7 27.85 26.15 28.45 24.15 30.45 21.2 33.4 21.2 37.6 21.2 41.75 24.15 44.65 27.1 47.6 31.25 47.6 33.25 47.6 35.05 46.95 35.55 47.7 36.15 48.45 40 53.35 44.75 54.9
L 44.65 54.9
Q 46.3 59.45 46.5 64.65 44.45 68.6 41.35 71.9 40.05 73.35 38.45 74.7
L 49.2 74.7 49.2 24.05 28.6 24.05
M 26.2 32.55
Q 27.45 31.3 29 30.85 30.05 38.35 33.45 44.35 32.4 44.65 31.25 44.65 28.3 44.65 26.2 42.6 24.15 40.55 24.15 37.6 24.15 34.65 26.2 32.55 Z"/>
</g>

<g id="Layer0_0_FILL">
<path fill="#FFFFFF" stroke="none" d="
M 159.2 84.35
L 157.2 84.35 156.1 89.55 158.1 89.55 159.2 84.35
M 159.35 83.75
L 159.6 82.4 157.65 82.4 157.35 83.75 159.35 83.75
M 192 84.35
L 190 84.35 188.9 89.55 190.9 89.55 192 84.35
M 190.15 83.75
L 192.15 83.75 192.4 82.4 190.45 82.4 190.15 83.75
M 186.25 84.25
Q 185.35 84.25 184.7 84.5 184.1 84.75 183.8 85.2 183.45 85.6 183.45 86.1 183.45 86.65 183.9 87 184.3 87.35 185.45 87.55 185.95 87.65 186.15 87.7 186.3 87.8 186.3 88.05 186.3 88.3 186.05 88.45 185.8 88.6 185.5 88.6 184.8 88.6 184.65 87.95
L 182.7 88.1
Q 182.8 88.95 183.35 89.3 183.95 89.65 185.2 89.65 186.7 89.65 187.45 89.1 188.2 88.55 188.2 87.75 188.2 87.15 187.8 86.8 187.45 86.45 186.3 86.3 185.55 86.2 185.4 86.1 185.25 85.95 185.25 85.8 185.25 85.6 185.4 85.45 185.6 85.35 185.95 85.35 186.6 85.35 186.65 85.8
L 188.55 85.6
Q 188.4 84.85 187.85 84.55 187.3 84.25 186.25 84.25
M 199.1 84.4
Q 198.6 84.55 198.05 84.95 197.55 85.35 197.25 86 196.95 86.6 196.95 87.3 196.95 88.3 197.6 89 198.25 89.65 199.8 89.65 200.85 89.65 201.55 89.35 202.25 89 202.65 88.2
L 200.75 88.05
Q 200.4 88.5 199.85 88.5 199 88.5 198.9 87.45
L 202.85 87.45
Q 203 86.75 203 86.45 203 85.5 202.35 84.9 201.7 84.25 200.25 84.25 199.6 84.25 199.1 84.4
M 199.1 86.5
Q 199.25 85.95 199.55 85.7 199.85 85.4 200.2 85.4 200.55 85.4 200.8 85.6 201.05 85.8 201.05 86.2 201.05 86.4 201 86.5
L 199.1 86.5
M 193.8 83.55
L 193.65 84.35 192.9 84.35 192.6 85.8 193.3 85.8 192.95 87.55
Q 192.8 88.25 192.8 88.4 192.8 88.85 193.15 89.25 193.5 89.65 194.35 89.65 194.75 89.65 195.65 89.55
L 195.95 88.15
Q 195.5 88.2 195.35 88.2 194.9 88.2 194.9 87.85 194.9 87.75 194.9 87.6
L 195.3 85.8 196.35 85.8 196.65 84.35 195.6 84.35 196 82.45 193.8 83.55
M 168.65 84.35
L 166.65 84.35 165.55 89.55 167.55 89.55 168.65 84.35
M 168.8 83.75
L 169.05 82.4 167.1 82.4 166.8 83.75 168.8 83.75
M 165.85 84.35
L 163.75 84.35 162.05 87.65 161.75 84.35 159.85 84.35 160.85 89.55 162.6 89.55 165.85 84.35
M 173.3 84.35
L 172.25 84.35 172.65 82.45 170.45 83.55 170.3 84.35 169.55 84.35 169.25 85.8 169.95 85.8 169.6 87.55
Q 169.45 88.25 169.45 88.4 169.45 88.85 169.8 89.25 170.15 89.65 171 89.65 171.4 89.65 172.3 89.55
L 172.6 88.15
Q 172.15 88.2 172 88.2 171.55 88.2 171.55 87.85 171.55 87.75 171.55 87.6
L 171.95 85.8 173 85.8 173.3 84.35
M 179.75 84.35
L 177.75 84.35 176 87.95 175.7 84.35 173.75 84.35 174.75 89.55
Q 174.4 90.25 173.8 90.25 173.5 90.25 173.15 90.1
L 173 91.45
Q 173.75 91.65 174.45 91.65 175.1 91.65 175.55 91.35 176 91.05 176.5 90.2
L 179.75 84.35
M 147.6 86.2
Q 148 85.6 148.7 85.6 149.5 85.6 149.6 86.25
L 151.4 86.15
Q 151.3 85.2 150.6 84.75 149.9 84.25 148.7 84.25 147.05 84.25 146.15 85.2 145.25 86.15 145.25 87.45 145.25 89.65 148 89.65 150.45 89.65 151.1 87.65
L 149.25 87.45
Q 148.85 88.35 148.1 88.35 147.75 88.35 147.5 88.1 147.2 87.9 147.2 87.45 147.2 86.75 147.6 86.2
M 153.2 83.55
L 153.05 84.35 152.3 84.35 152 85.8 152.7 85.8 152.35 87.55
Q 152.2 88.25 152.2 88.4 152.2 88.85 152.55 89.25 152.9 89.65 153.75 89.65 154.15 89.65 155.05 89.55
L 155.35 88.15
Q 154.9 88.2 154.75 88.2 154.3 88.2 154.3 87.85 154.3 87.75 154.3 87.6
L 154.7 85.8 155.75 85.8 156.05 84.35 155 84.35 155.4 82.45 153.2 83.55
M 125.4 85.7
Q 125.8 85.7 125.8 86.15 125.8 86.25 125.6 87.15
L 125.1 89.55 127.1 89.55 127.7 86.7
Q 127.9 85.8 127.9 85.5 127.9 84.95 127.55 84.6 127.2 84.25 126.45 84.25 125.3 84.25 124.45 85.15
L 124.6 84.35 122.75 84.35 121.65 89.55 123.65 89.55 124.15 87.3
Q 124.3 86.55 124.65 86.1 124.95 85.7 125.4 85.7
M 135.3 82.4
L 133.3 82.4 132.7 85.05
Q 132.15 84.25 131.05 84.25 130 84.25 129.3 85.2 128.6 86.2 128.6 87.5 128.6 88.5 129.05 89.1 129.55 89.65 130.4 89.65 130.9 89.65 131.2 89.55 131.55 89.4 132 89
L 132 89.05 131.9 89.55 133.75 89.55 135.3 82.4
M 132.15 85.8
Q 132.35 86.05 132.35 86.5 132.35 87.15 132.05 87.75 131.75 88.35 131.2 88.35 130.9 88.35 130.75 88.15 130.55 87.9 130.55 87.45 130.55 86.7 130.85 86.15 131.15 85.6 131.6 85.6 131.9 85.6 132.15 85.8
M 139.9 84.65
Q 139.25 85.05 139.05 85.8
L 140.9 86
Q 141.1 85.65 141.3 85.55 141.5 85.4 141.85 85.4 142.15 85.4 142.4 85.55 142.55 85.65 142.55 85.85 142.55 85.95 142.5 86.2 142.2 86.3 141.35 86.4 140.4 86.5 139.85 86.6 139.25 86.75 138.9 87.1 138.5 87.45 138.5 88.15 138.5 88.75 138.95 89.2 139.35 89.65 140.35 89.65 141.3 89.65 142.1 88.95 142.1 89.25 142.15 89.55
L 144.1 89.55
Q 143.95 89.2 143.95 88.85 143.95 88.4 144.2 87.35 144.5 86.25 144.5 85.75 144.5 85 143.95 84.65 143.4 84.25 141.9 84.25 140.55 84.25 139.9 84.65
M 140.45 88.05
Q 140.45 87.8 140.7 87.65 140.9 87.45 142.3 87.25 142.15 88 141.8 88.3 141.45 88.6 141.05 88.6 140.8 88.6 140.6 88.45 140.45 88.3 140.45 88.05
M 107.45 84.35
Q 107.15 84.5 106.8 84.75
L 107.3 82.4 105.3 82.4 103.8 89.55 105.65 89.55 105.85 88.7
Q 106.4 89.65 107.55 89.65 108.7 89.65 109.35 88.65 110.05 87.65 110.05 86.4 110.05 85.45 109.6 84.85 109.15 84.25 108.25 84.25 107.75 84.25 107.45 84.35
M 107.4 85.55
Q 108.1 85.55 108.1 86.45 108.1 87.25 107.8 87.8 107.5 88.35 107.05 88.35 106.75 88.35 106.5 88.1 106.3 87.85 106.3 87.4 106.3 86.7 106.6 86.15 106.9 85.55 107.4 85.55
M 118 85.55
Q 118.2 85.4 118.55 85.4 118.85 85.4 119.1 85.55 119.25 85.65 119.25 85.85 119.25 85.95 119.2 86.2 118.9 86.3 118.05 86.4 117.1 86.5 116.55 86.6 115.95 86.75 115.6 87.1 115.2 87.45 115.2 88.15 115.2 88.75 115.65 89.2 116.05 89.65 117.05 89.65 118 89.65 118.8 88.95 118.8 89.25 118.85 89.55
L 120.8 89.55
Q 120.65 89.2 120.65 88.85 120.65 88.4 120.9 87.35 121.2 86.25 121.2 85.75 121.2 85 120.65 84.65 120.1 84.25 118.6 84.25 117.25 84.25 116.6 84.65 115.95 85.05 115.75 85.8
L 117.6 86
Q 117.8 85.65 118 85.55
M 117.75 88.6
Q 117.5 88.6 117.3 88.45 117.15 88.3 117.15 88.05 117.15 87.8 117.4 87.65 117.6 87.45 119 87.25 118.85 88 118.5 88.3 118.15 88.6 117.75 88.6
M 115.45 84.4
Q 115.1 84.25 114.8 84.25 114.35 84.25 114 84.5 113.65 84.7 113.2 85.4
L 113.4 84.35 111.55 84.35 110.45 89.55 112.45 89.55 112.85 87.6
Q 113.05 86.7 113.4 86.3 113.75 85.9 114.35 85.9 114.5 85.9 114.75 85.95
L 115.45 84.4
M 237.55 69.1
Q 237.05 69.5 236.75 70.15 236.45 70.75 236.45 71.45 236.45 72.45 237.1 73.15 237.75 73.8 239.3 73.8 240.35 73.8 241.05 73.5 241.75 73.15 242.15 72.35
L 240.25 72.2
Q 239.9 72.65 239.35 72.65 238.5 72.65 238.4 71.6
L 242.35 71.6
Q 242.5 70.9 242.5 70.6 242.5 69.65 241.85 69.05 241.2 68.4 239.75 68.4 239.1 68.4 238.6 68.55 238.1 68.7 237.55 69.1
M 240.55 70.35
Q 240.55 70.55 240.5 70.65
L 238.6 70.65
Q 238.75 70.1 239.05 69.85 239.35 69.55 239.7 69.55 240.05 69.55 240.3 69.75 240.55 69.95 240.55 70.35
M 230.8 68.5
L 231.8 73.7
Q 231.45 74.4 230.85 74.4 230.55 74.4 230.2 74.25
L 230.05 75.6
Q 230.8 75.8 231.5 75.8 232.15 75.8 232.6 75.5 233.05 75.2 233.55 74.35
L 236.8 68.5 234.8 68.5 233.05 72.1 232.75 68.5 230.8 68.5
M 260.75 66.55
L 258.75 66.55 257.25 73.7 259.1 73.7 259.3 72.85
Q 259.85 73.8 261 73.8 262.15 73.8 262.8 72.8 263.5 71.8 263.5 70.55 263.5 69.6 263.05 69 262.6 68.4 261.7 68.4 261.2 68.4 260.9 68.5 260.6 68.65 260.25 68.9
L 260.75 66.55
M 260.85 69.7
Q 261.55 69.7 261.55 70.6 261.55 71.4 261.25 71.95 260.95 72.5 260.5 72.5 260.2 72.5 259.95 72.25 259.75 72 259.75 71.55 259.75 70.85 260.05 70.3 260.35 69.7 260.85 69.7
M 253 68.65
Q 252.65 68.85 252.2 69.55
L 252.4 68.5 250.55 68.5 249.45 73.7 251.45 73.7 251.85 71.75
Q 252.05 70.85 252.4 70.45 252.75 70.05 253.35 70.05 253.5 70.05 253.75 70.1
L 254.45 68.55
Q 254.1 68.4 253.8 68.4 253.35 68.4 253 68.65
M 245.8 69.7
Q 246 69.55 246.35 69.55 246.65 69.55 246.9 69.7 247.05 69.8 247.05 70 247.05 70.1 247 70.35 246.7 70.45 245.85 70.55 244.9 70.65 244.35 70.75 243.75 70.9 243.4 71.25 243 71.6 243 72.3 243 72.9 243.45 73.35 243.85 73.8 244.85 73.8 245.8 73.8 246.6 73.1 246.6 73.4 246.65 73.7
L 248.6 73.7
Q 248.45 73.35 248.45 73 248.45 72.55 248.7 71.5 249 70.4 249 69.9 249 69.15 248.45 68.8 247.9 68.4 246.4 68.4 245.05 68.4 244.4 68.8 243.75 69.2 243.55 69.95
L 245.4 70.15
Q 245.6 69.8 245.8 69.7
M 245.1 72.6
Q 244.95 72.45 244.95 72.2 244.95 71.95 245.2 71.8 245.4 71.6 246.8 71.4 246.65 72.15 246.3 72.45 245.95 72.75 245.55 72.75 245.3 72.75 245.1 72.6
M 278.1 68.5
L 277.35 68.5 277.05 69.95 277.75 69.95 277.4 71.7
Q 277.25 72.4 277.25 72.55 277.25 73 277.6 73.4 277.95 73.8 278.8 73.8 279.2 73.8 280.1 73.7
L 280.4 72.3
Q 279.95 72.35 279.8 72.35 279.35 72.35 279.35 72 279.35 71.9 279.35 71.75
L 279.75 69.95 280.8 69.95 281.1 68.5 280.05 68.5 280.45 66.6 278.25 67.7 278.1 68.5
M 273.05 69.95
Q 273.05 69.75 273.2 69.6 273.4 69.5 273.75 69.5 274.4 69.5 274.45 69.95
L 276.35 69.75
Q 276.2 69 275.65 68.7 275.1 68.4 274.05 68.4 273.15 68.4 272.5 68.65 271.9 68.9 271.6 69.35 271.25 69.75 271.25 70.25 271.25 70.8 271.7 71.15 272.1 71.5 273.25 71.7 273.75 71.8 273.95 71.85 274.1 71.95 274.1 72.2 274.1 72.45 273.85 72.6 273.6 72.75 273.3 72.75 272.6 72.75 272.45 72.1
L 270.5 72.25
Q 270.6 73.1 271.15 73.45 271.75 73.8 273 73.8 274.5 73.8 275.25 73.25 276 72.7 276 71.9 276 71.3 275.6 70.95 275.25 70.6 274.1 70.45 273.35 70.35 273.2 70.25 273.05 70.1 273.05 69.95
M 267.5 68.4
Q 266.85 68.4 266.35 68.55 265.85 68.7 265.3 69.1 264.8 69.5 264.5 70.15 264.2 70.75 264.2 71.45 264.2 72.45 264.85 73.15 265.5 73.8 267.05 73.8 268.1 73.8 268.8 73.5 269.5 73.15 269.9 72.35
L 268 72.2
Q 267.65 72.65 267.1 72.65 266.25 72.65 266.15 71.6
L 270.1 71.6
Q 270.25 70.9 270.25 70.6 270.25 69.65 269.6 69.05 268.95 68.4 267.5 68.4
M 268.3 70.35
Q 268.3 70.55 268.25 70.65
L 266.35 70.65
Q 266.5 70.1 266.8 69.85 267.1 69.55 267.45 69.55 267.8 69.55 268.05 69.75 268.3 69.95 268.3 70.35
M 216.9 69.6
Q 217.1 69.5 217.45 69.5 218.1 69.5 218.15 69.95
L 220.05 69.75
Q 219.9 69 219.35 68.7 218.8 68.4 217.75 68.4 216.85 68.4 216.2 68.65 215.6 68.9 215.3 69.35 214.95 69.75 214.95 70.25 214.95 70.8 215.4 71.15 215.8 71.5 216.95 71.7 217.45 71.8 217.65 71.85 217.8 71.95 217.8 72.2 217.8 72.45 217.55 72.6 217.3 72.75 217 72.75 216.3 72.75 216.15 72.1
L 214.2 72.25
Q 214.3 73.1 214.85 73.45 215.45 73.8 216.7 73.8 218.2 73.8 218.95 73.25 219.7 72.7 219.7 71.9 219.7 71.3 219.3 70.95 218.95 70.6 217.8 70.45 217.05 70.35 216.9 70.25 216.75 70.1 216.75 69.95 216.75 69.75 216.9 69.6
M 210.2 71.05
L 210.75 68.5 208.75 68.5 208.15 71.3
Q 207.95 72.25 207.95 72.6 207.95 73.1 208.3 73.45 208.65 73.8 209.35 73.8 210.55 73.8 211.35 72.9
L 211.2 73.7 213.05 73.7 214.15 68.5 212.15 68.5 211.7 70.75
Q 211.5 71.55 211.2 71.95 210.85 72.35 210.4 72.35 210.05 72.35 210.05 71.95
L 210.05 71.9
Q 210.05 71.8 210.05 71.7 210.05 71.6 210.2 71.05
M 226.7 70.6
Q 226.7 69.65 226.05 69.05 225.4 68.4 223.95 68.4 223.3 68.4 222.8 68.55 222.3 68.7 221.75 69.1 221.25 69.5 220.95 70.15 220.65 70.75 220.65 71.45 220.65 72.45 221.3 73.15 221.95 73.8 223.5 73.8 224.55 73.8 225.25 73.5 225.95 73.15 226.35 72.35
L 224.45 72.2
Q 224.1 72.65 223.55 72.65 222.7 72.65 222.6 71.6
L 226.55 71.6
Q 226.7 70.9 226.7 70.6
M 224.75 70.35
Q 224.75 70.55 224.7 70.65
L 222.8 70.65
Q 222.95 70.1 223.25 69.85 223.55 69.55 223.9 69.55 224.25 69.55 224.5 69.75 224.75 69.95 224.75 70.35
M 181.15 66.55
L 179.2 66.55 177.65 73.7 179.65 73.7 181.15 66.55
M 171.25 71.5
Q 171.25 72.5 171.9 73.15 172.55 73.8 173.9 73.8 175 73.8 175.7 73.4 176.45 72.95 176.8 72.2 177.2 71.45 177.2 70.75 177.2 69.8 176.55 69.1 175.9 68.4 174.5 68.4 173.5 68.4 172.75 68.8 172 69.25 171.65 69.95 171.25 70.7 171.25 71.5
M 175 69.95
Q 175.25 70.15 175.25 70.65 175.25 71.35 174.9 71.9 174.6 72.5 174.05 72.5 173.65 72.5 173.45 72.2 173.2 71.9 173.2 71.5 173.2 70.9 173.5 70.3 173.8 69.75 174.45 69.75 174.75 69.75 175 69.95
M 201.25 71.5
Q 201.25 72.5 201.9 73.15 202.55 73.8 203.9 73.8 205 73.8 205.7 73.4 206.45 72.95 206.8 72.2 207.2 71.45 207.2 70.75 207.2 69.8 206.55 69.1 205.9 68.4 204.5 68.4 203.5 68.4 202.75 68.8 202 69.25 201.65 69.95 201.25 70.7 201.25 71.5
M 203.5 70.3
Q 203.8 69.75 204.45 69.75 204.75 69.75 205 69.95 205.25 70.15 205.25 70.65 205.25 71.35 204.9 71.9 204.6 72.5 204.05 72.5 203.65 72.5 203.45 72.2 203.2 71.9 203.2 71.5 203.2 70.9 203.5 70.3
M 192.05 68.5
L 190.95 73.7 192.95 73.7 193.5 71.2
Q 193.65 70.45 194 70.15 194.35 69.85 194.65 69.85 195.05 69.85 195.05 70.25 195.05 70.35 195 70.5 195 70.65 194.8 71.55
L 194.35 73.7 196.35 73.7 196.8 71.4
Q 197 70.6 197.3 70.2 197.55 69.85 198 69.85 198.4 69.85 198.4 70.25 198.4 70.3 198.4 70.5 198.35 70.65 198.2 71.5
L 197.7 73.7 199.7 73.7 200.45 70.3
Q 200.5 70 200.5 69.7 200.5 69.15 200.15 68.8 199.8 68.4 199.1 68.4 198.55 68.4 198.1 68.6 197.65 68.75 197.1 69.3 196.95 68.85 196.55 68.65 196.2 68.4 195.7 68.4 194.65 68.4 193.8 69.3
L 193.75 69.25 193.9 68.5 192.05 68.5
M 184.65 73.2
L 184.55 73.7 186.4 73.7 187.95 66.55 185.95 66.55 185.35 69.2
Q 184.8 68.4 183.7 68.4 182.65 68.4 181.95 69.35 181.25 70.35 181.25 71.65 181.25 72.65 181.7 73.25 182.2 73.8 183.05 73.8 183.55 73.8 183.85 73.7 184.2 73.55 184.65 73.15
L 184.65 73.2
M 184.8 69.95
Q 185 70.2 185 70.65 185 71.3 184.7 71.9 184.4 72.5 183.85 72.5 183.55 72.5 183.4 72.3 183.2 72.05 183.2 71.6 183.2 70.85 183.5 70.3 183.8 69.75 184.25 69.75 184.55 69.75 184.8 69.95
M 133.6 68.8
Q 132.85 69.25 132.5 69.95 132.1 70.7 132.1 71.5 132.1 72.5 132.75 73.15 133.4 73.8 134.75 73.8 135.85 73.8 136.55 73.4 137.3 72.95 137.65 72.2 138.05 71.45 138.05 70.75 138.05 69.8 137.4 69.1 136.75 68.4 135.35 68.4 134.35 68.4 133.6 68.8
M 135.85 69.95
Q 136.1 70.15 136.1 70.65 136.1 71.35 135.75 71.9 135.45 72.5 134.9 72.5 134.5 72.5 134.3 72.2 134.05 71.9 134.05 71.5 134.05 70.9 134.35 70.3 134.65 69.75 135.3 69.75 135.6 69.75 135.85 69.95
M 129.9 66.85
Q 129.7 67.1 129.6 67.35 129.5 67.6 129.35 68.5
L 128.6 68.5 128.3 69.95 129.05 69.95 128.2 73.7 130.2 73.7 131 69.95 131.95 69.95 132.25 68.5 131.3 68.5
Q 131.45 67.9 131.6 67.8 131.7 67.7 131.95 67.7 132.2 67.7 132.6 67.8
L 132.95 66.65
Q 131.95 66.4 131.25 66.4 130.8 66.4 130.45 66.55 130.15 66.65 129.9 66.85
M 156.4 73.7
L 156.9 71.45
Q 157.05 70.7 157.4 70.25 157.7 69.85 158.15 69.85 158.55 69.85 158.55 70.3 158.55 70.4 158.35 71.3
L 157.85 73.7 159.85 73.7 160.45 70.85
Q 160.65 69.95 160.65 69.65 160.65 69.1 160.3 68.75 159.95 68.4 159.25 68.4 158.1 68.4 157.4 69.15
L 157.35 69.15 157.95 66.55 155.95 66.55 154.4 73.7 156.4 73.7
M 150.65 68.5
L 150.35 69.95 151.05 69.95 150.7 71.7
Q 150.55 72.4 150.55 72.55 150.55 73 150.9 73.4 151.25 73.8 152.1 73.8 152.5 73.8 153.4 73.7
L 153.7 72.3
Q 153.25 72.35 153.1 72.35 152.65 72.35 152.65 72 152.65 71.9 152.65 71.75
L 153.05 69.95 154.1 69.95 154.4 68.5 153.35 68.5 153.75 66.6 151.55 67.7 151.4 68.5 150.65 68.5
M 142.2 72.9
L 142.05 73.7 143.9 73.7 145 68.5 143 68.5 142.55 70.75
Q 142.35 71.55 142.05 71.95 141.7 72.35 141.25 72.35 140.9 72.35 140.9 71.95
L 140.9 71.9
Q 140.9 71.8 140.9 71.7 140.9 71.6 141.05 71.05
L 141.6 68.5 139.6 68.5 139 71.3
Q 138.8 72.25 138.8 72.6 138.8 73.1 139.15 73.45 139.5 73.8 140.2 73.8 141.4 73.8 142.2 72.9
M 146.2 68.5
L 145.1 73.7 147.1 73.7 147.5 71.75
Q 147.7 70.85 148.05 70.45 148.4 70.05 149 70.05 149.15 70.05 149.4 70.1
L 150.1 68.55
Q 149.75 68.4 149.45 68.4 149 68.4 148.65 68.65 148.3 68.85 147.85 69.55
L 148.05 68.5 146.2 68.5
M 120.45 68.55
Q 119.95 68.7 119.4 69.1 118.9 69.5 118.6 70.15 118.3 70.75 118.3 71.45 118.3 72.45 118.95 73.15 119.6 73.8 121.15 73.8 122.2 73.8 122.9 73.5 123.6 73.15 124 72.35
L 122.1 72.2
Q 121.75 72.65 121.2 72.65 120.35 72.65 120.25 71.6
L 124.2 71.6
Q 124.35 70.9 124.35 70.6 124.35 69.65 123.7 69.05 123.05 68.4 121.6 68.4 120.95 68.4 120.45 68.55
M 120.45 70.65
Q 120.6 70.1 120.9 69.85 121.2 69.55 121.55 69.55 121.9 69.55 122.15 69.75 122.4 69.95 122.4 70.35 122.4 70.55 122.35 70.65
L 120.45 70.65
M 114.9 66.55
L 112.9 66.55 111.35 73.7 113.35 73.7 113.85 71.45
Q 114 70.7 114.35 70.25 114.65 69.85 115.1 69.85 115.5 69.85 115.5 70.3 115.5 70.4 115.3 71.3
L 114.8 73.7 116.8 73.7 117.4 70.85
Q 117.6 69.95 117.6 69.65 117.6 69.1 117.25 68.75 116.9 68.4 116.2 68.4 115.05 68.4 114.35 69.15
L 114.3 69.15 114.9 66.55
M 109 68.3
L 111.35 68.3 111.7 66.55 104.95 66.55 104.55 68.3 106.8 68.3 105.65 73.7 107.85 73.7 109 68.3
M 166.3 74.1
L 164.4 73.8
Q 164.4 73.9 164.4 74.05 164.4 74.6 164.75 75.05 165.1 75.5 165.6 75.65 166.05 75.8 166.95 75.8 168.25 75.8 168.9 75.3 169.55 74.85 169.85 73.4
L 170.9 68.5 169.05 68.5 168.9 69.25
Q 168.25 68.4 167.3 68.4 166.2 68.4 165.45 69.3 164.7 70.2 164.7 71.45 164.7 72.4 165.15 72.95 165.65 73.5 166.45 73.5 167.3 73.5 167.95 72.8
L 168 72.85 167.8 73.6
Q 167.7 74.1 167.45 74.35 167.25 74.6 166.85 74.6 166.3 74.6 166.3 74.1
M 166.65 71.4
Q 166.65 70.75 167 70.25 167.3 69.7 167.75 69.7 168.05 69.7 168.25 69.95 168.45 70.15 168.45 70.45 168.45 71 168.15 71.6 167.9 72.15 167.35 72.15 167.05 72.15 166.85 71.95 166.65 71.75 166.65 71.4
M 130.35 54.75
Q 130.35 53.8 129.7 53.2 129.05 52.55 127.6 52.55 126.95 52.55 126.45 52.7 125.95 52.85 125.4 53.25 124.9 53.65 124.6 54.3 124.3 54.9 124.3 55.6 124.3 56.6 124.95 57.3 125.6 57.95 127.15 57.95 128.2 57.95 128.9 57.65 129.6 57.3 130 56.5
L 128.1 56.35
Q 127.75 56.8 127.2 56.8 126.35 56.8 126.25 55.75
L 130.2 55.75
Q 130.35 55.05 130.35 54.75
M 126.9 54
Q 127.2 53.7 127.55 53.7 127.9 53.7 128.15 53.9 128.4 54.1 128.4 54.5 128.4 54.7 128.35 54.8
L 126.45 54.8
Q 126.6 54.25 126.9 54
M 139.05 55.1
Q 138.7 54.75 137.55 54.6 136.8 54.5 136.65 54.4 136.5 54.25 136.5 54.1 136.5 53.9 136.65 53.75 136.85 53.65 137.2 53.65 137.85 53.65 137.9 54.1
L 139.8 53.9
Q 139.65 53.15 139.1 52.85 138.55 52.55 137.5 52.55 136.6 52.55 135.95 52.8 135.35 53.05 135.05 53.5 134.7 53.9 134.7 54.4 134.7 54.95 135.15 55.3 135.55 55.65 136.7 55.85 137.2 55.95 137.4 56 137.55 56.1 137.55 56.35 137.55 56.6 137.3 56.75 137.05 56.9 136.75 56.9 136.05 56.9 135.9 56.25
L 133.95 56.4
Q 134.05 57.25 134.6 57.6 135.2 57.95 136.45 57.95 137.95 57.95 138.7 57.4 139.45 56.85 139.45 56.05 139.45 55.45 139.05 55.1
M 142.15 57.85
L 143.25 52.65 141.25 52.65 140.15 57.85 142.15 57.85
M 143.4 52.05
L 143.65 50.7 141.7 50.7 141.4 52.05 143.4 52.05
M 147.9 52.65
L 146.85 52.65 147.25 50.75 145.05 51.85 144.9 52.65 144.15 52.65 143.85 54.1 144.55 54.1 144.2 55.85
Q 144.05 56.55 144.05 56.7 144.05 57.15 144.4 57.55 144.75 57.95 145.6 57.95 146 57.95 146.9 57.85
L 147.2 56.45
Q 146.75 56.5 146.6 56.5 146.15 56.5 146.15 56.15 146.15 56.05 146.15 55.9
L 146.55 54.1 147.6 54.1 147.9 52.65
M 153.9 56.5
L 152 56.35
Q 151.65 56.8 151.1 56.8 150.25 56.8 150.15 55.75
L 154.1 55.75
Q 154.25 55.05 154.25 54.75 154.25 53.8 153.6 53.2 152.95 52.55 151.5 52.55 150.85 52.55 150.35 52.7 149.85 52.85 149.3 53.25 148.8 53.65 148.5 54.3 148.2 54.9 148.2 55.6 148.2 56.6 148.85 57.3 149.5 57.95 151.05 57.95 152.1 57.95 152.8 57.65 153.5 57.3 153.9 56.5
M 152.05 53.9
Q 152.3 54.1 152.3 54.5 152.3 54.7 152.25 54.8
L 150.35 54.8
Q 150.5 54.25 150.8 54 151.1 53.7 151.45 53.7 151.8 53.7 152.05 53.9
M 110.8 50.7
L 108.8 50.7 108.2 53.35
Q 107.65 52.55 106.55 52.55 105.5 52.55 104.8 53.5 104.1 54.5 104.1 55.8 104.1 56.8 104.55 57.4 105.05 57.95 105.9 57.95 106.4 57.95 106.7 57.85 107.05 57.7 107.5 57.3
L 107.5 57.35 107.4 57.85 109.25 57.85 110.8 50.7
M 106.35 54.45
Q 106.65 53.9 107.1 53.9 107.4 53.9 107.65 54.1 107.85 54.35 107.85 54.8 107.85 55.45 107.55 56.05 107.25 56.65 106.7 56.65 106.4 56.65 106.25 56.45 106.05 56.2 106.05 55.75 106.05 55 106.35 54.45
M 116.95 57.85
L 118.05 52.65 116.05 52.65 114.95 57.85 116.95 57.85
M 114.8 52.55
Q 114.35 52.55 114 52.8 113.65 53 113.2 53.7
L 113.4 52.65 111.55 52.65 110.45 57.85 112.45 57.85 112.85 55.9
Q 113.05 55 113.4 54.6 113.75 54.2 114.35 54.2 114.5 54.2 114.75 54.25
L 115.45 52.7
Q 115.1 52.55 114.8 52.55
M 120.6 52.65
L 118.7 52.65 119.7 57.85 121.45 57.85 124.7 52.65 122.6 52.65 120.9 55.95 120.6 52.65
M 118.2 52.05
L 118.45 50.7 116.5 50.7 116.2 52.05 118.2 52.05
M 279.15 36.8
L 278.4 36.8 278.1 38.25 278.8 38.25 278.45 40
Q 278.3 40.7 278.3 40.85 278.3 41.3 278.65 41.7 279 42.1 279.85 42.1 280.25 42.1 281.15 42
L 281.45 40.6
Q 281 40.65 280.85 40.65 280.4 40.65 280.4 40.3 280.4 40.2 280.4 40.05
L 280.8 38.25 281.85 38.25 282.15 36.8 281.1 36.8 281.5 34.9 279.3 36 279.15 36.8
M 276.7 37
Q 276.15 36.7 275.1 36.7 274.2 36.7 273.55 36.95 272.95 37.2 272.65 37.65 272.3 38.05 272.3 38.55 272.3 39.1 272.75 39.45 273.15 39.8 274.3 40 274.8 40.1 275 40.15 275.15 40.25 275.15 40.5 275.15 40.75 274.9 40.9 274.65 41.05 274.35 41.05 273.65 41.05 273.5 40.4
L 271.55 40.55
Q 271.65 41.4 272.2 41.75 272.8 42.1 274.05 42.1 275.55 42.1 276.3 41.55 277.05 41 277.05 40.2 277.05 39.6 276.65 39.25 276.3 38.9 275.15 38.75 274.4 38.65 274.25 38.55 274.1 38.4 274.1 38.25 274.1 38.05 274.25 37.9 274.45 37.8 274.8 37.8 275.45 37.8 275.5 38.25
L 277.4 38.05
Q 277.25 37.3 276.7 37
M 268.55 36.7
Q 267.9 36.7 267.4 36.85 266.9 37 266.35 37.4 265.85 37.8 265.55 38.45 265.25 39.05 265.25 39.75 265.25 40.75 265.9 41.45 266.55 42.1 268.1 42.1 269.15 42.1 269.85 41.8 270.55 41.45 270.95 40.65
L 269.05 40.5
Q 268.7 40.95 268.15 40.95 267.3 40.95 267.2 39.9
L 271.15 39.9
Q 271.3 39.2 271.3 38.9 271.3 37.95 270.65 37.35 270 36.7 268.55 36.7
M 269.1 38.05
Q 269.35 38.25 269.35 38.65 269.35 38.85 269.3 38.95
L 267.4 38.95
Q 267.55 38.4 267.85 38.15 268.15 37.85 268.5 37.85 268.85 37.85 269.1 38.05
M 229.45 37.05
Q 229.1 36.7 228.4 36.7 227.25 36.7 226.55 37.45
L 226.5 37.45 227.1 34.85 225.1 34.85 223.55 42 225.55 42 226.05 39.75
Q 226.2 39 226.55 38.55 226.85 38.15 227.3 38.15 227.7 38.15 227.7 38.6 227.7 38.7 227.5 39.6
L 227 42 229 42 229.6 39.15
Q 229.8 38.25 229.8 37.95 229.8 37.4 229.45 37.05
M 240.8 36.75
Q 240.8 36.15 240.55 35.7 240.3 35.3 239.85 35.05 239.35 34.85 238.45 34.85
L 235.2 34.85 233.65 42 235.85 42 236.45 39.35 237.4 39.35
Q 238.6 39.35 239.25 39.1 239.9 38.8 240.35 38.2 240.8 37.55 240.8 36.75
M 237.1 36.25
L 238 36.25
Q 238.7 36.25 238.7 36.9 238.7 37.35 238.35 37.65 238 37.95 237.5 37.95
L 236.75 37.95 237.1 36.25
M 207.7 34.85
L 205.65 34.85 204.75 39 204.7 39 202.95 34.85 200.9 34.85 199.35 42 201.45 42 202.3 37.85 202.35 37.85 204.1 42 206.2 42 207.7 34.85
M 211.15 36.7
Q 210.15 36.7 209.4 37.1 208.65 37.55 208.3 38.25 207.9 39 207.9 39.8 207.9 40.8 208.55 41.45 209.2 42.1 210.55 42.1 211.65 42.1 212.35 41.7 213.1 41.25 213.45 40.5 213.85 39.75 213.85 39.05 213.85 38.1 213.2 37.4 212.55 36.7 211.15 36.7
M 211.9 38.95
Q 211.9 39.65 211.55 40.2 211.25 40.8 210.7 40.8 210.3 40.8 210.1 40.5 209.85 40.2 209.85 39.8 209.85 39.2 210.15 38.6 210.45 38.05 211.1 38.05 211.4 38.05 211.65 38.25 211.9 38.45 211.9 38.95
M 219.25 36.85
Q 218.9 36.7 218.6 36.7 218.15 36.7 217.8 36.95 217.45 37.15 217 37.85
L 217.2 36.8 215.35 36.8 214.25 42 216.25 42 216.65 40.05
Q 216.85 39.15 217.2 38.75 217.55 38.35 218.15 38.35 218.3 38.35 218.55 38.4
L 219.25 36.85
M 220.7 36
L 220.55 36.8 219.8 36.8 219.5 38.25 220.2 38.25 219.85 40
Q 219.7 40.7 219.7 40.85 219.7 41.3 220.05 41.7 220.4 42.1 221.25 42.1 221.65 42.1 222.55 42
L 222.85 40.6
Q 222.4 40.65 222.25 40.65 221.8 40.65 221.8 40.3 221.8 40.2 221.8 40.05
L 222.2 38.25 223.25 38.25 223.55 36.8 222.5 36.8 222.9 34.9 220.7 36
M 246.75 39.05
Q 246.75 38.1 246.1 37.4 245.45 36.7 244.05 36.7 243.05 36.7 242.3 37.1 241.55 37.55 241.2 38.25 240.8 39 240.8 39.8 240.8 40.8 241.45 41.45 242.1 42.1 243.45 42.1 244.55 42.1 245.25 41.7 246 41.25 246.35 40.5 246.75 39.75 246.75 39.05
M 244.8 38.95
Q 244.8 39.65 244.45 40.2 244.15 40.8 243.6 40.8 243.2 40.8 243 40.5 242.75 40.2 242.75 39.8 242.75 39.2 243.05 38.6 243.35 38.05 244 38.05 244.3 38.05 244.55 38.25 244.8 38.45 244.8 38.95
M 250.8 39.75
Q 250.8 40.75 251.45 41.45 252.1 42.1 253.65 42.1 254.7 42.1 255.4 41.8 256.1 41.45 256.5 40.65
L 254.6 40.5
Q 254.25 40.95 253.7 40.95 252.85 40.95 252.75 39.9
L 256.7 39.9
Q 256.85 39.2 256.85 38.9 256.85 37.95 256.2 37.35 255.55 36.7 254.1 36.7 253.45 36.7 252.95 36.85 252.45 37 251.9 37.4 251.4 37.8 251.1 38.45 250.8 39.05 250.8 39.75
M 253.4 38.15
Q 253.7 37.85 254.05 37.85 254.4 37.85 254.65 38.05 254.9 38.25 254.9 38.65 254.9 38.85 254.85 38.95
L 252.95 38.95
Q 253.1 38.4 253.4 38.15
M 250.7 34.85
L 248.75 34.85 247.2 42 249.2 42 250.7 34.85
M 261.95 36.8
L 261.2 36.8 260.9 38.25 261.6 38.25 261.25 40
Q 261.1 40.7 261.1 40.85 261.1 41.3 261.45 41.7 261.8 42.1 262.65 42.1 263.05 42.1 263.95 42
L 264.25 40.6
Q 263.8 40.65 263.65 40.65 263.2 40.65 263.2 40.3 263.2 40.2 263.2 40.05
L 263.6 38.25 264.65 38.25 264.95 36.8 263.9 36.8 264.3 34.9 262.1 36 261.95 36.8
M 151.15 36.7
Q 149.8 36.7 149.15 37.1 148.5 37.5 148.3 38.25
L 150.15 38.45
Q 150.35 38.1 150.55 38 150.75 37.85 151.1 37.85 151.4 37.85 151.65 38 151.8 38.1 151.8 38.3 151.8 38.4 151.75 38.65 151.45 38.75 150.6 38.85 149.65 38.95 149.1 39.05 148.5 39.2 148.15 39.55 147.75 39.9 147.75 40.6 147.75 41.2 148.2 41.65 148.6 42.1 149.6 42.1 150.55 42.1 151.35 41.4 151.35 41.7 151.4 42
L 153.35 42
Q 153.2 41.65 153.2 41.3 153.2 40.85 153.45 39.8 153.75 38.7 153.75 38.2 153.75 37.45 153.2 37.1 152.65 36.7 151.15 36.7
M 149.95 40.1
Q 150.15 39.9 151.55 39.7 151.4 40.45 151.05 40.75 150.7 41.05 150.3 41.05 150.05 41.05 149.85 40.9 149.7 40.75 149.7 40.5 149.7 40.25 149.95 40.1
M 157.75 34.85
L 155.8 34.85 154.25 42 156.25 42 157.75 34.85
M 161.1 34.85
L 159.15 34.85 157.6 42 159.6 42 161.1 34.85
M 140.5 34.85
L 138.5 34.85 138.7 42 140.9 42 142.95 37.6 143 37.6 143.15 42 145.3 42 148.7 34.85 146.5 34.85 144.7 39.25 144.65 39.25 144.55 34.85 142.4 34.85 140.45 39.25 140.4 39.2 140.5 34.85
M 133.3 36.8
L 133.7 34.9 131.5 36 131.35 36.8 130.6 36.8 130.3 38.25 131 38.25 130.65 40
Q 130.5 40.7 130.5 40.85 130.5 41.3 130.85 41.7 131.2 42.1 132.05 42.1 132.45 42.1 133.35 42
L 133.65 40.6
Q 133.2 40.65 133.05 40.65 132.6 40.65 132.6 40.3 132.6 40.2 132.6 40.05
L 133 38.25 134.05 38.25 134.35 36.8 133.3 36.8
M 188.35 36.7
Q 187.35 36.7 186.6 37.1 185.85 37.55 185.5 38.25 185.1 39 185.1 39.8 185.1 40.8 185.75 41.45 186.4 42.1 187.75 42.1 188.85 42.1 189.55 41.7 190.3 41.25 190.65 40.5 191.05 39.75 191.05 39.05 191.05 38.1 190.4 37.4 189.75 36.7 188.35 36.7
M 189.1 38.95
Q 189.1 39.65 188.75 40.2 188.45 40.8 187.9 40.8 187.5 40.8 187.3 40.5 187.05 40.2 187.05 39.8 187.05 39.2 187.35 38.6 187.65 38.05 188.3 38.05 188.6 38.05 188.85 38.25 189.1 38.45 189.1 38.95
M 196.45 36.85
Q 196.1 36.7 195.8 36.7 195.35 36.7 195 36.95 194.65 37.15 194.2 37.85
L 194.4 36.8 192.55 36.8 191.45 42 193.45 42 193.85 40.05
Q 194.05 39.15 194.4 38.75 194.75 38.35 195.35 38.35 195.5 38.35 195.75 38.4
L 196.45 36.85
M 168.55 34.85
L 165.85 34.85 164.3 42 166.15 42 167.2 36.55 167.5 42 169.15 42 171.8 36.55 171.85 36.55 170.5 42 172.35 42 173.9 34.85 171.1 34.85 168.85 39.4 168.8 39.4 168.55 34.85
M 177.25 36.7
Q 176.25 36.7 175.5 37.1 174.75 37.55 174.4 38.25 174 39 174 39.8 174 40.8 174.65 41.45 175.3 42.1 176.65 42.1 177.75 42.1 178.45 41.7 179.2 41.25 179.55 40.5 179.95 39.75 179.95 39.05 179.95 38.1 179.3 37.4 178.65 36.7 177.25 36.7
M 177.2 38.05
Q 177.5 38.05 177.75 38.25 178 38.45 178 38.95 178 39.65 177.65 40.2 177.35 40.8 176.8 40.8 176.4 40.8 176.2 40.5 175.95 40.2 175.95 39.8 175.95 39.2 176.25 38.6 176.55 38.05 177.2 38.05
M 181.8 36.8
L 181.05 36.8 180.75 38.25 181.45 38.25 181.1 40
Q 180.95 40.7 180.95 40.85 180.95 41.3 181.3 41.7 181.65 42.1 182.5 42.1 182.9 42.1 183.8 42
L 184.1 40.6
Q 183.65 40.65 183.5 40.65 183.05 40.65 183.05 40.3 183.05 40.2 183.05 40.05
L 183.45 38.25 184.5 38.25 184.8 36.8 183.75 36.8 184.15 34.9 181.95 36 181.8 36.8
M 126.95 36.7
Q 125.6 36.7 124.95 37.1 124.3 37.5 124.1 38.25
L 125.95 38.45
Q 126.15 38.1 126.35 38 126.55 37.85 126.9 37.85 127.2 37.85 127.45 38 127.6 38.1 127.6 38.3 127.6 38.4 127.55 38.65 127.25 38.75 126.4 38.85 125.45 38.95 124.9 39.05 124.3 39.2 123.95 39.55 123.55 39.9 123.55 40.6 123.55 41.2 124 41.65 124.4 42.1 125.4 42.1 126.35 42.1 127.15 41.4 127.15 41.7 127.2 42
L 129.15 42
Q 129 41.65 129 41.3 129 40.85 129.25 39.8 129.55 38.7 129.55 38.2 129.55 37.45 129 37.1 128.45 36.7 126.95 36.7
M 127.35 39.7
Q 127.2 40.45 126.85 40.75 126.5 41.05 126.1 41.05 125.85 41.05 125.65 40.9 125.5 40.75 125.5 40.5 125.5 40.25 125.75 40.1 125.95 39.9 127.35 39.7
M 122.9 39.9
Q 123.05 39.2 123.05 38.9 123.05 37.95 122.4 37.35 121.75 36.7 120.3 36.7 119.65 36.7 119.15 36.85 118.65 37 118.1 37.4 117.6 37.8 117.3 38.45 117 39.05 117 39.75 117 40.75 117.65 41.45 118.3 42.1 119.85 42.1 120.9 42.1 121.6 41.8 122.3 41.45 122.7 40.65
L 120.8 40.5
Q 120.45 40.95 119.9 40.95 119.05 40.95 118.95 39.9
L 122.9 39.9
M 119.6 38.15
Q 119.9 37.85 120.25 37.85 120.6 37.85 120.85 38.05 121.1 38.25 121.1 38.65 121.1 38.85 121.05 38.95
L 119.15 38.95
Q 119.3 38.4 119.6 38.15
M 117.15 36.85
Q 116.8 36.7 116.5 36.7 116.05 36.7 115.7 36.95 115.35 37.15 114.9 37.85
L 115.1 36.8 113.25 36.8 112.15 42 114.15 42 114.55 40.05
Q 114.75 39.15 115.1 38.75 115.45 38.35 116.05 38.35 116.2 38.35 116.45 38.4
L 117.15 36.85
M 106.5 35.3
Q 105.5 35.85 104.95 36.85 104.4 37.85 104.4 39.05 104.4 40.5 105.25 41.3 106.1 42.1 107.6 42.1 109.25 42.1 110.9 41.3
L 111.6 37.95 108.3 37.95 107.95 39.4 109.3 39.4 109.15 40.2
Q 108.65 40.55 107.95 40.55 107.35 40.55 106.95 40.15 106.55 39.75 106.55 39.15 106.55 38.1 107.05 37.2 107.6 36.3 108.5 36.3 109.4 36.3 109.7 37.15
L 111.9 36.9
Q 111.35 34.7 108.8 34.7 107.5 34.7 106.5 35.3
M 187.05 9.55
Q 185.8 8.45 183.2 8.45 180.7 8.45 179.15 9.5 177.6 10.6 177.25 12.7
L 181.15 13.25
Q 181.55 11.1 182.95 11.1 183.5 11.1 184 11.5 184.45 11.85 184.45 12.6 184.45 13.1 184.1 13.65 183.7 14.2 182.8 14.9
L 181.3 15.95
Q 178.9 17.7 177.6 19.25 176.3 20.8 175.9 23
L 186.85 23 187.55 19.75 181.9 19.75
Q 182.5 19.1 182.9 18.75 183.35 18.4 184.7 17.45 186.7 16.1 187.5 14.9 188.35 13.7 188.35 12.4 188.35 10.7 187.05 9.55
M 173.75 8.45
L 170.35 8.45
Q 168.25 10.55 165.1 11.9
L 164.35 15.3
Q 166.85 14.7 168.65 13.6
L 166.6 23 170.6 23 173.75 8.45
M 156.45 8.45
Q 154.4 8.45 152.8 9.7 151.2 11 150.3 13.2 149.45 15.35 149.45 17.4 149.45 20.25 150.8 21.75 152.15 23.25 154.4 23.25 156.6 23.25 158.25 21.95 159.9 20.7 160.85 18.45 161.75 16.2 161.75 13.9 161.75 11.25 160.2 9.85 158.6 8.45 156.45 8.45
M 154.75 12.3
Q 155.45 11.1 156.4 11.1 157.15 11.1 157.55 11.65 157.9 12.2 157.9 13.1 157.9 14.3 157.55 16.25 157.15 18.2 156.45 19.4 155.75 20.55 154.8 20.55 153.25 20.55 153.25 18.45
L 153.25 18.4
Q 153.25 17.25 153.65 15.35 154 13.45 154.75 12.3
M 147 9.55
Q 145.75 8.45 143.15 8.45 140.65 8.45 139.1 9.5 137.55 10.6 137.2 12.7
L 141.1 13.25
Q 141.5 11.1 142.9 11.1 143.45 11.1 143.95 11.5 144.4 11.85 144.4 12.6 144.4 13.1 144.05 13.65 143.65 14.2 142.75 14.9
L 141.25 15.95
Q 138.85 17.7 137.55 19.25 136.25 20.8 135.85 23
L 146.8 23 147.5 19.75 141.85 19.75
Q 142.45 19.1 142.85 18.75 143.3 18.4 144.65 17.45 146.65 16.1 147.45 14.9 148.3 13.7 148.3 12.4 148.3 10.7 147 9.55
M 128.85 8.7
L 124.7 8.7 122.9 17 122.85 17 119.3 8.7 115.2 8.7 112.1 23 116.25 23 118.05 14.7 118.1 14.7 121.6 23 125.75 23 128.85 8.7
M 112.05 8.7
L 107.6 8.7 104.5 23 109 23 112.05 8.7 Z"/>
</g>
</defs>

<g transform="matrix( 1, 0, 0, 1, 0,0) ">
<use xlink:href="#Layer1_0_FILL"/>
</g>

<g transform="matrix( 10.800430297851562, 0, 0, 10.800430297851562, 5.5,4.6) ">
<g transform="matrix( 1, 0, 0, 1, 0,0) ">
<use xlink:href="#pop_0_Layer5_0_FILL"/>
</g>

<g transform="matrix( 1, 0, 0, 1, 0,0) ">
<use xlink:href="#pop_0_Layer4_0_FILL"/>
</g>

<g transform="matrix( 1, 0, 0, 1, 0,0) ">
<use xlink:href="#pop_0_Layer3_0_FILL"/>
</g>

<g transform="matrix( 1, 0, 0, 1, 0,0) ">
<use xlink:href="#pop_0_Layer2_0_FILL"/>
</g>

<g transform="matrix( 1, 0, 0, 1, 0,0) ">
<use xlink:href="#pop_0_Layer1_0_FILL"/>
</g>

<g transform="matrix( 1, 0, 0, 1, 0,0) ">
<use xlink:href="#pop_0_Layer0_0_FILL"/>
</g>
</g>

<g transform="matrix( 1, 0, 0, 1, 0,0) ">
<use xlink:href="#Layer1_1_MEMBER_1_FILL"/>
</g>

<g transform="matrix( 1, 0, 0, 1, 0,0) ">
<use xlink:href="#Layer1_1_MEMBER_1_MEMBER_0_FILL"/>
</g>

<g transform="matrix( 1, 0, 0, 1, 0,0) ">
<use xlink:href="#Layer0_0_FILL"/>
</g>
</svg>
