
<svg xmlns="http://www.w3.org/2000/svg" version="1.1" xmlns:xlink="http://www.w3.org/1999/xlink" preserveAspectRatio="none" x="0px" y="0px" width="550px" height="100px" viewBox="0 0 550 100">
<defs>
<g id="Layer1_0_FILL">
<path fill="#000000" fill-opacity="0.5019607843137255" stroke="none" d="
M 536 20.15
Q 533.75 17.15 531 14.4 516.65 0 496.25 0
L 49.2 0
Q 28.8 0 14.35 14.4 0 28.8 0 49.2 0 69.6 14.35 84 28.8 98.4 49.2 98.4
L 496.25 98.4
Q 516.65 98.4 531 84 533.75 81.25 536 78.3 545.45 65.7 545.45 49.2 545.45 32.7 536 20.15 Z"/>
</g>

<g id="pop_0_Layer5_0_FILL">
<path fill="#0C0A80" fill-opacity="0.2" stroke="none" d="
M 7.25 6.1
Q 7.75 5.2 7.85 4.45 7.85 4.3 7.85 4 7.7 2.15 6.05 1.6 4.15 1.1 3 2.6 1.9 4.15 3.45 5.9 4.7 7.3 2.95 7.8 3.1 7.95 3.7 7.95 3.75 7.95 3.85 7.95 4.5 8 5.5 7.6 6.7 7 7.25 6.1 Z"/>
</g>

<g id="pop_0_Layer4_0_FILL">
<path fill="#0C0A80" fill-opacity="0.2" stroke="none" d="
M 4.85 5.25
Q 4.85 4.4 4.25 3.75 3.65 3.15 2.8 3.15 1.95 3.15 1.35 3.75 0.7 4.4 0.7 5.25 0.7 6.1 1.35 6.7 1.95 7.3 2.8 7.3 3.65 7.3 4.25 6.7 4.85 6.1 4.85 5.25 Z"/>
</g>

<g id="pop_0_Layer3_0_FILL">
<path fill="#0C0A80" fill-opacity="0.2" stroke="none" d="
M 7.05 2.25
Q 7.05 1.6 6.6 1.15 6.15 0.7 5.5 0.7 4.85 0.7 4.4 1.15 3.95 1.6 3.95 2.25 3.95 2.9 4.4 3.35 4.85 3.8 5.5 3.8 6.15 3.8 6.6 3.35 7.05 2.9 7.05 2.25 Z"/>
</g>

<g id="pop_0_Layer2_0_FILL">
<path fill="#FFFFFF" fill-opacity="0.30196078431372547" stroke="none" d="
M 8.2 4.1
Q 8.2 2.4 7 1.2 5.8 0 4.1 0 2.4 0 1.2 1.2 0 2.4 0 4.1 0 5.8 1.2 7 2.4 8.2 4.1 8.2 5.8 8.2 7 7 8.2 5.8 8.2 4.1 Z"/>
</g>

<g id="pop_0_Layer1_0_FILL">
<path fill="#FFFFFF" fill-opacity="0.5019607843137255" stroke="none" d="
M 2.1 6.2
Q 3.7 5.95 2.65 3.7 1.9 1.2 4.2 0.3 3.65 0.35 3 0.55 1.7 1.1 1.1 1.9 0.5 2.75 0.4 3.5 0.35 3.65 0.35 3.95 0.4 6.2 2.1 6.2 Z"/>
</g>

<g id="pop_0_Layer0_0_FILL">
<path fill="#FFFFFF" fill-opacity="0.5019607843137255" stroke="none" d="
M 6.9 1.85
Q 6.9 1.45 6.65 1.2 6.35 0.9 6 0.9 5.6 0.9 5.35 1.2 5.05 1.45 5.05 1.85 5.05 2.2 5.35 2.5 5.6 2.75 6 2.75 6.35 2.75 6.65 2.5 6.9 2.2 6.9 1.85 Z"/>
</g>

<g id="Layer1_1_MEMBER_1_FILL">
<path fill="#FFFFFF" stroke="none" d="
M 72.85 24.2
Q 72.85 24.15 72.85 24.05 72.85 22.95 72 22.1 71.15 21.25 70.05 21.25
L 28.6 21.25
Q 27.4 21.25 26.65 22.1 26.6 22.1 26.6 22.15 25.8 23 25.8 24.05 25.8 24.15 25.8 24.2 25.8 24.85 25.85 25.55 25.85 25.7 25.85 25.9 23.85 26.8 22.2 28.5 18.4 32.3 18.4 37.6 18.4 42.85 22.2 46.6
L 22.2 46.65
Q 25.95 50.4 31.25 50.4 32.6 50.4 33.95 50.15
L 34 50.2
Q 37.8 55 42.4 57 43.45 60.3 43.75 64.05 41.85 67.25 39.3 70.05 38.2 71.25 36.9 72.4
L 36.85 72.45
Q 36.8 72.45 36.8 72.5 35.9 73.05 35.7 74.1 35 77.1 34.25 80.05 34.2 80.15 34.2 80.25 34.1 80.9 34.3 81.6 34.35 81.7 34.4 81.8 34.65 82.5 35.4 83.05
L 35.45 83.05
Q 36.1 83.5 36.95 83.5
L 61.7 83.5
Q 62.45 83.5 63.15 83.1 63.2 83.05 63.3 83.05 64 82.5 64.3 81.8 64.3 81.7 64.35 81.6 64.55 80.8 64.35 80.05 63.65 77.2 62.95 74.25 62.8 73.1 61.95 72.5 61.8 72.4 61.65 72.35 60.35 71.2 59.3 70.05 56.75 67.25 55 64 55.15 60.35 56.25 57 60.8 55.05 64.7 50.3 64.7 50.25 64.75 50.2 65.95 50.4 67.2 50.4 72.45 50.4 76.25 46.6 80 42.85 80 37.6 80 32.3 76.3 28.5 74.7 26.85 72.85 26 72.85 25.7 72.85 25.4 72.85 25.35 72.85 25.3 72.85 24.75 72.85 24.2 Z"/>
</g>

<g id="Layer1_1_MEMBER_1_MEMBER_0_FILL">
<path fill="#7B4B11" stroke="none" d="
M 49.2 74.7
L 49.2 80.7 61.7 80.7
Q 60.95 77.75 60.25 74.7
L 60.2 74.7 49.2 74.7 Z"/>

<path fill="#9F631B" stroke="none" d="
M 38.4 74.7
Q 37.7 77.75 36.95 80.7
L 49.2 80.7 49.2 74.7 38.45 74.7 38.4 74.7
M 70.05 24.2
Q 70.05 24.15 70.05 24.05
L 49.2 24.05 49.2 74.7 60.2 74.7
Q 58.6 73.35 57.3 71.9 54.2 68.6 52.1 64.65 52.3 59.45 54 54.9
L 53.9 54.9
Q 58.6 53.35 62.5 48.5 63.05 47.8 63.6 47 65.25 47.6 67.2 47.6 71.35 47.6 74.3 44.65 77.25 41.75 77.25 37.6 77.25 33.4 74.3 30.45 72.35 28.55 69.95 27.9 70 26.6 70.05 25.3 70.05 24.75 70.05 24.2
M 67.2 44.65
Q 66.15 44.65 65.2 44.4 68.6 38.4 69.65 30.9 71.05 31.45 72.2 32.55 74.35 34.65 74.35 37.6 74.35 40.55 72.2 42.6 70.2 44.65 67.2 44.65 Z"/>

<path fill="#D08D3D" stroke="none" d="
M 28.6 24.05
Q 28.6 24.15 28.6 24.2 28.6 24.75 28.6 25.3 28.6 26.55 28.7 27.85 26.15 28.45 24.15 30.45 21.2 33.4 21.2 37.6 21.2 41.75 24.15 44.65 27.1 47.6 31.25 47.6 33.25 47.6 35.05 46.95 35.55 47.7 36.15 48.45 40 53.35 44.75 54.9
L 44.65 54.9
Q 46.3 59.45 46.5 64.65 44.45 68.6 41.35 71.9 40.05 73.35 38.45 74.7
L 49.2 74.7 49.2 24.05 28.6 24.05
M 26.2 32.55
Q 27.45 31.3 29 30.85 30.05 38.35 33.45 44.35 32.4 44.65 31.25 44.65 28.3 44.65 26.2 42.6 24.15 40.55 24.15 37.6 24.15 34.65 26.2 32.55 Z"/>
</g>

<g id="Layer0_0_FILL">
<path fill="#FFFFFF" stroke="none" d="
M 296.8 68.55
L 294.05 68.55 291.9 78.55 294.7 78.55 296.8 68.55
M 283.3 75.1
Q 282.75 75.6 282.75 76.6 282.75 77.45 283.35 78.1 283.95 78.7 285.3 78.7 286.65 78.7 287.75 77.7 287.75 78.1 287.85 78.55
L 290.55 78.55
Q 290.4 78.05 290.4 77.55 290.4 76.95 290.75 75.5 291.1 73.9 291.1 73.25 291.1 72.2 290.4 71.65 289.6 71.15 287.5 71.15 285.6 71.15 284.7 71.7 283.8 72.25 283.55 73.3
L 286.15 73.55
Q 286.35 73.05 286.65 72.9 286.95 72.75 287.45 72.75 287.9 72.75 288.2 72.95 288.45 73.1 288.45 73.35 288.45 73.55 288.35 73.85 287.95 74 286.75 74.1 285.4 74.25 284.6 74.45 283.8 74.6 283.3 75.1
M 288.05 75.3
Q 287.9 76.35 287.35 76.8 286.85 77.2 286.3 77.2 285.95 77.2 285.7 77 285.45 76.8 285.45 76.45 285.45 76.1 285.8 75.85 286.15 75.6 288.05 75.3
M 277 71.1
Q 275.5 71.1 274.55 72.5 273.55 73.85 273.55 75.7 273.55 77.1 274.2 77.9 274.85 78.7 276.1 78.7 276.75 78.7 277.2 78.55 277.7 78.35 278.25 77.8
L 278.3 77.85 278.15 78.55 280.75 78.55 282.9 68.55 280.1 68.55 279.3 72.25
Q 278.55 71.1 277 71.1
M 277.75 73
Q 278.15 73 278.5 73.3 278.8 73.65 278.8 74.25 278.8 75.15 278.4 76.05 278 76.9 277.2 76.9 276.8 76.9 276.5 76.55 276.25 76.25 276.25 75.65 276.25 74.55 276.7 73.75 277.15 73 277.75 73
M 271.75 72
Q 270.85 71.15 268.85 71.15 267.9 71.15 267.2 71.35 266.5 71.55 265.75 72.1 265.05 72.7 264.6 73.55 264.2 74.4 264.2 75.4 264.2 76.8 265.1 77.75 266 78.7 268.15 78.7 269.65 78.7 270.6 78.25 271.6 77.75 272.2 76.7
L 269.5 76.45
Q 269.05 77.1 268.2 77.1 267.05 77.1 266.9 75.65
L 272.45 75.65
Q 272.65 74.6 272.65 74.2 272.65 72.9 271.75 72
M 269.6 73.05
Q 269.9 73.3 269.9 73.85 269.9 74.15 269.85 74.3
L 267.15 74.3
Q 267.4 73.55 267.85 73.15 268.25 72.75 268.75 72.75 269.25 72.75 269.6 73.05
M 257.65 71.45
Q 257.1 71.15 256.4 71.15 254.95 71.15 253.75 72.35
L 253.7 72.35 253.95 71.3 251.35 71.3 249.8 78.55 252.6 78.55 253.35 75.05
Q 253.55 74.05 254.05 73.6 254.5 73.15 254.9 73.15 255.5 73.15 255.5 73.7 255.5 73.85 255.45 74.05 255.4 74.3 255.15 75.5
L 254.5 78.55 257.3 78.55 258 75.3
Q 258.25 74.2 258.65 73.7 259.05 73.15 259.65 73.15 260.2 73.15 260.2 73.75 260.2 73.8 260.15 74.05 260.15 74.25 259.9 75.45
L 259.2 78.55 262 78.55 263.05 73.8
Q 263.15 73.35 263.15 72.9 263.15 72.2 262.65 71.65 262.15 71.15 261.15 71.15 260.45 71.15 259.8 71.4 259.15 71.65 258.35 72.35 258.15 71.8 257.65 71.45
M 244.65 74.2
Q 244.65 72.9 243.75 72 242.85 71.15 240.85 71.15 239.9 71.15 239.2 71.35 238.5 71.55 237.75 72.1 237.05 72.7 236.6 73.55 236.2 74.4 236.2 75.4 236.2 76.8 237.1 77.75 238 78.7 240.15 78.7 241.65 78.7 242.6 78.25 243.6 77.75 244.2 76.7
L 241.5 76.45
Q 241.05 77.1 240.2 77.1 239.05 77.1 238.9 75.65
L 244.45 75.65
Q 244.65 74.6 244.65 74.2
M 241.6 73.05
Q 241.9 73.3 241.9 73.85 241.9 74.15 241.85 74.3
L 239.15 74.3
Q 239.4 73.55 239.85 73.15 240.25 72.75 240.75 72.75 241.25 72.75 241.6 73.05
M 211.95 71.7
Q 210.9 72.3 210.35 73.3 209.85 74.35 209.85 75.45 209.85 76.85 210.75 77.8 211.65 78.7 213.55 78.7 215.05 78.7 216.1 78.1 217.1 77.5 217.65 76.45 218.15 75.45 218.15 74.4 218.15 73.1 217.25 72.1 216.35 71.15 214.4 71.15 213 71.15 211.95 71.7
M 213 73.8
Q 213.4 73 214.3 73 214.75 73 215.1 73.3 215.45 73.55 215.45 74.3 215.45 75.25 214.95 76.05 214.5 76.85 213.75 76.85 213.25 76.85 212.9 76.45 212.55 76.05 212.55 75.45 212.55 74.6 213 73.8
M 207.2 71.3
L 204.6 71.3 203.05 78.55 205.85 78.55 206.45 75.85
Q 206.7 74.55 207.2 74 207.7 73.4 208.5 73.4 208.75 73.4 209.1 73.5
L 210.1 71.35
Q 209.6 71.15 209.15 71.15 208.55 71.15 208.05 71.45 207.55 71.8 206.9 72.75
L 207.2 71.3
M 229 73.2
L 232.3 73.2 228.25 76.9 227.9 78.55 234.7 78.55 235.1 76.65 231.6 76.65 235.55 72.95 235.9 71.3 229.4 71.3 229 73.2
M 222.95 73.75
Q 223.4 73.15 224 73.15 224.55 73.15 224.55 73.75 224.55 73.95 224.3 75.2
L 223.6 78.55 226.4 78.55 227.2 74.6
Q 227.5 73.3 227.5 72.85 227.5 72.15 227 71.65 226.5 71.15 225.5 71.15 223.85 71.15 222.7 72.4
L 222.95 71.3 220.35 71.3 218.75 78.55 221.55 78.55 222.25 75.4
Q 222.5 74.3 222.95 73.75
M 179.5 71.3
L 176.7 71.3 175.15 78.55 177.95 78.55 179.5 71.3
M 179.65 70.45
L 180.05 68.55 177.3 68.55 176.9 70.45 179.65 70.45
M 171.5 71.3
L 170.45 71.3 170.05 73.3 171.05 73.3 169.9 78.55 172.75 78.55 173.85 73.3 175.15 73.3 175.55 71.3 174.25 71.3
Q 174.45 70.45 174.65 70.3 174.8 70.15 175.1 70.15 175.55 70.15 176.1 70.3
L 176.55 68.65
Q 175.15 68.35 174.2 68.35 173.55 68.35 173.1 68.5 172.6 68.65 172.3 68.95 172 69.3 171.85 69.65 171.75 70.05 171.5 71.3
M 166.6 68.95
Q 166.3 69.3 166.15 69.65 166.05 70.05 165.8 71.3
L 164.75 71.3 164.35 73.3 165.35 73.3 164.2 78.55 167.05 78.55 168.15 73.3 169.45 73.3 169.85 71.3 168.55 71.3
Q 168.75 70.45 168.95 70.3 169.1 70.15 169.4 70.15 169.85 70.15 170.4 70.3
L 170.85 68.65
Q 169.45 68.35 168.5 68.35 167.85 68.35 167.4 68.5 166.9 68.65 166.6 68.95
M 163.85 70.7
L 164.3 68.55 156.1 68.55 153.95 78.55 162.55 78.55 163.05 76.25 157.55 76.25 157.95 74.3 162.85 74.3 163.3 72.25 158.4 72.25 158.75 70.7 163.85 70.7
M 197.95 71.8
L 198.65 68.55 195.85 68.55 193.7 78.55 196.3 78.55 196.55 77.35
Q 197.35 78.7 199 78.7 200.55 78.7 201.5 77.3 202.45 75.9 202.45 74.15 202.45 72.85 201.85 72 201.2 71.15 199.95 71.15 199.3 71.15 198.85 71.3 198.4 71.45 197.95 71.8
M 198.8 72.95
Q 199.75 72.95 199.75 74.2 199.75 75.35 199.3 76.1 198.85 76.85 198.25 76.85 197.85 76.85 197.55 76.5 197.2 76.2 197.2 75.55 197.2 74.6 197.65 73.75 198.05 72.95 198.8 72.95
M 187.7 72
Q 186.8 71.15 184.8 71.15 183.85 71.15 183.15 71.35 182.45 71.55 181.7 72.1 181 72.7 180.55 73.55 180.15 74.4 180.15 75.4 180.15 76.8 181.05 77.75 181.95 78.7 184.1 78.7 185.6 78.7 186.55 78.25 187.55 77.75 188.15 76.7
L 185.45 76.45
Q 185 77.1 184.15 77.1 183 77.1 182.85 75.65
L 188.4 75.65
Q 188.6 74.6 188.6 74.2 188.6 72.9 187.7 72
M 185.55 73.05
Q 185.85 73.3 185.85 73.85 185.85 74.15 185.8 74.3
L 183.1 74.3
Q 183.35 73.55 183.8 73.15 184.2 72.75 184.7 72.75 185.2 72.75 185.55 73.05
M 134.4 72.4
L 134.65 71.3 132.05 71.3 130.45 78.55 133.25 78.55 133.95 75.4
Q 134.2 74.3 134.65 73.75 135.1 73.15 135.7 73.15 136.25 73.15 136.25 73.75 136.25 73.95 136 75.2
L 135.3 78.55 138.1 78.55 138.9 74.6
Q 139.2 73.3 139.2 72.85 139.2 72.15 138.7 71.65 138.2 71.15 137.2 71.15 135.55 71.15 134.4 72.4
M 130.8 68.55
L 128.05 68.55 127.65 70.45 130.4 70.45 130.8 68.55
M 130.25 71.3
L 127.45 71.3 125.9 78.55 128.7 78.55 130.25 71.3
M 144.85 71.15
Q 142.95 71.15 142.05 71.7 141.15 72.25 140.9 73.3
L 143.5 73.55
Q 143.7 73.05 144 72.9 144.3 72.75 144.8 72.75 145.25 72.75 145.55 72.95 145.8 73.1 145.8 73.35 145.8 73.55 145.7 73.85 145.3 74 144.1 74.1 142.75 74.25 141.95 74.45 141.15 74.6 140.65 75.1 140.1 75.6 140.1 76.6 140.1 77.45 140.7 78.1 141.3 78.7 142.65 78.7 144 78.7 145.1 77.7 145.1 78.1 145.2 78.55
L 147.9 78.55
Q 147.75 78.05 147.75 77.55 147.75 76.95 148.1 75.5 148.45 73.9 148.45 73.25 148.45 72.2 147.75 71.65 146.95 71.15 144.85 71.15
M 143.15 75.85
Q 143.5 75.6 145.4 75.3 145.25 76.35 144.7 76.8 144.2 77.2 143.65 77.2 143.3 77.2 143.05 77 142.8 76.8 142.8 76.45 142.8 76.1 143.15 75.85
M 121.4 68.55
L 118.65 68.55 116.45 78.55 119.25 78.55 119.95 75.4
Q 120.2 74.3 120.65 73.75 121.1 73.15 121.7 73.15 122.25 73.15 122.25 73.75 122.25 73.95 122 75.2
L 121.3 78.55 124.1 78.55 124.9 74.6
Q 125.2 73.3 125.2 72.85 125.2 72.15 124.7 71.65 124.2 71.15 123.25 71.15 121.65 71.15 120.65 72.2
L 120.65 72.15 121.4 68.55
M 109.05 69.2
Q 107.75 70.05 107.1 71.55 106.4 73 106.4 74.5 106.4 76.4 107.55 77.55 108.7 78.7 110.85 78.7 112.95 78.7 114.25 77.65 115.5 76.6 115.95 75.05
L 113.05 74.6
Q 112.7 75.55 112.2 76 111.75 76.45 111 76.45 110.25 76.45 109.85 75.95 109.45 75.45 109.45 74.7 109.45 73.7 109.85 72.7 110.2 71.65 110.85 71.15 111.5 70.65 112.2 70.65 112.75 70.65 113.15 71 113.6 71.35 113.6 72.1
L 113.6 72.15 116.45 71.8
Q 116.3 70.25 115.2 69.3 114.1 68.35 112.2 68.35 110.35 68.35 109.05 69.2
M 490.7 56.8
L 492.25 49.55 489.45 49.55 487.9 56.8 490.7 56.8
M 486.05 56.8
L 487.6 49.55 484.8 49.55 483.4 56.15
Q 483.2 57.15 482.95 57.35 482.7 57.6 482.25 57.6 481.95 57.6 481.55 57.5
L 481.15 59.45
Q 482.2 59.75 483.1 59.75 484.15 59.75 484.7 59.4 485.3 59 485.55 58.4 485.8 57.8 486.05 56.8
M 496.4 50.65
L 496.65 49.55 494.05 49.55 492.45 56.8 495.25 56.8 495.95 53.65
Q 496.2 52.55 496.65 52 497.1 51.4 497.7 51.4 498.25 51.4 498.25 52 498.25 52.2 498 53.45
L 497.3 56.8 500.1 56.8 500.9 52.85
Q 501.2 51.55 501.2 51.1 501.2 50.4 500.7 49.9 500.2 49.4 499.2 49.4 497.55 49.4 496.4 50.65
M 506.8 55.55
L 506.85 55.6 506.6 56.7
Q 506.45 57.4 506.1 57.75 505.8 58.1 505.3 58.1 504.5 58.1 504.45 57.35
L 501.8 56.95
Q 501.8 57.05 501.8 57.3 501.8 58.05 502.3 58.7 502.8 59.35 503.5 59.55 504.15 59.75 505.4 59.75 507.2 59.75 508.1 59.05 509.05 58.4 509.45 56.35
L 510.9 49.55 508.35 49.55 508.1 50.55
Q 507.25 49.4 505.9 49.4 504.3 49.4 503.3 50.65 502.25 51.95 502.25 53.65 502.25 54.95 502.9 55.75 503.55 56.55 504.65 56.55 505.9 56.55 506.8 55.55
M 507.5 52.25
Q 507.5 53 507.1 53.85 506.7 54.65 505.95 54.65 505.5 54.65 505.25 54.35 504.95 54.1 504.95 53.55 504.95 52.7 505.45 51.95 505.9 51.25 506.55 51.25 506.95 51.25 507.2 51.5 507.5 51.8 507.5 52.25
M 492.4 48.7
L 492.8 46.8 490.05 46.8 489.65 48.7 492.4 48.7
M 487.75 48.7
L 488.15 46.8 485.4 46.8 485 48.7 487.75 48.7
M 402.05 49.55
L 399.25 49.55 397.7 56.8 400.5 56.8 402.05 49.55
M 402.2 48.7
L 402.6 46.8 399.85 46.8 399.45 48.7 402.2 48.7
M 459.6 49.55
L 456.8 49.55 455.4 56.15
Q 455.2 57.15 454.95 57.35 454.7 57.6 454.25 57.6 453.95 57.6 453.55 57.5
L 453.15 59.45
Q 454.2 59.75 455.1 59.75 456.15 59.75 456.7 59.4 457.3 59 457.55 58.4 457.8 57.8 458.05 56.8
L 459.6 49.55
M 464.25 49.55
L 461.45 49.55 459.9 56.8 462.7 56.8 464.25 49.55
M 472.9 52.85
Q 473.2 51.55 473.2 51.1 473.2 50.4 472.7 49.9 472.2 49.4 471.2 49.4 469.55 49.4 468.4 50.65
L 468.65 49.55 466.05 49.55 464.45 56.8 467.25 56.8 467.95 53.65
Q 468.2 52.55 468.65 52 469.1 51.4 469.7 51.4 470.25 51.4 470.25 52 470.25 52.2 470 53.45
L 469.3 56.8 472.1 56.8 472.9 52.85
M 480.35 49.55
L 480.1 50.55
Q 479.25 49.4 477.9 49.4 476.3 49.4 475.3 50.65 474.25 51.95 474.25 53.65 474.25 54.95 474.9 55.75 475.55 56.55 476.65 56.55 477.9 56.55 478.8 55.55
L 478.85 55.6 478.6 56.7
Q 478.45 57.4 478.1 57.75 477.8 58.1 477.3 58.1 476.5 58.1 476.45 57.35
L 473.8 56.95
Q 473.8 57.05 473.8 57.3 473.8 58.05 474.3 58.7 474.8 59.35 475.5 59.55 476.15 59.75 477.4 59.75 479.2 59.75 480.1 59.05 481.05 58.4 481.45 56.35
L 482.9 49.55 480.35 49.55
M 478.55 51.25
Q 478.95 51.25 479.2 51.5 479.5 51.8 479.5 52.25 479.5 53 479.1 53.85 478.7 54.65 477.95 54.65 477.5 54.65 477.25 54.35 476.95 54.1 476.95 53.55 476.95 52.7 477.45 51.95 477.9 51.25 478.55 51.25
M 408.5 49.55
L 407.05 49.55 407.6 46.85 404.5 48.4 404.25 49.55 403.25 49.55 402.85 51.55 403.85 51.55 403.3 54
Q 403.1 54.95 403.1 55.2 403.1 55.85 403.6 56.4 404.1 56.95 405.25 56.95 405.85 56.95 407.1 56.8
L 407.55 54.8
Q 406.85 54.95 406.65 54.95 406 54.95 406 54.45 406 54.25 406.05 54.1
L 406.6 51.55 408.05 51.55 408.5 49.55
M 429 49.55
L 428.75 50.55
Q 427.9 49.4 426.55 49.4 424.95 49.4 423.95 50.65 422.9 51.95 422.9 53.65 422.9 54.95 423.55 55.75 424.2 56.55 425.3 56.55 426.55 56.55 427.45 55.55
L 427.5 55.6 427.25 56.7
Q 427.1 57.4 426.75 57.75 426.45 58.1 425.95 58.1 425.15 58.1 425.1 57.35
L 422.45 56.95
Q 422.45 57.05 422.45 57.3 422.45 58.05 422.95 58.7 423.45 59.35 424.15 59.55 424.8 59.75 426.05 59.75 427.85 59.75 428.75 59.05 429.7 58.4 430.1 56.35
L 431.55 49.55 429 49.55
M 427.85 51.5
Q 428.15 51.8 428.15 52.25 428.15 53 427.75 53.85 427.35 54.65 426.6 54.65 426.15 54.65 425.9 54.35 425.6 54.1 425.6 53.55 425.6 52.7 426.1 51.95 426.55 51.25 427.2 51.25 427.6 51.25 427.85 51.5
M 435.45 53.1
L 436.2 49.55 433.4 49.55 432.55 53.45
Q 432.3 54.75 432.3 55.25 432.3 55.95 432.8 56.45 433.25 56.95 434.25 56.95 435.95 56.95 437.05 55.65
L 437.1 55.7 436.85 56.8 439.45 56.8 441 49.55 438.2 49.55 437.55 52.7
Q 437.3 53.75 436.85 54.35 436.4 54.9 435.75 54.9 435.2 54.9 435.2 54.35
L 435.2 54.3
Q 435.2 54.1 435.25 54 435.25 53.85 435.45 53.1
M 443.7 49.95
Q 442.65 50.55 442.1 51.55 441.6 52.6 441.6 53.7 441.6 55.1 442.5 56.05 443.4 56.95 445.3 56.95 446.8 56.95 447.85 56.35 448.85 55.75 449.4 54.7 449.9 53.7 449.9 52.65 449.9 51.35 449 50.35 448.1 49.4 446.15 49.4 444.75 49.4 443.7 49.95
M 444.65 54.7
Q 444.3 54.3 444.3 53.7 444.3 52.85 444.75 52.05 445.15 51.25 446.05 51.25 446.5 51.25 446.85 51.55 447.2 51.8 447.2 52.55 447.2 53.5 446.7 54.3 446.25 55.1 445.5 55.1 445 55.1 444.65 54.7
M 413.4 46.8
L 410.65 46.8 408.45 56.8 411.25 56.8 411.95 53.65
Q 412.2 52.55 412.65 52 413.1 51.4 413.7 51.4 414.25 51.4 414.25 52 414.25 52.2 414 53.45
L 413.3 56.8 416.1 56.8 416.9 52.85
Q 417.2 51.55 417.2 51.1 417.2 50.4 416.7 49.9 416.2 49.4 415.25 49.4 413.65 49.4 412.65 50.45
L 412.65 50.4 413.4 46.8
M 464.4 48.7
L 464.8 46.8 462.05 46.8 461.65 48.7 464.4 48.7
M 459.75 48.7
L 460.15 46.8 457.4 46.8 457 48.7 459.75 48.7
M 311.15 46.8
L 308.4 46.8 306.2 56.8 309 56.8 309.7 53.65
Q 309.95 52.55 310.4 52 310.85 51.4 311.45 51.4 312 51.4 312 52 312 52.2 311.75 53.45
L 311.05 56.8 313.85 56.8 314.65 52.85
Q 314.95 51.55 314.95 51.1 314.95 50.4 314.45 49.9 313.95 49.4 313 49.4 311.4 49.4 310.4 50.45
L 310.4 50.4 311.15 46.8
M 370 51.75
L 371 49.6
Q 370.5 49.4 370.05 49.4 369.45 49.4 368.95 49.7 368.45 50.05 367.8 51
L 368.1 49.55 365.5 49.55 363.95 56.8 366.75 56.8 367.35 54.1
Q 367.6 52.8 368.1 52.25 368.6 51.65 369.4 51.65 369.65 51.65 370 51.75
M 398.15 49.55
L 395.3 49.55 393.3 54.05 393.25 54.05 392.85 49.55 390.35 49.55 387.85 54.15 387.8 54.15 387.55 49.55 385.05 49.55 386.15 56.8 388.65 56.8 391.05 52.5 391.1 52.5 391.55 56.8 394 56.8 398.15 49.55
M 324.25 53.9
Q 324.45 52.85 324.45 52.45 324.45 51.15 323.55 50.25 322.65 49.4 320.65 49.4 319.7 49.4 319 49.6 318.3 49.8 317.55 50.35 316.85 50.95 316.4 51.8 316 52.65 316 53.65 316 55.05 316.9 56 317.8 56.95 319.95 56.95 321.45 56.95 322.4 56.5 323.4 56 324 54.95
L 321.3 54.7
Q 320.85 55.35 320 55.35 318.85 55.35 318.7 53.9
L 324.25 53.9
M 321.65 52.55
L 318.95 52.55
Q 319.2 51.8 319.65 51.4 320.05 51 320.55 51 321.05 51 321.4 51.3 321.7 51.55 321.7 52.1 321.7 52.4 321.65 52.55
M 335 51.65
Q 335.25 51.65 335.6 51.75
L 336.6 49.6
Q 336.1 49.4 335.65 49.4 335.05 49.4 334.55 49.7 334.05 50.05 333.4 51
L 333.7 49.55 331.1 49.55 329.55 56.8 332.35 56.8 332.95 54.1
Q 333.2 52.8 333.7 52.25 334.2 51.65 335 51.65
M 344.6 53.9
Q 344.8 52.85 344.8 52.45 344.8 51.15 343.9 50.25 343 49.4 341 49.4 340.05 49.4 339.35 49.6 338.65 49.8 337.9 50.35 337.2 50.95 336.75 51.8 336.35 52.65 336.35 53.65 336.35 55.05 337.25 56 338.15 56.95 340.3 56.95 341.8 56.95 342.75 56.5 343.75 56 344.35 54.95
L 341.65 54.7
Q 341.2 55.35 340.35 55.35 339.2 55.35 339.05 53.9
L 344.6 53.9
M 342.05 52.1
Q 342.05 52.4 342 52.55
L 339.3 52.55
Q 339.55 51.8 340 51.4 340.4 51 340.9 51 341.4 51 341.75 51.3 342.05 51.55 342.05 52.1
M 353.9 54.15
L 351.3 53.85
Q 350.75 55.1 349.65 55.1 349.2 55.1 348.8 54.8 348.4 54.45 348.4 53.85 348.4 52.9 348.95 52.1 349.5 51.25 350.55 51.25 351.65 51.25 351.8 52.2
L 354.3 52.05
Q 354.15 50.75 353.15 50.05 352.2 49.4 350.55 49.4 348.25 49.4 346.95 50.7 345.7 52 345.7 53.85 345.7 56.95 349.55 56.95 352.95 56.95 353.9 54.15
M 363.35 52.65
Q 363.35 51.35 362.45 50.35 361.55 49.4 359.6 49.4 358.2 49.4 357.15 49.95 356.1 50.55 355.55 51.55 355.05 52.6 355.05 53.7 355.05 55.1 355.95 56.05 356.85 56.95 358.75 56.95 360.25 56.95 361.3 56.35 362.3 55.75 362.85 54.7 363.35 53.7 363.35 52.65
M 359.5 51.25
Q 359.95 51.25 360.3 51.55 360.65 51.8 360.65 52.55 360.65 53.5 360.15 54.3 359.7 55.1 358.95 55.1 358.45 55.1 358.1 54.7 357.75 54.3 357.75 53.7 357.75 52.85 358.2 52.05 358.6 51.25 359.5 51.25
M 380.2 46.8
L 377.4 46.8 376.6 50.5
Q 375.85 49.35 374.3 49.35 372.8 49.35 371.85 50.75 370.85 52.1 370.85 53.95 370.85 55.35 371.5 56.15 372.15 56.95 373.4 56.95 374.05 56.95 374.5 56.8 375 56.6 375.55 56.05
L 375.6 56.1 375.45 56.8 378.05 56.8 380.2 46.8
M 375.05 51.25
Q 375.45 51.25 375.8 51.55 376.1 51.9 376.1 52.5 376.1 53.4 375.7 54.3 375.3 55.15 374.5 55.15 374.1 55.15 373.8 54.8 373.55 54.5 373.55 53.9 373.55 52.8 374 52 374.45 51.25 375.05 51.25
M 234.2 52.65
Q 234.2 51.35 233.3 50.35 232.4 49.4 230.45 49.4 229.05 49.4 228 49.95 226.95 50.55 226.4 51.55 225.9 52.6 225.9 53.7 225.9 55.1 226.8 56.05 227.7 56.95 229.6 56.95 231.1 56.95 232.15 56.35 233.15 55.75 233.7 54.7 234.2 53.7 234.2 52.65
M 230.35 51.25
Q 230.8 51.25 231.15 51.55 231.5 51.8 231.5 52.55 231.5 53.5 231 54.3 230.55 55.1 229.8 55.1 229.3 55.1 228.95 54.7 228.6 54.3 228.6 53.7 228.6 52.85 229.05 52.05 229.45 51.25 230.35 51.25
M 244.25 56.8
L 247.05 56.8 248.6 49.55 245.8 49.55 244.25 56.8
M 243.55 51.1
Q 243.55 50.4 243.05 49.9 242.55 49.4 241.55 49.4 239.9 49.4 238.75 50.65
L 239 49.55 236.4 49.55 234.8 56.8 237.6 56.8 238.3 53.65
Q 238.55 52.55 239 52 239.45 51.4 240.05 51.4 240.6 51.4 240.6 52 240.6 52.2 240.35 53.45
L 239.65 56.8 242.45 56.8 243.25 52.85
Q 243.55 51.55 243.55 51.1
M 257.85 52.05
Q 257.7 50.75 256.7 50.05 255.75 49.4 254.1 49.4 251.8 49.4 250.5 50.7 249.25 52 249.25 53.85 249.25 56.95 253.1 56.95 256.5 56.95 257.45 54.15
L 254.85 53.85
Q 254.3 55.1 253.2 55.1 252.75 55.1 252.35 54.8 251.95 54.45 251.95 53.85 251.95 52.9 252.5 52.1 253.05 51.25 254.1 51.25 255.2 51.25 255.35 52.2
L 257.85 52.05
M 264.75 56.2
Q 265.8 55.4 265.8 54.25 265.8 53.45 265.25 53 264.7 52.5 263.1 52.25 262.1 52.1 261.9 51.95 261.65 51.8 261.65 51.5 261.65 51.3 261.9 51.1 262.15 50.9 262.7 50.9 263.55 50.9 263.65 51.55
L 266.25 51.3
Q 266.05 50.25 265.3 49.8 264.5 49.4 263.05 49.4 261.8 49.4 260.9 49.75 260.05 50.1 259.6 50.7 259.2 51.3 259.2 51.95 259.2 52.7 259.75 53.25 260.35 53.75 261.95 54 262.65 54.1 262.9 54.2 263.15 54.35 263.15 54.65 263.15 55.05 262.8 55.25 262.45 55.45 262 55.45 261 55.45 260.85 54.55
L 258.1 54.8
Q 258.2 55.95 259.05 56.45 259.85 56.95 261.55 56.95 263.7 56.95 264.75 56.2
M 279.4 51.3
Q 279.2 50.25 278.45 49.8 277.65 49.4 276.2 49.4 274.95 49.4 274.05 49.75 273.2 50.1 272.75 50.7 272.35 51.3 272.35 51.95 272.35 52.7 272.9 53.25 273.5 53.75 275.1 54 275.8 54.1 276.05 54.2 276.3 54.35 276.3 54.65 276.3 55.05 275.95 55.25 275.6 55.45 275.15 55.45 274.15 55.45 274 54.55
L 271.25 54.8
Q 271.35 55.95 272.2 56.45 273 56.95 274.7 56.95 276.85 56.95 277.9 56.2 278.95 55.4 278.95 54.25 278.95 53.45 278.4 53 277.85 52.5 276.25 52.25 275.25 52.1 275.05 51.95 274.8 51.8 274.8 51.5 274.8 51.3 275.05 51.1 275.3 50.9 275.85 50.9 276.7 50.9 276.8 51.55
L 279.4 51.3
M 283.25 49.6
Q 282.55 49.8 281.8 50.35 281.1 50.95 280.65 51.8 280.25 52.65 280.25 53.65 280.25 55.05 281.15 56 282.05 56.95 284.2 56.95 285.7 56.95 286.65 56.5 287.65 56 288.25 54.95
L 285.55 54.7
Q 285.1 55.35 284.25 55.35 283.1 55.35 282.95 53.9
L 288.5 53.9
Q 288.7 52.85 288.7 52.45 288.7 51.15 287.8 50.25 286.9 49.4 284.9 49.4 283.95 49.4 283.25 49.6
M 284.8 51
Q 285.3 51 285.65 51.3 285.95 51.55 285.95 52.1 285.95 52.4 285.9 52.55
L 283.2 52.55
Q 283.45 51.8 283.9 51.4 284.3 51 284.8 51
M 248.75 48.7
L 249.15 46.8 246.4 46.8 246 48.7 248.75 48.7
M 305.35 46.85
L 302.25 48.4 302 49.55 301 49.55 300.6 51.55 301.6 51.55 301.05 54
Q 300.85 54.95 300.85 55.2 300.85 55.85 301.35 56.4 301.85 56.95 303 56.95 303.6 56.95 304.85 56.8
L 305.3 54.8
Q 304.6 54.95 304.4 54.95 303.75 54.95 303.75 54.45 303.75 54.25 303.8 54.1
L 304.35 51.55 305.8 51.55 306.25 49.55 304.8 49.55 305.35 46.85
M 294.5 46.85
L 291.4 48.4 291.15 49.55 290.15 49.55 289.75 51.55 290.75 51.55 290.2 54
Q 290 54.95 290 55.2 290 55.85 290.5 56.4 291 56.95 292.15 56.95 292.75 56.95 294 56.8
L 294.45 54.8
Q 293.75 54.95 293.55 54.95 292.9 54.95 292.9 54.45 292.9 54.25 292.95 54.1
L 293.5 51.55 294.95 51.55 295.4 49.55 293.95 49.55 294.5 46.85
M 153.25 52.7
Q 153 53.75 152.55 54.35 152.1 54.9 151.45 54.9 150.9 54.9 150.9 54.35
L 150.9 54.3
Q 150.9 54.1 150.95 54 150.95 53.85 151.15 53.1
L 151.9 49.55 149.1 49.55 148.25 53.45
Q 148 54.75 148 55.25 148 55.95 148.5 56.45 148.95 56.95 149.95 56.95 151.65 56.95 152.75 55.65
L 152.8 55.7 152.55 56.8 155.15 56.8 156.7 49.55 153.9 49.55 153.25 52.7
M 212.6 52.05
Q 212.45 50.75 211.45 50.05 210.5 49.4 208.85 49.4 206.55 49.4 205.25 50.7 204 52 204 53.85 204 56.95 207.85 56.95 211.25 56.95 212.2 54.15
L 209.6 53.85
Q 209.05 55.1 207.95 55.1 207.5 55.1 207.1 54.8 206.7 54.45 206.7 53.85 206.7 52.9 207.25 52.1 207.8 51.25 208.85 51.25 209.95 51.25 210.1 52.2
L 212.6 52.05
M 222.95 51
L 223.25 49.55 220.65 49.55 219.1 56.8 221.9 56.8 222.5 54.1
Q 222.75 52.8 223.25 52.25 223.75 51.65 224.55 51.65 224.8 51.65 225.15 51.75
L 226.15 49.6
Q 225.65 49.4 225.2 49.4 224.6 49.4 224.1 49.7 223.6 50.05 222.95 51
M 162.1 51.4
Q 162.65 51.4 162.65 52 162.65 52.2 162.4 53.45
L 161.7 56.8 164.5 56.8 165.3 52.85
Q 165.6 51.55 165.6 51.1 165.6 50.4 165.1 49.9 164.6 49.4 163.6 49.4 161.95 49.4 160.8 50.65
L 161.05 49.55 158.45 49.55 156.85 56.8 159.65 56.8 160.35 53.65
Q 160.6 52.55 161.05 52 161.5 51.4 162.1 51.4
M 175.3 49.55
L 172.75 49.55 172.5 50.55
Q 171.65 49.4 170.3 49.4 168.7 49.4 167.7 50.65 166.65 51.95 166.65 53.65 166.65 54.95 167.3 55.75 167.95 56.55 169.05 56.55 170.3 56.55 171.2 55.55
L 171.25 55.6 171 56.7
Q 170.85 57.4 170.5 57.75 170.2 58.1 169.7 58.1 168.9 58.1 168.85 57.35
L 166.2 56.95
Q 166.2 57.05 166.2 57.3 166.2 58.05 166.7 58.7 167.2 59.35 167.9 59.55 168.55 59.75 169.8 59.75 171.6 59.75 172.5 59.05 173.45 58.4 173.85 56.35
L 175.3 49.55
M 169.85 51.95
Q 170.3 51.25 170.95 51.25 171.35 51.25 171.6 51.5 171.9 51.8 171.9 52.25 171.9 53 171.5 53.85 171.1 54.65 170.35 54.65 169.9 54.65 169.65 54.35 169.35 54.1 169.35 53.55 169.35 52.7 169.85 51.95
M 188.9 53.9
Q 189.1 52.85 189.1 52.45 189.1 51.15 188.2 50.25 187.3 49.4 185.3 49.4 184.35 49.4 183.65 49.6 182.95 49.8 182.2 50.35 181.5 50.95 181.05 51.8 180.65 52.65 180.65 53.65 180.65 55.05 181.55 56 182.45 56.95 184.6 56.95 186.1 56.95 187.05 56.5 188.05 56 188.65 54.95
L 185.95 54.7
Q 185.5 55.35 184.65 55.35 183.5 55.35 183.35 53.9
L 188.9 53.9
M 186.35 52.1
Q 186.35 52.4 186.3 52.55
L 183.6 52.55
Q 183.85 51.8 184.3 51.4 184.7 51 185.2 51 185.7 51 186.05 51.3 186.35 51.55 186.35 52.1
M 199.95 54.7
Q 199.5 55.35 198.65 55.35 197.5 55.35 197.35 53.9
L 202.9 53.9
Q 203.1 52.85 203.1 52.45 203.1 51.15 202.2 50.25 201.3 49.4 199.3 49.4 198.35 49.4 197.65 49.6 196.95 49.8 196.2 50.35 195.5 50.95 195.05 51.8 194.65 52.65 194.65 53.65 194.65 55.05 195.55 56 196.45 56.95 198.6 56.95 200.1 56.95 201.05 56.5 202.05 56 202.65 54.95
L 199.95 54.7
M 200.3 52.55
L 197.6 52.55
Q 197.85 51.8 198.3 51.4 198.7 51 199.2 51 199.7 51 200.05 51.3 200.35 51.55 200.35 52.1 200.35 52.4 200.3 52.55
M 194.55 46.8
L 191.8 46.8 189.65 56.8 192.45 56.8 194.55 46.8
M 218.25 46.85
L 215.15 48.4 214.9 49.55 213.9 49.55 213.5 51.55 214.5 51.55 213.95 54
Q 213.75 54.95 213.75 55.2 213.75 55.85 214.25 56.4 214.75 56.95 215.9 56.95 216.5 56.95 217.75 56.8
L 218.2 54.8
Q 217.5 54.95 217.3 54.95 216.65 54.95 216.65 54.45 216.65 54.25 216.7 54.1
L 217.25 51.55 218.7 51.55 219.15 49.55 217.7 49.55 218.25 46.85
M 142.75 51.1
Q 143 50.9 143.55 50.9 144.4 50.9 144.5 51.55
L 147.1 51.3
Q 146.9 50.25 146.15 49.8 145.35 49.4 143.9 49.4 142.65 49.4 141.75 49.75 140.9 50.1 140.45 50.7 140.05 51.3 140.05 51.95 140.05 52.7 140.6 53.25 141.2 53.75 142.8 54 143.5 54.1 143.75 54.2 144 54.35 144 54.65 144 55.05 143.65 55.25 143.3 55.45 142.85 55.45 141.85 55.45 141.7 54.55
L 138.95 54.8
Q 139.05 55.95 139.9 56.45 140.7 56.95 142.4 56.95 144.55 56.95 145.6 56.2 146.65 55.4 146.65 54.25 146.65 53.45 146.1 53 145.55 52.5 143.95 52.25 142.95 52.1 142.75 51.95 142.5 51.8 142.5 51.5 142.5 51.3 142.75 51.1
M 138.4 51.15
Q 138.4 50.45 137.9 49.9 137.4 49.4 136.4 49.4 135.7 49.4 135.05 49.65 134.4 49.9 133.6 50.6 133.4 50.05 132.9 49.7 132.35 49.4 131.65 49.4 130.2 49.4 129 50.6
L 128.95 50.6 129.2 49.55 126.6 49.55 125.05 56.8 127.85 56.8 128.6 53.3
Q 128.8 52.3 129.3 51.85 129.75 51.4 130.15 51.4 130.75 51.4 130.75 51.95 130.75 52.1 130.7 52.3 130.65 52.55 130.4 53.75
L 129.75 56.8 132.55 56.8 133.25 53.55
Q 133.5 52.45 133.9 51.95 134.3 51.4 134.9 51.4 135.45 51.4 135.45 52 135.45 52.05 135.4 52.3 135.4 52.5 135.15 53.7
L 134.45 56.8 137.25 56.8 138.3 52.05
Q 138.4 51.6 138.4 51.15
M 119.35 51.8
Q 119.55 51.3 119.85 51.15 120.15 51 120.65 51 121.1 51 121.4 51.2 121.65 51.35 121.65 51.6 121.65 51.8 121.55 52.1 121.15 52.25 119.95 52.35 118.6 52.5 117.8 52.7 117 52.85 116.5 53.35 115.95 53.85 115.95 54.85 115.95 55.7 116.55 56.35 117.15 56.95 118.5 56.95 119.85 56.95 120.95 55.95 120.95 56.35 121.05 56.8
L 123.75 56.8
Q 123.6 56.3 123.6 55.8 123.6 55.2 123.95 53.75 124.3 52.15 124.3 51.5 124.3 50.45 123.6 49.9 122.8 49.4 120.7 49.4 118.8 49.4 117.9 49.95 117 50.5 116.75 51.55
L 119.35 51.8
M 118.9 55.25
Q 118.65 55.05 118.65 54.7 118.65 54.35 119 54.1 119.35 53.85 121.25 53.55 121.1 54.6 120.55 55.05 120.05 55.45 119.5 55.45 119.15 55.45 118.9 55.25
M 111.35 46.6
Q 110.05 46.6 109.15 47 108.2 47.4 107.75 48.1 107.25 48.8 107.25 49.7 107.25 50.6 107.85 51.3 108.4 51.95 110.65 52.75 111.6 53.1 111.85 53.35 112.1 53.6 112.1 53.95 112.1 54.35 111.7 54.65 111.3 55 110.55 55 109.85 55 109.45 54.6 109 54.2 109 53.25
L 106.1 53.45 106.1 53.7
Q 106.1 55.15 107.1 56.05 108.1 56.95 110.5 56.95 112.2 56.95 113.1 56.5 114 56 114.5 55.25 115 54.5 115 53.6 115 52.7 114.55 52.05 114.1 51.45 113.4 51.05 112.65 50.65 111.55 50.2 110.65 49.9 110.4 49.65 110.15 49.45 110.15 49.2 110.15 48.9 110.45 48.65 110.75 48.4 111.3 48.4 112.65 48.4 112.75 49.7
L 115.65 49.55
Q 115.4 46.6 111.35 46.6
M 190 18.65
L 186.6 18.65 177.5 27.25 176.75 30.55 184.05 30.55 183.45 33.2 186.9 33.2 187.45 30.55 189.3 30.55 189.95 27.45 188.1 27.45 190 18.65
M 185.65 22.95
L 185.7 23 184.7 27.45 180.85 27.45 185.65 22.95
M 175.4 18.65
L 172 18.65
Q 169.9 20.75 166.75 22.1
L 166 25.5
Q 168.5 24.9 170.3 23.8
L 168.25 33.2 172.25 33.2 175.4 18.65
M 162.5 28.65
Q 163.4 26.4 163.4 24.1 163.4 21.45 161.85 20.05 160.25 18.65 158.1 18.65 156.05 18.65 154.45 19.9 152.85 21.2 151.95 23.4 151.1 25.55 151.1 27.6 151.1 30.45 152.45 31.95 153.8 33.45 156.05 33.45 158.25 33.45 159.9 32.15 161.55 30.9 162.5 28.65
M 156.4 22.5
Q 157.1 21.3 158.05 21.3 158.8 21.3 159.2 21.85 159.55 22.4 159.55 23.3 159.55 24.5 159.2 26.45 158.8 28.4 158.1 29.6 157.4 30.75 156.45 30.75 154.9 30.75 154.9 28.65
L 154.9 28.6
Q 154.9 27.45 155.3 25.55 155.65 23.65 156.4 22.5
M 149.95 22.6
Q 149.95 20.9 148.65 19.75 147.4 18.65 144.8 18.65 142.3 18.65 140.75 19.7 139.2 20.8 138.85 22.9
L 142.75 23.45
Q 143.15 21.3 144.55 21.3 145.1 21.3 145.6 21.7 146.05 22.05 146.05 22.8 146.05 23.3 145.7 23.85 145.3 24.4 144.4 25.1
L 142.9 26.15
Q 140.5 27.9 139.2 29.45 137.9 31 137.5 33.2
L 148.45 33.2 149.15 29.95 143.5 29.95
Q 144.1 29.3 144.5 28.95 144.95 28.6 146.3 27.65 148.3 26.3 149.1 25.1 149.95 23.9 149.95 22.6
M 130.5 18.9
L 126.35 18.9 124.55 27.2 124.5 27.2 120.95 18.9 116.85 18.9 113.75 33.2 117.9 33.2 119.7 24.9 119.75 24.9 123.25 33.2 127.4 33.2 130.5 18.9
M 113.7 18.9
L 109.25 18.9 106.15 33.2 110.65 33.2 113.7 18.9 Z"/>
</g>
</defs>

<g transform="matrix( 1, 0, 0, 1, 0,0) ">
<use xlink:href="#Layer1_0_FILL"/>
</g>

<g transform="matrix( 10.800430297851562, 0, 0, 10.800430297851562, 5.5,4.6) ">
<g transform="matrix( 1, 0, 0, 1, 0,0) ">
<use xlink:href="#pop_0_Layer5_0_FILL"/>
</g>

<g transform="matrix( 1, 0, 0, 1, 0,0) ">
<use xlink:href="#pop_0_Layer4_0_FILL"/>
</g>

<g transform="matrix( 1, 0, 0, 1, 0,0) ">
<use xlink:href="#pop_0_Layer3_0_FILL"/>
</g>

<g transform="matrix( 1, 0, 0, 1, 0,0) ">
<use xlink:href="#pop_0_Layer2_0_FILL"/>
</g>

<g transform="matrix( 1, 0, 0, 1, 0,0) ">
<use xlink:href="#pop_0_Layer1_0_FILL"/>
</g>

<g transform="matrix( 1, 0, 0, 1, 0,0) ">
<use xlink:href="#pop_0_Layer0_0_FILL"/>
</g>
</g>

<g transform="matrix( 1, 0, 0, 1, 0,0) ">
<use xlink:href="#Layer1_1_MEMBER_1_FILL"/>
</g>

<g transform="matrix( 1, 0, 0, 1, 0,0) ">
<use xlink:href="#Layer1_1_MEMBER_1_MEMBER_0_FILL"/>
</g>

<g transform="matrix( 1, 0, 0, 1, 0,0) ">
<use xlink:href="#Layer0_0_FILL"/>
</g>
</svg>
