
<svg xmlns="http://www.w3.org/2000/svg" version="1.1" xmlns:xlink="http://www.w3.org/1999/xlink" preserveAspectRatio="none" x="0px" y="0px" width="60px" height="60px" viewBox="0 0 60 60">
<defs>
<g id="pop_0_Layer5_0_FILL">
<path fill="#0C0A80" fill-opacity="0.2" stroke="none" d="
M 7.25 6.1
Q 7.75 5.2 7.85 4.45 7.85 4.3 7.85 4 7.7 2.15 6.05 1.6 4.15 1.1 3 2.6 1.9 4.15 3.45 5.9 4.7 7.3 2.95 7.8 3.1 7.95 3.7 7.95 3.75 7.95 3.85 7.95 4.5 8 5.5 7.6 6.7 7 7.25 6.1 Z"/>
</g>

<g id="pop_0_Layer4_0_FILL">
<path fill="#0C0A80" fill-opacity="0.2" stroke="none" d="
M 4.85 5.25
Q 4.85 4.4 4.25 3.75 3.65 3.15 2.8 3.15 1.95 3.15 1.35 3.75 0.7 4.4 0.7 5.25 0.7 6.1 1.35 6.7 1.95 7.3 2.8 7.3 3.65 7.3 4.25 6.7 4.85 6.1 4.85 5.25 Z"/>
</g>

<g id="pop_0_Layer3_0_FILL">
<path fill="#0C0A80" fill-opacity="0.2" stroke="none" d="
M 7.05 2.25
Q 7.05 1.6 6.6 1.15 6.15 0.7 5.5 0.7 4.85 0.7 4.4 1.15 3.95 1.6 3.95 2.25 3.95 2.9 4.4 3.35 4.85 3.8 5.5 3.8 6.15 3.8 6.6 3.35 7.05 2.9 7.05 2.25 Z"/>
</g>

<g id="pop_0_Layer2_0_FILL">
<path fill="#FFFFFF" fill-opacity="0.30196078431372547" stroke="none" d="
M 8.2 4.1
Q 8.2 2.4 7 1.2 5.8 0 4.1 0 2.4 0 1.2 1.2 0 2.4 0 4.1 0 5.8 1.2 7 2.4 8.2 4.1 8.2 5.8 8.2 7 7 8.2 5.8 8.2 4.1 Z"/>
</g>

<g id="pop_0_Layer1_0_FILL">
<path fill="#FFFFFF" fill-opacity="0.5019607843137255" stroke="none" d="
M 2.1 6.2
Q 3.7 5.95 2.65 3.7 1.9 1.2 4.2 0.3 3.65 0.35 3 0.55 1.7 1.1 1.1 1.9 0.5 2.75 0.4 3.5 0.35 3.65 0.35 3.95 0.4 6.2 2.1 6.2 Z"/>
</g>

<g id="pop_0_Layer0_0_FILL">
<path fill="#FFFFFF" fill-opacity="0.5019607843137255" stroke="none" d="
M 6.9 1.85
Q 6.9 1.45 6.65 1.2 6.35 0.9 6 0.9 5.6 0.9 5.35 1.2 5.05 1.45 5.05 1.85 5.05 2.2 5.35 2.5 5.6 2.75 6 2.75 6.35 2.75 6.65 2.5 6.9 2.2 6.9 1.85 Z"/>
</g>

<g id="Layer0_0_MEMBER_1_FILL">
<path fill="#FFFFFF" stroke="none" d="
M 358.75 152
Q 358.75 151.35 358.3 150.9 357.85 150.4 357.15 150.4
L 353.2 150.4
Q 352.5 150.4 352.1 150.9 351.6 151.35 351.6 152
L 351.6 173.7 347.15 151.7
Q 347 151.15 346.6 150.8 346.15 150.4 345.55 150.4
L 340.95 150.4
Q 340.35 150.4 339.95 150.8 339.5 151.15 339.35 151.7
L 333.05 180.55
Q 332.95 181 333.15 181.45 333.3 181.9 333.75 182.2 334.15 182.45 334.6 182.45
L 338.6 182.45
Q 339.2 182.45 339.65 182.1 340.1 181.7 340.2 181.15
L 341.25 175.1 344.75 175.1 345.9 181.2
Q 345.95 181.7 346.45 182.1 346.9 182.45 347.45 182.45
L 351.45 182.45
Q 351.9 182.45 352.3 182.2 352.7 182.45 353.2 182.45
L 357.15 182.45
Q 357.85 182.45 358.3 182 358.75 181.55 358.75 180.85
L 358.75 152
M 353.2 152
L 357.15 152 357.15 180.85 353.2 180.85 353.2 152
M 338.6 180.85
L 334.6 180.85 340.95 152 345.55 152 351.45 180.85 347.45 180.85 346.1 173.5 339.9 173.5 338.6 180.85
M 343.1 156.3
L 340.55 170.2 345.6 170.2 343.1 156.3
M 343.7 168.6
L 342.5 168.6 343.1 165.2 343.7 168.6 Z"/>

<path fill="#ECAE00" stroke="none" d="
M 334.6 180.85
L 338.6 180.85 339.9 173.5 346.1 173.5 347.45 180.85 351.45 180.85 345.55 152 340.95 152 334.6 180.85
M 340.55 170.2
L 343.1 156.3 345.6 170.2 340.55 170.2
M 357.15 152
L 353.2 152 353.2 180.85 357.15 180.85 357.15 152 Z"/>
</g>
</defs>

<g transform="matrix( 7.2001953125, 0, 0, 7.2001953125, 0,0) ">
<g transform="matrix( 1, 0, 0, 1, 0,0) ">
<use xlink:href="#pop_0_Layer5_0_FILL"/>
</g>

<g transform="matrix( 1, 0, 0, 1, 0,0) ">
<use xlink:href="#pop_0_Layer4_0_FILL"/>
</g>

<g transform="matrix( 1, 0, 0, 1, 0,0) ">
<use xlink:href="#pop_0_Layer3_0_FILL"/>
</g>

<g transform="matrix( 1, 0, 0, 1, 0,0) ">
<use xlink:href="#pop_0_Layer2_0_FILL"/>
</g>

<g transform="matrix( 1, 0, 0, 1, 0,0) ">
<use xlink:href="#pop_0_Layer1_0_FILL"/>
</g>

<g transform="matrix( 1, 0, 0, 1, 0,0) ">
<use xlink:href="#pop_0_Layer0_0_FILL"/>
</g>
</g>

<g transform="matrix( 1, 0, 0, 1, -316.35,-136.95) ">
<use xlink:href="#Layer0_0_MEMBER_1_FILL"/>
</g>
</svg>
