
<svg xmlns="http://www.w3.org/2000/svg" version="1.1" xmlns:xlink="http://www.w3.org/1999/xlink" preserveAspectRatio="none" x="0px" y="0px" width="300px" height="100px" viewBox="0 0 300 100">
<defs>
<g id="Layer1_0_FILL">
<path fill="#000000" fill-opacity="0.5019607843137255" stroke="none" d="
M 300 49.2
Q 300 28.8 285.55 14.4 271.2 0 250.8 0
L 49.2 0
Q 28.8 0 14.35 14.4 0 28.8 0 49.2 0 69.6 14.35 84 28.8 98.4 49.2 98.4
L 127.95 98.4
Q 128.15 98.5 128.4 98.5 128.6650390625 98.5 128.9 98.4
L 250.8 98.4
Q 271.2 98.4 285.55 84 300 69.6 300 49.2 Z"/>
</g>

<g id="pop_0_Layer5_0_FILL">
<path fill="#0C0A80" fill-opacity="0.2" stroke="none" d="
M 7.25 6.1
Q 7.75 5.2 7.85 4.45 7.85 4.3 7.85 4 7.7 2.15 6.05 1.6 4.15 1.1 3 2.6 1.9 4.15 3.45 5.9 4.7 7.3 2.95 7.8 3.1 7.95 3.7 7.95 3.75 7.95 3.85 7.95 4.5 8 5.5 7.6 6.7 7 7.25 6.1 Z"/>
</g>

<g id="pop_0_Layer4_0_FILL">
<path fill="#0C0A80" fill-opacity="0.2" stroke="none" d="
M 4.85 5.25
Q 4.85 4.4 4.25 3.75 3.65 3.15 2.8 3.15 1.95 3.15 1.35 3.75 0.7 4.4 0.7 5.25 0.7 6.1 1.35 6.7 1.95 7.3 2.8 7.3 3.65 7.3 4.25 6.7 4.85 6.1 4.85 5.25 Z"/>
</g>

<g id="pop_0_Layer3_0_FILL">
<path fill="#0C0A80" fill-opacity="0.2" stroke="none" d="
M 7.05 2.25
Q 7.05 1.6 6.6 1.15 6.15 0.7 5.5 0.7 4.85 0.7 4.4 1.15 3.95 1.6 3.95 2.25 3.95 2.9 4.4 3.35 4.85 3.8 5.5 3.8 6.15 3.8 6.6 3.35 7.05 2.9 7.05 2.25 Z"/>
</g>

<g id="pop_0_Layer2_0_FILL">
<path fill="#FFFFFF" fill-opacity="0.30196078431372547" stroke="none" d="
M 8.2 4.1
Q 8.2 2.4 7 1.2 5.8 0 4.1 0 2.4 0 1.2 1.2 0 2.4 0 4.1 0 5.8 1.2 7 2.4 8.2 4.1 8.2 5.8 8.2 7 7 8.2 5.8 8.2 4.1 Z"/>
</g>

<g id="pop_0_Layer1_0_FILL">
<path fill="#FFFFFF" fill-opacity="0.5019607843137255" stroke="none" d="
M 2.1 6.2
Q 3.7 5.95 2.65 3.7 1.9 1.2 4.2 0.3 3.65 0.35 3 0.55 1.7 1.1 1.1 1.9 0.5 2.75 0.4 3.5 0.35 3.65 0.35 3.95 0.4 6.2 2.1 6.2 Z"/>
</g>

<g id="pop_0_Layer0_0_FILL">
<path fill="#FFFFFF" fill-opacity="0.5019607843137255" stroke="none" d="
M 6.9 1.85
Q 6.9 1.45 6.65 1.2 6.35 0.9 6 0.9 5.6 0.9 5.35 1.2 5.05 1.45 5.05 1.85 5.05 2.2 5.35 2.5 5.6 2.75 6 2.75 6.35 2.75 6.65 2.5 6.9 2.2 6.9 1.85 Z"/>
</g>

<g id="Layer1_1_MEMBER_1_FILL">
<path fill="#FFFFFF" stroke="none" d="
M 73.95 39.9
Q 73.95 29.85 66.9 22.8 66.85 22.75 66.8 22.7 59.75 15.7 49.75 15.7 39.7 15.7 32.65 22.8 25.55 29.85 25.55 39.9 25.55 49.9 32.55 56.95 32.6 57 32.65 57.05 33.85 58.25 35.15 59.25
L 35.1 80.85
Q 35.1 82.1 36 83 36.85 83.85 38.1 83.85 39.35 83.85 40.25 83
L 49.75 73.5 59.3 83.05
Q 60.15 83.9 61.4 83.9 62.65 83.9 63.55 83.05 64.4 82.15 64.4 80.9
L 64.4 59.25
Q 65.7 58.2 66.9 57.05 73.95 49.95 73.95 39.9 Z"/>
</g>

<g id="Layer1_1_MEMBER_1_MEMBER_0_FILL">
<path fill="#B84F4F" stroke="none" d="
M 38.15 53.65
L 38.1 80.85 49.65 69.35 49.65 42.15 38.15 53.65 Z"/>

<path fill="#A12C2C" stroke="none" d="
M 49.75 42.05
L 49.65 42.15 49.65 69.35 49.75 69.25 61.4 80.9 61.4 53.7 49.75 42.05 Z"/>
</g>

<g id="Layer1_1_MEMBER_1_MEMBER_1_FILL">
<path fill="#FFCC00" stroke="none" d="
M 58.95 30.55
Q 55.15 26.8 49.75 26.8 44.25 26.8 40.45 30.6 36.6 34.45 36.6 39.9 36.6 45.3 40.35 49.1
L 58.95 30.55 Z"/>

<path fill="#C59E00" stroke="none" d="
M 59 30.6
L 58.95 30.55 40.35 49.1
Q 40.4 49.15 40.45 49.2 44.25 53 49.75 53 55.2 53 59 49.2 62.85 45.35 62.85 39.9 62.85 34.45 59 30.6
M 64.65 24.8
Q 58.5 18.7 49.75 18.7 40.95 18.7 34.75 24.9 28.55 31.1 28.55 39.9 28.55 48.65 34.65 54.8
L 40.35 49.1
Q 36.6 45.3 36.6 39.9 36.6 34.45 40.45 30.6 44.25 26.8 49.75 26.8 55.15 26.8 58.95 30.55
L 64.65 24.8 Z"/>

<path fill="#957800" stroke="none" d="
M 58.95 30.55
L 59 30.6
Q 62.85 34.45 62.85 39.9 62.85 45.35 59 49.2 55.2 53 49.75 53 44.25 53 40.45 49.2 40.4 49.15 40.35 49.1
L 34.65 54.8
Q 34.7 54.85 34.75 54.9 40.95 61.1 49.75 61.1 58.55 61.1 64.75 54.9 70.95 48.7 70.95 39.9 70.95 31.1 64.75 24.9 64.7 24.85 64.65 24.8
L 58.95 30.55 Z"/>
</g>

<g id="Layer0_0_FILL">
<path fill="#FFFFFF" stroke="none" d="
M 238.35 58.85
L 240.1 58.85 243.35 53.65 241.25 53.65 239.55 56.95 239.25 53.65 237.35 53.65 238.35 58.85
M 236.7 53.65
L 234.7 53.65 233.6 58.85 235.6 58.85 236.7 53.65
M 236.85 53.05
L 237.1 51.7 235.15 51.7 234.85 53.05 236.85 53.05
M 233.25 55.1
L 233.55 53.65 232.5 53.65 232.9 51.75 230.7 52.85 230.55 53.65 229.8 53.65 229.5 55.1 230.2 55.1 229.85 56.85
Q 229.7 57.55 229.7 57.7 229.7 58.15 230.05 58.55 230.4 58.95 231.25 58.95 231.65 58.95 232.55 58.85
L 232.85 57.45
Q 232.4 57.5 232.25 57.5 231.8 57.5 231.8 57.15 231.8 57.05 231.8 56.9
L 232.2 55.1 233.25 55.1
M 248.85 55.05
Q 248.85 54.3 248.3 53.95 247.75 53.55 246.25 53.55 244.9 53.55 244.25 53.95 243.6 54.35 243.4 55.1
L 245.25 55.3
Q 245.45 54.95 245.65 54.85 245.85 54.7 246.2 54.7 246.5 54.7 246.75 54.85 246.9 54.95 246.9 55.15 246.9 55.25 246.85 55.5 246.55 55.6 245.7 55.7 244.75 55.8 244.2 55.9 243.6 56.05 243.25 56.4 242.85 56.75 242.85 57.45 242.85 58.05 243.3 58.5 243.7 58.95 244.7 58.95 245.65 58.95 246.45 58.25 246.45 58.55 246.5 58.85
L 248.45 58.85
Q 248.3 58.5 248.3 58.15 248.3 57.7 248.55 56.65 248.85 55.55 248.85 55.05
M 246.65 56.55
Q 246.5 57.3 246.15 57.6 245.8 57.9 245.4 57.9 245.15 57.9 244.95 57.75 244.8 57.6 244.8 57.35 244.8 57.1 245.05 56.95 245.25 56.75 246.65 56.55
M 252.85 51.7
L 250.9 51.7 249.35 58.85 251.35 58.85 252.85 51.7
M 228.8 54.9
Q 228.65 54.15 228.1 53.85 227.55 53.55 226.5 53.55 225.6 53.55 224.95 53.8 224.35 54.05 224.05 54.5 223.7 54.9 223.7 55.4 223.7 55.95 224.15 56.3 224.55 56.65 225.7 56.85 226.2 56.95 226.4 57 226.55 57.1 226.55 57.35 226.55 57.6 226.3 57.75 226.05 57.9 225.75 57.9 225.05 57.9 224.9 57.25
L 222.95 57.4
Q 223.05 58.25 223.6 58.6 224.2 58.95 225.45 58.95 226.95 58.95 227.7 58.4 228.45 57.85 228.45 57.05 228.45 56.45 228.05 56.1 227.7 55.75 226.55 55.6 225.8 55.5 225.65 55.4 225.5 55.25 225.5 55.1 225.5 54.9 225.65 54.75 225.85 54.65 226.2 54.65 226.85 54.65 226.9 55.1
L 228.8 54.9
M 207.2 53.65
L 207.05 54.4
Q 206.4 53.55 205.45 53.55 204.35 53.55 203.6 54.45 202.85 55.35 202.85 56.6 202.85 57.55 203.3 58.1 203.8 58.65 204.6 58.65 205.45 58.65 206.1 57.95
L 206.15 58 205.95 58.75
Q 205.85 59.25 205.6 59.5 205.4 59.75 205 59.75 204.45 59.75 204.45 59.25
L 202.55 58.95
Q 202.55 59.05 202.55 59.2 202.55 59.75 202.9 60.2 203.25 60.65 203.75 60.8 204.2 60.95 205.1 60.95 206.4 60.95 207.05 60.45 207.7 60 208 58.55
L 209.05 53.65 207.2 53.65
M 205.15 55.4
Q 205.45 54.85 205.9 54.85 206.2 54.85 206.4 55.1 206.6 55.3 206.6 55.6 206.6 56.15 206.3 56.75 206.05 57.3 205.5 57.3 205.2 57.3 205 57.1 204.8 56.9 204.8 56.55 204.8 55.9 205.15 55.4
M 217.5 51.8
Q 216.5 51.55 215.8 51.55 215.35 51.55 215 51.7 214.7 51.8 214.45 52 214.25 52.25 214.15 52.5 214.05 52.75 213.9 53.65
L 213.15 53.65 212.85 55.1 213.6 55.1 212.75 58.85 214.75 58.85 215.55 55.1 216.5 55.1 216.8 53.65 215.85 53.65
Q 216 53.05 216.15 52.95 216.25 52.85 216.5 52.85 216.75 52.85 217.15 52.95
L 217.5 51.8
M 222.05 54.2
Q 221.4 53.55 219.95 53.55 219.3 53.55 218.8 53.7 218.3 53.85 217.75 54.25 217.25 54.65 216.95 55.3 216.65 55.9 216.65 56.6 216.65 57.6 217.3 58.3 217.95 58.95 219.5 58.95 220.55 58.95 221.25 58.65 221.95 58.3 222.35 57.5
L 220.45 57.35
Q 220.1 57.8 219.55 57.8 218.7 57.8 218.6 56.75
L 222.55 56.75
Q 222.7 56.05 222.7 55.75 222.7 54.8 222.05 54.2
M 220.5 54.9
Q 220.75 55.1 220.75 55.5 220.75 55.7 220.7 55.8
L 218.8 55.8
Q 218.95 55.25 219.25 55 219.55 54.7 219.9 54.7 220.25 54.7 220.5 54.9
M 177.7 55.2
Q 177.85 55.2 178.1 55.25
L 178.8 53.7
Q 178.45 53.55 178.15 53.55 177.7 53.55 177.35 53.8 177 54 176.55 54.7
L 176.75 53.65 174.9 53.65 173.8 58.85 175.8 58.85 176.2 56.9
Q 176.4 56 176.75 55.6 177.1 55.2 177.7 55.2
M 186.25 53.65
L 184.25 53.65 183.15 58.85 185.15 58.85 186.25 53.65
M 186.4 53.05
L 186.65 51.7 184.7 51.7 184.4 53.05 186.4 53.05
M 182.8 55.1
L 183.1 53.65 182.05 53.65 182.45 51.75 180.25 52.85 180.1 53.65 179.35 53.65 179.05 55.1 179.75 55.1 179.4 56.85
Q 179.25 57.55 179.25 57.7 179.25 58.15 179.6 58.55 179.95 58.95 180.8 58.95 181.2 58.95 182.1 58.85
L 182.4 57.45
Q 181.95 57.5 181.8 57.5 181.35 57.5 181.35 57.15 181.35 57.05 181.35 56.9
L 181.75 55.1 182.8 55.1
M 189.1 55.4
Q 188.95 55.25 188.95 55.1 188.95 54.9 189.1 54.75 189.3 54.65 189.65 54.65 190.3 54.65 190.35 55.1
L 192.25 54.9
Q 192.1 54.15 191.55 53.85 191 53.55 189.95 53.55 189.05 53.55 188.4 53.8 187.8 54.05 187.5 54.5 187.15 54.9 187.15 55.4 187.15 55.95 187.6 56.3 188 56.65 189.15 56.85 189.65 56.95 189.85 57 190 57.1 190 57.35 190 57.6 189.75 57.75 189.5 57.9 189.2 57.9 188.5 57.9 188.35 57.25
L 186.4 57.4
Q 186.5 58.25 187.05 58.6 187.65 58.95 188.9 58.95 190.4 58.95 191.15 58.4 191.9 57.85 191.9 57.05 191.9 56.45 191.5 56.1 191.15 55.75 190 55.6 189.25 55.5 189.1 55.4
M 196.1 51.7
L 194.15 51.7 193.85 53.05 195.85 53.05 196.1 51.7
M 195.7 53.65
L 193.7 53.65 192.6 58.85 194.6 58.85 195.7 53.65
M 198.7 54.45
L 198.85 53.65 197 53.65 195.9 58.85 197.9 58.85 198.4 56.6
Q 198.55 55.85 198.9 55.4 199.2 55 199.65 55 200.05 55 200.05 55.45 200.05 55.55 199.85 56.45
L 199.35 58.85 201.35 58.85 201.95 56
Q 202.15 55.1 202.15 54.8 202.15 54.25 201.8 53.9 201.45 53.55 200.7 53.55 199.55 53.55 198.7 54.45
M 129.1 55
Q 129.5 55 129.5 55.45 129.5 55.55 129.3 56.45
L 128.8 58.85 130.8 58.85 131.4 56
Q 131.6 55.1 131.6 54.8 131.6 54.25 131.25 53.9 130.9 53.55 130.15 53.55 129 53.55 128.15 54.45
L 128.3 53.65 126.45 53.65 125.35 58.85 127.35 58.85 127.85 56.6
Q 128 55.85 128.35 55.4 128.65 55 129.1 55
M 135.6 53.55
Q 134.95 53.55 134.45 53.7 133.95 53.85 133.4 54.25 132.9 54.65 132.6 55.3 132.3 55.9 132.3 56.6 132.3 57.6 132.95 58.3 133.6 58.95 135.15 58.95 136.2 58.95 136.9 58.65 137.6 58.3 138 57.5
L 136.1 57.35
Q 135.75 57.8 135.2 57.8 134.35 57.8 134.25 56.75
L 138.2 56.75
Q 138.35 56.05 138.35 55.75 138.35 54.8 137.7 54.2 137.05 53.55 135.6 53.55
M 136.15 54.9
Q 136.4 55.1 136.4 55.5 136.4 55.7 136.35 55.8
L 134.45 55.8
Q 134.6 55.25 134.9 55 135.2 54.7 135.55 54.7 135.9 54.7 136.15 54.9
M 141.85 54.65
Q 142.5 54.65 142.55 55.1
L 144.45 54.9
Q 144.3 54.15 143.75 53.85 143.2 53.55 142.15 53.55 141.25 53.55 140.6 53.8 140 54.05 139.7 54.5 139.35 54.9 139.35 55.4 139.35 55.95 139.8 56.3 140.2 56.65 141.35 56.85 141.85 56.95 142.05 57 142.2 57.1 142.2 57.35 142.2 57.6 141.95 57.75 141.7 57.9 141.4 57.9 140.7 57.9 140.55 57.25
L 138.6 57.4
Q 138.7 58.25 139.25 58.6 139.85 58.95 141.1 58.95 142.6 58.95 143.35 58.4 144.1 57.85 144.1 57.05 144.1 56.45 143.7 56.1 143.35 55.75 142.2 55.6 141.45 55.5 141.3 55.4 141.15 55.25 141.15 55.1 141.15 54.9 141.3 54.75 141.5 54.65 141.85 54.65
M 154.3 55.05
Q 154.3 54.3 153.75 53.95 153.2 53.55 151.7 53.55 150.35 53.55 149.7 53.95 149.05 54.35 148.85 55.1
L 150.7 55.3
Q 150.9 54.95 151.1 54.85 151.3 54.7 151.65 54.7 151.95 54.7 152.2 54.85 152.35 54.95 152.35 55.15 152.35 55.25 152.3 55.5 152 55.6 151.15 55.7 150.2 55.8 149.65 55.9 149.05 56.05 148.7 56.4 148.3 56.75 148.3 57.45 148.3 58.05 148.75 58.5 149.15 58.95 150.15 58.95 151.1 58.95 151.9 58.25 151.9 58.55 151.95 58.85
L 153.9 58.85
Q 153.75 58.5 153.75 58.15 153.75 57.7 154 56.65 154.3 55.55 154.3 55.05
M 150.85 57.9
Q 150.6 57.9 150.4 57.75 150.25 57.6 150.25 57.35 150.25 57.1 150.5 56.95 150.7 56.75 152.1 56.55 151.95 57.3 151.6 57.6 151.25 57.9 150.85 57.9
M 159.15 54.35
Q 158.6 53.55 157.5 53.55 156.45 53.55 155.75 54.5 155.05 55.5 155.05 56.8 155.05 57.8 155.5 58.4 156 58.95 156.85 58.95 157.35 58.95 157.65 58.85 158 58.7 158.45 58.3
L 158.45 58.35 158.35 58.85 160.2 58.85 161.75 51.7 159.75 51.7 159.15 54.35
M 158.05 54.9
Q 158.35 54.9 158.6 55.1 158.8 55.35 158.8 55.8 158.8 56.45 158.5 57.05 158.2 57.65 157.65 57.65 157.35 57.65 157.2 57.45 157 57.2 157 56.75 157 56 157.3 55.45 157.6 54.9 158.05 54.9
M 120.7 58.85
L 121.2 56.6
Q 121.35 55.85 121.7 55.4 122 55 122.45 55 122.85 55 122.85 55.45 122.85 55.55 122.65 56.45
L 122.15 58.85 124.15 58.85 124.75 56
Q 124.95 55.1 124.95 54.8 124.95 54.25 124.6 53.9 124.25 53.55 123.5 53.55 122.35 53.55 121.5 54.45
L 121.65 53.65 119.8 53.65 118.7 58.85 120.7 58.85
M 162.85 58.85
L 164.6 58.85 167.85 53.65 165.75 53.65 164.05 56.95 163.75 53.65 161.85 53.65 162.85 58.85
M 173.5 55.75
Q 173.5 54.8 172.85 54.2 172.2 53.55 170.75 53.55 170.1 53.55 169.6 53.7 169.1 53.85 168.55 54.25 168.05 54.65 167.75 55.3 167.45 55.9 167.45 56.6 167.45 57.6 168.1 58.3 168.75 58.95 170.3 58.95 171.35 58.95 172.05 58.65 172.75 58.3 173.15 57.5
L 171.25 57.35
Q 170.9 57.8 170.35 57.8 169.5 57.8 169.4 56.75
L 173.35 56.75
Q 173.5 56.05 173.5 55.75
M 170.05 55
Q 170.35 54.7 170.7 54.7 171.05 54.7 171.3 54.9 171.55 55.1 171.55 55.5 171.55 55.7 171.5 55.8
L 169.6 55.8
Q 169.75 55.25 170.05 55
M 118.25 55.05
Q 118.25 54.3 117.7 53.95 117.15 53.55 115.65 53.55 114.3 53.55 113.65 53.95 113 54.35 112.8 55.1
L 114.65 55.3
Q 114.85 54.95 115.05 54.85 115.25 54.7 115.6 54.7 115.9 54.7 116.15 54.85 116.3 54.95 116.3 55.15 116.3 55.25 116.25 55.5 115.95 55.6 115.1 55.7 114.15 55.8 113.6 55.9 113 56.05 112.65 56.4 112.25 56.75 112.25 57.45 112.25 58.05 112.7 58.5 113.1 58.95 114.1 58.95 115.05 58.95 115.85 58.25 115.85 58.55 115.9 58.85
L 117.85 58.85
Q 117.7 58.5 117.7 58.15 117.7 57.7 117.95 56.65 118.25 55.55 118.25 55.05
M 116.05 56.55
Q 115.9 57.3 115.55 57.6 115.2 57.9 114.8 57.9 114.55 57.9 114.35 57.75 114.2 57.6 114.2 57.35 114.2 57.1 114.45 56.95 114.65 56.75 116.05 56.55
M 111.1 52.25
Q 110.35 51.55 109 51.55 107.7 51.55 106.75 52.2 105.8 52.8 105.35 53.85 104.85 54.9 104.85 55.95 104.85 57.3 105.65 58.15 106.45 58.95 108 58.95 109.5 58.95 110.45 58.2 111.35 57.45 111.7 56.35
L 109.6 56.05
Q 109.35 56.7 109 57 108.65 57.35 108.15 57.35 107.6 57.35 107.3 57 107 56.6 107 56.1 107 55.4 107.3 54.65 107.55 53.9 108.05 53.55 108.5 53.2 109 53.2 109.35 53.2 109.7 53.45 110 53.7 110 54.25
L 112 54.05
Q 111.9 52.95 111.1 52.25
M 239.2 40.9
Q 239.35 40.2 239.35 39.9 239.35 38.95 238.7 38.35 238.05 37.7 236.6 37.7 235.95 37.7 235.45 37.85 234.95 38 234.4 38.4 233.9 38.8 233.6 39.45 233.3 40.05 233.3 40.75 233.3 41.75 233.95 42.45 234.6 43.1 236.15 43.1 237.2 43.1 237.9 42.8 238.6 42.45 239 41.65
L 237.1 41.5
Q 236.75 41.95 236.2 41.95 235.35 41.95 235.25 40.9
L 239.2 40.9
M 237.4 39.65
Q 237.4 39.85 237.35 39.95
L 235.45 39.95
Q 235.6 39.4 235.9 39.15 236.2 38.85 236.55 38.85 236.9 38.85 237.15 39.05 237.4 39.25 237.4 39.65
M 229.9 35.85
L 227.9 35.85 226.35 43 228.35 43 228.85 40.75
Q 229 40 229.35 39.55 229.65 39.15 230.1 39.15 230.5 39.15 230.5 39.6 230.5 39.7 230.3 40.6
L 229.8 43 231.8 43 232.4 40.15
Q 232.6 39.25 232.6 38.95 232.6 38.4 232.25 38.05 231.9 37.7 231.2 37.7 230.05 37.7 229.35 38.45
L 229.3 38.45 229.9 35.85
M 222.65 41
Q 222.5 41.7 222.5 41.85 222.5 42.3 222.85 42.7 223.2 43.1 224.05 43.1 224.45 43.1 225.35 43
L 225.65 41.6
Q 225.2 41.65 225.05 41.65 224.6 41.65 224.6 41.3 224.6 41.2 224.6 41.05
L 225 39.25 226.05 39.25 226.35 37.8 225.3 37.8 225.7 35.9 223.5 37 223.35 37.8 222.6 37.8 222.3 39.25 223 39.25 222.65 41
M 212.3 43.55
L 212.15 44.9
Q 212.9 45.1 213.6 45.1 214.25 45.1 214.7 44.8 215.15 44.5 215.65 43.65
L 218.9 37.8 216.9 37.8 215.15 41.4 214.85 37.8 212.9 37.8 213.9 43
Q 213.55 43.7 212.95 43.7 212.65 43.7 212.3 43.55
M 270.9 37.8
L 268.9 37.8 267.15 41.4 266.85 37.8 264.9 37.8 265.9 43
Q 265.55 43.7 264.95 43.7 264.65 43.7 264.3 43.55
L 264.15 44.9
Q 264.9 45.1 265.6 45.1 266.25 45.1 266.7 44.8 267.15 44.5 267.65 43.65
L 270.9 37.8
M 261.05 43
L 263.05 43 264.55 35.85 262.6 35.85 261.05 43
M 259.05 38.85
L 259.25 37.8 257.4 37.8 256.3 43 258.3 43 258.7 41.05
Q 258.9 40.15 259.25 39.75 259.6 39.35 260.2 39.35 260.35 39.35 260.6 39.4
L 261.3 37.85
Q 260.95 37.7 260.65 37.7 260.2 37.7 259.85 37.95 259.5 38.15 259.05 38.85
M 249.35 39.9
Q 249.35 38.95 248.7 38.35 248.05 37.7 246.6 37.7 245.95 37.7 245.45 37.85 244.95 38 244.4 38.4 243.9 38.8 243.6 39.45 243.3 40.05 243.3 40.75 243.3 41.75 243.95 42.45 244.6 43.1 246.15 43.1 247.2 43.1 247.9 42.8 248.6 42.45 249 41.65
L 247.1 41.5
Q 246.75 41.95 246.2 41.95 245.35 41.95 245.25 40.9
L 249.2 40.9
Q 249.35 40.2 249.35 39.9
M 245.9 39.15
Q 246.2 38.85 246.55 38.85 246.9 38.85 247.15 39.05 247.4 39.25 247.4 39.65 247.4 39.85 247.35 39.95
L 245.45 39.95
Q 245.6 39.4 245.9 39.15
M 252.25 39.45
Q 252.45 39.1 252.65 39 252.85 38.85 253.2 38.85 253.5 38.85 253.75 39 253.9 39.1 253.9 39.3 253.9 39.4 253.85 39.65 253.55 39.75 252.7 39.85 251.75 39.95 251.2 40.05 250.6 40.2 250.25 40.55 249.85 40.9 249.85 41.6 249.85 42.2 250.3 42.65 250.7 43.1 251.7 43.1 252.65 43.1 253.45 42.4 253.45 42.7 253.5 43
L 255.45 43
Q 255.3 42.65 255.3 42.3 255.3 41.85 255.55 40.8 255.85 39.7 255.85 39.2 255.85 38.45 255.3 38.1 254.75 37.7 253.25 37.7 251.9 37.7 251.25 38.1 250.6 38.5 250.4 39.25
L 252.25 39.45
M 252.4 42.05
Q 252.15 42.05 251.95 41.9 251.8 41.75 251.8 41.5 251.8 41.25 252.05 41.1 252.25 40.9 253.65 40.7 253.5 41.45 253.15 41.75 252.8 42.05 252.4 42.05
M 147.15 43
L 148.25 37.8 146.25 37.8 145.15 43 147.15 43
M 149.55 37.8
L 148.45 43 150.45 43 150.95 40.75
Q 151.1 40 151.45 39.55 151.75 39.15 152.2 39.15 152.6 39.15 152.6 39.6 152.6 39.7 152.4 40.6
L 151.9 43 153.9 43 154.5 40.15
Q 154.7 39.25 154.7 38.95 154.7 38.4 154.35 38.05 154 37.7 153.25 37.7 152.1 37.7 151.25 38.6
L 151.4 37.8 149.55 37.8
M 148.65 35.85
L 146.7 35.85 146.4 37.2 148.4 37.2 148.65 35.85
M 200.7 37.85
Q 200.35 37.7 200.05 37.7 199.6 37.7 199.25 37.95 198.9 38.15 198.45 38.85
L 198.65 37.8 196.8 37.8 195.7 43 197.7 43 198.1 41.05
Q 198.3 40.15 198.65 39.75 199 39.35 199.6 39.35 199.75 39.35 200 39.4
L 200.7 37.85
M 182.4 43
L 184.4 43 185.5 37.8 183.5 37.8 182.4 43
M 189.35 40.9
Q 189.35 43.1 192.1 43.1 194.55 43.1 195.2 41.1
L 193.35 40.9
Q 192.95 41.8 192.2 41.8 191.85 41.8 191.6 41.55 191.3 41.35 191.3 40.9 191.3 40.2 191.7 39.65 192.1 39.05 192.8 39.05 193.6 39.05 193.7 39.7
L 195.5 39.6
Q 195.4 38.65 194.7 38.2 194 37.7 192.8 37.7 191.15 37.7 190.25 38.65 189.35 39.6 189.35 40.9
M 185.9 35.85
L 183.95 35.85 183.65 37.2 185.65 37.2 185.9 35.85
M 168.45 40.6
Q 168.25 41.55 168.25 41.9 168.25 42.4 168.6 42.75 168.95 43.1 169.65 43.1 170.85 43.1 171.65 42.2
L 171.5 43 173.35 43 174.45 37.8 172.45 37.8 172 40.05
Q 171.8 40.85 171.5 41.25 171.15 41.65 170.7 41.65 170.35 41.65 170.35 41.25
L 170.35 41.2
Q 170.35 41.1 170.35 41 170.35 40.9 170.5 40.35
L 171.05 37.8 169.05 37.8 168.45 40.6
M 168.1 35.85
L 165.3 35.85 163.05 40.4 163 40.4 162.75 35.85 160.05 35.85 158.5 43 160.35 43 161.4 37.55 161.7 43 163.35 43 166 37.55 166.05 37.55 164.7 43 166.55 43 168.1 35.85
M 178.1 35.85
L 176.15 35.85 174.6 43 176.6 43 178.1 35.85
M 181.7 35.9
L 179.5 37 179.35 37.8 178.6 37.8 178.3 39.25 179 39.25 178.65 41
Q 178.5 41.7 178.5 41.85 178.5 42.3 178.85 42.7 179.2 43.1 180.05 43.1 180.45 43.1 181.35 43
L 181.65 41.6
Q 181.2 41.65 181.05 41.65 180.6 41.65 180.6 41.3 180.6 41.2 180.6 41.05
L 181 39.25 182.05 39.25 182.35 37.8 181.3 37.8 181.7 35.9
M 206.45 39.2
Q 206.45 38.45 205.9 38.1 205.35 37.7 203.85 37.7 202.5 37.7 201.85 38.1 201.2 38.5 201 39.25
L 202.85 39.45
Q 203.05 39.1 203.25 39 203.45 38.85 203.8 38.85 204.1 38.85 204.35 39 204.5 39.1 204.5 39.3 204.5 39.4 204.45 39.65 204.15 39.75 203.3 39.85 202.35 39.95 201.8 40.05 201.2 40.2 200.85 40.55 200.45 40.9 200.45 41.6 200.45 42.2 200.9 42.65 201.3 43.1 202.3 43.1 203.25 43.1 204.05 42.4 204.05 42.7 204.1 43
L 206.05 43
Q 205.9 42.65 205.9 42.3 205.9 41.85 206.15 40.8 206.45 39.7 206.45 39.2
M 202.65 41.1
Q 202.85 40.9 204.25 40.7 204.1 41.45 203.75 41.75 203.4 42.05 203 42.05 202.75 42.05 202.55 41.9 202.4 41.75 202.4 41.5 202.4 41.25 202.65 41.1
M 211.6 43
L 211.9 41.65 209.4 41.65 212.2 39 212.45 37.8 207.85 37.8 207.55 39.2 209.85 39.2 207 41.85 206.75 43 211.6 43
M 141.05 39.45
Q 141.25 39.1 141.45 39 141.65 38.85 142 38.85 142.3 38.85 142.55 39 142.7 39.1 142.7 39.3 142.7 39.4 142.65 39.65 142.35 39.75 141.5 39.85 140.55 39.95 140 40.05 139.4 40.2 139.05 40.55 138.65 40.9 138.65 41.6 138.65 42.2 139.1 42.65 139.5 43.1 140.5 43.1 141.45 43.1 142.25 42.4 142.25 42.7 142.3 43
L 144.25 43
Q 144.1 42.65 144.1 42.3 144.1 41.85 144.35 40.8 144.65 39.7 144.65 39.2 144.65 38.45 144.1 38.1 143.55 37.7 142.05 37.7 140.7 37.7 140.05 38.1 139.4 38.5 139.2 39.25
L 141.05 39.45
M 141.2 42.05
Q 140.95 42.05 140.75 41.9 140.6 41.75 140.6 41.5 140.6 41.25 140.85 41.1 141.05 40.9 142.45 40.7 142.3 41.45 141.95 41.75 141.6 42.05 141.2 42.05
M 138.9 37.85
Q 138.55 37.7 138.25 37.7 137.8 37.7 137.45 37.95 137.1 38.15 136.65 38.85
L 136.85 37.8 135 37.8 133.9 43 135.9 43 136.3 41.05
Q 136.5 40.15 136.85 39.75 137.2 39.35 137.8 39.35 137.95 39.35 138.2 39.4
L 138.9 37.85
M 130.55 35.7
Q 129.25 35.7 128.25 36.3 127.25 36.85 126.7 37.85 126.15 38.85 126.15 40.05 126.15 41.5 127 42.3 127.85 43.1 129.35 43.1 131 43.1 132.65 42.3
L 133.35 38.95 130.05 38.95 129.7 40.4 131.05 40.4 130.9 41.2
Q 130.4 41.55 129.7 41.55 129.1 41.55 128.7 41.15 128.3 40.75 128.3 40.15 128.3 39.1 128.8 38.2 129.35 37.3 130.25 37.3 131.15 37.3 131.45 38.15
L 133.65 37.9
Q 133.1 35.7 130.55 35.7
M 120 37.8
L 118.9 43 120.9 43 122 37.8 120 37.8
M 122.15 37.2
L 122.4 35.85 120.45 35.85 120.15 37.2 122.15 37.2
M 119.05 35.85
L 117.1 35.85 115.55 43 117.55 43 119.05 35.85
M 115.3 37.8
L 113.3 37.8 112.2 43 114.2 43 115.3 37.8
M 115.7 35.85
L 113.75 35.85 113.45 37.2 115.45 37.2 115.7 35.85
M 107.5 35.85
L 105.15 35.85 107.3 40.25 106.7 43 108.95 43 109.5 40.3 112.95 35.85 110.45 35.85 108.6 38.5 107.5 35.85
M 187.35 10.55
Q 186.1 9.45 183.7 9.45 181.4 9.45 179.95 10.3 178.5 11.15 177.8 13.15
L 181.5 13.8
Q 181.85 11.9 183.35 11.9 184.75 11.9 184.75 13.3 184.75 15.4 182.4 15.4
L 182.1 15.4 181.6 18
Q 182.1 17.9 182.35 17.9 183.05 17.9 183.55 18.4 184 18.9 184 19.7 184 20.55 183.45 21.15 182.9 21.8 182 21.8 180.35 21.8 180.05 19.7
L 176.2 20.2
Q 176.35 22.05 177.75 23.15 179.1 24.25 181.65 24.25 184.05 24.25 185.35 23.4 186.65 22.55 187.25 21.6 187.85 20.6 187.85 19.55 187.85 17.55 185.9 16.6 188.6 15.45 188.6 13.1 188.6 11.65 187.35 10.55
M 174.2 9.45
L 170.8 9.45
Q 168.7 11.55 165.55 12.9
L 164.8 16.3
Q 167.3 15.7 169.1 14.6
L 167.05 24 171.05 24 174.2 9.45
M 156.9 9.45
Q 154.85 9.45 153.25 10.7 151.65 12 150.75 14.2 149.9 16.35 149.9 18.4 149.9 21.25 151.25 22.75 152.6 24.25 154.85 24.25 157.05 24.25 158.7 22.95 160.35 21.7 161.3 19.45 162.2 17.2 162.2 14.9 162.2 12.25 160.65 10.85 159.05 9.45 156.9 9.45
M 158.35 14.1
Q 158.35 15.3 158 17.25 157.6 19.2 156.9 20.4 156.2 21.55 155.25 21.55 153.7 21.55 153.7 19.45
L 153.7 19.4
Q 153.7 18.25 154.1 16.35 154.45 14.45 155.2 13.3 155.9 12.1 156.85 12.1 157.6 12.1 158 12.65 158.35 13.2 158.35 14.1
M 147.45 10.55
Q 146.2 9.45 143.6 9.45 141.1 9.45 139.55 10.5 138 11.6 137.65 13.7
L 141.55 14.25
Q 141.95 12.1 143.35 12.1 143.9 12.1 144.4 12.5 144.85 12.85 144.85 13.6 144.85 14.1 144.5 14.65 144.1 15.2 143.2 15.9
L 141.7 16.95
Q 139.3 18.7 138 20.25 136.7 21.8 136.3 24
L 147.25 24 147.95 20.75 142.3 20.75
Q 142.9 20.1 143.3 19.75 143.75 19.4 145.1 18.45 147.1 17.1 147.9 15.9 148.75 14.7 148.75 13.4 148.75 11.7 147.45 10.55
M 129.3 9.7
L 125.15 9.7 123.35 18 123.3 18 119.75 9.7 115.65 9.7 112.55 24 116.7 24 118.5 15.7 118.55 15.7 122.05 24 126.2 24 129.3 9.7
M 112.5 9.7
L 108.05 9.7 104.95 24 109.45 24 112.5 9.7 Z"/>
</g>
</defs>

<g transform="matrix( 1, 0, 0, 1, 0,0) ">
<use xlink:href="#Layer1_0_FILL"/>
</g>

<g transform="matrix( 10.800430297851562, 0, 0, 10.800430297851562, 5.5,4.55) ">
<g transform="matrix( 1, 0, 0, 1, 0,0) ">
<use xlink:href="#pop_0_Layer5_0_FILL"/>
</g>

<g transform="matrix( 1, 0, 0, 1, 0,0) ">
<use xlink:href="#pop_0_Layer4_0_FILL"/>
</g>

<g transform="matrix( 1, 0, 0, 1, 0,0) ">
<use xlink:href="#pop_0_Layer3_0_FILL"/>
</g>

<g transform="matrix( 1, 0, 0, 1, 0,0) ">
<use xlink:href="#pop_0_Layer2_0_FILL"/>
</g>

<g transform="matrix( 1, 0, 0, 1, 0,0) ">
<use xlink:href="#pop_0_Layer1_0_FILL"/>
</g>

<g transform="matrix( 1, 0, 0, 1, 0,0) ">
<use xlink:href="#pop_0_Layer0_0_FILL"/>
</g>
</g>

<g transform="matrix( 1, 0, 0, 1, 0,0) ">
<use xlink:href="#Layer1_1_MEMBER_1_FILL"/>
</g>

<g transform="matrix( 1, 0, 0, 1, 0,0) ">
<use xlink:href="#Layer1_1_MEMBER_1_MEMBER_0_FILL"/>
</g>

<g transform="matrix( 1, 0, 0, 1, 0,0) ">
<use xlink:href="#Layer1_1_MEMBER_1_MEMBER_1_FILL"/>
</g>

<g transform="matrix( 1, 0, 0, 1, 0,0) ">
<use xlink:href="#Layer0_0_FILL"/>
</g>
</svg>
