
<svg xmlns="http://www.w3.org/2000/svg" version="1.1" xmlns:xlink="http://www.w3.org/1999/xlink" preserveAspectRatio="none" x="0px" y="0px" width="550px" height="100px" viewBox="0 0 550 100">
<defs>
<g id="Layer2_0_FILL">
<path fill="#000000" fill-opacity="0.5019607843137255" stroke="none" d="
M 545.45 49.2
Q 545.45 28.8 531 14.4 516.65 0 496.25 0
L 49.2 0
Q 28.8 0 14.35 14.4 0 28.8 0 49.2 0 69.6 14.35 84 28.8 98.4 49.2 98.4
L 496.25 98.4
Q 516.65 98.4 531 84 545.45 69.6 545.45 49.2 Z"/>
</g>

<g id="pop_0_Layer5_0_FILL">
<path fill="#0C0A80" fill-opacity="0.2" stroke="none" d="
M 7.25 6.1
Q 7.75 5.2 7.85 4.45 7.85 4.3 7.85 4 7.7 2.15 6.05 1.6 4.15 1.1 3 2.6 1.9 4.15 3.45 5.9 4.7 7.3 2.95 7.8 3.1 7.95 3.7 7.95 3.75 7.95 3.85 7.95 4.5 8 5.5 7.6 6.7 7 7.25 6.1 Z"/>
</g>

<g id="pop_0_Layer4_0_FILL">
<path fill="#0C0A80" fill-opacity="0.2" stroke="none" d="
M 4.85 5.25
Q 4.85 4.4 4.25 3.75 3.65 3.15 2.8 3.15 1.95 3.15 1.35 3.75 0.7 4.4 0.7 5.25 0.7 6.1 1.35 6.7 1.95 7.3 2.8 7.3 3.65 7.3 4.25 6.7 4.85 6.1 4.85 5.25 Z"/>
</g>

<g id="pop_0_Layer3_0_FILL">
<path fill="#0C0A80" fill-opacity="0.2" stroke="none" d="
M 7.05 2.25
Q 7.05 1.6 6.6 1.15 6.15 0.7 5.5 0.7 4.85 0.7 4.4 1.15 3.95 1.6 3.95 2.25 3.95 2.9 4.4 3.35 4.85 3.8 5.5 3.8 6.15 3.8 6.6 3.35 7.05 2.9 7.05 2.25 Z"/>
</g>

<g id="pop_0_Layer2_0_FILL">
<path fill="#FFFFFF" fill-opacity="0.30196078431372547" stroke="none" d="
M 8.2 4.1
Q 8.2 2.4 7 1.2 5.8 0 4.1 0 2.4 0 1.2 1.2 0 2.4 0 4.1 0 5.8 1.2 7 2.4 8.2 4.1 8.2 5.8 8.2 7 7 8.2 5.8 8.2 4.1 Z"/>
</g>

<g id="pop_0_Layer1_0_FILL">
<path fill="#FFFFFF" fill-opacity="0.5019607843137255" stroke="none" d="
M 2.1 6.2
Q 3.7 5.95 2.65 3.7 1.9 1.2 4.2 0.3 3.65 0.35 3 0.55 1.7 1.1 1.1 1.9 0.5 2.75 0.4 3.5 0.35 3.65 0.35 3.95 0.4 6.2 2.1 6.2 Z"/>
</g>

<g id="pop_0_Layer0_0_FILL">
<path fill="#FFFFFF" fill-opacity="0.5019607843137255" stroke="none" d="
M 6.9 1.85
Q 6.9 1.45 6.65 1.2 6.35 0.9 6 0.9 5.6 0.9 5.35 1.2 5.05 1.45 5.05 1.85 5.05 2.2 5.35 2.5 5.6 2.75 6 2.75 6.35 2.75 6.65 2.5 6.9 2.2 6.9 1.85 Z"/>
</g>

<g id="Layer2_1_MEMBER_1_FILL">
<path fill="#FFFFFF" stroke="none" d="
M 61.1 24.65
Q 61.1 24.2 61.1 23.75 61.1 23.7 61.1 23.6 61.1 22.7 60.4 22 59.7 21.3 58.8 21.3
L 24.4 21.3
Q 23.4 21.3 22.75 22 22.7 22 22.7 22.05 22.05 22.75 22.05 23.6 22.05 23.7 22.05 23.75 22.05 24.25 22.1 24.85 22.1 25 22.1 25.15 20.45 25.9 19.05 27.3 15.9 30.45 15.9 34.85 15.9 39.2 19.05 42.35
L 19.05 42.4
Q 22.2 45.5 26.6 45.5 27.7 45.5 28.8 45.3
L 28.85 45.3
Q 32 49.3 35.85 50.95 36.7 53.7 36.95 56.8 35.4 59.5 33.25 61.8 32.35 62.8 31.25 63.75
L 31.25 63.8
Q 31.2 63.8 31.2 63.85 30.45 64.3 30.3 65.15 29.7 67.65 29.05 70.1 29.05 70.2 29.05 70.3 28.95 70.8 29.1 71.4 29.15 71.5 29.2 71.55 29.4 72.15 30.05 72.6 30.6 73 31.3 73
L 51.85 73
Q 52.5 73 53.05 72.65 53.1 72.6 53.2 72.6 53.8 72.15 54 71.55 54 71.5 54.05 71.4 54.25 70.75 54.05 70.1 53.5 67.75 52.9 65.3 52.8 64.35 52.05 63.85 51.95 63.75 51.8 63.7 50.75 62.75 49.85 61.8 47.75 59.5 46.3 56.8 46.45 53.75 47.35 50.95 51.1 49.35 54.35 45.4 54.35 45.35 54.4 45.3 55.4 45.5 56.45 45.5 60.8 45.5 63.95 42.35 67.05 39.2 67.05 34.85 67.05 30.45 64 27.3 62.65 25.95 61.1 25.25 61.1 25 61.1 24.75 61.1 24.7 61.1 24.65 Z"/>
</g>

<g id="Layer2_1_MEMBER_1_MEMBER_0_FILL">
<path fill="#957800" stroke="none" d="
M 50.65 65.55
L 50.6 65.55 41.5 65.55 41.5 70.55 51.85 70.55
Q 51.25 68.1 50.65 65.55 Z"/>

<path fill="#C59E00" stroke="none" d="
M 32.5 65.55
Q 31.95 68.1 31.3 70.55
L 41.5 70.55 41.5 65.55 32.55 65.55 32.5 65.55
M 58.8 23.5
L 41.5 23.5 41.5 65.55 50.6 65.55
Q 49.3 64.45 48.2 63.25 45.65 60.5 43.9 57.2 44.05 52.9 45.45 49.15
L 45.4 49.15
Q 49.3 47.85 52.55 43.8 53 43.25 53.45 42.55 54.8 43.05 56.45 43.05 59.9 43.05 62.35 40.6 64.8 38.2 64.8 34.75 64.8 31.25 62.35 28.8 60.7 27.25 58.7 26.7 58.75 25.65 58.8 24.55 58.8 24.1 58.8 23.65 58.8 23.6 58.8 23.5
M 58.45 29.2
Q 59.65 29.65 60.6 30.55 62.35 32.3 62.35 34.75 62.35 37.2 60.6 38.9 58.9 40.6 56.45 40.6 55.55 40.6 54.75 40.4 57.6 35.4 58.45 29.2 Z"/>

<path fill="#FFCC00" stroke="none" d="
M 24.4 23.5
Q 24.4 23.6 24.4 23.65 24.4 24.1 24.4 24.55 24.4 25.6 24.45 26.65 22.35 27.15 20.7 28.8 18.25 31.25 18.25 34.75 18.25 38.2 20.7 40.6 23.15 43.05 26.6 43.05 28.25 43.05 29.75 42.5 30.15 43.15 30.65 43.75 33.85 47.85 37.8 49.15
L 37.7 49.15
Q 39.1 52.9 39.25 57.2 37.55 60.5 34.95 63.25 33.9 64.45 32.55 65.55
L 41.5 65.55 41.5 23.5 24.4 23.5
M 20.7 34.75
Q 20.7 32.3 22.4 30.55 23.4 29.55 24.7 29.15 25.6 35.4 28.4 40.35 27.55 40.6 26.6 40.6 24.15 40.6 22.4 38.9 20.7 37.2 20.7 34.75 Z"/>
</g>

<g id="Layer2_1_MEMBER_2_FILL">
<path fill="#FFFFFF" stroke="none" d="
M 78.95 35.3
Q 77.6 33.9 76.05 33.2 76.05 32.95 76.05 32.7
L 76.05 32.65
Q 76.05 32.15 76.05 31.7
L 76.05 31.6
Q 76.05 30.7 75.35 29.95 74.65 29.25 73.75 29.25
L 39.35 29.25
Q 38.35 29.25 37.7 29.95 37.65 29.95 37.65 30 37 30.7 37 31.6
L 37 31.7
Q 37 32.25 37.05 32.85 37.05 32.95 37.05 33.15 35.4 33.9 34 35.3 30.85 38.45 30.85 42.85 30.85 47.2 34 50.3
L 34 50.35
Q 37.15 53.45 41.55 53.45 42.65 53.45 43.75 53.25
L 43.8 53.3
Q 46.95 57.3 50.8 58.95 51.65 61.7 51.9 64.8 50.35 67.45 48.2 69.8 47.3 70.8 46.2 71.75
L 46.2 71.8
Q 46.15 71.8 46.15 71.85 45.4 72.3 45.25 73.15 44.65 75.65 44 78.1 44 78.2 44 78.25 43.9 78.8 44.05 79.4 44.1 79.45 44.15 79.55 44.35 80.15 45 80.6 45.55 80.95 46.25 80.95
L 66.8 80.95
Q 67.45 80.95 68 80.65 68.05 80.6 68.15 80.6 68.75 80.15 68.95 79.55 68.95 79.45 69 79.4 69.2 78.7 69 78.1 68.45 75.75 67.85 73.3 67.75 72.3 67 71.85 66.9 71.75 66.75 71.7 65.7 70.75 64.8 69.8 62.7 67.45 61.25 64.75 61.4 61.75 62.3 58.95 66.05 57.35 69.3 53.4 69.3 53.35 69.35 53.3 70.35 53.45 71.4 53.45 75.75 53.45 78.9 50.3 82 47.2 82 42.85 82 38.45 78.95 35.3 Z"/>
</g>

<g id="Layer2_1_MEMBER_2_MEMBER_0_FILL">
<path fill="#C59E00" stroke="none" d="
M 47.2 73.6
L 47.15 73.6
Q 46.6 76.15 45.95 78.6
L 56.15 78.6 56.15 73.6 47.2 73.6
M 73.45 31.65
L 73.45 31.55 56.15 31.55 56.15 73.6 65.25 73.6
Q 63.95 72.5 62.85 71.3 60.3 68.55 58.55 65.25 58.7 60.95 60.1 57.15
L 60.05 57.15
Q 63.95 55.85 67.2 51.85 67.65 51.25 68.1 50.6 69.45 51.1 71.1 51.1 74.55 51.1 77 48.65 79.45 46.25 79.45 42.8 79.45 39.3 77 36.85 75.35 35.3 73.35 34.75 73.4 33.65 73.45 32.6 73.45 32.1 73.45 31.65
M 77 42.8
Q 77 45.25 75.25 46.95 73.55 48.65 71.1 48.65 70.2 48.65 69.4 48.45 72.25 43.45 73.1 37.25 74.3 37.7 75.25 38.6 77 40.35 77 42.8 Z"/>

<path fill="#957800" stroke="none" d="
M 65.3 73.6
L 65.25 73.6 56.15 73.6 56.15 78.6 66.5 78.6
Q 65.9 76.15 65.3 73.6 Z"/>

<path fill="#FFCC00" stroke="none" d="
M 39.1 34.7
Q 37 35.2 35.35 36.85 32.9 39.3 32.9 42.8 32.9 46.25 35.35 48.65 37.8 51.1 41.25 51.1 42.9 51.1 44.4 50.55 44.8 51.2 45.3 51.8 48.5 55.85 52.45 57.15
L 52.35 57.15
Q 53.75 60.95 53.9 65.25 52.2 68.55 49.6 71.3 48.55 72.5 47.2 73.6
L 56.15 73.6 56.15 31.55 39.05 31.55 39.05 31.65
Q 39.05 32.1 39.05 32.6 39.05 33.6 39.1 34.7
M 43.05 48.4
Q 42.2 48.65 41.25 48.65 38.8 48.65 37.05 46.95 35.35 45.25 35.35 42.8 35.35 40.35 37.05 38.6 38.05 37.55 39.35 37.2 40.25 43.4 43.05 48.4 Z"/>
</g>

<g id="Layer1_0_FILL">
<path fill="#FFFFFF" stroke="none" d="
M 429.8 66.8
L 429.8 68.65
Q 431.1 68.85 432.45 69.6
L 432.45 67.3
Q 431.3 66.85 429.8 66.8
M 435.3 73.75
L 435.3 74.1
Q 435.3 74.35 435.3 74.6
L 429.8 74.6 429.8 76.35 434.85 76.35
Q 433.8 78.6 429.6 79.1
L 429.6 80.6
Q 434.8 80.25 436.8 78 439.2 80.1 444 80.6
L 444 79.1
Q 439.7 78.5 438.75 76.35
L 443.95 76.35 443.95 74.6 438.3 74.6
Q 438.3 74.35 438.3 74.1
L 438.3 73.75 436.75 73.75
Q 441.95 73 443.85 68.75
L 443.85 67 439.75 67
Q 439.8 66.85 439.95 66.6 440 66.4 440.05 66.3
L 437.55 66.3
Q 436.95 68.1 435.35 68.75
L 435.35 70
Q 436.05 69.9 436.6 69.75
L 436.6 70.85
Q 437.55 71.05 438.55 71.4 437.8 71.9 436 72.35
L 436 73.75 435.3 73.75
M 439.45 70.85
L 439.45 69.75
Q 438.6 69.4 437.6 69.35 438.2 69.1 438.6 68.75
L 441.1 68.75
Q 440.2 70.15 439.45 70.85
M 435.2 66.25
L 432.85 66.25 432.85 69.9
Q 431.6 70.6 429.6 71.05
L 429.6 73.3
Q 431.5 72.65 432.85 72
L 432.85 74 435.2 74 435.2 66.25
M 423.7 75.75
Q 423.6 77 423.2 78.05
L 425.5 78.05
Q 426 77.1 426.1 75.75
L 423.7 75.75
M 416.1 78.05
L 418.45 78.05
Q 418 77 417.95 75.75
L 415.5 75.75
Q 415.6 77.1 416.1 78.05
M 428.05 72.35
L 428.05 70.65
Q 424.05 69.1 422.35 66.1
L 419.25 66.1
Q 417.55 69.1 413.55 70.65
L 413.55 72.35
Q 415.25 72 416.5 71.4
L 416.5 72.35 419.35 72.35 419.35 73.5 414.75 73.5 414.75 75.3 419.35 75.3 419.35 78.5 413.85 78.5 413.85 80.15 427.8 80.15 427.8 78.5 422.25 78.5 422.25 75.3 426.95 75.3 426.95 73.5 422.25 73.5 422.25 72.35 425.2 72.35 425.2 71.5
Q 426.35 72 428.05 72.35
M 420.8 68.6
Q 422.05 69.85 423.25 70.55
L 418.35 70.55
Q 419.55 69.85 420.8 68.6
M 397.45 80
L 399.7 80
Q 400.45 78.85 400.6 76.85
L 398.55 76.85
Q 398.3 78.55 397.45 80
M 408.7 76.5
Q 410.85 76.55 410.8 74.25
L 410.8 71.5 398.85 71.5 398.85 76.5 408.7 76.5
M 408.2 72.85
L 408.2 73.5 401.5 73.5 401.5 72.85 408.2 72.85
M 408.2 74.5
Q 408.1 75.1 407.45 75.1
L 401.5 75.1 401.5 74.5 408.2 74.5
M 409.25 78.9
L 409.25 78.35 407.3 78.35 407.3 78.55
Q 407.35 79.05 406.8 79.05
L 404.35 79.05
Q 403.35 79.1 403.45 78.1
L 403.45 76.85 401 76.85 401 78.65
Q 400.95 80.55 403 80.5
L 407.5 80.5
Q 409.3 80.55 409.25 78.9
M 405.25 78.25
L 408 78.25
Q 407.75 77.4 407.25 76.85
L 404.7 76.85
Q 405.05 77.4 405.25 78.25
M 412.2 80
Q 411.7 78.15 411 76.85
L 408.95 76.85
Q 409.6 78.3 409.85 80
L 412.2 80
M 409.05 68.75
L 406.35 68.75
Q 406.3 69.1 406.1 69.4
L 403.55 69.4
Q 403.35 69.1 403.3 68.75
L 400.6 68.75
Q 400.7 68.9 400.8 69.15 400.85 69.35 400.85 69.4
L 397.6 69.4 397.6 71.05 412.05 71.05 412.05 69.4 408.75 69.4
Q 408.95 69.1 409.05 68.75
M 406.45 66.85
L 406.45 66.25 403.25 66.25 403.25 66.85 398.45 66.85 398.45 68.5 411.25 68.5 411.25 66.85 406.45 66.85
M 392.45 67.35
L 390.3 67.35 390.3 77.55 392.45 77.55 392.45 67.35
M 395.6 66.3
L 393.25 66.3 393.25 78.3
Q 393.25 78.85 392.7 78.85
L 391.55 78.85 391.55 80.5 393.6 80.5
Q 395.7 80.55 395.6 78.55
L 395.6 66.3
M 389.05 71.65
Q 389.55 71.9 390 72.1
L 390 70.4
Q 388.05 68.85 387.1 66.25
L 384.5 66.25
Q 383.6 68.9 381.75 70.5
L 381.75 72.15
Q 381.85 72.1 382.05 72.05 382.3 71.9 382.45 71.85
L 382.45 78.05
Q 382.35 80.35 384.5 80.25
L 387.8 80.25
Q 389.85 80.3 389.8 78.25
L 389.8 77.35 387.75 77.35 387.75 77.85
Q 387.8 78.65 387.05 78.6
L 385.7 78.6
Q 384.85 78.65 384.95 77.75
L 384.95 72.9 386.75 72.9 386.75 74.4
Q 386.8 75.1 386.05 75.1
L 385.55 75.1 385.55 76.85 386.75 76.85
Q 389.25 77 389.05 74.55
L 389.05 71.65
M 385.8 69
Q 386.85 70.5 388.05 71.15
L 383.7 71.15
Q 384.95 70.35 385.8 69
M 365.5 70.8
L 365.5 72.55 367.25 72.55
Q 366.85 74.75 365.6 77
L 365.6 78.9
Q 368.55 78.9 370.55 78.6 370.55 78.9 370.6 79.1
L 372.25 79.1 372.25 80.75
Q 374.55 78.75 375.25 76.6 376.05 74.5 376.1 69.85
L 377.3 69.85 377.3 78.05
Q 377.3 78.75 376.7 78.75
L 375.75 78.75 375.75 80.35 377.55 80.35
Q 379.85 80.4 379.8 78.05
L 379.8 68.1 376.2 68.1 376.2 66.15 373.7 66.15 373.7 68.1 372.7 68.1 372.7 69.85 373.7 69.85
Q 373.7 75.75 372.55 77.85 372.1 75.8 371.5 74.05
L 369.55 74.05
Q 369.6 74.3 369.75 74.8 370.1 76.25 370.25 76.85 369.2 77 367.85 77 369.25 75.25 369.85 72.55
L 372.55 72.55 372.55 70.8 365.5 70.8
M 372.1 68.8
L 372.1 67.05 366.25 67.05 366.25 68.8 372.1 68.8
M 334.35 78
Q 337.3 79.3 339.25 81.05
L 339.25 78.1
Q 337.35 76.65 334.35 75.8
L 334.35 78
M 363.7 68.6
L 363.7 66.75 349.95 66.75 349.95 68.6 351.95 68.6 351.05 76.8 359.3 76.8 359.25 78.35 349.55 78.35 349.55 80.1 364.1 80.1 364.1 78.35 361.95 78.35 362.45 70 354.5 70 354.7 68.6 363.7 68.6
M 354.3 71.8
L 359.6 71.8 359.45 75 353.95 75 354.3 71.8
M 317.8 66.8
L 317.8 68.65
Q 319.1 68.85 320.45 69.6
L 320.45 67.3
Q 319.3 66.85 317.8 66.8
M 323.2 66.25
L 320.85 66.25 320.85 69.9
Q 319.6 70.6 317.6 71.05
L 317.6 73.3
Q 319.5 72.65 320.85 72
L 320.85 74 323.2 74 323.2 66.25
M 327.75 67
Q 327.8 66.85 327.95 66.6 328 66.4 328.05 66.3
L 325.55 66.3
Q 324.95 68.1 323.35 68.75
L 323.35 70
Q 324.05 69.9 324.6 69.75
L 324.6 70.85
Q 325.55 71.05 326.55 71.4 325.8 71.9 324 72.35
L 324 73.75 323.3 73.75 323.3 74.1
Q 323.3 74.35 323.3 74.6
L 317.8 74.6 317.8 76.35 322.85 76.35
Q 321.8 78.6 317.6 79.1
L 317.6 80.6
Q 322.8 80.25 324.8 78 327.2 80.1 332 80.6
L 332 79.1
Q 327.7 78.5 326.75 76.35
L 331.95 76.35 331.95 74.6 326.3 74.6
Q 326.3 74.35 326.3 74.1
L 326.3 73.75 324.75 73.75
Q 329.95 73 331.85 68.75
L 331.85 67 327.75 67
M 327.45 70.85
L 327.45 69.75
Q 326.6 69.4 325.6 69.35 326.2 69.1 326.6 68.75
L 329.1 68.75
Q 328.2 70.15 327.45 70.85
M 311.2 78.05
L 313.5 78.05
Q 314 77.1 314.1 75.75
L 311.7 75.75
Q 311.6 77 311.2 78.05
M 304.1 78.05
L 306.45 78.05
Q 306 77 305.95 75.75
L 303.5 75.75
Q 303.6 77.1 304.1 78.05
M 304.5 72.35
L 307.35 72.35 307.35 73.5 302.75 73.5 302.75 75.3 307.35 75.3 307.35 78.5 301.85 78.5 301.85 80.15 315.8 80.15 315.8 78.5 310.25 78.5 310.25 75.3 314.95 75.3 314.95 73.5 310.25 73.5 310.25 72.35 313.2 72.35 313.2 71.5
Q 314.35 72 316.05 72.35
L 316.05 70.65
Q 312.05 69.1 310.35 66.1
L 307.25 66.1
Q 305.55 69.1 301.55 70.65
L 301.55 72.35
Q 303.25 72 304.5 71.4
L 304.5 72.35
M 306.35 70.55
Q 307.55 69.85 308.8 68.6 310.05 69.85 311.25 70.55
L 306.35 70.55
M 298.95 69.55
Q 299.5 68.5 299.75 66.55
L 297.6 66.55
Q 297.5 68.25 296.85 69.55
L 298.95 69.55
M 296.5 66.25
L 294 66.25 294 70 291 70 291 80.6 293.35 80.6 293.35 77.55 297.2 77.55 297.2 78.15
Q 297.2 78.8 296.55 78.8
L 295.85 78.8 295.85 80.4 297.45 80.4
Q 299.7 80.5 299.6 78.3
L 299.6 70 296.5 70 296.5 66.25
M 293.35 72.9
L 293.35 71.75 297.2 71.75 297.2 72.9 293.35 72.9
M 297.2 74.65
L 297.2 75.8 293.35 75.8 293.35 74.65 297.2 74.65
M 286 72.15
L 286.85 72.15 286.85 73.85 285.7 73.85 285.7 75.55 286.85 75.55 286.85 80.65
Q 289.05 80.05 290.55 79.05
L 290.55 77.25 290.35 77.35
Q 289.6 77.75 289.3 77.85
L 289.3 75.55 290.55 75.55 290.55 73.85 289.3 73.85 289.3 72.15 290.45 72.15 290.45 70.5 286 70.5 286 72.15
M 292.95 66.55
L 290.8 66.55
Q 290.95 68.15 291.6 69.55
L 293.6 69.55
Q 293.1 68.25 292.95 66.55
M 288.95 67.55
Q 289.1 67 289.2 66.3
L 286.85 66.3
Q 286.75 68.05 285.55 69
L 285.55 70.3
Q 287.05 70.05 287.95 69.25
L 290.75 69.25 290.75 67.55 288.95 67.55
M 281 80.35
Q 283.05 80.4 283 78.4
L 283 76 270.7 76 270.7 80.35 281 80.35
M 280.25 77.5
L 280.25 78.3
Q 280.3 78.9 279.55 78.9
L 273.35 78.9 273.35 77.5 280.25 77.5
M 269.85 69.55
L 269.85 72.3 271.8 72.3 271.8 75.55 280 75.55
Q 281.85 75.6 281.8 73.65
L 281.8 72.3 283.8 72.3 283.8 69.55 269.85 69.55
M 272.35 71.65
L 272.35 71.1 281.3 71.1 281.3 71.65 272.35 71.65
M 274.5 74.1
L 274.5 73.1 279.1 73.1 279.1 73.6
Q 279.1 74.1 278.6 74.1
L 274.5 74.1
M 273.05 66.8
L 269.7 66.8 269.7 68.5 273.05 68.5 273.05 69.15 275.6 69.15 275.6 68.5 278.05 68.5 278.05 69.15 280.6 69.15 280.6 68.5 284 68.5 284 66.8 280.6 66.8 280.6 66.15 278.05 66.15 278.05 66.8 275.6 66.8 275.6 66.15 273.05 66.15 273.05 66.8
M 262.3 80.5
L 265.05 80.5 265.05 71.6 262.3 71.6 262.3 80.5
M 259.35 71.6
L 256.55 71.6 256.55 75.3
Q 256.7 77.9 254.55 79.1
L 254.55 80.8
Q 259.7 79.25 259.35 74.75
L 259.35 71.6
M 268 72.4
L 268 70.65
Q 264.1 69.1 262.5 66.15
L 259.1 66.15
Q 257.5 69.1 253.6 70.65
L 253.6 72.4
Q 258.5 71.15 260.8 68.65 263.1 71.15 268 72.4
M 242.5 66.3
L 240.55 66.3 240.55 68.1 239.8 68.1 239.8 66.3 237.85 66.3 237.85 68.1 237.45 68.1 237.45 69.8 237.85 69.8 237.85 72.75
Q 237.85 76.05 238.95 77.8 238.85 77.85 238.7 78.05 238.05 78.65 237.6 79
L 237.6 80.6
Q 239.1 79.75 240.05 79.05 241.05 79.75 242.55 80.6
L 242.55 79
Q 242.05 78.65 241.5 78.05 241.3 77.85 241.25 77.8 242.5 76.05 242.5 72.75
L 242.5 69.8 242.8 69.8 242.8 68.1 242.5 68.1 242.5 66.3
M 240.55 69.8
L 240.55 72.8
Q 240.55 74.75 240.1 75.9 239.8 74.85 239.8 72.8
L 239.8 69.8 240.55 69.8
M 248.7 66.15
L 248.7 67.15 246.05 67.15 246.05 66.15 243.7 66.15 243.7 67.15 242.95 67.15 242.95 68.9 243.7 68.9 243.7 73.6 246.2 73.6 246.2 74.4 242.8 74.4 242.8 76.15 244 76.15
Q 243.8 78 242.8 78.85
L 242.8 80.4
Q 245.7 79.25 246.05 76.15
L 246.2 76.15 246.2 80.6 248.55 80.6 248.55 76.15 248.6 76.15
Q 248.95 79.25 251.95 80.4
L 251.95 78.9
Q 250.7 77.85 250.6 76.15
L 252 76.15 252 74.4 248.55 74.4 248.55 73.6 248.75 73.6
Q 251.2 73.75 251.05 71.4
L 251.05 68.9 251.95 68.9 251.95 67.15 251.05 67.15 251.05 66.15 248.7 66.15
M 246.05 72
L 246.05 71.15 248.7 71.15 248.7 71.3
Q 248.75 72.05 248 72
L 246.05 72
M 246.05 69.65
L 246.05 68.9 248.7 68.9 248.7 69.65 246.05 69.65
M 231.8 72.6
L 223.3 72.6 223.3 74.55 231.8 74.55 231.8 72.6
M 208.7 70
Q 209.4 69.9 209.95 69.75
L 209.95 70.85
Q 210.9 71.05 211.9 71.4 211.15 71.9 209.35 72.35
L 209.35 73.75 208.65 73.75 208.65 74.1
Q 208.65 74.35 208.65 74.6
L 203.15 74.6 203.15 76.35 208.2 76.35
Q 207.15 78.6 202.95 79.1
L 202.95 80.6
Q 208.15 80.25 210.15 78 212.55 80.1 217.35 80.6
L 217.35 79.1
Q 213.05 78.5 212.1 76.35
L 217.3 76.35 217.3 74.6 211.65 74.6
Q 211.65 74.35 211.65 74.1
L 211.65 73.75 210.1 73.75
Q 215.3 73 217.2 68.75
L 217.2 67 213.1 67
Q 213.15 66.85 213.3 66.6 213.35 66.4 213.4 66.3
L 210.9 66.3
Q 210.3 68.1 208.7 68.75
L 208.7 70
M 210.95 69.35
Q 211.55 69.1 211.95 68.75
L 214.45 68.75
Q 213.55 70.15 212.8 70.85
L 212.8 69.75
Q 211.95 69.4 210.95 69.35
M 206.2 69.9
Q 204.95 70.6 202.95 71.05
L 202.95 73.3
Q 204.85 72.65 206.2 72
L 206.2 74 208.55 74 208.55 66.25 206.2 66.25 206.2 69.9
M 205.8 67.3
Q 204.65 66.85 203.15 66.8
L 203.15 68.65
Q 204.45 68.85 205.8 69.6
L 205.8 67.3
M 200.85 66.55
L 198.95 66.55 198.95 68.3 198.35 68.3 198.35 66.25 196.05 66.25 196.05 68.3 191.15 68.3 191.15 76
Q 191.2 78.1 190.55 79.1
L 190.55 80.75
Q 193.45 79.25 193.4 75.5
L 193.4 73.35 194.05 73.35 194.05 76.85
Q 194.1 77.5 193.55 77.4
L 193.3 77.4 193.3 79.1 194.35 79.1
Q 196.05 79.1 195.95 77.15
L 195.95 71.65 193.4 71.65 193.4 70.05 196.1 70.05
Q 196.15 73.25 196.65 76.5 196.65 76.6 196.7 76.8 196.8 77.25 196.85 77.4 196.3 78.1 195.55 78.85
L 195.55 80.65
Q 196.65 79.85 197.45 79.1 198.35 80.6 199.95 80.6 201.9 80.65 201.85 78.05
L 200.35 78.05
Q 200.35 78.9 199.95 78.9 199.35 79 198.95 77.55 200.65 75.35 201.45 71
L 199.3 71
Q 199.1 72.9 198.55 74.4 198.35 72.55 198.35 70.05
L 201.45 70.05 201.45 68.3 200.85 68.3 200.85 66.55
M 190.15 66.25
L 187.85 66.25 187.85 68.9 187.05 68.9 187.05 70.65 187.85 70.65 187.85 77.25
Q 187.35 77.35 186.9 77.35
L 186.9 79.4
Q 189.35 79.05 190.85 78.25
L 190.85 76.4
Q 190.55 76.6 190.15 76.65
L 190.15 70.65 190.8 70.65 190.8 68.9 190.15 68.9 190.15 66.25
M 148.7 67.55
L 148.7 66.15 145.55 66.15 145.55 67.55 140.1 67.55 140.1 76.1
Q 140.15 78.25 138.95 79.05
L 138.95 80.75
Q 143.35 79.3 143.1 75.3
L 143.1 69.5 153.4 69.5 153.4 67.55 148.7 67.55
M 168.1 77.9
L 168.1 74.3 156.45 74.3 156.45 80.3 165.8 80.3
Q 168.1 80.35 168.1 77.9
M 165.35 76.15
L 165.35 77.8
Q 165.4 78.65 164.6 78.6
L 159.2 78.6 159.2 76.15 165.35 76.15
M 176.15 69.8
L 176.15 71.35
Q 182.15 71.05 184.6 67
L 181.35 67
Q 179.8 69.35 176.15 69.8
M 163.95 67.5
L 163.95 66.15 161.15 66.15 161.15 67.5 159.3 67.5
Q 159.4 67 159.45 66.55
L 156.95 66.55
Q 156.8 68.4 155.6 69.6
L 155.6 71.15
Q 157.6 70.55 158.45 69.3
L 161.15 69.3 161.15 71.55 154.9 71.55 154.9 73.35 169.4 73.35 169.4 71.55 163.95 71.55 163.95 69.3 168.55 69.3 168.55 67.5 163.95 67.5
M 185.2 73.65
L 185.2 71.85 175.6 71.85 175.6 66.35 172.8 66.35 172.8 71.85 171.1 71.85 171.1 73.65 172.8 73.65 172.8 80.65
Q 175.95 79.8 178.3 78.6
L 178.3 76.55
Q 178.15 76.6 177.85 76.75 176.3 77.3 175.6 77.5
L 175.6 73.65 176.9 73.65
Q 178.95 78.8 185.15 79.9
L 185.15 78.4
Q 181.2 77.15 179.85 73.65
L 185.2 73.65
M 137.1 66.55
L 123.3 66.55 123.3 80.35 134.65 80.35
Q 137.15 80.4 137.1 77.9
L 137.1 66.55
M 125.95 68.3
L 134.4 68.3 134.4 77.75
Q 134.4 78.75 133.4 78.75
L 125.95 78.75 125.95 68.3
M 132.05 76
L 133.9 76
Q 133.7 75.05 133.3 74.25
L 131.55 74.25
Q 131.9 75.15 132.05 76
M 126.7 72.3
L 126.7 74 128.7 74 128.7 76.25 126.35 76.25 126.35 77.9 133.95 77.9 133.95 76.25 131.35 76.25 131.35 74 133.6 74 133.6 72.3 131.35 72.3 131.35 70.85 133.85 70.85 133.85 69.25 126.45 69.25 126.45 70.85 128.7 70.85 128.7 72.3 126.7 72.3
M 120.8 73.85
L 120.8 68.5 115.6 68.5 115.6 66.15 112.7 66.15 112.7 68.5 107.55 68.5 107.55 76.8 112.7 76.8 112.7 80.75 115.6 80.75 115.6 76.8 118.2 76.8
Q 120.9 77 120.8 73.85
M 115.6 70.3
L 118.15 70.3 118.15 73.9
Q 118.2 75 117.3 75
L 115.6 75 115.6 70.3
M 110.15 70.3
L 112.7 70.3 112.7 75 110.15 75 110.15 70.3
M 240.7 48.2
L 238.05 48.2 238.05 58.9 240.7 58.9 240.7 48.2
M 240.5 44.85
L 238.1 44.85
Q 238.55 46.1 238.75 47.65
L 241.35 47.65
Q 241.2 46.35 240.5 44.85
M 245.85 56.6
Q 248.25 56.7 248.1 54.4
L 248.1 47.9 241.55 47.9 241.55 56.6 245.85 56.6
M 245.8 49.6
L 245.8 51.35 243.85 51.35 243.85 49.6 245.8 49.6
M 245 54.9
L 243.85 54.9 243.85 52.95 245.8 52.95 245.8 54.1
Q 245.8 54.9 245 54.9
M 247.45 57.15
L 247.45 58.8 249.2 58.8
Q 251.8 58.9 251.7 56.45
L 251.7 45.05 242.05 45.05 242.05 46.85 249.05 46.85 249.05 56.4
Q 249.1 57.2 248.3 57.15
L 247.45 57.15
M 226.35 45.3
L 221.95 45.3 221.95 58.05 224.35 58.05
Q 226.5 58.15 226.35 55.9
L 226.35 45.3
M 223.95 48.95
L 223.95 46.95 224.6 46.95 224.6 48.95 223.95 48.95
M 223.95 50.55
L 224.6 50.55 224.6 52.6 223.95 52.6 223.95 50.55
M 223.95 54.2
L 224.6 54.2 224.6 55.95
Q 224.6 56.45 224.2 56.45
L 223.95 56.45 223.95 54.2
M 235.8 46.95
L 233.55 46.95
Q 233.25 48.05 232.95 48.45
L 226.7 48.45 226.7 50.95 227.55 50.95
Q 227.35 52.7 226.5 53.9
L 226.5 55.45
Q 226.95 55.15 227.3 54.9
L 227.3 55.6
Q 227.85 55.7 228.3 55.9 227.7 56.85 226.55 57.55
L 226.55 59.15
Q 230.35 57.4 231.05 53.95
L 231.05 55.35
Q 231 56.9 232.5 56.85
L 232.95 56.85 232.95 58.9 234.8 58.9 234.8 56.85 236.1 56.85 236.1 55.2 234.8 55.2 234.8 53.15 236 53.15 236 51.55 234.8 51.55 234.8 50.95 236 50.95 236 48.45 235 48.45
Q 235.35 48.05 235.8 46.95
M 233.8 50.65
L 232.95 50.65 232.95 51.55 231.5 51.55 231.5 53.15 232.95 53.15 232.95 55.2
Q 232.5 55.15 232.55 54.65
L 232.55 53.55 231.1 53.55
Q 231.2 53.4 231.2 53.2 231.25 53.05 231.25 52.95
L 231.25 51.35 229.35 51.35
Q 229.45 51.2 229.45 51.05 229.5 50.8 229.5 50.65
L 228.85 50.65 228.85 50.1 233.8 50.1 233.8 50.65
M 229.45 52.95
Q 229.25 53.7 229.05 54.35 228.7 54.15 228.25 54.1 228.6 53.6 228.95 52.95
L 229.45 52.95
M 232.05 46.95
L 230 46.95
Q 230.3 47.4 230.55 48.3
L 232.7 48.3
Q 232.45 47.4 232.05 46.95
M 226.85 45.1
L 226.85 46.7 233 46.7
Q 234.55 46.8 235.95 46.3
L 235.95 44.6
Q 234.25 45.15 232.7 45.1
L 226.85 45.1
M 226.85 46.95
Q 227.2 47.45 227.45 48.3
L 229.6 48.3
Q 229.45 47.6 229 46.95
L 226.85 46.95
M 212.05 45.3
L 206.55 45.3 206.55 53.45
Q 206.6 55.95 205.75 57.3
L 205.75 59.05
Q 207.85 57.7 208.5 56.45
L 208.5 58.3
Q 211.2 57.45 212.6 56.35
L 212.6 54.6
Q 212.45 54.7 212.05 54.9 211.8 55.1 211.7 55.15 211.5 54.6 211.35 53.95
L 209.35 53.95
Q 209.7 55.35 210 55.9 209.8 55.95 209.45 56.1 208.85 56.3 208.55 56.35 209.1 55.05 209.1 53.1
L 209.1 51.45 212.8 51.45 212.8 52.1 209.35 52.1 209.35 53.7 212.8 53.7 212.8 56.7
Q 212.85 57.4 212.05 57.4
L 211.7 57.4 211.7 58.95 213 58.95
Q 215.25 59.05 215.2 56.7
L 215.2 56.45
Q 216.55 57.55 219.8 58.65
L 219.8 57.05
Q 218.8 56.6 218.55 56.45 218.2 56.3 218 56.2 218.45 55.6 218.7 53.9
L 216.7 53.9
Q 216.6 54.15 216.55 54.6 216.45 54.9 216.45 55.1 215.8 54.55 215.2 53.85
L 215.2 53.7 216.85 53.7
Q 219.1 53.8 219 51.55
L 219 51.45 220.1 51.45 220.1 49.85 219 49.85 219 47.65 215.2 47.65 215.2 46.95 220.05 46.95 220.05 45.3 215.25 45.3 215.25 44.55 212.05 44.55 212.05 45.3
M 209.5 47.65
L 209.5 49.3 212.8 49.3 212.8 49.85 209.1 49.85 209.1 46.95 212.8 46.95 212.8 47.65 209.5 47.65
M 215.2 49.3
L 216.75 49.3 216.75 49.85 215.2 49.85 215.2 49.3
M 216 52.1
L 215.2 52.1 215.2 51.45 216.75 51.45
Q 216.8 52.15 216 52.1
M 195.25 56.45
L 195.25 54.6
Q 192.75 55.8 190.2 56.3
L 190.2 58.55
Q 193.05 57.9 195.25 56.45
M 198.6 54.6
L 198.6 56.55
Q 200.95 57.2 203.45 58.85
L 203.45 56.45
Q 201.3 55.15 198.6 54.6
M 195.55 56.55
Q 195.6 57.4 194.8 57.35
L 194.2 57.35 194.2 58.9 195.95 58.9
Q 198.35 59.05 198.25 56.55
L 198.25 52.2 195.55 52.2 195.55 56.55
M 202.85 48.85
L 202.85 47.3 198.05 47.3
Q 198.05 47.15 198.1 46.95 198.1 46.8 198.1 46.7
L 203.35 46.7 203.35 45.1 198.2 45.1 198.2 44.45 195.3 44.45 195.3 45.1 190.25 45.1 190.25 46.7 195.25 46.7
Q 195.25 46.8 195.25 46.95 195.2 47.15 195.2 47.3
L 190.75 47.3 190.75 48.85 194.75 48.85
Q 194.75 48.9 194.6 49.1 194.55 49.35 194.5 49.45
L 189.75 49.45 189.75 51.05 193 51.05
Q 191.8 52.05 189.6 52.8
L 189.6 54.4
Q 190.1 54.2 191 53.9 191.75 53.65 192.1 53.55 192.3 54.05 192.75 54.6
L 195.05 54.6
Q 194.35 53.45 194.3 52.55 195.45 51.85 196.3 51.05
L 197.75 51.05
Q 198.6 52.05 199.55 52.65 199.35 53.6 198.75 54.6
L 201.1 54.6
Q 201.2 54.55 201.25 54.35 201.55 53.95 201.6 53.7 202.6 54.1 203.95 54.4
L 203.95 52.8
Q 201.8 52.1 200.7 51.05
L 203.95 51.05 203.95 49.45 197.45 49.45
Q 197.6 49.1 197.7 48.85
L 202.85 48.85
M 183.8 52.85
L 183.8 50.9 175.3 50.9 175.3 52.85 183.8 52.85
M 161.8 55.2
L 159.55 55.2
Q 160.1 56.65 160.3 57.6
L 162.7 57.6
Q 162.45 56.2 161.8 55.2
M 168.2 47.8
L 162.9 47.8
Q 162.95 47.65 163.05 47.4 163.1 47.2 163.1 47.1
L 169.05 47.1 169.05 45.2 163.45 45.2
Q 163.55 45.1 163.55 44.9 163.6 44.65 163.6 44.55
L 160.7 44.55
Q 160.7 44.65 160.65 44.9 160.65 45.1 160.6 45.2
L 155.3 45.2 155.3 47.1 160.3 47.1
Q 160.3 47.45 160.15 47.8
L 156.1 47.8 156.1 49.55 159.65 49.55
Q 159.6 49.7 159.55 50.05 159.4 50.2 159.4 50.35
L 155.05 50.35 155.05 52.15 158.45 52.15
Q 157.45 54.05 155.15 56.2
L 155.15 58.1
Q 157.6 56.45 159.15 54.85
L 164.8 54.85 164.8 56.55
Q 164.85 57.2 164.1 57.2
L 163.3 57.2 163.3 58.85 165.3 58.85
Q 167.4 58.85 167.4 56.8
L 167.4 54.85 169.4 54.85 169.4 53.05 167.4 53.05 167.4 52.15 169.4 52.15 169.4 50.35 162.1 50.35
Q 162.15 50.2 162.3 49.9 162.35 49.65 162.4 49.55
L 168.2 49.55 168.2 47.8
M 164.8 52.15
L 164.8 53.05 160.6 53.05 160.65 52.95
Q 161.05 52.4 161.15 52.15
L 164.8 52.15
M 144.65 44.6
L 144.65 46.2
Q 144.8 52.65 138.95 57.15
L 138.95 58.9
Q 144.6 56.2 146.15 52.4 147.8 56.2 153.35 58.9
L 153.35 57.15
Q 147.55 52.65 147.65 46.2
L 147.65 44.6 144.65 44.6
M 129.4 45.3
L 123.9 45.3 123.9 53.45
Q 123.95 55.95 123.1 57.3
L 123.1 59.05
Q 125.2 57.7 125.85 56.45
L 125.85 58.3
Q 128.55 57.45 129.95 56.35
L 129.95 54.6
Q 129.8 54.7 129.4 54.9 129.15 55.1 129.05 55.15 128.85 54.6 128.7 53.95
L 126.7 53.95
Q 127.05 55.35 127.35 55.9 127.15 55.95 126.8 56.1 126.2 56.3 125.9 56.35 126.45 55.05 126.45 53.1
L 126.45 51.45 130.15 51.45 130.15 52.1 126.7 52.1 126.7 53.7 130.15 53.7 130.15 56.7
Q 130.2 57.4 129.4 57.4
L 129.05 57.4 129.05 58.95 130.35 58.95
Q 132.6 59.05 132.55 56.7
L 132.55 56.45
Q 133.9 57.55 137.15 58.65
L 137.15 57.05
Q 136.15 56.6 135.9 56.45 135.55 56.3 135.35 56.2 135.8 55.6 136.05 53.9
L 134.05 53.9
Q 133.95 54.15 133.9 54.6 133.8 54.9 133.8 55.1 133.15 54.55 132.55 53.85
L 132.55 53.7 134.2 53.7
Q 136.45 53.8 136.35 51.55
L 136.35 51.45 137.45 51.45 137.45 49.85 136.35 49.85 136.35 47.65 132.55 47.65 132.55 46.95 137.4 46.95 137.4 45.3 132.6 45.3 132.6 44.55 129.4 44.55 129.4 45.3
M 126.85 49.3
L 130.15 49.3 130.15 49.85 126.45 49.85 126.45 46.95 130.15 46.95 130.15 47.65 126.85 47.65 126.85 49.3
M 132.55 49.3
L 134.1 49.3 134.1 49.85 132.55 49.85 132.55 49.3
M 134.1 51.45
Q 134.15 52.15 133.35 52.1
L 132.55 52.1 132.55 51.45 134.1 51.45
M 112.6 56.45
L 112.6 54.6
Q 110.1 55.8 107.55 56.3
L 107.55 58.55
Q 110.4 57.9 112.6 56.45
M 120.8 58.85
L 120.8 56.45
Q 118.65 55.15 115.95 54.6
L 115.95 56.55
Q 118.3 57.2 120.8 58.85
M 115.6 52.2
L 112.9 52.2 112.9 56.55
Q 112.95 57.4 112.15 57.35
L 111.55 57.35 111.55 58.9 113.3 58.9
Q 115.7 59.05 115.6 56.55
L 115.6 52.2
M 108.1 47.3
L 108.1 48.85 112.1 48.85
Q 112.1 48.9 111.95 49.1 111.9 49.35 111.85 49.45
L 107.1 49.45 107.1 51.05 110.35 51.05
Q 109.15 52.05 106.95 52.8
L 106.95 54.4
Q 107.45 54.2 108.35 53.9 109.1 53.65 109.45 53.55 109.65 54.05 110.1 54.6
L 112.4 54.6
Q 111.7 53.45 111.65 52.55 112.8 51.85 113.65 51.05
L 115.1 51.05
Q 115.95 52.05 116.9 52.65 116.7 53.6 116.1 54.6
L 118.45 54.6
Q 118.55 54.55 118.6 54.35 118.9 53.95 118.95 53.7 119.95 54.1 121.3 54.4
L 121.3 52.8
Q 119.15 52.1 118.05 51.05
L 121.3 51.05 121.3 49.45 114.8 49.45
Q 114.95 49.1 115.05 48.85
L 120.2 48.85 120.2 47.3 115.4 47.3
Q 115.4 47.15 115.45 46.95 115.45 46.8 115.45 46.7
L 120.7 46.7 120.7 45.1 115.55 45.1 115.55 44.45 112.65 44.45 112.65 45.1 107.6 45.1 107.6 46.7 112.6 46.7
Q 112.6 46.8 112.6 46.95 112.55 47.15 112.55 47.3
L 108.1 47.3
M 194.6 18.15
L 194.6 15.35 181.85 15.35
Q 181.95 15.05 182.15 14.5 182.25 14.1 182.35 13.85
L 178.1 13.85
Q 177.1 17.95 174.1 19.85
L 174.1 22.35
Q 175.5 22 176.55 21.45
L 176.55 28 173.7 28 173.7 30.7 183.95 30.7 183.95 35.4 188.25 35.4 188.25 30.7 195.35 30.7 195.35 28 188.25 28 188.25 23.6 194.05 23.6 194.05 20.85 188.25 20.85 188.25 18.15 194.6 18.15
M 183.95 18.15
L 183.95 20.85 177.65 20.85
Q 179.45 19.75 180.55 18.15
L 183.95 18.15
M 180.45 23.6
L 183.95 23.6 183.95 28 180.45 28 180.45 23.6
M 169.35 14.5
L 165.2 14.5 155.45 27.7 155.45 30.6 165 30.6 165 34.75 169.35 34.75 169.35 30.6 171.75 30.6 171.75 27.7 169.35 27.7 169.35 14.5
M 165 20.4
L 165 27.7 159.65 27.7 165 20.4
M 152.45 14.5
L 147.95 14.5
Q 146.2 18.45 141.5 20.4
L 141.5 22.95
Q 145.35 22.35 147.95 20.5
L 147.95 34.75 152.45 34.75 152.45 14.5
M 139.8 24.7
Q 139.7 14.2 131.9 14.1 124.3 14.5 124.15 24.7 124.25 34.95 131.9 35.1 139.9 35.2 139.8 24.7
M 135.2 24.8
Q 135.2 32.4 132 32.4 128.65 32.4 128.65 24.8 128.65 16.95 132 17 135.3 16.85 135.2 24.8
M 122.1 34.75
L 122.1 32.1 111.7 32.1
Q 113.3 29.5 117.6 26.95 122.45 24.05 122.2 20 121.9 14.4 115.05 14.2 108.3 14.3 107.1 21.05
L 111.3 21.05
Q 111.8 17.2 114.8 17.1 117.7 17 117.7 20.2 117.95 22.25 113.1 25.75 109.15 28.65 107.2 32
L 107.2 34.75 122.1 34.75 Z"/>
</g>
</defs>

<g transform="matrix( 1, 0, 0, 1, 0,0) ">
<use xlink:href="#Layer2_0_FILL"/>
</g>

<g transform="matrix( 10.800430297851562, 0, 0, 10.800430297851562, 5.5,4.6) ">
<g transform="matrix( 1, 0, 0, 1, 0,0) ">
<use xlink:href="#pop_0_Layer5_0_FILL"/>
</g>

<g transform="matrix( 1, 0, 0, 1, 0,0) ">
<use xlink:href="#pop_0_Layer4_0_FILL"/>
</g>

<g transform="matrix( 1, 0, 0, 1, 0,0) ">
<use xlink:href="#pop_0_Layer3_0_FILL"/>
</g>

<g transform="matrix( 1, 0, 0, 1, 0,0) ">
<use xlink:href="#pop_0_Layer2_0_FILL"/>
</g>

<g transform="matrix( 1, 0, 0, 1, 0,0) ">
<use xlink:href="#pop_0_Layer1_0_FILL"/>
</g>

<g transform="matrix( 1, 0, 0, 1, 0,0) ">
<use xlink:href="#pop_0_Layer0_0_FILL"/>
</g>
</g>

<g transform="matrix( 1, 0, 0, 1, 0,0) ">
<use xlink:href="#Layer2_1_MEMBER_1_FILL"/>
</g>

<g transform="matrix( 1, 0, 0, 1, 0,0) ">
<use xlink:href="#Layer2_1_MEMBER_1_MEMBER_0_FILL"/>
</g>

<g transform="matrix( 1, 0, 0, 1, 0,0) ">
<use xlink:href="#Layer2_1_MEMBER_2_FILL"/>
</g>

<g transform="matrix( 1, 0, 0, 1, 0,0) ">
<use xlink:href="#Layer2_1_MEMBER_2_MEMBER_0_FILL"/>
</g>

<g transform="matrix( 1, 0, 0, 1, 0,0) ">
<use xlink:href="#Layer1_0_FILL"/>
</g>
</svg>
