
<svg xmlns="http://www.w3.org/2000/svg" version="1.1" xmlns:xlink="http://www.w3.org/1999/xlink" preserveAspectRatio="none" x="0px" y="0px" width="550px" height="100px" viewBox="0 0 550 100">
<defs>
<g id="Layer2_0_FILL">
<path fill="#000000" fill-opacity="0.5019607843137255" stroke="none" d="
M 545.45 49.2
Q 545.45 28.8 531 14.4 516.65 0 496.25 0
L 49.2 0
Q 28.8 0 14.35 14.4 0 28.8 0 49.2 0 69.6 14.35 84 28.8 98.4 49.2 98.4
L 496.25 98.4
Q 516.65 98.4 531 84 545.45 69.6 545.45 49.2 Z"/>
</g>

<g id="pop_0_Layer5_0_FILL">
<path fill="#0C0A80" fill-opacity="0.2" stroke="none" d="
M 7.25 6.1
Q 7.75 5.2 7.85 4.45 7.85 4.3 7.85 4 7.7 2.15 6.05 1.6 4.15 1.1 3 2.6 1.9 4.15 3.45 5.9 4.7 7.3 2.95 7.8 3.1 7.95 3.7 7.95 3.75 7.95 3.85 7.95 4.5 8 5.5 7.6 6.7 7 7.25 6.1 Z"/>
</g>

<g id="pop_0_Layer4_0_FILL">
<path fill="#0C0A80" fill-opacity="0.2" stroke="none" d="
M 4.85 5.25
Q 4.85 4.4 4.25 3.75 3.65 3.15 2.8 3.15 1.95 3.15 1.35 3.75 0.7 4.4 0.7 5.25 0.7 6.1 1.35 6.7 1.95 7.3 2.8 7.3 3.65 7.3 4.25 6.7 4.85 6.1 4.85 5.25 Z"/>
</g>

<g id="pop_0_Layer3_0_FILL">
<path fill="#0C0A80" fill-opacity="0.2" stroke="none" d="
M 7.05 2.25
Q 7.05 1.6 6.6 1.15 6.15 0.7 5.5 0.7 4.85 0.7 4.4 1.15 3.95 1.6 3.95 2.25 3.95 2.9 4.4 3.35 4.85 3.8 5.5 3.8 6.15 3.8 6.6 3.35 7.05 2.9 7.05 2.25 Z"/>
</g>

<g id="pop_0_Layer2_0_FILL">
<path fill="#FFFFFF" fill-opacity="0.30196078431372547" stroke="none" d="
M 8.2 4.1
Q 8.2 2.4 7 1.2 5.8 0 4.1 0 2.4 0 1.2 1.2 0 2.4 0 4.1 0 5.8 1.2 7 2.4 8.2 4.1 8.2 5.8 8.2 7 7 8.2 5.8 8.2 4.1 Z"/>
</g>

<g id="pop_0_Layer1_0_FILL">
<path fill="#FFFFFF" fill-opacity="0.5019607843137255" stroke="none" d="
M 2.1 6.2
Q 3.7 5.95 2.65 3.7 1.9 1.2 4.2 0.3 3.65 0.35 3 0.55 1.7 1.1 1.1 1.9 0.5 2.75 0.4 3.5 0.35 3.65 0.35 3.95 0.4 6.2 2.1 6.2 Z"/>
</g>

<g id="pop_0_Layer0_0_FILL">
<path fill="#FFFFFF" fill-opacity="0.5019607843137255" stroke="none" d="
M 6.9 1.85
Q 6.9 1.45 6.65 1.2 6.35 0.9 6 0.9 5.6 0.9 5.35 1.2 5.05 1.45 5.05 1.85 5.05 2.2 5.35 2.5 5.6 2.75 6 2.75 6.35 2.75 6.65 2.5 6.9 2.2 6.9 1.85 Z"/>
</g>

<g id="Layer2_1_MEMBER_1_FILL">
<path fill="#FFFFFF" stroke="none" d="
M 73.9 39.95
Q 73.9 29.9 66.85 22.85 66.8 22.8 66.75 22.75 59.7 15.75 49.7 15.75 39.65 15.75 32.6 22.85 25.5 29.9 25.5 39.95 25.5 49.95 32.5 57 32.55 57.05 32.6 57.1 33.8 58.3 35.1 59.3
L 35.05 80.9
Q 35.05 82.15 35.95 83.05 36.8 83.9 38.05 83.9 39.3 83.9 40.2 83.05
L 49.7 73.55 59.25 83.1
Q 60.1 83.95 61.35 83.95 62.6 83.95 63.5 83.1 64.35 82.2 64.35 80.95
L 64.35 59.3
Q 65.65 58.25 66.85 57.1 73.9 50 73.9 39.95 Z"/>
</g>

<g id="Layer2_1_MEMBER_1_MEMBER_0_FILL">
<path fill="#B84F4F" stroke="none" d="
M 38.1 53.7
L 38.05 80.9 49.6 69.4 49.6 42.2 38.1 53.7 Z"/>

<path fill="#A12C2C" stroke="none" d="
M 49.7 42.1
L 49.6 42.2 49.6 69.4 49.7 69.3 61.35 80.95 61.35 53.75 49.7 42.1 Z"/>
</g>

<g id="Layer2_1_MEMBER_1_MEMBER_1_FILL">
<path fill="#FFCC00" stroke="none" d="
M 58.9 30.6
Q 55.1 26.85 49.7 26.85 44.2 26.85 40.4 30.65 36.55 34.5 36.55 39.95 36.55 45.35 40.3 49.15
L 58.9 30.6 Z"/>

<path fill="#C59E00" stroke="none" d="
M 58.95 30.65
L 58.9 30.6 40.3 49.15
Q 40.35 49.2 40.4 49.25 44.2 53.05 49.7 53.05 55.15 53.05 58.95 49.25 62.8 45.4 62.8 39.95 62.8 34.5 58.95 30.65
M 64.6 24.85
Q 58.45 18.75 49.7 18.75 40.9 18.75 34.7 24.95 28.5 31.15 28.5 39.95 28.5 48.7 34.6 54.85
L 40.3 49.15
Q 36.55 45.35 36.55 39.95 36.55 34.5 40.4 30.65 44.2 26.85 49.7 26.85 55.1 26.85 58.9 30.6
L 64.6 24.85 Z"/>

<path fill="#957800" stroke="none" d="
M 58.9 30.6
L 58.95 30.65
Q 62.8 34.5 62.8 39.95 62.8 45.4 58.95 49.25 55.15 53.05 49.7 53.05 44.2 53.05 40.4 49.25 40.35 49.2 40.3 49.15
L 34.6 54.85
Q 34.65 54.9 34.7 54.95 40.9 61.15 49.7 61.15 58.5 61.15 64.7 54.95 70.9 48.75 70.9 39.95 70.9 31.15 64.7 24.95 64.65 24.9 64.6 24.85
L 58.9 30.6 Z"/>
</g>

<g id="Layer1_0_FILL">
<path fill="#FFFFFF" stroke="none" d="
M 269.95 80.35
L 281.2 80.35
Q 283.85 80.55 283.7 77.75
L 283.7 66.55 269.95 66.55 269.95 80.35
M 272.5 68.25
L 281.1 68.25 281.1 77.9
Q 281.1 78.8 280.3 78.8
L 272.5 78.8 272.5 68.25
M 273.25 71.6
L 273.25 73.05 275.35 73.05 275.35 73.85 272.8 73.85 272.8 75.3 275.35 75.3 275.35 78.4 277.7 78.4 277.7 75.3 278.8 75.3 278.8 76
Q 278.85 76.3 278.5 76.3
L 278.1 76.3 278.1 77.75 279.1 77.75
Q 280.85 77.85 280.75 76.05
L 280.75 73.85 277.7 73.85 277.7 73.05 280.35 73.05 280.35 71.6 277.7 71.6 277.7 70.9 280.75 70.9 280.75 69.5 277.7 69.5 277.7 68.6 275.35 68.6 275.35 69.5 272.85 69.5 272.85 70.9 275.35 70.9 275.35 71.6 273.25 71.6
M 258.8 66.3
Q 259.05 68.1 259.45 69.6 258 75 253.6 78.85
L 253.6 80.6
Q 259.2 77.5 260.8 73.55 262.55 77.55 268 80.55
L 268 78.8
Q 262.7 74.4 261.8 66.3
L 258.8 66.3
M 241.8 66.6
L 239.1 66.6
Q 239.3 67.85 239.85 68.55
L 242.45 68.55
Q 241.85 67.55 241.8 66.6
M 250.5 66.6
L 247.8 66.6
Q 247.75 67.55 247.2 68.55
L 249.75 68.55
Q 250.3 67.85 250.5 66.6
M 246.3 74
L 243.45 74 243.45 75 237.7 75 237.7 76.75 243.1 76.75
Q 242.2 78.6 237.6 79.1
L 237.6 80.55
Q 242.3 80.5 244.85 78.55 247.1 80.3 252 80.55
L 252 79.1
Q 247.35 78.4 246.6 76.75
L 251.95 76.75 251.95 75 246.3 75 246.3 74
M 246.3 66.25
L 243.45 66.25 243.45 68.9 238.05 68.9 238.05 70.65 240.35 70.65
Q 239.6 72.25 237.95 73
L 237.95 74.5
Q 241.7 73.75 243.1 70.65
L 243.45 70.65 243.45 73.65 246.3 73.65 246.3 70.65 246.5 70.65
Q 247.95 73.75 251.7 74.5
L 251.7 73
Q 249.85 72.15 249.25 70.65
L 251.7 70.65 251.7 68.9 246.3 68.9 246.3 66.25
M 226.55 66.3
L 223.95 66.3
Q 223.25 69.85 221.5 71
L 221.5 72.55
Q 221.6 72.5 221.95 72.4 222.55 72.25 222.8 72.15
L 222.8 80.6 225.3 80.6 225.3 69.9
Q 226 68.65 226.55 66.3
M 232 66.3
L 229.45 66.3 229.45 68.25 226.05 68.25 226.05 70 226.95 70
Q 227.05 74.5 225.7 77.25
L 225.7 79.25
Q 226.95 78.15 227.7 76.85
L 227.7 77.9 229.45 77.9 229.45 80.6 232 80.6 232 77.9 233.7 77.9 233.7 76.8
Q 234.45 78 235.8 79.25
L 235.8 77.25
Q 234.35 74.5 234.5 70
L 235.5 70 235.5 68.25 232 68.25 232 66.3
M 232 70
L 232.35 70
Q 232.3 74.35 233.45 76.3
L 232 76.3 232 70
M 229.1 70
L 229.45 70 229.45 76.3 228 76.3
Q 229.05 74.15 229.1 70
M 211.7 67.15
L 210.95 67.15 210.95 68.9 211.7 68.9 211.7 73.6 214.2 73.6 214.2 74.4 210.8 74.4 210.8 76.15 212 76.15
Q 211.8 78 210.8 78.85
L 210.8 80.4
Q 213.7 79.25 214.05 76.15
L 214.2 76.15 214.2 80.6 216.55 80.6 216.55 76.15 216.6 76.15
Q 216.95 79.25 219.95 80.4
L 219.95 78.9
Q 218.7 77.85 218.6 76.15
L 220 76.15 220 74.4 216.55 74.4 216.55 73.6 216.75 73.6
Q 219.2 73.75 219.05 71.4
L 219.05 68.9 219.95 68.9 219.95 67.15 219.05 67.15 219.05 66.15 216.7 66.15 216.7 67.15 214.05 67.15 214.05 66.15 211.7 66.15 211.7 67.15
M 216.7 68.9
L 216.7 69.65 214.05 69.65 214.05 68.9 216.7 68.9
M 216.7 71.3
Q 216.75 72.05 216 72
L 214.05 72 214.05 71.15 216.7 71.15 216.7 71.3
M 210.5 66.3
L 208.55 66.3 208.55 68.1 207.8 68.1 207.8 66.3 205.85 66.3 205.85 68.1 205.45 68.1 205.45 69.8 205.85 69.8 205.85 72.75
Q 205.85 76.05 206.95 77.8 206.85 77.85 206.7 78.05 206.05 78.65 205.6 79
L 205.6 80.6
Q 207.1 79.75 208.05 79.05 209.05 79.75 210.55 80.6
L 210.55 79
Q 210.05 78.65 209.5 78.05 209.3 77.85 209.25 77.8 210.5 76.05 210.5 72.75
L 210.5 69.8 210.8 69.8 210.8 68.1 210.5 68.1 210.5 66.3
M 207.8 69.8
L 208.55 69.8 208.55 72.8
Q 208.55 74.75 208.1 75.9 207.8 74.85 207.8 72.8
L 207.8 69.8
M 148.7 67.55
L 148.7 66.15 145.55 66.15 145.55 67.55 140.1 67.55 140.1 76.1
Q 140.15 78.25 138.95 79.05
L 138.95 80.75
Q 143.35 79.3 143.1 75.3
L 143.1 69.5 153.4 69.5 153.4 67.55 148.7 67.55
M 168.1 77.9
L 168.1 74.3 156.45 74.3 156.45 80.3 165.8 80.3
Q 168.1 80.35 168.1 77.9
M 165.35 76.15
L 165.35 77.8
Q 165.4 78.65 164.6 78.6
L 159.2 78.6 159.2 76.15 165.35 76.15
M 171.6 71.25
L 171.6 73.05 175.1 73.05 175.1 80.65 178.05 80.65 178.05 73.05 181.65 73.05 181.65 76.35
Q 181.7 77.25 180.8 77.25
L 179.65 77.25 179.65 79.05 182.1 79.05
Q 184.45 79.05 184.45 76.65
L 184.45 71.25 171.6 71.25
M 163.95 67.5
L 163.95 66.15 161.15 66.15 161.15 67.5 159.3 67.5
Q 159.4 67 159.45 66.55
L 156.95 66.55
Q 156.8 68.4 155.6 69.6
L 155.6 71.15
Q 157.6 70.55 158.45 69.3
L 161.15 69.3 161.15 71.55 154.9 71.55 154.9 73.35 169.4 73.35 169.4 71.55 163.95 71.55 163.95 69.3 168.55 69.3 168.55 67.5 163.95 67.5
M 199.8 72.6
L 191.3 72.6 191.3 74.55 199.8 74.55 199.8 72.6
M 182.4 70.65
L 182.4 69.3 185.35 69.3 185.35 67.5 182.4 67.5 182.4 66.3 179.8 66.3 179.8 67.5 176.55 67.5 176.55 66.3 173.9 66.3 173.9 67.5 170.9 67.5 170.9 69.3 173.9 69.3 173.9 70.65 176.55 70.65 176.55 69.3 179.8 69.3 179.8 70.65 182.4 70.65
M 127.9 79.1
L 127.9 77.35
Q 125.65 77.85 123.05 77.8
L 123.05 79.6
Q 125.45 79.65 127.9 79.1
M 131.4 66.25
L 131.4 67.9 128.2 67.9 128.2 69.25 126.2 69.25
Q 126.15 69.55 125.95 70.1 125.85 70.5 125.8 70.65 125.4 70.65 124.95 70.65 126.3 69.05 127.1 66.3
L 124.65 66.3
Q 124.2 68.75 122.95 70.65
L 122.95 72.5
Q 124.1 72.5 124.95 72.4 124.15 73.75 123.1 74.8
L 123.1 76.75
Q 125.9 76.75 127.8 76.3
L 127.8 74.55
Q 126.55 74.85 125.4 74.8 127.8 72.65 128.2 69.8
L 128.2 80.5 130.6 80.5 130.6 69.65 131.4 69.65 131.4 69.9
Q 131.45 73.8 130.85 75.25
L 130.85 77.35
Q 132.05 76.55 132.65 75 133.3 76.55 134.45 77.35
L 134.45 75.25
Q 133.9 73.85 133.9 69.9
L 133.9 69.65 134.7 69.65 134.7 78.05
Q 134.7 78.85 134.1 78.8
L 133.4 78.8 133.4 80.4 134.95 80.4
Q 137.15 80.55 137.1 78.25
L 137.1 67.9 133.9 67.9 133.9 66.25 131.4 66.25
M 120.95 77.05
L 120.95 75.55 117.7 75.55 117.7 75.05 115.35 75.05 115.35 75.55 112.9 75.55
Q 112.9 75.4 112.8 75.3 112.7 75.1 112.65 75.05
L 109.9 75.05
Q 110.1 75.3 110.15 75.55
L 107.3 75.55 107.3 77.05 111.1 77.05
Q 111.65 77.85 112.35 78.55 110.15 78.9 107.3 79.1
L 107.3 80.35
Q 111.35 80.1 114.05 79.6 115.9 80.75 118.45 80.65 121.35 80.75 121.15 78.35
L 119.35 78.35
Q 119.45 79.15 118.05 79.1 117.45 79.1 117.05 79.05 116.9 79.05 116.85 79.05 118.55 78.5 119.8 77.3
L 116.9 77.3
Q 116.55 77.4 115.8 77.75 115.2 77.85 114.95 78 114.45 77.55 114.05 77.05
L 120.95 77.05
M 107.15 66.75
L 107.15 68.25 112.1 68.25
Q 112.05 68.55 111.9 68.75
L 108.15 68.75 108.15 74.85 118.2 74.85
Q 120.4 75 120.3 72.6
L 120.3 68.75 114.7 68.75
Q 114.85 68.55 114.9 68.25
L 121.3 68.25 121.3 66.75 107.15 66.75
M 110.95 72.05
L 110.95 71.55 117.65 71.55 117.65 72.05 110.95 72.05
M 110.95 70.5
L 110.95 70.05 117.65 70.05 117.65 70.5 110.95 70.5
M 110.95 73.55
L 110.95 73.05 117.65 73.05
Q 117.65 73.6 116.95 73.55
L 110.95 73.55
M 269.8 58.65
L 281.25 58.65
Q 283.85 58.8 283.8 56.05
L 283.8 44.85 269.8 44.85 269.8 58.65
M 277.35 47.15
L 277.35 48.2 273.1 48.2 273.1 49.9 274.8 49.9
Q 274.7 52.9 273.1 54.65
L 273.1 56.45
Q 276.95 54.6 277.3 49.9
L 277.35 49.9 277.35 54.2
Q 277.45 54.9 276.75 54.85
L 276.25 54.85 276.25 56.45 277.85 56.45
Q 280.1 56.6 280 54.2
L 280 49.9 281 49.9 281 56.15
Q 281.05 57.05 280.25 56.95
L 272.6 56.95 272.6 46.65 281 46.65 281 48.2 280 48.2 280 47.15 277.35 47.15
M 261.2 45.2
L 261.2 46.95 264.8 46.95 264.8 48.15
Q 264.85 49.1 263.95 49.05
L 261.35 49.05 261.35 54.1
Q 261.3 56.45 263.45 56.35
L 265.85 56.35
Q 267.95 56.4 267.85 54.3
L 267.85 53.2 265.8 53.2 265.8 53.85
Q 265.85 54.6 265.1 54.55
L 264.6 54.55
Q 263.8 54.6 263.85 53.8
L 263.85 50.85 265.1 50.85
Q 267.35 50.9 267.3 48.65
L 267.3 45.2 261.2 45.2
M 256.1 49.2
L 253.6 49.2 253.6 50.9 256.8 50.9 256.8 55.95
Q 256.5 55.7 256.1 55.35 256.1 55.15 256.1 54.95
L 256.1 51.85 254.05 51.85 254.05 55.3
Q 254.05 56.65 253.45 57.4
L 253.45 59.1
Q 255.05 58.2 255.6 57.4 257.05 58.8 259.5 58.7
L 268.05 58.7 268.05 57.1 260.45 57.1
Q 260.2 57.1 259.8 57.05 259.45 57.05 259.25 57.05
L 259.25 54.45 260.85 54.45 260.85 52.8 259.25 52.8 259.25 50.9 261 50.9 261 49.2 258.7 49.2 258.7 47.45 260.55 47.45 260.55 45.7 258.7 45.7 258.7 44.45 256.1 44.45 256.1 45.7 254 45.7 254 47.45 256.1 47.45 256.1 49.2
M 248.45 52.85
Q 250.85 52.85 250.85 50.35
L 250.85 45.15 238.75 45.15 238.75 52.85 243.35 52.85 243.35 54.2 237.55 54.2 237.55 56.1 243.35 56.1 243.35 58.95 246.25 58.95 246.25 56.1 252.05 56.1 252.05 54.2 246.25 54.2 246.25 52.85 248.45 52.85
M 248.25 46.95
L 248.25 48.1 241.35 48.1 241.35 46.95 248.25 46.95
M 248.25 49.85
L 248.25 50.2
Q 248.25 51.05 247.45 51.05
L 241.35 51.05 241.35 49.85 248.25 49.85
M 222.1 44.55
L 222.1 46.15
Q 223.1 46.7 223.6 47.7 222.95 48.55 221.6 49.2
L 221.6 50.8
Q 223 50.4 224 49.9
L 224 51.35
Q 223 52.65 221.6 53.35
L 221.6 55.05
Q 223 54.65 224 54.15
L 224 56.4
Q 224.05 57.1 223.3 57.1
L 222.5 57.1 222.5 58.7 224.3 58.7
Q 226.6 58.8 226.55 56.65
L 226.55 49.4
Q 226.55 48.45 226.3 47.7 226.85 46.8 227.3 45.55
L 227.3 47.3 230.05 47.3 230.05 50.65 227.45 50.65 227.45 52.4 230.05 52.4 230.05 56.45 226.95 56.45 226.95 58.15 236.05 58.15 236.05 56.45 233 56.45 233 52.4 235.45 52.4 235.45 50.65 233 50.65 233 47.3 235.8 47.3 235.8 45.45 227.35 45.45
Q 227.45 45.3 227.5 45.05 227.6 44.7 227.6 44.6
L 225.1 44.6
Q 225.1 44.65 225.05 44.85 224.85 45.4 224.75 45.7 223.75 44.9 222.1 44.55
M 219.2 47.85
L 210.45 47.85 210.45 55.35
Q 210.5 56.8 209.6 57.4
L 209.6 58.9
Q 213.05 57.9 212.8 54.9
L 212.8 50.7
Q 213.25 54.05 213.95 55.1 213.45 56.05 212.7 56.85
L 212.7 58.45
Q 214.2 57.3 214.8 56.45 215.35 57.3 216.85 58.45
L 216.85 56.85
Q 216.2 56.05 215.7 55.1 216.5 53.45 216.75 50.7
L 216.75 54.9
Q 216.5 57.9 220 58.9
L 220 57.4
Q 219.1 56.8 219.2 55.35
L 219.2 47.85
M 212.8 49.45
L 216.75 49.45 216.75 50.05 215.2 50.05
Q 215.1 51.7 214.8 52.9 214.45 51.7 214.35 50.05
L 212.8 50.05 212.8 49.45
M 212.45 44.55
L 212.45 45.45 207.25 45.45 207.25 47.45
Q 207.05 47.4 207.1 47.45 206.25 47.2 205.6 47.2
L 205.6 49.4
Q 206.55 49.55 207.25 49.7
L 207.25 51.65
Q 206.6 51.9 205.7 51.95
L 205.7 54.15
Q 206.5 54.1 207.25 53.9
L 207.25 54.4
Q 207.3 56.2 206.25 57.35
L 206.25 58.95
Q 210.05 57.65 209.8 53.6
L 209.8 47.15 220.2 47.15 220.2 45.45 215.7 45.45 215.7 44.55 212.45 44.55
M 191.3 52.85
L 199.8 52.85 199.8 50.9 191.3 50.9 191.3 52.85
M 171.4 47.2
L 171.4 48.8
Q 172.6 48.55 173.1 48.4 173.4 48.35 173.55 48.35
L 173.55 49.4
Q 174.4 49.45 175.4 49.8 172.95 50.35 171.2 50.55
L 171.2 52.2
Q 174.1 51.9 176.2 51.45 174.65 52.85 172.05 53.45
L 172.05 54.95
Q 173.2 54.85 174.2 54.6
L 174.2 55.6
Q 175.85 55.8 176.8 56.15 174.7 56.95 171.15 57.4
L 171.15 58.95
Q 180.9 58.3 184.95 53.15
L 184.95 51.4 179.55 51.4
Q 179.65 51.3 179.8 51.1 179.95 50.85 180.05 50.8
L 178.7 50.8
Q 181.95 49.6 184.3 47.05
L 184.3 45.3 178.15 45.3
Q 178.4 44.95 178.6 44.6
L 175.55 44.6
Q 174.15 46.55 171.4 47.2
M 175.1 47.8
Q 175.85 47.45 176.4 47.1
L 180.7 47.1
Q 179.45 48.15 177.95 48.85
L 177.95 48.35
Q 176.45 47.85 175.1 47.8
M 178.65 55.3
L 178.65 54.55
Q 177.15 54.1 176.05 53.95 176.85 53.65 177.6 53.15
L 181.3 53.15
Q 180.35 54.15 178.65 55.3
M 154.85 45.4
Q 155.1 47.55 155.55 48.55
L 157.05 48.55 157.05 49.1 155.05 49.1 155.05 50.8 156.8 50.8
Q 156.05 53.2 154.95 55.1
L 154.95 57.3
Q 156.15 56.2 157.05 54.9
L 157.05 58.9 159.4 58.9 159.4 54.3
Q 160.05 55.05 160.95 55.95
L 160.95 53.6
Q 159.9 52.2 159.4 50.8
L 161.3 50.8 161.3 49.1 159.4 49.1 159.4 48.55 160.8 48.55
Q 161.35 47.35 161.45 45.4
L 159.85 45.4
Q 159.85 45.45 159.85 45.65 159.65 47.3 159.4 48.1
L 159.4 44.55 157.05 44.55 157.05 48.35
Q 156.6 47.15 156.55 45.4
L 154.85 45.4
M 168.95 48.8
L 166.45 48.8
Q 166.35 52.95 165.4 56.8
L 165.2 56.8
Q 164.3 52.95 164.15 48.8
L 161.7 48.8
Q 161.95 53.35 163.15 56.8
L 160.9 56.8 160.9 58.4 169.45 58.4 169.45 56.8 167.4 56.8
Q 168.55 53.4 168.95 48.8
M 169.2 47.9
L 169.2 46.15 166.7 46.15 166.7 44.7 163.95 44.7 163.95 46.15 161.45 46.15 161.45 47.9 169.2 47.9
M 147.8 47.4
L 144.55 47.4
Q 142.9 50.4 138.9 51.9
L 138.9 53.65
Q 140.05 53.35 140.9 53.1
L 140.9 58.55 149.15 58.55
Q 151.45 58.6 151.4 56.15
L 151.4 53.1
Q 152.35 53.35 153.4 53.65
L 153.4 51.9
Q 149.4 50.4 147.8 47.4
M 142.7 52.35
Q 144.65 51.45 146.15 49.9 147.65 51.45 149.6 52.35
L 142.7 52.35
M 148.8 56.1
Q 148.8 56.9 148.1 56.9
L 143.55 56.9 143.55 54.1 148.8 54.1 148.8 56.1
M 153.15 47.55
Q 150.6 46.7 149.55 44.7
L 146.7 44.7
Q 148.4 48.45 153.15 48.9
L 153.15 47.55
M 139.15 47.55
L 139.15 48.9
Q 143.9 48.45 145.6 44.7
L 142.8 44.7
Q 141.7 46.7 139.15 47.55
M 133.4 45.8
L 131.05 45.8 131.05 55.85 133.4 55.85 133.4 45.8
M 136.9 44.65
L 134.4 44.65 134.4 56.55
Q 134.45 57.1 133.9 57.1
L 132.85 57.1 132.85 58.7 134.9 58.7
Q 136.9 58.7 136.9 56.85
L 136.9 44.65
M 123.15 45.05
L 123.15 46.85 125.6 46.85 125.6 48.35 123.05 48.35 123.05 50.15 125.55 50.15
Q 124.8 52.7 122.95 55.3
L 122.95 57.45
Q 124.55 56.35 125.6 54.85
L 125.6 58.9 128.2 58.9 128.2 53.9
Q 129.05 54.9 130.4 55.85
L 130.4 53.6
Q 128.95 52.15 128.2 50.15
L 130.6 50.15 130.6 48.35 128.2 48.35 128.2 46.85
Q 129.65 46.7 130.55 46.55
L 130.55 44.65
Q 129.15 45.05 127.55 45.05
L 123.15 45.05
M 111.8 45.15
L 111.8 46.9 113.6 46.9 113.6 47.35
Q 113.6 48.15 113.6 48.9
L 110.85 48.9 110.85 50.65 113.55 50.65
Q 113.55 50.95 113.45 51.55 113.45 52.15 113.4 52.4
L 111.1 52.4 111.1 54.15 113.1 54.15
Q 112.7 55.55 111.65 56.85
L 111.65 58.95
Q 114.8 56.8 115.45 54.15
L 118.15 54.15
Q 120.7 54.2 120.65 51.8
L 120.65 50.65 121.55 50.65 121.55 48.9 120.65 48.9 120.65 45.15 111.8 45.15
M 116.2 48.9
Q 116.2 47.95 116.2 46.9
L 118.15 46.9 118.15 48.9 116.2 48.9
M 118.15 50.65
L 118.15 51.45
Q 118.15 52.45 117.35 52.4
L 115.9 52.4
Q 116.05 51.6 116.1 50.65
L 118.15 50.65
M 109.15 44.6
Q 108.55 48.15 106.8 49.3
L 106.8 50.85
Q 107.4 50.7 107.95 50.55
L 107.95 58.85 110.55 58.85 110.55 48.2
Q 111.3 46.9 111.85 44.6
L 109.15 44.6
M 194.45 18.15
L 194.45 15.35 181.7 15.35
Q 181.8 15.05 182 14.5 182.1 14.1 182.2 13.85
L 177.95 13.85
Q 176.95 17.95 173.95 19.85
L 173.95 22.35
Q 175.35 22 176.4 21.45
L 176.4 28 173.55 28 173.55 30.7 183.8 30.7 183.8 35.4 188.1 35.4 188.1 30.7 195.2 30.7 195.2 28 188.1 28 188.1 23.6 193.9 23.6 193.9 20.85 188.1 20.85 188.1 18.15 194.45 18.15
M 183.8 18.15
L 183.8 20.85 177.5 20.85
Q 179.3 19.75 180.4 18.15
L 183.8 18.15
M 180.3 23.6
L 183.8 23.6 183.8 28 180.3 28 180.3 23.6
M 163.8 35.1
Q 171.3 35.1 171.3 29.1 171.1 25.1 166.5 24.25 170.85 23.3 170.75 19.45 170.55 14.4 163.6 14.2 157.25 14.3 156 20.1
L 160.25 20.1
Q 160.6 17.2 163.5 17.1 166.25 17.2 166.35 19.85 166.35 22.75 162.2 22.75
L 160.4 22.75 160.4 26.2 162.3 26.2
Q 166.7 26.2 166.7 29.1 166.6 32.2 162.75 32.3 159.2 32.3 156.5 29.1
L 156.5 32.4
Q 159.2 35.2 163.8 35.1
M 152.45 14.5
L 147.95 14.5
Q 146.2 18.45 141.5 20.4
L 141.5 22.95
Q 145.35 22.35 147.95 20.5
L 147.95 34.75 152.45 34.75 152.45 14.5
M 131.9 14.1
Q 124.3 14.5 124.15 24.7 124.25 34.95 131.9 35.1 139.9 35.2 139.8 24.7 139.7 14.2 131.9 14.1
M 132 32.4
Q 128.65 32.4 128.65 24.8 128.65 16.95 132 17 135.3 16.85 135.2 24.8 135.2 32.4 132 32.4
M 122.1 34.75
L 122.1 32.1 111.7 32.1
Q 113.3 29.5 117.6 26.95 122.45 24.05 122.2 20 121.9 14.4 115.05 14.2 108.3 14.3 107.1 21.05
L 111.3 21.05
Q 111.8 17.2 114.8 17.1 117.7 17 117.7 20.2 117.95 22.25 113.1 25.75 109.15 28.65 107.2 32
L 107.2 34.75 122.1 34.75 Z"/>
</g>
</defs>

<g transform="matrix( 1, 0, 0, 1, 0,0) ">
<use xlink:href="#Layer2_0_FILL"/>
</g>

<g transform="matrix( 10.800430297851562, 0, 0, 10.800430297851562, 5.45,4.6) ">
<g transform="matrix( 1, 0, 0, 1, 0,0) ">
<use xlink:href="#pop_0_Layer5_0_FILL"/>
</g>

<g transform="matrix( 1, 0, 0, 1, 0,0) ">
<use xlink:href="#pop_0_Layer4_0_FILL"/>
</g>

<g transform="matrix( 1, 0, 0, 1, 0,0) ">
<use xlink:href="#pop_0_Layer3_0_FILL"/>
</g>

<g transform="matrix( 1, 0, 0, 1, 0,0) ">
<use xlink:href="#pop_0_Layer2_0_FILL"/>
</g>

<g transform="matrix( 1, 0, 0, 1, 0,0) ">
<use xlink:href="#pop_0_Layer1_0_FILL"/>
</g>

<g transform="matrix( 1, 0, 0, 1, 0,0) ">
<use xlink:href="#pop_0_Layer0_0_FILL"/>
</g>
</g>

<g transform="matrix( 1, 0, 0, 1, 0,0) ">
<use xlink:href="#Layer2_1_MEMBER_1_FILL"/>
</g>

<g transform="matrix( 1, 0, 0, 1, 0,0) ">
<use xlink:href="#Layer2_1_MEMBER_1_MEMBER_0_FILL"/>
</g>

<g transform="matrix( 1, 0, 0, 1, 0,0) ">
<use xlink:href="#Layer2_1_MEMBER_1_MEMBER_1_FILL"/>
</g>

<g transform="matrix( 1, 0, 0, 1, 0,0) ">
<use xlink:href="#Layer1_0_FILL"/>
</g>
</svg>
