
<svg xmlns="http://www.w3.org/2000/svg" version="1.1" xmlns:xlink="http://www.w3.org/1999/xlink" preserveAspectRatio="none" x="0px" y="0px" width="74px" height="74px" viewBox="0 0 74 74">
<defs>
<g id="pop_0_Layer5_0_FILL">
<path fill="#0C0A80" fill-opacity="0.2" stroke="none" d="
M 7.25 6.1
Q 7.75 5.2 7.85 4.45 7.85 4.3 7.85 4 7.7 2.15 6.05 1.6 4.15 1.1 3 2.6 1.9 4.15 3.45 5.9 4.7 7.3 2.95 7.8 3.1 7.95 3.7 7.95 3.75 7.95 3.85 7.95 4.5 8 5.5 7.6 6.7 7 7.25 6.1 Z"/>
</g>

<g id="pop_0_Layer4_0_FILL">
<path fill="#0C0A80" fill-opacity="0.2" stroke="none" d="
M 4.85 5.25
Q 4.85 4.4 4.25 3.75 3.65 3.15 2.8 3.15 1.95 3.15 1.35 3.75 0.7 4.4 0.7 5.25 0.7 6.1 1.35 6.7 1.95 7.3 2.8 7.3 3.65 7.3 4.25 6.7 4.85 6.1 4.85 5.25 Z"/>
</g>

<g id="pop_0_Layer3_0_FILL">
<path fill="#0C0A80" fill-opacity="0.2" stroke="none" d="
M 7.05 2.25
Q 7.05 1.6 6.6 1.15 6.15 0.7 5.5 0.7 4.85 0.7 4.4 1.15 3.95 1.6 3.95 2.25 3.95 2.9 4.4 3.35 4.85 3.8 5.5 3.8 6.15 3.8 6.6 3.35 7.05 2.9 7.05 2.25 Z"/>
</g>

<g id="pop_0_Layer2_0_FILL">
<path fill="#FFFFFF" fill-opacity="0.30196078431372547" stroke="none" d="
M 8.2 4.1
Q 8.2 2.4 7 1.2 5.8 0 4.1 0 2.4 0 1.2 1.2 0 2.4 0 4.1 0 5.8 1.2 7 2.4 8.2 4.1 8.2 5.8 8.2 7 7 8.2 5.8 8.2 4.1 Z"/>
</g>

<g id="pop_0_Layer1_0_FILL">
<path fill="#FFFFFF" fill-opacity="0.5019607843137255" stroke="none" d="
M 2.1 6.2
Q 3.7 5.95 2.65 3.7 1.9 1.2 4.2 0.3 3.65 0.35 3 0.55 1.7 1.1 1.1 1.9 0.5 2.75 0.4 3.5 0.35 3.65 0.35 3.95 0.4 6.2 2.1 6.2 Z"/>
</g>

<g id="pop_0_Layer0_0_FILL">
<path fill="#FFFFFF" fill-opacity="0.5019607843137255" stroke="none" d="
M 6.9 1.85
Q 6.9 1.45 6.65 1.2 6.35 0.9 6 0.9 5.6 0.9 5.35 1.2 5.05 1.45 5.05 1.85 5.05 2.2 5.35 2.5 5.6 2.75 6 2.75 6.35 2.75 6.65 2.5 6.9 2.2 6.9 1.85 Z"/>
</g>

<g id="Layer0_0_MEMBER_1_FILL">
<path fill="#FFFFFF" stroke="none" d="
M 352.05 260.45
Q 351.45 261 351.45 261.85
L 351.45 297.9
Q 351.45 298.75 352.05 299.35 352.6 299.9 353.45 299.9
L 358.45 299.9
Q 359.3 299.9 359.9 299.35 360.45 298.75 360.45 297.9
L 360.45 283.55 363.05 283.55 363.05 297.9
Q 363.05 298.75 363.65 299.35 364.2 299.9 365.05 299.9
L 370.05 299.9
Q 370.9 299.9 371.5 299.35 372.05 298.75 372.05 297.9
L 372.05 294.9
Q 372.65 296.8 374.2 298.1
L 374.2 298.15
Q 376.55 300.2 381 300.2 386.15 300.2 388.45 297.7 390.8 295.4 390.8 290.95
L 390.8 280.7
Q 390.8 276.5 388.35 274.4
L 388.4 274.4
Q 386.4 272.5 383.3 272.5 381.8 272.5 380.65 272.9
L 380.65 267.75 387.95 267.75
Q 388.8 267.75 389.4 267.2 389.95 266.6 389.95 265.75
L 389.95 261.85
Q 389.95 261 389.4 260.45 388.8 259.85 387.95 259.85
L 373.95 259.85
Q 373.1 259.85 372.55 260.45 372.1 260.85 372 261.4 371.9 260.85 371.5 260.45 370.9 259.85 370.05 259.85
L 365.05 259.85
Q 364.2 259.85 363.65 260.45 363.05 261 363.05 261.85
L 363.05 275.35 360.45 275.35 360.45 261.85
Q 360.45 261 359.9 260.45 359.3 259.85 358.45 259.85
L 353.45 259.85
Q 352.6 259.85 352.05 260.45
M 353.45 261.85
L 358.45 261.85 358.45 277.35 365.05 277.35 365.05 261.85 370.05 261.85 370.05 297.9 365.05 297.9 365.05 281.55 358.45 281.55 358.45 297.9 353.45 297.9 353.45 261.85
M 387.95 261.85
L 387.95 265.75 378.65 265.75 378.65 276.8
Q 379.65 275.45 380.75 275 381.8 274.5 383.3 274.5 385.55 274.5 387 275.85 388.8 277.5 388.8 280.7
L 388.8 290.95
Q 388.8 294.45 387 296.3 385.15 298.2 381 298.2 377.4 298.2 375.5 296.6 373.65 294.95 373.65 292.1
L 373.65 288.2 378.35 288.2 378.35 291.35
Q 378.35 294.6 381.15 294.6 383.4 294.6 383.9 292.1 384.1 291.05 384.1 289.5
L 384.1 281.85
Q 384.1 280.05 383.4 279.25 382.65 278.4 381.45 278.4 380.15 278.4 379.45 279.4 378.65 280.35 378.65 282.15
L 378.65 283.6 373.95 283.6 373.95 261.85 387.95 261.85
M 380.65 282.15
Q 380.65 281.2 381 280.7 381.05 280.65 381.1 280.55 381.2 280.35 381.45 280.4 381.75 280.4 381.9 280.6 382.1 281 382.1 281.85
L 382.1 289.5
Q 382.1 290.85 381.95 291.75
L 381.95 291.7
Q 381.8 292.5 381.15 292.6 380.35 292.45 380.35 291.35
L 380.35 288.2
Q 380.35 287.35 379.8 286.8 379.2 286.2 378.35 286.2
L 373.65 286.2
Q 372.8 286.2 372.25 286.8 372.15 286.85 372.05 287
L 372.05 284.25
Q 372.2 284.7 372.55 285.05 373.1 285.6 373.95 285.6
L 378.65 285.6
Q 379.5 285.6 380.1 285.05 380.65 284.45 380.65 283.6
L 380.65 282.15 Z"/>

<path fill="#C99547" stroke="none" d="
M 387.95 265.75
L 387.95 261.85 373.95 261.85 373.95 283.6 378.65 283.6 378.65 282.15
Q 378.65 280.35 379.45 279.4 380.15 278.4 381.45 278.4 382.65 278.4 383.4 279.25 384.1 280.05 384.1 281.85
L 384.1 289.5
Q 384.1 291.05 383.9 292.1 383.4 294.6 381.15 294.6 378.35 294.6 378.35 291.35
L 378.35 288.2 373.65 288.2 373.65 292.1
Q 373.65 294.95 375.5 296.6 377.4 298.2 381 298.2 385.15 298.2 387 296.3 388.8 294.45 388.8 290.95
L 388.8 280.7
Q 388.8 277.5 387 275.85 385.55 274.5 383.3 274.5 381.8 274.5 380.75 275 379.65 275.45 378.65 276.8
L 378.65 265.75 387.95 265.75
M 358.45 261.85
L 353.45 261.85 353.45 297.9 358.45 297.9 358.45 281.55 365.05 281.55 365.05 297.9 370.05 297.9 370.05 261.85 365.05 261.85 365.05 277.35 358.45 277.35 358.45 261.85 Z"/>
</g>
</defs>

<g transform="matrix( 9.000396728515625, 0, 0, 9.000396728515625, 0,0) ">
<g transform="matrix( 1, 0, 0, 1, 0,0) ">
<use xlink:href="#pop_0_Layer5_0_FILL"/>
</g>

<g transform="matrix( 1, 0, 0, 1, 0,0) ">
<use xlink:href="#pop_0_Layer4_0_FILL"/>
</g>

<g transform="matrix( 1, 0, 0, 1, 0,0) ">
<use xlink:href="#pop_0_Layer3_0_FILL"/>
</g>

<g transform="matrix( 1, 0, 0, 1, 0,0) ">
<use xlink:href="#pop_0_Layer2_0_FILL"/>
</g>

<g transform="matrix( 1, 0, 0, 1, 0,0) ">
<use xlink:href="#pop_0_Layer1_0_FILL"/>
</g>

<g transform="matrix( 1, 0, 0, 1, 0,0) ">
<use xlink:href="#pop_0_Layer0_0_FILL"/>
</g>
</g>

<g transform="matrix( 1, 0, 0, 1, -334.2,-243.1) ">
<use xlink:href="#Layer0_0_MEMBER_1_FILL"/>
</g>
</svg>
