
<svg xmlns="http://www.w3.org/2000/svg" version="1.1" xmlns:xlink="http://www.w3.org/1999/xlink" preserveAspectRatio="none" x="0px" y="0px" width="300px" height="100px" viewBox="0 0 300 100">
<defs>
<g id="Layer2_0_FILL">
<path fill="#000000" fill-opacity="0.5019607843137255" stroke="none" d="
M 300 49.2
Q 300 28.8 285.55 14.4 271.2 0 250.8 0
L 49.2 0
Q 28.8 0 14.35 14.4 0 28.8 0 49.2 0 69.6 14.35 84 28.8 98.4 49.2 98.4
L 127.95 98.4
Q 128.15 98.5 128.4 98.5 128.6650390625 98.5 128.9 98.4
L 250.8 98.4
Q 271.2 98.4 285.55 84 300 69.6 300 49.2 Z"/>
</g>

<g id="pop_0_Layer5_0_FILL">
<path fill="#0C0A80" fill-opacity="0.2" stroke="none" d="
M 7.25 6.1
Q 7.75 5.2 7.85 4.45 7.85 4.3 7.85 4 7.7 2.15 6.05 1.6 4.15 1.1 3 2.6 1.9 4.15 3.45 5.9 4.7 7.3 2.95 7.8 3.1 7.95 3.7 7.95 3.75 7.95 3.85 7.95 4.5 8 5.5 7.6 6.7 7 7.25 6.1 Z"/>
</g>

<g id="pop_0_Layer4_0_FILL">
<path fill="#0C0A80" fill-opacity="0.2" stroke="none" d="
M 4.85 5.25
Q 4.85 4.4 4.25 3.75 3.65 3.15 2.8 3.15 1.95 3.15 1.35 3.75 0.7 4.4 0.7 5.25 0.7 6.1 1.35 6.7 1.95 7.3 2.8 7.3 3.65 7.3 4.25 6.7 4.85 6.1 4.85 5.25 Z"/>
</g>

<g id="pop_0_Layer3_0_FILL">
<path fill="#0C0A80" fill-opacity="0.2" stroke="none" d="
M 7.05 2.25
Q 7.05 1.6 6.6 1.15 6.15 0.7 5.5 0.7 4.85 0.7 4.4 1.15 3.95 1.6 3.95 2.25 3.95 2.9 4.4 3.35 4.85 3.8 5.5 3.8 6.15 3.8 6.6 3.35 7.05 2.9 7.05 2.25 Z"/>
</g>

<g id="pop_0_Layer2_0_FILL">
<path fill="#FFFFFF" fill-opacity="0.30196078431372547" stroke="none" d="
M 8.2 4.1
Q 8.2 2.4 7 1.2 5.8 0 4.1 0 2.4 0 1.2 1.2 0 2.4 0 4.1 0 5.8 1.2 7 2.4 8.2 4.1 8.2 5.8 8.2 7 7 8.2 5.8 8.2 4.1 Z"/>
</g>

<g id="pop_0_Layer1_0_FILL">
<path fill="#FFFFFF" fill-opacity="0.5019607843137255" stroke="none" d="
M 2.1 6.2
Q 3.7 5.95 2.65 3.7 1.9 1.2 4.2 0.3 3.65 0.35 3 0.55 1.7 1.1 1.1 1.9 0.5 2.75 0.4 3.5 0.35 3.65 0.35 3.95 0.4 6.2 2.1 6.2 Z"/>
</g>

<g id="pop_0_Layer0_0_FILL">
<path fill="#FFFFFF" fill-opacity="0.5019607843137255" stroke="none" d="
M 6.9 1.85
Q 6.9 1.45 6.65 1.2 6.35 0.9 6 0.9 5.6 0.9 5.35 1.2 5.05 1.45 5.05 1.85 5.05 2.2 5.35 2.5 5.6 2.75 6 2.75 6.35 2.75 6.65 2.5 6.9 2.2 6.9 1.85 Z"/>
</g>

<g id="Layer2_1_MEMBER_1_FILL">
<path fill="#FFFFFF" stroke="none" d="
M 73.95 39.9
Q 73.95 29.85 66.9 22.8 66.85 22.75 66.8 22.7 59.75 15.7 49.75 15.7 39.7 15.7 32.65 22.8 25.55 29.85 25.55 39.9 25.55 49.9 32.55 56.95 32.6 57 32.65 57.05 33.85 58.25 35.15 59.25
L 35.1 80.85
Q 35.1 82.1 36 83 36.85 83.85 38.1 83.85 39.35 83.85 40.25 83
L 49.75 73.5 59.3 83.05
Q 60.15 83.9 61.4 83.9 62.65 83.9 63.55 83.05 64.4 82.15 64.4 80.9
L 64.4 59.25
Q 65.7 58.2 66.9 57.05 73.95 49.95 73.95 39.9 Z"/>
</g>

<g id="Layer2_1_MEMBER_1_MEMBER_0_FILL">
<path fill="#B84F4F" stroke="none" d="
M 38.15 53.65
L 38.1 80.85 49.65 69.35 49.65 42.15 38.15 53.65 Z"/>

<path fill="#A12C2C" stroke="none" d="
M 49.75 42.05
L 49.65 42.15 49.65 69.35 49.75 69.25 61.4 80.9 61.4 53.7 49.75 42.05 Z"/>
</g>

<g id="Layer2_1_MEMBER_1_MEMBER_1_FILL">
<path fill="#FFCC00" stroke="none" d="
M 58.95 30.55
Q 55.15 26.8 49.75 26.8 44.25 26.8 40.45 30.6 36.6 34.45 36.6 39.9 36.6 45.3 40.35 49.1
L 58.95 30.55 Z"/>

<path fill="#C59E00" stroke="none" d="
M 59 30.6
L 58.95 30.55 40.35 49.1
Q 40.4 49.15 40.45 49.2 44.25 53 49.75 53 55.2 53 59 49.2 62.85 45.35 62.85 39.9 62.85 34.45 59 30.6
M 64.65 24.8
Q 58.5 18.7 49.75 18.7 40.95 18.7 34.75 24.9 28.55 31.1 28.55 39.9 28.55 48.65 34.65 54.8
L 40.35 49.1
Q 36.6 45.3 36.6 39.9 36.6 34.45 40.45 30.6 44.25 26.8 49.75 26.8 55.15 26.8 58.95 30.55
L 64.65 24.8 Z"/>

<path fill="#957800" stroke="none" d="
M 58.95 30.55
L 59 30.6
Q 62.85 34.45 62.85 39.9 62.85 45.35 59 49.2 55.2 53 49.75 53 44.25 53 40.45 49.2 40.4 49.15 40.35 49.1
L 34.65 54.8
Q 34.7 54.85 34.75 54.9 40.95 61.1 49.75 61.1 58.55 61.1 64.75 54.9 70.95 48.7 70.95 39.9 70.95 31.1 64.75 24.9 64.7 24.85 64.65 24.8
L 58.95 30.55 Z"/>
</g>

<g id="Layer1_0_FILL">
<path fill="#FFFFFF" stroke="none" d="
M 237.45 69.6
Q 239.45 69.75 239.3 67.6
L 239.3 59.25 229 59.25 229 69.6 237.45 69.6
M 237.4 67.75
Q 237.4 68.4 236.8 68.4
L 230.9 68.4 230.9 60.5 237.4 60.5 237.4 67.75
M 233.05 60.8
L 233.05 61.45 231.2 61.45 231.2 62.5 233.05 62.5 233.05 63.05 231.5 63.05 231.5 64.1 233.05 64.1 233.05 64.7 231.15 64.7 231.15 65.8 233.05 65.8 233.05 68.15 234.8 68.15 234.8 65.8 235.65 65.8 235.65 66.3
Q 235.7 66.55 235.4 66.55
L 235.15 66.55 235.15 67.6 235.9 67.6
Q 237.2 67.7 237.1 66.35
L 237.1 64.7 234.8 64.7 234.8 64.1 236.8 64.1 236.8 63.05 234.8 63.05 234.8 62.5 237.1 62.5 237.1 61.45 234.8 61.45 234.8 60.8 233.05 60.8
M 227.55 69.75
L 227.55 68.4
Q 223.55 65.15 222.9 59.05
L 220.65 59.05
Q 220.85 60.4 221.1 61.55 220.05 65.55 216.75 68.45
L 216.75 69.8
Q 220.95 67.45 222.15 64.5 223.45 67.5 227.55 69.75
M 211.3 65.55
L 211.3 64.8 209.1 64.8 209.1 65.55 204.8 65.55 204.8 66.85 208.9 66.85
Q 208.2 68.3 204.75 68.65
L 204.75 69.75
Q 208.3 69.7 210.2 68.25 211.9 69.55 215.55 69.75
L 215.55 68.65
Q 212.05 68.15 211.5 66.85
L 215.5 66.85 215.5 65.55 211.3 65.55
M 211.3 61
L 211.3 59 209.1 59 209.1 61 205.1 61 205.1 62.3 206.8 62.3
Q 206.25 63.5 205 64.05
L 205 65.2
Q 207.8 64.6 208.9 62.3
L 209.1 62.3 209.1 64.55 211.3 64.55 211.3 62.3 211.4 62.3
Q 212.5 64.6 215.3 65.2
L 215.3 64.05
Q 213.95 63.45 213.5 62.3
L 215.3 62.3 215.3 61 211.3 61
M 205.9 59.3
Q 206.05 60.2 206.45 60.75
L 208.35 60.75
Q 207.95 60 207.9 59.3
L 205.9 59.3
M 213.85 60.75
Q 214.3 60.2 214.4 59.3
L 212.4 59.3
Q 212.35 60 211.95 60.75
L 213.85 60.75
M 196.1 61.8
L 196.75 61.8
Q 196.85 65.2 195.8 67.25
L 195.8 68.75
Q 196.75 67.95 197.3 66.95
L 197.3 67.75 198.6 67.75 198.6 69.8 200.55 69.8 200.55 67.75 201.8 67.75 201.8 66.9
Q 202.35 67.8 203.4 68.75
L 203.4 67.25
Q 202.3 65.2 202.4 61.8
L 203.15 61.8 203.15 60.5 200.55 60.5 200.55 59.05 198.6 59.05 198.6 60.5 196.1 60.5 196.1 61.8
M 198.4 61.8
L 198.6 61.8 198.6 66.55 197.55 66.55
Q 198.35 64.95 198.4 61.8
M 200.55 61.8
L 200.8 61.8
Q 200.8 65.1 201.6 66.55
L 200.55 66.55 200.55 61.8
M 195.55 61.75
Q 196.05 60.8 196.45 59.05
L 194.5 59.05
Q 194 61.7 192.65 62.55
L 192.65 63.75
Q 192.75 63.7 193 63.65 193.45 63.5 193.65 63.45
L 193.65 69.8 195.55 69.8 195.55 61.75
M 184.75 59.7
L 184.75 61 185.3 61 185.3 64.55 187.2 64.55 187.2 65.15 184.65 65.15 184.65 66.45 185.55 66.45
Q 185.4 67.8 184.65 68.45
L 184.65 69.65
Q 186.8 68.75 187.1 66.45
L 187.2 66.45 187.2 69.8 188.95 69.8 188.95 66.45 189 66.45
Q 189.25 68.75 191.5 69.65
L 191.5 68.5
Q 190.55 67.7 190.5 66.45
L 191.55 66.45 191.55 65.15 188.95 65.15 188.95 64.55 189.1 64.55
Q 190.95 64.6 190.85 62.9
L 190.85 61 191.5 61 191.5 59.7 190.85 59.7 190.85 58.95 189.05 58.95 189.05 59.7 187.1 59.7 187.1 58.95 185.3 58.95 185.3 59.7 184.75 59.7
M 187.1 61.55
L 187.1 61 189.05 61 189.05 61.55 187.1 61.55
M 189.05 62.8
Q 189.1 63.35 188.55 63.3
L 187.1 63.3 187.1 62.7 189.05 62.7 189.05 62.8
M 182.95 60.4
L 182.4 60.4 182.4 59.05 180.95 59.05 180.95 60.4 180.6 60.4 180.6 61.65 180.95 61.65 180.95 63.85
Q 180.95 66.35 181.75 67.65 181.7 67.7 181.55 67.85 181.1 68.3 180.75 68.55
L 180.75 69.8
Q 181.9 69.1 182.6 68.6 183.35 69.1 184.45 69.8
L 184.45 68.55
Q 184.1 68.3 183.65 67.85 183.55 67.7 183.5 67.65 184.4 66.35 184.4 63.85
L 184.4 61.65 184.65 61.65 184.65 60.4 184.4 60.4 184.4 59.05 182.95 59.05 182.95 60.4
M 182.4 61.65
L 182.95 61.65 182.95 63.9
Q 182.95 65.35 182.65 66.25 182.4 65.45 182.4 63.9
L 182.4 61.65
M 135.7 58.95
L 135.7 60 131.6 60 131.6 66.4
Q 131.65 68 130.75 68.6
L 130.75 69.85
Q 134.05 68.8 133.85 65.8
L 133.85 61.45 141.6 61.45 141.6 60 138.05 60 138.05 58.95 135.7 58.95
M 143.9 65.05
L 143.9 69.55 150.85 69.55
Q 152.6 69.6 152.6 67.75
L 152.6 65.05 143.9 65.05
M 150.55 66.45
L 150.55 67.65
Q 150.6 68.3 150 68.3
L 145.95 68.3 145.95 66.45 150.55 66.45
M 152.95 61.3
L 152.95 59.95 149.5 59.95 149.5 58.95 147.4 58.95 147.4 59.95 146 59.95
Q 146.1 59.55 146.15 59.25
L 144.25 59.25
Q 144.1 60.65 143.25 61.55
L 143.25 62.7
Q 144.75 62.25 145.4 61.3
L 147.4 61.3 147.4 63 142.7 63 142.7 64.35 153.6 64.35 153.6 63 149.5 63 149.5 61.3 152.95 61.3
M 170 63.8
L 170 65.25 176.4 65.25 176.4 63.8 170 63.8
M 164.9 66.8
L 164.9 62.75 155.25 62.75 155.25 64.1 157.85 64.1 157.85 69.8 160.05 69.8 160.05 64.1 162.8 64.1 162.8 66.6
Q 162.8 67.25 162.1 67.25
L 161.3 67.25 161.3 68.6 163.1 68.6
Q 164.9 68.6 164.9 66.8
M 163.35 61.3
L 165.55 61.3 165.55 59.95 163.35 59.95 163.35 59.05 161.35 59.05 161.35 59.95 158.95 59.95 158.95 59.05 156.95 59.05 156.95 59.95 154.7 59.95 154.7 61.3 156.95 61.3 156.95 62.3 158.95 62.3 158.95 61.3 161.35 61.3 161.35 62.3 163.35 62.3 163.35 61.3
M 118.8 67.65
L 118.8 69.05
Q 120.65 69.05 122.45 68.65
L 122.45 67.35
Q 120.8 67.7 118.8 67.65
M 121 61.9
Q 120.9 62.2 120.85 62.3 120.6 62.3 120.25 62.3 121.25 61.1 121.85 59.05
L 120.05 59.05
Q 119.7 60.85 118.75 62.3
L 118.75 63.7
Q 119.6 63.7 120.25 63.65 119.65 64.6 118.85 65.4
L 118.85 66.85
Q 120.95 66.85 122.35 66.55
L 122.35 65.25
Q 121.45 65.45 120.6 65.4 122.35 63.8 122.7 61.65
L 122.7 69.7 124.5 69.7 124.5 61.55 125.1 61.55 125.1 61.75
Q 125.15 64.65 124.65 65.75
L 124.65 67.35
Q 125.55 66.75 126.05 65.55 126.5 66.75 127.4 67.35
L 127.4 65.75
Q 126.95 64.7 126.95 61.75
L 126.95 61.55 127.55 61.55 127.55 67.85
Q 127.55 68.45 127.1 68.4
L 126.6 68.4 126.6 69.65 127.75 69.65
Q 129.4 69.75 129.35 68
L 129.35 60.25 126.95 60.25 126.95 59 125.1 59 125.1 60.25 122.7 60.25 122.7 61.25 121.2 61.25
Q 121.15 61.5 121 61.9
M 107 66
L 107 67.1 109.85 67.1
Q 110.3 67.7 110.8 68.25 109.15 68.5 107 68.65
L 107 69.6
Q 110.05 69.4 112.05 69.05 113.45 69.85 115.4 69.8 117.55 69.85 117.4 68.1
L 116.05 68.1
Q 116.15 68.7 115.05 68.65 114.65 68.65 114.3 68.6 114.2 68.6 114.15 68.6 115.45 68.2 116.35 67.3
L 114.2 67.3
Q 113.95 67.4 113.35 67.6 112.95 67.7 112.75 67.8 112.4 67.5 112.05 67.1
L 117.25 67.1 117.25 66 114.8 66 114.8 65.6 113.05 65.6 113.05 66 111.2 66
Q 111.2 65.9 111.1 65.8 111.05 65.65 111.05 65.6
L 108.95 65.6
Q 109.1 65.8 109.15 66
L 107 66
M 116.75 60.85
L 112.55 60.85
Q 112.65 60.75 112.7 60.5
L 117.5 60.5 117.5 59.35 106.9 59.35 106.9 60.5 110.6 60.5
Q 110.55 60.75 110.45 60.85
L 107.65 60.85 107.65 65.45 115.2 65.45
Q 116.85 65.55 116.75 63.8
L 116.75 60.85
M 109.75 64.5
L 109.75 64.1 114.8 64.1
Q 114.8 64.55 114.25 64.5
L 109.75 64.5
M 109.75 63.35
L 109.75 63 114.8 63 114.8 63.35 109.75 63.35
M 109.75 61.85
L 114.8 61.85 114.8 62.2 109.75 62.2 109.75 61.85
M 239.4 42.45
L 228.9 42.45 228.9 52.8 237.5 52.8
Q 239.45 52.9 239.4 50.8
L 239.4 42.45
M 231.4 44.95
L 231.4 46.25 232.65 46.25
Q 232.55 48.5 231.4 49.8
L 231.4 51.15
Q 234.25 49.75 234.55 46.25
L 234.55 49.45
Q 234.6 50 234.1 49.95
L 233.75 49.95 233.75 51.15 234.95 51.15
Q 236.65 51.25 236.55 49.45
L 236.55 46.25 237.3 46.25 237.3 50.9
Q 237.35 51.55 236.75 51.5
L 231 51.5 231 43.8 237.3 43.8 237.3 44.95 236.55 44.95 236.55 44.15 234.55 44.15 234.55 44.95 231.4 44.95
M 222.55 45.55
L 222.55 49.35
Q 222.55 51.15 224.1 51.05
L 225.95 51.05
Q 227.5 51.1 227.45 49.5
L 227.45 48.7 225.9 48.7 225.9 49.2
Q 225.95 49.75 225.4 49.7
L 225 49.7
Q 224.4 49.75 224.45 49.15
L 224.45 46.95 225.4 46.95
Q 227.05 47 227.05 45.3
L 227.05 42.7 222.45 42.7 222.45 44 225.15 44 225.15 44.9
Q 225.2 45.6 224.5 45.55
L 222.55 45.55
M 221.95 43.1
L 220.55 43.1 220.55 42.15 218.65 42.15 218.65 43.1 217.05 43.1 217.05 44.4 218.65 44.4 218.65 45.7 216.75 45.7 216.75 47 219.15 47 219.15 50.75
Q 218.9 50.6 218.65 50.3 218.65 50.15 218.65 50
L 218.65 47.7 217.1 47.7 217.1 50.25
Q 217.1 51.3 216.6 51.85
L 216.6 53.1
Q 217.85 52.45 218.25 51.85 219.35 52.9 221.15 52.85
L 227.6 52.85 227.6 51.6 221.85 51.6
Q 221.7 51.6 221.4 51.55 221.1 51.55 221 51.55
L 221 49.65 222.2 49.65 222.2 48.4 221 48.4 221 47 222.3 47 222.3 45.7 220.55 45.7 220.55 44.4 221.95 44.4 221.95 43.1
M 211.25 49.45
L 211.25 48.45 212.85 48.45
Q 214.7 48.45 214.7 46.55
L 214.7 42.65 205.6 42.65 205.6 48.45 209.05 48.45 209.05 49.45 204.7 49.45 204.7 50.85 209.05 50.85 209.05 53 211.25 53 211.25 50.85 215.6 50.85 215.6 49.45 211.25 49.45
M 207.55 44.85
L 207.55 44 212.75 44 212.75 44.85 207.55 44.85
M 207.55 47.05
L 207.55 46.2 212.75 46.2 212.75 46.45
Q 212.75 47.05 212.1 47.05
L 207.55 47.05
M 203.1 48.1
L 203.1 46.8 201.3 46.8 201.3 44.25 203.4 44.25 203.4 42.9 197.05 42.9
Q 197.1 42.75 197.15 42.55 197.25 42.35 197.25 42.25
L 195.4 42.25
Q 195.4 42.3 195.35 42.45 195.2 42.85 195.1 43.1 194.35 42.5 193.15 42.2
L 193.15 43.4
Q 193.9 43.85 194.25 44.6 193.75 45.2 192.75 45.7
L 192.75 46.9
Q 193.8 46.6 194.55 46.25
L 194.55 47.3
Q 193.8 48.3 192.75 48.8
L 192.75 50.05
Q 193.8 49.8 194.55 49.4
L 194.55 51.1
Q 194.6 51.6 194.05 51.6
L 193.4 51.6 193.4 52.85 194.8 52.85
Q 196.5 52.9 196.45 51.3
L 196.45 45.85
Q 196.45 45.15 196.3 44.6 196.7 43.9 197.05 42.95
L 197.05 44.25 199.1 44.25 199.1 46.8 197.1 46.8 197.1 48.1 199.1 48.1 199.1 51.15 196.75 51.15 196.75 52.4 203.6 52.4 203.6 51.15 201.3 51.15 201.3 48.1 203.1 48.1
M 190.95 44.7
L 184.35 44.7 184.35 50.3
Q 184.4 51.4 183.75 51.85
L 183.75 53
Q 186.35 52.25 186.15 50
L 186.15 46.85
Q 186.5 49.3 187 50.1 186.6 50.8 186.05 51.45
L 186.05 52.65
Q 187.2 51.75 187.65 51.15 188.05 51.75 189.2 52.65
L 189.2 51.45
Q 188.7 50.8 188.3 50.1 188.9 48.9 189.1 46.85
L 189.1 50
Q 188.9 52.25 191.55 53
L 191.55 51.85
Q 190.9 51.4 190.95 50.3
L 190.95 44.7
M 186.15 46.3
L 186.15 45.9 189.1 45.9 189.1 46.3 187.95 46.3
Q 187.9 47.6 187.65 48.5 187.35 47.6 187.3 46.3
L 186.15 46.3
M 180.75 45.85
Q 181.45 45.95 182 46.1
L 182 47.55
Q 181.5 47.75 180.8 47.75
L 180.8 49.4
Q 181.4 49.35 182 49.25
L 182 49.6
Q 182.05 50.95 181.25 51.8
L 181.25 53
Q 184.1 52.05 183.9 49
L 183.9 44.15 191.7 44.15 191.7 42.9 188.3 42.9 188.3 42.2 185.85 42.2 185.85 42.9 182 42.9 182 44.4
Q 181.85 44.35 181.9 44.4 181.25 44.2 180.75 44.2
L 180.75 45.85
M 170 47
L 170 48.45 176.4 48.45 176.4 47 170 47
M 165.25 48.65
L 165.25 47.35 161.2 47.35
Q 161.3 47.25 161.35 47.1 161.5 46.95 161.55 46.9
L 160.55 46.9
Q 163 46 164.75 44.05
L 164.75 42.75 160.15 42.75
Q 160.35 42.5 160.5 42.25
L 158.2 42.25
Q 157.15 43.7 155.1 44.2
L 155.1 45.4
Q 156 45.2 156.35 45.1 156.6 45.05 156.7 45.05
L 156.7 45.85
Q 157.35 45.9 158.1 46.15 156.25 46.55 154.95 46.7
L 154.95 47.95
Q 157.1 47.75 158.7 47.4 157.55 48.45 155.55 48.9
L 155.55 50
Q 156.45 49.95 157.2 49.75
L 157.2 50.5
Q 158.4 50.65 159.1 50.9 157.55 51.5 154.9 51.85
L 154.9 53
Q 162.2 52.5 165.25 48.65
M 160 45.05
Q 158.9 44.7 157.85 44.65 158.4 44.4 158.85 44.1
L 162.05 44.1
Q 161.15 44.9 160 45.45
L 160 45.05
M 158.55 49.25
Q 159.15 49.05 159.75 48.65
L 162.5 48.65
Q 161.8 49.4 160.55 50.25
L 160.55 49.7
Q 159.4 49.35 158.55 49.25
M 149.65 45.4
L 147.8 45.4
Q 148 48.8 148.9 51.4
L 147.2 51.4 147.2 52.6 153.65 52.6 153.65 51.4 152.1 51.4
Q 152.95 48.85 153.25 45.4
L 151.4 45.4
Q 151.3 48.5 150.6 51.4
L 150.45 51.4
Q 149.75 48.5 149.65 45.4
M 143.95 42.85
L 142.65 42.85
Q 142.85 44.45 143.2 45.2
L 144.3 45.2 144.3 45.6 142.8 45.6 142.8 46.9 144.1 46.9
Q 143.55 48.7 142.75 50.1
L 142.75 51.75
Q 143.65 50.95 144.3 50
L 144.3 53 146.1 53 146.1 49.5
Q 146.55 50.05 147.25 50.75
L 147.25 49
Q 146.45 47.95 146.1 46.9
L 147.5 46.9 147.5 45.6 146.1 45.6 146.1 45.2 147.1 45.2
Q 147.55 44.3 147.65 42.85
L 146.4 42.85
Q 146.4 42.9 146.4 43.05 146.3 44.25 146.1 44.85
L 146.1 42.2 144.3 42.2 144.3 45.05
Q 144 44.15 143.95 42.85
M 151.55 42.35
L 149.5 42.35 149.5 43.4 147.65 43.4 147.65 44.75 153.45 44.75 153.45 43.4 151.55 43.4 151.55 42.35
M 141.4 45.5
L 141.4 44.45
Q 139.5 43.85 138.7 42.35
L 136.55 42.35
Q 137.85 45.15 141.4 45.5
M 130.7 47.75
L 130.7 49.05
Q 131.55 48.8 132.2 48.6
L 132.2 52.7 138.4 52.7
Q 140.15 52.75 140.1 50.9
L 140.1 48.6
Q 140.8 48.8 141.6 49.05
L 141.6 47.75
Q 138.6 46.6 137.35 44.35
L 134.95 44.35
Q 133.7 46.6 130.7 47.75
M 133.55 48.05
Q 135.05 47.4 136.15 46.25 137.3 47.4 138.75 48.05
L 133.55 48.05
M 134.2 49.35
L 138.1 49.35 138.1 50.85
Q 138.1 51.5 137.6 51.5
L 134.2 51.5 134.2 49.35
M 130.9 44.45
L 130.9 45.5
Q 134.45 45.15 135.75 42.35
L 133.6 42.35
Q 132.8 43.85 130.9 44.45
M 126.6 43.15
L 124.8 43.15 124.8 50.7 126.6 50.7 126.6 43.15
M 124.45 42.3
Q 123.4 42.55 122.2 42.55
L 118.9 42.55 118.9 43.95 120.75 43.95 120.75 45.05 118.8 45.05 118.8 46.4 120.7 46.4
Q 120.1 48.35 118.75 50.25
L 118.75 51.9
Q 119.95 51.05 120.75 49.95
L 120.75 53 122.7 53 122.7 49.25
Q 123.3 50 124.35 50.7
L 124.35 49
Q 123.25 47.9 122.7 46.4
L 124.5 46.4 124.5 45.05 122.7 45.05 122.7 43.95
Q 123.8 43.85 124.45 43.7
L 124.45 42.3
M 129.2 42.3
L 127.35 42.3 127.35 51.2
Q 127.4 51.6 126.95 51.6
L 126.15 51.6 126.15 52.85 127.7 52.85
Q 129.2 52.85 129.2 51.45
L 129.2 42.3
M 109.65 45.5
L 109.65 46.8 111.7 46.8
Q 111.7 47 111.65 47.45 111.65 47.9 111.6 48.1
L 109.85 48.1 109.85 49.4 111.35 49.4
Q 111.05 50.45 110.3 51.45
L 110.3 53
Q 112.6 51.4 113.15 49.4
L 115.15 49.4
Q 117.05 49.45 117.05 47.65
L 117.05 46.8 117.7 46.8 117.7 45.5 117.05 45.5 117.05 42.65 110.35 42.65 110.35 44 111.75 44 111.75 44.3
Q 111.75 44.9 111.75 45.5
L 109.65 45.5
M 115.15 44
L 115.15 45.5 113.7 45.5
Q 113.7 44.75 113.7 44
L 115.15 44
M 113.45 48.1
Q 113.55 47.5 113.6 46.8
L 115.15 46.8 115.15 47.4
Q 115.15 48.15 114.55 48.1
L 113.45 48.1
M 110.4 42.25
L 108.4 42.25
Q 107.95 44.9 106.6 45.75
L 106.6 46.95
Q 107.1 46.85 107.5 46.7
L 107.5 52.95 109.45 52.95 109.45 44.95
Q 110 44 110.4 42.25
M 194.45 16.15
L 194.45 13.35 181.7 13.35
Q 181.8 13.05 182 12.5 182.1 12.1 182.2 11.85
L 177.95 11.85
Q 176.95 15.95 173.95 17.85
L 173.95 20.35
Q 175.35 20 176.4 19.45
L 176.4 26 173.55 26 173.55 28.7 183.8 28.7 183.8 33.4 188.1 33.4 188.1 28.7 195.2 28.7 195.2 26 188.1 26 188.1 21.6 193.9 21.6 193.9 18.85 188.1 18.85 188.1 16.15 194.45 16.15
M 183.8 16.15
L 183.8 18.85 177.5 18.85
Q 179.3 17.75 180.4 16.15
L 183.8 16.15
M 180.3 21.6
L 183.8 21.6 183.8 26 180.3 26 180.3 21.6
M 163.8 33.1
Q 171.3 33.1 171.3 27.1 171.1 23.1 166.5 22.25 170.85 21.3 170.75 17.45 170.55 12.4 163.6 12.2 157.25 12.3 156 18.1
L 160.25 18.1
Q 160.6 15.2 163.5 15.1 166.25 15.2 166.35 17.85 166.35 20.75 162.2 20.75
L 160.4 20.75 160.4 24.2 162.3 24.2
Q 166.7 24.2 166.7 27.1 166.6 30.2 162.75 30.3 159.2 30.3 156.5 27.1
L 156.5 30.4
Q 159.2 33.2 163.8 33.1
M 152.45 12.5
L 147.95 12.5
Q 146.2 16.45 141.5 18.4
L 141.5 20.95
Q 145.35 20.35 147.95 18.5
L 147.95 32.75 152.45 32.75 152.45 12.5
M 131.9 12.1
Q 124.3 12.5 124.15 22.7 124.25 32.95 131.9 33.1 139.9 33.2 139.8 22.7 139.7 12.2 131.9 12.1
M 132 15
Q 135.3 14.85 135.2 22.8 135.2 30.4 132 30.4 128.65 30.4 128.65 22.8 128.65 14.95 132 15
M 122.1 32.75
L 122.1 30.1 111.7 30.1
Q 113.3 27.5 117.6 24.95 122.45 22.05 122.2 18 121.9 12.4 115.05 12.2 108.3 12.3 107.1 19.05
L 111.3 19.05
Q 111.8 15.2 114.8 15.1 117.7 15 117.7 18.2 117.95 20.25 113.1 23.75 109.15 26.65 107.2 30
L 107.2 32.75 122.1 32.75 Z"/>
</g>
</defs>

<g transform="matrix( 1, 0, 0, 1, 0,0) ">
<use xlink:href="#Layer2_0_FILL"/>
</g>

<g transform="matrix( 10.800430297851562, 0, 0, 10.800430297851562, 5.5,4.55) ">
<g transform="matrix( 1, 0, 0, 1, 0,0) ">
<use xlink:href="#pop_0_Layer5_0_FILL"/>
</g>

<g transform="matrix( 1, 0, 0, 1, 0,0) ">
<use xlink:href="#pop_0_Layer4_0_FILL"/>
</g>

<g transform="matrix( 1, 0, 0, 1, 0,0) ">
<use xlink:href="#pop_0_Layer3_0_FILL"/>
</g>

<g transform="matrix( 1, 0, 0, 1, 0,0) ">
<use xlink:href="#pop_0_Layer2_0_FILL"/>
</g>

<g transform="matrix( 1, 0, 0, 1, 0,0) ">
<use xlink:href="#pop_0_Layer1_0_FILL"/>
</g>

<g transform="matrix( 1, 0, 0, 1, 0,0) ">
<use xlink:href="#pop_0_Layer0_0_FILL"/>
</g>
</g>

<g transform="matrix( 1, 0, 0, 1, 0,0) ">
<use xlink:href="#Layer2_1_MEMBER_1_FILL"/>
</g>

<g transform="matrix( 1, 0, 0, 1, 0,0) ">
<use xlink:href="#Layer2_1_MEMBER_1_MEMBER_0_FILL"/>
</g>

<g transform="matrix( 1, 0, 0, 1, 0,0) ">
<use xlink:href="#Layer2_1_MEMBER_1_MEMBER_1_FILL"/>
</g>

<g transform="matrix( 1, 0, 0, 1, 0,0) ">
<use xlink:href="#Layer1_0_FILL"/>
</g>
</svg>
