
<svg xmlns="http://www.w3.org/2000/svg" version="1.1" xmlns:xlink="http://www.w3.org/1999/xlink" preserveAspectRatio="none" x="0px" y="0px" width="300px" height="100px" viewBox="0 0 300 100">
<defs>
<g id="Layer2_0_FILL">
<path fill="#000000" fill-opacity="0.5019607843137255" stroke="none" d="
M 300 49.2
Q 300 28.8 285.55 14.4 271.2 0 250.8 0
L 49.2 0
Q 28.8 0 14.35 14.4 0 28.8 0 49.2 0 69.6 14.35 84 28.8 98.4 49.2 98.4
L 127.95 98.4
Q 128.15 98.5 128.4 98.5 128.6650390625 98.5 128.9 98.4
L 250.8 98.4
Q 271.2 98.4 285.55 84 300 69.6 300 49.2 Z"/>
</g>

<g id="pop_0_Layer5_0_FILL">
<path fill="#0C0A80" fill-opacity="0.2" stroke="none" d="
M 7.25 6.1
Q 7.75 5.2 7.85 4.45 7.85 4.3 7.85 4 7.7 2.15 6.05 1.6 4.15 1.1 3 2.6 1.9 4.15 3.45 5.9 4.7 7.3 2.95 7.8 3.1 7.95 3.7 7.95 3.75 7.95 3.85 7.95 4.5 8 5.5 7.6 6.7 7 7.25 6.1 Z"/>
</g>

<g id="pop_0_Layer4_0_FILL">
<path fill="#0C0A80" fill-opacity="0.2" stroke="none" d="
M 4.85 5.25
Q 4.85 4.4 4.25 3.75 3.65 3.15 2.8 3.15 1.95 3.15 1.35 3.75 0.7 4.4 0.7 5.25 0.7 6.1 1.35 6.7 1.95 7.3 2.8 7.3 3.65 7.3 4.25 6.7 4.85 6.1 4.85 5.25 Z"/>
</g>

<g id="pop_0_Layer3_0_FILL">
<path fill="#0C0A80" fill-opacity="0.2" stroke="none" d="
M 7.05 2.25
Q 7.05 1.6 6.6 1.15 6.15 0.7 5.5 0.7 4.85 0.7 4.4 1.15 3.95 1.6 3.95 2.25 3.95 2.9 4.4 3.35 4.85 3.8 5.5 3.8 6.15 3.8 6.6 3.35 7.05 2.9 7.05 2.25 Z"/>
</g>

<g id="pop_0_Layer2_0_FILL">
<path fill="#FFFFFF" fill-opacity="0.30196078431372547" stroke="none" d="
M 8.2 4.1
Q 8.2 2.4 7 1.2 5.8 0 4.1 0 2.4 0 1.2 1.2 0 2.4 0 4.1 0 5.8 1.2 7 2.4 8.2 4.1 8.2 5.8 8.2 7 7 8.2 5.8 8.2 4.1 Z"/>
</g>

<g id="pop_0_Layer1_0_FILL">
<path fill="#FFFFFF" fill-opacity="0.5019607843137255" stroke="none" d="
M 2.1 6.2
Q 3.7 5.95 2.65 3.7 1.9 1.2 4.2 0.3 3.65 0.35 3 0.55 1.7 1.1 1.1 1.9 0.5 2.75 0.4 3.5 0.35 3.65 0.35 3.95 0.4 6.2 2.1 6.2 Z"/>
</g>

<g id="pop_0_Layer0_0_FILL">
<path fill="#FFFFFF" fill-opacity="0.5019607843137255" stroke="none" d="
M 6.9 1.85
Q 6.9 1.45 6.65 1.2 6.35 0.9 6 0.9 5.6 0.9 5.35 1.2 5.05 1.45 5.05 1.85 5.05 2.2 5.35 2.5 5.6 2.75 6 2.75 6.35 2.75 6.65 2.5 6.9 2.2 6.9 1.85 Z"/>
</g>

<g id="Layer2_1_MEMBER_1_FILL">
<path fill="#FFFFFF" stroke="none" d="
M 61.1 24.7
Q 61.1 24.65 61.1 24.6 61.1 24.15 61.1 23.7 61.1 23.65 61.1 23.55 61.1 22.65 60.4 21.95 59.7 21.25 58.8 21.25
L 24.4 21.25
Q 23.4 21.25 22.75 21.95 22.7 21.95 22.7 22 22.05 22.7 22.05 23.55 22.05 23.65 22.05 23.7 22.05 24.2 22.1 24.8 22.1 24.95 22.1 25.1 20.45 25.85 19.05 27.25 15.9 30.4 15.9 34.8 15.9 39.15 19.05 42.3
L 19.05 42.35
Q 22.2 45.45 26.6 45.45 27.7 45.45 28.8 45.25
L 28.85 45.25
Q 32 49.25 35.85 50.9 36.7 53.65 36.95 56.75 35.4 59.45 33.25 61.75 32.35 62.75 31.25 63.7
L 31.25 63.75
Q 31.2 63.75 31.2 63.8 30.45 64.25 30.3 65.1 29.7 67.6 29.05 70.05 29.05 70.15 29.05 70.25 28.95 70.75 29.1 71.35 29.15 71.45 29.2 71.5 29.4 72.1 30.05 72.55 30.6 72.95 31.3 72.95
L 51.85 72.95
Q 52.5 72.95 53.05 72.6 53.1 72.55 53.2 72.55 53.8 72.1 54 71.5 54 71.45 54.05 71.35 54.25 70.7 54.05 70.05 53.5 67.7 52.9 65.25 52.8 64.3 52.05 63.8 51.95 63.7 51.8 63.65 50.75 62.7 49.85 61.75 47.75 59.45 46.3 56.75 46.45 53.7 47.35 50.9 51.1 49.3 54.35 45.35 54.35 45.3 54.4 45.25 55.4 45.45 56.45 45.45 60.8 45.45 63.95 42.3 67.05 39.15 67.05 34.8 67.05 30.4 64 27.25 62.65 25.9 61.1 25.2 61.1 24.95 61.1 24.7 Z"/>
</g>

<g id="Layer2_1_MEMBER_1_MEMBER_0_FILL">
<path fill="#957800" stroke="none" d="
M 50.65 65.5
L 50.6 65.5 41.5 65.5 41.5 70.5 51.85 70.5
Q 51.25 68.05 50.65 65.5 Z"/>

<path fill="#C59E00" stroke="none" d="
M 32.5 65.5
Q 31.95 68.05 31.3 70.5
L 41.5 70.5 41.5 65.5 32.55 65.5 32.5 65.5
M 58.8 23.45
L 41.5 23.45 41.5 65.5 50.6 65.5
Q 49.3 64.4 48.2 63.2 45.65 60.45 43.9 57.15 44.05 52.85 45.45 49.1
L 45.4 49.1
Q 49.3 47.8 52.55 43.75 53 43.2 53.45 42.5 54.8 43 56.45 43 59.9 43 62.35 40.55 64.8 38.15 64.8 34.7 64.8 31.2 62.35 28.75 60.7 27.2 58.7 26.65 58.75 25.6 58.8 24.5 58.8 24.05 58.8 23.6 58.8 23.55 58.8 23.45
M 58.45 29.15
Q 59.65 29.6 60.6 30.5 62.35 32.25 62.35 34.7 62.35 37.15 60.6 38.85 58.9 40.55 56.45 40.55 55.55 40.55 54.75 40.35 57.6 35.35 58.45 29.15 Z"/>

<path fill="#FFCC00" stroke="none" d="
M 24.4 23.45
Q 24.4 23.55 24.4 23.6 24.4 24.05 24.4 24.5 24.4 25.55 24.45 26.6 22.35 27.1 20.7 28.75 18.25 31.2 18.25 34.7 18.25 38.15 20.7 40.55 23.15 43 26.6 43 28.25 43 29.75 42.45 30.15 43.1 30.65 43.7 33.85 47.8 37.8 49.1
L 37.7 49.1
Q 39.1 52.85 39.25 57.15 37.55 60.45 34.95 63.2 33.9 64.4 32.55 65.5
L 41.5 65.5 41.5 23.45 24.4 23.45
M 20.7 34.7
Q 20.7 32.25 22.4 30.5 23.4 29.5 24.7 29.1 25.6 35.35 28.4 40.3 27.55 40.55 26.6 40.55 24.15 40.55 22.4 38.85 20.7 37.15 20.7 34.7 Z"/>
</g>

<g id="Layer2_1_MEMBER_2_FILL">
<path fill="#FFFFFF" stroke="none" d="
M 78.95 35.25
Q 77.6 33.85 76.05 33.15 76.05 32.9 76.05 32.65
L 76.05 32.6
Q 76.05 32.1 76.05 31.65
L 76.05 31.55
Q 76.05 30.65 75.35 29.9 74.65 29.2 73.75 29.2
L 39.35 29.2
Q 38.35 29.2 37.7 29.9 37.65 29.9 37.65 29.95 37 30.65 37 31.55
L 37 31.65
Q 37 32.2 37.05 32.8 37.05 32.9 37.05 33.1 35.4 33.85 34 35.25 30.85 38.4 30.85 42.8 30.85 47.15 34 50.25
L 34 50.3
Q 37.15 53.4 41.55 53.4 42.65 53.4 43.75 53.2
L 43.8 53.25
Q 46.95 57.25 50.8 58.9 51.65 61.65 51.9 64.75 50.35 67.4 48.2 69.75 47.3 70.75 46.2 71.7
L 46.2 71.75
Q 46.15 71.75 46.15 71.8 45.4 72.25 45.25 73.1 44.65 75.6 44 78.05 44 78.15 44 78.2 43.9 78.75 44.05 79.35 44.1 79.4 44.15 79.5 44.35 80.1 45 80.55 45.55 80.9 46.25 80.9
L 66.8 80.9
Q 67.45 80.9 68 80.6 68.05 80.55 68.15 80.55 68.75 80.1 68.95 79.5 68.95 79.4 69 79.35 69.2 78.65 69 78.05 68.45 75.7 67.85 73.25 67.75 72.25 67 71.8 66.9 71.7 66.75 71.65 65.7 70.7 64.8 69.75 62.7 67.4 61.25 64.7 61.4 61.7 62.3 58.9 66.05 57.3 69.3 53.35 69.3 53.3 69.35 53.25 70.35 53.4 71.4 53.4 75.75 53.4 78.9 50.25 82 47.15 82 42.8 82 38.4 78.95 35.25 Z"/>
</g>

<g id="Layer2_1_MEMBER_2_MEMBER_0_FILL">
<path fill="#C59E00" stroke="none" d="
M 47.2 73.55
L 47.15 73.55
Q 46.6 76.1 45.95 78.55
L 56.15 78.55 56.15 73.55 47.2 73.55
M 73.45 31.6
L 73.45 31.5 56.15 31.5 56.15 73.55 65.25 73.55
Q 63.95 72.45 62.85 71.25 60.3 68.5 58.55 65.2 58.7 60.9 60.1 57.1
L 60.05 57.1
Q 63.95 55.8 67.2 51.8 67.65 51.2 68.1 50.55 69.45 51.05 71.1 51.05 74.55 51.05 77 48.6 79.45 46.2 79.45 42.75 79.45 39.25 77 36.8 75.35 35.25 73.35 34.7 73.4 33.6 73.45 32.55 73.45 32.05 73.45 31.6
M 77 42.75
Q 77 45.2 75.25 46.9 73.55 48.6 71.1 48.6 70.2 48.6 69.4 48.4 72.25 43.4 73.1 37.2 74.3 37.65 75.25 38.55 77 40.3 77 42.75 Z"/>

<path fill="#957800" stroke="none" d="
M 65.3 73.55
L 65.25 73.55 56.15 73.55 56.15 78.55 66.5 78.55
Q 65.9 76.1 65.3 73.55 Z"/>

<path fill="#FFCC00" stroke="none" d="
M 39.1 34.65
Q 37 35.15 35.35 36.8 32.9 39.25 32.9 42.75 32.9 46.2 35.35 48.6 37.8 51.05 41.25 51.05 42.9 51.05 44.4 50.5 44.8 51.15 45.3 51.75 48.5 55.8 52.45 57.1
L 52.35 57.1
Q 53.75 60.9 53.9 65.2 52.2 68.5 49.6 71.25 48.55 72.45 47.2 73.55
L 56.15 73.55 56.15 31.5 39.05 31.5 39.05 31.6
Q 39.05 32.05 39.05 32.55 39.05 33.55 39.1 34.65
M 43.05 48.35
Q 42.2 48.6 41.25 48.6 38.8 48.6 37.05 46.9 35.35 45.2 35.35 42.75 35.35 40.3 37.05 38.55 38.05 37.5 39.35 37.15 40.25 43.35 43.05 48.35 Z"/>
</g>

<g id="Layer1_0_FILL">
<path fill="#FFFFFF" stroke="none" d="
M 192.85 78.35
L 192.85 76.6
Q 192.05 76.25 190.9 76.2
L 190.9 77.6
Q 191.9 77.75 192.85 78.35
M 194.95 75.8
L 193.2 75.8 193.2 78.55
Q 192.25 79.1 190.75 79.4
L 190.75 81.1
Q 192.15 80.6 193.2 80.1
L 193.2 81.6 194.95 81.6 194.95 75.8
M 198.5 76.1
Q 198.55 75.95 198.6 75.85
L 196.7 75.85
Q 196.25 77.2 195.05 77.65
L 195.05 78.6
Q 195.6 78.55 196 78.4
L 196 79.25
Q 196.7 79.4 197.45 79.7 196.9 80.05 195.55 80.4
L 195.55 81.4 195.05 81.4 195.05 81.7
Q 195.05 81.9 195.05 82.1
L 190.9 82.1 190.9 83.4 194.7 83.4
Q 193.9 85.1 190.75 85.45
L 190.75 86.6
Q 194.65 86.3 196.15 84.6 197.95 86.2 201.55 86.6
L 201.55 85.45
Q 198.3 85 197.6 83.4
L 201.5 83.4 201.5 82.1 197.3 82.1
Q 197.3 81.9 197.3 81.7
L 197.3 81.4 196.1 81.4
Q 200 80.85 201.45 77.65
L 201.45 76.35 198.35 76.35
Q 198.4 76.25 198.5 76.1
M 199.4 77.65
Q 198.7 78.75 198.1 79.25
L 198.1 78.4
Q 197.5 78.2 196.75 78.15 197.2 77.95 197.5 77.65
L 199.4 77.65
M 186.3 82.9
Q 186.25 83.85 185.95 84.65
L 187.65 84.65
Q 188.05 83.95 188.15 82.9
L 186.3 82.9
M 182 82.9
L 180.15 82.9
Q 180.25 83.95 180.65 84.65
L 182.35 84.65
Q 182.05 83.85 182 82.9
M 178.7 79.1
L 178.7 80.4
Q 180 80.1 180.9 79.7
L 180.9 80.4 183.05 80.4 183.05 81.25 179.6 81.25 179.6 82.6 183.05 82.6 183.05 85 178.95 85 178.95 86.25 189.4 86.25 189.4 85 185.25 85 185.25 82.6 188.75 82.6 188.75 81.25 185.25 81.25 185.25 80.4 187.45 80.4 187.45 79.75
Q 188.3 80.1 189.6 80.4
L 189.6 79.1
Q 186.6 77.95 185.3 75.7
L 183 75.7
Q 181.7 77.95 178.7 79.1
M 184.15 77.6
Q 185.1 78.5 186 79.05
L 182.3 79.05
Q 183.2 78.5 184.15 77.6
M 169 83.75
L 167.45 83.75
Q 167.3 85.05 166.6 86.1
L 168.3 86.1
Q 168.85 85.25 169 83.75
M 175.25 83.75
Q 175.75 84.85 175.95 86.1
L 177.7 86.1
Q 177.3 84.75 176.8 83.75
L 175.25 83.75
M 174.05 85.05
Q 174.05 85.4 173.65 85.4
L 171.8 85.4
Q 171.05 85.45 171.1 84.7
L 171.1 83.75 169.3 83.75 169.3 85.1
Q 169.25 86.55 170.8 86.5
L 174.15 86.5
Q 175.55 86.55 175.5 85.3
L 175.5 84.9 174.05 84.9 174.05 85.05
M 172.5 84.8
L 174.55 84.8
Q 174.35 84.2 174 83.75
L 172.05 83.75
Q 172.35 84.2 172.5 84.8
M 175.05 83.5
Q 176.7 83.55 176.65 81.8
L 176.65 79.75 167.7 79.75 167.7 83.5 175.05 83.5
M 174.7 80.75
L 174.7 81.25 169.65 81.25 169.65 80.75 174.7 80.75
M 174.7 82
Q 174.65 82.45 174.1 82.45
L 169.65 82.45 169.65 82 174.7 82
M 177 77.5
L 177 76.25 173.35 76.25 173.35 75.8 171 75.8 171 76.25 167.35 76.25 167.35 77.5 177 77.5
M 177.6 79.4
L 177.6 78.2 175.1 78.2
Q 175.25 77.95 175.35 77.65
L 173.3 77.65
Q 173.3 77.95 173.15 78.2
L 171.2 78.2
Q 171.05 77.95 171.05 77.65
L 169 77.65
Q 169.05 77.8 169.15 78 169.2 78.15 169.2 78.2
L 166.75 78.2 166.75 79.4 177.6 79.4
M 161.05 78.95
Q 159.6 77.75 158.9 75.8
L 156.9 75.8
Q 156.25 77.8 154.85 79
L 154.85 80.25
Q 154.95 80.2 155.1 80.15 155.3 80.05 155.35 80
L 155.35 84.65
Q 155.3 86.4 156.9 86.3
L 159.4 86.3
Q 160.95 86.35 160.9 84.8
L 160.9 84.15 159.35 84.15 159.35 84.5
Q 159.4 85.1 158.85 85.1
L 157.8 85.1
Q 157.2 85.1 157.25 84.4
L 157.25 80.8 158.6 80.8 158.6 81.95
Q 158.65 82.45 158.1 82.45
L 157.7 82.45 157.7 83.75 158.6 83.75
Q 160.5 83.85 160.35 82.05
L 160.35 79.85
Q 160.7 80.05 161.05 80.2
L 161.05 78.95
M 157.9 77.85
Q 158.7 79 159.6 79.5
L 156.3 79.5
Q 157.25 78.9 157.9 77.85
M 162.85 84.3
L 162.85 76.65 161.3 76.65 161.3 84.3 162.85 84.3
M 165.25 75.85
L 163.5 75.85 163.5 84.85
Q 163.5 85.25 163.05 85.25
L 162.2 85.25 162.2 86.5 163.75 86.5
Q 165.3 86.55 165.25 85.05
L 165.25 75.85
M 153.4 84.65
L 153.4 77.2 150.7 77.2 150.7 75.75 148.8 75.75 148.8 77.2 148.05 77.2 148.05 78.5 148.8 78.5
Q 148.8 82.9 147.95 84.5 147.65 82.95 147.15 81.65
L 145.7 81.65
Q 145.75 81.85 145.85 82.2 146.15 83.3 146.25 83.75 145.45 83.85 144.45 83.85 145.5 82.55 145.95 80.55
L 147.95 80.55 147.95 79.2 142.65 79.2 142.65 80.55 144 80.55
Q 143.7 82.15 142.75 83.85
L 142.75 85.3
Q 144.95 85.3 146.45 85.1 146.45 85.3 146.5 85.45
L 147.75 85.45 147.75 86.65
Q 149.45 85.15 150 83.6 150.6 82 150.65 78.5
L 151.55 78.5 151.55 84.65
Q 151.55 85.15 151.05 85.15
L 150.35 85.15 150.35 86.4 151.7 86.4
Q 153.45 86.45 153.4 84.65
M 147.65 77.7
L 147.65 76.4 143.25 76.4 143.25 77.7 147.65 77.7
M 141.3 77.6
L 141.3 76.15 131 76.15 131 77.6 132.5 77.6 131.85 83.7 138.05 83.7 138 84.9 130.7 84.9 130.7 86.2 141.65 86.2 141.65 84.9 140 84.9 140.35 78.6 134.4 78.6 134.55 77.6 141.3 77.6
M 138.25 79.95
L 138.1 82.35 134 82.35 134.3 79.95 138.25 79.95
M 119.3 82.95
L 119.3 84.6
Q 121.55 85.6 123 86.9
L 123 84.7
Q 121.55 83.6 119.3 82.95
M 110.95 75.8
L 109.2 75.8 109.2 78.55
Q 108.25 79.1 106.75 79.4
L 106.75 81.1
Q 108.15 80.6 109.2 80.1
L 109.2 81.6 110.95 81.6 110.95 75.8
M 108.85 78.35
L 108.85 76.6
Q 108.05 76.25 106.9 76.2
L 106.9 77.6
Q 107.9 77.75 108.85 78.35
M 117.45 77.65
L 117.45 76.35 114.35 76.35
Q 114.4 76.25 114.5 76.1 114.55 75.95 114.6 75.85
L 112.7 75.85
Q 112.25 77.2 111.05 77.65
L 111.05 78.6
Q 111.6 78.55 112 78.4
L 112 79.25
Q 112.7 79.4 113.45 79.7 112.9 80.05 111.55 80.4
L 111.55 81.4 111.05 81.4 111.05 81.7
Q 111.05 81.9 111.05 82.1
L 106.9 82.1 106.9 83.4 110.7 83.4
Q 109.9 85.1 106.75 85.45
L 106.75 86.6
Q 110.65 86.3 112.15 84.6 113.95 86.2 117.55 86.6
L 117.55 85.45
Q 114.3 85 113.6 83.4
L 117.5 83.4 117.5 82.1 113.3 82.1
Q 113.3 81.9 113.3 81.7
L 113.3 81.4 112.1 81.4
Q 116 80.85 117.45 77.65
M 112.75 78.15
Q 113.2 77.95 113.5 77.65
L 115.4 77.65
Q 114.7 78.75 114.1 79.25
L 114.1 78.4
Q 113.5 78.2 112.75 78.15
M 254.15 66.1
Q 254.25 67.15 254.65 67.85
L 256.35 67.85
Q 256.05 67.05 256 66.1
L 254.15 66.1
M 260.3 66.1
Q 260.25 67.05 259.95 67.85
L 261.65 67.85
Q 262.05 67.15 262.15 66.1
L 260.3 66.1
M 263.6 63.6
L 263.6 62.3
Q 260.6 61.15 259.3 58.9
L 257 58.9
Q 255.7 61.15 252.7 62.3
L 252.7 63.6
Q 254 63.3 254.9 62.9
L 254.9 63.6 257.05 63.6 257.05 64.45 253.6 64.45 253.6 65.8 257.05 65.8 257.05 68.2 252.95 68.2 252.95 69.45 263.4 69.45 263.4 68.2 259.25 68.2 259.25 65.8 262.75 65.8 262.75 64.45 259.25 64.45 259.25 63.6 261.45 63.6 261.45 62.95
Q 262.3 63.3 263.6 63.6
M 260 62.25
L 256.3 62.25
Q 257.2 61.7 258.15 60.8 259.1 61.7 260 62.25
M 244.35 63.45
L 244.35 62.2 241.05 62.2 241.05 63.45 241.7 63.45 241.7 64.7 240.8 64.7 240.8 66 241.7 66 241.7 69.8
Q 243.35 69.35 244.45 68.6
L 244.45 67.25 244.3 67.35
Q 243.75 67.6 243.55 67.7
L 243.55 66 244.45 66 244.45 64.7 243.55 64.7 243.55 63.45 244.35 63.45
M 251.35 59.25
L 249.75 59.25
Q 249.65 60.5 249.2 61.5
L 250.75 61.5
Q 251.15 60.7 251.35 59.25
M 247.05 59
L 247.05 61.8 244.8 61.8 244.8 69.8 246.55 69.8 246.55 67.5 249.45 67.5 249.45 67.95
Q 249.45 68.4 248.95 68.4
L 248.45 68.4 248.45 69.65 249.6 69.65
Q 251.3 69.7 251.25 68.05
L 251.25 61.8 248.9 61.8 248.9 59 247.05 59
M 249.45 65.3
L 249.45 66.15 246.55 66.15 246.55 65.3 249.45 65.3
M 249.45 63.1
L 249.45 64 246.55 64 246.55 63.1 249.45 63.1
M 243.25 60
Q 243.4 59.55 243.45 59.05
L 241.7 59.05
Q 241.6 60.35 240.7 61.05
L 240.7 62.05
Q 241.85 61.85 242.5 61.25
L 244.6 61.25 244.6 60 243.25 60
M 244.65 59.25
Q 244.75 60.45 245.25 61.5
L 246.75 61.5
Q 246.4 60.5 246.25 59.25
L 244.65 59.25
M 229.55 66.3
L 229.55 69.6 237.3 69.6
Q 238.85 69.65 238.8 68.15
L 238.8 66.3 229.55 66.3
M 231.55 68.5
L 231.55 67.45 236.75 67.45 236.75 68.05
Q 236.8 68.5 236.2 68.5
L 231.55 68.5
M 230.4 63.55
L 230.4 66 236.55 66
Q 237.95 66.05 237.9 64.55
L 237.9 63.55 239.4 63.55 239.4 61.5 228.95 61.5 228.95 63.55 230.4 63.55
M 232.4 64.9
L 232.4 64.15 235.9 64.15 235.9 64.55
Q 235.9 64.9 235.5 64.9
L 232.4 64.9
M 230.8 63.05
L 230.8 62.65 237.55 62.65 237.55 63.05 230.8 63.05
M 233.25 61.2
L 233.25 60.7 235.1 60.7 235.1 61.2 237 61.2 237 60.7 239.55 60.7 239.55 59.4 237 59.4 237 58.95 235.1 58.95 235.1 59.4 233.25 59.4 233.25 58.95 231.35 58.95 231.35 59.4 228.8 59.4 228.8 60.7 231.35 60.7 231.35 61.2 233.25 61.2
M 221.05 65.35
L 221.05 63.05 218.95 63.05 218.95 65.8
Q 219.05 67.75 217.45 68.65
L 217.45 69.9
Q 221.3 68.75 221.05 65.35
M 227.55 63.65
L 227.55 62.3
Q 224.65 61.15 223.4 58.95
L 220.9 58.95
Q 219.65 61.15 216.75 62.3
L 216.75 63.65
Q 220.4 62.7 222.15 60.8 223.9 62.7 227.55 63.65
M 223.3 69.7
L 225.35 69.7 225.35 63.05 223.3 63.05 223.3 69.7
M 204.6 61.65
L 204.95 61.65 204.95 63.85
Q 204.95 66.35 205.75 67.65 205.7 67.7 205.55 67.85 205.1 68.3 204.75 68.55
L 204.75 69.8
Q 205.9 69.1 206.6 68.6 207.35 69.1 208.45 69.8
L 208.45 68.55
Q 208.1 68.3 207.65 67.85 207.55 67.7 207.5 67.65 208.4 66.35 208.4 63.85
L 208.4 61.65 208.65 61.65 208.65 60.4 208.4 60.4 208.4 59.05 206.95 59.05 206.95 60.4 206.4 60.4 206.4 59.05 204.95 59.05 204.95 60.4 204.6 60.4 204.6 61.65
M 206.4 61.65
L 206.95 61.65 206.95 63.9
Q 206.95 65.35 206.65 66.25 206.4 65.45 206.4 63.9
L 206.4 61.65
M 213.05 58.95
L 213.05 59.7 211.1 59.7 211.1 58.95 209.3 58.95 209.3 59.7 208.75 59.7 208.75 61 209.3 61 209.3 64.55 211.2 64.55 211.2 65.15 208.65 65.15 208.65 66.45 209.55 66.45
Q 209.4 67.8 208.65 68.45
L 208.65 69.65
Q 210.8 68.75 211.1 66.45
L 211.2 66.45 211.2 69.8 212.95 69.8 212.95 66.45 213 66.45
Q 213.25 68.75 215.5 69.65
L 215.5 68.5
Q 214.55 67.7 214.5 66.45
L 215.55 66.45 215.55 65.15 212.95 65.15 212.95 64.55 213.1 64.55
Q 214.95 64.6 214.85 62.9
L 214.85 61 215.5 61 215.5 59.7 214.85 59.7 214.85 58.95 213.05 58.95
M 213.05 61
L 213.05 61.55 211.1 61.55 211.1 61 213.05 61
M 212.55 63.3
L 211.1 63.3 211.1 62.7 213.05 62.7 213.05 62.8
Q 213.1 63.35 212.55 63.3
M 194 65.25
L 200.4 65.25 200.4 63.8 194 63.8 194 65.25
M 178.9 59.4
L 178.9 60.8
Q 179.9 60.95 180.85 61.55
L 180.85 59.8
Q 180.05 59.45 178.9 59.4
M 182.95 64.8
L 182.95 59 181.2 59 181.2 61.75
Q 180.25 62.3 178.75 62.6
L 178.75 64.3
Q 180.15 63.8 181.2 63.3
L 181.2 64.8 182.95 64.8
M 183.05 61.8
Q 183.6 61.75 184 61.6
L 184 62.45
Q 184.7 62.6 185.45 62.9 184.9 63.25 183.55 63.6
L 183.55 64.6 183.05 64.6 183.05 64.9
Q 183.05 65.1 183.05 65.3
L 178.9 65.3 178.9 66.6 182.7 66.6
Q 181.9 68.3 178.75 68.65
L 178.75 69.8
Q 182.65 69.5 184.15 67.8 185.95 69.4 189.55 69.8
L 189.55 68.65
Q 186.3 68.2 185.6 66.6
L 189.5 66.6 189.5 65.3 185.3 65.3
Q 185.3 65.1 185.3 64.9
L 185.3 64.6 184.1 64.6
Q 188 64.05 189.45 60.85
L 189.45 59.55 186.35 59.55
Q 186.4 59.45 186.5 59.3 186.55 59.15 186.6 59.05
L 184.7 59.05
Q 184.25 60.4 183.05 60.85
L 183.05 61.8
M 184.75 61.35
Q 185.2 61.15 185.5 60.85
L 187.4 60.85
Q 186.7 61.95 186.1 62.45
L 186.1 61.6
Q 185.5 61.4 184.75 61.35
M 169.6 61
L 169.15 61 169.15 59 167.4 59 167.4 61 166.8 61 166.8 62.3 167.4 62.3 167.4 67.25
Q 167.05 67.35 166.7 67.35
L 166.7 68.9
Q 168.55 68.6 169.65 68
L 169.65 66.65
Q 169.45 66.8 169.15 66.8
L 169.15 62.3 169.6 62.3 169.6 61
M 177.15 60.55
L 177.15 59.25 175.75 59.25 175.75 60.55 175.3 60.55 175.3 59 173.55 59 173.55 60.55 169.9 60.55 169.9 66.3
Q 169.95 67.9 169.45 68.65
L 169.45 69.85
Q 171.65 68.75 171.6 65.95
L 171.6 64.35 172.05 64.35 172.05 66.95
Q 172.1 67.45 171.7 67.4
L 171.5 67.4 171.5 68.65 172.3 68.65
Q 173.55 68.65 173.5 67.2
L 173.5 63.05 171.6 63.05 171.6 61.85 173.6 61.85
Q 173.65 64.25 174.05 66.7 174.05 66.8 174.05 66.9 174.1 67.25 174.15 67.4 173.75 67.9 173.2 68.45
L 173.2 69.8
Q 174.05 69.2 174.65 68.65 175.3 69.8 176.5 69.8 177.95 69.8 177.9 67.85
L 176.8 67.85
Q 176.8 68.5 176.5 68.5 176.05 68.55 175.75 67.5 177.05 65.85 177.65 62.55
L 176 62.55
Q 175.85 64 175.45 65.15 175.3 63.75 175.3 61.85
L 177.65 61.85 177.65 60.55 177.15 60.55
M 133.85 61.45
L 141.6 61.45 141.6 60 138.05 60 138.05 58.95 135.7 58.95 135.7 60 131.6 60 131.6 66.4
Q 131.65 68 130.75 68.6
L 130.75 69.85
Q 134.05 68.8 133.85 65.8
L 133.85 61.45
M 143.9 65.05
L 143.9 69.55 150.85 69.55
Q 152.6 69.6 152.6 67.75
L 152.6 65.05 143.9 65.05
M 150.55 66.45
L 150.55 67.65
Q 150.6 68.3 150 68.3
L 145.95 68.3 145.95 66.45 150.55 66.45
M 152.95 61.3
L 152.95 59.95 149.5 59.95 149.5 58.95 147.4 58.95 147.4 59.95 146 59.95
Q 146.1 59.55 146.15 59.25
L 144.25 59.25
Q 144.1 60.65 143.25 61.55
L 143.25 62.7
Q 144.75 62.25 145.4 61.3
L 147.4 61.3 147.4 63 142.7 63 142.7 64.35 153.6 64.35 153.6 63 149.5 63 149.5 61.3 152.95 61.3
M 165.45 64.55
L 165.45 63.2 158.25 63.2 158.25 59.1 156.1 59.1 156.1 63.2 154.85 63.2 154.85 64.55 156.1 64.55 156.1 69.8
Q 158.5 69.15 160.25 68.3
L 160.25 66.75
Q 160.15 66.8 159.9 66.85 158.75 67.3 158.25 67.45
L 158.25 64.55 159.2 64.55
Q 160.75 68.4 165.4 69.25
L 165.4 68.15
Q 162.45 67.2 161.4 64.55
L 165.45 64.55
M 165 59.55
L 162.55 59.55
Q 161.35 61.35 158.65 61.65
L 158.65 62.85
Q 163.15 62.6 165 59.55
M 119 59.25
L 119 69.6 127.55 69.6
Q 129.4 69.65 129.35 67.75
L 129.35 59.25 119 59.25
M 121 68.35
L 121 60.55 127.35 60.55 127.35 67.6
Q 127.35 68.35 126.6 68.35
L 121 68.35
M 125.2 65
Q 125.45 65.7 125.55 66.3
L 126.95 66.3
Q 126.8 65.6 126.5 65
L 125.2 65
M 121.3 66.5
L 121.3 67.75 127 67.75 127 66.5 125.05 66.5 125.05 64.8 126.75 64.8 126.75 63.55 125.05 63.55 125.05 62.45 126.9 62.45 126.9 61.25 121.4 61.25 121.4 62.45 123.05 62.45 123.05 63.55 121.55 63.55 121.55 64.8 123.05 64.8 123.05 66.5 121.3 66.5
M 113.25 60.7
L 113.25 58.95 111.05 58.95 111.05 60.7 107.2 60.7 107.2 66.9 111.05 66.9 111.05 69.85 113.25 69.85 113.25 66.9 115.2 66.9
Q 117.2 67.05 117.1 64.7
L 117.1 60.7 113.25 60.7
M 109.15 62.05
L 111.05 62.05 111.05 65.55 109.15 65.55 109.15 62.05
M 115.15 62.05
L 115.15 64.75
Q 115.2 65.55 114.5 65.55
L 113.25 65.55 113.25 62.05 115.15 62.05
M 212.65 44.75
L 207.7 44.75 207.7 51.25 210.95 51.25
Q 212.75 51.35 212.65 49.6
L 212.65 44.75
M 209.45 47.3
L 209.45 46 210.9 46 210.9 47.3 209.45 47.3
M 209.45 48.5
L 210.9 48.5 210.9 49.35
Q 210.9 50 210.3 50
L 209.45 50 209.45 48.5
M 208.1 42.55
L 208.1 43.95 213.35 43.95 213.35 51.1
Q 213.4 51.7 212.8 51.65
L 212.1 51.65 212.1 52.9 213.45 52.9
Q 215.4 53 215.3 51.15
L 215.3 42.55 208.1 42.55
M 207.05 44.95
L 205.1 44.95 205.1 53 207.05 53 207.05 44.95
M 206.9 42.45
L 205.15 42.45
Q 205.45 43.35 205.6 44.55
L 207.55 44.55
Q 207.45 43.55 206.9 42.45
M 201.05 45
Q 200.85 44.35 200.6 44
L 199.05 44
Q 199.3 44.35 199.45 45
L 201.05 45
M 196.7 44
Q 196.95 44.4 197.1 45
L 198.75 45
Q 198.6 44.5 198.3 44
L 196.7 44
M 196.3 42.75
L 193 42.75 193 52.3 194.8 52.3
Q 196.4 52.4 196.3 50.75
L 196.3 42.75
M 195 44
L 195 45.5 194.5 45.5 194.5 44 195 44
M 194.5 48.25
L 194.5 46.7 195 46.7 195 48.25 194.5 48.25
M 194.5 49.45
L 195 49.45 195 50.75
Q 195 51.15 194.7 51.15
L 194.5 51.15 194.5 49.45
M 203.5 43.5
L 203.5 42.25
Q 202.25 42.65 201.05 42.6
L 196.7 42.6 196.7 43.85 201.3 43.85
Q 202.45 43.9 203.5 43.5
M 202.65 48.65
L 203.55 48.65 203.55 47.45 202.65 47.45 202.65 47 203.55 47 203.55 45.15 202.8 45.15
Q 203.05 44.8 203.4 44
L 201.7 44
Q 201.5 44.8 201.25 45.15
L 196.55 45.15 196.55 47 197.2 47
Q 197.05 48.35 196.4 49.25
L 196.4 50.4
Q 196.75 50.15 197.05 50
L 197.05 50.5
Q 197.45 50.6 197.8 50.75 197.3 51.45 196.45 51.95
L 196.45 53.15
Q 199.3 51.85 199.85 49.25
L 199.85 50.3
Q 199.8 51.5 200.9 51.45
L 201.25 51.45 201.25 53 202.65 53 202.65 51.45 203.65 51.45 203.65 50.2 202.65 50.2 202.65 48.65
M 198.65 46.8
L 198.2 46.8 198.2 46.35 201.9 46.35 201.9 46.8 201.25 46.8 201.25 47.45 200.15 47.45 200.15 48.65 201.25 48.65 201.25 50.2
Q 200.9 50.15 200.95 49.8
L 200.95 48.95 199.9 48.95
Q 199.95 48.85 199.95 48.7 200 48.55 200 48.5
L 200 47.3 198.55 47.3
Q 198.6 47.2 198.6 47.05 198.65 46.9 198.65 46.8
M 197.75 49.35
Q 198 49 198.25 48.5
L 198.6 48.5
Q 198.5 49.1 198.35 49.55 198.05 49.4 197.75 49.35
M 181.45 42.75
L 181.45 48.9
Q 181.5 50.75 180.85 51.75
L 180.85 53.05
Q 182.45 52.1 182.9 51.15
L 182.9 52.5
Q 184.95 51.9 186 51.05
L 186 49.75
Q 185.85 49.85 185.6 50 185.4 50.1 185.3 50.15 185.15 49.75 185.05 49.25
L 183.55 49.25
Q 183.8 50.3 184.05 50.75 183.9 50.75 183.6 50.85 183.2 51 182.95 51.05 183.4 50.05 183.4 48.6
L 183.4 47.4 186.15 47.4 186.15 47.85 183.55 47.85 183.55 49.1 186.15 49.1 186.15 51.35
Q 186.2 51.85 185.6 51.85
L 185.3 51.85 185.3 53 186.3 53
Q 188 53.05 187.95 51.35
L 187.95 51.15
Q 188.95 51.95 191.4 52.8
L 191.4 51.55
Q 190.65 51.25 190.45 51.15 190.2 51 190.05 50.95 190.35 50.5 190.55 49.25
L 189.05 49.25
Q 189 49.4 188.95 49.75 188.85 50 188.85 50.1 188.4 49.7 187.95 49.2
L 187.95 49.1 189.2 49.1
Q 190.9 49.15 190.8 47.45
L 190.8 47.4 191.65 47.4 191.65 46.2 190.8 46.2 190.8 44.55 187.95 44.55 187.95 44 191.6 44 191.6 42.75 188 42.75 188 42.2 185.6 42.2 185.6 42.75 181.45 42.75
M 186.15 45.75
L 186.15 46.2 183.4 46.2 183.4 44 186.15 44 186.15 44.55 183.65 44.55 183.65 45.75 186.15 45.75
M 189.1 45.75
L 189.1 46.2 187.95 46.2 187.95 45.75 189.1 45.75
M 187.95 47.85
L 187.95 47.4 189.1 47.4
Q 189.15 47.9 188.55 47.85
L 187.95 47.85
M 173 51.15
L 173 49.75
Q 171.1 50.65 169.2 51
L 169.2 52.7
Q 171.35 52.25 173 51.15
M 179.1 52.95
L 179.1 51.15
Q 177.55 50.15 175.5 49.75
L 175.5 51.2
Q 177.25 51.7 179.1 52.95
M 175.25 47.95
L 173.2 47.95 173.2 51.2
Q 173.25 51.85 172.65 51.8
L 172.2 51.8 172.2 53 173.5 53
Q 175.3 53.05 175.25 51.2
L 175.25 47.95
M 169.25 42.6
L 169.25 43.85 173 43.85
Q 173 43.9 173 44 172.95 44.15 172.95 44.25
L 169.6 44.25 169.6 45.45 172.6 45.45
Q 172.6 45.5 172.5 45.6 172.45 45.8 172.4 45.9
L 168.85 45.9 168.85 47.05 171.3 47.05
Q 170.4 47.8 168.75 48.4
L 168.75 49.6
Q 169.15 49.45 169.8 49.25 170.35 49.05 170.65 48.95 170.8 49.3 171.1 49.75
L 172.85 49.75
Q 172.3 48.9 172.3 48.2 173.1 47.7 173.8 47.05
L 174.85 47.05
Q 175.5 47.8 176.2 48.3 176.05 49 175.6 49.75
L 177.4 49.75
Q 177.45 49.7 177.5 49.55 177.7 49.25 177.75 49.1 178.5 49.35 179.5 49.6
L 179.5 48.4
Q 177.9 47.85 177.05 47.05
L 179.5 47.05 179.5 45.9 174.6 45.9
Q 174.75 45.6 174.8 45.45
L 178.7 45.45 178.7 44.25 175.1 44.25
Q 175.1 44.15 175.15 44 175.15 43.9 175.15 43.85
L 179.05 43.85 179.05 42.6 175.2 42.6 175.2 42.15 173.05 42.15 173.05 42.6 169.25 42.6
M 164.4 48.45
L 164.4 47 158 47 158 48.45 164.4 48.45
M 148.55 52
Q 148.4 50.95 147.85 50.2
L 146.2 50.2
Q 146.6 51.3 146.75 52
L 148.55 52
M 149.15 42.7
Q 149.2 42.6 149.2 42.5 149.25 42.3 149.25 42.2
L 147.05 42.2
Q 147.05 42.3 147.05 42.5 147.05 42.6 147 42.7
L 143 42.7 143 44.1 146.75 44.1
Q 146.75 44.4 146.65 44.65
L 143.6 44.65 143.6 45.95 146.3 45.95
Q 146.25 46.1 146.2 46.3 146.1 46.45 146.1 46.55
L 142.8 46.55 142.8 47.9 145.4 47.9
Q 144.65 49.3 142.9 50.95
L 142.9 52.35
Q 144.75 51.15 145.9 49.95
L 150.1 49.95 150.1 51.2
Q 150.15 51.7 149.6 51.7
L 149 51.7 149 52.95 150.5 52.95
Q 152.1 52.95 152.1 51.4
L 152.1 49.95 153.6 49.95 153.6 48.55 152.1 48.55 152.1 47.9 153.6 47.9 153.6 46.55 148.1 46.55
Q 148.15 46.45 148.25 46.25 148.3 46.05 148.35 45.95
L 152.7 45.95 152.7 44.65 148.7 44.65
Q 148.75 44.55 148.8 44.35 148.85 44.2 148.85 44.1
L 153.3 44.1 153.3 42.7 149.15 42.7
M 147.05 48.5
Q 147.3 48.1 147.4 47.9
L 150.1 47.9 150.1 48.55 147 48.55 147.05 48.5
M 135.05 42.25
L 135.05 43.45
Q 135.1 48.3 130.75 51.65
L 130.75 53
Q 135 50.95 136.15 48.1 137.35 50.95 141.55 53
L 141.55 51.65
Q 137.2 48.3 137.3 43.45
L 137.3 42.25 135.05 42.25
M 126 42.75
L 126 42.2 123.6 42.2 123.6 42.75 119.45 42.75 119.45 48.9
Q 119.5 50.75 118.85 51.75
L 118.85 53.05
Q 120.45 52.1 120.9 51.15
L 120.9 52.5
Q 122.95 51.9 124 51.05
L 124 49.75
Q 123.85 49.85 123.6 50 123.4 50.1 123.3 50.15 123.15 49.75 123.05 49.25
L 121.55 49.25
Q 121.8 50.3 122.05 50.75 121.9 50.75 121.6 50.85 121.2 51 120.95 51.05 121.4 50.05 121.4 48.6
L 121.4 47.4 124.15 47.4 124.15 47.85 121.55 47.85 121.55 49.1 124.15 49.1 124.15 51.35
Q 124.2 51.85 123.6 51.85
L 123.3 51.85 123.3 53 124.3 53
Q 126 53.05 125.95 51.35
L 125.95 51.15
Q 126.95 51.95 129.4 52.8
L 129.4 51.55
Q 128.65 51.25 128.45 51.15 128.2 51 128.05 50.95 128.35 50.5 128.55 49.25
L 127.05 49.25
Q 127 49.4 126.95 49.75 126.85 50 126.85 50.1 126.4 49.7 125.95 49.2
L 125.95 49.1 127.2 49.1
Q 128.9 49.15 128.8 47.45
L 128.8 47.4 129.65 47.4 129.65 46.2 128.8 46.2 128.8 44.55 125.95 44.55 125.95 44 129.6 44 129.6 42.75 126 42.75
M 124.15 44
L 124.15 44.55 121.65 44.55 121.65 45.75 124.15 45.75 124.15 46.2 121.4 46.2 121.4 44 124.15 44
M 125.95 46.2
L 125.95 45.75 127.1 45.75 127.1 46.2 125.95 46.2
M 125.95 47.85
L 125.95 47.4 127.1 47.4
Q 127.15 47.9 126.55 47.85
L 125.95 47.85
M 111 49.75
Q 109.1 50.65 107.2 51
L 107.2 52.7
Q 109.35 52.25 111 51.15
L 111 49.75
M 117.1 51.15
Q 115.55 50.15 113.5 49.75
L 113.5 51.2
Q 115.25 51.7 117.1 52.95
L 117.1 51.15
M 113.25 47.95
L 111.2 47.95 111.2 51.2
Q 111.25 51.85 110.65 51.8
L 110.2 51.8 110.2 53 111.5 53
Q 113.3 53.05 113.25 51.2
L 113.25 47.95
M 111.05 42.6
L 107.25 42.6 107.25 43.85 111 43.85
Q 111 43.9 111 44 110.95 44.15 110.95 44.25
L 107.6 44.25 107.6 45.45 110.6 45.45
Q 110.6 45.5 110.5 45.6 110.45 45.8 110.4 45.9
L 106.85 45.9 106.85 47.05 109.3 47.05
Q 108.4 47.8 106.75 48.4
L 106.75 49.6
Q 107.15 49.45 107.8 49.25 108.35 49.05 108.65 48.95 108.8 49.3 109.1 49.75
L 110.85 49.75
Q 110.3 48.9 110.3 48.2 111.1 47.7 111.8 47.05
L 112.85 47.05
Q 113.5 47.8 114.2 48.3 114.05 49 113.6 49.75
L 115.4 49.75
Q 115.45 49.7 115.5 49.55 115.7 49.25 115.75 49.1 116.5 49.35 117.5 49.6
L 117.5 48.4
Q 115.9 47.85 115.05 47.05
L 117.5 47.05 117.5 45.9 112.6 45.9
Q 112.75 45.6 112.8 45.45
L 116.7 45.45 116.7 44.25 113.1 44.25
Q 113.1 44.15 113.15 44 113.15 43.9 113.15 43.85
L 117.05 43.85 117.05 42.6 113.2 42.6 113.2 42.15 111.05 42.15 111.05 42.6
M 194.6 16.15
L 194.6 13.35 181.85 13.35
Q 181.95 13.05 182.15 12.5 182.25 12.1 182.35 11.85
L 178.1 11.85
Q 177.1 15.95 174.1 17.85
L 174.1 20.35
Q 175.5 20 176.55 19.45
L 176.55 26 173.7 26 173.7 28.7 183.95 28.7 183.95 33.4 188.25 33.4 188.25 28.7 195.35 28.7 195.35 26 188.25 26 188.25 21.6 194.05 21.6 194.05 18.85 188.25 18.85 188.25 16.15 194.6 16.15
M 183.95 16.15
L 183.95 18.85 177.65 18.85
Q 179.45 17.75 180.55 16.15
L 183.95 16.15
M 180.45 21.6
L 183.95 21.6 183.95 26 180.45 26 180.45 21.6
M 169.35 12.5
L 165.2 12.5 155.45 25.7 155.45 28.6 165 28.6 165 32.75 169.35 32.75 169.35 28.6 171.75 28.6 171.75 25.7 169.35 25.7 169.35 12.5
M 165 18.4
L 165 25.7 159.65 25.7 165 18.4
M 152.45 12.5
L 147.95 12.5
Q 146.2 16.45 141.5 18.4
L 141.5 20.95
Q 145.35 20.35 147.95 18.5
L 147.95 32.75 152.45 32.75 152.45 12.5
M 139.8 22.7
Q 139.7 12.2 131.9 12.1 124.3 12.5 124.15 22.7 124.25 32.95 131.9 33.1 139.9 33.2 139.8 22.7
M 128.65 22.8
Q 128.65 14.95 132 15 135.3 14.85 135.2 22.8 135.2 30.4 132 30.4 128.65 30.4 128.65 22.8
M 122.1 32.75
L 122.1 30.1 111.7 30.1
Q 113.3 27.5 117.6 24.95 122.45 22.05 122.2 18 121.9 12.4 115.05 12.2 108.3 12.3 107.1 19.05
L 111.3 19.05
Q 111.8 15.2 114.8 15.1 117.7 15 117.7 18.2 117.95 20.25 113.1 23.75 109.15 26.65 107.2 30
L 107.2 32.75 122.1 32.75 Z"/>
</g>
</defs>

<g transform="matrix( 1, 0, 0, 1, 0,0) ">
<use xlink:href="#Layer2_0_FILL"/>
</g>

<g transform="matrix( 10.800430297851562, 0, 0, 10.800430297851562, 5.5,4.55) ">
<g transform="matrix( 1, 0, 0, 1, 0,0) ">
<use xlink:href="#pop_0_Layer5_0_FILL"/>
</g>

<g transform="matrix( 1, 0, 0, 1, 0,0) ">
<use xlink:href="#pop_0_Layer4_0_FILL"/>
</g>

<g transform="matrix( 1, 0, 0, 1, 0,0) ">
<use xlink:href="#pop_0_Layer3_0_FILL"/>
</g>

<g transform="matrix( 1, 0, 0, 1, 0,0) ">
<use xlink:href="#pop_0_Layer2_0_FILL"/>
</g>

<g transform="matrix( 1, 0, 0, 1, 0,0) ">
<use xlink:href="#pop_0_Layer1_0_FILL"/>
</g>

<g transform="matrix( 1, 0, 0, 1, 0,0) ">
<use xlink:href="#pop_0_Layer0_0_FILL"/>
</g>
</g>

<g transform="matrix( 1, 0, 0, 1, 0,0) ">
<use xlink:href="#Layer2_1_MEMBER_1_FILL"/>
</g>

<g transform="matrix( 1, 0, 0, 1, 0,0) ">
<use xlink:href="#Layer2_1_MEMBER_1_MEMBER_0_FILL"/>
</g>

<g transform="matrix( 1, 0, 0, 1, 0,0) ">
<use xlink:href="#Layer2_1_MEMBER_2_FILL"/>
</g>

<g transform="matrix( 1, 0, 0, 1, 0,0) ">
<use xlink:href="#Layer2_1_MEMBER_2_MEMBER_0_FILL"/>
</g>

<g transform="matrix( 1, 0, 0, 1, 0,0) ">
<use xlink:href="#Layer1_0_FILL"/>
</g>
</svg>
