
<svg xmlns="http://www.w3.org/2000/svg" version="1.1" xmlns:xlink="http://www.w3.org/1999/xlink" preserveAspectRatio="none" x="0px" y="0px" width="550px" height="100px" viewBox="0 0 550 100">
<defs>
<g id="Layer2_0_FILL">
<path fill="#000000" fill-opacity="0.5019607843137255" stroke="none" d="
M 545.45 49.2
Q 545.45 28.8 531 14.4 516.65 0 496.25 0
L 49.2 0
Q 28.8 0 14.35 14.4 0 28.8 0 49.2 0 69.6 14.35 84 28.8 98.4 49.2 98.4
L 496.25 98.4
Q 516.65 98.4 531 84 545.45 69.6 545.45 49.2 Z"/>
</g>

<g id="pop_0_Layer5_0_FILL">
<path fill="#0C0A80" fill-opacity="0.2" stroke="none" d="
M 7.25 6.1
Q 7.75 5.2 7.85 4.45 7.85 4.3 7.85 4 7.7 2.15 6.05 1.6 4.15 1.1 3 2.6 1.9 4.15 3.45 5.9 4.7 7.3 2.95 7.8 3.1 7.95 3.7 7.95 3.75 7.95 3.85 7.95 4.5 8 5.5 7.6 6.7 7 7.25 6.1 Z"/>
</g>

<g id="pop_0_Layer4_0_FILL">
<path fill="#0C0A80" fill-opacity="0.2" stroke="none" d="
M 4.85 5.25
Q 4.85 4.4 4.25 3.75 3.65 3.15 2.8 3.15 1.95 3.15 1.35 3.75 0.7 4.4 0.7 5.25 0.7 6.1 1.35 6.7 1.95 7.3 2.8 7.3 3.65 7.3 4.25 6.7 4.85 6.1 4.85 5.25 Z"/>
</g>

<g id="pop_0_Layer3_0_FILL">
<path fill="#0C0A80" fill-opacity="0.2" stroke="none" d="
M 7.05 2.25
Q 7.05 1.6 6.6 1.15 6.15 0.7 5.5 0.7 4.85 0.7 4.4 1.15 3.95 1.6 3.95 2.25 3.95 2.9 4.4 3.35 4.85 3.8 5.5 3.8 6.15 3.8 6.6 3.35 7.05 2.9 7.05 2.25 Z"/>
</g>

<g id="pop_0_Layer2_0_FILL">
<path fill="#FFFFFF" fill-opacity="0.30196078431372547" stroke="none" d="
M 8.2 4.1
Q 8.2 2.4 7 1.2 5.8 0 4.1 0 2.4 0 1.2 1.2 0 2.4 0 4.1 0 5.8 1.2 7 2.4 8.2 4.1 8.2 5.8 8.2 7 7 8.2 5.8 8.2 4.1 Z"/>
</g>

<g id="pop_0_Layer1_0_FILL">
<path fill="#FFFFFF" fill-opacity="0.5019607843137255" stroke="none" d="
M 2.1 6.2
Q 3.7 5.95 2.65 3.7 1.9 1.2 4.2 0.3 3.65 0.35 3 0.55 1.7 1.1 1.1 1.9 0.5 2.75 0.4 3.5 0.35 3.65 0.35 3.95 0.4 6.2 2.1 6.2 Z"/>
</g>

<g id="pop_0_Layer0_0_FILL">
<path fill="#FFFFFF" fill-opacity="0.5019607843137255" stroke="none" d="
M 6.9 1.85
Q 6.9 1.45 6.65 1.2 6.35 0.9 6 0.9 5.6 0.9 5.35 1.2 5.05 1.45 5.05 1.85 5.05 2.2 5.35 2.5 5.6 2.75 6 2.75 6.35 2.75 6.65 2.5 6.9 2.2 6.9 1.85 Z"/>
</g>

<g id="Layer2_1_MEMBER_1_FILL">
<path fill="#FFFFFF" stroke="none" d="
M 72.85 24
Q 72.85 23.95 72.85 23.85 72.85 22.75 72 21.9 71.15 21.05 70.05 21.05
L 28.6 21.05
Q 27.4 21.05 26.65 21.9 26.6 21.9 26.6 21.95 25.8 22.8 25.8 23.85 25.8 23.95 25.8 24 25.8 24.65 25.85 25.35 25.85 25.5 25.85 25.7 23.85 26.6 22.2 28.3 18.4 32.1 18.4 37.4 18.4 42.65 22.2 46.4
L 22.2 46.45
Q 25.95 50.2 31.25 50.2 32.6 50.2 33.95 49.95
L 34 50
Q 37.8 54.8 42.4 56.8 43.45 60.1 43.75 63.85 41.85 67.05 39.3 69.85 38.2 71.05 36.9 72.2
L 36.85 72.25
Q 36.8 72.25 36.8 72.3 35.9 72.85 35.7 73.9 35 76.9 34.25 79.85 34.2 79.95 34.2 80.05 34.1 80.7 34.3 81.4 34.35 81.5 34.4 81.6 34.65 82.3 35.4 82.85
L 35.45 82.85
Q 36.1 83.3 36.95 83.3
L 61.7 83.3
Q 62.45 83.3 63.15 82.9 63.2 82.85 63.3 82.85 64 82.3 64.3 81.6 64.3 81.5 64.35 81.4 64.55 80.6 64.35 79.85 63.65 77 62.95 74.05 62.8 72.9 61.95 72.3 61.8 72.2 61.65 72.15 60.35 71 59.3 69.85 56.75 67.05 55 63.8 55.15 60.15 56.25 56.8 60.8 54.85 64.7 50.1 64.7 50.05 64.75 50 65.95 50.2 67.2 50.2 72.45 50.2 76.25 46.4 80 42.65 80 37.4 80 32.1 76.3 28.3 74.7 26.65 72.85 25.8 72.85 25.5 72.85 25.2 72.85 25.15 72.85 25.1 72.85 24.55 72.85 24 Z"/>
</g>

<g id="Layer2_1_MEMBER_1_MEMBER_0_FILL">
<path fill="#666666" stroke="none" d="
M 60.2 74.5
L 49.2 74.5 49.2 80.5 61.7 80.5
Q 60.95 77.55 60.25 74.5
L 60.2 74.5 Z"/>

<path fill="#999999" stroke="none" d="
M 38.4 74.5
Q 37.7 77.55 36.95 80.5
L 49.2 80.5 49.2 74.5 38.45 74.5 38.4 74.5
M 70.05 24
Q 70.05 23.95 70.05 23.85
L 49.2 23.85 49.2 74.5 60.2 74.5
Q 58.6 73.15 57.3 71.7 54.2 68.4 52.1 64.45 52.3 59.25 54 54.7
L 53.9 54.7
Q 58.6 53.15 62.5 48.3 63.05 47.6 63.6 46.8 65.25 47.4 67.2 47.4 71.35 47.4 74.3 44.45 77.25 41.55 77.25 37.4 77.25 33.2 74.3 30.25 72.35 28.35 69.95 27.7 70 26.4 70.05 25.1 70.05 24.55 70.05 24
M 67.2 44.45
Q 66.15 44.45 65.2 44.2 68.6 38.2 69.65 30.7 71.05 31.25 72.2 32.35 74.35 34.45 74.35 37.4 74.35 40.35 72.2 42.4 70.2 44.45 67.2 44.45 Z"/>

<path fill="#CCCCCC" stroke="none" d="
M 28.6 23.85
Q 28.6 23.95 28.6 24 28.6 24.55 28.6 25.1 28.6 26.35 28.7 27.65 26.15 28.25 24.15 30.25 21.2 33.2 21.2 37.4 21.2 41.55 24.15 44.45 27.1 47.4 31.25 47.4 33.25 47.4 35.05 46.75 35.55 47.5 36.15 48.25 40 53.15 44.75 54.7
L 44.65 54.7
Q 46.3 59.25 46.5 64.45 44.45 68.4 41.35 71.7 40.05 73.15 38.45 74.5
L 49.2 74.5 49.2 23.85 28.6 23.85
M 26.2 32.35
Q 27.45 31.1 29 30.65 30.05 38.15 33.45 44.15 32.4 44.45 31.25 44.45 28.3 44.45 26.2 42.4 24.15 40.35 24.15 37.4 24.15 34.45 26.2 32.35 Z"/>
</g>

<g id="Layer1_0_FILL">
<path fill="#FFFFFF" stroke="none" d="
M 304.45 69.6
L 304.45 67.3
Q 303.3 66.85 301.8 66.8
L 301.8 68.65
Q 303.1 68.85 304.45 69.6
M 307.2 66.25
L 304.85 66.25 304.85 69.9
Q 303.6 70.6 301.6 71.05
L 301.6 73.3
Q 303.5 72.65 304.85 72
L 304.85 74 307.2 74 307.2 66.25
M 311.75 67
Q 311.8 66.85 311.95 66.6 312 66.4 312.05 66.3
L 309.55 66.3
Q 308.95 68.1 307.35 68.75
L 307.35 70
Q 308.05 69.9 308.6 69.75
L 308.6 70.85
Q 309.55 71.05 310.55 71.4 309.8 71.9 308 72.35
L 308 73.75 307.3 73.75 307.3 74.1
Q 307.3 74.35 307.3 74.6
L 301.8 74.6 301.8 76.35 306.85 76.35
Q 305.8 78.6 301.6 79.1
L 301.6 80.6
Q 306.8 80.25 308.8 78 311.2 80.1 316 80.6
L 316 79.1
Q 311.7 78.5 310.75 76.35
L 315.95 76.35 315.95 74.6 310.3 74.6
Q 310.3 74.35 310.3 74.1
L 310.3 73.75 308.75 73.75
Q 313.95 73 315.85 68.75
L 315.85 67 311.75 67
M 313.1 68.75
Q 312.2 70.15 311.45 70.85
L 311.45 69.75
Q 310.6 69.4 309.6 69.35 310.2 69.1 310.6 68.75
L 313.1 68.75
M 299.35 72
L 299.35 66.75 291.2 66.75 291.2 80.65
Q 293.5 79.9 294.95 79.05
L 294.95 77.25
Q 296.3 79.5 300 80.5
L 300 79
Q 298.6 78.35 297.8 77.55 299.35 76.85 300.05 74.65
L 297.85 74.65
Q 297.5 75.65 296.85 76.25 296.5 75.6 296.25 74.65
L 293.8 74.65
Q 294.3 76.1 294.95 77.15 294.5 77.4 294 77.55 293.75 77.65 293.6 77.75
L 293.6 74.25 297.1 74.25
Q 299.45 74.3 299.35 72
M 293.6 72.5
L 293.6 71.35 297.1 71.35 297.1 71.75
Q 297.2 72.55 296.35 72.5
L 293.6 72.5
M 293.6 69.65
L 293.6 68.55 297.1 68.55 297.1 69.65 293.6 69.65
M 285.95 72.15
L 286.95 72.15 286.95 73.85 285.6 73.85 285.6 75.55 286.95 75.55 286.95 80.65
Q 289.05 80.05 290.75 79.05
L 290.75 77.25
Q 289.95 77.6 290.55 77.3 289.7 77.65 289.45 77.85
L 289.45 75.55 290.7 75.55 290.7 73.85 289.45 73.85 289.45 72.15 290.5 72.15 290.5 70.5 285.95 70.5 285.95 72.15
M 290.85 67.55
L 288.95 67.55
Q 289.1 67 289.2 66.3
L 286.85 66.3
Q 286.75 68.05 285.55 69
L 285.55 70.3
Q 287.05 70.05 287.95 69.25
L 290.85 69.25 290.85 67.55
M 278.3 74
L 275.45 74 275.45 75 269.7 75 269.7 76.75 275.1 76.75
Q 274.2 78.6 269.6 79.1
L 269.6 80.55
Q 274.3 80.5 276.85 78.55 279.1 80.3 284 80.55
L 284 79.1
Q 279.35 78.4 278.6 76.75
L 283.95 76.75 283.95 75 278.3 75 278.3 74
M 282.5 66.6
L 279.8 66.6
Q 279.75 67.55 279.2 68.55
L 281.75 68.55
Q 282.3 67.85 282.5 66.6
M 271.1 66.6
Q 271.3 67.85 271.85 68.55
L 274.45 68.55
Q 273.85 67.55 273.8 66.6
L 271.1 66.6
M 270.05 68.9
L 270.05 70.65 272.35 70.65
Q 271.6 72.25 269.95 73
L 269.95 74.5
Q 273.7 73.75 275.1 70.65
L 275.45 70.65 275.45 73.65 278.3 73.65 278.3 70.65 278.5 70.65
Q 279.95 73.75 283.7 74.5
L 283.7 73
Q 281.85 72.15 281.25 70.65
L 283.7 70.65 283.7 68.9 278.3 68.9 278.3 66.25 275.45 66.25 275.45 68.9 270.05 68.9
M 264.7 76.5
Q 266.85 76.55 266.8 74.25
L 266.8 71.5 254.85 71.5 254.85 76.5 264.7 76.5
M 264.2 72.85
L 264.2 73.5 257.5 73.5 257.5 72.85 264.2 72.85
M 257.5 75.1
L 257.5 74.5 264.2 74.5
Q 264.1 75.1 263.45 75.1
L 257.5 75.1
M 265.85 80
L 268.2 80
Q 267.7 78.15 267 76.85
L 264.95 76.85
Q 265.6 78.3 265.85 80
M 256.6 76.85
L 254.55 76.85
Q 254.3 78.55 253.45 80
L 255.7 80
Q 256.45 78.85 256.6 76.85
M 260.7 76.85
Q 261.05 77.4 261.25 78.25
L 264 78.25
Q 263.75 77.4 263.25 76.85
L 260.7 76.85
M 259.45 78.1
L 259.45 76.85 257 76.85 257 78.65
Q 256.95 80.55 259 80.5
L 263.5 80.5
Q 265.3 80.55 265.25 78.9
L 265.25 78.35 263.3 78.35 263.3 78.55
Q 263.35 79.05 262.8 79.05
L 260.35 79.05
Q 259.35 79.1 259.45 78.1
M 267.25 68.5
L 267.25 66.85 262.45 66.85 262.45 66.25 259.25 66.25 259.25 66.85 254.45 66.85 254.45 68.5 267.25 68.5
M 268.05 71.05
L 268.05 69.4 264.75 69.4
Q 264.95 69.1 265.05 68.75
L 262.35 68.75
Q 262.3 69.1 262.1 69.4
L 259.55 69.4
Q 259.35 69.1 259.3 68.75
L 256.6 68.75
Q 256.7 68.9 256.8 69.15 256.85 69.35 256.85 69.4
L 253.6 69.4 253.6 71.05 268.05 71.05
M 248.45 67.35
L 246.3 67.35 246.3 77.55 248.45 77.55 248.45 67.35
M 251.6 66.3
L 249.25 66.3 249.25 78.3
Q 249.25 78.85 248.7 78.85
L 247.55 78.85 247.55 80.5 249.6 80.5
Q 251.7 80.55 251.6 78.55
L 251.6 66.3
M 245.05 71.65
Q 245.55 71.9 246 72.1
L 246 70.4
Q 244.05 68.85 243.1 66.25
L 240.5 66.25
Q 239.6 68.9 237.75 70.5
L 237.75 72.15
Q 237.85 72.1 238.05 72.05 238.3 71.9 238.45 71.85
L 238.45 78.05
Q 238.35 80.35 240.5 80.25
L 243.8 80.25
Q 245.85 80.3 245.8 78.25
L 245.8 77.35 243.75 77.35 243.75 77.85
Q 243.8 78.65 243.05 78.6
L 241.7 78.6
Q 240.85 78.65 240.95 77.75
L 240.95 72.9 242.75 72.9 242.75 74.4
Q 242.8 75.1 242.05 75.1
L 241.55 75.1 241.55 76.85 242.75 76.85
Q 245.25 77 245.05 74.55
L 245.05 71.65
M 239.7 71.15
Q 240.95 70.35 241.8 69 242.85 70.5 244.05 71.15
L 239.7 71.15
M 226.55 66.3
L 223.95 66.3
Q 223.25 69.85 221.5 71
L 221.5 72.55
Q 221.6 72.5 221.95 72.4 222.55 72.25 222.8 72.15
L 222.8 80.6 225.3 80.6 225.3 69.9
Q 226 68.65 226.55 66.3
M 232 66.3
L 229.45 66.3 229.45 68.25 226.05 68.25 226.05 70 226.95 70
Q 227.05 74.5 225.7 77.25
L 225.7 79.25
Q 226.95 78.15 227.7 76.85
L 227.7 77.9 229.45 77.9 229.45 80.6 232 80.6 232 77.9 233.7 77.9 233.7 76.8
Q 234.45 78 235.8 79.25
L 235.8 77.25
Q 234.35 74.5 234.5 70
L 235.5 70 235.5 68.25 232 68.25 232 66.3
M 232 70
L 232.35 70
Q 232.3 74.35 233.45 76.3
L 232 76.3 232 70
M 229.1 70
L 229.45 70 229.45 76.3 228 76.3
Q 229.05 74.15 229.1 70
M 211.7 67.15
L 210.95 67.15 210.95 68.9 211.7 68.9 211.7 73.6 214.2 73.6 214.2 74.4 210.8 74.4 210.8 76.15 212 76.15
Q 211.8 78 210.8 78.85
L 210.8 80.4
Q 213.7 79.25 214.05 76.15
L 214.2 76.15 214.2 80.6 216.55 80.6 216.55 76.15 216.6 76.15
Q 216.95 79.25 219.95 80.4
L 219.95 78.9
Q 218.7 77.85 218.6 76.15
L 220 76.15 220 74.4 216.55 74.4 216.55 73.6 216.75 73.6
Q 219.2 73.75 219.05 71.4
L 219.05 68.9 219.95 68.9 219.95 67.15 219.05 67.15 219.05 66.15 216.7 66.15 216.7 67.15 214.05 67.15 214.05 66.15 211.7 66.15 211.7 67.15
M 216.7 68.9
L 216.7 69.65 214.05 69.65 214.05 68.9 216.7 68.9
M 216.7 71.3
Q 216.75 72.05 216 72
L 214.05 72 214.05 71.15 216.7 71.15 216.7 71.3
M 210.5 66.3
L 208.55 66.3 208.55 68.1 207.8 68.1 207.8 66.3 205.85 66.3 205.85 68.1 205.45 68.1 205.45 69.8 205.85 69.8 205.85 72.75
Q 205.85 76.05 206.95 77.8 206.85 77.85 206.7 78.05 206.05 78.65 205.6 79
L 205.6 80.6
Q 207.1 79.75 208.05 79.05 209.05 79.75 210.55 80.6
L 210.55 79
Q 210.05 78.65 209.5 78.05 209.3 77.85 209.25 77.8 210.5 76.05 210.5 72.75
L 210.5 69.8 210.8 69.8 210.8 68.1 210.5 68.1 210.5 66.3
M 207.8 69.8
L 208.55 69.8 208.55 72.8
Q 208.55 74.75 208.1 75.9 207.8 74.85 207.8 72.8
L 207.8 69.8
M 199.8 72.6
L 191.3 72.6 191.3 74.55 199.8 74.55 199.8 72.6
M 171.15 66.8
L 171.15 68.65
Q 172.45 68.85 173.8 69.6
L 173.8 67.3
Q 172.65 66.85 171.15 66.8
M 170.95 71.05
L 170.95 73.3
Q 172.85 72.65 174.2 72
L 174.2 74 176.55 74 176.55 66.25 174.2 66.25 174.2 69.9
Q 172.95 70.6 170.95 71.05
M 185.2 68.75
L 185.2 67 181.1 67
Q 181.15 66.85 181.3 66.6 181.35 66.4 181.4 66.3
L 178.9 66.3
Q 178.3 68.1 176.7 68.75
L 176.7 70
Q 177.4 69.9 177.95 69.75
L 177.95 70.85
Q 178.9 71.05 179.9 71.4 179.15 71.9 177.35 72.35
L 177.35 73.75 176.65 73.75 176.65 74.1
Q 176.65 74.35 176.65 74.6
L 171.15 74.6 171.15 76.35 176.2 76.35
Q 175.15 78.6 170.95 79.1
L 170.95 80.6
Q 176.15 80.25 178.15 78 180.55 80.1 185.35 80.6
L 185.35 79.1
Q 181.05 78.5 180.1 76.35
L 185.3 76.35 185.3 74.6 179.65 74.6
Q 179.65 74.35 179.65 74.1
L 179.65 73.75 178.1 73.75
Q 183.3 73 185.2 68.75
M 180.8 70.85
L 180.8 69.75
Q 179.95 69.4 178.95 69.35 179.55 69.1 179.95 68.75
L 182.45 68.75
Q 181.55 70.15 180.8 70.85
M 155.4 70.8
L 155.4 72.6 158.8 72.6 158.8 73.75 155.6 73.75 155.6 75.55 158.8 75.55 158.8 76.85 155.05 76.85 155.05 78.6 158.8 78.6 158.8 80.65 161.6 80.65 161.6 70.15 158.8 70.15 158.8 70.8 155.4 70.8
M 165.45 73.75
L 165.45 72.6 168.9 72.6 168.9 70.8 165.45 70.8 165.45 70.15 162.65 70.15 162.65 80.65 165.45 80.65 165.45 78.6 169.3 78.6 169.3 76.85 165.45 76.85 165.45 75.55 168.7 75.55 168.7 73.75 165.45 73.75
M 165.9 67.1
L 165.9 66.15 163.35 66.15 163.35 67.1 160.95 67.1 160.95 66.15 158.4 66.15 158.4 67.1 155.05 67.1 155.05 68.85 158.4 68.85 158.4 69.85 160.95 69.85 160.95 68.85 163.35 68.85 163.35 69.85 165.9 69.85 165.9 68.85 169.35 68.85 169.35 67.1 165.9 67.1
M 151.8 71.3
L 148.7 71.3
Q 147.65 73.9 146.15 75.5 144.8 74.15 143.6 71.3
L 140.55 71.3
Q 142.05 75.05 144.2 77 142.6 78.05 139.05 78.9
L 139.05 80.6
Q 143.85 79.65 146.15 78.35 148.45 79.65 153.3 80.6
L 153.3 78.9
Q 149.7 78.05 148.1 77 150.3 75.05 151.8 71.3
M 150.3 67.5
L 150.3 66.15 147.65 66.15 147.65 67.5 144.65 67.5 144.65 66.15 142.05 66.15 142.05 67.5 138.9 67.5 138.9 69.3 142.05 69.3 142.05 70.6 144.65 70.6 144.65 69.3 147.65 69.3 147.65 70.6 150.3 70.6 150.3 69.3 153.4 69.3 153.4 67.5 150.3 67.5
M 137.1 66.55
L 123.3 66.55 123.3 80.35 134.65 80.35
Q 137.15 80.4 137.1 77.9
L 137.1 66.55
M 125.95 68.3
L 134.4 68.3 134.4 77.75
Q 134.4 78.75 133.4 78.75
L 125.95 78.75 125.95 68.3
M 132.05 76
L 133.9 76
Q 133.7 75.05 133.3 74.25
L 131.55 74.25
Q 131.9 75.15 132.05 76
M 126.7 72.3
L 126.7 74 128.7 74 128.7 76.25 126.35 76.25 126.35 77.9 133.95 77.9 133.95 76.25 131.35 76.25 131.35 74 133.6 74 133.6 72.3 131.35 72.3 131.35 70.85 133.85 70.85 133.85 69.25 126.45 69.25 126.45 70.85 128.7 70.85 128.7 72.3 126.7 72.3
M 120.8 73.85
L 120.8 68.5 115.6 68.5 115.6 66.15 112.7 66.15 112.7 68.5 107.55 68.5 107.55 76.8 112.7 76.8 112.7 80.75 115.6 80.75 115.6 76.8 118.2 76.8
Q 120.9 77 120.8 73.85
M 115.6 70.3
L 118.15 70.3 118.15 73.9
Q 118.2 75 117.3 75
L 115.6 75 115.6 70.3
M 110.15 70.3
L 112.7 70.3 112.7 75 110.15 75 110.15 70.3
M 240.7 48.2
L 238.05 48.2 238.05 58.9 240.7 58.9 240.7 48.2
M 240.5 44.85
L 238.1 44.85
Q 238.55 46.1 238.75 47.65
L 241.35 47.65
Q 241.2 46.35 240.5 44.85
M 245.85 56.6
Q 248.25 56.7 248.1 54.4
L 248.1 47.9 241.55 47.9 241.55 56.6 245.85 56.6
M 245.8 49.6
L 245.8 51.35 243.85 51.35 243.85 49.6 245.8 49.6
M 243.85 54.9
L 243.85 52.95 245.8 52.95 245.8 54.1
Q 245.8 54.9 245 54.9
L 243.85 54.9
M 247.45 57.15
L 247.45 58.8 249.2 58.8
Q 251.8 58.9 251.7 56.45
L 251.7 45.05 242.05 45.05 242.05 46.85 249.05 46.85 249.05 56.4
Q 249.1 57.2 248.3 57.15
L 247.45 57.15
M 226.35 45.3
L 221.95 45.3 221.95 58.05 224.35 58.05
Q 226.5 58.15 226.35 55.9
L 226.35 45.3
M 223.95 48.95
L 223.95 46.95 224.6 46.95 224.6 48.95 223.95 48.95
M 223.95 50.55
L 224.6 50.55 224.6 52.6 223.95 52.6 223.95 50.55
M 223.95 54.2
L 224.6 54.2 224.6 55.95
Q 224.6 56.45 224.2 56.45
L 223.95 56.45 223.95 54.2
M 235.8 46.95
L 233.55 46.95
Q 233.25 48.05 232.95 48.45
L 226.7 48.45 226.7 50.95 227.55 50.95
Q 227.35 52.7 226.5 53.9
L 226.5 55.45
Q 226.95 55.15 227.3 54.9
L 227.3 55.6
Q 227.85 55.7 228.3 55.9 227.7 56.85 226.55 57.55
L 226.55 59.15
Q 230.35 57.4 231.05 53.95
L 231.05 55.35
Q 231 56.9 232.5 56.85
L 232.95 56.85 232.95 58.9 234.8 58.9 234.8 56.85 236.1 56.85 236.1 55.2 234.8 55.2 234.8 53.15 236 53.15 236 51.55 234.8 51.55 234.8 50.95 236 50.95 236 48.45 235 48.45
Q 235.35 48.05 235.8 46.95
M 233.8 50.65
L 232.95 50.65 232.95 51.55 231.5 51.55 231.5 53.15 232.95 53.15 232.95 55.2
Q 232.5 55.15 232.55 54.65
L 232.55 53.55 231.1 53.55
Q 231.2 53.4 231.2 53.2 231.25 53.05 231.25 52.95
L 231.25 51.35 229.35 51.35
Q 229.45 51.2 229.45 51.05 229.5 50.8 229.5 50.65
L 228.85 50.65 228.85 50.1 233.8 50.1 233.8 50.65
M 229.45 52.95
Q 229.25 53.7 229.05 54.35 228.7 54.15 228.25 54.1 228.6 53.6 228.95 52.95
L 229.45 52.95
M 232.05 46.95
L 230 46.95
Q 230.3 47.4 230.55 48.3
L 232.7 48.3
Q 232.45 47.4 232.05 46.95
M 226.85 45.1
L 226.85 46.7 233 46.7
Q 234.55 46.8 235.95 46.3
L 235.95 44.6
Q 234.25 45.15 232.7 45.1
L 226.85 45.1
M 226.85 46.95
Q 227.2 47.45 227.45 48.3
L 229.6 48.3
Q 229.45 47.6 229 46.95
L 226.85 46.95
M 212.05 44.55
L 212.05 45.3 206.55 45.3 206.55 53.45
Q 206.6 55.95 205.75 57.3
L 205.75 59.05
Q 207.85 57.7 208.5 56.45
L 208.5 58.3
Q 211.2 57.45 212.6 56.35
L 212.6 54.6
Q 212.45 54.7 212.05 54.9 211.8 55.1 211.7 55.15 211.5 54.6 211.35 53.95
L 209.35 53.95
Q 209.7 55.35 210 55.9 209.8 55.95 209.45 56.1 208.85 56.3 208.55 56.35 209.1 55.05 209.1 53.1
L 209.1 51.45 212.8 51.45 212.8 52.1 209.35 52.1 209.35 53.7 212.8 53.7 212.8 56.7
Q 212.85 57.4 212.05 57.4
L 211.7 57.4 211.7 58.95 213 58.95
Q 215.25 59.05 215.2 56.7
L 215.2 56.45
Q 216.55 57.55 219.8 58.65
L 219.8 57.05
Q 218.8 56.6 218.55 56.45 218.2 56.3 218 56.2 218.45 55.6 218.7 53.9
L 216.7 53.9
Q 216.6 54.15 216.55 54.6 216.45 54.9 216.45 55.1 215.8 54.55 215.2 53.85
L 215.2 53.7 216.85 53.7
Q 219.1 53.8 219 51.55
L 219 51.45 220.1 51.45 220.1 49.85 219 49.85 219 47.65 215.2 47.65 215.2 46.95 220.05 46.95 220.05 45.3 215.25 45.3 215.25 44.55 212.05 44.55
M 209.5 47.65
L 209.5 49.3 212.8 49.3 212.8 49.85 209.1 49.85 209.1 46.95 212.8 46.95 212.8 47.65 209.5 47.65
M 215.2 49.3
L 216.75 49.3 216.75 49.85 215.2 49.85 215.2 49.3
M 216 52.1
L 215.2 52.1 215.2 51.45 216.75 51.45
Q 216.8 52.15 216 52.1
M 195.25 56.45
L 195.25 54.6
Q 192.75 55.8 190.2 56.3
L 190.2 58.55
Q 193.05 57.9 195.25 56.45
M 198.6 54.6
L 198.6 56.55
Q 200.95 57.2 203.45 58.85
L 203.45 56.45
Q 201.3 55.15 198.6 54.6
M 195.55 56.55
Q 195.6 57.4 194.8 57.35
L 194.2 57.35 194.2 58.9 195.95 58.9
Q 198.35 59.05 198.25 56.55
L 198.25 52.2 195.55 52.2 195.55 56.55
M 202.85 48.85
L 202.85 47.3 198.05 47.3
Q 198.05 47.15 198.1 46.95 198.1 46.8 198.1 46.7
L 203.35 46.7 203.35 45.1 198.2 45.1 198.2 44.45 195.3 44.45 195.3 45.1 190.25 45.1 190.25 46.7 195.25 46.7
Q 195.25 46.8 195.25 46.95 195.2 47.15 195.2 47.3
L 190.75 47.3 190.75 48.85 194.75 48.85
Q 194.75 48.9 194.6 49.1 194.55 49.35 194.5 49.45
L 189.75 49.45 189.75 51.05 193 51.05
Q 191.8 52.05 189.6 52.8
L 189.6 54.4
Q 190.1 54.2 191 53.9 191.75 53.65 192.1 53.55 192.3 54.05 192.75 54.6
L 195.05 54.6
Q 194.35 53.45 194.3 52.55 195.45 51.85 196.3 51.05
L 197.75 51.05
Q 198.6 52.05 199.55 52.65 199.35 53.6 198.75 54.6
L 201.1 54.6
Q 201.2 54.55 201.25 54.35 201.55 53.95 201.6 53.7 202.6 54.1 203.95 54.4
L 203.95 52.8
Q 201.8 52.1 200.7 51.05
L 203.95 51.05 203.95 49.45 197.45 49.45
Q 197.6 49.1 197.7 48.85
L 202.85 48.85
M 183.8 52.85
L 183.8 50.9 175.3 50.9 175.3 52.85 183.8 52.85
M 161.8 55.2
L 159.55 55.2
Q 160.1 56.65 160.3 57.6
L 162.7 57.6
Q 162.45 56.2 161.8 55.2
M 168.2 47.8
L 162.9 47.8
Q 162.95 47.65 163.05 47.4 163.1 47.2 163.1 47.1
L 169.05 47.1 169.05 45.2 163.45 45.2
Q 163.55 45.1 163.55 44.9 163.6 44.65 163.6 44.55
L 160.7 44.55
Q 160.7 44.65 160.65 44.9 160.65 45.1 160.6 45.2
L 155.3 45.2 155.3 47.1 160.3 47.1
Q 160.3 47.45 160.15 47.8
L 156.1 47.8 156.1 49.55 159.65 49.55
Q 159.6 49.7 159.55 50.05 159.4 50.2 159.4 50.35
L 155.05 50.35 155.05 52.15 158.45 52.15
Q 157.45 54.05 155.15 56.2
L 155.15 58.1
Q 157.6 56.45 159.15 54.85
L 164.8 54.85 164.8 56.55
Q 164.85 57.2 164.1 57.2
L 163.3 57.2 163.3 58.85 165.3 58.85
Q 167.4 58.85 167.4 56.8
L 167.4 54.85 169.4 54.85 169.4 53.05 167.4 53.05 167.4 52.15 169.4 52.15 169.4 50.35 162.1 50.35
Q 162.15 50.2 162.3 49.9 162.35 49.65 162.4 49.55
L 168.2 49.55 168.2 47.8
M 164.8 52.15
L 164.8 53.05 160.6 53.05 160.65 52.95
Q 161.05 52.4 161.15 52.15
L 164.8 52.15
M 144.65 44.6
L 144.65 46.2
Q 144.8 52.65 138.95 57.15
L 138.95 58.9
Q 144.6 56.2 146.15 52.4 147.8 56.2 153.35 58.9
L 153.35 57.15
Q 147.55 52.65 147.65 46.2
L 147.65 44.6 144.65 44.6
M 129.4 45.3
L 123.9 45.3 123.9 53.45
Q 123.95 55.95 123.1 57.3
L 123.1 59.05
Q 125.2 57.7 125.85 56.45
L 125.85 58.3
Q 128.55 57.45 129.95 56.35
L 129.95 54.6
Q 129.8 54.7 129.4 54.9 129.15 55.1 129.05 55.15 128.85 54.6 128.7 53.95
L 126.7 53.95
Q 127.05 55.35 127.35 55.9 127.15 55.95 126.8 56.1 126.2 56.3 125.9 56.35 126.45 55.05 126.45 53.1
L 126.45 51.45 130.15 51.45 130.15 52.1 126.7 52.1 126.7 53.7 130.15 53.7 130.15 56.7
Q 130.2 57.4 129.4 57.4
L 129.05 57.4 129.05 58.95 130.35 58.95
Q 132.6 59.05 132.55 56.7
L 132.55 56.45
Q 133.9 57.55 137.15 58.65
L 137.15 57.05
Q 136.15 56.6 135.9 56.45 135.55 56.3 135.35 56.2 135.8 55.6 136.05 53.9
L 134.05 53.9
Q 133.95 54.15 133.9 54.6 133.8 54.9 133.8 55.1 133.15 54.55 132.55 53.85
L 132.55 53.7 134.2 53.7
Q 136.45 53.8 136.35 51.55
L 136.35 51.45 137.45 51.45 137.45 49.85 136.35 49.85 136.35 47.65 132.55 47.65 132.55 46.95 137.4 46.95 137.4 45.3 132.6 45.3 132.6 44.55 129.4 44.55 129.4 45.3
M 126.85 49.3
L 130.15 49.3 130.15 49.85 126.45 49.85 126.45 46.95 130.15 46.95 130.15 47.65 126.85 47.65 126.85 49.3
M 132.55 49.3
L 134.1 49.3 134.1 49.85 132.55 49.85 132.55 49.3
M 133.35 52.1
L 132.55 52.1 132.55 51.45 134.1 51.45
Q 134.15 52.15 133.35 52.1
M 112.6 56.45
L 112.6 54.6
Q 110.1 55.8 107.55 56.3
L 107.55 58.55
Q 110.4 57.9 112.6 56.45
M 120.8 58.85
L 120.8 56.45
Q 118.65 55.15 115.95 54.6
L 115.95 56.55
Q 118.3 57.2 120.8 58.85
M 115.6 52.2
L 112.9 52.2 112.9 56.55
Q 112.95 57.4 112.15 57.35
L 111.55 57.35 111.55 58.9 113.3 58.9
Q 115.7 59.05 115.6 56.55
L 115.6 52.2
M 108.1 47.3
L 108.1 48.85 112.1 48.85
Q 112.1 48.9 111.95 49.1 111.9 49.35 111.85 49.45
L 107.1 49.45 107.1 51.05 110.35 51.05
Q 109.15 52.05 106.95 52.8
L 106.95 54.4
Q 107.45 54.2 108.35 53.9 109.1 53.65 109.45 53.55 109.65 54.05 110.1 54.6
L 112.4 54.6
Q 111.7 53.45 111.65 52.55 112.8 51.85 113.65 51.05
L 115.1 51.05
Q 115.95 52.05 116.9 52.65 116.7 53.6 116.1 54.6
L 118.45 54.6
Q 118.55 54.55 118.6 54.35 118.9 53.95 118.95 53.7 119.95 54.1 121.3 54.4
L 121.3 52.8
Q 119.15 52.1 118.05 51.05
L 121.3 51.05 121.3 49.45 114.8 49.45
Q 114.95 49.1 115.05 48.85
L 120.2 48.85 120.2 47.3 115.4 47.3
Q 115.4 47.15 115.45 46.95 115.45 46.8 115.45 46.7
L 120.7 46.7 120.7 45.1 115.55 45.1 115.55 44.45 112.65 44.45 112.65 45.1 107.6 45.1 107.6 46.7 112.6 46.7
Q 112.6 46.8 112.6 46.95 112.55 47.15 112.55 47.3
L 108.1 47.3
M 194.6 18.15
L 194.6 15.35 181.85 15.35
Q 181.95 15.05 182.15 14.5 182.25 14.1 182.35 13.85
L 178.1 13.85
Q 177.1 17.95 174.1 19.85
L 174.1 22.35
Q 175.5 22 176.55 21.45
L 176.55 28 173.7 28 173.7 30.7 183.95 30.7 183.95 35.4 188.25 35.4 188.25 30.7 195.35 30.7 195.35 28 188.25 28 188.25 23.6 194.05 23.6 194.05 20.85 188.25 20.85 188.25 18.15 194.6 18.15
M 183.95 18.15
L 183.95 20.85 177.65 20.85
Q 179.45 19.75 180.55 18.15
L 183.95 18.15
M 180.45 23.6
L 183.95 23.6 183.95 28 180.45 28 180.45 23.6
M 169.35 14.5
L 165.2 14.5 155.45 27.7 155.45 30.6 165 30.6 165 34.75 169.35 34.75 169.35 30.6 171.75 30.6 171.75 27.7 169.35 27.7 169.35 14.5
M 165 20.4
L 165 27.7 159.65 27.7 165 20.4
M 152.45 14.5
L 147.95 14.5
Q 146.2 18.45 141.5 20.4
L 141.5 22.95
Q 145.35 22.35 147.95 20.5
L 147.95 34.75 152.45 34.75 152.45 14.5
M 131.9 14.1
Q 124.3 14.5 124.15 24.7 124.25 34.95 131.9 35.1 139.9 35.2 139.8 24.7 139.7 14.2 131.9 14.1
M 132 32.4
Q 128.65 32.4 128.65 24.8 128.65 16.95 132 17 135.3 16.85 135.2 24.8 135.2 32.4 132 32.4
M 122.1 34.75
L 122.1 32.1 111.7 32.1
Q 113.3 29.5 117.6 26.95 122.45 24.05 122.2 20 121.9 14.4 115.05 14.2 108.3 14.3 107.1 21.05
L 111.3 21.05
Q 111.8 17.2 114.8 17.1 117.7 17 117.7 20.2 117.95 22.25 113.1 25.75 109.15 28.65 107.2 32
L 107.2 34.75 122.1 34.75 Z"/>
</g>
</defs>

<g transform="matrix( 1, 0, 0, 1, 0,0) ">
<use xlink:href="#Layer2_0_FILL"/>
</g>

<g transform="matrix( 10.800430297851562, 0, 0, 10.800430297851562, 5.5,4.6) ">
<g transform="matrix( 1, 0, 0, 1, 0,0) ">
<use xlink:href="#pop_0_Layer5_0_FILL"/>
</g>

<g transform="matrix( 1, 0, 0, 1, 0,0) ">
<use xlink:href="#pop_0_Layer4_0_FILL"/>
</g>

<g transform="matrix( 1, 0, 0, 1, 0,0) ">
<use xlink:href="#pop_0_Layer3_0_FILL"/>
</g>

<g transform="matrix( 1, 0, 0, 1, 0,0) ">
<use xlink:href="#pop_0_Layer2_0_FILL"/>
</g>

<g transform="matrix( 1, 0, 0, 1, 0,0) ">
<use xlink:href="#pop_0_Layer1_0_FILL"/>
</g>

<g transform="matrix( 1, 0, 0, 1, 0,0) ">
<use xlink:href="#pop_0_Layer0_0_FILL"/>
</g>
</g>

<g transform="matrix( 1, 0, 0, 1, 0,0) ">
<use xlink:href="#Layer2_1_MEMBER_1_FILL"/>
</g>

<g transform="matrix( 1, 0, 0, 1, 0,0) ">
<use xlink:href="#Layer2_1_MEMBER_1_MEMBER_0_FILL"/>
</g>

<g transform="matrix( 1, 0, 0, 1, 0,0) ">
<use xlink:href="#Layer1_0_FILL"/>
</g>
</svg>
