
<svg xmlns="http://www.w3.org/2000/svg" version="1.1" xmlns:xlink="http://www.w3.org/1999/xlink" preserveAspectRatio="none" x="0px" y="0px" width="21px" height="45px" viewBox="0 0 21 45">
<defs>
<g id="Layer0_0_FILL">
<path fill="#666666" stroke="none" d="
M 875.35 460.75
L 872.4 460.75 867.5 460.75 867.5 462 880.2 462 880.2 460.75 875.35 460.75 Z"/>

<path fill="#333333" stroke="none" d="
M 872.85 455.8
L 872.4 455.8 872.4 460.75 875.35 460.75 875.35 455.8 874.8 455.8 872.85 455.8
M 876.15 443.1
L 871.5 443.1 871.5 445 872.85 445 874.8 445 876.15 445 876.15 443.1
M 881.2 420.5
L 881.2 420.4
Q 881.2 420.3 881.15 420.15 881.1 420 880.95 419.85 880.8 419.7 880.4 419.7
L 867.2 419.7
Q 866.9 419.7 866.65 419.85 866.45 420.1 866.45 420.4
L 866.45 420.5
Q 866.45 420.8 866.65 421.05 866.9 421.2 867.2 421.2
L 880.05 421.2 880.4 421.2
Q 880.8 421.2 880.95 421.05 881.2 420.8 881.2 420.5 Z"/>

<path fill="#CCCCCC" stroke="none" d="
M 874.8 445
L 872.85 445 872.85 455.8 874.8 455.8 874.8 445 Z"/>

<path fill="#FFFFFF" stroke="none" d="
M 870.1 427.05
L 870.1 428.5 871.25 428.5 871.25 430.05 871.25 436.35 872.75 436.35 872.75 432.75
Q 873.1 432.9 873.5 432.9 873.8 432.9 874.15 432.9 874.85 432.9 875.6 432.75 876.25 432.6 876.75 432.2 877.3 431.85 877.65 431.3 878 430.65 878 429.85 878 429.2 877.75 428.65 877.45 428.1 876.95 427.75 876.6 427.4 875.95 427.2 875.35 427.05 874.8 427.05
L 874.3 427.05 870.1 427.05
M 874.8 428.5
Q 875.1 428.5 875.35 428.65 875.7 428.65 875.95 428.8 876.15 429 876.35 429.25 876.5 429.5 876.5 429.85 876.5 430.35 876.25 430.65 876 430.9 875.7 431.1 875.35 431.3 874.95 431.35 874.55 431.5 874.15 431.5 873.8 431.5 873.5 431.4 873.1 431.35 872.75 431.3
L 872.75 428.5 874.8 428.5 Z"/>

<path fill="#990000" stroke="none" d="
M 875.35 428.65
Q 875.1 428.5 874.8 428.5
L 872.75 428.5 872.75 431.3
Q 873.1 431.35 873.5 431.4 873.8 431.5 874.15 431.5 874.55 431.5 874.95 431.35 875.35 431.3 875.7 431.1 876 430.9 876.25 430.65 876.5 430.35 876.5 429.85 876.5 429.5 876.35 429.25 876.15 429 875.95 428.8 875.7 428.65 875.35 428.65 Z"/>

<path fill="#D94545" stroke="none" d="
M 883.85 417.4
L 883.85 417.35 863.8 417.35 863.8 437.55 871.25 430.05 871.25 428.5 870.1 428.5 870.1 427.05 874.3 427.05 880.05 421.2 867.2 421.2
Q 866.9 421.2 866.65 421.05 866.45 420.8 866.45 420.5
L 866.45 420.4
Q 866.45 420.1 866.65 419.85 866.9 419.7 867.2 419.7
L 880.4 419.7
Q 880.8 419.7 880.95 419.85 881.1 420 881.15 420.15
L 883.85 417.4 Z"/>

<path fill="#9C2323" stroke="none" d="
M 881.2 420.4
L 881.2 420.5
Q 881.2 420.8 880.95 421.05 880.8 421.2 880.4 421.2
L 880.05 421.2 874.3 427.05 874.8 427.05
Q 875.35 427.05 875.95 427.2 876.6 427.4 876.95 427.75 877.45 428.1 877.75 428.65 878 429.2 878 429.85 878 430.65 877.65 431.3 877.3 431.85 876.75 432.2 876.25 432.6 875.6 432.75 874.85 432.9 874.15 432.9 873.8 432.9 873.5 432.9 873.1 432.9 872.75 432.75
L 872.75 436.35 871.25 436.35 871.25 430.05 863.8 437.55 863.8 443.1 871.5 443.1 876.15 443.1 883.85 443.1 883.85 417.4 881.15 420.15
Q 881.2 420.3 881.2 420.4 Z"/>
</g>
</defs>

<g transform="matrix( 1, 0, 0, 1, -863.8,-417) ">
<use xlink:href="#Layer0_0_FILL"/>
</g>
</svg>
