
<svg xmlns="http://www.w3.org/2000/svg" version="1.1" xmlns:xlink="http://www.w3.org/1999/xlink" preserveAspectRatio="none" x="0px" y="0px" width="21px" height="23px" viewBox="0 0 21 23">
<defs>
<g id="Layer0_0_MEMBER_0_FILL">
<path fill="#FFFFFF" stroke="none" d="
M 1390.5 458.5
L 1390.5 454.9 1383.9 454.9 1382.75 458.5 1390.5 458.5
M 1380.3 460
L 1380.4 461.7 1390.5 461.7 1390.5 460 1382.7 460 1380.3 460
M 1390.5 450.8
L 1390.5 446.7 1386.5 446.7 1385.2 450.8 1390.5 450.8
M 1390.5 439.15
L 1388.95 439.15 1387.85 442.65 1390.5 442.65 1390.5 439.15 Z"/>

<path fill="#CCCCCC" stroke="none" d="
M 1382.75 458.5
L 1382.7 460 1390.5 460 1390.5 458.5 1382.75 458.5
M 1394.6 446.7
L 1390.5 446.7 1390.5 450.8 1395.9 450.8 1394.6 446.7
M 1400.75 461.7
L 1400.85 460 1398.45 460 1390.5 460 1390.5 461.7 1400.75 461.7
M 1398.4 458.5
L 1397.25 454.9 1390.5 454.9 1390.5 458.5 1398.4 458.5
M 1390.5 439.15
L 1390.5 442.65 1393.3 442.65 1392.2 439.15 1390.5 439.15 Z"/>

<path fill="#B84F4F" stroke="none" d="
M 1390.5 454.9
L 1390.5 450.8 1385.2 450.8 1383.9 454.9 1390.5 454.9
M 1390.5 442.65
L 1387.85 442.65 1386.5 446.7 1390.5 446.7 1390.5 442.65 Z"/>

<path fill="#873535" stroke="none" d="
M 1395.9 450.8
L 1390.5 450.8 1390.5 454.9 1397.25 454.9 1395.9 450.8
M 1393.3 442.65
L 1390.5 442.65 1390.5 446.7 1394.6 446.7 1393.3 442.65 Z"/>

<path fill="#999999" stroke="none" d="
M 1398.45 460
L 1398.4 458.5 1390.5 458.5 1390.5 460 1398.45 460 Z"/>
</g>
</defs>

<g transform="matrix( 1, 0, 0, 1, -1380.3,-438.7) ">
<use xlink:href="#Layer0_0_MEMBER_0_FILL"/>
</g>
</svg>
