
<svg xmlns="http://www.w3.org/2000/svg" version="1.1" xmlns:xlink="http://www.w3.org/1999/xlink" preserveAspectRatio="none" x="0px" y="0px" width="1490px" height="1077px" viewBox="0 0 1490 1077">
<defs>
<g id="Layer0_0_FILL">
<path fill="#FFFFFF" fill-opacity="0.5019607843137255" stroke="none" d="
M 464.95 9.65
Q 457.35 11.7 435.65 18.6 415 25.45 391.95 27.2 369.55 29.25 337.5 20.65 319.95 15.15 317.2 12.75 309.95 14.8 291.35 19.95 273.1 25.45 241.45 31.65 210.1 37.55 164.65 26.85 120.55 16.5 98.85 3.45 80.6 8.95 68.2 11.35 47.85 15.5 21.7 15.5 12.4 15.5 0 14.1
L 0 20.3
Q 12.4 21.35 21.7 21.35 47.85 21.35 68.2 18.25 80.6 16.5 98.85 12.75 120.55 22.05 164.65 29.25 210.1 36.85 241.45 32.7 273.1 28.25 291.35 24.45 309.95 20.65 317.2 19.25 319.95 21 337.5 24.8 369.55 31 391.95 29.6 415 28.25 435.65 23.4 457.35 18.6 464.95 17.2 508 32 548.95 34.45 508 31 464.95 9.65
M 906.45 7.2
Q 882 13.05 853.75 19.95 825.2 26.5 787.65 25.8 750.1 25.45 723.95 19.95 697.75 14.1 670.55 7.9 667.8 8.95 644.05 21 622.7 31.35 581.35 34.45 622.7 32.35 644.05 25.15 667.8 16.5 670.55 15.85 697.75 20.3 723.95 24.45 750.1 28.25 787.65 28.55 825.2 28.9 853.75 24.45 882 19.6 906.45 15.5 985.35 33.05 1032.15 34.75 985.35 32 906.45 7.2
M 1489.55 31.35
L 1489.55 29.6
Q 1440.6 19.6 1385.15 0
L 1377.25 0
Q 1348.3 17.55 1294.95 25.8 1267.4 31.35 1211.6 17.9 1201.95 15.5 1192.3 13.05 1183.35 15.5 1156.15 21.35 1109.3 30.65 1070.05 33.75 1109.3 32 1156.15 25.45 1183.35 21.35 1192.3 19.6 1201.95 21.35 1211.6 23.05 1267.4 32.35 1294.95 28.55 1348.3 22.7 1377.25 10.3
L 1385.15 10.3
Q 1440.6 24.1 1489.55 31.35 Z"/>

<path fill="#4F8BDE" fill-opacity="0.30196078431372547" stroke="none" d="
M 1385.15 10.3
L 1377.25 10.3
Q 1348.3 22.7 1294.95 28.55 1267.4 32.35 1211.6 23.05 1201.95 21.35 1192.3 19.6 1183.35 21.35 1156.15 25.45 1109.3 32 1070.05 33.75
L 1032.15 34.75
Q 985.35 33.05 906.45 15.5 882 19.6 853.75 24.45 825.2 28.9 787.65 28.55 750.1 28.25 723.95 24.45 697.75 20.3 670.55 15.85 667.8 16.5 644.05 25.15 622.7 32.35 581.35 34.45
L 568.95 34.75
Q 564.8 34.75 560.7 34.75
L 548.95 34.45
Q 508 32 464.95 17.2 457.35 18.6 435.65 23.4 415 28.25 391.95 29.6 369.55 31 337.5 24.8 319.95 21 317.2 19.25 309.95 20.65 291.35 24.45 273.1 28.25 241.45 32.7 210.1 36.85 164.65 29.25 120.55 22.05 98.85 12.75 80.6 16.5 68.2 18.25 47.85 21.35 21.7 21.35 12.4 21.35 0 20.3
L 0 1076.25 1489.55 1076.25 1489.55 31.35
Q 1440.6 24.1 1385.15 10.3 Z"/>
</g>
</defs>

<g transform="matrix( 1, 0, 0, 1, 0,0) ">
<use xlink:href="#Layer0_0_FILL"/>
</g>
</svg>
