
<svg xmlns="http://www.w3.org/2000/svg" version="1.1" xmlns:xlink="http://www.w3.org/1999/xlink" preserveAspectRatio="none" x="0px" y="0px" width="1323px" height="467px" viewBox="0 0 1323 467">
<defs>
<linearGradient id="Gradient_1" gradientUnits="userSpaceOnUse" x1="2490.4375" y1="457.0374999999999" x2="2489.7625" y2="919.5625" spreadMethod="pad">
<stop  offset="0%" stop-color="#00A8FF"/>

<stop  offset="100%" stop-color="#000000"/>
</linearGradient>

<g id="Layer0_0_FILL">
<path fill="url(#Gradient_1)" stroke="none" d="
M 2869.95 461
Q 2867.2 462.4 2851.7 464.8 2823.15 468.95 2803.15 468.25 2783.2 467.25 2764.25 464.1 2745.3 460.65 2738.75 459.65 2690.9 472.4 2646.1 471.7 2601 470.65 2579.65 465.15 2558.3 459.3 2556.2 458.95 2531.75 461.7 2508.7 464.8 2485.3 467.25 2451.85 467.55 2418.45 467.55 2393.35 464.8 2368.15 461.35 2346.45 458.6 2266.6 472.05 2223.55 471.7 2180.5 471.35 2124.7 465.5 2100.6 462.4 2092.65 461.35 2084.4 462.4 2075.8 463.75 2026.2 469.95 2001.75 467.55 1954.2 463.4 1928.4 455.2
L 1921.5 455.2
Q 1872.25 464.45 1828.85 469.3
L 1828.85 921.8 3151.35 921.8 3151.35 461.7
Q 3140.35 462.4 3132.05 462.4 3109 462.4 3091.05 460.35 3079.7 459.3 3063.55 456.9 3044.25 463.05 3004.95 467.9 2965.05 473.05 2937.1 470.3 2908.9 467.25 2892.7 464.8 2876.2 462.05 2869.95 461 Z"/>
</g>
</defs>

<g transform="matrix( 1, 0, 0, 1, -1828.85,-455.2) ">
<use xlink:href="#Layer0_0_FILL"/>
</g>
</svg>
