
<svg xmlns="http://www.w3.org/2000/svg" version="1.1" xmlns:xlink="http://www.w3.org/1999/xlink" preserveAspectRatio="none" x="0px" y="0px" width="1558px" height="1096px" viewBox="0 0 1558 1096">
<defs>
<linearGradient id="Gradient_1" gradientUnits="userSpaceOnUse" x1="2474.25" y1="491.85" x2="2474.95" y2="1435.85" spreadMethod="pad">
<stop  offset="0%" stop-color="#C6ECFF"/>

<stop  offset="100%" stop-color="#001E2E"/>
</linearGradient>

<linearGradient id="Gradient_2" gradientUnits="userSpaceOnUse" x1="2474.4249999999997" y1="488.9" x2="2474.775" y2="1576.5" spreadMethod="pad">
<stop  offset="0%" stop-color="#83D4FF"/>

<stop  offset="100%" stop-color="#00030B"/>
</linearGradient>

<g id="Layer0_0_FILL">
<path fill="url(#Gradient_1)" stroke="none" d="
M 1805.45 488.6
L 1813.35 488.6
Q 1839.85 499.25 1885.65 505.1 1839.85 496.8 1813.35 481.7
L 1805.45 481.7
Q 1762.05 496.15 1722.75 505.45 1762.05 498.9 1805.45 488.6
M 2360.95 502.7
Q 2371.65 504.4 2384.05 505.45 2371.65 504.05 2360.95 501.65 2331 494.75 2305.5 488.9 2271.75 498.9 2243.85 505.45 2271.75 500.95 2305.5 493.75 2331 497.85 2360.95 502.7
M 2469.4 505.45
Q 2483.9 504.4 2496.3 502.7 2523.85 498.55 2552.8 494.05 2555.2 494.75 2580 503.4 2582.75 504.4 2586.2 505.45 2582.75 504.05 2580 502.7 2555.2 490.65 2552.8 489.6 2523.85 495.8 2496.3 501.65 2483.9 504.05 2469.4 505.45
M 2797.3 501.65
Q 2807.95 504.05 2818.65 505.45 2807.95 503.4 2797.3 500.3 2774.9 493.4 2767.35 491.35 2748.75 499.95 2730.8 505.8 2748.75 501.65 2767.35 495.45 2774.9 496.8 2797.3 501.65
M 3253.3 498.55
L 3253.3 495.8
Q 3240.2 497.15 3230.2 497.15 3203.35 497.15 3182 493.05 3168.9 490.65 3149.65 485.1 3129.65 496.5 3091.75 505.8 3129.65 499.25 3149.65 491 3168.9 494.75 3182 496.5 3203.35 499.6 3230.2 499.6 3240.2 499.6 3253.3 498.55 Z"/>

<path fill="url(#Gradient_2)" stroke="none" d="
M 2818.65 505.45
Q 2807.95 504.05 2797.3 501.65 2774.9 496.8 2767.35 495.45 2748.75 501.65 2730.8 505.8 2694 513.7 2658.5 513 2611.3 511.65 2586.2 505.45 2582.75 504.4 2580 503.4 2555.2 494.75 2552.8 494.05 2523.85 498.55 2496.3 502.7 2483.9 504.4 2469.4 505.45 2451.55 506.45 2429.85 506.8 2404.7 507.15 2384.05 505.45 2371.65 504.4 2360.95 502.7 2331 497.85 2305.5 493.75 2271.75 500.95 2243.85 505.45 2193.2 513.35 2160.85 513 2115.4 512.35 2058.2 505.45 2051.3 504.75 2044.45 503.7 2015.85 499.6 2006.9 497.85 1997.25 499.6 1986.9 501.3 1970.4 504.05 1956.65 505.45 1920.45 509.55 1899.8 506.8 1892.25 506.1 1885.65 505.1 1839.85 499.25 1813.35 488.6
L 1805.45 488.6
Q 1762.05 498.9 1722.75 505.45 1709.35 507.85 1696.25 509.55
L 1696.25 1576.85 3253.3 1576.85 3253.3 498.55
Q 3240.2 499.6 3230.2 499.6 3203.35 499.6 3182 496.5 3168.9 494.75 3149.65 491 3129.65 499.25 3091.75 505.8 3086.25 506.45 3080.75 507.5 3033.9 515.1 3000.85 510.95 2979.85 508.2 2964.35 505.45 2955.75 504.05 2948.85 502.7 2928.85 498.9 2922 497.5 2918.5 499.25 2900.3 503.05 2892 504.75 2884.4 505.8 2861 508.85 2843.45 507.85 2831.05 507.15 2818.65 505.45 Z"/>
</g>
</defs>

<g transform="matrix( 1, 0, 0, 1, -1696.25,-481.7) ">
<use xlink:href="#Layer0_0_FILL"/>
</g>
</svg>
