
<svg xmlns="http://www.w3.org/2000/svg" version="1.1" xmlns:xlink="http://www.w3.org/1999/xlink" preserveAspectRatio="none" x="0px" y="0px" width="1323px" height="467px" viewBox="0 0 1323 467">
<defs>
<linearGradient id="Gradient_1" gradientUnits="userSpaceOnUse" x1="-660.9125" y1="1.8374999999999773" x2="-661.5875" y2="464.3625" spreadMethod="pad">
<stop  offset="0%" stop-color="#00A8FF"/>

<stop  offset="100%" stop-color="#000000"/>
</linearGradient>

<g id="Layer0_0_FILL">
<path fill="url(#Gradient_1)" stroke="none" d="
M 0 466.6
L 0 14.25
Q -23.026953125 14.08515625 -37.95 11.1 -52.8232421875 8.11484375 -59.45 3.55 -72.3341796875 6.0544921875 -87.8 1.7 -107.1 7.85 -146.4 12.7 -186.3 17.85 -214.25 15.1 -242.45 12.05 -258.65 9.6 -275.15 6.85 -281.4 5.8 -284.15 7.2 -299.65 9.6 -328.2 13.75 -348.2 13.05 -368.15 12.05 -387.1 8.9 -406.05 5.45 -412.6 4.45 -460.45 17.2 -505.25 16.5 -550.35 15.45 -571.7 9.95 -593.05 4.1 -595.15 3.75 -619.6 6.5 -642.65 9.6 -666.05 12.05 -699.5 12.35 -732.9 12.35 -758 9.6 -783.2 6.15 -804.9 3.4 -884.75 16.85 -927.8 16.5 -970.85 16.15 -1026.65 10.3 -1050.75 7.2 -1058.7 6.15 -1066.95 7.2 -1075.55 8.55 -1125.15 14.75 -1149.6 12.35 -1197.15 8.2 -1222.95 0
L -1229.85 0
Q -1279.1 9.25 -1322.5 14.1
L -1322.5 466.6 0 466.6 Z"/>
</g>
</defs>

<g transform="matrix( 1.0003814697265625, 0, 0, 1, 1323,0) ">
<use xlink:href="#Layer0_0_FILL"/>
</g>
</svg>
