
<svg xmlns="http://www.w3.org/2000/svg" version="1.1" xmlns:xlink="http://www.w3.org/1999/xlink" preserveAspectRatio="none" x="0px" y="0px" width="1490px" height="1077px" viewBox="0 0 1490 1077">
<defs>
<g id="Layer0_0_FILL">
<path fill="#4F8BDE" fill-opacity="0.30196078431372547" stroke="none" d="
M 0 1076.25
L 0 20.35
Q -48.95 24.1 -104.4 10.3
L -112.3 10.3
Q -141.25 22.7 -194.6 28.55 -222.15 32.35 -277.95 23.05 -287.6 21.35 -297.25 19.6 -306.2 21.35 -333.4 25.45 -380.25 32 -419.5 33.75
L -457.4 34.75
Q -504.2 33.05 -583.1 15.5 -607.55 19.6 -635.8 24.45 -664.35 28.9 -701.9 28.55 -739.45 28.25 -765.6 24.45 -791.8 20.3 -819 15.85 -821.75 16.5 -845.5 25.15 -866.85 32.35 -908.2 34.45
L -920.6 34.75
Q -924.75 34.75 -928.85 34.75
L -940.6 34.45
Q -981.55 32 -1024.6 17.2 -1032.2 18.6 -1053.9 23.4 -1074.55 28.25 -1097.6 29.6 -1120 31 -1152.05 24.8 -1169.6 21 -1172.35 19.25 -1179.6 20.65 -1198.2 24.45 -1216.45 28.25 -1248.1 32.7 -1279.45 36.85 -1324.9 29.25 -1369 22.05 -1390.7 12.75 -1408.95 16.5 -1421.35 18.25 -1441.7 21.35 -1467.85 21.35 -1477.15 21.35 -1489.55 20.3
L -1489.55 1076.25 0 1076.25 Z"/>

<path fill="#FFFFFF" fill-opacity="0.5019607843137255" stroke="none" d="
M 0 20.35
L 0 14.1
Q -48.95 19.6 -104.4 0
L -112.3 0
Q -141.25 17.55 -194.6 25.8 -222.15 31.35 -277.95 17.9 -287.6 15.5 -297.25 13.05 -306.2 15.5 -333.4 21.35 -380.25 30.65 -419.5 33.75 -380.25 32 -333.4 25.45 -306.2 21.35 -297.25 19.6 -287.6 21.35 -277.95 23.05 -222.15 32.35 -194.6 28.55 -141.25 22.7 -112.3 10.3
L -104.4 10.3
Q -48.95 24.1 0 20.35
M -1097.6 29.6
Q -1074.55 28.25 -1053.9 23.4 -1032.2 18.6 -1024.6 17.2 -981.55 32 -940.6 34.45 -981.55 31 -1024.6 9.65 -1032.2 11.7 -1053.9 18.6 -1074.55 25.45 -1097.6 27.2 -1120 29.25 -1152.05 20.65 -1169.6 15.15 -1172.35 12.75 -1179.6 14.8 -1198.2 19.95 -1216.45 25.45 -1248.1 31.65 -1279.45 37.55 -1324.9 26.85 -1369 16.5 -1390.7 3.45 -1408.95 8.95 -1421.35 11.35 -1441.7 15.5 -1467.85 15.5 -1477.15 15.5 -1489.55 14.1
L -1489.55 20.3
Q -1477.15 21.35 -1467.85 21.35 -1441.7 21.35 -1421.35 18.25 -1408.95 16.5 -1390.7 12.75 -1369 22.05 -1324.9 29.25 -1279.45 36.85 -1248.1 32.7 -1216.45 28.25 -1198.2 24.45 -1179.6 20.65 -1172.35 19.25 -1169.6 21 -1152.05 24.8 -1120 31 -1097.6 29.6
M -635.8 24.45
Q -607.55 19.6 -583.1 15.5 -504.2 33.05 -457.4 34.75 -504.2 32 -583.1 7.2 -607.55 13.05 -635.8 19.95 -664.35 26.5 -701.9 25.8 -739.45 25.45 -765.6 19.95 -791.8 14.1 -819 7.9 -821.75 8.95 -845.5 21 -866.85 31.35 -908.2 34.45 -866.85 32.35 -845.5 25.15 -821.75 16.5 -819 15.85 -791.8 20.3 -765.6 24.45 -739.45 28.25 -701.9 28.55 -664.35 28.9 -635.8 24.45 Z"/>
</g>
</defs>

<g transform="matrix( 1.0009765625, 0, 0, 1, 1491,0) ">
<use xlink:href="#Layer0_0_FILL"/>
</g>
</svg>
