
<svg xmlns="http://www.w3.org/2000/svg" version="1.1" xmlns:xlink="http://www.w3.org/1999/xlink" preserveAspectRatio="none" x="0px" y="0px" width="1558px" height="1096px" viewBox="0 0 1558 1096">
<defs>
<linearGradient id="Gradient_1" gradientUnits="userSpaceOnUse" x1="-779.0500000000001" y1="10.149999999999977" x2="-778.35" y2="954.15" spreadMethod="pad">
<stop  offset="0%" stop-color="#C6ECFF"/>

<stop  offset="100%" stop-color="#001E2E"/>
</linearGradient>

<linearGradient id="Gradient_2" gradientUnits="userSpaceOnUse" x1="-778.875" y1="7.199999999999932" x2="-778.5250000000001" y2="1094.8000000000002" spreadMethod="pad">
<stop  offset="0%" stop-color="#83D4FF"/>

<stop  offset="100%" stop-color="#00030B"/>
</linearGradient>

<g id="Layer0_0_FILL">
<path fill="url(#Gradient_1)" stroke="none" d="
M 0 28.1
L 0 27.85
Q -23.149609375 26.5037109375 -40.65 24.3 -58.1486328125 22.146484375 -72.9 16.15 -87.6525390625 10.2021484375 -103.65 3.4 -123.65 14.8 -161.55 24.1 -123.65 17.55 -103.65 9.3 -94.2638671875 13.3771484375 -80.85 17.45 -67.425390625 21.5798828125 -47.1 25 -26.7796875 28.4162109375 0 28.1
M -1447.85 6.9
L -1439.95 6.9
Q -1413.45 17.55 -1367.65 23.4 -1413.45 15.1 -1439.95 0
L -1447.85 0
Q -1491.25 14.45 -1530.55 23.75 -1491.25 17.2 -1447.85 6.9
M -947.8 12.05
Q -922.3 16.15 -892.35 21 -881.65 22.7 -869.25 23.75 -881.65 22.35 -892.35 19.95 -922.3 13.05 -947.8 7.2 -981.55 17.2 -1009.45 23.75 -981.55 19.25 -947.8 12.05
M -673.3 21.7
Q -670.55 22.7 -667.1 23.75 -670.55 22.35 -673.3 21 -698.1 8.95 -700.5 7.9 -729.45 14.1 -757 19.95 -769.4 22.35 -783.9 23.75 -769.4 22.7 -757 21 -729.45 16.85 -700.5 12.35 -698.1 13.05 -673.3 21.7
M -485.95 13.75
Q -478.4 15.1 -456 19.95 -445.35 22.35 -434.65 23.75 -445.35 21.7 -456 18.6 -478.4 11.7 -485.95 9.65 -504.55 18.25 -522.5 24.1 -504.55 19.95 -485.95 13.75 Z"/>

<path fill="url(#Gradient_2)" stroke="none" d="
M 0 1095.15
L 0 28.1
Q -26.7796875 28.4162109375 -47.1 25 -67.425390625 21.5798828125 -80.85 17.45 -94.2638671875 13.3771484375 -103.65 9.3 -123.65 17.55 -161.55 24.1 -167.05 24.75 -172.55 25.8 -219.4 33.4 -252.45 29.25 -273.45 26.5 -288.95 23.75 -297.55 22.35 -304.45 21 -324.45 17.2 -331.3 15.8 -334.8 17.55 -353 21.35 -361.3 23.05 -368.9 24.1 -392.3 27.15 -409.85 26.15 -422.25 25.45 -434.65 23.75 -445.35 22.35 -456 19.95 -478.4 15.1 -485.95 13.75 -504.55 19.95 -522.5 24.1 -559.3 32 -594.8 31.3 -642 29.95 -667.1 23.75 -670.55 22.7 -673.3 21.7 -698.1 13.05 -700.5 12.35 -729.45 16.85 -757 21 -769.4 22.7 -783.9 23.75 -801.75 24.75 -823.45 25.1 -848.6 25.45 -869.25 23.75 -881.65 22.7 -892.35 21 -922.3 16.15 -947.8 12.05 -981.55 19.25 -1009.45 23.75 -1060.1 31.65 -1092.45 31.3 -1137.9 30.65 -1195.1 23.75 -1202 23.05 -1208.85 22 -1237.45 17.9 -1246.4 16.15 -1256.05 17.9 -1266.4 19.6 -1282.9 22.35 -1296.65 23.75 -1332.85 27.85 -1353.5 25.1 -1361.05 24.4 -1367.65 23.4 -1413.45 17.55 -1439.95 6.9
L -1447.85 6.9
Q -1491.25 17.2 -1530.55 23.75 -1543.95 26.15 -1557.05 27.85
L -1557.05 1095.15 0 1095.15 Z"/>
</g>
</defs>

<g transform="matrix( 1.0006103515625, 0, 0, 1, 1558,0) ">
<use xlink:href="#Layer0_0_FILL"/>
</g>
</svg>
