
<svg xmlns="http://www.w3.org/2000/svg" version="1.1" xmlns:xlink="http://www.w3.org/1999/xlink" preserveAspectRatio="none" x="0px" y="0px" width="1671px" height="565px" viewBox="0 0 1671 565">
<defs>
<g id="Layer0_0_FILL">
<path fill="#A6E0FF" fill-opacity="0.7490196078431373" stroke="none" d="
M 184.9 28.9
Q 186.75 29.15 188.6 29.45 186.75 29.1 184.9 28.55 135.3 19.9 110.85 9.25 90.55 13.4 76.1 15.8 53.35 19.25 24.4 19.25 13.75 19.25 0 17.85
L 0 21.65
Q 13.75 22.35 24.4 22.35 53.35 22.35 76.1 19.9 90.55 18.55 110.85 15.45 135.3 23.05 184.9 28.9
M 489.05 24.1
Q 512.8 20.25 521.05 19.25 549.3 26.15 577.2 29.55 549.3 24.75 521.05 14.45 512.8 16.15 489.05 21.65 464.95 27.15 439.75 28.9 414.65 30.6 378.5 23.4 358.85 18.9 355.4 16.85 347.5 18.55 326.8 23.05 311.7 26.15 288.25 29.9 311.7 27.15 326.8 25.1 347.5 22 355.4 20.6 358.85 22 378.5 25.1 414.65 30.25 439.75 29.25 464.95 27.85 489.05 24.1
M 1016.65 17.85
Q 1066.2 25.45 1104.45 29.55 1066.2 23.75 1016.65 12.35 989.1 17.2 957.45 23.05 925.75 27.85 883.35 27.85 841.35 27.15 811.7 23.05 782.45 17.85 751.45 13.05 749.05 13.4 722.2 23.75 711.85 27.15 697.75 29.55 711.85 27.85 722.2 25.45 749.05 18.55 751.45 17.85 782.45 21.65 811.7 25.1 841.35 27.85 883.35 28.2 925.75 28.55 957.45 25.1 989.1 20.95 1016.65 17.85
M 1337.25 20.95
Q 1347.6 22.35 1358.3 23.75 1392.05 27.85 1416.5 28.9 1392.05 27.15 1358.3 21.3 1347.6 19.25 1337.25 17.2 1326.95 19.25 1296.6 24.1 1274.25 27.15 1253.25 29.55 1274.25 27.85 1296.6 25.8 1326.95 22.35 1337.25 20.95
M 1544.6 13.4
L 1553.2 13.4
Q 1612.1 24.1 1664.45 29.9 1612.1 21.65 1553.2 6.5
L 1544.6 6.5
Q 1511.9 20.6 1452 27.85 1448.85 28.35 1445.2 28.7 1448.85 28.45 1452 28.2 1511.9 23.75 1544.6 13.4 Z"/>

<path fill="#42BFFF" stroke="none" d="
M 1670.35 30.6
Q 1667.2 30.25 1664.45 29.9 1612.1 24.1 1553.2 13.4
L 1544.6 13.4
Q 1511.9 23.75 1452 28.2 1448.85 28.45 1445.2 28.7 1444 28.8 1442.65 28.9
L 1439.6 29.25
Q 1432 29.25 1423.4 29.25
L 1416.5 28.9
Q 1392.05 27.85 1358.3 23.75 1347.6 22.35 1337.25 20.95 1326.95 22.35 1296.6 25.8 1274.25 27.85 1253.25 29.55 1208.8 33.05 1171.95 33.4 1144.1 33.7 1104.45 29.55 1066.2 25.45 1016.65 17.85 989.1 20.95 957.45 25.1 925.75 28.55 883.35 28.2 841.35 27.85 811.7 25.1 782.45 21.65 751.45 17.85 749.05 18.55 722.2 25.45 711.85 27.85 697.75 29.55 673.65 32.7 638.15 33.4 608.2 33.7 577.2 29.55 549.3 26.15 521.05 19.25 512.8 20.25 489.05 24.1 464.95 27.85 439.75 29.25 414.65 30.25 378.5 25.1 358.85 22 355.4 20.6 347.5 22 326.8 25.1 311.7 27.15 288.25 29.9 280 30.95 270.7 31.65 237.3 34.75 190.8 29.55
L 189.15 29.5
Q 188.85 29.45 188.6 29.45 186.75 29.15 184.9 28.9 135.3 23.05 110.85 15.45 90.55 18.55 76.1 19.9 53.35 22.35 24.4 22.35 13.75 22.35 0 21.65
L 0 571.35 1670.35 571.35 1670.35 30.6 Z"/>
</g>
</defs>

<g transform="matrix( 1, 0, 0, 1, 0,-6.5) ">
<use xlink:href="#Layer0_0_FILL"/>
</g>
</svg>
