
<svg xmlns="http://www.w3.org/2000/svg" version="1.1" xmlns:xlink="http://www.w3.org/1999/xlink" preserveAspectRatio="none" x="0px" y="0px" width="1671px" height="565px" viewBox="0 0 1671 565">
<defs>
<g id="Layer0_0_FILL">
<path fill="#A6E0FF" fill-opacity="0.7490196078431373" stroke="none" d="
M -1485.45 22.4
Q -1483.6 22.65 -1481.75 22.95 -1483.6 22.6 -1485.45 22.05 -1535.05 13.4 -1559.5 2.75 -1579.8 6.9 -1594.25 9.3 -1616.986328125 12.78828125 -1636.3 14.15 -1655.613671875 15.51171875 -1670.35 14.7
L -1670.35 15.15
Q -1656.6 15.85 -1645.95 15.85 -1617 15.85 -1594.25 13.4 -1579.8 12.05 -1559.5 8.95 -1535.05 16.55 -1485.45 22.4
M -125.75 6.9
L -117.15 6.9
Q -58.2751953125 17.5955078125 0.05 14.9 -58.2787109375 15.142578125 -117.15 0
L -125.75 0
Q -158.45 14.1 -218.35 21.35 -221.5 21.85 -225.15 22.2 -221.5 21.95 -218.35 21.7 -158.45 17.25 -125.75 6.9
M -1181.3 17.6
Q -1157.55 13.75 -1149.3 12.75 -1121.05 19.65 -1093.15 23.05 -1121.05 18.25 -1149.3 7.95 -1157.55 9.65 -1181.3 15.15 -1205.4 20.65 -1230.6 22.4 -1255.7 24.1 -1291.85 16.9 -1311.5 12.4 -1314.95 10.35 -1322.85 12.05 -1343.55 16.55 -1358.65 19.65 -1382.1 23.4 -1358.65 20.65 -1343.55 18.6 -1322.85 15.5 -1314.95 14.1 -1311.5 15.5 -1291.85 18.6 -1255.7 23.75 -1230.6 22.75 -1205.4 21.35 -1181.3 17.6
M -712.9 18.6
Q -681.25 14.45 -653.7 11.35 -604.15 18.95 -565.9 23.05 -604.15 17.25 -653.7 5.85 -681.25 10.7 -712.9 16.55 -744.6 21.35 -787 21.35 -829 20.65 -858.65 16.55 -887.9 11.35 -918.9 6.55 -921.3 6.9 -948.15 17.25 -958.5 20.65 -972.6 23.05 -958.5 21.35 -948.15 18.95 -921.3 12.05 -918.9 11.35 -887.9 15.15 -858.65 18.6 -829 21.35 -787 21.7 -744.6 22.05 -712.9 18.6
M -312.05 17.25
Q -278.3 21.35 -253.85 22.4 -278.3 20.65 -312.05 14.8 -322.75 12.75 -333.1 10.7 -343.4 12.75 -373.75 17.6 -396.1 20.65 -417.1 23.05 -396.1 21.35 -373.75 19.3 -343.4 15.85 -333.1 14.45 -322.75 15.85 -312.05 17.25 Z"/>

<path fill="#42BFFF" stroke="none" d="
M 0.1 15.25
Q 0.07109375 15.3255859375 0.05 14.9 -58.2751953125 17.5955078125 -117.15 6.9
L -125.75 6.9
Q -158.45 17.25 -218.35 21.7 -221.5 21.95 -225.15 22.2 -226.35 22.3 -227.7 22.4
L -230.75 22.75
Q -238.35 22.75 -246.95 22.75
L -253.85 22.4
Q -278.3 21.35 -312.05 17.25 -322.75 15.85 -333.1 14.45 -343.4 15.85 -373.75 19.3 -396.1 21.35 -417.1 23.05 -461.55 26.55 -498.4 26.9 -526.25 27.2 -565.9 23.05 -604.15 18.95 -653.7 11.35 -681.25 14.45 -712.9 18.6 -744.6 22.05 -787 21.7 -829 21.35 -858.65 18.6 -887.9 15.15 -918.9 11.35 -921.3 12.05 -948.15 18.95 -958.5 21.35 -972.6 23.05 -996.7 26.2 -1032.2 26.9 -1062.15 27.2 -1093.15 23.05 -1121.05 19.65 -1149.3 12.75 -1157.55 13.75 -1181.3 17.6 -1205.4 21.35 -1230.6 22.75 -1255.7 23.75 -1291.85 18.6 -1311.5 15.5 -1314.95 14.1 -1322.85 15.5 -1343.55 18.6 -1358.65 20.65 -1382.1 23.4 -1390.35 24.45 -1399.65 25.15 -1433.05 28.25 -1479.55 23.05
L -1481.2 23
Q -1481.5 22.95 -1481.75 22.95 -1483.6 22.65 -1485.45 22.4 -1535.05 16.55 -1559.5 8.95 -1579.8 12.05 -1594.25 13.4 -1617 15.85 -1645.95 15.85 -1656.6 15.85 -1670.35 15.15
L -1670.35 564.85 0 564.85 0.1 15.25 Z"/>
</g>
</defs>

<g transform="matrix( 1.000335693359375, 0, 0, 1, 1670.9,0) ">
<use xlink:href="#Layer0_0_FILL"/>
</g>
</svg>
