
<svg xmlns="http://www.w3.org/2000/svg" version="1.1" xmlns:xlink="http://www.w3.org/1999/xlink" preserveAspectRatio="none" x="0px" y="0px" width="25px" height="60px" viewBox="0 0 25 60">
<defs>
<g id="Layer0_0_FILL">
<path fill="#485C70" stroke="none" d="
M 591.6 415
Q 591.6 410.1 588.05 406.4 584.5 402.85 579.5 402.85
L 579.2 402.85
Q 574.45 403.05 571.05 406.3 570.95 406.35 570.9 406.4 567.65 409.8 567.4 414.1 567.35 414.55 567.35 415 567.35 415.25 567.35 415.55
L 567.35 461.95 570.2 461.95 570.2 455.5 588.95 455.5 588.95 461.95 591.6 461.95 591.6 415.55
Q 591.6 415.25 591.6 415
M 589.55 415.75
Q 589.55 415.9 589.55 416.25
L 589.55 420.15 569.55 420.15 569.55 416.25
Q 569.55 415.9 569.55 415.75 569.55 414.9 569.65 414.3 570.05 411 572.6 408.65 575 406.25 578.25 405.7 578.7 405.6 579.3 405.6
L 579.6 405.6
Q 580.55 405.6 581.4 405.85 584.45 406.3 586.65 408.65 589.1 411 589.5 414.3 589.55 414.9 589.55 415.75
M 569.75 427.3
L 569.75 425.45 589.55 425.45 589.55 427.3 569.75 427.3
M 569.75 423.65
L 569.75 421.85 589.55 421.85 589.55 423.65 569.75 423.65
M 576.55 416.85
L 576.55 418.4 579.6 418.4
Q 580.3 418.4 580.8 418.2 581.4 417.95 581.8 417.5 582.3 417.1 582.5 416.5 582.75 415.9 582.75 415.25 582.75 414.65 582.5 414.1 582.35 413.6 581.95 413.1 581.5 412.7 581 412.5 580.45 412.2 579.85 412.15
L 582.75 408.75 576.45 408.75 576.45 410.3 579.5 410.3 576.8 413.7 579.6 413.7
Q 579.95 413.7 580.25 413.8 580.55 413.95 580.75 414.15 580.95 414.4 581.1 414.65 581.25 414.9 581.25 415.25 581.25 415.6 581.1 415.9 580.95 416.15 580.75 416.4 580.55 416.6 580.25 416.75 579.95 416.85 579.6 416.85
L 576.55 416.85 Z"/>

<path fill="#FFFFFF" stroke="none" d="
M 569.75 421.85
L 569.75 423.65 589.55 423.65 589.55 421.85 569.75 421.85
M 569.75 425.45
L 569.75 427.3 589.55 427.3 589.55 425.45 569.75 425.45
M 589.55 416.25
Q 589.55 415.9 589.55 415.75 589.55 414.9 589.5 414.3 589.1 411 586.65 408.65 584.45 406.3 581.4 405.85 580.55 405.6 579.6 405.6
L 579.3 405.6
Q 578.7 405.6 578.25 405.7 575 406.25 572.6 408.65 570.05 411 569.65 414.3 569.55 414.9 569.55 415.75 569.55 415.9 569.55 416.25
L 569.55 420.15 589.55 420.15 589.55 416.25
M 576.55 418.4
L 576.55 416.85 579.6 416.85
Q 579.95 416.85 580.25 416.75 580.55 416.6 580.75 416.4 580.95 416.15 581.1 415.9 581.25 415.6 581.25 415.25 581.25 414.9 581.1 414.65 580.95 414.4 580.75 414.15 580.55 413.95 580.25 413.8 579.95 413.7 579.6 413.7
L 576.8 413.7 579.5 410.3 576.45 410.3 576.45 408.75 582.75 408.75 579.85 412.15
Q 580.45 412.2 581 412.5 581.5 412.7 581.95 413.1 582.35 413.6 582.5 414.1 582.75 414.65 582.75 415.25 582.75 415.9 582.5 416.5 582.3 417.1 581.8 417.5 581.4 417.95 580.8 418.2 580.3 418.4 579.6 418.4
L 576.55 418.4 Z"/>
</g>
</defs>

<g transform="matrix( 1, 0, 0, 1, -567.35,-401.95) ">
<use xlink:href="#Layer0_0_FILL"/>
</g>
</svg>
