
<svg xmlns="http://www.w3.org/2000/svg" version="1.1" xmlns:xlink="http://www.w3.org/1999/xlink" preserveAspectRatio="none" x="0px" y="0px" width="300px" height="300px" viewBox="0 0 300 300">
<defs>
<radialGradient id="Gradient_1" gradientUnits="userSpaceOnUse" cx="0" cy="0" r="42.087500000000006" fx="0" fy="0" gradientTransform="matrix( 0.9999999999999999, 0, 0, 0.9999999999999999, 7.3,7.3) " spreadMethod="pad">
<stop  offset="0%" stop-color="#FFFF00" stop-opacity="0.30196078431372547"/>

<stop  offset="100%" stop-color="#FFFF00" stop-opacity="0"/>
</radialGradient>

<radialGradient id="Gradient_2" gradientUnits="userSpaceOnUse" cx="0" cy="0" r="32.237500000000004" fx="0" fy="0" gradientTransform="matrix( 1, 0, 0, 1, 7.3,7.3) " spreadMethod="pad">
<stop  offset="0%" stop-color="#FFFF00" stop-opacity="0.30196078431372547"/>

<stop  offset="100%" stop-color="#FFFF00" stop-opacity="0"/>
</radialGradient>

<radialGradient id="Gradient_3" gradientUnits="userSpaceOnUse" cx="0" cy="0" r="18.5125" fx="0" fy="0" gradientTransform="matrix( 1, 0, 0, 1, 7.3,7.3) " spreadMethod="pad">
<stop  offset="0%" stop-color="#FFFF00" stop-opacity="0.5019607843137255"/>

<stop  offset="100%" stop-color="#FFFF00" stop-opacity="0"/>
</radialGradient>

<filter id="Filter_1" x="-20%" y="-20%" width="140%" height="140%" color-interpolation-filters="sRGB">
<feColorMatrix in="SourceGraphic" type="matrix" values="1 0 0 0 0 0 1 0 0 0 0 0 1 0 0 0 0 0 0.5 0" result="result1"/>
</filter>

<g id="sun_0_Layer1_0_FILL">
<path fill="url(#Gradient_1)" stroke="none" d="
M 34.55 -19.95
Q 23.2 -31.35 7.3 -31.35 -8.6 -31.35 -19.95 -19.95 -31.35 -8.6 -31.35 7.3 -31.35 23.2 -19.95 34.55 -8.6 45.95 7.3 45.95 23.2 45.95 34.55 34.55 45.95 23.2 45.95 7.3 45.95 -8.6 34.55 -19.95 Z"/>
</g>

<g id="sun_0_Layer1_1_FILL">
<path fill="url(#Gradient_2)" stroke="none" d="
M 28.2 -13.55
Q 19.55 -22.3 7.3 -22.3 -4.85 -22.3 -13.55 -13.55 -22.3 -4.85 -22.3 7.3 -22.3 19.55 -13.55 28.2 -4.85 36.9 7.3 36.9 19.55 36.9 28.2 28.2 36.9 19.55 36.9 7.3 36.9 -4.85 28.2 -13.55 Z"/>
</g>

<g id="sun_0_Layer1_2_FILL">
<path fill="url(#Gradient_3)" stroke="none" d="
M 19.25 -4.75
Q 14.25 -9.7 7.3 -9.7 0.25 -9.7 -4.75 -4.75 -9.7 0.25 -9.7 7.3 -9.7 14.25 -4.75 19.25 0.25 24.3 7.3 24.3 14.25 24.3 19.25 19.25 24.3 14.25 24.3 7.3 24.3 0.25 19.25 -4.75 Z"/>
</g>

<g id="sun_0_Layer0_0_FILL">
<path fill="#FFCC00" stroke="none" d="
M 14.6 7.3
Q 14.6 4.3 12.45 2.15 10.3 0 7.3 0 4.3 0 2.15 2.15 0 4.3 0 7.3 0 10.3 2.15 12.45 4.3 14.6 7.3 14.6 10.3 14.6 12.45 12.45 14.6 10.3 14.6 7.3 Z"/>
</g>
</defs>

<g transform="matrix( 3.8800048828125, 0, 0, 3.880645751953125, 121.65,121.7) ">
<g transform="matrix( 1, 0, 0, 1, 0,0) ">
<use filter="url(#Filter_1)" xlink:href="#sun_0_Layer1_0_FILL"/>
</g>

<g transform="matrix( 1, 0, 0, 1, 0,0) ">
<use filter="url(#Filter_1)" xlink:href="#sun_0_Layer1_1_FILL"/>
</g>

<g transform="matrix( 1, 0, 0, 1, 0,0) ">
<use filter="url(#Filter_1)" xlink:href="#sun_0_Layer1_2_FILL"/>
</g>

<g transform="matrix( 1, 0, 0, 1, 0,0) ">
<use filter="url(#Filter_1)" xlink:href="#sun_0_Layer0_0_FILL"/>
</g>
</g>
</svg>
