
<svg xmlns="http://www.w3.org/2000/svg" version="1.1" xmlns:xlink="http://www.w3.org/1999/xlink" preserveAspectRatio="none" x="0px" y="0px" width="346px" height="306px" viewBox="0 0 346 306">
<defs>
<g id="Layer0_0_FILL">
<path fill="#CCCCCC" stroke="none" d="
M 1061.75 573.55
Q 1065.1 582.9 1068.35 586.25 1071.7 589.85 1080.85 589.85 1091.2 589.85 1100 582.7 1101.2 581.7 1102.35 580.7 1094.4 578.35 1071.7 575.1 1066.75 574.55 1061.75 573.55
M 1022.7 576.55
Q 1027.5 581.9 1035.65 582.7 1043.6 583.25 1047.8 581.3 1051.95 579.35 1058.75 572.9 1037.65 568.95 1016.15 561.4 1019.3 572.35 1022.7 576.55
M 983.05 560.4
Q 989.6 565.95 1003.75 565.95 1007.35 565.95 1013.95 561.95 1014.55 561.6 1015.35 561.2 1000.4 555.8 985.25 549 980.1 546.65 975.1 544.05 977.1 555.2 983.05 560.4
M 931.5 522.15
Q 935.45 522.15 939.05 521.35 925.3 510.55 914.75 498.4 909.75 492.65 905.75 486.9 905.6 491.45 905.6 496.25 905.6 511.2 912.55 517.15 918.55 522.15 931.5 522.15
M 939.65 521.7
Q 940.2 529.5 943.45 536.5 949.2 549 959.35 549 963.35 549 974.3 543.65 955 533.7 939.65 521.7
M 888.85 448.65
Q 887.25 447.85 885.85 447.05 883.85 450.85 883.3 454.2 883.1 454.8 883.1 455.8 882.65 458.2 882.65 462.8 882.65 472.5 887.45 478.3 893 484.7 904.75 485.45 892.25 466.95 888.85 448.65
M 887.85 405.8
Q 887.25 405.4 886.85 405.25 883.55 410.4 881.2 414.7 874.7 426.45 874.7 431.5 874.7 440.25 884.85 446.45 885.25 446.65 885.85 447.05 886.85 445.05 888.05 443.05 887.85 440.7 887.85 438.5 887.25 426.6 887.55 414.7 887.65 410.25 887.85 405.8
M 880.3 371.35
Q 875.7 377.7 875.7 385.1 875.7 394.85 883.65 402.45 885.25 403.8 886.85 405.25 887.25 404.4 887.85 403.6 888.45 391.1 889.85 378.3 890.8 370.15 891.65 359.8 891.25 359.4 891 359 880.65 370.95 880.3 371.35
M 885.45 325.75
Q 880.65 333.3 880.65 340.25 880.65 347.05 889.25 357 890.05 358 891 359 891.45 358.6 891.8 358.2 893.25 339.25 894.8 312.8 887.65 322.15 885.45 325.75
M 886.85 220.95
Q 879.65 229.95 879.65 238.65 879.65 249.05 889.85 258.6 893.25 261.6 896.6 263.8 895.45 239.85 887.85 221.15 887.25 220.95 886.85 220.95
M 896.6 282.9
Q 897 273.55 896.6 264.75 890.45 273.1 888.45 276.9 885.65 282.35 885.65 289.5 885.65 299.2 890.25 305.2 892 307.4 895 309.8 895.8 297.25 896.6 282.9
M 653.6 256.6
Q 653.6 249.25 649.2 240.1 647.65 236.85 645.85 234.3 645.45 233.7 645 233.3 642.65 246.45 642.65 261.2 642.65 265.75 644.85 275.35 645 276.1 645.2 276.9 645.45 276.55 645.65 276.35 646.65 275.1 647.45 273.75 653.6 264.6 653.6 256.6
M 765.1 144.05
Q 760.4 144.5 748.8 144.65 744.6 144.65 740.05 145.25 743.25 152.65 748.6 156.8 754.6 161.6 762.2 161.6 771.35 161.6 779.5 154 783.5 150.45 786.05 146.25 768.55 143.65 765.1 144.05
M 721.95 149.05
Q 719.35 149.65 716.7 150.65 706 154 696.4 159.6 696.4 160 696.4 160.2 700.4 163.2 705.2 165.15 707.35 166 709.35 166.6 713.15 167.6 716.95 167.6 720.15 167.6 723.15 166.6 730.1 164.15 735.1 155.45 738.05 150.2 739.25 145.25 731.3 146.25 721.95 149.05
M 664.35 191.9
Q 663.95 190.7 663.35 189.45 657 198.25 652.6 208.4 649.6 215.35 647.45 222.95 646.45 226.7 645.65 230.95 645.45 231.5 645.2 232.3 645.65 232.3 646 232.3 654.2 231.95 660.6 222.35 666.55 213.4 666.55 203.4 666.55 197.25 664.35 191.9
M 676.3 174.75
Q 669.75 180.75 664.55 187.7 665.95 188.1 667.3 188.45 673.75 190.45 676.5 190.45 695.05 190.45 696.4 166.6 696.4 164.8 696.4 163 696.4 161.6 696.4 160.2 696.2 160 696.05 160 690.85 163 685.9 166.6 685.25 166.95 684.7 167.6 682.1 169.6 679.7 171.6 677.9 173.15 676.3 174.75
M 862.55 185.7
Q 861.35 188.9 861 191.25 860.75 192.9 860.75 197.45 860.75 210.2 869.5 215.35 873.9 218.15 886.85 220.95 887.05 220.55 887.45 220.15 878.85 199.85 862.55 185.7
M 826.5 160
Q 825.9 162.8 825.9 164.6 825.9 165.6 826.1 166.6 826.9 176.55 836.85 181.5 844.85 185.5 854.75 185.5 855.2 185.5 855.55 185.5 859.35 185.5 861.95 185.1 858.75 182.3 855.55 179.75 846.6 172.35 838.25 166.6 832.45 162.6 826.9 159.6 826.7 159.8 826.5 160
M 810.6 168.6
Q 814.35 168.6 818.15 166.6 822.3 164.35 826.5 160 826.5 159.6 826.5 159.45 810.75 150.45 797.45 148.25 795.65 147.85 793.85 147.65 789.85 146.85 786.5 146.45 788.45 152.85 793.85 158.45 794.85 159.45 796 160.45 800.6 164.6 804.2 166.6 807.8 168.6 810.6 168.6 Z"/>

<path fill="#A16561" stroke="none" d="
M 826.5 159.45
Q 826.7 159.45 826.9 159.6 832.45 162.6 838.25 166.6 846.6 172.35 855.55 179.75 858.75 182.3 861.95 185.1 862.15 185.3 862.35 185.5 862.55 185.5 862.55 185.7 878.85 199.85 887.45 220.15 887.65 220.75 887.85 221.15 895.45 239.85 896.6 263.8 896.6 264.4 896.6 264.75 897 273.55 896.6 282.9 895.8 297.25 895 309.8 895 311.2 894.8 312.8 893.25 339.25 891.8 358.2 891.65 359 891.65 359.8 890.8 370.15 889.85 378.3 888.45 391.1 887.85 403.6 887.85 404.6 887.85 405.8 887.65 410.25 887.55 414.7 887.25 426.6 887.85 438.5 887.85 440.7 888.05 443.05 888.45 445.85 888.85 448.65 892.25 466.95 904.75 485.45 905.4 486.1 905.75 486.9 909.75 492.65 914.75 498.4 925.3 510.55 939.05 521.35 939.2 521.55 939.65 521.7 955 533.7 974.3 543.65 974.7 543.85 975.1 544.05 980.1 546.65 985.25 549 1000.4 555.8 1015.35 561.2 1015.7 561.2 1016.15 561.4 1037.65 568.95 1058.75 572.9 1060.15 573.35 1061.75 573.55 1066.75 574.55 1071.7 575.1 1094.4 578.35 1102.35 580.7 1108.95 582.5 1102.8 593.05 1101.35 595.45 1099.2 598.05 1110.15 588.25 1137.6 557 1159.35 532.1 1180.85 496.6 1183.05 492.85 1185.45 488.9 1184.45 489.9 1183.65 490.65 1183.05 490.9 1182.65 491.05 1182.25 491.05 1181.85 491.25 1164.7 496.6 1148.75 496.6 1094.8 496.6 1062.55 478.5 1043.6 467.75 1030.85 453.8 989.35 433.2 971.55 414.7 970.85 413.95 970.1 413.2 952.35 394.1 940.05 366.55 927.7 338.9 925.5 292.5 923.35 245.85 910.95 215.55 898.4 185.1 884.45 165.8 874.1 151.45 855.55 140.9 849 137.1 841.4 133.9 817.95 123.75 793.85 120.75 787.85 119.75 782.05 119.55 751.8 117.6 712.35 128.1 696.85 132.35 670.95 158.45 645 184.3 638.45 219.75 631.9 255.25 636.65 277.75 641.45 300.05 649.8 314.35 650 314.8 650.45 315.35 659.15 329.75 685.9 360.8 678.9 350.4 673.5 344.05 661.95 330.3 655.6 315.35 651 305 648.8 294.05 648.45 293.05 648.45 292.05
L 648.2 291.5
Q 647.65 288.7 646.65 284.1 646.65 283.7 646.45 283.35
L 646.45 282.9
Q 646.2 282.35 646.2 282.1 645.85 279.55 645.2 276.9 645 276.1 644.85 275.35 642.65 265.75 642.65 261.2 642.65 246.45 645 233.3 645 232.7 645.2 232.3 645.45 231.5 645.65 230.95 646.45 226.7 647.45 222.95 649.6 215.35 652.6 208.4 657 198.25 663.35 189.45 663.95 188.45 664.55 187.7 669.75 180.75 676.3 174.75 677.9 173.15 679.7 171.6 682.1 169.6 684.7 167.6 685.25 166.95 685.9 166.6 690.85 163 696.05 160 696.2 159.8 696.4 159.6 706 154 716.7 150.65 719.35 149.65 721.95 149.05 731.3 146.25 739.25 145.25 739.65 145.25 740.05 145.25 744.6 144.65 748.8 144.65 760.4 144.5 765.1 144.05 768.55 143.65 786.05 146.25 786.25 146.25 786.5 146.45 789.85 146.85 793.85 147.65 795.65 147.85 797.45 148.25 810.75 150.45 826.5 159.45 Z"/>

<path fill="#BF8D8B" stroke="none" d="
M 997 287.9
Q 994.2 260.6 983.05 227.95 971.9 195.05 960.95 179.3 950 163.6 941.65 154.2 933.25 144.85 915.35 129.1 897.25 113.4 877.3 104.05 857.35 94.65 834.9 87.5 819.3 82.3 793.85 79.15 782.85 77.7 769.9 76.7 727.3 73.15 684.25 94.85 641.05 116.4 620.9 149.65 600.8 182.75 596.8 203.25 592.65 223.55 591.85 237.5 591.45 245.1 591.85 252.05 593.25 271.55 598.25 293.5 600.6 303.8 607.2 315.35 614.35 328.1 626.5 342.25 649.6 369.35 696.05 376.5 701 377.15 706.4 377.7 695.25 368.55 685.9 360.8 659.15 329.75 650.45 315.35 650 314.8 649.8 314.35 641.45 300.05 636.65 277.75 631.9 255.25 638.45 219.75 645 184.3 670.95 158.45 696.85 132.35 712.35 128.1 751.8 117.6 782.05 119.55 787.85 119.75 793.85 120.75 817.95 123.75 841.4 133.9 849 137.1 855.55 140.9 874.1 151.45 884.45 165.8 898.4 185.1 910.95 215.55 923.35 245.85 925.5 292.5 927.7 338.9 940.05 366.55 952.35 394.1 970.1 413.2 970.85 413.95 971.55 414.7 989.35 433.2 1030.85 453.8 1024.5 446.65 1019.7 438.85 1012.7 427.45 1008.8 414.7 1004.6 401.15 1004 386.1 1002.75 361.2 1000.2 321.75 999.8 315 997 287.9
M 886.85 130.35
Q 873.7 118.55 847.4 110.6 815.75 100.85 793.85 96.65 779.3 93.65 769.1 93.3 776.3 90.85 793.85 90.85 798.45 90.85 803.8 91.1 829.3 91.65 850 101.45 870.5 111 886.85 130.35
M 657.35 119.75
Q 683.25 98.45 723.95 95.45 685.45 113.8 662.35 134.5 639.25 155 627.9 180.3 631.3 141.05 657.35 119.75 Z"/>

<path fill="#D7B5B3" stroke="none" d="
M 723.95 95.45
Q 683.25 98.45 657.35 119.75 631.3 141.05 627.9 180.3 639.25 155 662.35 134.5 685.45 113.8 723.95 95.45
M 847.4 110.6
Q 873.7 118.55 886.85 130.35 870.5 111 850 101.45 829.3 91.65 803.8 91.1 798.45 90.85 793.85 90.85 776.3 90.85 769.1 93.3 779.3 93.65 793.85 96.65 815.75 100.85 847.4 110.6 Z"/>
</g>
</defs>

<g transform="matrix( 0.5817718505859375, 0, 0, 0.5817718505859375, -344.2,-44.3) ">
<use xlink:href="#Layer0_0_FILL"/>
</g>
</svg>
