
<svg xmlns="http://www.w3.org/2000/svg" version="1.1" xmlns:xlink="http://www.w3.org/1999/xlink" preserveAspectRatio="none" x="0px" y="0px" width="200px" height="278px" viewBox="0 0 200 278">
<defs>
<g id="Layer0_0_FILL">
<path fill="#A16561" stroke="none" d="
M 89.9 244.3
Q 91.3 241.9 92.75 239.7 92.9 239.45 93.1 239.05 95.45 235.75 97.85 232.7 98 232.6 98.05 232.5 99.85 230.3 101.7 228.3 97.3 231.4 92.9 235.3 86.55 241.1 80.55 248.7 76.4 254.05 72.65 259.9 68.2 266.85 61.7 277.15 68.8640625 278.307421875 76.9 276.85 77.55 274.55 78.2 272.35 78.7 270.5 79.35 268.55 80.55 264.85 81.75 261.5 85.45 252.05 89.9 244.3
M 109.1 37.45
Q 119.7 45.55 129.95 58.1 148.95 81.2 149.1 106.6 149.25 110.65 148.75 114.85 145.5 144.8 126.3 159.05 113.85 168.45 104.15 175.05 99 178.55 94.6 181.2 85.7 186.85 74.85 195.4 71.95 197.65 68.85 200.15 67.35 201.55 65.55 202.85 49.2 216.8 38.35 230.25 30.9080078125 239.474609375 23.55 248.65 22.6916015625 249.780078125 21.8 250.9 20.5 252.7 19.1 254.4 20.1990234375 253.1177734375 21.3 251.85 21.6990234375 251.4044921875 22.1 250.95 23.02578125 249.94765625 23.95 248.95 29.8150390625 242.782421875 36.4 236.8 54.35 220.65 89.85 198 90.1 197.8 90.35 197.7 126.5 174.85 138.9 163.75 160.85 144 164.85 121.1 169.75 93.55 149.4 66.65 131.45 42.75 109.1 37.45 Z"/>

<path fill="#BF8D8B" stroke="none" d="
M 165.9 38.25
Q 165.8 38.05 165.7 37.9 159.65 31.3 150.75 24.5 147.35 21.95 143.55 19.5 142.95 19.3 142.55 18.9 130.8 11.9 115.3 6.95 109.45 5.1 103.15 3.55 73.65 -3.7 51.8 4.05 29.95 11.8 19.65 23.35 6.4 38.25 1 55.95 0.45 57.9 0 60.05 6.85 48.7 15.15 40.8 25.5 31.15 38 27 61.5 19.25 84.7 25.15 97.1 28.45 109.1 37.45 131.45 42.75 149.4 66.65 169.75 93.55 164.85 121.1 160.85 144 138.9 163.75 126.5 174.85 90.35 197.7 90.1 197.8 89.85 198 54.35 220.65 36.4 236.8 29.8150390625 242.782421875 23.95 248.95 23.02578125 249.94765625 22.1 250.95 21.6990234375 251.4044921875 21.3 251.85 6.3603515625 270.564453125 61.7 277.15 68.2 266.85 72.65 259.9 76.4 254.05 80.55 248.7 86.55 241.1 92.9 235.3 97.3 231.4 101.7 228.3 107.6 222.15 115 217.4 115.65 216.8 116.45 216.25 120.6 213.55 126.65 210.35 129.75 208.65 133.2 206.9 134.15 206.4 135.05 206 137.65 204.7 139.9 203.4 141.85 202.5 143.6 201.55
L 151.5 197.15
Q 151.75 197.05 151.85 196.8 161.5 190.95 168.3 183.55 169.6 182.15 170.65 180.65 173.25 177.55 175.55 173.95 176.2 172.95 176.9 171.85 176.95 172.1 176.9 172.4 184 159.95 188.5 137.45 188.55 137.3 188.55 137.2 189.2 134.25 189.75 131.05 190.05 129.35 190.25 127.5 190.95 123.4 191.25 119.25 191.5 116.55 191.55 114.1 191.9 107.55 191.8 102.4 191.9 102.15 191.8 101.75 191.75 94.15 190.75 89.5 188.85 80.9 185.8 73.15 184.85 70.7 183.35 67.35 183 66.35 182.35 65.15 179.8 59.55 175.85 52 172.3 45.15 165.9 38.25
M 181.25 136.15
Q 184.85 125.05 185.3 119.8 185.9 133.1 185.45 135.9 181.05 160.95 167.75 177.8 158.55 189.45 145.85 194.25 154.65 187.1 165.35 169.7 176.05 152.25 181.25 136.15
M 55.75 16.05
Q 65.9 17.85 71.4 19.8 52.75 18.25 34.35 27.35 25.45 31.7 17.45 38.45 23.4 32.45 34.45 23.35 45.6 14.3 55.75 16.05 Z"/>

<path fill="#D7B5B3" stroke="none" d="
M 71.4 19.8
Q 65.9 17.85 55.75 16.05 45.6 14.3 34.45 23.35 23.4 32.45 17.45 38.45 25.45 31.7 34.35 27.35 52.75 18.25 71.4 19.8
M 185.3 119.8
Q 184.85 125.05 181.25 136.15 176.05 152.25 165.35 169.7 154.65 187.1 145.85 194.25 158.55 189.45 167.75 177.8 181.05 160.95 185.45 135.9 185.9 133.1 185.3 119.8 Z"/>

<path fill="#CCCCCC" stroke="none" d="
M 142.55 18.9
Q 141.55 4.4 132.95 3 124.55 1.7 121 3 117.4 4.4 115.3 6.95 130.8 11.9 142.55 18.9
M 188.65 137.3
L 188.5 137.45
Q 184 159.95 176.9 172.4 176.95 172.1 176.9 171.85 176.2 172.95 175.55 173.95 173.25 177.55 170.65 180.65 169.6 182.15 168.3 183.55 161.5 190.95 151.85 196.8 151.75 197.05 151.5 197.15
L 143.6 201.55
Q 141.85 202.5 139.9 203.4 137.65 204.7 135.05 206 134.15 206.4 133.2 206.9 129.75 208.65 126.65 210.35 120.6 213.55 116.45 216.25 115.65 216.8 115 217.4 107.6 222.15 101.7 228.3 99.85 230.3 98.05 232.5 98 232.6 97.85 232.7 95.45 235.75 93.1 239.05 92.9 239.45 92.75 239.7 91.3 241.9 89.9 244.3 85.45 252.05 81.75 261.5 80.55 264.85 79.35 268.55 85.5 265.7 88.55 263.4 88.85 263 89.25 262.8 89.3 262.7 89.4 262.7 92.35 260.2 93.5 254.2 94.7 248.15 92.45 241.3 105.45 244.4 110.1 238.9 114.75 233.35 115.45 228.1 115.95 224.75 115.65 221.8 115.55 221.3 115.55 220.8 115.5 219.8 115.2 218.8 115.75 219.7 116.4 220.55 116.65 220.85 116.85 221 118.8 223.3 121.25 223.7 124.7 224.3 131.1 223.25 137.45 222.15 140.3 216.7 140.45 216.6 140.5 216.25 141.35 214.85 142.05 213.05 142.95 210.55 143.7 207.55 144.35 205.2 144.85 202.5 149.2 204.65 152.2 205.2 155.3 205.85 161.65 203.8 167.95 201.75 172.5 192.75 177 183.7 177.05 178.9 177.1 175.75 176.9 173.5 182.9 171.5 187 166.95 192.15 161.4 193.6 153.1 194.6 147.35 190.95 140.8 190 139.25 188.65 137.3
M 199.65 118.7
Q 199.95 117.1 200 115.6 200.2 109.7 196.8 105.9 194.85 103.75 191.8 102.4 191.9 107.55 191.55 114.1 191.5 116.55 191.25 119.25 190.95 123.4 190.25 127.5 190.05 129.35 189.75 131.05 189.2 134.25 188.55 137.2
L 188.65 137.3
Q 192.05 135.05 194.8 130.65 198.55 125.1 199.65 118.7
M 183.35 67.35
Q 184.85 70.7 185.8 73.15 188.85 80.9 190.75 89.5 191.75 94.15 191.8 101.75 194.3 97.75 195.1 95.55 195.7 94.1 197.4 88.2 199.2 82.35 195.05 74.8 191 67.35 183.35 67.35
M 165.7 37.9
Q 166.9 29.95 164.35 24.25 161.75 18.7 157.05 17.6 152.35 16.5 143.55 19.5 147.35 21.95 150.75 24.5 159.65 31.3 165.7 37.9
M 168.55 37.3
Q 167.85 37.45 165.9 38.25 172.3 45.15 175.85 52 179.8 59.55 182.35 65.15 184 62.4 184.6 61.1 185.05 59.95 186 54.45 187.15 47.9 182.7 42.85 179.05 38.75 174.65 38 169.45 37.05 168.55 37.3 Z"/>
</g>
</defs>

<g transform="matrix( 1, 0, 0, 1, 0,0) ">
<use xlink:href="#Layer0_0_FILL"/>
</g>
</svg>
