
<svg xmlns="http://www.w3.org/2000/svg" version="1.1" xmlns:xlink="http://www.w3.org/1999/xlink" preserveAspectRatio="none" x="0px" y="0px" width="200px" height="278px" viewBox="0 0 200 278">
<defs>
<g id="Layer0_0_FILL">
<path fill="#CCCCCC" stroke="none" d="
M 387.5 711.2
L 393.35 712.25
Q 391.2 706.1 389.35 704.6 388.4 707.85 387.5 711.2
M 554.6 511.85
Q 553.2 509.55 551.25 506.75
L 551.05 506.95
Q 544.4 539.95 534.05 558.15 534.1 557.75 534 557.35 533 558.95 532.05 560.4 528.65 565.7 524.9 570.25 523.3 572.45 521.4 574.5 511.45 585.35 497.35 593.95 497.15 594.3 496.8 594.45
L 485.2 600.9
Q 482.65 602.3 479.8 603.6 476.5 605.5 472.7 607.4 471.35 608 470 608.75 464.9 611.25 460.4 613.75 451.55 618.45 445.45 622.45 444.3 623.25 443.3 624.1 432.45 631.05 423.85 640.05 421.1 643 418.45 646.2 418.4 646.4 418.2 646.55 414.65 651 411.2 655.8 410.9 656.4 410.7 656.75 408.55 660 406.5 663.55 400 674.9 394.6 688.7 392.85 693.65 391.05 699.05 400.1 694.9 404.55 691.5 405 690.95 405.6 690.65 405.65 690.45 405.8 690.5 410.1 686.8 411.8 678 413.55 669.2 410.3 659.15 429.3 663.7 436.15 655.6 442.95 647.5 444 639.8 444.7 634.85 444.25 630.55 444.15 629.85 444.15 629.05 444.05 627.65 443.6 626.15 444.4 627.5 445.4 628.7 445.7 629.15 446 629.4 448.9 632.75 452.45 633.35 457.5 634.25 466.9 632.7 476.2 631.1 480.4 623.1 480.6 622.95 480.65 622.4 481.95 620.35 482.95 617.7 484.3 614.1 485.35 609.65 486.3 606.2 487.05 602.25 493.45 605.4 497.85 606.2 502.4 607.2 511.65 604.15 520.9 601.15 527.55 587.95 534.2 574.75 534.25 567.7 534.35 563.05 534.05 559.75 542.8 556.85 548.85 550.2 556.4 542.05 558.5 529.9 560 521.45 554.6 511.85
M 547.1 412.75
Q 551.55 424.05 554.35 436.7 555.8 443.5 555.9 454.65 559.55 448.75 560.7 445.55 561.55 443.45 564.1 434.8 566.7 426.2 560.6 415.15 554.7 404.2 543.5 404.25 545.65 409.1 547.1 412.75
M 567.4 479.45
Q 567.8 477.15 567.85 474.9 568.15 466.3 563.2 460.7 560.3 457.6 555.9 455.6 556 463.1 555.5 472.7 555.4 476.35 555.05 480.3 554.65 486.35 553.6 492.4 553.3 495.05 552.85 497.55 552.05 502.25 551.1 506.55
L 551.25 506.75
Q 556.2 503.4 560.25 497 565.75 488.85 567.4 479.45
M 521.8 360.2
Q 520.75 360.4 517.9 361.55 527.3 371.7 532.5 381.7 538.25 392.8 542.05 401 544.45 396.95 545.3 395.05 545.95 393.35 547.35 385.3 549.05 375.75 542.55 368.3 537.15 362.35 530.75 361.2 523.1 359.85 521.8 360.2
M 515.65 341.1
Q 511.8 332.95 504.95 331.35 498.05 329.7 485.15 334.1 490.75 337.7 495.7 341.45 508.75 351.4 517.65 361.1 519.4 349.45 515.65 341.1
M 469.65 309.95
Q 457.3 308 452.1 309.9 446.85 312 443.75 315.7 466.5 322.95 483.7 333.25 482.2 311.95 469.65 309.95 Z"/>

<path fill="#A16561" stroke="none" d="
M 406.5 663.55
Q 408.55 660 410.7 656.75 410.9 656.4 411.2 655.8 414.65 651 418.2 646.55 418.4 646.4 418.45 646.2 421.1 643 423.85 640.05 417.35 644.6 410.95 650.3 401.6 658.8 392.8 670 386.75 677.8 381.25 686.35 374.75 696.6 369.25 708
L 387.5 711.2
Q 388.4 707.85 389.35 704.6 390.15 701.9 391.05 699.05 392.85 693.65 394.6 688.7 400 674.9 406.5 663.55
M 434.65 360.4
Q 450.2 372.25 465.2 390.7 493.1 424.5 493.3 461.75 493.5 467.7 492.75 473.8 488 517.7 459.9 538.6 441.6 552.4 427.4 562.05 419.85 567.15 413.4 571.05 400.4 579.3 384.45 591.85 380.2 595.15 375.7 598.85 373.45 600.85 370.85 602.8 346.85 623.25 331 642.9 318.75 658.1 306.7 673.2 304.775 675.825 302.75 678.3 304.948828125 675.765234375 307.15 673.3 316.9 662.7 328.1 652.5 354.4 628.85 406.45 595.7 406.85 595.4 407.2 595.25 460.15 561.75 478.35 545.5 510.5 516.55 516.4 483 523.55 442.6 493.7 403.2 467.4 368.2 434.65 360.4 Z"/>

<path fill="#BF8D8B" stroke="none" d="
M 330.5 345.1
Q 364.9 333.75 398.9 342.4 417.1 347.2 434.65 360.4 467.4 368.2 493.7 403.2 523.55 442.6 516.4 483 510.5 516.55 478.35 545.5 460.15 561.75 407.2 595.25 406.85 595.4 406.45 595.7 354.4 628.85 328.1 652.5 316.9 662.7 307.15 673.3 304.948828125 675.765234375 302.75 678.3 302.4462890625 678.6515625 302.15 679
L 299.95 681.75
Q 298.15 683.85 296.35 686.2 293.55 690.1 290.85 694.2
L 369.25 708
Q 374.75 696.6 381.25 686.35 386.75 677.8 392.8 670 401.6 658.8 410.95 650.3 417.35 644.6 423.85 640.05 432.45 631.05 443.3 624.1 444.3 623.25 445.45 622.45 451.55 618.45 460.4 613.75 464.9 611.25 470 608.75 471.35 608 472.7 607.4 476.5 605.5 479.8 603.6 482.65 602.3 485.2 600.9
L 496.8 594.45
Q 497.15 594.3 497.35 593.95 511.45 585.35 521.4 574.5 523.3 572.45 524.9 570.25 528.65 565.7 532.05 560.4 533 558.95 534 557.35 534.1 557.75 534.05 558.15 544.4 539.95 551.05 506.95 551.1 506.7 551.1 506.55 552.05 502.25 552.85 497.55 553.3 495.05 553.6 492.4 554.65 486.35 555.05 480.3 555.4 476.35 555.5 472.7 556 463.1 555.9 455.6 556 455.2 555.9 454.65 555.8 443.5 554.35 436.7 551.55 424.05 547.1 412.75 545.65 409.1 543.5 404.25 542.95 402.75 542.05 401 538.25 392.8 532.5 381.7 527.3 371.7 517.9 361.55 517.8 361.3 517.65 361.1 508.75 351.4 495.7 341.45 490.75 337.7 485.15 334.1 484.3 333.8 483.7 333.25 466.5 322.95 443.75 315.7 435.15 313 425.95 310.75 382.7 300.1 350.7 311.45 318.7 322.8 303.55 339.75 284.15 361.6 276.25 387.55 275.45 390.4 274.75 393.55 284.8 376.9 296.95 365.3 312.15 351.15 330.5 345.1
M 325.3 339.75
Q 341.6 326.45 356.5 329.05 371.35 331.7 379.45 334.55 352.1 332.3 325.15 345.6 312.05 351.95 300.35 361.85 309.05 353.05 325.3 339.75
M 520.6 566.1
Q 507.15 583.15 488.5 590.15 501.45 579.7 517.1 554.2 532.8 528.6 540.4 505.05 545.7 488.8 546.35 481.05 547.25 500.6 546.55 504.7 540.1 541.4 520.6 566.1 Z"/>

<path fill="#D7B5B3" stroke="none" d="
M 488.5 590.15
Q 507.15 583.15 520.6 566.1 540.1 541.4 546.55 504.7 547.25 500.6 546.35 481.05 545.7 488.8 540.4 505.05 532.8 528.6 517.1 554.2 501.45 579.7 488.5 590.15
M 356.5 329.05
Q 341.6 326.45 325.3 339.75 309.05 353.05 300.35 361.85 312.05 351.95 325.15 345.6 352.1 332.3 379.45 334.55 371.35 331.7 356.5 329.05 Z"/>
</g>
</defs>

<g transform="matrix( 0.6823577880859375, 0, 0, 0.6824188232421875, -187.5,-208.5) ">
<use xlink:href="#Layer0_0_FILL"/>
</g>
</svg>
