
<svg xmlns="http://www.w3.org/2000/svg" version="1.1" xmlns:xlink="http://www.w3.org/1999/xlink" preserveAspectRatio="none" x="0px" y="0px" width="346px" height="306px" viewBox="0 0 346 306">
<defs>
<g id="Layer0_0_FILL">
<path fill="#A16561" stroke="none" d="
M 172.1 83.8
Q 172.2 84.15 172.35 84.35 176.75 95.25 177.4 109.15 177.4 109.5 177.4 109.7 177.65 114.85 177.4 120.3 176.95 128.65 176.5 135.95 176.5 136.75 176.35 137.7 175.45 153.05 174.6 164.1 174.55 164.55 174.55 165 174.05 171.05 173.5 175.8 172.7 183.25 172.35 190.5 172.35 191.1 172.35 191.8 172.2 194.35 172.15 196.95 172 203.9 172.35 210.8 172.35 212.1 172.45 213.45 172.7 215.1 172.9 216.7 174.9 227.35 182.15 238.1 182.55 238.5 182.75 238.95 185.05 242.3 188 245.65 194.1 252.7 202.1 259 202.2 259.1 202.45 259.2 211.4 266.2 222.6 272 222.85 272.1 223.1 272.2 226 273.75 229 275.1 237.8 279.05 246.5 282.2 246.7 282.2 246.95 282.3 259.5 286.7 271.75 289 272.55 289.25 273.5 289.4 276.4 289.95 279.3 290.3 288.110546875 291.534765625 296.65 293 299.9111328125 293.198046875 307.55 293.9 328.3513671875 294.9330078125 339.25 285.9 355.1970703125 266.9751953125 306.9 248.75 283.4541015625 239.4197265625 273.95 234.1 262.95 227.8 255.5 219.7 231.4 207.7 221 196.95 220.6 196.5 220.2 196.1 209.85 185 202.7 168.95 195.5 152.85 194.25 125.85 193 98.75 185.75 81.1 178.45 63.4 170.35 52.15 164.35 43.8 153.55 37.65 149.7 35.45 145.3 33.6 131.65 27.7 117.65 25.95 114.15 25.35 110.75 25.25 93.2 24.1 70.25 30.2 61.2 32.7 46.15 47.9 31.05 62.9 27.25 83.55 23.4 104.2 26.2 117.3 29 130.25 33.85 138.6 33.95 138.85 34.2 139.15 39.25 147.55 54.85 165.6 50.75 159.55 47.6 155.85 40.9 147.85 37.2 139.15 34.55 133.15 33.25 126.75 33.05 126.2 33.05 125.6
L 32.9 125.3
Q 32.6 123.65 32 121 32 120.75 31.9 120.55
L 31.9 120.3
Q 31.75 119.95 31.75 119.8 31.55 118.35 31.15 116.8 31.05 116.35 30.95 115.9 29.7 110.3 29.7 107.65 29.7 99.1 31.05 91.45 31.05 91.1 31.15 90.85 31.3 90.4 31.4 90.05 31.9 87.6 32.45 85.4 33.7 81 35.45 76.95 38 71.05 41.7 65.9 42.05 65.35 42.4 64.9 45.45 60.85 49.25 57.35 50.2 56.45 51.25 55.55 52.65 54.35 54.15 53.2 54.45 52.85 54.85 52.6 57.7 50.55 60.75 48.8 60.85 48.65 60.95 48.55 66.55 45.3 72.75 43.35 74.3 42.75 75.8 42.4 81.25 40.8 85.85 40.2 86.1 40.2 86.35 40.2 89 39.85 91.45 39.85 98.2 39.75 100.9 39.5 102.9 39.25 113.1 40.8 113.2 40.8 113.35 40.9 115.3 41.15 117.65 41.6 118.7 41.7 119.75 41.95 127.45 43.25 136.65 48.45 136.75 48.45 136.85 48.55 140.1 50.3 143.45 52.6 148.35 55.95 153.55 60.25 155.4 61.75 157.25 63.4 157.35 63.5 157.5 63.6 157.6 63.6 157.6 63.75 167.1 71.95 172.1 83.8
M 295.7 303.3
Q 296.1185546875 302.67890625 296.45 302.15 295.9201171875 302.8810546875 295.3 303.65 295.57421875 303.4037109375 295.7 303.3 Z"/>

<path fill="#CCCCCC" stroke="none" d="
M 279.3 290.3
Q 276.4 289.95 273.5 289.4 275.45 294.8 277.35 296.75 279.3 298.85 284.6 298.85 290.649609375 298.85234375 294.35 294.85 295.551953125 293.5814453125 296.65 293 288.110546875 291.534765625 279.3 290.3
M 204.65 267.8
Q 208 275.1 213.9 275.1 216.25 275.1 222.6 272 211.4 266.2 202.45 259.2 202.8 263.75 204.65 267.8
M 188 245.65
Q 185.05 242.3 182.75 238.95 182.65 241.6 182.65 244.4 182.65 253.1 186.7 256.55 190.2 259.45 197.7 259.45 200 259.45 202.1 259 194.1 252.7 188 245.65
M 171.15 215.8
Q 170 218 169.7 219.95 169.55 220.3 169.55 220.85 169.3 222.25 169.3 224.95 169.3 230.6 172.1 233.95 175.3 237.7 182.15 238.1 174.9 227.35 172.9 216.7 172 216.25 171.15 215.8
M 246.95 282.3
Q 248.8 288.7 250.8 291.1 253.55 294.25 258.3 294.7 262.95 295 265.4 293.9 267.8 292.75 271.75 289 259.5 286.7 246.95 282.3
M 245.7 282.65
Q 246.05 282.4 246.5 282.2 237.8 279.05 229 275.1 226 273.75 223.1 272.2 224.25 278.7 227.7 281.7 231.5 284.95 239.75 284.95 241.85 284.95 245.7 282.65
M 31.55 92
Q 31.3 91.65 31.05 91.45 29.7 99.1 29.7 107.65 29.7 110.3 30.95 115.9 31.05 116.35 31.15 116.8 31.3 116.6 31.4 116.45 32 115.75 32.45 114.95 36.05 109.65 36.05 105 36.05 100.7 33.5 95.4 32.6 93.5 31.55 92
M 35.45 76.95
Q 33.7 81 32.45 85.4 31.9 87.6 31.4 90.05 31.3 90.4 31.15 90.85 31.4 90.85 31.6 90.85 36.4 90.65 40.1 85.05 43.6 79.85 43.6 74.05 43.6 70.45 42.3 67.35 42.05 66.65 41.7 65.9 38 71.05 35.45 76.95
M 60.95 48.9
Q 60.85 48.8 60.75 48.8 57.7 50.55 54.85 52.6 54.45 52.85 54.15 53.2 52.65 54.35 51.25 55.55 50.2 56.45 49.25 57.35 45.45 60.85 42.4 64.9 43.25 65.15 44 65.35 47.75 66.5 49.35 66.5 60.15 66.5 60.95 52.6 60.95 51.6 60.95 50.55 60.95 49.7 60.95 48.9
M 83.45 46.15
Q 85.2 43.1 85.85 40.2 81.25 40.8 75.8 42.4 74.3 42.75 72.75 43.35 66.55 45.3 60.95 48.55 60.95 48.8 60.95 48.9 63.25 50.65 66.05 51.8 67.3 52.25 68.5 52.6 70.7 53.2 72.9 53.2 74.75 53.2 76.5 52.6 80.55 51.2 83.45 46.15
M 100.9 39.5
Q 98.2 39.75 91.45 39.85 89 39.85 86.35 40.2 88.2 44.5 91.3 46.9 94.8 49.7 99.25 49.7 104.55 49.7 109.3 45.3 111.6 43.25 113.1 40.8 102.9 39.25 100.9 39.5
M 136.85 48.55
Q 136.75 48.65 136.65 48.8 136.3 50.4 136.3 51.45 136.3 52.05 136.4 52.6 136.85 58.4 142.65 61.3 147.3 63.6 153.05 63.6 153.35 63.6 153.55 63.6 155.75 63.6 157.25 63.4 155.4 61.75 153.55 60.25 148.35 55.95 143.45 52.6 140.1 50.3 136.85 48.55
M 136.65 48.8
Q 136.65 48.55 136.65 48.45 127.45 43.25 119.75 41.95 118.7 41.7 117.65 41.6 115.3 41.15 113.35 40.9 114.5 44.6 117.65 47.9 118.2 48.45 118.9 49.05 121.55 51.45 123.65 52.6 125.75 53.8 127.4 53.8 129.55 53.8 131.8 52.6 134.2 51.3 136.65 48.8
M 171.75 191.45
Q 169.8 194.45 168.45 196.95 164.7 203.8 164.7 206.75 164.7 211.85 170.6 215.45 170.8 215.55 171.15 215.8 171.75 214.6 172.45 213.45 172.35 212.1 172.35 210.8 172 203.9 172.15 196.95 172.2 194.35 172.35 191.8 172 191.55 171.75 191.45
M 174.55 165
Q 174.3 164.8 174.15 164.55 168.15 171.5 167.95 171.75 165.25 175.45 165.25 179.75 165.25 185.4 169.9 189.85 170.8 190.6 171.75 191.45 172 190.95 172.35 190.5 172.7 183.25 173.5 175.8 174.05 171.05 174.55 165
M 176.35 137.7
Q 172.2 143.1 170.95 145.2 168.15 149.6 168.15 153.65 168.15 157.6 173.15 163.4 173.6 163.95 174.15 164.55 174.4 164.3 174.6 164.1 175.45 153.05 176.35 137.7
M 177.4 120.3
Q 177.65 114.85 177.4 109.7 173.85 114.6 172.7 116.8 171.05 119.95 171.05 124.1 171.05 129.75 173.7 133.25 174.75 134.55 176.5 135.95 176.95 128.65 177.4 120.3
M 172.35 84.35
Q 172 84.25 171.75 84.25 167.55 89.5 167.55 94.55 167.55 100.6 173.5 106.15 175.45 107.9 177.4 109.15 176.75 95.25 172.35 84.35
M 171.75 84.25
Q 171.85 84 172.1 83.8 167.1 71.95 157.6 63.75 156.9 65.6 156.7 66.95 156.55 67.9 156.55 70.55 156.55 78 161.65 81 164.2 82.6 171.75 84.25 Z"/>

<path fill="#BF8D8B" stroke="none" d="
M 188.3 30.8
Q 177.8 21.65 166.2 16.25 154.6 10.75 141.5 6.6 132.45 3.6 117.65 1.75 111.25 0.9 103.7 0.3 78.9 -1.75 53.9 10.9 28.75 23.4 17 42.75 5.35 62 3 73.95 0.6 85.75 0.1 93.85 -0.1 98.3 0.1 102.35 0.95 113.7 3.85 126.45 5.2 132.45 9.05 139.15 13.2 146.6 20.3 154.8 33.7 170.6 60.75 174.75 63.6 175.1 66.75 175.45 60.3 170.1 54.85 165.6 39.25 147.55 34.2 139.15 33.95 138.85 33.85 138.6 29 130.25 26.2 117.3 23.4 104.2 27.25 83.55 31.05 62.9 46.15 47.9 61.2 32.7 70.25 30.2 93.2 24.1 110.75 25.25 114.15 25.35 117.65 25.95 131.65 27.7 145.3 33.6 149.7 35.45 153.55 37.65 164.35 43.8 170.35 52.15 178.45 63.4 185.75 81.1 193 98.75 194.25 125.85 195.5 152.85 202.7 168.95 209.85 185 220.2 196.1 220.6 196.5 221 196.95 231.4 207.7 255.5 219.7 251.85 215.55 249.05 211 244.95 204.4 242.7 196.95 240.25 189.1 239.9 180.3 239.15 165.85 237.7 142.9 237.45 138.95 235.85 123.2 234.2 107.3 227.7 88.3 221.2 69.15 214.85 60 208.5 50.9 203.65 45.4 198.75 39.95 188.3 30.8
M 123.45 8.7
Q 138.25 9 150.3 14.7 162.25 20.3 171.75 31.55 164.1 24.65 148.8 20.05 130.4 14.35 117.65 11.95 109.15 10.2 103.25 10 107.45 8.55 117.65 8.55 120.3 8.55 123.45 8.7
M 76.95 11.25
Q 54.6 21.9 41.15 33.95 27.7 45.85 21.1 60.6 23.05 37.75 38.25 25.35 53.3 13 76.95 11.25 Z"/>

<path fill="#D7B5B3" stroke="none" d="
M 41.15 33.95
Q 54.6 21.9 76.95 11.25 53.3 13 38.25 25.35 23.05 37.75 21.1 60.6 27.7 45.85 41.15 33.95
M 150.3 14.7
Q 138.25 9 123.45 8.7 120.3 8.55 117.65 8.55 107.45 8.55 103.25 10 109.15 10.2 117.65 11.95 130.4 14.35 148.8 20.05 164.1 24.65 171.75 31.55 162.25 20.3 150.3 14.7 Z"/>
</g>
</defs>

<g transform="matrix( 1, 0, 0, 1, 0,0) ">
<use xlink:href="#Layer0_0_FILL"/>
</g>
</svg>
