
<svg xmlns="http://www.w3.org/2000/svg" version="1.1" xmlns:xlink="http://www.w3.org/1999/xlink" preserveAspectRatio="none" x="0px" y="0px" width="500px" height="272px" viewBox="0 0 500 272">
<defs>
<g id="Layer0_0_FILL">
<path fill="#A16561" stroke="none" d="
M 458.7 39.55
Q 459.9 40 461.2 40.55 464.6 41.85 467.65 43.7 469.85 45.1 471.75 46.75 465.65 38.85 459.85 33.55 455.4 29.65 451.2 27.25 427.1 13.55 378.55 23.25 370.6 24.85 353.8 33.1 349.551953125 37.55078125 342.6 44.1 335.697265625 50.693359375 323.55 68.3 311.4484375 85.9138671875 280.85 138.4 250.2451171875 190.88984375 192.8 195.55 135.367578125 200.1962890625 84.4 171.2 33.4611328125 142.2697265625 46.05 135.8 49.4390625 136.7162109375 52.25 137.45 49.924609375 134.8791015625 47.95 132.55 40.25 133.15 34.05 131.85 29.5 130.9 25.15 129 24.75 131.45 23.25 133.75 21.65 136.15 16.45 137.7 11.35 139.15 7.5 138.5 3.65 137.9 2.3 137.7 3.1 138.8 3.8 139.95 10.2 149.15 15.7 156.7 18.4 160.4 20.95 163.95 21.6 164.7 22.05 165.4 31.2 177.15 40.1 187.5 40.7 188.1 41.2 188.75 51 199.8 60.8 209.25 61.65 210.05 62.55 210.9 69.85 217.65 77.1 223.55 79.75 225.7 82.5 227.7 82.65 227.8 82.65 227.9 97.4 238.8 113.75 245.9 114.9 246.35 115.95 246.9 130.2 252.8 145.65 256 146.25 256.1 146.9 256.25 147 256.2 147.15 256.3 161.6 259.15 177.3 259.85 178.45 259.85 179.5 260 181.65 260.1 183.8 260.1 196.55 260.25 210.2 259.25 211.1 259.05 211.9 259.05 214.75 258.8 217.6 258.5 225.4 257.65 233.55 256.35 240.7 255.3 247.35 253.45 249 253.05 250.65 252.6 264.9 248.45 277.1 241.5 278.05 240.95 278.75 240.55 290.4 233.6 300.1 223.95 302.8 221.25 305.4 218.35 305.95 217.65 306.4 217.05 307.75 215.55 309.05 213.85 317.35 203.35 323.65 190.05 324.25 188.8 324.75 187.6 326.45 183.9 328 180 331.35 171.1 334.45 159.75 334.95 158.15 335.3 156.55
L 336 154
Q 336.5 153.75 336.95 153.65 344.1 134.15 349.65 121.15 350.55 119.05 351.3 117.15 354.3 109.95 357.7 101.2 358.7 98.55 359.65 95.9 361.35 91.5 363 87.45 363.5 86.3 363.95 85.15 371.35 68.25 379.2 58.05 379.6 57.5 379.95 57.1 384.65 51.25 389.55 47.7 397.9 41.6 405.45 37.95 405.9 37.75 406.3 37.6 413.05 34.5 419.15 33.3 427.1 31.65 439.35 34.15 439.9 34.3 440.35 34.45 448.6 36.05 458.7 39.55 Z"/>

<path fill="#BF8D8B" stroke="none" d="
M 489.35 73.45
Q 490 75.3 490.35 77.25 494.85 98.25 494.05 129.95 495.15 126.1 496.05 122.3 498.9 110.3 499.65 97.65 499.9 94.7 500 91.65 500.5 67.35 490.55 40.75 481.75 17.2 454.4 6.4 450.7 4.9 446.75 3.75 445.6 3.35 444.4 3 442.85 2.6 441.45 2.3 422.8 -2.25 404.85 2.15 392.95 5.1 381.45 11.8 365.25 21.25 353.8 33.1 370.6 24.85 378.55 23.25 427.1 13.55 451.2 27.25 455.4 29.65 459.85 33.55 465.65 38.85 471.75 46.75 484.8 56.95 489.35 73.45
M 456.55 17.05
Q 454.85 16.3 453.35 15.85 443.5 12.2 412.05 10.05 429.55 2.35 447.25 8.05 451.35 9.35 455.4 11.25 468.35 17.15 479.55 28.95 465.7 20.85 456.55 17.05 Z"/>

<path fill="#D7B5B3" stroke="none" d="
M 453.35 15.85
Q 454.85 16.3 456.55 17.05 465.7 20.85 479.55 28.95 468.35 17.15 455.4 11.25 451.35 9.35 447.25 8.05 429.55 2.35 412.05 10.05 443.5 12.2 453.35 15.85 Z"/>

<path fill="#CCCCCC" stroke="none" d="
M 278.3 241.7
Q 277.75 241.55 277.1 241.5 264.9 248.45 250.65 252.6 249 253.05 247.35 253.45 240.7 255.3 233.55 256.35 225.4 257.65 217.6 258.5 214.75 258.8 211.9 259.05 215.4 261.95 218.7 264 220.7 265.1 222.75 266 228 268.2 231.9 268.7 236 269.2 242.15 263.15 248.4 257.15 249.5 254.95 255.65 258.75 262.8 259.15 270 259.45 272.5 254.75 274.9 250.1 278.3 241.7
M 304.95 233.6
Q 306.85 228.65 305.4 218.35 302.8 221.25 300.1 223.95 290.4 233.6 278.75 240.55 278.5 241.1 278.3 241.7 278.85 241.7 279.35 241.85 287.1 243.1 292.05 242.15 299.35 240.7 302.7 237.1 304.15 235.55 304.95 233.6
M 60.15 218.3
Q 61.7 226.05 69.1 228.15 74.1 229.55 80.25 228.25 81.35 228.05 82.5 227.7 79.75 225.7 77.1 223.55 69.85 217.65 62.55 210.9 61.65 210.05 60.8 209.25 51 199.8 41.2 188.75 37.45 197.95 38.2 201.65 40.1 211.3 52.35 211.8 55.5 211.85 60.3 211.25 59.7 213.25 59.65 214.5 59.65 215.6 60.15 218.3
M 113.75 245.9
Q 97.4 238.8 82.65 227.9 82.5 229 82.45 229.25 82.35 230 82.85 232.45 85.6 246.4 90.95 249.65 95.3 252.15 107.3 249.75 110.8 249.05 113.95 247.85 115.6 256.25 120.6 260.9 125.7 265.35 132.15 264.05 138.4 262.8 142.45 260.35 146.6 257.8 146.6 257.7 150.1 263.75 153.55 267.85 157 271.85 163.25 270.75 169.4 269.6 173.65 265.85 178.05 261.95 178.4 261.35 180.65 263.85 183.85 265.7 184.45 266 185.05 266.35 190.65 269.55 194.4 270.85 198.65 272.05 203.3 266.8 208 261.55 210.2 259.25 196.55 260.25 183.8 260.1 181.65 260.1 179.5 260 178.45 259.85 177.3 259.85 161.6 259.15 147.15 256.3 147 256.2 146.9 256.25 146.25 256.1 145.65 256 130.2 252.8 115.95 246.9 114.9 246.35 113.75 245.9
M 22.05 165.4
Q 21.6 164.7 20.95 163.95 18.4 160.4 15.7 156.7 10.2 149.15 3.8 139.95 0.65 147.6 0.15 150.95 -0.35 154.2 0.5 159.05 1.3 163.8 8.65 164.9 16.1 166 20.55 165.6 19.95 168.15 19.05 171.35 18.15 174.45 19.35 180.4 20.55 186.35 27.45 187.65 34.5 188.85 40.1 187.5 31.2 177.15 22.05 165.4
M 325.75 197.5
Q 324.85 193.1 324.35 191.55 324.1 190.9 323.65 190.05 317.35 203.35 309.05 213.85 307.75 215.55 306.4 217.05 316.05 215.05 320.45 211.95 327.6 206.9 325.75 197.5
M 334.5 159.9
L 334.45 159.75
Q 331.35 171.1 328 180 326.45 183.9 324.75 187.6 328.45 186.55 331.1 185.3 342.15 180.2 340.35 171.2 339.65 167.75 336.2 162.45 335.35 161.25 334.6 160.1 334.3 160.85 334 161.7
L 334.5 159.9
M 352.15 126.05
Q 351.05 124 349.65 121.15 344.1 134.15 336.95 153.65 340.55 152.5 343.2 151.15 356.05 144.5 353.4 131.25 352.55 127 352.15 126.05
M 381.15 75.85
Q 382.85 70.75 380.2 58.2 379.7 58.05 379.2 58.05 371.35 68.25 363.95 85.15 365.25 85.1 365.8 85 378.9 82.4 381.15 75.85
M 363 87.45
Q 361.35 91.5 359.65 95.9 358.7 98.55 357.7 101.2 354.3 109.95 351.3 117.15 353.2 116.2 354.8 115.45 357.65 113.95 359.9 112.45 369.3 105.7 367.6 96.9 367.1 94.45 365.35 91.6 364.3 89.75 363 87.45
M 406.25 38.9
Q 408.15 40.95 410.75 42.9 418.7 48.75 426 47.3 434.65 45.6 437.45 39.75 438.4 36.95 439.35 34.15 427.1 31.65 419.15 33.3 413.05 34.5 406.3 37.6 406.3 38.15 406.25 38.9
M 406.25 38.9
Q 405.9 38.35 405.45 37.95 397.9 41.6 389.55 47.7 384.65 51.25 379.95 57.1 380.05 57.6 380.2 58.2 385 58.95 389.05 58.15 398.6 56.25 403.3 47.6 405.4 43.7 406.25 38.9
M 461.2 40.55
Q 459.9 40 458.7 39.55 448.6 36.05 440.35 34.45 443.2 39.2 446.4 42.35 452.85 48.95 459.9 47.55 461.25 47.3 462.5 46.95 465.65 45.85 467.65 43.7 464.6 41.85 461.2 40.55 Z"/>
</g>
</defs>

<g transform="matrix( 1, 0, 0, 1, 0,0) ">
<use xlink:href="#Layer0_0_FILL"/>
</g>
</svg>
