
<svg xmlns="http://www.w3.org/2000/svg" version="1.1" xmlns:xlink="http://www.w3.org/1999/xlink" preserveAspectRatio="none" x="0px" y="0px" width="354px" height="340px" viewBox="0 0 354 340">
<defs>
<g id="Layer0_0_MEMBER_0_FILL">
<path fill="#2D648C" stroke="none" d="
M -1085.6 325.65
L -1001.65 325.65 -1029.45 294.9 -1085.6 294.9 -1085.6 325.65
M -1107.7 237.45
L -1132 237.45 -1180.85 269.95 -1129.15 269.95 -1107.7 237.45
M -1015.65 269.95
L -1046.05 237.45 -1085.6 237.45 -1085.6 269.95 -1015.65 269.95
M -1212.7 325.65
L -1144.55 325.65 -1116.8 294.9 -1154.85 294.9 -1212.7 325.65
M -1089.8 163.05
L -1097.75 163.05 -1148.65 216.85 -1114.1 216.85 -1089.8 163.05
M -1078.1 163.05
L -1085.6 163.05 -1085.6 216.85 -1051.05 216.85 -1078.1 163.05 Z"/>

<path fill="#6294B8" stroke="none" d="
M -1085.6 294.9
L -1116.8 294.9 -1144.55 325.65 -1085.6 325.65 -1085.6 294.9
M -1129.15 269.95
L -1085.6 269.95 -1085.6 237.45 -1107.7 237.45 -1129.15 269.95
M -1085.6 163.05
L -1089.8 163.05 -1114.1 216.85 -1085.6 216.85 -1085.6 163.05
M -1085.55 134.25
L -1086.95 134.25 -1088.5 153.7 -1085.55 153.7 -1085.55 134.25 Z"/>

<path fill="#375379" stroke="none" d="
M -1016.85 294.9
L -1029.45 294.9 -1001.65 325.65 -959.05 325.65 -1016.85 294.9
M -1039.8 237.45
L -1046.05 237.45 -1015.65 269.95 -990.85 269.95 -1039.8 237.45
M -1074.1 162.95
L -1074.1 163.05 -1078.1 163.05 -1051.05 216.85 -1023.2 216.85 -1074.1 162.95
M -1083.35 134.25
L -1084.5 134.25 -1081.5 153.7 -1078.45 153.7 -1083.35 134.25 Z"/>

<path fill="#B84F4F" stroke="none" d="
M -1039.8 237.45
L -1039.8 228.8 -1132 228.8 -1132 237.45 -1107.7 237.45 -1085.6 237.45 -1046.05 237.45 -1039.8 237.45
M -1177.8 340.95
L -1177.8 388.2 -994 388.2 -994 340.95 -1177.8 340.95
M -1154.85 284.85
L -1154.85 294.9 -1116.8 294.9 -1085.6 294.9 -1029.45 294.9 -1016.85 294.9 -1016.85 284.85 -1154.85 284.85 Z"/>

<path fill="#A12C2C" stroke="none" d="
M -1039.8 228.8
L -1039.8 224.95 -1132 224.95 -1132 228.8 -1039.8 228.8
M -1177.8 336.45
L -1177.8 340.95 -994 340.95 -994 336.45 -1177.8 336.45
M -1154.85 280.6
L -1154.85 284.85 -1016.85 284.85 -1016.85 280.6 -1154.85 280.6 Z"/>

<path fill="#324764" stroke="none" d="
M -1039.8 224.95
L -1023.2 216.85 -1051.05 216.85 -1085.6 216.85 -1114.1 216.85 -1148.65 216.85 -1132 224.95 -1039.8 224.95
M -1212.7 325.65
L -1177.8 336.45 -994 336.45 -959.05 325.65 -1001.65 325.65 -1085.6 325.65 -1144.55 325.65 -1212.7 325.65
M -1180.85 269.95
Q -1180.85 270 -1180.85 270.1 -1169.75 274.5 -1154.85 280.6
L -1016.85 280.6
Q -1000.95 274.35 -989.8 270.2 -990.35 270.1 -990.85 269.95
L -1015.65 269.95 -1085.6 269.95 -1129.15 269.95 -1180.85 269.95 Z"/>

<path fill="#FFCC00" stroke="none" d="
M -1097.8 163.05
L -1097.75 163.05 -1089.8 163.05 -1085.6 163.05 -1078.1 163.05 -1074.1 163.05 -1074.1 162.95 -1078.45 153.7 -1081.5 153.7 -1085.55 153.7 -1088.5 153.7 -1093.15 153.7 -1093.15 153.65 -1097.8 163.05 Z"/>

<path fill="#1A5D8D" stroke="none" d="
M -1086.95 134.25
L -1088.1 134.25 -1093.15 153.7 -1088.5 153.7 -1086.95 134.25
M -1084.5 134.25
L -1085.55 134.25 -1085.55 153.7 -1081.5 153.7 -1084.5 134.25 Z"/>
</g>

<g id="Layer0_0_MEMBER_0_MEMBER_0_FILL">
<path fill="#FFCC00" stroke="none" d="
M -1080 134.55
Q -1077.95 132.5 -1077.95 129.5 -1077.95 126.6 -1080 124.5 -1082.1 122.4 -1085.05 122.4 -1088 122.4 -1090.05 124.5 -1092.2 126.6 -1092.2 129.5 -1092.2 132.5 -1090.05 134.55 -1088 136.65 -1085.05 136.65 -1082.1 136.65 -1080 134.55 Z"/>
</g>

<g id="Layer0_0_MEMBER_0_MEMBER_1_FILL">
<path fill="#FFCC00" stroke="none" d="
M -1105.05 340.95
L -1105.05 381.7 -1067.5 381.7 -1067.5 340.95 -1105.05 340.95
M -1069 342.15
L -1069 343.6 -1069 380.4 -1084.75 380.4 -1084.75 343.6 -1084.75 342.15 -1069 342.15
M -1087.75 342.15
L -1087.75 343.6 -1087.75 380.4 -1103.65 380.4 -1103.65 343.6 -1103.65 342.15 -1087.75 342.15 Z"/>

<path fill="#2D648C" stroke="none" d="
M -1087.75 380.4
L -1087.75 343.6 -1103.65 343.6 -1103.65 380.4 -1087.75 380.4
M -1069 343.6
L -1084.75 343.6 -1084.75 380.4 -1069 380.4 -1069 343.6 Z"/>

<path fill="#324764" stroke="none" d="
M -1087.75 343.6
L -1087.75 342.15 -1103.65 342.15 -1103.65 343.6 -1087.75 343.6
M -1069 343.6
L -1069 342.15 -1084.75 342.15 -1084.75 343.6 -1069 343.6 Z"/>

<path fill="#FFFFFF" stroke="none" d="
M -1110.05 381.85
L -1110.05 388.2 -1062.4 388.2 -1062.4 381.85 -1110.05 381.85 Z"/>
</g>

<g id="Layer0_0_MEMBER_0_MEMBER_1_MEMBER_0_FILL">
<path fill="#FFCC00" stroke="none" d="
M -1080.55 356.55
Q -1081.2 355.95 -1082.05 355.95
L -1082.45 355.95 -1082.45 357.45 -1082.3 357.45
Q -1081.8 357.45 -1081.5 357.95 -1081.15 358.35 -1081.15 359.05
L -1081.15 364.6
Q -1081.15 365.35 -1081.5 365.8 -1081.8 366.3 -1082.3 366.3
L -1082.45 366.3 -1082.45 367.75 -1082.05 367.75
Q -1081.2 367.75 -1080.55 367.15 -1079.95 366.45 -1079.95 365.55
L -1079.95 358.05
Q -1079.95 357.2 -1080.55 356.55 Z"/>
</g>

<g id="Layer0_0_MEMBER_0_MEMBER_1_MEMBER_1_FILL">
<path fill="#FFCC00" stroke="none" d="
M -1089.75 355.95
Q -1090.65 355.95 -1091.25 356.55 -1091.9 357.2 -1091.9 358.05
L -1091.9 365.55
Q -1091.9 366.45 -1091.25 367.15 -1090.65 367.75 -1089.75 367.75
L -1089.35 367.75 -1089.35 366.3 -1089.55 366.3
Q -1090.05 366.3 -1090.35 365.8 -1090.65 365.35 -1090.65 364.6
L -1090.65 359.05
Q -1090.65 358.35 -1090.35 357.95 -1090.05 357.45 -1089.55 357.45
L -1089.35 357.45 -1089.35 355.95 -1089.75 355.95 Z"/>
</g>

<g id="Layer0_0_MEMBER_0_MEMBER_2_FILL">
<path fill="#FFCC00" stroke="none" d="
M -1134.3 346.3
L -1134.3 377.5 -1115 377.5 -1115 346.3 -1134.3 346.3
M -1116.15 347.85
L -1116.15 356.45 -1123.95 356.45 -1123.95 347.85 -1116.15 347.85
M -1133.05 347.85
L -1125.25 347.85 -1125.25 356.45 -1133.05 356.45 -1133.05 347.85
M -1133.15 357.7
L -1125.3 357.7 -1125.3 366.3 -1133.15 366.3 -1133.15 357.7
M -1133.15 367.45
L -1125.3 367.45 -1125.3 376.05 -1133.15 376.05 -1133.15 367.45
M -1123.95 357.7
L -1116.15 357.7 -1116.15 366.3 -1123.95 366.3 -1123.95 357.7
M -1123.95 367.45
L -1116.15 367.45 -1116.15 376.05 -1123.95 376.05 -1123.95 367.45 Z"/>

<path fill="#2D648C" stroke="none" d="
M -1116.15 367.45
L -1123.95 367.45 -1123.95 376.05 -1116.15 376.05 -1116.15 367.45
M -1116.15 357.7
L -1123.95 357.7 -1123.95 366.3 -1116.15 366.3 -1116.15 357.7
M -1125.3 367.45
L -1133.15 367.45 -1133.15 376.05 -1125.3 376.05 -1125.3 367.45
M -1125.3 357.7
L -1133.15 357.7 -1133.15 366.3 -1125.3 366.3 -1125.3 357.7
M -1125.25 347.85
L -1133.05 347.85 -1133.05 356.45 -1125.25 356.45 -1125.25 347.85
M -1116.15 356.45
L -1116.15 347.85 -1123.95 347.85 -1123.95 356.45 -1116.15 356.45 Z"/>
</g>

<g id="Layer0_0_MEMBER_0_MEMBER_3_FILL">
<path fill="#FFCC00" stroke="none" d="
M -1056.95 346.45
L -1056.95 377.65 -1037.6 377.65 -1037.6 346.45 -1056.95 346.45
M -1055.75 366.45
L -1055.75 357.9 -1047.95 357.9 -1047.95 366.45 -1055.75 366.45
M -1055.75 376.25
L -1055.75 367.65 -1047.95 367.65 -1047.95 376.25 -1055.75 376.25
M -1055.75 356.65
L -1055.75 348 -1047.85 348 -1047.85 356.65 -1055.75 356.65
M -1038.8 348
L -1038.8 356.65 -1046.6 356.65 -1046.6 348 -1038.8 348
M -1038.85 366.45
L -1046.6 366.45 -1046.6 357.9 -1038.85 357.9 -1038.85 366.45
M -1046.6 367.65
L -1038.85 367.65 -1038.85 376.25 -1046.6 376.25 -1046.6 367.65 Z"/>

<path fill="#2D648C" stroke="none" d="
M -1038.85 367.65
L -1046.6 367.65 -1046.6 376.25 -1038.85 376.25 -1038.85 367.65
M -1046.6 366.45
L -1038.85 366.45 -1038.85 357.9 -1046.6 357.9 -1046.6 366.45
M -1038.8 356.65
L -1038.8 348 -1046.6 348 -1046.6 356.65 -1038.8 356.65
M -1055.75 348
L -1055.75 356.65 -1047.85 356.65 -1047.85 348 -1055.75 348
M -1055.75 367.65
L -1055.75 376.25 -1047.95 376.25 -1047.95 367.65 -1055.75 367.65
M -1055.75 357.9
L -1055.75 366.45 -1047.95 366.45 -1047.95 357.9 -1055.75 357.9 Z"/>
</g>

<g id="Layer0_0_MEMBER_0_MEMBER_4_FILL">
<path fill="#FFCC00" stroke="none" d="
M -1146.15 346.45
L -1165.5 346.45 -1165.5 377.65 -1146.15 377.65 -1146.15 346.45
M -1147.3 348
L -1147.3 356.65 -1155.15 356.65 -1155.15 348 -1147.3 348
M -1147.3 357.9
L -1147.3 366.45 -1155.15 366.45 -1155.15 357.9 -1147.3 357.9
M -1156.35 356.65
L -1164.25 356.65 -1164.25 348 -1156.35 348 -1156.35 356.65
M -1164.3 357.9
L -1156.45 357.9 -1156.45 366.45 -1164.3 366.45 -1164.3 357.9
M -1164.3 367.65
L -1156.45 367.65 -1156.45 376.25 -1164.3 376.25 -1164.3 367.65
M -1155.15 367.65
L -1147.3 367.65 -1147.3 376.25 -1155.15 376.25 -1155.15 367.65 Z"/>

<path fill="#2D648C" stroke="none" d="
M -1147.3 367.65
L -1155.15 367.65 -1155.15 376.25 -1147.3 376.25 -1147.3 367.65
M -1156.45 367.65
L -1164.3 367.65 -1164.3 376.25 -1156.45 376.25 -1156.45 367.65
M -1156.45 357.9
L -1164.3 357.9 -1164.3 366.45 -1156.45 366.45 -1156.45 357.9
M -1164.25 356.65
L -1156.35 356.65 -1156.35 348 -1164.25 348 -1164.25 356.65
M -1147.3 366.45
L -1147.3 357.9 -1155.15 357.9 -1155.15 366.45 -1147.3 366.45
M -1147.3 356.65
L -1147.3 348 -1155.15 348 -1155.15 356.65 -1147.3 356.65 Z"/>
</g>

<g id="Layer0_0_MEMBER_0_MEMBER_5_FILL">
<path fill="#FFCC00" stroke="none" d="
M -1006.55 377.65
L -1006.55 346.45 -1025.9 346.45 -1025.9 377.65 -1006.55 377.65
M -1015.6 356.65
L -1015.6 348 -1007.7 348 -1007.7 356.65 -1015.6 356.65
M -1016.85 348
L -1016.85 356.65 -1024.65 356.65 -1024.65 348 -1016.85 348
M -1024.7 357.9
L -1016.85 357.9 -1016.85 366.45 -1024.7 366.45 -1024.7 357.9
M -1015.6 366.45
L -1015.6 357.9 -1007.8 357.9 -1007.8 366.45 -1015.6 366.45
M -1024.7 367.65
L -1016.85 367.65 -1016.85 376.25 -1024.7 376.25 -1024.7 367.65
M -1015.6 376.25
L -1015.6 367.65 -1007.8 367.65 -1007.8 376.25 -1015.6 376.25 Z"/>

<path fill="#2D648C" stroke="none" d="
M -1015.6 367.65
L -1015.6 376.25 -1007.8 376.25 -1007.8 367.65 -1015.6 367.65
M -1016.85 367.65
L -1024.7 367.65 -1024.7 376.25 -1016.85 376.25 -1016.85 367.65
M -1015.6 357.9
L -1015.6 366.45 -1007.8 366.45 -1007.8 357.9 -1015.6 357.9
M -1016.85 357.9
L -1024.7 357.9 -1024.7 366.45 -1016.85 366.45 -1016.85 357.9
M -1016.85 356.65
L -1016.85 348 -1024.65 348 -1024.65 356.65 -1016.85 356.65
M -1015.6 348
L -1015.6 356.65 -1007.7 356.65 -1007.7 348 -1015.6 348 Z"/>
</g>

<g id="Layer0_0_MEMBER_1_FILL">
<path fill="#CCCCCC" stroke="none" d="
M -951.85 427.95
L -951.85 394.3 -1219.9 394.3 -1219.9 427.95 -951.85 427.95 Z"/>

<path fill="#FFFFFF" stroke="none" d="
M -962.7 375.05
L -962.7 383.8 -973.25 383.8 -973.25 375.05 -984.1 375.05 -984.1 383.8 -994.65 383.8 -994.65 375.05 -1005.5 375.05 -1005.5 383.8 -1016.05 383.8 -1016.05 375.05 -1026.95 375.05 -1026.95 383.8 -1037.5 383.8 -1037.5 375.05 -1048.45 375.05 -1048.45 383.8 -1059.05 383.8 -1059.05 375.05 -1069.85 375.05 -1069.85 383.8 -1080.45 383.8 -1080.45 375.05 -1091.25 375.05 -1091.25 383.8 -1101.85 383.8 -1101.85 375.05 -1112.7 375.05 -1112.7 383.8 -1123.25 383.8 -1123.25 375.05 -1134.25 375.05 -1134.25 383.8 -1144.85 383.8 -1144.85 375.05 -1155.65 375.05 -1155.65 383.8 -1166.25 383.8 -1166.25 375.05 -1177.05 375.05 -1177.05 383.8 -1187.65 383.8 -1187.65 375.05 -1198.5 375.05 -1198.5 383.8 -1209.05 383.8 -1209.05 375.05 -1219.9 375.05 -1219.9 394.3 -951.85 394.3 -951.85 375.05 -962.7 375.05 Z"/>
</g>

<g id="Layer0_0_MEMBER_2_MEMBER_0_FILL">
<path fill="#CCCCCC" stroke="none" d="
M -1262.8 422.65
L -1262.8 462 -908.95 462 -908.95 422.65 -1262.8 422.65 Z"/>

<path fill="#FFFFFF" stroke="none" d="
M -1005.55 403.4
L -1005.55 412.15 -1016.15 412.15 -1016.15 403.4 -1026.95 403.4 -1026.95 412.15 -1037.55 412.15 -1037.55 403.4 -1048.4 403.4 -1048.4 412.15 -1058.95 412.15 -1058.95 403.4 -1069.8 403.4 -1069.8 412.15 -1080.35 412.15 -1080.35 403.4 -1091.35 403.4 -1091.35 412.15 -1101.95 412.15 -1101.95 403.4 -1112.75 403.4 -1112.75 412.15 -1123.35 412.15 -1123.35 403.4 -1134.15 403.4 -1134.15 412.15 -1144.75 412.15 -1144.75 403.4 -1155.6 403.4 -1155.6 412.15 -1166.15 412.15 -1166.15 403.4 -1177.15 403.4 -1177.15 412.15 -1187.75 412.15 -1187.75 403.4 -1198.55 403.4 -1198.55 412.15 -1209.15 412.15 -1209.15 403.4 -1219.95 403.4 -1219.95 412.15 -1230.55 412.15 -1230.55 403.4 -1241.4 403.4 -1241.4 412.15 -1251.95 412.15 -1251.95 403.4 -1262.8 403.4 -1262.8 422.65 -908.95 422.65 -908.95 403.4 -919.8 403.4 -919.8 412.15 -930.4 412.15 -930.4 403.4 -941.2 403.4 -941.2 412.15 -951.8 412.15 -951.8 403.4 -962.6 403.4 -962.6 412.15 -973.2 412.15 -973.2 403.4 -984.05 403.4 -984.05 412.15 -994.6 412.15 -994.6 403.4 -1005.55 403.4 Z"/>
</g>

<g id="Layer0_0_MEMBER_2_MEMBER_1_FILL">
<path fill="#999999" stroke="none" d="
M -944.35 452.4
L -955.2 452.4 -955.2 456.8 -944.35 456.8 -944.35 452.4
M -931.45 444.75
L -931.45 440.35 -942.3 440.35 -942.3 444.75 -931.45 444.75
M -1215.15 434.3
L -1226 434.3 -1226 438.7 -1215.15 438.7 -1215.15 434.3
M -1245.05 428.3
L -1245.05 432.7 -1234.2 432.7 -1234.2 428.3 -1245.05 428.3
M -1189.55 452.4
L -1200.4 452.4 -1200.4 456.8 -1189.55 456.8 -1189.55 452.4
M -1208.45 432.7
L -1208.45 428.3 -1219.3 428.3 -1219.3 432.7 -1208.45 432.7
M -1125.1 456.8
L -1125.1 452.4 -1135.95 452.4 -1135.95 456.8 -1125.1 456.8
M -1099.05 434.3
L -1109.9 434.3 -1109.9 438.7 -1099.05 438.7 -1099.05 434.3
M -1079.45 428.3
L -1090.3 428.3 -1090.3 432.7 -1079.45 432.7 -1079.45 428.3
M -1047.65 456.8
L -1047.65 452.4 -1058.5 452.4 -1058.5 456.8 -1047.65 456.8
M -981 440.35
L -981 444.75 -970.1 444.75 -970.1 440.35 -981 440.35
M -989.55 428.3
L -1000.4 428.3 -1000.4 432.7 -989.55 432.7 -989.55 428.3
M -1009.15 438.7
L -1009.15 434.3 -1020 434.3 -1020 438.7 -1009.15 438.7 Z"/>
</g>
</defs>

<g transform="matrix( 1, 0, 0, 1, 1262.8,-122.4) ">
<use xlink:href="#Layer0_0_MEMBER_0_FILL"/>
</g>

<g transform="matrix( 1, 0, 0, 1, 1262.8,-122.4) ">
<use xlink:href="#Layer0_0_MEMBER_0_MEMBER_0_FILL"/>
</g>

<g transform="matrix( 1, 0, 0, 1, 1262.8,-122.4) ">
<use xlink:href="#Layer0_0_MEMBER_0_MEMBER_1_FILL"/>
</g>

<g transform="matrix( 1, 0, 0, 1, 1262.8,-122.4) ">
<use xlink:href="#Layer0_0_MEMBER_0_MEMBER_1_MEMBER_0_FILL"/>
</g>

<g transform="matrix( 1, 0, 0, 1, 1262.8,-122.4) ">
<use xlink:href="#Layer0_0_MEMBER_0_MEMBER_1_MEMBER_1_FILL"/>
</g>

<g transform="matrix( 1, 0, 0, 1, 1262.8,-122.4) ">
<use xlink:href="#Layer0_0_MEMBER_0_MEMBER_2_FILL"/>
</g>

<g transform="matrix( 1, 0, 0, 1, 1262.8,-122.4) ">
<use xlink:href="#Layer0_0_MEMBER_0_MEMBER_3_FILL"/>
</g>

<g transform="matrix( 1, 0, 0, 1, 1262.8,-122.4) ">
<use xlink:href="#Layer0_0_MEMBER_0_MEMBER_4_FILL"/>
</g>

<g transform="matrix( 1, 0, 0, 1, 1262.8,-122.4) ">
<use xlink:href="#Layer0_0_MEMBER_0_MEMBER_5_FILL"/>
</g>

<g transform="matrix( 1, 0, 0, 1, 1262.8,-122.4) ">
<use xlink:href="#Layer0_0_MEMBER_1_FILL"/>
</g>

<g transform="matrix( 1, 0, 0, 1, 1262.8,-122.4) ">
<use xlink:href="#Layer0_0_MEMBER_2_MEMBER_0_FILL"/>
</g>

<g transform="matrix( 1, 0, 0, 1, 1262.8,-122.4) ">
<use xlink:href="#Layer0_0_MEMBER_2_MEMBER_1_FILL"/>
</g>
</svg>
