<?xml version="1.0" encoding="utf-8"?>
<!-- Generator: Adobe Illustrator 19.0.0, SVG Export Plug-In . SVG Version: 6.00 Build 0)  -->
<svg version="1.1" id="图层_1" xmlns="http://www.w3.org/2000/svg" xmlns:xlink="http://www.w3.org/1999/xlink" x="0px" y="0px"
	 viewBox="-308 547.5 225 96" style="enable-background:new -308 547.5 225 96;" xml:space="preserve">
<style type="text/css">
	.st0{fill:#FFFFFF;}
	.st1{fill:#911616;}
	.st2{fill:#A12C2C;}
	.st3{fill:#B84F4F;}
</style>
<g transform="matrix( 1, 0, 0, 1, 0,0) ">
	<g>
		<g id="Layer0_0_FILL">
			<path class="st0" d="M-230.6,564.5V552h-10v12.5H-230.6 M-238.1,562v-7.5h5v7.5H-238.1 M-160.9,564.5V552h-10v12.5H-160.9
				 M-168.4,562v-7.5h5v7.5H-168.4 M-245.6,554.5v2.5h-7.5v7.5h10V562h-7.5v-2.5h7.5V552h-10v2.5H-245.6 M-198.2,582.3v2.5h2.5v-2.5
				H-198.2 M-195.8,574.8v-2.5h-2.5v2.5H-195.8 M-195.8,579.8v-2.5h-2.5v2.5H-195.8 M-225.6,564.5h2.5V552h-5v2.5h2.5V564.5
				 M-213.1,554.5v2.5h-7.5v7.5h10V562h-7.5v-2.5h7.5V552h-10v2.5H-213.1 M-193.1,557h-7.5v2.5h7.5V557 M-147.7,623.1
				c-0.1-0.5-0.3-0.9-0.7-1.2c-0.4-0.3-0.9-0.4-1.5-0.4c-0.9,0-1.5,0.2-2,0.8c-0.5,0.5-0.7,1.1-0.7,1.8c0,1.2,0.7,1.8,2.2,1.8
				c1.3,0,2.1-0.5,2.5-1.6l-1.5-0.2c-0.2,0.5-0.5,0.7-1,0.7c-0.2,0-0.3,0-0.5-0.1c-0.1-0.1-0.2-0.3-0.2-0.5c0-0.4,0.1-0.8,0.3-1
				c0.2-0.3,0.5-0.5,0.9-0.5c0.4,0,0.7,0.2,0.8,0.5L-147.7,623.1 M-139,623.5c0-0.5-0.2-1-0.5-1.3c-0.3-0.4-0.9-0.6-1.6-0.6
				c-0.6,0-1,0.1-1.4,0.4c-0.4,0.2-0.7,0.5-0.9,0.9c-0.2,0.4-0.4,0.8-0.4,1.2c0,0.5,0.2,1,0.6,1.4c0.3,0.4,0.9,0.5,1.6,0.5
				c0.6,0,1.1-0.1,1.5-0.4c0.4-0.2,0.7-0.5,0.9-0.9C-139.1,624.2-139,623.9-139,623.5 M-140.8,622.8c0.1,0.1,0.2,0.3,0.2,0.6
				c0,0.4-0.1,0.7-0.2,1c-0.2,0.3-0.4,0.4-0.7,0.4c-0.2,0-0.4-0.1-0.5-0.2c-0.1-0.2-0.2-0.4-0.2-0.6c0-0.3,0.1-0.6,0.3-0.9
				c0.2-0.3,0.4-0.5,0.8-0.5C-141,622.7-140.9,622.7-140.8,622.8 M-134.6,621.7c-0.2-0.1-0.4-0.2-0.5-0.2c-0.2,0-0.4,0.1-0.6,0.2
				c-0.2,0.1-0.4,0.4-0.6,0.8v0l0.1-0.8h-1.5l-0.9,4.1h1.6l0.3-1.5c0.1-0.5,0.2-0.8,0.4-1s0.4-0.3,0.8-0.3c0.1,0,0.2,0,0.3,0
				L-134.6,621.7 M-144.8,621.7l0.4-1.5l-1.8,0.9l-0.1,0.7h-0.6l-0.2,1.1h0.6l-0.3,1.4c-0.1,0.4-0.1,0.6-0.1,0.7
				c0,0.2,0.1,0.5,0.2,0.7c0.2,0.2,0.5,0.3,0.9,0.3c0.2,0,0.6,0,1.1-0.1l0.2-1.1c-0.3,0.1-0.4,0.1-0.5,0.1c-0.2,0-0.4-0.1-0.4-0.3
				c0-0.1,0-0.1,0-0.2l0.3-1.5h0.9l0.2-1.1H-144.8 M-155.3,621.6c-0.4,0-0.7,0.1-0.9,0.2c-0.3,0.1-0.5,0.2-0.8,0.4
				c-0.3,0.2-0.5,0.5-0.7,0.8c-0.1,0.3-0.2,0.7-0.2,1c0,0.5,0.2,1,0.5,1.4c0.3,0.4,0.9,0.5,1.8,0.5c0.6,0,1-0.1,1.4-0.2
				c0.4-0.2,0.7-0.5,0.9-0.9l-1.6-0.1c-0.2,0.2-0.4,0.3-0.7,0.3c-0.5,0-0.7-0.3-0.8-0.8h3.1c0.1-0.4,0.1-0.7,0.1-0.9
				c0-0.5-0.2-0.9-0.5-1.2C-154,621.8-154.5,621.6-155.3,621.6 M-155.9,622.7c0.2-0.1,0.3-0.2,0.5-0.2s0.4,0,0.5,0.2
				c0.1,0.1,0.2,0.3,0.2,0.5c0,0.1,0,0.2,0,0.2h-1.6C-156.2,623.1-156.1,622.9-155.9,622.7 M-180.2,625.6c0.4-0.2,0.7-0.5,0.9-0.9
				c0.2-0.4,0.2-0.8,0.2-1.2c0-0.5-0.2-1-0.5-1.3c-0.3-0.4-0.9-0.6-1.6-0.6c-0.6,0-1,0.1-1.4,0.4c-0.4,0.2-0.7,0.5-0.9,0.9
				c-0.2,0.4-0.4,0.8-0.4,1.2c0,0.5,0.2,1,0.6,1.4c0.3,0.4,0.9,0.5,1.6,0.5C-181.1,625.9-180.6,625.8-180.2,625.6 M-181.2,622.7
				c0.1,0,0.3,0,0.4,0.1c0.1,0.1,0.2,0.3,0.2,0.6c0,0.4-0.1,0.7-0.2,1c-0.2,0.3-0.4,0.4-0.7,0.4c-0.2,0-0.4-0.1-0.5-0.2
				c-0.1-0.2-0.2-0.4-0.2-0.6c0-0.3,0.1-0.6,0.3-0.9C-181.8,622.8-181.6,622.7-181.2,622.7 M-176.4,621.7h-1.4l-0.9,4.1h1.6l0.4-1.8
				c0.1-0.4,0.2-0.7,0.4-1c0.2-0.2,0.4-0.3,0.6-0.3c0.2,0,0.3,0.1,0.3,0.3c0,0.1-0.1,0.3-0.2,0.8l-0.4,1.9h1.6l0.5-2.2
				c0.1-0.5,0.1-0.8,0.1-1c0-0.3-0.1-0.5-0.2-0.7c-0.2-0.2-0.5-0.3-0.9-0.3c-0.6,0-1.2,0.2-1.6,0.8L-176.4,621.7 M-167.1,620.1h-2.3
				l-1.2,5.8h3c0.4,0,0.8-0.1,1.3-0.3c0.4-0.2,0.8-0.5,1.2-1.1c0.3-0.6,0.5-1.2,0.5-1.9s-0.2-1.3-0.6-1.7
				C-165.6,620.3-166.2,620.1-167.1,620.1 M-167.4,621.4c0.4,0,0.6,0.1,0.8,0.2c0.1,0.2,0.2,0.4,0.2,0.7c0,0.5-0.1,1-0.4,1.5
				s-0.6,0.8-1.1,0.8h-0.7l0.7-3.2H-167.4 M-184.2,621.7h-1.6l-0.8,4.1h1.6L-184.2,621.7 M-184.1,621.2l0.2-1.1h-1.6l-0.2,1.1
				H-184.1 M-157.9,621.7c-0.2-0.1-0.4-0.2-0.5-0.2c-0.2,0-0.4,0.1-0.6,0.2c-0.2,0.1-0.4,0.4-0.6,0.8v0l0.1-0.8h-1.5l-0.9,4.1h1.6
				l0.3-1.5c0.1-0.5,0.2-0.8,0.4-1s0.4-0.3,0.8-0.3c0.1,0,0.2,0,0.3,0L-157.9,621.7 M-162,621.7h-1.6l-0.8,4.1h1.6L-162,621.7
				 M-161.9,621.2l0.2-1.1h-1.6l-0.2,1.1H-161.9 M-190.6,622.8c0-0.4-0.2-0.7-0.4-0.9c-0.3-0.2-0.8-0.3-1.6-0.3
				c-0.7,0-1.2,0.1-1.6,0.4c-0.3,0.2-0.5,0.5-0.6,0.9l1.5,0.2c0.1-0.2,0.2-0.3,0.3-0.3c0.1-0.1,0.2-0.1,0.5-0.1c0.2,0,0.3,0,0.4,0.1
				c0.1,0.1,0.1,0.1,0.1,0.2c0,0.1,0,0.1,0,0.2c-0.1,0.1-0.4,0.1-0.9,0.1c-0.5,0.1-0.9,0.1-1.2,0.2s-0.6,0.2-0.8,0.4
				c-0.2,0.2-0.3,0.5-0.3,0.8c0,0.3,0.1,0.6,0.4,0.8c0.2,0.2,0.6,0.4,1.1,0.4c0.5,0,1-0.2,1.4-0.5c0,0.1,0,0.3,0.1,0.4h1.6
				c-0.1-0.2-0.1-0.4-0.1-0.5c0-0.2,0.1-0.6,0.2-1.2C-190.6,623.5-190.6,623.1-190.6,622.8 M-193.8,624.6c0-0.1,0.1-0.2,0.2-0.4
				c0.1-0.1,0.6-0.2,1.3-0.3c-0.1,0.4-0.2,0.7-0.4,0.8c-0.2,0.2-0.4,0.2-0.6,0.2c-0.1,0-0.2,0-0.3-0.1
				C-193.8,624.9-193.8,624.8-193.8,624.6 M-187.6,621.7l0.4-1.5l-1.8,0.9l-0.1,0.7h-0.6l-0.2,1.1h0.6l-0.3,1.4
				c-0.1,0.4-0.1,0.6-0.1,0.7c0,0.2,0.1,0.5,0.2,0.7c0.2,0.2,0.5,0.3,0.9,0.3c0.2,0,0.6,0,1.1-0.1l0.2-1.1c-0.3,0.1-0.4,0.1-0.5,0.1
				c-0.2,0-0.4-0.1-0.4-0.3c0-0.1,0-0.1,0-0.2l0.3-1.5h0.9l0.2-1.1H-187.6 M-197,621.6c-0.3,0-0.5,0.1-0.8,0.2
				c-0.2,0.1-0.5,0.3-0.8,0.5c-0.1-0.2-0.2-0.4-0.4-0.5c-0.2-0.1-0.4-0.2-0.7-0.2c-0.6,0-1.1,0.2-1.6,0.7l0.1-0.6h-1.5l-0.9,4.1h1.6
				l0.4-2c0.1-0.4,0.2-0.7,0.4-0.8c0.2-0.2,0.3-0.2,0.5-0.2c0.2,0,0.3,0.1,0.3,0.3c0,0,0,0.1,0,0.2c0,0.1-0.1,0.3-0.2,0.8l-0.4,1.8
				h1.6l0.4-1.8c0.1-0.4,0.2-0.8,0.4-1s0.4-0.3,0.6-0.3c0.2,0,0.3,0.1,0.3,0.3c0,0,0,0.1,0,0.2c0,0.1-0.1,0.3-0.2,0.8l-0.4,1.8h1.6
				l0.6-2.7c0-0.2,0-0.3,0-0.5c0-0.3-0.1-0.6-0.3-0.8C-196.4,621.7-196.6,621.6-197,621.6 M-203.6,621.7h-1.6l-0.9,4.1h1.6
				L-203.6,621.7 M-203.6,621.2l0.2-1.1h-1.6l-0.2,1.1H-203.6 M-244.3,622.8l1.4-0.1c-0.1-0.4-0.2-0.7-0.5-0.9
				c-0.3-0.2-0.7-0.2-1.2-0.2c-0.5,0-0.9,0.1-1.2,0.2c-0.3,0.1-0.6,0.3-0.8,0.5c-0.2,0.2-0.3,0.5-0.2,0.7c0,0.3,0.1,0.5,0.3,0.8
				c0.2,0.2,0.6,0.4,1.2,0.5c0.3,0,0.4,0.1,0.6,0.2c0.1,0,0.2,0.1,0.1,0.2c0,0.1-0.1,0.2-0.2,0.3s-0.3,0.1-0.4,0.1
				c-0.4,0-0.6-0.2-0.7-0.5l-1.6,0.2c0,0.4,0.2,0.8,0.6,1c0.3,0.2,0.8,0.3,1.4,0.3c0.8,0,1.4-0.2,1.8-0.5c0.4-0.3,0.6-0.7,0.6-1.1
				c0-0.3-0.1-0.6-0.3-0.8c-0.2-0.2-0.6-0.3-1.2-0.4c-0.4-0.1-0.6-0.1-0.7-0.2c-0.1-0.1-0.1-0.1-0.1-0.2c0-0.1,0.1-0.2,0.1-0.2
				c0.1-0.1,0.2-0.1,0.4-0.1C-244.6,622.5-244.4,622.6-244.3,622.8 M-229,624.6c0.2-0.4,0.2-0.8,0.2-1.2c0-0.5-0.2-1-0.5-1.3
				c-0.3-0.4-0.9-0.6-1.6-0.6c-0.6,0-1,0.1-1.4,0.4c-0.4,0.2-0.7,0.5-0.9,0.9c-0.2,0.4-0.4,0.8-0.4,1.2c0,0.5,0.2,1,0.6,1.4
				c0.3,0.4,0.9,0.5,1.6,0.5c0.6,0,1.1-0.1,1.5-0.4S-229.2,625-229,624.6 M-231.8,624.6c-0.1-0.2-0.2-0.4-0.2-0.6
				c0-0.3,0.1-0.6,0.3-0.9c0.2-0.3,0.4-0.5,0.8-0.5c0.1,0,0.3,0,0.4,0.1c0.1,0.1,0.2,0.3,0.2,0.6c0,0.4-0.1,0.7-0.2,1
				c-0.2,0.3-0.4,0.4-0.7,0.4C-231.5,624.8-231.6,624.8-231.8,624.6 M-247.9,623.5c0-0.5-0.2-1-0.5-1.3c-0.3-0.4-0.9-0.6-1.6-0.6
				c-0.6,0-1,0.1-1.4,0.4c-0.4,0.2-0.7,0.5-0.9,0.9c-0.2,0.4-0.3,0.8-0.4,1.2c0,0.5,0.2,1,0.6,1.4c0.3,0.4,0.9,0.5,1.6,0.5
				c0.6,0,1.1-0.1,1.4-0.4s0.7-0.5,0.9-0.9C-247.9,624.2-247.8,623.9-247.9,623.5 M-249.6,622.8c0.1,0.1,0.2,0.3,0.2,0.6
				c0,0.4-0.1,0.7-0.2,1c-0.2,0.3-0.4,0.4-0.7,0.4c-0.2,0-0.4-0.1-0.5-0.2c-0.1-0.2-0.2-0.4-0.2-0.6c0-0.3,0.1-0.6,0.3-0.9
				c0.2-0.3,0.4-0.5,0.8-0.5C-249.9,622.7-249.7,622.7-249.6,622.8 M-252.6,621.6c0-0.3-0.1-0.6-0.2-0.9c-0.1-0.2-0.3-0.4-0.6-0.5
				c-0.2-0.1-0.6-0.2-1.1-0.2h-2.6l-1.2,5.8h1.8l0.4-2.1h0.8c0.6,0,1.1-0.1,1.4-0.2c0.3-0.1,0.6-0.4,0.9-0.7
				C-252.8,622.5-252.7,622.1-252.6,621.6 M-254.9,621.2c0.4,0,0.6,0.2,0.6,0.5c0,0.2-0.1,0.4-0.2,0.6c-0.2,0.2-0.4,0.2-0.7,0.2
				h-0.6l0.3-1.3H-254.9 M-233.9,621.7h-1.6l-0.9,4.1h1.6L-233.9,621.7 M-233.8,621.2l0.2-1.1h-1.6l-0.2,1.1H-233.8 M-239.7,620.1
				h-1.6l-0.2,1.1h1.6L-239.7,620.1 M-240.1,621.7h-1.6l-0.9,4.1h1.6L-240.1,621.7 M-238.6,621l-0.1,0.7h-0.6l-0.2,1.1h0.6l-0.3,1.4
				c-0.1,0.4-0.1,0.6-0.1,0.7c0,0.2,0.1,0.5,0.2,0.7c0.2,0.2,0.5,0.3,0.9,0.3c0.2,0,0.6,0,1.1-0.1l0.2-1.1c-0.3,0.1-0.4,0.1-0.5,0.1
				c-0.2,0-0.4-0.1-0.4-0.3c0-0.1,0-0.1,0-0.2l0.3-1.5h0.8l0.2-1.1h-0.8l0.3-1.5L-238.6,621 M-223.4,622.6c0-0.3-0.1-0.5-0.2-0.7
				c-0.2-0.2-0.5-0.3-0.9-0.3c-0.6,0-1.2,0.2-1.6,0.8l0.1-0.6h-1.4l-0.9,4.1h1.6l0.4-1.8c0.1-0.4,0.2-0.7,0.4-1
				c0.2-0.2,0.4-0.3,0.6-0.3c0.2,0,0.3,0.1,0.3,0.3c0,0.1-0.1,0.3-0.1,0.8l-0.4,1.9h1.6l0.4-2.2
				C-223.5,623.1-223.4,622.8-223.4,622.6 M-221.3,625.8l0.3-1.6h-1.7l-0.4,1.6H-221.3 M-209.1,621.7h-1.5l-0.9,4.1h1.6l0.4-1.8
				c0.1-0.4,0.2-0.7,0.4-1c0.2-0.2,0.4-0.3,0.6-0.3c0.2,0,0.3,0.1,0.3,0.3c0,0.1-0.1,0.3-0.2,0.8l-0.4,1.9h1.6l0.4-2.2
				c0.1-0.5,0.1-0.8,0.1-1c0-0.3-0.1-0.5-0.2-0.7c-0.2-0.2-0.5-0.3-0.8-0.3c-0.6,0-1.2,0.2-1.6,0.8L-209.1,621.7 M-212.9,620.1h-1.9
				l-3.2,5.8h2l0.4-0.9h1.9l0.1,0.9h1.8L-212.9,620.1 M-213.9,623.7h-1.2l1-2.1L-213.9,623.7 M-220.4,621.7h-1.7l-0.4,1.6h1.7
				L-220.4,621.7 M-175.8,608.6c0-0.4-0.1-0.8-0.4-1c-0.3-0.3-0.7-0.5-1.2-0.5c-0.9,0-1.7,0.4-2.4,1.1l-0.1,0l0.2-0.9h-2.2l-1.4,6.2
				h2.4l0.6-2.7c0.1-0.6,0.3-1.1,0.6-1.4c0.3-0.3,0.6-0.5,0.9-0.5c0.3,0,0.5,0.2,0.5,0.5c0,0.1-0.1,0.5-0.2,1.2l-0.6,2.9h2.4
				l0.7-3.4C-175.9,609.3-175.8,608.8-175.8,608.6 M-156.6,604.8l-0.7,3.2c-0.4-0.6-1.1-1-1.9-1s-1.6,0.4-2.1,1.2
				c-0.6,0.8-0.9,1.7-0.9,2.8c0,0.8,0.2,1.4,0.6,1.9c0.4,0.5,0.9,0.7,1.6,0.7c0.4,0,0.7,0,1-0.1c0.3-0.1,0.6-0.4,0.9-0.7v0l-0.1,0.6
				h2.2l1.9-8.6H-156.6 M-159.6,609.3c0.3-0.4,0.6-0.6,0.9-0.6c0.3,0,0.5,0.1,0.6,0.2c0.2,0.2,0.3,0.5,0.3,0.8c0,0.5-0.1,1-0.4,1.5
				c-0.3,0.5-0.6,0.8-1,0.8c-0.2,0-0.4-0.1-0.6-0.3c-0.2-0.2-0.2-0.4-0.2-0.8C-159.9,610.3-159.8,609.8-159.6,609.3 M-166.2,606.9
				l0.4-2.1h-8.1l-0.5,2.1h2.7l-1.4,6.5h2.7l1.4-6.5H-166.2 M-162.4,604.8h-2.4l-0.4,1.7h2.4L-162.4,604.8 M-162.9,607.2h-2.4
				l-1.4,6.2h2.4L-162.9,607.2 M-152.9,607.9c-0.4,0.3-0.7,0.7-0.9,1.2c-0.3,0.5-0.4,1-0.4,1.6c0,0.8,0.3,1.5,0.8,2
				c0.5,0.6,1.4,0.8,2.6,0.8c0.9,0,1.6-0.1,2.1-0.4c0.6-0.3,1-0.7,1.4-1.4l-2.3-0.2c-0.3,0.4-0.7,0.5-1.1,0.5
				c-0.7,0-1.1-0.4-1.1-1.2h4.8c0.1-0.6,0.1-1,0.1-1.2c0-0.7-0.2-1.4-0.8-1.9s-1.3-0.8-2.5-0.8c-0.5,0-1,0.1-1.4,0.2
				C-152.1,607.4-152.5,607.6-152.9,607.9 M-150.4,608.5c0.3,0,0.5,0.1,0.7,0.2c0.2,0.1,0.3,0.4,0.3,0.7c0,0.1,0,0.2,0,0.3h-2.3
				c0.1-0.4,0.3-0.8,0.6-1C-150.9,608.6-150.7,608.5-150.4,608.5 M-217,604.8h-2.4l-0.4,1.7h2.4L-217,604.8 M-217.5,607.2h-2.4
				l-1.4,6.2h2.4L-217.5,607.2 M-213,604.8h-2.4l-1.9,8.6h2.4L-213,604.8 M-199.6,608.3c0-1-0.3-1.9-0.9-2.6c-0.6-0.7-1.6-1-2.8-1
				c-0.5,0-1,0-1.5,0.1c-0.5,0.1-1,0.3-1.5,0.7s-0.9,0.8-1.2,1.2c-0.3,0.5-0.6,1-0.8,1.6c-0.2,0.5-0.2,1.1-0.2,1.7
				c0,1.1,0.3,2,1,2.6c0.7,0.6,1.7,0.9,2.9,0.9c0.5,0,1-0.1,1.5-0.2c0.5-0.1,1-0.4,1.5-0.8c0.5-0.4,0.9-0.8,1.2-1.4
				c0.3-0.6,0.6-1.1,0.6-1.6C-199.7,609.2-199.6,608.7-199.6,608.3 M-205.8,608.6c0.2-0.6,0.5-1,0.8-1.4c0.4-0.4,0.8-0.5,1.2-0.5
				c0.4,0,0.8,0.1,1.1,0.4c0.3,0.3,0.4,0.7,0.4,1.2c0,0.2-0.1,0.7-0.2,1.2c-0.2,0.6-0.4,1.1-0.8,1.5c-0.3,0.4-0.8,0.6-1.3,0.6
				c-0.5,0-0.8-0.2-1.1-0.5c-0.3-0.3-0.4-0.7-0.4-1.1C-206,609.7-205.9,609.2-205.8,608.6 M-188.4,607.2c-0.4,0.1-0.8,0.4-1.2,0.7
				c-0.4,0.3-0.7,0.7-0.9,1.2c-0.3,0.5-0.4,1-0.4,1.6c0,0.8,0.3,1.5,0.8,2c0.5,0.6,1.4,0.8,2.6,0.8c0.9,0,1.6-0.1,2.1-0.4
				c0.6-0.3,1-0.7,1.4-1.4l-2.3-0.2c-0.3,0.4-0.7,0.5-1.1,0.5c-0.7,0-1.1-0.4-1.2-1.2h4.8c0.1-0.6,0.2-1,0.2-1.2
				c0-0.7-0.2-1.4-0.8-1.9c-0.5-0.5-1.3-0.8-2.5-0.8C-187.5,607.1-188,607.1-188.4,607.2 M-187.8,608.8c0.2-0.2,0.5-0.3,0.8-0.3
				c0.3,0,0.5,0.1,0.7,0.2c0.2,0.1,0.3,0.4,0.3,0.7c0,0.1,0,0.2-0.1,0.3h-2.3C-188.2,609.4-188.1,609-187.8,608.8 M-195.9,607.9
				L-195.9,607.9l0.1-0.7h-2.2l-1.9,8.6h2.4l0.7-3.2c0.4,0.7,1.1,1,1.9,1c0.9,0,1.6-0.4,2.2-1.1c0.5-0.8,0.8-1.7,0.8-2.8
				c0-0.8-0.2-1.4-0.5-1.9s-0.9-0.7-1.6-0.7c-0.4,0-0.7,0.1-0.9,0.2S-195.5,607.6-195.9,607.9 M-196,609.4c0.2-0.5,0.6-0.8,1.1-0.8
				c0.2,0,0.4,0.1,0.6,0.2c0.2,0.2,0.2,0.4,0.2,0.8c0,0.6-0.1,1.1-0.4,1.6c-0.2,0.4-0.5,0.7-0.9,0.7c-0.2,0-0.4-0.1-0.6-0.2
				c-0.2-0.2-0.3-0.5-0.3-0.8C-196.4,610.4-196.2,609.9-196,609.4 M-222.4,607.8c-0.5-0.5-1.3-0.8-2.5-0.8c-0.5,0-1,0.1-1.4,0.2
				c-0.4,0.1-0.8,0.4-1.2,0.7c-0.4,0.3-0.7,0.7-0.9,1.2c-0.3,0.5-0.4,1-0.4,1.6c0,0.8,0.3,1.5,0.8,2c0.5,0.6,1.4,0.8,2.6,0.8
				c0.9,0,1.6-0.1,2.1-0.4c0.6-0.3,1-0.7,1.4-1.4l-2.3-0.2c-0.3,0.4-0.7,0.5-1.1,0.5c-0.7,0-1.1-0.4-1.2-1.2h4.8
				c0.1-0.6,0.2-1,0.2-1.2C-221.7,609-221.9,608.3-222.4,607.8 M-225.8,608.8c0.2-0.2,0.5-0.3,0.8-0.3c0.3,0,0.5,0.1,0.7,0.2
				c0.2,0.1,0.3,0.4,0.3,0.7c0,0.1,0,0.2-0.1,0.3h-2.3C-226.2,609.4-226.1,609-225.8,608.8 M-233.7,608L-233.7,608l0.6-3.2h-2.4
				l-1.9,8.6h2.4l0.6-2.7c0.1-0.6,0.3-1.1,0.6-1.4c0.3-0.3,0.6-0.5,0.9-0.5s0.5,0.2,0.5,0.5c0,0.1-0.1,0.5-0.2,1.2l-0.6,2.9h2.4
				l0.7-3.4c0.2-0.7,0.2-1.2,0.2-1.5c0-0.4-0.2-0.8-0.4-1c-0.3-0.3-0.7-0.5-1.2-0.5C-232.4,607.1-233.1,607.4-233.7,608
				 M-243.6,605.4c-0.7,0.5-1.3,1.1-1.7,2c-0.4,0.8-0.6,1.7-0.6,2.5c0,1.1,0.3,2,1,2.6c0.7,0.7,1.6,1,2.8,1c1.2,0,2.1-0.3,2.9-0.9
				c0.7-0.6,1.2-1.4,1.5-2.2l-2.5-0.4c-0.2,0.5-0.5,0.9-0.8,1.2c-0.3,0.3-0.6,0.4-1,0.4c-0.5,0-0.8-0.2-1.1-0.5
				c-0.2-0.3-0.4-0.6-0.4-1c0-0.6,0.1-1.2,0.4-1.8c0.2-0.6,0.5-1,0.9-1.3c0.4-0.3,0.8-0.4,1.2-0.4c0.3,0,0.6,0.1,0.8,0.3
				c0.3,0.2,0.4,0.5,0.4,0.9v0l2.4-0.2c-0.1-0.9-0.5-1.6-1.1-2.2c-0.6-0.6-1.5-0.8-2.6-0.8S-242.9,604.9-243.6,605.4 M-178.5,554.5
				h-2.5V552h-2.5v12.5h2.5V557h2.5V554.5 M-173.5,552h-2.5v5h-2.5v2.5h2.5v5h2.5V552 M-156,562v2.5h2.5V562H-156 M-156,552h-2.5v10
				h2.5V552 M-151,562v-5h-2.5v5H-151 M-151,562v2.5h2.5V562H-151 M-146,552h-2.5v10h2.5V552z"/>
			<path class="st1" d="M-257,642.8l0.1-8.6H-276L-257,642.8 M-136.9,634.2l0.1,8.7l19.1-8.7h-0.1H-136.9z"/>
			<path class="st2" d="M-290,626.8l-16.1,16.1h49.1v-0.1l-19-8.6h-0.1v-23.5h-30L-290,626.8 M-117.8,634.2l-19.1,8.7h49.1
				l-16.1-16.1l16.1-16h-30.1v23.3l0,0.1v0H-117.8z"/>
			<path class="st3" d="M-136.9,634.2h19.1v0V597h-158.2v13.7v23.5h0.1h19.1H-136.9 M-245.4,607.4c0.4-0.9,1-1.5,1.7-2
				c0.7-0.5,1.6-0.8,2.7-0.8s1.9,0.3,2.6,0.8c0.6,0.5,1,1.2,1.1,2.2l-2.4,0.2v0c0-0.4-0.1-0.7-0.4-0.9c-0.2-0.2-0.5-0.3-0.8-0.3
				c-0.4,0-0.8,0.1-1.2,0.4c-0.4,0.3-0.7,0.7-0.9,1.3c-0.2,0.6-0.4,1.2-0.4,1.8c0,0.4,0.1,0.8,0.4,1c0.2,0.3,0.6,0.5,1.1,0.5
				c0.4,0,0.7-0.1,1-0.4c0.3-0.3,0.5-0.7,0.8-1.2l2.5,0.4c-0.3,0.9-0.8,1.6-1.5,2.2c-0.8,0.6-1.7,0.9-2.9,0.9c-1.2,0-2.2-0.3-2.8-1
				c-0.7-0.7-1-1.5-1-2.6C-245.9,609.1-245.8,608.3-245.4,607.4 M-233.7,607.9L-233.7,607.9c0.6-0.5,1.3-0.9,2.2-0.9
				c0.6,0,1,0.2,1.2,0.5c0.3,0.3,0.4,0.6,0.4,1c0,0.2-0.1,0.7-0.2,1.5l-0.7,3.4h-2.4l0.6-2.9c0.2-0.7,0.2-1.1,0.2-1.2
				c0-0.3-0.2-0.5-0.5-0.5s-0.6,0.2-0.9,0.5c-0.3,0.3-0.5,0.8-0.6,1.4l-0.6,2.7h-2.4l1.9-8.6h2.4L-233.7,607.9 M-224.9,607.1
				c1.2,0,2,0.2,2.5,0.8c0.5,0.5,0.8,1.1,0.8,1.9c0,0.2-0.1,0.6-0.2,1.2h-4.8c0.1,0.8,0.5,1.2,1.2,1.2c0.4,0,0.8-0.2,1.1-0.5
				l2.3,0.2c-0.4,0.6-0.8,1.1-1.4,1.4c-0.5,0.3-1.2,0.4-2.1,0.4c-1.2,0-2.1-0.3-2.6-0.8c-0.5-0.5-0.8-1.2-0.8-2
				c0-0.6,0.1-1.1,0.4-1.6c0.2-0.5,0.6-0.9,0.9-1.2c0.4-0.3,0.9-0.6,1.2-0.7C-226,607.1-225.5,607.1-224.9,607.1 M-195.9,607.8
				L-195.9,607.8c0.4-0.3,0.7-0.5,0.9-0.6s0.6-0.2,0.9-0.2c0.7,0,1.2,0.2,1.6,0.7s0.5,1.1,0.5,1.9c0,1.1-0.3,2-0.8,2.8
				c-0.6,0.8-1.3,1.1-2.2,1.1c-0.9,0-1.5-0.3-1.9-1l-0.7,3.2h-2.4l1.9-8.6h2.2L-195.9,607.8 M-189.6,607.9c0.4-0.3,0.9-0.6,1.2-0.7
				c0.4-0.1,0.9-0.2,1.4-0.2c1.2,0,2,0.2,2.5,0.8c0.5,0.5,0.8,1.1,0.8,1.9c0,0.2-0.1,0.6-0.2,1.2h-4.8c0.1,0.8,0.5,1.2,1.2,1.2
				c0.4,0,0.8-0.2,1.1-0.5l2.3,0.2c-0.4,0.6-0.8,1.1-1.4,1.4c-0.5,0.3-1.2,0.4-2.1,0.4c-1.2,0-2.1-0.3-2.6-0.8
				c-0.5-0.5-0.8-1.2-0.8-2c0-0.6,0.1-1.1,0.4-1.6C-190.3,608.7-190,608.3-189.6,607.9 M-200.6,605.7c0.6,0.7,0.9,1.6,0.9,2.6
				c0,0.4-0.1,0.9-0.2,1.4c-0.1,0.5-0.3,1-0.6,1.6c-0.3,0.5-0.7,1-1.2,1.4c-0.5,0.4-1,0.6-1.5,0.8c-0.5,0.1-1,0.2-1.5,0.2
				c-1.2,0-2.2-0.3-2.9-0.9c-0.7-0.6-1-1.5-1-2.6c0-0.6,0.1-1.2,0.2-1.7c0.2-0.6,0.4-1.1,0.8-1.6c0.3-0.5,0.8-0.9,1.2-1.2
				s1-0.5,1.5-0.7c0.5-0.1,1-0.1,1.5-0.1C-202.1,604.7-201.1,605-200.6,605.7 M-215.4,604.8h2.4l-1.9,8.6h-2.4L-215.4,604.8
				 M-219.9,607.2h2.4l-1.4,6.2h-2.4L-219.9,607.2 M-219.4,604.8h2.4l-0.4,1.7h-2.4L-219.4,604.8 M-153.9,609.1
				c0.2-0.5,0.6-0.9,0.9-1.2c0.4-0.3,0.9-0.6,1.2-0.7c0.4-0.1,0.9-0.2,1.4-0.2c1.2,0,2,0.2,2.5,0.8s0.8,1.1,0.8,1.9
				c0,0.2,0,0.6-0.1,1.2h-4.8c0.1,0.8,0.4,1.2,1.1,1.2c0.4,0,0.8-0.2,1.1-0.5l2.3,0.2c-0.4,0.6-0.8,1.1-1.4,1.4
				c-0.5,0.3-1.2,0.4-2.1,0.4c-1.2,0-2.1-0.3-2.6-0.8c-0.5-0.5-0.8-1.2-0.8-2C-154.3,610.2-154.2,609.6-153.9,609.1 M-165.2,607.2
				h2.4l-1.3,6.2h-2.4L-165.2,607.2 M-164.8,604.8h2.4l-0.3,1.7h-2.4L-164.8,604.8 M-165.8,604.8l-0.4,2.1h-2.8l-1.4,6.5h-2.7
				l1.4-6.5h-2.7l0.5-2.1H-165.8 M-157.4,608l0.7-3.2h2.4l-1.9,8.6h-2.2l0.1-0.6v0c-0.4,0.3-0.7,0.5-0.9,0.7c-0.3,0.1-0.6,0.1-1,0.1
				c-0.7,0-1.2-0.2-1.6-0.7c-0.4-0.5-0.6-1.1-0.6-1.9c0-1,0.3-2,0.9-2.8c0.6-0.8,1.3-1.2,2.1-1.2S-157.8,607.4-157.4,608
				 M-176.2,607.5c0.3,0.3,0.4,0.6,0.4,1c0,0.2-0.1,0.7-0.2,1.5l-0.7,3.4h-2.4l0.6-2.9c0.2-0.7,0.2-1.1,0.2-1.2
				c0-0.3-0.2-0.5-0.5-0.5c-0.3,0-0.6,0.2-0.9,0.5c-0.3,0.3-0.5,0.8-0.6,1.4l-0.6,2.7h-2.4l1.4-6.2h2.2l-0.2,0.9l0.1,0
				c0.7-0.7,1.5-1.1,2.4-1.1C-176.9,607.1-176.5,607.2-176.2,607.5 M-222.1,621.7h1.7l-0.4,1.6h-1.7L-222.1,621.7 M-214.9,620.1h1.9
				l0.9,5.8h-1.8l-0.1-0.9h-1.9l-0.4,0.9h-2L-214.9,620.1 M-210.6,621.7h1.5l-0.1,0.6c0.4-0.5,1-0.8,1.6-0.8c0.4,0,0.6,0.1,0.8,0.3
				c0.2,0.2,0.2,0.4,0.2,0.7c0,0.2-0.1,0.5-0.1,1l-0.4,2.2h-1.6l0.4-1.9c0.1-0.5,0.2-0.7,0.2-0.8c0-0.2-0.1-0.3-0.3-0.3
				c-0.2,0-0.4,0.1-0.6,0.3c-0.2,0.2-0.3,0.6-0.4,1l-0.4,1.8h-1.6L-210.6,621.7 M-221,624.2l-0.3,1.6h-1.8l0.4-1.6H-221
				 M-223.6,621.9c0.2,0.2,0.2,0.4,0.2,0.7c0,0.2-0.1,0.5-0.2,1l-0.4,2.2h-1.6l0.4-1.9c0.1-0.5,0.1-0.7,0.1-0.8
				c0-0.2-0.1-0.3-0.3-0.3c-0.2,0-0.4,0.1-0.6,0.3c-0.2,0.2-0.3,0.6-0.4,1l-0.4,1.8h-1.6l0.9-4.1h1.4l-0.1,0.6
				c0.4-0.5,1-0.8,1.6-0.8C-224.1,621.6-223.9,621.7-223.6,621.9 M-238.8,621.7l0.1-0.7l1.8-0.9l-0.3,1.5h0.8l-0.2,1.1h-0.8
				l-0.3,1.5c0,0.1,0,0.1,0,0.2c0,0.2,0.1,0.3,0.4,0.3c0.1,0,0.2,0,0.5-0.1l-0.2,1.1c-0.5,0.1-0.8,0.1-1.1,0.1
				c-0.4,0-0.8-0.1-0.9-0.3c-0.2-0.2-0.2-0.5-0.2-0.7c0-0.1,0-0.3,0.1-0.7l0.3-1.4h-0.6l0.2-1.1H-238.8 M-241.6,621.7h1.6l-0.8,4.1
				h-1.6L-241.6,621.7 M-241.3,620.1h1.6l-0.2,1.1h-1.6L-241.3,620.1 M-233.5,620.1l-0.2,1.1h-1.6l0.2-1.1H-233.5 M-235.4,621.7h1.6
				l-0.8,4.1h-1.6L-235.4,621.7 M-252.8,620.8c0.1,0.2,0.1,0.5,0.2,0.9c0,0.4-0.1,0.8-0.3,1.1c-0.3,0.3-0.6,0.6-0.9,0.7
				c-0.4,0.2-0.8,0.2-1.4,0.2h-0.8l-0.4,2.1h-1.8l1.2-5.8h2.6c0.5,0,0.9,0.1,1.1,0.2C-253.1,620.4-252.9,620.6-252.8,620.8
				 M-248.4,622.1c0.3,0.4,0.5,0.8,0.5,1.3c0,0.4-0.1,0.8-0.2,1.2c-0.2,0.4-0.5,0.7-0.9,0.9s-0.9,0.4-1.4,0.4
				c-0.7,0-1.3-0.2-1.6-0.5c-0.4-0.4-0.5-0.8-0.6-1.4c0-0.4,0.1-0.8,0.4-1.2c0.2-0.4,0.5-0.7,0.9-0.9c0.4-0.2,0.8-0.4,1.4-0.4
				C-249.2,621.6-248.7,621.8-248.4,622.1 M-228.8,623.5c0,0.4-0.1,0.8-0.2,1.2c-0.2,0.4-0.5,0.7-0.9,0.9s-0.9,0.4-1.5,0.4
				c-0.7,0-1.3-0.2-1.6-0.5c-0.4-0.4-0.6-0.8-0.6-1.4c0-0.4,0.1-0.8,0.4-1.2c0.2-0.4,0.5-0.7,0.9-0.9c0.4-0.2,0.8-0.4,1.4-0.4
				c0.7,0,1.3,0.2,1.6,0.6C-228.9,622.5-228.8,623-228.8,623.5 M-242.9,622.7l-1.4,0.1c-0.1-0.2-0.3-0.3-0.6-0.3
				c-0.2,0-0.3,0-0.4,0.1c-0.1,0.1-0.1,0.2-0.1,0.2c0,0.1,0,0.2,0.1,0.2c0.1,0,0.3,0.1,0.7,0.2c0.6,0.1,1,0.2,1.2,0.4
				c0.2,0.2,0.3,0.4,0.3,0.8c0,0.4-0.2,0.8-0.6,1.1c-0.4,0.3-1,0.5-1.8,0.5c-0.7,0-1.1-0.1-1.4-0.3c-0.3-0.2-0.5-0.5-0.6-1l1.6-0.2
				c0.1,0.3,0.3,0.5,0.7,0.5c0.2,0,0.3,0,0.4-0.1s0.2-0.2,0.2-0.3c0-0.1,0-0.2-0.1-0.2c-0.1-0.1-0.3-0.1-0.6-0.2
				c-0.6-0.1-1.1-0.2-1.2-0.5c-0.2-0.2-0.4-0.5-0.3-0.8c0-0.2,0.1-0.5,0.2-0.7c0.2-0.2,0.4-0.4,0.8-0.5c0.3-0.1,0.7-0.2,1.2-0.2
				c0.5,0,0.9,0.1,1.2,0.2C-243.1,622-242.9,622.3-242.9,622.7 M-203.3,620.1l-0.2,1.1h-1.6l0.2-1.1H-203.3 M-205.2,621.7h1.6
				l-0.9,4.1h-1.6L-205.2,621.7 M-197.8,621.7c0.3-0.1,0.5-0.2,0.8-0.2c0.4,0,0.6,0.1,0.9,0.3c0.2,0.2,0.3,0.4,0.3,0.8
				c0,0.2,0,0.3,0,0.5l-0.6,2.7h-1.6l0.4-1.8c0.1-0.5,0.2-0.7,0.2-0.8c0-0.1,0-0.2,0-0.2c0-0.2-0.1-0.3-0.3-0.3
				c-0.2,0-0.4,0.1-0.6,0.3s-0.3,0.5-0.4,1l-0.4,1.8h-1.6l0.4-1.8c0.1-0.5,0.2-0.7,0.2-0.8c0-0.1,0-0.2,0-0.2c0-0.2-0.1-0.3-0.3-0.3
				c-0.2,0-0.3,0.1-0.5,0.2c-0.2,0.2-0.3,0.5-0.4,0.8l-0.4,2h-1.6l0.9-4.1h1.5l-0.1,0.6c0.5-0.5,1-0.7,1.6-0.7
				c0.3,0,0.5,0.1,0.7,0.2c0.2,0.1,0.3,0.3,0.4,0.5C-198.3,622-198,621.8-197.8,621.7 M-187.2,620.1l-0.4,1.5h0.9l-0.2,1.1h-0.9
				l-0.3,1.5c0,0.1,0,0.1,0,0.2c0,0.2,0.1,0.3,0.4,0.3c0.1,0,0.2,0,0.5-0.1l-0.2,1.1c-0.5,0.1-0.8,0.1-1.1,0.1
				c-0.4,0-0.7-0.1-0.9-0.3c-0.2-0.2-0.2-0.5-0.2-0.7c0-0.1,0-0.3,0.1-0.7l0.3-1.4h-0.6l0.2-1.1h0.6l0.1-0.7L-187.2,620.1
				 M-191,621.9c0.3,0.2,0.4,0.5,0.4,0.9c0,0.3-0.1,0.7-0.2,1.3c-0.1,0.6-0.2,1-0.2,1.2c0,0.2,0,0.4,0.1,0.5h-1.6
				c0-0.2-0.1-0.3-0.1-0.4c-0.4,0.4-0.9,0.5-1.4,0.5c-0.5,0-0.9-0.1-1.1-0.4c-0.2-0.3-0.4-0.5-0.4-0.8c0-0.4,0.1-0.7,0.3-0.8
				c0.2-0.2,0.4-0.3,0.8-0.4s0.7-0.1,1.2-0.2c0.5,0,0.8-0.1,0.9-0.1c0-0.1,0-0.2,0-0.2c0-0.1,0-0.2-0.1-0.2
				c-0.1-0.1-0.2-0.1-0.4-0.1c-0.2,0-0.4,0-0.5,0.1c-0.1,0-0.2,0.1-0.3,0.3l-1.5-0.2c0.1-0.4,0.3-0.7,0.6-0.9
				c0.4-0.2,0.9-0.4,1.6-0.4C-191.8,621.6-191.3,621.7-191,621.9 M-161.6,620.1l-0.2,1.1h-1.6l0.2-1.1H-161.6 M-163.6,621.7h1.6
				l-0.9,4.1h-1.6L-163.6,621.7 M-158.4,621.6c0.2,0,0.3,0.1,0.5,0.2l-0.6,1.2c-0.1,0-0.2,0-0.3,0c-0.3,0-0.6,0.1-0.8,0.3
				s-0.3,0.6-0.4,1l-0.3,1.5h-1.6l0.9-4.1h1.5l-0.1,0.8v0c0.2-0.4,0.4-0.6,0.6-0.8C-158.8,621.7-158.6,621.6-158.4,621.6
				 M-183.9,620.1l-0.2,1.1h-1.5l0.2-1.1H-183.9 M-185.8,621.7h1.6l-0.9,4.1h-1.6L-185.8,621.7 M-169.4,620.1h2.3
				c0.8,0,1.4,0.2,1.8,0.7c0.4,0.4,0.6,1,0.6,1.7s-0.2,1.3-0.5,1.9c-0.3,0.6-0.7,1-1.2,1.1c-0.5,0.2-0.9,0.3-1.3,0.3h-3
				L-169.4,620.1 M-177.8,621.7h1.4l-0.1,0.6c0.4-0.5,1-0.8,1.6-0.8c0.4,0,0.7,0.1,0.9,0.3c0.2,0.2,0.2,0.4,0.2,0.7
				c0,0.2-0.1,0.5-0.1,1l-0.5,2.2h-1.6l0.4-1.9c0.1-0.5,0.2-0.7,0.2-0.8c0-0.2-0.1-0.3-0.3-0.3c-0.2,0-0.4,0.1-0.6,0.3
				c-0.2,0.2-0.3,0.6-0.4,1l-0.4,1.8h-1.6L-177.8,621.7 M-179.4,624.6c-0.2,0.4-0.5,0.7-0.9,0.9c-0.4,0.2-0.9,0.4-1.4,0.4
				c-0.7,0-1.3-0.2-1.6-0.5c-0.4-0.4-0.6-0.8-0.6-1.4c0-0.4,0.1-0.8,0.4-1.2c0.2-0.4,0.5-0.7,0.9-0.9c0.4-0.2,0.8-0.4,1.4-0.4
				c0.7,0,1.3,0.2,1.6,0.6c0.3,0.4,0.5,0.8,0.5,1.3C-179.1,623.9-179.2,624.2-179.4,624.6 M-156.2,621.7c0.3-0.1,0.6-0.2,0.9-0.2
				c0.8,0,1.3,0.2,1.7,0.5c0.3,0.3,0.5,0.8,0.5,1.2c0,0.2,0,0.5-0.1,0.9h-3.1c0,0.5,0.3,0.8,0.8,0.8c0.3,0,0.5-0.1,0.7-0.3l1.6,0.1
				c-0.2,0.4-0.5,0.7-0.9,0.9c-0.4,0.2-0.8,0.2-1.4,0.2c-0.8,0-1.4-0.2-1.8-0.5c-0.3-0.4-0.5-0.8-0.5-1.4c0-0.4,0.1-0.7,0.2-1
				c0.2-0.3,0.4-0.6,0.7-0.8C-156.8,621.9-156.5,621.8-156.2,621.7 M-144.4,620.1l-0.4,1.5h0.9l-0.2,1.1h-0.9l-0.3,1.5
				c0,0.1,0,0.1,0,0.2c0,0.2,0.1,0.3,0.4,0.3c0.1,0,0.2,0,0.5-0.1l-0.2,1.1c-0.5,0.1-0.8,0.1-1.1,0.1c-0.4,0-0.8-0.1-0.9-0.3
				c-0.2-0.2-0.2-0.5-0.2-0.7c0-0.1,0-0.3,0.1-0.7l0.3-1.4h-0.6l0.2-1.1h0.6l0.1-0.7L-144.4,620.1 M-135.1,621.6
				c0.2,0,0.3,0.1,0.5,0.2l-0.6,1.2c-0.1,0-0.2,0-0.3,0c-0.3,0-0.6,0.1-0.8,0.3s-0.3,0.6-0.4,1l-0.3,1.5h-1.6l0.9-4.1h1.5l-0.1,0.8
				v0c0.2-0.4,0.4-0.6,0.6-0.8C-135.6,621.7-135.3,621.6-135.1,621.6 M-139.5,622.1c0.3,0.4,0.5,0.8,0.5,1.3c0,0.4-0.1,0.8-0.2,1.2
				c-0.2,0.4-0.5,0.7-0.9,0.9c-0.4,0.2-0.9,0.4-1.5,0.4c-0.7,0-1.3-0.2-1.6-0.5c-0.4-0.4-0.6-0.8-0.6-1.4c0-0.4,0.1-0.8,0.4-1.2
				c0.2-0.4,0.5-0.7,0.9-0.9c0.4-0.2,0.8-0.4,1.4-0.4C-140.4,621.6-139.8,621.8-139.5,622.1 M-148.4,622c0.4,0.3,0.6,0.7,0.7,1.2
				l-1.4,0.1c-0.1-0.4-0.3-0.5-0.8-0.5c-0.4,0-0.7,0.1-0.9,0.5c-0.2,0.3-0.3,0.6-0.3,1c0,0.2,0.1,0.4,0.2,0.5
				c0.2,0.1,0.3,0.1,0.5,0.1c0.4,0,0.8-0.2,1-0.7l1.5,0.2c-0.4,1.1-1.2,1.6-2.5,1.6c-1.5,0-2.2-0.6-2.2-1.8c0-0.7,0.2-1.3,0.7-1.8
				c0.5-0.5,1.2-0.8,2-0.8C-149.2,621.6-148.7,621.7-148.4,622 M-140.6,623.4c0-0.3-0.1-0.5-0.2-0.6c-0.1-0.1-0.3-0.1-0.4-0.1
				c-0.3,0-0.6,0.1-0.8,0.5c-0.2,0.3-0.3,0.6-0.3,0.9c0,0.2,0.1,0.4,0.2,0.6c0.1,0.1,0.3,0.2,0.5,0.2c0.3,0,0.5-0.1,0.7-0.4
				C-140.6,624.1-140.6,623.8-140.6,623.4 M-155.4,622.5c-0.2,0-0.4,0.1-0.5,0.2c-0.2,0.2-0.3,0.4-0.4,0.7h1.6c0,0,0-0.1,0-0.2
				c0-0.2-0.1-0.4-0.2-0.5C-155,622.6-155.2,622.5-155.4,622.5 M-180.9,622.8c-0.1-0.1-0.3-0.1-0.4-0.1c-0.3,0-0.6,0.1-0.8,0.5
				c-0.2,0.3-0.3,0.6-0.3,0.9c0,0.2,0.1,0.4,0.2,0.6c0.1,0.1,0.3,0.2,0.5,0.2c0.3,0,0.5-0.1,0.7-0.4c0.2-0.3,0.2-0.6,0.2-1
				C-180.6,623.1-180.7,622.9-180.9,622.8 M-166.6,621.6c-0.1-0.2-0.4-0.2-0.8-0.2h-0.5l-0.7,3.2h0.7c0.5,0,0.9-0.2,1.1-0.8
				s0.4-1,0.4-1.5C-166.4,622-166.5,621.8-166.6,621.6 M-193.6,624.3c-0.1,0.1-0.2,0.2-0.2,0.4c0,0.1,0.1,0.2,0.2,0.3
				c0.1,0.1,0.2,0.1,0.3,0.1c0.2,0,0.4-0.1,0.6-0.2c0.2-0.2,0.3-0.4,0.4-0.8C-193,624.1-193.5,624.2-193.6,624.3 M-231.9,624
				c0,0.2,0.1,0.4,0.2,0.6c0.1,0.1,0.3,0.2,0.5,0.2c0.3,0,0.5-0.1,0.7-0.4c0.2-0.3,0.2-0.6,0.2-1c0-0.3-0.1-0.5-0.2-0.6
				c-0.1-0.1-0.3-0.1-0.4-0.1c-0.3,0-0.6,0.1-0.8,0.5C-231.9,623.4-231.9,623.7-231.9,624 M-249.4,623.4c0-0.3-0.1-0.5-0.2-0.6
				c-0.1-0.1-0.3-0.1-0.4-0.1c-0.3,0-0.6,0.1-0.8,0.5c-0.2,0.3-0.3,0.6-0.3,0.9c0,0.2,0.1,0.4,0.2,0.6c0.1,0.1,0.3,0.2,0.5,0.2
				c0.3,0,0.5-0.1,0.7-0.4C-249.5,624.1-249.4,623.8-249.4,623.4 M-254.3,621.7c0-0.3-0.2-0.5-0.6-0.5h-0.7l-0.3,1.3h0.6
				c0.3,0,0.5-0.1,0.7-0.2C-254.4,622.2-254.3,622-254.3,621.7 M-215.1,623.7h1.2l-0.2-2.1L-215.1,623.7 M-158.7,608.7
				c-0.3,0-0.6,0.2-0.9,0.6c-0.2,0.4-0.3,1-0.3,1.6c0,0.4,0.1,0.6,0.2,0.8c0.1,0.2,0.3,0.3,0.6,0.3c0.4,0,0.8-0.2,1-0.8
				c0.2-0.5,0.4-1,0.4-1.5c0-0.4-0.1-0.6-0.3-0.8C-158.2,608.8-158.4,608.7-158.7,608.7 M-149.6,608.7c-0.2-0.2-0.4-0.2-0.7-0.2
				c-0.3,0-0.6,0.1-0.8,0.3c-0.3,0.2-0.4,0.6-0.6,1h2.3c0-0.1,0-0.2,0-0.3C-149.4,609.1-149.4,608.9-149.6,608.7 M-204.9,607.2
				c-0.3,0.4-0.6,0.8-0.8,1.4c-0.2,0.6-0.2,1.1-0.2,1.5c0,0.4,0.1,0.8,0.4,1.1c0.2,0.3,0.6,0.5,1.1,0.5c0.5,0,1-0.2,1.3-0.6
				c0.4-0.4,0.6-0.8,0.8-1.5c0.2-0.6,0.3-1,0.2-1.2c0-0.6-0.1-1-0.4-1.2c-0.3-0.3-0.7-0.4-1.1-0.4
				C-204.2,606.6-204.6,606.8-204.9,607.2 M-187,608.5c-0.3,0-0.6,0.1-0.8,0.3c-0.3,0.2-0.4,0.6-0.6,1h2.3c0-0.1,0.1-0.2,0.1-0.3
				c0-0.3-0.1-0.6-0.3-0.7C-186.5,608.6-186.7,608.5-187,608.5 M-194.9,608.6c-0.5,0-0.8,0.2-1.1,0.8s-0.4,1-0.4,1.5
				c0,0.4,0.1,0.6,0.3,0.8c0.2,0.2,0.4,0.2,0.6,0.2c0.4,0,0.7-0.2,0.9-0.7c0.3-0.5,0.4-1,0.4-1.6c0-0.4-0.1-0.7-0.2-0.8
				C-194.6,608.7-194.8,608.6-194.9,608.6 M-225,608.5c-0.3,0-0.6,0.1-0.8,0.3c-0.3,0.2-0.4,0.6-0.6,1h2.3c0-0.1,0.1-0.2,0.1-0.3
				c0-0.3-0.1-0.6-0.3-0.7C-224.5,608.6-224.7,608.5-225,608.5z"/>
		</g>
	</g>
</g>
</svg>
