
<svg xmlns="http://www.w3.org/2000/svg" version="1.1" xmlns:xlink="http://www.w3.org/1999/xlink" preserveAspectRatio="none" x="0px" y="0px" width="225px" height="96px" viewBox="0 0 225 96">
<defs>
<g id="Layer0_0_FILL">
<path fill="#FFFFFF" stroke="none" d="
M 77.35 17
L 77.35 4.5 67.35 4.5 67.35 17 77.35 17
M 69.85 14.5
L 69.85 7 74.85 7 74.85 14.5 69.85 14.5
M 62.35 7
L 62.35 9.5 54.85 9.5 54.85 17 64.85 17 64.85 14.5 57.35 14.5 57.35 12 64.85 12 64.85 4.5 54.85 4.5 54.85 7 62.35 7
M 117.25 34.75
L 114.75 34.75 114.75 37.25 117.25 37.25 117.25 34.75
M 117.25 29.75
L 114.75 29.75 114.75 32.25 117.25 32.25 117.25 29.75
M 117.25 27.25
L 117.25 24.75 114.75 24.75 114.75 27.25 117.25 27.25
M 89.85 17
L 89.85 4.5 79.85 4.5 79.85 17 89.85 17
M 82.35 7
L 87.35 7 87.35 14.5 82.35 14.5 82.35 7
M 99.85 9.5
L 97.35 9.5 97.35 12 99.85 12 99.85 9.5
M 97.35 12
L 94.85 12 94.85 17 97.35 17 97.35 12
M 102.35 9.5
L 102.35 4.5 92.35 4.5 92.35 7 99.85 7 99.85 9.5 102.35 9.5
M 119.85 9.5
L 112.35 9.5 112.35 12 119.85 12 119.85 9.5
M 139.85 12
L 139.85 4.5 129.85 4.5 129.85 7 137.35 7 137.35 9.5 129.85 9.5 129.85 17 139.85 17 139.85 14.5 132.35 14.5 132.35 12 139.85 12
M 152.35 17
L 152.35 4.5 142.35 4.5 142.35 17 152.35 17
M 144.85 7
L 149.85 7 149.85 14.5 144.85 14.5 144.85 7
M 154.85 7
L 157.35 7 157.35 17 159.85 17 159.85 4.5 154.85 4.5 154.85 7
M 178.05 73.8
Q 177.75 73.65 177.5 73.65 177.2 73.65 176.9 73.85 176.6 74.05 176.25 74.6
L 176.25 74.55 176.4 73.75 174.9 73.75 174.05 77.9 175.65 77.9 175.95 76.35
Q 176.1 75.65 176.4 75.3 176.7 74.95 177.15 74.95 177.3 74.95 177.45 75
L 178.05 73.8
M 136.25 73.75
L 135.4 73.75 135.75 72.2 133.95 73.1 133.85 73.75 133.25 73.75 133 74.9 133.6 74.9 133.3 76.3
Q 133.2 76.85 133.2 77 133.2 77.35 133.45 77.7 133.75 78 134.4 78 134.75 78 135.45 77.9
L 135.7 76.75
Q 135.3 76.85 135.2 76.85 134.85 76.85 134.85 76.55 134.85 76.45 134.85 76.35
L 135.15 74.9 136 74.9 136.25 73.75
M 131.15 73.75
L 129.65 73.75 128.8 77.9 130.4 77.9 130.7 76.35
Q 130.85 75.65 131.15 75.3 131.45 74.95 131.9 74.95 132.05 74.95 132.2 75
L 132.8 73.8
Q 132.5 73.65 132.25 73.65 131.95 73.65 131.65 73.85 131.35 74.05 131 74.6
L 131 74.55 131.15 73.75
M 157.85 73.75
L 156.25 73.75 155.4 77.9 157 77.9 157.85 73.75
M 156.6 72.15
L 156.4 73.25 157.95 73.25 158.2 72.15 156.6 72.15
M 153.25 73.65
Q 152.5 73.65 152 73.85 151.5 74.05 151.25 74.4 151 74.75 151 75.1 151 75.55 151.35 75.85 151.65 76.15 152.6 76.3 153 76.35 153.15 76.45 153.3 76.5 153.3 76.7 153.3 76.9 153.1 77 152.9 77.1 152.65 77.1 152.05 77.1 151.95 76.6
L 150.4 76.75
Q 150.45 77.4 150.95 77.7 151.4 78 152.4 78 153.6 78 154.2 77.55 154.8 77.1 154.8 76.45 154.8 76 154.5 75.7 154.2 75.45 153.25 75.3 152.7 75.2 152.55 75.15 152.45 75.05 152.45 74.9 152.45 74.75 152.6 74.65 152.75 74.55 153 74.55 153.5 74.55 153.6 74.9
L 155.05 74.75
Q 154.95 74.15 154.5 73.9 154.05 73.65 153.25 73.65
M 149.65 74.15
Q 149.15 73.65 148 73.65 147.45 73.65 147.05 73.8 146.65 73.9 146.25 74.2 145.8 74.55 145.55 75.05 145.35 75.55 145.35 76.1 145.35 76.9 145.85 77.45 146.35 78 147.6 78 148.45 78 149 77.75 149.55 77.45 149.9 76.85
L 148.35 76.7
Q 148.1 77.05 147.65 77.05 146.95 77.05 146.9 76.25
L 150.05 76.25
Q 150.15 75.65 150.15 75.4 150.15 74.65 149.65 74.15
M 148.4 74.75
Q 148.6 74.9 148.6 75.25 148.6 75.4 148.6 75.45
L 147.05 75.45
Q 147.15 75.05 147.4 74.8 147.65 74.6 147.95 74.6 148.25 74.6 148.4 74.75
M 144.35 72.85
Q 143.8 72.15 142.55 72.15
L 140.2 72.15 139 77.9 142 77.9
Q 142.6 77.9 143.3 77.6 143.95 77.35 144.45 76.45 144.95 75.6 144.95 74.55 144.95 73.5 144.35 72.85
M 142.25 73.45
Q 142.8 73.45 143 73.7 143.2 73.95 143.2 74.4 143.2 75.15 142.85 75.9 142.5 76.65 141.75 76.65
L 141.05 76.65 141.7 73.45 142.25 73.45
M 162.35 77.65
L 163.2 73.75 161.7 73.75 161.6 74.35
Q 161.1 73.65 160.3 73.65 159.4 73.65 158.8 74.4 158.25 75.1 158.25 76.1 158.25 76.85 158.6 77.3 159 77.75 159.6 77.75 160.3 77.75 160.85 77.2
L 160.75 77.85
Q 160.65 78.25 160.45 78.45 160.25 78.65 159.95 78.65 159.55 78.65 159.5 78.2
L 158 78
Q 158 78.05 158 78.2 158 78.6 158.25 79 158.55 79.35 158.95 79.45 159.35 79.6 160.05 79.6 161.05 79.6 161.6 79.2 162.1 78.8 162.35 77.65
M 161 76.2
Q 160.8 76.7 160.35 76.7 160.1 76.7 159.95 76.5 159.8 76.35 159.8 76.05 159.8 75.55 160.05 75.15 160.3 74.7 160.7 74.7 160.9 74.7 161.05 74.9 161.25 75.05 161.25 75.3 161.25 75.75 161 76.2
M 170.65 73.8
Q 170.25 73.9 169.85 74.2 169.4 74.55 169.15 75.05 168.95 75.55 168.95 76.1 168.95 76.9 169.45 77.45 169.95 78 171.2 78 172.05 78 172.6 77.75 173.15 77.45 173.5 76.85
L 171.95 76.7
Q 171.7 77.05 171.25 77.05 170.55 77.05 170.5 76.25
L 173.65 76.25
Q 173.75 75.65 173.75 75.4 173.75 74.65 173.25 74.15 172.75 73.65 171.6 73.65 171.05 73.65 170.65 73.8
M 172.2 75.25
Q 172.2 75.4 172.2 75.45
L 170.65 75.45
Q 170.75 75.05 171 74.8 171.25 74.6 171.55 74.6 171.85 74.6 172 74.75 172.2 74.9 172.2 75.25
M 168.05 73.95
Q 167.75 73.65 167.2 73.65 166.25 73.65 165.6 74.4
L 165.7 73.75 164.25 73.75 163.35 77.9 164.95 77.9 165.35 76.1
Q 165.45 75.5 165.75 75.15 166 74.8 166.35 74.8 166.65 74.8 166.65 75.15 166.65 75.25 166.5 75.95
L 166.1 77.9 167.7 77.9 168.15 75.65
Q 168.3 74.9 168.3 74.65 168.3 74.25 168.05 73.95
M 126.3 73.65
Q 125.25 73.65 124.7 74 124.2 74.3 124.05 74.9
L 125.55 75.05
Q 125.65 74.75 125.85 74.7 126 74.6 126.3 74.6 126.55 74.6 126.7 74.7 126.85 74.8 126.85 74.95 126.85 75.05 126.8 75.2 126.6 75.3 125.9 75.35 125.1 75.45 124.65 75.55 124.2 75.65 123.9 75.95 123.6 76.25 123.6 76.8 123.6 77.25 123.95 77.65 124.3 78 125.05 78 125.85 78 126.45 77.45 126.45 77.65 126.5 77.9
L 128.05 77.9
Q 127.95 77.6 127.95 77.35 127.95 77 128.15 76.15 128.4 75.25 128.4 74.85 128.4 74.3 127.95 73.95 127.55 73.65 126.3 73.65
M 125.65 77.15
Q 125.45 77.15 125.3 77 125.15 76.9 125.15 76.7 125.15 76.5 125.35 76.35 125.55 76.25 126.65 76.05 126.55 76.65 126.25 76.9 125.95 77.15 125.65 77.15
M 120 74.15
Q 119.5 73.65 118.35 73.65 117.8 73.65 117.4 73.8 117 73.9 116.6 74.2 116.15 74.55 115.9 75.05 115.7 75.55 115.7 76.1 115.7 76.9 116.2 77.45 116.7 78 117.95 78 118.8 78 119.35 77.75 119.9 77.45 120.25 76.85
L 118.7 76.7
Q 118.45 77.05 118 77.05 117.3 77.05 117.25 76.25
L 120.4 76.25
Q 120.5 75.65 120.5 75.4 120.5 74.65 120 74.15
M 118.3 74.6
Q 118.6 74.6 118.75 74.75 118.95 74.9 118.95 75.25 118.95 75.4 118.95 75.45
L 117.4 75.45
Q 117.5 75.05 117.75 74.8 118 74.6 118.3 74.6
M 79.3 73.75
L 77.7 73.75 76.85 77.9 78.45 77.9 79.3 73.75
M 79.4 73.25
L 79.65 72.15 78.05 72.15 77.85 73.25 79.4 73.25
M 74.4 73.75
L 73.8 73.75 73.55 74.9 74.15 74.9 73.85 76.3
Q 73.75 76.85 73.75 77 73.75 77.35 74 77.7 74.3 78 74.95 78 75.3 78 76 77.9
L 76.25 76.75
Q 75.85 76.85 75.75 76.85 75.4 76.85 75.4 76.55 75.4 76.45 75.4 76.35
L 75.7 74.9 76.55 74.9 76.8 73.75 75.95 73.75 76.3 72.2 74.5 73.1 74.4 73.75
M 73.45 72.15
L 71.85 72.15 71.65 73.25 73.2 73.25 73.45 72.15
M 73.1 73.75
L 71.5 73.75 70.65 77.9 72.25 77.9 73.1 73.75
M 91.85 77.9
L 92.15 76.3 90.45 76.3 90.1 77.9 91.85 77.9
M 92.7 73.75
L 91 73.75 90.65 75.35 92.35 75.35 92.7 73.75
M 99.45 72.1
Q 98.4 72.1 97.6 72.55 96.8 72.95 96.35 73.8 95.9 74.6 95.9 75.55 95.9 76.7 96.6 77.35 97.3 78 98.45 78 99.8 78 101.1 77.35
L 101.7 74.65 99 74.65 98.75 75.85 99.85 75.85 99.7 76.45
Q 99.3 76.75 98.75 76.75 98.25 76.75 97.95 76.4 97.65 76.1 97.65 75.6 97.65 74.8 98.05 74.05 98.5 73.35 99.2 73.35 99.9 73.35 100.15 74
L 101.9 73.85
Q 101.45 72.1 99.45 72.1
M 89.5 73.95
Q 89.2 73.65 88.65 73.65 87.7 73.65 87.05 74.4
L 87.15 73.75 85.7 73.75 84.8 77.9 86.4 77.9 86.8 76.1
Q 86.9 75.5 87.2 75.15 87.45 74.8 87.8 74.8 88.1 74.8 88.1 75.15 88.1 75.25 87.95 75.95
L 87.55 77.9 89.15 77.9 89.6 75.65
Q 89.75 74.9 89.75 74.65 89.75 74.25 89.5 73.95
M 83.9 74.2
Q 83.4 73.65 82.3 73.65 81.45 73.65 80.9 74 80.3 74.3 80 74.9 79.65 75.5 79.65 76.1 79.65 76.9 80.2 77.45 80.7 78 81.8 78 82.65 78 83.25 77.65 83.85 77.3 84.15 76.7 84.4 76.1 84.4 75.55 84.4 74.8 83.9 74.2
M 81.9 76.9
Q 81.6 76.9 81.4 76.7 81.2 76.45 81.2 76.1 81.2 75.65 81.5 75.2 81.75 74.75 82.25 74.75 82.45 74.75 82.65 74.9 82.85 75.05 82.85 75.45 82.85 76 82.6 76.45 82.35 76.9 81.9 76.9
M 109.8 73.75
L 108.35 73.75 107.45 77.9 109.05 77.9 109.5 75.9
Q 109.6 75.3 109.9 75.05 110.15 74.8 110.4 74.8 110.7 74.8 110.7 75.15 110.7 75.2 110.7 75.35 110.65 75.45 110.5 76.15
L 110.15 77.9 111.75 77.9 112.15 76.05
Q 112.25 75.4 112.5 75.1 112.75 74.8 113.1 74.8 113.4 74.8 113.4 75.15 113.4 75.2 113.4 75.35 113.35 75.45 113.2 76.15
L 112.85 77.9 114.45 77.9 115.05 75.2
Q 115.1 74.95 115.1 74.7 115.1 74.25 114.8 73.95 114.5 73.65 113.95 73.65 113.55 73.65 113.15 73.8 112.8 73.95 112.35 74.35 112.25 74.05 111.95 73.85 111.65 73.65 111.25 73.65 110.4 73.65 109.7 74.35
L 109.8 73.75
M 104.95 73.65
Q 103.9 73.65 103.35 74 102.85 74.3 102.7 74.9
L 104.2 75.05
Q 104.3 74.75 104.5 74.7 104.65 74.6 104.95 74.6 105.2 74.6 105.35 74.7 105.5 74.8 105.5 74.95 105.5 75.05 105.45 75.2 105.25 75.3 104.55 75.35 103.75 75.45 103.3 75.55 102.85 75.65 102.55 75.95 102.25 76.25 102.25 76.8 102.25 77.25 102.6 77.65 102.95 78 103.7 78 104.5 78 105.1 77.45 105.1 77.65 105.15 77.9
L 106.7 77.9
Q 106.6 77.6 106.6 77.35 106.6 77 106.8 76.15 107.05 75.25 107.05 74.85 107.05 74.3 106.6 73.95 106.2 73.65 104.95 73.65
M 103.95 77
Q 103.8 76.9 103.8 76.7 103.8 76.5 104 76.35 104.2 76.25 105.3 76.05 105.2 76.65 104.9 76.9 104.6 77.15 104.3 77.15 104.1 77.15 103.95 77
M 68.5 73.65
Q 67.75 73.65 67.25 73.85 66.75 74.05 66.5 74.4 66.25 74.75 66.25 75.1 66.25 75.55 66.6 75.85 66.9 76.15 67.85 76.3 68.25 76.35 68.4 76.45 68.55 76.5 68.55 76.7 68.55 76.9 68.35 77 68.15 77.1 67.9 77.1 67.3 77.1 67.2 76.6
L 65.65 76.75
Q 65.7 77.4 66.2 77.7 66.65 78 67.65 78 68.85 78 69.45 77.55 70.05 77.1 70.05 76.45 70.05 76 69.75 75.7 69.45 75.45 68.5 75.3 67.95 75.2 67.8 75.15 67.7 75.05 67.7 74.9 67.7 74.75 67.85 74.65 68 74.55 68.25 74.55 68.75 74.55 68.85 74.9
L 70.3 74.75
Q 70.2 74.15 69.75 73.9 69.3 73.65 68.5 73.65
M 60.5 73.7
Q 60.5 73.2 60.35 72.85 60.15 72.5 59.75 72.35 59.4 72.15 58.65 72.15
L 56.05 72.15 54.8 77.9 56.6 77.9 57.05 75.8 57.85 75.8
Q 58.75 75.8 59.3 75.55 59.8 75.35 60.2 74.85 60.5 74.35 60.5 73.7
M 58.3 73.3
Q 58.85 73.3 58.85 73.8 58.85 74.15 58.6 74.4 58.3 74.65 57.9 74.65
L 57.3 74.65 57.6 73.3 58.3 73.3
M 63.2 73.65
Q 62.35 73.65 61.8 74 61.2 74.3 60.9 74.9 60.55 75.5 60.55 76.1 60.55 76.9 61.1 77.45 61.6 78 62.7 78 63.55 78 64.15 77.65 64.75 77.3 65.05 76.7 65.3 76.1 65.3 75.55 65.3 74.8 64.8 74.2 64.3 73.65 63.2 73.65
M 63.55 74.9
Q 63.75 75.05 63.75 75.45 63.75 76 63.5 76.45 63.25 76.9 62.8 76.9 62.5 76.9 62.3 76.7 62.1 76.45 62.1 76.1 62.1 75.65 62.4 75.2 62.65 74.75 63.15 74.75 63.35 74.75 63.55 74.9
M 124.1 60
Q 123.5 60.5 123.15 61.2 122.75 61.95 122.75 62.8 122.75 64 123.55 64.8 124.3 65.65 126.15 65.65 127.45 65.65 128.25 65.25 129.1 64.85 129.65 63.9
L 127.35 63.7
Q 126.9 64.25 126.25 64.25 125.2 64.25 125.1 63
L 129.85 63
Q 130 62.1 130 61.75 130 60.65 129.25 59.9 128.5 59.15 126.75 59.15 125.95 59.15 125.35 59.3 124.75 59.5 124.1 60
M 125.35 61.85
Q 125.5 61.2 125.9 60.85 126.25 60.55 126.7 60.55 127.1 60.55 127.4 60.8 127.7 61 127.7 61.5 127.7 61.7 127.65 61.85
L 125.35 61.85
M 133.55 61.25
Q 133.75 60.8 134 60.7 134.25 60.55 134.65 60.55 135.05 60.55 135.3 60.7 135.55 60.8 135.55 61.05 135.55 61.2 135.45 61.5 135.1 61.6 134.1 61.7 132.9 61.8 132.25 61.95 131.55 62.15 131.1 62.55 130.65 63 130.65 63.8 130.65 64.55 131.15 65.1 131.7 65.65 132.85 65.65 134 65.65 134.95 64.8 134.95 65.15 135.05 65.5
L 137.35 65.5
Q 137.2 65.05 137.2 64.65 137.2 64.15 137.5 62.85 137.85 61.55 137.85 60.95 137.85 60.05 137.2 59.6 136.55 59.15 134.7 59.15 133.1 59.15 132.3 59.6 131.55 60.1 131.35 61
L 133.55 61.25
M 133 63.7
Q 133 63.4 133.25 63.2 133.55 63 135.2 62.7 135.05 63.6 134.6 64 134.15 64.35 133.7 64.35 133.4 64.35 133.2 64.2 133 64 133 63.7
M 147.45 59.3
L 145.05 59.3 143.7 65.5 146.1 65.5 147.45 59.3
M 142.05 61
L 143.3 61 143.65 59.3 142.4 59.3 142.9 57 140.25 58.3 140 59.3 139.15 59.3 138.8 61 139.65 61 139.2 63.1
Q 139.05 63.95 139.05 64.1 139.05 64.7 139.45 65.15 139.9 65.65 140.9 65.65 141.4 65.65 142.45 65.5
L 142.8 63.8
Q 142.25 63.9 142.1 63.9 141.5 63.9 141.5 63.5 141.5 63.35 141.55 63.2
L 142.05 61
M 145.55 56.9
L 145.2 58.55 147.6 58.55 147.95 56.9 145.55 56.9
M 155.4 59.3
L 152.9 59.3 150.85 63.2 150.8 63.2 150.45 59.3 148.2 59.3 149.4 65.5 151.5 65.5 155.4 59.3
M 120.5 59.3
L 118.3 59.3 116.95 65.5 119.35 65.5 119.85 63.15
Q 120.05 62.1 120.5 61.6 120.95 61.1 121.6 61.1 121.85 61.1 122.1 61.15
L 123 59.35
Q 122.55 59.15 122.15 59.15 121.65 59.15 121.25 59.4 120.8 59.7 120.25 60.55
L 120.25 60.5 120.5 59.3
M 162.05 63
Q 162.2 62.1 162.2 61.75 162.2 60.65 161.45 59.9 160.7 59.15 158.95 59.15 158.15 59.15 157.55 59.3 156.95 59.5 156.3 60 155.7 60.5 155.35 61.2 154.95 61.95 154.95 62.8 154.95 64 155.75 64.8 156.5 65.65 158.35 65.65 159.65 65.65 160.45 65.25 161.3 64.85 161.85 63.9
L 159.55 63.7
Q 159.1 64.25 158.45 64.25 157.4 64.25 157.3 63
L 162.05 63
M 158.1 60.85
Q 158.45 60.55 158.9 60.55 159.3 60.55 159.6 60.8 159.9 61 159.9 61.5 159.9 61.7 159.85 61.85
L 157.55 61.85
Q 157.7 61.2 158.1 60.85
M 114.5 60
L 116.95 59.75
Q 116.8 58.4 115.85 57.6 114.9 56.75 113.3 56.75 111.7 56.75 110.6 57.5 109.5 58.2 108.9 59.5 108.3 60.75 108.3 62 108.3 63.65 109.3 64.65 110.3 65.65 112.15 65.65 113.9 65.65 115.05 64.75 116.15 63.85 116.55 62.5
L 114.05 62.1
Q 113.7 62.9 113.3 63.3 112.9 63.7 112.3 63.7 111.6 63.7 111.25 63.25 110.9 62.85 110.9 62.2 110.9 61.35 111.25 60.45 111.6 59.6 112.15 59.15 112.7 58.7 113.3 58.7 113.75 58.7 114.1 59.05 114.5 59.35 114.5 59.95
L 114.5 60
M 102.25 64.5
Q 103.05 63.3 103.05 61.7 103.05 60.55 102.5 59.85 101.95 59.15 100.9 59.15 100.35 59.15 99.95 59.3 99.55 59.45 99 59.95
L 99 59.9 99.1 59.3 96.9 59.3 95.05 67.9 97.45 67.9 98.15 64.65
Q 98.8 65.65 100.1 65.65 101.4 65.65 102.25 64.5
M 98.9 61.45
Q 99.25 60.7 99.95 60.7 100.25 60.7 100.5 60.95 100.75 61.2 100.75 61.8 100.75 62.7 100.35 63.4 100 64.05 99.45 64.05 99.1 64.05 98.85 63.8 98.55 63.5 98.55 62.95 98.55 62.2 98.9 61.45
M 94.9 61.75
Q 94.9 60.65 94.15 59.9 93.4 59.15 91.65 59.15 90.85 59.15 90.25 59.3 89.65 59.5 89 60 88.4 60.5 88.05 61.2 87.65 61.95 87.65 62.8 87.65 64 88.45 64.8 89.2 65.65 91.05 65.65 92.35 65.65 93.15 65.25 94 64.85 94.55 63.9
L 92.25 63.7
Q 91.8 64.25 91.15 64.25 90.1 64.25 90 63
L 94.75 63
Q 94.9 62.1 94.9 61.75
M 91.6 60.55
Q 92 60.55 92.3 60.8 92.6 61 92.6 61.5 92.6 61.7 92.55 61.85
L 90.25 61.85
Q 90.4 61.2 90.8 60.85 91.15 60.55 91.6 60.55
M 82.25 59.3
Q 81.65 59.5 81 60 80.4 60.5 80.05 61.2 79.65 61.95 79.65 62.8 79.65 64 80.45 64.8 81.2 65.65 83.05 65.65 84.35 65.65 85.15 65.25 86 64.85 86.55 63.9
L 84.25 63.7
Q 83.8 64.25 83.15 64.25 82.1 64.25 82 63
L 86.75 63
Q 86.9 62.1 86.9 61.75 86.9 60.65 86.15 59.9 85.4 59.15 83.65 59.15 82.85 59.15 82.25 59.3
M 84.55 61.85
L 82.25 61.85
Q 82.4 61.2 82.8 60.85 83.15 60.55 83.6 60.55 84 60.55 84.3 60.8 84.6 61 84.6 61.5 84.6 61.7 84.55 61.85
M 79 60.5
Q 79 58.9 78.15 57.9 77.3 56.9 75.4 56.9
L 71.9 56.9 70.1 65.5 74.6 65.5
Q 75.55 65.5 76.55 65.1 77.55 64.65 78.3 63.35 79 62.05 79 60.5
M 74.15 58.8
L 75 58.8
Q 75.8 58.8 76.1 59.2 76.4 59.55 76.4 60.25 76.4 61.35 75.9 62.5 75.35 63.6 74.25 63.6
L 73.15 63.6 74.15 58.8
M 164.85 7
L 164.85 17 167.35 17 167.35 4.5 162.35 4.5 162.35 7 164.85 7 Z"/>

<path fill="#911616" stroke="none" d="
M 56 95.3
L 56.1 86.65 37 86.65 56 95.3
M 195.1 86.65
L 176.05 86.65 176.15 95.35 195.25 86.65 195.1 86.65 Z"/>

<path fill="#A12C2C" stroke="none" d="
M 36.85 63.2
L 6.85 63.2 22.95 79.25 6.85 95.35 56 95.35 56 95.3 37 86.65 36.85 86.65 36.85 63.2
M 195.25 86.65
L 176.15 95.35 225.2 95.35 209.1 79.25 225.2 63.2 195.15 63.2 195.15 86.55 195.1 86.6 195.1 86.65 195.25 86.65 Z"/>

<path fill="#B84F4F" stroke="none" d="
M 176.05 86.65
L 195.1 86.65 195.1 86.6 195.1 49.5 36.85 49.5 36.85 63.2 36.85 86.65 37 86.65 56.1 86.65 176.05 86.65
M 78.15 57.9
Q 79 58.9 79 60.5 79 62.05 78.3 63.35 77.55 64.65 76.55 65.1 75.55 65.5 74.6 65.5
L 70.1 65.5 71.9 56.9 75.4 56.9
Q 77.3 56.9 78.15 57.9
M 81 60
Q 81.65 59.5 82.25 59.3 82.85 59.15 83.65 59.15 85.4 59.15 86.15 59.9 86.9 60.65 86.9 61.75 86.9 62.1 86.75 63
L 82 63
Q 82.1 64.25 83.15 64.25 83.8 64.25 84.25 63.7
L 86.55 63.9
Q 86 64.85 85.15 65.25 84.35 65.65 83.05 65.65 81.2 65.65 80.45 64.8 79.65 64 79.65 62.8 79.65 61.95 80.05 61.2 80.4 60.5 81 60
M 94.15 59.9
Q 94.9 60.65 94.9 61.75 94.9 62.1 94.75 63
L 90 63
Q 90.1 64.25 91.15 64.25 91.8 64.25 92.25 63.7
L 94.55 63.9
Q 94 64.85 93.15 65.25 92.35 65.65 91.05 65.65 89.2 65.65 88.45 64.8 87.65 64 87.65 62.8 87.65 61.95 88.05 61.2 88.4 60.5 89 60 89.65 59.5 90.25 59.3 90.85 59.15 91.65 59.15 93.4 59.15 94.15 59.9
M 103.05 61.7
Q 103.05 63.3 102.25 64.5 101.4 65.65 100.1 65.65 98.8 65.65 98.15 64.65
L 97.45 67.9 95.05 67.9 96.9 59.3 99.1 59.3 99 59.9 99 59.95
Q 99.55 59.45 99.95 59.3 100.35 59.15 100.9 59.15 101.95 59.15 102.5 59.85 103.05 60.55 103.05 61.7
M 116.95 59.75
L 114.5 60 114.5 59.95
Q 114.5 59.35 114.1 59.05 113.75 58.7 113.3 58.7 112.7 58.7 112.15 59.15 111.6 59.6 111.25 60.45 110.9 61.35 110.9 62.2 110.9 62.85 111.25 63.25 111.6 63.7 112.3 63.7 112.9 63.7 113.3 63.3 113.7 62.9 114.05 62.1
L 116.55 62.5
Q 116.15 63.85 115.05 64.75 113.9 65.65 112.15 65.65 110.3 65.65 109.3 64.65 108.3 63.65 108.3 62 108.3 60.75 108.9 59.5 109.5 58.2 110.6 57.5 111.7 56.75 113.3 56.75 114.9 56.75 115.85 57.6 116.8 58.4 116.95 59.75
M 162.2 61.75
Q 162.2 62.1 162.05 63
L 157.3 63
Q 157.4 64.25 158.45 64.25 159.1 64.25 159.55 63.7
L 161.85 63.9
Q 161.3 64.85 160.45 65.25 159.65 65.65 158.35 65.65 156.5 65.65 155.75 64.8 154.95 64 154.95 62.8 154.95 61.95 155.35 61.2 155.7 60.5 156.3 60 156.95 59.5 157.55 59.3 158.15 59.15 158.95 59.15 160.7 59.15 161.45 59.9 162.2 60.65 162.2 61.75
M 118.3 59.3
L 120.5 59.3 120.25 60.5 120.25 60.55
Q 120.8 59.7 121.25 59.4 121.65 59.15 122.15 59.15 122.55 59.15 123 59.35
L 122.1 61.15
Q 121.85 61.1 121.6 61.1 120.95 61.1 120.5 61.6 120.05 62.1 119.85 63.15
L 119.35 65.5 116.95 65.5 118.3 59.3
M 152.9 59.3
L 155.4 59.3 151.5 65.5 149.4 65.5 148.2 59.3 150.45 59.3 150.8 63.2 150.85 63.2 152.9 59.3
M 145.2 58.55
L 145.55 56.9 147.95 56.9 147.6 58.55 145.2 58.55
M 143.3 61
L 142.05 61 141.55 63.2
Q 141.5 63.35 141.5 63.5 141.5 63.9 142.1 63.9 142.25 63.9 142.8 63.8
L 142.45 65.5
Q 141.4 65.65 140.9 65.65 139.9 65.65 139.45 65.15 139.05 64.7 139.05 64.1 139.05 63.95 139.2 63.1
L 139.65 61 138.8 61 139.15 59.3 140 59.3 140.25 58.3 142.9 57 142.4 59.3 143.65 59.3 143.3 61
M 145.05 59.3
L 147.45 59.3 146.1 65.5 143.7 65.5 145.05 59.3
M 134 60.7
Q 133.75 60.8 133.55 61.25
L 131.35 61
Q 131.55 60.1 132.3 59.6 133.1 59.15 134.7 59.15 136.55 59.15 137.2 59.6 137.85 60.05 137.85 60.95 137.85 61.55 137.5 62.85 137.2 64.15 137.2 64.65 137.2 65.05 137.35 65.5
L 135.05 65.5
Q 134.95 65.15 134.95 64.8 134 65.65 132.85 65.65 131.7 65.65 131.15 65.1 130.65 64.55 130.65 63.8 130.65 63 131.1 62.55 131.55 62.15 132.25 61.95 132.9 61.8 134.1 61.7 135.1 61.6 135.45 61.5 135.55 61.2 135.55 61.05 135.55 60.8 135.3 60.7 135.05 60.55 134.65 60.55 134.25 60.55 134 60.7
M 123.15 61.2
Q 123.5 60.5 124.1 60 124.75 59.5 125.35 59.3 125.95 59.15 126.75 59.15 128.5 59.15 129.25 59.9 130 60.65 130 61.75 130 62.1 129.85 63
L 125.1 63
Q 125.2 64.25 126.25 64.25 126.9 64.25 127.35 63.7
L 129.65 63.9
Q 129.1 64.85 128.25 65.25 127.45 65.65 126.15 65.65 124.3 65.65 123.55 64.8 122.75 64 122.75 62.8 122.75 61.95 123.15 61.2
M 61.8 74
Q 62.35 73.65 63.2 73.65 64.3 73.65 64.8 74.2 65.3 74.8 65.3 75.55 65.3 76.1 65.05 76.7 64.75 77.3 64.15 77.65 63.55 78 62.7 78 61.6 78 61.1 77.45 60.55 76.9 60.55 76.1 60.55 75.5 60.9 74.9 61.2 74.3 61.8 74
M 60.35 72.85
Q 60.5 73.2 60.5 73.7 60.5 74.35 60.2 74.85 59.8 75.35 59.3 75.55 58.75 75.8 57.85 75.8
L 57.05 75.8 56.6 77.9 54.8 77.9 56.05 72.15 58.65 72.15
Q 59.4 72.15 59.75 72.35 60.15 72.5 60.35 72.85
M 67.25 73.85
Q 67.75 73.65 68.5 73.65 69.3 73.65 69.75 73.9 70.2 74.15 70.3 74.75
L 68.85 74.9
Q 68.75 74.55 68.25 74.55 68 74.55 67.85 74.65 67.7 74.75 67.7 74.9 67.7 75.05 67.8 75.15 67.95 75.2 68.5 75.3 69.45 75.45 69.75 75.7 70.05 76 70.05 76.45 70.05 77.1 69.45 77.55 68.85 78 67.65 78 66.65 78 66.2 77.7 65.7 77.4 65.65 76.75
L 67.2 76.6
Q 67.3 77.1 67.9 77.1 68.15 77.1 68.35 77 68.55 76.9 68.55 76.7 68.55 76.5 68.4 76.45 68.25 76.35 67.85 76.3 66.9 76.15 66.6 75.85 66.25 75.55 66.25 75.1 66.25 74.75 66.5 74.4 66.75 74.05 67.25 73.85
M 103.35 74
Q 103.9 73.65 104.95 73.65 106.2 73.65 106.6 73.95 107.05 74.3 107.05 74.85 107.05 75.25 106.8 76.15 106.6 77 106.6 77.35 106.6 77.6 106.7 77.9
L 105.15 77.9
Q 105.1 77.65 105.1 77.45 104.5 78 103.7 78 102.95 78 102.6 77.65 102.25 77.25 102.25 76.8 102.25 76.25 102.55 75.95 102.85 75.65 103.3 75.55 103.75 75.45 104.55 75.35 105.25 75.3 105.45 75.2 105.5 75.05 105.5 74.95 105.5 74.8 105.35 74.7 105.2 74.6 104.95 74.6 104.65 74.6 104.5 74.7 104.3 74.75 104.2 75.05
L 102.7 74.9
Q 102.85 74.3 103.35 74
M 108.35 73.75
L 109.8 73.75 109.7 74.35
Q 110.4 73.65 111.25 73.65 111.65 73.65 111.95 73.85 112.25 74.05 112.35 74.35 112.8 73.95 113.15 73.8 113.55 73.65 113.95 73.65 114.5 73.65 114.8 73.95 115.1 74.25 115.1 74.7 115.1 74.95 115.05 75.2
L 114.45 77.9 112.85 77.9 113.2 76.15
Q 113.35 75.45 113.4 75.35 113.4 75.2 113.4 75.15 113.4 74.8 113.1 74.8 112.75 74.8 112.5 75.1 112.25 75.4 112.15 76.05
L 111.75 77.9 110.15 77.9 110.5 76.15
Q 110.65 75.45 110.7 75.35 110.7 75.2 110.7 75.15 110.7 74.8 110.4 74.8 110.15 74.8 109.9 75.05 109.6 75.3 109.5 75.9
L 109.05 77.9 107.45 77.9 108.35 73.75
M 82.3 73.65
Q 83.4 73.65 83.9 74.2 84.4 74.8 84.4 75.55 84.4 76.1 84.15 76.7 83.85 77.3 83.25 77.65 82.65 78 81.8 78 80.7 78 80.2 77.45 79.65 76.9 79.65 76.1 79.65 75.5 80 74.9 80.3 74.3 80.9 74 81.45 73.65 82.3 73.65
M 88.65 73.65
Q 89.2 73.65 89.5 73.95 89.75 74.25 89.75 74.65 89.75 74.9 89.6 75.65
L 89.15 77.9 87.55 77.9 87.95 75.95
Q 88.1 75.25 88.1 75.15 88.1 74.8 87.8 74.8 87.45 74.8 87.2 75.15 86.9 75.5 86.8 76.1
L 86.4 77.9 84.8 77.9 85.7 73.75 87.15 73.75 87.05 74.4
Q 87.7 73.65 88.65 73.65
M 97.6 72.55
Q 98.4 72.1 99.45 72.1 101.45 72.1 101.9 73.85
L 100.15 74
Q 99.9 73.35 99.2 73.35 98.5 73.35 98.05 74.05 97.65 74.8 97.65 75.6 97.65 76.1 97.95 76.4 98.25 76.75 98.75 76.75 99.3 76.75 99.7 76.45
L 99.85 75.85 98.75 75.85 99 74.65 101.7 74.65 101.1 77.35
Q 99.8 78 98.45 78 97.3 78 96.6 77.35 95.9 76.7 95.9 75.55 95.9 74.6 96.35 73.8 96.8 72.95 97.6 72.55
M 91 73.75
L 92.7 73.75 92.35 75.35 90.65 75.35 91 73.75
M 92.15 76.3
L 91.85 77.9 90.1 77.9 90.45 76.3 92.15 76.3
M 71.5 73.75
L 73.1 73.75 72.25 77.9 70.65 77.9 71.5 73.75
M 71.85 72.15
L 73.45 72.15 73.2 73.25 71.65 73.25 71.85 72.15
M 73.8 73.75
L 74.4 73.75 74.5 73.1 76.3 72.2 75.95 73.75 76.8 73.75 76.55 74.9 75.7 74.9 75.4 76.35
Q 75.4 76.45 75.4 76.55 75.4 76.85 75.75 76.85 75.85 76.85 76.25 76.75
L 76 77.9
Q 75.3 78 74.95 78 74.3 78 74 77.7 73.75 77.35 73.75 77 73.75 76.85 73.85 76.3
L 74.15 74.9 73.55 74.9 73.8 73.75
M 79.65 72.15
L 79.4 73.25 77.85 73.25 78.05 72.15 79.65 72.15
M 77.7 73.75
L 79.3 73.75 78.45 77.9 76.85 77.9 77.7 73.75
M 118.35 73.65
Q 119.5 73.65 120 74.15 120.5 74.65 120.5 75.4 120.5 75.65 120.4 76.25
L 117.25 76.25
Q 117.3 77.05 118 77.05 118.45 77.05 118.7 76.7
L 120.25 76.85
Q 119.9 77.45 119.35 77.75 118.8 78 117.95 78 116.7 78 116.2 77.45 115.7 76.9 115.7 76.1 115.7 75.55 115.9 75.05 116.15 74.55 116.6 74.2 117 73.9 117.4 73.8 117.8 73.65 118.35 73.65
M 124.7 74
Q 125.25 73.65 126.3 73.65 127.55 73.65 127.95 73.95 128.4 74.3 128.4 74.85 128.4 75.25 128.15 76.15 127.95 77 127.95 77.35 127.95 77.6 128.05 77.9
L 126.5 77.9
Q 126.45 77.65 126.45 77.45 125.85 78 125.05 78 124.3 78 123.95 77.65 123.6 77.25 123.6 76.8 123.6 76.25 123.9 75.95 124.2 75.65 124.65 75.55 125.1 75.45 125.9 75.35 126.6 75.3 126.8 75.2 126.85 75.05 126.85 74.95 126.85 74.8 126.7 74.7 126.55 74.6 126.3 74.6 126 74.6 125.85 74.7 125.65 74.75 125.55 75.05
L 124.05 74.9
Q 124.2 74.3 124.7 74
M 167.2 73.65
Q 167.75 73.65 168.05 73.95 168.3 74.25 168.3 74.65 168.3 74.9 168.15 75.65
L 167.7 77.9 166.1 77.9 166.5 75.95
Q 166.65 75.25 166.65 75.15 166.65 74.8 166.35 74.8 166 74.8 165.75 75.15 165.45 75.5 165.35 76.1
L 164.95 77.9 163.35 77.9 164.25 73.75 165.7 73.75 165.6 74.4
Q 166.25 73.65 167.2 73.65
M 169.85 74.2
Q 170.25 73.9 170.65 73.8 171.05 73.65 171.6 73.65 172.75 73.65 173.25 74.15 173.75 74.65 173.75 75.4 173.75 75.65 173.65 76.25
L 170.5 76.25
Q 170.55 77.05 171.25 77.05 171.7 77.05 171.95 76.7
L 173.5 76.85
Q 173.15 77.45 172.6 77.75 172.05 78 171.2 78 169.95 78 169.45 77.45 168.95 76.9 168.95 76.1 168.95 75.55 169.15 75.05 169.4 74.55 169.85 74.2
M 163.2 73.75
L 162.35 77.65
Q 162.1 78.8 161.6 79.2 161.05 79.6 160.05 79.6 159.35 79.6 158.95 79.45 158.55 79.35 158.25 79 158 78.6 158 78.2 158 78.05 158 78
L 159.5 78.2
Q 159.55 78.65 159.95 78.65 160.25 78.65 160.45 78.45 160.65 78.25 160.75 77.85
L 160.85 77.2
Q 160.3 77.75 159.6 77.75 159 77.75 158.6 77.3 158.25 76.85 158.25 76.1 158.25 75.1 158.8 74.4 159.4 73.65 160.3 73.65 161.1 73.65 161.6 74.35
L 161.7 73.75 163.2 73.75
M 142.55 72.15
Q 143.8 72.15 144.35 72.85 144.95 73.5 144.95 74.55 144.95 75.6 144.45 76.45 143.95 77.35 143.3 77.6 142.6 77.9 142 77.9
L 139 77.9 140.2 72.15 142.55 72.15
M 148 73.65
Q 149.15 73.65 149.65 74.15 150.15 74.65 150.15 75.4 150.15 75.65 150.05 76.25
L 146.9 76.25
Q 146.95 77.05 147.65 77.05 148.1 77.05 148.35 76.7
L 149.9 76.85
Q 149.55 77.45 149 77.75 148.45 78 147.6 78 146.35 78 145.85 77.45 145.35 76.9 145.35 76.1 145.35 75.55 145.55 75.05 145.8 74.55 146.25 74.2 146.65 73.9 147.05 73.8 147.45 73.65 148 73.65
M 152 73.85
Q 152.5 73.65 153.25 73.65 154.05 73.65 154.5 73.9 154.95 74.15 155.05 74.75
L 153.6 74.9
Q 153.5 74.55 153 74.55 152.75 74.55 152.6 74.65 152.45 74.75 152.45 74.9 152.45 75.05 152.55 75.15 152.7 75.2 153.25 75.3 154.2 75.45 154.5 75.7 154.8 76 154.8 76.45 154.8 77.1 154.2 77.55 153.6 78 152.4 78 151.4 78 150.95 77.7 150.45 77.4 150.4 76.75
L 151.95 76.6
Q 152.05 77.1 152.65 77.1 152.9 77.1 153.1 77 153.3 76.9 153.3 76.7 153.3 76.5 153.15 76.45 153 76.35 152.6 76.3 151.65 76.15 151.35 75.85 151 75.55 151 75.1 151 74.75 151.25 74.4 151.5 74.05 152 73.85
M 156.4 73.25
L 156.6 72.15 158.2 72.15 157.95 73.25 156.4 73.25
M 156.25 73.75
L 157.85 73.75 157 77.9 155.4 77.9 156.25 73.75
M 129.65 73.75
L 131.15 73.75 131 74.55 131 74.6
Q 131.35 74.05 131.65 73.85 131.95 73.65 132.25 73.65 132.5 73.65 132.8 73.8
L 132.2 75
Q 132.05 74.95 131.9 74.95 131.45 74.95 131.15 75.3 130.85 75.65 130.7 76.35
L 130.4 77.9 128.8 77.9 129.65 73.75
M 135.4 73.75
L 136.25 73.75 136 74.9 135.15 74.9 134.85 76.35
Q 134.85 76.45 134.85 76.55 134.85 76.85 135.2 76.85 135.3 76.85 135.7 76.75
L 135.45 77.9
Q 134.75 78 134.4 78 133.75 78 133.45 77.7 133.2 77.35 133.2 77 133.2 76.85 133.3 76.3
L 133.6 74.9 133 74.9 133.25 73.75 133.85 73.75 133.95 73.1 135.75 72.2 135.4 73.75
M 177.5 73.65
Q 177.75 73.65 178.05 73.8
L 177.45 75
Q 177.3 74.95 177.15 74.95 176.7 74.95 176.4 75.3 176.1 75.65 175.95 76.35
L 175.65 77.9 174.05 77.9 174.9 73.75 176.4 73.75 176.25 74.55 176.25 74.6
Q 176.6 74.05 176.9 73.85 177.2 73.65 177.5 73.65
M 148.6 75.25
Q 148.6 74.9 148.4 74.75 148.25 74.6 147.95 74.6 147.65 74.6 147.4 74.8 147.15 75.05 147.05 75.45
L 148.6 75.45
Q 148.6 75.4 148.6 75.25
M 143 73.7
Q 142.8 73.45 142.25 73.45
L 141.7 73.45 141.05 76.65 141.75 76.65
Q 142.5 76.65 142.85 75.9 143.2 75.15 143.2 74.4 143.2 73.95 143 73.7
M 160.35 76.7
Q 160.8 76.7 161 76.2 161.25 75.75 161.25 75.3 161.25 75.05 161.05 74.9 160.9 74.7 160.7 74.7 160.3 74.7 160.05 75.15 159.8 75.55 159.8 76.05 159.8 76.35 159.95 76.5 160.1 76.7 160.35 76.7
M 172.2 75.45
Q 172.2 75.4 172.2 75.25 172.2 74.9 172 74.75 171.85 74.6 171.55 74.6 171.25 74.6 171 74.8 170.75 75.05 170.65 75.45
L 172.2 75.45
M 125.3 77
Q 125.45 77.15 125.65 77.15 125.95 77.15 126.25 76.9 126.55 76.65 126.65 76.05 125.55 76.25 125.35 76.35 125.15 76.5 125.15 76.7 125.15 76.9 125.3 77
M 118.75 74.75
Q 118.6 74.6 118.3 74.6 118 74.6 117.75 74.8 117.5 75.05 117.4 75.45
L 118.95 75.45
Q 118.95 75.4 118.95 75.25 118.95 74.9 118.75 74.75
M 81.4 76.7
Q 81.6 76.9 81.9 76.9 82.35 76.9 82.6 76.45 82.85 76 82.85 75.45 82.85 75.05 82.65 74.9 82.45 74.75 82.25 74.75 81.75 74.75 81.5 75.2 81.2 75.65 81.2 76.1 81.2 76.45 81.4 76.7
M 103.8 76.7
Q 103.8 76.9 103.95 77 104.1 77.15 104.3 77.15 104.6 77.15 104.9 76.9 105.2 76.65 105.3 76.05 104.2 76.25 104 76.35 103.8 76.5 103.8 76.7
M 58.85 73.8
Q 58.85 73.3 58.3 73.3
L 57.6 73.3 57.3 74.65 57.9 74.65
Q 58.3 74.65 58.6 74.4 58.85 74.15 58.85 73.8
M 63.75 75.45
Q 63.75 75.05 63.55 74.9 63.35 74.75 63.15 74.75 62.65 74.75 62.4 75.2 62.1 75.65 62.1 76.1 62.1 76.45 62.3 76.7 62.5 76.9 62.8 76.9 63.25 76.9 63.5 76.45 63.75 76 63.75 75.45
M 125.9 60.85
Q 125.5 61.2 125.35 61.85
L 127.65 61.85
Q 127.7 61.7 127.7 61.5 127.7 61 127.4 60.8 127.1 60.55 126.7 60.55 126.25 60.55 125.9 60.85
M 133.25 63.2
Q 133 63.4 133 63.7 133 64 133.2 64.2 133.4 64.35 133.7 64.35 134.15 64.35 134.6 64 135.05 63.6 135.2 62.7 133.55 63 133.25 63.2
M 158.9 60.55
Q 158.45 60.55 158.1 60.85 157.7 61.2 157.55 61.85
L 159.85 61.85
Q 159.9 61.7 159.9 61.5 159.9 61 159.6 60.8 159.3 60.55 158.9 60.55
M 99.95 60.7
Q 99.25 60.7 98.9 61.45 98.55 62.2 98.55 62.95 98.55 63.5 98.85 63.8 99.1 64.05 99.45 64.05 100 64.05 100.35 63.4 100.75 62.7 100.75 61.8 100.75 61.2 100.5 60.95 100.25 60.7 99.95 60.7
M 92.3 60.8
Q 92 60.55 91.6 60.55 91.15 60.55 90.8 60.85 90.4 61.2 90.25 61.85
L 92.55 61.85
Q 92.6 61.7 92.6 61.5 92.6 61 92.3 60.8
M 82.25 61.85
L 84.55 61.85
Q 84.6 61.7 84.6 61.5 84.6 61 84.3 60.8 84 60.55 83.6 60.55 83.15 60.55 82.8 60.85 82.4 61.2 82.25 61.85
M 75 58.8
L 74.15 58.8 73.15 63.6 74.25 63.6
Q 75.35 63.6 75.9 62.5 76.4 61.35 76.4 60.25 76.4 59.55 76.1 59.2 75.8 58.8 75 58.8 Z"/>
</g>
</defs>

<g transform="matrix( 1, 0, 0, 1, 0,0) ">
<use xlink:href="#Layer0_0_FILL"/>
</g>
</svg>
