
<svg xmlns="http://www.w3.org/2000/svg" version="1.1" xmlns:xlink="http://www.w3.org/1999/xlink" preserveAspectRatio="none" x="0px" y="0px" width="263px" height="46px" viewBox="0 0 263 46">
<defs>
<g id="Layer2_0_FILL">
<path fill="#911616" stroke="none" d="
M 49.15 45.8
L 49.25 37.15 30.15 37.15 49.15 45.8
M 213.55 45.65
L 213.55 45.85 232.65 37.15 232.5 37.15 213.45 37.15 213.55 45.65 Z"/>

<path fill="#A12C2C" stroke="none" d="
M 49.15 45.85
L 49.15 45.8 30.15 37.15 30 37.15 30 13.7 0 13.7 16.1 29.75 0 45.85 49.15 45.85
M 246.5 29.75
L 262.6 13.7 232.55 13.7 232.55 37.05 232.5 37.1 232.5 37.15 232.65 37.15 213.55 45.85 262.6 45.85 246.5 29.75 Z"/>

<path fill="#B84F4F" stroke="none" d="
M 232.5 37.15
L 232.5 37.1 232.5 0 30 0 30 13.7 30 37.15 30.15 37.15 49.25 37.15 213.45 37.15 232.5 37.15 Z"/>

<path fill="#CCCCCC" stroke="none" d="
M 213.45 45.85
L 213.55 45.85 213.55 45.65 213.45 45.7 213.45 45.85 Z"/>
</g>

<g id="Layer1_0_FILL">
<path fill="#FFFFFF" stroke="none" d="
M 183.3 11.95
L 189.3 11.95 189.3 9.6 173.45 9.6 173.45 11.95 179.55 11.95 179.55 22.85 172.5 22.85 172.5 25.15 190.3 25.15 190.3 22.85 183.3 22.85 183.3 11.95
M 198.8 8.35
L 195.4 8.35
Q 194.7 12.8 192.4 14.2
L 192.4 16.15
Q 193.35 15.9 194.2 15.6
L 194.2 26.15 197.4 26.15 197.4 12.4
Q 198.3 10.9 198.8 8.35
M 203.45 9.8
Q 203.65 9.1 203.8 8.35
L 200.3 8.35
Q 200.05 11.3 197.95 13
L 197.95 14.8
Q 200.3 14.2 201.7 12.8
L 201.7 26.15 205.15 26.15 205.15 22.7 210.15 22.7 210.15 20.5 205.15 20.5 205.15 17.3 209.55 17.3 209.55 15.15 205.15 15.15 205.15 12 210.6 12 210.6 9.8 203.45 9.8
M 158.3 11.15
Q 159.45 11.05 160.8 10.75
L 160.8 8.4
Q 159.15 8.9 157.4 8.9
L 152.65 8.9 152.65 11.15 155.25 11.15 155.25 13 152.5 13 152.5 15.3 155.15 15.3
Q 154.2 18.25 152.35 20.85
L 152.35 23.75
Q 154.15 22.3 155.25 20.6
L 155.25 26.15 158.3 26.15 158.3 19.5
Q 159.2 20.7 160.6 21.7
L 160.6 18.95
Q 159.15 17.25 158.35 15.3
L 160.85 15.3 160.85 13 158.3 13 158.3 11.15
M 167.05 25
Q 169.85 25.05 169.75 22.3
L 169.75 9.65 161.5 9.65 161.5 25 167.05 25
M 166.65 22.1
Q 166.65 22.95 165.85 22.95
L 164.6 22.95 164.6 11.85 166.65 11.85 166.65 22.1
M 137.25 18.35
L 134.35 18.35
Q 133.9 22.7 132.25 25.9
L 135.6 25.9
Q 137.05 22.95 137.25 18.35
M 132.65 13.4
Q 133.6 15.35 134.15 17.4
L 137.25 17.4
Q 136.65 14.9 135.8 13.4
L 132.65 13.4
M 135.7 8.65
L 132.55 8.65
Q 133.5 10.6 134 12.55
L 137.1 12.55
Q 136.65 10.45 135.7 8.65
M 149.85 8.5
Q 147.95 9.05 146.4 9.05
L 137.95 9.05 137.95 11.25 142.1 11.25 142.1 13.35 137.4 13.35 137.4 15.6 142.1 15.6 142.1 17.95 137.95 17.95 137.95 25.7 146.7 25.7
Q 149.75 25.75 149.75 22.65
L 149.75 17.95 145.55 17.95 145.55 15.6 150.4 15.6 150.4 13.35 145.55 13.35 145.55 11.25 146.55 11.25
Q 148.1 11.25 149.85 10.85
L 149.85 8.5
M 146.55 20.15
L 146.55 22.5
Q 146.65 23.75 145.4 23.65
L 141.15 23.65 141.15 20.15 146.55 20.15
M 129.7 10.5
L 124 10.5 124 8.25 120.25 8.25 120.25 10.5 118.35 10.5
Q 118.6 9.65 118.8 8.65
L 115.3 8.65
Q 114.9 12.3 112.4 13.8
L 112.4 15.75
Q 115.8 15 117.25 12.8
L 120.25 12.8 120.25 16.7 114.35 16.7 114.35 19.05 120.25 19.05 120.25 23.5 112.95 23.5 112.95 25.7 130.45 25.7 130.45 23.5 124 23.5 124 19.05 129.05 19.05 129.05 16.7 124 16.7 124 12.8 129.7 12.8 129.7 10.5
M 98.9 20.5
L 95.45 20.5
Q 95 22.7 92.65 23.8
L 92.65 25.6
Q 97.8 24.75 98.9 20.5
M 103.35 23.5
L 103.35 19.5 105.85 19.5
Q 108.9 19.6 108.8 16.55
L 108.8 12.65 94.3 12.65 94.3 19.5 99.75 19.5 99.75 23
Q 99.85 24.2 98.65 24.1
L 98.05 24.1 98.05 26.15 100.45 26.15
Q 103.35 26.25 103.35 23.5
M 105.55 14.8
L 105.55 16.4
Q 105.6 17.4 104.7 17.3
L 97.55 17.3 97.55 14.8 105.55 14.8
M 107.35 20.5
L 103.9 20.5
Q 105 24.75 110.15 25.6
L 110.15 23.8
Q 107.8 22.7 107.35 20.5
M 110.4 9.35
L 103.45 9.35 103.45 8.35 99.35 8.35 99.35 9.35 92.5 9.35 92.5 11.6 110.4 11.6 110.4 9.35
M 80.55 8.35
L 76.95 8.35 76.95 12.85 72.4 12.85 72.4 15.15 76.95 15.15 76.95 22.65
Q 77.05 23.8 75.95 23.75
L 72.4 23.75 72.4 25.9 77.9 25.9
Q 80.45 25.85 80.55 23.5
L 80.55 8.35
M 85.95 8.35
L 82.35 8.35 82.35 23.5
Q 82.4 25.85 84.9 25.9
L 90.4 25.9 90.4 23.75 86.8 23.75
Q 85.85 23.9 85.95 22.7
L 85.95 15.15 90.4 15.15 90.4 12.85 85.95 12.85 85.95 8.35
M 69.75 16.4
L 66 16.4 66 13.25 62.55 13.25 62.55 16.4 58.9 16.4 58.9 18.75 62.55 18.75 62.55 23.4 58.35 23.4 58.35 25.5 70.45 25.5 70.45 23.4 66 23.4 66 18.75 69.75 18.75 69.75 16.4
M 70.55 12
L 70.55 9.65 60.95 9.65
Q 61.1 9.05 61.15 8.35
L 57.55 8.35
Q 57.5 9.05 57.25 9.65
L 52.9 9.65 52.9 12 56.4 12
Q 55.25 14.45 52.5 16.05
L 52.5 18.25
Q 52.65 18.2 52.9 18.1 54 17.65 54.55 17.4
L 54.55 26.25 57.8 26.25 57.8 15.3
Q 59.35 13.9 60.15 12
L 70.55 12 Z"/>
</g>
</defs>

<g transform="matrix( 1, 0, 0, 1, 0,0) ">
<use xlink:href="#Layer2_0_FILL"/>
</g>

<g transform="matrix( 1, 0, 0, 1, 0,0) ">
<use xlink:href="#Layer1_0_FILL"/>
</g>
</svg>
