
<svg xmlns="http://www.w3.org/2000/svg" version="1.1" xmlns:xlink="http://www.w3.org/1999/xlink" preserveAspectRatio="none" x="0px" y="0px" width="264px" height="46px" viewBox="0 0 264 46">
<defs>
<g id="Layer2_0_FILL">
<path fill="#A12C2C" stroke="none" d="
M 49.85 45.85
L 49.85 45.8 30.85 37.15 30.7 37.15 30.7 13.7 0.7 13.7 16.8 29.75 0.7 45.85 49.85 45.85
M 247.2 29.75
L 263.3 13.7 233.25 13.7 233.25 37.05 233.2 37.1 233.2 37.15 233.35 37.15 214.25 45.85 263.3 45.85 247.2 29.75 Z"/>

<path fill="#911616" stroke="none" d="
M 49.85 45.8
L 49.95 37.15 30.85 37.15 49.85 45.8
M 214.15 37.15
L 214.25 45.65 214.25 45.85 233.35 37.15 233.2 37.15 214.15 37.15 Z"/>

<path fill="#B84F4F" stroke="none" d="
M 233.2 37.15
L 233.2 37.1 233.2 0 30.7 0 30.7 13.7 30.7 37.15 30.85 37.15 49.95 37.15 214.15 37.15 233.2 37.15 Z"/>

<path fill="#CCCCCC" stroke="none" d="
M 214.25 45.85
L 214.25 45.65 214.15 45.7 214.15 45.85 214.25 45.85 Z"/>
</g>

<g id="Layer1_0_FILL">
<path fill="#FFFFFF" stroke="none" d="
M 207.6 18.4
Q 208.75 18.4 209.85 18
L 209.85 15.7
Q 208.45 16.3 207.15 16.25
L 204.3 16.25 204.3 18.4
Q 204.65 23.2 210.65 25.5
L 210.65 23.5
Q 207.75 21.6 207.35 18.4
L 207.6 18.4
M 210.15 9.2
L 203.6 9.2 203.6 8.2 199.55 8.2 199.55 9.2 192.75 9.2 192.75 12.85 195.15 12.85 195.15 14.6 199.1 14.6
Q 197.05 15.9 193.05 16.6
L 193.05 18.4
Q 197.45 17.85 199.85 16.95 199.95 16.95 200 17 200.1 17 200.1 17.1 196.95 19.25 192.85 20.15
L 192.85 22
Q 198.4 21.15 201.05 19.35 201.05 19.45 201.1 19.6 201.1 19.75 201.1 19.8 197.85 22.5 192.75 23.8
L 192.75 25.5
Q 198.4 24.5 201.1 22.85
L 201.1 23.2
Q 201.2 24.05 200.25 24.05
L 198.85 24.05 198.85 26.15 201.6 26.15
Q 204.4 26.25 204.3 23.4
L 204.3 19.5
Q 204.3 16.85 202.2 15.7 203 15.2 203.7 14.6
L 207.85 14.6 207.85 12.85 210.15 12.85 210.15 9.2
M 206.95 11.4
L 206.95 12.5 195.95 12.5 195.95 11.4 206.95 11.4
M 172.6 9.25
L 172.6 11.45 174.25 11.45 174.25 15.3 172.75 15.3 172.75 17.5 174.25 17.5 174.25 22.5
Q 173.4 22.5 172.45 22.65
L 172.45 25.2
Q 176.1 24.75 179.25 23.55
L 179.25 21.4
Q 178.2 21.6 177.45 21.85
L 177.45 17.5 178.75 17.5 178.75 15.3 177.45 15.3 177.45 11.45 179 11.45 179 9.25 172.6 9.25
M 188.15 16.6
L 190.4 16.6 190.4 14.45 179.3 14.45 179.3 16.6 180.95 16.6 180.95 17.65
Q 181.1 22.15 179.1 24.2
L 179.1 26.3
Q 184.45 24.05 184.1 17.65
L 184.1 16.6 185 16.6 185 23.55
Q 185 25.9 187.5 25.9
L 188.7 25.9
Q 190.95 26 190.9 23.8
L 190.9 22.8 188.9 22.8 188.9 23.55
Q 188.9 23.95 188.6 23.95
L 188.45 23.95
Q 188.15 23.95 188.15 23.55
L 188.15 16.6
M 189.7 11.3
L 189.7 9.1 180.15 9.1 180.15 11.3 189.7 11.3
M 159.85 11.95
L 159.85 9.9 152.65 9.9 152.65 12.1 156.9 12.1
Q 156.8 15.45 156.25 17.3 155.8 15.45 155.55 12.95
L 152.65 12.95
Q 153.05 18 154.7 20.7 154 21.85 152.5 23.5
L 152.5 25.9
Q 154.7 24.35 156.25 22.8 157.3 24.05 160.1 25.9
L 160.1 23.55
Q 158.7 22.15 157.75 20.75 159.45 17.95 159.85 11.95
M 170.35 12.25
L 164.8 12.25
Q 164.7 10.35 164.8 8.2
L 161.35 8.2
Q 161.35 10.35 161.4 12.25
L 160 12.25 160 14.45 161.5 14.45
Q 161.75 17.5 162.05 19.6 162.3 20.7 162.6 21.6 161.65 22.25 160.95 22.65 160.65 22.85 160.5 22.95
L 160.5 25
Q 162.2 24.35 163.45 23.75 165.1 26.25 167.75 26.25 170.8 26.25 170.8 22.95
L 168.45 22.95
Q 168.55 24.05 167.6 24.05 166.5 24.05 165.9 22.15 168.7 19.9 170.25 15.35
L 167.05 15.35
Q 166.2 17.8 165.15 19.1 165 17.25 164.95 16.3 164.85 15.15 164.8 14.45
L 170.35 14.45 170.35 12.25
M 168.3 8.65
L 165.55 8.65
Q 166.2 10.05 166.4 11.7
L 169.3 11.7
Q 169 9.9 168.3 8.65
M 136.5 18
L 133.9 18
Q 133.6 22.5 132.15 25.9
L 135.15 25.9
Q 136.35 22.55 136.5 18
M 135.35 13.35
L 132.75 13.35
Q 133.6 15.45 133.75 17.15
L 136.5 17.15
Q 136.2 15.15 135.35 13.35
M 135.15 8.65
L 132.6 8.65
Q 133.4 10.9 133.55 12.5
L 136.25 12.5
Q 136.1 10.5 135.15 8.65
M 143.05 12
L 143.05 9.9 141.35 9.9 141.35 8.4 138.2 8.4 138.2 9.9 136.5 9.9 136.5 12 137.2 12 137.2 13.5
Q 137.2 17.85 137.05 19.9 136.8 21.85 136.25 23.5
L 136.25 26.3
Q 139.85 23.25 139.85 16.05
L 140.4 16.05 140.4 23
Q 140.5 24.05 139.55 23.95
L 139.1 23.95 139.1 25.9 140.5 25.9
Q 143.05 26 143 23.55
L 143 14.1 139.85 14.1
Q 139.85 13.9 139.95 13.4 139.95 12.95 139.95 12.7
L 139.95 12 143.05 12
M 150.55 11.75
L 150.55 9.65 147.2 9.65
Q 147.2 9.5 147.3 9.25 147.45 8.75 147.45 8.4
L 144.45 8.4
Q 144.3 10.85 143.15 12.15
L 143.15 13.9
Q 143.55 13.75 143.85 13.65
L 143.85 14.9 146.95 14.9
Q 146.75 16.05 145.8 17.15
L 145.8 18.1 143.4 18.1 143.4 20.2 145.8 20.2 145.8 23.2
Q 145.9 24.05 144.95 24.05
L 144.4 24.05 144.4 26 146.25 26
Q 148.7 26.05 148.6 23.55
L 148.6 20.2 150.65 20.2 150.65 18.1 148.6 18.1 148.6 17.55
Q 149.65 16.45 150 14.9
L 150 12.8 145.35 12.8
Q 145.9 12.3 146.35 11.75
L 150.55 11.75
M 119 11.7
L 112.75 11.7 112.75 13.9 115.65 13.9
Q 115 16.85 112.45 19.45
L 112.45 21.55
Q 113.6 20.9 114.45 20.35
L 114.45 26.3 117.6 26.3 117.6 20.05
Q 118.3 20.6 119.15 21.05
L 119.15 18.95
Q 118.2 18 117.6 17.15 118.2 16.15 119 13.75
L 119 11.7
M 116.65 8.4
L 113.9 8.4
Q 114.55 9.75 114.8 11.3
L 117.65 11.3
Q 117.45 10.05 116.65 8.4
M 126.1 12.15
L 123.05 12.15 123.05 16.05
Q 123.15 18.25 122.45 19.9
L 122.45 10.9 126.9 10.9 126.9 20.3 129.8 20.3 129.8 8.8 119.45 8.8 119.45 20.3 122.2 20.3
Q 121.25 22.25 118.7 24.2
L 118.7 26.4
Q 122.45 24.35 123.75 22.8
L 123.75 23.4
Q 123.7 26.05 126.2 26
L 128.3 26
Q 130.55 26.05 130.5 23.8
L 130.5 22.65 128.2 22.65 128.2 23.1
Q 128.2 23.95 127.5 23.95
L 127.3 23.95
Q 126.75 24.05 126.75 23.2
L 126.75 18.5 125.9 18.5
Q 126.1 17.3 126.1 15.85
L 126.1 12.15
M 102.6 9.9
L 102.6 8.25 99.15 8.25 99.15 9.9 93.05 9.9 93.05 21.7 99.15 21.7 99.15 22.55
Q 99.1 26 102.35 25.9
L 107.45 25.9
Q 110.35 26 110.25 23
L 110.25 22.15 107.6 22.15 107.6 22.85
Q 107.6 23.9 106.6 23.9
L 104 23.9
Q 102.5 23.95 102.6 22.4
L 102.6 21.7 105.35 21.7
Q 109 21.85 108.85 18.1
L 108.85 9.9 102.6 9.9
M 102.6 12.1
L 105.5 12.1 105.5 14.6 102.6 14.6 102.6 12.1
M 105.5 16.75
L 105.5 18.35
Q 105.55 19.6 104.25 19.5
L 102.6 19.5 102.6 16.75 105.5 16.75
M 96.25 12.1
L 99.15 12.1 99.15 14.6 96.25 14.6 96.25 12.1
M 99.15 16.75
L 99.15 19.5 96.25 19.5 96.25 16.75 99.15 16.75
M 76.95 18
L 74.15 18
Q 73.7 22.8 72.35 25.9
L 75.55 25.9
Q 76.8 22.65 76.95 18
M 75.9 13.25
L 72.9 13.25
Q 73.75 15.5 73.9 17.1
L 76.95 17.1
Q 76.6 15.45 75.9 13.25
M 77.65 14.6
L 77.65 16.15
Q 82.6 16.05 83.7 12.3
L 80.8 12.3
Q 79.95 14.25 77.65 14.6
M 75.65 8.65
L 72.65 8.65
Q 73.45 10.6 73.75 12.4
L 76.75 12.4
Q 76.25 10.05 75.65 8.65
M 82.3 15.05
L 82.3 17 77.45 17 77.45 19.2 79.1 19.2
Q 78.9 21.75 77.3 23.55
L 77.3 25.6
Q 81.4 23.95 81.9 19.2
L 82.3 19.2 82.3 26.25 85.4 26.25 85.4 19.2 85.7 19.2
Q 86.1 23.9 90.5 25.5
L 90.5 23.55
Q 88.75 21.55 88.55 19.2
L 90.35 19.2 90.35 17 85.4 17 85.4 15.05 82.3 15.05
M 87.15 12.65
L 90 12.65 90 9.2 77.65 9.2 77.65 12.65 80.55 12.65 80.55 11.3 87.15 11.3 87.15 12.65
M 86.95 12.3
L 84.1 12.3
Q 85.25 16 89.85 16.15
L 89.85 14.6
Q 88 14.2 87.15 12.65 86.95 12.55 86.95 12.3
M 56.9 12.15
L 54.15 12.15
Q 53.6 14.75 52.3 16.75
L 55.55 16.75
Q 56.75 14.45 56.9 12.15
M 55.7 8.35
L 52.75 8.35
Q 53.55 9.6 53.85 11.4
L 56.95 11.4
Q 56.5 9.5 55.7 8.35
M 63.4 20.2
L 63.4 19.75 59.8 19.75 59.8 20.2
Q 60.25 23.5 52.5 24.35
L 52.5 26.15
Q 58.45 26.05 61.65 23.95 64.7 26 70.35 26.15
L 70.35 24.35
Q 62.9 23.1 63.4 20.2
M 68.7 22.65
L 68.7 17 54.45 17 54.45 22.65 57.75 22.65 57.75 19.05 65.35 19.05 65.35 22.65 68.7 22.65
M 61.95 11.45
L 61.95 11.85
Q 61.9 14.25 57.05 15.2
L 57.05 16.85
Q 61.6 16.75 63.7 14.75 65.65 16.6 70.55 16.85
L 70.55 15.15
Q 65.55 14.1 65.4 11.95
L 65.4 11.45 61.95 11.45
M 61.35 10.9
L 67.15 10.9 67.15 12.65 70.1 12.65 70.1 9.05 62.5 9.05
Q 62.65 8.65 62.75 8.2
L 59.65 8.2
Q 59.3 10 57.35 11.15
L 57.35 12.7
Q 60 12.4 61.35 10.9 Z"/>
</g>
</defs>

<g transform="matrix( 1, 0, 0, 1, 0,0) ">
<use xlink:href="#Layer2_0_FILL"/>
</g>

<g transform="matrix( 1, 0, 0, 1, 0,0) ">
<use xlink:href="#Layer1_0_FILL"/>
</g>
</svg>
