
<svg xmlns="http://www.w3.org/2000/svg" version="1.1" xmlns:xlink="http://www.w3.org/1999/xlink" preserveAspectRatio="none" x="0px" y="0px" width="225px" height="96px" viewBox="0 0 225 96">
<defs>
<g id="Layer2_0_FILL">
<path fill="#FFFFFF" stroke="none" d="
M 77.5 17
L 77.5 4.5 67.5 4.5 67.5 17 77.5 17
M 70 14.5
L 70 7 75 7 75 14.5 70 14.5
M 62.5 7
L 62.5 9.5 55 9.5 55 17 65 17 65 14.5 57.5 14.5 57.5 12 65 12 65 4.5 55 4.5 55 7 62.5 7
M 112.4 34.75
L 109.9 34.75 109.9 37.25 112.4 37.25 112.4 34.75
M 112.4 27.25
L 112.4 24.75 109.9 24.75 109.9 27.25 112.4 27.25
M 112.4 32.25
L 112.4 29.75 109.9 29.75 109.9 32.25 112.4 32.25
M 82.5 17
L 85 17 85 4.5 80 4.5 80 7 82.5 7 82.5 17
M 97.5 12
L 97.5 4.5 87.5 4.5 87.5 7 95 7 95 9.5 87.5 9.5 87.5 17 97.5 17 97.5 14.5 90 14.5 90 12 97.5 12
M 107.5 9.5
L 107.5 12 115 12 115 9.5 107.5 9.5
M 135 12
L 135 4.5 125 4.5 125 7 132.5 7 132.5 9.5 125 9.5 125 17 135 17 135 14.5 127.5 14.5 127.5 12 135 12
M 147.5 17
L 147.5 4.5 137.5 4.5 137.5 17 147.5 17
M 145 7
L 145 14.5 140 14.5 140 7 145 7
M 150 4.5
L 150 7 152.5 7 152.5 17 155 17 155 4.5 150 4.5
M 165 4.5
L 165 12 160 12 160 4.5 157.5 4.5 157.5 14.5 165 14.5 165 17 167.5 17 167.5 4.5 165 4.5 Z"/>

<path fill="#911616" stroke="none" d="
M 51.15 95.3
L 51.25 86.65 32.15 86.65 51.15 95.3
M 190.25 86.65
L 171.2 86.65 171.3 95.35 190.4 86.65 190.25 86.65 Z"/>

<path fill="#A12C2C" stroke="none" d="
M 32 86.65
L 32 63.2 2 63.2 18.1 79.25 2 95.35 51.15 95.35 51.15 95.3 32.15 86.65 32 86.65
M 190.25 86.6
L 190.25 86.65 190.4 86.65 171.3 95.35 220.35 95.35 204.25 79.25 220.35 63.2 190.3 63.2 190.3 86.55 190.25 86.6 Z"/>

<path fill="#B84F4F" stroke="none" d="
M 190.25 86.6
L 190.25 49.5 32 49.5 32 63.2 32 86.65 32.15 86.65 51.25 86.65 171.2 86.65 190.25 86.65 190.25 86.6 Z"/>
</g>

<g id="Layer1_0_FILL">
<path fill="#FFFFFF" stroke="none" d="
M 158.2 58.2
L 155.1 58.2
Q 155.55 59.15 155.95 60.3
L 159.05 60.3
Q 158.85 59.3 158.2 58.2
M 169.05 66.95
L 169.05 64.6 156.1 64.6 156.1 66.9 164.3 66.9
Q 162.6 68.05 161.1 68.6
L 161.1 69.2 153.65 69.2 153.65 71.4 161.1 71.4 161.1 73.05
Q 161.15 74.15 160.1 74.05
L 158.5 74.05 158.5 76.2 161.55 76.2
Q 164.85 76.2 164.85 72.9
L 164.85 71.4 171.4 71.4 171.4 69.2 164.85 69.2 164.85 69.05
Q 166.95 68.35 169.05 66.95
M 170 58.2
L 166.65 58.2
Q 166.35 59.55 165.55 60.85
L 153.9 60.85 153.9 64.2 157.05 64.2 157.05 62.95 167.95 62.95 167.95 64.2 171.1 64.2 171.1 60.85 168.6 60.85
Q 169.4 59.75 170 58.2
M 164.3 60.3
Q 163.85 59 163.35 58.2
L 160.25 58.2
Q 160.7 59.15 161.1 60.3
L 164.3 60.3
M 151.5 74.05
Q 145.45 71.4 144.45 64.2
L 151.1 64.2 151.1 61.8 144.45 61.8 144.45 58.3 140.55 58.3 140.55 61.8 133.9 61.8 133.9 64.2 140.45 64.2
Q 139.7 71.35 133.5 74.05
L 133.5 76.2
Q 140.1 74.3 142.6 69.6 144.7 74.05 151.5 76.2
L 151.5 74.05
M 120.15 59.4
L 120.15 61.55 121.1 61.55 121.1 67.45 124.2 67.45 124.2 68.45 120 68.45 120 70.65 121.5 70.65
Q 121.25 72.9 120 74
L 120 75.95
Q 123.6 74.45 124.05 70.65
L 124.2 70.65 124.2 76.2 127.2 76.2 127.2 70.65 127.25 70.65
Q 127.65 74.45 131.4 75.95
L 131.4 74.05
Q 129.85 72.75 129.75 70.65
L 131.5 70.65 131.5 68.45 127.2 68.45 127.2 67.45 127.4 67.45
Q 130.45 67.6 130.3 64.7
L 130.3 61.55 131.4 61.55 131.4 59.4 130.3 59.4 130.3 58.15 127.35 58.15 127.35 59.4 124.05 59.4 124.05 58.15 121.1 58.15 121.1 59.4 120.15 59.4
M 124.05 61.55
L 127.35 61.55 127.35 62.5 124.05 62.5 124.05 61.55
M 127.35 64.4
L 127.35 64.55
Q 127.4 65.45 126.5 65.4
L 124.05 65.4 124.05 64.4 127.35 64.4
M 113.85 58.3
L 113.85 60.55 113.3 60.55 113.3 62.65 113.85 62.65 113.85 66.35
Q 113.85 70.45 115.15 72.65 115.1 72.75 114.85 72.95 114.05 73.75 113.5 74.15
L 113.5 76.2
Q 115.4 75.1 116.55 74.2 117.8 75.1 119.7 76.2
L 119.7 74.15
Q 119.05 73.75 118.35 72.95 118.15 72.75 118.05 72.65 119.6 70.45 119.6 66.35
L 119.6 62.65 120 62.65 120 60.55 119.6 60.55 119.6 58.3 117.2 58.3 117.2 60.55 116.25 60.55 116.25 58.3 113.85 58.3
M 117.2 62.65
L 117.2 66.4
Q 117.2 68.85 116.65 70.3 116.25 69 116.25 66.4
L 116.25 62.65 117.2 62.65
M 99.7 58.3
L 96.4 58.3
Q 95.55 62.75 93.3 64.15
L 93.3 66.1
Q 94.4 65.85 95.15 65.45
L 95.15 76.1 98.35 76.1 98.35 62.35
Q 99.05 60.7 99.7 58.3
M 106.65 58.15
L 102.95 58.15
Q 102.95 58.35 102.9 58.85 102.9 59.3 102.8 59.55
L 99.55 59.55 99.55 61.7 102.35 61.7
Q 102.1 62.9 101.9 63.9
L 98.85 63.9 98.85 66.1 101.1 66.1
Q 100.7 66.8 100.45 67.6
L 100.45 69.85 106.8 69.85
Q 106 71.4 105.3 72.1 103.3 71.65 99.9 71.25
L 99.9 73.5
Q 105.3 74.55 110.1 76.55
L 110.1 73.5
Q 109.75 73.35 109.15 73.2 108.5 72.95 108.2 72.9 109.3 72.05 110.7 69.85
L 110.7 67.6 103.6 67.6
Q 103.75 67.35 104 66.8 104.2 66.35 104.3 66.1
L 111.65 66.1 111.65 63.9 105.15 63.9
Q 105.55 62.9 105.8 61.7
L 111.25 61.7 111.25 59.55 106.35 59.55
Q 106.4 58.85 106.65 58.15
M 91.15 72.8
L 91.15 58.6 73.9 58.6 73.9 75.85 88.15 75.85
Q 91.25 75.95 91.15 72.8
M 87.8 72.6
Q 87.8 73.85 86.55 73.85
L 77.25 73.85 77.25 60.8 87.8 60.8 87.8 72.6
M 84.2 68.2
Q 84.7 69.4 84.85 70.4
L 87.2 70.4
Q 86.95 69.2 86.4 68.2
L 84.2 68.2
M 87.1 64
L 87.1 61.95 77.9 61.95 77.9 64 80.7 64 80.7 65.8 78.2 65.8 78.2 67.9 80.7 67.9 80.7 70.7 77.75 70.7 77.75 72.8 87.25 72.8 87.25 70.7 84 70.7 84 67.9 86.8 67.9 86.8 65.8 84 65.8 84 64 87.1 64
M 70.8 61
L 64.3 61 64.3 58.15 60.7 58.15 60.7 61 54.2 61 54.2 71.4 60.7 71.4 60.7 76.35 64.3 76.35 64.3 71.4 67.6 71.4
Q 70.95 71.65 70.8 67.75
L 70.8 61
M 67.5 63.3
L 67.5 67.8
Q 67.6 69.15 66.4 69.15
L 64.3 69.15 64.3 63.3 67.5 63.3
M 57.5 63.3
L 60.7 63.3 60.7 69.15 57.5 69.15 57.5 63.3 Z"/>
</g>
</defs>

<g transform="matrix( 1, 0, 0, 1, 0,0) ">
<use xlink:href="#Layer2_0_FILL"/>
</g>

<g transform="matrix( 1, 0, 0, 1, 0,0) ">
<use xlink:href="#Layer1_0_FILL"/>
</g>
</svg>
