
<svg xmlns="http://www.w3.org/2000/svg" version="1.1" xmlns:xlink="http://www.w3.org/1999/xlink" preserveAspectRatio="none" x="0px" y="0px" width="263px" height="96px" viewBox="0 0 263 96">
<defs>
<g id="Layer0_0_FILL">
<path fill="#FFFFFF" stroke="none" d="
M 103.75 17
L 103.75 4.5 93.75 4.5 93.75 17 103.75 17
M 101.25 7
L 101.25 14.5 96.25 14.5 96.25 7 101.25 7
M 101.1 73.55
Q 100.7 73.1 99.85 73.1 98.5 73.1 97.65 74
L 97.65 73.95 98.3 70.85 95.9 70.85 94.05 79.45 96.45 79.45 97.05 76.75
Q 97.25 75.8 97.65 75.35 98.05 74.85 98.55 74.85 99.05 74.85 99.05 75.35 99.05 75.5 98.8 76.55
L 98.2 79.45 100.6 79.45 101.3 76.05
Q 101.55 74.95 101.55 74.6 101.55 73.95 101.1 73.55
M 95.3 54.15
L 92.6 54.15 90.75 62.75 93.45 62.75 95.3 54.15
M 135.75 73.25
L 135.55 74.1
Q 134.8 73.1 133.65 73.1 132.3 73.1 131.4 74.2 130.5 75.3 130.5 76.75 130.5 77.85 131.1 78.55 131.65 79.2 132.6 79.2 133.65 79.2 134.45 78.4
L 134.25 79.35
Q 134.15 79.95 133.85 80.25 133.55 80.55 133.1 80.55 132.45 80.55 132.45 79.9
L 130.15 79.6
Q 130.15 79.7 130.15 79.9 130.15 80.5 130.55 81.05 131 81.6 131.6 81.8 132.15 81.95 133.25 81.95 134.75 81.95 135.55 81.4 136.35 80.8 136.7 79.1
L 137.95 73.25 135.75 73.25
M 135 75.55
Q 135 76.2 134.7 76.9 134.35 77.6 133.7 77.6 133.3 77.6 133.1 77.35 132.85 77.1 132.85 76.7 132.85 75.9 133.25 75.3 133.65 74.65 134.2 74.65 134.55 74.65 134.8 74.95 135 75.15 135 75.55
M 128.75 73.95
Q 128 73.1 126.35 73.1 125.1 73.1 124.25 73.6 123.35 74.1 122.9 74.95 122.4 75.85 122.4 76.8 122.4 78 123.2 78.8 123.95 79.6 125.6 79.6 126.9 79.6 127.8 79.1 128.65 78.55 129.1 77.65 129.55 76.75 129.55 75.9 129.55 74.8 128.75 73.95
M 127.2 75.8
Q 127.2 76.6 126.8 77.3 126.4 78 125.75 78 125.35 78 125.05 77.65 124.75 77.3 124.75 76.8 124.75 76.05 125.1 75.4 125.5 74.7 126.25 74.7 126.6 74.7 126.9 74.95 127.2 75.2 127.2 75.8
M 134.4 58.25
L 136.6 58.5
Q 136.8 58.05 137.05 57.95 137.3 57.8 137.7 57.8 138.1 57.8 138.35 57.95 138.6 58.05 138.6 58.3 138.6 58.45 138.5 58.75 138.15 58.85 137.15 58.95 135.95 59.05 135.3 59.2 134.6 59.4 134.15 59.8 133.7 60.25 133.7 61.05 133.7 61.8 134.2 62.35 134.75 62.9 135.9 62.9 137.05 62.9 138 62.05 138 62.4 138.1 62.75
L 140.4 62.75
Q 140.25 62.3 140.25 61.9 140.25 61.4 140.55 60.1 140.9 58.8 140.9 58.2 140.9 57.3 140.25 56.85 139.6 56.4 137.75 56.4 136.15 56.4 135.35 56.85 134.6 57.35 134.4 58.25
M 136.25 61.45
Q 136.05 61.25 136.05 60.95 136.05 60.65 136.3 60.45 136.6 60.25 138.25 59.95 138.1 60.85 137.65 61.25 137.2 61.6 136.75 61.6 136.45 61.6 136.25 61.45
M 132.85 58.65
Q 132.9 58.3 132.9 57.95 132.9 57.3 132.5 56.85 132.05 56.4 131.25 56.4 130.6 56.4 130.05 56.6 129.5 56.85 128.8 57.45 128.65 56.95 128.2 56.65 127.75 56.4 127.15 56.4 125.9 56.4 124.85 57.45
L 124.85 57.4 125.05 56.55 122.8 56.55 121.45 62.75 123.85 62.75 124.5 59.75
Q 124.7 58.9 125.1 58.5 125.5 58.15 125.9 58.15 126.35 58.15 126.35 58.6 126.35 58.7 126.35 58.9 126.3 59.1 126.1 60.15
L 125.5 62.75 127.9 62.75 128.5 60
Q 128.7 59 129.05 58.6 129.4 58.15 129.95 58.15 130.4 58.15 130.4 58.6 130.4 58.7 130.4 58.9 130.35 59.1 130.15 60.1
L 129.55 62.75 131.95 62.75 132.85 58.65
M 159.9 70.85
L 157.2 70.85 156.25 75.55
Q 156 76.65 155.55 77.05 155.1 77.45 154.45 77.45 153.25 77.45 153.25 76.4 153.25 76.05 153.3 75.7
L 154.35 70.85 151.7 70.85 150.8 75
Q 150.65 75.75 150.65 76.55 150.65 77.2 150.85 77.75 151.05 78.3 151.5 78.75 151.95 79.15 152.6 79.4 153.3 79.6 154.4 79.6 156.35 79.6 157.35 78.75 158.4 77.85 158.75 76.05
L 159.9 70.85
M 146.1 73.25
L 143.7 73.25 141.6 77.55 141.55 77.55 141.25 73.25 138.9 73.25 140.1 79.45
Q 139.7 80.3 139 80.3 138.6 80.3 138.2 80.1
L 138 81.75
Q 138.85 81.95 139.75 81.95 140.55 81.95 141.05 81.6 141.6 81.25 142.2 80.25
L 146.1 73.25
M 150.5 56.55
L 148.1 56.55 146.75 62.75 149.15 62.75 150.5 56.55
M 145.95 54.25
L 143.3 55.55 143.05 56.55 142.2 56.55 141.85 58.25 142.7 58.25 142.25 60.35
Q 142.1 61.2 142.1 61.35 142.1 61.95 142.5 62.4 142.95 62.9 143.95 62.9 144.45 62.9 145.5 62.75
L 145.85 61.05
Q 145.3 61.15 145.15 61.15 144.55 61.15 144.55 60.75 144.55 60.6 144.6 60.45
L 145.1 58.25 146.35 58.25 146.7 56.55 145.45 56.55 145.95 54.25
M 151 54.15
L 148.6 54.15 148.25 55.8 150.65 55.8 151 54.15
M 155 56.4
Q 153.75 56.4 152.9 56.9 152 57.4 151.55 58.25 151.05 59.15 151.05 60.1 151.05 61.3 151.85 62.1 152.6 62.9 154.25 62.9 155.55 62.9 156.45 62.4 157.3 61.85 157.75 60.95 158.2 60.05 158.2 59.2 158.2 58.1 157.4 57.25 156.65 56.4 155 56.4
M 154.9 58
Q 155.25 58 155.55 58.25 155.85 58.5 155.85 59.1 155.85 59.9 155.45 60.6 155.05 61.3 154.4 61.3 154 61.3 153.7 60.95 153.4 60.6 153.4 60.1 153.4 59.35 153.75 58.7 154.15 58 154.9 58
M 118.1 79.45
L 120.5 79.45 122.35 70.85 119.95 70.85 118.1 79.45
M 114.35 73.1
Q 113.1 73.1 112.25 73.6 111.35 74.1 110.9 74.95 110.4 75.85 110.4 76.8 110.4 78 111.2 78.8 111.95 79.6 113.6 79.6 114.9 79.6 115.8 79.1 116.65 78.55 117.1 77.65 117.55 76.75 117.55 75.9 117.55 74.8 116.75 73.95 116 73.1 114.35 73.1
M 114.25 74.7
Q 114.6 74.7 114.9 74.95 115.2 75.2 115.2 75.8 115.2 76.6 114.8 77.3 114.4 78 113.75 78 113.35 78 113.05 77.65 112.75 77.3 112.75 76.8 112.75 76.05 113.1 75.4 113.5 74.7 114.25 74.7
M 105.45 74.2
L 105.4 74.15 105.65 73.25 103.4 73.25 102.05 79.45 104.45 79.45 105.05 76.75
Q 105.25 75.8 105.65 75.35 106.05 74.85 106.55 74.85 107.05 74.85 107.05 75.35 107.05 75.5 106.8 76.55
L 106.2 79.45 108.6 79.45 109.3 76.05
Q 109.55 74.95 109.55 74.6 109.55 73.95 109.1 73.55 108.7 73.1 107.85 73.1 106.45 73.1 105.45 74.2
M 102.4 59.35
Q 102.65 58.25 102.65 57.9 102.65 57.25 102.2 56.85 101.8 56.4 100.95 56.4 99.55 56.4 98.55 57.5
L 98.5 57.45 98.75 56.55 96.5 56.55 95.15 62.75 97.55 62.75 98.15 60.05
Q 98.35 59.1 98.75 58.65 99.15 58.15 99.65 58.15 100.15 58.15 100.15 58.65 100.15 58.8 99.9 59.85
L 99.3 62.75 101.7 62.75 102.4 59.35
M 107.45 55.65
Q 107.6 55.55 107.85 55.55 108.25 55.55 108.7 55.7
L 109.1 54.3
Q 107.9 54 107.05 54 106.5 54 106.1 54.15 105.7 54.25 105.45 54.55 105.2 54.8 105.1 55.15 104.95 55.45 104.75 56.55
L 103.85 56.55 103.5 58.25 104.4 58.25 103.4 62.75 105.8 62.75 106.75 58.25 107.9 58.25 108.25 56.55 107.15 56.55
Q 107.3 55.8 107.45 55.65
M 120.35 58.35
Q 120.6 58.35 120.85 58.4
L 121.75 56.6
Q 121.3 56.4 120.9 56.4 120.4 56.4 120 56.65 119.55 56.95 119 57.8
L 119 57.75 119.25 56.55 117.05 56.55 115.7 62.75 118.1 62.75 118.6 60.4
Q 118.8 59.35 119.25 58.85 119.7 58.35 120.35 58.35
M 114.75 60.95
Q 115.2 60.05 115.2 59.2 115.2 58.1 114.4 57.25 113.65 56.4 112 56.4 110.75 56.4 109.9 56.9 109 57.4 108.55 58.25 108.05 59.15 108.05 60.1 108.05 61.3 108.85 62.1 109.6 62.9 111.25 62.9 112.55 62.9 113.45 62.4 114.3 61.85 114.75 60.95
M 111.9 58
Q 112.25 58 112.55 58.25 112.85 58.5 112.85 59.1 112.85 59.9 112.45 60.6 112.05 61.3 111.4 61.3 111 61.3 110.7 60.95 110.4 60.6 110.4 60.1 110.4 59.35 110.75 58.7 111.15 58 111.9 58
M 211.7 73.25
L 209.35 73.25 210.55 79.45
Q 210.15 80.3 209.45 80.3 209.05 80.3 208.65 80.1
L 208.45 81.75
Q 209.3 81.95 210.2 81.95 211 81.95 211.5 81.6 212.05 81.25 212.65 80.25
L 216.55 73.25 214.15 73.25 212.05 77.55 212 77.55 211.7 73.25
M 205.15 73.25
L 204.3 73.25 203.95 74.95 204.8 74.95 204.35 77.05
Q 204.2 77.9 204.2 78.05 204.2 78.65 204.6 79.1 205.05 79.6 206.05 79.6 206.55 79.6 207.6 79.45
L 207.95 77.75
Q 207.4 77.85 207.25 77.85 206.65 77.85 206.65 77.45 206.65 77.3 206.7 77.15
L 207.2 74.95 208.45 74.95 208.8 73.25 207.55 73.25 208.05 70.95 205.4 72.25 205.15 73.25
M 215.1 58.7
Q 214.95 57.55 214.15 56.95 213.3 56.4 211.85 56.4 209.9 56.4 208.8 57.5 207.75 58.65 207.75 60.2 207.75 62.9 211 62.9 213.95 62.9 214.75 60.45
L 212.55 60.25
Q 212.05 61.3 211.1 61.3 210.75 61.3 210.4 61 210.05 60.75 210.05 60.25 210.05 59.4 210.55 58.7 211 58 211.85 58 212.8 58 212.95 58.8
L 215.1 58.7
M 222.8 60.25
Q 222.95 59.35 222.95 59 222.95 57.9 222.2 57.15 221.45 56.4 219.7 56.4 218.9 56.4 218.3 56.55 217.7 56.75 217.05 57.25 216.45 57.75 216.1 58.45 215.7 59.2 215.7 60.05 215.7 61.25 216.5 62.05 217.25 62.9 219.1 62.9 220.4 62.9 221.2 62.5 222.05 62.1 222.6 61.15
L 220.3 60.95
Q 219.85 61.5 219.2 61.5 218.15 61.5 218.05 60.25
L 222.8 60.25
M 220.35 58.05
Q 220.65 58.25 220.65 58.75 220.65 58.95 220.6 59.1
L 218.3 59.1
Q 218.45 58.45 218.85 58.1 219.2 57.8 219.65 57.8 220.05 57.8 220.35 58.05
M 199.5 79.45
L 201.9 79.45 203.25 73.25 200.85 73.25 199.5 79.45
M 174.5 73.25
L 172.25 73.25 173.45 79.45 175.55 79.45 179.45 73.25 176.95 73.25 174.9 77.15 174.85 77.15 174.5 73.25
M 171.5 73.25
L 169.1 73.25 167.75 79.45 170.15 79.45 171.5 73.25
M 169.6 70.85
L 169.25 72.5 171.65 72.5 172 70.85 169.6 70.85
M 163.1 74.2
L 163.05 74.15 163.3 73.25 161.05 73.25 159.7 79.45 162.1 79.45 162.7 76.75
Q 162.9 75.8 163.3 75.35 163.7 74.85 164.2 74.85 164.7 74.85 164.7 75.35 164.7 75.5 164.45 76.55
L 163.85 79.45 166.25 79.45 166.95 76.05
Q 167.2 74.95 167.2 74.6 167.2 73.95 166.75 73.55 166.35 73.1 165.5 73.1 164.1 73.1 163.1 74.2
M 166.2 57.9
Q 166.2 57.25 165.75 56.85 165.35 56.4 164.5 56.4 163.1 56.4 162.1 57.5
L 162.05 57.45 162.3 56.55 160.05 56.55 158.7 62.75 161.1 62.75 161.7 60.05
Q 161.9 59.1 162.3 58.65 162.7 58.15 163.2 58.15 163.7 58.15 163.7 58.65 163.7 58.8 163.45 59.85
L 162.85 62.75 165.25 62.75 165.95 59.35
Q 166.2 58.25 166.2 57.9
M 173.75 54.35
Q 173 54.7 172.55 55.3 172.15 55.9 172.15 56.65 172.15 57.45 172.65 58.05 173.15 58.6 175.05 59.3 175.85 59.6 176.1 59.8 176.3 60.05 176.3 60.3 176.3 60.65 175.95 60.9 175.65 61.2 175 61.2 174.35 61.2 174 60.85 173.65 60.55 173.65 59.75
L 171.15 59.9 171.15 60.1
Q 171.15 61.35 172 62.1 172.9 62.9 174.9 62.9 176.35 62.9 177.15 62.5 177.95 62.05 178.35 61.4 178.8 60.75 178.8 60 178.8 59.2 178.4 58.7 178 58.15 177.4 57.8 176.8 57.5 175.8 57.1 175.05 56.8 174.85 56.65 174.65 56.45 174.65 56.25 174.65 55.95 174.9 55.75 175.15 55.55 175.65 55.55 176.8 55.55 176.9 56.7
L 179.35 56.55
Q 179.15 54 175.65 54 174.55 54 173.75 54.35
M 199.35 62.75
L 201.75 62.75 202.35 60.05
Q 202.55 59.1 202.95 58.65 203.35 58.15 203.85 58.15 204.35 58.15 204.35 58.65 204.35 58.8 204.1 59.85
L 203.5 62.75 205.9 62.75 206.6 59.35
Q 206.85 58.25 206.85 57.9 206.85 57.25 206.4 56.85 206 56.4 205.15 56.4 203.75 56.4 202.75 57.5
L 202.7 57.45 202.95 56.55 200.7 56.55 199.35 62.75
M 201.35 70.85
L 201 72.5 203.4 72.5 203.75 70.85 201.35 70.85
M 198.2 73.45
Q 197.55 73.1 196.3 73.1 195.2 73.1 194.45 73.4 193.7 73.7 193.35 74.2 192.95 74.75 192.95 75.3 192.95 75.95 193.45 76.4 193.95 76.85 195.35 77.05 195.95 77.15 196.15 77.25 196.4 77.35 196.4 77.65 196.4 77.95 196.1 78.1 195.8 78.3 195.4 78.3 194.55 78.3 194.4 77.55
L 192.05 77.75
Q 192.15 78.75 192.85 79.15 193.55 79.6 195.05 79.6 196.85 79.6 197.75 78.9 198.65 78.25 198.65 77.3 198.65 76.6 198.2 76.15 197.7 75.75 196.35 75.55 195.5 75.45 195.3 75.3 195.1 75.15 195.1 74.95 195.1 74.7 195.3 74.55 195.55 74.4 195.95 74.4 196.7 74.4 196.8 74.95
L 199.05 74.7
Q 198.9 73.85 198.2 73.45
M 191.85 73.1
Q 191.35 73.1 190.95 73.35 190.5 73.65 189.95 74.5
L 189.95 74.45 190.2 73.25 188 73.25 186.65 79.45 189.05 79.45 189.55 77.1
Q 189.75 76.05 190.2 75.55 190.65 75.05 191.3 75.05 191.55 75.05 191.8 75.1
L 192.7 73.3
Q 192.25 73.1 191.85 73.1
M 185.5 73.85
Q 184.75 73.1 183 73.1 182.2 73.1 181.6 73.25 181 73.45 180.35 73.95 179.75 74.45 179.4 75.15 179 75.9 179 76.75 179 77.95 179.8 78.75 180.55 79.6 182.4 79.6 183.7 79.6 184.5 79.2 185.35 78.8 185.9 77.85
L 183.6 77.65
Q 183.15 78.2 182.5 78.2 181.45 78.2 181.35 76.95
L 186.1 76.95
Q 186.25 76.05 186.25 75.7 186.25 74.6 185.5 73.85
M 181.6 75.8
Q 181.75 75.15 182.15 74.8 182.5 74.5 182.95 74.5 183.35 74.5 183.65 74.75 183.95 74.95 183.95 75.45 183.95 75.65 183.9 75.8
L 181.6 75.8
M 191.15 56.55
L 188.75 56.55 187.4 62.75 189.8 62.75 191.15 56.55
M 186.75 60.45
L 184.55 60.25
Q 184.05 61.3 183.1 61.3 182.75 61.3 182.4 61 182.05 60.75 182.05 60.25 182.05 59.4 182.55 58.7 183 58 183.85 58 184.8 58 184.95 58.8
L 187.1 58.7
Q 186.95 57.55 186.15 56.95 185.3 56.4 183.85 56.4 181.9 56.4 180.8 57.5 179.75 58.65 179.75 60.2 179.75 62.9 183 62.9 185.95 62.9 186.75 60.45
M 191.65 54.15
L 189.25 54.15 188.9 55.8 191.3 55.8 191.65 54.15
M 194.3 56.55
Q 193.7 56.75 193.05 57.25 192.45 57.75 192.1 58.45 191.7 59.2 191.7 60.05 191.7 61.25 192.5 62.05 193.25 62.9 195.1 62.9 196.4 62.9 197.2 62.5 198.05 62.1 198.6 61.15
L 196.3 60.95
Q 195.85 61.5 195.2 61.5 194.15 61.5 194.05 60.25
L 198.8 60.25
Q 198.95 59.35 198.95 59 198.95 57.9 198.2 57.15 197.45 56.4 195.7 56.4 194.9 56.4 194.3 56.55
M 195.65 57.8
Q 196.05 57.8 196.35 58.05 196.65 58.25 196.65 58.75 196.65 58.95 196.6 59.1
L 194.3 59.1
Q 194.45 58.45 194.85 58.1 195.2 57.8 195.65 57.8
M 53.9 74.2
L 53.85 74.15 54.1 73.25 51.85 73.25 50.5 79.45 52.9 79.45 53.5 76.75
Q 53.7 75.8 54.1 75.35 54.5 74.85 55 74.85 55.5 74.85 55.5 75.35 55.5 75.5 55.25 76.55
L 54.65 79.45 57.05 79.45 57.75 76.05
Q 58 74.95 58 74.6 58 73.95 57.55 73.55 57.15 73.1 56.3 73.1 54.9 73.1 53.9 74.2
M 48.3 70.85
L 45.45 70.85 40.6 79.45 43.45 79.45 44.15 78.05 46.95 78.05 47.05 79.45 49.65 79.45 48.3 70.85
M 46.75 76.2
L 45 76.2 46.5 73.1 46.75 76.2
M 71.9 70.85
L 71.45 72.95 74.1 72.95 72.7 79.45 75.35 79.45 76.75 72.95 79.55 72.95 80 70.85 71.9 70.85
M 64.5 70.85
L 63.8 74.05
Q 63.15 73.1 61.85 73.1 60.55 73.1 59.7 74.25 58.85 75.45 58.85 77 58.85 78.2 59.45 78.9 60 79.6 61.05 79.6 61.6 79.6 62 79.45 62.4 79.25 62.95 78.8
L 62.95 78.85 62.85 79.45 65.05 79.45 66.9 70.85 64.5 70.85
M 62.45 74.7
Q 62.85 74.7 63.1 74.95 63.4 75.25 63.4 75.8 63.4 76.55 63.05 77.3 62.65 78.05 62 78.05 61.65 78.05 61.45 77.75 61.2 77.5 61.2 76.95 61.2 76 61.55 75.35 61.95 74.7 62.45 74.7
M 82.5 73.1
Q 81.7 73.1 81.1 73.25 80.5 73.45 79.85 73.95 79.25 74.45 78.9 75.15 78.5 75.9 78.5 76.75 78.5 77.95 79.3 78.75 80.05 79.6 81.9 79.6 83.2 79.6 84 79.2 84.85 78.8 85.4 77.85
L 83.1 77.65
Q 82.65 78.2 82 78.2 80.95 78.2 80.85 76.95
L 85.6 76.95
Q 85.75 76.05 85.75 75.7 85.75 74.6 85 73.85 84.25 73.1 82.5 73.1
M 83.45 75.45
Q 83.45 75.65 83.4 75.8
L 81.1 75.8
Q 81.25 75.15 81.65 74.8 82 74.5 82.45 74.5 82.85 74.5 83.15 74.75 83.45 74.95 83.45 75.45
M 90.65 73.1
Q 88.7 73.1 87.6 74.2 86.55 75.35 86.55 76.9 86.55 79.6 89.8 79.6 92.75 79.6 93.55 77.15
L 91.35 76.95
Q 90.85 78 89.9 78 89.55 78 89.2 77.7 88.85 77.45 88.85 76.95 88.85 76.1 89.35 75.4 89.8 74.7 90.65 74.7 91.6 74.7 91.75 75.5
L 93.9 75.4
Q 93.75 74.25 92.95 73.65 92.1 73.1 90.65 73.1
M 60.95 62.75
L 62.3 56.55 59.9 56.55 58.55 62.75 60.95 62.75
M 62.45 55.8
L 62.8 54.15 60.4 54.15 60.05 55.8 62.45 55.8
M 66.8 54.15
L 64.4 54.15 64.05 55.8 66.45 55.8 66.8 54.15
M 66.3 56.55
L 63.9 56.55 62.7 62.2
Q 62.5 63.05 62.35 63.25 62.15 63.4 61.75 63.4 61.45 63.4 61.1 63.35
L 60.8 65.05
Q 61.7 65.25 62.45 65.25 63.35 65.25 63.85 64.95 64.3 64.65 64.55 64.15 64.8 63.6 64.95 62.75
L 66.3 56.55
M 70.3 56.55
L 67.9 56.55 66.55 62.75 68.95 62.75 70.3 56.55
M 70.8 54.15
L 68.4 54.15 68.05 55.8 70.45 55.8 70.8 54.15
M 74.1 56.55
L 71.85 56.55 70.5 62.75 72.9 62.75 73.5 60.05
Q 73.7 59.1 74.1 58.65 74.5 58.15 75 58.15 75.5 58.15 75.5 58.65 75.5 58.8 75.25 59.85
L 74.65 62.75 77.05 62.75 77.75 59.35
Q 78 58.25 78 57.9 78 57.25 77.55 56.85 77.15 56.4 76.3 56.4 74.9 56.4 73.9 57.5
L 73.85 57.45 74.1 56.55
M 84.1 56.55
L 83.9 57.4
Q 83.15 56.4 82 56.4 80.65 56.4 79.75 57.5 78.85 58.6 78.85 60.05 78.85 61.15 79.45 61.85 80 62.5 80.95 62.5 82 62.5 82.8 61.7
L 82.6 62.65
Q 82.5 63.25 82.2 63.55 81.9 63.85 81.45 63.85 80.8 63.85 80.8 63.2
L 78.5 62.9
Q 78.5 63 78.5 63.2 78.5 63.8 78.9 64.35 79.35 64.9 79.95 65.1 80.5 65.25 81.6 65.25 83.1 65.25 83.9 64.7 84.7 64.1 85.05 62.4
L 86.3 56.55 84.1 56.55
M 82.55 57.95
Q 82.9 57.95 83.15 58.25 83.35 58.45 83.35 58.85 83.35 59.5 83.05 60.2 82.7 60.9 82.05 60.9 81.65 60.9 81.45 60.65 81.2 60.4 81.2 60 81.2 59.2 81.6 58.6 82 57.95 82.55 57.95
M 54.85 56.4
Q 54.05 56.4 53.45 56.55 52.85 56.75 52.2 57.25 51.6 57.75 51.25 58.45 50.85 59.2 50.85 60.05 50.85 61.25 51.65 62.05 52.4 62.9 54.25 62.9 55.55 62.9 56.35 62.5 57.2 62.1 57.75 61.15
L 55.45 60.95
Q 55 61.5 54.35 61.5 53.3 61.5 53.2 60.25
L 57.95 60.25
Q 58.1 59.35 58.1 59 58.1 57.9 57.35 57.15 56.6 56.4 54.85 56.4
M 54.8 57.8
Q 55.2 57.8 55.5 58.05 55.8 58.25 55.8 58.75 55.8 58.95 55.75 59.1
L 53.45 59.1
Q 53.6 58.45 54 58.1 54.35 57.8 54.8 57.8
M 48.3 54.2
Q 47.8 54.15 47.1 54.15
L 43.15 54.15 41.3 62.75 46.6 62.75
Q 48.15 62.75 49 61.9 49.85 61.1 49.85 60.05 49.85 58.7 48.5 58.25 49.35 58 49.7 57.4 50.1 56.85 50.1 56.2 50.1 55.65 49.85 55.25 49.6 54.8 49.2 54.55 48.75 54.3 48.3 54.2
M 44.35 60.9
L 44.75 59.15 46.2 59.15
Q 46.85 59.15 47.05 59.35 47.3 59.55 47.3 59.9 47.3 60.9 45.8 60.9
L 44.35 60.9
M 45.1 57.5
L 45.4 55.9 46.55 55.9
Q 47.2 55.9 47.4 56.1 47.6 56.25 47.6 56.55 47.6 56.85 47.4 57.1 47.2 57.35 46.9 57.45 46.55 57.5 46 57.5
L 45.1 57.5
M 131.05 34.75
L 128.55 34.75 128.55 37.25 131.05 37.25 131.05 34.75
M 131.05 29.75
L 128.55 29.75 128.55 32.25 131.05 32.25 131.05 29.75
M 128.55 27.25
L 131.05 27.25 131.05 24.75 128.55 24.75 128.55 27.25
M 113.75 4.5
L 113.75 12 108.75 12 108.75 4.5 106.25 4.5 106.25 14.5 113.75 14.5 113.75 17 116.25 17 116.25 4.5 113.75 4.5
M 126.25 9.5
L 126.25 12 133.75 12 133.75 9.5 126.25 9.5
M 153.75 12
L 153.75 4.5 143.75 4.5 143.75 7 151.25 7 151.25 9.5 143.75 9.5 143.75 17 153.75 17 153.75 14.5 146.25 14.5 146.25 12 153.75 12
M 166.25 17
L 166.25 4.5 156.25 4.5 156.25 17 166.25 17
M 163.75 7
L 163.75 14.5 158.75 14.5 158.75 7 163.75 7
M 178.75 17
L 178.75 4.5 168.75 4.5 168.75 17 178.75 17
M 171.25 14.5
L 171.25 7 176.25 7 176.25 14.5 171.25 14.5
M 188.75 9.5
L 191.25 9.5 191.25 4.5 181.25 4.5 181.25 7 188.75 7 188.75 9.5
M 186.25 9.5
L 186.25 12 188.75 12 188.75 9.5 186.25 9.5
M 186.25 12
L 183.75 12 183.75 17 186.25 17 186.25 12
M 81.25 17
L 91.25 17 91.25 4.5 81.25 4.5 81.25 17
M 83.75 14.5
L 83.75 7 88.75 7 88.75 14.5 83.75 14.5
M 78.75 12
L 78.75 4.5 68.75 4.5 68.75 7 76.25 7 76.25 9.5 68.75 9.5 68.75 17 78.75 17 78.75 14.5 71.25 14.5 71.25 12 78.75 12 Z"/>

<path fill="#911616" stroke="none" d="
M 49.15 95.3
L 49.25 86.65 30.15 86.65 49.15 95.3
M 213.55 95.15
L 213.55 95.35 232.65 86.65 232.5 86.65 213.45 86.65 213.55 95.15 Z"/>

<path fill="#B84F4F" stroke="none" d="
M 232.5 86.65
L 232.5 86.6 232.5 49.5 30 49.5 30 63.2 30 86.65 30.15 86.65 49.25 86.65 213.45 86.65 232.5 86.65
M 47.1 54.15
Q 47.8 54.15 48.3 54.2 48.75 54.3 49.2 54.55 49.6 54.8 49.85 55.25 50.1 55.65 50.1 56.2 50.1 56.85 49.7 57.4 49.35 58 48.5 58.25 49.85 58.7 49.85 60.05 49.85 61.1 49 61.9 48.15 62.75 46.6 62.75
L 41.3 62.75 43.15 54.15 47.1 54.15
M 53.45 56.55
Q 54.05 56.4 54.85 56.4 56.6 56.4 57.35 57.15 58.1 57.9 58.1 59 58.1 59.35 57.95 60.25
L 53.2 60.25
Q 53.3 61.5 54.35 61.5 55 61.5 55.45 60.95
L 57.75 61.15
Q 57.2 62.1 56.35 62.5 55.55 62.9 54.25 62.9 52.4 62.9 51.65 62.05 50.85 61.25 50.85 60.05 50.85 59.2 51.25 58.45 51.6 57.75 52.2 57.25 52.85 56.75 53.45 56.55
M 83.9 57.4
L 84.1 56.55 86.3 56.55 85.05 62.4
Q 84.7 64.1 83.9 64.7 83.1 65.25 81.6 65.25 80.5 65.25 79.95 65.1 79.35 64.9 78.9 64.35 78.5 63.8 78.5 63.2 78.5 63 78.5 62.9
L 80.8 63.2
Q 80.8 63.85 81.45 63.85 81.9 63.85 82.2 63.55 82.5 63.25 82.6 62.65
L 82.8 61.7
Q 82 62.5 80.95 62.5 80 62.5 79.45 61.85 78.85 61.15 78.85 60.05 78.85 58.6 79.75 57.5 80.65 56.4 82 56.4 83.15 56.4 83.9 57.4
M 71.85 56.55
L 74.1 56.55 73.85 57.45 73.9 57.5
Q 74.9 56.4 76.3 56.4 77.15 56.4 77.55 56.85 78 57.25 78 57.9 78 58.25 77.75 59.35
L 77.05 62.75 74.65 62.75 75.25 59.85
Q 75.5 58.8 75.5 58.65 75.5 58.15 75 58.15 74.5 58.15 74.1 58.65 73.7 59.1 73.5 60.05
L 72.9 62.75 70.5 62.75 71.85 56.55
M 68.4 54.15
L 70.8 54.15 70.45 55.8 68.05 55.8 68.4 54.15
M 67.9 56.55
L 70.3 56.55 68.95 62.75 66.55 62.75 67.9 56.55
M 63.9 56.55
L 66.3 56.55 64.95 62.75
Q 64.8 63.6 64.55 64.15 64.3 64.65 63.85 64.95 63.35 65.25 62.45 65.25 61.7 65.25 60.8 65.05
L 61.1 63.35
Q 61.45 63.4 61.75 63.4 62.15 63.4 62.35 63.25 62.5 63.05 62.7 62.2
L 63.9 56.55
M 64.4 54.15
L 66.8 54.15 66.45 55.8 64.05 55.8 64.4 54.15
M 62.8 54.15
L 62.45 55.8 60.05 55.8 60.4 54.15 62.8 54.15
M 62.3 56.55
L 60.95 62.75 58.55 62.75 59.9 56.55 62.3 56.55
M 87.6 74.2
Q 88.7 73.1 90.65 73.1 92.1 73.1 92.95 73.65 93.75 74.25 93.9 75.4
L 91.75 75.5
Q 91.6 74.7 90.65 74.7 89.8 74.7 89.35 75.4 88.85 76.1 88.85 76.95 88.85 77.45 89.2 77.7 89.55 78 89.9 78 90.85 78 91.35 76.95
L 93.55 77.15
Q 92.75 79.6 89.8 79.6 86.55 79.6 86.55 76.9 86.55 75.35 87.6 74.2
M 81.1 73.25
Q 81.7 73.1 82.5 73.1 84.25 73.1 85 73.85 85.75 74.6 85.75 75.7 85.75 76.05 85.6 76.95
L 80.85 76.95
Q 80.95 78.2 82 78.2 82.65 78.2 83.1 77.65
L 85.4 77.85
Q 84.85 78.8 84 79.2 83.2 79.6 81.9 79.6 80.05 79.6 79.3 78.75 78.5 77.95 78.5 76.75 78.5 75.9 78.9 75.15 79.25 74.45 79.85 73.95 80.5 73.45 81.1 73.25
M 63.8 74.05
L 64.5 70.85 66.9 70.85 65.05 79.45 62.85 79.45 62.95 78.85 62.95 78.8
Q 62.4 79.25 62 79.45 61.6 79.6 61.05 79.6 60 79.6 59.45 78.9 58.85 78.2 58.85 77 58.85 75.45 59.7 74.25 60.55 73.1 61.85 73.1 63.15 73.1 63.8 74.05
M 71.45 72.95
L 71.9 70.85 80 70.85 79.55 72.95 76.75 72.95 75.35 79.45 72.7 79.45 74.1 72.95 71.45 72.95
M 45.45 70.85
L 48.3 70.85 49.65 79.45 47.05 79.45 46.95 78.05 44.15 78.05 43.45 79.45 40.6 79.45 45.45 70.85
M 53.85 74.15
L 53.9 74.2
Q 54.9 73.1 56.3 73.1 57.15 73.1 57.55 73.55 58 73.95 58 74.6 58 74.95 57.75 76.05
L 57.05 79.45 54.65 79.45 55.25 76.55
Q 55.5 75.5 55.5 75.35 55.5 74.85 55 74.85 54.5 74.85 54.1 75.35 53.7 75.8 53.5 76.75
L 52.9 79.45 50.5 79.45 51.85 73.25 54.1 73.25 53.85 74.15
M 193.05 57.25
Q 193.7 56.75 194.3 56.55 194.9 56.4 195.7 56.4 197.45 56.4 198.2 57.15 198.95 57.9 198.95 59 198.95 59.35 198.8 60.25
L 194.05 60.25
Q 194.15 61.5 195.2 61.5 195.85 61.5 196.3 60.95
L 198.6 61.15
Q 198.05 62.1 197.2 62.5 196.4 62.9 195.1 62.9 193.25 62.9 192.5 62.05 191.7 61.25 191.7 60.05 191.7 59.2 192.1 58.45 192.45 57.75 193.05 57.25
M 189.25 54.15
L 191.65 54.15 191.3 55.8 188.9 55.8 189.25 54.15
M 184.55 60.25
L 186.75 60.45
Q 185.95 62.9 183 62.9 179.75 62.9 179.75 60.2 179.75 58.65 180.8 57.5 181.9 56.4 183.85 56.4 185.3 56.4 186.15 56.95 186.95 57.55 187.1 58.7
L 184.95 58.8
Q 184.8 58 183.85 58 183 58 182.55 58.7 182.05 59.4 182.05 60.25 182.05 60.75 182.4 61 182.75 61.3 183.1 61.3 184.05 61.3 184.55 60.25
M 188.75 56.55
L 191.15 56.55 189.8 62.75 187.4 62.75 188.75 56.55
M 183 73.1
Q 184.75 73.1 185.5 73.85 186.25 74.6 186.25 75.7 186.25 76.05 186.1 76.95
L 181.35 76.95
Q 181.45 78.2 182.5 78.2 183.15 78.2 183.6 77.65
L 185.9 77.85
Q 185.35 78.8 184.5 79.2 183.7 79.6 182.4 79.6 180.55 79.6 179.8 78.75 179 77.95 179 76.75 179 75.9 179.4 75.15 179.75 74.45 180.35 73.95 181 73.45 181.6 73.25 182.2 73.1 183 73.1
M 190.95 73.35
Q 191.35 73.1 191.85 73.1 192.25 73.1 192.7 73.3
L 191.8 75.1
Q 191.55 75.05 191.3 75.05 190.65 75.05 190.2 75.55 189.75 76.05 189.55 77.1
L 189.05 79.45 186.65 79.45 188 73.25 190.2 73.25 189.95 74.45 189.95 74.5
Q 190.5 73.65 190.95 73.35
M 196.3 73.1
Q 197.55 73.1 198.2 73.45 198.9 73.85 199.05 74.7
L 196.8 74.95
Q 196.7 74.4 195.95 74.4 195.55 74.4 195.3 74.55 195.1 74.7 195.1 74.95 195.1 75.15 195.3 75.3 195.5 75.45 196.35 75.55 197.7 75.75 198.2 76.15 198.65 76.6 198.65 77.3 198.65 78.25 197.75 78.9 196.85 79.6 195.05 79.6 193.55 79.6 192.85 79.15 192.15 78.75 192.05 77.75
L 194.4 77.55
Q 194.55 78.3 195.4 78.3 195.8 78.3 196.1 78.1 196.4 77.95 196.4 77.65 196.4 77.35 196.15 77.25 195.95 77.15 195.35 77.05 193.95 76.85 193.45 76.4 192.95 75.95 192.95 75.3 192.95 74.75 193.35 74.2 193.7 73.7 194.45 73.4 195.2 73.1 196.3 73.1
M 201 72.5
L 201.35 70.85 203.75 70.85 203.4 72.5 201 72.5
M 201.75 62.75
L 199.35 62.75 200.7 56.55 202.95 56.55 202.7 57.45 202.75 57.5
Q 203.75 56.4 205.15 56.4 206 56.4 206.4 56.85 206.85 57.25 206.85 57.9 206.85 58.25 206.6 59.35
L 205.9 62.75 203.5 62.75 204.1 59.85
Q 204.35 58.8 204.35 58.65 204.35 58.15 203.85 58.15 203.35 58.15 202.95 58.65 202.55 59.1 202.35 60.05
L 201.75 62.75
M 172.55 55.3
Q 173 54.7 173.75 54.35 174.55 54 175.65 54 179.15 54 179.35 56.55
L 176.9 56.7
Q 176.8 55.55 175.65 55.55 175.15 55.55 174.9 55.75 174.65 55.95 174.65 56.25 174.65 56.45 174.85 56.65 175.05 56.8 175.8 57.1 176.8 57.5 177.4 57.8 178 58.15 178.4 58.7 178.8 59.2 178.8 60 178.8 60.75 178.35 61.4 177.95 62.05 177.15 62.5 176.35 62.9 174.9 62.9 172.9 62.9 172 62.1 171.15 61.35 171.15 60.1
L 171.15 59.9 173.65 59.75
Q 173.65 60.55 174 60.85 174.35 61.2 175 61.2 175.65 61.2 175.95 60.9 176.3 60.65 176.3 60.3 176.3 60.05 176.1 59.8 175.85 59.6 175.05 59.3 173.15 58.6 172.65 58.05 172.15 57.45 172.15 56.65 172.15 55.9 172.55 55.3
M 165.75 56.85
Q 166.2 57.25 166.2 57.9 166.2 58.25 165.95 59.35
L 165.25 62.75 162.85 62.75 163.45 59.85
Q 163.7 58.8 163.7 58.65 163.7 58.15 163.2 58.15 162.7 58.15 162.3 58.65 161.9 59.1 161.7 60.05
L 161.1 62.75 158.7 62.75 160.05 56.55 162.3 56.55 162.05 57.45 162.1 57.5
Q 163.1 56.4 164.5 56.4 165.35 56.4 165.75 56.85
M 163.05 74.15
L 163.1 74.2
Q 164.1 73.1 165.5 73.1 166.35 73.1 166.75 73.55 167.2 73.95 167.2 74.6 167.2 74.95 166.95 76.05
L 166.25 79.45 163.85 79.45 164.45 76.55
Q 164.7 75.5 164.7 75.35 164.7 74.85 164.2 74.85 163.7 74.85 163.3 75.35 162.9 75.8 162.7 76.75
L 162.1 79.45 159.7 79.45 161.05 73.25 163.3 73.25 163.05 74.15
M 169.25 72.5
L 169.6 70.85 172 70.85 171.65 72.5 169.25 72.5
M 169.1 73.25
L 171.5 73.25 170.15 79.45 167.75 79.45 169.1 73.25
M 172.25 73.25
L 174.5 73.25 174.85 77.15 174.9 77.15 176.95 73.25 179.45 73.25 175.55 79.45 173.45 79.45 172.25 73.25
M 201.9 79.45
L 199.5 79.45 200.85 73.25 203.25 73.25 201.9 79.45
M 222.95 59
Q 222.95 59.35 222.8 60.25
L 218.05 60.25
Q 218.15 61.5 219.2 61.5 219.85 61.5 220.3 60.95
L 222.6 61.15
Q 222.05 62.1 221.2 62.5 220.4 62.9 219.1 62.9 217.25 62.9 216.5 62.05 215.7 61.25 215.7 60.05 215.7 59.2 216.1 58.45 216.45 57.75 217.05 57.25 217.7 56.75 218.3 56.55 218.9 56.4 219.7 56.4 221.45 56.4 222.2 57.15 222.95 57.9 222.95 59
M 214.15 56.95
Q 214.95 57.55 215.1 58.7
L 212.95 58.8
Q 212.8 58 211.85 58 211 58 210.55 58.7 210.05 59.4 210.05 60.25 210.05 60.75 210.4 61 210.75 61.3 211.1 61.3 212.05 61.3 212.55 60.25
L 214.75 60.45
Q 213.95 62.9 211 62.9 207.75 62.9 207.75 60.2 207.75 58.65 208.8 57.5 209.9 56.4 211.85 56.4 213.3 56.4 214.15 56.95
M 204.3 73.25
L 205.15 73.25 205.4 72.25 208.05 70.95 207.55 73.25 208.8 73.25 208.45 74.95 207.2 74.95 206.7 77.15
Q 206.65 77.3 206.65 77.45 206.65 77.85 207.25 77.85 207.4 77.85 207.95 77.75
L 207.6 79.45
Q 206.55 79.6 206.05 79.6 205.05 79.6 204.6 79.1 204.2 78.65 204.2 78.05 204.2 77.9 204.35 77.05
L 204.8 74.95 203.95 74.95 204.3 73.25
M 209.35 73.25
L 211.7 73.25 212 77.55 212.05 77.55 214.15 73.25 216.55 73.25 212.65 80.25
Q 212.05 81.25 211.5 81.6 211 81.95 210.2 81.95 209.3 81.95 208.45 81.75
L 208.65 80.1
Q 209.05 80.3 209.45 80.3 210.15 80.3 210.55 79.45
L 209.35 73.25
M 115.2 59.2
Q 115.2 60.05 114.75 60.95 114.3 61.85 113.45 62.4 112.55 62.9 111.25 62.9 109.6 62.9 108.85 62.1 108.05 61.3 108.05 60.1 108.05 59.15 108.55 58.25 109 57.4 109.9 56.9 110.75 56.4 112 56.4 113.65 56.4 114.4 57.25 115.2 58.1 115.2 59.2
M 120.85 58.4
Q 120.6 58.35 120.35 58.35 119.7 58.35 119.25 58.85 118.8 59.35 118.6 60.4
L 118.1 62.75 115.7 62.75 117.05 56.55 119.25 56.55 119 57.75 119 57.8
Q 119.55 56.95 120 56.65 120.4 56.4 120.9 56.4 121.3 56.4 121.75 56.6
L 120.85 58.4
M 107.85 55.55
Q 107.6 55.55 107.45 55.65 107.3 55.8 107.15 56.55
L 108.25 56.55 107.9 58.25 106.75 58.25 105.8 62.75 103.4 62.75 104.4 58.25 103.5 58.25 103.85 56.55 104.75 56.55
Q 104.95 55.45 105.1 55.15 105.2 54.8 105.45 54.55 105.7 54.25 106.1 54.15 106.5 54 107.05 54 107.9 54 109.1 54.3
L 108.7 55.7
Q 108.25 55.55 107.85 55.55
M 102.65 57.9
Q 102.65 58.25 102.4 59.35
L 101.7 62.75 99.3 62.75 99.9 59.85
Q 100.15 58.8 100.15 58.65 100.15 58.15 99.65 58.15 99.15 58.15 98.75 58.65 98.35 59.1 98.15 60.05
L 97.55 62.75 95.15 62.75 96.5 56.55 98.75 56.55 98.5 57.45 98.55 57.5
Q 99.55 56.4 100.95 56.4 101.8 56.4 102.2 56.85 102.65 57.25 102.65 57.9
M 105.4 74.15
L 105.45 74.2
Q 106.45 73.1 107.85 73.1 108.7 73.1 109.1 73.55 109.55 73.95 109.55 74.6 109.55 74.95 109.3 76.05
L 108.6 79.45 106.2 79.45 106.8 76.55
Q 107.05 75.5 107.05 75.35 107.05 74.85 106.55 74.85 106.05 74.85 105.65 75.35 105.25 75.8 105.05 76.75
L 104.45 79.45 102.05 79.45 103.4 73.25 105.65 73.25 105.4 74.15
M 112.25 73.6
Q 113.1 73.1 114.35 73.1 116 73.1 116.75 73.95 117.55 74.8 117.55 75.9 117.55 76.75 117.1 77.65 116.65 78.55 115.8 79.1 114.9 79.6 113.6 79.6 111.95 79.6 111.2 78.8 110.4 78 110.4 76.8 110.4 75.85 110.9 74.95 111.35 74.1 112.25 73.6
M 120.5 79.45
L 118.1 79.45 119.95 70.85 122.35 70.85 120.5 79.45
M 152.9 56.9
Q 153.75 56.4 155 56.4 156.65 56.4 157.4 57.25 158.2 58.1 158.2 59.2 158.2 60.05 157.75 60.95 157.3 61.85 156.45 62.4 155.55 62.9 154.25 62.9 152.6 62.9 151.85 62.1 151.05 61.3 151.05 60.1 151.05 59.15 151.55 58.25 152 57.4 152.9 56.9
M 148.6 54.15
L 151 54.15 150.65 55.8 148.25 55.8 148.6 54.15
M 143.3 55.55
L 145.95 54.25 145.45 56.55 146.7 56.55 146.35 58.25 145.1 58.25 144.6 60.45
Q 144.55 60.6 144.55 60.75 144.55 61.15 145.15 61.15 145.3 61.15 145.85 61.05
L 145.5 62.75
Q 144.45 62.9 143.95 62.9 142.95 62.9 142.5 62.4 142.1 61.95 142.1 61.35 142.1 61.2 142.25 60.35
L 142.7 58.25 141.85 58.25 142.2 56.55 143.05 56.55 143.3 55.55
M 148.1 56.55
L 150.5 56.55 149.15 62.75 146.75 62.75 148.1 56.55
M 143.7 73.25
L 146.1 73.25 142.2 80.25
Q 141.6 81.25 141.05 81.6 140.55 81.95 139.75 81.95 138.85 81.95 138 81.75
L 138.2 80.1
Q 138.6 80.3 139 80.3 139.7 80.3 140.1 79.45
L 138.9 73.25 141.25 73.25 141.55 77.55 141.6 77.55 143.7 73.25
M 157.2 70.85
L 159.9 70.85 158.75 76.05
Q 158.4 77.85 157.35 78.75 156.35 79.6 154.4 79.6 153.3 79.6 152.6 79.4 151.95 79.15 151.5 78.75 151.05 78.3 150.85 77.75 150.65 77.2 150.65 76.55 150.65 75.75 150.8 75
L 151.7 70.85 154.35 70.85 153.3 75.7
Q 153.25 76.05 153.25 76.4 153.25 77.45 154.45 77.45 155.1 77.45 155.55 77.05 156 76.65 156.25 75.55
L 157.2 70.85
M 132.9 57.95
Q 132.9 58.3 132.85 58.65
L 131.95 62.75 129.55 62.75 130.15 60.1
Q 130.35 59.1 130.4 58.9 130.4 58.7 130.4 58.6 130.4 58.15 129.95 58.15 129.4 58.15 129.05 58.6 128.7 59 128.5 60
L 127.9 62.75 125.5 62.75 126.1 60.15
Q 126.3 59.1 126.35 58.9 126.35 58.7 126.35 58.6 126.35 58.15 125.9 58.15 125.5 58.15 125.1 58.5 124.7 58.9 124.5 59.75
L 123.85 62.75 121.45 62.75 122.8 56.55 125.05 56.55 124.85 57.4 124.85 57.45
Q 125.9 56.4 127.15 56.4 127.75 56.4 128.2 56.65 128.65 56.95 128.8 57.45 129.5 56.85 130.05 56.6 130.6 56.4 131.25 56.4 132.05 56.4 132.5 56.85 132.9 57.3 132.9 57.95
M 136.6 58.5
L 134.4 58.25
Q 134.6 57.35 135.35 56.85 136.15 56.4 137.75 56.4 139.6 56.4 140.25 56.85 140.9 57.3 140.9 58.2 140.9 58.8 140.55 60.1 140.25 61.4 140.25 61.9 140.25 62.3 140.4 62.75
L 138.1 62.75
Q 138 62.4 138 62.05 137.05 62.9 135.9 62.9 134.75 62.9 134.2 62.35 133.7 61.8 133.7 61.05 133.7 60.25 134.15 59.8 134.6 59.4 135.3 59.2 135.95 59.05 137.15 58.95 138.15 58.85 138.5 58.75 138.6 58.45 138.6 58.3 138.6 58.05 138.35 57.95 138.1 57.8 137.7 57.8 137.3 57.8 137.05 57.95 136.8 58.05 136.6 58.5
M 126.35 73.1
Q 128 73.1 128.75 73.95 129.55 74.8 129.55 75.9 129.55 76.75 129.1 77.65 128.65 78.55 127.8 79.1 126.9 79.6 125.6 79.6 123.95 79.6 123.2 78.8 122.4 78 122.4 76.8 122.4 75.85 122.9 74.95 123.35 74.1 124.25 73.6 125.1 73.1 126.35 73.1
M 135.55 74.1
L 135.75 73.25 137.95 73.25 136.7 79.1
Q 136.35 80.8 135.55 81.4 134.75 81.95 133.25 81.95 132.15 81.95 131.6 81.8 131 81.6 130.55 81.05 130.15 80.5 130.15 79.9 130.15 79.7 130.15 79.6
L 132.45 79.9
Q 132.45 80.55 133.1 80.55 133.55 80.55 133.85 80.25 134.15 79.95 134.25 79.35
L 134.45 78.4
Q 133.65 79.2 132.6 79.2 131.65 79.2 131.1 78.55 130.5 77.85 130.5 76.75 130.5 75.3 131.4 74.2 132.3 73.1 133.65 73.1 134.8 73.1 135.55 74.1
M 92.6 54.15
L 95.3 54.15 93.45 62.75 90.75 62.75 92.6 54.15
M 99.85 73.1
Q 100.7 73.1 101.1 73.55 101.55 73.95 101.55 74.6 101.55 74.95 101.3 76.05
L 100.6 79.45 98.2 79.45 98.8 76.55
Q 99.05 75.5 99.05 75.35 99.05 74.85 98.55 74.85 98.05 74.85 97.65 75.35 97.25 75.8 97.05 76.75
L 96.45 79.45 94.05 79.45 95.9 70.85 98.3 70.85 97.65 73.95 97.65 74
Q 98.5 73.1 99.85 73.1
M 134.7 76.9
Q 135 76.2 135 75.55 135 75.15 134.8 74.95 134.55 74.65 134.2 74.65 133.65 74.65 133.25 75.3 132.85 75.9 132.85 76.7 132.85 77.1 133.1 77.35 133.3 77.6 133.7 77.6 134.35 77.6 134.7 76.9
M 126.8 77.3
Q 127.2 76.6 127.2 75.8 127.2 75.2 126.9 74.95 126.6 74.7 126.25 74.7 125.5 74.7 125.1 75.4 124.75 76.05 124.75 76.8 124.75 77.3 125.05 77.65 125.35 78 125.75 78 126.4 78 126.8 77.3
M 136.05 60.95
Q 136.05 61.25 136.25 61.45 136.45 61.6 136.75 61.6 137.2 61.6 137.65 61.25 138.1 60.85 138.25 59.95 136.6 60.25 136.3 60.45 136.05 60.65 136.05 60.95
M 155.55 58.25
Q 155.25 58 154.9 58 154.15 58 153.75 58.7 153.4 59.35 153.4 60.1 153.4 60.6 153.7 60.95 154 61.3 154.4 61.3 155.05 61.3 155.45 60.6 155.85 59.9 155.85 59.1 155.85 58.5 155.55 58.25
M 114.9 74.95
Q 114.6 74.7 114.25 74.7 113.5 74.7 113.1 75.4 112.75 76.05 112.75 76.8 112.75 77.3 113.05 77.65 113.35 78 113.75 78 114.4 78 114.8 77.3 115.2 76.6 115.2 75.8 115.2 75.2 114.9 74.95
M 112.55 58.25
Q 112.25 58 111.9 58 111.15 58 110.75 58.7 110.4 59.35 110.4 60.1 110.4 60.6 110.7 60.95 111 61.3 111.4 61.3 112.05 61.3 112.45 60.6 112.85 59.9 112.85 59.1 112.85 58.5 112.55 58.25
M 220.65 58.75
Q 220.65 58.25 220.35 58.05 220.05 57.8 219.65 57.8 219.2 57.8 218.85 58.1 218.45 58.45 218.3 59.1
L 220.6 59.1
Q 220.65 58.95 220.65 58.75
M 182.15 74.8
Q 181.75 75.15 181.6 75.8
L 183.9 75.8
Q 183.95 75.65 183.95 75.45 183.95 74.95 183.65 74.75 183.35 74.5 182.95 74.5 182.5 74.5 182.15 74.8
M 196.35 58.05
Q 196.05 57.8 195.65 57.8 195.2 57.8 194.85 58.1 194.45 58.45 194.3 59.1
L 196.6 59.1
Q 196.65 58.95 196.65 58.75 196.65 58.25 196.35 58.05
M 45 76.2
L 46.75 76.2 46.5 73.1 45 76.2
M 63.1 74.95
Q 62.85 74.7 62.45 74.7 61.95 74.7 61.55 75.35 61.2 76 61.2 76.95 61.2 77.5 61.45 77.75 61.65 78.05 62 78.05 62.65 78.05 63.05 77.3 63.4 76.55 63.4 75.8 63.4 75.25 63.1 74.95
M 83.4 75.8
Q 83.45 75.65 83.45 75.45 83.45 74.95 83.15 74.75 82.85 74.5 82.45 74.5 82 74.5 81.65 74.8 81.25 75.15 81.1 75.8
L 83.4 75.8
M 83.15 58.25
Q 82.9 57.95 82.55 57.95 82 57.95 81.6 58.6 81.2 59.2 81.2 60 81.2 60.4 81.45 60.65 81.65 60.9 82.05 60.9 82.7 60.9 83.05 60.2 83.35 59.5 83.35 58.85 83.35 58.45 83.15 58.25
M 55.5 58.05
Q 55.2 57.8 54.8 57.8 54.35 57.8 54 58.1 53.6 58.45 53.45 59.1
L 55.75 59.1
Q 55.8 58.95 55.8 58.75 55.8 58.25 55.5 58.05
M 45.4 55.9
L 45.1 57.5 46 57.5
Q 46.55 57.5 46.9 57.45 47.2 57.35 47.4 57.1 47.6 56.85 47.6 56.55 47.6 56.25 47.4 56.1 47.2 55.9 46.55 55.9
L 45.4 55.9
M 44.75 59.15
L 44.35 60.9 45.8 60.9
Q 47.3 60.9 47.3 59.9 47.3 59.55 47.05 59.35 46.85 59.15 46.2 59.15
L 44.75 59.15 Z"/>

<path fill="#CCCCCC" stroke="none" d="
M 213.55 95.35
L 213.55 95.15 213.45 95.2 213.45 95.35 213.55 95.35 Z"/>

<path fill="#A12C2C" stroke="none" d="
M 262.6 95.35
L 246.5 79.25 262.6 63.2 232.55 63.2 232.55 86.55 232.5 86.6 232.5 86.65 232.65 86.65 213.55 95.35 262.6 95.35
M 30 86.65
L 30 63.2 0 63.2 16.1 79.25 0 95.35 49.15 95.35 49.15 95.3 30.15 86.65 30 86.65 Z"/>
</g>
</defs>

<g transform="matrix( 1, 0, 0, 1, 0,0) ">
<use xlink:href="#Layer0_0_FILL"/>
</g>
</svg>
