
<svg xmlns="http://www.w3.org/2000/svg" version="1.1" xmlns:xlink="http://www.w3.org/1999/xlink" preserveAspectRatio="none" x="0px" y="0px" width="225px" height="96px" viewBox="0 0 225 96">
<defs>
<g id="Layer0_0_FILL">
<path fill="#FFFFFF" stroke="none" d="
M 80.5 17
L 80.5 4.5 70.5 4.5 70.5 17 80.5 17
M 73 7
L 78 7 78 14.5 73 14.5 73 7
M 65.5 7
L 65.5 9.5 58 9.5 58 17 68 17 68 14.5 60.5 14.5 60.5 12 68 12 68 4.5 58 4.5 58 7 65.5 7
M 110.4 34.75
L 107.9 34.75 107.9 37.25 110.4 37.25 110.4 34.75
M 110.4 29.75
L 107.9 29.75 107.9 32.25 110.4 32.25 110.4 29.75
M 110.4 24.75
L 107.9 24.75 107.9 27.25 110.4 27.25 110.4 24.75
M 88 4.5
L 83 4.5 83 7 85.5 7 85.5 17 88 17 88 4.5
M 90.5 4.5
L 90.5 7 93 7 93 17 95.5 17 95.5 4.5 90.5 4.5
M 113 9.5
L 105.5 9.5 105.5 12 113 12 113 9.5
M 133 12
L 133 4.5 123 4.5 123 7 130.5 7 130.5 9.5 123 9.5 123 17 133 17 133 14.5 125.5 14.5 125.5 12 133 12
M 145.5 17
L 145.5 4.5 135.5 4.5 135.5 17 145.5 17
M 143 7
L 143 14.5 138 14.5 138 7 143 7
M 148 4.5
L 148 7 150.5 7 150.5 17 153 17 153 4.5 148 4.5
M 139.7 73.95
Q 139.4 73.65 138.85 73.65 137.9 73.65 137.25 74.4
L 137.35 73.75 135.9 73.75 135 77.9 136.6 77.9 137 76.1
Q 137.1 75.5 137.4 75.15 137.65 74.8 138 74.8 138.3 74.8 138.3 75.15 138.3 75.25 138.15 75.95
L 137.75 77.9 139.35 77.9 139.8 75.65
Q 139.95 74.9 139.95 74.65 139.95 74.25 139.7 73.95
M 134.85 73.75
L 133.35 73.75 133.25 74.35
Q 132.75 73.65 131.95 73.65 131.05 73.65 130.45 74.4 129.9 75.1 129.9 76.1 129.9 76.85 130.25 77.3 130.65 77.75 131.25 77.75 131.95 77.75 132.5 77.2
L 132.4 77.85
Q 132.3 78.25 132.1 78.45 131.9 78.65 131.6 78.65 131.2 78.65 131.15 78.2
L 129.65 78
Q 129.65 78.05 129.65 78.2 129.65 78.6 129.9 79 130.2 79.35 130.6 79.45 131 79.6 131.7 79.6 132.7 79.6 133.25 79.2 133.75 78.8 134 77.65
L 134.85 73.75
M 132.65 76.2
Q 132.45 76.7 132 76.7 131.75 76.7 131.6 76.5 131.45 76.35 131.45 76.05 131.45 75.55 131.7 75.15 131.95 74.7 132.35 74.7 132.55 74.7 132.7 74.9 132.9 75.05 132.9 75.3 132.9 75.75 132.65 76.2
M 129.85 72.15
L 128.25 72.15 128.05 73.25 129.6 73.25 129.85 72.15
M 129.5 73.75
L 127.9 73.75 127.05 77.9 128.65 77.9 129.5 73.75
M 149.7 73.8
Q 149.4 73.65 149.15 73.65 148.85 73.65 148.55 73.85 148.25 74.05 147.9 74.6
L 147.9 74.55 148.05 73.75 146.55 73.75 145.7 77.9 147.3 77.9 147.6 76.35
Q 147.75 75.65 148.05 75.3 148.35 74.95 148.8 74.95 148.95 74.95 149.1 75
L 149.7 73.8
M 143.25 73.65
Q 142.7 73.65 142.3 73.8 141.9 73.9 141.5 74.2 141.05 74.55 140.8 75.05 140.6 75.55 140.6 76.1 140.6 76.9 141.1 77.45 141.6 78 142.85 78 143.7 78 144.25 77.75 144.8 77.45 145.15 76.85
L 143.6 76.7
Q 143.35 77.05 142.9 77.05 142.2 77.05 142.15 76.25
L 145.3 76.25
Q 145.4 75.65 145.4 75.4 145.4 74.65 144.9 74.15 144.4 73.65 143.25 73.65
M 143.2 74.6
Q 143.5 74.6 143.65 74.75 143.85 74.9 143.85 75.25 143.85 75.4 143.85 75.45
L 142.3 75.45
Q 142.4 75.05 142.65 74.8 142.9 74.6 143.2 74.6
M 124.9 73.65
Q 124.15 73.65 123.65 73.85 123.15 74.05 122.9 74.4 122.65 74.75 122.65 75.1 122.65 75.55 123 75.85 123.3 76.15 124.25 76.3 124.65 76.35 124.8 76.45 124.95 76.5 124.95 76.7 124.95 76.9 124.75 77 124.55 77.1 124.3 77.1 123.7 77.1 123.6 76.6
L 122.05 76.75
Q 122.1 77.4 122.6 77.7 123.05 78 124.05 78 125.25 78 125.85 77.55 126.45 77.1 126.45 76.45 126.45 76 126.15 75.7 125.85 75.45 124.9 75.3 124.35 75.2 124.2 75.15 124.1 75.05 124.1 74.9 124.1 74.75 124.25 74.65 124.4 74.55 124.65 74.55 125.15 74.55 125.25 74.9
L 126.7 74.75
Q 126.6 74.15 126.15 73.9 125.7 73.65 124.9 73.65
M 118.7 73.8
Q 118.3 73.9 117.9 74.2 117.45 74.55 117.2 75.05 117 75.55 117 76.1 117 76.9 117.5 77.45 118 78 119.25 78 120.1 78 120.65 77.75 121.2 77.45 121.55 76.85
L 120 76.7
Q 119.75 77.05 119.3 77.05 118.6 77.05 118.55 76.25
L 121.7 76.25
Q 121.8 75.65 121.8 75.4 121.8 74.65 121.3 74.15 120.8 73.65 119.65 73.65 119.1 73.65 118.7 73.8
M 120.25 75.25
Q 120.25 75.4 120.25 75.45
L 118.7 75.45
Q 118.8 75.05 119.05 74.8 119.3 74.6 119.6 74.6 119.9 74.6 120.05 74.75 120.25 74.9 120.25 75.25
M 78.3 73.65
Q 77.45 73.65 76.9 74 76.3 74.3 76 74.9 75.65 75.5 75.65 76.1 75.65 76.9 76.2 77.45 76.7 78 77.8 78 78.65 78 79.25 77.65 79.85 77.3 80.15 76.7 80.4 76.1 80.4 75.55 80.4 74.8 79.9 74.2 79.4 73.65 78.3 73.65
M 78.65 74.9
Q 78.85 75.05 78.85 75.45 78.85 76 78.6 76.45 78.35 76.9 77.9 76.9 77.6 76.9 77.4 76.7 77.2 76.45 77.2 76.1 77.2 75.65 77.5 75.2 77.75 74.75 78.25 74.75 78.45 74.75 78.65 74.9
M 75.6 73.7
Q 75.6 73.2 75.45 72.85 75.25 72.5 74.85 72.35 74.5 72.15 73.75 72.15
L 71.15 72.15 69.9 77.9 71.7 77.9 72.15 75.8 72.95 75.8
Q 73.85 75.8 74.4 75.55 74.9 75.35 75.3 74.85 75.6 74.35 75.6 73.7
M 73.4 73.3
Q 73.95 73.3 73.95 73.8 73.95 74.15 73.7 74.4 73.4 74.65 73 74.65
L 72.4 74.65 72.7 73.3 73.4 73.3
M 106.95 77.9
L 107.25 76.3 105.55 76.3 105.2 77.9 106.95 77.9
M 99 74.2
Q 98.5 73.65 97.4 73.65 96.55 73.65 96 74 95.4 74.3 95.1 74.9 94.75 75.5 94.75 76.1 94.75 76.9 95.3 77.45 95.8 78 96.9 78 97.75 78 98.35 77.65 98.95 77.3 99.25 76.7 99.5 76.1 99.5 75.55 99.5 74.8 99 74.2
M 96.6 75.2
Q 96.85 74.75 97.35 74.75 97.55 74.75 97.75 74.9 97.95 75.05 97.95 75.45 97.95 76 97.7 76.45 97.45 76.9 97 76.9 96.7 76.9 96.5 76.7 96.3 76.45 96.3 76.1 96.3 75.65 96.6 75.2
M 94.4 73.75
L 92.8 73.75 91.95 77.9 93.55 77.9 94.4 73.75
M 94.5 73.25
L 94.75 72.15 93.15 72.15 92.95 73.25 94.5 73.25
M 88.2 73.75
L 86.6 73.75 85.75 77.9 87.35 77.9 88.2 73.75
M 88.3 73.25
L 88.55 72.15 86.95 72.15 86.75 73.25 88.3 73.25
M 89.5 73.75
L 88.9 73.75 88.65 74.9 89.25 74.9 88.95 76.3
Q 88.85 76.85 88.85 77 88.85 77.35 89.1 77.7 89.4 78 90.05 78 90.4 78 91.1 77.9
L 91.35 76.75
Q 90.95 76.85 90.85 76.85 90.5 76.85 90.5 76.55 90.5 76.45 90.5 76.35
L 90.8 74.9 91.65 74.9 91.9 73.75 91.05 73.75 91.4 72.2 89.6 73.1 89.5 73.75
M 83.6 73.65
Q 82.85 73.65 82.35 73.85 81.85 74.05 81.6 74.4 81.35 74.75 81.35 75.1 81.35 75.55 81.7 75.85 82 76.15 82.95 76.3 83.35 76.35 83.5 76.45 83.65 76.5 83.65 76.7 83.65 76.9 83.45 77 83.25 77.1 83 77.1 82.4 77.1 82.3 76.6
L 80.75 76.75
Q 80.8 77.4 81.3 77.7 81.75 78 82.75 78 83.95 78 84.55 77.55 85.15 77.1 85.15 76.45 85.15 76 84.85 75.7 84.55 75.45 83.6 75.3 83.05 75.2 82.9 75.15 82.8 75.05 82.8 74.9 82.8 74.75 82.95 74.65 83.1 74.55 83.35 74.55 83.85 74.55 83.95 74.9
L 85.4 74.75
Q 85.3 74.15 84.85 73.9 84.4 73.65 83.6 73.65
M 114.2 72.15
L 111.85 72.15 110.65 77.9 113.65 77.9
Q 114.25 77.9 114.95 77.6 115.6 77.35 116.1 76.45 116.6 75.6 116.6 74.55 116.6 73.5 116 72.85 115.45 72.15 114.2 72.15
M 113.35 73.45
L 113.9 73.45
Q 114.45 73.45 114.65 73.7 114.85 73.95 114.85 74.4 114.85 75.15 114.5 75.9 114.15 76.65 113.4 76.65
L 112.7 76.65 113.35 73.45
M 107.8 73.75
L 106.1 73.75 105.75 75.35 107.45 75.35 107.8 73.75
M 104.6 73.95
Q 104.3 73.65 103.75 73.65 102.8 73.65 102.15 74.4
L 102.25 73.75 100.8 73.75 99.9 77.9 101.5 77.9 101.9 76.1
Q 102 75.5 102.3 75.15 102.55 74.8 102.9 74.8 103.2 74.8 103.2 75.15 103.2 75.25 103.05 75.95
L 102.65 77.9 104.25 77.9 104.7 75.65
Q 104.85 74.9 104.85 74.65 104.85 74.25 104.6 73.95
M 133.4 61.75
Q 133.4 60.65 132.65 59.9 131.9 59.15 130.15 59.15 129.35 59.15 128.75 59.3 128.15 59.5 127.5 60 126.9 60.5 126.55 61.2 126.15 61.95 126.15 62.8 126.15 64 126.95 64.8 127.7 65.65 129.55 65.65 130.85 65.65 131.65 65.25 132.5 64.85 133.05 63.9
L 130.75 63.7
Q 130.3 64.25 129.65 64.25 128.6 64.25 128.5 63
L 133.25 63
Q 133.4 62.1 133.4 61.75
M 128.75 61.85
Q 128.9 61.2 129.3 60.85 129.65 60.55 130.1 60.55 130.5 60.55 130.8 60.8 131.1 61 131.1 61.5 131.1 61.7 131.05 61.85
L 128.75 61.85
M 139.8 56.9
L 139.1 60.1
Q 138.45 59.15 137.15 59.15 135.85 59.15 135 60.3 134.15 61.5 134.15 63.05 134.15 64.25 134.75 64.95 135.3 65.65 136.35 65.65 136.9 65.65 137.3 65.5 137.7 65.3 138.25 64.85
L 138.25 64.9 138.15 65.5 140.35 65.5 142.2 56.9 139.8 56.9
M 136.85 61.4
Q 137.25 60.75 137.75 60.75 138.15 60.75 138.4 61 138.7 61.3 138.7 61.85 138.7 62.6 138.35 63.35 137.95 64.1 137.3 64.1 136.95 64.1 136.75 63.8 136.5 63.55 136.5 63 136.5 62.05 136.85 61.4
M 146.1 56.9
L 143.7 56.9 143.35 58.55 145.75 58.55 146.1 56.9
M 145.6 59.3
L 143.2 59.3 141.85 65.5 144.25 65.5 145.6 59.3
M 153.25 60.95
Q 153.25 60.05 152.6 59.6 151.95 59.15 150.1 59.15 148.5 59.15 147.7 59.6 146.95 60.1 146.75 61
L 148.95 61.25
Q 149.15 60.8 149.4 60.7 149.65 60.55 150.05 60.55 150.45 60.55 150.7 60.7 150.95 60.8 150.95 61.05 150.95 61.2 150.85 61.5 150.5 61.6 149.5 61.7 148.3 61.8 147.65 61.95 146.95 62.15 146.5 62.55 146.05 63 146.05 63.8 146.05 64.55 146.55 65.1 147.1 65.65 148.25 65.65 149.4 65.65 150.35 64.8 150.35 65.15 150.45 65.5
L 152.75 65.5
Q 152.6 65.05 152.6 64.65 152.6 64.15 152.9 62.85 153.25 61.55 153.25 60.95
M 150.6 62.7
Q 150.45 63.6 150 64 149.55 64.35 149.1 64.35 148.8 64.35 148.6 64.2 148.4 64 148.4 63.7 148.4 63.4 148.65 63.2 148.95 63 150.6 62.7
M 98.5 65.5
L 100.9 65.5 102.25 59.3 99.85 59.3 98.5 65.5
M 88.45 59.3
L 86.25 59.3 84.9 65.5 87.3 65.5 87.8 63.15
Q 88 62.1 88.45 61.6 88.9 61.1 89.55 61.1 89.8 61.1 90.05 61.15
L 90.95 59.35
Q 90.5 59.15 90.1 59.15 89.6 59.15 89.2 59.4 88.75 59.7 88.2 60.55
L 88.2 60.5 88.45 59.3
M 93.95 59.15
Q 92.6 59.15 91.7 60.25 90.8 61.35 90.8 62.8 90.8 63.9 91.4 64.6 91.95 65.25 92.9 65.25 93.95 65.25 94.75 64.45
L 94.55 65.4
Q 94.45 66 94.15 66.3 93.85 66.6 93.4 66.6 92.75 66.6 92.75 65.95
L 90.45 65.65
Q 90.45 65.75 90.45 65.95 90.45 66.55 90.85 67.1 91.3 67.65 91.9 67.85 92.45 68 93.55 68 95.05 68 95.85 67.45 96.65 66.85 97 65.15
L 98.25 59.3 96.05 59.3 95.85 60.15
Q 95.1 59.15 93.95 59.15
M 95.1 61
Q 95.3 61.2 95.3 61.6 95.3 62.25 95 62.95 94.65 63.65 94 63.65 93.6 63.65 93.4 63.4 93.15 63.15 93.15 62.75 93.15 61.95 93.55 61.35 93.95 60.7 94.5 60.7 94.85 60.7 95.1 61
M 106.05 59.3
L 103.8 59.3 102.45 65.5 104.85 65.5 105.45 62.8
Q 105.65 61.85 106.05 61.4 106.45 60.9 106.95 60.9 107.45 60.9 107.45 61.4 107.45 61.55 107.2 62.6
L 106.6 65.5 109 65.5 109.7 62.1
Q 109.95 61 109.95 60.65 109.95 60 109.5 59.6 109.1 59.15 108.25 59.15 106.85 59.15 105.85 60.25
L 105.8 60.2 106.05 59.3
M 102.4 58.55
L 102.75 56.9 100.35 56.9 100 58.55 102.4 58.55
M 119.6 56.9
L 116.4 56.9 114.55 65.5 116.75 65.5 118 58.95 118.4 65.5 120.35 65.5 123.5 58.95 123.55 58.95 121.95 65.5 124.2 65.5 126.05 56.9 122.7 56.9 119.95 62.35 119.6 56.9
M 81.15 60.55
Q 81.55 60.55 81.8 60.7 82.05 60.8 82.05 61.05 82.05 61.2 81.95 61.5 81.6 61.6 80.6 61.7 79.4 61.8 78.75 61.95 78.05 62.15 77.6 62.55 77.15 63 77.15 63.8 77.15 64.55 77.65 65.1 78.2 65.65 79.35 65.65 80.5 65.65 81.45 64.8 81.45 65.15 81.55 65.5
L 83.85 65.5
Q 83.7 65.05 83.7 64.65 83.7 64.15 84 62.85 84.35 61.55 84.35 60.95 84.35 60.05 83.7 59.6 83.05 59.15 81.2 59.15 79.6 59.15 78.8 59.6 78.05 60.1 77.85 61
L 80.05 61.25
Q 80.25 60.8 80.5 60.7 80.75 60.55 81.15 60.55
M 81.7 62.7
Q 81.55 63.6 81.1 64 80.65 64.35 80.2 64.35 79.9 64.35 79.7 64.2 79.5 64 79.5 63.7 79.5 63.4 79.75 63.2 80.05 63 81.7 62.7
M 77.15 56.9
L 73.8 56.9 71.05 62.35 70.7 56.9 67.5 56.9 65.65 65.5 67.85 65.5 69.1 58.95 69.5 65.5 71.45 65.5 74.6 58.95 74.65 58.95 73.05 65.5 75.3 65.5 77.15 56.9
M 165.5 12
L 165.5 4.5 155.5 4.5 155.5 7 163 7 163 9.5 155.5 9.5 155.5 17 165.5 17 165.5 14.5 158 14.5 158 12 165.5 12 Z"/>

<path fill="#911616" stroke="none" d="
M 49.15 95.3
L 49.25 86.65 30.15 86.65 49.15 95.3
M 169.2 86.65
L 169.3 95.35 188.4 86.65 188.25 86.65 169.2 86.65 Z"/>

<path fill="#A12C2C" stroke="none" d="
M 30 86.65
L 30 63.2 0 63.2 16.1 79.25 0 95.35 49.15 95.35 49.15 95.3 30.15 86.65 30 86.65
M 188.3 63.2
L 188.3 86.55 188.25 86.6 188.25 86.65 188.4 86.65 169.3 95.35 218.35 95.35 202.25 79.25 218.35 63.2 188.3 63.2 Z"/>

<path fill="#B84F4F" stroke="none" d="
M 188.25 86.6
L 188.25 49.5 30 49.5 30 63.2 30 86.65 30.15 86.65 49.25 86.65 169.2 86.65 188.25 86.65 188.25 86.6
M 73.8 56.9
L 77.15 56.9 75.3 65.5 73.05 65.5 74.65 58.95 74.6 58.95 71.45 65.5 69.5 65.5 69.1 58.95 67.85 65.5 65.65 65.5 67.5 56.9 70.7 56.9 71.05 62.35 73.8 56.9
M 81.8 60.7
Q 81.55 60.55 81.15 60.55 80.75 60.55 80.5 60.7 80.25 60.8 80.05 61.25
L 77.85 61
Q 78.05 60.1 78.8 59.6 79.6 59.15 81.2 59.15 83.05 59.15 83.7 59.6 84.35 60.05 84.35 60.95 84.35 61.55 84 62.85 83.7 64.15 83.7 64.65 83.7 65.05 83.85 65.5
L 81.55 65.5
Q 81.45 65.15 81.45 64.8 80.5 65.65 79.35 65.65 78.2 65.65 77.65 65.1 77.15 64.55 77.15 63.8 77.15 63 77.6 62.55 78.05 62.15 78.75 61.95 79.4 61.8 80.6 61.7 81.6 61.6 81.95 61.5 82.05 61.2 82.05 61.05 82.05 60.8 81.8 60.7
M 116.4 56.9
L 119.6 56.9 119.95 62.35 122.7 56.9 126.05 56.9 124.2 65.5 121.95 65.5 123.55 58.95 123.5 58.95 120.35 65.5 118.4 65.5 118 58.95 116.75 65.5 114.55 65.5 116.4 56.9
M 102.75 56.9
L 102.4 58.55 100 58.55 100.35 56.9 102.75 56.9
M 103.8 59.3
L 106.05 59.3 105.8 60.2 105.85 60.25
Q 106.85 59.15 108.25 59.15 109.1 59.15 109.5 59.6 109.95 60 109.95 60.65 109.95 61 109.7 62.1
L 109 65.5 106.6 65.5 107.2 62.6
Q 107.45 61.55 107.45 61.4 107.45 60.9 106.95 60.9 106.45 60.9 106.05 61.4 105.65 61.85 105.45 62.8
L 104.85 65.5 102.45 65.5 103.8 59.3
M 91.7 60.25
Q 92.6 59.15 93.95 59.15 95.1 59.15 95.85 60.15
L 96.05 59.3 98.25 59.3 97 65.15
Q 96.65 66.85 95.85 67.45 95.05 68 93.55 68 92.45 68 91.9 67.85 91.3 67.65 90.85 67.1 90.45 66.55 90.45 65.95 90.45 65.75 90.45 65.65
L 92.75 65.95
Q 92.75 66.6 93.4 66.6 93.85 66.6 94.15 66.3 94.45 66 94.55 65.4
L 94.75 64.45
Q 93.95 65.25 92.9 65.25 91.95 65.25 91.4 64.6 90.8 63.9 90.8 62.8 90.8 61.35 91.7 60.25
M 86.25 59.3
L 88.45 59.3 88.2 60.5 88.2 60.55
Q 88.75 59.7 89.2 59.4 89.6 59.15 90.1 59.15 90.5 59.15 90.95 59.35
L 90.05 61.15
Q 89.8 61.1 89.55 61.1 88.9 61.1 88.45 61.6 88 62.1 87.8 63.15
L 87.3 65.5 84.9 65.5 86.25 59.3
M 100.9 65.5
L 98.5 65.5 99.85 59.3 102.25 59.3 100.9 65.5
M 152.6 59.6
Q 153.25 60.05 153.25 60.95 153.25 61.55 152.9 62.85 152.6 64.15 152.6 64.65 152.6 65.05 152.75 65.5
L 150.45 65.5
Q 150.35 65.15 150.35 64.8 149.4 65.65 148.25 65.65 147.1 65.65 146.55 65.1 146.05 64.55 146.05 63.8 146.05 63 146.5 62.55 146.95 62.15 147.65 61.95 148.3 61.8 149.5 61.7 150.5 61.6 150.85 61.5 150.95 61.2 150.95 61.05 150.95 60.8 150.7 60.7 150.45 60.55 150.05 60.55 149.65 60.55 149.4 60.7 149.15 60.8 148.95 61.25
L 146.75 61
Q 146.95 60.1 147.7 59.6 148.5 59.15 150.1 59.15 151.95 59.15 152.6 59.6
M 143.2 59.3
L 145.6 59.3 144.25 65.5 141.85 65.5 143.2 59.3
M 143.7 56.9
L 146.1 56.9 145.75 58.55 143.35 58.55 143.7 56.9
M 139.1 60.1
L 139.8 56.9 142.2 56.9 140.35 65.5 138.15 65.5 138.25 64.9 138.25 64.85
Q 137.7 65.3 137.3 65.5 136.9 65.65 136.35 65.65 135.3 65.65 134.75 64.95 134.15 64.25 134.15 63.05 134.15 61.5 135 60.3 135.85 59.15 137.15 59.15 138.45 59.15 139.1 60.1
M 132.65 59.9
Q 133.4 60.65 133.4 61.75 133.4 62.1 133.25 63
L 128.5 63
Q 128.6 64.25 129.65 64.25 130.3 64.25 130.75 63.7
L 133.05 63.9
Q 132.5 64.85 131.65 65.25 130.85 65.65 129.55 65.65 127.7 65.65 126.95 64.8 126.15 64 126.15 62.8 126.15 61.95 126.55 61.2 126.9 60.5 127.5 60 128.15 59.5 128.75 59.3 129.35 59.15 130.15 59.15 131.9 59.15 132.65 59.9
M 103.75 73.65
Q 104.3 73.65 104.6 73.95 104.85 74.25 104.85 74.65 104.85 74.9 104.7 75.65
L 104.25 77.9 102.65 77.9 103.05 75.95
Q 103.2 75.25 103.2 75.15 103.2 74.8 102.9 74.8 102.55 74.8 102.3 75.15 102 75.5 101.9 76.1
L 101.5 77.9 99.9 77.9 100.8 73.75 102.25 73.75 102.15 74.4
Q 102.8 73.65 103.75 73.65
M 106.1 73.75
L 107.8 73.75 107.45 75.35 105.75 75.35 106.1 73.75
M 111.85 72.15
L 114.2 72.15
Q 115.45 72.15 116 72.85 116.6 73.5 116.6 74.55 116.6 75.6 116.1 76.45 115.6 77.35 114.95 77.6 114.25 77.9 113.65 77.9
L 110.65 77.9 111.85 72.15
M 82.35 73.85
Q 82.85 73.65 83.6 73.65 84.4 73.65 84.85 73.9 85.3 74.15 85.4 74.75
L 83.95 74.9
Q 83.85 74.55 83.35 74.55 83.1 74.55 82.95 74.65 82.8 74.75 82.8 74.9 82.8 75.05 82.9 75.15 83.05 75.2 83.6 75.3 84.55 75.45 84.85 75.7 85.15 76 85.15 76.45 85.15 77.1 84.55 77.55 83.95 78 82.75 78 81.75 78 81.3 77.7 80.8 77.4 80.75 76.75
L 82.3 76.6
Q 82.4 77.1 83 77.1 83.25 77.1 83.45 77 83.65 76.9 83.65 76.7 83.65 76.5 83.5 76.45 83.35 76.35 82.95 76.3 82 76.15 81.7 75.85 81.35 75.55 81.35 75.1 81.35 74.75 81.6 74.4 81.85 74.05 82.35 73.85
M 88.9 73.75
L 89.5 73.75 89.6 73.1 91.4 72.2 91.05 73.75 91.9 73.75 91.65 74.9 90.8 74.9 90.5 76.35
Q 90.5 76.45 90.5 76.55 90.5 76.85 90.85 76.85 90.95 76.85 91.35 76.75
L 91.1 77.9
Q 90.4 78 90.05 78 89.4 78 89.1 77.7 88.85 77.35 88.85 77 88.85 76.85 88.95 76.3
L 89.25 74.9 88.65 74.9 88.9 73.75
M 88.55 72.15
L 88.3 73.25 86.75 73.25 86.95 72.15 88.55 72.15
M 86.6 73.75
L 88.2 73.75 87.35 77.9 85.75 77.9 86.6 73.75
M 94.75 72.15
L 94.5 73.25 92.95 73.25 93.15 72.15 94.75 72.15
M 92.8 73.75
L 94.4 73.75 93.55 77.9 91.95 77.9 92.8 73.75
M 97.4 73.65
Q 98.5 73.65 99 74.2 99.5 74.8 99.5 75.55 99.5 76.1 99.25 76.7 98.95 77.3 98.35 77.65 97.75 78 96.9 78 95.8 78 95.3 77.45 94.75 76.9 94.75 76.1 94.75 75.5 95.1 74.9 95.4 74.3 96 74 96.55 73.65 97.4 73.65
M 107.25 76.3
L 106.95 77.9 105.2 77.9 105.55 76.3 107.25 76.3
M 75.45 72.85
Q 75.6 73.2 75.6 73.7 75.6 74.35 75.3 74.85 74.9 75.35 74.4 75.55 73.85 75.8 72.95 75.8
L 72.15 75.8 71.7 77.9 69.9 77.9 71.15 72.15 73.75 72.15
Q 74.5 72.15 74.85 72.35 75.25 72.5 75.45 72.85
M 76.9 74
Q 77.45 73.65 78.3 73.65 79.4 73.65 79.9 74.2 80.4 74.8 80.4 75.55 80.4 76.1 80.15 76.7 79.85 77.3 79.25 77.65 78.65 78 77.8 78 76.7 78 76.2 77.45 75.65 76.9 75.65 76.1 75.65 75.5 76 74.9 76.3 74.3 76.9 74
M 117.9 74.2
Q 118.3 73.9 118.7 73.8 119.1 73.65 119.65 73.65 120.8 73.65 121.3 74.15 121.8 74.65 121.8 75.4 121.8 75.65 121.7 76.25
L 118.55 76.25
Q 118.6 77.05 119.3 77.05 119.75 77.05 120 76.7
L 121.55 76.85
Q 121.2 77.45 120.65 77.75 120.1 78 119.25 78 118 78 117.5 77.45 117 76.9 117 76.1 117 75.55 117.2 75.05 117.45 74.55 117.9 74.2
M 123.65 73.85
Q 124.15 73.65 124.9 73.65 125.7 73.65 126.15 73.9 126.6 74.15 126.7 74.75
L 125.25 74.9
Q 125.15 74.55 124.65 74.55 124.4 74.55 124.25 74.65 124.1 74.75 124.1 74.9 124.1 75.05 124.2 75.15 124.35 75.2 124.9 75.3 125.85 75.45 126.15 75.7 126.45 76 126.45 76.45 126.45 77.1 125.85 77.55 125.25 78 124.05 78 123.05 78 122.6 77.7 122.1 77.4 122.05 76.75
L 123.6 76.6
Q 123.7 77.1 124.3 77.1 124.55 77.1 124.75 77 124.95 76.9 124.95 76.7 124.95 76.5 124.8 76.45 124.65 76.35 124.25 76.3 123.3 76.15 123 75.85 122.65 75.55 122.65 75.1 122.65 74.75 122.9 74.4 123.15 74.05 123.65 73.85
M 142.3 73.8
Q 142.7 73.65 143.25 73.65 144.4 73.65 144.9 74.15 145.4 74.65 145.4 75.4 145.4 75.65 145.3 76.25
L 142.15 76.25
Q 142.2 77.05 142.9 77.05 143.35 77.05 143.6 76.7
L 145.15 76.85
Q 144.8 77.45 144.25 77.75 143.7 78 142.85 78 141.6 78 141.1 77.45 140.6 76.9 140.6 76.1 140.6 75.55 140.8 75.05 141.05 74.55 141.5 74.2 141.9 73.9 142.3 73.8
M 149.15 73.65
Q 149.4 73.65 149.7 73.8
L 149.1 75
Q 148.95 74.95 148.8 74.95 148.35 74.95 148.05 75.3 147.75 75.65 147.6 76.35
L 147.3 77.9 145.7 77.9 146.55 73.75 148.05 73.75 147.9 74.55 147.9 74.6
Q 148.25 74.05 148.55 73.85 148.85 73.65 149.15 73.65
M 127.9 73.75
L 129.5 73.75 128.65 77.9 127.05 77.9 127.9 73.75
M 128.25 72.15
L 129.85 72.15 129.6 73.25 128.05 73.25 128.25 72.15
M 133.35 73.75
L 134.85 73.75 134 77.65
Q 133.75 78.8 133.25 79.2 132.7 79.6 131.7 79.6 131 79.6 130.6 79.45 130.2 79.35 129.9 79 129.65 78.6 129.65 78.2 129.65 78.05 129.65 78
L 131.15 78.2
Q 131.2 78.65 131.6 78.65 131.9 78.65 132.1 78.45 132.3 78.25 132.4 77.85
L 132.5 77.2
Q 131.95 77.75 131.25 77.75 130.65 77.75 130.25 77.3 129.9 76.85 129.9 76.1 129.9 75.1 130.45 74.4 131.05 73.65 131.95 73.65 132.75 73.65 133.25 74.35
L 133.35 73.75
M 138.85 73.65
Q 139.4 73.65 139.7 73.95 139.95 74.25 139.95 74.65 139.95 74.9 139.8 75.65
L 139.35 77.9 137.75 77.9 138.15 75.95
Q 138.3 75.25 138.3 75.15 138.3 74.8 138 74.8 137.65 74.8 137.4 75.15 137.1 75.5 137 76.1
L 136.6 77.9 135 77.9 135.9 73.75 137.35 73.75 137.25 74.4
Q 137.9 73.65 138.85 73.65
M 132 76.7
Q 132.45 76.7 132.65 76.2 132.9 75.75 132.9 75.3 132.9 75.05 132.7 74.9 132.55 74.7 132.35 74.7 131.95 74.7 131.7 75.15 131.45 75.55 131.45 76.05 131.45 76.35 131.6 76.5 131.75 76.7 132 76.7
M 143.65 74.75
Q 143.5 74.6 143.2 74.6 142.9 74.6 142.65 74.8 142.4 75.05 142.3 75.45
L 143.85 75.45
Q 143.85 75.4 143.85 75.25 143.85 74.9 143.65 74.75
M 120.25 75.45
Q 120.25 75.4 120.25 75.25 120.25 74.9 120.05 74.75 119.9 74.6 119.6 74.6 119.3 74.6 119.05 74.8 118.8 75.05 118.7 75.45
L 120.25 75.45
M 78.85 75.45
Q 78.85 75.05 78.65 74.9 78.45 74.75 78.25 74.75 77.75 74.75 77.5 75.2 77.2 75.65 77.2 76.1 77.2 76.45 77.4 76.7 77.6 76.9 77.9 76.9 78.35 76.9 78.6 76.45 78.85 76 78.85 75.45
M 73.95 73.8
Q 73.95 73.3 73.4 73.3
L 72.7 73.3 72.4 74.65 73 74.65
Q 73.4 74.65 73.7 74.4 73.95 74.15 73.95 73.8
M 97.35 74.75
Q 96.85 74.75 96.6 75.2 96.3 75.65 96.3 76.1 96.3 76.45 96.5 76.7 96.7 76.9 97 76.9 97.45 76.9 97.7 76.45 97.95 76 97.95 75.45 97.95 75.05 97.75 74.9 97.55 74.75 97.35 74.75
M 113.9 73.45
L 113.35 73.45 112.7 76.65 113.4 76.65
Q 114.15 76.65 114.5 75.9 114.85 75.15 114.85 74.4 114.85 73.95 114.65 73.7 114.45 73.45 113.9 73.45
M 129.3 60.85
Q 128.9 61.2 128.75 61.85
L 131.05 61.85
Q 131.1 61.7 131.1 61.5 131.1 61 130.8 60.8 130.5 60.55 130.1 60.55 129.65 60.55 129.3 60.85
M 137.75 60.75
Q 137.25 60.75 136.85 61.4 136.5 62.05 136.5 63 136.5 63.55 136.75 63.8 136.95 64.1 137.3 64.1 137.95 64.1 138.35 63.35 138.7 62.6 138.7 61.85 138.7 61.3 138.4 61 138.15 60.75 137.75 60.75
M 150 64
Q 150.45 63.6 150.6 62.7 148.95 63 148.65 63.2 148.4 63.4 148.4 63.7 148.4 64 148.6 64.2 148.8 64.35 149.1 64.35 149.55 64.35 150 64
M 95.3 61.6
Q 95.3 61.2 95.1 61 94.85 60.7 94.5 60.7 93.95 60.7 93.55 61.35 93.15 61.95 93.15 62.75 93.15 63.15 93.4 63.4 93.6 63.65 94 63.65 94.65 63.65 95 62.95 95.3 62.25 95.3 61.6
M 81.1 64
Q 81.55 63.6 81.7 62.7 80.05 63 79.75 63.2 79.5 63.4 79.5 63.7 79.5 64 79.7 64.2 79.9 64.35 80.2 64.35 80.65 64.35 81.1 64 Z"/>
</g>
</defs>

<g transform="matrix( 1, 0, 0, 1, 0,0) ">
<use xlink:href="#Layer0_0_FILL"/>
</g>
</svg>
