
<svg xmlns="http://www.w3.org/2000/svg" version="1.1" xmlns:xlink="http://www.w3.org/1999/xlink" preserveAspectRatio="none" x="0px" y="0px" width="225px" height="96px" viewBox="0 0 225 96">
<defs>
<g id="Layer0_0_FILL">
<path fill="#FFFFFF" stroke="none" d="
M 77.35 17
L 77.35 4.5 67.35 4.5 67.35 17 77.35 17
M 69.85 14.5
L 69.85 7 74.85 7 74.85 14.5 69.85 14.5
M 62.35 7
L 62.35 9.5 54.85 9.5 54.85 17 64.85 17 64.85 14.5 57.35 14.5 57.35 12 64.85 12 64.85 4.5 54.85 4.5 54.85 7 62.35 7
M 109.75 34.75
L 109.75 37.25 112.25 37.25 112.25 34.75 109.75 34.75
M 112.25 27.25
L 112.25 24.75 109.75 24.75 109.75 27.25 112.25 27.25
M 112.25 32.25
L 112.25 29.75 109.75 29.75 109.75 32.25 112.25 32.25
M 82.35 17
L 84.85 17 84.85 4.5 79.85 4.5 79.85 7 82.35 7 82.35 17
M 94.85 7
L 94.85 9.5 87.35 9.5 87.35 17 97.35 17 97.35 14.5 89.85 14.5 89.85 12 97.35 12 97.35 4.5 87.35 4.5 87.35 7 94.85 7
M 114.85 9.5
L 107.35 9.5 107.35 12 114.85 12 114.85 9.5
M 134.85 12
L 134.85 4.5 124.85 4.5 124.85 7 132.35 7 132.35 9.5 124.85 9.5 124.85 17 134.85 17 134.85 14.5 127.35 14.5 127.35 12 134.85 12
M 147.35 17
L 147.35 4.5 137.35 4.5 137.35 17 147.35 17
M 144.85 7
L 144.85 14.5 139.85 14.5 139.85 7 144.85 7
M 149.85 4.5
L 149.85 7 152.35 7 152.35 17 154.85 17 154.85 4.5 149.85 4.5
M 160.3 75.6
Q 160.2 74.85 159.65 74.45 159.1 74.05 158.15 74.05 156.85 74.05 156.1 74.8 155.4 75.55 155.4 76.6 155.4 78.4 157.6 78.4 159.55 78.4 160.1 76.8
L 158.6 76.6
Q 158.3 77.3 157.65 77.3 157.4 77.3 157.15 77.15 156.95 76.95 156.95 76.65 156.95 76.05 157.25 75.6 157.55 75.15 158.15 75.15 158.8 75.15 158.9 75.7
L 160.3 75.6
M 169 75.95
Q 169 75.2 168.5 74.6 168 74.05 166.9 74.05 166.05 74.05 165.5 74.4 164.9 74.7 164.6 75.3 164.25 75.9 164.25 76.5 164.25 77.3 164.8 77.85 165.3 78.4 166.4 78.4 167.25 78.4 167.85 78.05 168.45 77.7 168.75 77.1 169 76.5 169 75.95
M 167.25 75.3
Q 167.45 75.45 167.45 75.85 167.45 76.4 167.2 76.85 166.95 77.3 166.5 77.3 166.2 77.3 166 77.1 165.8 76.85 165.8 76.5 165.8 76.05 166.1 75.6 166.35 75.15 166.85 75.15 167.05 75.15 167.25 75.3
M 173.4 74.2
Q 173.1 74.05 172.85 74.05 172.55 74.05 172.25 74.25 171.95 74.45 171.6 75
L 171.6 74.95 171.75 74.15 170.25 74.15 169.4 78.3 171 78.3 171.3 76.75
Q 171.45 76.05 171.75 75.7 172.05 75.35 172.5 75.35 172.65 75.35 172.8 75.4
L 173.4 74.2
M 163.2 74.15
L 163.55 72.6 161.75 73.5 161.65 74.15 161.05 74.15 160.8 75.3 161.4 75.3 161.1 76.7
Q 161 77.25 161 77.4 161 77.75 161.25 78.1 161.55 78.4 162.2 78.4 162.55 78.4 163.25 78.3
L 163.5 77.15
Q 163.1 77.25 163 77.25 162.65 77.25 162.65 76.95 162.65 76.85 162.65 76.75
L 162.95 75.3 163.8 75.3 164.05 74.15 163.2 74.15
M 152.7 74.05
Q 152.15 74.05 151.75 74.2 151.35 74.3 150.95 74.6 150.5 74.95 150.25 75.45 150.05 75.95 150.05 76.5 150.05 77.3 150.55 77.85 151.05 78.4 152.3 78.4 153.15 78.4 153.7 78.15 154.25 77.85 154.6 77.25
L 153.05 77.1
Q 152.8 77.45 152.35 77.45 151.65 77.45 151.6 76.65
L 154.75 76.65
Q 154.85 76.05 154.85 75.8 154.85 75.05 154.35 74.55 153.85 74.05 152.7 74.05
M 152.1 75.2
Q 152.35 75 152.65 75 152.95 75 153.1 75.15 153.3 75.3 153.3 75.65 153.3 75.8 153.3 75.85
L 151.75 75.85
Q 151.85 75.45 152.1 75.2
M 127.75 78.05
Q 128.35 77.7 128.65 77.1 128.9 76.5 128.9 75.95 128.9 75.2 128.4 74.6 127.9 74.05 126.8 74.05 125.95 74.05 125.4 74.4 124.8 74.7 124.5 75.3 124.15 75.9 124.15 76.5 124.15 77.3 124.7 77.85 125.2 78.4 126.3 78.4 127.15 78.4 127.75 78.05
M 126.75 75.15
Q 126.95 75.15 127.15 75.3 127.35 75.45 127.35 75.85 127.35 76.4 127.1 76.85 126.85 77.3 126.4 77.3 126.1 77.3 125.9 77.1 125.7 76.85 125.7 76.5 125.7 76.05 126 75.6 126.25 75.15 126.75 75.15
M 131.65 74.15
L 130.2 74.15 129.3 78.3 130.9 78.3 131.3 76.5
Q 131.4 75.9 131.7 75.55 131.95 75.2 132.3 75.2 132.6 75.2 132.6 75.55 132.6 75.65 132.45 76.35
L 132.05 78.3 133.65 78.3 134.1 76.05
Q 134.25 75.3 134.25 75.05 134.25 74.65 134 74.35 133.7 74.05 133.15 74.05 132.2 74.05 131.55 74.8
L 131.65 74.15
M 140.95 72.55
L 138.6 72.55 137.4 78.3 140.4 78.3
Q 141 78.3 141.7 78 142.35 77.75 142.85 76.85 143.35 76 143.35 74.95 143.35 73.9 142.75 73.25 142.2 72.55 140.95 72.55
M 140.65 73.85
Q 141.2 73.85 141.4 74.1 141.6 74.35 141.6 74.8 141.6 75.55 141.25 76.3 140.9 77.05 140.15 77.05
L 139.45 77.05 140.1 73.85 140.65 73.85
M 123.8 74.15
L 122.2 74.15 121.35 78.3 122.95 78.3 123.8 74.15
M 123.9 73.65
L 124.15 72.55 122.55 72.55 122.35 73.65 123.9 73.65
M 150.15 74.2
Q 149.85 74.05 149.6 74.05 149.3 74.05 149 74.25 148.7 74.45 148.35 75
L 148.35 74.95 148.5 74.15 147 74.15 146.15 78.3 147.75 78.3 148.05 76.75
Q 148.2 76.05 148.5 75.7 148.8 75.35 149.25 75.35 149.4 75.35 149.55 75.4
L 150.15 74.2
M 146 74.15
L 144.4 74.15 143.55 78.3 145.15 78.3 146 74.15
M 146.1 73.65
L 146.35 72.55 144.75 72.55 144.55 73.65 146.1 73.65
M 117.45 75.25
Q 117.45 74.7 117 74.35 116.6 74.05 115.35 74.05 114.3 74.05 113.75 74.4 113.25 74.7 113.1 75.3
L 114.6 75.45
Q 114.7 75.15 114.9 75.1 115.05 75 115.35 75 115.6 75 115.75 75.1 115.9 75.2 115.9 75.35 115.9 75.45 115.85 75.6 115.65 75.7 114.95 75.75 114.15 75.85 113.7 75.95 113.25 76.05 112.95 76.35 112.65 76.65 112.65 77.2 112.65 77.65 113 78.05 113.35 78.4 114.1 78.4 114.9 78.4 115.5 77.85 115.5 78.05 115.55 78.3
L 117.1 78.3
Q 117 78 117 77.75 117 77.4 117.2 76.55 117.45 75.65 117.45 75.25
M 114.2 77.1
Q 114.2 76.9 114.4 76.75 114.6 76.65 115.7 76.45 115.6 77.05 115.3 77.3 115 77.55 114.7 77.55 114.5 77.55 114.35 77.4 114.2 77.3 114.2 77.1
M 120.45 74.15
L 120.8 72.6 119 73.5 118.9 74.15 118.3 74.15 118.05 75.3 118.65 75.3 118.35 76.7
Q 118.25 77.25 118.25 77.4 118.25 77.75 118.5 78.1 118.8 78.4 119.45 78.4 119.8 78.4 120.5 78.3
L 120.75 77.15
Q 120.35 77.25 120.25 77.25 119.9 77.25 119.9 76.95 119.9 76.85 119.9 76.75
L 120.2 75.3 121.05 75.3 121.3 74.15 120.45 74.15
M 111 74.05
Q 110.6 74.05 110.2 74.2 109.85 74.35 109.4 74.75 109.3 74.45 109 74.25 108.7 74.05 108.3 74.05 107.45 74.05 106.75 74.75
L 106.85 74.15 105.4 74.15 104.5 78.3 106.1 78.3 106.55 76.3
Q 106.65 75.7 106.95 75.45 107.2 75.2 107.45 75.2 107.75 75.2 107.75 75.55 107.75 75.6 107.75 75.75 107.7 75.85 107.55 76.55
L 107.2 78.3 108.8 78.3 109.2 76.45
Q 109.3 75.8 109.55 75.5 109.8 75.2 110.15 75.2 110.45 75.2 110.45 75.55 110.45 75.6 110.45 75.75 110.4 75.85 110.25 76.55
L 109.9 78.3 111.5 78.3 112.1 75.6
Q 112.15 75.35 112.15 75.1 112.15 74.65 111.85 74.35 111.55 74.05 111 74.05
M 104.35 74.15
L 102.75 74.15 101.9 78.3 103.5 78.3 104.35 74.15
M 104.45 73.65
L 104.7 72.55 103.1 72.55 102.9 73.65 104.45 73.65
M 63.7 75.3
L 65.15 75.15
Q 65.05 74.55 64.6 74.3 64.15 74.05 63.35 74.05 62.6 74.05 62.1 74.25 61.6 74.45 61.35 74.8 61.1 75.15 61.1 75.5 61.1 75.95 61.45 76.25 61.75 76.55 62.7 76.7 63.1 76.75 63.25 76.85 63.4 76.9 63.4 77.1 63.4 77.3 63.2 77.4 63 77.5 62.75 77.5 62.15 77.5 62.05 77
L 60.5 77.15
Q 60.55 77.8 61.05 78.1 61.5 78.4 62.5 78.4 63.7 78.4 64.3 77.95 64.9 77.5 64.9 76.85 64.9 76.4 64.6 76.1 64.3 75.85 63.35 75.7 62.8 75.6 62.65 75.55 62.55 75.45 62.55 75.3 62.55 75.15 62.7 75.05 62.85 74.95 63.1 74.95 63.6 74.95 63.7 75.3
M 79 77.1
Q 79.25 76.5 79.25 75.95 79.25 75.2 78.75 74.6 78.25 74.05 77.15 74.05 76.3 74.05 75.75 74.4 75.15 74.7 74.85 75.3 74.5 75.9 74.5 76.5 74.5 77.3 75.05 77.85 75.55 78.4 76.65 78.4 77.5 78.4 78.1 78.05 78.7 77.7 79 77.1
M 76.25 77.1
Q 76.05 76.85 76.05 76.5 76.05 76.05 76.35 75.6 76.6 75.15 77.1 75.15 77.3 75.15 77.5 75.3 77.7 75.45 77.7 75.85 77.7 76.4 77.45 76.85 77.2 77.3 76.75 77.3 76.45 77.3 76.25 77.1
M 60.15 75.95
Q 60.15 75.2 59.65 74.6 59.15 74.05 58.05 74.05 57.2 74.05 56.65 74.4 56.05 74.7 55.75 75.3 55.4 75.9 55.4 76.5 55.4 77.3 55.95 77.85 56.45 78.4 57.55 78.4 58.4 78.4 59 78.05 59.6 77.7 59.9 77.1 60.15 76.5 60.15 75.95
M 58.4 75.3
Q 58.6 75.45 58.6 75.85 58.6 76.4 58.35 76.85 58.1 77.3 57.65 77.3 57.35 77.3 57.15 77.1 56.95 76.85 56.95 76.5 56.95 76.05 57.25 75.6 57.5 75.15 58 75.15 58.2 75.15 58.4 75.3
M 55.35 74.1
Q 55.35 73.6 55.2 73.25 55 72.9 54.6 72.75 54.25 72.55 53.5 72.55
L 50.9 72.55 49.65 78.3 51.45 78.3 51.9 76.2 52.7 76.2
Q 53.6 76.2 54.15 75.95 54.65 75.75 55.05 75.25 55.35 74.75 55.35 74.1
M 53.15 73.7
Q 53.7 73.7 53.7 74.2 53.7 74.55 53.45 74.8 53.15 75.05 52.75 75.05
L 52.15 75.05 52.45 73.7 53.15 73.7
M 74.15 74.15
L 72.55 74.15 71.7 78.3 73.3 78.3 74.15 74.15
M 74.25 73.65
L 74.5 72.55 72.9 72.55 72.7 73.65 74.25 73.65
M 68.3 72.55
L 66.7 72.55 66.5 73.65 68.05 73.65 68.3 72.55
M 67.95 74.15
L 66.35 74.15 65.5 78.3 67.1 78.3 67.95 74.15
M 69.35 73.5
L 69.25 74.15 68.65 74.15 68.4 75.3 69 75.3 68.7 76.7
Q 68.6 77.25 68.6 77.4 68.6 77.75 68.85 78.1 69.15 78.4 69.8 78.4 70.15 78.4 70.85 78.3
L 71.1 77.15
Q 70.7 77.25 70.6 77.25 70.25 77.25 70.25 76.95 70.25 76.85 70.25 76.75
L 70.55 75.3 71.4 75.3 71.65 74.15 70.8 74.15 71.15 72.6 69.35 73.5
M 84.6 75.05
Q 84.6 74.65 84.35 74.35 84.05 74.05 83.5 74.05 82.55 74.05 81.9 74.8
L 82 74.15 80.55 74.15 79.65 78.3 81.25 78.3 81.65 76.5
Q 81.75 75.9 82.05 75.55 82.3 75.2 82.65 75.2 82.95 75.2 82.95 75.55 82.95 75.65 82.8 76.35
L 82.4 78.3 84 78.3 84.45 76.05
Q 84.6 75.3 84.6 75.05
M 86.7 78.3
L 87 76.7 85.3 76.7 84.95 78.3 86.7 78.3
M 98.85 74.15
L 97.4 74.15 96.5 78.3 98.1 78.3 98.5 76.5
Q 98.6 75.9 98.9 75.55 99.15 75.2 99.5 75.2 99.8 75.2 99.8 75.55 99.8 75.65 99.65 76.35
L 99.25 78.3 100.85 78.3 101.3 76.05
Q 101.45 75.3 101.45 75.05 101.45 74.65 101.2 74.35 100.9 74.05 100.35 74.05 99.4 74.05 98.75 74.8
L 98.85 74.15
M 95.05 72.55
L 93.15 72.55 89.9 78.3 91.85 78.3 92.25 77.35 94.15 77.35 94.2 78.3 95.95 78.3 95.05 72.55
M 94.05 76.15
L 92.85 76.15 93.85 74.05 94.05 76.15
M 87.55 74.15
L 85.85 74.15 85.5 75.75 87.2 75.75 87.55 74.15
M 132.2 61.05
Q 132.2 60.4 131.75 60 131.35 59.55 130.5 59.55 129.1 59.55 128.1 60.65
L 128.05 60.6 128.3 59.7 126.05 59.7 124.7 65.9 127.1 65.9 127.7 63.2
Q 127.9 62.25 128.3 61.8 128.7 61.3 129.2 61.3 129.7 61.3 129.7 61.8 129.7 61.95 129.45 63
L 128.85 65.9 131.25 65.9 131.95 62.5
Q 132.2 61.4 132.2 61.05
M 151.35 57.3
L 150.65 60.5
Q 150 59.55 148.7 59.55 147.4 59.55 146.55 60.7 145.7 61.9 145.7 63.45 145.7 64.65 146.3 65.35 146.85 66.05 147.9 66.05 148.45 66.05 148.85 65.9 149.25 65.7 149.8 65.25
L 149.8 65.3 149.7 65.9 151.9 65.9 153.75 57.3 151.35 57.3
M 148.4 61.8
Q 148.8 61.15 149.3 61.15 149.7 61.15 149.95 61.4 150.25 61.7 150.25 62.25 150.25 63 149.9 63.75 149.5 64.5 148.85 64.5 148.5 64.5 148.3 64.2 148.05 63.95 148.05 63.4 148.05 62.45 148.4 61.8
M 141.75 59.4
L 142.2 57.3 134.1 57.3 133.65 59.4 136.3 59.4 134.9 65.9 137.55 65.9 138.95 59.4 141.75 59.4
M 145.65 57.3
L 143.25 57.3 142.9 58.95 145.3 58.95 145.65 57.3
M 145.15 59.7
L 142.75 59.7 141.4 65.9 143.8 65.9 145.15 59.7
M 155.05 60.4
Q 154.45 60.9 154.1 61.6 153.7 62.35 153.7 63.2 153.7 64.4 154.5 65.2 155.25 66.05 157.1 66.05 158.4 66.05 159.2 65.65 160.05 65.25 160.6 64.3
L 158.3 64.1
Q 157.85 64.65 157.2 64.65 156.15 64.65 156.05 63.4
L 160.8 63.4
Q 160.95 62.5 160.95 62.15 160.95 61.05 160.2 60.3 159.45 59.55 157.7 59.55 156.9 59.55 156.3 59.7 155.7 59.9 155.05 60.4
M 157.65 60.95
Q 158.05 60.95 158.35 61.2 158.65 61.4 158.65 61.9 158.65 62.1 158.6 62.25
L 156.3 62.25
Q 156.45 61.6 156.85 61.25 157.2 60.95 157.65 60.95
M 91 57.3
L 88.6 57.3 88.25 58.95 90.65 58.95 91 57.3
M 90.5 59.7
L 88.1 59.7 86.75 65.9 89.15 65.9 90.5 59.7
M 95 57.3
L 92.6 57.3 90.75 65.9 93.15 65.9 95 57.3
M 108.4 60.8
Q 108.4 59.25 107.45 58.2 106.55 57.15 104.6 57.15 103.85 57.15 103.1 57.3 102.4 57.45 101.65 57.95 100.9 58.45 100.4 59.2 99.9 59.95 99.65 60.8 99.4 61.6 99.4 62.5 99.4 64.2 100.4 65.1 101.45 66.05 103.3 66.05 104.1 66.05 104.8 65.85 105.55 65.65 106.3 65.1 107.1 64.55 107.55 63.75 108.05 62.9 108.2 62.15 108.4 61.4 108.4 60.8
M 102.25 61.05
Q 102.55 60.2 103.05 59.65 103.6 59.1 104.3 59.1 104.95 59.1 105.4 59.55 105.8 59.95 105.8 60.8 105.8 61.15 105.55 62.05 105.3 62.95 104.75 63.5 104.25 64.1 103.45 64.1 102.75 64.1 102.4 63.65 102 63.2 102 62.55 102 61.95 102.25 61.05
M 119.65 59.7
Q 119.05 59.9 118.4 60.4 117.8 60.9 117.45 61.6 117.05 62.35 117.05 63.2 117.05 64.4 117.85 65.2 118.6 66.05 120.45 66.05 121.75 66.05 122.55 65.65 123.4 65.25 123.95 64.3
L 121.65 64.1
Q 121.2 64.65 120.55 64.65 119.5 64.65 119.4 63.4
L 124.15 63.4
Q 124.3 62.5 124.3 62.15 124.3 61.05 123.55 60.3 122.8 59.55 121.05 59.55 120.25 59.55 119.65 59.7
M 120.2 61.25
Q 120.55 60.95 121 60.95 121.4 60.95 121.7 61.2 122 61.4 122 61.9 122 62.1 121.95 62.25
L 119.65 62.25
Q 119.8 61.6 120.2 61.25
M 112.1 60.35
L 112.1 60.3 112.2 59.7 110 59.7 108.15 68.3 110.55 68.3 111.25 65.05
Q 111.9 66.05 113.2 66.05 114.5 66.05 115.35 64.9 116.15 63.7 116.15 62.1 116.15 60.95 115.6 60.25 115.05 59.55 114 59.55 113.45 59.55 113.05 59.7 112.65 59.85 112.1 60.35
M 112 61.85
Q 112.35 61.1 113.05 61.1 113.35 61.1 113.6 61.35 113.85 61.6 113.85 62.2 113.85 63.1 113.45 63.8 113.1 64.45 112.55 64.45 112.2 64.45 111.95 64.2 111.65 63.9 111.65 63.35 111.65 62.6 112 61.85
M 85.55 60.3
Q 84.8 59.55 83.05 59.55 82.25 59.55 81.65 59.7 81.05 59.9 80.4 60.4 79.8 60.9 79.45 61.6 79.05 62.35 79.05 63.2 79.05 64.4 79.85 65.2 80.6 66.05 82.45 66.05 83.75 66.05 84.55 65.65 85.4 65.25 85.95 64.3
L 83.65 64.1
Q 83.2 64.65 82.55 64.65 81.5 64.65 81.4 63.4
L 86.15 63.4
Q 86.3 62.5 86.3 62.15 86.3 61.05 85.55 60.3
M 82.2 61.25
Q 82.55 60.95 83 60.95 83.4 60.95 83.7 61.2 84 61.4 84 61.9 84 62.1 83.95 62.25
L 81.65 62.25
Q 81.8 61.6 82.2 61.25
M 74.3 60.45
L 74.3 60.4 74.95 57.3 72.55 57.3 70.7 65.9 73.1 65.9 73.7 63.2
Q 73.9 62.25 74.3 61.8 74.7 61.3 75.2 61.3 75.7 61.3 75.7 61.8 75.7 61.95 75.45 63
L 74.85 65.9 77.25 65.9 77.95 62.5
Q 78.2 61.4 78.2 61.05 78.2 60.4 77.75 60 77.35 59.55 76.5 59.55 75.15 59.55 74.3 60.45
M 64.35 57.9
Q 63.25 58.6 62.65 59.9 62.05 61.15 62.05 62.4 62.05 64.05 63.05 65.05 64.05 66.05 65.9 66.05 67.65 66.05 68.8 65.15 69.9 64.25 70.3 62.9
L 67.8 62.5
Q 67.45 63.3 67.05 63.7 66.65 64.1 66.05 64.1 65.35 64.1 65 63.65 64.65 63.25 64.65 62.6 64.65 61.75 65 60.85 65.35 60 65.9 59.55 66.45 59.1 67.05 59.1 67.5 59.1 67.85 59.45 68.25 59.75 68.25 60.35
L 68.25 60.4 70.7 60.15
Q 70.55 58.8 69.6 58 68.65 57.15 67.05 57.15 65.45 57.15 64.35 57.9
M 164.85 4.5
L 164.85 12 159.85 12 159.85 4.5 157.35 4.5 157.35 14.5 164.85 14.5 164.85 17 167.35 17 167.35 4.5 164.85 4.5 Z"/>

<path fill="#911616" stroke="none" d="
M 51 95.3
L 51.1 86.65 32 86.65 51 95.3
M 171.05 86.65
L 171.15 95.35 190.25 86.65 190.1 86.65 171.05 86.65 Z"/>

<path fill="#A12C2C" stroke="none" d="
M 17.95 79.25
L 1.85 95.35 51 95.35 51 95.3 32 86.65 31.85 86.65 31.85 63.2 1.85 63.2 17.95 79.25
M 190.25 86.65
L 171.15 95.35 220.2 95.35 204.1 79.25 220.2 63.2 190.15 63.2 190.15 86.55 190.1 86.6 190.1 86.65 190.25 86.65 Z"/>

<path fill="#B84F4F" stroke="none" d="
M 171.05 86.65
L 190.1 86.65 190.1 86.6 190.1 49.5 31.85 49.5 31.85 63.2 31.85 86.65 32 86.65 51.1 86.65 171.05 86.65
M 62.65 59.9
Q 63.25 58.6 64.35 57.9 65.45 57.15 67.05 57.15 68.65 57.15 69.6 58 70.55 58.8 70.7 60.15
L 68.25 60.4 68.25 60.35
Q 68.25 59.75 67.85 59.45 67.5 59.1 67.05 59.1 66.45 59.1 65.9 59.55 65.35 60 65 60.85 64.65 61.75 64.65 62.6 64.65 63.25 65 63.65 65.35 64.1 66.05 64.1 66.65 64.1 67.05 63.7 67.45 63.3 67.8 62.5
L 70.3 62.9
Q 69.9 64.25 68.8 65.15 67.65 66.05 65.9 66.05 64.05 66.05 63.05 65.05 62.05 64.05 62.05 62.4 62.05 61.15 62.65 59.9
M 74.3 60.4
L 74.3 60.45
Q 75.15 59.55 76.5 59.55 77.35 59.55 77.75 60 78.2 60.4 78.2 61.05 78.2 61.4 77.95 62.5
L 77.25 65.9 74.85 65.9 75.45 63
Q 75.7 61.95 75.7 61.8 75.7 61.3 75.2 61.3 74.7 61.3 74.3 61.8 73.9 62.25 73.7 63.2
L 73.1 65.9 70.7 65.9 72.55 57.3 74.95 57.3 74.3 60.4
M 83.05 59.55
Q 84.8 59.55 85.55 60.3 86.3 61.05 86.3 62.15 86.3 62.5 86.15 63.4
L 81.4 63.4
Q 81.5 64.65 82.55 64.65 83.2 64.65 83.65 64.1
L 85.95 64.3
Q 85.4 65.25 84.55 65.65 83.75 66.05 82.45 66.05 80.6 66.05 79.85 65.2 79.05 64.4 79.05 63.2 79.05 62.35 79.45 61.6 79.8 60.9 80.4 60.4 81.05 59.9 81.65 59.7 82.25 59.55 83.05 59.55
M 112.1 60.3
L 112.1 60.35
Q 112.65 59.85 113.05 59.7 113.45 59.55 114 59.55 115.05 59.55 115.6 60.25 116.15 60.95 116.15 62.1 116.15 63.7 115.35 64.9 114.5 66.05 113.2 66.05 111.9 66.05 111.25 65.05
L 110.55 68.3 108.15 68.3 110 59.7 112.2 59.7 112.1 60.3
M 118.4 60.4
Q 119.05 59.9 119.65 59.7 120.25 59.55 121.05 59.55 122.8 59.55 123.55 60.3 124.3 61.05 124.3 62.15 124.3 62.5 124.15 63.4
L 119.4 63.4
Q 119.5 64.65 120.55 64.65 121.2 64.65 121.65 64.1
L 123.95 64.3
Q 123.4 65.25 122.55 65.65 121.75 66.05 120.45 66.05 118.6 66.05 117.85 65.2 117.05 64.4 117.05 63.2 117.05 62.35 117.45 61.6 117.8 60.9 118.4 60.4
M 107.45 58.2
Q 108.4 59.25 108.4 60.8 108.4 61.4 108.2 62.15 108.05 62.9 107.55 63.75 107.1 64.55 106.3 65.1 105.55 65.65 104.8 65.85 104.1 66.05 103.3 66.05 101.45 66.05 100.4 65.1 99.4 64.2 99.4 62.5 99.4 61.6 99.65 60.8 99.9 59.95 100.4 59.2 100.9 58.45 101.65 57.95 102.4 57.45 103.1 57.3 103.85 57.15 104.6 57.15 106.55 57.15 107.45 58.2
M 92.6 57.3
L 95 57.3 93.15 65.9 90.75 65.9 92.6 57.3
M 88.1 59.7
L 90.5 59.7 89.15 65.9 86.75 65.9 88.1 59.7
M 88.6 57.3
L 91 57.3 90.65 58.95 88.25 58.95 88.6 57.3
M 154.1 61.6
Q 154.45 60.9 155.05 60.4 155.7 59.9 156.3 59.7 156.9 59.55 157.7 59.55 159.45 59.55 160.2 60.3 160.95 61.05 160.95 62.15 160.95 62.5 160.8 63.4
L 156.05 63.4
Q 156.15 64.65 157.2 64.65 157.85 64.65 158.3 64.1
L 160.6 64.3
Q 160.05 65.25 159.2 65.65 158.4 66.05 157.1 66.05 155.25 66.05 154.5 65.2 153.7 64.4 153.7 63.2 153.7 62.35 154.1 61.6
M 142.75 59.7
L 145.15 59.7 143.8 65.9 141.4 65.9 142.75 59.7
M 143.25 57.3
L 145.65 57.3 145.3 58.95 142.9 58.95 143.25 57.3
M 142.2 57.3
L 141.75 59.4 138.95 59.4 137.55 65.9 134.9 65.9 136.3 59.4 133.65 59.4 134.1 57.3 142.2 57.3
M 150.65 60.5
L 151.35 57.3 153.75 57.3 151.9 65.9 149.7 65.9 149.8 65.3 149.8 65.25
Q 149.25 65.7 148.85 65.9 148.45 66.05 147.9 66.05 146.85 66.05 146.3 65.35 145.7 64.65 145.7 63.45 145.7 61.9 146.55 60.7 147.4 59.55 148.7 59.55 150 59.55 150.65 60.5
M 131.75 60
Q 132.2 60.4 132.2 61.05 132.2 61.4 131.95 62.5
L 131.25 65.9 128.85 65.9 129.45 63
Q 129.7 61.95 129.7 61.8 129.7 61.3 129.2 61.3 128.7 61.3 128.3 61.8 127.9 62.25 127.7 63.2
L 127.1 65.9 124.7 65.9 126.05 59.7 128.3 59.7 128.05 60.6 128.1 60.65
Q 129.1 59.55 130.5 59.55 131.35 59.55 131.75 60
M 85.85 74.15
L 87.55 74.15 87.2 75.75 85.5 75.75 85.85 74.15
M 93.15 72.55
L 95.05 72.55 95.95 78.3 94.2 78.3 94.15 77.35 92.25 77.35 91.85 78.3 89.9 78.3 93.15 72.55
M 97.4 74.15
L 98.85 74.15 98.75 74.8
Q 99.4 74.05 100.35 74.05 100.9 74.05 101.2 74.35 101.45 74.65 101.45 75.05 101.45 75.3 101.3 76.05
L 100.85 78.3 99.25 78.3 99.65 76.35
Q 99.8 75.65 99.8 75.55 99.8 75.2 99.5 75.2 99.15 75.2 98.9 75.55 98.6 75.9 98.5 76.5
L 98.1 78.3 96.5 78.3 97.4 74.15
M 87 76.7
L 86.7 78.3 84.95 78.3 85.3 76.7 87 76.7
M 84.35 74.35
Q 84.6 74.65 84.6 75.05 84.6 75.3 84.45 76.05
L 84 78.3 82.4 78.3 82.8 76.35
Q 82.95 75.65 82.95 75.55 82.95 75.2 82.65 75.2 82.3 75.2 82.05 75.55 81.75 75.9 81.65 76.5
L 81.25 78.3 79.65 78.3 80.55 74.15 82 74.15 81.9 74.8
Q 82.55 74.05 83.5 74.05 84.05 74.05 84.35 74.35
M 69.25 74.15
L 69.35 73.5 71.15 72.6 70.8 74.15 71.65 74.15 71.4 75.3 70.55 75.3 70.25 76.75
Q 70.25 76.85 70.25 76.95 70.25 77.25 70.6 77.25 70.7 77.25 71.1 77.15
L 70.85 78.3
Q 70.15 78.4 69.8 78.4 69.15 78.4 68.85 78.1 68.6 77.75 68.6 77.4 68.6 77.25 68.7 76.7
L 69 75.3 68.4 75.3 68.65 74.15 69.25 74.15
M 66.35 74.15
L 67.95 74.15 67.1 78.3 65.5 78.3 66.35 74.15
M 66.7 72.55
L 68.3 72.55 68.05 73.65 66.5 73.65 66.7 72.55
M 74.5 72.55
L 74.25 73.65 72.7 73.65 72.9 72.55 74.5 72.55
M 72.55 74.15
L 74.15 74.15 73.3 78.3 71.7 78.3 72.55 74.15
M 55.2 73.25
Q 55.35 73.6 55.35 74.1 55.35 74.75 55.05 75.25 54.65 75.75 54.15 75.95 53.6 76.2 52.7 76.2
L 51.9 76.2 51.45 78.3 49.65 78.3 50.9 72.55 53.5 72.55
Q 54.25 72.55 54.6 72.75 55 72.9 55.2 73.25
M 59.65 74.6
Q 60.15 75.2 60.15 75.95 60.15 76.5 59.9 77.1 59.6 77.7 59 78.05 58.4 78.4 57.55 78.4 56.45 78.4 55.95 77.85 55.4 77.3 55.4 76.5 55.4 75.9 55.75 75.3 56.05 74.7 56.65 74.4 57.2 74.05 58.05 74.05 59.15 74.05 59.65 74.6
M 79.25 75.95
Q 79.25 76.5 79 77.1 78.7 77.7 78.1 78.05 77.5 78.4 76.65 78.4 75.55 78.4 75.05 77.85 74.5 77.3 74.5 76.5 74.5 75.9 74.85 75.3 75.15 74.7 75.75 74.4 76.3 74.05 77.15 74.05 78.25 74.05 78.75 74.6 79.25 75.2 79.25 75.95
M 65.15 75.15
L 63.7 75.3
Q 63.6 74.95 63.1 74.95 62.85 74.95 62.7 75.05 62.55 75.15 62.55 75.3 62.55 75.45 62.65 75.55 62.8 75.6 63.35 75.7 64.3 75.85 64.6 76.1 64.9 76.4 64.9 76.85 64.9 77.5 64.3 77.95 63.7 78.4 62.5 78.4 61.5 78.4 61.05 78.1 60.55 77.8 60.5 77.15
L 62.05 77
Q 62.15 77.5 62.75 77.5 63 77.5 63.2 77.4 63.4 77.3 63.4 77.1 63.4 76.9 63.25 76.85 63.1 76.75 62.7 76.7 61.75 76.55 61.45 76.25 61.1 75.95 61.1 75.5 61.1 75.15 61.35 74.8 61.6 74.45 62.1 74.25 62.6 74.05 63.35 74.05 64.15 74.05 64.6 74.3 65.05 74.55 65.15 75.15
M 104.7 72.55
L 104.45 73.65 102.9 73.65 103.1 72.55 104.7 72.55
M 102.75 74.15
L 104.35 74.15 103.5 78.3 101.9 78.3 102.75 74.15
M 110.2 74.2
Q 110.6 74.05 111 74.05 111.55 74.05 111.85 74.35 112.15 74.65 112.15 75.1 112.15 75.35 112.1 75.6
L 111.5 78.3 109.9 78.3 110.25 76.55
Q 110.4 75.85 110.45 75.75 110.45 75.6 110.45 75.55 110.45 75.2 110.15 75.2 109.8 75.2 109.55 75.5 109.3 75.8 109.2 76.45
L 108.8 78.3 107.2 78.3 107.55 76.55
Q 107.7 75.85 107.75 75.75 107.75 75.6 107.75 75.55 107.75 75.2 107.45 75.2 107.2 75.2 106.95 75.45 106.65 75.7 106.55 76.3
L 106.1 78.3 104.5 78.3 105.4 74.15 106.85 74.15 106.75 74.75
Q 107.45 74.05 108.3 74.05 108.7 74.05 109 74.25 109.3 74.45 109.4 74.75 109.85 74.35 110.2 74.2
M 120.8 72.6
L 120.45 74.15 121.3 74.15 121.05 75.3 120.2 75.3 119.9 76.75
Q 119.9 76.85 119.9 76.95 119.9 77.25 120.25 77.25 120.35 77.25 120.75 77.15
L 120.5 78.3
Q 119.8 78.4 119.45 78.4 118.8 78.4 118.5 78.1 118.25 77.75 118.25 77.4 118.25 77.25 118.35 76.7
L 118.65 75.3 118.05 75.3 118.3 74.15 118.9 74.15 119 73.5 120.8 72.6
M 117 74.35
Q 117.45 74.7 117.45 75.25 117.45 75.65 117.2 76.55 117 77.4 117 77.75 117 78 117.1 78.3
L 115.55 78.3
Q 115.5 78.05 115.5 77.85 114.9 78.4 114.1 78.4 113.35 78.4 113 78.05 112.65 77.65 112.65 77.2 112.65 76.65 112.95 76.35 113.25 76.05 113.7 75.95 114.15 75.85 114.95 75.75 115.65 75.7 115.85 75.6 115.9 75.45 115.9 75.35 115.9 75.2 115.75 75.1 115.6 75 115.35 75 115.05 75 114.9 75.1 114.7 75.15 114.6 75.45
L 113.1 75.3
Q 113.25 74.7 113.75 74.4 114.3 74.05 115.35 74.05 116.6 74.05 117 74.35
M 146.35 72.55
L 146.1 73.65 144.55 73.65 144.75 72.55 146.35 72.55
M 144.4 74.15
L 146 74.15 145.15 78.3 143.55 78.3 144.4 74.15
M 149.6 74.05
Q 149.85 74.05 150.15 74.2
L 149.55 75.4
Q 149.4 75.35 149.25 75.35 148.8 75.35 148.5 75.7 148.2 76.05 148.05 76.75
L 147.75 78.3 146.15 78.3 147 74.15 148.5 74.15 148.35 74.95 148.35 75
Q 148.7 74.45 149 74.25 149.3 74.05 149.6 74.05
M 124.15 72.55
L 123.9 73.65 122.35 73.65 122.55 72.55 124.15 72.55
M 122.2 74.15
L 123.8 74.15 122.95 78.3 121.35 78.3 122.2 74.15
M 138.6 72.55
L 140.95 72.55
Q 142.2 72.55 142.75 73.25 143.35 73.9 143.35 74.95 143.35 76 142.85 76.85 142.35 77.75 141.7 78 141 78.3 140.4 78.3
L 137.4 78.3 138.6 72.55
M 130.2 74.15
L 131.65 74.15 131.55 74.8
Q 132.2 74.05 133.15 74.05 133.7 74.05 134 74.35 134.25 74.65 134.25 75.05 134.25 75.3 134.1 76.05
L 133.65 78.3 132.05 78.3 132.45 76.35
Q 132.6 75.65 132.6 75.55 132.6 75.2 132.3 75.2 131.95 75.2 131.7 75.55 131.4 75.9 131.3 76.5
L 130.9 78.3 129.3 78.3 130.2 74.15
M 128.65 77.1
Q 128.35 77.7 127.75 78.05 127.15 78.4 126.3 78.4 125.2 78.4 124.7 77.85 124.15 77.3 124.15 76.5 124.15 75.9 124.5 75.3 124.8 74.7 125.4 74.4 125.95 74.05 126.8 74.05 127.9 74.05 128.4 74.6 128.9 75.2 128.9 75.95 128.9 76.5 128.65 77.1
M 151.75 74.2
Q 152.15 74.05 152.7 74.05 153.85 74.05 154.35 74.55 154.85 75.05 154.85 75.8 154.85 76.05 154.75 76.65
L 151.6 76.65
Q 151.65 77.45 152.35 77.45 152.8 77.45 153.05 77.1
L 154.6 77.25
Q 154.25 77.85 153.7 78.15 153.15 78.4 152.3 78.4 151.05 78.4 150.55 77.85 150.05 77.3 150.05 76.5 150.05 75.95 150.25 75.45 150.5 74.95 150.95 74.6 151.35 74.3 151.75 74.2
M 163.55 72.6
L 163.2 74.15 164.05 74.15 163.8 75.3 162.95 75.3 162.65 76.75
Q 162.65 76.85 162.65 76.95 162.65 77.25 163 77.25 163.1 77.25 163.5 77.15
L 163.25 78.3
Q 162.55 78.4 162.2 78.4 161.55 78.4 161.25 78.1 161 77.75 161 77.4 161 77.25 161.1 76.7
L 161.4 75.3 160.8 75.3 161.05 74.15 161.65 74.15 161.75 73.5 163.55 72.6
M 172.85 74.05
Q 173.1 74.05 173.4 74.2
L 172.8 75.4
Q 172.65 75.35 172.5 75.35 172.05 75.35 171.75 75.7 171.45 76.05 171.3 76.75
L 171 78.3 169.4 78.3 170.25 74.15 171.75 74.15 171.6 74.95 171.6 75
Q 171.95 74.45 172.25 74.25 172.55 74.05 172.85 74.05
M 168.5 74.6
Q 169 75.2 169 75.95 169 76.5 168.75 77.1 168.45 77.7 167.85 78.05 167.25 78.4 166.4 78.4 165.3 78.4 164.8 77.85 164.25 77.3 164.25 76.5 164.25 75.9 164.6 75.3 164.9 74.7 165.5 74.4 166.05 74.05 166.9 74.05 168 74.05 168.5 74.6
M 159.65 74.45
Q 160.2 74.85 160.3 75.6
L 158.9 75.7
Q 158.8 75.15 158.15 75.15 157.55 75.15 157.25 75.6 156.95 76.05 156.95 76.65 156.95 76.95 157.15 77.15 157.4 77.3 157.65 77.3 158.3 77.3 158.6 76.6
L 160.1 76.8
Q 159.55 78.4 157.6 78.4 155.4 78.4 155.4 76.6 155.4 75.55 156.1 74.8 156.85 74.05 158.15 74.05 159.1 74.05 159.65 74.45
M 167.45 75.85
Q 167.45 75.45 167.25 75.3 167.05 75.15 166.85 75.15 166.35 75.15 166.1 75.6 165.8 76.05 165.8 76.5 165.8 76.85 166 77.1 166.2 77.3 166.5 77.3 166.95 77.3 167.2 76.85 167.45 76.4 167.45 75.85
M 152.65 75
Q 152.35 75 152.1 75.2 151.85 75.45 151.75 75.85
L 153.3 75.85
Q 153.3 75.8 153.3 75.65 153.3 75.3 153.1 75.15 152.95 75 152.65 75
M 127.15 75.3
Q 126.95 75.15 126.75 75.15 126.25 75.15 126 75.6 125.7 76.05 125.7 76.5 125.7 76.85 125.9 77.1 126.1 77.3 126.4 77.3 126.85 77.3 127.1 76.85 127.35 76.4 127.35 75.85 127.35 75.45 127.15 75.3
M 141.4 74.1
Q 141.2 73.85 140.65 73.85
L 140.1 73.85 139.45 77.05 140.15 77.05
Q 140.9 77.05 141.25 76.3 141.6 75.55 141.6 74.8 141.6 74.35 141.4 74.1
M 114.4 76.75
Q 114.2 76.9 114.2 77.1 114.2 77.3 114.35 77.4 114.5 77.55 114.7 77.55 115 77.55 115.3 77.3 115.6 77.05 115.7 76.45 114.6 76.65 114.4 76.75
M 76.05 76.5
Q 76.05 76.85 76.25 77.1 76.45 77.3 76.75 77.3 77.2 77.3 77.45 76.85 77.7 76.4 77.7 75.85 77.7 75.45 77.5 75.3 77.3 75.15 77.1 75.15 76.6 75.15 76.35 75.6 76.05 76.05 76.05 76.5
M 58.6 75.85
Q 58.6 75.45 58.4 75.3 58.2 75.15 58 75.15 57.5 75.15 57.25 75.6 56.95 76.05 56.95 76.5 56.95 76.85 57.15 77.1 57.35 77.3 57.65 77.3 58.1 77.3 58.35 76.85 58.6 76.4 58.6 75.85
M 53.7 74.2
Q 53.7 73.7 53.15 73.7
L 52.45 73.7 52.15 75.05 52.75 75.05
Q 53.15 75.05 53.45 74.8 53.7 74.55 53.7 74.2
M 92.85 76.15
L 94.05 76.15 93.85 74.05 92.85 76.15
M 149.3 61.15
Q 148.8 61.15 148.4 61.8 148.05 62.45 148.05 63.4 148.05 63.95 148.3 64.2 148.5 64.5 148.85 64.5 149.5 64.5 149.9 63.75 150.25 63 150.25 62.25 150.25 61.7 149.95 61.4 149.7 61.15 149.3 61.15
M 158.35 61.2
Q 158.05 60.95 157.65 60.95 157.2 60.95 156.85 61.25 156.45 61.6 156.3 62.25
L 158.6 62.25
Q 158.65 62.1 158.65 61.9 158.65 61.4 158.35 61.2
M 103.05 59.65
Q 102.55 60.2 102.25 61.05 102 61.95 102 62.55 102 63.2 102.4 63.65 102.75 64.1 103.45 64.1 104.25 64.1 104.75 63.5 105.3 62.95 105.55 62.05 105.8 61.15 105.8 60.8 105.8 59.95 105.4 59.55 104.95 59.1 104.3 59.1 103.6 59.1 103.05 59.65
M 121 60.95
Q 120.55 60.95 120.2 61.25 119.8 61.6 119.65 62.25
L 121.95 62.25
Q 122 62.1 122 61.9 122 61.4 121.7 61.2 121.4 60.95 121 60.95
M 113.05 61.1
Q 112.35 61.1 112 61.85 111.65 62.6 111.65 63.35 111.65 63.9 111.95 64.2 112.2 64.45 112.55 64.45 113.1 64.45 113.45 63.8 113.85 63.1 113.85 62.2 113.85 61.6 113.6 61.35 113.35 61.1 113.05 61.1
M 83 60.95
Q 82.55 60.95 82.2 61.25 81.8 61.6 81.65 62.25
L 83.95 62.25
Q 84 62.1 84 61.9 84 61.4 83.7 61.2 83.4 60.95 83 60.95 Z"/>
</g>
</defs>

<g transform="matrix( 1, 0, 0, 1, 0,0) ">
<use xlink:href="#Layer0_0_FILL"/>
</g>
</svg>
