
<svg xmlns="http://www.w3.org/2000/svg" version="1.1" xmlns:xlink="http://www.w3.org/1999/xlink" preserveAspectRatio="none" x="0px" y="0px" width="263px" height="96px" viewBox="0 0 263 96">
<defs>
<g id="Layer2_0_FILL">
<path fill="#FFFFFF" stroke="none" d="
M 78.75 12
L 78.75 4.5 68.75 4.5 68.75 7 76.25 7 76.25 9.5 68.75 9.5 68.75 17 78.75 17 78.75 14.5 71.25 14.5 71.25 12 78.75 12
M 81.25 17
L 91.25 17 91.25 4.5 81.25 4.5 81.25 17
M 83.75 7
L 88.75 7 88.75 14.5 83.75 14.5 83.75 7
M 103.75 17
L 103.75 4.5 93.75 4.5 93.75 17 103.75 17
M 101.25 7
L 101.25 14.5 96.25 14.5 96.25 7 101.25 7
M 113.75 4.5
L 113.75 12 108.75 12 108.75 4.5 106.25 4.5 106.25 14.5 113.75 14.5 113.75 17 116.25 17 116.25 4.5 113.75 4.5
M 131.05 34.75
L 128.55 34.75 128.55 37.25 131.05 37.25 131.05 34.75
M 131.05 29.75
L 128.55 29.75 128.55 32.25 131.05 32.25 131.05 29.75
M 131.05 24.75
L 128.55 24.75 128.55 27.25 131.05 27.25 131.05 24.75
M 133.75 9.5
L 126.25 9.5 126.25 12 133.75 12 133.75 9.5
M 153.75 12
L 153.75 4.5 143.75 4.5 143.75 7 151.25 7 151.25 9.5 143.75 9.5 143.75 17 153.75 17 153.75 14.5 146.25 14.5 146.25 12 153.75 12
M 178.75 17
L 178.75 4.5 168.75 4.5 168.75 17 178.75 17
M 171.25 7
L 176.25 7 176.25 14.5 171.25 14.5 171.25 7
M 166.25 17
L 166.25 4.5 156.25 4.5 156.25 17 166.25 17
M 163.75 7
L 163.75 14.5 158.75 14.5 158.75 7 163.75 7
M 186.25 12
L 183.75 12 183.75 17 186.25 17 186.25 12
M 188.75 7
L 188.75 9.5 191.25 9.5 191.25 4.5 181.25 4.5 181.25 7 188.75 7
M 188.75 9.5
L 186.25 9.5 186.25 12 188.75 12 188.75 9.5 Z"/>

<path fill="#911616" stroke="none" d="
M 49.15 95.3
L 49.25 86.65 30.15 86.65 49.15 95.3
M 213.45 86.65
L 213.55 95.15 213.55 95.35 232.65 86.65 232.5 86.65 213.45 86.65 Z"/>

<path fill="#A12C2C" stroke="none" d="
M 30 86.65
L 30 63.2 0 63.2 16.1 79.25 0 95.35 49.15 95.35 49.15 95.3 30.15 86.65 30 86.65
M 246.5 79.25
L 262.6 63.2 232.55 63.2 232.55 86.55 232.5 86.6 232.5 86.65 232.65 86.65 213.55 95.35 262.6 95.35 246.5 79.25 Z"/>

<path fill="#B84F4F" stroke="none" d="
M 232.5 86.65
L 232.5 86.6 232.5 49.5 30 49.5 30 63.2 30 86.65 30.15 86.65 49.25 86.65 213.45 86.65 232.5 86.65 Z"/>

<path fill="#CCCCCC" stroke="none" d="
M 213.55 95.15
L 213.45 95.2 213.45 95.35 213.55 95.35 213.55 95.15 Z"/>
</g>

<g id="Layer1_0_FILL">
<path fill="#FFFFFF" stroke="none" d="
M 195.1 64.6
L 195.1 66.9 203.3 66.9
Q 201.6 68.05 200.1 68.6
L 200.1 69.2 192.65 69.2 192.65 71.4 200.1 71.4 200.1 73.05
Q 200.15 74.15 199.1 74.05
L 197.5 74.05 197.5 76.2 200.55 76.2
Q 203.85 76.2 203.85 72.9
L 203.85 71.4 210.4 71.4 210.4 69.2 203.85 69.2 203.85 69.05
Q 205.95 68.35 208.05 66.95
L 208.05 64.6 195.1 64.6
M 192.9 64.2
L 196.05 64.2 196.05 62.95 206.95 62.95 206.95 64.2 210.1 64.2 210.1 60.85 207.6 60.85
Q 208.4 59.75 209 58.2
L 205.65 58.2
Q 205.35 59.55 204.55 60.85
L 192.9 60.85 192.9 64.2
M 197.2 58.2
L 194.1 58.2
Q 194.55 59.15 194.95 60.3
L 198.05 60.3
Q 197.85 59.3 197.2 58.2
M 199.25 58.2
Q 199.7 59.15 200.1 60.3
L 203.3 60.3
Q 202.85 59 202.35 58.2
L 199.25 58.2
M 190.5 74.05
Q 184.45 71.4 183.45 64.2
L 190.1 64.2 190.1 61.8 183.45 61.8 183.45 58.3 179.55 58.3 179.55 61.8 172.9 61.8 172.9 64.2 179.45 64.2
Q 178.7 71.35 172.5 74.05
L 172.5 76.2
Q 179.1 74.3 181.6 69.6 183.7 74.05 190.5 76.2
L 190.5 74.05
M 154.1 58.2
L 154.1 60.45 152.5 60.45 152.5 62.65 154.1 62.65 154.1 66.65
Q 153.75 66.7 153.2 66.7 152.65 66.8 152.35 66.8
L 152.35 69.55
Q 152.65 69.45 153.3 69.4 153.85 69.2 154.1 69.2
L 154.1 73.2
Q 154.1 74.05 153.3 74.05
L 152.85 74.05 152.85 76.1 154.65 76.1
Q 157.3 76.1 157.3 73.35
L 157.3 68.45
Q 157.85 68.3 158.7 67.9
L 158.7 65.65
Q 158.3 65.7 157.75 65.95 157.45 66 157.3 66.1
L 157.3 62.65 158.55 62.65 158.55 60.45 157.3 60.45 157.3 58.2 154.1 58.2
M 170.4 60.15
L 166.1 60.15 166.1 58.2 162.6 58.2 162.6 60.15 158.9 60.15 158.9 62.35 162.6 62.35 162.6 64.55 159.1 64.55 159.1 66.7 166.5 66.7
Q 165.7 68.9 164.55 70.4 163.45 69.15 162.5 67.45
L 159.15 67.45
Q 160.35 70.45 162.3 72.35 160.65 73.45 158.3 74.3
L 158.3 76.25
Q 162.15 75.15 164.45 74.05 167.05 75.3 170.4 76.1
L 170.4 74.15
Q 168.3 73.3 166.8 72.35 168.9 70.4 169.95 66.7
L 169.95 64.55 166.1 64.55 166.1 62.35 170.4 62.35 170.4 60.15
M 132.65 61.1
L 134.8 61.1 134.8 63.05 132.5 63.05 132.5 65.25 134.7 65.25
Q 133.9 67.95 132.3 70.65
L 132.3 73.5
Q 133.9 71.95 134.8 70.4
L 134.8 76.1 137.9 76.1 137.9 69.45
Q 138.7 70.45 139.7 71.65
L 139.7 68.6
Q 138.6 67.1 137.9 65.4
L 137.9 65.25 139.85 65.25 139.85 63.05 137.9 63.05 137.9 61.1
Q 138.9 60.95 139.7 60.8 139.95 60.7 140.1 60.7
L 140.1 58.45
Q 138 58.9 136.65 58.9
L 132.65 58.9 132.65 61.1
M 145.15 63.45
L 145.15 60.55
Q 143.3 59.7 140.8 59.6
L 140.8 61.95
Q 143 62.25 145.15 63.45
M 144.7 68.45
L 144.7 65.4
Q 142.85 64.4 140.25 64.2
L 140.25 66.55
Q 142.75 67.1 144.7 68.45
M 150.65 71.9
L 150.65 69.6 148.85 69.6 148.85 58.3 145.55 58.3 145.55 69.6 140.1 69.6 140.1 71.9 145.55 71.9 145.55 76.2 148.85 76.2 148.85 71.9 150.65 71.9
M 129.1 70.15
L 126.4 70.15
Q 127.35 72.9 127.65 75.3
L 130.65 75.3
Q 130.15 72.8 129.1 70.15
M 125.35 72.75
Q 125 71.55 124.4 70.15
L 121.4 70.15
Q 122.15 71.5 122.2 72.75
L 125.35 72.75
M 116.75 70.15
L 116.75 73.7
Q 116.75 75.95 119.3 75.95
L 124.8 75.95
Q 127.05 75.95 127.05 73.85
L 127.05 72.95 124.45 72.95 124.45 73.15
Q 124.45 73.9 123.75 73.9
L 121.05 73.9
Q 119.85 74 119.95 72.75
L 119.95 70.15 116.75 70.15
M 116.4 70.15
L 113.75 70.15
Q 113.4 73.05 112.35 75.3
L 115.25 75.3
Q 116.2 72.9 116.4 70.15
M 119.4 58.2
Q 119.3 58.85 119.15 59.3
L 114.1 59.3 114.1 69.6 126.2 69.6
Q 129.25 69.7 129.1 66.65
L 129.1 59.3 122.75 59.3
Q 123 58.85 123.05 58.2
L 119.4 58.2
M 117.5 67.5
L 117.5 66.55 125.65 66.55
Q 125.7 67.6 124.7 67.5
L 117.5 67.5
M 117.5 64.85
L 117.5 63.9 125.65 63.9 125.65 64.85 117.5 64.85
M 117.5 62.2
L 117.5 61.35 125.65 61.35 125.65 62.2 117.5 62.2
M 109.8 72.75
L 109.8 69.15 98.2 69.15 98.2 75.7 106.95 75.7
Q 109.85 75.8 109.8 72.75
M 101.35 71.35
L 106.75 71.35 106.75 72.65
Q 106.75 73.7 105.8 73.7
L 101.35 73.7 101.35 71.35
M 109.7 64.75
L 109.7 62.75 98.4 62.75 98.4 64.75 109.7 64.75
M 109.7 67.95
L 109.7 65.85 98.4 65.85 98.4 67.95 109.7 67.95
M 110.55 61.7
L 110.55 59.55 106.05 59.55 106.05 58.3 102.3 58.3 102.3 59.55 97.85 59.55
Q 97.9 59.3 98 58.9 98.15 58.5 98.15 58.35
L 94.95 58.35
Q 94.3 61.95 92.35 63.3
L 92.35 65.4
Q 93.2 65.15 93.85 64.85
L 93.85 76.2 96.95 76.2 96.95 61.9
Q 97.05 61.7 97.2 61.4 97.6 60.55 97.75 60
L 97.75 61.7 110.55 61.7
M 75.55 70.45
Q 75.1 72.65 72.75 73.75
L 72.75 75.55
Q 77.9 74.7 79 70.45
L 75.55 70.45
M 83.45 73.45
L 83.45 69.45 85.95 69.45
Q 89 69.55 88.9 66.5
L 88.9 62.6 74.4 62.6 74.4 69.45 79.85 69.45 79.85 72.95
Q 79.95 74.15 78.75 74.05
L 78.15 74.05 78.15 76.1 80.55 76.1
Q 83.45 76.2 83.45 73.45
M 85.65 64.75
L 85.65 66.35
Q 85.7 67.35 84.8 67.25
L 77.65 67.25 77.65 64.75 85.65 64.75
M 87.45 70.45
L 84 70.45
Q 85.1 74.7 90.25 75.55
L 90.25 73.75
Q 87.9 72.65 87.45 70.45
M 90.5 59.3
L 83.55 59.3 83.55 58.3 79.45 58.3 79.45 59.3 72.6 59.3 72.6 61.55 90.5 61.55 90.5 59.3
M 60.65 58.3
L 57.05 58.3 57.05 62.8 52.5 62.8 52.5 65.1 57.05 65.1 57.05 72.6
Q 57.15 73.75 56.05 73.7
L 52.5 73.7 52.5 75.85 58 75.85
Q 60.55 75.8 60.65 73.45
L 60.65 58.3
M 66.05 58.3
L 62.45 58.3 62.45 73.45
Q 62.5 75.8 65 75.85
L 70.5 75.85 70.5 73.7 66.9 73.7
Q 65.95 73.85 66.05 72.65
L 66.05 65.1 70.5 65.1 70.5 62.8 66.05 62.8 66.05 58.3 Z"/>
</g>
</defs>

<g transform="matrix( 1, 0, 0, 1, 0,0) ">
<use xlink:href="#Layer2_0_FILL"/>
</g>

<g transform="matrix( 1, 0, 0, 1, 0,0) ">
<use xlink:href="#Layer1_0_FILL"/>
</g>
</svg>
