
<svg xmlns="http://www.w3.org/2000/svg" version="1.1" xmlns:xlink="http://www.w3.org/1999/xlink" preserveAspectRatio="none" x="0px" y="0px" width="225px" height="96px" viewBox="0 0 225 96">
<defs>
<g id="Layer2_0_FILL">
<path fill="#FFFFFF" stroke="none" d="
M 67.35 17
L 77.35 17 77.35 4.5 67.35 4.5 67.35 17
M 74.85 14.5
L 69.85 14.5 69.85 7 74.85 7 74.85 14.5
M 64.85 12
L 64.85 4.5 54.85 4.5 54.85 7 62.35 7 62.35 9.5 54.85 9.5 54.85 17 64.85 17 64.85 14.5 57.35 14.5 57.35 12 64.85 12
M 114.75 29.75
L 114.75 32.25 117.25 32.25 117.25 29.75 114.75 29.75
M 117.25 34.75
L 114.75 34.75 114.75 37.25 117.25 37.25 117.25 34.75
M 117.25 27.25
L 117.25 24.75 114.75 24.75 114.75 27.25 117.25 27.25
M 89.85 17
L 89.85 4.5 79.85 4.5 79.85 17 89.85 17
M 82.35 7
L 87.35 7 87.35 14.5 82.35 14.5 82.35 7
M 119.85 12
L 119.85 9.5 112.35 9.5 112.35 12 119.85 12
M 97.35 12
L 94.85 12 94.85 17 97.35 17 97.35 12
M 99.85 12
L 99.85 9.5 97.35 9.5 97.35 12 99.85 12
M 102.35 9.5
L 102.35 4.5 92.35 4.5 92.35 7 99.85 7 99.85 9.5 102.35 9.5
M 132.35 12
L 139.85 12 139.85 4.5 129.85 4.5 129.85 7 137.35 7 137.35 9.5 129.85 9.5 129.85 17 139.85 17 139.85 14.5 132.35 14.5 132.35 12
M 152.35 4.5
L 142.35 4.5 142.35 17 152.35 17 152.35 4.5
M 144.85 7
L 149.85 7 149.85 14.5 144.85 14.5 144.85 7
M 154.85 4.5
L 154.85 7 157.35 7 157.35 17 159.85 17 159.85 4.5 154.85 4.5
M 162.35 4.5
L 162.35 7 164.85 7 164.85 17 167.35 17 167.35 4.5 162.35 4.5 Z"/>

<path fill="#911616" stroke="none" d="
M 56 95.3
L 56.1 86.65 37 86.65 56 95.3
M 176.05 86.65
L 176.15 95.35 195.25 86.65 195.1 86.65 176.05 86.65 Z"/>

<path fill="#A12C2C" stroke="none" d="
M 6.85 63.2
L 22.95 79.25 6.85 95.35 56 95.35 56 95.3 37 86.65 36.85 86.65 36.85 63.2 6.85 63.2
M 195.15 86.55
L 195.1 86.6 195.1 86.65 195.25 86.65 176.15 95.35 225.2 95.35 209.1 79.25 225.2 63.2 195.15 63.2 195.15 86.55 Z"/>

<path fill="#B84F4F" stroke="none" d="
M 195.1 86.65
L 195.1 86.6 195.1 49.5 36.85 49.5 36.85 63.2 36.85 86.65 37 86.65 56.1 86.65 176.05 86.65 195.1 86.65 Z"/>
</g>

<g id="Layer1_0_FILL">
<path fill="#FFFFFF" stroke="none" d="
M 132.45 81.15
L 132.45 75.3 131.15 75.3 131.15 81.15 132.45 81.15
M 134.25 80.05
L 134.25 74.5 132.85 74.5 132.85 80.4
Q 132.9 81.75 131.95 82.55
L 131.95 83.55
Q 134.4 82.55 134.25 80.05
M 138 77.85
L 138.45 77.85 138.45 81.05
Q 138.45 81.25 138.2 81.25
L 138.1 81.25 138.1 82.3 138.65 82.3
Q 139.85 82.35 139.8 81.05
L 139.8 76.75 138 76.75 138 75.9 140.05 75.9 140.05 74.8 134.5 74.8 134.5 75.9 136.5 75.9 136.5 76.75 134.65 76.75 134.65 82.3 136 82.3 136 77.85 136.5 77.85 136.5 83.55 138 83.55 138 77.85
M 123.8 76.6
Q 123.55 75.45 123.05 74.6
L 121.55 74.6
Q 122 75.7 122.2 76.6
L 123.8 76.6
M 127.95 78.4
L 130.1 78.4 130.1 77.25 127.95 77.25 127.95 74.5 126.15 74.5 126.15 77.25 124.05 77.25 124.05 78.4 126.15 78.4 126.15 83.5 127.95 83.5 127.95 78.4
M 121 77.3
L 121 78.45 121.7 78.45 121.7 83.45
Q 123.3 82.9 124.7 81.95
L 124.7 80.6
Q 124.6 80.65 124.4 80.75 123.8 81.15 123.45 81.25
L 123.45 77.3 121 77.3
M 111.65 83.25
Q 113.45 82.6 114.25 81.9
L 114.25 80.65
Q 113.95 80.85 113.5 81.05 113.35 81.1 113.25 81.15
L 113.25 77.2 110.95 77.2 110.95 78.3 111.65 78.3 111.65 83.25
M 113.45 76.55
Q 113.2 75.5 112.7 74.6
L 111.2 74.6
Q 111.7 75.6 111.85 76.55
L 113.45 76.55
M 119.65 79.3
L 119.65 78.2 114 78.2 114 79.35 117.85 79.35
Q 117.2 80.45 116.8 80.85 116.3 80.35 115.8 79.7
L 114.05 79.7
Q 114.7 80.95 115.6 81.75 115.05 82.1 113.6 82.55
L 113.6 83.55
Q 115.6 83.05 116.8 82.55 118 83.1 120 83.5
L 120 82.55
Q 118.7 82.1 118 81.75 119.05 80.85 119.65 79.3
M 117.5 75.85
L 117.5 76.6
Q 117.4 77.9 118.65 77.8
L 120.05 77.8 120.05 76.75 119.45 76.75
Q 119 76.8 119 76.4
L 119 74.8 114.55 74.8 114.55 76.1
Q 114.65 76.95 113.7 77.2
L 113.7 78.05
Q 116.25 77.9 116.15 76.2
L 116.15 75.85 117.5 75.85
M 107.15 76.5
Q 107.1 75.55 107.15 74.45
L 105.4 74.45
Q 105.4 75.55 105.45 76.5
L 104.75 76.5 104.75 77.6 105.5 77.6
Q 105.6 79.1 105.75 80.15 105.9 80.7 106.05 81.2 105.6 81.5 105.25 81.7 105.05 81.8 105 81.85
L 105 82.85
Q 105.85 82.55 106.5 82.25 107.3 83.5 108.65 83.5 110.15 83.5 110.15 81.85
L 109 81.85
Q 109 82.4 108.55 82.4 108 82.4 107.7 81.45 109.1 80.3 109.9 78.05
L 108.25 78.05
Q 107.85 79.25 107.35 79.95 107.25 79 107.2 78.55 107.2 77.95 107.15 77.6
L 109.9 77.6 109.9 76.5 107.15 76.5
M 109.4 76.2
Q 109.25 75.3 108.9 74.7
L 107.55 74.7
Q 107.85 75.4 107.95 76.2
L 109.4 76.2
M 101.1 75.3
L 101.1 76.4 103.2 76.4
Q 103.15 78.1 102.9 79.05 102.65 78.1 102.55 76.85
L 101.1 76.85
Q 101.3 79.4 102.1 80.7 101.75 81.3 101 82.1
L 101 83.35
Q 102.1 82.55 102.9 81.75 103.4 82.4 104.8 83.35
L 104.8 82.15
Q 104.1 81.45 103.65 80.75 104.5 79.35 104.7 76.35
L 104.7 75.3 101.1 75.3
M 93 79.4
L 91.7 79.4
Q 91.55 81.6 90.8 83.35
L 92.35 83.35
Q 92.9 81.65 93 79.4
M 92.4 77.05
L 91.15 77.05
Q 91.55 78.1 91.65 78.95
L 93 78.95
Q 92.85 77.95 92.4 77.05
M 92.9 76.6
Q 92.8 75.65 92.35 74.7
L 91.05 74.7
Q 91.45 75.85 91.5 76.6
L 92.9 76.6
M 96.3 76.4
L 96.3 75.3 95.4 75.3 95.4 74.6 93.85 74.6 93.85 75.3 93 75.3 93 76.4 93.35 76.4 93.35 77.1
Q 93.35 79.3 93.25 80.3 93.15 81.3 92.9 82.1
L 92.9 83.55
Q 94.7 82 94.7 78.4
L 94.95 78.4 94.95 81.9
Q 95 82.4 94.5 82.35
L 94.3 82.35 94.3 83.35 95 83.35
Q 96.3 83.35 96.25 82.15
L 96.25 77.45 94.7 77.45
Q 94.7 77.3 94.7 77.1 94.7 76.85 94.7 76.75
L 94.7 76.4 96.3 76.4
M 100.05 76.25
L 100.05 75.2 98.35 75.2
Q 98.35 75.15 98.4 75 98.45 74.75 98.45 74.6
L 97 74.6
Q 96.9 75.8 96.3 76.45
L 96.3 77.3
Q 96.5 77.25 96.65 77.2
L 96.65 77.8 98.25 77.8
Q 98.1 78.4 97.65 78.95
L 97.65 79.45 96.45 79.45 96.45 80.5 97.65 80.5 97.65 81.95
Q 97.7 82.4 97.2 82.4
L 96.95 82.4 96.95 83.35 97.9 83.35
Q 99.1 83.4 99.05 82.15
L 99.05 80.5 100.05 80.5 100.05 79.45 99.05 79.45 99.05 79.15
Q 99.55 78.6 99.75 77.8
L 99.75 76.75 97.4 76.75
Q 97.7 76.55 97.9 76.25
L 100.05 76.25
M 135.35 65
Q 135.2 66.75 134.15 67.75
L 134.15 69.35
Q 137.35 68.3 137.45 65
L 135.35 65
M 142.8 57.15
L 142.8 55.15 140.25 55.15 140.25 54.25 137.25 54.25 137.25 55.15 134.7 55.15 134.7 57.15 142.8 57.15
M 141.85 59.3
Q 142.2 58.4 142.3 57.55
L 139.85 57.55
Q 139.75 58.4 139.4 59.3
L 138.05 59.3
Q 137.7 58.4 137.65 57.55
L 135.2 57.55
Q 135.25 58.4 135.6 59.3
L 134.35 59.3 134.35 61.3 137.6 61.3 137.6 62.4 134.7 62.4 134.7 64.4 137.6 64.4 137.6 67.55
Q 137.65 68.45 136.9 68.4
L 136.25 68.4 136.25 70.15 137.8 70.15
Q 140.3 70.2 140.25 67.7
L 140.25 64.4 142.85 64.4 142.85 62.4 140.25 62.4 140.25 61.3 143.05 61.3 143.05 59.3 141.85 59.3
M 150.65 54.4
Q 149.1 54.95 147.3 54.9
L 143.4 54.9 143.4 65.95
Q 143.5 67 143.25 67.6 142.65 66.85 142.5 65
L 140.4 65
Q 140.55 68.2 142.8 69.1
L 142.8 70.45
Q 146.35 69.15 146.1 65.25
L 146.1 60.75 146.95 60.75 146.95 70 149.65 70 149.65 60.75 150.75 60.75 150.75 58.75 146.1 58.75 146.1 56.85 147.7 56.85
Q 149.4 56.85 150.65 56.5
L 150.65 54.4
M 127.6 70.15
L 129.9 70.15
Q 132.25 70.2 132.15 67.95
L 132.15 54.2 129.5 54.2 129.5 67.7
Q 129.5 68.3 128.85 68.3
L 127.6 68.3 127.6 70.15
M 128.6 55.4
L 126.2 55.4 126.2 66.85 128.6 66.85 128.6 55.4
M 119.65 54.1
Q 118.65 57.15 116.55 58.9
L 116.55 60.8
Q 116.7 60.75 116.9 60.65 117.2 60.5 117.35 60.45
L 117.35 67.4
Q 117.25 70 119.65 69.85
L 123.4 69.85
Q 125.7 69.95 125.65 67.6
L 125.65 66.65 123.3 66.65 123.3 67.2
Q 123.4 68.1 122.55 68.05
L 121 68.05
Q 120.05 68.1 120.15 67.05
L 120.15 61.65 122.2 61.65 122.2 63.35
Q 122.25 64.1 121.4 64.1
L 120.85 64.1 120.85 66.05 122.2 66.05
Q 125 66.2 124.8 63.45
L 124.8 60.25
Q 125.35 60.5 125.85 60.75
L 125.85 58.85
Q 123.65 57.05 122.6 54.1
L 119.65 54.1
M 118.75 59.65
Q 120.15 58.75 121.15 57.2 122.3 58.9 123.65 59.65
L 118.75 59.65
M 113.2 67.35
L 113.2 62.75 99.9 62.75 99.9 70 110.3 70
Q 113.25 70.1 113.2 67.35
M 110.3 64.6
L 110.3 65.6 102.75 65.6 102.75 64.6 110.3 64.6
M 110.3 67.35
L 110.3 67.4
Q 110.35 68.4 109.45 68.3
L 102.75 68.3 102.75 67.35 110.3 67.35
M 102.65 59.75
Q 102.2 58.85 102 57.35
L 99.4 57.35
Q 99.6 58.85 100.15 59.75
L 102.65 59.75
M 112.85 59.75
Q 113.4 58.85 113.6 57.35
L 111 57.35
Q 110.8 58.85 110.35 59.75
L 112.85 59.75
M 111.4 54.6
Q 111.55 54.25 111.55 54.1
L 108.35 54.1
Q 108.2 54.6 108 55.15
L 104.95 55.15
Q 104.75 54.6 104.65 54.1
L 101.45 54.1
Q 101.5 54.6 101.7 55.15
L 98.85 55.15 98.85 56.95 103.15 56.95 103.15 60.25 98.35 60.25 98.35 62.05 114.75 62.05 114.75 60.25 109.9 60.25 109.9 56.95 114.15 56.95 114.15 55.15 111.3 55.15
Q 111.35 54.95 111.4 54.6
M 105.85 60.25
L 105.85 56.95 107.15 56.95 107.15 60.25 105.85 60.25
M 83.7 68.9
Q 84.55 70 86.45 70
L 96.65 70 96.65 68.1 86.8 68.1
Q 84.65 68.2 84.7 65.85
L 84.7 59.2 80.4 59.2 80.4 61.1 81.75 61.1 81.75 66.75
Q 81.8 68.05 80.55 68.6
L 80.55 70.15
Q 82.65 70 83.7 68.9
M 81.9 58
L 84.7 58
Q 84.35 56.1 83.5 54.45
L 80.9 54.45
Q 81.6 56.25 81.9 58
M 95.95 56.45
L 92.15 56.45 92.15 54.1 89.35 54.1 89.35 56.45 85.55 56.45 85.55 67.05 93.55 67.05
Q 96 67.1 95.95 64.3
L 95.95 56.45
M 93.35 58.5
L 93.35 60.6 92.15 60.6 92.15 58.5 93.35 58.5
M 88.15 58.5
L 89.35 58.5 89.35 60.6 88.15 60.6 88.15 58.5
M 88.15 62.55
L 89.35 62.55 89.35 65.1 88.15 65.1 88.15 62.55
M 92.5 65.1
L 92.15 65.1 92.15 62.55 93.35 62.55 93.35 64.15
Q 93.4 65.15 92.5 65.1 Z"/>
</g>
</defs>

<g transform="matrix( 1, 0, 0, 1, 0,0) ">
<use xlink:href="#Layer2_0_FILL"/>
</g>

<g transform="matrix( 1, 0, 0, 1, 0,0) ">
<use xlink:href="#Layer1_0_FILL"/>
</g>
</svg>
