
<svg xmlns="http://www.w3.org/2000/svg" version="1.1" xmlns:xlink="http://www.w3.org/1999/xlink" preserveAspectRatio="none" x="0px" y="0px" width="318px" height="46px" viewBox="0 0 318 46">
<defs>
<g id="Layer2_0_FILL">
<path fill="#A12C2C" stroke="none" d="
M 49.15 45.85
L 49.15 45.8 30.15 37.15 30 37.15 30 13.7 0 13.7 16.1 29.75 0 45.85 49.15 45.85
M 287.05 37.05
L 287 37.1 287 37.15 287.15 37.15 268.05 45.85 317.1 45.85 301 29.75 317.1 13.7 287.05 13.7 287.05 37.05 Z"/>

<path fill="#911616" stroke="none" d="
M 49.15 45.8
L 49.25 37.15 30.15 37.15 49.15 45.8
M 287.15 37.15
L 287 37.15 267.95 37.15 268.05 45.65 268.05 45.85 287.15 37.15 Z"/>

<path fill="#CCCCCC" stroke="none" d="
M 268.05 45.85
L 268.05 45.65 267.95 45.7 267.95 45.85 268.05 45.85 Z"/>

<path fill="#B84F4F" stroke="none" d="
M 287 37.15
L 287 37.1 287 0 30 0 30 13.7 30 37.15 30.15 37.15 49.25 37.15 267.95 37.15 287 37.15 Z"/>
</g>

<g id="Layer1_0_FILL">
<path fill="#FFFFFF" stroke="none" d="
M 237.9 8.8
L 234.9 8.8
Q 234.3 10 232.9 10.5
L 232.9 8.4 229.85 8.4 229.85 14.5
Q 229.15 11.95 228.05 10.3
L 225.4 10.3
Q 226 11.25 226.15 11.95 225.3 12 223.3 12 225.05 10.75 226.65 8.35
L 222.95 8.35
Q 221.7 10.5 220 12
L 220 14.25
Q 224.55 14.25 226.8 13.95 226.85 14.05 226.85 14.25 226.95 14.45 226.95 14.6
L 229.85 14.6
Q 229.9 16.7 232.25 16.6
L 235.3 16.6
Q 237.95 16.7 237.8 14.2
L 237.8 13.25 235.4 13.25 235.4 13.65
Q 235.45 14.5 234.7 14.45
L 233.65 14.45
Q 232.9 14.45 232.9 13.75
L 232.9 12.55
Q 236.65 12.15 237.9 8.8
M 229.85 17.15
L 229.85 23.55
Q 229.75 26.05 232.35 26
L 235.3 26
Q 237.9 26.05 237.8 23.75
L 237.8 22.8 235.3 22.8 235.3 23.2
Q 235.4 24.05 234.6 23.95
L 233.65 23.95
Q 232.95 23.95 232.95 23.25
L 232.95 21.75
Q 236.65 21.4 237.95 17.65
L 234.9 17.65
Q 234.2 19.1 232.95 19.65
L 232.95 17.15 229.85 17.15
M 225.25 24.1
L 224.7 24.1 224.7 26.05 226.5 26.05
Q 229.05 26.15 229 23.5
L 229 15 220.45 15 220.45 26.15 223.35 26.15 223.35 22.95 226 22.95 226 23.35
Q 226.1 24.2 225.25 24.1
M 226 17
L 226 18.2 223.35 18.2 223.35 17 226 17
M 223.35 20
L 226 20 226 21.15 223.35 21.15 223.35 20
M 205.95 10.5
L 204.7 10.5 204.7 8.25 201.5 8.25 201.5 10.5 199.9 10.5 199.9 12.7 201.5 12.7 201.5 16.7
Q 201.15 16.75 200.6 16.75 200.05 16.85 199.75 16.85
L 199.75 19.6
Q 200.05 19.5 200.7 19.45 201.25 19.25 201.5 19.25
L 201.5 23.25
Q 201.5 24.1 200.7 24.1
L 200.25 24.1 200.25 26.15 202.05 26.15
Q 204.7 26.15 204.7 23.4
L 204.7 18.5
Q 205.25 18.35 206.1 17.95
L 206.1 15.7
Q 205.7 15.75 205.15 16 204.85 16.05 204.7 16.15
L 204.7 12.7 205.95 12.7 205.95 10.5
M 217.8 10.2
L 213.5 10.2 213.5 8.25 210 8.25 210 10.2 206.3 10.2 206.3 12.4 210 12.4 210 14.6 206.5 14.6 206.5 16.75 213.9 16.75
Q 213.1 18.95 211.95 20.45 210.85 19.2 209.9 17.5
L 206.55 17.5
Q 207.75 20.5 209.7 22.4 208.05 23.5 205.7 24.35
L 205.7 26.3
Q 209.55 25.2 211.85 24.1 214.45 25.35 217.8 26.15
L 217.8 24.2
Q 215.7 23.35 214.2 22.4 216.3 20.45 217.35 16.75
L 217.35 14.6 213.5 14.6 213.5 12.4 217.8 12.4 217.8 10.2
M 182.35 12.5
L 185.55 12.5
Q 185 10.15 184 8.4
L 181 8.4
Q 181.95 10.7 182.35 12.5
M 186.7 20.75
Q 185.45 21.55 184.75 21.75
L 184.75 13.9 179.9 13.9 179.9 16.15 181.3 16.15 181.3 26.15
Q 184.55 25.05 187.25 23.2
L 187.25 20.45
Q 187.1 20.5 186.7 20.75
M 186 16.05
L 190.25 16.05 190.25 26.25 193.8 26.25 193.8 16.05 198.1 16.05 198.1 13.75 193.8 13.75 193.8 8.25 190.25 8.25 190.25 13.75 186 13.75 186 16.05
M 164.75 12.4
Q 164.3 10.2 163.3 8.5
L 160.3 8.5
Q 161.3 10.45 161.65 12.4
L 164.75 12.4
M 164.9 21.3
Q 164.6 21.45 164.45 21.55
L 164.45 13.65 159.75 13.65 159.75 15.85 161.25 15.85 161.25 25.75
Q 164.75 24.45 166.4 23
L 166.4 20.5
Q 165.8 20.9 164.9 21.3
M 165.85 15.7
L 165.85 17.95 173.6 17.95
Q 172.35 20.15 171.5 20.9 170.45 20 169.55 18.65
L 166 18.65
Q 167.35 21.15 169.05 22.7 167.95 23.4 165.05 24.35
L 165.05 26.3
Q 169.05 25.35 171.5 24.35 173.9 25.45 177.9 26.25
L 177.9 24.35
Q 175.3 23.5 173.9 22.8 176 20.9 177.2 17.85
L 177.2 15.7 165.85 15.7
M 175.95 12
L 175.95 8.8 167.05 8.8 167.05 11.45
Q 167.2 13.1 165.3 13.65
L 165.3 15.35
Q 170.4 15.05 170.15 11.6
L 170.15 11 172.9 11 172.9 12.5
Q 172.75 15.05 175.25 14.9
L 177.95 14.9 177.95 12.8 176.8 12.8
Q 175.85 12.85 175.95 12
M 151.85 15.05
L 149.3 15.05
Q 150.15 17.55 150.45 20.45
L 153.45 20.45
Q 152.9 17.4 151.85 15.05
M 146.3 8.4
L 143.1 8.4
Q 143.1 8.55 143.05 8.95 142.8 10 142.65 10.45
L 140.4 10.45 140.4 25.6 145.95 25.6
Q 148.6 25.7 148.5 22.95
L 148.5 10.45 145.85 10.45
Q 146.1 9.5 146.3 8.4
M 143.45 12.65
L 145.45 12.65 145.45 16.7 143.45 16.7 143.45 12.65
M 143.45 23.55
L 143.45 18.9 145.45 18.9 145.45 22.55
Q 145.55 23.65 144.7 23.55
L 143.45 23.55
M 153.45 9.45
Q 153.5 8.75 153.6 8.35
L 150.45 8.35
Q 150.25 11.45 148.75 12.8
L 148.75 14.75
Q 151.1 13.95 152.2 12.4
L 154.35 12.4 154.35 22.8
Q 154.45 23.95 153.35 23.9
L 151.85 23.9 151.85 25.9 154.75 25.9
Q 157.65 26 157.55 23.25
L 157.55 10.15 153.3 10.15
Q 153.3 9.9 153.45 9.45
M 126.4 8.35
L 122.9 8.35
Q 122.05 12.85 119.75 14.2
L 119.75 16.15
Q 120.7 15.9 121.5 15.7
L 121.5 26.25 124.75 26.25 124.75 12.8
Q 125.8 10.9 126.4 8.35
M 138.2 10.75
L 134.75 10.75
Q 133.8 13.35 131.85 15.05
L 131.85 8.35 128.3 8.35 128.3 17.3
Q 127.1 17.8 125.8 18.2
L 125.8 20.35
Q 127.1 20.15 128.3 19.75
L 128.3 22.8
Q 128.2 26 131.8 25.9
L 134.7 25.9
Q 137.65 25.9 137.55 23.2
L 137.55 21.4 134.85 21.4 134.85 22.65
Q 134.85 23.75 133.8 23.75
L 133.2 23.75
Q 131.8 23.8 131.85 22.25
L 131.85 18.35
Q 136.55 15.9 138.2 10.75
M 109.7 16.95
L 109.7 22.85
Q 109.6 25.9 112.55 25.85
L 115.05 25.85
Q 117.75 25.85 117.8 23.35
L 117.8 21.85 115.05 21.85 115.05 22.85
Q 115.05 23.65 114.2 23.65
L 114 23.65
Q 113.1 23.75 113.2 22.85
L 113.2 16.95 117.8 16.95 117.8 14.6 100 14.6 100 16.95 103.9 16.95 103.9 17.65
Q 104.05 22 100.3 24.05
L 100.3 26.25
Q 107.9 23.9 107.4 17.5
L 107.4 16.95 109.7 16.95
M 116.3 11.3
L 116.3 9.05 101.5 9.05 101.5 11.3 116.3 11.3
M 96.55 11.4
L 96.55 9.2 88.9 9.2
Q 89.2 8.8 89.45 8.35
L 85.6 8.35
Q 83.9 10.75 80.45 11.6
L 80.45 13.55
Q 81.95 13.25 82.55 13.1 82.95 13 83.1 13
L 83.1 14.35
Q 84.2 14.45 85.45 14.8 82.4 15.5 80.25 15.75
L 80.25 17.85
Q 83.8 17.5 86.5 16.95 84.55 18.65 81.25 19.45
L 81.25 21.3
Q 82.75 21.15 84 20.85
L 84 22.1
Q 86 22.3 87.2 22.8 84.6 23.8 80.15 24.35
L 80.15 26.3
Q 92.35 25.45 97.4 19.05
L 97.4 16.85 90.6 16.85
Q 90.8 16.7 90.95 16.45 91.15 16.15 91.25 16.05
L 89.6 16.05
Q 93.65 14.6 96.55 11.4
M 85.05 12.3
Q 86 11.95 86.7 11.45
L 92.1 11.45
Q 90.55 12.8 88.65 13.65
L 88.65 13
Q 86.8 12.4 85.05 12.3
M 89.55 21.7
L 89.55 20.75
Q 87.65 20.2 86.25 20.05 87.25 19.65 88.2 19.05
L 92.8 19.05
Q 91.65 20.3 89.55 21.7 Z"/>
</g>
</defs>

<g transform="matrix( 1, 0, 0, 1, 0,0) ">
<use xlink:href="#Layer2_0_FILL"/>
</g>

<g transform="matrix( 1, 0, 0, 1, 0,0) ">
<use xlink:href="#Layer1_0_FILL"/>
</g>
</svg>
