
<svg xmlns="http://www.w3.org/2000/svg" version="1.1" xmlns:xlink="http://www.w3.org/1999/xlink" preserveAspectRatio="none" x="0px" y="0px" width="318px" height="46px" viewBox="0 0 318 46">
<defs>
<g id="Layer1_0_FILL">
<path fill="#A12C2C" stroke="none" d="
M 49.15 45.85
L 49.15 45.8 30.15 37.15 30 37.15 30 13.7 0 13.7 16.1 29.75 0 45.85 49.15 45.85
M 317.1 13.7
L 287.05 13.7 287.05 37.05 287 37.1 287 37.15 287.15 37.15 268.05 45.85 317.1 45.85 301 29.75 317.1 13.7 Z"/>

<path fill="#911616" stroke="none" d="
M 49.15 45.8
L 49.25 37.15 30.15 37.15 49.15 45.8
M 287.15 37.15
L 287 37.15 267.95 37.15 268.05 45.65 268.05 45.85 287.15 37.15 Z"/>

<path fill="#CCCCCC" stroke="none" d="
M 268.05 45.85
L 268.05 45.65 267.95 45.7 267.95 45.85 268.05 45.85 Z"/>

<path fill="#B84F4F" stroke="none" d="
M 287 37.15
L 287 37.1 287 0 30 0 30 13.7 30 37.15 30.15 37.15 49.25 37.15 267.95 37.15 287 37.15 Z"/>
</g>

<g id="Layer0_0_FILL">
<path fill="#FFFFFF" stroke="none" d="
M 200.35 14.65
L 200.05 16.1
Q 198.8 14.4 196.9 14.4 194.6 14.4 193.15 16.25 191.65 18.05 191.65 20.5 191.65 22.35 192.6 23.5 193.55 24.6 195.15 24.6 196.9 24.6 198.2 23.25
L 198.25 23.3 197.9 24.85
Q 197.65 25.85 197.2 26.35 196.7 26.85 196 26.85 194.9 26.85 194.85 25.8
L 191.05 25.25
Q 191.05 25.4 191.05 25.7 191.05 26.8 191.75 27.7 192.45 28.6 193.4 28.9 194.4 29.2 196.15 29.2 198.7 29.2 200.05 28.25 201.35 27.3 201.95 24.4
L 204.05 14.65 200.35 14.65
M 197.8 17.05
Q 198.35 17.05 198.75 17.45 199.15 17.85 199.15 18.5 199.15 19.55 198.6 20.75 198.05 21.95 196.95 21.95 196.3 21.95 195.95 21.55 195.55 21.1 195.55 20.4 195.55 19.1 196.2 18.1 196.9 17.05 197.8 17.05
M 190.7 14.65
L 186.7 14.65 184.5 25 188.5 25 190.7 14.65
M 191.55 10.7
L 187.55 10.7 187 13.4 191 13.4 191.55 10.7
M 210.05 16.25
L 210 16.2 210.35 14.65 206.6 14.65 204.4 25 208.4 25 209.4 20.5
Q 209.7 18.95 210.35 18.15 211 17.3 211.9 17.3 212.7 17.3 212.7 18.15 212.7 18.4 212.3 20.2
L 211.3 25 215.25 25 216.45 19.35
Q 216.85 17.5 216.85 16.9 216.85 15.85 216.15 15.15 215.45 14.4 214.05 14.4 211.7 14.4 210.05 16.25
M 232.65 10.45
Q 230.8 10.45 229.5 11 228.2 11.55 227.5 12.6 226.8 13.6 226.8 14.8 226.8 16.15 227.65 17.15 228.45 18.1 231.6 19.2 233 19.7 233.35 20.1 233.7 20.45 233.7 20.9 233.7 21.5 233.15 21.95 232.6 22.4 231.55 22.4 230.5 22.4 229.9 21.85 229.3 21.3 229.3 19.95
L 225.15 20.25 225.15 20.6
Q 225.15 22.65 226.6 23.95 228 25.25 231.4 25.25 233.85 25.25 235.15 24.55 236.45 23.85 237.15 22.75 237.85 21.7 237.85 20.45 237.85 19.1 237.2 18.2 236.55 17.35 235.55 16.8 234.55 16.2 232.9 15.6 231.65 15.1 231.3 14.8 230.95 14.5 230.95 14.15 230.95 13.7 231.4 13.35 231.8 13 232.6 13 234.55 13 234.7 14.9
L 238.8 14.65
Q 238.45 10.45 232.65 10.45
M 258.95 25
L 262.95 25 266 10.7 262 10.7 258.95 25
M 258.5 14.65
L 254.5 14.65 252.3 25 256.3 25 258.5 14.65
M 248.5 18.2
L 252.95 14.65 248.4 14.65 244.4 18.15 244.35 18.1 245.95 10.7 242.05 10.7 239 25 242.85 25 243.45 22.35 245.55 20.65 246.65 25 251.1 25 248.5 18.2
M 259.35 10.7
L 255.35 10.7 254.8 13.4 258.8 13.4 259.35 10.7
M 272.65 10.7
L 268.65 10.7 265.6 25 269.6 25 272.65 10.7
M 183.75 17.1
Q 183.5 15.65 182.35 15 181.25 14.4 179.2 14.4 177.35 14.4 176.1 14.9 174.85 15.4 174.25 16.3 173.65 17.15 173.65 18.05 173.65 19.15 174.45 19.9 175.3 20.65 177.6 21 178.6 21.15 178.95 21.3 179.3 21.5 179.3 21.95 179.3 22.5 178.85 22.75 178.3 23.05 177.65 23.05 176.25 23.05 176 21.8
L 172.1 22.15
Q 172.25 23.8 173.45 24.5 174.6 25.25 177.05 25.25 180.1 25.25 181.6 24.1 183.05 23 183.05 21.4 183.05 20.2 182.3 19.55 181.55 18.85 179.25 18.5 177.85 18.3 177.5 18.05 177.2 17.8 177.2 17.45 177.2 17.1 177.55 16.85 177.9 16.6 178.65 16.6 179.85 16.6 180.05 17.5
L 183.75 17.1
M 166.1 14.4
Q 164.75 14.4 163.75 14.7 162.75 15 161.7 15.8 160.65 16.65 160.05 17.85 159.45 19.1 159.45 20.5 159.45 22.5 160.75 23.85 162.05 25.25 165.1 25.25 167.2 25.25 168.6 24.55 170 23.9 170.9 22.35
L 167.05 22
Q 166.35 22.9 165.2 22.9 163.5 22.9 163.35 20.85
L 171.25 20.85
Q 171.5 19.35 171.5 18.75 171.5 16.9 170.25 15.65 169 14.4 166.1 14.4
M 167.15 17.15
Q 167.65 17.55 167.65 18.3 167.65 18.7 167.55 18.9
L 163.7 18.9
Q 164.05 17.8 164.65 17.3 165.25 16.7 166 16.7 166.7 16.7 167.15 17.15
M 156.95 12.35
Q 155.55 10.7 152.4 10.7
L 146.5 10.7 143.5 25 151.05 25
Q 152.6 25 154.25 24.3 155.95 23.6 157.15 21.45 158.4 19.25 158.4 16.7 158.4 14 156.95 12.35
M 150.45 21.85
L 148.65 21.85 150.3 13.85 151.7 13.85
Q 153.05 13.85 153.55 14.5 154.05 15.1 154.05 16.2 154.05 18.1 153.15 19.95 152.3 21.85 150.45 21.85
M 130.55 14.4
Q 129.2 14.4 128.2 14.7 127.2 15 126.15 15.8 125.1 16.65 124.5 17.85 123.9 19.1 123.9 20.5 123.9 22.5 125.2 23.85 126.5 25.25 129.55 25.25 131.65 25.25 133.05 24.55 134.45 23.9 135.35 22.35
L 131.5 22
Q 130.8 22.9 129.65 22.9 127.95 22.9 127.8 20.85
L 135.7 20.85
Q 135.95 19.35 135.95 18.75 135.95 16.9 134.7 15.65 133.45 14.4 130.55 14.4
M 130.45 16.7
Q 131.15 16.7 131.6 17.15 132.1 17.55 132.1 18.3 132.1 18.7 132 18.9
L 128.15 18.9
Q 128.5 17.8 129.1 17.3 129.7 16.7 130.45 16.7
M 116.75 25
L 120.75 25 123.8 10.7 119.8 10.7 116.75 25
M 110.5 14.7
Q 109.85 14.95 109 15.7
L 108.95 15.7 109.15 14.65 105.45 14.65 102.4 28.95 106.35 28.95 107.5 23.6
Q 108.6 25.25 110.8 25.25 112.95 25.25 114.35 23.3 115.75 21.35 115.75 18.7 115.75 16.75 114.8 15.55 113.85 14.4 112.1 14.4 111.2 14.4 110.5 14.7
M 108.8 18.25
Q 109.4 17 110.5 17 111.05 17 111.45 17.4 111.85 17.85 111.85 18.8 111.85 20.35 111.25 21.45 110.6 22.6 109.75 22.6 109.15 22.6 108.7 22.15 108.2 21.7 108.2 20.75 108.2 19.45 108.8 18.25
M 96.75 25
L 100.75 25 102.95 14.65 98.95 14.65 96.75 25
M 103.25 13.4
L 103.8 10.7 99.8 10.7 99.25 13.4 103.25 13.4
M 89.15 14.65
L 88.55 17.5 90 17.5 89.25 21.05
Q 88.95 22.4 88.95 22.7 88.95 23.65 89.65 24.45 90.35 25.25 92.05 25.25 92.85 25.25 94.65 25
L 95.25 22.15
Q 94.35 22.35 94.05 22.35 93.1 22.35 93.1 21.65 93.1 21.4 93.2 21.15
L 93.95 17.5 96.05 17.5 96.65 14.65 94.55 14.65 95.4 10.8 90.95 13 90.6 14.65 89.15 14.65
M 88.25 10.7
L 84.25 10.7 81.2 25 85.2 25 88.25 10.7
M 68.4 22.75
Q 68.4 23.8 69.1 24.5 69.85 25.25 71.25 25.25 73.6 25.25 75.25 23.4
L 75.3 23.4 74.95 25 78.65 25 80.9 14.65 76.9 14.65 75.9 19.15
Q 75.6 20.65 74.95 21.5 74.25 22.3 73.35 22.3 72.6 22.3 72.6 21.45 72.6 21.15 72.65 21 72.7 20.8 72.9 19.7
L 74 14.65 70.05 14.65 68.8 20.2
Q 68.4 22.1 68.4 22.75
M 68.15 10.7
L 62.55 10.7 58.05 19.75 58 19.75 57.45 10.7 52.05 10.7 49 25 52.65 25 54.75 14.05 55.4 25 58.65 25 63.95 14.05 64 14.05 61.35 25 65.05 25 68.15 10.7 Z"/>
</g>
</defs>

<g transform="matrix( 1, 0, 0, 1, 0,0) ">
<use xlink:href="#Layer1_0_FILL"/>
</g>

<g transform="matrix( 1, 0, 0, 1, 0,0) ">
<use xlink:href="#Layer0_0_FILL"/>
</g>
</svg>
