<?xml version="1.0" encoding="utf-8"?>
<!-- Generator: Adobe Illustrator 19.0.0, SVG Export Plug-In . SVG Version: 6.00 Build 0)  -->
<svg version="1.1" id="图层_1" xmlns="http://www.w3.org/2000/svg" xmlns:xlink="http://www.w3.org/1999/xlink" x="0px" y="0px"
	 viewBox="-308 547.5 225 96" style="enable-background:new -308 547.5 225 96;" xml:space="preserve">
<style type="text/css">
	.st0{fill:#B84F4F;}
	.st1{fill:#911616;}
	.st2{fill:#A12C2C;}
	.st3{fill:#FFFFFF;}
</style>
<g transform="matrix( 1, 0, 0, 1, 0,0) ">
	<g>
		<g id="Layer2_0_FILL">
			<path class="st0" d="M-117.9,634.2L-117.9,634.2V597h-158.2v13.7v23.5h0.1h19.1h119.9H-117.9z"/>
			<path class="st1" d="M-257,642.8l0.1-8.6H-276L-257,642.8 M-136.9,634.2l0.1,8.7l19.1-8.7h-0.1H-136.9z"/>
			<path class="st2" d="M-276.1,634.2v-23.5h-30l16.1,16l-16.1,16.1h49.1v-0.1l-19-8.6H-276.1 M-117.9,634.1L-117.9,634.1l0.1,0
				l-19.1,8.7h49.1l-16.1-16.1l16.1-16h-30.1L-117.9,634.1L-117.9,634.1z"/>
			<path class="st3" d="M-240.6,564.5h10V552h-10V564.5 M-238.1,554.5h5v7.5h-5V554.5 M-169.8,564.5h10V552h-10V564.5 M-167.2,554.5
				h5v7.5h-5V554.5 M-245.6,554.5v2.5h-7.5v7.5h10V562h-7.5v-2.5h7.5V552h-10v2.5H-245.6 M-195.8,582.3h-2.5v2.5h2.5V582.3
				 M-195.8,574.8v-2.5h-2.5v2.5H-195.8 M-195.8,579.8v-2.5h-2.5v2.5H-195.8 M-225.6,564.5h2.5V552h-5v2.5h2.5V564.5 M-210.6,559.5
				V552h-10v2.5h7.5v2.5h-7.5v7.5h10V562h-7.5v-2.5H-210.6 M-200.6,557v2.5h7.5V557H-200.6 M-177.8,554.5h-2.5V552h-2.5v12.5h2.5
				V557h2.5V554.5 M-172.8,552h-2.5v5h-2.5v2.5h2.5v5h2.5V552 M-155.3,562v2.5h2.5V562H-155.3 M-155.3,552h-2.5v10h2.5V552
				 M-150.3,562v-5h-2.5v5H-150.3 M-150.3,562v2.5h2.5V562H-150.3 M-145.3,552h-2.5v10h2.5V552z"/>
		</g>
	</g>
</g>
<g transform="matrix( 1, 0, 0, 1, 0,0) ">
	<g>
		<g id="Layer1_0_FILL">
			<path class="st3" d="M-176.1,630.2h1.6c-0.2-0.6-0.4-1.1-0.7-1.6h-1.4C-176.4,629.1-176.2,629.6-176.1,630.2 M-170.5,627.3V627
				h-1.7v0.3h-5.9v1h5.9v1.2c0,0.3-0.1,0.5-0.4,0.5h-1.1v1h1.9c0.9,0,1.3-0.5,1.3-1.3v-1.3h1.5v-1H-170.5 M-169.8,623.9v-1.7h-7.6v3
				c0,1,0.4,1.5,1.3,1.5h5.7c0.9,0,1.3-0.4,1.3-1.2v-0.3h-1.3v0.1c0,0.3-0.1,0.5-0.5,0.5h-4.4c-0.3,0-0.5-0.2-0.5-0.5v-0.1h4.8
				C-170.2,625.2-169.8,624.8-169.8,623.9 M-175.8,623.3h4.4v0.4c0,0.2-0.1,0.3-0.4,0.3h-4V623.3 M-180.8,630.9c1,0,1.5-0.5,1.5-1.6
				V626h-5.4v4.9H-180.8 M-180.9,627.1v0.8h-2.2v-0.8H-180.9 M-183.1,629.8V629h2.2v0.3c0,0.4-0.2,0.5-0.5,0.5H-183.1 M-179.1,622.2
				h-1.9c-0.4,0.5-1.1,0.8-2.1,1V622h-1.6v2.2c-0.1,1,0.4,1.5,1.3,1.4h3c0.9,0,1.4-0.4,1.3-1.3v-0.5h-1.3v0.2c0,0.4-0.2,0.5-0.5,0.5
				h-1.7c-0.4,0-0.6-0.2-0.6-0.5C-181,624-179.7,623.4-179.1,622.2 M-187.1,623.2h-0.8v1.1h0.8v2c-0.1,0-0.2,0-0.5,0
				c-0.2,0-0.3,0-0.4,0v1.4c0.1,0,0.2,0,0.4,0c0.2-0.1,0.4-0.1,0.5-0.2v2c0,0.3-0.1,0.5-0.5,0.5h-0.2v1h0.8c0.9,0,1.4-0.4,1.4-1.3
				V627c0.1,0,0.2-0.1,0.3-0.1c0.2-0.1,0.3-0.1,0.4-0.2v-1.1c-0.3,0.1-0.5,0.1-0.7,0.2v-1.6h0.7v-1.1h-0.7v-1.1h-1.5V623.2
				 M-194.3,629.5v-1.3c-0.1,0-0.2,0.1-0.3,0.1c-0.4,0.3-0.7,0.4-0.9,0.5v-4h-2.4v1.2h0.7v5C-196.2,630.6-195.2,630.1-194.3,629.5
				 M-195.2,624.1c-0.2-0.8-0.4-1.4-0.8-2h-1.5c0.3,0.7,0.5,1.4,0.6,2H-195.2 M-188.9,624.8h-2.2V622h-1.8v2.8h-2.1v1.2h2.1v5.1h1.8
				v-5.1h2.2V624.8 M-199.4,626.8v-1.1h-5.6v1.2h3.9c-0.4,0.7-0.8,1.2-1.1,1.5c-0.3-0.3-0.7-0.7-1-1.2h-1.8c0.4,0.8,0.9,1.5,1.6,2
				c-0.4,0.2-1,0.5-2,0.8v1c1.3-0.3,2.4-0.7,3.2-1c0.8,0.4,1.9,0.7,3.2,1v-1c-0.9-0.3-1.5-0.6-2-0.8
				C-200.3,628.7-199.8,627.9-199.4,626.8 M-198.9,624.3h-0.6c-0.3,0-0.4-0.1-0.4-0.3v-1.6h-4.4v1.3c0.1,0.6-0.2,0.9-0.9,1.1v0.8
				c1.7-0.1,2.5-0.7,2.4-1.8v-0.3h1.4v0.8c-0.1,0.9,0.3,1.3,1.1,1.2h1.4V624.3 M-207.8,622.1c0.3,0.7,0.6,1.3,0.7,1.9h1.6
				c-0.2-0.7-0.4-1.3-0.8-1.9H-207.8 M-208.1,625.8h0.7v5c1.2-0.4,2.1-0.9,2.6-1.3v-1.2c-0.2,0.1-0.5,0.3-0.8,0.4
				c-0.1,0-0.2,0.1-0.2,0.1v-4h-2.3V625.8 M-211.4,623.2V622h-1.6v1.2h-0.7v1h0.7c0,2.5-0.2,4.1-0.7,5c-0.2-0.8-0.4-1.6-0.7-2.3
				h-1.2c0,0.1,0.1,0.2,0.2,0.5c0.1,0.6,0.2,1,0.3,1.3c-0.4,0-0.9,0-1.5,0c0.6-0.7,1-1.6,1.2-2.8h1.7v-1.1h-4.4v1.1h1.1
				c-0.1,0.9-0.5,1.8-1,2.8v1.2c1.2,0,2.3-0.1,3.1-0.2c0,0.1,0,0.2,0,0.3h1v1c1-0.8,1.6-1.7,1.9-2.5c0.4-0.9,0.6-2.3,0.6-4.2h0.8
				v5.2c0,0.3-0.1,0.4-0.4,0.4h-0.5v1.1h1.1c1,0,1.4-0.5,1.4-1.5v-6.2H-211.4 M-213.9,623.6v-1.1h-3.7v1.1H-213.9 M-219.2,623.5
				v-1.2h-8.6v1.2h1.2l-0.6,5.1h5.2l-0.1,1h-6.1v1.1h9.1v-1.1h-1.4l0.3-5.2h-4.9l0.1-0.9H-219.2 M-221.8,625.5l-0.1,2h-3.4l0.2-2
				H-221.8 M-169.9,615.1v-4.9h-3v4.9c0,0.7-0.3,1-0.9,0.9h-0.7v1.8h1.9C-170.7,617.9-169.8,617-169.9,615.1 M-178.9,614.9v2.5
				c2.2-0.5,4.1-1.2,5.7-2.3V613C-175.1,613.9-177,614.5-178.9,614.9 M-164.1,617.7v-2.7c-1.6-1-3.4-1.7-5.4-2.1v2.2
				C-167.7,615.7-165.9,616.5-164.1,617.7 M-164.7,606.5v-1.8h-5.4c0-0.1,0-0.2,0.1-0.3c0-0.1,0-0.2,0-0.2h5.9v-1.9h-5.8v-0.7h-3.2
				v0.7h-5.7v1.9h5.6c0,0,0,0.1,0,0.2c-0.1,0.1-0.1,0.2-0.1,0.3h-4.9v1.8h4.5c0,0.1,0,0.2-0.1,0.3c-0.1,0.2-0.1,0.3-0.2,0.4h-5.3
				v1.8h3.6c-0.9,0.7-2.1,1.4-3.8,2v1.8c0.4-0.2,0.9-0.4,1.6-0.6c0.6-0.2,1-0.3,1.3-0.4c0.1,0.4,0.4,0.8,0.7,1.2h2.6
				c-0.5-0.9-0.8-1.7-0.9-2.3c0.8-0.5,1.6-1.1,2.2-1.7h1.6c0.7,0.7,1.4,1.3,2.1,1.8c-0.1,0.7-0.4,1.4-0.9,2.2h2.7
				c0-0.1,0.1-0.2,0.1-0.3c0.2-0.3,0.4-0.5,0.4-0.7c0.8,0.3,1.6,0.5,2.6,0.8v-1.8c-1.6-0.5-2.8-1.2-3.6-2h3.6v-1.8h-7.3
				c0.1-0.3,0.2-0.5,0.3-0.7H-164.7 M-187.9,602.7v6.8c0,1.6,0.6,2.3,1.9,2.2h2.3v3.3c0.1,0.6-0.2,0.9-0.7,0.9h-1.4v1.8h2.4
				c1.4,0,2-0.8,1.9-2.5v-5.5h-3.7c-0.5,0.1-0.7-0.2-0.7-0.8v-4c0.2,0.7,0.4,1.5,0.4,2.2h1.7c0,0.3-0.2,0.5-0.6,0.4h-0.6v1.8h1.4
				c1.3,0.1,1.9-0.6,1.9-2v-4.8h-2.2c0.1-0.3,0.2-0.6,0.2-1h-2.4c0,0.2,0,0.3-0.1,0.5c0,0.2,0,0.4,0,0.5H-187.9 M-188.1,612.6v1.8
				h4.1v-1.8H-188.1 M-197.2,612.3c0.1,1.7-0.1,3-0.6,3.8v1.9c1.7-1.2,2.5-3,2.5-5.4h0.6v2.8c0,0.4-0.2,0.5-0.6,0.5h-0.2v1.7h0.9
				c1.2,0,1.7-0.6,1.7-1.9v-13.5h-4.2V612.3 M-194.8,604.2v2.4h-0.6v-2.4H-194.8 M-195.4,608.3h0.6v2.6h-0.6V608.3 M-188.5,602.3h-4
				v10c0,1.8-0.1,3-0.4,3.6v2c1.5-1.2,2.2-3,2-5.3h0.7v2.8c0,0.4-0.2,0.6-0.5,0.6h-0.3v1.7h0.8c1.2,0.1,1.7-0.5,1.7-1.8V602.3
				 M-190.2,606.5h-0.7v-2.3h0.7V606.5 M-190.9,608.3h0.7v2.6h-0.7V608.3 M-210.1,608h-2.8c-0.2,2.6-1.1,4.7-2.5,6.2v2
				C-212.1,614.7-210.4,612-210.1,608 M-199.6,614.2c-1.4-1.5-2.3-3.5-2.5-6.2h-2.8c0.3,3.9,2.1,6.6,5.3,8.1V614.2 M-205.8,614.9
				v-8.8h-3.1v8.9c0,0.6-0.3,0.8-0.8,0.8h-0.9v1.9h2.2C-206.6,617.7-205.7,616.8-205.8,614.9 M-202.8,604.9v2.3h2.9v-4.4h-9.9
				c0-0.1,0.1-0.3,0.2-0.6c0.1-0.2,0.1-0.4,0.2-0.5h-3.2c-0.5,1.9-1.5,3.2-2.9,3.8v1.8c2.2-0.5,3.7-1.3,4.6-2.4H-202.8
				 M-232.4,613.1c-0.4,1.4-0.7,2.9-0.9,4.4h2.7c0.1-0.9,0.3-2.4,0.7-4.4H-232.4 M-225.8,617.5c-0.1-1.7-0.3-3.2-0.6-4.4h-2.6
				c0.3,1.6,0.5,3.1,0.5,4.4H-225.8 M-222.4,613.1h-2.6c0.4,1.9,0.7,3.4,0.7,4.4h2.8C-221.8,615.7-222.1,614.2-222.4,613.1
				 M-218.6,613.1h-2.5c0.4,1.5,0.6,3,0.8,4.4h2.7C-217.8,616-218.1,614.6-218.6,613.1 M-223.8,605.7h0.2c0.5,3,2.5,5.1,6.2,6.4v-2
				c-1.7-1.2-2.8-2.6-3.2-4.4h3.1v-2h-6.2v-2h-3.3v2h-6.2v2h3c-0.4,1.8-1.5,3.2-3.2,4.4v2c3.7-1.3,5.8-3.4,6.2-6.4h0.2v6.6h3.3
				V605.7z"/>
		</g>
	</g>
</g>
</svg>
