
<svg xmlns="http://www.w3.org/2000/svg" version="1.1" xmlns:xlink="http://www.w3.org/1999/xlink" preserveAspectRatio="none" x="0px" y="0px" width="264px" height="46px" viewBox="0 0 264 46">
<defs>
<g id="Layer1_0_FILL">
<path fill="#911616" stroke="none" d="
M 49.85 45.8
L 49.95 37.15 30.85 37.15 49.85 45.8
M 214.15 37.15
L 214.25 45.65 214.25 45.85 233.35 37.15 233.2 37.15 214.15 37.15 Z"/>

<path fill="#A12C2C" stroke="none" d="
M 49.85 45.85
L 49.85 45.8 30.85 37.15 30.7 37.15 30.7 13.7 0.7 13.7 16.8 29.75 0.7 45.85 49.85 45.85
M 247.2 29.75
L 263.3 13.7 233.25 13.7 233.25 37.05 233.2 37.1 233.2 37.15 233.35 37.15 214.25 45.85 263.3 45.85 247.2 29.75 Z"/>

<path fill="#B84F4F" stroke="none" d="
M 233.2 37.15
L 233.2 37.1 233.2 0 30.7 0 30.7 13.7 30.7 37.15 30.85 37.15 49.95 37.15 214.15 37.15 233.2 37.15 Z"/>

<path fill="#CCCCCC" stroke="none" d="
M 214.25 45.85
L 214.25 45.65 214.15 45.7 214.15 45.85 214.25 45.85 Z"/>
</g>

<g id="Layer0_0_FILL">
<path fill="#FFFFFF" stroke="none" d="
M 224.5 19
Q 224.5 17.15 223.25 15.9 222 14.65 219.1 14.65 217.75 14.65 216.75 14.95 215.75 15.25 214.7 16.05 213.65 16.9 213.05 18.1 212.45 19.35 212.45 20.75 212.45 22.75 213.75 24.1 215.05 25.5 218.1 25.5 220.2 25.5 221.6 24.8 223 24.15 223.9 22.6
L 220.05 22.25
Q 219.35 23.15 218.2 23.15 216.5 23.15 216.35 21.1
L 224.25 21.1
Q 224.5 19.6 224.5 19
M 220.15 17.4
Q 220.65 17.8 220.65 18.55 220.65 18.95 220.55 19.15
L 216.7 19.15
Q 217.05 18.05 217.65 17.55 218.25 16.95 219 16.95 219.7 16.95 220.15 17.4
M 210.25 15.4
Q 209.55 14.65 208.15 14.65 207.1 14.65 206.15 15.05 205.25 15.4 204.1 16.4 203.85 15.55 203.1 15.1 202.3 14.65 201.35 14.65 199.2 14.65 197.5 16.4
L 197.45 16.35 197.8 14.9 194.1 14.9 191.85 25.25 195.85 25.25 196.95 20.3
Q 197.25 18.8 197.95 18.2 198.6 17.55 199.2 17.55 200 17.55 200 18.35 200 18.5 199.95 18.85 199.9 19.15 199.55 20.9
L 198.6 25.25 202.6 25.25 203.6 20.65
Q 203.95 19.05 204.5 18.3 205.1 17.55 206 17.55 206.75 17.55 206.75 18.35 206.75 18.5 206.7 18.8 206.65 19.15 206.3 20.85
L 205.35 25.25 209.35 25.25 210.8 18.45
Q 210.95 17.85 210.95 17.2 210.95 16.15 210.25 15.4
M 190.85 17.65
Q 190.85 16.2 189.8 15.45 188.7 14.65 185.65 14.65 182.95 14.65 181.7 15.45 180.4 16.25 180.05 17.75
L 183.75 18.15
Q 184.05 17.45 184.5 17.2 184.9 17 185.6 17 186.25 17 186.65 17.2 187.05 17.45 187.05 17.85 187.05 18.1 186.9 18.55 186.35 18.75 184.6 18.9 182.7 19.1 181.55 19.35 180.45 19.65 179.65 20.35 178.9 21.05 178.9 22.45 178.9 23.65 179.75 24.6 180.6 25.5 182.6 25.5 184.5 25.5 186.05 24.05 186.05 24.65 186.2 25.25
L 190.1 25.25
Q 189.8 24.5 189.8 23.8 189.8 23 190.3 20.85 190.85 18.65 190.85 17.65
M 184 23.35
Q 183.45 23.35 183.1 23.05 182.8 22.75 182.8 22.25 182.8 21.75 183.25 21.4 183.75 21.05 186.5 20.6 186.25 22.1 185.5 22.7 184.75 23.35 184 23.35
M 171.85 10.7
Q 169.25 10.7 167.25 11.8 165.2 12.95 164.1 14.95 163 16.95 163 19.4 163 22.3 164.75 23.9 166.45 25.5 169.45 25.5 172.7 25.5 176.05 23.85
L 177.5 17.1 170.8 17.1 170.15 20.1 172.85 20.1 172.55 21.65
Q 171.5 22.35 170.15 22.35
L 170.1 22.35
Q 168.9 22.35 168.15 21.55 167.35 20.7 167.35 19.55 167.35 17.45 168.4 15.65 169.45 13.85 171.25 13.85 173.05 13.85 173.65 15.55
L 178 15.05
Q 176.9 10.7 171.85 10.7
M 145.45 15.5
Q 144 16.3 143.2 17.75 142.45 19.25 142.45 20.8 142.45 22.8 143.75 24.15 145.05 25.5 147.75 25.5 149.9 25.5 151.4 24.65 152.85 23.75 153.55 22.25 154.3 20.8 154.3 19.35 154.3 17.45 153.05 16.05 151.75 14.65 148.95 14.65 146.95 14.65 145.45 15.5
M 146.95 18.45
Q 147.55 17.35 148.85 17.35 149.45 17.35 149.95 17.75 150.45 18.15 150.45 19.15 150.45 20.55 149.8 21.7 149.1 22.8 148 22.8 147.3 22.8 146.8 22.25 146.3 21.65 146.3 20.8 146.3 19.6 146.95 18.45
M 141.5 14.9
L 137.5 14.9 135.3 25.25 139.3 25.25 141.5 14.9
M 141.8 13.65
L 142.35 10.95 138.35 10.95 137.8 13.65 141.8 13.65
M 135.8 10.95
L 131.85 10.95 130.7 16.25
Q 129.6 14.65 127.4 14.65 125.25 14.65 123.85 16.6 122.45 18.55 122.45 21.2 122.45 23.15 123.4 24.35 124.3 25.5 126.05 25.5 127 25.5 127.7 25.2 128.35 24.95 129.2 24.15
L 129.25 24.2 129.05 25.25 132.75 25.25 135.8 10.95
M 126.95 18.4
Q 127.6 17.3 128.45 17.3 129.05 17.3 129.5 17.75 129.95 18.2 129.95 19.15 129.95 20.4 129.4 21.65 128.8 22.9 127.7 22.9 127.1 22.9 126.7 22.45 126.35 21.95 126.35 21.1 126.35 19.55 126.95 18.4
M 109.1 20.75
Q 109.1 22.75 110.4 24.1 111.7 25.5 114.75 25.5 116.85 25.5 118.25 24.8 119.65 24.15 120.55 22.6
L 116.7 22.25
Q 116 23.15 114.85 23.15 113.15 23.15 113 21.1
L 120.9 21.1
Q 121.15 19.6 121.15 19 121.15 17.15 119.9 15.9 118.65 14.65 115.75 14.65 114.4 14.65 113.4 14.95 112.4 15.25 111.35 16.05 110.3 16.9 109.7 18.1 109.1 19.35 109.1 20.75
M 116.8 17.4
Q 117.3 17.8 117.3 18.55 117.3 18.95 117.2 19.15
L 113.35 19.15
Q 113.7 18.05 114.3 17.55 114.9 16.95 115.65 16.95 116.35 16.95 116.8 17.4
M 111.35 10.95
L 106.55 10.95 101.45 21.15 100.15 10.95 95.75 10.95 98.5 25.25 103.3 25.25 111.35 10.95
M 86 22.6
L 82.15 22.25
Q 81.45 23.15 80.3 23.15 78.6 23.15 78.45 21.1
L 86.35 21.1
Q 86.6 19.6 86.6 19 86.6 17.15 85.35 15.9 84.1 14.65 81.2 14.65 79.85 14.65 78.85 14.95 77.85 15.25 76.8 16.05 75.75 16.9 75.15 18.1 74.55 19.35 74.55 20.75 74.55 22.75 75.85 24.1 77.15 25.5 80.2 25.5 82.3 25.5 83.7 24.8 85.1 24.15 86 22.6
M 81.1 16.95
Q 81.8 16.95 82.25 17.4 82.75 17.8 82.75 18.55 82.75 18.95 82.65 19.15
L 78.8 19.15
Q 79.15 18.05 79.75 17.55 80.35 16.95 81.1 16.95
M 68.2 10.95
L 64.3 10.95 61.25 25.25 65.1 25.25 65.7 22.6 67.8 20.9 68.9 25.25 73.35 25.25 70.75 18.45 75.2 14.9 70.65 14.9 66.65 18.4 66.6 18.35 68.2 10.95
M 54.55 25.25
L 58.55 25.25 60.75 14.9 56.75 14.9 54.55 25.25
M 61.05 13.65
L 61.6 10.95 57.6 10.95 57.05 13.65 61.05 13.65
M 53.6 21.75
L 46.5 21.75 48.8 10.95 44.35 10.95 41.3 25.25 52.85 25.25 53.6 21.75 Z"/>
</g>
</defs>

<g transform="matrix( 1, 0, 0, 1, 0,0) ">
<use xlink:href="#Layer1_0_FILL"/>
</g>

<g transform="matrix( 1, 0, 0, 1, 0,0) ">
<use xlink:href="#Layer0_0_FILL"/>
</g>
</svg>
