
<svg xmlns="http://www.w3.org/2000/svg" version="1.1" xmlns:xlink="http://www.w3.org/1999/xlink" preserveAspectRatio="none" x="0px" y="0px" width="223px" height="46px" viewBox="0 0 223 46">
<defs>
<g id="Layer0_0_FILL">
<path fill="#A12C2C" stroke="none" d="
M 195.2 223.35
L 176.2 214.7 176.05 214.7 176.05 191.25 146.05 191.25 162.15 207.3 146.05 223.4 195.2 223.4 195.2 223.35
M 368.65 191.25
L 338.6 191.25 338.6 214.6 338.55 214.65 338.55 214.7 338.7 214.7 319.6 223.4 368.65 223.4 352.55 207.3 368.65 191.25 Z"/>

<path fill="#911616" stroke="none" d="
M 176.2 214.7
L 195.2 223.35 195.3 214.7 176.2 214.7
M 338.7 214.7
L 338.55 214.7 319.5 214.7 319.6 223.2 319.6 223.4 338.7 214.7 Z"/>

<path fill="#CCCCCC" stroke="none" d="
M 319.6 223.2
L 319.5 223.25 319.5 223.4 319.6 223.4 319.6 223.2 Z"/>

<path fill="#B84F4F" stroke="none" d="
M 338.55 214.7
L 338.55 214.65 338.55 177.55 176.05 177.55 176.05 191.25 176.05 214.7 176.2 214.7 195.3 214.7 319.5 214.7 338.55 214.7
M 200.3 192.35
Q 200.3 191.15 201 190.15 201.7 189.1 203 188.55 204.3 188 206.15 188 211.95 188 212.3 192.2
L 208.2 192.45
Q 208.05 190.55 206.1 190.55 205.3 190.55 204.9 190.9 204.45 191.25 204.45 191.7 204.45 192.05 204.8 192.35 205.15 192.65 206.4 193.15 208.05 193.75 209.05 194.35 210.05 194.9 210.7 195.75 211.35 196.65 211.35 198 211.35 199.25 210.65 200.3 209.95 201.4 208.65 202.1 207.35 202.8 204.9 202.8 201.5 202.8 200.1 201.5 198.65 200.2 198.65 198.15
L 198.65 197.8 202.8 197.5
Q 202.8 198.85 203.4 199.4 204 199.95 205.05 199.95 206.1 199.95 206.65 199.5 207.2 199.05 207.2 198.45 207.2 198 206.85 197.65 206.5 197.25 205.1 196.75 201.95 195.65 201.15 194.7 200.3 193.7 200.3 192.35
M 217.9 195.7
L 221.9 192.2 226.45 192.2 222 195.75 224.6 202.55 220.15 202.55 219.05 198.2 216.95 199.9 216.35 202.55 212.5 202.55 215.55 188.25 219.45 188.25 217.85 195.65 217.9 195.7
M 235.5 188.25
L 239.5 188.25 236.45 202.55 232.45 202.55 235.5 188.25
M 228 192.2
L 232 192.2 229.8 202.55 225.8 202.55 228 192.2
M 228.85 188.25
L 232.85 188.25 232.3 190.95 228.3 190.95 228.85 188.25
M 255.55 188.25
L 260 188.25 257.7 199.05 264.8 199.05 264.05 202.55 252.5 202.55 255.55 188.25
M 270.55 192.25
Q 271.55 191.95 272.9 191.95 275.8 191.95 277.05 193.2 278.3 194.45 278.3 196.3 278.3 196.9 278.05 198.4
L 270.15 198.4
Q 270.3 200.45 272 200.45 273.15 200.45 273.85 199.55
L 277.7 199.9
Q 276.8 201.45 275.4 202.1 274 202.8 271.9 202.8 268.85 202.8 267.55 201.4 266.25 200.05 266.25 198.05 266.25 196.65 266.85 195.4 267.45 194.2 268.5 193.35 269.55 192.55 270.55 192.25
M 279.4 192.2
L 283.15 192.2 283.75 198.75 283.8 198.75 287.25 192.2 291.4 192.2 284.9 202.55 281.4 202.55 279.4 192.2
M 291.2 195.4
Q 291.8 194.2 292.85 193.35 293.9 192.55 294.9 192.25 295.9 191.95 297.25 191.95 300.15 191.95 301.4 193.2 302.65 194.45 302.65 196.3 302.65 196.9 302.4 198.4
L 294.5 198.4
Q 294.65 200.45 296.35 200.45 297.5 200.45 298.2 199.55
L 302.05 199.9
Q 301.15 201.45 299.75 202.1 298.35 202.8 296.25 202.8 293.2 202.8 291.9 201.4 290.6 200.05 290.6 198.05 290.6 196.65 291.2 195.4
M 306.5 188.25
L 310.5 188.25 307.45 202.55 303.45 202.55 306.5 188.25
M 242.15 188.25
L 246.15 188.25 243.1 202.55 239.1 202.55 242.15 188.25
M 298.3 194.7
Q 297.85 194.25 297.15 194.25 296.4 194.25 295.8 194.85 295.2 195.35 294.85 196.45
L 298.7 196.45
Q 298.8 196.25 298.8 195.85 298.8 195.1 298.3 194.7
M 271.45 194.85
Q 270.85 195.35 270.5 196.45
L 274.35 196.45
Q 274.45 196.25 274.45 195.85 274.45 195.1 273.95 194.7 273.5 194.25 272.8 194.25 272.05 194.25 271.45 194.85 Z"/>

<path fill="#FFFFFF" stroke="none" d="
M 246.15 188.25
L 242.15 188.25 239.1 202.55 243.1 202.55 246.15 188.25
M 310.5 188.25
L 306.5 188.25 303.45 202.55 307.45 202.55 310.5 188.25
M 292.85 193.35
Q 291.8 194.2 291.2 195.4 290.6 196.65 290.6 198.05 290.6 200.05 291.9 201.4 293.2 202.8 296.25 202.8 298.35 202.8 299.75 202.1 301.15 201.45 302.05 199.9
L 298.2 199.55
Q 297.5 200.45 296.35 200.45 294.65 200.45 294.5 198.4
L 302.4 198.4
Q 302.65 196.9 302.65 196.3 302.65 194.45 301.4 193.2 300.15 191.95 297.25 191.95 295.9 191.95 294.9 192.25 293.9 192.55 292.85 193.35
M 297.15 194.25
Q 297.85 194.25 298.3 194.7 298.8 195.1 298.8 195.85 298.8 196.25 298.7 196.45
L 294.85 196.45
Q 295.2 195.35 295.8 194.85 296.4 194.25 297.15 194.25
M 283.15 192.2
L 279.4 192.2 281.4 202.55 284.9 202.55 291.4 192.2 287.25 192.2 283.8 198.75 283.75 198.75 283.15 192.2
M 272.9 191.95
Q 271.55 191.95 270.55 192.25 269.55 192.55 268.5 193.35 267.45 194.2 266.85 195.4 266.25 196.65 266.25 198.05 266.25 200.05 267.55 201.4 268.85 202.8 271.9 202.8 274 202.8 275.4 202.1 276.8 201.45 277.7 199.9
L 273.85 199.55
Q 273.15 200.45 272 200.45 270.3 200.45 270.15 198.4
L 278.05 198.4
Q 278.3 196.9 278.3 196.3 278.3 194.45 277.05 193.2 275.8 191.95 272.9 191.95
M 270.5 196.45
Q 270.85 195.35 271.45 194.85 272.05 194.25 272.8 194.25 273.5 194.25 273.95 194.7 274.45 195.1 274.45 195.85 274.45 196.25 274.35 196.45
L 270.5 196.45
M 260 188.25
L 255.55 188.25 252.5 202.55 264.05 202.55 264.8 199.05 257.7 199.05 260 188.25
M 232.85 188.25
L 228.85 188.25 228.3 190.95 232.3 190.95 232.85 188.25
M 232 192.2
L 228 192.2 225.8 202.55 229.8 202.55 232 192.2
M 239.5 188.25
L 235.5 188.25 232.45 202.55 236.45 202.55 239.5 188.25
M 221.9 192.2
L 217.9 195.7 217.85 195.65 219.45 188.25 215.55 188.25 212.5 202.55 216.35 202.55 216.95 199.9 219.05 198.2 220.15 202.55 224.6 202.55 222 195.75 226.45 192.2 221.9 192.2
M 201 190.15
Q 200.3 191.15 200.3 192.35 200.3 193.7 201.15 194.7 201.95 195.65 205.1 196.75 206.5 197.25 206.85 197.65 207.2 198 207.2 198.45 207.2 199.05 206.65 199.5 206.1 199.95 205.05 199.95 204 199.95 203.4 199.4 202.8 198.85 202.8 197.5
L 198.65 197.8 198.65 198.15
Q 198.65 200.2 200.1 201.5 201.5 202.8 204.9 202.8 207.35 202.8 208.65 202.1 209.95 201.4 210.65 200.3 211.35 199.25 211.35 198 211.35 196.65 210.7 195.75 210.05 194.9 209.05 194.35 208.05 193.75 206.4 193.15 205.15 192.65 204.8 192.35 204.45 192.05 204.45 191.7 204.45 191.25 204.9 190.9 205.3 190.55 206.1 190.55 208.05 190.55 208.2 192.45
L 212.3 192.2
Q 211.95 188 206.15 188 204.3 188 203 188.55 201.7 189.1 201 190.15 Z"/>
</g>
</defs>

<g transform="matrix( 1, 0, 0, 1, -145.85,-177.45) ">
<use xlink:href="#Layer0_0_FILL"/>
</g>
</svg>
