
<svg xmlns="http://www.w3.org/2000/svg" version="1.1" xmlns:xlink="http://www.w3.org/1999/xlink" preserveAspectRatio="none" x="0px" y="0px" width="225px" height="96px" viewBox="0 0 225 96">
<defs>
<g id="Layer2_0_FILL">
<path fill="#B84F4F" stroke="none" d="
M 188.25 86.65
L 188.25 86.6 188.25 49.5 30 49.5 30 63.2 30 86.65 30.15 86.65 49.25 86.65 169.2 86.65 188.25 86.65 Z"/>

<path fill="#911616" stroke="none" d="
M 49.15 95.3
L 49.25 86.65 30.15 86.65 49.15 95.3
M 169.3 95.35
L 188.4 86.65 188.25 86.65 169.2 86.65 169.3 95.35 Z"/>

<path fill="#A12C2C" stroke="none" d="
M 30 63.2
L 0 63.2 16.1 79.25 0 95.35 49.15 95.35 49.15 95.3 30.15 86.65 30 86.65 30 63.2
M 188.4 86.65
L 169.3 95.35 218.35 95.35 202.25 79.25 218.35 63.2 188.3 63.2 188.3 86.55 188.25 86.6 188.25 86.65 188.4 86.65 Z"/>

<path fill="#FFFFFF" stroke="none" d="
M 70.5 17
L 80.5 17 80.5 4.5 70.5 4.5 70.5 17
M 73 7
L 78 7 78 14.5 73 14.5 73 7
M 65.5 7
L 65.5 9.5 58 9.5 58 17 68 17 68 14.5 60.5 14.5 60.5 12 68 12 68 4.5 58 4.5 58 7 65.5 7
M 110.4 34.75
L 107.9 34.75 107.9 37.25 110.4 37.25 110.4 34.75
M 110.4 24.75
L 107.9 24.75 107.9 27.25 110.4 27.25 110.4 24.75
M 110.4 29.75
L 107.9 29.75 107.9 32.25 110.4 32.25 110.4 29.75
M 90.5 4.5
L 90.5 7 93 7 93 17 95.5 17 95.5 4.5 90.5 4.5
M 83 7
L 85.5 7 85.5 17 88 17 88 4.5 83 4.5 83 7
M 105.5 9.5
L 105.5 12 113 12 113 9.5 105.5 9.5
M 133 12
L 133 4.5 123 4.5 123 7 130.5 7 130.5 9.5 123 9.5 123 17 133 17 133 14.5 125.5 14.5 125.5 12 133 12
M 145.5 17
L 145.5 4.5 135.5 4.5 135.5 17 145.5 17
M 143 7
L 143 14.5 138 14.5 138 7 143 7
M 148 7
L 150.5 7 150.5 17 153 17 153 4.5 148 4.5 148 7
M 165.5 12
L 165.5 4.5 155.5 4.5 155.5 7 163 7 163 9.5 155.5 9.5 155.5 17 165.5 17 165.5 14.5 158 14.5 158 12 165.5 12 Z"/>
</g>

<g id="Layer1_0_FILL">
<path fill="#FFFFFF" stroke="none" d="
M 133.9 54.2
L 131.7 54.2 131.7 56.25 130.9 56.25 130.9 54.2 128.7 54.2 128.7 56.25 128.2 56.25 128.2 58.1 128.7 58.1 128.7 61.45
Q 128.7 65.15 129.9 67.1 129.8 67.2 129.6 67.4 128.9 68.1 128.4 68.45
L 128.4 70.3
Q 130.1 69.3 131.15 68.55 132.3 69.3 133.95 70.3
L 133.95 68.45
Q 133.4 68.1 132.75 67.4 132.55 67.2 132.5 67.1 133.9 65.15 133.9 61.45
L 133.9 58.1 134.25 58.1 134.25 56.25 133.9 56.25 133.9 54.2
M 131.7 58.1
L 131.7 61.5
Q 131.7 63.7 131.25 65 130.9 63.8 130.9 61.5
L 130.9 58.1 131.7 58.1
M 143.55 59.95
L 143.55 57.15 144.5 57.15 144.5 55.15 143.55 55.15 143.55 54.05 140.85 54.05 140.85 55.15 137.9 55.15 137.9 54.05 135.25 54.05 135.25 55.15 134.4 55.15 134.4 57.15 135.25 57.15 135.25 62.4 138.05 62.4 138.05 63.35 134.25 63.35 134.25 65.3 135.6 65.3
Q 135.4 67.35 134.25 68.3
L 134.25 70.1
Q 137.5 68.75 137.9 65.3
L 138.05 65.3 138.05 70.3 140.7 70.3 140.7 65.3 140.8 65.3
Q 141.15 68.75 144.5 70.1
L 144.5 68.4
Q 143.1 67.2 143.05 65.3
L 144.6 65.3 144.6 63.35 140.7 63.35 140.7 62.4 140.95 62.4
Q 143.65 62.55 143.55 59.95
M 140.85 57.15
L 140.85 58 137.9 58 137.9 57.15 140.85 57.15
M 137.9 60.6
L 137.9 59.65 140.85 59.65 140.85 59.8
Q 140.95 60.65 140.1 60.6
L 137.9 60.6
M 105 78.45
L 105.7 78.45 105.7 83.45
Q 107.3 82.9 108.7 81.95
L 108.7 80.6
Q 108.6 80.65 108.4 80.75 107.8 81.15 107.45 81.25
L 107.45 77.3 105 77.3 105 78.45
M 107.8 76.6
Q 107.55 75.45 107.05 74.6
L 105.55 74.6
Q 106 75.7 106.2 76.6
L 107.8 76.6
M 115.15 75.3
L 115.15 81.15 116.45 81.15 116.45 75.3 115.15 75.3
M 111.95 77.25
L 111.95 74.5 110.15 74.5 110.15 77.25 108.05 77.25 108.05 78.4 110.15 78.4 110.15 83.5 111.95 83.5 111.95 78.4 114.1 78.4 114.1 77.25 111.95 77.25
M 118.25 74.5
L 116.85 74.5 116.85 80.4
Q 116.9 81.75 115.95 82.55
L 115.95 83.55
Q 118.4 82.55 118.25 80.05
L 118.25 74.5
M 120 77.85
L 120.5 77.85 120.5 83.55 122 83.55 122 77.85 122.45 77.85 122.45 81.05
Q 122.45 81.25 122.2 81.25
L 122.1 81.25 122.1 82.3 122.65 82.3
Q 123.85 82.35 123.8 81.05
L 123.8 76.75 122 76.75 122 75.9 124.05 75.9 124.05 74.8 118.5 74.8 118.5 75.9 120.5 75.9 120.5 76.75 118.65 76.75 118.65 82.3 120 82.3 120 77.85
M 94.95 78.3
L 95.65 78.3 95.65 83.25
Q 97.45 82.6 98.25 81.9
L 98.25 80.65
Q 97.95 80.85 97.5 81.05 97.35 81.1 97.25 81.15
L 97.25 77.2 94.95 77.2 94.95 78.3
M 97.45 76.55
Q 97.2 75.5 96.7 74.6
L 95.2 74.6
Q 95.7 75.6 95.85 76.55
L 97.45 76.55
M 98 78.2
L 98 79.35 101.85 79.35
Q 101.2 80.45 100.8 80.85 100.3 80.35 99.8 79.7
L 98.05 79.7
Q 98.7 80.95 99.6 81.75 99.05 82.1 97.6 82.55
L 97.6 83.55
Q 99.6 83.05 100.8 82.55 102 83.1 104 83.5
L 104 82.55
Q 102.7 82.1 102 81.75 103.05 80.85 103.65 79.3
L 103.65 78.2 98 78.2
M 100.15 76.2
L 100.15 75.85 101.5 75.85 101.5 76.6
Q 101.4 77.9 102.65 77.8
L 104.05 77.8 104.05 76.75 103.45 76.75
Q 103 76.8 103 76.4
L 103 74.8 98.55 74.8 98.55 76.1
Q 98.65 76.95 97.7 77.2
L 97.7 78.05
Q 100.25 77.9 100.15 76.2
M 100.1 67.85
L 100.1 62.25 92.9 62.25 92.9 70 97.75 70
Q 100.15 70.1 100.1 67.85
M 97.5 64.05
L 97.5 65.3 95.5 65.3 95.5 64.05 97.5 64.05
M 97.5 66.9
L 97.5 67.4
Q 97.55 68.4 96.65 68.3
L 95.5 68.3 95.5 66.9 97.5 66.9
M 90.6 70.2
L 90.6 68.6
Q 86.65 67.85 85.05 66.2
L 90.3 66.2 90.3 64.25 84.2 64.25 84.2 63.4 80.8 63.4 80.8 64.25 74.65 64.25 74.65 66.2 79.95 66.2
Q 78.35 67.85 74.4 68.6
L 74.4 70.2
Q 80.3 69.75 82.5 67.6 84.7 69.75 90.6 70.2
M 90.25 55.25
L 87.2 55.25
Q 87.35 54.8 87.4 54.2
L 84.2 54.2
Q 84.1 54.45 84.05 54.9 84 55.1 84 55.25
L 81 55.25
Q 81 55.1 80.95 54.9 80.9 54.45 80.8 54.2
L 77.6 54.2
Q 77.7 54.8 77.8 55.25
L 74.75 55.25 74.75 57.2 80.8 57.2 80.8 58.1 75.75 58.1 75.75 60.1 80.8 60.1 80.8 61 74.4 61 74.4 63.05 90.6 63.05 90.6 61 84.05 61 84.05 60.1 89.4 60.1 89.4 58.1 84.05 58.1 84.05 57.2 90.25 57.2 90.25 55.25
M 108.15 67.85
L 108.15 62.25 101 62.25 101 70 105.85 70
Q 108.25 70.1 108.15 67.85
M 105.55 66.9
L 105.55 67.4
Q 105.65 68.4 104.7 68.3
L 103.6 68.3 103.6 66.9 105.55 66.9
M 105.55 65.3
L 103.6 65.3 103.6 64.05 105.55 64.05 105.55 65.3
M 104.45 61.65
Q 106.85 61.7 106.75 59.1
L 106.75 54.7 94.3 54.7 94.3 61.65 104.45 61.65
M 103.9 59.05
Q 103.95 59.9 103.1 59.8
L 97.2 59.8 97.2 58.95 103.9 58.95 103.9 59.05
M 103.9 56.5
L 103.9 57.35 97.2 57.35 97.2 56.5 103.9 56.5
M 115.95 54.2
L 113 54.2
Q 112.25 58.2 110.2 59.45
L 110.2 61.2
Q 111.2 61 111.9 60.65
L 111.9 70.2 114.75 70.2 114.75 57.85
Q 115.4 56.35 115.95 54.2
M 118.9 54.05
Q 118.9 54.25 118.85 54.7 118.85 55.1 118.8 55.3
L 115.85 55.3 115.85 57.3 118.35 57.3
Q 118.15 58.35 117.95 59.25
L 115.2 59.25 115.2 61.2 117.25 61.2
Q 116.9 61.85 116.65 62.55
L 116.65 64.6 122.35 64.6
Q 121.65 66 121.05 66.65 119.2 66.2 116.2 65.85
L 116.2 67.9
Q 121.05 68.8 125.3 70.65
L 125.3 67.9
Q 125.05 67.75 124.5 67.6 123.9 67.4 123.65 67.35 124.6 66.55 125.9 64.6
L 125.9 62.55 119.5 62.55
Q 119.65 62.35 119.85 61.85 120.05 61.45 120.1 61.2
L 126.75 61.2 126.75 59.25 120.9 59.25
Q 121.25 58.35 121.45 57.3
L 126.4 57.3 126.4 55.3 121.95 55.3
Q 122 54.7 122.25 54.05
L 118.9 54.05 Z"/>
</g>
</defs>

<g transform="matrix( 1, 0, 0, 1, 0,0) ">
<use xlink:href="#Layer2_0_FILL"/>
</g>

<g transform="matrix( 1, 0, 0, 1, 0,0) ">
<use xlink:href="#Layer1_0_FILL"/>
</g>
</svg>
