
<svg xmlns="http://www.w3.org/2000/svg" version="1.1" xmlns:xlink="http://www.w3.org/1999/xlink" preserveAspectRatio="none" x="0px" y="0px" width="225px" height="96px" viewBox="0 0 225 96">
<defs>
<g id="Layer2_0_FILL">
<path fill="#B84F4F" stroke="none" d="
M 190.1 86.65
L 190.1 86.6 190.1 49.5 31.85 49.5 31.85 63.2 31.85 86.65 32 86.65 51.1 86.65 171.05 86.65 190.1 86.65 Z"/>

<path fill="#911616" stroke="none" d="
M 51 95.3
L 51.1 86.65 32 86.65 51 95.3
M 171.05 86.65
L 171.15 95.35 190.25 86.65 190.1 86.65 171.05 86.65 Z"/>

<path fill="#A12C2C" stroke="none" d="
M 31.85 86.65
L 31.85 63.2 1.85 63.2 17.95 79.25 1.85 95.35 51 95.35 51 95.3 32 86.65 31.85 86.65
M 190.1 86.6
L 190.1 86.65 190.25 86.65 171.15 95.35 220.2 95.35 204.1 79.25 220.2 63.2 190.15 63.2 190.15 86.55 190.1 86.6 Z"/>

<path fill="#FFFFFF" stroke="none" d="
M 67.35 17
L 77.35 17 77.35 4.5 67.35 4.5 67.35 17
M 69.85 7
L 74.85 7 74.85 14.5 69.85 14.5 69.85 7
M 62.35 7
L 62.35 9.5 54.85 9.5 54.85 17 64.85 17 64.85 14.5 57.35 14.5 57.35 12 64.85 12 64.85 4.5 54.85 4.5 54.85 7 62.35 7
M 112.25 34.75
L 109.75 34.75 109.75 37.25 112.25 37.25 112.25 34.75
M 112.25 27.25
L 112.25 24.75 109.75 24.75 109.75 27.25 112.25 27.25
M 112.25 32.25
L 112.25 29.75 109.75 29.75 109.75 32.25 112.25 32.25
M 82.35 17
L 84.85 17 84.85 4.5 79.85 4.5 79.85 7 82.35 7 82.35 17
M 97.35 12
L 97.35 4.5 87.35 4.5 87.35 7 94.85 7 94.85 9.5 87.35 9.5 87.35 17 97.35 17 97.35 14.5 89.85 14.5 89.85 12 97.35 12
M 107.35 9.5
L 107.35 12 114.85 12 114.85 9.5 107.35 9.5
M 134.85 12
L 134.85 4.5 124.85 4.5 124.85 7 132.35 7 132.35 9.5 124.85 9.5 124.85 17 134.85 17 134.85 14.5 127.35 14.5 127.35 12 134.85 12
M 147.35 17
L 147.35 4.5 137.35 4.5 137.35 17 147.35 17
M 144.85 7
L 144.85 14.5 139.85 14.5 139.85 7 144.85 7
M 149.85 4.5
L 149.85 7 152.35 7 152.35 17 154.85 17 154.85 4.5 149.85 4.5
M 164.85 4.5
L 164.85 12 159.85 12 159.85 4.5 157.35 4.5 157.35 14.5 164.85 14.5 164.85 17 167.35 17 167.35 4.5 164.85 4.5 Z"/>
</g>

<g id="Layer1_0_FILL">
<path fill="#FFFFFF" stroke="none" d="
M 131.9 82.65
L 133.5 82.65
Q 133.25 81.75 132.8 81.05
L 131.4 81.05
Q 131.75 81.8 131.9 82.65
M 137.5 79.75
L 137.5 79.45 135.8 79.45 135.8 79.75 129.95 79.75 129.95 80.8 135.8 80.8 135.8 81.95
Q 135.85 82.45 135.35 82.45
L 134.25 82.45 134.25 83.4 136.2 83.4
Q 137.5 83.35 137.5 82.1
L 137.5 80.8 139 80.8 139 79.75 137.5 79.75
M 138.2 76.4
L 138.2 74.75 130.6 74.75 130.6 77.75
Q 130.55 79.25 131.95 79.25
L 137.6 79.25
Q 138.9 79.25 138.9 78
L 138.9 77.65 137.6 77.65 137.6 77.75
Q 137.65 78.2 137.15 78.2
L 132.75 78.2
Q 132.25 78.2 132.25 77.75
L 132.25 77.6 137 77.6
Q 138.25 77.65 138.2 76.4
M 132.25 75.8
L 136.6 75.8 136.6 76.2
Q 136.6 76.55 136.25 76.55
L 132.25 76.55 132.25 75.8
M 127.2 83.35
Q 128.7 83.35 128.7 81.8
L 128.7 78.5 123.3 78.5 123.3 83.35 127.2 83.35
M 127.1 79.6
L 127.1 80.4 124.85 80.4 124.85 79.6 127.1 79.6
M 124.85 82.3
L 124.85 81.45 127.1 81.45 127.1 81.75
Q 127.1 82.3 126.6 82.3
L 124.85 82.3
M 128.9 74.7
L 127 74.7
Q 126.4 75.45 124.85 75.65
L 124.85 74.5 123.3 74.5 123.3 76.65
Q 123.2 78.15 124.6 78.05
L 127.6 78.05
Q 129 78.05 128.95 76.7
L 128.95 76.25 127.65 76.25 127.65 76.45
Q 127.65 77 127.1 76.95
L 125.45 76.95
Q 124.9 76.95 124.85 76.5 128 76.4 128.9 74.7
M 120.85 75.65
L 120.05 75.65 120.05 76.75 120.85 76.75 120.85 78.7
Q 120.7 78.7 120.4 78.7 120.15 78.75 119.95 78.75
L 119.95 80.15
Q 120.1 80.15 120.35 80.1 120.7 80 120.85 79.95
L 120.85 82
Q 120.85 82.45 120.4 82.45
L 120.2 82.45 120.2 83.45 121 83.45
Q 122.4 83.45 122.4 82.15
L 122.4 79.5
Q 122.5 79.45 122.7 79.35 122.95 79.25 123.05 79.2
L 123.05 78.1
Q 122.65 78.2 122.4 78.35
L 122.4 76.75 123.05 76.75 123.05 75.65 122.4 75.65 122.4 74.55 120.85 74.55 120.85 75.65
M 113.7 81.95
L 113.7 80.6
Q 113.6 80.65 113.4 80.75 112.8 81.15 112.45 81.25
L 112.45 77.3 110 77.3 110 78.45 110.7 78.45 110.7 83.45
Q 112.3 82.9 113.7 81.95
M 112.8 76.6
Q 112.55 75.45 112.05 74.6
L 110.55 74.6
Q 111 75.7 111.2 76.6
L 112.8 76.6
M 119.1 77.25
L 116.95 77.25 116.95 74.5 115.15 74.5 115.15 77.25 113.05 77.25 113.05 78.4 115.15 78.4 115.15 83.5 116.95 83.5 116.95 78.4 119.1 78.4 119.1 77.25
M 108.65 79.3
L 108.65 78.2 103 78.2 103 79.35 106.85 79.35
Q 106.2 80.45 105.8 80.85 105.3 80.35 104.8 79.7
L 103.05 79.7
Q 103.7 80.95 104.6 81.75 104.05 82.1 102.6 82.55
L 102.6 83.55
Q 104.6 83.05 105.8 82.55 107 83.1 109 83.5
L 109 82.55
Q 107.7 82.1 107 81.75 108.05 80.85 108.65 79.3
M 109.05 76.75
L 108.45 76.75
Q 108 76.8 108 76.4
L 108 74.8 103.55 74.8 103.55 76.1
Q 103.65 76.95 102.7 77.2
L 102.7 78.05
Q 105.25 77.9 105.15 76.2
L 105.15 75.85 106.5 75.85 106.5 76.6
Q 106.4 77.9 107.65 77.8
L 109.05 77.8 109.05 76.75
M 100.2 74.6
Q 100.7 75.6 100.85 76.55
L 102.45 76.55
Q 102.2 75.5 101.7 74.6
L 100.2 74.6
M 99.95 78.3
L 100.65 78.3 100.65 83.25
Q 102.45 82.6 103.25 81.9
L 103.25 80.65
Q 102.95 80.85 102.5 81.05 102.35 81.1 102.25 81.15
L 102.25 77.2 99.95 77.2 99.95 78.3
M 96.6 75.7
L 96.6 74.45 95.05 74.45 95.05 75.7 94.4 75.7 94.4 76.75 95.05 76.75
Q 95.05 80.45 94.35 81.75 94.05 80.5 93.7 79.4
L 92.45 79.4
Q 92.5 79.55 92.6 79.85 92.8 80.75 92.9 81.15 92.25 81.2 91.4 81.2 92.25 80.15 92.65 78.45
L 94.35 78.45 94.35 77.35 89.95 77.35 89.95 78.45 91 78.45
Q 90.8 79.8 90 81.2
L 90 82.45
Q 91.85 82.45 93.1 82.25 93.1 82.45 93.15 82.55
L 94.15 82.55 94.15 83.55
Q 95.6 82.3 96 81 96.55 79.65 96.55 76.75
L 97.3 76.75 97.3 81.9
Q 97.3 82.3 96.9 82.3
L 96.35 82.3 96.35 83.35 97.45 83.35
Q 98.9 83.35 98.9 81.9
L 98.9 75.7 96.6 75.7
M 94.05 76.1
L 94.05 75 90.4 75 90.4 76.1 94.05 76.1
M 88.8 76
L 88.8 74.8 80.2 74.8 80.2 76 81.45 76 80.9 81.1 86.05 81.1 86 82.1 79.95 82.1 79.95 83.2 89.05 83.2 89.05 82.1 87.7 82.1 88 76.85 83.05 76.85 83.15 76 88.8 76
M 86.25 78
L 86.15 79.95 82.7 79.95 82.95 78 86.25 78
M 138.1 67.6
L 138.1 62.75 135.1 62.75 135.1 67.6
Q 135.15 68.6 134.25 68.55
L 133.55 68.55 133.55 70.3 135.5 70.3
Q 138.25 70.45 138.1 67.6
M 129.05 67.35
L 129.05 69.85
Q 132.3 69.15 134.75 67.55
L 134.75 65.45
Q 131.95 66.75 129.05 67.35
M 143.95 70.2
L 143.95 67.55
Q 141.55 66.05 138.55 65.45
L 138.55 67.6
Q 141.15 68.4 143.95 70.2
M 143.3 58.95
L 143.3 57.2 137.9 57.2
Q 137.9 57.05 138 56.85 138 56.65 138 56.6
L 143.9 56.6 143.9 54.75 138.05 54.75 138.05 54.05 134.8 54.05 134.8 54.75 129.1 54.75 129.1 56.6 134.75 56.6
Q 134.75 56.65 134.75 56.85 134.65 57.05 134.65 57.2
L 129.7 57.2 129.7 58.95 134.2 58.95
Q 134.2 59.05 134.05 59.25 133.95 59.55 133.9 59.65
L 128.55 59.65 128.55 61.45 132.2 61.45
Q 130.9 62.55 128.4 63.4
L 128.4 65.25
Q 129 65 129.95 64.65 130.8 64.4 131.25 64.25 131.45 64.8 131.95 65.45
L 134.55 65.45
Q 133.75 64.15 133.7 63.1 134.95 62.35 135.95 61.45
L 137.55 61.45
Q 138.55 62.55 139.6 63.25 139.4 64.3 138.7 65.45
L 141.35 65.45
Q 141.4 65.35 141.5 65.15 141.85 64.75 141.9 64.45 143.05 64.85 144.5 65.25
L 144.5 63.4
Q 142.15 62.6 140.85 61.45
L 144.5 61.45 144.5 59.65 137.2 59.65
Q 137.4 59.25 137.5 58.95
L 143.3 58.95
M 120.05 55.15
L 120.05 61.9
Q 120 64.25 121.95 64.15
L 124.25 64.15 124.25 67.5
Q 124.35 68.45 123.55 68.4
L 122.15 68.4 122.15 70.15 124.55 70.15
Q 126.6 70.2 126.5 67.7
L 126.5 62.25 122.8 62.25
Q 122.1 62.35 122.1 61.45
L 122.1 57.5
Q 122.45 58.6 122.5 59.75
L 124.2 59.75
Q 124.175390625 60.2375 123.65 60.15
L 123 60.15 123 61.9 124.35 61.9
Q 126.3 62 126.25 59.9
L 126.25 55.15 124 55.15
Q 124.15 54.75 124.2 54.1
L 121.75 54.1
Q 121.75 54.35 121.65 54.6 121.65 54.95 121.6 55.15
L 120.05 55.15
M 119.85 65.1
L 119.85 66.9 124 66.9 124 65.1 119.85 65.1
M 110.75 64.8
Q 110.85 67.35 110.15 68.6
L 110.15 70.5
Q 112.65 68.75 112.6 65.1
L 113.25 65.1 113.25 67.9
Q 113.3 68.45 112.65 68.45
L 112.4 68.45 112.4 70.15 113.3 70.15
Q 115.05 70.2 115 68.3
L 115 54.8 110.75 54.8 110.75 64.8
M 113.25 56.65
L 113.25 59.05 112.65 59.05 112.65 56.65 113.25 56.65
M 112.65 60.8
L 113.25 60.8 113.25 63.35 112.65 63.35 112.65 60.8
M 119.5 54.8
L 115.5 54.8 115.5 64.8
Q 115.55 67.5 115.15 68.4
L 115.15 70.45
Q 117.4 68.6 117.15 65.1
L 117.8 65.1 117.8 67.95
Q 117.8 68.55 117.3 68.55
L 117 68.55 117 70.2 117.8 70.2
Q 119.55 70.3 119.5 68.4
L 119.5 54.8
M 117.8 58.95
L 117.15 58.95 117.15 56.65 117.8 56.65 117.8 58.95
M 117.15 60.8
L 117.8 60.8 117.8 63.35 117.15 63.35 117.15 60.8
M 97.95 60.5
L 95.1 60.5
Q 94.75 64.4 92.65 66.65
L 92.65 68.6
Q 97.5 66.4 97.95 60.5
M 108.4 66.65
Q 106.25 64.4 105.9 60.5
L 103.05 60.5
Q 103.5 66.4 108.4 68.6
L 108.4 66.65
M 102.25 67.35
L 102.25 58.55 99.1 58.55 99.1 67.4
Q 99.1 68.25 98.3 68.25
L 97.35 68.25 97.35 70.15 99.6 70.15
Q 102.35 70.2 102.25 67.35
M 105.2 57.35
L 105.2 59.65 108.15 59.65 108.15 55.3 98.25 55.3
Q 98.3 55.1 98.45 54.7 98.55 54.4 98.6 54.2
L 95.45 54.2
Q 94.65 57.05 92.55 58.05
L 92.55 59.8
Q 95.85 59.1 97.15 57.35
L 105.2 57.35
M 75.55 65.6
Q 74.9 67.75 74.65 70
L 77.35 70
Q 77.45 68.65 78.05 65.6
L 75.55 65.6
M 82.2 70
Q 82 67.4 81.6 65.6
L 79.05 65.6
Q 79.5 68.05 79.55 70
L 82.2 70
M 85.6 65.6
L 83 65.6
Q 83.65 68.45 83.7 70
L 86.45 70
Q 86.1 67.25 85.6 65.6
M 89.45 65.6
L 86.95 65.6
Q 87.5 67.85 87.7 70
L 90.4 70
Q 90.15 67.75 89.45 65.6
M 84.2 58.2
L 84.35 58.2
Q 85.05 62.7 90.6 64.6
L 90.6 62.6
Q 88 60.85 87.35 58.2
L 90.45 58.2 90.45 56.15 84.2 56.15 84.2 54.1 80.9 54.1 80.9 56.15 74.65 56.15 74.65 58.2 77.65 58.2
Q 77 60.85 74.4 62.6
L 74.4 64.6
Q 79.95 62.7 80.65 58.2
L 80.9 58.2 80.9 64.8 84.2 64.8 84.2 58.2 Z"/>
</g>
</defs>

<g transform="matrix( 1, 0, 0, 1, 0,0) ">
<use xlink:href="#Layer2_0_FILL"/>
</g>

<g transform="matrix( 1, 0, 0, 1, 0,0) ">
<use xlink:href="#Layer1_0_FILL"/>
</g>
</svg>
