
<svg xmlns="http://www.w3.org/2000/svg" version="1.1" xmlns:xlink="http://www.w3.org/1999/xlink" preserveAspectRatio="none" x="0px" y="0px" width="264px" height="46px" viewBox="0 0 264 46">
<defs>
<g id="Layer1_0_FILL">
<path fill="#A12C2C" stroke="none" d="
M 49.85 45.85
L 49.85 45.8 30.85 37.15 30.7 37.15 30.7 13.7 0.7 13.7 16.8 29.75 0.7 45.85 49.85 45.85
M 247.2 29.75
L 263.3 13.7 233.25 13.7 233.25 37.05 233.2 37.1 233.2 37.15 233.35 37.15 214.25 45.85 263.3 45.85 247.2 29.75 Z"/>

<path fill="#911616" stroke="none" d="
M 49.85 45.8
L 49.95 37.15 30.85 37.15 49.85 45.8
M 214.15 37.15
L 214.25 45.65 214.25 45.85 233.35 37.15 233.2 37.15 214.15 37.15 Z"/>

<path fill="#B84F4F" stroke="none" d="
M 233.2 37.15
L 233.2 37.1 233.2 0 30.7 0 30.7 13.7 30.7 37.15 30.85 37.15 49.95 37.15 214.15 37.15 233.2 37.15 Z"/>

<path fill="#CCCCCC" stroke="none" d="
M 214.25 45.85
L 214.25 45.65 214.15 45.7 214.15 45.85 214.25 45.85 Z"/>
</g>

<g id="Layer0_0_FILL">
<path fill="#B84F4E" stroke="none" d="
M 95.8 11
L 100.15 11 100.15 10.95 95.75 10.95 98.5 25.25 98.6 25.25 95.8 11
M 101.6 20.85
L 101.65 21.3 106.1 11.85 101.6 20.85
M 106.5 11
L 110.85 11 103.25 25.25 103.3 25.25 111.35 10.95 106.55 10.95 106.5 11
M 114.85 23.15
Q 114.4814453125 23.15 114.15 23.05
L 113.8 25.3 112.7 25.3
Q 113.597265625 25.5 114.75 25.5 116.5701171875 25.5 117.85 24.95 117.3275390625 24.575390625 117 23.9 116.6650390625 23.2298828125 116.55 22.4 115.8734375 23.15 114.85 23.15
M 114.85 19.15
L 114.5 21.1 116.45 21.1
Q 116.5005859375 20.5716796875 116.6 20 116.678125 19.5578125 116.75 19.15
L 114.85 19.15
M 118.5 16.05
Q 118.86875 15.68125 119.25 15.4 118.0162109375 14.65 115.75 14.65 114.517578125 14.65 113.55 14.9
L 115.6 14.9 115.2 17
Q 115.4375 16.95 115.65 16.95 116.35 16.95 116.8 17.4 117.077734375 17.622265625 117.2 17.95 117.697265625 16.825 118.5 16.05
M 109.1 20.75
Q 109.1 22.58671875 110.2 23.85
L 111.55 15.85
Q 111.4658203125 15.9619140625 111.35 16.05 110.3 16.9 109.7 18.1 109.1 19.35 109.1 20.75
M 136.9 25.25
L 139.3 25.25 139.65 23.55
Q 138.8619140625 24.419140625 138 24.85 137.51640625 25.091796875 136.9 25.25
M 135.75 22.95
Q 135.866015625 22.9419921875 135.95 22.9 136.3 22.7 136.7 22.25
L 139.85 22.55 140.15 21.1 136.15 21.1 135.75 22.95
M 133.65 21.1
L 133.2 21.1
Q 133.1599609375 21.859765625 133.35 22.3
L 133.65 21.1
M 138.1 14.9
Q 138.8376953125 15.060546875 139.35 15.35 140.5 16.05 140.9 17.3 140.927734375 17.3798828125 140.95 17.45
L 141.5 14.9 138.1 14.9
M 127.7 22.9
Q 127.419140625 22.9 127.15 22.8
L 126.75 25.3 124.75 25.3
Q 125.320703125 25.5 126.05 25.5 127 25.5 127.7 25.2 128.35 24.95 129.2 24.15
L 129.25 24.2 129.05 25.25 131.95 25.25
Q 131.59296875 25.12578125 131.3 24.95 130.25 24.35 129.75 23.1 129.4587890625 22.437890625 129.4 21.65 128.8 22.9 127.7 22.9
M 134.35 17.65
Q 134.3068359375 17.734375 134.25 17.8 133.8 18.25 133.55 19.2
L 134.05 19.2 134.35 17.65
M 137.05 17.55
Q 137.002734375 17.4974609375 136.95 17.45
L 136.55 19.2 137.35 19.2
Q 137.45 18.05 137.05 17.55
M 123.4 23.75
Q 123.2748046875 23.8818359375 123.15 24 123.2318359375 24.126953125 123.3 24.25
L 123.4 23.75
M 124.4 15.9
L 124.45 15.95 124.45 15.9 124.4 15.9
M 120.9 21.1
Q 121.15 19.6 121.15 19 121.15 18.6650390625 121.1 18.35 120.6330078125 18.91484375 120.45 20.15 120.347265625 20.6841796875 120.35 21.1
L 120.9 21.1
M 123.55 18.25
Q 123.375 17.9873046875 123.1 17.85 122.45 19.34921875 122.45 21.2 122.45 21.81171875 122.55 22.35 122.7546875 22.2291015625 122.95 22.05 123.5 21.45 123.75 20.1 123.95 18.85 123.55 18.25
M 135.8 10.95
L 131.85 10.95 130.7 16.25
Q 129.9123046875 15.104296875 128.55 14.75
L 128.1 17.35
Q 128.2771484375 17.3 128.45 17.3 129.05 17.3 129.5 17.75 129.81796875 18.06796875 129.9 18.6 130.477734375 17.2046875 131.65 16.2 133.0376953125 15.010546875 135 14.75
L 135.8 10.95
M 147.3 17.95
Q 147.2271484375 18.0228515625 147.15 18.1 146.45 18.75 146.25 20.15 146 21.5 146.45 22.2 146.85 22.85 147.65 22.85 147.894140625 22.85 148.1 22.8 148.063671875 22.8 148 22.8 147.3 22.8 146.8 22.25 146.3 21.65 146.3 20.8 146.3 19.6 146.95 18.45 147.105078125 18.165625 147.3 17.95
M 145.45 15.5
Q 144 16.3 143.2 17.75 142.962890625 18.2240234375 142.8 18.7 143.37734375 17.2689453125 144.6 16.25 146.4 14.7 149.05 14.7 152.05 14.7 153.3 16.5 154.25 17.95 153.9 20.1 153.5 22.5 151.7 24 150.258203125 25.2416015625 148.25 25.5 150.0736328125 25.4015625 151.4 24.65 152.85 23.75 153.55 22.25 154.3 20.8 154.3 19.35 154.3 17.45 153.05 16.05 151.75 14.65 148.95 14.65 146.95 14.65 145.45 15.5
M 141.8 13.65
L 142.35 10.95 138.35 10.95 137.8 13.65 141.8 13.65 Z"/>

<path fill="#FFFFFF" stroke="none" d="
M 106.5 11
L 106.1 11.85 101.65 21.3 101.6 20.85 100.3 11 100.15 11 95.8 11 98.6 25.25 98.6 25.3 103.25 25.3 103.25 25.25 110.85 11 106.5 11 106.5 11
M 113.55 14.9
L 111.75 14.9 111.55 15.85 110.2 23.85 109.95 25.3 112.7 25.3 113.8 25.3 114.15 23.05 114.5 21.1 114.85 19.15 115.2 17 115.6 14.9 113.55 14.9
M 129.5 20.15
Q 129.3587890625 20.949609375 129.4 21.65 129.4587890625 22.437890625 129.75 23.1 130.25 24.35 131.3 24.95 131.59296875 25.12578125 131.95 25.25 132.8861328125 25.55 134.3 25.55 135.80546875 25.55 136.9 25.25 137.51640625 25.091796875 138 24.85 138.8619140625 24.419140625 139.65 23.55 140.0623046875 23.1392578125 140.45 22.6
L 139.85 22.55 136.7 22.25
Q 136.3 22.7 135.95 22.9 135.866015625 22.9419921875 135.75 22.95 135.273046875 23.2 134.8 23.2 133.9 23.2 133.5 22.55 133.4298828125 22.4498046875 133.35 22.3 133.1599609375 21.859765625 133.2 21.1
L 133.65 21.1 136.15 21.1 140.15 21.1 140.9 21.1 141 20.65
Q 141.328515625 18.726171875 140.95 17.45 140.927734375 17.3798828125 140.9 17.3 140.5 16.05 139.35 15.35 138.8376953125 15.060546875 138.1 14.9 137.2421875 14.7 136.05 14.7 135.5015625 14.7 135 14.75 133.0376953125 15.010546875 131.65 16.2 130.477734375 17.2046875 129.9 18.6 129.63203125 19.3412109375 129.5 20.15
M 136.95 17.45
Q 137.002734375 17.4974609375 137.05 17.55 137.45 18.05 137.35 19.2
L 136.55 19.2 134.05 19.2 133.55 19.2
Q 133.8 18.25 134.25 17.8 134.3068359375 17.734375 134.35 17.65 134.9787109375 17.05 135.8 17.05 136.5158203125 17.05 136.95 17.45
M 129.2 11
L 125.3 11 124.45 15.9 124.45 15.95 124.4 15.9
Q 123.98046875 15.2916015625 123.3 15 122.6 14.7 121.7 14.7 120.3552734375 14.7 119.25 15.4 118.86875 15.68125 118.5 16.05 117.697265625 16.825 117.2 17.95 116.9560546875 18.5076171875 116.75 19.15 116.678125 19.5578125 116.6 20 116.5005859375 20.5716796875 116.45 21.1 116.4412109375 21.8072265625 116.55 22.4 116.6650390625 23.2298828125 117 23.9 117.3275390625 24.575390625 117.85 24.95 118.6390625 25.55 119.85 25.55 120.85 25.55 121.8 25.1 122.364453125 24.79609375 123.15 24 123.2748046875 23.8818359375 123.4 23.75
L 123.3 24.25 123.15 25.3 124.75 25.3 126.75 25.3 127.15 22.8 128.1 17.35 128.55 14.75 129.2 11
M 122.4 17.65
Q 122.8216796875 17.65 123.1 17.85 123.375 17.9873046875 123.55 18.25 123.95 18.85 123.75 20.1 123.5 21.45 122.95 22.05 122.7546875 22.2291015625 122.55 22.35 122.105859375 22.6 121.6 22.6 120.9 22.6 120.55 22.05 120.34375 21.696484375 120.35 21.1 120.347265625 20.6841796875 120.45 20.15 120.6330078125 18.91484375 121.1 18.35 121.153125 18.296875 121.2 18.25 121.75 17.65 122.4 17.65
M 142.8 18.7
Q 142.5283203125 19.3802734375 142.4 20.15 141.95 22.7 143.5 24.25 144.75 25.55 147.2 25.55 147.7373046875 25.55 148.25 25.5 150.258203125 25.2416015625 151.7 24 153.5 22.5 153.9 20.1 154.25 17.95 153.3 16.5 152.05 14.7 149.05 14.7 146.4 14.7 144.6 16.25 143.37734375 17.2689453125 142.8 18.7
M 148.65 17.45
Q 149.45 17.45 149.85 18.1 150.25 18.75 150.05 20.1 149.8 21.55 149.2 22.2 148.7009765625 22.66328125 148.1 22.8 147.894140625 22.85 147.65 22.85 146.85 22.85 146.45 22.2 146 21.5 146.25 20.15 146.45 18.75 147.15 18.1 147.2271484375 18.0228515625 147.3 17.95 147.90078125 17.45 148.65 17.45
M 116.25 11
L 112.4 11 111.95 13.7 115.8 13.7 116.25 11
M 54.55 25.25
L 58.55 25.25 60.75 14.9 56.75 14.9 54.55 25.25
M 53.6 21.75
L 46.5 21.75 48.8 10.95 44.35 10.95 41.3 25.25 52.85 25.25 53.6 21.75
M 61.05 13.65
L 61.6 10.95 57.6 10.95 57.05 13.65 61.05 13.65
M 68.2 10.95
L 64.3 10.95 61.25 25.25 65.1 25.25 65.7 22.6 67.8 20.9 68.9 25.25 73.35 25.25 70.75 18.45 75.2 14.9 70.65 14.9 66.65 18.4 66.6 18.35 68.2 10.95
M 86 22.6
L 82.15 22.25
Q 81.45 23.15 80.3 23.15 78.6 23.15 78.45 21.1
L 86.35 21.1
Q 86.6 19.6 86.6 19 86.6 17.15 85.35 15.9 84.1 14.65 81.2 14.65 79.85 14.65 78.85 14.95 77.85 15.25 76.8 16.05 75.75 16.9 75.15 18.1 74.55 19.35 74.55 20.75 74.55 22.75 75.85 24.1 77.15 25.5 80.2 25.5 82.3 25.5 83.7 24.8 85.1 24.15 86 22.6
M 81.1 16.95
Q 81.8 16.95 82.25 17.4 82.75 17.8 82.75 18.55 82.75 18.95 82.65 19.15
L 78.8 19.15
Q 79.15 18.05 79.75 17.55 80.35 16.95 81.1 16.95
M 171.85 10.7
Q 169.25 10.7 167.25 11.8 165.2 12.95 164.1 14.95 163 16.95 163 19.4 163 22.3 164.75 23.9 166.45 25.5 169.45 25.5 172.7 25.5 176.05 23.85
L 177.5 17.1 170.8 17.1 170.15 20.1 172.85 20.1 172.55 21.65
Q 171.5 22.35 170.15 22.35
L 170.1 22.35
Q 168.9 22.35 168.15 21.55 167.35 20.7 167.35 19.55 167.35 17.45 168.4 15.65 169.45 13.85 171.25 13.85 173.05 13.85 173.65 15.55
L 178 15.05
Q 176.9 10.7 171.85 10.7
M 190.85 17.65
Q 190.85 16.2 189.8 15.45 188.7 14.65 185.65 14.65 182.95 14.65 181.7 15.45 180.4 16.25 180.05 17.75
L 183.75 18.15
Q 184.05 17.45 184.5 17.2 184.9 17 185.6 17 186.25 17 186.65 17.2 187.05 17.45 187.05 17.85 187.05 18.1 186.9 18.55 186.35 18.75 184.6 18.9 182.7 19.1 181.55 19.35 180.45 19.65 179.65 20.35 178.9 21.05 178.9 22.45 178.9 23.65 179.75 24.6 180.6 25.5 182.6 25.5 184.5 25.5 186.05 24.05 186.05 24.65 186.2 25.25
L 190.1 25.25
Q 189.8 24.5 189.8 23.8 189.8 23 190.3 20.85 190.85 18.65 190.85 17.65
M 186.5 20.6
Q 186.25 22.1 185.5 22.7 184.75 23.35 184 23.35 183.45 23.35 183.1 23.05 182.8 22.75 182.8 22.25 182.8 21.75 183.25 21.4 183.75 21.05 186.5 20.6
M 210.25 15.4
Q 209.55 14.65 208.15 14.65 207.1 14.65 206.15 15.05 205.25 15.4 204.1 16.4 203.85 15.55 203.1 15.1 202.3 14.65 201.35 14.65 199.2 14.65 197.5 16.4
L 197.45 16.35 197.8 14.9 194.1 14.9 191.85 25.25 195.85 25.25 196.95 20.3
Q 197.25 18.8 197.95 18.2 198.6 17.55 199.2 17.55 200 17.55 200 18.35 200 18.5 199.95 18.85 199.9 19.15 199.55 20.9
L 198.6 25.25 202.6 25.25 203.6 20.65
Q 203.95 19.05 204.5 18.3 205.1 17.55 206 17.55 206.75 17.55 206.75 18.35 206.75 18.5 206.7 18.8 206.65 19.15 206.3 20.85
L 205.35 25.25 209.35 25.25 210.8 18.45
Q 210.95 17.85 210.95 17.2 210.95 16.15 210.25 15.4
M 224.25 21.1
Q 224.5 19.6 224.5 19 224.5 17.15 223.25 15.9 222 14.65 219.1 14.65 217.75 14.65 216.75 14.95 215.75 15.25 214.7 16.05 213.65 16.9 213.05 18.1 212.45 19.35 212.45 20.75 212.45 22.75 213.75 24.1 215.05 25.5 218.1 25.5 220.2 25.5 221.6 24.8 223 24.15 223.9 22.6
L 220.05 22.25
Q 219.35 23.15 218.2 23.15 216.5 23.15 216.35 21.1
L 224.25 21.1
M 220.15 17.4
Q 220.65 17.8 220.65 18.55 220.65 18.95 220.55 19.15
L 216.7 19.15
Q 217.05 18.05 217.65 17.55 218.25 16.95 219 16.95 219.7 16.95 220.15 17.4 Z"/>
</g>
</defs>

<g transform="matrix( 1, 0, 0, 1, 0,0) ">
<use xlink:href="#Layer1_0_FILL"/>
</g>

<g transform="matrix( 1, 0, 0, 1, 0,0) ">
<use xlink:href="#Layer0_0_FILL"/>
</g>
</svg>
