
<svg xmlns="http://www.w3.org/2000/svg" version="1.1" xmlns:xlink="http://www.w3.org/1999/xlink" preserveAspectRatio="none" x="0px" y="0px" width="225px" height="96px" viewBox="0 0 225 96">
<defs>
<g id="Layer0_0_FILL">
<path fill="#FFFFFF" stroke="none" d="
M 77.5 17
L 77.5 4.5 67.5 4.5 67.5 17 77.5 17
M 70 14.5
L 70 7 75 7 75 14.5 70 14.5
M 62.5 7
L 62.5 9.5 55 9.5 55 17 65 17 65 14.5 57.5 14.5 57.5 12 65 12 65 4.5 55 4.5 55 7 62.5 7
M 109.9 37.25
L 112.4 37.25 112.4 34.75 109.9 34.75 109.9 37.25
M 112.4 27.25
L 112.4 24.75 109.9 24.75 109.9 27.25 112.4 27.25
M 112.4 32.25
L 112.4 29.75 109.9 29.75 109.9 32.25 112.4 32.25
M 82.5 17
L 85 17 85 4.5 80 4.5 80 7 82.5 7 82.5 17
M 95 7
L 95 9.5 87.5 9.5 87.5 17 97.5 17 97.5 14.5 90 14.5 90 12 97.5 12 97.5 4.5 87.5 4.5 87.5 7 95 7
M 115 9.5
L 107.5 9.5 107.5 12 115 12 115 9.5
M 135 12
L 135 4.5 125 4.5 125 7 132.5 7 132.5 9.5 125 9.5 125 17 135 17 135 14.5 127.5 14.5 127.5 12 135 12
M 147.5 17
L 147.5 4.5 137.5 4.5 137.5 17 147.5 17
M 145 7
L 145 14.5 140 14.5 140 7 145 7
M 150 4.5
L 150 7 152.5 7 152.5 17 155 17 155 4.5 150 4.5
M 129.8 70.85
Q 129.4 70.95 129.15 71.25 128.9 71.5 128.8 71.85 128.65 72.15 128.45 73.25
L 127.55 73.25 127.2 74.95 128.1 74.95 127.1 79.45 129.5 79.45 130.45 74.95 131.6 74.95 131.95 73.25 130.85 73.25
Q 131 72.5 131.15 72.35 131.3 72.25 131.55 72.25 131.95 72.25 132.4 72.4
L 132.8 71
Q 131.6 70.7 130.75 70.7 130.2 70.7 129.8 70.85
M 158.75 73.25
L 156.35 73.25 155 79.45 157.4 79.45 158.75 73.25
M 158.9 72.5
L 159.25 70.85 156.85 70.85 156.5 72.5 158.9 72.5
M 151.2 70.85
L 148.8 70.85 146.95 79.45 149.35 79.45 149.95 76.75
Q 150.15 75.8 150.55 75.35 150.95 74.85 151.45 74.85 151.95 74.85 151.95 75.35 151.95 75.5 151.7 76.55
L 151.1 79.45 153.5 79.45 154.2 76.05
Q 154.45 74.95 154.45 74.6 154.45 73.95 154 73.55 153.6 73.1 152.75 73.1 151.4 73.1 150.55 74
L 150.55 73.95 151.2 70.85
M 142.15 73.1
Q 142.7 72.65 143.3 72.65 143.75 72.65 144.1 73 144.5 73.3 144.5 73.9
L 144.5 73.95 146.95 73.7
Q 146.8 72.35 145.85 71.55 144.9 70.7 143.3 70.7 141.7 70.7 140.6 71.45 139.5 72.15 138.9 73.45 138.3 74.7 138.3 75.95 138.3 77.6 139.3 78.6 140.3 79.6 142.15 79.6 143.9 79.6 145.05 78.7 146.15 77.8 146.55 76.45
L 144.05 76.05
Q 143.7 76.85 143.3 77.25 142.9 77.65 142.3 77.65 141.6 77.65 141.25 77.2 140.9 76.8 140.9 76.15 140.9 75.3 141.25 74.4 141.6 73.55 142.15 73.1
M 171.25 73.1
Q 169.65 73.1 168.85 73.55 168.1 74.05 167.9 74.95
L 170.1 75.2
Q 170.3 74.75 170.55 74.65 170.8 74.5 171.2 74.5 171.6 74.5 171.85 74.65 172.1 74.75 172.1 75 172.1 75.15 172 75.45 171.65 75.55 170.65 75.65 169.45 75.75 168.8 75.9 168.1 76.1 167.65 76.5 167.2 76.95 167.2 77.75 167.2 78.5 167.7 79.05 168.25 79.6 169.4 79.6 170.55 79.6 171.5 78.75 171.5 79.1 171.6 79.45
L 173.9 79.45
Q 173.75 79 173.75 78.6 173.75 78.1 174.05 76.8 174.4 75.5 174.4 74.9 174.4 74 173.75 73.55 173.1 73.1 171.25 73.1
M 169.8 77.15
Q 170.1 76.95 171.75 76.65 171.6 77.55 171.15 77.95 170.7 78.3 170.25 78.3 169.95 78.3 169.75 78.15 169.55 77.95 169.55 77.65 169.55 77.35 169.8 77.15
M 166 73.55
Q 165.6 73.1 164.75 73.1 163.35 73.1 162.35 74.2
L 162.3 74.15 162.55 73.25 160.3 73.25 158.95 79.45 161.35 79.45 161.95 76.75
Q 162.15 75.8 162.55 75.35 162.95 74.85 163.45 74.85 163.95 74.85 163.95 75.35 163.95 75.5 163.7 76.55
L 163.1 79.45 165.5 79.45 166.2 76.05
Q 166.45 74.95 166.45 74.6 166.45 73.95 166 73.55
M 76.15 73.25
L 73.65 73.25 71.6 77.15 71.55 77.15 71.2 73.25 68.95 73.25 70.15 79.45 72.25 79.45 76.15 73.25
M 63.45 73.55
Q 63.05 73.1 62.2 73.1 60.8 73.1 59.8 74.2
L 59.75 74.15 60 73.25 57.75 73.25 56.4 79.45 58.8 79.45 59.4 76.75
Q 59.6 75.8 60 75.35 60.4 74.85 60.9 74.85 61.4 74.85 61.4 75.35 61.4 75.5 61.15 76.55
L 60.55 79.45 62.95 79.45 63.65 76.05
Q 63.9 74.95 63.9 74.6 63.9 73.95 63.45 73.55
M 68.7 70.85
L 66.3 70.85 65.95 72.5 68.35 72.5 68.7 70.85
M 68.2 73.25
L 65.8 73.25 64.45 79.45 66.85 79.45 68.2 73.25
M 82.8 76.95
Q 82.95 76.05 82.95 75.7 82.95 74.6 82.2 73.85 81.45 73.1 79.7 73.1 78.9 73.1 78.3 73.25 77.7 73.45 77.05 73.95 76.45 74.45 76.1 75.15 75.7 75.9 75.7 76.75 75.7 77.95 76.5 78.75 77.25 79.6 79.1 79.6 80.4 79.6 81.2 79.2 82.05 78.8 82.6 77.85
L 80.3 77.65
Q 79.85 78.2 79.2 78.2 78.15 78.2 78.05 76.95
L 82.8 76.95
M 80.65 75.45
Q 80.65 75.65 80.6 75.8
L 78.3 75.8
Q 78.45 75.15 78.85 74.8 79.2 74.5 79.65 74.5 80.05 74.5 80.35 74.75 80.65 74.95 80.65 75.45
M 100.45 70.85
L 98.05 70.85 97.7 72.5 100.1 72.5 100.45 70.85
M 99.95 73.25
L 97.55 73.25 96.2 79.45 98.6 79.45 99.95 73.25
M 94.9 73.45
Q 94.25 73.1 93 73.1 91.9 73.1 91.15 73.4 90.4 73.7 90.05 74.2 89.65 74.75 89.65 75.3 89.65 75.95 90.15 76.4 90.65 76.85 92.05 77.05 92.65 77.15 92.85 77.25 93.1 77.35 93.1 77.65 93.1 77.95 92.8 78.1 92.5 78.3 92.1 78.3 91.25 78.3 91.1 77.55
L 88.75 77.75
Q 88.85 78.75 89.55 79.15 90.25 79.6 91.75 79.6 93.55 79.6 94.45 78.9 95.35 78.25 95.35 77.3 95.35 76.6 94.9 76.15 94.4 75.75 93.05 75.55 92.2 75.45 92 75.3 91.8 75.15 91.8 74.95 91.8 74.7 92 74.55 92.25 74.4 92.65 74.4 93.4 74.4 93.5 74.95
L 95.75 74.7
Q 95.6 73.85 94.9 73.45
M 89.4 73.3
Q 88.95 73.1 88.55 73.1 88.05 73.1 87.65 73.35 87.2 73.65 86.65 74.5
L 86.65 74.45 86.9 73.25 84.7 73.25 83.35 79.45 85.75 79.45 86.25 77.1
Q 86.45 76.05 86.9 75.55 87.35 75.05 88 75.05 88.25 75.05 88.5 75.1
L 89.4 73.3
M 119.8 71.5
Q 119.05 72 118.55 72.75 118.05 73.5 117.8 74.35 117.55 75.15 117.55 76.05 117.55 77.75 118.55 78.65 119.6 79.6 121.45 79.6 122.25 79.6 122.95 79.4 123.7 79.2 124.45 78.65 125.25 78.1 125.7 77.3 126.2 76.45 126.35 75.7 126.55 74.95 126.55 74.35 126.55 72.8 125.6 71.75 124.7 70.7 122.75 70.7 122 70.7 121.25 70.85 120.55 71 119.8 71.5
M 120.55 77.2
Q 120.15 76.75 120.15 76.1 120.15 75.5 120.4 74.6 120.7 73.75 121.2 73.2 121.75 72.65 122.45 72.65 123.1 72.65 123.55 73.1 123.95 73.5 123.95 74.35 123.95 74.7 123.7 75.6 123.45 76.5 122.9 77.05 122.4 77.65 121.6 77.65 120.9 77.65 120.55 77.2
M 108.4 73.25
L 106.05 73.25 107.25 79.45
Q 106.85 80.3 106.15 80.3 105.75 80.3 105.35 80.1
L 105.15 81.75
Q 106 81.95 106.9 81.95 107.7 81.95 108.2 81.6 108.75 81.25 109.35 80.25
L 113.25 73.25 110.85 73.25 108.75 77.55 108.7 77.55 108.4 73.25
M 105.5 73.25
L 104.25 73.25 104.75 70.95 102.1 72.25 101.85 73.25 101 73.25 100.65 74.95 101.5 74.95 101.05 77.05
Q 100.9 77.9 100.9 78.05 100.9 78.65 101.3 79.1 101.75 79.6 102.75 79.6 103.25 79.6 104.3 79.45
L 104.65 77.75
Q 104.1 77.85 103.95 77.85 103.35 77.85 103.35 77.45 103.35 77.3 103.4 77.15
L 103.9 74.95 105.15 74.95 105.5 73.25
M 56.6 70.85
L 53.9 70.85 52.95 75.55
Q 52.7 76.65 52.25 77.05 51.8 77.45 51.15 77.45 49.95 77.45 49.95 76.4 49.95 76.05 50 75.7
L 51.05 70.85 48.4 70.85 47.5 75
Q 47.35 75.75 47.35 76.55 47.35 77.2 47.55 77.75 47.75 78.3 48.2 78.75 48.65 79.15 49.3 79.4 50 79.6 51.1 79.6 53.05 79.6 54.05 78.75 55.1 77.85 55.45 76.05
L 56.6 70.85
M 128.95 62.75
L 131.35 62.75 132.7 56.55 130.3 56.55 128.95 62.75
M 125.25 56.55
L 124.4 56.55 124.05 58.25 124.9 58.25 124.45 60.35
Q 124.3 61.2 124.3 61.35 124.3 61.95 124.7 62.4 125.15 62.9 126.15 62.9 126.65 62.9 127.7 62.75
L 128.05 61.05
Q 127.5 61.15 127.35 61.15 126.75 61.15 126.75 60.75 126.75 60.6 126.8 60.45
L 127.3 58.25 128.55 58.25 128.9 56.55 127.65 56.55 128.15 54.25 125.5 55.55 125.25 56.55
M 132.85 55.8
L 133.2 54.15 130.8 54.15 130.45 55.8 132.85 55.8
M 135.1 56.9
Q 134.2 57.4 133.75 58.25 133.25 59.15 133.25 60.1 133.25 61.3 134.05 62.1 134.8 62.9 136.45 62.9 137.75 62.9 138.65 62.4 139.5 61.85 139.95 60.95 140.4 60.05 140.4 59.2 140.4 58.1 139.6 57.25 138.85 56.4 137.2 56.4 135.95 56.4 135.1 56.9
M 135.6 60.1
Q 135.6 59.35 135.95 58.7 136.35 58 137.1 58 137.45 58 137.75 58.25 138.05 58.5 138.05 59.1 138.05 59.9 137.65 60.6 137.25 61.3 136.6 61.3 136.2 61.3 135.9 60.95 135.6 60.6 135.6 60.1
M 144.5 56.55
L 142.25 56.55 140.9 62.75 143.3 62.75 143.9 60.05
Q 144.1 59.1 144.5 58.65 144.9 58.15 145.4 58.15 145.9 58.15 145.9 58.65 145.9 58.8 145.65 59.85
L 145.05 62.75 147.45 62.75 148.15 59.35
Q 148.4 58.25 148.4 57.9 148.4 57.25 147.95 56.85 147.55 56.4 146.7 56.4 145.3 56.4 144.3 57.5
L 144.25 57.45 144.5 56.55
M 92.15 61.8
L 92.2 61.8 91.95 62.75 94.2 62.75 95.55 56.55 93.15 56.55 92.55 59.25
Q 92.35 60.15 91.95 60.65 91.55 61.15 91.05 61.15 90.6 61.15 90.6 60.65
L 90.6 60.6
Q 90.6 60.45 90.6 60.35 90.6 60.25 90.75 59.55
L 91.4 56.55 89.05 56.55 88.3 59.85
Q 88.05 61 88.05 61.4 88.05 62 88.5 62.45 88.9 62.9 89.75 62.9 91.2 62.9 92.15 61.8
M 107.6 55.8
L 107.95 54.15 105.55 54.15 105.2 55.8 107.6 55.8
M 107.45 56.55
L 105.05 56.55 103.7 62.75 106.1 62.75 107.45 56.55
M 102.9 59.35
Q 103.15 58.25 103.15 57.9 103.15 57.25 102.7 56.85 102.3 56.4 101.45 56.4 100.05 56.4 99.05 57.5
L 99 57.45 99.25 56.55 97 56.55 95.65 62.75 98.05 62.75 98.65 60.05
Q 98.85 59.1 99.25 58.65 99.65 58.15 100.15 58.15 100.65 58.15 100.65 58.65 100.65 58.8 100.4 59.85
L 99.8 62.75 102.2 62.75 102.9 59.35
M 115.4 58.7
Q 115.25 57.55 114.45 56.95 113.6 56.4 112.15 56.4 110.2 56.4 109.1 57.5 108.05 58.65 108.05 60.2 108.05 62.9 111.3 62.9 114.25 62.9 115.05 60.45
L 112.85 60.25
Q 112.35 61.3 111.4 61.3 111.05 61.3 110.7 61 110.35 60.75 110.35 60.25 110.35 59.4 110.85 58.7 111.3 58 112.15 58 113.1 58 113.25 58.8
L 115.4 58.7
M 116.35 59.8
Q 115.9 60.25 115.9 61.05 115.9 61.8 116.4 62.35 116.95 62.9 118.1 62.9 119.25 62.9 120.2 62.05 120.2 62.4 120.3 62.75
L 122.6 62.75
Q 122.45 62.3 122.45 61.9 122.45 61.4 122.75 60.1 123.1 58.8 123.1 58.2 123.1 57.3 122.45 56.85 121.8 56.4 119.95 56.4 118.35 56.4 117.55 56.85 116.8 57.35 116.6 58.25
L 118.8 58.5
Q 119 58.05 119.25 57.95 119.5 57.8 119.9 57.8 120.3 57.8 120.55 57.95 120.8 58.05 120.8 58.3 120.8 58.45 120.7 58.75 120.35 58.85 119.35 58.95 118.15 59.05 117.5 59.2 116.8 59.4 116.35 59.8
M 118.45 61.45
Q 118.25 61.25 118.25 60.95 118.25 60.65 118.5 60.45 118.8 60.25 120.45 59.95 120.3 60.85 119.85 61.25 119.4 61.6 118.95 61.6 118.65 61.6 118.45 61.45
M 84.25 58.15
Q 84.7 58.15 84.7 58.6 84.7 58.7 84.7 58.9 84.65 59.1 84.45 60.1
L 83.85 62.75 86.25 62.75 87.15 58.65
Q 87.2 58.3 87.2 57.95 87.2 57.3 86.8 56.85 86.35 56.4 85.55 56.4 84.9 56.4 84.35 56.6 83.8 56.85 83.1 57.45 82.95 56.95 82.5 56.65 82.05 56.4 81.45 56.4 80.2 56.4 79.15 57.45
L 79.15 57.4 79.35 56.55 77.1 56.55 75.75 62.75 78.15 62.75 78.8 59.75
Q 79 58.9 79.4 58.5 79.8 58.15 80.2 58.15 80.65 58.15 80.65 58.6 80.65 58.7 80.65 58.9 80.6 59.1 80.4 60.15
L 79.8 62.75 82.2 62.75 82.8 60
Q 83 59 83.35 58.6 83.7 58.15 84.25 58.15
M 74.8 56.85
Q 74.35 56.4 73.55 56.4 72.9 56.4 72.35 56.6 71.8 56.85 71.1 57.45 70.95 56.95 70.5 56.65 70.05 56.4 69.45 56.4 68.2 56.4 67.15 57.45
L 67.15 57.4 67.35 56.55 65.1 56.55 63.75 62.75 66.15 62.75 66.8 59.75
Q 67 58.9 67.4 58.5 67.8 58.15 68.2 58.15 68.65 58.15 68.65 58.6 68.65 58.7 68.65 58.9 68.6 59.1 68.4 60.15
L 67.8 62.75 70.2 62.75 70.8 60
Q 71 59 71.35 58.6 71.7 58.15 72.25 58.15 72.7 58.15 72.7 58.6 72.7 58.7 72.7 58.9 72.65 59.1 72.45 60.1
L 71.85 62.75 74.25 62.75 75.15 58.65
Q 75.2 58.3 75.2 57.95 75.2 57.3 74.8 56.85
M 61.5 62.4
Q 62.35 61.85 62.8 60.95 63.25 60.05 63.25 59.2 63.25 58.1 62.45 57.25 61.7 56.4 60.05 56.4 58.8 56.4 57.95 56.9 57.05 57.4 56.6 58.25 56.1 59.15 56.1 60.1 56.1 61.3 56.9 62.1 57.65 62.9 59.3 62.9 60.6 62.9 61.5 62.4
M 58.8 58.7
Q 59.2 58 59.95 58 60.3 58 60.6 58.25 60.9 58.5 60.9 59.1 60.9 59.9 60.5 60.6 60.1 61.3 59.45 61.3 59.05 61.3 58.75 60.95 58.45 60.6 58.45 60.1 58.45 59.35 58.8 58.7
M 54.65 54.85
Q 53.7 54 52.1 54 50.5 54 49.4 54.75 48.3 55.45 47.7 56.75 47.1 58 47.1 59.25 47.1 60.9 48.1 61.9 49.1 62.9 50.95 62.9 52.7 62.9 53.85 62 54.95 61.1 55.35 59.75
L 52.85 59.35
Q 52.5 60.15 52.1 60.55 51.7 60.95 51.1 60.95 50.4 60.95 50.05 60.5 49.7 60.1 49.7 59.45 49.7 58.6 50.05 57.7 50.4 56.85 50.95 56.4 51.5 55.95 52.1 55.95 52.55 55.95 52.9 56.3 53.3 56.6 53.3 57.2
L 53.3 57.25 55.75 57
Q 55.6 55.65 54.65 54.85
M 165 4.5
L 165 12 160 12 160 4.5 157.5 4.5 157.5 14.5 165 14.5 165 17 167.5 17 167.5 4.5 165 4.5 Z"/>

<path fill="#911616" stroke="none" d="
M 51.15 95.3
L 51.25 86.65 32.15 86.65 51.15 95.3
M 171.2 86.65
L 171.3 95.35 190.4 86.65 190.25 86.65 171.2 86.65 Z"/>

<path fill="#A12C2C" stroke="none" d="
M 18.1 79.25
L 2 95.35 51.15 95.35 51.15 95.3 32.15 86.65 32 86.65 32 63.2 2 63.2 18.1 79.25
M 190.4 86.65
L 171.3 95.35 220.35 95.35 204.25 79.25 220.35 63.2 190.3 63.2 190.3 86.55 190.25 86.6 190.25 86.65 190.4 86.65 Z"/>

<path fill="#B84F4F" stroke="none" d="
M 171.2 86.65
L 190.25 86.65 190.25 86.6 190.25 49.5 32 49.5 32 63.2 32 86.65 32.15 86.65 51.25 86.65 171.2 86.65
M 52.1 54
Q 53.7 54 54.65 54.85 55.6 55.65 55.75 57
L 53.3 57.25 53.3 57.2
Q 53.3 56.6 52.9 56.3 52.55 55.95 52.1 55.95 51.5 55.95 50.95 56.4 50.4 56.85 50.05 57.7 49.7 58.6 49.7 59.45 49.7 60.1 50.05 60.5 50.4 60.95 51.1 60.95 51.7 60.95 52.1 60.55 52.5 60.15 52.85 59.35
L 55.35 59.75
Q 54.95 61.1 53.85 62 52.7 62.9 50.95 62.9 49.1 62.9 48.1 61.9 47.1 60.9 47.1 59.25 47.1 58 47.7 56.75 48.3 55.45 49.4 54.75 50.5 54 52.1 54
M 62.8 60.95
Q 62.35 61.85 61.5 62.4 60.6 62.9 59.3 62.9 57.65 62.9 56.9 62.1 56.1 61.3 56.1 60.1 56.1 59.15 56.6 58.25 57.05 57.4 57.95 56.9 58.8 56.4 60.05 56.4 61.7 56.4 62.45 57.25 63.25 58.1 63.25 59.2 63.25 60.05 62.8 60.95
M 73.55 56.4
Q 74.35 56.4 74.8 56.85 75.2 57.3 75.2 57.95 75.2 58.3 75.15 58.65
L 74.25 62.75 71.85 62.75 72.45 60.1
Q 72.65 59.1 72.7 58.9 72.7 58.7 72.7 58.6 72.7 58.15 72.25 58.15 71.7 58.15 71.35 58.6 71 59 70.8 60
L 70.2 62.75 67.8 62.75 68.4 60.15
Q 68.6 59.1 68.65 58.9 68.65 58.7 68.65 58.6 68.65 58.15 68.2 58.15 67.8 58.15 67.4 58.5 67 58.9 66.8 59.75
L 66.15 62.75 63.75 62.75 65.1 56.55 67.35 56.55 67.15 57.4 67.15 57.45
Q 68.2 56.4 69.45 56.4 70.05 56.4 70.5 56.65 70.95 56.95 71.1 57.45 71.8 56.85 72.35 56.6 72.9 56.4 73.55 56.4
M 84.7 58.6
Q 84.7 58.15 84.25 58.15 83.7 58.15 83.35 58.6 83 59 82.8 60
L 82.2 62.75 79.8 62.75 80.4 60.15
Q 80.6 59.1 80.65 58.9 80.65 58.7 80.65 58.6 80.65 58.15 80.2 58.15 79.8 58.15 79.4 58.5 79 58.9 78.8 59.75
L 78.15 62.75 75.75 62.75 77.1 56.55 79.35 56.55 79.15 57.4 79.15 57.45
Q 80.2 56.4 81.45 56.4 82.05 56.4 82.5 56.65 82.95 56.95 83.1 57.45 83.8 56.85 84.35 56.6 84.9 56.4 85.55 56.4 86.35 56.4 86.8 56.85 87.2 57.3 87.2 57.95 87.2 58.3 87.15 58.65
L 86.25 62.75 83.85 62.75 84.45 60.1
Q 84.65 59.1 84.7 58.9 84.7 58.7 84.7 58.6
M 115.9 61.05
Q 115.9 60.25 116.35 59.8 116.8 59.4 117.5 59.2 118.15 59.05 119.35 58.95 120.35 58.85 120.7 58.75 120.8 58.45 120.8 58.3 120.8 58.05 120.55 57.95 120.3 57.8 119.9 57.8 119.5 57.8 119.25 57.95 119 58.05 118.8 58.5
L 116.6 58.25
Q 116.8 57.35 117.55 56.85 118.35 56.4 119.95 56.4 121.8 56.4 122.45 56.85 123.1 57.3 123.1 58.2 123.1 58.8 122.75 60.1 122.45 61.4 122.45 61.9 122.45 62.3 122.6 62.75
L 120.3 62.75
Q 120.2 62.4 120.2 62.05 119.25 62.9 118.1 62.9 116.95 62.9 116.4 62.35 115.9 61.8 115.9 61.05
M 114.45 56.95
Q 115.25 57.55 115.4 58.7
L 113.25 58.8
Q 113.1 58 112.15 58 111.3 58 110.85 58.7 110.35 59.4 110.35 60.25 110.35 60.75 110.7 61 111.05 61.3 111.4 61.3 112.35 61.3 112.85 60.25
L 115.05 60.45
Q 114.25 62.9 111.3 62.9 108.05 62.9 108.05 60.2 108.05 58.65 109.1 57.5 110.2 56.4 112.15 56.4 113.6 56.4 114.45 56.95
M 103.15 57.9
Q 103.15 58.25 102.9 59.35
L 102.2 62.75 99.8 62.75 100.4 59.85
Q 100.65 58.8 100.65 58.65 100.65 58.15 100.15 58.15 99.65 58.15 99.25 58.65 98.85 59.1 98.65 60.05
L 98.05 62.75 95.65 62.75 97 56.55 99.25 56.55 99 57.45 99.05 57.5
Q 100.05 56.4 101.45 56.4 102.3 56.4 102.7 56.85 103.15 57.25 103.15 57.9
M 105.05 56.55
L 107.45 56.55 106.1 62.75 103.7 62.75 105.05 56.55
M 107.95 54.15
L 107.6 55.8 105.2 55.8 105.55 54.15 107.95 54.15
M 92.2 61.8
L 92.15 61.8
Q 91.2 62.9 89.75 62.9 88.9 62.9 88.5 62.45 88.05 62 88.05 61.4 88.05 61 88.3 59.85
L 89.05 56.55 91.4 56.55 90.75 59.55
Q 90.6 60.25 90.6 60.35 90.6 60.45 90.6 60.6
L 90.6 60.65
Q 90.6 61.15 91.05 61.15 91.55 61.15 91.95 60.65 92.35 60.15 92.55 59.25
L 93.15 56.55 95.55 56.55 94.2 62.75 91.95 62.75 92.2 61.8
M 142.25 56.55
L 144.5 56.55 144.25 57.45 144.3 57.5
Q 145.3 56.4 146.7 56.4 147.55 56.4 147.95 56.85 148.4 57.25 148.4 57.9 148.4 58.25 148.15 59.35
L 147.45 62.75 145.05 62.75 145.65 59.85
Q 145.9 58.8 145.9 58.65 145.9 58.15 145.4 58.15 144.9 58.15 144.5 58.65 144.1 59.1 143.9 60.05
L 143.3 62.75 140.9 62.75 142.25 56.55
M 133.75 58.25
Q 134.2 57.4 135.1 56.9 135.95 56.4 137.2 56.4 138.85 56.4 139.6 57.25 140.4 58.1 140.4 59.2 140.4 60.05 139.95 60.95 139.5 61.85 138.65 62.4 137.75 62.9 136.45 62.9 134.8 62.9 134.05 62.1 133.25 61.3 133.25 60.1 133.25 59.15 133.75 58.25
M 133.2 54.15
L 132.85 55.8 130.45 55.8 130.8 54.15 133.2 54.15
M 124.4 56.55
L 125.25 56.55 125.5 55.55 128.15 54.25 127.65 56.55 128.9 56.55 128.55 58.25 127.3 58.25 126.8 60.45
Q 126.75 60.6 126.75 60.75 126.75 61.15 127.35 61.15 127.5 61.15 128.05 61.05
L 127.7 62.75
Q 126.65 62.9 126.15 62.9 125.15 62.9 124.7 62.4 124.3 61.95 124.3 61.35 124.3 61.2 124.45 60.35
L 124.9 58.25 124.05 58.25 124.4 56.55
M 131.35 62.75
L 128.95 62.75 130.3 56.55 132.7 56.55 131.35 62.75
M 53.9 70.85
L 56.6 70.85 55.45 76.05
Q 55.1 77.85 54.05 78.75 53.05 79.6 51.1 79.6 50 79.6 49.3 79.4 48.65 79.15 48.2 78.75 47.75 78.3 47.55 77.75 47.35 77.2 47.35 76.55 47.35 75.75 47.5 75
L 48.4 70.85 51.05 70.85 50 75.7
Q 49.95 76.05 49.95 76.4 49.95 77.45 51.15 77.45 51.8 77.45 52.25 77.05 52.7 76.65 52.95 75.55
L 53.9 70.85
M 104.25 73.25
L 105.5 73.25 105.15 74.95 103.9 74.95 103.4 77.15
Q 103.35 77.3 103.35 77.45 103.35 77.85 103.95 77.85 104.1 77.85 104.65 77.75
L 104.3 79.45
Q 103.25 79.6 102.75 79.6 101.75 79.6 101.3 79.1 100.9 78.65 100.9 78.05 100.9 77.9 101.05 77.05
L 101.5 74.95 100.65 74.95 101 73.25 101.85 73.25 102.1 72.25 104.75 70.95 104.25 73.25
M 106.05 73.25
L 108.4 73.25 108.7 77.55 108.75 77.55 110.85 73.25 113.25 73.25 109.35 80.25
Q 108.75 81.25 108.2 81.6 107.7 81.95 106.9 81.95 106 81.95 105.15 81.75
L 105.35 80.1
Q 105.75 80.3 106.15 80.3 106.85 80.3 107.25 79.45
L 106.05 73.25
M 118.55 72.75
Q 119.05 72 119.8 71.5 120.55 71 121.25 70.85 122 70.7 122.75 70.7 124.7 70.7 125.6 71.75 126.55 72.8 126.55 74.35 126.55 74.95 126.35 75.7 126.2 76.45 125.7 77.3 125.25 78.1 124.45 78.65 123.7 79.2 122.95 79.4 122.25 79.6 121.45 79.6 119.6 79.6 118.55 78.65 117.55 77.75 117.55 76.05 117.55 75.15 117.8 74.35 118.05 73.5 118.55 72.75
M 88.55 73.1
Q 88.95 73.1 89.4 73.3
L 88.5 75.1
Q 88.25 75.05 88 75.05 87.35 75.05 86.9 75.55 86.45 76.05 86.25 77.1
L 85.75 79.45 83.35 79.45 84.7 73.25 86.9 73.25 86.65 74.45 86.65 74.5
Q 87.2 73.65 87.65 73.35 88.05 73.1 88.55 73.1
M 93 73.1
Q 94.25 73.1 94.9 73.45 95.6 73.85 95.75 74.7
L 93.5 74.95
Q 93.4 74.4 92.65 74.4 92.25 74.4 92 74.55 91.8 74.7 91.8 74.95 91.8 75.15 92 75.3 92.2 75.45 93.05 75.55 94.4 75.75 94.9 76.15 95.35 76.6 95.35 77.3 95.35 78.25 94.45 78.9 93.55 79.6 91.75 79.6 90.25 79.6 89.55 79.15 88.85 78.75 88.75 77.75
L 91.1 77.55
Q 91.25 78.3 92.1 78.3 92.5 78.3 92.8 78.1 93.1 77.95 93.1 77.65 93.1 77.35 92.85 77.25 92.65 77.15 92.05 77.05 90.65 76.85 90.15 76.4 89.65 75.95 89.65 75.3 89.65 74.75 90.05 74.2 90.4 73.7 91.15 73.4 91.9 73.1 93 73.1
M 97.55 73.25
L 99.95 73.25 98.6 79.45 96.2 79.45 97.55 73.25
M 98.05 70.85
L 100.45 70.85 100.1 72.5 97.7 72.5 98.05 70.85
M 82.95 75.7
Q 82.95 76.05 82.8 76.95
L 78.05 76.95
Q 78.15 78.2 79.2 78.2 79.85 78.2 80.3 77.65
L 82.6 77.85
Q 82.05 78.8 81.2 79.2 80.4 79.6 79.1 79.6 77.25 79.6 76.5 78.75 75.7 77.95 75.7 76.75 75.7 75.9 76.1 75.15 76.45 74.45 77.05 73.95 77.7 73.45 78.3 73.25 78.9 73.1 79.7 73.1 81.45 73.1 82.2 73.85 82.95 74.6 82.95 75.7
M 65.8 73.25
L 68.2 73.25 66.85 79.45 64.45 79.45 65.8 73.25
M 66.3 70.85
L 68.7 70.85 68.35 72.5 65.95 72.5 66.3 70.85
M 62.2 73.1
Q 63.05 73.1 63.45 73.55 63.9 73.95 63.9 74.6 63.9 74.95 63.65 76.05
L 62.95 79.45 60.55 79.45 61.15 76.55
Q 61.4 75.5 61.4 75.35 61.4 74.85 60.9 74.85 60.4 74.85 60 75.35 59.6 75.8 59.4 76.75
L 58.8 79.45 56.4 79.45 57.75 73.25 60 73.25 59.75 74.15 59.8 74.2
Q 60.8 73.1 62.2 73.1
M 73.65 73.25
L 76.15 73.25 72.25 79.45 70.15 79.45 68.95 73.25 71.2 73.25 71.55 77.15 71.6 77.15 73.65 73.25
M 164.75 73.1
Q 165.6 73.1 166 73.55 166.45 73.95 166.45 74.6 166.45 74.95 166.2 76.05
L 165.5 79.45 163.1 79.45 163.7 76.55
Q 163.95 75.5 163.95 75.35 163.95 74.85 163.45 74.85 162.95 74.85 162.55 75.35 162.15 75.8 161.95 76.75
L 161.35 79.45 158.95 79.45 160.3 73.25 162.55 73.25 162.3 74.15 162.35 74.2
Q 163.35 73.1 164.75 73.1
M 168.85 73.55
Q 169.65 73.1 171.25 73.1 173.1 73.1 173.75 73.55 174.4 74 174.4 74.9 174.4 75.5 174.05 76.8 173.75 78.1 173.75 78.6 173.75 79 173.9 79.45
L 171.6 79.45
Q 171.5 79.1 171.5 78.75 170.55 79.6 169.4 79.6 168.25 79.6 167.7 79.05 167.2 78.5 167.2 77.75 167.2 76.95 167.65 76.5 168.1 76.1 168.8 75.9 169.45 75.75 170.65 75.65 171.65 75.55 172 75.45 172.1 75.15 172.1 75 172.1 74.75 171.85 74.65 171.6 74.5 171.2 74.5 170.8 74.5 170.55 74.65 170.3 74.75 170.1 75.2
L 167.9 74.95
Q 168.1 74.05 168.85 73.55
M 143.3 72.65
Q 142.7 72.65 142.15 73.1 141.6 73.55 141.25 74.4 140.9 75.3 140.9 76.15 140.9 76.8 141.25 77.2 141.6 77.65 142.3 77.65 142.9 77.65 143.3 77.25 143.7 76.85 144.05 76.05
L 146.55 76.45
Q 146.15 77.8 145.05 78.7 143.9 79.6 142.15 79.6 140.3 79.6 139.3 78.6 138.3 77.6 138.3 75.95 138.3 74.7 138.9 73.45 139.5 72.15 140.6 71.45 141.7 70.7 143.3 70.7 144.9 70.7 145.85 71.55 146.8 72.35 146.95 73.7
L 144.5 73.95 144.5 73.9
Q 144.5 73.3 144.1 73 143.75 72.65 143.3 72.65
M 148.8 70.85
L 151.2 70.85 150.55 73.95 150.55 74
Q 151.4 73.1 152.75 73.1 153.6 73.1 154 73.55 154.45 73.95 154.45 74.6 154.45 74.95 154.2 76.05
L 153.5 79.45 151.1 79.45 151.7 76.55
Q 151.95 75.5 151.95 75.35 151.95 74.85 151.45 74.85 150.95 74.85 150.55 75.35 150.15 75.8 149.95 76.75
L 149.35 79.45 146.95 79.45 148.8 70.85
M 159.25 70.85
L 158.9 72.5 156.5 72.5 156.85 70.85 159.25 70.85
M 156.35 73.25
L 158.75 73.25 157.4 79.45 155 79.45 156.35 73.25
M 129.15 71.25
Q 129.4 70.95 129.8 70.85 130.2 70.7 130.75 70.7 131.6 70.7 132.8 71
L 132.4 72.4
Q 131.95 72.25 131.55 72.25 131.3 72.25 131.15 72.35 131 72.5 130.85 73.25
L 131.95 73.25 131.6 74.95 130.45 74.95 129.5 79.45 127.1 79.45 128.1 74.95 127.2 74.95 127.55 73.25 128.45 73.25
Q 128.65 72.15 128.8 71.85 128.9 71.5 129.15 71.25
M 171.75 76.65
Q 170.1 76.95 169.8 77.15 169.55 77.35 169.55 77.65 169.55 77.95 169.75 78.15 169.95 78.3 170.25 78.3 170.7 78.3 171.15 77.95 171.6 77.55 171.75 76.65
M 80.6 75.8
Q 80.65 75.65 80.65 75.45 80.65 74.95 80.35 74.75 80.05 74.5 79.65 74.5 79.2 74.5 78.85 74.8 78.45 75.15 78.3 75.8
L 80.6 75.8
M 120.15 76.1
Q 120.15 76.75 120.55 77.2 120.9 77.65 121.6 77.65 122.4 77.65 122.9 77.05 123.45 76.5 123.7 75.6 123.95 74.7 123.95 74.35 123.95 73.5 123.55 73.1 123.1 72.65 122.45 72.65 121.75 72.65 121.2 73.2 120.7 73.75 120.4 74.6 120.15 75.5 120.15 76.1
M 135.95 58.7
Q 135.6 59.35 135.6 60.1 135.6 60.6 135.9 60.95 136.2 61.3 136.6 61.3 137.25 61.3 137.65 60.6 138.05 59.9 138.05 59.1 138.05 58.5 137.75 58.25 137.45 58 137.1 58 136.35 58 135.95 58.7
M 118.25 60.95
Q 118.25 61.25 118.45 61.45 118.65 61.6 118.95 61.6 119.4 61.6 119.85 61.25 120.3 60.85 120.45 59.95 118.8 60.25 118.5 60.45 118.25 60.65 118.25 60.95
M 59.95 58
Q 59.2 58 58.8 58.7 58.45 59.35 58.45 60.1 58.45 60.6 58.75 60.95 59.05 61.3 59.45 61.3 60.1 61.3 60.5 60.6 60.9 59.9 60.9 59.1 60.9 58.5 60.6 58.25 60.3 58 59.95 58 Z"/>
</g>
</defs>

<g transform="matrix( 1, 0, 0, 1, 0,0) ">
<use xlink:href="#Layer0_0_FILL"/>
</g>
</svg>
