
<svg xmlns="http://www.w3.org/2000/svg" version="1.1" xmlns:xlink="http://www.w3.org/1999/xlink" preserveAspectRatio="none" x="0px" y="0px" width="263px" height="46px" viewBox="0 0 263 46">
<defs>
<g id="Layer0_0_FILL">
<path fill="#A12C2C" stroke="none" d="
M 49.15 45.85
L 49.15 45.8 30.15 37.15 30 37.15 30 13.7 0 13.7 16.1 29.75 0 45.85 49.15 45.85
M 262.6 45.85
L 246.5 29.75 262.6 13.7 232.55 13.7 232.55 37.05 232.5 37.1 232.5 37.15 232.65 37.15 213.55 45.85 262.6 45.85 Z"/>

<path fill="#911616" stroke="none" d="
M 49.15 45.8
L 49.25 37.15 30.15 37.15 49.15 45.8
M 213.55 45.65
L 213.55 45.85 232.65 37.15 232.5 37.15 213.45 37.15 213.55 45.65 Z"/>

<path fill="#B84F4F" stroke="none" d="
M 232.5 37.15
L 232.5 37.1 232.5 0 30 0 30 13.7 30 37.15 30.15 37.15 49.25 37.15 213.45 37.15 232.5 37.15
M 49.8 21.75
L 56.9 21.75 56.15 25.25 44.6 25.25 47.65 10.95 52.1 10.95 49.8 21.75
M 60.9 10.95
L 64.9 10.95 64.35 13.65 60.35 13.65 60.9 10.95
M 60.05 14.9
L 64.05 14.9 61.85 25.25 57.85 25.25 60.05 14.9
M 73.15 14.9
L 77.3 14.9 70.8 25.25 67.3 25.25 65.3 14.9 69.05 14.9 69.65 21.45 69.7 21.45 73.15 14.9
M 82.25 23.15
Q 83.4 23.15 84.1 22.25
L 87.95 22.6
Q 87.05 24.15 85.65 24.8 84.25 25.5 82.15 25.5 79.1 25.5 77.8 24.1 76.5 22.75 76.5 20.75 76.5 19.35 77.1 18.1 77.7 16.9 78.75 16.05 79.8 15.25 80.8 14.95 81.8 14.65 83.15 14.65 86.05 14.65 87.3 15.9 88.55 17.15 88.55 19 88.55 19.6 88.3 21.1
L 80.4 21.1
Q 80.55 23.15 82.25 23.15
M 100.8 25.25
L 96.3 25.25 99.4 10.95 103.85 10.95 100.8 25.25
M 105.9 14.9
L 109.65 14.9 109.3 16.45 109.35 16.5
Q 111 14.65 113.35 14.65 114.75 14.65 115.45 15.4 116.15 16.1 116.15 17.15 116.15 17.75 115.75 19.6
L 114.55 25.25 110.6 25.25 111.6 20.45
Q 112 18.65 112 18.4 112 17.55 111.2 17.55 110.3 17.55 109.65 18.4 109 19.2 108.7 20.75
L 107.7 25.25 103.7 25.25 105.9 14.9
M 135.6 11.05
Q 136.35 11.15 137.05 11.6 137.8 12 138.2 12.75 138.6 13.45 138.6 14.3 138.6 15.4 137.95 16.35 137.3 17.3 135.9 17.75 138.2 18.45 138.2 20.8 138.2 22.5 136.8 23.85 135.4 25.25 132.75 25.25
L 123.95 25.25 127 10.95 133.6 10.95
Q 134.8 10.95 135.6 11.05
M 146.3 14
L 145.8 16.3 152.8 16.3 152.15 19.2 145.15 19.2 144.55 22 152.45 22 151.75 25.25 139.45 25.25 142.5 10.95 154.2 10.95 153.55 14 146.3 14
M 157.2 10.95
L 161.65 10.95 158.6 25.25 154.1 25.25 157.2 10.95
M 167.8 21.05
Q 167.95 20.55 168.15 19.65
L 170 10.95 174.45 10.95 172.5 20.15
Q 172.45 20.25 172.4 20.45 171.75 23.45 170.4 24.45 169.05 25.5 166.45 25.5 165.4 25.5 164.5 25.4 163.65 25.3 162.8 24.95 161.9 24.55 161.3 23.7 160.75 22.85 160.75 21.45 160.75 21.05 160.85 20.45
L 165 19.95 165 20.15
Q 165 20.4 165 20.7
L 165 21
Q 165 22.15 166.3 22.15 166.9 22.15 167.25 21.85 167.6 21.55 167.8 21.05
M 204.7 11.8
Q 206.7 10.7 209.3 10.7 214.35 10.7 215.45 15.05
L 211.1 15.55
Q 210.5 13.85 208.7 13.85 206.9 13.85 205.85 15.65 204.8 17.45 204.8 19.55 204.8 20.7 205.6 21.55 206.35 22.35 207.55 22.35
L 207.6 22.35
Q 208.95 22.35 210 21.65
L 210.3 20.1 207.6 20.1 208.25 17.1 214.95 17.1 213.5 23.85
Q 210.15 25.5 206.9 25.5 203.9 25.5 202.2 23.9 200.45 22.3 200.45 19.4 200.45 16.95 201.55 14.95 202.65 12.95 204.7 11.8
M 185.95 10.95
L 190.05 10.95 193.6 19.25 193.65 19.25 195.45 10.95 199.6 10.95 196.5 25.25 192.35 25.25 188.85 16.95 188.8 16.95 187 25.25 182.85 25.25 185.95 10.95
M 179.75 25.25
L 175.25 25.25 178.35 10.95 182.8 10.95 179.75 25.25
M 130.8 13.85
L 130.25 16.55 131.75 16.55
Q 132.7 16.55 133.25 16.4 133.8 16.25 134.1 15.85 134.45 15.4 134.45 14.95 134.45 14.4 134.1 14.15 133.75 13.85 132.7 13.85
L 130.8 13.85
M 129.65 19.25
L 129.05 22.15 131.4 22.15
Q 133.9 22.15 133.9 20.5 133.9 19.95 133.55 19.6 133.2 19.25 132.05 19.25
L 129.65 19.25
M 83.05 16.95
Q 82.3 16.95 81.7 17.55 81.1 18.05 80.75 19.15
L 84.6 19.15
Q 84.7 18.95 84.7 18.55 84.7 17.8 84.2 17.4 83.75 16.95 83.05 16.95 Z"/>

<path fill="#FFFFFF" stroke="none" d="
M 175.25 25.25
L 179.75 25.25 182.8 10.95 178.35 10.95 175.25 25.25
M 190.05 10.95
L 185.95 10.95 182.85 25.25 187 25.25 188.8 16.95 188.85 16.95 192.35 25.25 196.5 25.25 199.6 10.95 195.45 10.95 193.65 19.25 193.6 19.25 190.05 10.95
M 209.3 10.7
Q 206.7 10.7 204.7 11.8 202.65 12.95 201.55 14.95 200.45 16.95 200.45 19.4 200.45 22.3 202.2 23.9 203.9 25.5 206.9 25.5 210.15 25.5 213.5 23.85
L 214.95 17.1 208.25 17.1 207.6 20.1 210.3 20.1 210 21.65
Q 208.95 22.35 207.6 22.35
L 207.55 22.35
Q 206.35 22.35 205.6 21.55 204.8 20.7 204.8 19.55 204.8 17.45 205.85 15.65 206.9 13.85 208.7 13.85 210.5 13.85 211.1 15.55
L 215.45 15.05
Q 214.35 10.7 209.3 10.7
M 168.15 19.65
Q 167.95 20.55 167.8 21.05 167.6 21.55 167.25 21.85 166.9 22.15 166.3 22.15 165 22.15 165 21
L 165 20.7
Q 165 20.4 165 20.15
L 165 19.95 160.85 20.45
Q 160.75 21.05 160.75 21.45 160.75 22.85 161.3 23.7 161.9 24.55 162.8 24.95 163.65 25.3 164.5 25.4 165.4 25.5 166.45 25.5 169.05 25.5 170.4 24.45 171.75 23.45 172.4 20.45 172.45 20.25 172.5 20.15
L 174.45 10.95 170 10.95 168.15 19.65
M 161.65 10.95
L 157.2 10.95 154.1 25.25 158.6 25.25 161.65 10.95
M 145.8 16.3
L 146.3 14 153.55 14 154.2 10.95 142.5 10.95 139.45 25.25 151.75 25.25 152.45 22 144.55 22 145.15 19.2 152.15 19.2 152.8 16.3 145.8 16.3
M 137.05 11.6
Q 136.35 11.15 135.6 11.05 134.8 10.95 133.6 10.95
L 127 10.95 123.95 25.25 132.75 25.25
Q 135.4 25.25 136.8 23.85 138.2 22.5 138.2 20.8 138.2 18.45 135.9 17.75 137.3 17.3 137.95 16.35 138.6 15.4 138.6 14.3 138.6 13.45 138.2 12.75 137.8 12 137.05 11.6
M 129.05 22.15
L 129.65 19.25 132.05 19.25
Q 133.2 19.25 133.55 19.6 133.9 19.95 133.9 20.5 133.9 22.15 131.4 22.15
L 129.05 22.15
M 130.25 16.55
L 130.8 13.85 132.7 13.85
Q 133.75 13.85 134.1 14.15 134.45 14.4 134.45 14.95 134.45 15.4 134.1 15.85 133.8 16.25 133.25 16.4 132.7 16.55 131.75 16.55
L 130.25 16.55
M 109.65 14.9
L 105.9 14.9 103.7 25.25 107.7 25.25 108.7 20.75
Q 109 19.2 109.65 18.4 110.3 17.55 111.2 17.55 112 17.55 112 18.4 112 18.65 111.6 20.45
L 110.6 25.25 114.55 25.25 115.75 19.6
Q 116.15 17.75 116.15 17.15 116.15 16.1 115.45 15.4 114.75 14.65 113.35 14.65 111 14.65 109.35 16.5
L 109.3 16.45 109.65 14.9
M 96.3 25.25
L 100.8 25.25 103.85 10.95 99.4 10.95 96.3 25.25
M 84.1 22.25
Q 83.4 23.15 82.25 23.15 80.55 23.15 80.4 21.1
L 88.3 21.1
Q 88.55 19.6 88.55 19 88.55 17.15 87.3 15.9 86.05 14.65 83.15 14.65 81.8 14.65 80.8 14.95 79.8 15.25 78.75 16.05 77.7 16.9 77.1 18.1 76.5 19.35 76.5 20.75 76.5 22.75 77.8 24.1 79.1 25.5 82.15 25.5 84.25 25.5 85.65 24.8 87.05 24.15 87.95 22.6
L 84.1 22.25
M 81.7 17.55
Q 82.3 16.95 83.05 16.95 83.75 16.95 84.2 17.4 84.7 17.8 84.7 18.55 84.7 18.95 84.6 19.15
L 80.75 19.15
Q 81.1 18.05 81.7 17.55
M 77.3 14.9
L 73.15 14.9 69.7 21.45 69.65 21.45 69.05 14.9 65.3 14.9 67.3 25.25 70.8 25.25 77.3 14.9
M 64.05 14.9
L 60.05 14.9 57.85 25.25 61.85 25.25 64.05 14.9
M 64.9 10.95
L 60.9 10.95 60.35 13.65 64.35 13.65 64.9 10.95
M 56.9 21.75
L 49.8 21.75 52.1 10.95 47.65 10.95 44.6 25.25 56.15 25.25 56.9 21.75 Z"/>

<path fill="#CCCCCC" stroke="none" d="
M 213.45 45.85
L 213.55 45.85 213.55 45.65 213.45 45.7 213.45 45.85 Z"/>
</g>
</defs>

<g transform="matrix( 1, 0, 0, 1, 0,0) ">
<use xlink:href="#Layer0_0_FILL"/>
</g>
</svg>
