
<svg xmlns="http://www.w3.org/2000/svg" version="1.1" xmlns:xlink="http://www.w3.org/1999/xlink" preserveAspectRatio="none" x="0px" y="0px" width="88px" height="49px" viewBox="0 0 88 49">
<defs>
<g id="___8_0_Layer0_0_FILL">
<path fill="#8A773C" stroke="none" d="
M 6.75 7.35
Q 6.75 7.15 6.8 7.05 6.1 6.8 5.6 6.3 4.95 6.5 4.95 7 4.95 7.75 6.8 8.35 7.7 8.65 8.55 8.8 6.75 8.15 6.75 7.35
M 8.95 7.35
Q 9.05 7.35 9.15 7.35 9.1 7.25 9.1 7.15 9.1 7.1 9.1 7.05 8.6 6.9 7.85 6.65 7.7 6.6 7.6 6.55 7.35 6.5 7.2 6.45 6.85 6.65 6.8 7.05 6.9 7.05 7.05 7.1 7.55 7.25 8.95 7.35
M 6.1 4.95
L 6.05 4.95
Q 5.85 4.9 5.7 4.9
L 5.7 4.95 5.8 5.35
Q 5.4 5.55 4.55 5.9 3.3 6.4 2.85 6.4 1.05 6.4 0.05 5.75 0.15 6.05 0.55 6.25 0.85 6.4 1.4 6.65 2.55 7.1 3.4 6.9 4.25 6.65 4.55 6.55 4.85 6.4 5.15 6.35 5.35 6.25 5.55 6.25 5.75 6.2 6 6.15 6.15 6.15 6.3 6.15
L 6.4 6.15
Q 7 5.9 7 5.4 7 5.15 7 5.1 6.95 5.05 6.85 4.95 6.7 4.95 6.35 4.95 6.2 4.95 6.1 4.95
M 14.95 7.55
Q 14.7 7.5 14.5 7.45 14 7.7 13.35 7.75 14.75 8.65 16.55 8.85 16.4 8.75 16.25 8.65 16.2 8.6 14.95 7.55
M 14.5 7.45
Q 14.6 7.4 14.7 7.35 14.9 7.15 15.05 7 15.15 6.85 15.25 6.7 15.05 6.6 14.95 6.55 14.5 7.05 13.9 7.3 14.15 7.35 14.5 7.45 Z"/>

<path fill="#CCCCCC" stroke="none" d="
M 3.55 4.55
Q 3.2 4.55 2.95 4.2 2.75 4.45 2.45 4.6
L 2.55 4.7
Q 2.95 5.1 3.55 5.1 4.15 5.1 4.55 4.7 4.6 4.65 4.65 4.65 4.45 4.45 4.25 4.3 3.95 4.55 3.55 4.55
M 1.4 3.7
Q 1.55 3.45 1.6 3.25 1.178515625 3.25 0.9 3.3 0.7802734375 3.3677734375 0.7 3.5 0.709375 3.6189453125 0.7 3.75
L 0.8 4.35
Q 1.165234375 4.162890625 1.65 3.95 1.45 3.9 1.35 3.85 1.35 3.75 1.4 3.7 Z"/>

<path fill="#333333" stroke="none" d="
M 4.95 3.9
Q 4.95 3.8 4.95 3.7 4.4 3.25 3.5 3.25 3.3 3.85 2.95 4.2 3.2 4.55 3.55 4.55 3.95 4.55 4.25 4.3 4.45 4.45 4.65 4.65 4.7 4.55 4.75 4.45 4.8 4.35 4.85 4.25 4.9 4.1 4.95 3.9
M 2.15 3.7
Q 2.15 3.65 2.15 3.6 2.15 3.5 2.2 3.45 2 3.3 1.8 3.3 1.7 3.25 1.6 3.25 1.55 3.45 1.4 3.7 1.35 3.75 1.35 3.85 1.45 3.9 1.65 3.95 1.8 3.85 2 3.8 2.05 3.75 2.15 3.7 Z"/>

<path fill="#E0CC8E" stroke="none" d="
M 2.15 3.7
Q 2.05 3.75 2 3.8 1.8 3.85 1.65 3.95 1.165234375 4.162890625 0.8 4.35
L 0.8 4.4
Q 0.7751953125 4.3865234375 0.75 4.35
L 0.75 4.4
Q 0.05 5.05 0 5.5 0.95 4.4 2.2 4.15 2.2 4.05 2.2 4 2.15 3.95 2.15 3.9 2.15 3.8 2.15 3.7
M 3.55 2.3
Q 3.05 2.3 2.7 2.6 2.6 2.65 2.55 2.7 2.25 3 2.2 3.4
L 2.2 3.45
Q 2.15 3.5 2.15 3.6 2.55 3.25 3.4 3.25 3.45 3.25 3.5 3.25 4.4 3.25 4.95 3.7 4.95 3.1 4.55 2.7 4.15 2.3 3.55 2.3 Z"/>

<path fill="#FFFFFF" stroke="none" d="
M 2.15 3.6
Q 2.15 3.65 2.15 3.7 2.15 3.8 2.15 3.9 2.15 3.95 2.2 4 2.2 4.05 2.2 4.15 2.25 4.35 2.4 4.5 2.4 4.55 2.45 4.6 2.75 4.45 2.95 4.2 3.3 3.85 3.5 3.25 3.45 3.25 3.4 3.25 2.55 3.25 2.15 3.6 Z"/>

<path fill="#BDA866" stroke="none" d="
M 2.55 2.7
Q 2.6 2.65 2.7 2.6 2.35 2.35 1.95 2.35 1.45 2.35 1.05 2.7 0.8060546875 2.9845703125 0.7 3.5 0.7802734375 3.3677734375 0.9 3.3 1.178515625 3.25 1.6 3.25 1.7 3.25 1.8 3.3 2 3.3 2.2 3.45
L 2.2 3.4
Q 2.25 3 2.55 2.7
M 5.7 4.95
L 5.7 4.9
Q 5.55 4.85 5.45 4.8 5.4 4.8 5.35 4.8 5.15 4.7 4.75 4.45 4.7 4.55 4.65 4.65 4.6 4.65 4.55 4.7 4.15 5.1 3.55 5.1 2.95 5.1 2.55 4.7
L 2.45 4.6
Q 2.4 4.55 2.4 4.5 2.25 4.35 2.2 4.15 0.95 4.4 0 5.5 0 5.65 0.05 5.75 1.05 6.4 2.85 6.4 3.3 6.4 4.55 5.9 5.4 5.55 5.8 5.35
L 5.7 4.95
M 12.55 9.65
Q 11.9 9.35 11.2 8.95 9.45 7.95 9.15 7.35 9.05 7.35 8.95 7.35 7.55 7.25 7.05 7.1 6.9 7.05 6.8 7.05 6.75 7.15 6.75 7.35 6.75 8.15 8.55 8.8 8.95 8.9 9.45 9.05 11.2 9.5 12.55 9.65
M 14.95 7.55
Q 15 7.55 15.05 7.55 15.6 7.65 16.8 7.75 16.95 7.75 17.1 7.8 17.3 7.8 17.5 7.8 17.3 7.75 17.1 7.65 16.95 7.6 16.8 7.55 16.4 7.35 15.95 7.1 15.55 6.9 15.25 6.7 15.15 6.85 15.05 7 14.9 7.15 14.7 7.35 14.6 7.4 14.5 7.45 14.7 7.5 14.95 7.55 Z"/>

<path fill="#4A280F" stroke="none" d="
M 7.7 4.45
Q 7.85 4.7 8.05 4.95 8.7 5.85 9.5 6.35 9.55 6.35 9.65 6.45 9.6 6.35 9.55 6.25 9.35 5.8 8.9 4.75 8.65 4.45 8.45 4.2
L 7.4 4.05
Q 7.55 4.2 7.7 4.45
M 13.25 5.15
Q 13.55 4.8 13.85 4.65
L 13.15 4.7 13 4.7
Q 11.9869140625 5.915234375 11.4 6.6 11.3 6.7 11.2 6.8 11.95 6.75 12.85 5.65 13.05 5.35 13.25 5.15
M 14.95 3.65
Q 14.8 3.65 14.7 3.65 13.75 3.65 13.05 4.4
L 15 4.35 15 4.3
Q 15 4 14.95 3.65
M 11.55 5.85
Q 11.2 6 10.85 6 10.2 6 9.65 5.55
L 9.95 6.3 10.95 6.5 11.55 5.85 Z"/>

<path fill="#5B3317" stroke="none" d="
M 8.85 4.6
Q 8.8 4.55 8.8 4.5 8.728125 4.3564453125 8.65 4.25
L 8.45 4.2
Q 8.65 4.45 8.9 4.75 8.85 4.65 8.85 4.6
M 10.1 2.25
Q 10 2.1 9.95 2 9.6 1.55 9.2 0.95 7.95 1.55 7.1 2.9 6.95 3.1 6.85 3.35 6.9 3.45 7.05 3.6
L 8.1 3.85 8.75 3.95
Q 9.6 2.95 10.1 2.25
M 11.95 2.7
Q 11.3 2.5 10.55 2.45
L 9.05 4.2 9.65 5.55
Q 10.2 6 10.85 6 11.2 6 11.55 5.85
L 12.6 4.7 11.95 2.7
M 14.6 2.65
Q 14.35 2.1 13.9 1.65 13 2.45 12.55 2.7 12.4 2.8 12.3 2.8 12.6 3.75 12.9 4.4
L 13.05 4.4
Q 13.75 3.65 14.7 3.65 14.8 3.65 14.95 3.65 14.8 3.2 14.6 2.65
M 13.7 1.4
Q 13.65 1.3 13.55 1.25 12.25 0.5 11.3 0.5 10.35 0.5 9.6 0.8
L 10.35 2.05 12.35 2.45 13.7 1.4 Z"/>

<path fill="#62521F" stroke="none" d="
M 7 5.4
Q 7 5.9 6.4 6.15 6.7 6.25 7.2 6.45 7.35 6.5 7.6 6.55 7.7 6.6 7.85 6.65 8.6 6.9 9.1 7.05 9.15 6.9 9.2 6.75 8.85 6.55 8.5 6.25 8.4 6.15 8.25 6 7.8 5.6 7.15 4.85 7 4.9 6.95 4.9 6.9 4.9 6.85 4.95 6.95 5.05 7 5.1 7 5.15 7 5.4
M 13.9 7.3
Q 14.5 7.05 14.95 6.55 14.3 6.2 13.9 5.95 13.4 6.1 12.85 6.55 12.7 6.65 12.55 6.75 13.15 7.05 13.9 7.3 Z"/>

<path fill="#2A2107" stroke="none" d="
M 6.3 6.15
Q 6.15 6.15 6 6.15 5.95 6.2 5.9 6.2 5.7 6.25 5.6 6.3 6.1 6.8 6.8 7.05 6.85 6.65 7.2 6.45 6.7 6.25 6.4 6.15
L 6.3 6.15
M 6.6 4.25
Q 6.5 4.2 6.4 4.2 6.2 4.15 6 4.3 5.75 4.5 5.7 4.9 5.85 4.9 6.05 4.95
L 6.1 4.95
Q 6.2 4.95 6.35 4.95 6.7 4.95 6.85 4.95 6.9 4.9 6.95 4.9 7 4.9 7.15 4.85 7 4.65 6.85 4.5 6.7 4.35 6.6 4.25
M 12.95 7.75
Q 13.15 7.75 13.35 7.75 14 7.7 14.5 7.45 14.15 7.35 13.9 7.3 13.15 7.05 12.55 6.75 11.8 7.15 10.9 7.2 10.85 7.2 10.75 7.2 9.95 7.2 9.2 6.75 9.15 6.9 9.1 7.05 9.1 7.1 9.1 7.15 9.1 7.25 9.15 7.35 9.95 7.4 12.95 7.75
M 15.4 6.1
Q 15.35 6 15.25 6 15 5.85 14.5 5.85 14.2 5.85 13.9 5.95 14.3 6.2 14.95 6.55 15.05 6.6 15.25 6.7 15.35 6.5 15.4 6.25 15.4 6.15 15.4 6.1 Z"/>

<path fill="#2A1606" stroke="none" d="
M 7.05 3.6
Q 7.15 3.75 7.3 3.9 7.35 3.95 7.4 4.05
L 8.45 4.2
Q 8.25 4 8.1 3.85
L 7.05 3.6
M 12.65 4.85
Q 12.1 5.6 11.55 5.85
L 10.95 6.5 9.95 6.3 9.65 5.55
Q 9.3 5.3 9.05 4.95 8.95 4.85 8.9 4.75 9.35 5.8 9.55 6.25 9.6 6.35 9.65 6.45 9.85 6.55 10.1 6.65 10.6 6.8 11.15 6.8
L 11.2 6.8
Q 11.3 6.7 11.4 6.6 11.9869140625 5.915234375 13 4.7
L 13.15 4.7 13.85 4.65
Q 14.15 4.45 14.4 4.45 14.45 4.45 14.55 4.45 14.75 4.5 15 4.75 15 4.55 15 4.35
L 13.05 4.4
Q 12.85 4.6 12.65 4.85 Z"/>

<path fill="#E9E6DA" stroke="none" d="
M 7.05 3.6
Q 6.9 3.45 6.85 3.35 6.55 3.05 6.45 3.05 5.85 3.05 5.55 3.9 5.4 4.25 5.35 4.8 5.4 4.8 5.45 4.8 5.55 4.85 5.7 4.9 5.75 4.5 6 4.3 6.2 4.15 6.4 4.2 6.5 4.2 6.6 4.25 6.7 4.35 6.85 4.5 7 4.65 7.15 4.85 7.35 4.7 7.7 4.45 7.55 4.2 7.4 4.05 7.35 3.95 7.3 3.9 7.15 3.75 7.05 3.6 Z"/>

<path fill="#85512D" stroke="none" d="
M 8.8 0.4
Q 8.7 0.4 8.65 0.45 8.45 0.55 8.25 0.65 6.85 1.5 6.45 3.05 6.55 3.05 6.85 3.35 6.95 3.1 7.1 2.9 7.95 1.55 9.2 0.95 9 0.7 8.85 0.45
L 8.8 0.4
M 13.55 1.25
Q 13.35 1.05 13.1 0.85 12.8 0.6 12.55 0.45 11.7 0 10.75 0 9.95 -0.05 9.25 0.2
L 9.6 0.8
Q 10.35 0.5 11.3 0.5 12.25 0.5 13.55 1.25 Z"/>

<path fill="#563014" stroke="none" d="
M 9.2 0.95
Q 9.35 0.85 9.6 0.8
L 9.25 0.2
Q 9 0.25 8.8 0.4
L 8.85 0.45
Q 9 0.7 9.2 0.95 Z"/>

<path fill="#351D0B" stroke="none" d="
M 13.9 1.65
Q 13.8 1.5 13.7 1.4
L 12.35 2.45 10.35 2.05 9.6 0.8
Q 9.35 0.85 9.2 0.95 9.6 1.55 9.95 2 10 2.1 10.1 2.25 9.6 2.95 8.75 3.95
L 8.1 3.85
Q 8.25 4 8.45 4.2
L 8.65 4.25
Q 8.728125 4.3564453125 8.8 4.5 8.8 4.55 8.85 4.6 8.85 4.65 8.9 4.75 8.95 4.85 9.05 4.95 9.3 5.3 9.65 5.55
L 9.05 4.2 10.55 2.45
Q 11.3 2.5 11.95 2.7
L 12.6 4.7 11.55 5.85
Q 12.1 5.6 12.65 4.85 12.85 4.6 13.05 4.4
L 12.9 4.4
Q 12.6 3.75 12.3 2.8 12.4 2.8 12.55 2.7 13 2.45 13.9 1.65 Z"/>

<path fill="#B6B3A7" stroke="none" d="
M 15.25 6
Q 15.35 6 15.4 6.1
L 15.4 6.05
Q 15.4 5.5 15.2 5.05 15.1 4.85 15 4.75 14.75 4.5 14.55 4.45
L 13.85 4.65
Q 13.55 4.8 13.25 5.15 13.05 5.35 12.85 5.65 11.95 6.75 11.2 6.8
L 11.15 6.8
Q 10.6 6.8 10.1 6.65 9.85 6.55 9.65 6.45 9.55 6.35 9.5 6.35 8.7 5.85 8.05 4.95 7.85 4.7 7.7 4.45 7.35 4.7 7.15 4.85 7.8 5.6 8.25 6 8.4 6.15 8.5 6.25 8.85 6.55 9.2 6.75 9.95 7.2 10.75 7.2 10.85 7.2 10.9 7.2 11.8 7.15 12.55 6.75 12.7 6.65 12.85 6.55 13.4 6.1 13.9 5.95 14.2 5.85 14.5 5.85 15 5.85 15.25 6 Z"/>
</g>
</defs>

<g transform="matrix( -5.015716552734375, 0, 0, 5.015716552734375, 87.8,0) ">
<g transform="matrix( 1, 0, 0, 1, 0,0) ">
<use xlink:href="#___8_0_Layer0_0_FILL"/>
</g>
</g>
</svg>
