
<svg xmlns="http://www.w3.org/2000/svg" version="1.1" xmlns:xlink="http://www.w3.org/1999/xlink" preserveAspectRatio="none" x="0px" y="0px" width="24px" height="29px" viewBox="0 0 24 29">
<defs>
<g id="Layer0_0_FILL">
<path fill="#C9D9DE" stroke="none" d="
M 661.75 462
L 663.5 439.2 644.15 439.2 645.8 462 661.75 462
M 654.45 441.2
Q 654.7 441.4 654.7 441.7
L 654.7 459.7
Q 654.7 460 654.45 460.2 654.25 460.45 653.95 460.45 653.6 460.45 653.4 460.2 653.15 460 653.15 459.7
L 653.15 441.7
Q 653.15 441.4 653.4 441.2 653.6 441 653.95 441 654.25 441 654.45 441.2
M 648.35 441.2
Q 648.55 441.35 648.6 441.7
L 650 459.65
Q 650.05 459.95 649.8 460.15 649.6 460.4 649.3 460.45 648.95 460.45 648.7 460.25 648.5 460.05 648.45 459.75
L 647.05 441.8
Q 647 441.45 647.25 441.2 647.45 441 647.8 441 648.1 440.95 648.35 441.2
M 660.55 441.2
Q 660.8 441.45 660.75 441.8
L 659.4 459.75
Q 659.35 460.05 659.15 460.25 658.9 460.45 658.6 460.45 658.25 460.4 658.05 460.15 657.8 459.95 657.85 459.65
L 659.2 441.7
Q 659.25 441.35 659.5 441.2 659.7 440.95 660.05 441 660.35 441 660.55 441.2
M 663.55 437.9
L 665.6 437.9 665.5 436.45 642.1 436.45 641.95 437.9 644 437.9 663.55 437.9 Z"/>

<path fill="#678791" stroke="none" d="
M 660.75 441.8
Q 660.8 441.45 660.55 441.2 660.35 441 660.05 441 659.7 440.95 659.5 441.2 659.25 441.35 659.2 441.7
L 657.85 459.65
Q 657.8 459.95 658.05 460.15 658.25 460.4 658.6 460.45 658.9 460.45 659.15 460.25 659.35 460.05 659.4 459.75
L 660.75 441.8
M 648.6 441.7
Q 648.55 441.35 648.35 441.2 648.1 440.95 647.8 441 647.45 441 647.25 441.2 647 441.45 647.05 441.8
L 648.45 459.75
Q 648.5 460.05 648.7 460.25 648.95 460.45 649.3 460.45 649.6 460.4 649.8 460.15 650.05 459.95 650 459.65
L 648.6 441.7
M 654.7 441.7
Q 654.7 441.4 654.45 441.2 654.25 441 653.95 441 653.6 441 653.4 441.2 653.15 441.4 653.15 441.7
L 653.15 459.7
Q 653.15 460 653.4 460.2 653.6 460.45 653.95 460.45 654.25 460.45 654.45 460.2 654.7 460 654.7 459.7
L 654.7 441.7
M 663.5 439.2
L 663.55 437.9 644 437.9 644.15 439.2 663.5 439.2 Z"/>

<path fill="#FFFFFF" stroke="none" d="
M 655.3 434.9
L 655.3 433.9 652.3 433.9 652.3 434.9 642.2 434.9 642.1 436.45 665.5 436.45 665.4 434.9 655.3 434.9 Z"/>
</g>
</defs>

<g transform="matrix( 1, 0, 0, 1, -641.95,-433) ">
<use xlink:href="#Layer0_0_FILL"/>
</g>
</svg>
