
<svg xmlns="http://www.w3.org/2000/svg" version="1.1" xmlns:xlink="http://www.w3.org/1999/xlink" preserveAspectRatio="none" x="0px" y="0px" width="87px" height="118px" viewBox="0 0 87 118">
<defs>
<g id="Layer0_0_FILL">
<path fill="#597700" stroke="none" d="
M -301.7 390.55
Q -302.2 390.05 -302.7 389.6 -302.5 388.05 -302.5 386.4 -302.5 384.2046875 -302.85 382.15
L -350.4 429.7
Q -345.7185546875 432.53046875 -339.9 432.75 -339.5 432.75 -339.1 432.75 -338.8990234375 432.75 -338.7 432.75 -338.5 432.75 -338.3 432.75 -337.9 432.75 -337.5 432.75 -329.55 432.45 -323.75 427.25 -320.7 428.15 -317.25 428.15 -315.85 428.15 -314.5 427.95 -307.1 427.1 -301.7 421.7 -295.25 415.25 -295.25 406.1 -295.25 403.35 -295.85 400.85 -297.2 395.05 -301.7 390.55 Z"/>

<path fill="#6B8E00" stroke="none" d="
M -308.95 370.8
Q -312.25 367.5 -316.3 365.9 -316.474609375 360.866796875 -318.65 356.65
L -379.2 417.25
Q -377.785546875 419.614453125 -375.7 421.7 -370.3 427.1 -362.9 427.95 -361.55 428.15 -360.15 428.15 -356.7 428.15 -353.65 427.25 -352.165625 428.580859375 -350.55 429.6 -350.4724609375 429.6478515625 -350.4 429.7
L -302.85 382.15
Q -302.8802734375 382.0556640625 -302.9 381.95 -303.341796875 379.6517578125 -304.25 377.55 -305.25 375.3 -306.8 373.25 -307.75 372 -308.95 370.8 Z"/>

<path fill="#7EA800" stroke="none" d="
M -318.65 356.65
Q -320.178515625 353.671484375 -322.75 351.1 -329.15 344.65 -338.3 344.65 -338.5 344.65 -338.7 344.65 -338.89921875 344.65 -339.1 344.65 -348.25 344.65 -354.65 351.1 -360.8 357.25 -361.1 365.9 -365.15 367.5 -368.45 370.8 -369.65 372 -370.6 373.25 -372.15 375.3 -373.15 377.55 -374.9 381.6 -374.9 386.4 -374.9 388.05 -374.7 389.6 -375.2 390.05 -375.7 390.55 -380.2 395.05 -381.55 400.85 -382.15 403.35 -382.15 406.1 -382.15 412.29140625 -379.2 417.25
L -318.65 356.65 Z"/>
</g>

<g id="Layer0_0_MEMBER_0_FILL">
<path fill="#4D2E1A" stroke="none" d="
M -341.9 413.35
Q -348.4 406 -361.75 398.45 -335.75 422.15 -346.2 461.95
L -331.2 461.95
Q -341.65 422.15 -315.65 398.45 -329 406 -335.5 413.35
L -338.7 385.25 -341.9 413.35 Z"/>
</g>
</defs>

<g transform="matrix( 1, 0, 0, 1, 382.15,-343.95) ">
<use xlink:href="#Layer0_0_FILL"/>
</g>

<g transform="matrix( 1, 0, 0, 1, 382.15,-343.95) ">
<use xlink:href="#Layer0_0_MEMBER_0_FILL"/>
</g>
</svg>
