
<svg xmlns="http://www.w3.org/2000/svg" version="1.1" xmlns:xlink="http://www.w3.org/1999/xlink" preserveAspectRatio="none" x="0px" y="0px" width="161px" height="73px" viewBox="0 0 161 73">
<defs>
<g id="___1_0_Layer0_0_FILL">
<path fill="#ADABAB" stroke="none" d="
M 121.15 177.95
L 109.15 177.95 109.15 181.95 121.15 181.95 121.15 177.95
M 359.15 95.2
Q 359.1 95.2 359.1 95.25 186.95 151.25 90.1 132.1 57.85 125.7 33.9 110.95 14.1 98.75 0.05 80.85 0.75 97.15 11.2 110.95 20.15 122.8 36.3 132.8 54.15 143.8 75.6 149.45 82.65 151.3 90.1 152.55 102.55 154.7 118.55 155.2 126.5 155.85 136.15 156.05 142.4 156.1 149.35 155.95 153.15 155.85 157.15 155.7 160 155.6 162.9 155.45 185 154.35 212.85 151.2 224.15 149.9 235.05 148.1 272.95 141.7 305.15 128.5 305.25 128.45 305.4 128.4 314.6 124.65 323.35 120.3 342.35 110.9 359.1 102.35
L 359.15 102.3
Q 361.9 100.85 364.6 99.5 364.9 99.35 365.15 99.2 369.15 97.05 373.1 95.05
L 373.15 95
Q 380.4 91.2 387.15 87.6 392.15 84.9 396.9 82.3 391.65 84.15 386.5 86 379.75 88.3 373.15 90.55
L 373.1 90.6
Q 369.15 91.9 365.15 93.2 364.9 93.3 364.6 93.4 361.9 94.3 359.15 95.2 Z"/>

<path fill="#E5E5E5" stroke="none" d="
M 86.35 160.2
L 99.1 172.95 130.15 172.95 122.7 160.2 86.35 160.2
M 149.55 160.2
L 149.25 160.2
Q 146.75 160.25 144.95 162 143.15 163.85 143.15 166.45 143.15 167.9 143.75 169.15 144.15 170.05 144.95 170.85 145.6 171.5 146.4 171.95 147.75 172.7 149.4 172.7 152 172.7 153.8 170.85 155.65 169.05 155.65 166.45 155.65 164.8 154.9 163.45 154.45 162.65 153.8 162 153 161.2 152.1 160.8 150.95 160.25 149.55 160.2
M 174.55 160.2
L 174.25 160.2
Q 171.75 160.25 169.95 162 168.15 163.85 168.15 166.45 168.15 168.6 169.4 170.2 169.65 170.55 169.95 170.85 171.2 172.1 172.85 172.55 173.6 172.7 174.4 172.7 177 172.7 178.8 170.85 180.65 169.05 180.65 166.45 180.65 165.65 180.5 164.9 180.05 163.25 178.8 162 178.5 161.7 178.15 161.45 176.6 160.25 174.55 160.2
M 199.55 160.2
L 199.25 160.2
Q 196.75 160.25 194.95 162 193.15 163.85 193.15 166.45 193.15 166.95 193.2 167.4 193.4 168.7 194.1 169.8 194.45 170.35 194.95 170.85 195.5 171.4 196.1 171.8 197.55 172.7 199.4 172.7 202 172.7 203.8 170.85 205.65 169.05 205.65 166.45 205.65 164.6 204.75 163.15 204.35 162.55 203.8 162 203.3 161.5 202.75 161.15 201.65 160.45 200.35 160.25 199.95 160.2 199.55 160.2
M 359.1 54.9
L 359.15 54.9 359.15 0.55
Q 324.6 4.65 305.15 28.25
L 305.15 28.3
Q 314.5 32.1 323.35 36.5 342.45 45.95 359.1 54.9
M 359.15 64.6
L 359.1 64.6
Q 82.95 -25.35 0 78.95
L 0 79 0.05 79
Q 0.2 78.9 0.35 78.8 0.45 78.7 0.6 78.65
L 0.65 78.65
Q 91.65 23.15 359.1 71.1
L 359.15 71.1
Q 361.9 71.55 364.6 72.05 364.9 72.1 365.15 72.15 369.15 72.9 373.1 73.65
L 373.15 73.65
Q 386.9 76.2 401.1 79 386.9 73.9 373.15 69.25
L 373.1 69.25
Q 369.15 67.9 365.15 66.6 364.9 66.5 364.6 66.45 361.9 65.5 359.15 64.6
M 373.15 0
L 365.15 0 365.15 58.15
Q 369.2 60.35 373.1 62.55
L 373.15 62.55 373.15 0 Z"/>

<path fill="#999999" stroke="none" d="
M 0.05 79
L 0 79
Q 0 79.9 0.05 80.85
L 0.05 79 Z"/>

<path fill="#585858" stroke="none" d="
M 235.05 148.1
Q 224.15 149.9 212.85 151.2 185 154.35 162.9 155.45 160 155.6 157.15 155.7 153.15 155.85 149.35 155.95 142.4 156.1 136.15 156.05 126.5 155.85 118.55 155.2 102.55 154.7 90.1 152.55 82.65 151.3 75.6 149.45
L 86.35 160.2 122.7 160.2 130.15 172.95 99.1 172.95 104.1 177.95 109.15 177.95 121.15 177.95 205.15 177.95 235.05 148.1
M 199.25 160.2
L 199.55 160.2
Q 199.95 160.2 200.35 160.25 201.65 160.45 202.75 161.15 203.3 161.5 203.8 162 204.35 162.55 204.75 163.15 205.65 164.6 205.65 166.45 205.65 169.05 203.8 170.85 202 172.7 199.4 172.7 197.55 172.7 196.1 171.8 195.5 171.4 194.95 170.85 194.45 170.35 194.1 169.8 193.4 168.7 193.2 167.4 193.15 166.95 193.15 166.45 193.15 163.85 194.95 162 196.75 160.25 199.25 160.2
M 174.25 160.2
L 174.55 160.2
Q 176.6 160.25 178.15 161.45 178.5 161.7 178.8 162 180.05 163.25 180.5 164.9 180.65 165.65 180.65 166.45 180.65 169.05 178.8 170.85 177 172.7 174.4 172.7 173.6 172.7 172.85 172.55 171.2 172.1 169.95 170.85 169.65 170.55 169.4 170.2 168.15 168.6 168.15 166.45 168.15 163.85 169.95 162 171.75 160.25 174.25 160.2
M 149.25 160.2
L 149.55 160.2
Q 150.95 160.25 152.1 160.8 153 161.2 153.8 162 154.45 162.65 154.9 163.45 155.65 164.8 155.65 166.45 155.65 169.05 153.8 170.85 152 172.7 149.4 172.7 147.75 172.7 146.4 171.95 145.6 171.5 144.95 170.85 144.15 170.05 143.75 169.15 143.15 167.9 143.15 166.45 143.15 163.85 144.95 162 146.75 160.25 149.25 160.2 Z"/>

<path fill="#BDBDBD" stroke="none" d="
M 359.15 102.3
L 359.1 102.35
Q 342.35 110.9 323.35 120.3 314.6 124.65 305.4 128.4 326.3 150.75 359.15 155.2
L 359.15 102.3
M 373.15 95
L 373.1 95.05
Q 369.15 97.05 365.15 99.2
L 365.15 155.85
Q 365.85 155.9 366.6 155.95
L 373.15 155.95 373.15 95
M 359.15 88.75
L 359.1 88.75
Q 90.8 136.8 0.05 80.85 14.1 98.75 33.9 110.95 57.85 125.7 90.1 132.1 186.95 151.25 359.1 95.25 359.1 95.2 359.15 95.2 361.9 94.3 364.6 93.4 364.9 93.3 365.15 93.2 369.15 91.9 373.1 90.6
L 373.15 90.55
Q 379.75 88.3 386.5 86 391.65 84.15 396.9 82.3 397.85 81.8 398.8 81.25 397.75 81.45 396.75 81.65 384.8 84 373.15 86.2
L 373.1 86.2
Q 369.15 86.9 365.15 87.65 364.9 87.7 364.6 87.75 361.9 88.25 359.15 88.75 Z"/>

<path fill="#A17739" stroke="none" d="
M 365.15 99.2
Q 364.9 99.35 364.6 99.5 361.9 100.85 359.15 102.3
L 359.15 155.2
Q 362.1 155.6 365.15 155.85
L 365.15 99.2
M 387.15 87.6
Q 380.4 91.2 373.15 95
L 373.15 155.95 386.05 155.95
Q 386.6 155.9 387.15 155.9
L 387.15 87.6
M 373.1 76.15
L 373.1 81.45
Q 374.35 81.35 375.6 81.25 388.6 80.3 389.55 79 389.6 78.9 389.6 78.8 389.6 77.35 375.6 76.3 374.35 76.2 373.1 76.15
M 359.1 75.55
L 359.1 82.1
Q 361.95 82 364.6 81.9
L 364.6 75.7
Q 361.95 75.6 359.1 75.55 Z"/>

<path fill="#666666" stroke="none" d="
M 373.1 76.15
Q 369.1 75.9 364.6 75.7
L 364.6 81.9
Q 369.1 81.7 373.1 81.45
L 373.1 76.15
M 359.1 75.55
Q 351.1 75.3 341.85 75.3 322.05 75.3 308.05 76.3 294.1 77.35 294.1 78.8 294.1 78.9 294.2 79 295.05 80.3 308.05 81.25 322.05 82.3 341.85 82.3 351.1 82.3 359.1 82.1
L 359.1 75.55 Z"/>

<path fill="#FFFFFF" stroke="none" d="
M 359.1 64.6
L 359.15 64.6
Q 361.9 65.5 364.6 66.45 364.9 66.5 365.15 66.6 369.15 67.9 373.1 69.25
L 373.15 69.25
Q 386.9 73.9 401.1 79 394.45 74.85 387.15 70.6 380.45 66.65 373.15 62.55
L 373.1 62.55
Q 369.2 60.35 365.15 58.15 364.9 58 364.6 57.85 361.9 56.35 359.15 54.9
L 359.1 54.9
Q 342.45 45.95 323.35 36.5 314.5 32.1 305.15 28.3 305.148828125 28.25 305.1 28.25 263.7 11.35 212.85 5.6 150.45 -1.45 117.1 1.75
L 116.75 1.7
Q 70.05 3.25 36.3 24.1 0.3 46.4 0 77.95 0 78.15 0 78.4
L 0 78.5
Q 0 78.75 0 78.95 82.95 -25.35 359.1 64.6 Z"/>

<path fill="#C6C6C6" stroke="none" d="
M 359.1 82.1
Q 351.1 82.3 341.85 82.3 322.05 82.3 308.05 81.25 295.05 80.3 294.2 79
L 0.05 79 0.05 80.85
Q 90.8 136.8 359.1 88.75
L 359.15 88.75
Q 361.9 88.25 364.6 87.75 364.9 87.7 365.15 87.65 369.15 86.9 373.1 86.2
L 373.15 86.2
Q 384.8 84 396.75 81.65 397.75 81.45 398.8 81.25 400.2 80.5 401.55 79.75 401.75 79.65 401.95 79.55 401.55 79.25 401.1 79
L 389.55 79
Q 388.6 80.3 375.6 81.25 374.35 81.35 373.1 81.45 369.1 81.7 364.6 81.9 361.95 82 359.1 82.1 Z"/>

<path fill="#D7D7D7" stroke="none" d="
M 341.85 75.3
Q 351.1 75.3 359.1 75.55 361.95 75.6 364.6 75.7 369.1 75.9 373.1 76.15 374.35 76.2 375.6 76.3 389.6 77.35 389.6 78.8 389.6 78.9 389.55 79
L 401.1 79
Q 386.9 76.2 373.15 73.65
L 373.1 73.65
Q 369.15 72.9 365.15 72.15 364.9 72.1 364.6 72.05 361.9 71.55 359.15 71.1
L 359.1 71.1
Q 91.65 23.15 0.65 78.65
L 0.6 78.65
Q 0.45 78.7 0.35 78.8 0.2 78.9 0.05 79
L 294.2 79
Q 294.1 78.9 294.1 78.8 294.1 77.35 308.05 76.3 322.05 75.3 341.85 75.3 Z"/>

<path fill="#F5BB63" stroke="none" d="
M 387.15 0
L 373.15 0 373.15 62.55
Q 380.45 66.65 387.15 70.6
L 387.15 0
M 365.15 0
L 365 0
Q 362 0.2 359.15 0.55
L 359.15 54.9
Q 361.9 56.35 364.6 57.85 364.9 58 365.15 58.15
L 365.15 0 Z"/>
</g>

<g id="___1_0_Layer0_1_FILL">
<path fill="#9A3B3B" stroke="none" d="
M 66.85 78.95
L 66.85 81 68.6 81
Q 69.8 81 69.85 82.4
L 69.85 85.6
Q 69.85 87.85 67.3 87.9
L 67.3 91.55
Q 70.1 91.65 71.4 89.5
L 71.4 89.45 72.5 91.15 75 91.15 75 78.95 66.85 78.95
M 58.9 78.95
L 58.9 84.8
Q 58.9 91.6 66.45 91.5
L 66.45 87.9
Q 64.35 87.65 64.35 85.6
L 64.35 78.95 58.9 78.95
M 146.9 86.25
L 151.4 78.95 145.5 78.95 141 86.25 146.9 86.25
M 140.4 87.05
L 140.4 91.15 155.8 91.15 155.8 87.05 140.4 87.05
M 121.8 78.95
L 121.8 81.05 128.3 81.05 128.3 78.95 121.8 78.95
M 110.95 78.95
L 105.95 78.95 106.65 82.5 103.6 82.5 102.85 86.3 107.4 86.3 108.5 91.15 114.05 91.15 110.95 78.95
M 121 78.95
L 115.65 78.95 115.65 91.15 121 91.15 121 78.95
M 83.05 91.15
L 83.05 78.95 77.75 78.95 77.75 91.15 83.05 91.15
M 95.5 91.15
L 100.8 91.15 103.5 78.95 98.65 78.95 95.5 91.15
M 85.8 81.3
Q 88.2 81.25 88.25 84.25
L 88.25 89.1
Q 88.2 90.45 88.6 91.15
L 94 91.15
Q 93.6 90.5 93.6 89.1
L 93.65 84.85
Q 93.95 80.15 90.65 79.35 91.25 79.2 91.75 78.95
L 84 78.95 84 81.3 85.8 81.3
M 230.7 87.3
L 230.7 91.15 236.85 91.15 236.85 87.3 230.7 87.3
M 229.7 78.95
L 224.4 78.95 224.4 91.15 229.7 91.15 229.7 78.95
M 209.1 91.15
L 214.45 91.15 214.45 78.95 209.1 78.95 209.1 91.15
M 222.15 91.15
L 222.15 87.15 215.25 87.15 215.25 91.15 222.15 91.15
M 215.25 78.95
L 215.25 81.05 221.75 81.05 221.75 78.95 215.25 78.95
M 197.45 81.3
L 199.25 81.3
Q 203.85 81.3 205.8 78.95
L 197.45 78.95 197.45 81.3
M 191.2 91.15
L 196.5 91.15 196.5 78.95 191.2 78.95 191.2 91.15
M 163.4 91.15
L 163.4 78.95 158.05 78.95 158.05 91.15 163.4 91.15
M 171.1 91.15
L 171.1 87.15 164.2 87.15 164.2 91.15 171.1 91.15
M 170.7 81.05
L 170.7 78.95 164.2 78.95 164.2 81.05 170.7 81.05
M 178.6 78.95
L 173.3 78.95 173.3 91.15 178.6 91.15 178.6 78.95
M 179.55 81.3
L 181.35 81.3
Q 185.95 81.3 187.9 78.95
L 179.55 78.95 179.55 81.3
M 244.25 91.15
L 244.25 78.95 238.8 78.95 238.8 91.15 244.25 91.15
M 259.2 78.95
L 259.2 91.15 264.2 91.15 264.2 78.95 259.2 78.95
M 252.15 78.95
L 247.2 78.95 247.2 91.15 252.15 91.15 252.15 78.95
M 257.25 78.95
L 253.3 78.95 258.55 89.6 258.55 81.65 257.25 78.95 Z"/>
</g>

<g id="___1_0_Layer0_1_MEMBER_0_FILL">
<path fill="#E25353" stroke="none" d="
M 66.85 77.5
L 66.85 78.95 75 78.95 75 77.5 66.85 77.5
M 66.45 71.35
L 66.45 67.6
Q 58.9 67.6 58.9 73.85
L 58.9 78.95 64.35 78.95 64.35 73.65
Q 64.35 71.6 66.45 71.35
M 67.3 67.55
L 67.3 71.3
Q 69.85 71.4 69.85 73.65
L 69.85 76.05 75 76.05 75 73.95
Q 75 67.5 67.3 67.55
M 128.3 77.2
L 121.8 77.2 121.8 78.95 128.3 78.95 128.3 77.2
M 121.8 71.95
L 128.7 71.95 128.7 68.1 121.8 68.1 121.8 71.95
M 155.1 72.9
L 149.25 72.9 145.5 78.95 151.4 78.95 155.1 72.9
M 155.8 72.15
L 155.8 68.1 141.2 68.1 141.2 72.15 155.8 72.15
M 83.05 78.95
L 83.05 68.1 77.75 68.1 77.75 78.95 83.05 78.95
M 85.65 68.1
L 84 68.1 84 71.95 85.8 71.95
Q 88.3 71.95 88.3 74.65 88.35 77.4 85.8 77.45
L 84 77.45 84 78.95 91.75 78.95
Q 93.75 77.85 93.7 74.25 93.75 68.1 85.65 68.1
M 121 68.1
L 115.65 68.1 115.65 78.95 121 78.95 121 68.1
M 108.2 68.1
L 101.4 68.1 98.65 78.95 103.5 78.95 104.8 73.1 105.95 78.95 110.95 78.95 108.2 68.1
M 221.75 77.2
L 215.25 77.2 215.25 78.95 221.75 78.95 221.75 77.2
M 214.45 68.1
L 209.1 68.1 209.1 78.95 214.45 78.95 214.45 68.1
M 215.25 71.95
L 222.15 71.95 222.15 68.1 215.25 68.1 215.25 71.95
M 229.7 68.1
L 224.4 68.1 224.4 78.95 229.7 78.95 229.7 68.1
M 163.4 78.95
L 163.4 68.1 158.05 68.1 158.05 78.95 163.4 78.95
M 170.7 77.2
L 164.2 77.2 164.2 78.95 170.7 78.95 170.7 77.2
M 164.2 71.95
L 171.1 71.95 171.1 68.1 164.2 68.1 164.2 71.95
M 178.6 68.1
L 173.3 68.1 173.3 78.95 178.6 78.95 178.6 68.1
M 179.55 71.95
L 181.35 71.95
Q 183.85 71.95 183.85 74.65 183.9 77.4 181.35 77.45
L 179.55 77.45 179.55 78.95 187.9 78.95
Q 189.25 77.25 189.25 74.25 189.3 68.1 181.2 68.1
L 179.55 68.1 179.55 71.95
M 196.5 68.1
L 191.2 68.1 191.2 78.95 196.5 78.95 196.5 68.1
M 197.45 71.95
L 199.25 71.95
Q 201.75 71.95 201.75 74.65 201.8 77.4 199.25 77.45
L 197.45 77.45 197.45 78.95 205.8 78.95
Q 207.15 77.25 207.15 74.25 207.2 68.1 199.1 68.1
L 197.45 68.1 197.45 71.95
M 244.25 78.95
L 244.25 68.1 238.8 68.1 238.8 78.95 244.25 78.95
M 264.2 68.1
L 259.2 68.1 259.2 78.95 264.2 78.95 264.2 68.1
M 253.3 78.95
L 257.25 78.95 252.8 69.9 252.8 77.95 253.3 78.95
M 252.15 68.1
L 247.2 68.1 247.2 78.95 252.15 78.95 252.15 68.1 Z"/>
</g>
</defs>

<g transform="matrix( 0.399169921875, 0, 0, 0.399169921875, 0,0) ">
<g transform="matrix( 1, 0, 0, 1, 0,0) ">
<use xlink:href="#___1_0_Layer0_0_FILL"/>
</g>

<g transform="matrix( 1, 0, 0, 1, 0,0) ">
<use xlink:href="#___1_0_Layer0_1_FILL"/>
</g>

<g transform="matrix( 1, 0, 0, 1, 0,0) ">
<use xlink:href="#___1_0_Layer0_1_MEMBER_0_FILL"/>
</g>
</g>
</svg>
