<?xml version="1.0" encoding="utf-8"?>
<!-- Generator: Adobe Illustrator 16.0.0, SVG Export Plug-In . SVG Version: 6.00 Build 0)  -->
<!DOCTYPE svg PUBLIC "-//W3C//DTD SVG 1.1//EN" "http://www.w3.org/Graphics/SVG/1.1/DTD/svg11.dtd">
<svg version="1.1" id="Layer_1" xmlns="http://www.w3.org/2000/svg" xmlns:xlink="http://www.w3.org/1999/xlink" x="0px" y="0px"
	 width="81px" height="59px" viewBox="0 0 81 59" enable-background="new 0 0 81 59" xml:space="preserve">
<polygon fill="#7D390A" points="51.336,23.989 51.323,23.989 51.325,23.995 "/>
<polygon fill="#7D390A" points="51.25,24.036 25.198,24.036 7.98,33.005 34.778,33.005 "/>
<polygon fill="#7D390A" points="7.797,33.101 7.814,33.101 7.813,33.093 "/>
<polygon fill="#B04E0E" points="78.109,33.005 34.778,33.005 7.98,33.005 7.797,33.005 7.813,33.093 7.814,33.101 12.484,59 
	78.109,59 68.672,46.003 "/>
<polygon fill="#D38718" points="51.336,24.036 51.325,23.995 51.323,23.989 44.82,0 0,0 0,24.036 25.198,24.036 51.25,24.036 "/>
<g>
	<path fill="#FFFFFF" d="M18.406,14.721V8.569c0-0.945,0.257-1.688,0.772-2.225c0.515-0.536,1.226-0.805,2.133-0.805
		c0.857,0,1.537,0.275,2.038,0.826s0.751,1.302,0.751,2.254v1.153h-1.901V8.454c0-0.416-0.08-0.727-0.24-0.935
		c-0.16-0.207-0.398-0.312-0.714-0.312s-0.554,0.104-0.714,0.312c-0.161,0.208-0.241,0.519-0.241,0.935v6.698
		c0,0.415,0.08,0.728,0.241,0.938c0.16,0.21,0.398,0.314,0.714,0.314s0.554-0.104,0.714-0.314c0.16-0.211,0.24-0.523,0.24-0.938
		v-1.636h1.901v1.254c0,1.051-0.248,1.862-0.743,2.432c-0.495,0.57-1.199,0.855-2.112,0.855c-0.935,0-1.642-0.282-2.121-0.847
		C18.646,16.646,18.406,15.816,18.406,14.721z"/>
	<path fill="#FFFFFF" d="M25.461,14.754l1.769-0.266c0.033,0.608,0.149,1.059,0.349,1.349c0.199,0.291,0.492,0.436,0.88,0.436
		c0.338,0,0.611-0.105,0.821-0.319c0.211-0.213,0.316-0.493,0.316-0.843c0-0.625-0.498-1.433-1.494-2.424
		c-0.078-0.077-0.136-0.135-0.175-0.174c-0.974-0.975-1.6-1.723-1.876-2.245c-0.276-0.523-0.415-1.078-0.415-1.665
		c0-0.846,0.278-1.559,0.834-2.137c0.557-0.578,1.235-0.867,2.038-0.867c0.78,0,1.42,0.267,1.918,0.801
		c0.498,0.533,0.782,1.258,0.854,2.17l-1.81,0.258c-0.033-0.537-0.129-0.922-0.286-1.154c-0.158-0.232-0.4-0.348-0.727-0.348
		c-0.299,0-0.538,0.101-0.718,0.303c-0.18,0.201-0.27,0.472-0.27,0.809c0,0.697,0.58,1.607,1.742,2.731
		c0.045,0.044,0.081,0.08,0.108,0.108c0.853,0.83,1.411,1.508,1.677,2.033s0.398,1.115,0.398,1.768c0,0.875-0.271,1.593-0.813,2.154
		c-0.542,0.563-1.229,0.843-2.059,0.843c-0.919,0-1.647-0.294-2.188-0.88C25.798,16.608,25.506,15.794,25.461,14.754z"/>
	<path fill="#FFFFFF" d="M32.467,14.754l1.769-0.266c0.033,0.608,0.149,1.059,0.349,1.349c0.199,0.291,0.492,0.436,0.88,0.436
		c0.338,0,0.611-0.105,0.821-0.319c0.211-0.213,0.316-0.493,0.316-0.843c0-0.625-0.498-1.433-1.494-2.424
		c-0.078-0.077-0.136-0.135-0.175-0.174c-0.974-0.975-1.6-1.723-1.876-2.245c-0.276-0.523-0.415-1.078-0.415-1.665
		c0-0.846,0.278-1.559,0.834-2.137c0.557-0.578,1.235-0.867,2.038-0.867c0.78,0,1.42,0.267,1.918,0.801
		c0.498,0.533,0.782,1.258,0.854,2.17l-1.81,0.258c-0.033-0.537-0.129-0.922-0.286-1.154c-0.158-0.232-0.4-0.348-0.727-0.348
		c-0.299,0-0.538,0.101-0.718,0.303c-0.18,0.201-0.27,0.472-0.27,0.809c0,0.697,0.58,1.607,1.742,2.731
		c0.045,0.044,0.081,0.08,0.108,0.108c0.853,0.83,1.411,1.508,1.677,2.033s0.398,1.115,0.398,1.768c0,0.875-0.271,1.593-0.813,2.154
		c-0.542,0.563-1.229,0.843-2.059,0.843c-0.919,0-1.647-0.294-2.188-0.88C32.804,16.608,32.512,15.794,32.467,14.754z"/>
</g>
<g>
	<path fill="#FFFFFF" d="M20.157,51.401V41.163h1.416l2.004,6.117c0.037,0.118,0.083,0.273,0.138,0.467
		c0.054,0.193,0.109,0.402,0.166,0.623c-0.052-0.297-0.094-0.572-0.127-0.824s-0.05-0.438-0.05-0.556v-5.827h1.479v10.238h-1.479
		l-1.926-5.657c-0.009-0.024-0.021-0.06-0.035-0.106c-0.132-0.387-0.231-0.723-0.298-1.006c0.057,0.359,0.101,0.658,0.131,0.896
		s0.046,0.412,0.046,0.52v5.354H20.157z"/>
	<path fill="#FFFFFF" d="M27.042,43.528c0-0.808,0.22-1.439,0.658-1.898c0.439-0.457,1.046-0.687,1.82-0.687
		c0.731,0,1.311,0.235,1.737,0.704c0.428,0.471,0.642,1.111,0.642,1.923v5.246c0,0.897-0.212,1.589-0.634,2.075
		c-0.423,0.486-1.023,0.729-1.802,0.729c-0.789,0-1.39-0.242-1.803-0.726s-0.619-1.19-0.619-2.12V43.528z M30.277,49.143v-5.714
		c0-0.354-0.068-0.619-0.205-0.797c-0.137-0.177-0.34-0.266-0.608-0.266c-0.27,0-0.473,0.089-0.609,0.266
		c-0.137,0.178-0.205,0.443-0.205,0.797v5.714c0,0.354,0.068,0.62,0.205,0.8s0.34,0.27,0.609,0.27c0.269,0,0.472-0.09,0.608-0.27
		S30.277,49.496,30.277,49.143z"/>
	<path fill="#FFFFFF" d="M33.771,51.401V41.163h2.103l1.026,5.671c0.043,0.227,0.074,0.47,0.096,0.729s0.032,0.529,0.032,0.807
		c0-0.235,0.013-0.479,0.039-0.729c0.025-0.25,0.063-0.515,0.109-0.793l0.984-5.686h2.131v10.238h-1.479v-6.465
		c0-0.184,0.011-0.432,0.031-0.743c0.021-0.312,0.051-0.658,0.089-1.041c-0.023,0.138-0.055,0.326-0.092,0.566
		c-0.076,0.458-0.128,0.753-0.156,0.886l-1.288,6.797H36.61l-1.232-6.805c-0.047-0.273-0.098-0.573-0.151-0.898
		c-0.055-0.326-0.087-0.508-0.096-0.546c0.033,0.35,0.059,0.677,0.077,0.981c0.02,0.304,0.029,0.572,0.029,0.803v6.465H33.771z"/>
	<path fill="#FFFFFF" d="M42.342,51.401V41.163h1.606v10.238H42.342z"/>
	<path fill="#FFFFFF" d="M45.97,51.401V41.163h1.416l2.004,6.117c0.037,0.118,0.083,0.273,0.138,0.467
		c0.054,0.193,0.109,0.402,0.166,0.623c-0.052-0.297-0.094-0.572-0.127-0.824s-0.05-0.438-0.05-0.556v-5.827h1.479v10.238h-1.479
		l-1.926-5.657c-0.01-0.024-0.021-0.06-0.035-0.106c-0.133-0.387-0.231-0.723-0.298-1.006c0.057,0.359,0.101,0.658,0.131,0.896
		c0.031,0.238,0.046,0.412,0.046,0.52v5.354H45.97z"/>
	<path fill="#FFFFFF" d="M53.046,51.401V41.163h4.12v1.479h-2.542v2.684h1.832v1.479h-1.832v3.059h2.542v1.537H53.046z"/>
	<path fill="#FFFFFF" d="M58.819,51.401V41.163h4.12v1.479h-2.542v2.684h1.832v1.479h-1.832v3.059h2.542v1.537H58.819z"/>
</g>
<polygon fill="#F4E1B0" points="4.326,6.991 13.795,3.088 13.795,5.039 6.607,7.992 "/>
<polygon fill="#F4E1B0" points="7.209,8.251 13.795,5.558 13.795,7.58 9.53,9.271 "/>
<polygon fill="#934015" points="13.795,16.215 6.528,19.953 6.528,18.001 12.29,15.049 13.795,15.872 "/>
<polygon fill="#934015" points="11.808,14.733 6.528,17.426 6.528,15.354 9.947,13.712 "/>
<polygon fill="#F9CE2D" points="4.006,7.396 13.795,11.535 13.795,13.477 4.006,9.513 "/>
<polygon fill="#F9CE2D" points="5.507,10.693 13.795,13.996 13.795,16.219 5.507,12.781 "/>
</svg>
