
<svg xmlns="http://www.w3.org/2000/svg" version="1.1" xmlns:xlink="http://www.w3.org/1999/xlink" preserveAspectRatio="none" x="0px" y="0px" width="187px" height="90px" viewBox="0 0 187 90">
<defs>
<g id="Layer0_0_FILL">
<path fill="#FFFFFF" fill-opacity="0.8" stroke="none" d="
M 186.5 48.7
Q 186.6 47.8111328125 186.6 46.9 186.6 35.05 174.75 26.9 163.5 18.8 147.3 18.8 145.4 18.8 143.55 18.8 139.15 15.05 133.55 11.3 123.321875 4.7353515625 110.5 2 101.4466796875 0.1 91.1 0.1 66 0.1 47.9 11.3 33.55 20.7 31.05 33.15 22.3 35.05 14.8 39.4 0.45 48.15 0.45 60 0.45 67.78046875 6.6 73.95 9.8720703125 77.168359375 14.8 79.95 29.15 88.7 49.15 88.7 60.35 88.7 70.5 86.2 84.85 89.95 103.6 89.95 126.7 89.95 142.9 83.7 146.313671875 82.380078125 149 81 155.287890625 77.8328125 157.9 74.35 167.25 72.5 174.75 66.85 185.0431640625 59.8142578125 186.4 49.95 186.4755859375 49.3298828125 186.5 48.7 Z"/>
</g>

<g id="Layer0_1_FILL">
<path fill="#FFFFFF" stroke="none" d="
M 78.25 41.15
Q 66.1 33.95 48.95 33.95 31.75 33.95 19.6 41.15 7.45 48.45 7.45 58.7 7.45 68.9 19.6 76.15 31.75 83.45 48.95 83.45 66.1 83.45 78.25 76.15 90.4 68.9 90.4 58.7 90.4 48.45 78.25 41.15 Z"/>
</g>

<g id="Layer0_2_FILL">
<path fill="#FFFFFF" fill-opacity="0.9803921568627451" stroke="none" d="
M 141.9 36.15
Q 141.9 22.8 126.7 13.3 111.45 3.9 89.95 3.9 68.4 3.9 53.2 13.3 37.95 22.8 37.95 36.15 37.95 49.45 53.2 58.95 68.4 68.45 89.95 68.45 111.45 68.45 126.7 58.95 141.9 49.45 141.9 36.15 Z"/>
</g>

<g id="Layer0_3_FILL">
<path fill="#FFFFFF" stroke="none" d="
M 181.4 47.15
Q 181.4 36.95 168.8 29.65 156.2 22.4 138.45 22.4 120.6 22.4 108.05 29.65 95.45 36.95 95.45 47.15 95.45 57.4 108.05 64.65 120.6 71.95 138.45 71.95 156.2 71.95 168.8 64.65 181.4 57.4 181.4 47.15 Z"/>
</g>

<g id="Layer0_4_FILL">
<path fill="#FFFFFF" stroke="none" d="
M 143.25 79.35
Q 157.9 72.85 157.9 63.65 157.9 54.45 143.25 47.9 128.6 41.4 107.95 41.4 87.2 41.4 72.6 47.9 57.95 54.45 57.95 63.65 57.95 72.85 72.6 79.35 87.2 85.95 107.95 85.95 128.6 85.95 143.25 79.35 Z"/>
</g>
</defs>

<g transform="matrix( 1, 0, 0, 1, 0,0) ">
<use xlink:href="#Layer0_0_FILL"/>
</g>

<g transform="matrix( 1.26849365234375, -0.0765380859375, 0.05780029296875, 0.957855224609375, -8.8,5.7) ">
<use xlink:href="#Layer0_1_FILL"/>
</g>

<g transform="matrix( 1, 0, 0, 1.1861419677734375, 0,-1.25) ">
<use xlink:href="#Layer0_2_FILL"/>
</g>

<g transform="matrix( 1.2616119384765625, 0, 0, 1, -45.45,0) ">
<use xlink:href="#Layer0_3_FILL"/>
</g>

<g transform="matrix( 1, 0, 0, 1.4568328857421875, -1.5,-38.75) ">
<use xlink:href="#Layer0_4_FILL"/>
</g>
</svg>
