
<svg xmlns="http://www.w3.org/2000/svg" version="1.1" xmlns:xlink="http://www.w3.org/1999/xlink" preserveAspectRatio="none" x="0px" y="0px" width="134px" height="92px" viewBox="0 0 134 92">
<defs>
<g id="___9____4_0_Layer0_0_FILL">
<path fill="#FFFFFF" stroke="none" d="
M 6.1 7
Q 6 7.15 5.9 7.3
L 5.95 7.3
Q 6.1 7.3 6.25 7.25 6.15 7.1 6.1 7
M 3.1 1.35
Q 3 1.35 2.95 1.4 2.8 1.45 2.7 1.5 2.75 1.7 2.85 1.85 2.95 2.05 3 2.25 3.3 3.3 3.3 5.05 3.45 5.05 3.65 5.05 3.85 5.05 4.1 5.05 4.05 4 3.95 3.45 3.85 2.75 3.45 1.65 3.4 1.45 3.3 1.25 3.2 1.3 3.1 1.35
M 6.55 4.8
L 6.55 5.05 6.6 5.45
Q 6.6 5.6 6.6 5.75 6.7 5.75 6.75 5.75 6.8 5.75 6.85 5.8 6.85 5.75 6.85 5.7 6.85 5.6 6.85 5.55 6.85 5.3 6.75 5.15 6.7 4.9 6.55 4.8
M 5.55 1.85
Q 5.35 1.45 5.2 1.15 4.75 1 4.3 1.05 4.4 1.3 4.55 1.55 4.85 2.35 4.9 2.5 5.1 3.3 5.2 4.4 5.2 4.5 5.2 4.65 5.3 4.6 5.45 4.6
L 5.5 4.6
Q 5.65 4.6 5.85 4.6 6.05 4.6 6.2 4.65
L 6.2 4.6
Q 6.15 4.55 6.15 4.5 6.15 4.45 6.15 4.4 5.95 2.9 5.55 1.85
M 7.25 2.45
Q 6.9 2.15 6.6 1.9 6.65 2.2 6.75 2.55 6.95 3.3 7.05 4.05 7.3 3.9 7.6 3.75 7.55 3.35 7.45 3.05 7.35 2.75 7.25 2.45
M 10.4 3.95
Q 10.4 3.7 10.45 3.45 10.55 2.9 10.65 2.35 10.65 1.95 10.7 1.6 10.5 1.7 10.3 1.85 10.25 2.15 10.2 2.6 10.1 3.1 9.95 3.75 9.9 3.95 9.9 4.2 10.05 4.1 10.4 3.95 Z"/>

<path fill="#008700" stroke="none" d="
M 4.85 5.75
L 4.8 5.65
Q 4.75 5.5 4.75 5.35 4.75 5.25 4.75 5.2
L 4.75 4.9
Q 4.35 5 4.1 5.05 4.1 5.75 4.1 6.7 4.35 6.7 4.65 6.7 4.75 6.7 4.85 6.7 5 6.65 5.15 6.65 5.1 6.6 5.15 6.55 5.1 6.45 5.05 6.4 4.9 6.05 4.85 5.75
M 1.55 5.5
Q 0.6 5.4 0.1 5.3 1 6.5 3.2 6.55 3.3 5.7 3.3 5.05 2.5 5.55 1.55 5.5
M 8.3 3.7
L 8.35 3.7
Q 8.2 3.55 8.1 3.4 8.05 3.45 8 3.45 7.8 3.6 7.6 3.75 7.65 4.15 7.65 4.65 7.95 4.2 8.3 3.7
M 9.9 4.2
Q 9.55 4.3 9.5 4.3 9.05 4.3 8.5 3.6
L 8.45 3.55
Q 8.35 3.6 8.35 3.7 8.55 3.9 8.75 4.2 9.25 4.75 9.7 5.25 9.75 4.75 9.9 4.2
M 6.15 5.7
Q 5.7 5.7 5.7 5.95 5.7 6.25 6.1 7 6.1 6.95 6.15 6.9 6.5 6.25 6.6 5.75 6.4 5.7 6.15 5.7
M 6.75 4.2
Q 6.6 4.25 6.45 4.35
L 6.55 4.8
Q 6.7 4.9 6.75 5.15 6.85 5.3 6.85 5.55 6.95 5.4 7.1 5.3 7.1 4.7 7.05 4.05 6.9 4.15 6.75 4.2
M 6.6 1.9
Q 6.9 2.15 7.25 2.45 7.1 2.1 6.95 1.8 5.15 0.75 4.2 0.75 3.55 0.75 3.35 0.8 3.25 0.8 3.2 0.85
L 3.2 0.9
Q 3.15 1.1 3.1 1.35 3.2 1.3 3.3 1.25 3.65 1.15 4 1.1 4.15 1.05 4.3 1.05 4.75 1 5.2 1.15 5.85 1.35 6.6 1.9 Z"/>

<path fill="#CCCCCC" stroke="none" d="
M 3.65 5.05
Q 3.45 5.05 3.3 5.05 3.3 5.7 3.2 6.55 3.25 6.55 3.3 6.6 3.65 6.65 4.1 6.7 4.1 5.75 4.1 5.05 3.85 5.05 3.65 5.05
M 7.05 4.05
Q 7.1 4.7 7.1 5.3 7.35 5 7.65 4.65 7.65 4.15 7.6 3.75 7.3 3.9 7.05 4.05
M 6.75 5.75
Q 6.7 5.75 6.6 5.75 6.5 6.25 6.15 6.9 6.1 6.95 6.1 7 6.15 7.1 6.25 7.25 6.3 7.25 6.35 7.2 6.85 6.9 6.85 5.8 6.8 5.75 6.75 5.75
M 10.15 5.7
Q 10.15 5.55 10.15 5.45 10.15 5.15 10.4 3.95 10.05 4.1 9.9 4.2 9.75 4.75 9.7 5.25 9.9 5.45 10.15 5.7 Z"/>

<path fill="#46FF46" stroke="none" d="
M 2.85 1.85
Q 2.75 1.7 2.7 1.5 1.7 1.9 1.15 2.75 0.85 3.15 0.6 3.65
L 0.6 3.7
Q 1.5 2.1 2.85 1.85
M 4.3 1.05
Q 4.15 1.05 4 1.1 3.65 1.15 3.3 1.25 3.4 1.45 3.45 1.65 3.85 1.55 4.3 1.55 4.4 1.55 4.55 1.55 4.4 1.3 4.3 1.05
M 5.5 4.6
L 5.45 4.6
Q 5.3 4.6 5.2 4.65 4.85 4.7 4.8 4.75 4.75 4.8 4.8 5.1 4.7515625 5.1484375 4.75 5.2 4.75 5.25 4.75 5.35 4.75 5.5 4.8 5.65
L 4.85 5.75
Q 4.85 5.4 5 5.25 5.2 4.95 5.85 4.95 6.2 4.95 6.55 5.05
L 6.55 4.8
Q 6.4 4.75 6.25 4.7
L 6.2 4.6 6.2 4.65
Q 6.05 4.6 5.85 4.6 5.65 4.6 5.5 4.6
M 6.75 2.55
Q 6.65 2.2 6.6 1.9 5.85 1.35 5.2 1.15 5.35 1.45 5.55 1.85 6.1 2.1 6.75 2.55
M 7.25 2.45
Q 7.35 2.75 7.45 3.05 7.75 3.25 8 3.45 8.05 3.45 8.1 3.4 7.65 2.85 7.25 2.45
M 5.1 0.5
Q 5.45 0.6 6.25 0.9 5.3 0 3.85 0
L 3.4 0.1
Q 3.35 0.2 3.35 0.3 4.3 0.3 5.1 0.5
M 10.2 2.6
Q 10.25 2.15 10.3 1.85 9.9 2.1 9.55 2.45 8.95 2.9 8.45 3.55
L 8.5 3.6 9.55 2.9
Q 9.85 2.7 10.2 2.6 Z"/>

<path fill="#00CC00" stroke="none" d="
M 3 2.25
Q 2.95 2.05 2.85 1.85 1.5 2.1 0.6 3.7 0.55 3.8 0.4 4.25 0.25 4.6 0.1 5.1 0.05 5.15 0.05 5.25
L 0 5.25
Q 0.0515625 5.2515625 0.1 5.3 0.6 5.4 1.55 5.5 2.5 5.55 3.3 5.05 3.3 3.3 3 2.25
M 2.1 3.55
L 1.95 3.85 1.95 3.8 2.1 3.55
M 7.6 3.75
Q 7.8 3.6 8 3.45 7.75 3.25 7.45 3.05 7.55 3.35 7.6 3.75
M 9.9 4.2
Q 9.9 3.95 9.95 3.75 10.1 3.1 10.2 2.6 9.85 2.7 9.55 2.9
L 8.5 3.6
Q 9.05 4.3 9.5 4.3 9.55 4.3 9.9 4.2
M 5.2 4.65
Q 5.2 4.5 5.2 4.4 5.1 3.3 4.9 2.5 4.85 2.35 4.55 1.55 4.4 1.55 4.3 1.55 3.85 1.55 3.45 1.65 3.85 2.75 3.95 3.45 4.05 4 4.1 5.05 4.35 5 4.75 4.9
L 4.75 5.2
Q 4.7515625 5.1484375 4.8 5.1 4.75 4.8 4.8 4.75 4.85 4.7 5.2 4.65
M 5.7 5.95
Q 5.7 5.7 6.15 5.7 6.4 5.7 6.6 5.75 6.6 5.6 6.6 5.45
L 6.55 5.05
Q 6.2 4.95 5.85 4.95 5.2 4.95 5 5.25 4.85 5.4 4.85 5.75 4.9 6.05 5.05 6.4 5.1 6.45 5.15 6.55 5.1 6.6 5.15 6.65 5.5 7.25 5.9 7.3 6 7.15 6.1 7 5.7 6.25 5.7 5.95
M 6.75 2.55
Q 6.1 2.1 5.55 1.85 5.95 2.9 6.15 4.4 6.15 4.45 6.15 4.5 6.15 4.55 6.2 4.6
L 6.25 4.7
Q 6.4 4.75 6.55 4.8
L 6.45 4.35
Q 6.6 4.25 6.75 4.2 6.9 4.15 7.05 4.05 6.95 3.3 6.75 2.55
M 6.25 0.9
Q 5.45 0.6 5.1 0.5 4.3 0.3 3.35 0.3 3.25 0.55 3.2 0.85 3.25 0.8 3.35 0.8 3.55 0.75 4.2 0.75 5.15 0.75 6.95 1.8 6.75 1.5 6.55 1.25 6.4 1.05 6.25 0.9 Z"/>

<path fill="#7B0606" stroke="none" d="
M 1.95 3.85
L 2.1 3.55 1.95 3.8 1.95 3.85 Z"/>
</g>

<g id="___9____4_0_Layer0_1_FILL">
<path fill="#FFFFFF" stroke="none" d="
M 1.25 4.85
Q 1.55 5.15 2 5.15 2.45 5.15 2.75 4.85 3.05 4.55 3.05 4.1 3.05 3.7 2.75 3.4 2.45 3.1 2 3.1 1.55 3.1 1.25 3.4 0.95 3.7 0.95 4.1 0.95 4.55 1.25 4.85
M 2 4.9
Q 1.7 4.9 1.45 4.7
L 2 4.1 1.45 3.55
Q 1.65 3.3 2 3.3 2.35 3.3 2.55 3.55 2.8 3.8 2.8 4.1 2.8 4.45 2.55 4.65 2.35 4.9 2 4.9 Z"/>

<path fill="#000000" stroke="none" d="
M 1.45 4.7
Q 1.7 4.9 2 4.9 2.35 4.9 2.55 4.65 2.8 4.45 2.8 4.1 2.8 3.8 2.55 3.55 2.35 3.3 2 3.3 1.65 3.3 1.45 3.55
L 2 4.1 1.45 4.7 Z"/>
</g>
</defs>

<g transform="matrix( 12.493789672851562, 0, 0, 12.493789672851562, 0,0) ">
<g transform="matrix( 1, 0, 0, 1, 0,0) ">
<use xlink:href="#___9____4_0_Layer0_0_FILL"/>
</g>

<g transform="matrix( 1, 0, 0, 1, 0,0) ">
<use xlink:href="#___9____4_0_Layer0_1_FILL"/>
</g>
</g>
</svg>
