
<svg xmlns="http://www.w3.org/2000/svg" version="1.1" xmlns:xlink="http://www.w3.org/1999/xlink" preserveAspectRatio="none" x="0px" y="0px" width="290px" height="380px" viewBox="0 0 290 380">
<defs>
<g id="Layer0_0_FILL">
<path fill="#B4A04A" stroke="none" d="
M 160.75 270.05
Q 148.758984375 273.24375 148.75 276.75 148.802734375 280.2646484375 181.15 280.6 213.4958984375 280.979296875 234.25 275.85 254.9935546875 270.7279296875 240.75 267.45 225.1 264.8 208.2 264.8 186.5 264.8 167.2 268.75 163.8 269.2 160.75 270.05 Z"/>

<path fill="#D9C87C" stroke="none" d="
M 148.75 276.75
Q 148.758984375 273.24375 160.75 270.05 130.1 277.55 105.3 295.1 63 324.95 63 367.6 63 410.2 105.3 440.15 147.95 470.45 208.2 470.45 268.3 470.45 310.55 440.15 353.2 410.2 353.2 367.6 353.2 324.95 310.55 295.1 283.25 275.35 248.7 268.75 244.7 267.85 240.75 267.45 254.9935546875 270.7279296875 234.25 275.85 213.4958984375 280.979296875 181.15 280.6 148.802734375 280.2646484375 148.75 276.75 Z"/>
</g>

<g id="___0_Layer2_0_FILL">
<path fill="#FF0000" stroke="none" d="
M 34.55 223.6
L 33.7 252.9 81.6 254.9 77.95 226.75 34.55 223.6
M 26.5 223
L 22.25 222.7 19.8 252.35 24.65 252.55 26.5 223
M 36.1 170.65
L 35.35 195.9 73.35 191.75 70.6 170.4 36.1 170.65
M 29.85 170.7
L 26.5 170.7 24.35 197.1 28.2 196.65 29.85 170.7
M 33.05 120.75
L 30.55 120.9 28.7 143.65 31.6 143.3 33.05 120.75
M 66.45 138.7
L 63.85 118.75 37.6 120.45 36.95 142.6 66.45 138.7 Z"/>

<path fill="#FFFFFF" stroke="none" d="
M 23.3 273.6
L 24.65 252.55 19.8 252.35 18.05 273.6 23.3 273.6
M 84.05 273.6
L 81.6 254.9 33.7 252.9 33.1 273.6 84.05 273.6
M 73.35 191.75
L 35.35 195.9 34.55 223.6 77.95 226.75 73.35 191.75
M 70.6 170.4
L 66.45 138.7 36.95 142.6 36.1 170.65 70.6 170.4
M 28.2 196.65
L 24.35 197.1 22.25 222.7 26.5 223 28.2 196.65
M 31.6 143.3
L 28.7 143.65 26.5 170.7 29.85 170.7 31.6 143.3
M 31.7 106.65
L 31.65 107.7 30.55 120.9 33.05 120.75 33.95 106.45 31.75 106.65 31.7 106.65
M 63.85 118.75
L 62.85 111.05 55.7 110.95 54.6 105.2 48.4 105.6 46.6 110.2 38.8 110.75 37.95 108.7 37.6 120.45 63.85 118.75 Z"/>

<path fill="#E0E0E0" stroke="none" d="
M 19.8 252.35
L 3.6 251.65 0.7 273.6 18.05 273.6 19.8 252.35
M 33.7 252.9
L 24.65 252.55 23.3 273.6 33.1 273.6 33.7 252.9
M 10.7 198.55
L 7.65 221.6 22.25 222.7 24.35 197.1 10.7 198.55
M 35.35 195.9
L 28.2 196.65 26.5 223 34.55 223.6 35.35 195.9
M 28.7 143.65
L 17.85 145.1 14.45 170.8 26.5 170.7 28.7 143.65
M 36.95 142.6
L 31.6 143.3 29.85 170.7 36.1 170.65 36.95 142.6
M 37.95 108.7
L 36.85 106.15 33.95 106.45 33.05 120.75 37.6 120.45 37.95 108.7
M 31.65 107.7
L 31.3 110.9 22.4 111.55 21 121.5 30.55 120.9 31.65 107.7
M 62.85 111.05
L 61.45 100.35 38.15 101.75 37.95 108.7 38.8 110.75 46.6 110.2 48.4 105.6 54.6 105.2 55.7 110.95 62.85 111.05 Z"/>

<path fill="#CB0000" stroke="none" d="
M 34.55 223.6
L 26.5 223 24.65 252.55 33.7 252.9 34.55 223.6
M 22.25 222.7
L 7.65 221.6 3.6 251.65 19.8 252.35 22.25 222.7
M 24.35 197.1
L 26.5 170.7 14.45 170.8 10.7 198.55 24.35 197.1
M 36.1 170.65
L 29.85 170.7 28.2 196.65 35.35 195.9 36.1 170.65
M 30.55 120.9
L 21 121.5 17.85 145.1 28.7 143.65 30.55 120.9
M 37.6 120.45
L 33.05 120.75 31.6 143.3 36.95 142.6 37.6 120.45 Z"/>

<path fill="#999999" stroke="none" d="
M 31.65 107.7
L 31.7 106.65 31.75 106.65 33.95 106.45 36.85 106.15 37.95 108.7 38.15 101.75 23.55 102.6 22.4 111.55 31.3 110.9 31.65 107.7 Z"/>
</g>

<g id="___0_Layer2_1_FILL">
<path fill="#999999" stroke="none" d="
M 29.4 254.25
Q 28.9 255.4 28.55 256.85 27.65 260.1 27.65 264.85 27.65 265.25 27.65 265.8 27.65 267.75 27.8 269.7 27.8 270.2 27.85 270.75
L 27.95 273.6 57 273.6
Q 57 272.2 57 270.75 57 270.5 57 270.3 56.95 269.9 56.95 269.55 56.95 269.25 56.95 269
L 30.8 252.1
Q 29.95 252.95 29.4 254.25 Z"/>

<path fill="#666666" stroke="none" d="
M 33.45 249.9
Q 31.8 250.8 30.8 252.1
L 56.95 269
Q 56.95 268.85 56.95 268.8 56.85 261.2 56.55 258.95 56.45 258.15 56.35 257.3 56.05 256 55.65 254.95 54.75 252.5 53.25 251 52.5 250.2 51.5 249.55 51.35 249.55 51.3 249.5 49.4 248.5 46.95 248.05 46.6 248.05 46.2 248 45 247.85 43.55 247.85 43.15 247.85 42.65 247.85 41.65 247.85 40.7 247.95 38.6 248.05 36.9 248.55 35.8 248.9 34.95 249.15 34.65 249.3 34.4 249.45 34.1 249.55 33.9 249.7 33.65 249.75 33.45 249.9 Z"/>
</g>

<g id="___0_Layer2_1_MEMBER_0_FILL">
<path fill="#77421E" stroke="none" d="
M 54.05 268.75
Q 54.05 268.55 54.05 268.35
L 49.75 268.35 49.4 273.6 53.85 273.6
Q 54.05 271.25 54.05 268.8
L 54.05 268.75
M 41.6 268.35
L 41.5 268.35 41.9 273.6 46.2 273.6 46.3 268.35 41.6 268.35
M 52.95 256
Q 52.2 254 51.05 252.8 50.45 252.15 49.6 251.7 49.5 251.65 49.4 251.6
L 49.5 255.95
Q 49.55 255.95 49.6 255.95 51.3 256 52.95 256
M 53.65 259.2
Q 53.6 258.55 53.45 257.95 51.6 257.9 49.65 257.75 49.6 257.75 49.5 257.75
L 49.65 266.9
Q 49.75 266.9 49.8 266.9 52.1 267.05 54 267.2 53.9 261 53.65 259.2
M 34.2 268.35
L 34.1 268.35 34.15 273.6 37.95 273.6 37.95 268.2
Q 36.95 268.1 35.95 268.1
L 34.2 268.35
M 37.85 257.55
L 34.7 257.55 34.3 265.3
Q 34.4 265.3 34.5 265.35 34.7 265.4 35.1 265.4 35.3 265.45 35.5 265.5 36.65 265.6 37.95 265.75
L 37.85 257.55 Z"/>

<path fill="#B47236" stroke="none" d="
M 49.75 268.35
L 46.3 268.35 46.2 273.6 49.4 273.6 49.75 268.35
M 37.95 268.2
L 37.95 273.6 41.9 273.6 41.5 268.35 41.6 268.35
Q 41.2 268.3 40.9 268.3 39.35 268.25 37.95 268.2
M 37.85 257.55
L 37.95 265.75
Q 39.45 265.95 40.95 266.1 41.3 266.15 41.65 266.2
L 42.1 257.55 37.85 257.55
M 34.1 268.35
L 34.2 268.35 35.95 268.1
Q 35.65 268.1 35.4 268.1 35.15 268.1 34.95 268.1 34.7 268.05 34.55 268.05 31.8 267.95 30.45 267.9 30.45 268.2 30.7 273.55
L 34.15 273.6 34.1 268.35
M 34.7 257.55
L 31.05 257.55
Q 30.35 260.15 30.35 264 30.35 264.35 30.35 264.75 32.35 265 34.3 265.3
L 34.7 257.55
M 35 251.95
Q 33.7 252.6 32.8 253.65 32.2 254.4 31.75 255.45 33.25 255.55 34.85 255.6
L 35 251.95 Z"/>

<path fill="#824B26" stroke="none" d="
M 45.8 257.55
L 42.1 257.55 41.65 266.2
Q 43.45 266.35 45.2 266.55 45.45 266.55 45.7 266.55 46.05 266.6 46.4 266.65
L 45.8 257.55
M 43.2 250.25
Q 42.85 250.25 42.45 250.3
L 42.2 255.8
Q 43.95 255.85 45.7 255.9
L 45.3 250.4
Q 44.3 250.25 43.2 250.25
M 36.2 251.3
Q 36 251.4 35.8 251.55 35.6 251.65 35.35 251.75 35.15 251.85 35 251.95
L 34.85 255.6
Q 34.95 255.6 35.15 255.6 35.35 255.6 35.6 255.65 35.7 255.65 35.85 255.65 36.9 255.65 37.85 255.7
L 37.8 250.85
Q 36.95 251.05 36.2 251.3 Z"/>

<path fill="#C07E42" stroke="none" d="
M 49.5 257.75
Q 48.25 257.65 47.05 257.55
L 45.8 257.55 46.4 266.65
Q 48.1 266.8 49.65 266.9
L 49.5 257.75
M 49.4 251.6
Q 47.9 250.75 45.9 250.45 45.65 250.4 45.3 250.4
L 45.7 255.9
Q 45.85 255.9 46 255.9 47.75 255.95 49.5 255.95
L 49.4 251.6
M 37.8 250.85
L 37.85 255.7
Q 39.4 255.8 40.95 255.8 41.55 255.8 42.2 255.8
L 42.45 250.3
Q 41.6 250.3 40.9 250.35 39.2 250.45 37.8 250.85 Z"/>

<path fill="#5B3114" stroke="none" d="
M 37.95 265.75
Q 36.65 265.6 35.5 265.5 35.3 265.45 35.1 265.4 34.7 265.4 34.5 265.35 34.4 265.3 34.3 265.3 32.35 265 30.35 264.75 30.35 266.35 30.45 267.9 31.8 267.95 34.55 268.05 34.7 268.05 34.95 268.1 35.15 268.1 35.4 268.1 35.65 268.1 35.95 268.1 36.95 268.1 37.95 268.2 39.35 268.25 40.9 268.3 41.2 268.3 41.6 268.35
L 46.3 268.35 49.75 268.35 54.05 268.35
Q 54 268.1 54 267.8 54 267.45 54 267.2 52.1 267.05 49.8 266.9 49.75 266.9 49.65 266.9 48.1 266.8 46.4 266.65 46.05 266.6 45.7 266.55 45.45 266.55 45.2 266.55 43.45 266.35 41.65 266.2 41.3 266.15 40.95 266.1 39.45 265.95 37.95 265.75
M 35.15 255.6
Q 34.95 255.6 34.85 255.6 33.25 255.55 31.75 255.45 31.3 256.35 31.05 257.55
L 34.7 257.55 37.85 257.55 42.1 257.55 45.8 257.55 47.05 257.55
Q 48.25 257.65 49.5 257.75 49.6 257.75 49.65 257.75 51.6 257.9 53.45 257.95 53.25 256.85 52.95 256 51.3 256 49.6 255.95 49.55 255.95 49.5 255.95 47.75 255.95 46 255.9 45.85 255.9 45.7 255.9 43.95 255.85 42.2 255.8 41.55 255.8 40.95 255.8 39.4 255.8 37.85 255.7 36.9 255.65 35.85 255.65 35.7 255.65 35.6 255.65 35.35 255.6 35.15 255.6 Z"/>
</g>

<g id="___0_Layer1_0_FILL">
<path fill="#D90000" stroke="none" d="
M 57.8 -32.1
Q 57.4958984375 -32.3400390625 57.2 -32.5 57.0765625 -32.58671875 56.95 -32.65 55.014453125 -33.6177734375 52.15 -33.75 51.7587890625 -33.75 51.35 -33.75 49.1 -33.75 45 -32.5 43.2 -31.9 41.6 -31.4
L 41.6 -20
Q 43.25 -20.5 45.6 -21.25 49.0927734375 -22.3287109375 52.15 -22.85 55.0453125 -23.35 57.55 -23.35 58.3185546875 -23.1986328125 59 -23.05 60.5521484375 -23.29140625 61.2 -23.6 62.15 -24.05 62.15 -25.2 62.15 -27.6525390625 57.8 -32.1 Z"/>

<path fill="#AD0000" stroke="none" d="
M 74.75 -27.2
Q 72.2970703125 -26.8 70.5 -26.8 63.95 -26.8 60.1 -30.25 58.7662109375 -31.4537109375 57.8 -32.1 62.15 -27.6525390625 62.15 -25.2 62.15 -24.05 61.2 -23.6 60.5521484375 -23.29140625 59 -23.05 67.465625 -21.4 67.65 -21.4 69.6 -21.4 71.45 -22.15 72.0607421875 -22.4275390625 73.1 -22.95 72.8462890625 -22.97265625 72.7 -23 72.15 -23.1 72.15 -23.7 72.15 -25.1814453125 74.75 -27.2 Z"/>

<path fill="#D20000" stroke="none" d="
M 78.05 -27.75
Q 76.2814453125 -27.388671875 74.75 -27.2 72.15 -25.1814453125 72.15 -23.7 72.15 -23.1 72.7 -23 72.8462890625 -22.97265625 73.1 -22.95 73.9103515625 -23.371875 75 -23.95 80.5 -26.4 89.7 -26.4 92.45 -26.4 94.3 -26.35 93.7 -26.6 93.05 -26.8 88 -28.75 86.05 -28.75 82.6 -28.75 78.05 -27.75 Z"/>
</g>

<g id="___0_Layer0_0_FILL">
<path fill="#5B3114" stroke="none" d="
M 22.9 102.85
L 22.6 102.75
Q 20.2 102.85 17.5 103.05 17.65 103.15 18.2 103.7 18.9 104.25 20.2 105.45 21.5 106.65 22.6 107.6 23.75 108.5 24.2 108.75 25.8 108.5 27.9 108.25 27.9 108.2 27.85 108.2 26.85 107.15 25.4 105.5 23.95 103.75 22.9 102.85 Z"/>

<path fill="#3F1F09" stroke="none" d="
M 26.7 104.35
Q 26.4 103.45 26.1 102.55 25.25 102.6 22.8 102.75
L 22.9 102.85
Q 23.95 103.75 25.4 105.5 26.85 107.15 27.85 108.2 27.75 107.85 27.65 107.4 27.2 105.8 26.7 104.35 Z"/>

<path fill="#824B26" stroke="none" d="
M 45.95 105
L 46.8 101.65
Q 46.6 101.65 44.1 101.75 41.55 101.8 39.6 102
L 37.95 102.1
Q 38.15 103.25 38.5 104.2 38.75 105.2 38.95 106 39.3 107.45 39.5 107.85 39.75 107.8 40.2 107.75 41.7 107.65 45.35 107.4 45.65 106.1 45.95 105
M 57.65 108.6
Q 58.05 107.85 59 106.05 60.05 104.3 60.45 103.7 60.9 102.95 61.9 101.25 59.9 101.3 57.65 101.35
L 57.65 108.6
M 10.4 68
L 10.35 68.1 11.8 96.25 31.2 96.65 28.25 65.6 10.4 68
M 28.05 92.9
L 14.75 92.8 12.65 70.55 25.5 69.45 28.05 92.9 Z"/>

<path fill="#C07E42" stroke="none" d="
M 65.95 102.6
Q 66.9 101.4 67.05 101.3 67.1 101.15 67.25 101
L 61.95 101.2 61.95 101.25 61.9 101.25
Q 60.9 102.95 60.45 103.7 60.05 104.3 59 106.05 58.05 107.85 57.65 108.6
L 57.65 108.65 61.05 108.65
Q 65.1 103.75 65.95 102.6
M 61.75 103.4
L 61.75 103.2
Q 61.753125 103.3091796875 61.8 103.45 61.75 103.45 61.75 103.4
M 65.2 100.75
Q 65.15 100.75 65.15 100.8 65.2408203125 100.7546875 65.4 100.75 65.2453125 100.75 65.2 100.75
M 28.4 65.65
L 28.25 65.6 31.2 96.65 54.1 95.75 57.2 65 56.4 65 50.05 65 40 65
Q 33.4 65.15 28.4 65.65
M 34.45 93.05
L 32.25 69.3 54.15 69.45 51.1 92.95 34.45 93.05 Z"/>

<path fill="#DDA464" stroke="none" d="
M 61.75 103.2
L 61.75 103.4
Q 61.75 103.45 61.8 103.45 61.753125 103.3091796875 61.75 103.2
M 74.45 67.6
L 61.9 65.75 57.2 65 54.1 95.75 71.45 95.65
Q 71.55 95.5 71.65 95.35
L 74.45 67.6
M 60.05 71.35
L 60.1 70.05 71.95 71.5 68.95 92.25 57.5 92.9 57.55 92.6 57.75 91.15 58.05 88.7 58.5 84.6 59.05 79.8 60.05 71.35 Z"/>

<path fill="#B47236" stroke="none" d="
M 54.1 95.75
L 31.2 96.65 31.75 102.3
Q 33.05 102.2 34.65 102.2 37.15 102.1 37.75 102.1 37.8 102.1 37.85 102.1 37.9 102.1 37.95 102.1
L 39.6 102
Q 41.55 101.8 44.1 101.75 46.6 101.65 46.8 101.65
L 46.8 101.7
Q 47.5 101.65 48.2 101.65 49.15 101.6 50.2 101.6 50.4 101.6 50.65 101.6 51.15 101.55 51.6 101.55 51.95 101.55 52.35 101.55
L 52.4 101.55
Q 52.95 101.5 53.45 101.5
L 54.1 95.75
M 32.85 101.65
Q 32.9 101.3 32.95 100.95 32.9 101.35 32.9 101.65
L 32.85 101.65 Z"/>

<path fill="#585757" stroke="none" d="
M 33.15 19.65
L 41.9 1.25 41.6 -0.95
Q 36.5 10.3 33.15 19.65
M 42.2 0.5
L 42.25 0.4 42.05 -0.35 42.2 0.5 Z"/>

<path fill="#D49A59" stroke="none" d="
M 71.45 95.65
L 54.1 95.75 53.45 101.5
Q 56.8 101.4 57.65 101.35 59.9 101.3 61.9 101.25
L 61.95 101.25 61.95 101.2 67.25 101
Q 67.75 101 71.45 95.65
M 65.15 100.8
Q 65.15 100.75 65.2 100.75 65.2453125 100.75 65.4 100.75 65.2408203125 100.7546875 65.15 100.8 Z"/>

<path fill="#AFCCFF" stroke="none" d="
M 59.05 79.8
L 67.2 72.3 60.05 71.35 59.05 79.8
M 58.5 84.6
L 58.05 88.7 68.8 85.15 69.55 77.15 58.5 84.6
M 57.75 91.15
L 57.55 92.6 68.2 91.75 68.4 89.25 57.75 91.15 Z"/>

<path fill="#E9F1FF" stroke="none" d="
M 58.05 88.7
L 57.75 91.15 68.4 89.25 68.8 85.15 58.05 88.7
M 69.95 72.7
L 67.2 72.3 59.05 79.8 58.5 84.6 69.55 77.15 69.95 72.7 Z"/>

<path fill="#5375B1" stroke="none" d="
M 67.2 72.3
L 69.95 72.7 69.55 77.15 68.8 85.15 68.4 89.25 68.2 91.75 57.55 92.6 57.5 92.9 68.95 92.25 71.95 71.5 60.1 70.05 60.05 71.35 67.2 72.3 Z"/>

<path fill="#77421E" stroke="none" d="
M 11.8 96.25
L 12.7 98.25
Q 15.9 103.05 16.05 103.05 16.15 103.05 16.6 103.05 16.8 103.05 17.3 103.05 17.4 103.05 17.5 103.05 20.2 102.85 22.6 102.75
L 22.9 102.85 22.8 102.75
Q 25.25 102.6 26.1 102.55 27.65 102.5 29.2 102.45 29.45 102.45 29.75 102.45 30 102.4 30.3 102.4 30.35 102.35 30.4 102.4 31 102.3 31.75 102.3
L 31.2 96.65 11.8 96.25 Z"/>

<path fill="#2C436B" stroke="none" d="
M 14.75 92.8
L 28.05 92.9 25.5 69.45 12.65 70.55 14.75 92.8
M 14.7 72.25
L 20 71.8 24 71.4 24.75 76.1 25.45 81.3 26.05 85 26.6 89.1 26.9 91.15 27.1 92.25 15.6 91.9 15.5 89.45 15.35 86.25 15.05 79.9 14.8 74.35 14.7 72.25 Z"/>

<path fill="#BAD1FA" stroke="none" d="
M 24.75 76.1
L 24 71.4 20 71.8 24.75 76.1
M 15.35 86.25
L 15.5 89.45 26.9 91.15 26.6 89.1 15.35 86.25
M 14.8 74.35
L 15.05 79.9 26.05 85 25.45 81.3 14.8 74.35 Z"/>

<path fill="#6B8ABF" stroke="none" d="
M 15.5 89.45
L 15.6 91.9 27.1 92.25 26.9 91.15 15.5 89.45
M 15.05 79.9
L 15.35 86.25 26.6 89.1 26.05 85 15.05 79.9
M 20 71.8
L 14.7 72.25 14.8 74.35 25.45 81.3 24.75 76.1 20 71.8 Z"/>

<path fill="#4A3F36" stroke="none" d="
M 36.65 64.6
Q 37.4 64.75 38.2 64.85 38.75 64.95 39.4 65 39.55 65 39.7 65 39.85 65 40 65
L 50.05 65 41.95 1.7
Q 18.4 54.6 34.4 63.55 35.4 64.2 36.65 64.6
M 42.35 0.7
Q 42.3 0.75 42.3 0.85
L 56.4 65 57.2 65 61.9 65.75 42.35 0.7 Z"/>

<path fill="#466191" stroke="none" d="
M 32.25 69.3
L 34.45 93.05 51.1 92.95 54.15 69.45 32.25 69.3
M 35.75 70.9
L 40.4 71 45 71.15 52.05 71.25 51.9 73.25 51.2 83.3 50.95 87.3 50.7 89.9 50.5 92.4 46.95 92.4 45.45 92.35 45.1 92.35 44.15 92.35 43.95 92.35 43.15 92.35 43.05 92.35 41.75 92.35 39.2 92.35 35.4 92.3 35.4 91.35 35.3 89.35 35.25 87.6 35.15 85.65 35.05 82.2 34.6 70.85 35.75 70.9 Z"/>

<path fill="#D4E4FF" stroke="none" d="
M 44.15 92.35
L 45.1 92.35 51.2 83.3 51.9 73.25 44.15 92.35
M 43.15 92.35
L 43.95 92.35 45 71.15 40.4 71 42.95 91.75 43.15 92.35
M 46.95 92.4
L 47.1 92.35 50.7 89.9 50.95 87.3 45.45 92.35 46.95 92.4
M 35.15 85.65
L 35.25 87.6 42.4 92.3 35.15 85.65
M 35.4 91.35
L 39.2 92.35 41.75 92.35 35.3 89.35 35.4 91.35
M 35.75 70.9
L 34.6 70.85 35.05 82.2 43.05 92.35 42.95 91.75 35.75 70.9 Z"/>

<path fill="#8AABE7" stroke="none" d="
M 45.1 92.35
L 45.45 92.35 50.95 87.3 51.2 83.3 45.1 92.35
M 43.05 92.35
L 43.15 92.35 42.95 91.75 43.05 92.35
M 46.95 92.4
L 50.5 92.4 50.7 89.9 47.1 92.35 46.95 92.4
M 51.9 73.25
L 52.05 71.25 45 71.15 43.95 92.35 44.15 92.35 51.9 73.25
M 39.2 92.35
L 35.4 91.35 35.4 92.3 39.2 92.35
M 35.05 82.2
L 35.15 85.65 42.4 92.3 35.25 87.6 35.3 89.35 41.75 92.35 43.05 92.35 35.05 82.2
M 40.4 71
L 35.75 70.9 42.95 91.75 40.4 71 Z"/>

<path fill="#6D5E52" stroke="none" d="
M 42.55 0.35
Q 42.4 0.5 42.35 0.7
L 61.9 65.75 74.45 67.6 42.55 0.35
M 42.3 0.85
Q 42.1 1.25 41.95 1.7
L 50.05 65 56.4 65 42.3 0.85 Z"/>

<path fill="#7E7E7E" stroke="none" d="
M 41.9 -1.05
L 42.05 -0.35 42.25 0.4 42.4 0.1 41.9 -1.05
M 42.05 -0.35
L 41.75 -1.35 41.65 -1.55 41.55 -1.3 41.6 -0.95 41.9 1.25 42.2 0.5 42.05 -0.35 Z"/>

<path fill="#2E2621" stroke="none" d="
M 42.95 -0.6
L 42.9 -0.95 42.4 0.1 42.25 0.4 42.2 0.5 41.9 1.25 33.15 19.65 10.25 68 10.4 68 28.25 65.6 28.4 65.65
Q 33.4 65.15 40 65 39.85 65 39.7 65 39.55 65 39.4 65
L 38.75 65
Q 38.65 65 38.55 64.95
L 39.4 65
Q 38.75 64.95 38.2 64.85 37.4 64.75 36.65 64.6 35.4 64.2 34.4 63.55 18.4 54.6 41.95 1.7 42.1 1.25 42.3 0.85 42.3 0.75 42.35 0.7 42.4 0.5 42.55 0.35 42.75 -0.1 42.95 -0.6 Z"/>

<path fill="#333333" stroke="none" d="
M 41.75 -1.35
L 42.05 -0.35 41.9 -1.05 41.75 -1.35 Z"/>
</g>

<path id="___0_Layer1_0_1_STROKES" stroke="#353225" stroke-width="1" stroke-linejoin="round" stroke-linecap="round" fill="none" d="
M 41.6 -0.25
L 41.6 -20
M 41.6 -33.75
L 41.6 -31.4 41.6 -20"/>
</defs>

<g transform="matrix( 1, 0, 0, 1, -63,0) ">
<use xlink:href="#Layer0_0_FILL"/>
</g>

<g transform="matrix( 0.878662109375, 0, 0, 0.878662109375, 103.35,29.65) ">
<g transform="matrix( 1, 0, 0, 1, 0,0) ">
<use xlink:href="#___0_Layer2_0_FILL"/>
</g>

<g transform="matrix( 1, 0, 0, 1, 0,0) ">
<use xlink:href="#___0_Layer2_1_FILL"/>
</g>

<g transform="matrix( 1, 0, 0, 1, 0,0) ">
<use xlink:href="#___0_Layer2_1_MEMBER_0_FILL"/>
</g>

<g transform="matrix( 1, 0, 0, 1, 0,0) ">
<use xlink:href="#___0_Layer1_0_FILL"/>

<use xlink:href="#___0_Layer1_0_1_STROKES"/>
</g>

<g transform="matrix( 1, 0, 0, 1, 0,0) ">
<use xlink:href="#___0_Layer0_0_FILL"/>
</g>
</g>
</svg>
