
<svg xmlns="http://www.w3.org/2000/svg" version="1.1" xmlns:xlink="http://www.w3.org/1999/xlink" preserveAspectRatio="none" x="0px" y="0px" width="300px" height="192px" viewBox="0 0 300 192">
<defs>
<g id="pop_0_Layer5_0_FILL">
<path fill="#0C0A80" fill-opacity="0.2" stroke="none" d="
M 7.25 6.1
Q 7.75 5.2 7.85 4.45 7.85 4.3 7.85 4 7.7 2.15 6.05 1.6 4.15 1.1 3 2.6 1.9 4.15 3.45 5.9 4.7 7.3 2.95 7.8 3.1 7.95 3.7 7.95 3.75 7.95 3.85 7.95 4.5 8 5.5 7.6 6.7 7 7.25 6.1 Z"/>
</g>

<g id="pop_0_Layer4_0_FILL">
<path fill="#0C0A80" fill-opacity="0.2" stroke="none" d="
M 4.85 5.25
Q 4.85 4.4 4.25 3.75 3.65 3.15 2.8 3.15 1.95 3.15 1.35 3.75 0.7 4.4 0.7 5.25 0.7 6.1 1.35 6.7 1.95 7.3 2.8 7.3 3.65 7.3 4.25 6.7 4.85 6.1 4.85 5.25 Z"/>
</g>

<g id="pop_0_Layer3_0_FILL">
<path fill="#0C0A80" fill-opacity="0.2" stroke="none" d="
M 7.05 2.25
Q 7.05 1.6 6.6 1.15 6.15 0.7 5.5 0.7 4.85 0.7 4.4 1.15 3.95 1.6 3.95 2.25 3.95 2.9 4.4 3.35 4.85 3.8 5.5 3.8 6.15 3.8 6.6 3.35 7.05 2.9 7.05 2.25 Z"/>
</g>

<g id="pop_0_Layer2_0_FILL">
<path fill="#FFFFFF" fill-opacity="0.30196078431372547" stroke="none" d="
M 8.2 4.1
Q 8.2 2.4 7 1.2 5.8 0 4.1 0 2.4 0 1.2 1.2 0 2.4 0 4.1 0 5.8 1.2 7 2.4 8.2 4.1 8.2 5.8 8.2 7 7 8.2 5.8 8.2 4.1 Z"/>
</g>

<g id="pop_0_Layer1_0_FILL">
<path fill="#FFFFFF" fill-opacity="0.5019607843137255" stroke="none" d="
M 2.1 6.2
Q 3.7 5.95 2.65 3.7 1.9 1.2 4.2 0.3 3.65 0.35 3 0.55 1.7 1.1 1.1 1.9 0.5 2.75 0.4 3.5 0.35 3.65 0.35 3.95 0.4 6.2 2.1 6.2 Z"/>
</g>

<g id="pop_0_Layer0_0_FILL">
<path fill="#FFFFFF" fill-opacity="0.5019607843137255" stroke="none" d="
M 6.9 1.85
Q 6.9 1.45 6.65 1.2 6.35 0.9 6 0.9 5.6 0.9 5.35 1.2 5.05 1.45 5.05 1.85 5.05 2.2 5.35 2.5 5.6 2.75 6 2.75 6.35 2.75 6.65 2.5 6.9 2.2 6.9 1.85 Z"/>
</g>

<g id="Layer0_0_MEMBER_1_FILL">
<path fill="#FFFFFF" stroke="none" d="
M 31.6 33.85
Q 31.6 31.85 30.4 31.05 29 30.05 27 30.65 24.6 31.25 22.6 33.85 20.8 36.25 20.8 39.05 20.8 41.45 22.6 42.05 23.4 42.45 25.6 41.85 27 41.45 27.8 41.05 28.6 40.45 29.2 39.65 30.4 38.65 31 36.85 31.6 35.25 31.6 33.85
M 24.8 35.25
Q 25.8 34.05 26.8 33.65 27.4 33.45 28 33.65 28.4 34.25 28.4 35.05 28.4 36.45 27.4 37.65 26.8 38.45 25.8 38.65 24 39.25 24 37.65 24 36.45 24.8 35.25
M 15.6 34.05
Q 13.6 34.65 12 36.65 11.2 35.45 9.4 36.05 8.4 36.25 7.8 36.85 7.2 37.25 6.4 38.25 6 37.05 4.8 37.45 3.8 37.85 3.2 39.45
L 0.4 47.05 0.2 47.45
Q 0 48.05 0 48.45 0 48.85 0.4 49.25 0.8 49.45 1.4 49.25 2.8 48.85 3.6 46.85
L 5.2 42.45
Q 6 39.85 7.6 39.45 8 39.45 8.2 39.45 8.4 39.65 8.4 40.05 8.4 40.25 8.2 40.85
L 6.6 45.65
Q 6.4 46.25 6.4 46.65 6.4 47.05 6.8 47.25 7.2 47.65 7.8 47.45 9.2 47.05 10 45.05
L 11.4 40.65
Q 11.8 39.45 12.6 38.65 13.2 37.85 14 37.65 14.8 37.25 14.8 38.25 14.8 38.45 14.8 38.65
L 13.4 42.25
Q 13.2 43.45 13.2 43.85 13.2 44.65 13.6 45.05 14.2 45.25 15.2 45.05
L 18 44.25
Q 19 43.85 19.6 43.25 20.2 42.45 20.2 41.65 20.2 40.45 18.6 41.05
L 16.8 41.45 18.4 37.45
Q 18.6 36.65 18.6 36.05 18.6 34.85 17.8 34.25 16.8 33.65 15.6 34.05
M 74.45 27.4
Q 74.85 26.6 74.85 26 74.85 25.6 74.45 25.2 73.85 25 73.45 25.2 72.05 25.6 71.25 27.6
L 65.25 44.25 65.05 44.65
Q 64.85 45.25 64.85 45.65 64.85 46.05 65.25 46.45 65.65 46.65 66.25 46.45 67.65 46.05 68.45 44.05
L 69.85 39.85
Q 70.85 37.05 72.25 36.65 73.45 36.45 73.45 37.25 73.45 37.45 73.05 38.05
L 71.85 41.65
Q 71.65 42.05 71.45 42.45
L 65.45 59.05 65.25 59.45
Q 65.05 60.05 65.05 60.45 65.05 60.85 65.45 61.25 65.85 61.45 66.45 61.25 67.85 60.85 68.65 58.85
L 70.05 54.65
Q 71.05 51.85 72.45 51.45 73.65 51.25 73.65 52.05 73.65 52.25 73.25 52.85
L 72.05 56.45
Q 71.65 57.45 71.65 57.85 71.65 58.65 72.45 59.05 72.85 59.25 73.85 58.85
L 76.7 58.05
Q 77.7 57.85 78.3 57.25 78.9 56.45 78.9 55.65 78.9 54.45 77.3 54.85
L 75.65 55.45 77.1 51.45
Q 77.5 50.45 77.5 49.65 77.5 48.65 76.45 48.05 75.65 47.65 74.45 48.05 73.45 48.25 72.05 49.45
L 74.05 44.05 76.45 43.25
Q 77.5 43.05 78.1 42.45 78.7 41.65 78.7 40.85 78.7 39.65 77.1 40.05
L 75.45 40.65 76.9 36.65
Q 77.3 35.65 77.3 34.85 77.3 33.85 76.25 33.25 75.45 32.85 74.25 33.25 73.25 33.45 71.85 34.65
L 74.45 27.4
M 52.85 46.45
Q 52.85 48.05 53.85 48.65 54.65 49.45 56.25 49.05 57.05 48.85 57.85 48.05
L 57.45 49.25 54.45 50.25
Q 52.05 50.85 50.45 52.05 49.25 53.05 48.65 54.45 48.05 55.85 48.05 57.05 48.05 59.05 49.45 59.85 50.85 60.85 52.85 60.25 57.05 59.05 59.05 53.25
L 59.65 51.65 61.85 50.85
Q 63.05 50.65 63.65 50.05 64.25 49.25 64.25 48.45 64.25 47.25 62.45 47.65
L 60.85 48.25 64.25 38.65
Q 64.65 37.65 64.65 37.25 64.65 36.65 64.25 36.45 63.85 36.05 63.25 36.25 63.05 36.25 62.85 36.45 62.45 36.65 62.05 37.05 61.65 37.45 61.45 38.05
L 61.25 37.85
Q 60.45 37.05 58.85 37.65 56.65 38.25 54.65 41.05 52.85 43.85 52.85 46.45
M 57.25 42.05
Q 58.05 40.65 59.05 40.45 59.65 40.25 60.05 40.25 60.25 40.65 60.25 41.05 60.25 41.25 60.25 41.65
L 59.05 44.65
Q 58.85 45.45 57.65 45.85 56.25 46.25 56.25 44.85 56.25 43.45 57.25 42.05
M 51.85 54.45
Q 52.65 53.65 53.85 53.45
L 56.25 52.65
Q 55.25 54.85 54.65 55.85 53.85 56.85 52.85 57.25 52.05 57.45 51.65 57.05 51.25 56.65 51.25 56.05 51.25 55.05 51.85 54.45
M 50.45 48.05
L 49.05 48.45 51.05 43.05
Q 51.25 42.45 51.25 42.25 51.25 41.85 51.25 41.65 51.25 41.05 50.85 40.65 50.45 40.45 49.85 40.65 48.45 41.05 47.85 42.85
L 47.65 43.25 45.45 49.65
Q 45.05 50.25 45.05 50.85 45.05 51.65 45.85 52.05 46.45 52.25 47.85 51.85
L 49.85 51.25
Q 51.05 50.85 51.65 50.25 52.25 49.45 52.25 48.65 52.25 47.45 50.45 48.05
M 43.45 30.45
Q 43.45 28.4 42.25 27.6 40.85 26.6 38.85 27.2 36.45 27.8 34.4 30.45 32.6 32.85 32.6 35.65 32.6 38.05 34.4 38.65 35.25 39.05 37.45 38.45 38.85 38.05 39.65 37.65 40.45 37.05 41.05 36.25 42.25 35.25 42.85 33.45 43.45 31.85 43.45 30.45
M 38.65 30.25
Q 39.25 30.05 39.85 30.25 40.25 30.85 40.25 31.65 40.25 33.05 39.25 34.25 38.65 35.05 37.65 35.25 35.85 35.85 35.85 34.25 35.85 33.05 36.65 31.85 37.65 30.65 38.65 30.25
M 52.25 36.25
Q 51.65 35.65 50.85 36.05 50.05 36.25 49.45 37.05 48.85 37.65 48.85 38.45 48.85 39.25 49.45 39.85 50.05 40.05 50.85 39.85 51.65 39.45 52.25 39.05 52.65 38.25 52.65 37.45 52.65 36.65 52.25 36.25
M 56.25 24.6
Q 56.25 23.6 55.25 23
L 55.05 23
Q 54.25 22.6 53.25 23 51.85 23.4 50.45 25 49.85 24 48.85 24.4 47.65 24.8 47.05 26.4
L 44.25 34.05 44.05 34.45
Q 43.85 34.85 43.85 35.05 43.65 35.45 43.45 35.85
L 43.45 36.05 37.85 51.65
Q 37.45 52.65 37.45 53.05 37.45 53.85 38.05 54.25 38.65 54.45 39.65 54.25
L 42.05 53.45
Q 43.25 53.25 43.85 52.65 44.45 51.85 44.45 51.05 44.45 49.85 42.65 50.25
L 41.25 50.85 46.85 35.45
Q 47.05 35.05 47.05 34.85 47.25 34.25 47.45 33.85
L 49.05 29.45
Q 50.05 26.8 51.45 26.4 51.85 26.4 52.05 26.4 52.45 26.8 52.45 27 52.45 27.4 52.25 27.8
L 51.05 31.25
Q 50.65 32.25 50.65 32.65 50.65 33.45 51.25 33.85 51.65 34.25 52.65 34.05
L 55.45 33.05
Q 56.45 32.85 57.05 32.25 57.85 31.45 57.85 30.65 57.85 29.45 56.05 29.85
L 54.45 30.45 55.85 26.2
Q 56.05 25.8 56.25 25.6 56.25 25 56.25 24.6
M 97.1 42.65
Q 97.1 42.05 96.5 41.85 96.1 41.65 95.5 41.85 94.3 42.25 93.5 44.45
L 91.5 49.65
Q 91.1 50.45 91.1 51.25 91.1 52.25 91.9 52.85 92.7 53.45 94.1 53.05
L 96.1 52.45
Q 97.1 52.05 97.9 51.05 98.3 51.65 99.5 51.45
L 101.9 50.65
Q 103.1 50.25 103.7 49.65 104.290625 49.059375 104.3 48.55 104.312890625 49.6470703125 106.1 49.25
L 108.9 48.45
Q 110.9 47.85 112.1 46.25 113.5 44.65 113.5 43.05 113.5 41.45 112.3 40.25
L 111.5 39.25
Q 110.9 38.65 110.9 37.65 110.9 37.45 110.9 37.25
L 110.9 36.65
Q 110.9 36.05 110.5 35.85 110.1 35.65 109.7 35.85 108.7 36.05 107.9 37.65
L 106.1 41.85
Q 105.7 42.65 105.7 43.25 105.7 43.65 106.1 44.05 106.7 44.25 107.3 44.05 108.3 43.85 108.9 42.25
L 109.1 41.45 109.7 42.45
Q 110.1 43.05 110.1 43.65 110.1 45.05 108.3 45.65
L 106.7 46.05
Q 105.5 46.45 104.9 47.05 104.309375 47.640625 104.3 48.2 104.29375 47.64375 103.9 47.25 103.5 47.25 102.5 47.45
L 100.9 48.05 102.9 42.45
Q 103.3 41.45 103.3 41.05 103.3 40.45 102.9 40.25 102.5 39.85 101.9 40.05 100.5 40.45 99.7 42.65
L 97.9 47.45
Q 97.5 49.05 95.7 49.45 94.9 49.85 94.9 49.25 94.9 49.05 95.1 48.45
L 95.1 48.05 96.7 44.05 96.7 43.85
Q 97.1 43.05 97.1 42.65
M 85.9 44.65
Q 83.5 45.25 81.5 47.85 79.7 50.25 79.7 53.05 79.7 55.45 81.5 56.05 82.3 56.45 84.5 55.85 85.9 55.45 86.7 55.05 87.5 54.45 88.1 53.65 89.3 52.65 89.9 50.85 90.5 49.25 90.5 47.85 90.5 45.85 89.3 45.05 87.9 44.05 85.9 44.65
M 83.7 49.25
Q 84.7 48.05 85.7 47.65 86.3 47.45 86.9 47.65 87.3 48.25 87.3 49.05 87.3 50.45 86.3 51.65 85.7 52.45 84.7 52.65 82.9 53.25 82.9 51.65 82.9 50.45 83.7 49.25
M 86.1 29.85
L 86.7 28.65
Q 86.9 27.6 86.9 27 86.9 26.6 86.5 26.4 86.1 26.2 85.5 26.4 84.1 26.8 83.5 28.4
L 83.3 28.85 82.7 30.85 82.1 31.05
Q 80.9 31.25 80.3 32.05 79.7 32.65 79.7 33.45 79.7 34.65 81.3 34.25
L 81.5 34.25 79.9 38.65 79.5 39.45
Q 79.3 40.05 79.3 40.65 79.3 41.45 79.9 41.85 80.5 42.05 81.5 41.85
L 84.1 41.05
Q 85.1 40.65 85.7 40.05 86.3 39.25 86.3 38.45 86.3 37.25 84.7 37.85
L 83.1 38.25 84.9 33.25 85.9 32.85
Q 87.1 32.45 87.7 31.85 88.3 31.45 88.3 30.45 88.3 29.25 86.5 29.65
L 86.1 29.85
M 125.35 41.85
Q 125.35 40.65 123.55 41.25
L 119.55 42.45
Q 117.9 42.85 117.9 41.85
L 120.75 41.05
Q 122.35 40.65 123.15 39.65 124.75 38.45 124.75 36.45 124.75 35.05 123.55 34.45 122.55 33.65 120.75 34.25 118.3 35.05 116.5 37.45 114.7 40.05 114.7 42.65 114.7 44.65 115.7 45.45 116.9 46.25 119.15 45.45
L 122.95 44.45
Q 124.15 44.05 124.75 43.45 125.35 42.65 125.35 41.85
M 120.15 38.65
L 118.5 39.05
Q 119.35 37.45 120.55 37.05 121.55 36.85 121.55 37.65 121.55 38.25 120.15 38.65 Z"/>
</g>

<g id="Layer0_0_MEMBER_2_MEMBER_0_FILL">
<path fill="#FFFFFF" stroke="none" d="
M 87.3 14.4
Q 95.1 22.2 97.1 32.65 97.3 33.45 98.1 34.05 98.7 34.45 99.5 34.25 100.3 34.05 100.9 33.45 101.3 32.65 101.1 31.85 98.7 20.2 90.1 11.6 83.7 5.2 75.65 2.4 69.25 0 62.05 0
L 61.85 0
Q 61.45 0 61.05 0 60.05 0 59.25 0.2 52.65 0.6 46.85 2.8 39.45 5.6 33.4 11.6 28.6 16.4 25.8 22.2 25.4 22.8 25.8 23.8 26 24.4 26.8 24.8 27.4 25.2 28.4 25 29 24.6 29.4 24 31.8 18.8 36.25 14.4 41.65 9 48.25 6.6 53.45 4.6 59.45 4.2
L 59.85 4.2
Q 60.25 4 61.05 4 61.45 4 61.85 4
L 62.05 4
Q 68.65 4 74.25 6 81.5 8.6 87.3 14.4 Z"/>
</g>

<g id="Layer0_0_MEMBER_2_MEMBER_1_FILL">
<path fill="#FFFFFF" stroke="none" d="
M 90.1 68.25
Q 93.3 65.25 95.7 61.85 96.3 61.25 96.1 60.45 95.9 59.45 95.3 59.05 94.7 58.45 93.9 58.65 92.9 58.85 92.5 59.45 90.1 62.45 87.3 65.45 76.9 76.1 61.85 76.1 61.45 76.1 61.05 76.1 60.25 76.1 59.25 76.1 45.85 75.1 36.25 65.45 29.4 58.65 27.2 49.85 27 49.05 26.2 48.65 25.4 48.05 24.8 48.45 24 48.45 23.6 49.25 23 50.05 23.4 50.85 25.8 60.65 33.4 68.25 44.25 79.1 59.25 80.1 60.05 80.1 61.05 80.1 61.45 80.1 61.85 80.1 78.5 80.1 90.1 68.25 Z"/>
</g>
</defs>

<g transform="matrix( 19.16900634765625, 0, 0, 19.16876220703125, 69.65,17.35) ">
<g transform="matrix( 1, 0, 0, 1, 0,0) ">
<use xlink:href="#pop_0_Layer5_0_FILL"/>
</g>

<g transform="matrix( 1, 0, 0, 1, 0,0) ">
<use xlink:href="#pop_0_Layer4_0_FILL"/>
</g>

<g transform="matrix( 1, 0, 0, 1, 0,0) ">
<use xlink:href="#pop_0_Layer3_0_FILL"/>
</g>

<g transform="matrix( 1, 0, 0, 1, 0,0) ">
<use xlink:href="#pop_0_Layer2_0_FILL"/>
</g>

<g transform="matrix( 1, 0, 0, 1, 0,0) ">
<use xlink:href="#pop_0_Layer1_0_FILL"/>
</g>

<g transform="matrix( 1, 0, 0, 1, 0,0) ">
<use xlink:href="#pop_0_Layer0_0_FILL"/>
</g>
</g>

<g transform="matrix( 2.3932952880859375, 0, 0, 2.3932647705078125, 0,0.15) ">
<use xlink:href="#Layer0_0_MEMBER_1_FILL"/>
</g>

<g transform="matrix( 2.3932952880859375, 0, 0, 2.3932647705078125, 0,0.15) ">
<use xlink:href="#Layer0_0_MEMBER_2_MEMBER_0_FILL"/>
</g>

<g transform="matrix( 2.3932952880859375, 0, 0, 2.3932647705078125, 0,0.15) ">
<use xlink:href="#Layer0_0_MEMBER_2_MEMBER_1_FILL"/>
</g>
</svg>
