
<svg xmlns="http://www.w3.org/2000/svg" version="1.1" xmlns:xlink="http://www.w3.org/1999/xlink" preserveAspectRatio="none" x="0px" y="0px" width="852px" height="907px" viewBox="0 0 852 907">
<defs>
<g id="___0_Layer0_0_FILL">
<path fill="#CCCCCC" stroke="none" d="
M 161.55 471.25
Q 158.75 473.85 157.85 475.85 165.25 474.15 171.25 470.75 164.3 468.65 161.55 471.25
M 152.65 476.7
Q 154.044140625 476.5408203125 155.4 476.3 154.7990234375 476.03984375 154.3 475.8 152.041015625 474.85 152 474.85 151.9 474.85 150.25 474.75 148.6 474.65 146.65 475.65 144.65 476.6 144.05 477.35 148.529296875 477.275390625 152.65 476.7
M 132.65 401.9
Q 136.25 404.8 140.6 406.5 140.75 406.45 140.9 406.45
L 141 406.45
Q 139.7 402.25 137.65 400.65 135.35 398.9 130.7 398.85 130.05 398.85 129.4 398.85 130.85 400.45 132.65 401.9
M 155.05 409.05
Q 155.65 409.05 156.25 409.05 152.55 404.45 146.65 404.45 146.15 404.45 143.6 405.45 141.4 406.3 141 406.45 141 406.55 141.05 406.7 147.3 409.05 155.05 409.05
M 172.95 469.7
Q 174.8 468.5 176.5 467.15 179.85 464.45 182.45 461.2 175.9 460.55 174.4 463.4 172.9 466.25 172.95 469.7
M 182.35 458.4
Q 182.65 459.45 183.4 459.95 184.8 457.95 186 455.75 188.55 450.8 189.75 444.9 184.8 446.2 183.35 449.1 181.9 451.95 181.9 454.25 181.9 456.55 182.2 457.95 182.25 458.2 182.35 458.4
M 189.9 422.8
Q 189.25 424.75 187.85 427.7 186.4 430.6 186.65 435.2 186.9 439.8 190 443.55 190.75 439.05 190.75 434.05 190.75 428.2 189.9 422.8
M 207.05 399.15
Q 209.9 406.3 210.8 414 210.9 412.95 210.9 409.6 210.9 406.25 210.35 403.85 209.8 401.35 207.05 399.15
M 267.8 405.05
Q 267.3 406.15 267.15 406.65 267.05 407.1 267.05 409.15 267.05 411.6 269.3 413.15 271.15 414.4 273.05 414.4 275.3 414.4 275.65 414.25 275.95 414.15 276.7 413.75 273.5 411.65 271.5 409.4 269.3 406.9 267.8 405.05
M 298.2 423.65
Q 299.6 422.9 300.3 421.85 293.4 421.05 287.95 419.25 289.45 424.45 293.15 424.4 296.8 424.35 298.2 423.65
M 287.5 419.1
Q 285.7 418.45 284.1 417.75 279.85 415.85 276.8 413.85 276.9 416.8 278.4 418.7 279.9 420.55 281.95 420.65 284 420.75 287.5 419.1
M 261.1 392.4
Q 260.35 394 260.2 394.85 260.05 395.4 259.75 397.65 259.45 399.9 261.75 402.35 264 404.8 267.2 404.3 266.35 403.2 265.75 402.35 263.9 399.75 262.45 396.75 261.7 395.15 261.1 392.4
M 259.85 382.95
Q 259.8 382.3 259.8 381.65 259.8 380.45 259.85 379.35
L 259.8 379.3
Q 258.55 380.35 257.7 382.1 256.55 384.35 256.55 386.75 256.55 387.35 256.65 387.9 257 390.05 258.7 391.2 259.7 391.85 261.05 392.15 260.65 390.3 260.3 387.9 260.15 387 260.05 386 259.85 384.5 259.85 382.95
M 267.15 312.45
L 267.1 312.5
Q 268.5 314.85 271.35 316.2 274 317.45 276.65 317.45 277.4 317.45 279.7 315.4 280.4 314.8 280.95 314.2
L 280.9 314.15
Q 280 314.1 279.15 314.05 273.2 313.7 267.15 312.45
M 265 314.85
Q 266.15 314.05 267.1 312.5 267.1 312.45 267.1 312.4 263.1201171875 311.5642578125 259.15 310.3 258.1201171875 309.996875 257.1 309.65 256.4 311.5 255.6 313.25 256.3 313.95 257.15 314.55 257.6736328125 314.9076171875 258.2 315.15 259.6982421875 315.95 261.15 315.95 263.45 315.95 265 314.85
M 295.5 327.5
Q 295.8123046875 326.18671875 296.05 324.8 293.65 326.2 292.55 327.25 292.425 327.375 292.3 327.5 292.275 327.525 292.25 327.55 291.2 328.65 291.15 330.9 291.1 333.15 292.55 335.5 286.85 335.2 285.3 337.5 283.75 339.8 283.85 341.75 283.8923828125 342.9767578125 284.2 344 284.2806640625 344.215234375 284.35 344.4 284.45 344.75 284.65 345.1 284.35 344.8 284 344.55 283.8896484375 344.46484375 283.75 344.4 282.784765625 343.7 281.75 343.7 280.25 343.7 277.65 344.5 275.05 345.3 274.25 347.45 274.2 347.5 274.2 347.65 273.95 348.2 273.8 348.9 273.5751953125 349.8552734375 273.45 351 273.4 351.8923828125 273.4 352.9 271.4 352.4 270.1 352.4 268.75 352.35 266.25 353.5 263.75 354.65 262.5 358.2 261.25 361.75 261.6 363.5 261.8 364.65 262.05 365.45 259.7 366.55 258.3 368.45 256.55 370.8 256.55 373.9 256.55 376.05 258.6 378.2 259.1 378.7 259.8 379.3
L 259.85 379.25
Q 260.1 370.8 262.15 365.85 262.15 365.95 262.2 366.05 262.4 365.6 262.6 365.2 263.3 363.75 264.15 362.45 264.5 361.85 264.95 361.25 267.25 358.15 270.85 355.4 270.9 355.3 271 355.25
L 274 353.15
Q 274.63515625 352.707421875 275.35 352.2 276.2376953125 351.6427734375 277.25 351 277.5873046875 350.7787109375 277.95 350.55 279.3 349.7 280.45 348.9 282.75 347.35 284.3 346.1 284.6 345.85 284.85 345.6 287.6 343.4 289.6 340.8 290.2626953125 339.9478515625 290.8 339.05 290.8681640625 339.0005859375 290.9 338.95 291.7 337.7 292.45 336.35 292.5 336.2 292.55 336.1 293 335.2 293.4 334.25 294.6876953125 331.159375 295.5 327.5
M 291.7 316.85
Q 292.1 316.6 292.55 316.25 293.05 315.85 293.7 315.3 293.5 315.8 293.4 317 293.25 319.25 294.4 321.15 295.55 323 296.25 323.35 296.8 319.05 296.8 314.1 296.8 313.85 296.8 313.65 296.8 312.2 296.7 310.7 295 312.35 294.4 313.8 293.4 313.8 292.55 313.9 292.15 313.9 291.8 313.9 285.75 314.25 281 314.15 280.95 314.15 280.95 314.2 282.55 317 283.4 317.6 283.95 317.95 287.15 317.95 289.9 317.95 291.7 316.85
M 198.4 383.9
Q 199.85 385.95 201.15 387.9 203.3 391.3 204.85 394.3 205.15 394.85 205.4 395.4 206.2 397.05 206.9 398.75 206.9 398.05 206.9 397.2 206.9 392.1 205.4 389.4 205.15 388.95 204.85 388.5 204.65 388.2 204.4 387.9 202.4 385.35 198.4 383.35 198.4 383.6 198.4 383.9
M 192.8 376.5
Q 195.55 379.95 197.8 383.05 198.1 383.2 198.4 383.35 198.4 383.05 198.4 382.7 198.4 377.4 196.9 375.85 195.8 374.8 189.9 372.1 189.85 372.45 189.85 372.8 191.25 374.55 192.8 376.5
M 189.9 369.45
Q 189.9 365.3 186.55 362.3 183.95 359.95 179.75 358.75 179.95 359.05 180.15 359.4 182.35 363.2 189 371.65 189.45 371.85 189.9 372.1 189.9 371.05 189.9 369.45
M 199.1 327.5
Q 199.475 327.35 199.85 327.2 198.2 326.25 196.6 325.9 194.95 325.55 193.35 325.75 191.75 325.95 190.15 327.25 190.01171875 327.3626953125 189.85 327.5 188.5796875 328.7033203125 186.65 331.8 192.45 330.3 198.1 327.95 198.5 327.8 198.9 327.6 199.0125 327.55 199.1 327.5
M 175.3 344.15
Q 175.05 344.3 174.8 344.5 175.2560546875 347.7623046875 176.3 351 176.7830078125 352.37734375 177.35 353.75 177.9 355.15 178.65 356.55 179.1 356.5 179.55 356.4 179.9 355.05 179.9 353.2 179.9 352.095703125 179.65 351 179.358203125 349.46640625 178.6 347.95 177.4 345.5 175.3 344.15
M 180.65 329.95
Q 179.95 329.95 178.75 330.25 178.2 330.4 177.75 330.5 176.855859375 328.980078125 175.45 327.5 175.31953125 327.3248046875 175.15 327.15 175.12890625 327.3248046875 175.1 327.5 174.7419921875 330.630078125 174.6 333.85 174.45 336.65 174.45 339.6 174.45 339.85 174.45 340.1 174.5 341.9 174.7 343.75 175 343.95 175.3 344.15 175.85 343.75 176.35 343.35 176.55 343.1 176.75 342.9 179.4 340.2 179.4 335.95 179.4 334.65 179 333.3 182.75 332.75 186.45 331.85 184 329.95 180.65 329.95
M 180.9 316.7
Q 180.9 314.05 180.6 313.3 180.1 312 178.55 310.2 176.2 318.1 175.2 326.5 176.5 325.35 177.75 323.8 180.9 319.9 180.9 316.7
M 214.1 318.5
Q 213.7 318.45 213.4 318.45 211.4 318.45 209.75 318.75 207.45 319.1 205.85 319.95 202.15 322 200.1 327.1 203.65 325.45 206.8 323.6 210.8 321.25 214.1 318.5
M 215.25 317.45
Q 217.25 315.7 218.95 313.75 222.55 309.6 224.65 305 221.8 305.8 219.35 307.75 214.65 311.5 215.25 317.45
M 209.9 287.2
Q 209.9 290.9 212.1 292.95 214.05 294.7 216.95 294.5 216.9 294.85 216.9 295.2 216.9 298.35 219 299.15 219.9 299.5 222.45 299.5 222.7 301.5 224.45 302.95 224.85 303.3 225.25 303.55 226.1 301.3 226.65 298.95 227.45 295.4 227.45 291.65 227.45 290.9 227.45 290.2 224.6 292.35 223.75 293.5 222.8 294.75 222.55 296.8 219.5 295 217.1 292.85 216.35 292.2 215.7 291.55 212.7 288.6 210.2 284.6 209.9 286.55 209.9 287.2
M 187.3 294.65
Q 186.9 294.05 185.5 293.05 181.65 300.25 179.15 308.15 181.75 306.7 183.75 305.05 187.9 301.6 187.9 298.45 187.9 295.55 187.3 294.65
M 195.15 281.35
Q 194.75 280.4 194.25 279.65 193.5 280.55 192.8 281.45 188.8 286.85 185.65 292.75 187.65 292.4 189.95 291.5 195.9 289.15 195.9 284.7 195.9 283.15 195.15 281.35
M 194.45 279.45
Q 195.35 279.45 197.4 279.45 200.55 279.45 203 278.05 203.5 282.45 205.9 283.8 207.1 284.5 210.15 284.55 208.85 282.45 207.65 280.05 206.7 278.1 205.75 275.75 207.15 273.95 207.35 271.4 207.4 270.95 207.4 270.45 207.4 270 207.4 269.75 205.7 270.6 204.35 271.4 204.25 271.5 204.1 271.55 202.95 272.2 202 272.85 197.6 275.8 194.45 279.45
M 162.6 268.5
Q 162.8 268.55 163.45 268.6 164.6 267.1 165.85 265.7 166.85 264.5 167.9 263.4 167.45 263.65 167 263.95 164.1 265.65 160.8 267.55 162.1 268.35 162.6 268.5
M 227.4 289.9
Q 227.1 284.3 224.95 277.85 223.95 279.25 223.6 280.1 223.4 280.65 223.4 282.7 223.4 286.2 224.6 287.5 225.25 288.25 227.4 289.9
M 218.5 268.6
Q 218.4 268.85 218.4 270.45 218.4 273.1 222.15 275.7 223.55 276.65 224.75 277.25 223.95 275 223 272.7 221.35 268.8 219.55 265.65 219.15 266.8 218.5 268.6
M 207.75 269.55
Q 208.95 270.45 210.4 270.45 210.75 270.45 211.1 270.45 213.95 270.2 216.35 268.2 218.25 266.6 218.8 264.45 218.65 264.25 218.55 264.05 216.05 265.4 212.35 267.2 211.7 267.5 211.1 267.8 209.3 268.7 207.75 269.55
M 289.45 286.25
Q 289.2 286.2 288.95 286.2 288.65 287.35 288.25 288.8 287.8 290.25 287.4 293 287 295.75 290 296.45 291.25 296.7 292.55 297 293.35 297.15 294.2 297.3 294.05 296.85 293.9 296.4 293.3 294.5 292.55 292.7 291.2 289.35 289.45 286.25
M 273.55 270.35
L 273.55 270.4
Q 273.4 271.15 273.4 274.1 273.4 277 276.7 277.55 280 278.1 281.65 278 281.55 278.3 281.5 278.55 281.4 279.1 281.2 282.2 280.95 285.25 288.95 286.2 289.05 285.9 289.1 285.65 287.4 282.75 285.4 280.1 284.5 278.9 283.55 277.8 282.9 277.05 282.25 276.35 278.95 272.75 275.15 270.1 274.5 269.6 273.8 269.15 268.55 265.7 262.45 263.95 262.35 267.95 264.75 269.65 267.15 271.35 269.85 270.9 272.55 270.45 273.55 270.35
M 294.5 298.2
Q 294.3 298.15 294.1 298.1 293.15 298.55 292.55 299.25 292.05 299.85 291.8 300.55 291.2 302.15 291.3 304.55 291.35 306.3 292.55 307.4 292.95 307.8 293.5 308.1 295.65 309.25 296.6 309.1 296.05 303.6 294.5 298.2
M 124.65 386.05
Q 124.55 386.05 124.5 386.1 124.45 386.6 124.45 387.1 124.45 387.5 124.5 387.9 124.65 391.4 126.6 394.85 126.65 394.9 126.65 394.95 127.65 396.8 129.05 398.45 129.1 397.95 129.15 397.45 129.6 393.05 128.75 390.5 128.2 389 127.25 387.9 126.2 386.75 124.65 386.05
M 129.15 375.1
Q 128.85 374.15 127.8 372.3 126.35 375.2 125.55 378.35 124.6 382 124.5 385.95 124.55 386 124.65 386.05 127.3 384.55 128.15 383.35 129.3 381.65 129.3 377.7 129.3 375.55 129.15 375.1
M 147.4 355.1
Q 145.7751953125 355.709375 144.2 356.45 141.9580078125 357.5138671875 139.85 358.85 138 360.05 136.4 361.35 136.05 361.65 135.7 361.95 131.35 365.75 128.55 370.8 128.4 371.1 128.25 371.4 130.6 371.3 133.15 370.6 137.8 368.65 137.8 365.7 137.8 364.3 137.7 364.1 137.35 363.5 136.9 362.5 137.1 362.55 137.25 362.65 138.05 362.95 139.3 362.95 143.1189453125 362.95 144.9 361.1 145.154296875 360.9072265625 145.35 360.65 146.5 359.1 147.4 355.1
M 37.65 302.15
Q 36.3 303.05 35.1 303.9 33.7 304.85 32.55 305.65 31.5 306.35 30.65 306.95 29.65 307.65 28.7 308.35 29 308.55 29.35 308.75 30.4 309.45 31.55 309.45 34.65 309.45 36.5 305.65 36.5 305.6 36.55 305.5 36.9 304.7 37.2 303.9 37.5 303 37.65 302.15
M 41.3 301.95
Q 43.5 301.95 45 299 45.6 297.75 45.95 296.4 42.05 299.05 38.9 301.25 39.35 301.6 39.7 301.75 40.1 301.95 41.3 301.95
M 80.25 284.9
Q 80.2 284.85 80.15 284.9 78.85 284.9 77.55 284.95 74.2 284.95 70.75 284.9 71.95 286.25 72.2 286.45 72.25 286.5 72.35 286.55 73.3 287.15 75.8 287.15 78.05 287.15 79.65 285.55 79.9 285.3 80.25 284.9
M 60.25 284.7
Q 60.15 284.75 60.05 284.85 56.8 287.85 55.4 289.05 55.85 289.15 56.3 289.15 58.55 289.15 59.6 287.05 60.1 286.05 60.25 285 61.15 285.65 62.1 286 63.65 286.65 65.8 286.65 67.3 286.65 68.6 285.6 68.95 285.35 69.5 284.85 69.05 284.85 68.6 284.85 64.7 284.7 60.65 284.45 60.74375 284.2625 60.85 284.1 60.7375 284.259375 60.55 284.4 60.4 284.55 60.25 284.7
M 48.25 294.7
Q 49.15 295.25 49.4 295.35 49.6 295.45 50.8 295.45 52.85 295.45 54.15 293.45 54.7 292.55 55.1 289.3 52.05 291.9 48.25 294.7
M 57.45 261.5
Q 56.3 262.55 56.2 264.85 56.05 267.1 56.25 268.15 56.45 269.15 56.8 269.15 56.85 269.15 56.95 269.15 57.55 267.9 58.1 266.2 59.3 262.6 59.8 259.3 58.55 260.4 57.45 261.5
M 59.6 250
Q 58.75 250.8 58.7 250.8 57.55 252.25 57.5 253.95 57.4 255.6 57.85 256.2 58.3 256.75 59.85 259 60.1 256.9 60.1 254.95 60.1 252.2 59.6 250
M 34.95 266.65
Q 34.5 263.5 33.95 261.9 32.8 258.8 29.85 258.25 30.85 263.15 34.95 266.65
M 35.55 266.95
Q 35.4 266.9 35.25 266.9 37.55 268.8 40.7 270.25 41.85 270.8 43.1 271.25 41.9 269.5 41.5 269.1 39.45 267.1 35.55 266.95
M 32.1 250.25
Q 31.45 249.65 30.95 249.2 29.5 251.8 29.5 254.95 29.5 256.5 29.75 257.9 30.5 257.35 31.7 256.45 32.85 255.5 32.8 253.2 32.75 250.85 32.1 250.25
M 38.5 242.4
Q 36.45 243.3 34.65 244.8 32.65 246.4 31.45 248.3 32.6 248.45 34.95 248 37.25 247.5 37.8 245.65 38.3 243.85 38.5 242.4
M 51.6 241.25
Q 51.3 244.3 53.3 245.75 55.25 247.15 59.05 248.3 59.2 248.3 59.35 248.35 59.15 248.25 59 248.15 59.25 247.9 58.75 247.1 58.4 246.55 58.1 246 57.95 245.65 57.8 245.3 57.5 245.25 57.1 244.8 55 242.25 51.6 241.25
M 49.95 240.9
Q 48.5 240.65 46.85 240.65 43.05 240.65 39.85 241.85 40.75 243.4 41.2 243.7 41.6 244 42.7 244.5 43.75 244.95 46 244.7 48.25 244.45 49.3 242.45 49.35 241.95 49.6 241.45 49.75 241.1 49.95 240.9
M 138.85 276.75
Q 139.95 277.45 140.8 277.7 141.45 277.9 143.95 277.9 147.65 277.9 149.35 275.7 150.15 274.65 150.7 272.8 146.95 274.3 142.4 275.7 141.15 276.05 139.9 276.45 139.55 276.5 139.25 276.6 139.05 276.65 138.85 276.75
M 132.45 280.9
Q 135.8 280.9 137.5 278.3 137.85 277.75 138.2 276.9 133.2 278.2 127.15 279.3 129.6 280.9 132.45 280.9
M 159.1 270.1
Q 159.55 269.1 159.85 268.15 158.7 268.8 157.5 269.5 155.8 270.45 153.85 271.4 153.7 271.45 153.55 271.55 152.45 272.05 151.25 272.55 151.95 272.85 152.75 273.1 154.45 273.65 155.2 273.65 157.55 273.65 159.1 270.1
M 112.9 283.05
Q 113.3 282.5 114 281.35 113.5 281.4 113.1 281.5 113 281.5 112.95 281.5 112.9 281.5 112.85 281.5 108.05 282.15 103.25 282.75 104.15 283.55 105.55 284 107.45 284.65 109.55 284.65 111.7 284.65 112.9 283.05
M 119.6 280.55
Q 117.25 280.9 114.95 281.25 117.55 282.65 120.8 282.65 122.95 282.65 124.35 281.45 125.1 280.85 125.95 279.55 125.15 279.65 124.4 279.8 122.05 280.2 119.6 280.55
M 94.7 285.5
Q 96.15 286.15 98.05 286.15 100.1 286.15 101.5 284.55 101.9 284.1 102.7 282.85 102.2 282.9 101.7 282.95 97.1 283.5 92.5 284.05 93.65 285 94.7 285.5
M 92.1 284.1
Q 92.05 284.05 92 284.1 89.85 284.3 87.6 284.5 84.7 284.7 81.7 284.85 82.95 286.05 83.6 286.45 84.75 287.15 86.8 287.15 88.95 287.15 91.05 285.15 91.5 284.7 92.1 284.1
M 106.1 225.55
Q 106.25 227.5 107.05 229.25 108.5 232.4 111.05 232.4 112.05 232.4 114.8 231.05 109.95 228.55 106.1 225.55
M 99.85 219.7
Q 98.6 218.25 97.6 216.8 97.55 217.95 97.55 219.15 97.55 222.9 99.3 224.4 100.8 225.65 104.05 225.65 105.05 225.65 105.95 225.45 102.5 222.75 99.85 219.7
M 93.35 207.2
Q 92.95 207 92.6 206.8 92.1 207.75 91.95 208.6 91.9072265625 208.75703125 91.85 209 91.8 209.60703125 91.8 210.75 91.8 213.2146484375 93 214.6 94.380859375 216.2359375 97.35 216.45 94.2 211.8 93.35 207.2
M 138.4 241.75
Q 139.25 242.65 141.55 242.65 144.15 242.65 146.35 240.85 146.65 240.6 146.95 240.35 144.95 239.75 139.25 238.95 138 238.8 136.75 238.55 137.6 240.9 138.4 241.75
M 122.2 236.65
Q 123.1 236.65 124.75 235.65 124.9 235.55 125.1 235.45 121.35 234.1 117.55 232.4 116.25 231.8 115 231.15 115.5 233.95 117 235.25 118.65 236.65 122.2 236.65
M 125.3 235.5
Q 126.1 238.25 126.95 239.3 128.15 240.65 130.2 240.85 132.2 241 133.25 240.5 134.3 240 136 238.4 130.7 237.4 125.3 235.5
M 93.1 196.45
Q 92.95 196.35 92.85 196.3 89.8 201.15 89.8 202.9 89.8 205.1 92.35 206.65 92.45 206.7 92.6 206.8 92.85 206.3 93.15 205.8 93.1 205.2 93.1 204.65 92.9 200.55 93.1 196.45
M 93.9 184.7
Q 94 184.6 94.1 184.5 94.45 179.75 94.85 173.1 93.05 175.45 92.5 176.35 91.3 178.25 91.3 180 91.3 181.7 93.45 184.2 93.65 184.45 93.9 184.7
M 94.05 184.9
Q 93.95 184.8 93.9 184.7 91.3 187.7 91.2 187.8 90.05 189.4 90.05 191.25 90.05 193.7 92.05 195.6 92.45 195.95 92.85 196.3 92.95 196.1 93.1 195.9 93.25 192.75 93.6 189.55 93.85 187.5 94.05 184.9
M 94.9 172.35
Q 95.1 169.2 95.3 165.6 95.4 163.25 95.3 161.05 93.75 163.15 93.25 164.1 92.55 165.45 92.55 167.25 92.55 169.7 93.7 171.2 94.15 171.75 94.9 172.35
M 93.1 150.1
Q 92.95 150.05 92.85 150.05 91.05 152.3 91.05 154.5 91.05 157.1 93.6 159.5 94.45 160.25 95.3 160.8 95 154.8 93.1 150.1
M 86.75 141.2
Q 86.45 142 86.35 142.6 86.3 143 86.3 144.15 86.3 147.35 88.5 148.65 89.6 149.35 92.85 150.05 92.9 149.95 93 149.85 90.85 144.75 86.75 141.2
M 32.35 153.4
Q 32.25 153.25 32.15 153.15 31.55 156.45 31.55 160.15 31.55 161.3 32.1 163.7 32.15 163.9 32.2 164.1 32.25 164 32.3 163.95 32.55 163.65 32.75 163.3 34.3 161 34.3 159 34.3 157.15 33.2 154.85 32.8 154.05 32.35 153.4
M 36.75 142.15
Q 35.15 144.35 34.05 146.9 33.3 148.65 32.75 150.55 32.5 151.5 32.3 152.55 32.25 152.7 32.2 152.9 32.3 152.9 32.4 152.9 34.45 152.8 36.05 150.4 37.55 148.15 37.55 145.65 37.55 144.1 37 142.75 36.9 142.45 36.75 142.15
M 77.7 134.75
Q 77.7 134.65 77.7 134.6 73.75 132.35 70.4 131.8 69.933984375 131.709765625 69.5 131.6 68.4892578125 131.4548828125 67.65 131.35 68.153125 132.9431640625 69.5 134.3 69.7591796875 134.5916015625 70.05 134.85 71.2 135.9 72.1 136.4 73 136.9 73.7 136.9 74.65 136.9 75.6 136.4 76.65 135.85 77.7 134.75
M 77.8 134.65
Q 77.75 134.7 77.7 134.75 77.55 135.45 77.55 135.9 77.55 136.15 77.6 136.4 77.8 138.9 80.3 140.15 82.3 141.15 84.8 141.15 84.9017578125 141.15 85 141.15 85.9646484375 141.1408203125 86.6 141.05 85.79140625 140.345703125 85 139.7 82.756640625 137.84140625 80.65 136.4 79.2 135.4 77.8 134.65
M 45.05 135.5
Q 45.05 135.15 45.05 134.8 45 134.75 44.95 134.75 43.65 135.5 42.4 136.4 42.25 136.5 42.1 136.65 41.45 137.15 40.85 137.65 40.4 138.05 40 138.45 38.35 139.95 37.05 141.7 37.4 141.8 37.75 141.9 39.35 142.4 40.05 142.4 44.7 142.4 45.05 136.4 45.05 135.95 45.05 135.5
M 58.2 130.9
Q 57.15 130.9 56 131.05 56.8 132.9 58.15 133.95 59.65 135.15 61.55 135.15 63.85 135.15 65.9 133.25 66.9 132.35 67.55 131.3 63.15 130.65 62.3 130.75 61.1 130.85 58.2 130.9
M 55.8 131.05
Q 53.8 131.3 51.45 132 50.8 132.15 50.15 132.4 47.45 133.25 45.05 134.65 45.05 134.75 45.05 134.8 46.05 135.55 47.25 136.05 47.8 136.25 48.3 136.4 49.25 136.65 50.2 136.65 51 136.65 51.75 136.4 53.5 135.8 54.75 133.6 55.5 132.3 55.8 131.05
M 345.25 316.45
Q 347.25 313.2 345.8 311.8 341.75 313.9 337.5 315.35 336.4 315.7 335.3 316 333.50625 316.493359375 331.65 316.85 331.615234375 316.88828125 331.55 316.9 329.3779296875 317.3779296875 327.15 317.7 327 317.7 326.9 317.7 326.45 318.75 325.95 319.8 326 319.85 326.05 319.95 327.15 321.25 327.95 321.65 328.55 321.95 330.55 322.1 330.8849609375 322.12578125 331.2 322.1 332.869140625 321.9408203125 334.65 320.45 336.8 318.6 336.75 316.45
L 339 318.2
Q 343.2 319.7 345.25 316.45
M 381.25 276.35
Q 381.1 276.25 380.95 276.2 377.25 281.05 375.05 284 374.3 285 373.5 286.05 372.8 286.95 372.1 287.8 368.65 292.2 365.35 295.85 364.9 296.35 364.45 296.8 360.25 301.35 356.35 304.7 355.85 305.1 355.4 305.5 354.05 306.55 352.75 307.5 350.65 309 348.45 310.35 348.3 310.4 346.4 311.75 347.45 312.8 350.85 313.65 354.15 314.5 355.35 311.5 356.5 308.45 356.2 305.85 356.55 305.95 357.1 306.2 357.65 306.45 360.75 306.2 363.8 305.95 364.6 302.9 365.4 299.8 365.4 297.75 365.85 298.1 368.15 297.85 370.4 297.55 372.4 296.45 374.4 295.35 373 287.65 373.75 288.45 377.55 287.8 381.35 287.1 381.95 284.55 382.45 281.95 382.05 279.75 381.65 277.55 381.25 276.35
M 327.5 222.3
Q 327.25 222.35 327.05 222.35 326.35 224.4 325.45 226.45 323.65 230.55 321.15 234.35 318.5 238.2 315.15 241.7 314.4 242.5 313.6 243.25 312.8 244 312 244.75 308.75 247.6 305.2 249.85 305.1 249.85 305.05 249.9
L 305.1 249.9
Q 305.9228515625 250.259375 306.75 250.6 308.85 251.55 310.8 252.55 311 252.45 311.2 252.3 314.4 250.3 314.4 246.65 314.4 245.5 314.35 244.9 317.9 245.7 320.55 243.05 323.1 240.4 322.6 237 322.25 235.05 322 234.4 322.3 234.4 322.65 234.4 326.55 234.4 328.45 231.9 329.9 229.95 329.9 226.9 329.9 224.1 328.75 223.05 328.1 222.7 327.5 222.3
M 331.55 209
Q 330.6 208.05 329.45 207.7 329.45 207.9 329.45 208.05 329.45 214 327.8 219.8 327.5 220.9 327.15 222.05 327.3 222.15 327.5 222.3 330.05 221.75 331.4 218.4 331.45 218.35 331.45 218.3 331.65 217.75 332.25 216.15 332.85 214.55 332.65 212.25 332.45 209.9 331.55 209
M 345 212.2
Q 344.65 212.35 344.3 212.55 342.55 213.35 340.75 214.2 337.05 215.9 332.55 217.85 335.55 219.85 336.95 220.35 338.3 220.85 340.45 220.9 342.55 220.95 343.65 217.9 344.75 214.8 344.95 212.85 346 213.35 347.3 214 348.55 214.65 351.2 214.65 353.85 214.65 355 211.8 356.1 208.9 356 206.35 350.8 209.3 345 212.2
M 424.3 250.6
Q 420.9 249.85 417.1 249.85 414.15 249.85 411.3 250.5 410.7 250.6 410.1 250.8 404.6 252.2 399.4 255.95 398.9 256.25 398.45 256.65 396.15 258.35 393.95 260.5 391.95 262.45 389.65 265.1 389.35 265.4 389.05 265.75 386.85 268.3 384.45 271.45 382.7 273.8 381.2 275.85 381.2 276.1 381.25 276.35 383.6 276.4 386.45 276.05 389.3 275.7 389.9 273.6 390.45 271.45 390.25 269.15 390.05 266.8 389.75 265.9 391.4 265.95 394.5 265.7 397.6 265.45 398.3 263 399 260.55 399.35 257.2 400.05 257.6 401.8 257.95 403.45 258.3 405.4 258.45 407.3 258.6 408.8 256.2 410.3 253.8 410.85 251.65 412.35 253.2 413.75 254.05 415.1 254.85 417.2 254.95 419.25 255.05 424.3 250.6
M 443.15 266.15
Q 440.65 260.9 437.05 257.35 435.8 256.1 434.4 255.1 430.05 251.85 424.45 250.6 424.35 256.5 428.4 258 430.9 258.95 434.7 258.05 434.45 262.7 436.65 264.05 438.8 265.35 440.6 265.65 442.4 265.95 443.15 266.15
M 376.85 191.65
Q 375.75 192.65 374.6 193.6 371.45 196.2 367.95 198.75 367.5 199.05 367.1 199.35 362.2 202.75 356.65 206 360.25 208.4 361.9 208.4 366.2 208.4 367.45 203.2 367.75 201.85 367.9 199.75 368.7 200.15 369.25 200.3 369.7 200.4 370.9 200.4 374.35 200.4 375.9 197.4 376.9 195.4 376.9 192.65 376.9 192.15 376.85 191.65
M 329.05 192
Q 328.7 191.85 328.4 191.75 328.7 194.95 328.95 197.8 329 198 329 198.25 329.1 199.7 329.2 201.15 329.45 204.6 329.45 207.6 330.8 206.25 331.65 204.2 332.75 201.65 333.15 198.3 332.9 198.35 333.1 197.1 333.3 195.8 332.45 194.35 331.65 193 329.05 192
M 326.75 176.4
Q 326.85 178 327 179.65 327.35 183.6 327.9 187.75 328.15 189.6 328.35 191.4 328.7 191 329.05 190.7 330.55 189.2 330.95 188.25 331.4 187.1 331.8 184.7 332.2 182.3 330.9 179.9 329.55 177.45 326.75 176.4
M 326.35 164.5
Q 326.35 164.85 326.35 165.2 326.35 170.1 326.7 175.3 327.9 174 329.2 172.85 330.45 171.65 330.9 169.6 331.3 167.45 329.5 166.1 327.65 164.7 326.75 164.25 326.55 164.35 326.35 164.5
M 327.1 150.4
Q 327.1 150.6 326.9 150.85 326.4 156.8 326.35 164.05 326.55 164.15 326.75 164.25 329.75 161.65 330.55 159.35 331.25 157 331.05 155.9 330.8 154.8 330.45 154.1 330.05 153.45 327.7 151 327.4 150.7 327.1 150.4
M 330.5 140.6
Q 329.55 138.45 329.1 138.1 328.9 138.15 328.75 138.3 328.05 141.2 327.55 144.7 327.2 147.3 326.95 150.25 327.15 150.3 327.1 150.4 327.4 150.2 327.65 149.95 329.05 148.75 330.15 147.6 331.4 146.15 331.4 144.5 331.4 142.8 330.5 140.6
M 360 120.3
Q 359.6 120 359.2 119.75 358.7 120.9 358.5 121.75 358.4 122.25 358.4 123.15 358.4 127.1 362.45 128.4 362.7 128.45 364.25 128.7 364.6 128.6 365.05 128.55 364.45 123.55 360 120.3
M 349.75 117.35
Q 349.05 117.4 348.45 117.45 344.25 117.9 340.9 119.7 340.35 119.95 339.9 120.25 336 122.6 333.3 126.85 333.05 127.2 332.85 127.55 331.5 129.8 330.45 132.55 329.75 134.3 329.2 136.4 329 137.1 328.85 137.9 328.95 137.95 329.1 138.1 330.55 137.25 331.6 136.4 332.5 135.65 333.05 134.9 334.4 133.15 334.4 130.15 334.4 128.75 333.95 127.8 334.6 127.9 334.9 127.9 338.45 127.9 339.9 125.4 340.75 123.85 340.9 121.1 342.4 122.4 342.8 122.65 343.2 122.9 344.9 122.9 347.65 122.9 348.8 120.7 349 120.35 349.2 119.85 349.7 120.85 350.55 121.75 352.6 123.9 354.65 123.9 355.2 123.9 357.1 122.1 358.6 120.7 359.15 119.7 355.4 117.3 351.35 117.3 350.55 117.3 349.75 117.35
M 403.9 143.25
Q 402.05 140.8 401.25 139.65 400.4 146.55 398.95 152.85 398.8 153.3 398.7 153.8 397.05 160.45 394.6 166.4 394.55 166.45 394.55 166.5 394.45 166.75 394.35 167 391.65 173.35 387.9 178.95 387.6 179.35 387.3 179.8 382.85 186.2 376.95 191.6 377.4 191.75 377.5 191.8 377.8 191.9 378.9 191.9 385.1 191.9 386.95 189.9 388.4 188.25 388.4 182.9 388.4 181.35 388.15 179.9 391.9 179.9 394.3 178.15 396.65 176.35 396.65 173.5 396.65 170.7 395.95 168.75 395.2 166.75 395.15 166.75 398.05 165.75 400.1 164.65 402.1 163.5 402.15 160.75 402.2 158 400.95 155.85 399.65 153.65 399.45 153.45 400.7 152.7 401.75 151.5 403.9 149.05 404.85 147.4 405.75 145.7 403.9 143.25
M 365.1 130.05
Q 365.1 129.4 365.05 128.8 364.6 128.75 364.25 128.7 361.1 129.4 359.75 131.05 358.4 132.6 358.4 135.65 358.4 136.05 358.45 136.4 358.7 138.5 360.4 139.9 360.45 139.95 360.55 140 360.85 140.2 361.3 140.5 361.7 140.15 362.1 139.75 362.7853515625 139.0287109375 363.3 138.1 363.5189453125 137.776171875 363.7 137.4 363.95 136.9 364.15 136.4 365.1 133.8 365.1 130.05
M 404.65 112.6
Q 402.85 111.15 399.55 109 399.45 109.2 399.35 109.5 401.3 115.3 401.85 121.75 401.9 122.5 401.95 123.25 402.15 126.25 402 129.4 401.85 133 401.55 136.4 401.45 137.65 401.3 138.9 402.85 137.65 404 136.4 404.65 135.65 405.2 134.85 406.6 132.8 407.15 131.15 407.7 129.45 405.65 126.3 403.6 123.1 402.75 122.45 404.9 120.15 405.7 117.1 406.45 114.05 404.65 112.6
M 398.35 96.9
Q 396.4 95.65 391.85 95.4 396.55 101.55 399.1 108.7 399.3 108.85 399.55 109 399.6 108.75 399.7 108.55 400.9 105.35 400.9 103.15 400.9 98.5 398.35 96.9
M 382 85
Q 381.7 85.05 381.3 85.15 386.45 89 390.25 93.45 390.85 94.15 391.4 94.85 391.35 90.55 390.4 88.4 388.85 84.9 384.65 84.9 382.7 84.9 382 85
M 379.9 81.55
Q 378.65 76.4 374.65 76.4 373.1 76.4 370.55 77.45 369.95 77.7 369.4 77.9 369.7 78.1 370.05 78.3
L 369.3 77.95 369.25 77.95
Q 373.85 80.25 377.35 82.45 378.9 83.45 380.35 84.5 380.2 82.8 379.9 81.55
M 339.9 58.15
Q 339.9 52.3 337.3 50.8 335.25 49.65 329.65 49.7 329.55 49.9 329.5 50.1 333.2 54.35 339.8 58.95 339.9 58.4 339.9 58.15
M 358.65 67.4
Q 356.75 67.4 356.3 67.5 355.35 67.8 354 68.15 359.1 71.65 366.85 76.35 366.65 74.7 366.3 73.45 364.55 67.4 358.65 67.4
M 346.1 63
Q 349.619921875 65.200390625 352.45 67.1 352.2 66.2 352 65.45 351.615625 64.0947265625 351.1 63 349.0677734375 58.4 345.15 58.4 344.05 58.4 342.7 58.9 341.8 59.2 340.7 59.55 342.3 60.6 344.05 61.7 345.1169921875 62.3626953125 346.1 63
M 330.4 45.9
Q 330.4 41.65 327.1 38.9 325.6 37.65 323.6 36.9 323.35 37 323.15 37.15 324.05 40.7 325.95 44.8 327.05 47.2 329.15 49.7 329.4 49.7 329.65 49.7 330.4 47.7 330.4 45.9
M 326.65 23.6
Q 325.5 22.95 324.4 22.3 322.3 27.35 322.3 30.9 322.3 33.6 323.05 36.75 323.3 36.8 323.6 36.9 324.65 36.25 325.7 35.3 328.9 32.4 328.9 29.15 328.9 25.3 326.65 23.6
M 328.95 13.5
Q 328.645703125 13.9890625 328.35 14.5 326 18.5 324.6 21.9 326.9 21.1 328.5 20 331.9 17.8 331.9 14.65 331.9 14.046875 331.8 13.5 331.62578125 12.05234375 330.9 11 329.83984375 12.1697265625 328.95 13.5 Z"/>

<path fill="#A16561" stroke="none" d="
M 316.1 336.05
Q 318.82578125 331.727734375 321.5 327.5 322.110546875 326.5728515625 322.7 325.65 322.068359375 326.5783203125 321.4 327.5 319.15625 330.5603515625 316.45 333.55 310.0955078125 340.5498046875 296.85 351 296.7453125 351.075 296.65 351.15 283.15 361.75 278.75 366.55 271 375.1 271 383.65 271 393.95 281.55 402.4 290.85 409.9 300.65 410.4 295.6 408.15 290.35 404.25 280.65 397.1 278.7 387.9 278.35 386.45 278.25 384.9 277.4 373.85 284.4 367.45 288.95 363.25 292.55 360.25 294.45 358.65 296.1 357.4 299.41796875 354.79296875 303.35 351 304.4080078125 349.9919921875 305.5 348.9 306.05 348.3 306.7 347.7 312.55 341.6 316.1 336.05
M 174.7 343.75
Q 174.75 344.1 174.8 344.5 175.05 344.3 175.3 344.15 175 343.95 174.7 343.75
M 216.7 239.55
Q 216.5 241 216.5 241.4 216.5 248.7 209.45 256.95
L 194 272.45
Q 183.6 282.9 178.55 292.2 171.5 305.1 171.5 320.4 171.5 324.310546875 171.7 327.5 172.1306640625 334.42421875 173.5 337.95 173.9 339 174.45 340.1 174.45 339.85 174.45 339.6 174.45 336.65 174.6 333.85 174.7419921875 330.630078125 175.1 327.5 175.12890625 327.3248046875 175.15 327.15 175.15 326.8 175.2 326.5 176.2 318.1 178.55 310.2 178.55 310.15 178.55 310.1 178.85 309.1 179.15 308.15 181.65 300.25 185.5 293.05 185.55 292.9 185.65 292.75 188.8 286.85 192.8 281.45 193.5 280.55 194.25 279.65 194.3 279.55 194.45 279.45 197.6 275.8 202 272.85 202.95 272.2 204.1 271.55 204.25 271.5 204.35 271.4 205.7 270.6 207.4 269.75 207.4 270 207.4 270.45 207.4 270.95 207.35 271.4 207.15 273.95 205.75 275.75 206.7 278.1 207.65 280.05 208.85 282.45 210.15 284.55
L 210.2 284.6
Q 212.7 288.6 215.7 291.55 216.35 292.2 217.1 292.85 219.5 295 222.55 296.8 222.8 294.75 223.75 293.5 224.6 292.35 227.45 290.2 227.45 290.9 227.45 291.65 227.45 295.4 226.65 298.95 226.1 301.3 225.25 303.55 224.95 304.3 224.65 305 222.55 309.6 218.95 313.75 217.25 315.7 215.25 317.45 214.65 317.95 214.1 318.5 210.8 321.25 206.8 323.6 203.65 325.45 200.1 327.1 199.95 327.15 199.85 327.2 199.475 327.35 199.1 327.5 199.0125 327.55 198.9 327.6 198.5 327.8 198.1 327.95 192.45 330.3 186.65 331.8 186.55 331.8 186.45 331.85 182.75 332.75 179 333.3 179.4 334.65 179.4 335.95 179.4 340.2 176.75 342.9 176.55 343.1 176.35 343.35 175.85 343.75 175.3 344.15 177.4 345.5 178.6 347.95 179.358203125 349.46640625 179.65 351 179.9 352.095703125 179.9 353.2 179.9 355.05 179.55 356.4 183 355.85 186.3 355.3 196.55 353.45 204.85 351.3 205.43359375 351.15078125 206 351 209.8623046875 349.987890625 213.3 348.9 214.45 348.55 215.55 348.15 219.5 346.8 223.05 345.3 212.15 346.95 203.25 344.7 194.35 342.45 192.9 338 191.45 333.55 195.55 330.9 198.3021484375 329.1212890625 201.7 327.5 203.375390625 326.70625 205.2 325.95 217.15 321.85 225.85 313.45 239 300.75 239 283.65 239 274.05 231.55 262.75 226.65 255.6 223.75 251.2 219.85 245.35 216.7 239.55
M 210.4 270.45
Q 208.95 270.45 207.75 269.55 209.3 268.7 211.1 267.8 211.7 267.5 212.35 267.2 216.05 265.4 218.55 264.05 218.65 264.25 218.8 264.45 218.25 266.6 216.35 268.2 213.95 270.2 211.1 270.45 210.75 270.45 210.4 270.45
M 218.4 270.45
Q 218.4 268.85 218.5 268.6 219.15 266.8 219.55 265.65 221.35 268.8 223 272.7 223.95 275 224.75 277.25 223.55 276.65 222.15 275.7 218.4 273.1 218.4 270.45
M 224.95 277.85
Q 227.1 284.3 227.4 289.9 225.25 288.25 224.6 287.5 223.4 286.2 223.4 282.7 223.4 280.65 223.6 280.1 223.95 279.25 224.95 277.85
M 311.45 252.95
Q 311.1 252.75 310.8 252.55 308.85 251.55 306.75 250.6 307.05 250.75 307.35 250.9 311.25 252.9 311.45 252.95
M 248.6 237.85
Q 248.2666015625 237.490234375 247.9 237.1 250.75 244.9 254.1 252.25 254.592578125 253.340625 255.05 254.3 258.411328125 261.7552734375 259.25 263.3 259.25 263.2 259.2 263.1 260.85 263.45 262.45 263.95 268.55 265.7 273.8 269.15 274.5 269.6 275.15 270.1 278.95 272.75 282.25 276.35 282.9 277.05 283.55 277.8 284.5 278.9 285.4 280.1 287.4 282.75 289.1 285.65 289.25 285.95 289.45 286.25 291.2 289.35 292.55 292.7 293.3 294.5 293.9 296.4 294.05 296.85 294.2 297.3 293.35 297.15 292.55 297 291.25 296.7 290 296.45 283.2 295 278.75 293.25 270.4 289.95 262.45 283.35 262.5548828125 291.1806640625 260.3 299.8 259.348828125 303.49921875 257.95 307.35 257.5 308.55 257.1 309.65 258.1201171875 309.996875 259.15 310.3 263.1201171875 311.5642578125 267.1 312.4
L 267.15 312.45
Q 273.2 313.7 279.15 314.05 280 314.1 280.9 314.15 280.95 314.1 281 314.15 285.75 314.25 291.8 313.9 292.15 313.9 292.55 313.9 293.4 313.8 294.4 313.8 295 312.35 296.7 310.7 296.8 312.2 296.8 313.65 296.8 313.85 296.8 314.1 296.8 319.05 296.25 323.35 296.15 324.05 296.05 324.8 295.8123046875 326.18671875 295.5 327.5 294.6876953125 331.159375 293.4 334.25 293 335.2 292.55 336.1 292.5 336.2 292.45 336.35 291.7 337.7 290.9 338.95 290.8681640625 339.0005859375 290.8 339.05 290.2626953125 339.9478515625 289.6 340.8 291.2701171875 339.39140625 292.8 337.7 295.0580078125 335.187109375 297 332.05 298.3484375 329.8587890625 299.45 327.5 305 315.864453125 305 300.15 305 286.8 299.75 279.5 296.15 274.5 286.25 268.7 273.55 261.3 267.9 256.45 259.0123046875 248.86640625 248.6 237.85
M 294.1 298.1
Q 294.3 298.15 294.5 298.2 296.05 303.6 296.6 309.1 295.65 309.25 293.5 308.1 292.95 307.8 292.55 307.4 291.35 306.3 291.3 304.55 291.2 302.15 291.8 300.55 292.05 299.85 292.55 299.25 293.15 298.55 294.1 298.1
M 286.1 220.4
Q 295.9 218.5 302 209.35 293.4 215.6 275.35 215.65 257.3 215.7 252.7 200.75 252.35 201.9 252.8 205.75 254.7 214 260.45 216.85 266.2 219.7 271.25 221 276.3 222.25 286.1 220.4
M 302.05 209.25
Q 302.1 209.1 302.2 208.95 299.3 210 302.05 209.25
M 150.5 360.95
Q 150.85 361.65 151.2 362.35 155.8 371.35 167.3 383.85 169.4 386.1 171.05 387.9 173.4 390.5 174.9 392.25 175.45 392.9 175.9 393.45 176.9 394.6 177.8 395.8 179.1 393.75 182.55 389.1 182.7876953125 388.754296875 183 388.4 183.316015625 388.019140625 183.6 387.65 183.55 387.75 183.6 387.9 183.6 388.75 183.6 389.65 183.6 390.8 183.55 391.9 183.25 396.75 181.8 401.4 182.65 402.75 183.45 404.1 185.6 407.9 185.35 406.55 188.95 417.15 189.9 422.8 190.75 428.2 190.75 434.05 190.75 439.05 190 443.55 189.9 444.2 189.75 444.9 188.55 450.8 186 455.75 187.45 454.2 188.35 452.25 189.9 446.6 190.55 444.4 192.0603515625 439.560546875 192.7 437.35 193.1232421875 436.0259765625 193.2 435.7 193.546875 433.86640625 193.55 428.25 193.55 428.2001953125 193.55 428.15 193.55 419.15 192.1 413.8 190.9 409.25 186.45 398.6 187 393.2 186.95 389.4 186.85 382.95 186.45 380.9 186.05 378.85 186 378.95 185.78671875 379.2029296875 185.55 379.45 182.34765625 383.3224609375 180 386.75 179.6 387.35 179.2 387.9 171.55 382.25 166.55 378.1 157.45 370.55 150.5 360.95
M 144 334.3
Q 143.93671875 333.2431640625 143.9 332.15 140.95 332.95 132.85 338.15 126.4 342.3 121 348.2 128.2 343.85 132.3 343.55 135.2986328125 343.3279296875 132 351 130.87109375 353.6896484375 128.95 357.35 126.55 361.95 125 365.4 124 367.2 123.4 368.6 121.3 373.85 121.3 379.75 121.3 387.35 124.45 392.15 125.35 393.5 126.65 394.95 126.65 394.9 126.6 394.85 124.65 391.4 124.5 387.9 124.45 387.5 124.45 387.1 124.45 386.6 124.5 386.1 124.5 386.05 124.5 385.95 124.6 382 125.55 378.35 126.35 375.2 127.8 372.3 128 371.85 128.25 371.4 128.4 371.1 128.55 370.8 131.35 365.75 135.7 361.95 136.05 361.65 136.4 361.35 138 360.05 139.85 358.85 141.9580078125 357.5138671875 144.2 356.45 145.7751953125 355.709375 147.4 355.1 147.65 355 147.95 354.9 147.8 354.45 147.65 353.95 147.158203125 352.4966796875 146.7 351 144.5095703125 343.240234375 144 334.3
M 39.4 283.85
Q 38.55 284.3 37.75 284.8 28.45 289.95 20.75 297.1 18.77734375 298.908203125 17 300.75 15.53359375 302.3177734375 14.2 303.9 13.45 304.75 12.75 305.65 8.75 310.6 5.95 316 0.5 326.35 0 337.35 1.55 334.3 3.55 331.4 8.15 324.8 15.8 318.25 16.38046875 317.744921875 17 317.2 21.7171875 313.2556640625 28.7 308.35 29.65 307.65 30.65 306.95 31.5 306.35 32.55 305.65 33.7 304.85 35.1 303.9 36.3 303.05 37.65 302.15 38.25 301.7 38.9 301.25 42.05 299.05 45.95 296.4 46 296.35 46.05 296.3 47.15 295.5 48.25 294.7 52.05 291.9 55.1 289.3 55.25 289.2 55.4 289.05 56.8 287.85 60.05 284.85 60.15 284.75 60.25 284.7 60.4 284.55 60.55 284.4 60.5 284.4 60.45 284.4 60.35 284.4 60.25 284.4 59.85 284.4 59.5 284.45 58.15 284.5 57 284.5 56.2 284.5 55.5 284.5 51.45 284.5 47.85 284.2
L 47.8 284.2
Q 43.95 283.9 40.65 283.25 40.05 283.55 39.4 283.85
M 46.85 240.65
Q 48.5 240.65 49.95 240.9 50.8 241 51.6 241.25 55 242.25 57.1 244.8 57.5 245.25 57.8 245.3 57.95 245.65 58.1 246 58.4 246.55 58.75 247.1 59.25 247.9 59 248.15 59.15 248.25 59.35 248.35 59.2 248.3 59.05 248.3 59.1 248.4 59.15 248.5 59.4 249.2 59.6 250 60.1 252.2 60.1 254.95 60.1 256.9 59.85 259 59.8 259.15 59.8 259.3 59.3 262.6 58.1 266.2 57.55 267.9 56.95 269.15 56.25 270.5 55.6 271.4 54.15 273.3 52.45 273.3 51.05 273.05 50.6 273.15 50.55 273.2 50.3 273.3 55.35 274.3 61.1 274.3 64.7 274.3 68.4 274.1 68.9640625 273.0845703125 69.5 272.05 69.6765625 271.7345703125 69.85 271.4 70.9 269.15 71.65 266.85 73.35 261.55 73.35 255.95 73.35 255.65 73.35 255.35 71.207421875 255.21171875 69.5 254.65 67.501953125 253.990234375 66.1 252.75 64.8 251.55 62.1 246.9 60.85 244.75 59.4 243.2 58.15 241.9 56.75 241.05 52.3 238.4 44.05 238.4 36.8 238.4 32.05 241.4 26.0498046875 245.193359375 26.35 252.2 26.7037109375 259.2154296875 29.55 262.6 32.396875 265.9783203125 35.25 266.9 35.1 266.8 34.95 266.65 30.85 263.15 29.85 258.25 29.8 258.1 29.75 257.9 29.5 256.5 29.5 254.95 29.5 251.8 30.95 249.2 31.15 248.75 31.45 248.3 32.65 246.4 34.65 244.8 36.45 243.3 38.5 242.4 39.15 242.05 39.85 241.85 43.05 240.65 46.85 240.65
M 92 284.1
Q 92.05 284.05 92.1 284.1 92.15 284.05 92.25 284.05 92.35 284.05 92.45 284.05 92.45 284 92.5 284.05 97.1 283.5 101.7 282.95 102.2 282.9 102.7 282.85 102.95 282.8 103.25 282.75 108.05 282.15 112.85 281.5 112.9 281.5 112.95 281.5 113 281.5 113.1 281.5 113.5 281.4 114 281.35 114.45 281.3 114.95 281.25 117.25 280.9 119.6 280.55 122.05 280.2 124.4 279.8 125.15 279.65 125.95 279.55 126.55 279.4 127.15 279.3 133.2 278.2 138.2 276.9 138.5 276.8 138.85 276.75 139.05 276.65 139.25 276.6 139.55 276.5 139.9 276.45 141.15 276.05 142.4 275.7 146.95 274.3 150.7 272.8 150.95 272.65 151.25 272.55 152.45 272.05 153.55 271.55 153.7 271.45 153.85 271.4 155.8 270.45 157.5 269.5 158.7 268.8 159.85 268.15 160.3 267.85 160.8 267.55 164.1 265.65 167 263.95 168.25 261.95 169.35 260.25 170.7884765625 258.003125 172.2 255.1 176.0248046875 247.542578125 179.8 235.6 178.42265625 239.4259765625 174.45 244.5 171.948828125 247.69609375 168.4 251.4 159.2 260.95 142.05 269.05 124.9 277.1 107.6 280.75 90.3 284.4 80.3 284.4 79.5 284.4 77.55 284.95 78.85 284.9 80.15 284.9 80.2 284.85 80.25 284.9 81 284.85 81.7 284.85 84.7 284.7 87.6 284.5 89.85 284.3 92 284.1
M 51.45 132
Q 53.8 131.3 55.8 131.05 55.9 131.05 56 131.05 57.15 130.9 58.2 130.9 61.1 130.85 62.3 130.75 63.15 130.65 67.55 131.3 67.6 131.3 67.65 131.35 68.4892578125 131.4548828125 69.5 131.6 69.933984375 131.709765625 70.4 131.8 73.75 132.35 77.7 134.6 77.75 134.6 77.8 134.65 79.2 135.4 80.65 136.4 82.756640625 137.84140625 85 139.7 85.79140625 140.345703125 86.6 141.05 86.65 141.1 86.7 141.15 86.75 141.15 86.75 141.2 90.85 144.75 93 149.85 93.05 150 93.1 150.1 95 154.8 95.3 160.8 95.3 160.95 95.3 161.05 95.4 163.25 95.3 165.6 95.1 169.2 94.9 172.35 94.9 172.7 94.85 173.1 94.45 179.75 94.1 184.5 94.05 184.7 94.05 184.9 93.85 187.5 93.6 189.55 93.25 192.75 93.1 195.9 93.1 196.15 93.1 196.45 92.9 200.55 93.1 204.65 93.1 205.2 93.15 205.8 93.25 206.5 93.35 207.2 94.2 211.8 97.35 216.45 97.5 216.6 97.6 216.8 98.6 218.25 99.85 219.7 102.5 222.75 105.95 225.45 106 225.5 106.1 225.55 109.95 228.55 114.8 231.05 114.9 231.1 115 231.15 116.25 231.8 117.55 232.4 121.35 234.1 125.1 235.45 125.2 235.45 125.3 235.5 130.7 237.4 136 238.4 136.35 238.5 136.75 238.55 138 238.8 139.25 238.95 144.95 239.75 146.95 240.35 148.6 240.8 147.05 243.45 146.7 244.05 146.15 244.7 148.9 242.25 155.8 234.4 161.2619140625 228.170703125 166.65 219.25 167.221484375 218.2916015625 167.8 217.3 167.55 217.55 167.35 217.75 167.215234375 217.776953125 167.1 217.8 166.9921875 217.85390625 166.9 217.9 162.6 219.25 158.6 219.25 145.05 219.25 136.95 214.7 132.2 212 129 208.5 118.15 203.1 113.75 198.3 109.3 193.5 106.2 186.6 103.1 179.65 102.55 168 102 156.3 98.9 148.7 95.75 141.05 92.25 136.2 89.6681640625 132.584765625 85 129.9 83.344140625 128.9939453125 81.4 128.15 75.539453125 125.6609375 69.5 124.85 68.0171875 124.6673828125 66.5 124.55 58.9578125 124.1083984375 49.05 126.75 45.155078125 127.81171875 38.65 134.3 32.1408203125 140.825 30.5 149.7 28.859375 158.6353515625 30.05 164.25 31.24375 169.9115234375 33.35 173.5 33.4220703125 173.6224609375 33.5 173.75 35.6970703125 177.358984375 42.4 185.15 40.65 182.55 39.3 180.95 36.40859375 177.498046875 34.75 173.75 33.6328125 171.146484375 33.1 168.4 33 168.15 33 167.9
L 32.95 167.75
Q 32.8 167.05 32.55 165.9 32.55 165.8 32.5 165.7
L 32.5 165.6
Q 32.45 165.45 32.45 165.4 32.35 164.75 32.2 164.1 32.15 163.9 32.1 163.7 31.55 161.3 31.55 160.15 31.55 156.45 32.15 153.15 32.15 153 32.2 152.9 32.25 152.7 32.3 152.55 32.5 151.5 32.75 150.55 33.3 148.65 34.05 146.9 35.15 144.35 36.75 142.15 36.9 141.9 37.05 141.7 38.35 139.95 40 138.45 40.4 138.05 40.85 137.65 41.45 137.15 42.1 136.65 42.25 136.5 42.4 136.4 43.65 135.5 44.95 134.75 45 134.7 45.05 134.65 47.45 133.25 50.15 132.4 50.8 132.15 51.45 132
M 434.85 240.55
Q 433.5 240.15 432.2 239.8 423.05 237.4 416.75 237.4 402.4 237.4 392.75 242.15 381 247.9 368.5 262.35 368 263.2 367.5 264.15 363.4 271.75 360.6 275.95 356.4 282.25 351.85 286.45 343.4 294.1 331.4 296.65 331.3375 298.1013671875 331.2 299.5 331.15546875 300.3595703125 331.05 301.15 330.1048828125 310.1287109375 326.9 317.7 327 317.7 327.15 317.7 329.3779296875 317.3779296875 331.55 316.9 331.615234375 316.88828125 331.65 316.85 333.50625 316.493359375 335.3 316 336.4 315.7 337.5 315.35 341.75 313.9 345.8 311.8 345.85 311.75 346 311.7 347.05 311.15 346.4 311.75 348.3 310.4 348.45 310.35 350.65 309 352.75 307.5 354.05 306.55 355.4 305.5 355.85 305.1 356.35 304.7 360.25 301.35 364.45 296.8 364.9 296.35 365.35 295.85 368.65 292.2 372.1 287.8 372.8 286.95 373.5 286.05 374.3 285 375.05 284 377.25 281.05 380.95 276.2 381.05 276 381.2 275.85 382.7 273.8 384.45 271.45 386.85 268.3 389.05 265.75 389.35 265.4 389.65 265.1 391.95 262.45 393.95 260.5 396.15 258.35 398.45 256.65 398.9 256.25 399.4 255.95 404.6 252.2 410.1 250.8 410.7 250.6 411.3 250.5 414.15 249.85 417.1 249.85 420.9 249.85 424.3 250.6 424.35 250.6 424.45 250.6 430.05 251.85 434.4 255.1 435.8 256.1 437.05 257.35 440.65 260.9 443.15 266.15 443.4 266.65 443.65 267.2 444.9712890625 270.1662109375 445.95 273.6 448.75 283.4685546875 448.75 297.25 448.75 299.9 448.9 305.2 448.9 305.6 448.85 306 452 301.8 453.9 297.5 456.9 290.7 456.9 282.45 456.9 271.1 452.7 261.5 450.0734375 255.405078125 445.95 250.4 443.951171875 247.971484375 441.6 245.8 438.45 242.85 434.85 240.55
M 342.1 132.95
Q 340.8830078125 134.0619140625 340.15 135.35 340.0056640625 136.520703125 340.05 139.85 340.132421875 143.1775390625 344.05 145.75 347.9673828125 148.3673828125 352.9 147.4 355.44765625 146.9453125 357.45 145.8 359.34140625 144.7193359375 360.75 143.05 362.35390625 141.1521484375 363.3 138.1 362.7853515625 139.0287109375 362.1 139.75 361.7 140.15 361.3 140.5 359.25 143.6 355.4 144.55 351.45 145.45 349.2 144.75 346.95 144 345.8 142.95 344.6 141.85 344.1 138.1 343.6 134.35 348.95 129.7 342.55 132.15 342.1 132.95
M 365 136
Q 367.5 132.75 367.5 127.4 367.5 120.95 363 116.9 358.6 112.9 351.8 112.9 341.3 112.9 334.6 121.4 327.6 130.2 327.55 144.7 328.05 141.2 328.75 138.3 328.8 138.05 328.85 137.9 329 137.1 329.2 136.4 329.75 134.3 330.45 132.55 331.5 129.8 332.85 127.55 333.05 127.2 333.3 126.85 336 122.6 339.9 120.25 340.35 119.95 340.9 119.7 344.25 117.9 348.45 117.45 349.05 117.4 349.75 117.35 350.55 117.3 351.35 117.3 355.4 117.3 359.15 119.7 359.15 119.75 359.2 119.75 359.6 120 360 120.3 364.45 123.55 365.05 128.55 365.05 128.65 365.05 128.8 365.1 129.4 365.1 130.05 365.1 133.8 364.15 136.4 363.95 136.9 363.7 137.4 364.45 136.7 365 136
M 184.15 369.65
Q 184.1 369.75 184.1 369.85 184.15 370.05 184.4 370.6 184.25 370.15 184.15 369.65
M 224.45 169.35
Q 225.94140625 169.0275390625 226.7 168.8 236.8 165.7 245.5 158.5 247.8345703125 156.553125 249.95 154.25 250.2029296875 154.7015625 250.45 155.15 253.0572265625 159.9095703125 255.8 166.2 255.5498046875 163.9576171875 255.35 162.5 254.3494140625 155.015234375 252.75 150.9 260.63984375 140.8427734375 265.1 125.25 265.811328125 122.76015625 266.4 120.3 263.7970703125 127.875390625 259.45 134.85 256.03203125 140.3609375 250.5 146.8 248.2517578125 143.81875 244.1 140.75 239.6560546875 137.7873046875 235.6 135.05 241.8482421875 140.933203125 247.55 150.15 243.6943359375 154.389453125 239 159 232.1271484375 165.7234375 224.45 169.35
M 369.3 77.95
L 370.05 78.3
Q 369.7 78.1 369.4 77.9 369.35 77.9 369.3 77.95
M 330.9 11
Q 331.7 10.2 332.55 9.5 328.635546875 11.44296875 325.9 13.5 323.8427734375 15.04296875 322.45 16.65 314.55 25.8 314.55 47.4 314.55 50.95 316.65 58.85 318.1841796875 61.052734375 319.9 63 322.57578125 66.0037109375 325.7 68.4 336.25 76.45 347.2 81.35 358.1 86.2 362.4 89.1 366.65 92 369.95 95 373.15 97.95 376.6 102.7 380 107.45 382.75 114.05 385.5 120.6 385.5 133.6 385.5 135 385.45 136.4 384.85 148.75 378.95 159.25 373.4 169.15 362.55 178.35 354.95 184.75 341.3 193.4 336.6 196.4 333.15 198.3 332.75 201.65 331.65 204.2 330.8 206.25 329.45 207.6 329.45 204.6 329.2 201.15 329.1 199.7 329 198.25 329 198 328.95 197.8 329.15 226.05 313.75 236.6 301.6453125 244.9162109375 295.75 244.8 295.290625 244.8146484375 294.85 244.75 296.2 245.3 298.5 246.5 301.3681640625 247.933984375 303.9 249.2 304.5697265625 249.5349609375 305.2 249.85 308.75 247.6 312 244.75 312.8 244 313.6 243.25 314.4 242.5 315.15 241.7 318.5 238.2 321.15 234.35 323.65 230.55 325.45 226.45 326.35 224.4 327.05 222.35 327.05 222.2 327.15 222.05 327.5 220.9 327.8 219.8 329.45 214 329.45 208.05 329.45 207.9 329.45 207.7 330.6 208.05 331.55 209 332.45 209.9 332.65 212.25 332.85 214.55 332.25 216.15 331.65 217.75 331.45 218.3 332 218.05 332.55 217.85 337.05 215.9 340.75 214.2 342.55 213.35 344.3 212.55 344.65 212.35 345 212.2 350.8 209.3 356 206.35 356.3 206.15 356.65 206 362.2 202.75 367.1 199.35 367.5 199.05 367.95 198.75 371.45 196.2 374.6 193.6 375.75 192.65 376.85 191.65 376.9 191.6 376.95 191.6 382.85 186.2 387.3 179.8 387.6 179.35 387.9 178.95 391.65 173.35 394.35 167 394.45 166.75 394.55 166.5 394.55 166.45 394.6 166.4 397.05 160.45 398.7 153.8 398.8 153.3 398.95 152.85 400.4 146.55 401.25 139.65 401.25 139.25 401.3 138.9 401.45 137.65 401.55 136.4 401.85 133 402 129.4 402.15 126.25 401.95 123.25 401.9 122.5 401.85 121.75 401.3 115.3 399.35 109.5 399.2 109.05 399.1 108.7 396.55 101.55 391.85 95.4 391.6 95.1 391.4 94.85 390.85 94.15 390.25 93.45 386.45 89 381.3 85.15 380.8 84.8 380.35 84.5 378.9 83.45 377.35 82.45 373.85 80.25 369.25 77.95 368.6 77.6 367.95 77.3
L 366.9 76.8
Q 366.85 76.55 366.85 76.35 359.1 71.65 354 68.15 353.2 67.6 352.45 67.1 349.619921875 65.200390625 346.1 63 345.1169921875 62.3626953125 344.05 61.7 342.3 60.6 340.7 59.55 340.25 59.25 339.8 58.95 333.2 54.35 329.5 50.1 329.3 49.9 329.15 49.7 327.05 47.2 325.95 44.8 324.05 40.7 323.15 37.15 323.1 36.95 323.05 36.75 322.3 33.6 322.3 30.9 322.3 27.35 324.4 22.3 324.5 22.1 324.6 21.9 326 18.5 328.35 14.5 328.645703125 13.9890625 328.95 13.5 329.83984375 12.1697265625 330.9 11 Z"/>

<path fill="#BF8D8B" stroke="none" d="
M 121 348.2
Q 119.7470703125 349.5423828125 118.55 351 118.459765625 351.137109375 118.35 351.25 118.3271484375 351.3154296875 118.3 351.35 117.076171875 352.846875 115.95 354.3 111.1880859375 360.5896484375 108.55 366.15 105.25 373 103.75 381.3 102.25 389.6 103.65 396.75 105 403.9 107.3 408.2 108.9279296875 411.2435546875 111.8 414.4 112.184375 414.7720703125 112.55 415.15 113.4427734375 416.0654296875 114.45 417 115.119921875 417.6146484375 115.85 418.2 120.315234375 421.8091796875 126.65 424.05 133.9 426.6 139.9 426.8 145.85 427 152.05 426.15 158.25 425.25 166.8 420.2 175.35 415.15 179.3 407.4 180.8 404.45 181.8 401.4 183.25 396.75 183.55 391.9 183.6 390.8 183.6 389.65 183.6 388.75 183.6 387.9 183.55 387.75 183.6 387.65 183.316015625 388.019140625 183 388.4 182.7876953125 388.754296875 182.55 389.1 179.1 393.75 177.8 395.8 176.1 398.45 174.4 400.4 167.35 408.6 156.25 409.05 155.65 409.05 155.05 409.05 147.3 409.05 141.05 406.7 140.8 406.6 140.6 406.5 136.25 404.8 132.65 401.9 130.85 400.45 129.4 398.85 129.2 398.65 129.05 398.45 127.65 396.8 126.65 394.95 125.35 393.5 124.45 392.15 121.3 387.35 121.3 379.75 121.3 373.85 123.4 368.6 124 367.2 125 365.4 126.55 361.95 128.95 357.35 130.87109375 353.6896484375 132 351 135.2986328125 343.3279296875 132.3 343.55 128.2 343.85 121 348.2
M 105.4 385.2
Q 105.3033203125 379.6962890625 107.1 375.35 108.253125 372.6603515625 110.8 368.5 109.9326171875 378.051171875 109 386.45 108.0673828125 394.8546875 110.95 406.8 107.294921875 401.4076171875 106.4 396.05 105.5009765625 390.6970703125 105.4 385.2
M 165.75 409.3
Q 167.1798828125 408.48359375 168.95 407.1 172.444921875 404.401953125 174.1 402.7 175.76484375 400.99375 178.1 397.85 179.709765625 395.6794921875 181.55 392.5 180.860546875 398.095703125 177.3 403.15 173.785546875 408.2583984375 165.75 409.3
M 79.8 116.5
Q 75.8783203125 115.25625 69.5 114.45 66.7318359375 114.0916015625 63.5 113.8 52.8126953125 112.9517578125 41.95 118.35 31.141015625 123.7888671875 26.1 132.1 21.063671875 140.47109375 20 145.55 18.980859375 150.6833984375 18.75 154.2 18.6763671875 156.1189453125 18.8 157.85 19.15 162.75 20.4 168.25 20.9955078125 170.8466796875 22.6 173.75 24.4373046875 176.9400390625 27.5 180.5 33.3 187.3 44.95 189.1 46.2 189.25 47.55 189.4 44.75 187.1 42.4 185.15 35.6970703125 177.358984375 33.5 173.75 33.4220703125 173.6224609375 33.35 173.5 31.24375 169.9115234375 30.05 164.25 28.859375 158.6353515625 30.5 149.7 32.1408203125 140.825 38.65 134.3 45.155078125 127.81171875 49.05 126.75 58.9578125 124.1083984375 66.5 124.55 68.0171875 124.6673828125 69.5 124.85 75.539453125 125.6609375 81.4 128.15 83.344140625 128.9939453125 85 129.9 89.6681640625 132.584765625 92.25 136.2 95.75 141.05 98.9 148.7 102 156.3 102.55 168 103.1 179.65 106.2 186.6 109.3 193.5 113.75 198.3 118.15 203.1 129 208.5 127.4 206.7 126.2 204.75 122.55 198.8 122.25 191.5 121.95 185.25 121.3 175.35 121.2 173.65 120.5 166.85 119.8 160 117 151.8 114.2 143.55 111.45 139.6 108.6962890625 135.655859375 106.6 133.3 104.5083984375 130.9333984375 99.95 127 95.44765625 123.0638671875 90.45 120.7 85.4322265625 118.345703125 79.8 116.5
M 69.5 118.8
Q 65.8591796875 118.1171875 63.3 118 65.07734375 117.4 69.5 117.4 70.6484375 117.3876953125 71.95 117.4 78.40390625 117.59921875 83.55 120 88.7552734375 122.46015625 92.85 127.3 89.5748046875 124.3396484375 82.95 122.3 74.99375 119.90078125 69.5 118.8
M 36.5 128.3
Q 30.6990234375 133.5076171875 27.85 139.85 28.7125 129.9947265625 35.2 124.65 41.7369140625 119.309375 51.95 118.55 42.308984375 123.141796875 36.5 128.3
M 420.55 234.25
Q 413.9333984375 232.5 406.9 232.5 391.5 232.5 381.7 242.3 377.8 246.2 374 252.45 372.3 255.2 368.5 262.35 381 247.9 392.75 242.15 402.4 237.4 416.75 237.4 423.05 237.4 432.2 239.8 433.5 240.15 434.85 240.55 430.55 237.75 425.65 235.9 423.1423828125 234.952734375 420.55 234.25
M 415.9 234.4
Q 412.3787109375 234.5001953125 406.9 235.5 401.4541015625 236.5591796875 394.2 237.85 387.0126953125 239.1828125 381 244.25 385.0837890625 239.6642578125 391 236.85 398.5 233.25 406.85 233.25 409.8166015625 233.25 415.9 234.4
M 379.55 122.9
Q 378.898046875 119.453515625 375 114.15 371.10546875 108.889453125 362.8 105.4 360.9033203125 104.5806640625 358.5 103.6
L 358.45 103.6
Q 348.883203125 99.7470703125 334.45 102.9 320.00546875 106.05 313.8 124.4 312.1 129.4 311.1 136.4 310.6568359375 139.5015625 310.3 143.05 310.30546875 143.09453125 310.3 143.15 310.253515625 143.675 310.2 144.25 310.098828125 145.5970703125 310 147.25 309.7564453125 151.304296875 309.5 157.35 309.3798828125 160.7123046875 309.25 164.7 308.75 178.85 307.95 186.25 306.7 197.65 303.8 205 301.75 210.2 302.2 208.95 302.1 209.1 302.05 209.25 302.45 209.15 302.95 209 302.5 209.15 302 209.35 295.9 218.5 286.1 220.4 276.3 222.25 271.25 221 266.2 219.7 260.45 216.85 254.7 214 252.8 205.75 252.35 201.9 252.7 200.75 253.35 198.6 254 196.95 254.6 195.25 256.5 192.35 257.0484375 191.4986328125 258.5 188.95 262.0654296875 182.7328125 271.1 166.3 279.25 151.4 282.55 136.4 282.977734375 134.3833984375 283.3 132.35 284.385546875 126.1212890625 284.65 119.85 285.45 96.55 270.65 76.7 268.55 73.85 266.05 71.4 261.1009765625 66.548046875 254.55 63 245.77734375 58.237109375 234.1 55.8 230.7751953125 55.4986328125 221.45 55.45 212.1638671875 55.458984375 197.25 58.3 189.836328125 59.75234375 182.8 63 175.7486328125 66.2505859375 169.1 71.3 155.803515625 81.4673828125 148.15 95.4 140.49921875 109.3943359375 140.5 125 140.5 129.05 143 148.5 143.2482421875 149.841015625 143.5 151.1 146.251171875 158.243359375 150.45 164.3 162.7 182.05 168.6 192 174.45 201.9 174.45 204.95 174.45 206.8923828125 173.25 209.45 172.233984375 211.59140625 170.4 214.15 169.05 216 167.8 217.3 167.221484375 218.2916015625 166.65 219.25 161.2619140625 228.170703125 155.8 234.4 148.9 242.25 146.15 244.7 144.35 246.85 140.6 249.4 135.7 252.75 132.1 254.8 128.5 256.8 121.4 260.05 117.2 262 112.85 263.7 107.7220703125 265.703125 102.4 267.35 97.8283203125 268.8388671875 93.1 270.05 93.05 270.0625 93 270.05 90.2517578125 270.7607421875 87.6 271.35 87.45 271.35 87.35 271.4 79.35 273.1 71.85 273.85 70.6634765625 273.9517578125 69.5 274 68.947265625 274.0677734375 68.4 274.1 64.7 274.3 61.1 274.3 55.35 274.3 50.3 273.3 46.7 272.6 43.45 271.4 43.25 271.35 43.1 271.25 41.85 270.8 40.7 270.25 37.55 268.8 35.25 266.9 32.396875 265.9783203125 29.55 262.6 26.7037109375 259.2154296875 26.35 252.2 26.0498046875 245.193359375 32.05 241.4 36.8 238.4 44.05 238.4 52.3 238.4 56.75 241.05 58.15 241.9 59.4 243.2 60.85 244.75 62.1 246.9 64.8 251.55 66.1 252.75 67.501953125 253.990234375 69.5 254.65 71.207421875 255.21171875 73.35 255.35 73.25 248.5 71.45 243.5 70.6365234375 241.3302734375 69.5 239.5 69.073046875 238.8326171875 68.6 238.2 66.2041015625 234.2994140625 61.05 231.65 55.948828125 229.0064453125 47.85 228.75 46.8470703125 228.7455078125 45.85 228.75 39.1328125 228.7765625 34.55 230.35 29.363671875 232.2044921875 26.25 234.7 23.13671875 237.2552734375 21 241.05 18.862109375 244.8328125 18.5 246.55 18.146875 248.2697265625 17.6 249.65 17.3423828125 250.4021484375 17.15 252.05 17.066796875 253.0375 17 254.35 16.97109375 254.915625 16.95 255.55 16.9119140625 256.63203125 17 257.75 17.1912109375 260.1365234375 17.95 262.65 20.9740234375 277.9138671875 40.65 283.25 43.95 283.9 47.8 284.2
L 47.85 284.2
Q 51.45 284.5 55.5 284.5 56.2 284.5 57 284.5 58.15 284.5 59.5 284.45 59.85 284.4 60.25 284.4 60.35 284.4 60.45 284.4 60.5 284.4 60.55 284.4 60.7375 284.259375 60.85 284.1 60.74375 284.2625 60.65 284.45 64.7 284.7 68.6 284.85 69.05 284.85 69.5 284.85 70.1 284.85 70.75 284.9 74.2 284.95 77.55 284.95 79.5 284.4 80.3 284.4 90.3 284.4 107.6 280.75 124.9 277.1 142.05 269.05 159.2 260.95 168.4 251.4 171.948828125 247.69609375 174.45 244.5 178.42265625 239.4259765625 179.8 235.6 176.0248046875 247.542578125 172.2 255.1 170.7884765625 258.003125 169.35 260.25 168.25 261.95 167 263.95 167.45 263.65 167.9 263.4 166.85 264.5 165.85 265.7 164.6 267.1 163.45 268.6 162.35 270 161.3 271.4 157.05 277.3 153.8 283.95 152.75 286 151.85 288.1 144.094921875 306.1791015625 143.85 327.5 143.85 328.1736328125 143.85 328.85 143.85 330.55 143.9 332.15 143.93671875 333.2431640625 144 334.3 144.5095703125 343.240234375 146.7 351 147.158203125 352.4966796875 147.65 353.95 147.8 354.45 147.95 354.9 148.7765625 357.2671875 149.8 359.5 150.1396484375 360.229296875 150.5 360.95 157.45 370.55 166.55 378.1 171.55 382.25 179.2 387.9 179.6 387.35 180 386.75 182.34765625 383.3224609375 185.55 379.45 185.78671875 379.2029296875 186 378.95 186.05 378.85 186.45 380.9 186.85 382.95 186.95 389.4 187 393.2 186.45 398.6 190.9 409.25 192.1 413.8 193.55 419.15 193.55 428.15 193.55 428.2001953125 193.55 428.25 193.546875 433.86640625 193.2 435.7 193.1232421875 436.0259765625 192.7 437.35 192.0603515625 439.560546875 190.55 444.4 189.9 446.6 188.35 452.25 187.45 454.2 186 455.75 184.8 457.95 183.4 459.95 182.9 460.6 182.45 461.2 179.85 464.45 176.5 467.15 174.8 468.5 172.95 469.7 172.1 470.25 171.25 470.75 165.25 474.15 157.85 475.85 156.65 476.1 155.4 476.3 154.044140625 476.5408203125 152.65 476.7 148.529296875 477.275390625 144.05 477.35 143.4 477.35 142.8 477.35 136.5 477.35 132.85 476.9 127.7 476.25 122.85 474.35 114.3123046875 470.9810546875 102.65 461.7 101.6931640625 460.9162109375 100.7 460.1 104.6 465.75 109.45 470.5 112.85 473.8 116.75 476.65 131.75 487.55 148.45 487.55 161.8 487.55 174.05 480.85 185.05 474.8 193.85 464.1 200.5 455.95 204.85 446.5 205.8 444.5 206.6 442.4 208.75 436.95 209.9 431.85 211.15 426.1 211.15 420.75 211.15 417.3 210.8 414 209.9 406.3 207.05 399.15 207 398.95 206.9 398.75 206.2 397.05 205.4 395.4 205.15 394.85 204.85 394.3 203.3 391.3 201.15 387.9 199.85 385.95 198.4 383.9 198.1 383.45 197.8 383.05 195.55 379.95 192.8 376.5 191.25 374.55 189.85 372.8 189.4 372.2 189 371.65 182.35 363.2 180.15 359.4 179.95 359.05 179.75 358.75 179.45 358.15 179.15 357.55 178.9 357.05 178.65 356.55 177.9 355.15 177.35 353.75 176.7830078125 352.37734375 176.3 351 175.2560546875 347.7623046875 174.8 344.5 174.75 344.1 174.7 343.75 174.5 341.9 174.45 340.1 173.9 339 173.5 337.95 172.1306640625 334.42421875 171.7 327.5 171.5 324.310546875 171.5 320.4 171.5 305.1 178.55 292.2 183.6 282.9 194 272.45
L 209.45 256.95
Q 216.5 248.7 216.5 241.4 216.5 241 216.7 239.55 219.85 245.35 223.75 251.2 226.65 255.6 231.55 262.75 239 274.05 239 283.65 239 300.75 225.85 313.45 217.15 321.85 205.2 325.95 203.375390625 326.70625 201.7 327.5 198.3021484375 329.1212890625 195.55 330.9 191.45 333.55 192.9 338 194.35 342.45 203.25 344.7 212.15 346.95 223.05 345.3 235.65 339.95 243.1 332.35 245.296875 330.1083984375 247.3 327.5 251.9892578125 321.3828125 255.6 313.25 256.4 311.5 257.1 309.65 257.5 308.55 257.95 307.35 259.348828125 303.49921875 260.3 299.8 262.5548828125 291.1806640625 262.45 283.35 262.4 280.75 262.1 278.3 260.95 268 259.25 263.3 258.411328125 261.7552734375 255.05 254.3 254.592578125 253.340625 254.1 252.25 250.75 244.9 247.9 237.1 248.2666015625 237.490234375 248.6 237.85 259.0123046875 248.86640625 267.9 256.45 273.55 261.3 286.25 268.7 296.15 274.5 299.75 279.5 305 286.8 305 300.15 305 315.864453125 299.45 327.5 298.3484375 329.8587890625 297 332.05 295.0580078125 335.187109375 292.8 337.7 291.2701171875 339.39140625 289.6 340.8 287.6 343.4 284.85 345.6 284.6 345.85 284.3 346.1 282.75 347.35 280.45 348.9 279.3 349.7 277.95 350.55 277.5873046875 350.7787109375 277.25 351 276.2376953125 351.6427734375 275.35 352.2 274.63515625 352.707421875 274 353.15
L 271 355.25
Q 270.9 355.3 270.85 355.4 267.25 358.15 264.95 361.25 264.5 361.85 264.15 362.45 263.3 363.75 262.6 365.2 262.4 365.6 262.2 366.05 262.15 365.95 262.15 365.85 260.1 370.8 259.85 379.25 259.85 379.3 259.85 379.35 259.8 380.45 259.8 381.65 259.8 382.3 259.85 382.95 259.85 384.5 260.05 386 260.15 387 260.3 387.9 260.65 390.3 261.05 392.15 261.05 392.25 261.1 392.4 261.7 395.15 262.45 396.75 263.9 399.75 265.75 402.35 266.35 403.2 267.2 404.3 267.45 404.65 267.8 405.05 269.3 406.9 271.5 409.4 273.5 411.65 276.7 413.75 276.75 413.8 276.8 413.85 279.85 415.85 284.1 417.75 285.7 418.45 287.5 419.1 287.75 419.15 287.95 419.25 293.4 421.05 300.3 421.85 302.9 422.15 305.65 422.3 318.6 423.05 327.2 418.85 335.8 414.65 339.3 409.8 343.7390625 403.5673828125 344.65 396.8 344.7880859375 396.0345703125 344.85 395.25 342.8107421875 399.8216796875 339.85 403.2 336.2662109375 407.332421875 331.3 409.65 322 413.95 311.8 413.3 306.35 412.9 300.65 410.4 290.85 409.9 281.55 402.4 271 393.95 271 383.65 271 375.1 278.75 366.55 283.15 361.75 296.65 351.15 296.7453125 351.075 296.85 351 310.0955078125 340.5498046875 316.45 333.55 319.15625 330.5603515625 321.4 327.5 322.068359375 326.5783203125 322.7 325.65
L 323.05 325.1
Q 323.458203125 324.4755859375 323.85 323.85 324.95 321.85 325.95 319.8 326.45 318.75 326.9 317.7 330.1048828125 310.1287109375 331.05 301.15 331.15546875 300.3595703125 331.2 299.5 331.3375 298.1013671875 331.4 296.65 331.45 294.95 331.45 293.2 331.45 268.85 317.85 257.3 315.05 254.95 311.45 252.95 311.25 252.9 307.35 250.9 307.05 250.75 306.75 250.6 305.9228515625 250.259375 305.1 249.9
L 305.05 249.9
Q 305.1 249.85 305.2 249.85 304.5697265625 249.5349609375 303.9 249.2 301.3681640625 247.933984375 298.5 246.5 296.2 245.3 294.85 244.75 295.290625 244.8146484375 295.75 244.8 301.6453125 244.9162109375 313.75 236.6 329.15 226.05 328.95 197.8 328.7 194.95 328.4 191.75 328.35 191.55 328.35 191.4 328.15 189.6 327.9 187.75 327.35 183.6 327 179.65 326.85 178 326.75 176.4 326.7 175.8 326.7 175.3 326.35 170.1 326.35 165.2 326.35 164.85 326.35 164.5 326.35 164.25 326.35 164.05 326.4 156.8 326.9 150.85 326.9 150.5 326.95 150.25 327.2 147.3 327.55 144.7 327.6 130.2 334.6 121.4 341.3 112.9 351.8 112.9 358.6 112.9 363 116.9 367.5 120.95 367.5 127.4 367.5 132.75 365 136 364.45 136.7 363.7 137.4 363.5189453125 137.776171875 363.3 138.1 362.35390625 141.1521484375 360.75 143.05 359.34140625 144.7193359375 357.45 145.8 355.44765625 146.9453125 352.9 147.4 347.9673828125 148.3673828125 344.05 145.75 340.132421875 143.1775390625 340.05 139.85 340.0056640625 136.520703125 340.15 135.35 338.4556640625 138.46796875 339.4 142.7 340.7 148.75 345.25 151.85 349.8 154.95 354.15 155 358.45 155.05 362.8 154 367.1 152.95 370.25 149.9 376.65 143.8 378.4 136.4 378.6 135.55 378.75 134.75 380.15 126.35 379.55 122.9
M 370.45 124.8
Q 371.185546875 126.93515625 371.35 131.7 371.5564453125 136.47265625 367.9 139.45 364.2560546875 142.4720703125 363.7 142.15 365.1458984375 140.424609375 366.3 138.4 369.5 132.8 369.5 126.6 369.5 123.636328125 369.1 121.15 369.769921875 122.660546875 370.45 124.8
M 345.6 103.25
Q 345.8869140625 103.25 346.6 103.25 334.4642578125 105.2232421875 327.35 111.95 320.2806640625 118.7341796875 312.85 134.4 315.5876953125 117.2458984375 323.95 109.85 331.4 103.25 345.6 103.25
M 330.25 293.25
Q 330.25 293.833984375 330.25 294.35 327.994921875 287.3412109375 322.65 274.35 317.3669921875 261.3525390625 308.75 253.3 317.7392578125 257.7490234375 323.2 266.15 330.25 277.1 330.25 293.25
M 181.9 188.65
Q 176.25 183.1 171.45 173.35 181.3 181.2 191.3 184.65 199.15 187.4 208 187.45 203.4 190.95 199.85 193.1 196.25 195.3 193.1 196.3 185.75 192.45 181.9 188.65
M 226.7 168.8
Q 225.94140625 169.0275390625 224.45 169.35 232.1271484375 165.7234375 239 159 243.6943359375 154.389453125 247.55 150.15 241.8482421875 140.933203125 235.6 135.05 239.6560546875 137.7873046875 244.1 140.75 248.2517578125 143.81875 250.5 146.8 256.03203125 140.3609375 259.45 134.85 263.7970703125 127.875390625 266.4 120.3 265.811328125 122.76015625 265.1 125.25 260.63984375 140.8427734375 252.75 150.9 254.3494140625 155.015234375 255.35 162.5 255.5498046875 163.9576171875 255.8 166.2 253.0572265625 159.9095703125 250.45 155.15 250.2029296875 154.7015625 249.95 154.25 247.8345703125 156.553125 245.5 158.5 236.8 165.7 226.7 168.8
M 232.25 194.2
Q 227.3 192.4 226.8 192.15 221.9 189.95 217.8 186.6 225.95 185.15 233.55 181.05 242.7 176.15 251.3 167.55 248.7 174.4 244.8 180.6 238.8 190.25 232.25 194.2
M 311.8 162.9
Q 312.7451171875 172.434375 313.9 185 315.1123046875 197.5552734375 311.05 204.55 307.0373046875 211.5478515625 298.95 216.6 300.053515625 215.224609375 301.35 213.3 305.85 206.6 306.25 205 308.5 198.4 309.85 192.95 311.885546875 184.4005859375 311.8 162.9
M 151.2 243.8
Q 155.5185546875 239.316015625 161.15 232.5 166.7890625 225.740234375 173.05 213.15 172.939453125 227.6494140625 165.9 233.5 158.8712890625 239.4037109375 152.7 244.25 146.514453125 249.0904296875 143.9 252 146.8732421875 248.3283203125 151.2 243.8
M 108.8 271
Q 94.203125 274.7283203125 83.7 275 73.246875 275.2603515625 72.05 275.2 71.915625 275.1927734375 71.75 275.15 79.5060546875 274.7658203125 93.9 272.45 108.287109375 270.1912109375 132.5 257.8 123.396875 267.328125 108.8 271
M 20.55 249.35
Q 20.51796875 241.0427734375 27.7 235.5 34.8802734375 229.9478515625 41.1 232 36.929296875 232.9560546875 31.05 236.45 25.2205078125 239.944921875 20.55 249.35
M 149.35 327.5
Q 148.989453125 334.386328125 149.05 342.45 147.1400390625 334.453125 146.35 327.5 146.30078125 326.9974609375 146.25 326.5 146.25 305.1 152.45 290.55 155.3306640625 283.8439453125 163.5 272.6 158.55 287.54921875 153.7 301.35 150.2791015625 311.0755859375 149.35 327.5
M 269.5 230.55
Q 277.4 231.690234375 276.3 234.6 275.25546875 237.5693359375 278.5 239.35 281.7375 241.119921875 287.2 243.6 276.790625 241.1677734375 271.2 237.9 264.1271484375 233.7671875 254.55 223.7 261.6478515625 229.4494140625 269.5 230.55
M 245.55 281.35
Q 246.75 285.35 246.75 290.85 246.75 300.95 243.5 307.15 240.35 313.2 232.5 318.5 225.25 323.3 219.75 324.75 219.4 324.85 212.75 327 211.914453125 327.2708984375 211.15 327.5 209.8171875 327.9193359375 208.75 328.2 209.7646484375 327.8576171875 210.75 327.5 216.7966796875 325.2865234375 222.35 322.5 228.8626953125 319.2650390625 234 312.45 239.1837890625 305.6830078125 242.5 296.4 245.809375 287.1681640625 244.55 278.45 245.1732421875 280.022265625 245.55 281.35
M 223.25 225.65
Q 225.6337890625 233.715625 231.9 245.35 238.21171875 257.03515625 241.4 271 239.3494140625 266.2 235.25 259.95 231.1529296875 253.698046875 226.1 245.65 221.04296875 237.6052734375 223.25 225.65
M 189.6 232.4
Q 190.6828125 236.9046875 185.2 244.1 179.777734375 251.3490234375 177.15 255.85 178.581640625 251.830078125 180.3 247.4 186.1970703125 232.201953125 188.45 221.5 188.50625 227.8888671875 189.6 232.4
M 184.1 369.85
Q 184.1 369.75 184.15 369.65 184.25 370.15 184.4 370.6 184.15 370.05 184.1 369.85
M 273.6 355.95
Q 270.41484375 359.0841796875 267.2 366.1 263.9857421875 373.0990234375 263 379.2 262.30390625 383.524609375 262.45 385.45 261.25 380.6623046875 261.25 379.6 261.25 370.25 265.6 363.3 268.58828125 358.485546875 273.6 355.95
M 184.9 460.75
Q 190.6185546875 452.9048828125 191.65 447.35 192.1884765625 449.9892578125 191.6 453.9 191.0095703125 457.8625 189.15 462.5 187.0638671875 466.039453125 181.9 469.65 176.78515625 473.2478515625 170 475.25 163.2173828125 477.2619140625 159.4 478 165.11328125 476.2921875 172.15 472.5 179.1814453125 468.7423828125 184.9 460.75
M 333.05 410.75
Q 329.029296875 414.752734375 324.65 414.75 320.2705078125 414.75 317.8 414.35 325.774609375 413.728125 332.8 409.3 336.2400390625 407.128125 339.1 404.2 337.0703125 406.741796875 333.05 410.75
M 370.1 7.05
Q 368.56875 6.24296875 367 5.5 362.086328125 3.2830078125 356.7 1.85 355.4779296875 1.5357421875 354.2 1.25 343.85 -1.05 331.6 0.95 320.75234375 2.7138671875 313.8 13.5 312.8619140625 14.944140625 312 16.55 311.7455078125 17.019140625 311.5 17.5 311.202734375 18.0935546875 310.9 18.7 307.392578125 26.2904296875 307.75 34.35 307.979296875 39.6755859375 309.9 45.2 312.55 52.95 316.65 58.85 314.55 50.95 314.55 47.4 314.55 25.8 322.45 16.65 323.8427734375 15.04296875 325.9 13.5 328.635546875 11.44296875 332.55 9.5 338.05 4.8 345.5 4.25 346.35 4.15 347.2 4.15 356.6 4 370.1 7.05
M 318.5 13.5
Q 318.091796875 14.1517578125 317.7 14.75 315.3267578125 18.662109375 311.75 31.95 309.94140625 23.8015625 313.85 16.7 314.7908203125 15.0412109375 315.9 13.5 319.61953125 8.4404296875 325.6 4.65 320.9623046875 9.8896484375 318.5 13.5 Z"/>

<path fill="#D7B5B3" stroke="none" d="
M 168.95 407.1
Q 167.1798828125 408.48359375 165.75 409.3 173.785546875 408.2583984375 177.3 403.15 180.860546875 398.095703125 181.55 392.5 179.709765625 395.6794921875 178.1 397.85 175.76484375 400.99375 174.1 402.7 172.444921875 404.401953125 168.95 407.1
M 107.1 375.35
Q 105.3033203125 379.6962890625 105.4 385.2 105.5009765625 390.6970703125 106.4 396.05 107.294921875 401.4076171875 110.95 406.8 108.0673828125 394.8546875 109 386.45 109.9326171875 378.051171875 110.8 368.5 108.253125 372.6603515625 107.1 375.35
M 27.85 139.85
Q 30.6990234375 133.5076171875 36.5 128.3 42.308984375 123.141796875 51.95 118.55 41.7369140625 119.309375 35.2 124.65 28.7125 129.9947265625 27.85 139.85
M 63.3 118
Q 65.8591796875 118.1171875 69.5 118.8 74.99375 119.90078125 82.95 122.3 89.5748046875 124.3396484375 92.85 127.3 88.7552734375 122.46015625 83.55 120 78.40390625 117.59921875 71.95 117.4 70.6484375 117.3876953125 69.5 117.4 65.07734375 117.4 63.3 118
M 182.8 63
Q 189.836328125 59.75234375 197.25 58.3 212.1638671875 55.458984375 221.45 55.45 230.7751953125 55.4986328125 234.1 55.8 227.638671875 54.4677734375 220.25 53.85 193.507421875 51.59921875 173.85 63 167.727734375 66.5412109375 162.3 71.4 161.95 71.7 161.65 72 141.7 90.25 138.85 112.65 138.4 116.2 138.4 119.9 138.3 128.6 139.6 136.4 140.8767578125 144.256640625 143.5 151.1 143.2482421875 149.841015625 143 148.5 140.5 129.05 140.5 125 140.49921875 109.3943359375 148.15 95.4 155.803515625 81.4673828125 169.1 71.3 175.7486328125 66.2505859375 182.8 63
M 406.9 235.5
Q 412.3787109375 234.5001953125 415.9 234.4 409.8166015625 233.25 406.85 233.25 398.5 233.25 391 236.85 385.0837890625 239.6642578125 381 244.25 387.0126953125 239.1828125 394.2 237.85 401.4541015625 236.5591796875 406.9 235.5
M 324.65 414.75
Q 329.029296875 414.752734375 333.05 410.75 337.0703125 406.741796875 339.1 404.2 336.2400390625 407.128125 332.8 409.3 325.774609375 413.728125 317.8 414.35 320.2705078125 414.75 324.65 414.75
M 191.65 447.35
Q 190.6185546875 452.9048828125 184.9 460.75 179.1814453125 468.7423828125 172.15 472.5 165.11328125 476.2921875 159.4 478 163.2173828125 477.2619140625 170 475.25 176.78515625 473.2478515625 181.9 469.65 187.0638671875 466.039453125 189.15 462.5 191.0095703125 457.8625 191.6 453.9 192.1884765625 449.9892578125 191.65 447.35
M 267.2 366.1
Q 270.41484375 359.0841796875 273.6 355.95 268.58828125 358.485546875 265.6 363.3 261.25 370.25 261.25 379.6 261.25 380.6623046875 262.45 385.45 262.30390625 383.524609375 263 379.2 263.9857421875 373.0990234375 267.2 366.1
M 185.2 244.1
Q 190.6828125 236.9046875 189.6 232.4 188.50625 227.8888671875 188.45 221.5 186.1970703125 232.201953125 180.3 247.4 178.581640625 251.830078125 177.15 255.85 179.777734375 251.3490234375 185.2 244.1
M 231.9 245.35
Q 225.6337890625 233.715625 223.25 225.65 221.04296875 237.6052734375 226.1 245.65 231.1529296875 253.698046875 235.25 259.95 239.3494140625 266.2 241.4 271 238.21171875 257.03515625 231.9 245.35
M 246.75 290.85
Q 246.75 285.35 245.55 281.35 245.1732421875 280.022265625 244.55 278.45 245.809375 287.1681640625 242.5 296.4 239.1837890625 305.6830078125 234 312.45 228.8626953125 319.2650390625 222.35 322.5 216.7966796875 325.2865234375 210.75 327.5 209.7646484375 327.8576171875 208.75 328.2 209.8171875 327.9193359375 211.15 327.5 211.914453125 327.2708984375 212.75 327 219.4 324.85 219.75 324.75 225.25 323.3 232.5 318.5 240.35 313.2 243.5 307.15 246.75 300.95 246.75 290.85
M 276.3 234.6
Q 277.4 231.690234375 269.5 230.55 261.6478515625 229.4494140625 254.55 223.7 264.1271484375 233.7671875 271.2 237.9 276.790625 241.1677734375 287.2 243.6 281.7375 241.119921875 278.5 239.35 275.25546875 237.5693359375 276.3 234.6
M 149.05 342.45
Q 148.989453125 334.386328125 149.35 327.5 150.2791015625 311.0755859375 153.7 301.35 158.55 287.54921875 163.5 272.6 155.3306640625 283.8439453125 152.45 290.55 146.25 305.1 146.25 326.5 146.30078125 326.9974609375 146.35 327.5 147.1400390625 334.453125 149.05 342.45
M 27.7 235.5
Q 20.51796875 241.0427734375 20.55 249.35 25.2205078125 239.944921875 31.05 236.45 36.929296875 232.9560546875 41.1 232 34.8802734375 229.9478515625 27.7 235.5
M 83.7 275
Q 94.203125 274.7283203125 108.8 271 123.396875 267.328125 132.5 257.8 108.287109375 270.1912109375 93.9 272.45 79.5060546875 274.7658203125 71.75 275.15 71.915625 275.1927734375 72.05 275.2 73.246875 275.2603515625 83.7 275
M 161.15 232.5
Q 155.5185546875 239.316015625 151.2 243.8 146.8732421875 248.3283203125 143.9 252 146.514453125 249.0904296875 152.7 244.25 158.8712890625 239.4037109375 165.9 233.5 172.939453125 227.6494140625 173.05 213.15 166.7890625 225.740234375 161.15 232.5
M 313.9 185
Q 312.7451171875 172.434375 311.8 162.9 311.885546875 184.4005859375 309.85 192.95 308.5 198.4 306.25 205 305.85 206.6 301.35 213.3 300.053515625 215.224609375 298.95 216.6 307.0373046875 211.5478515625 311.05 204.55 315.1123046875 197.5552734375 313.9 185
M 330.25 294.35
Q 330.25 293.833984375 330.25 293.25 330.25 277.1 323.2 266.15 317.7392578125 257.7490234375 308.75 253.3 317.3669921875 261.3525390625 322.65 274.35 327.994921875 287.3412109375 330.25 294.35
M 346.6 103.25
Q 345.8869140625 103.25 345.6 103.25 331.4 103.25 323.95 109.85 315.5876953125 117.2458984375 312.85 134.4 320.2806640625 118.7341796875 327.35 111.95 334.4642578125 105.2232421875 346.6 103.25
M 371.35 131.7
Q 371.185546875 126.93515625 370.45 124.8 369.769921875 122.660546875 369.1 121.15 369.5 123.636328125 369.5 126.6 369.5 132.8 366.3 138.4 365.1458984375 140.424609375 363.7 142.15 364.2560546875 142.4720703125 367.9 139.45 371.5564453125 136.47265625 371.35 131.7
M 317.7 14.75
Q 318.091796875 14.1517578125 318.5 13.5 320.9623046875 9.8896484375 325.6 4.65 319.61953125 8.4404296875 315.9 13.5 314.7908203125 15.0412109375 313.85 16.7 309.94140625 23.8015625 311.75 31.95 315.3267578125 18.662109375 317.7 14.75 Z"/>

<path fill="#333333" stroke="none" d="
M 226.8 192.15
Q 227.3 192.4 232.25 194.2 238.8 190.25 244.8 180.6 248.7 174.4 251.3 167.55 242.7 176.15 233.55 181.05 225.95 185.15 217.8 186.6 221.9 189.95 226.8 192.15
M 171.45 173.35
Q 176.25 183.1 181.9 188.65 185.75 192.45 193.1 196.3 196.25 195.3 199.85 193.1 203.4 190.95 208 187.45 199.15 187.4 191.3 184.65 181.3 181.2 171.45 173.35 Z"/>
</g>
</defs>

<g transform="matrix( 1.8638916015625, 0, 0, 1.8638916015625, 0,0) ">
<g transform="matrix( 1, 0, 0, 1, 0,0) ">
<use xlink:href="#___0_Layer0_0_FILL"/>
</g>
</g>
</svg>
