
<svg xmlns="http://www.w3.org/2000/svg" version="1.1" xmlns:xlink="http://www.w3.org/1999/xlink" preserveAspectRatio="none" x="0px" y="0px" width="166px" height="130px" viewBox="0 0 166 130">
<defs>
<g id="Layer0_0_MEMBER_0_FILL">
<path fill="#0D4600" stroke="none" d="
M 310.55 5009.95
L 288.05 5009.95 288.05 5091.1 310.55 5091.1 310.55 5009.95
M 334.55 5091.1
L 334.55 5009.95 321.6 5009.95 321.6 5091.1 334.55 5091.1 Z"/>

<path fill="#1A7305" stroke="none" d="
M 321.6 5009.95
L 310.55 5009.95 310.55 5091.1 321.6 5091.1 321.6 5009.95
M 373.6 5009.95
L 334.55 5009.95 334.55 5091.1 373.6 5091.1 373.6 5009.95
M 393.55 5009.95
L 384.65 5009.95 384.65 5091.1 393.55 5091.1 393.55 5009.95 Z"/>

<path fill="#2D9F12" stroke="none" d="
M 412.9 5009.95
L 393.55 5009.95 393.55 5091.1 412.9 5091.1 412.9 5009.95
M 384.65 5009.95
L 373.6 5009.95 373.6 5091.1 384.65 5091.1 384.65 5009.95 Z"/>
</g>

<g id="Layer0_0_MEMBER_1_FILL">
<path fill="#0D4600" stroke="none" d="
M 267.8 5014.65
L 297.45 5014.65 297.45 4961.6 267.8 4961.6 267.8 5014.65
M 329.4 5014.65
L 329.4 4961.6 312.25 4961.6 312.25 5014.65 329.4 5014.65 Z"/>

<path fill="#1A7305" stroke="none" d="
M 312.25 4961.6
L 297.45 4961.6 297.45 5014.65 312.25 5014.65 312.25 4961.6
M 329.4 4961.6
L 329.4 5014.65 380.9 5014.65 380.9 4961.6 329.4 4961.6
M 407.45 5014.65
L 407.45 4961.6 395.75 4961.6 395.75 5014.65 407.45 5014.65 Z"/>

<path fill="#2D9F12" stroke="none" d="
M 395.75 4961.6
L 380.9 4961.6 380.9 5014.65 395.75 5014.65 395.75 4961.6
M 433.2 4961.6
L 407.45 4961.6 407.45 5014.65 433.2 5014.65 433.2 4961.6 Z"/>
</g>
</defs>

<g transform="matrix( 1, 0, 0, 1, -267.8,-4961.6) ">
<use xlink:href="#Layer0_0_MEMBER_0_FILL"/>
</g>

<g transform="matrix( 1, 0, 0, 1, -267.8,-4961.6) ">
<use xlink:href="#Layer0_0_MEMBER_1_FILL"/>
</g>
</svg>
