
<svg xmlns="http://www.w3.org/2000/svg" version="1.1" xmlns:xlink="http://www.w3.org/1999/xlink" preserveAspectRatio="none" x="0px" y="0px" width="147px" height="147px" viewBox="0 0 147 147">
<defs>
<g id="Layer0_0_FILL">
<path fill="#006400" stroke="none" d="
M 544.9 2610.3
Q 542.25 2604.05 537.6 2599.35 532.9 2594.7 526.6 2591.95 520.35 2589.2 513.25 2589.2
L 487.1 2589.2 487.1 2602.1 495.6 2602.1 495.6 2653.55
Q 499.4 2655.15 503.35 2656.45
L 514.6 2645.15
Q 513.95 2645.2 513.25 2645.2 512 2645.2 510.8 2645.05 509.7 2644.9 508.55 2644.7
L 508.55 2602.1 513.25 2602.1
Q 517.65 2602.1 521.6 2603.75 525.55 2605.45 528.45 2608.45 530.75 2610.75 532.3 2613.7
L 532.15 2613.7 533.05 2615.35
Q 533.05 2615.4 533.1 2615.45 534.75 2619.3 534.75 2623.65 534.75 2624.35 534.7 2625.05
L 546.15 2613.65
Q 545.6 2611.95 544.9 2610.3 Z"/>

<path fill="#009900" stroke="none" d="
M 570.65 2635.85
L 583.65 2660.55 608.65 2613.7 594.45 2613.7 583.65 2635.75 570.65 2610.25 557.35 2635.85 546.35 2613.7 546.15 2613.7 546.15 2613.65 534.7 2625.05
Q 534.5 2628.75 533.05 2632.05 531.4 2635.95 528.45 2638.9 525.55 2641.8 521.6 2643.5 518.25 2644.95 514.6 2645.15
L 503.35 2656.45
Q 503.75 2656.55 504.2 2656.7 508.6 2658.1 513.25 2658.1 520.35 2658.1 526.6 2655.35 532.9 2652.7 537.6 2648.05 542.2 2643.4 544.85 2637.25
L 557.45 2660.65 570.65 2635.85 Z"/>
</g>

<g id="pop_0_Layer5_0_FILL">
<path fill="#0C0A80" fill-opacity="0.2" stroke="none" d="
M 7.25 6.1
Q 7.75 5.2 7.85 4.45 7.85 4.3 7.85 4 7.7 2.15 6.05 1.6 4.15 1.1 3 2.6 1.9 4.15 3.45 5.9 4.7 7.3 2.95 7.8 3.1 7.95 3.7 7.95 3.75 7.95 3.85 7.95 4.5 8 5.5 7.6 6.7 7 7.25 6.1 Z"/>
</g>

<g id="pop_0_Layer4_0_FILL">
<path fill="#0C0A80" fill-opacity="0.2" stroke="none" d="
M 4.85 5.25
Q 4.85 4.4 4.25 3.75 3.65 3.15 2.8 3.15 1.95 3.15 1.35 3.75 0.7 4.4 0.7 5.25 0.7 6.1 1.35 6.7 1.95 7.3 2.8 7.3 3.65 7.3 4.25 6.7 4.85 6.1 4.85 5.25 Z"/>
</g>

<g id="pop_0_Layer3_0_FILL">
<path fill="#0C0A80" fill-opacity="0.2" stroke="none" d="
M 7.05 2.25
Q 7.05 1.6 6.6 1.15 6.15 0.7 5.5 0.7 4.85 0.7 4.4 1.15 3.95 1.6 3.95 2.25 3.95 2.9 4.4 3.35 4.85 3.8 5.5 3.8 6.15 3.8 6.6 3.35 7.05 2.9 7.05 2.25 Z"/>
</g>

<g id="pop_0_Layer2_0_FILL">
<path fill="#FFFFFF" fill-opacity="0.30196078431372547" stroke="none" d="
M 8.2 4.1
Q 8.2 2.4 7 1.2 5.8 0 4.1 0 2.4 0 1.2 1.2 0 2.4 0 4.1 0 5.8 1.2 7 2.4 8.2 4.1 8.2 5.8 8.2 7 7 8.2 5.8 8.2 4.1 Z"/>
</g>

<g id="pop_0_Layer1_0_FILL">
<path fill="#FFFFFF" fill-opacity="0.5019607843137255" stroke="none" d="
M 2.1 6.2
Q 3.7 5.95 2.65 3.7 1.9 1.2 4.2 0.3 3.65 0.35 3 0.55 1.7 1.1 1.1 1.9 0.5 2.75 0.4 3.5 0.35 3.65 0.35 3.95 0.4 6.2 2.1 6.2 Z"/>
</g>

<g id="pop_0_Layer0_0_FILL">
<path fill="#FFFFFF" fill-opacity="0.5019607843137255" stroke="none" d="
M 6.9 1.85
Q 6.9 1.45 6.65 1.2 6.35 0.9 6 0.9 5.6 0.9 5.35 1.2 5.05 1.45 5.05 1.85 5.05 2.2 5.35 2.5 5.6 2.75 6 2.75 6.35 2.75 6.65 2.5 6.9 2.2 6.9 1.85 Z"/>
</g>

<path id="Layer0_0_1_STROKES" stroke="#FFFFFF" stroke-width="5" stroke-linejoin="round" stroke-linecap="round" fill="none" d="
M 503.35 2656.45
Q 503.75 2656.55 504.2 2656.7 508.6 2658.1 513.25 2658.1 520.35 2658.1 526.6 2655.35 532.9 2652.7 537.6 2648.05 542.2 2643.4 544.85 2637.25
L 557.45 2660.65 570.65 2635.85 583.65 2660.55 608.65 2613.7 594.45 2613.7 583.65 2635.75 570.65 2610.25 557.35 2635.85 546.35 2613.7 546.15 2613.7 546.15 2613.65
M 534.7 2625.05
Q 534.5 2628.75 533.05 2632.05 531.4 2635.95 528.45 2638.9 525.55 2641.8 521.6 2643.5 518.25 2644.95 514.6 2645.15
M 503.35 2656.45
Q 499.4 2655.15 495.6 2653.55
L 495.6 2602.1 487.1 2602.1 487.1 2589.2 513.25 2589.2
Q 520.35 2589.2 526.6 2591.95 532.9 2594.7 537.6 2599.35 542.25 2604.05 544.9 2610.3 545.6 2611.95 546.15 2613.65
M 514.6 2645.15
Q 513.95 2645.2 513.25 2645.2 512 2645.2 510.8 2645.05 509.7 2644.9 508.55 2644.7
L 508.55 2602.1 513.25 2602.1
Q 517.65 2602.1 521.6 2603.75 525.55 2605.45 528.45 2608.45 530.75 2610.75 532.3 2613.7
L 532.15 2613.7 533.05 2615.35
Q 533.05 2615.4 533.1 2615.45 534.75 2619.3 534.75 2623.65 534.75 2624.35 534.7 2625.05"/>
</defs>

<g transform="matrix( 1, 0, 0, 1, -470.95,-2546.25) ">
<use xlink:href="#Layer0_0_FILL"/>

<use xlink:href="#Layer0_0_1_STROKES"/>
</g>

<g transform="matrix( 17.917984008789062, 0, 0, 17.917984008789062, 0,0) ">
<g transform="matrix( 1, 0, 0, 1, 0,0) ">
<use xlink:href="#pop_0_Layer5_0_FILL"/>
</g>

<g transform="matrix( 1, 0, 0, 1, 0,0) ">
<use xlink:href="#pop_0_Layer4_0_FILL"/>
</g>

<g transform="matrix( 1, 0, 0, 1, 0,0) ">
<use xlink:href="#pop_0_Layer3_0_FILL"/>
</g>

<g transform="matrix( 1, 0, 0, 1, 0,0) ">
<use xlink:href="#pop_0_Layer2_0_FILL"/>
</g>

<g transform="matrix( 1, 0, 0, 1, 0,0) ">
<use xlink:href="#pop_0_Layer1_0_FILL"/>
</g>

<g transform="matrix( 1, 0, 0, 1, 0,0) ">
<use xlink:href="#pop_0_Layer0_0_FILL"/>
</g>
</g>
</svg>
