
<svg xmlns="http://www.w3.org/2000/svg" version="1.1" xmlns:xlink="http://www.w3.org/1999/xlink" preserveAspectRatio="none" x="0px" y="0px" width="196px" height="196px" viewBox="0 0 196 196">
<defs>
<g id="Layer0_0_MEMBER_0_FILL">
<path fill="#057ED0" stroke="none" d="
M 161.4 2294.55
Q 159.45 2297.1 156.45 2298.55 153.45 2299.95 149.8 2300.5 146.25 2301.1 143.05 2301.1 142.25 2301.1 141.5 2301.1
L 113.4 2329.15 113.4 2350 130.65 2350 130.65 2317.1
Q 136.8 2318.25 142.95 2318.25 149.95 2318.25 156.75 2316.5 163.55 2314.8 168.8 2311.05 174.05 2307.35 177.3 2301.7 180.55 2296 180.55 2287.95 180.55 2281 177.95 2275.75 176.1 2272.05 173.35 2269.2
L 161.15 2281.4
Q 161.6 2281.95 162 2282.6 163.25 2284.75 163.25 2287.95 163.25 2292 161.4 2294.55 Z"/>

<path fill="#005792" stroke="none" d="
M 101.95 2259.6
L 101.95 2276.8 113.4 2276.8 113.4 2329.15 141.5 2301.1
Q 136 2300.9 130.65 2299.55
L 130.65 2276.8 148.45 2276.8
Q 151.15 2276.8 153.8 2277.35 156.5 2277.95 158.65 2279.2 160.1 2280.1 161.15 2281.4
L 173.35 2269.2
Q 172.2 2268 170.9 2266.95 166.5 2263.35 160.7 2261.5 154.8 2259.6 148.45 2259.6
L 101.95 2259.6 Z"/>
</g>

<g id="Layer0_0_MEMBER_0_MEMBER_0_FILL">
<path fill="#057ED0" stroke="none" d="
M 227.2 2297
Q 218.3 2290.35 209.2 2290.35 204.95 2290.35 201.15 2291.85 197.3 2293.45 194.35 2296.1 191.4 2298.8 189.65 2302.55 187.95 2306.35 187.95 2310.7 187.95 2315.45 190.2 2319.75 192.4 2324 196.65 2327.2 198.45 2328.5 198.45 2329.85 198.45 2331.2 197.1 2332 195.8 2332.85 193.85 2332.85
L 180.55 2332.85 180.55 2350 193.85 2350
Q 198.2 2350 202.15 2348.5 206.15 2347.05 209.1 2344.45 212.05 2341.8 213.8 2338.1 215.6 2334.35 215.6 2329.85 215.6 2325.3 213.35 2321 211.1 2316.75 207.05 2313.5 205.95 2312.75 205.55 2312 205.1 2311.2 205.1 2310.05 205.1 2307.5 209.2 2307.5 212.55 2307.5 216.8 2310.7
L 227.2 2297 Z"/>
</g>

<g id="pop_0_Layer5_0_FILL">
<path fill="#0C0A80" fill-opacity="0.2" stroke="none" d="
M 7.25 6.1
Q 7.75 5.2 7.85 4.45 7.85 4.3 7.85 4 7.7 2.15 6.05 1.6 4.15 1.1 3 2.6 1.9 4.15 3.45 5.9 4.7 7.3 2.95 7.8 3.1 7.95 3.7 7.95 3.75 7.95 3.85 7.95 4.5 8 5.5 7.6 6.7 7 7.25 6.1 Z"/>
</g>

<g id="pop_0_Layer4_0_FILL">
<path fill="#0C0A80" fill-opacity="0.2" stroke="none" d="
M 4.85 5.25
Q 4.85 4.4 4.25 3.75 3.65 3.15 2.8 3.15 1.95 3.15 1.35 3.75 0.7 4.4 0.7 5.25 0.7 6.1 1.35 6.7 1.95 7.3 2.8 7.3 3.65 7.3 4.25 6.7 4.85 6.1 4.85 5.25 Z"/>
</g>

<g id="pop_0_Layer3_0_FILL">
<path fill="#0C0A80" fill-opacity="0.2" stroke="none" d="
M 7.05 2.25
Q 7.05 1.6 6.6 1.15 6.15 0.7 5.5 0.7 4.85 0.7 4.4 1.15 3.95 1.6 3.95 2.25 3.95 2.9 4.4 3.35 4.85 3.8 5.5 3.8 6.15 3.8 6.6 3.35 7.05 2.9 7.05 2.25 Z"/>
</g>

<g id="pop_0_Layer2_0_FILL">
<path fill="#FFFFFF" fill-opacity="0.30196078431372547" stroke="none" d="
M 8.2 4.1
Q 8.2 2.4 7 1.2 5.8 0 4.1 0 2.4 0 1.2 1.2 0 2.4 0 4.1 0 5.8 1.2 7 2.4 8.2 4.1 8.2 5.8 8.2 7 7 8.2 5.8 8.2 4.1 Z"/>
</g>

<g id="pop_0_Layer1_0_FILL">
<path fill="#FFFFFF" fill-opacity="0.5019607843137255" stroke="none" d="
M 2.1 6.2
Q 3.7 5.95 2.65 3.7 1.9 1.2 4.2 0.3 3.65 0.35 3 0.55 1.7 1.1 1.1 1.9 0.5 2.75 0.4 3.5 0.35 3.65 0.35 3.95 0.4 6.2 2.1 6.2 Z"/>
</g>

<g id="pop_0_Layer0_0_FILL">
<path fill="#FFFFFF" fill-opacity="0.5019607843137255" stroke="none" d="
M 6.9 1.85
Q 6.9 1.45 6.65 1.2 6.35 0.9 6 0.9 5.6 0.9 5.35 1.2 5.05 1.45 5.05 1.85 5.05 2.2 5.35 2.5 5.6 2.75 6 2.75 6.35 2.75 6.65 2.5 6.9 2.2 6.9 1.85 Z"/>
</g>

<path id="Layer0_0_MEMBER_0_1_STROKES" stroke="#FFFFFF" stroke-width="5" stroke-linejoin="round" stroke-linecap="round" fill="none" d="
M 173.35 2269.2
Q 172.2 2268 170.9 2266.95 166.5 2263.35 160.7 2261.5 154.8 2259.6 148.45 2259.6
L 101.95 2259.6 101.95 2276.8 113.4 2276.8 113.4 2329.15
M 141.5 2301.1
Q 136 2300.9 130.65 2299.55
L 130.65 2276.8 148.45 2276.8
Q 151.15 2276.8 153.8 2277.35 156.5 2277.95 158.65 2279.2 160.1 2280.1 161.15 2281.4
M 173.35 2269.2
Q 176.1 2272.05 177.95 2275.75 180.55 2281 180.55 2287.95 180.55 2296 177.3 2301.7 174.05 2307.35 168.8 2311.05 163.55 2314.8 156.75 2316.5 149.95 2318.25 142.95 2318.25 136.8 2318.25 130.65 2317.1
L 130.65 2350 113.4 2350 113.4 2329.15
M 161.15 2281.4
Q 161.6 2281.95 162 2282.6 163.25 2284.75 163.25 2287.95 163.25 2292 161.4 2294.55 159.45 2297.1 156.45 2298.55 153.45 2299.95 149.8 2300.5 146.25 2301.1 143.05 2301.1 142.25 2301.1 141.5 2301.1"/>

<path id="Layer0_0_MEMBER_0_MEMBER_0_1_STROKES" stroke="#FFFFFF" stroke-width="5" stroke-linejoin="round" stroke-linecap="round" fill="none" d="
M 227.2 2297
Q 218.3 2290.35 209.2 2290.35 204.95 2290.35 201.15 2291.85 197.3 2293.45 194.35 2296.1 191.4 2298.8 189.65 2302.55 187.95 2306.35 187.95 2310.7 187.95 2315.45 190.2 2319.75 192.4 2324 196.65 2327.2 198.45 2328.5 198.45 2329.85 198.45 2331.2 197.1 2332 195.8 2332.85 193.85 2332.85
L 180.55 2332.85 180.55 2350 193.85 2350
Q 198.2 2350 202.15 2348.5 206.15 2347.05 209.1 2344.45 212.05 2341.8 213.8 2338.1 215.6 2334.35 215.6 2329.85 215.6 2325.3 213.35 2321 211.1 2316.75 207.05 2313.5 205.95 2312.75 205.55 2312 205.1 2311.2 205.1 2310.05 205.1 2307.5 209.2 2307.5 212.55 2307.5 216.8 2310.7
L 227.2 2297 Z"/>
</defs>

<g transform="matrix( 1, 0, 0, 1, -63.6,-2203.85) ">
<use xlink:href="#Layer0_0_MEMBER_0_FILL"/>

<use xlink:href="#Layer0_0_MEMBER_0_1_STROKES"/>
</g>

<g transform="matrix( 1, 0, 0, 1, -63.6,-2203.85) ">
<use xlink:href="#Layer0_0_MEMBER_0_MEMBER_0_FILL"/>

<use xlink:href="#Layer0_0_MEMBER_0_MEMBER_0_1_STROKES"/>
</g>

<g transform="matrix( 23.891006469726562, 0, 0, 23.891006469726562, 0,0) ">
<g transform="matrix( 1, 0, 0, 1, 0,0) ">
<use xlink:href="#pop_0_Layer5_0_FILL"/>
</g>

<g transform="matrix( 1, 0, 0, 1, 0,0) ">
<use xlink:href="#pop_0_Layer4_0_FILL"/>
</g>

<g transform="matrix( 1, 0, 0, 1, 0,0) ">
<use xlink:href="#pop_0_Layer3_0_FILL"/>
</g>

<g transform="matrix( 1, 0, 0, 1, 0,0) ">
<use xlink:href="#pop_0_Layer2_0_FILL"/>
</g>

<g transform="matrix( 1, 0, 0, 1, 0,0) ">
<use xlink:href="#pop_0_Layer1_0_FILL"/>
</g>

<g transform="matrix( 1, 0, 0, 1, 0,0) ">
<use xlink:href="#pop_0_Layer0_0_FILL"/>
</g>
</g>
</svg>
