
<svg xmlns="http://www.w3.org/2000/svg" version="1.1" xmlns:xlink="http://www.w3.org/1999/xlink" preserveAspectRatio="none" x="0px" y="0px" width="123px" height="123px" viewBox="0 0 123 123">
<defs>
<g id="Layer0_0_FILL">
<path fill="#FF9900" stroke="none" d="
M 253 2683.1
Q 252.3 2683.1 251.65 2683.25 249.5 2683.6 247.95 2685.15 246.3 2686.75 245.95 2688.9 245.85 2689.5 245.85 2690.2 245.85 2693.25 247.95 2695.25 250 2697.3 253 2697.3 255.9 2697.3 258.05 2695.25 260.1 2693.25 260.1 2690.2 260.1 2687.2 258.05 2685.15 255.9 2683.1 253 2683.1
M 216.05 2722.25
L 212.6 2722.25 201.9 2732.95 221.1 2732.95 224.65 2740.5 236.5 2740.5 223.1 2711.8 214.95 2719.9 216.05 2722.25
M 241.7 2704.4
L 241.7 2715.25 248.35 2715.25 248.35 2740.5 259.1 2740.5 259.1 2704.4 241.7 2704.4 Z"/>

<path fill="#B66D00" stroke="none" d="
M 208.7 2706.45
L 214.95 2719.9 223.1 2711.8 208.7 2681.05 180.95 2740.5 192.8 2740.5 196.35 2732.95 201.9 2732.95 212.6 2722.25 201.4 2722.25 208.7 2706.45 Z"/>
</g>

<g id="pop_0_Layer5_0_FILL">
<path fill="#0C0A80" fill-opacity="0.2" stroke="none" d="
M 7.25 6.1
Q 7.75 5.2 7.85 4.45 7.85 4.3 7.85 4 7.7 2.15 6.05 1.6 4.15 1.1 3 2.6 1.9 4.15 3.45 5.9 4.7 7.3 2.95 7.8 3.1 7.95 3.7 7.95 3.75 7.95 3.85 7.95 4.5 8 5.5 7.6 6.7 7 7.25 6.1 Z"/>
</g>

<g id="pop_0_Layer4_0_FILL">
<path fill="#0C0A80" fill-opacity="0.2" stroke="none" d="
M 4.85 5.25
Q 4.85 4.4 4.25 3.75 3.65 3.15 2.8 3.15 1.95 3.15 1.35 3.75 0.7 4.4 0.7 5.25 0.7 6.1 1.35 6.7 1.95 7.3 2.8 7.3 3.65 7.3 4.25 6.7 4.85 6.1 4.85 5.25 Z"/>
</g>

<g id="pop_0_Layer3_0_FILL">
<path fill="#0C0A80" fill-opacity="0.2" stroke="none" d="
M 7.05 2.25
Q 7.05 1.6 6.6 1.15 6.15 0.7 5.5 0.7 4.85 0.7 4.4 1.15 3.95 1.6 3.95 2.25 3.95 2.9 4.4 3.35 4.85 3.8 5.5 3.8 6.15 3.8 6.6 3.35 7.05 2.9 7.05 2.25 Z"/>
</g>

<g id="pop_0_Layer2_0_FILL">
<path fill="#FFFFFF" fill-opacity="0.30196078431372547" stroke="none" d="
M 8.2 4.1
Q 8.2 2.4 7 1.2 5.8 0 4.1 0 2.4 0 1.2 1.2 0 2.4 0 4.1 0 5.8 1.2 7 2.4 8.2 4.1 8.2 5.8 8.2 7 7 8.2 5.8 8.2 4.1 Z"/>
</g>

<g id="pop_0_Layer1_0_FILL">
<path fill="#FFFFFF" fill-opacity="0.5019607843137255" stroke="none" d="
M 2.1 6.2
Q 3.7 5.95 2.65 3.7 1.9 1.2 4.2 0.3 3.65 0.35 3 0.55 1.7 1.1 1.1 1.9 0.5 2.75 0.4 3.5 0.35 3.65 0.35 3.95 0.4 6.2 2.1 6.2 Z"/>
</g>

<g id="pop_0_Layer0_0_FILL">
<path fill="#FFFFFF" fill-opacity="0.5019607843137255" stroke="none" d="
M 6.9 1.85
Q 6.9 1.45 6.65 1.2 6.35 0.9 6 0.9 5.6 0.9 5.35 1.2 5.05 1.45 5.05 1.85 5.05 2.2 5.35 2.5 5.6 2.75 6 2.75 6.35 2.75 6.65 2.5 6.9 2.2 6.9 1.85 Z"/>
</g>

<path id="Layer0_0_1_STROKES" stroke="#FFFFFF" stroke-width="5" stroke-linejoin="round" stroke-linecap="round" fill="none" d="
M 259.1 2740.5
L 259.1 2704.4 241.7 2704.4 241.7 2715.25 248.35 2715.25 248.35 2740.5 259.1 2740.5 Z
M 214.95 2719.9
L 216.05 2722.25 212.6 2722.25
M 201.9 2732.95
L 221.1 2732.95 224.65 2740.5 236.5 2740.5 223.1 2711.8
M 214.95 2719.9
L 208.7 2706.45 201.4 2722.25 212.6 2722.25
M 223.1 2711.8
L 208.7 2681.05 180.95 2740.5 192.8 2740.5 196.35 2732.95 201.9 2732.95
M 260.1 2690.2
Q 260.1 2687.2 258.05 2685.15 255.9 2683.1 253 2683.1 252.3 2683.1 251.65 2683.25 249.5 2683.6 247.95 2685.15 246.3 2686.75 245.95 2688.9 245.85 2689.5 245.85 2690.2 245.85 2693.25 247.95 2695.25 250 2697.3 253 2697.3 255.9 2697.3 258.05 2695.25 260.1 2693.25 260.1 2690.2 Z"/>
</defs>

<g transform="matrix( 1, 0, 0, 1, -160.85,-2649.2) ">
<use xlink:href="#Layer0_0_FILL"/>

<use xlink:href="#Layer0_0_1_STROKES"/>
</g>

<g transform="matrix( 14.93170166015625, 0, 0, 14.93170166015625, 0,0) ">
<g transform="matrix( 1, 0, 0, 1, 0,0) ">
<use xlink:href="#pop_0_Layer5_0_FILL"/>
</g>

<g transform="matrix( 1, 0, 0, 1, 0,0) ">
<use xlink:href="#pop_0_Layer4_0_FILL"/>
</g>

<g transform="matrix( 1, 0, 0, 1, 0,0) ">
<use xlink:href="#pop_0_Layer3_0_FILL"/>
</g>

<g transform="matrix( 1, 0, 0, 1, 0,0) ">
<use xlink:href="#pop_0_Layer2_0_FILL"/>
</g>

<g transform="matrix( 1, 0, 0, 1, 0,0) ">
<use xlink:href="#pop_0_Layer1_0_FILL"/>
</g>

<g transform="matrix( 1, 0, 0, 1, 0,0) ">
<use xlink:href="#pop_0_Layer0_0_FILL"/>
</g>
</g>
</svg>
