
<svg xmlns="http://www.w3.org/2000/svg" version="1.1" xmlns:xlink="http://www.w3.org/1999/xlink" preserveAspectRatio="none" x="0px" y="0px" width="2100px" height="3272px" viewBox="0 0 2100 3272">
<defs>
<linearGradient id="Gradient_1" gradientUnits="userSpaceOnUse" x1="1040.125" y1="50.41249999999991" x2="1041.0749999999998" y2="1350.3875" spreadMethod="pad">
<stop  offset="0%" stop-color="#C6ECFF"/>

<stop  offset="100%" stop-color="#001E2E"/>
</linearGradient>

<linearGradient id="Gradient_2" gradientUnits="userSpaceOnUse" x1="1058.8999999999999" y1="12.012500000000045" x2="1060.2" y2="3091.8875" spreadMethod="pad">
<stop  offset="1.1764705882352942%" stop-color="#83D4FF"/>

<stop  offset="48.627450980392155%" stop-color="#01040C"/>

<stop  offset="100%" stop-color="#69964B"/>
</linearGradient>

<g id="Layer0_0_FILL">
<path fill="url(#Gradient_1)" stroke="none" d="
M 119.25 45.95
L 130.15 45.95
Q 166.65 60.65 229.75 68.7 166.65 57.35 130.15 36.5
L 119.25 36.5
Q 59.45 56.4 5.45 69.2 59.45 60.15 119.25 45.95
M 884.2 65.4
Q 898.85 67.75 915.9 69.2 898.85 67.3 884.2 63.95 842.95 54.5 807.8 46.45 761.35 60.15 722.9 69.2 761.35 63 807.8 53.05 842.95 58.75 884.2 65.4
M 1185.8 66.35
Q 1189.6 67.75 1194.35 69.2 1189.6 67.3 1185.8 65.4 1151.6 48.8 1148.25 47.4 1108.5 55.9 1070.6 63.95 1053.55 67.3 1033.5 69.2 1053.55 67.75 1070.6 65.4 1108.5 59.7 1148.25 53.55 1151.6 54.5 1185.8 66.35
M 1485.1 63.95
Q 1499.75 67.3 1514.45 69.2 1499.75 66.35 1485.1 62.05 1454.15 52.6 1443.75 49.75 1418.15 61.6 1393.55 69.65 1418.15 63.95 1443.75 55.45 1454.15 57.35 1485.1 63.95
M 2112.95 59.7
L 2112.95 55.9
Q 2094.85 57.8 2081.1 57.8 2044.15 57.8 2014.8 52.1 1996.7 48.8 1970.15 41.25 1942.7 56.85 1890.45 69.65 1942.7 60.65 1970.15 49.3 1996.7 54.5 2014.8 56.85 2044.15 61.1 2081.1 61.1 2094.85 61.1 2112.95 59.7 Z"/>

<path fill="url(#Gradient_2)" stroke="none" d="
M 2014.8 56.85
Q 1996.7 54.5 1970.15 49.3 1942.7 60.65 1890.45 69.65 1882.85 70.6 1875.3 72 1810.85 82.55 1765.25 76.85 1736.4 72.95 1715.05 69.2 1703.2 67.3 1693.75 65.4 1666.15 60.15 1656.7 58.3 1651.95 60.65 1626.85 65.85 1615.45 68.25 1605.05 69.65 1572.7 73.9 1548.55 72.5 1531.5 71.55 1514.45 69.2 1499.75 67.3 1485.1 63.95 1454.15 57.35 1443.75 55.45 1418.15 63.95 1393.55 69.65 1342.75 80.65 1293.95 79.7 1228.9 77.8 1194.35 69.2 1189.6 67.75 1185.8 66.35 1151.6 54.5 1148.25 53.55 1108.5 59.7 1070.6 65.4 1053.55 67.75 1033.5 69.2 1008.9 70.6 979.05 71.05 944.45 71.55 915.9 69.2 898.85 67.75 884.2 65.4 842.95 58.75 807.8 53.05 761.35 63 722.9 69.2 653.25 80.2 608.6 79.7 546.05 78.75 467.3 69.2 457.85 68.25 448.35 66.8 408.95 61.1 396.6 58.75 383.35 61.1 369.15 63.5 346.4 67.3 327.45 69.2 277.6 74.85 249.2 71.05 238.75 70.1 229.75 68.7 166.65 60.65 130.15 45.95
L 119.25 45.95
Q 59.45 60.15 5.45 69.2 -13.15 72.5 -31.15 74.85
L -31.15 3321.55 2112.95 3321.55 2112.95 59.7
Q 2094.85 61.1 2081.1 61.1 2044.15 61.1 2014.8 56.85 Z"/>
</g>
</defs>

<g transform="matrix( 1, 0, 0, 1, 0,-36.5) ">
<use xlink:href="#Layer0_0_FILL"/>
</g>
</svg>
