<?xml version="1.0" encoding="utf-8"?>
<!-- Generator: Adobe Illustrator 17.1.0, SVG Export Plug-In . SVG Version: 6.00 Build 0)  -->
<!DOCTYPE svg PUBLIC "-//W3C//DTD SVG 1.1//EN" "http://www.w3.org/Graphics/SVG/1.1/DTD/svg11.dtd">
<svg version="1.1" id="图层_1" xmlns="http://www.w3.org/2000/svg" xmlns:xlink="http://www.w3.org/1999/xlink" x="0px" y="0px"
	 viewBox="0 0 2100 300” enable-background="new 0 0 2100 300” xml:space="preserve">
<g transform="matrix( 1, 0, 0, 1, 0,-9) ">
	<g>
		<g id="Layer0_0_FILL">
			<path fill="#42BFFF" d="M2212,42.1c-2.9-0.3-5.6-0.6-8.1-0.9c-48-5.4-99.1-13-153.1-22.8h-11.9c-30.1,9.5-72.6,16.2-127.5,20.3
				c-2.8,0.2-5.9,0.5-9.2,0.7l-7.9,0.8c-7,0-14.4,0-22.2,0l-9.5-0.5c-22.4-0.9-49.2-3.3-80.2-7.1c-9.8-1.3-19.4-2.5-28.9-3.8
				c-9.5,1.3-28.1,3.5-55.9,6.6c-20.6,1.9-40.6,3.6-59.8,5.2c-40.8,3.2-78.2,4.9-111.9,5.2c-25.6,0.3-56.6-1.4-93-5.2
				c-35.1-3.8-75.4-9.2-120.9-16.1c-25.3,2.8-52.5,6.1-81.6,9.9c-29.1,3.2-63.1,4.6-101.9,4.2c-38.5-0.3-71.4-1.7-98.7-4.2
				c-26.9-3.2-54.5-6.5-82.9-9.9c-2.3,0.6-15.8,4.1-40.4,10.4c-9.5,2.2-20.7,4.1-33.7,5.7c-22.1,2.8-49.4,4.6-82,5.2
				c-27.5,0.3-55.5-1.4-84-5.2c-25.6-3.2-51.3-7.9-77.2-14.2c-7.6,0.9-22.3,3.1-44.1,6.6c-22.1,3.5-44.7,5.9-67.9,7.1
				c-23.1,0.9-51.2-1-84.3-5.7c-18.1-2.8-28.7-4.9-31.9-6.1c-7.3,1.3-20.4,3.3-39.3,6.1c-13.9,1.9-31.6,4.1-53.2,6.7
				c-7.6,0.9-15.6,1.7-24.1,2.3c-30.6,2.8-67.3,1.9-110-2.8h-1.4l-0.8-0.1c-1.9-0.2-3.8-0.5-5.8-0.9c-45.6-5.4-79.6-11.5-102-18.4
				c-18.6,2.8-34.6,4.9-47.9,6.1c-20.9,2.2-44.6,3.3-71.1,3.3c-9.8,0-21-0.3-33.7-0.9v756.9h2300V42.1z"/>
		</g>
	</g>
</g>
</svg>
