<?xml version="1.0" encoding="utf-8"?>
<!-- Generator: Adobe Illustrator 17.1.0, SVG Export Plug-In . SVG Version: 6.00 Build 0)  -->
<!DOCTYPE svg PUBLIC "-//W3C//DTD SVG 1.1//EN" "http://www.w3.org/Graphics/SVG/1.1/DTD/svg11.dtd">
<svg version="1.1" id="图层_1" xmlns="http://www.w3.org/2000/svg" xmlns:xlink="http://www.w3.org/1999/xlink" x="0px" y="0px"
	 viewBox="0 0 210 327.1" enable-background="new 0 0 210 327.1" xml:space="preserve">
<g transform="matrix( 2.4250030517578125, 0, 0, 2.4249267578125, 736,-753.65) ">
	<g>
		<g id="Layer0_0_FILL">
			<path fill="#FFFFFF" fill-opacity="0.502" d="M-297.8,311c-0.7,0.2-1.3,0.4-1.8,0.5c-0.8,0.2-1.7,0.2-2.7,0.2
				c-0.4,0-0.8,0-1.3-0.1v0.4c0.5,0,0.9,0.1,1.3,0.1c1,0,1.9-0.1,2.7-0.2c0.5-0.1,1.1-0.2,1.8-0.3c0.8,0.4,2.1,0.7,3.8,1
				c1.8,0.3,3.3,0.4,4.5,0.2c1.2-0.2,2.2-0.3,2.9-0.5c0.7-0.1,1.2-0.2,1.5-0.3c0.1,0.1,0.5,0.2,1.2,0.3c1.2,0.2,2.3,0.3,3.2,0.3
				c0.9-0.1,1.7-0.2,2.5-0.4c0.8-0.2,1.4-0.3,1.7-0.4c1.7,0.6,3.3,0.9,4.9,1c-1.6-0.1-3.2-0.6-4.9-1.4c-0.3,0.1-0.9,0.3-1.7,0.5
				c-0.8,0.3-1.6,0.4-2.5,0.5c-0.9,0.1-1.9,0-3.2-0.4c-0.7-0.2-1.1-0.4-1.2-0.5c-0.3,0.1-0.8,0.2-1.5,0.4c-0.7,0.2-1.7,0.4-2.9,0.7
				c-1.2,0.2-2.7,0.1-4.5-0.3C-295.6,312-296.9,311.5-297.8,311 M-269.7,312.8c1.6-0.1,2.8-0.3,3.6-0.5c0.9-0.3,1.4-0.5,1.5-0.5
				c1.1,0.2,2.1,0.3,3.1,0.5c1,0.1,2.2,0.2,3.7,0.2c1.5,0,2.7-0.1,3.8-0.2c1.1-0.2,2.1-0.4,3.1-0.5c3.1,0.7,5.5,1.1,7.3,1.1
				c-1.8-0.1-4.3-0.6-7.3-1.6c-0.9,0.2-2,0.5-3.1,0.7c-1.1,0.3-2.4,0.4-3.8,0.3c-1.5,0-2.7-0.1-3.7-0.3c-1-0.2-2.1-0.5-3.1-0.7
				c-0.1,0-0.6,0.3-1.5,0.8C-266.9,312.4-268.1,312.7-269.7,312.8 M-233.1,311.8c-0.4-0.1-0.7-0.2-1.1-0.3c-0.3,0.1-1,0.3-2.1,0.5
				c-1.8,0.4-3.5,0.6-5,0.7c1.5-0.1,3.2-0.2,5-0.5c1.1-0.2,1.8-0.3,2.1-0.3c0.4,0.1,0.7,0.1,1.1,0.2c2.2,0.4,3.8,0.5,4.8,0.3
				c2.1-0.2,3.7-0.6,4.8-1.1h0.5c2.1,0.5,4.2,0.9,6.1,1.2v-0.1c-1.9-0.4-3.9-1-6.1-1.7h-0.5c-1.1,0.7-2.7,1.2-4.8,1.5
				C-229.3,312.5-230.9,312.4-233.1,311.8z"/>
			<path fill="#006BFF" fill-opacity="0.4" d="M-233.1,312.1c-0.4-0.1-0.7-0.1-1.1-0.2c-0.3,0.1-1,0.2-2.1,0.3
				c-1.8,0.3-3.5,0.4-5,0.5l-2.2,0.1c-1.8-0.1-4.3-0.4-7.3-1.1c-0.9,0.2-2,0.3-3.1,0.5c-1.1,0.2-2.4,0.3-3.8,0.2
				c-1.5,0-2.7-0.1-3.7-0.2c-1-0.2-2.1-0.3-3.1-0.5c-0.1,0-0.6,0.2-1.5,0.5c-0.8,0.3-2,0.5-3.6,0.5l-0.7,0c-0.2,0-0.3,0-0.5,0
				l-0.7,0c-1.6-0.1-3.2-0.4-4.9-1c-0.3,0.1-0.9,0.2-1.7,0.4c-0.8,0.2-1.6,0.3-2.5,0.4c-0.9,0.1-1.9,0-3.2-0.3
				c-0.7-0.1-1.1-0.3-1.2-0.3c-0.3,0.1-0.8,0.2-1.5,0.3c-0.7,0.1-1.7,0.3-2.9,0.5c-1.2,0.2-2.7,0.1-4.5-0.2c-1.7-0.3-3-0.6-3.8-1
				c-0.7,0.1-1.3,0.3-1.8,0.3c-0.8,0.1-1.7,0.2-2.7,0.2c-0.4,0-0.8,0-1.3-0.1v133.7h86.6V312.6c-1.9-0.3-3.9-0.7-6.1-1.2h-0.5
				c-1.1,0.5-2.7,0.8-4.8,1.1C-229.3,312.6-230.9,312.5-233.1,312.1z"/>
		</g>
	</g>
</g>
</svg>
