<?xml version="1.0" encoding="utf-8"?>
<!-- Generator: Adobe Illustrator 17.1.0, SVG Export Plug-In . SVG Version: 6.00 Build 0)  -->
<!DOCTYPE svg PUBLIC "-//W3C//DTD SVG 1.1//EN" "http://www.w3.org/Graphics/SVG/1.1/DTD/svg11.dtd">
<svg version="1.1" id="图层_1" xmlns="http://www.w3.org/2000/svg" xmlns:xlink="http://www.w3.org/1999/xlink" x="0px" y="0px"
	 viewBox="0 0 595.3 841.9" enable-background="new 0 0 595.3 841.9" xml:space="preserve">
<g transform="matrix( -1, 0, 0, 1, 3945.1,0) ">
	<g>
		<g id="Layer0_1_FILL_1_">
			
				<linearGradient id="SVGID_1_" gradientUnits="userSpaceOnUse" x1="-1414.5221" y1="3976.5134" x2="-1414.7006" y2="3857.1208" gradientTransform="matrix(1.0897 0 0 -1.0897 4988.4644 4334.623)">
				<stop  offset="0" style="stop-color:#00A8FF"/>
				<stop  offset="1" style="stop-color:#000000"/>
			</linearGradient>
			<path fill="url(#SVGID_1_)" d="M3262,3c2.1,0.2,3.9,0.2,5.2,0.2c4.3,0,8.2-0.2,11.6-0.6c2.1-0.2,4.7-0.4,7.7-0.9
				c3.7,1.3,9.2,2.2,16.5,3c7.5,0.9,13.9,1.3,18.9,0.6c5.2-0.6,9.4-0.9,12.4-1.7c3-0.7,5.2-0.7,6.4-0.9c0.6,0.2,2.2,0.6,5.1,0.9
				c5.2,0.7,9.7,0.9,13.7,0.9c3.7-0.2,7.3-0.6,11.1-1.3c3.6-0.6,6-0.9,7.1-1.3c9,2.4,17.8,3.6,26.1,3.6c8.4-0.2,14.6-0.7,18.7-1.9
				c4.1-0.9,6.2-1.7,6.6-1.9c4.5,0.6,9,0.9,13.3,1.7c4.5,0.4,9.7,0.6,15.9,0.7c6.4,0,11.8-0.2,16.5-0.7c4.7-0.6,9-1.3,13.1-1.9
				c15,2.4,26.6,3.7,34.5,3.7s17.4-0.6,27.7-1.9c4.5-0.6,7.5-0.9,9-1.3c1.7,0.2,3,0.4,4.7,0.6c9.4,1.3,16.3,1.5,20.8,0.9
				c9-0.7,15.7-1.9,20.6-3.6h1.9c9.2,1.9,18,3,26.1,3.9v127.3h-371.9V3H3262z"/>
		</g>
	</g>
</g>
<g transform="matrix( 1, 0, 0, 1, -3642.15,0) ">
	<g>
		<g id="Layer0_2_FILL">
			
				<linearGradient id="SVGID_2_" gradientUnits="userSpaceOnUse" x1="14685.5508" y1="3977.4138" x2="14685.7295" y2="3858.0212" gradientTransform="matrix(1.0897 0 0 -1.0897 -12232.2607 4334.623)">
				<stop  offset="0" style="stop-color:#00A8FF"/>
				<stop  offset="1" style="stop-color:#000000"/>
			</linearGradient>
			<path fill="url(#SVGID_2_)" d="M3929.3,0.3h-1.9c-4.9,1.7-11.6,2.6-20.6,3.6c-4.5,0.4-11.4,0.2-20.8-0.9
				c-1.7-0.2-3.2-0.4-4.7-0.6c-1.5,0.2-4.5,0.6-9,1.3c-10.5,0.9-19.9,1.7-27.7,1.9c-8.2,0-19.7-1.3-34.5-3.7
				c-4.1,0.6-8.4,0.9-13.1,1.9c-4.7,0.4-10.1,0.7-16.5,0.7c-6.4,0-11.6-0.4-15.9-0.7c-4.3-0.6-8.8-1.3-13.3-1.7
				c-0.4,0-2.6,0.6-6.6,1.9c-4.1,0.9-10.1,1.7-18.7,1.9c-8.4,0.2-17.2-0.9-26.1-3.6c-1.3,0.2-3.7,0.6-7.1,1.3
				c-3.6,0.6-7.1,0.9-11.1,1.3c-3.7,0.2-8.4-0.2-13.7-0.9c-2.8-0.4-4.7-0.7-5.1-0.9c-1.3,0.2-3.2,0.6-6.4,0.9s-7.1,0.9-12.4,1.7
				s-11.6,0.2-18.9-0.6s-12.9-1.9-16.5-3c-3,0.4-5.4,0.7-7.7,0.9c-3.6,0.4-7.1,0.6-11.6,0.6c-1.7,0-3.2,0-5.2-0.2v129.5h371.9V4.3
				C3947.3,3.3,3938.5,2.2,3929.3,0.3z"/>
		</g>
	</g>
</g>
</svg>
