<?xml version="1.0" encoding="utf-8"?>
<!-- Generator: Adobe Illustrator 17.1.0, SVG Export Plug-In . SVG Version: 6.00 Build 0)  -->
<!DOCTYPE svg PUBLIC "-//W3C//DTD SVG 1.1//EN" "http://www.w3.org/Graphics/SVG/1.1/DTD/svg11.dtd">
<svg version="1.1" id="图层_1" xmlns="http://www.w3.org/2000/svg" xmlns:xlink="http://www.w3.org/1999/xlink" x="0px" y="0px"
	 viewBox="0 0 595.3 841.9" enable-background="new 0 0 595.3 841.9" xml:space="preserve">
<g transform="matrix( 1, 0, 0, 1, 0,-36.5) ">
	<g>
		<g id="Layer0_0_FILL">
			
				<linearGradient id="SVGID_1_" gradientUnits="userSpaceOnUse" x1="109.1492" y1="-2390.1123" x2="109.2444" y2="-2259.8171" gradientTransform="matrix(2.5628 0 0 2.5628 22.9045 6165.5103)">
				<stop  offset="0" style="stop-color:#C6ECFF"/>
				<stop  offset="1" style="stop-color:#001E2E"/>
			</linearGradient>
			<path fill="url(#SVGID_1_)" d="M41.6,38.8h3.1c6.7,2.6,16.1,4.4,27.8,5.9c-11.7-2.1-20.8-4.6-27.8-8.2h-3.1
				C30.5,39.8,20,42.7,10,45C20.3,43.4,30.8,41.4,41.6,38.8 M254,43.9c2.8,0.5,5.6,0.8,8.9,1c-3.1-0.3-6.1-0.8-8.9-1.3
				c-7.8-1.5-14.7-3.1-21.1-4.6c-8.6,2.3-16.4,4.4-23.6,5.9c7.2-1,15-2.6,23.6-4.1C239.3,41.6,246.6,42.7,254,43.9 M337.9,44.2
				c0.8,0.3,1.4,0.5,2.5,0.8C339.3,44.4,338.5,44.2,337.9,44.2c-6.4-3.1-9.7-4.6-10.6-4.9c-7.5,1.5-14.4,2.8-21.7,4.4
				c-3.1,0.5-6.7,1-10.3,1.3c3.6-0.3,7.2-0.5,10.3-1c6.9-1,14.2-2.1,21.7-3.1C328.2,41.1,331.5,42.1,337.9,44.2 M420.9,43.4
				c2.8,0.5,5.6,1,8.1,1.3c-2.8-0.5-5.6-1-8.1-1.8c-5.8-1.5-9.4-2.6-11.4-3.1c-4.7,2.1-9.4,3.8-13.9,5.1c4.4-1,9.2-2.3,13.9-3.6
				C411.5,41.6,415.4,42.4,420.9,43.4 M595.3,42.4v-1c-3.3,0.3-6.4,0.5-8.9,0.5c-6.9,0-13-0.5-18.3-1.5c-3.3-0.5-7.5-1.5-12.5-2.8
				c-5,2.6-12.5,5.1-22.2,7.2c9.7-1.5,16.9-3.3,22.2-5.1c5,0.8,9.2,1.5,12.5,2.1c5.6,0.8,11.7,1,18.3,1
				C588.9,42.9,591.9,42.7,595.3,42.4z"/>
			
				<linearGradient id="SVGID_2_" gradientUnits="userSpaceOnUse" x1="107.1292" y1="-2393.9512" x2="107.2592" y2="-2085.957" gradientTransform="matrix(2.5628 0 0 2.5628 22.9045 6165.5103)">
				<stop  offset="1.176471e-02" style="stop-color:#83D4FF"/>
				<stop  offset="0.4863" style="stop-color:#01040C"/>
				<stop  offset="1" style="stop-color:#69964B"/>
			</linearGradient>
			<path fill="url(#SVGID_2_)" d="M568.1,41.6c-3.3-0.5-7.5-1-12.5-2.1c-5,2.1-12.5,3.6-22.2,5.1c-1.4,0.3-2.8,0.3-4.2,0.5
				c-11.9,1.8-22.2,2.3-30.5,1.3c-5.3-0.8-10-1.3-13.9-2.1c-2.2-0.3-4.2-0.8-5.8-1c-5-1-8.6-1.5-10.3-1.8c-0.8,0.5-3.6,1-8.3,2.1
				c-2.2,0.5-4.2,0.8-6.1,1c-6.1,0.8-11.1,1-15.8,0.8c-3.1-0.3-6.4-0.5-9.4-0.8c-2.8-0.3-5.6-0.8-8.1-1.3c-5.8-1-9.4-1.8-11.4-2.3
				c-4.7,1.5-9.4,2.6-13.9,3.6c-9.4,1.8-18.6,2.8-27.8,2.6c-11.9-0.3-21.4-1.3-27.8-2.8c-0.8-0.3-1.7-0.5-2.5-0.8
				c-6.4-2.1-9.7-3.1-10.6-3.3c-7.5,1-14.4,2.1-21.7,3.1c-3.1,0.5-6.7,0.8-10.3,1c-4.4,0.3-9.7,0.5-15,0.5c-6.4,0-12.2,0-17.5-0.5
				c-3.1-0.3-6.1-0.5-8.9-1c-7.8-1-14.7-2.3-21.1-3.1c-8.6,1.8-16.4,3.1-23.6,4.1c-12.8,1.8-23.6,2.8-31.7,2.8
				c-11.7-0.3-24.7-1-39.1-2.8c-1.7-0.3-3.6-0.3-5.3-0.5c-7.2-1-12.2-1.5-14.4-2.1c-2.2,0.8-4.7,1-7.5,1.5c-4.2,0.8-8.1,1-11.7,1.5
				c-9.2,1-16.4,1-21.7,0.5c-1.9-0.3-3.6-0.3-5.3-0.5c-11.7-1.3-20.8-3.3-27.8-5.9h-3.1C30.5,41.4,20,43.4,10,45
				c-3.3,0.5-6.7,1-10,1.3v832.2h595.3v-836c-3.3,0.3-6.4,0.3-8.9,0.3C579.7,42.9,573.6,42.4,568.1,41.6z"/>
		</g>
	</g>
</g>
</svg>
