
<svg xmlns="http://www.w3.org/2000/svg" version="1.1" xmlns:xlink="http://www.w3.org/1999/xlink" preserveAspectRatio="none" x="0px" y="0px" width="2100px" height="3272px" viewBox="0 0 2100 3272">
<defs>
<g id="Layer0_0_FILL">
<path fill="#A6E0FF" fill-opacity="0.7490196078431373" stroke="none" d="
M 166.65 39.8
Q 169.6 40.3 172.45 40.65 169.6 40.15 166.65 39.35 98.3 27.5 64.65 12.8 36.7 18.5 16.8 21.8 -14.55 26.55 -54.35 26.55 -69.05 26.55 -88 24.65
L -88 29.85
Q -69.05 30.8 -54.35 30.8 -14.55 30.8 16.8 27.5 36.7 25.6 64.65 21.35 98.3 31.75 166.65 39.8
M 585.4 33.15
Q 618.1 27.95 629.55 26.55 668.4 36 706.8 40.75 668.4 34.1 629.55 19.9 618.1 22.3 585.4 29.85 552.25 37.45 517.55 39.8 482.95 42.15 433.2 32.25 406.1 26.05 401.35 23.2 390.45 25.6 362.05 31.75 341.2 36 308.85 41.25 341.2 37.45 362.05 34.6 390.45 30.35 401.35 28.45 406.1 30.35 433.2 34.6 482.95 41.7 517.55 40.3 552.25 38.4 585.4 33.15
M 1311.95 24.65
Q 1380.25 35.05 1432.85 40.75 1380.25 32.7 1311.95 17.05 1274.05 23.7 1230.35 31.75 1186.75 38.4 1128.4 38.4 1070.6 37.45 1029.75 31.75 989.45 24.65 946.85 18 943.4 18.5 906.45 32.7 892.25 37.45 872.8 40.75 892.25 38.4 906.45 35.05 943.4 25.6 946.85 24.65 989.45 29.85 1029.75 34.6 1070.6 38.4 1128.4 38.85 1186.75 39.35 1230.35 34.6 1274.05 28.9 1311.95 24.65
M 1782.35 32.7
Q 1828.85 38.4 1862.5 39.8 1828.85 37.45 1782.35 29.4 1767.65 26.55 1753.45 23.7 1739.2 26.55 1697.55 33.15 1666.6 37.45 1637.75 40.75 1666.6 38.4 1697.55 35.55 1739.2 30.8 1753.45 28.9 1767.65 30.8 1782.35 32.7
M 2038.95 18.5
L 2050.8 18.5
Q 2131.9 33.15 2203.95 41.25 2131.9 29.85 2050.8 9
L 2038.95 9
Q 1993.85 28.45 1911.4 38.4 1907.15 39.1 1902.15 39.55 1907.15 39.2 1911.4 38.85 1993.85 32.7 2038.95 18.5 Z"/>

<path fill="#42BFFF" stroke="none" d="
M 2212 42.15
Q 2207.7 41.7 2203.95 41.25 2131.9 33.15 2050.8 18.5
L 2038.95 18.5
Q 1993.85 32.7 1911.4 38.85 1907.15 39.2 1902.15 39.55
L 1894.25 40.3
Q 1883.8 40.3 1872 40.3
L 1862.5 39.8
Q 1828.85 38.4 1782.35 32.7 1767.65 30.8 1753.45 28.9 1739.2 30.8 1697.55 35.55 1666.6 38.4 1637.75 40.75 1576.5 45.5 1525.8 45.95 1487.45 46.45 1432.85 40.75 1380.25 35.05 1311.95 24.65 1274.05 28.9 1230.35 34.6 1186.75 39.35 1128.4 38.85 1070.6 38.4 1029.75 34.6 989.45 29.85 946.85 24.65 943.4 25.6 906.45 35.05 892.25 38.4 872.8 40.75 839.65 45 790.75 45.95 749.55 46.45 706.8 40.75 668.4 36 629.55 26.55 618.1 27.95 585.4 33.15 552.25 38.4 517.55 40.3 482.95 41.7 433.2 34.6 406.1 30.35 401.35 28.45 390.45 30.35 362.05 34.6 341.2 37.45 308.85 41.25 297.5 42.65 284.7 43.6 238.75 47.85 174.7 40.75
L 173.25 40.75 172.45 40.65
Q 169.6 40.3 166.65 39.8 98.3 31.75 64.65 21.35 36.7 25.6 16.8 27.5 -14.55 30.8 -54.35 30.8 -69.05 30.8 -88 29.85
L -88 786.75 2212 786.75 2212 42.15 Z"/>
</g>
</defs>

<g transform="matrix( 1, 0, 0, 1, 0,-9) ">
<use xlink:href="#Layer0_0_FILL"/>
</g>
</svg>
