
<svg xmlns="http://www.w3.org/2000/svg" version="1.1" xmlns:xlink="http://www.w3.org/1999/xlink" preserveAspectRatio="none" x="0px" y="0px" width="2100px" height="3272px" viewBox="0 0 2100 3272">
<defs>
<g id="Layer0_0_FILL">
<path fill="#FFFFFF" fill-opacity="0.5019607843137255" stroke="none" d="
M -246 312.8
Q -256.65 316 -263.85 317.45 -275.65 319.85 -290.85 319.85 -296.3 319.85 -303.5 319.05
L -303.5 322.65
Q -296.3 323.25 -290.85 323.25 -275.65 323.25 -263.85 321.45 -256.65 320.45 -246 318.25 -233.4 323.65 -207.8 327.85 -181.35 332.25 -163.15 329.85 -144.7 327.25 -134.1 325.05 -123.3 322.85 -119.1 322.05 -117.5 323.05 -107.25 325.25 -88.65 328.85 -75.65 328.05 -62.2 327.25 -50.2 324.45 -37.6 321.65 -33.2 320.85 -8.15 329.45 15.65 330.85 -8.15 328.85 -33.2 316.4 -37.6 317.65 -50.2 321.65 -62.2 325.65 -75.65 326.65 -88.65 327.85 -107.25 322.85 -117.5 319.65 -119.1 318.25 -123.3 319.45 -134.1 322.45 -144.7 325.65 -163.15 329.25 -181.35 332.65 -207.8 326.45 -233.4 320.45 -246 312.8
M 34.5 330.85
Q 58.5 329.65 70.95 325.45 84.75 320.45 86.35 320.05 102.15 322.65 117.4 325.05 132.6 327.25 154.45 327.45 176.25 327.65 192.85 325.05 209.3 322.25 223.5 319.85 269.35 330.05 296.6 331.05 269.35 329.45 223.5 315 209.3 318.45 192.85 322.45 176.25 326.25 154.45 325.85 132.6 325.65 117.4 322.45 102.15 319.05 86.35 315.4 84.75 316 70.95 323.05 58.5 329.05 34.5 330.85
M 400.9 321.25
Q 395.3 319.85 389.7 318.45 384.5 319.85 368.65 323.25 341.45 328.65 318.6 330.45 341.45 329.45 368.65 325.65 384.5 323.25 389.7 322.25 395.3 323.25 400.9 324.25 433.35 329.65 449.35 327.45 480.4 324.05 497.2 316.8
L 501.8 316.8
Q 534.05 324.85 562.5 329.05
L 562.5 328.05
Q 534.05 322.25 501.8 310.8
L 497.2 310.8
Q 480.4 321.05 449.35 325.85 433.35 329.05 400.9 321.25 Z"/>

<path fill="#006BFF" fill-opacity="0.4" stroke="none" d="
M 400.9 324.25
Q 395.3 323.25 389.7 322.25 384.5 323.25 368.65 325.65 341.45 329.45 318.6 330.45
L 296.6 331.05
Q 269.35 330.05 223.5 319.85 209.3 322.25 192.85 325.05 176.25 327.65 154.45 327.45 132.6 327.25 117.4 325.05 102.15 322.65 86.35 320.05 84.75 320.45 70.95 325.45 58.5 329.65 34.5 330.85
L 27.3 331.05
Q 24.9 331.05 22.5 331.05
L 15.65 330.85
Q -8.15 329.45 -33.2 320.85 -37.6 321.65 -50.2 324.45 -62.2 327.25 -75.65 328.05 -88.65 328.85 -107.25 325.25 -117.5 323.05 -119.1 322.05 -123.3 322.85 -134.1 325.05 -144.7 327.25 -163.15 329.85 -181.35 332.25 -207.8 327.85 -233.4 323.65 -246 318.25 -256.65 320.45 -263.85 321.45 -275.65 323.25 -290.85 323.25 -296.3 323.25 -303.5 322.65
L -303.5 1659.9 562.5 1659.9 562.5 329.05
Q 534.05 324.85 501.8 316.8
L 497.2 316.8
Q 480.4 324.05 449.35 327.45 433.35 329.65 400.9 324.25 Z"/>
</g>
</defs>

<g transform="matrix( 2.4250030517578125, 0, 0, 2.4249267578125, 736,-753.65) ">
<use xlink:href="#Layer0_0_FILL"/>
</g>
</svg>
