
<svg xmlns="http://www.w3.org/2000/svg" version="1.1" xmlns:xlink="http://www.w3.org/1999/xlink" preserveAspectRatio="none" x="0px" y="0px" width="2100px" height="3272px" viewBox="0 0 2100 3272">
<defs>
<linearGradient id="Gradient_1" gradientUnits="userSpaceOnUse" x1="111.2" y1="286.1" x2="110.8" y2="555" spreadMethod="pad">
<stop  offset="0%" stop-color="#00A8FF"/>

<stop  offset="100%" stop-color="#000000"/>
</linearGradient>

<linearGradient id="Gradient_2" gradientUnits="userSpaceOnUse" x1="1062.5249999999999" y1="2.6374999999999886" x2="1061.575" y2="639.5625" spreadMethod="pad">
<stop  offset="0%" stop-color="#00A8FF"/>

<stop  offset="100%" stop-color="#000000"/>
</linearGradient>

<linearGradient id="Gradient_3" gradientUnits="userSpaceOnUse" x1="2882.5750000000003" y1="2.6374999999999886" x2="2883.525" y2="639.5625" spreadMethod="pad">
<stop  offset="0%" stop-color="#00A8FF"/>

<stop  offset="100%" stop-color="#000000"/>
</linearGradient>

<g id="Layer0_0_FILL">
<path fill="url(#Gradient_1)" stroke="none" d="
M 444.35 286
Q 433.15 289.6 410.3 292.4 387.1 295.4 370.85 293.8 354.45 292 345.05 290.6 335.45 289 331.85 288.4 330.25 289.2 321.2 290.6 304.6 293 293 292.6 281.35 292 270.35 290.2 259.35 288.2 255.55 287.6 227.7 295 201.7 294.6 175.45 294 163.05 290.8 150.65 287.4 149.4 287.2 135.2 288.8 121.8 290.6 108.2 292 88.75 292.2 69.35 292.2 54.7 290.6 40.1 288.6 27.5 287 -18.95 294.8 -44 294.6 -69 294.4 -101.45 291 -115.45 289.2 -120.1 288.6 -124.9 289.2 -129.9 290 -158.7 293.6 -172.95 292.2 -200.55 289.8 -215.6 285
L -219.6 285
Q -248.2 290.4 -273.45 293.2
L -273.45 556.3 495.4 556.3 495.4 288.8
Q 489 289.2 484.2 289.2 470.8 289.2 460.35 288 453.75 287.4 444.35 286 Z"/>
</g>

<g id="Layer0_1_FILL">
<path fill="url(#Gradient_2)" stroke="none" d="
M 1972.5 9
Q 1957.35 9.95 1946 9.95 1914.25 9.95 1889.5 7.1 1873.85 5.7 1851.6 2.4 1825.1 10.9 1770.95 17.55 1716 24.65 1677.5 20.85 1638.7 16.6 1616.4 13.3 1593.65 9.5 1585.15 8.05 1581.35 9.95 1559.9 13.3 1520.6 18.95 1493.15 18 1465.55 16.6 1439.5 12.35 1413.45 7.6 1404.45 6.15 1338.45 23.7 1276.9 22.75 1214.7 21.35 1185.35 13.75 1155.95 5.7 1153 5.2 1119.4 9 1087.65 13.3 1055.4 16.6 1009.35 17.05 963.4 17.05 928.7 13.3 894.15 8.55 864.3 4.75 754.25 23.2 694.95 22.75 635.7 22.3 558.85 14.2 525.7 9.95 514.7 8.55 503.3 9.95 491.5 11.85 423.25 20.4 389.5 17.05 324.15 11.4 288.5 0
L 279 0
Q 211.3 12.8 151.5 19.45
L 151.5 642.6 1972.5 642.6 1972.5 9 Z"/>
</g>

<g id="Layer0_2_FILL">
<path fill="url(#Gradient_3)" stroke="none" d="
M 3666.1 0
L 3656.6 0
Q 3620.95 11.4 3555.6 17.05 3521.85 20.4 3453.6 11.85 3441.8 9.95 3430.4 8.55 3419.4 9.95 3386.25 14.2 3309.4 22.3 3250.15 22.75 3190.85 23.2 3080.8 4.75 3050.95 8.55 3016.4 13.3 2981.7 17.05 2935.75 17.05 2889.7 16.6 2857.45 13.3 2825.7 9 2792.1 5.2 2789.15 5.7 2759.75 13.75 2730.4 21.35 2668.2 22.75 2606.65 23.7 2540.65 6.15 2531.65 7.6 2505.6 12.35 2479.55 16.6 2451.95 18 2424.5 18.95 2385.2 13.3 2363.75 9.95 2359.95 8.05 2351.45 9.5 2328.7 13.3 2306.4 16.6 2267.6 20.85 2229.1 24.65 2174.15 17.55 2120 10.9 2093.5 2.4 2071.25 5.7 2055.6 7.1 2030.85 9.95 1999.1 9.95 1987.75 9.95 1972.6 9
L 1972.6 642.6 3793.6 642.6 3793.6 19.45
Q 3733.8 12.8 3666.1 0 Z"/>
</g>
</defs>

<g transform="matrix( 2.3685455322265625, 0, 0, 2.3686370849609375, 799.15,-675.05) ">
<use xlink:href="#Layer0_0_FILL"/>
</g>

<g transform="matrix( -1, 0, 0, 1, 3945.1,0) ">
<use xlink:href="#Layer0_1_FILL"/>
</g>

<g transform="matrix( 1, 0, 0, 1, -3642.15,0) ">
<use xlink:href="#Layer0_2_FILL"/>
</g>
</svg>
