<?xml version="1.0" encoding="utf-8"?>
<!-- Generator: Adobe Illustrator 17.1.0, SVG Export Plug-In . SVG Version: 6.00 Build 0)  -->
<!DOCTYPE svg PUBLIC "-//W3C//DTD SVG 1.1//EN" "http://www.w3.org/Graphics/SVG/1.1/DTD/svg11.dtd">
<svg version="1.1" id="图层_1" xmlns="http://www.w3.org/2000/svg" xmlns:xlink="http://www.w3.org/1999/xlink" x="0px" y="0px"
	 viewBox="0 0 595.3 841.9" enable-background="new 0 0 595.3 841.9" xml:space="preserve">
<g transform="matrix( 1, 0, 0, 1, 0,-9) ">
	<g>
		<g id="Layer0_0_FILL">
			<path fill="#A6E0FF" fill-opacity="0.749" d="M66,17c0.5,0,1,0.3,1.6,0.3C67,17,66.5,17,66,17c-11.9-2.1-20.7-4.4-26.4-7
				c-4.9,1-9.1,1.8-12.4,2.3c-5.4,0.8-11.6,1.3-18.4,1.3c-2.6,0-5.4-0.3-8.8-0.5v1.3c3.4,0.3,6.2,0.3,8.8,0.3c7,0,12.9-0.3,18.4-0.8
				c3.4-0.3,7.5-0.8,12.4-1.6C45.3,13.9,54.1,15.5,66,17 M174.2,15.2c5.7-0.8,9.6-1.6,11.4-1.8c6.7,1.6,13.5,2.8,19.9,3.6
				c-6.7-1-13.2-2.8-19.9-5.4c-2.1,0.5-5.7,1.3-11.4,2.6c-5.7,1.3-11.6,2.1-17.6,2.6c-6,0.5-13.2-0.3-21.7-2.1
				c-4.7-1-7.5-1.8-8.3-2.3c-1.8,0.5-5.2,1-10.1,2.3c-3.6,0.8-8.3,1.6-13.7,2.6c5.7-0.8,10.1-1.3,13.7-1.8c4.9-0.8,8.3-1.3,10.1-1.6
				c0.8,0.3,3.6,0.8,8.3,1.6c8.5,1.3,15.8,1.8,21.7,1.6C162.8,16.8,168.5,16.2,174.2,15.2 M362.3,13.1c11.9,1.8,22.3,3.1,31.3,4.1
				c-9.1-1.3-19.4-3.4-31.3-6.2c-6.5,1-13.5,2.3-21.2,3.9c-7.5,1-16.3,1.8-26.4,1.8c-10.1-0.3-18.4-0.8-25.6-1.8
				c-7-1.3-14.2-2.3-21.5-3.6c-0.5,0-4.1,1.3-10.4,3.9c-2.3,0.8-5.4,1.6-8.8,2.1c3.4-0.5,6.2-0.8,8.8-1.6c6.5-1.6,9.8-2.6,10.4-2.6
				c7.2,0.8,14.5,1.8,21.5,2.6c7,0.8,15.5,1,25.6,1c10.1,0,18.9-0.3,26.4-1C348.6,14.7,355.9,13.7,362.3,13.1 M484,15.2
				c8,1,15,1.6,20.7,1.8c-5.7-0.5-12.7-1.3-20.7-2.6c-2.6-0.5-4.9-1-7.5-1.6c-2.6,0.5-7.2,1.3-14.5,2.3c-5.4,0.8-10.6,1.3-15.5,2.1
				c4.9-0.5,10.1-0.8,15.5-1.3c7.2-0.8,11.9-1.3,14.5-1.8C479.1,14.4,481.7,14.7,484,15.2 M550.5,11.3h3.1c14,2.6,27.2,4.4,39.6,6
				c-12.4-2.1-25.6-4.7-39.6-8.3h-3.1c-7.8,3.4-18.9,6-33.1,7.5c-0.8,0-1.6,0.3-2.3,0.3c0.8,0,1.6,0,2.3-0.3
				C531.6,15.7,542.7,13.9,550.5,11.3z"/>
			<path fill="#42BFFF" d="M595.3,17.5c-0.8,0-1.6-0.3-2.1-0.3c-12.4-1.3-25.6-3.4-39.6-6h-3.1c-7.8,2.3-18.9,4.1-33.1,5.2
				c-0.8,0-1.6,0-2.3,0.3L513,17c-1.8,0-3.6,0-5.7,0l-2.3-0.3c-5.7-0.3-12.7-0.8-20.7-1.8c-2.6-0.3-4.9-0.8-7.5-1
				c-2.6,0.3-7.2,0.8-14.5,1.8c-5.4,0.5-10.6,1-15.5,1.3c-10.6,0.8-20.2,1.3-29,1.3c-6.7,0-14.8-0.3-24.1-1.3
				c-9.1-1-19.4-2.3-31.3-4.1c-6.5,0.8-13.5,1.6-21.2,2.6c-7.5,0.8-16.3,1.3-26.4,1c-10.1,0-18.4-0.5-25.6-1
				c-7-0.8-14.2-1.6-21.5-2.6c-0.5,0.3-4.1,1-10.4,2.6c-2.3,0.5-5.4,1-8.8,1.6c-5.7,0.8-12.7,1.3-21.2,1.3c-7,0-14.2-0.3-21.7-1.3
				c-6.7-0.8-13.2-2.1-19.9-3.6c-2.1,0.3-5.7,0.8-11.4,1.8c-5.7,1-11.6,1.6-17.6,1.8c-6,0.3-13.2-0.3-21.7-1.6
				c-4.7-0.8-7.5-1.3-8.3-1.6c-1.8,0.3-5.2,0.8-10.1,1.6c-3.6,0.5-8.3,1-13.7,1.8c-2.1,0.3-4.1,0.5-6.2,0.5
				c-8,0.8-17.3,0.5-28.5-0.8h-0.3h-0.3c-0.5,0-1-0.3-1.6-0.3c-11.9-1.3-20.7-3.1-26.4-4.7c-4.9,0.8-9.1,1.3-12.4,1.6
				c-5.4,0.5-11.6,0.8-18.4,0.8c-2.6,0-5.4,0-8.8-0.3l0,72.7h595.3V17.5z"/>
		</g>
	</g>
</g>
</svg>
