
<svg xmlns="http://www.w3.org/2000/svg" version="1.1" xmlns:xlink="http://www.w3.org/1999/xlink" preserveAspectRatio="none" x="0px" y="0px" width="472px" height="493px" viewBox="0 0 472 493">
<defs>
<g id="___5_0_Layer0_0_FILL">
<path fill="#000000" stroke="none" d="
M 16 28.8
L 15.65 27.75 14.7 27.75 11.8 32 11.75 31.95 7.7 30.4 7.85 30.15 6.65 28.85 6.2 29.1 6.15 29.15 3.55 25.65 0.1 28.1 1.35 29.45 3.6 26.8 5.65 29.4 5.05 29.65 5.3 31.4 5.35 31.4 2.95 34.5 0.9 33.05 0 34.6 3.5 35.55 3.55 35.45 5.9 31.5 7.05 31.7 7.2 31.5 10.45 32.45 10.8 33.3 13.15 32.95 12.85 32.1 12.9 32 16 28.8 Z"/>
</g>

<g id="___5_0_Layer0_1_FILL">
<path fill="#FFE995" stroke="none" d="
M 23.7 27.2
Q 22.95 26.8 22.5 26.6 20.1 26 18.9 26.65 20.6 28.4 25.85 29.2 25.45 28.6 25.1 28.25 25.1 28.2 25.05 28.2 24.7 27.75 23.7 27.2
M 14.6 26.05
Q 14.4 25.8 14.2 25.6 13.95 25.4 13.7 25.25 13.35 25.1 12.9 25.1 12.75 25.05 12.6 25.1
L 12.75 25.25
Q 12.8 25.35 12.85 25.5 12.9 25.6 12.9 25.7 13.75 25.45 14.95 26.7 14.85 26.5 14.8 26.4 14.7 26.2 14.6 26.05
M 34.05 20.85
Q 34.15 21.2 34.2 21.6
L 37.45 21.8
Q 37.4 21.5 37.3 21.25
L 34.05 20.85
M 33.6 19.6
Q 33.75 19.7 33.85 20.1 33.9 20.15 33.95 20.3 33.95 20.35 33.95 20.4
L 37.2 20.8
Q 37.15 20.75 37.15 20.7 37.05 20.45 36.95 20.2
L 33.6 19.6
M 25.5 18.15
L 25.45 18.15
Q 22.1 16.75 19.2 16.35 18.25 16.25 17.4 16.25 16.3 16.2 15.3 16.35 13.95 16.55 12.75 17 12.6 17.05 12.45 17.15 8.8 19.35 8.05 22.4 14 12.25 31.6 21.1 29.05 19.5 26.05 18.35 25.75 18.25 25.5 18.15
M 23.45 8
Q 23.1 7.9 22.85 7.8 22.75 7.75 22.55 7.7 22.45 7.65 22.25 7.6
L 22.2 7.6
Q 21.65 7.45 21 7.35 20.5 7.25 20 7.25 18.7 7.1 17.15 7.1 16.5 7.1 15.3 7.35 15.15 7.4 15.05 7.4 14.9 7.75 14.8 8.15 20.1 6.5 24.9 8.95 24.9 8.85 24.9 8.75 24.85 8.65 24.85 8.6 24.1 8.25 23.45 8 Z"/>

<path fill="#AD8F1C" stroke="none" d="
M 33.7 28.6
L 36.95 27.65
Q 37.6 26.3 37.75 24.8 35.65 27.45 34.35 25.35 34.25 26.55 34.05 27.45 33.9 28.25 33.7 28.6
M 34.35 24.3
L 34.35 23.75
Q 29.4 26.85 25.05 28.2 25.1 28.2 25.1 28.25 25.45 28.6 25.85 29.2 24.9 29.3 23.5 29.35 22.05 29.4 21.05 28.8 20 28.15 19.7 27.8 19.35 27.4 18.8 26.8 19.5 28.25 20.3 29.15 16.65 29.45 13.45 28.3 14.3 28 14.95 26.8 14.45 27.1 14.05 27.1
L 14 27.1
Q 13.8 27.1 13.6 27 13.4 26.85 13.25 26.6
L 13.2 26.55
Q 13.1 26.35 13.05 26.2 13.05 26.45 13.05 26.75 13.05 27.25 12.95 27.65 12.9 27.8 12.85 27.95 12.85 28 12.85 28.05 12.75 28.2 12.65 28.35 12.5 28.5 12.35 28.5 12.25 28.5 12.15 28.45 11.95 28.3 11.85 27.95 11.75 27.75 11.75 27.5 11.65 27.45 11.55 27.4 11.25 27.25 10.9 27.05 9.3 26.1 7.9 24.75 8.1 27.95 10.05 29.8 10.5 30.25 11.05 30.6 13.45 32.15 16.45 32.6 17.25 32.7 17.85 32.75 17.95 32.7 18.1 32.75
L 18.25 32.75
Q 22.2 32.8 27.1 30.25 30.2 28.55 32.55 26.3 33.5 25.35 34.35 24.3
M 33.85 20.1
Q 33.75 19.7 33.6 19.6
L 33.3 19.55
Q 32.95 19.65 32.7 20.85 32.65 21.25 32.6 21.7 33.1 22.05 33.6 22.4
L 33.8 21.6 33.8 21.55 34.05 20.75
Q 34 20.55 33.95 20.4 33.95 20.35 33.95 20.3 33.9 20.15 33.85 20.1
M 23.9 15.35
Q 22.5 16.15 20.85 16.15 20.3 16.15 19.5 16.05 19.2 16 18.9 15.95 18.85 15.95 18.8 15.95
L 18.75 15.95
Q 18.45 15.9 18.15 15.9 17.95 15.85 17.8 15.85 17.25 15.75 16.7 15.6 16.35 15.5 16.1 15.4 15.6 15.2 15.25 15 15.1 14.9 14.95 14.8 14.25 14.35 14.15 14.15 13.7 13.7 13.55 13.3 13.45 13 13.45 12.6 12.75 15.05 12.5 17.05
L 12.75 17
Q 13.95 16.55 15.3 16.35 16.3 16.2 17.4 16.25 18.25 16.25 19.2 16.35 22.1 16.75 25.45 18.15 25.4 16.6 25.4 15.4 25.4 14.8 25.35 14.25 24.7 14.9 23.9 15.35 Z"/>

<path fill="#695300" stroke="none" d="
M 32.55 26.3
Q 32.6 26.9 32.7 27.45 32.95 28.5 33.25 28.75
L 33.7 28.6
Q 33.9 28.25 34.05 27.45 34.25 26.55 34.35 25.35 34.35 24.8 34.35 24.3 33.5 25.35 32.55 26.3
M 33.8 21.55
L 33.8 21.6 33.6 22.4
Q 33.95 22.7 34.3 22.95
L 34.35 23
Q 34.3 22.25 34.2 21.6 34.15 21.2 34.05 20.85 34.05 20.8 34.05 20.75
L 33.8 21.55 Z"/>

<path fill="#66CCFF" stroke="none" d="
M 12.35 28.5
Q 12.5 28.5 12.65 28.35 12.75 28.2 12.85 28.05 12.85 28 12.85 27.95 12.9 27.8 12.95 27.65
L 12.15 28.45
Q 12.25 28.5 12.35 28.5
M 12.25 25.05
Q 12 25.1 11.85 25.5 11.7 25.85 11.7 26.3
L 12.75 25.25 12.6 25.1
Q 12.45 25 12.35 25 12.3 25 12.25 25.05
M 13.05 26.2
Q 13 26.1 13 26
L 11.7 27.3
Q 11.7 27.4 11.75 27.5 11.75 27.75 11.85 27.95
L 13.05 26.75
Q 13.05 26.45 13.05 26.2 Z"/>

<path fill="#BDE9FF" stroke="none" d="
M 12.95 27.65
Q 13.05 27.25 13.05 26.75
L 11.85 27.95
Q 11.95 28.3 12.15 28.45
L 12.95 27.65
M 13 26
Q 12.95 25.8 12.9 25.7 12.9 25.6 12.85 25.5 12.8 25.35 12.75 25.25
L 11.7 26.3
Q 11.65 26.5 11.65 26.75 11.65 27 11.7 27.3
L 13 26 Z"/>

<path fill="#E5BD1F" stroke="none" d="
M 31.9 21.25
Q 31.75 21.15 31.6 21.1 14 12.25 8.05 22.4 7.8 23.35 7.85 24.35 7.85 24.55 7.9 24.75 9.3 26.1 10.9 27.05 11.25 27.25 11.55 27.4 11.65 27.45 11.75 27.5 11.7 27.4 11.7 27.3 11.65 27 11.65 26.75 11.65 26.5 11.7 26.3 11.7 25.85 11.85 25.5 12 25.1 12.25 25.05 12.3 25 12.35 25 12.45 25 12.6 25.1 12.75 25.05 12.9 25.1 13.35 25.1 13.7 25.25 13.95 25.4 14.2 25.6 14.4 25.8 14.6 26.05 14.7 26.2 14.8 26.4 14.85 26.5 14.95 26.7 13.75 25.45 12.9 25.7 12.95 25.8 13 26 13 26.1 13.05 26.2 13.1 26.35 13.2 26.55
L 13.25 26.6
Q 13.4 26.85 13.6 27 13.8 27.1 14 27.1
L 14.05 27.1
Q 14.45 27.1 14.95 26.8 14.3 28 13.45 28.3 16.65 29.45 20.3 29.15 19.5 28.25 18.8 26.8 19.35 27.4 19.7 27.8 20 28.15 21.05 28.8 22.05 29.4 23.5 29.35 24.9 29.3 25.85 29.2 20.6 28.4 18.9 26.65 20.1 26 22.5 26.6 22.95 26.8 23.7 27.2 24.7 27.75 25.05 28.2 29.4 26.85 34.35 23.75
L 34.35 24.3
Q 34.35 24.8 34.35 25.35 35.65 27.45 37.75 24.8 37.85 23.35 37.45 21.8
L 34.2 21.6
Q 34.3 22.25 34.35 23
L 34.3 22.95
Q 33.95 22.7 33.6 22.4 33.1 22.05 32.6 21.7 32.25 21.45 31.9 21.25
M 33.95 20.4
Q 34 20.55 34.05 20.75 34.05 20.8 34.05 20.85
L 37.3 21.25
Q 37.25 21 37.2 20.8
L 33.95 20.4
M 25.1 10.45
Q 25.05 10.15 25.05 9.8 24.95 9.4 24.9 8.95 20.1 6.5 14.8 8.15 14.5 8.95 14.25 9.8 14.05 10.35 13.9 10.95 13.75 11.4 13.6 11.9 13.5 12.25 13.45 12.6 13.45 13 13.55 13.3 13.7 13.7 14.15 14.15 14.25 14.35 14.95 14.8 15.1 14.9 15.25 15 15.6 15.2 16.1 15.4 16.35 15.5 16.7 15.6 17.25 15.75 17.8 15.85 17.95 15.85 18.15 15.9 18.45 15.9 18.75 15.95
L 18.8 15.95
Q 18.85 15.95 18.9 15.95 19.2 16 19.5 16.05 20.3 16.15 20.85 16.15 22.5 16.15 23.9 15.35 24.7 14.9 25.35 14.25 25.25 12.2 25.1 10.45 Z"/>

<path fill="#333333" stroke="none" d="
M 20.25 3.85
L 20.25 3.9
Q 20.1 5.3 20 7.25 20.5 7.25 21 7.35
L 21.1 4.05 20.25 3.85
M 25.7 1.7
L 25.75 0
Q 24.5 0 23.5 0.05 23.05 0.05 22.65 0.1 22.65 0.75 22.6 1.15 22.55 1.55 22.5 3.6 22.5 3.75 22.5 3.9 22.4 5.75 22.2 7.6
L 22.25 7.6
Q 22.45 7.65 22.55 7.7 22.75 7.75 22.85 7.8 22.85 7.6 22.85 7.4 23 5.45 23.15 3.9 23.25 2.55 23.35 1.5 24.35 1.6 25.7 1.7 Z"/>
</g>

<g id="___5_0_Layer0_1_MEMBER_0_FILL">
<path fill="#66CCFF" stroke="none" d="
M 17.25 14.15
L 17.3 14.2 19 12.45 17.95 12.35 16.75 13.55
Q 16.95 13.85 17.25 14.15
M 18.9 14.75
L 18.6 15
Q 18.7 15.05 18.85 15.1
L 18.9 14.75
M 19.3 10.95
L 18.8 11.5 19.25 11.55 19.3 11.15 19.3 10.95
M 19.55 8.8
L 19.6 8.6
Q 18.2 8.6 17.25 9.55 16.5 10.3 16.3 11.25
L 16.9 11.3 17.05 11.35 19.55 8.8
M 20.55 15.05
L 22.7 12.85 22.2 12.8 20.1 12.6 20.05 13.1 19.8 15.15
Q 20.2 15.15 20.55 15.05
M 21.85 11.8
L 22.35 11.85 22.95 11.9 22.95 11.85
Q 22.95 11.3 22.8 10.85
L 21.85 11.8
M 20.25 11.25
L 21.95 9.55
Q 21.6 9.2 21.25 9.05
L 20.4 9.9 20.25 11.25 Z"/>

<path fill="#BDE9FF" stroke="none" d="
M 19.1 13
L 19.15 12.5 19 12.45 17.3 14.2
Q 17.85 14.75 18.6 15
L 18.9 14.75 19.1 13
M 19.3 10.95
L 19.5 9.35 19.55 8.8 17.05 11.35 18.8 11.5 19.3 10.95
M 16.85 12.25
L 16.3 12.2
Q 16.35 12.9 16.75 13.55
L 17.95 12.35 16.85 12.25
M 20.55 15.05
Q 21.3 14.8 21.95 14.15 22.55 13.55 22.8 12.85
L 22.7 12.85 20.55 15.05
M 21.95 9.55
L 20.25 11.25 20.2 11.65 21.85 11.8 22.8 10.85
Q 22.55 10.15 21.95 9.55
M 21.25 9.05
Q 20.9 8.8 20.5 8.75
L 20.45 9.45 20.4 9.9 21.25 9.05 Z"/>

<path fill="#000000" stroke="none" d="
M 20.05 13.1
L 20.1 12.6 19.15 12.5 19.1 13 20.05 13.1
M 19.25 11.55
L 20.2 11.65 20.25 11.25 20.2 11.25 19.3 11.15 19.25 11.55
M 20.45 9.45
L 20.5 8.75
Q 20.15 8.6 19.75 8.6 19.65 8.6 19.6 8.6
L 19.55 8.8 19.5 9.35 20.45 9.45 Z"/>

<path fill="#333333" stroke="none" d="
M 23.7 12.95
L 22.8 12.85
Q 22.55 13.55 21.95 14.15 21.3 14.8 20.55 15.05 20.2 15.15 19.8 15.15
L 20.05 13.1 19.1 13 18.9 14.75 18.85 15.1
Q 18.7 15.05 18.6 15 17.85 14.75 17.3 14.2
L 17.25 14.15
Q 16.95 13.85 16.75 13.55 16.35 12.9 16.3 12.2
L 16.85 12.25 16.9 11.3 16.3 11.25 15.4 11.15
Q 15.35 11.5 15.35 11.85 15.35 12 15.35 12.1 15.4 12.5 15.5 12.9 15.65 13.55 16.1 14.2 16.3 14.45 16.6 14.75
L 16.65 14.8
Q 17.25 15.35 17.95 15.7 18.3 15.85 18.75 15.95
L 18.8 15.95
Q 18.85 15.95 18.9 15.95 19.2 16 19.55 16
L 19.6 16
Q 19.7 16 19.75 16 21.4 15.95 22.6 14.75 23.45 13.95 23.7 12.95
M 22.95 11.9
L 22.35 11.85 22.2 12.8 22.7 12.85 22.8 12.85
Q 22.8 12.8 22.85 12.7 22.95 12.3 22.95 11.9
M 20.25 11.25
L 20.4 9.9 20.45 9.45 19.5 9.35 19.3 10.95 19.3 11.15 20.2 11.25 20.25 11.25 Z"/>

<path fill="#666666" stroke="none" d="
M 22.35 11.85
L 21.85 11.8 20.2 11.65 19.25 11.55 18.8 11.5 17.05 11.35 16.9 11.3 16.85 12.25 17.95 12.35 19 12.45 19.15 12.5 20.1 12.6 22.2 12.8 22.35 11.85
M 20.5 8.75
Q 20.9 8.8 21.25 9.05 21.6 9.2 21.95 9.55 22.55 10.15 22.8 10.85 22.95 11.3 22.95 11.85
L 22.95 11.9
Q 22.95 12.3 22.85 12.7 22.8 12.8 22.8 12.85
L 23.7 12.95
Q 23.7 12.9 23.75 12.9 23.85 12.4 23.85 11.85 23.85 11.8 23.85 11.7 23.8 10.85 23.5 10.15 23.15 9.45 22.6 8.9 22.25 8.55 21.9 8.35 21.3 8 20.65 7.85 20.6 7.8 20.55 7.8 20.1 7.7 19.6 7.7 19.5 7.7 19.4 7.7 17.8 7.75 16.6 8.9 15.6 9.9 15.4 11.15
L 16.3 11.25
Q 16.5 10.3 17.25 9.55 18.2 8.6 19.6 8.6 19.65 8.6 19.75 8.6 20.15 8.6 20.5 8.75 Z"/>
</g>

<g id="___5_0_Layer0_1_MEMBER_1_FILL">
<path fill="#333333" stroke="none" d="
M 21.15 22.75
L 20.65 22.75
Q 20.55 22.75 20.5 22.8 20.45 22.85 20.45 22.95 20.45 23.05 20.5 23.1 20.55 23.15 20.65 23.15
L 21.15 23.15
Q 21.4 23.15 21.4 22.95 21.4 22.75 21.15 22.75
M 15.95 24.25
Q 15.75 24.35 15.6 24.55 15.5 24.8 15.5 25.05 15.5 25.45 15.8 25.7 16.05 25.95 16.5 25.95 17 25.95 17.4 25.55 17.55 25.45 17.65 25.25 17.75 25.1 17.95 24.75
L 17.95 24.65 18.3 24.65
Q 19.15 24.65 19.55 24.4 19.85 24.2 20.05 23.9 20.25 23.55 20.25 23.2 20.25 22.7 19.8 22.45 19.95 22.4 20.1 22.3
L 18.25 22.3 17.5 24.1 16.65 24.1
Q 16.2 24.1 15.95 24.25
M 16.65 24.65
L 17.3 24.65
Q 17.15 25 16.95 25.15 16.75 25.35 16.5 25.35 16.4 25.35 16.25 25.25 16.15 25.15 16.15 25 16.15 24.65 16.65 24.65
M 19.45 22.85
Q 19.6 22.95 19.6 23.2 19.6 23.4 19.5 23.6 19.35 23.8 19.2 23.9 18.9 24.1 18.4 24.1
L 18.2 24.1 18.75 22.75 18.95 22.75
Q 19.3 22.75 19.45 22.85
M 22.5 22.3
Q 22.55 22.4 22.7 22.45 23 22.55 23 22.85 23 23.1 22.85 23.3 22.7 23.5 22.45 23.5 22.35 23.5 22.25 23.45 22.2 23.35 22.2 23.25 22.2 23.2 22.2 23.1 22.25 22.95 22.25 22.9 22.25 22.8 22.15 22.75 22.1 22.65 22 22.65 21.8 22.65 21.7 22.85 21.55 23 21.55 23.25 21.55 23.6 21.8 23.85 22.05 24.05 22.45 24.05 23.1 24.05 23.4 23.5 23.6 23.2 23.6 22.85 23.6 22.5 23.45 22.3
L 22.5 22.3
M 24.35 22.3
Q 24.3 22.35 24.3 22.4 24.3 22.5 24.4 22.6 24.45 22.65 24.6 22.65 24.65 22.65 24.75 22.6
L 24.9 22.5
Q 25 22.5 25.1 22.5 25.2 22.5 25.25 22.55 25.35 22.65 25.35 22.8 25.35 23.05 25.15 23.3 25 23.5 24.8 23.5 24.7 23.5 24.6 23.45 24.55 23.4 24.55 23.3 24.55 23.25 24.55 23.2
L 24.55 23.1
Q 24.6 23.05 24.6 23 24.6 22.9 24.5 22.8 24.45 22.75 24.3 22.75 24.15 22.75 24.05 22.9 23.95 23.05 23.95 23.3 23.95 23.65 24.15 23.85 24.4 24.05 24.75 24.05 25.25 24.05 25.6 23.7 25.95 23.3 25.95 22.8 25.95 22.5 25.85 22.3
L 24.35 22.3 Z"/>

<path fill="#666666" stroke="none" d="
M 20.5 21.5
Q 20.5 21.1 20.25 20.9 20 20.65 19.5 20.65
L 18.45 20.65
Q 18.3 20.65 18.15 20.75 18.05 20.85 18.05 21 18.05 21.25 18.35 21.25
L 18.65 21.25 18.25 22.3 20.1 22.3
Q 20.2 22.2 20.3 22.1 20.5 21.8 20.5 21.5
M 19.35 21.25
L 19.4 21.25
Q 19.6 21.25 19.7 21.3 19.85 21.35 19.85 21.55 19.85 21.65 19.8 21.8 19.75 21.9 19.65 22 19.45 22.15 19.15 22.15
L 19 22.15 19.35 21.25
M 23.9 21.3
Q 23.9 21 23.55 21
L 22.55 21
Q 22.4 21 22.25 21.1 22.15 21.2 22.15 21.3 22.15 21.55 22.5 21.55
L 23.05 21.55 22.6 22.05
Q 22.5 22.15 22.5 22.25
L 22.5 22.3 23.45 22.3
Q 23.35 22.2 23.25 22.15
L 23.8 21.55
Q 23.9 21.45 23.9 21.3
M 24.9 21.05
Q 24.8 21.1 24.75 21.25
L 24.35 22.2
Q 24.35 22.25 24.35 22.3
L 25.85 22.3
Q 25.8 22.25 25.75 22.2 25.55 22 25.2 22 25.15 22 25.05 22
L 25.25 21.55 25.85 21.55
Q 26.05 21.55 26.2 21.45 26.3 21.4 26.3 21.2 26.3 21.1 26.2 21.05 26.15 21 26 21
L 25.15 21
Q 24.95 21 24.9 21.05 Z"/>
</g>

<g id="___5_0_Layer0_2_FILL">
<path fill="#333333" stroke="none" d="
M 18.15 30.3
L 17.25 30.35 14.9 34.9 14.85 34.85 10.55 33.8 10.7 33.5 9.4 32.4 9 32.65 8.95 32.7 5.95 29.55 2.8 32.35 4.15 33.55 6.15 30.65 8.45 33.05 7.9 33.35 8.35 35.1 8.4 35.1 6.35 38.4 4.15 37.2 3.4 38.85 7 39.4 8.95 35.15 10.1 35.2 10.2 34.95 13.6 35.55 14 36.35 16.35 35.75 15.95 34.85 16 34.75 18.7 31.25 18.25 30.25 18.15 30.3 Z"/>
</g>
</defs>

<g transform="matrix( 12.497573852539062, 0, 0, 12.497573852539062, 0,0) ">
<g transform="matrix( 1, 0, 0, 1, 0,0) ">
<use xlink:href="#___5_0_Layer0_0_FILL"/>
</g>

<g transform="matrix( 1, 0, 0, 1, 0,0) ">
<use xlink:href="#___5_0_Layer0_1_FILL"/>
</g>

<g transform="matrix( 1, 0, 0, 1, 0,0) ">
<use xlink:href="#___5_0_Layer0_1_MEMBER_0_FILL"/>
</g>

<g transform="matrix( 1, 0, 0, 1, 0,0) ">
<use xlink:href="#___5_0_Layer0_1_MEMBER_1_FILL"/>
</g>

<g transform="matrix( 1, 0, 0, 1, 0,0) ">
<use xlink:href="#___5_0_Layer0_2_FILL"/>
</g>
</g>
</svg>
